<?xml version="1.0" encoding="UTF-8" standalone="no"?>
<!-- Created with PhysiCell (http://PhysiCell.MathCancer.org/) -->
<svg 
 xmlns:dc="http://purl.org/dc/elements/1.1/" 
 xmlns:cc="http://creativecommons.org/ns#" 
 xmlns:rdf="http://www.w3.org/1999/02/22-rdf-syntax-ns#" 
 xmlns:svg="http://www.w3.org/2000/svg" 
 xmlns="http://www.w3.org/2000/svg" 
 version="1.1" 
 width="1000" 
 height="1070" 
 id="svg2">
  <rect x="0" y="0" width="1000" height="1070" stroke-width="2" stroke="white" fill="white"/>
  <text x="12.5" y="30"
   font-family="Arial" font-size="25" fill="black" >
   Current time: 0 days, 21 hours, and 0.00 minutes, z = 0.00 &#956;m
  </text>
  <text x="12.5" y="57.5"
   font-family="Arial" font-size="23.75" fill="black" >
   144 agents
  </text>
 <g id="tissue" 
    transform="translate(0,1070) scale(1,-1)">
  <g id="ECM">
  </g>
  <g id="cells">
   <g id="cell0">
  <circle cx="513.941" cy="530.506" r="8.41271" stroke-width="0.5" stroke="black" fill="magenta"/>
  <circle cx="513.941" cy="530.506" r="5.05167" stroke-width="0.5" stroke="black" fill="magenta"/>
   </g>
   <g id="cell1">
  <circle cx="602.254" cy="534.951" r="8.41271" stroke-width="0.5" stroke="black" fill="magenta"/>
  <circle cx="602.254" cy="534.951" r="5.05167" stroke-width="0.5" stroke="black" fill="magenta"/>
   </g>
   <g id="cell2">
  <circle cx="508.308" cy="601.732" r="8.41271" stroke-width="0.5" stroke="black" fill="magenta"/>
  <circle cx="508.308" cy="601.732" r="5.05167" stroke-width="0.5" stroke="black" fill="magenta"/>
   </g>
   <g id="cell3">
  <circle cx="533.2" cy="544.428" r="8.41271" stroke-width="0.5" stroke="black" fill="magenta"/>
  <circle cx="533.2" cy="544.428" r="5.05167" stroke-width="0.5" stroke="black" fill="magenta"/>
   </g>
   <g id="cell4">
  <circle cx="481.375" cy="439.863" r="8.41271" stroke-width="0.5" stroke="black" fill="magenta"/>
  <circle cx="481.375" cy="439.863" r="5.05167" stroke-width="0.5" stroke="black" fill="magenta"/>
   </g>
   <g id="cell5">
  <circle cx="465.038" cy="493.397" r="8.41271" stroke-width="0.5" stroke="black" fill="magenta"/>
  <circle cx="465.038" cy="493.397" r="5.05167" stroke-width="0.5" stroke="black" fill="magenta"/>
   </g>
   <g id="cell6">
  <circle cx="586.271" cy="512.839" r="8.20248" stroke-width="0.5" stroke="black" fill="magenta"/>
  <circle cx="586.271" cy="512.839" r="4.95987" stroke-width="0.5" stroke="black" fill="magenta"/>
   </g>
   <g id="cell7">
  <circle cx="500.864" cy="460.07" r="2.23164" stroke-width="0.5" stroke="black" fill="magenta"/>
  <circle cx="500.864" cy="460.07" r="2.05146" stroke-width="0.5" stroke="black" fill="black"/>
   </g>
   <g id="cell8">
  <circle cx="382.492" cy="533.371" r="6.69288" stroke-width="0.5" stroke="black" fill="magenta"/>
  <circle cx="382.492" cy="533.371" r="4.02051" stroke-width="0.5" stroke="black" fill="magenta"/>
   </g>
   <g id="cell9">
  <circle cx="465.244" cy="595.148" r="8.40327" stroke-width="0.5" stroke="black" fill="magenta"/>
  <circle cx="465.244" cy="595.148" r="5.04872" stroke-width="0.5" stroke="black" fill="magenta"/>
   </g>
   <g id="cell10">
  <circle cx="583.447" cy="392.105" r="8.41271" stroke-width="0.5" stroke="black" fill="magenta"/>
  <circle cx="583.447" cy="392.105" r="5.05167" stroke-width="0.5" stroke="black" fill="magenta"/>
   </g>
   <g id="cell11">
  <circle cx="595.892" cy="584.071" r="8.35862" stroke-width="0.5" stroke="black" fill="magenta"/>
  <circle cx="595.892" cy="584.071" r="5.03176" stroke-width="0.5" stroke="black" fill="magenta"/>
   </g>
   <g id="cell12">
  <circle cx="505.837" cy="585.899" r="8.41271" stroke-width="0.5" stroke="black" fill="magenta"/>
  <circle cx="505.837" cy="585.899" r="5.05167" stroke-width="0.5" stroke="black" fill="magenta"/>
   </g>
   <g id="cell13">
  <circle cx="398.242" cy="569.336" r="8.40494" stroke-width="0.5" stroke="black" fill="magenta"/>
  <circle cx="398.242" cy="569.336" r="5.04929" stroke-width="0.5" stroke="black" fill="magenta"/>
   </g>
   <g id="cell109">
  <circle cx="375.127" cy="443.883" r="8.28262" stroke-width="0.5" stroke="black" fill="cyan"/>
  <circle cx="375.127" cy="443.883" r="4.9961" stroke-width="0.5" stroke="black" fill="cyan"/>
   </g>
   <g id="cell15">
  <circle cx="379.896" cy="475.017" r="8.41271" stroke-width="0.5" stroke="black" fill="magenta"/>
  <circle cx="379.896" cy="475.017" r="5.05167" stroke-width="0.5" stroke="black" fill="magenta"/>
   </g>
   <g id="cell16">
  <circle cx="420.902" cy="427.39" r="7.60624" stroke-width="0.5" stroke="black" fill="magenta"/>
  <circle cx="420.902" cy="427.39" r="4.63182" stroke-width="0.5" stroke="black" fill="magenta"/>
   </g>
   <g id="cell17">
  <circle cx="572.658" cy="492.308" r="8.41271" stroke-width="0.5" stroke="black" fill="magenta"/>
  <circle cx="572.658" cy="492.308" r="5.05167" stroke-width="0.5" stroke="black" fill="magenta"/>
   </g>
   <g id="cell18">
  <circle cx="509.283" cy="385.899" r="6.83667" stroke-width="0.5" stroke="black" fill="magenta"/>
  <circle cx="509.283" cy="385.899" r="4.20504" stroke-width="0.5" stroke="black" fill="black"/>
   </g>
   <g id="cell19">
  <circle cx="453.836" cy="554.484" r="8.34884" stroke-width="0.5" stroke="black" fill="magenta"/>
  <circle cx="453.836" cy="554.484" r="5.02667" stroke-width="0.5" stroke="black" fill="magenta"/>
   </g>
   <g id="cell20">
  <circle cx="531.803" cy="418.776" r="8.41271" stroke-width="0.5" stroke="black" fill="magenta"/>
  <circle cx="531.803" cy="418.776" r="5.05167" stroke-width="0.5" stroke="black" fill="magenta"/>
   </g>
   <g id="cell21">
  <circle cx="464.212" cy="634.718" r="8.41271" stroke-width="0.5" stroke="black" fill="magenta"/>
  <circle cx="464.212" cy="634.718" r="5.05167" stroke-width="0.5" stroke="black" fill="magenta"/>
   </g>
   <g id="cell22">
  <circle cx="557.034" cy="494.446" r="8.41271" stroke-width="0.5" stroke="black" fill="magenta"/>
  <circle cx="557.034" cy="494.446" r="5.05167" stroke-width="0.5" stroke="black" fill="magenta"/>
   </g>
   <g id="cell23">
  <circle cx="541.497" cy="494.412" r="8.13813" stroke-width="0.5" stroke="black" fill="magenta"/>
  <circle cx="541.497" cy="494.412" r="4.92317" stroke-width="0.5" stroke="black" fill="magenta"/>
   </g>
   <g id="cell124">
  <circle cx="558.442" cy="456.902" r="7.46535" stroke-width="0.5" stroke="black" fill="cyan"/>
  <circle cx="558.442" cy="456.902" r="4.55912" stroke-width="0.5" stroke="black" fill="cyan"/>
   </g>
   <g id="cell25">
  <circle cx="639.125" cy="553.081" r="8.34397" stroke-width="0.5" stroke="black" fill="green"/>
  <circle cx="639.125" cy="553.081" r="5.02601" stroke-width="0.5" stroke="black" fill="green"/>
   </g>
   <g id="cell26">
  <circle cx="556.809" cy="399.94" r="8.38682" stroke-width="0.5" stroke="black" fill="green"/>
  <circle cx="556.809" cy="399.94" r="5.04258" stroke-width="0.5" stroke="black" fill="green"/>
   </g>
   <g id="cell27">
  <circle cx="457.446" cy="388.678" r="8.41271" stroke-width="0.5" stroke="black" fill="green"/>
  <circle cx="457.446" cy="388.678" r="5.05167" stroke-width="0.5" stroke="black" fill="green"/>
   </g>
   <g id="cell28">
  <circle cx="426.511" cy="527.151" r="8.41271" stroke-width="0.5" stroke="black" fill="green"/>
  <circle cx="426.511" cy="527.151" r="5.05167" stroke-width="0.5" stroke="black" fill="green"/>
   </g>
   <g id="cell29">
  <circle cx="442.891" cy="509.404" r="7.75912" stroke-width="0.5" stroke="black" fill="green"/>
  <circle cx="442.891" cy="509.404" r="4.71248" stroke-width="0.5" stroke="black" fill="green"/>
   </g>
   <g id="cell126">
  <circle cx="529.968" cy="503.723" r="7.97712" stroke-width="0.5" stroke="black" fill="green"/>
  <circle cx="529.968" cy="503.723" r="4.84984" stroke-width="0.5" stroke="black" fill="green"/>
   </g>
   <g id="cell31">
  <circle cx="415.909" cy="538.788" r="8.23948" stroke-width="0.5" stroke="black" fill="green"/>
  <circle cx="415.909" cy="538.788" r="4.97503" stroke-width="0.5" stroke="black" fill="green"/>
   </g>
   <g id="cell32">
  <circle cx="419.481" cy="486.145" r="6.75639" stroke-width="0.5" stroke="black" fill="green"/>
  <circle cx="419.481" cy="486.145" r="4.06813" stroke-width="0.5" stroke="black" fill="green"/>
   </g>
   <g id="cell33">
  <circle cx="494.145" cy="423.184" r="8.41271" stroke-width="0.5" stroke="black" fill="green"/>
  <circle cx="494.145" cy="423.184" r="5.05167" stroke-width="0.5" stroke="black" fill="green"/>
   </g>
   <g id="cell34">
  <circle cx="393.186" cy="453.799" r="7.93688" stroke-width="0.5" stroke="black" fill="green"/>
  <circle cx="393.186" cy="453.799" r="4.81381" stroke-width="0.5" stroke="black" fill="green"/>
   </g>
   <g id="cell35">
  <circle cx="548.761" cy="547.674" r="8.41271" stroke-width="0.5" stroke="black" fill="green"/>
  <circle cx="548.761" cy="547.674" r="5.05167" stroke-width="0.5" stroke="black" fill="green"/>
   </g>
   <g id="cell36">
  <circle cx="388.209" cy="581.782" r="8.41271" stroke-width="0.5" stroke="black" fill="green"/>
  <circle cx="388.209" cy="581.782" r="5.05167" stroke-width="0.5" stroke="black" fill="green"/>
   </g>
   <g id="cell37">
  <circle cx="634.871" cy="460.618" r="8.41271" stroke-width="0.5" stroke="black" fill="green"/>
  <circle cx="634.871" cy="460.618" r="5.05167" stroke-width="0.5" stroke="black" fill="green"/>
   </g>
   <g id="cell38">
  <circle cx="542.559" cy="612.416" r="7.71595" stroke-width="0.5" stroke="black" fill="green"/>
  <circle cx="542.559" cy="612.416" r="4.68853" stroke-width="0.5" stroke="black" fill="green"/>
   </g>
   <g id="cell39">
  <circle cx="615.119" cy="485.72" r="8.41271" stroke-width="0.5" stroke="black" fill="green"/>
  <circle cx="615.119" cy="485.72" r="5.05167" stroke-width="0.5" stroke="black" fill="green"/>
   </g>
   <g id="cell40">
  <circle cx="482.315" cy="566.655" r="8.39618" stroke-width="0.5" stroke="black" fill="green"/>
  <circle cx="482.315" cy="566.655" r="5.04616" stroke-width="0.5" stroke="black" fill="green"/>
   </g>
   <g id="cell41">
  <circle cx="364.751" cy="480.251" r="8.41271" stroke-width="0.5" stroke="black" fill="green"/>
  <circle cx="364.751" cy="480.251" r="5.05167" stroke-width="0.5" stroke="black" fill="green"/>
   </g>
   <g id="cell42">
  <circle cx="438.926" cy="494.575" r="8.41271" stroke-width="0.5" stroke="black" fill="green"/>
  <circle cx="438.926" cy="494.575" r="5.05167" stroke-width="0.5" stroke="black" fill="green"/>
   </g>
   <g id="cell43">
  <circle cx="559.237" cy="441.966" r="8.41271" stroke-width="0.5" stroke="black" fill="green"/>
  <circle cx="559.237" cy="441.966" r="5.05167" stroke-width="0.5" stroke="black" fill="green"/>
   </g>
   <g id="cell44">
  <circle cx="476.013" cy="623.877" r="8.41271" stroke-width="0.5" stroke="black" fill="green"/>
  <circle cx="476.013" cy="623.877" r="5.05167" stroke-width="0.5" stroke="black" fill="green"/>
   </g>
   <g id="cell45">
  <circle cx="424.789" cy="563.273" r="7.83019" stroke-width="0.5" stroke="black" fill="green"/>
  <circle cx="424.789" cy="563.273" r="4.75343" stroke-width="0.5" stroke="black" fill="green"/>
   </g>
   <g id="cell46">
  <circle cx="519.494" cy="613.2" r="8.41271" stroke-width="0.5" stroke="black" fill="green"/>
  <circle cx="519.494" cy="613.2" r="5.05167" stroke-width="0.5" stroke="black" fill="green"/>
   </g>
   <g id="cell47">
  <circle cx="490.276" cy="504.106" r="8.04214" stroke-width="0.5" stroke="black" fill="green"/>
  <circle cx="490.276" cy="504.106" r="4.87277" stroke-width="0.5" stroke="black" fill="green"/>
   </g>
   <g id="cell48">
  <circle cx="563.636" cy="602.973" r="8.41271" stroke-width="0.5" stroke="black" fill="green"/>
  <circle cx="563.636" cy="602.973" r="5.05167" stroke-width="0.5" stroke="black" fill="green"/>
   </g>
   <g id="cell49">
  <circle cx="428.009" cy="389.94" r="8.41271" stroke-width="0.5" stroke="black" fill="green"/>
  <circle cx="428.009" cy="389.94" r="5.05167" stroke-width="0.5" stroke="black" fill="green"/>
   </g>
   <g id="cell50">
  <circle cx="521.5" cy="516.406" r="8.41271" stroke-width="0.5" stroke="black" fill="cyan"/>
  <circle cx="521.5" cy="516.406" r="5.05167" stroke-width="0.5" stroke="black" fill="cyan"/>
   </g>
   <g id="cell51">
  <circle cx="416.899" cy="594.61" r="8.26936" stroke-width="0.5" stroke="black" fill="cyan"/>
  <circle cx="416.899" cy="594.61" r="4.99062" stroke-width="0.5" stroke="black" fill="cyan"/>
   </g>
   <g id="cell52">
  <circle cx="518.362" cy="427.525" r="8.41271" stroke-width="0.5" stroke="black" fill="cyan"/>
  <circle cx="518.362" cy="427.525" r="5.05167" stroke-width="0.5" stroke="black" fill="cyan"/>
   </g>
   <g id="cell53">
  <circle cx="574.929" cy="439.412" r="8.35568" stroke-width="0.5" stroke="black" fill="cyan"/>
  <circle cx="574.929" cy="439.412" r="5.02965" stroke-width="0.5" stroke="black" fill="cyan"/>
   </g>
   <g id="cell54">
  <circle cx="478.151" cy="424.167" r="8.41271" stroke-width="0.5" stroke="black" fill="cyan"/>
  <circle cx="478.151" cy="424.167" r="5.05167" stroke-width="0.5" stroke="black" fill="cyan"/>
   </g>
   <g id="cell55">
  <circle cx="530.023" cy="465.896" r="8.35236" stroke-width="0.5" stroke="black" fill="cyan"/>
  <circle cx="530.023" cy="465.896" r="5.02821" stroke-width="0.5" stroke="black" fill="cyan"/>
   </g>
   <g id="cell56">
  <circle cx="630.82" cy="521.593" r="8.37092" stroke-width="0.5" stroke="black" fill="cyan"/>
  <circle cx="630.82" cy="521.593" r="5.03613" stroke-width="0.5" stroke="black" fill="cyan"/>
   </g>
   <g id="cell57">
  <circle cx="416.052" cy="616.562" r="8.41271" stroke-width="0.5" stroke="black" fill="cyan"/>
  <circle cx="416.052" cy="616.562" r="5.05167" stroke-width="0.5" stroke="black" fill="cyan"/>
   </g>
   <g id="cell58">
  <circle cx="548.567" cy="480.891" r="8.41271" stroke-width="0.5" stroke="black" fill="cyan"/>
  <circle cx="548.567" cy="480.891" r="5.05167" stroke-width="0.5" stroke="black" fill="cyan"/>
   </g>
   <g id="cell59">
  <circle cx="384.172" cy="431.109" r="8.16704" stroke-width="0.5" stroke="black" fill="cyan"/>
  <circle cx="384.172" cy="431.109" r="4.94367" stroke-width="0.5" stroke="black" fill="cyan"/>
   </g>
   <g id="cell60">
  <circle cx="606.422" cy="472.243" r="8.3995" stroke-width="0.5" stroke="black" fill="cyan"/>
  <circle cx="606.422" cy="472.243" r="5.04738" stroke-width="0.5" stroke="black" fill="cyan"/>
   </g>
   <g id="cell121">
  <circle cx="452.618" cy="463.779" r="8.17715" stroke-width="0.5" stroke="black" fill="cyan"/>
  <circle cx="452.618" cy="463.779" r="4.94809" stroke-width="0.5" stroke="black" fill="cyan"/>
   </g>
   <g id="cell62">
  <circle cx="505.473" cy="449.319" r="6.79397" stroke-width="0.5" stroke="black" fill="cyan"/>
  <circle cx="505.473" cy="449.319" r="4.1108" stroke-width="0.5" stroke="black" fill="cyan"/>
   </g>
   <g id="cell63">
  <circle cx="578.541" cy="546.133" r="8.41271" stroke-width="0.5" stroke="black" fill="cyan"/>
  <circle cx="578.541" cy="546.133" r="5.05167" stroke-width="0.5" stroke="black" fill="cyan"/>
   </g>
   <g id="cell64">
  <circle cx="509.962" cy="636.825" r="8.41271" stroke-width="0.5" stroke="black" fill="cyan"/>
  <circle cx="509.962" cy="636.825" r="5.05167" stroke-width="0.5" stroke="black" fill="cyan"/>
   </g>
   <g id="cell65">
  <circle cx="545.966" cy="465.599" r="8.41271" stroke-width="0.5" stroke="black" fill="cyan"/>
  <circle cx="545.966" cy="465.599" r="5.05167" stroke-width="0.5" stroke="black" fill="cyan"/>
   </g>
   <g id="cell66">
  <circle cx="529.353" cy="529.576" r="7.93688" stroke-width="0.5" stroke="black" fill="cyan"/>
  <circle cx="529.353" cy="529.576" r="4.81381" stroke-width="0.5" stroke="black" fill="cyan"/>
   </g>
   <g id="cell67">
  <circle cx="354.64" cy="492.683" r="8.41271" stroke-width="0.5" stroke="black" fill="cyan"/>
  <circle cx="354.64" cy="492.683" r="5.05167" stroke-width="0.5" stroke="black" fill="cyan"/>
   </g>
   <g id="cell68">
  <circle cx="563.924" cy="552.637" r="8.41271" stroke-width="0.5" stroke="black" fill="cyan"/>
  <circle cx="563.924" cy="552.637" r="5.05167" stroke-width="0.5" stroke="black" fill="cyan"/>
   </g>
   <g id="cell69">
  <circle cx="439.845" cy="455.014" r="8.17715" stroke-width="0.5" stroke="black" fill="cyan"/>
  <circle cx="439.845" cy="455.014" r="4.94809" stroke-width="0.5" stroke="black" fill="cyan"/>
   </g>
   <g id="cell70">
  <circle cx="578.869" cy="477.16" r="8.38206" stroke-width="0.5" stroke="black" fill="cyan"/>
  <circle cx="578.869" cy="477.16" r="5.04069" stroke-width="0.5" stroke="black" fill="cyan"/>
   </g>
   <g id="cell71">
  <circle cx="377.59" cy="520.684" r="8.41271" stroke-width="0.5" stroke="black" fill="cyan"/>
  <circle cx="377.59" cy="520.684" r="5.05167" stroke-width="0.5" stroke="black" fill="cyan"/>
   </g>
   <g id="cell72">
  <circle cx="538.042" cy="516.904" r="8.41271" stroke-width="0.5" stroke="black" fill="cyan"/>
  <circle cx="538.042" cy="516.904" r="5.05167" stroke-width="0.5" stroke="black" fill="cyan"/>
   </g>
   <g id="cell73">
  <circle cx="355.238" cy="550.253" r="8.23386" stroke-width="0.5" stroke="black" fill="cyan"/>
  <circle cx="355.238" cy="550.253" r="4.97471" stroke-width="0.5" stroke="black" fill="cyan"/>
   </g>
   <g id="cell74">
  <circle cx="545.442" cy="450.128" r="8.41271" stroke-width="0.5" stroke="black" fill="cyan"/>
  <circle cx="545.442" cy="450.128" r="5.05167" stroke-width="0.5" stroke="black" fill="cyan"/>
   </g>
   <g id="cell75">
  <circle cx="587.439" cy="496.624" r="8.39251" stroke-width="0.5" stroke="black" fill="magenta"/>
  <circle cx="587.439" cy="496.624" r="5.04503" stroke-width="0.5" stroke="black" fill="magenta"/>
   </g>
   <g id="cell76">
  <circle cx="648.101" cy="539.904" r="8.40576" stroke-width="0.5" stroke="black" fill="green"/>
  <circle cx="648.101" cy="539.904" r="5.04957" stroke-width="0.5" stroke="black" fill="green"/>
   </g>
   <g id="cell77">
  <circle cx="507.08" cy="509.657" r="8.27128" stroke-width="0.5" stroke="black" fill="green"/>
  <circle cx="507.08" cy="509.657" r="4.99129" stroke-width="0.5" stroke="black" fill="green"/>
   </g>
   <g id="cell78">
  <circle cx="367.027" cy="567.936" r="8.38433" stroke-width="0.5" stroke="black" fill="magenta"/>
  <circle cx="367.027" cy="567.936" r="5.04194" stroke-width="0.5" stroke="black" fill="magenta"/>
   </g>
   <g id="cell79">
  <circle cx="538.404" cy="572.373" r="7.93588" stroke-width="0.5" stroke="black" fill="green"/>
  <circle cx="538.404" cy="572.373" r="4.81642" stroke-width="0.5" stroke="black" fill="green"/>
   </g>
   <g id="cell80">
  <circle cx="453.767" cy="606.304" r="8.40327" stroke-width="0.5" stroke="black" fill="magenta"/>
  <circle cx="453.767" cy="606.304" r="5.04872" stroke-width="0.5" stroke="black" fill="magenta"/>
   </g>
   <g id="cell81">
  <circle cx="394.897" cy="617.16" r="8.35018" stroke-width="0.5" stroke="black" fill="cyan"/>
  <circle cx="394.897" cy="617.16" r="5.0279" stroke-width="0.5" stroke="black" fill="cyan"/>
   </g>
   <g id="cell82">
  <circle cx="590.705" cy="466.375" r="8.36182" stroke-width="0.5" stroke="black" fill="cyan"/>
  <circle cx="590.705" cy="466.375" r="5.03294" stroke-width="0.5" stroke="black" fill="cyan"/>
   </g>
   <g id="cell83">
  <circle cx="546.089" cy="597.563" r="8.39561" stroke-width="0.5" stroke="black" fill="green"/>
  <circle cx="546.089" cy="597.563" r="5.04619" stroke-width="0.5" stroke="black" fill="green"/>
   </g>
   <g id="cell84">
  <circle cx="490.899" cy="580.146" r="8.39618" stroke-width="0.5" stroke="black" fill="green"/>
  <circle cx="490.899" cy="580.146" r="5.04616" stroke-width="0.5" stroke="black" fill="green"/>
   </g>
   <g id="cell85">
  <circle cx="609.974" cy="499.253" r="7.00807" stroke-width="0.5" stroke="black" fill="magenta"/>
  <circle cx="609.974" cy="499.253" r="4.25141" stroke-width="0.5" stroke="black" fill="magenta"/>
   </g>
   <g id="cell86">
  <circle cx="523.788" cy="597.841" r="8.38665" stroke-width="0.5" stroke="black" fill="green"/>
  <circle cx="523.788" cy="597.841" r="5.04306" stroke-width="0.5" stroke="black" fill="green"/>
   </g>
   <g id="cell87">
  <circle cx="590.673" cy="599.146" r="8.39316" stroke-width="0.5" stroke="black" fill="magenta"/>
  <circle cx="590.673" cy="599.146" r="5.04503" stroke-width="0.5" stroke="black" fill="magenta"/>
   </g>
   <g id="cell88">
  <circle cx="374.311" cy="554.425" r="8.21965" stroke-width="0.5" stroke="black" fill="magenta"/>
  <circle cx="374.311" cy="554.425" r="4.9674" stroke-width="0.5" stroke="black" fill="magenta"/>
   </g>
   <g id="cell89">
  <circle cx="546.188" cy="411.85" r="8.36632" stroke-width="0.5" stroke="black" fill="green"/>
  <circle cx="546.188" cy="411.85" r="5.03502" stroke-width="0.5" stroke="black" fill="green"/>
   </g>
   <g id="cell90">
  <circle cx="563.647" cy="480.022" r="8.16559" stroke-width="0.5" stroke="black" fill="cyan"/>
  <circle cx="563.647" cy="480.022" r="4.93998" stroke-width="0.5" stroke="black" fill="cyan"/>
   </g>
   <g id="cell91">
  <circle cx="541.194" cy="396.681" r="8.36632" stroke-width="0.5" stroke="black" fill="green"/>
  <circle cx="541.194" cy="396.681" r="5.03502" stroke-width="0.5" stroke="black" fill="green"/>
   </g>
   <g id="cell92">
  <circle cx="641.67" cy="568.785" r="8.37187" stroke-width="0.5" stroke="black" fill="green"/>
  <circle cx="641.67" cy="568.785" r="5.03691" stroke-width="0.5" stroke="black" fill="green"/>
   </g>
   <g id="cell93">
  <circle cx="367.466" cy="540.131" r="8.37431" stroke-width="0.5" stroke="black" fill="cyan"/>
  <circle cx="367.466" cy="540.131" r="5.03754" stroke-width="0.5" stroke="black" fill="cyan"/>
   </g>
   <g id="cell94">
  <circle cx="615.309" cy="525.357" r="8.37092" stroke-width="0.5" stroke="black" fill="cyan"/>
  <circle cx="615.309" cy="525.357" r="5.03613" stroke-width="0.5" stroke="black" fill="cyan"/>
   </g>
   <g id="cell95">
  <circle cx="580.258" cy="587.062" r="8.35862" stroke-width="0.5" stroke="black" fill="magenta"/>
  <circle cx="580.258" cy="587.062" r="5.03176" stroke-width="0.5" stroke="black" fill="magenta"/>
   </g>
   <g id="cell96">
  <circle cx="593.879" cy="481.989" r="8.36182" stroke-width="0.5" stroke="black" fill="cyan"/>
  <circle cx="593.879" cy="481.989" r="5.03294" stroke-width="0.5" stroke="black" fill="cyan"/>
   </g>
   <g id="cell97">
  <circle cx="624.274" cy="547.446" r="8.34397" stroke-width="0.5" stroke="black" fill="green"/>
  <circle cx="624.274" cy="547.446" r="5.02601" stroke-width="0.5" stroke="black" fill="green"/>
   </g>
   <g id="cell98">
  <circle cx="600.685" cy="519.368" r="8.36135" stroke-width="0.5" stroke="black" fill="magenta"/>
  <circle cx="600.685" cy="519.368" r="5.03249" stroke-width="0.5" stroke="black" fill="magenta"/>
   </g>
   <g id="cell99">
  <circle cx="564.757" cy="427.069" r="8.35568" stroke-width="0.5" stroke="black" fill="cyan"/>
  <circle cx="564.757" cy="427.069" r="5.02965" stroke-width="0.5" stroke="black" fill="cyan"/>
   </g>
   <g id="cell100">
  <circle cx="377.054" cy="593.308" r="8.20045" stroke-width="0.5" stroke="black" fill="cyan"/>
  <circle cx="377.054" cy="593.308" r="4.9611" stroke-width="0.5" stroke="black" fill="cyan"/>
   </g>
   <g id="cell101">
  <circle cx="538.929" cy="438.152" r="6.57704" stroke-width="0.5" stroke="black" fill="cyan"/>
  <circle cx="538.929" cy="438.152" r="4.01042" stroke-width="0.5" stroke="black" fill="cyan"/>
   </g>
   <g id="cell102">
  <circle cx="507.455" cy="473.351" r="7.82841" stroke-width="0.5" stroke="black" fill="cyan"/>
  <circle cx="507.455" cy="473.351" r="4.75839" stroke-width="0.5" stroke="black" fill="cyan"/>
   </g>
   <g id="cell103">
  <circle cx="467.045" cy="531.32" r="7.82436" stroke-width="0.5" stroke="black" fill="magenta"/>
  <circle cx="467.045" cy="531.32" r="4.76759" stroke-width="0.5" stroke="black" fill="magenta"/>
   </g>
   <g id="cell104">
  <circle cx="405.151" cy="605.057" r="8.30948" stroke-width="0.5" stroke="black" fill="cyan"/>
  <circle cx="405.151" cy="605.057" r="5.01121" stroke-width="0.5" stroke="black" fill="cyan"/>
   </g>
   <g id="cell105">
  <circle cx="515.196" cy="460.188" r="8.33699" stroke-width="0.5" stroke="black" fill="magenta"/>
  <circle cx="515.196" cy="460.188" r="5.02141" stroke-width="0.5" stroke="black" fill="magenta"/>
   </g>
   <g id="cell106">
  <circle cx="435.791" cy="403.801" r="8.32543" stroke-width="0.5" stroke="black" fill="magenta"/>
  <circle cx="435.791" cy="403.801" r="5.01617" stroke-width="0.5" stroke="black" fill="magenta"/>
   </g>
   <g id="cell107">
  <circle cx="425.547" cy="460.623" r="8.15387" stroke-width="0.5" stroke="black" fill="cyan"/>
  <circle cx="425.547" cy="460.623" r="4.93634" stroke-width="0.5" stroke="black" fill="cyan"/>
   </g>
   <g id="cell108">
  <circle cx="523.839" cy="381.12" r="8.29667" stroke-width="0.5" stroke="black" fill="magenta"/>
  <circle cx="523.839" cy="381.12" r="5.00279" stroke-width="0.5" stroke="black" fill="magenta"/>
   </g>
   <g id="cell110">
  <circle cx="515.277" cy="399.904" r="8.21539" stroke-width="0.5" stroke="black" fill="magenta"/>
  <circle cx="515.277" cy="399.904" r="4.96729" stroke-width="0.5" stroke="black" fill="magenta"/>
   </g>
   <g id="cell111">
  <circle cx="516.392" cy="497.615" r="7.97712" stroke-width="0.5" stroke="black" fill="green"/>
  <circle cx="516.392" cy="497.615" r="4.84984" stroke-width="0.5" stroke="black" fill="green"/>
   </g>
   <g id="cell112">
  <circle cx="403.547" cy="586.102" r="8.26936" stroke-width="0.5" stroke="black" fill="cyan"/>
  <circle cx="403.547" cy="586.102" r="4.99062" stroke-width="0.5" stroke="black" fill="cyan"/>
   </g>
   <g id="cell113">
  <circle cx="339.863" cy="547.136" r="8.23386" stroke-width="0.5" stroke="black" fill="cyan"/>
  <circle cx="339.863" cy="547.136" r="4.97471" stroke-width="0.5" stroke="black" fill="cyan"/>
   </g>
   <g id="cell114">
  <circle cx="381.915" cy="608.239" r="8.14009" stroke-width="0.5" stroke="black" fill="cyan"/>
  <circle cx="381.915" cy="608.239" r="4.9332" stroke-width="0.5" stroke="black" fill="cyan"/>
   </g>
   <g id="cell115">
  <circle cx="392.124" cy="596.749" r="8.14009" stroke-width="0.5" stroke="black" fill="cyan"/>
  <circle cx="392.124" cy="596.749" r="4.9332" stroke-width="0.5" stroke="black" fill="cyan"/>
   </g>
   <g id="cell116">
  <circle cx="400.518" cy="542.478" r="8.23948" stroke-width="0.5" stroke="black" fill="green"/>
  <circle cx="400.518" cy="542.478" r="4.97503" stroke-width="0.5" stroke="black" fill="green"/>
   </g>
   <g id="cell117">
  <circle cx="382.521" cy="567.516" r="8.08752" stroke-width="0.5" stroke="black" fill="magenta"/>
  <circle cx="382.521" cy="567.516" r="4.90509" stroke-width="0.5" stroke="black" fill="magenta"/>
   </g>
   <g id="cell118">
  <circle cx="397.486" cy="439.109" r="8.16704" stroke-width="0.5" stroke="black" fill="cyan"/>
  <circle cx="397.486" cy="439.109" r="4.94367" stroke-width="0.5" stroke="black" fill="cyan"/>
   </g>
   <g id="cell119">
  <circle cx="571.516" cy="508.01" r="8.20248" stroke-width="0.5" stroke="black" fill="magenta"/>
  <circle cx="571.516" cy="508.01" r="4.95987" stroke-width="0.5" stroke="black" fill="magenta"/>
   </g>
   <g id="cell120">
  <circle cx="504.345" cy="488.248" r="8.15593" stroke-width="0.5" stroke="black" fill="green"/>
  <circle cx="504.345" cy="488.248" r="4.93855" stroke-width="0.5" stroke="black" fill="green"/>
   </g>
   <g id="cell122">
  <circle cx="438.295" cy="470.45" r="8.15387" stroke-width="0.5" stroke="black" fill="cyan"/>
  <circle cx="438.295" cy="470.45" r="4.93634" stroke-width="0.5" stroke="black" fill="cyan"/>
   </g>
   <g id="cell123">
  <circle cx="391.145" cy="555.603" r="8.08752" stroke-width="0.5" stroke="black" fill="magenta"/>
  <circle cx="391.145" cy="555.603" r="4.90509" stroke-width="0.5" stroke="black" fill="magenta"/>
   </g>
   <g id="cell125">
  <circle cx="533.26" cy="481.224" r="8.13813" stroke-width="0.5" stroke="black" fill="magenta"/>
  <circle cx="533.26" cy="481.224" r="4.92317" stroke-width="0.5" stroke="black" fill="magenta"/>
   </g>
   <g id="cell127">
  <circle cx="441.054" cy="532.569" r="8.04201" stroke-width="0.5" stroke="black" fill="magenta"/>
  <circle cx="441.054" cy="532.569" r="4.87678" stroke-width="0.5" stroke="black" fill="magenta"/>
   </g>
   <g id="cell128">
  <circle cx="549.502" cy="429.82" r="8.0255" stroke-width="0.5" stroke="black" fill="cyan"/>
  <circle cx="549.502" cy="429.82" r="4.86753" stroke-width="0.5" stroke="black" fill="cyan"/>
   </g>
   <g id="cell129">
  <circle cx="494.694" cy="518.744" r="8.04214" stroke-width="0.5" stroke="black" fill="green"/>
  <circle cx="494.694" cy="518.744" r="4.87277" stroke-width="0.5" stroke="black" fill="green"/>
   </g>
   <g id="cell130">
  <circle cx="454.501" cy="539.18" r="7.82436" stroke-width="0.5" stroke="black" fill="magenta"/>
  <circle cx="454.501" cy="539.18" r="4.76759" stroke-width="0.5" stroke="black" fill="magenta"/>
   </g>
   <g id="cell131">
  <circle cx="534.742" cy="586.952" r="7.93588" stroke-width="0.5" stroke="black" fill="green"/>
  <circle cx="534.742" cy="586.952" r="4.81642" stroke-width="0.5" stroke="black" fill="green"/>
   </g>
   <g id="cell132">
  <circle cx="406.826" cy="460.276" r="7.93688" stroke-width="0.5" stroke="black" fill="green"/>
  <circle cx="406.826" cy="460.276" r="4.81381" stroke-width="0.5" stroke="black" fill="green"/>
   </g>
   <g id="cell133">
  <circle cx="543.937" cy="532.858" r="7.93688" stroke-width="0.5" stroke="black" fill="cyan"/>
  <circle cx="543.937" cy="532.858" r="4.81381" stroke-width="0.5" stroke="black" fill="cyan"/>
   </g>
   <g id="cell134">
  <circle cx="518.54" cy="482.974" r="7.82841" stroke-width="0.5" stroke="black" fill="cyan"/>
  <circle cx="518.54" cy="482.974" r="4.75839" stroke-width="0.5" stroke="black" fill="cyan"/>
   </g>
   <g id="cell135">
  <circle cx="404.361" cy="556.289" r="6.75202" stroke-width="0.5" stroke="black" fill="green"/>
  <circle cx="404.361" cy="556.289" r="4.13553" stroke-width="0.5" stroke="black" fill="green"/>
   </g>
   <g id="cell136">
  <circle cx="455.589" cy="510.777" r="5.87185" stroke-width="0.5" stroke="black" fill="green"/>
  <circle cx="455.589" cy="510.777" r="3.614" stroke-width="0.5" stroke="black" fill="green"/>
   </g>
   <g id="cell137">
  <circle cx="531.804" cy="622.313" r="7.71595" stroke-width="0.5" stroke="black" fill="green"/>
  <circle cx="531.804" cy="622.313" r="4.68853" stroke-width="0.5" stroke="black" fill="green"/>
   </g>
   <g id="cell138">
  <circle cx="432.197" cy="418.452" r="7.60624" stroke-width="0.5" stroke="black" fill="magenta"/>
  <circle cx="432.197" cy="418.452" r="4.63182" stroke-width="0.5" stroke="black" fill="magenta"/>
   </g>
   <g id="cell139">
  <circle cx="568.52" cy="466.33" r="7.46535" stroke-width="0.5" stroke="black" fill="cyan"/>
  <circle cx="568.52" cy="466.33" r="4.55912" stroke-width="0.5" stroke="black" fill="cyan"/>
   </g>
   <g id="cell140">
  <circle cx="450.189" cy="521.659" r="7.12092" stroke-width="0.5" stroke="black" fill="green"/>
  <circle cx="450.189" cy="521.659" r="4.36347" stroke-width="0.5" stroke="black" fill="green"/>
   </g>
   <g id="cell141">
  <circle cx="416.132" cy="552.78" r="6.75202" stroke-width="0.5" stroke="black" fill="green"/>
  <circle cx="416.132" cy="552.78" r="4.13553" stroke-width="0.5" stroke="black" fill="green"/>
   </g>
   <g id="cell142">
  <circle cx="598.512" cy="505.364" r="7.00807" stroke-width="0.5" stroke="black" fill="magenta"/>
  <circle cx="598.512" cy="505.364" r="4.25141" stroke-width="0.5" stroke="black" fill="magenta"/>
   </g>
   <g id="cell143">
  <circle cx="527.025" cy="438.426" r="6.57704" stroke-width="0.5" stroke="black" fill="cyan"/>
  <circle cx="527.025" cy="438.426" r="4.01042" stroke-width="0.5" stroke="black" fill="cyan"/>
   </g>
   <g id="cell144">
  <circle cx="517.704" cy="446.281" r="6.79397" stroke-width="0.5" stroke="black" fill="cyan"/>
  <circle cx="517.704" cy="446.281" r="4.1108" stroke-width="0.5" stroke="black" fill="cyan"/>
   </g>
   <g id="cell145">
  <circle cx="466.466" cy="509.491" r="5.87185" stroke-width="0.5" stroke="black" fill="green"/>
  <circle cx="466.466" cy="509.491" r="3.614" stroke-width="0.5" stroke="black" fill="green"/>
   </g>
   <g id="cell146">
  <circle cx="424.338" cy="474.439" r="6.75639" stroke-width="0.5" stroke="black" fill="green"/>
  <circle cx="424.338" cy="474.439" r="4.06813" stroke-width="0.5" stroke="black" fill="green"/>
   </g>
   <g id="cell147">
  <circle cx="383.846" cy="544.945" r="6.69288" stroke-width="0.5" stroke="black" fill="magenta"/>
  <circle cx="383.846" cy="544.945" r="4.02051" stroke-width="0.5" stroke="black" fill="magenta"/>
   </g>
  </g>
 </g>
  <rect x="775" y="1035" width="200" height="10" stroke-width="2" stroke="rgb(255,255,255)" fill="rgb(0,0,0)"/>
  <text x="781.25" y="1028.75"
   font-family="Arial" font-size="25" fill="black" >
   200 &#956;m
  </text>
  <text x="25" y="1045"
   font-family="Arial" font-size="18.75" fill="black" >
   0 days, 0 hours, 0 minutes, and 28.5654 seconds
  </text>
  <rect x="0" y="70" width="1000" height="1000" stroke-width="2" stroke="rgb(0,0,0)" fill="none"/>
</svg>
