<?xml version="1.0" encoding="UTF-8" standalone="no"?>
<!-- Created with PhysiCell (http://PhysiCell.MathCancer.org/) -->
<svg 
 xmlns:dc="http://purl.org/dc/elements/1.1/" 
 xmlns:cc="http://creativecommons.org/ns#" 
 xmlns:rdf="http://www.w3.org/1999/02/22-rdf-syntax-ns#" 
 xmlns:svg="http://www.w3.org/2000/svg" 
 xmlns="http://www.w3.org/2000/svg" 
 version="1.1" 
 width="1000" 
 height="1070" 
 id="svg2">
  <rect x="0" y="0" width="1000" height="1070" stroke-width="2" stroke="white" fill="white"/>
  <text x="12.5" y="30"
   font-family="Arial" font-size="25" fill="black" >
   Current time: 1 days, 16 hours, and 0.00 minutes, z = 0.00 &#956;m
  </text>
  <text x="12.5" y="57.5"
   font-family="Arial" font-size="23.75" fill="black" >
   209 agents
  </text>
 <g id="tissue" 
    transform="translate(0,1070) scale(1,-1)">
  <g id="ECM">
  </g>
  <g id="cells">
   <g id="cell0">
  <circle cx="511.493" cy="535.576" r="8.41271" stroke-width="0.5" stroke="black" fill="magenta"/>
  <circle cx="511.493" cy="535.576" r="5.05167" stroke-width="0.5" stroke="black" fill="magenta"/>
   </g>
   <g id="cell1">
  <circle cx="602.551" cy="543.166" r="8.41271" stroke-width="0.5" stroke="black" fill="magenta"/>
  <circle cx="602.551" cy="543.166" r="5.05167" stroke-width="0.5" stroke="black" fill="magenta"/>
   </g>
   <g id="cell2">
  <circle cx="505.406" cy="597.53" r="8.41271" stroke-width="0.5" stroke="black" fill="magenta"/>
  <circle cx="505.406" cy="597.53" r="5.05167" stroke-width="0.5" stroke="black" fill="magenta"/>
   </g>
   <g id="cell3">
  <circle cx="521.956" cy="560.028" r="8.39834" stroke-width="0.5" stroke="black" fill="magenta"/>
  <circle cx="521.956" cy="560.028" r="5.04696" stroke-width="0.5" stroke="black" fill="magenta"/>
   </g>
   <g id="cell4">
  <circle cx="486.126" cy="438.352" r="8.1947" stroke-width="0.5" stroke="black" fill="magenta"/>
  <circle cx="486.126" cy="438.352" r="4.95246" stroke-width="0.5" stroke="black" fill="magenta"/>
   </g>
   <g id="cell5">
  <circle cx="463.071" cy="490.928" r="6.92764" stroke-width="0.5" stroke="black" fill="magenta"/>
  <circle cx="463.071" cy="490.928" r="4.1918" stroke-width="0.5" stroke="black" fill="magenta"/>
   </g>
   <g id="cell6">
  <circle cx="585.638" cy="519.319" r="8.41169" stroke-width="0.5" stroke="black" fill="magenta"/>
  <circle cx="585.638" cy="519.319" r="5.05142" stroke-width="0.5" stroke="black" fill="magenta"/>
   </g>
   <g id="cell171">
  <circle cx="586.685" cy="503.484" r="8.37425" stroke-width="0.5" stroke="black" fill="magenta"/>
  <circle cx="586.685" cy="503.484" r="5.03753" stroke-width="0.5" stroke="black" fill="magenta"/>
   </g>
   <g id="cell8">
  <circle cx="372.377" cy="525.308" r="8.40353" stroke-width="0.5" stroke="black" fill="magenta"/>
  <circle cx="372.377" cy="525.308" r="5.04881" stroke-width="0.5" stroke="black" fill="magenta"/>
   </g>
   <g id="cell193">
  <circle cx="447.948" cy="567.018" r="8.20474" stroke-width="0.5" stroke="black" fill="green"/>
  <circle cx="447.948" cy="567.018" r="4.96229" stroke-width="0.5" stroke="black" fill="green"/>
   </g>
   <g id="cell186">
  <circle cx="549.222" cy="430.39" r="8.29559" stroke-width="0.5" stroke="black" fill="cyan"/>
  <circle cx="549.222" cy="430.39" r="5.00302" stroke-width="0.5" stroke="black" fill="cyan"/>
   </g>
   <g id="cell11">
  <circle cx="597.23" cy="571.957" r="8.3965" stroke-width="0.5" stroke="black" fill="magenta"/>
  <circle cx="597.23" cy="571.957" r="5.0463" stroke-width="0.5" stroke="black" fill="magenta"/>
   </g>
   <g id="cell12">
  <circle cx="504.426" cy="581.584" r="8.41271" stroke-width="0.5" stroke="black" fill="magenta"/>
  <circle cx="504.426" cy="581.584" r="5.05167" stroke-width="0.5" stroke="black" fill="magenta"/>
   </g>
   <g id="cell13">
  <circle cx="386.341" cy="573.13" r="8.07652" stroke-width="0.5" stroke="black" fill="magenta"/>
  <circle cx="386.341" cy="573.13" r="4.89045" stroke-width="0.5" stroke="black" fill="magenta"/>
   </g>
   <g id="cell109">
  <circle cx="371.202" cy="442.258" r="8.41207" stroke-width="0.5" stroke="black" fill="cyan"/>
  <circle cx="371.202" cy="442.258" r="5.05152" stroke-width="0.5" stroke="black" fill="cyan"/>
   </g>
   <g id="cell199">
  <circle cx="654.06" cy="525.193" r="8.13896" stroke-width="0.5" stroke="black" fill="green"/>
  <circle cx="654.06" cy="525.193" r="4.92601" stroke-width="0.5" stroke="black" fill="green"/>
   </g>
   <g id="cell16">
  <circle cx="420.847" cy="427.388" r="8.40903" stroke-width="0.5" stroke="black" fill="magenta"/>
  <circle cx="420.847" cy="427.388" r="5.05065" stroke-width="0.5" stroke="black" fill="magenta"/>
   </g>
   <g id="cell17">
  <circle cx="571.24" cy="506.937" r="8.39144" stroke-width="0.5" stroke="black" fill="magenta"/>
  <circle cx="571.24" cy="506.937" r="5.04437" stroke-width="0.5" stroke="black" fill="magenta"/>
   </g>
   <g id="cell185">
  <circle cx="396.13" cy="543.506" r="8.12381" stroke-width="0.5" stroke="black" fill="green"/>
  <circle cx="396.13" cy="543.506" r="4.92337" stroke-width="0.5" stroke="black" fill="green"/>
   </g>
   <g id="cell19">
  <circle cx="451.647" cy="548.77" r="8.3324" stroke-width="0.5" stroke="black" fill="magenta"/>
  <circle cx="451.647" cy="548.77" r="5.01938" stroke-width="0.5" stroke="black" fill="magenta"/>
   </g>
   <g id="cell20">
  <circle cx="537.153" cy="420.546" r="8.41271" stroke-width="0.5" stroke="black" fill="magenta"/>
  <circle cx="537.153" cy="420.546" r="5.05167" stroke-width="0.5" stroke="black" fill="magenta"/>
   </g>
   <g id="cell21">
  <circle cx="459.504" cy="630.521" r="8.16806" stroke-width="0.5" stroke="black" fill="magenta"/>
  <circle cx="459.504" cy="630.521" r="4.93877" stroke-width="0.5" stroke="black" fill="magenta"/>
   </g>
   <g id="cell22">
  <circle cx="559.478" cy="495.831" r="8.41271" stroke-width="0.5" stroke="black" fill="magenta"/>
  <circle cx="559.478" cy="495.831" r="5.05167" stroke-width="0.5" stroke="black" fill="magenta"/>
   </g>
   <g id="cell23">
  <circle cx="556.922" cy="512.806" r="8.37534" stroke-width="0.5" stroke="black" fill="magenta"/>
  <circle cx="556.922" cy="512.806" r="5.0387" stroke-width="0.5" stroke="black" fill="magenta"/>
   </g>
   <g id="cell124">
  <circle cx="559.641" cy="454.999" r="8.40846" stroke-width="0.5" stroke="black" fill="cyan"/>
  <circle cx="559.641" cy="454.999" r="5.05049" stroke-width="0.5" stroke="black" fill="cyan"/>
   </g>
   <g id="cell25">
  <circle cx="638.097" cy="551.104" r="8.11308" stroke-width="0.5" stroke="black" fill="green"/>
  <circle cx="638.097" cy="551.104" r="4.91001" stroke-width="0.5" stroke="black" fill="green"/>
   </g>
   <g id="cell26">
  <circle cx="554.107" cy="398.876" r="8.41258" stroke-width="0.5" stroke="black" fill="green"/>
  <circle cx="554.107" cy="398.876" r="5.05164" stroke-width="0.5" stroke="black" fill="green"/>
   </g>
   <g id="cell27">
  <circle cx="457.446" cy="388.678" r="8.41271" stroke-width="0.5" stroke="black" fill="green"/>
  <circle cx="457.446" cy="388.678" r="5.05167" stroke-width="0.5" stroke="black" fill="green"/>
   </g>
   <g id="cell28">
  <circle cx="427.801" cy="518.067" r="8.41271" stroke-width="0.5" stroke="black" fill="green"/>
  <circle cx="427.801" cy="518.067" r="5.05167" stroke-width="0.5" stroke="black" fill="green"/>
   </g>
   <g id="cell29">
  <circle cx="441.977" cy="510.763" r="8.4097" stroke-width="0.5" stroke="black" fill="green"/>
  <circle cx="441.977" cy="510.763" r="5.05084" stroke-width="0.5" stroke="black" fill="green"/>
   </g>
   <g id="cell126">
  <circle cx="520.462" cy="510.543" r="6.95752" stroke-width="0.5" stroke="black" fill="green"/>
  <circle cx="520.462" cy="510.543" r="4.213" stroke-width="0.5" stroke="black" fill="green"/>
   </g>
   <g id="cell31">
  <circle cx="418.358" cy="531.074" r="8.41187" stroke-width="0.5" stroke="black" fill="green"/>
  <circle cx="418.358" cy="531.074" r="5.05147" stroke-width="0.5" stroke="black" fill="green"/>
   </g>
   <g id="cell32">
  <circle cx="409.436" cy="489.876" r="8.10873" stroke-width="0.5" stroke="black" fill="green"/>
  <circle cx="409.436" cy="489.876" r="4.90862" stroke-width="0.5" stroke="black" fill="green"/>
   </g>
   <g id="cell33">
  <circle cx="494.196" cy="424.977" r="8.41271" stroke-width="0.5" stroke="black" fill="green"/>
  <circle cx="494.196" cy="424.977" r="5.05167" stroke-width="0.5" stroke="black" fill="green"/>
   </g>
   <g id="cell34">
  <circle cx="385.58" cy="449.164" r="8.39723" stroke-width="0.5" stroke="black" fill="green"/>
  <circle cx="385.58" cy="449.164" r="5.04666" stroke-width="0.5" stroke="black" fill="green"/>
   </g>
   <g id="cell35">
  <circle cx="545.722" cy="559.82" r="8.35882" stroke-width="0.5" stroke="black" fill="green"/>
  <circle cx="545.722" cy="559.82" r="5.031" stroke-width="0.5" stroke="black" fill="green"/>
   </g>
   <g id="cell36">
  <circle cx="383.306" cy="588.907" r="8.41271" stroke-width="0.5" stroke="black" fill="green"/>
  <circle cx="383.306" cy="588.907" r="5.05167" stroke-width="0.5" stroke="black" fill="green"/>
   </g>
   <g id="cell37">
  <circle cx="633.249" cy="461.144" r="8.41271" stroke-width="0.5" stroke="black" fill="green"/>
  <circle cx="633.249" cy="461.144" r="5.05167" stroke-width="0.5" stroke="black" fill="green"/>
   </g>
   <g id="cell38">
  <circle cx="544.472" cy="614.5" r="8.40951" stroke-width="0.5" stroke="black" fill="green"/>
  <circle cx="544.472" cy="614.5" r="5.05078" stroke-width="0.5" stroke="black" fill="green"/>
   </g>
   <g id="cell39">
  <circle cx="616.536" cy="485.036" r="6.71158" stroke-width="0.5" stroke="black" fill="green"/>
  <circle cx="616.536" cy="485.036" r="4.03435" stroke-width="0.5" stroke="black" fill="green"/>
   </g>
   <g id="cell40">
  <circle cx="481.803" cy="565.735" r="8.41263" stroke-width="0.5" stroke="black" fill="green"/>
  <circle cx="481.803" cy="565.735" r="5.05165" stroke-width="0.5" stroke="black" fill="green"/>
   </g>
   <g id="cell41">
  <circle cx="365.092" cy="480.246" r="8.41271" stroke-width="0.5" stroke="black" fill="green"/>
  <circle cx="365.092" cy="480.246" r="5.05167" stroke-width="0.5" stroke="black" fill="green"/>
   </g>
   <g id="cell42">
  <circle cx="444.659" cy="494.906" r="8.41271" stroke-width="0.5" stroke="black" fill="green"/>
  <circle cx="444.659" cy="494.906" r="5.05167" stroke-width="0.5" stroke="black" fill="green"/>
   </g>
   <g id="cell43">
  <circle cx="561.584" cy="439.804" r="8.41271" stroke-width="0.5" stroke="black" fill="green"/>
  <circle cx="561.584" cy="439.804" r="5.05167" stroke-width="0.5" stroke="black" fill="green"/>
   </g>
   <g id="cell44">
  <circle cx="471.318" cy="619.991" r="8.39834" stroke-width="0.5" stroke="black" fill="green"/>
  <circle cx="471.318" cy="619.991" r="5.04696" stroke-width="0.5" stroke="black" fill="green"/>
   </g>
   <g id="cell45">
  <circle cx="442.242" cy="581.753" r="8.20474" stroke-width="0.5" stroke="black" fill="green"/>
  <circle cx="442.242" cy="581.753" r="4.96229" stroke-width="0.5" stroke="black" fill="green"/>
   </g>
   <g id="cell46">
  <circle cx="518.743" cy="626.651" r="8.35379" stroke-width="0.5" stroke="black" fill="green"/>
  <circle cx="518.743" cy="626.651" r="5.02992" stroke-width="0.5" stroke="black" fill="green"/>
   </g>
   <g id="cell47">
  <circle cx="488.553" cy="505.176" r="8.41096" stroke-width="0.5" stroke="black" fill="green"/>
  <circle cx="488.553" cy="505.176" r="5.05122" stroke-width="0.5" stroke="black" fill="green"/>
   </g>
   <g id="cell48">
  <circle cx="562.772" cy="602.658" r="8.41271" stroke-width="0.5" stroke="black" fill="green"/>
  <circle cx="562.772" cy="602.658" r="5.05167" stroke-width="0.5" stroke="black" fill="green"/>
   </g>
   <g id="cell49">
  <circle cx="431.266" cy="386.283" r="8.36849" stroke-width="0.5" stroke="black" fill="green"/>
  <circle cx="431.266" cy="386.283" r="5.03512" stroke-width="0.5" stroke="black" fill="green"/>
   </g>
   <g id="cell201">
  <circle cx="424.038" cy="488.473" r="7.49981" stroke-width="0.5" stroke="black" fill="green"/>
  <circle cx="424.038" cy="488.473" r="4.58066" stroke-width="0.5" stroke="black" fill="green"/>
   </g>
   <g id="cell51">
  <circle cx="427.555" cy="603.493" r="8.41201" stroke-width="0.5" stroke="black" fill="cyan"/>
  <circle cx="427.555" cy="603.493" r="5.0515" stroke-width="0.5" stroke="black" fill="cyan"/>
   </g>
   <g id="cell52">
  <circle cx="508.136" cy="420.636" r="7.26975" stroke-width="0.5" stroke="black" fill="cyan"/>
  <circle cx="508.136" cy="420.636" r="4.44397" stroke-width="0.5" stroke="black" fill="cyan"/>
   </g>
   <g id="cell53">
  <circle cx="576.331" cy="434.502" r="8.39246" stroke-width="0.5" stroke="black" fill="cyan"/>
  <circle cx="576.331" cy="434.502" r="5.04478" stroke-width="0.5" stroke="black" fill="cyan"/>
   </g>
   <g id="cell54">
  <circle cx="478.373" cy="424.4" r="8.41271" stroke-width="0.5" stroke="black" fill="cyan"/>
  <circle cx="478.373" cy="424.4" r="5.05167" stroke-width="0.5" stroke="black" fill="cyan"/>
   </g>
   <g id="cell55">
  <circle cx="519.365" cy="461.477" r="6.34857" stroke-width="0.5" stroke="black" fill="cyan"/>
  <circle cx="519.365" cy="461.477" r="3.9575" stroke-width="0.5" stroke="black" fill="black"/>
   </g>
   <g id="cell56">
  <circle cx="632.425" cy="525.906" r="8.4125" stroke-width="0.5" stroke="black" fill="cyan"/>
  <circle cx="632.425" cy="525.906" r="5.05162" stroke-width="0.5" stroke="black" fill="cyan"/>
   </g>
   <g id="cell57">
  <circle cx="420.135" cy="617.542" r="8.35568" stroke-width="0.5" stroke="black" fill="cyan"/>
  <circle cx="420.135" cy="617.542" r="5.02965" stroke-width="0.5" stroke="black" fill="cyan"/>
   </g>
   <g id="cell207">
  <circle cx="431.814" cy="451.217" r="8.06599" stroke-width="0.5" stroke="black" fill="cyan"/>
  <circle cx="431.814" cy="451.217" r="4.88497" stroke-width="0.5" stroke="black" fill="cyan"/>
   </g>
   <g id="cell195">
  <circle cx="411.111" cy="544.988" r="8.12381" stroke-width="0.5" stroke="black" fill="green"/>
  <circle cx="411.111" cy="544.988" r="4.92337" stroke-width="0.5" stroke="black" fill="green"/>
   </g>
   <g id="cell60">
  <circle cx="617.582" cy="464.532" r="8.41264" stroke-width="0.5" stroke="black" fill="cyan"/>
  <circle cx="617.582" cy="464.532" r="5.05166" stroke-width="0.5" stroke="black" fill="cyan"/>
   </g>
   <g id="cell121">
  <circle cx="454.739" cy="464.018" r="8.41157" stroke-width="0.5" stroke="black" fill="cyan"/>
  <circle cx="454.739" cy="464.018" r="5.05139" stroke-width="0.5" stroke="black" fill="cyan"/>
   </g>
   <g id="cell62">
  <circle cx="496.573" cy="451.614" r="2.0475" stroke-width="0.5" stroke="black" fill="cyan"/>
  <circle cx="496.573" cy="451.614" r="1.93077" stroke-width="0.5" stroke="black" fill="black"/>
   </g>
   <g id="cell63">
  <circle cx="585.657" cy="541.745" r="7.1497" stroke-width="0.5" stroke="black" fill="cyan"/>
  <circle cx="585.657" cy="541.745" r="4.34001" stroke-width="0.5" stroke="black" fill="cyan"/>
   </g>
   <g id="cell64">
  <circle cx="509.071" cy="638.712" r="8.41271" stroke-width="0.5" stroke="black" fill="cyan"/>
  <circle cx="509.071" cy="638.712" r="5.05167" stroke-width="0.5" stroke="black" fill="cyan"/>
   </g>
   <g id="cell218">
  <circle cx="583.978" cy="422.265" r="7.08619" stroke-width="0.5" stroke="black" fill="cyan"/>
  <circle cx="583.978" cy="422.265" r="4.29871" stroke-width="0.5" stroke="black" fill="cyan"/>
   </g>
   <g id="cell66">
  <circle cx="522.742" cy="524.447" r="8.37728" stroke-width="0.5" stroke="black" fill="cyan"/>
  <circle cx="522.742" cy="524.447" r="5.03891" stroke-width="0.5" stroke="black" fill="cyan"/>
   </g>
   <g id="cell67">
  <circle cx="354.782" cy="492.513" r="8.41271" stroke-width="0.5" stroke="black" fill="cyan"/>
  <circle cx="354.782" cy="492.513" r="5.05167" stroke-width="0.5" stroke="black" fill="cyan"/>
   </g>
   <g id="cell68">
  <circle cx="572.617" cy="561.695" r="8.41271" stroke-width="0.5" stroke="black" fill="cyan"/>
  <circle cx="572.617" cy="561.695" r="5.05167" stroke-width="0.5" stroke="black" fill="cyan"/>
   </g>
   <g id="cell69">
  <circle cx="447.235" cy="449.842" r="8.41157" stroke-width="0.5" stroke="black" fill="cyan"/>
  <circle cx="447.235" cy="449.842" r="5.05139" stroke-width="0.5" stroke="black" fill="cyan"/>
   </g>
   <g id="cell70">
  <circle cx="588.436" cy="474.143" r="8.38815" stroke-width="0.5" stroke="black" fill="cyan"/>
  <circle cx="588.436" cy="474.143" r="5.04311" stroke-width="0.5" stroke="black" fill="cyan"/>
   </g>
   <g id="cell71">
  <circle cx="371.891" cy="509.41" r="8.41271" stroke-width="0.5" stroke="black" fill="cyan"/>
  <circle cx="371.891" cy="509.41" r="5.05167" stroke-width="0.5" stroke="black" fill="cyan"/>
   </g>
   <g id="cell72">
  <circle cx="537.509" cy="517.411" r="8.41271" stroke-width="0.5" stroke="black" fill="cyan"/>
  <circle cx="537.509" cy="517.411" r="5.05167" stroke-width="0.5" stroke="black" fill="cyan"/>
   </g>
   <g id="cell73">
  <circle cx="350.296" cy="547.155" r="8.41184" stroke-width="0.5" stroke="black" fill="cyan"/>
  <circle cx="350.296" cy="547.155" r="5.05146" stroke-width="0.5" stroke="black" fill="cyan"/>
   </g>
   <g id="cell74">
  <circle cx="546.482" cy="446.189" r="8.41271" stroke-width="0.5" stroke="black" fill="cyan"/>
  <circle cx="546.482" cy="446.189" r="5.05167" stroke-width="0.5" stroke="black" fill="cyan"/>
   </g>
   <g id="cell75">
  <circle cx="600.832" cy="496.841" r="7.71743" stroke-width="0.5" stroke="black" fill="magenta"/>
  <circle cx="600.832" cy="496.841" r="4.6928" stroke-width="0.5" stroke="black" fill="magenta"/>
   </g>
   <g id="cell76">
  <circle cx="643.674" cy="536.659" r="8.13896" stroke-width="0.5" stroke="black" fill="green"/>
  <circle cx="643.674" cy="536.659" r="4.92601" stroke-width="0.5" stroke="black" fill="green"/>
   </g>
   <g id="cell77">
  <circle cx="499.202" cy="517.508" r="8.41202" stroke-width="0.5" stroke="black" fill="green"/>
  <circle cx="499.202" cy="517.508" r="5.05151" stroke-width="0.5" stroke="black" fill="green"/>
   </g>
   <g id="cell78">
  <circle cx="355.372" cy="569.71" r="8.41257" stroke-width="0.5" stroke="black" fill="magenta"/>
  <circle cx="355.372" cy="569.71" r="5.05164" stroke-width="0.5" stroke="black" fill="magenta"/>
   </g>
   <g id="cell79">
  <circle cx="535.816" cy="572.552" r="8.41049" stroke-width="0.5" stroke="black" fill="green"/>
  <circle cx="535.816" cy="572.552" r="5.05108" stroke-width="0.5" stroke="black" fill="green"/>
   </g>
   <g id="cell80">
  <circle cx="458.035" cy="601.392" r="8.39257" stroke-width="0.5" stroke="black" fill="magenta"/>
  <circle cx="458.035" cy="601.392" r="5.04481" stroke-width="0.5" stroke="black" fill="magenta"/>
   </g>
   <g id="cell81">
  <circle cx="397.061" cy="617.649" r="8.4124" stroke-width="0.5" stroke="black" fill="cyan"/>
  <circle cx="397.061" cy="617.649" r="5.0516" stroke-width="0.5" stroke="black" fill="cyan"/>
   </g>
   <g id="cell82">
  <circle cx="601.791" cy="465.569" r="8.3951" stroke-width="0.5" stroke="black" fill="cyan"/>
  <circle cx="601.791" cy="465.569" r="5.04578" stroke-width="0.5" stroke="black" fill="cyan"/>
   </g>
   <g id="cell83">
  <circle cx="547.186" cy="598.746" r="8.41262" stroke-width="0.5" stroke="black" fill="green"/>
  <circle cx="547.186" cy="598.746" r="5.05165" stroke-width="0.5" stroke="black" fill="green"/>
   </g>
   <g id="cell84">
  <circle cx="488.475" cy="580.298" r="8.41263" stroke-width="0.5" stroke="black" fill="green"/>
  <circle cx="488.475" cy="580.298" r="5.05165" stroke-width="0.5" stroke="black" fill="green"/>
   </g>
   <g id="cell85">
  <circle cx="627.375" cy="494.871" r="8.30476" stroke-width="0.5" stroke="black" fill="magenta"/>
  <circle cx="627.375" cy="494.871" r="5.00886" stroke-width="0.5" stroke="black" fill="magenta"/>
   </g>
   <g id="cell86">
  <circle cx="521.458" cy="598.008" r="8.36451" stroke-width="0.5" stroke="black" fill="green"/>
  <circle cx="521.458" cy="598.008" r="5.03345" stroke-width="0.5" stroke="black" fill="green"/>
   </g>
   <g id="cell87">
  <circle cx="587.051" cy="611.941" r="8.40295" stroke-width="0.5" stroke="black" fill="magenta"/>
  <circle cx="587.051" cy="611.941" r="5.04862" stroke-width="0.5" stroke="black" fill="magenta"/>
   </g>
   <g id="cell88">
  <circle cx="363.486" cy="555.871" r="8.41177" stroke-width="0.5" stroke="black" fill="magenta"/>
  <circle cx="363.486" cy="555.871" r="5.05144" stroke-width="0.5" stroke="black" fill="magenta"/>
   </g>
   <g id="cell89">
  <circle cx="539.188" cy="404.757" r="8.41248" stroke-width="0.5" stroke="black" fill="green"/>
  <circle cx="539.188" cy="404.757" r="5.05162" stroke-width="0.5" stroke="black" fill="green"/>
   </g>
   <g id="cell90">
  <circle cx="565.075" cy="481.001" r="8.28924" stroke-width="0.5" stroke="black" fill="cyan"/>
  <circle cx="565.075" cy="481.001" r="4.9994" stroke-width="0.5" stroke="black" fill="cyan"/>
   </g>
   <g id="cell91">
  <circle cx="541.498" cy="388.961" r="8.41248" stroke-width="0.5" stroke="black" fill="green"/>
  <circle cx="541.498" cy="388.961" r="5.05162" stroke-width="0.5" stroke="black" fill="green"/>
   </g>
   <g id="cell92">
  <circle cx="638.051" cy="569.196" r="7.80763" stroke-width="0.5" stroke="black" fill="green"/>
  <circle cx="638.051" cy="569.196" r="4.75551" stroke-width="0.5" stroke="black" fill="green"/>
   </g>
   <g id="cell93">
  <circle cx="359.082" cy="533.896" r="8.41252" stroke-width="0.5" stroke="black" fill="cyan"/>
  <circle cx="359.082" cy="533.896" r="5.05163" stroke-width="0.5" stroke="black" fill="cyan"/>
   </g>
   <g id="cell94">
  <circle cx="614.354" cy="532.482" r="8.27486" stroke-width="0.5" stroke="black" fill="cyan"/>
  <circle cx="614.354" cy="532.482" r="4.99239" stroke-width="0.5" stroke="black" fill="cyan"/>
   </g>
   <g id="cell95">
  <circle cx="574.972" cy="582.692" r="8.41244" stroke-width="0.5" stroke="black" fill="magenta"/>
  <circle cx="574.972" cy="582.692" r="5.05161" stroke-width="0.5" stroke="black" fill="magenta"/>
   </g>
   <g id="cell96">
  <circle cx="602.709" cy="481.503" r="8.41245" stroke-width="0.5" stroke="black" fill="cyan"/>
  <circle cx="602.709" cy="481.503" r="5.05162" stroke-width="0.5" stroke="black" fill="cyan"/>
   </g>
   <g id="cell97">
  <circle cx="623.531" cy="545.204" r="8.41237" stroke-width="0.5" stroke="black" fill="green"/>
  <circle cx="623.531" cy="545.204" r="5.0516" stroke-width="0.5" stroke="black" fill="green"/>
   </g>
   <g id="cell98">
  <circle cx="599.316" cy="527.619" r="8.41245" stroke-width="0.5" stroke="black" fill="magenta"/>
  <circle cx="599.316" cy="527.619" r="5.05161" stroke-width="0.5" stroke="black" fill="magenta"/>
   </g>
   <g id="cell99">
  <circle cx="577.196" cy="410.751" r="7.08619" stroke-width="0.5" stroke="black" fill="cyan"/>
  <circle cx="577.196" cy="410.751" r="4.29871" stroke-width="0.5" stroke="black" fill="cyan"/>
   </g>
   <g id="cell100">
  <circle cx="373.912" cy="602.007" r="8.05595" stroke-width="0.5" stroke="black" fill="cyan"/>
  <circle cx="373.912" cy="602.007" r="4.87952" stroke-width="0.5" stroke="black" fill="cyan"/>
   </g>
   <g id="cell101">
  <circle cx="534.321" cy="436.114" r="8.29559" stroke-width="0.5" stroke="black" fill="cyan"/>
  <circle cx="534.321" cy="436.114" r="5.00302" stroke-width="0.5" stroke="black" fill="cyan"/>
   </g>
   <g id="cell102">
  <circle cx="495.107" cy="476.387" r="8.41001" stroke-width="0.5" stroke="black" fill="cyan"/>
  <circle cx="495.107" cy="476.387" r="5.05094" stroke-width="0.5" stroke="black" fill="cyan"/>
   </g>
   <g id="cell103">
  <circle cx="466.485" cy="533.071" r="8.41001" stroke-width="0.5" stroke="black" fill="magenta"/>
  <circle cx="466.485" cy="533.071" r="5.05097" stroke-width="0.5" stroke="black" fill="magenta"/>
   </g>
   <g id="cell209">
  <circle cx="639.497" cy="583.898" r="7.80763" stroke-width="0.5" stroke="black" fill="green"/>
  <circle cx="639.497" cy="583.898" r="4.75551" stroke-width="0.5" stroke="black" fill="green"/>
   </g>
   <g id="cell105">
  <circle cx="503.188" cy="461.431" r="8.41233" stroke-width="0.5" stroke="black" fill="magenta"/>
  <circle cx="503.188" cy="461.431" r="5.05159" stroke-width="0.5" stroke="black" fill="magenta"/>
   </g>
   <g id="cell106">
  <circle cx="432.53" cy="401.489" r="7.73985" stroke-width="0.5" stroke="black" fill="magenta"/>
  <circle cx="432.53" cy="401.489" r="4.70136" stroke-width="0.5" stroke="black" fill="magenta"/>
   </g>
   <g id="cell107">
  <circle cx="416.832" cy="449.815" r="8.06599" stroke-width="0.5" stroke="black" fill="cyan"/>
  <circle cx="416.832" cy="449.815" r="4.88497" stroke-width="0.5" stroke="black" fill="cyan"/>
   </g>
   <g id="cell108">
  <circle cx="524.627" cy="379.465" r="8.41214" stroke-width="0.5" stroke="black" fill="magenta"/>
  <circle cx="524.627" cy="379.465" r="5.05154" stroke-width="0.5" stroke="black" fill="magenta"/>
   </g>
   <g id="cell110">
  <circle cx="521.544" cy="395.134" r="8.37272" stroke-width="0.5" stroke="black" fill="magenta"/>
  <circle cx="521.544" cy="395.134" r="5.03697" stroke-width="0.5" stroke="black" fill="magenta"/>
   </g>
   <g id="cell111">
  <circle cx="514.357" cy="490.468" r="8.27391" stroke-width="0.5" stroke="black" fill="green"/>
  <circle cx="514.357" cy="490.468" r="4.99215" stroke-width="0.5" stroke="black" fill="green"/>
   </g>
   <g id="cell112">
  <circle cx="399.094" cy="592.461" r="8.39387" stroke-width="0.5" stroke="black" fill="cyan"/>
  <circle cx="399.094" cy="592.461" r="5.04535" stroke-width="0.5" stroke="black" fill="cyan"/>
   </g>
   <g id="cell113">
  <circle cx="334.433" cy="546.123" r="8.41184" stroke-width="0.5" stroke="black" fill="cyan"/>
  <circle cx="334.433" cy="546.123" r="5.05146" stroke-width="0.5" stroke="black" fill="cyan"/>
   </g>
   <g id="cell114">
  <circle cx="380.652" cy="617.117" r="8.4114" stroke-width="0.5" stroke="black" fill="cyan"/>
  <circle cx="380.652" cy="617.117" r="5.05135" stroke-width="0.5" stroke="black" fill="cyan"/>
   </g>
   <g id="cell115">
  <circle cx="389.091" cy="603.991" r="8.4114" stroke-width="0.5" stroke="black" fill="cyan"/>
  <circle cx="389.091" cy="603.991" r="5.05135" stroke-width="0.5" stroke="black" fill="cyan"/>
   </g>
   <g id="cell116">
  <circle cx="402.478" cy="529.488" r="8.33868" stroke-width="0.5" stroke="black" fill="green"/>
  <circle cx="402.478" cy="529.488" r="5.02225" stroke-width="0.5" stroke="black" fill="green"/>
   </g>
   <g id="cell117">
  <circle cx="371.211" cy="569.997" r="8.41116" stroke-width="0.5" stroke="black" fill="magenta"/>
  <circle cx="371.211" cy="569.997" r="5.05129" stroke-width="0.5" stroke="black" fill="magenta"/>
   </g>
   <g id="cell118">
  <circle cx="398.594" cy="437.612" r="1.31398" stroke-width="0.5" stroke="black" fill="cyan"/>
  <circle cx="398.594" cy="437.612" r="1.30562" stroke-width="0.5" stroke="black" fill="black"/>
   </g>
   <g id="cell119">
  <circle cx="569.768" cy="522.469" r="8.41169" stroke-width="0.5" stroke="black" fill="magenta"/>
  <circle cx="569.768" cy="522.469" r="5.05142" stroke-width="0.5" stroke="black" fill="magenta"/>
   </g>
   <g id="cell120">
  <circle cx="498.558" cy="492.167" r="8.39851" stroke-width="0.5" stroke="black" fill="green"/>
  <circle cx="498.558" cy="492.167" r="5.04709" stroke-width="0.5" stroke="black" fill="green"/>
   </g>
   <g id="cell122">
  <circle cx="452.588" cy="480.762" r="8.36313" stroke-width="0.5" stroke="black" fill="cyan"/>
  <circle cx="452.588" cy="480.762" r="5.03345" stroke-width="0.5" stroke="black" fill="cyan"/>
   </g>
   <g id="cell123">
  <circle cx="379.052" cy="556.152" r="8.35489" stroke-width="0.5" stroke="black" fill="magenta"/>
  <circle cx="379.052" cy="556.152" r="5.02945" stroke-width="0.5" stroke="black" fill="magenta"/>
   </g>
   <g id="cell125">
  <circle cx="526.177" cy="474.736" r="8.4114" stroke-width="0.5" stroke="black" fill="magenta"/>
  <circle cx="526.177" cy="474.736" r="5.05134" stroke-width="0.5" stroke="black" fill="magenta"/>
   </g>
   <g id="cell127">
  <circle cx="446.627" cy="534.937" r="7.301" stroke-width="0.5" stroke="black" fill="magenta"/>
  <circle cx="446.627" cy="534.937" r="4.43663" stroke-width="0.5" stroke="black" fill="magenta"/>
   </g>
   <g id="cell128">
  <circle cx="551.766" cy="414.615" r="8.38114" stroke-width="0.5" stroke="black" fill="cyan"/>
  <circle cx="551.766" cy="414.615" r="5.04045" stroke-width="0.5" stroke="black" fill="cyan"/>
   </g>
   <g id="cell129">
  <circle cx="483.814" cy="520.673" r="8.41096" stroke-width="0.5" stroke="black" fill="green"/>
  <circle cx="483.814" cy="520.673" r="5.05122" stroke-width="0.5" stroke="black" fill="green"/>
   </g>
   <g id="cell208">
  <circle cx="367.616" cy="588.054" r="8.05595" stroke-width="0.5" stroke="black" fill="cyan"/>
  <circle cx="367.616" cy="588.054" r="4.87952" stroke-width="0.5" stroke="black" fill="cyan"/>
   </g>
   <g id="cell131">
  <circle cx="534.785" cy="588.701" r="8.41049" stroke-width="0.5" stroke="black" fill="green"/>
  <circle cx="534.785" cy="588.701" r="5.05108" stroke-width="0.5" stroke="black" fill="green"/>
   </g>
   <g id="cell132">
  <circle cx="401.452" cy="449.491" r="8.40189" stroke-width="0.5" stroke="black" fill="green"/>
  <circle cx="401.452" cy="449.491" r="5.04833" stroke-width="0.5" stroke="black" fill="green"/>
   </g>
   <g id="cell133">
  <circle cx="550.167" cy="526.934" r="8.31179" stroke-width="0.5" stroke="black" fill="cyan"/>
  <circle cx="550.167" cy="526.934" r="5.01124" stroke-width="0.5" stroke="black" fill="cyan"/>
   </g>
   <g id="cell134">
  <circle cx="510.778" cy="475.179" r="8.41001" stroke-width="0.5" stroke="black" fill="cyan"/>
  <circle cx="510.778" cy="475.179" r="5.05094" stroke-width="0.5" stroke="black" fill="cyan"/>
   </g>
   <g id="cell135">
  <circle cx="409.961" cy="560.232" r="8.10059" stroke-width="0.5" stroke="black" fill="green"/>
  <circle cx="409.961" cy="560.232" r="4.90422" stroke-width="0.5" stroke="black" fill="green"/>
   </g>
   <g id="cell136">
  <circle cx="457.067" cy="505.826" r="8.40214" stroke-width="0.5" stroke="black" fill="green"/>
  <circle cx="457.067" cy="505.826" r="5.0485" stroke-width="0.5" stroke="black" fill="green"/>
   </g>
   <g id="cell137">
  <circle cx="534.975" cy="627.42" r="8.40951" stroke-width="0.5" stroke="black" fill="green"/>
  <circle cx="534.975" cy="627.42" r="5.05078" stroke-width="0.5" stroke="black" fill="green"/>
   </g>
   <g id="cell138">
  <circle cx="432.831" cy="416.795" r="8.40903" stroke-width="0.5" stroke="black" fill="magenta"/>
  <circle cx="432.831" cy="416.795" r="5.05065" stroke-width="0.5" stroke="black" fill="magenta"/>
   </g>
   <g id="cell139">
  <circle cx="571.349" cy="466.083" r="8.40846" stroke-width="0.5" stroke="black" fill="cyan"/>
  <circle cx="571.349" cy="466.083" r="5.05049" stroke-width="0.5" stroke="black" fill="cyan"/>
   </g>
   <g id="cell140">
  <circle cx="453.434" cy="521.788" r="8.40711" stroke-width="0.5" stroke="black" fill="green"/>
  <circle cx="453.434" cy="521.788" r="5.05009" stroke-width="0.5" stroke="black" fill="green"/>
   </g>
   <g id="cell141">
  <circle cx="426.452" cy="544.876" r="8.40548" stroke-width="0.5" stroke="black" fill="green"/>
  <circle cx="426.452" cy="544.876" r="5.04956" stroke-width="0.5" stroke="black" fill="green"/>
   </g>
   <g id="cell142">
  <circle cx="600.195" cy="511.878" r="8.40609" stroke-width="0.5" stroke="black" fill="magenta"/>
  <circle cx="600.195" cy="511.878" r="5.04969" stroke-width="0.5" stroke="black" fill="magenta"/>
   </g>
   <g id="cell143">
  <circle cx="518.597" cy="433.368" r="8.40424" stroke-width="0.5" stroke="black" fill="cyan"/>
  <circle cx="518.597" cy="433.368" r="5.04913" stroke-width="0.5" stroke="black" fill="cyan"/>
   </g>
   <g id="cell144">
  <circle cx="511.803" cy="447.962" r="8.4048" stroke-width="0.5" stroke="black" fill="cyan"/>
  <circle cx="511.803" cy="447.962" r="5.04926" stroke-width="0.5" stroke="black" fill="cyan"/>
   </g>
   <g id="cell145">
  <circle cx="468.435" cy="517.215" r="8.39685" stroke-width="0.5" stroke="black" fill="green"/>
  <circle cx="468.435" cy="517.215" r="5.04674" stroke-width="0.5" stroke="black" fill="green"/>
   </g>
   <g id="cell146">
  <circle cx="423.818" cy="471.102" r="8.40427" stroke-width="0.5" stroke="black" fill="green"/>
  <circle cx="423.818" cy="471.102" r="5.04906" stroke-width="0.5" stroke="black" fill="green"/>
   </g>
   <g id="cell147">
  <circle cx="373.295" cy="541.35" r="8.40353" stroke-width="0.5" stroke="black" fill="magenta"/>
  <circle cx="373.295" cy="541.35" r="5.04881" stroke-width="0.5" stroke="black" fill="magenta"/>
   </g>
   <g id="cell148">
  <circle cx="584.845" cy="595.237" r="8.16289" stroke-width="0.5" stroke="black" fill="magenta"/>
  <circle cx="584.845" cy="595.237" r="4.93712" stroke-width="0.5" stroke="black" fill="magenta"/>
   </g>
   <g id="cell149">
  <circle cx="530.153" cy="490.051" r="8.40234" stroke-width="0.5" stroke="black" fill="magenta"/>
  <circle cx="530.153" cy="490.051" r="5.04846" stroke-width="0.5" stroke="black" fill="magenta"/>
   </g>
   <g id="cell150">
  <circle cx="409.446" cy="463.47" r="8.27704" stroke-width="0.5" stroke="black" fill="green"/>
  <circle cx="409.446" cy="463.47" r="4.99436" stroke-width="0.5" stroke="black" fill="green"/>
   </g>
   <g id="cell151">
  <circle cx="438.832" cy="465.036" r="8.4021" stroke-width="0.5" stroke="black" fill="cyan"/>
  <circle cx="438.832" cy="465.036" r="5.04838" stroke-width="0.5" stroke="black" fill="cyan"/>
   </g>
   <g id="cell152">
  <circle cx="472.633" cy="501.949" r="8.39685" stroke-width="0.5" stroke="black" fill="green"/>
  <circle cx="472.633" cy="501.949" r="5.04674" stroke-width="0.5" stroke="black" fill="green"/>
   </g>
   <g id="cell153">
  <circle cx="545.613" cy="487.161" r="8.07711" stroke-width="0.5" stroke="black" fill="magenta"/>
  <circle cx="545.613" cy="487.161" r="4.89267" stroke-width="0.5" stroke="black" fill="magenta"/>
   </g>
   <g id="cell154">
  <circle cx="483.068" cy="490.025" r="8.39851" stroke-width="0.5" stroke="black" fill="green"/>
  <circle cx="483.068" cy="490.025" r="5.04709" stroke-width="0.5" stroke="black" fill="green"/>
   </g>
   <g id="cell155">
  <circle cx="485.978" cy="626.389" r="8.39834" stroke-width="0.5" stroke="black" fill="green"/>
  <circle cx="485.978" cy="626.389" r="5.04696" stroke-width="0.5" stroke="black" fill="green"/>
   </g>
   <g id="cell156">
  <circle cx="533.765" cy="549.3" r="8.39834" stroke-width="0.5" stroke="black" fill="magenta"/>
  <circle cx="533.765" cy="549.3" r="5.04696" stroke-width="0.5" stroke="black" fill="magenta"/>
   </g>
   <g id="cell157">
  <circle cx="393.402" cy="463.127" r="8.39723" stroke-width="0.5" stroke="black" fill="green"/>
  <circle cx="393.402" cy="463.127" r="5.04666" stroke-width="0.5" stroke="black" fill="green"/>
   </g>
   <g id="cell158">
  <circle cx="600.459" cy="587.733" r="6.8847" stroke-width="0.5" stroke="black" fill="magenta"/>
  <circle cx="600.459" cy="587.733" r="4.16609" stroke-width="0.5" stroke="black" fill="magenta"/>
   </g>
   <g id="cell159">
  <circle cx="589.358" cy="443.372" r="8.3951" stroke-width="0.5" stroke="black" fill="cyan"/>
  <circle cx="589.358" cy="443.372" r="5.04578" stroke-width="0.5" stroke="black" fill="cyan"/>
   </g>
   <g id="cell160">
  <circle cx="415.706" cy="593.254" r="8.39387" stroke-width="0.5" stroke="black" fill="cyan"/>
  <circle cx="415.706" cy="593.254" r="5.04535" stroke-width="0.5" stroke="black" fill="cyan"/>
   </g>
   <g id="cell161">
  <circle cx="447.699" cy="613.585" r="8.39257" stroke-width="0.5" stroke="black" fill="magenta"/>
  <circle cx="447.699" cy="613.585" r="5.04481" stroke-width="0.5" stroke="black" fill="magenta"/>
   </g>
   <g id="cell162">
  <circle cx="574.445" cy="450.085" r="8.39246" stroke-width="0.5" stroke="black" fill="cyan"/>
  <circle cx="574.445" cy="450.085" r="5.04478" stroke-width="0.5" stroke="black" fill="cyan"/>
   </g>
   <g id="cell163">
  <circle cx="562.729" cy="536.662" r="8.39091" stroke-width="0.5" stroke="black" fill="cyan"/>
  <circle cx="562.729" cy="536.662" r="5.0443" stroke-width="0.5" stroke="black" fill="cyan"/>
   </g>
   <g id="cell164">
  <circle cx="575.21" cy="492.206" r="8.39144" stroke-width="0.5" stroke="black" fill="magenta"/>
  <circle cx="575.21" cy="492.206" r="5.04437" stroke-width="0.5" stroke="black" fill="magenta"/>
   </g>
   <g id="cell165">
  <circle cx="587.336" cy="458.867" r="8.38815" stroke-width="0.5" stroke="black" fill="cyan"/>
  <circle cx="587.336" cy="458.867" r="5.04311" stroke-width="0.5" stroke="black" fill="cyan"/>
   </g>
   <g id="cell166">
  <circle cx="653.679" cy="548.592" r="8.3853" stroke-width="0.5" stroke="black" fill="green"/>
  <circle cx="653.679" cy="548.592" r="5.04198" stroke-width="0.5" stroke="black" fill="green"/>
   </g>
   <g id="cell167">
  <circle cx="545.303" cy="502.617" r="8.37534" stroke-width="0.5" stroke="black" fill="magenta"/>
  <circle cx="545.303" cy="502.617" r="5.0387" stroke-width="0.5" stroke="black" fill="magenta"/>
   </g>
   <g id="cell168">
  <circle cx="564.189" cy="424.26" r="8.38114" stroke-width="0.5" stroke="black" fill="cyan"/>
  <circle cx="564.189" cy="424.26" r="5.04045" stroke-width="0.5" stroke="black" fill="cyan"/>
   </g>
   <g id="cell169">
  <circle cx="535.451" cy="533.336" r="8.37728" stroke-width="0.5" stroke="black" fill="cyan"/>
  <circle cx="535.451" cy="533.336" r="5.03891" stroke-width="0.5" stroke="black" fill="cyan"/>
   </g>
   <g id="cell170">
  <circle cx="526.741" cy="615.636" r="6.66421" stroke-width="0.5" stroke="black" fill="green"/>
  <circle cx="526.741" cy="615.636" r="4.01004" stroke-width="0.5" stroke="black" fill="green"/>
   </g>
   <g id="cell172">
  <circle cx="505.888" cy="397.933" r="8.37272" stroke-width="0.5" stroke="black" fill="magenta"/>
  <circle cx="505.888" cy="397.933" r="5.03697" stroke-width="0.5" stroke="black" fill="magenta"/>
   </g>
   <g id="cell173">
  <circle cx="512.931" cy="611.583" r="8.35379" stroke-width="0.5" stroke="black" fill="green"/>
  <circle cx="512.931" cy="611.583" r="5.02992" stroke-width="0.5" stroke="black" fill="green"/>
   </g>
   <g id="cell174">
  <circle cx="418.389" cy="395.774" r="8.36849" stroke-width="0.5" stroke="black" fill="green"/>
  <circle cx="418.389" cy="395.774" r="5.03512" stroke-width="0.5" stroke="black" fill="green"/>
   </g>
   <g id="cell175">
  <circle cx="436.762" cy="480.779" r="8.36313" stroke-width="0.5" stroke="black" fill="cyan"/>
  <circle cx="436.762" cy="480.779" r="5.03345" stroke-width="0.5" stroke="black" fill="cyan"/>
   </g>
   <g id="cell176">
  <circle cx="632.95" cy="509.89" r="8.36257" stroke-width="0.5" stroke="black" fill="magenta"/>
  <circle cx="632.95" cy="509.89" r="5.03303" stroke-width="0.5" stroke="black" fill="magenta"/>
   </g>
   <g id="cell177">
  <circle cx="520.368" cy="582.141" r="8.36451" stroke-width="0.5" stroke="black" fill="green"/>
  <circle cx="520.368" cy="582.141" r="5.03345" stroke-width="0.5" stroke="black" fill="green"/>
   </g>
   <g id="cell178">
  <circle cx="559.767" cy="552.46" r="8.35882" stroke-width="0.5" stroke="black" fill="green"/>
  <circle cx="559.767" cy="552.46" r="5.031" stroke-width="0.5" stroke="black" fill="green"/>
   </g>
   <g id="cell179">
  <circle cx="408.709" cy="628.552" r="8.35568" stroke-width="0.5" stroke="black" fill="cyan"/>
  <circle cx="408.709" cy="628.552" r="5.02965" stroke-width="0.5" stroke="black" fill="cyan"/>
   </g>
   <g id="cell180">
  <circle cx="394.257" cy="558.431" r="8.35489" stroke-width="0.5" stroke="black" fill="magenta"/>
  <circle cx="394.257" cy="558.431" r="5.02945" stroke-width="0.5" stroke="black" fill="magenta"/>
   </g>
   <g id="cell181">
  <circle cx="386.487" cy="531.88" r="8.27718" stroke-width="0.5" stroke="black" fill="green"/>
  <circle cx="386.487" cy="531.88" r="4.99631" stroke-width="0.5" stroke="black" fill="green"/>
   </g>
   <g id="cell182">
  <circle cx="462.106" cy="560.534" r="8.3324" stroke-width="0.5" stroke="black" fill="magenta"/>
  <circle cx="462.106" cy="560.534" r="5.01938" stroke-width="0.5" stroke="black" fill="magenta"/>
   </g>
   <g id="cell183">
  <circle cx="614.112" cy="503.194" r="8.30476" stroke-width="0.5" stroke="black" fill="magenta"/>
  <circle cx="614.112" cy="503.194" r="5.00886" stroke-width="0.5" stroke="black" fill="magenta"/>
   </g>
   <g id="cell184">
  <circle cx="547.984" cy="542.45" r="8.31179" stroke-width="0.5" stroke="black" fill="cyan"/>
  <circle cx="547.984" cy="542.45" r="5.01124" stroke-width="0.5" stroke="black" fill="cyan"/>
   </g>
   <g id="cell187">
  <circle cx="437.731" cy="555.303" r="8.11148" stroke-width="0.5" stroke="black" fill="green"/>
  <circle cx="437.731" cy="555.303" r="4.9155" stroke-width="0.5" stroke="black" fill="green"/>
   </g>
   <g id="cell188">
  <circle cx="535.366" cy="458.028" r="8.29315" stroke-width="0.5" stroke="black" fill="cyan"/>
  <circle cx="535.366" cy="458.028" r="5.00117" stroke-width="0.5" stroke="black" fill="cyan"/>
   </g>
   <g id="cell189">
  <circle cx="555.613" cy="469.464" r="8.28924" stroke-width="0.5" stroke="black" fill="cyan"/>
  <circle cx="555.613" cy="469.464" r="4.9994" stroke-width="0.5" stroke="black" fill="cyan"/>
   </g>
   <g id="cell190">
  <circle cx="401.122" cy="476.839" r="8.27704" stroke-width="0.5" stroke="black" fill="green"/>
  <circle cx="401.122" cy="476.839" r="4.99436" stroke-width="0.5" stroke="black" fill="green"/>
   </g>
   <g id="cell191">
  <circle cx="619.135" cy="517.7" r="8.27486" stroke-width="0.5" stroke="black" fill="cyan"/>
  <circle cx="619.135" cy="517.7" r="4.99239" stroke-width="0.5" stroke="black" fill="cyan"/>
   </g>
   <g id="cell192">
  <circle cx="507.817" cy="504.584" r="8.27391" stroke-width="0.5" stroke="black" fill="green"/>
  <circle cx="507.817" cy="504.584" r="4.99215" stroke-width="0.5" stroke="black" fill="green"/>
   </g>
   <g id="cell194">
  <circle cx="470.598" cy="438.104" r="8.1947" stroke-width="0.5" stroke="black" fill="magenta"/>
  <circle cx="470.598" cy="438.104" r="4.95246" stroke-width="0.5" stroke="black" fill="magenta"/>
   </g>
   <g id="cell196">
  <circle cx="433.002" cy="569.597" r="8.11148" stroke-width="0.5" stroke="black" fill="green"/>
  <circle cx="433.002" cy="569.597" r="4.9155" stroke-width="0.5" stroke="black" fill="green"/>
   </g>
   <g id="cell197">
  <circle cx="598.981" cy="601.867" r="8.16289" stroke-width="0.5" stroke="black" fill="magenta"/>
  <circle cx="598.981" cy="601.867" r="4.93712" stroke-width="0.5" stroke="black" fill="magenta"/>
   </g>
   <g id="cell198">
  <circle cx="473.431" cy="644.565" r="7.1714" stroke-width="0.5" stroke="black" fill="magenta"/>
  <circle cx="473.431" cy="644.565" r="4.38017" stroke-width="0.5" stroke="black" fill="magenta"/>
   </g>
   <g id="cell200">
  <circle cx="625.798" cy="560.592" r="8.11308" stroke-width="0.5" stroke="black" fill="green"/>
  <circle cx="625.798" cy="560.592" r="4.91001" stroke-width="0.5" stroke="black" fill="green"/>
   </g>
   <g id="cell202">
  <circle cx="418.603" cy="572.753" r="8.10059" stroke-width="0.5" stroke="black" fill="green"/>
  <circle cx="418.603" cy="572.753" r="4.90422" stroke-width="0.5" stroke="black" fill="green"/>
   </g>
   <g id="cell203">
  <circle cx="652.177" cy="564.107" r="8.10437" stroke-width="0.5" stroke="black" fill="green"/>
  <circle cx="652.177" cy="564.107" r="4.90537" stroke-width="0.5" stroke="black" fill="green"/>
   </g>
   <g id="cell204">
  <circle cx="522.091" cy="417.994" r="8.09544" stroke-width="0.5" stroke="black" fill="cyan"/>
  <circle cx="522.091" cy="417.994" r="4.90058" stroke-width="0.5" stroke="black" fill="cyan"/>
   </g>
   <g id="cell205">
  <circle cx="541.062" cy="472.532" r="8.07711" stroke-width="0.5" stroke="black" fill="magenta"/>
  <circle cx="541.062" cy="472.532" r="4.89267" stroke-width="0.5" stroke="black" fill="magenta"/>
   </g>
   <g id="cell206">
  <circle cx="400.382" cy="570.969" r="7.20155" stroke-width="0.5" stroke="black" fill="magenta"/>
  <circle cx="400.382" cy="570.969" r="4.4035" stroke-width="0.5" stroke="black" fill="magenta"/>
   </g>
   <g id="cell210">
  <circle cx="445.575" cy="408.15" r="7.73985" stroke-width="0.5" stroke="black" fill="magenta"/>
  <circle cx="445.575" cy="408.15" r="4.70136" stroke-width="0.5" stroke="black" fill="magenta"/>
   </g>
   <g id="cell211">
  <circle cx="589.436" cy="488.729" r="7.71743" stroke-width="0.5" stroke="black" fill="magenta"/>
  <circle cx="589.436" cy="488.729" r="4.6928" stroke-width="0.5" stroke="black" fill="magenta"/>
   </g>
   <g id="cell212">
  <circle cx="430.618" cy="501.044" r="7.49981" stroke-width="0.5" stroke="black" fill="green"/>
  <circle cx="430.618" cy="501.044" r="4.58066" stroke-width="0.5" stroke="black" fill="green"/>
   </g>
   <g id="cell213">
  <circle cx="498.503" cy="410.755" r="7.26975" stroke-width="0.5" stroke="black" fill="cyan"/>
  <circle cx="498.503" cy="410.755" r="4.44397" stroke-width="0.5" stroke="black" fill="cyan"/>
   </g>
   <g id="cell214">
  <circle cx="407.831" cy="581.453" r="7.20155" stroke-width="0.5" stroke="black" fill="magenta"/>
  <circle cx="407.831" cy="581.453" r="4.4035" stroke-width="0.5" stroke="black" fill="magenta"/>
   </g>
   <g id="cell215">
  <circle cx="460.33" cy="644.612" r="5.95667" stroke-width="0.5" stroke="black" fill="magenta"/>
  <circle cx="460.33" cy="644.612" r="3.70635" stroke-width="0.5" stroke="black" fill="black"/>
   </g>
   <g id="cell216">
  <circle cx="433.264" cy="531.84" r="7.301" stroke-width="0.5" stroke="black" fill="magenta"/>
  <circle cx="433.264" cy="531.84" r="4.43663" stroke-width="0.5" stroke="black" fill="magenta"/>
   </g>
   <g id="cell217">
  <circle cx="573.232" cy="546.929" r="7.1497" stroke-width="0.5" stroke="black" fill="cyan"/>
  <circle cx="573.232" cy="546.929" r="4.34001" stroke-width="0.5" stroke="black" fill="cyan"/>
   </g>
   <g id="cell219">
  <circle cx="531.446" cy="504.253" r="6.95752" stroke-width="0.5" stroke="black" fill="green"/>
  <circle cx="531.446" cy="504.253" r="4.213" stroke-width="0.5" stroke="black" fill="green"/>
   </g>
   <g id="cell220">
  <circle cx="471.79" cy="481.004" r="6.92764" stroke-width="0.5" stroke="black" fill="magenta"/>
  <circle cx="471.79" cy="481.004" r="4.1918" stroke-width="0.5" stroke="black" fill="magenta"/>
   </g>
   <g id="cell221">
  <circle cx="609.973" cy="578.882" r="6.8847" stroke-width="0.5" stroke="black" fill="magenta"/>
  <circle cx="609.973" cy="578.882" r="4.16609" stroke-width="0.5" stroke="black" fill="magenta"/>
   </g>
   <g id="cell222">
  <circle cx="625.628" cy="476.226" r="6.71158" stroke-width="0.5" stroke="black" fill="green"/>
  <circle cx="625.628" cy="476.226" r="4.03435" stroke-width="0.5" stroke="black" fill="green"/>
   </g>
   <g id="cell223">
  <circle cx="533.528" cy="605.411" r="6.66421" stroke-width="0.5" stroke="black" fill="green"/>
  <circle cx="533.528" cy="605.411" r="4.01004" stroke-width="0.5" stroke="black" fill="green"/>
   </g>
  </g>
 </g>
  <rect x="775" y="1035" width="200" height="10" stroke-width="2" stroke="rgb(255,255,255)" fill="rgb(0,0,0)"/>
  <text x="781.25" y="1028.75"
   font-family="Arial" font-size="25" fill="black" >
   200 &#956;m
  </text>
  <text x="25" y="1045"
   font-family="Arial" font-size="18.75" fill="black" >
   0 days, 0 hours, 0 minutes, and 55.1064 seconds
  </text>
  <rect x="0" y="70" width="1000" height="1000" stroke-width="2" stroke="rgb(0,0,0)" fill="none"/>
</svg>
