<?xml version="1.0" encoding="UTF-8" standalone="no"?>
<!-- Created with PhysiCell (http://PhysiCell.MathCancer.org/) -->
<svg 
 xmlns:dc="http://purl.org/dc/elements/1.1/" 
 xmlns:cc="http://creativecommons.org/ns#" 
 xmlns:rdf="http://www.w3.org/1999/02/22-rdf-syntax-ns#" 
 xmlns:svg="http://www.w3.org/2000/svg" 
 xmlns="http://www.w3.org/2000/svg" 
 version="1.1" 
 width="1000" 
 height="1070" 
 id="svg2">
  <rect x="0" y="0" width="1000" height="1070" stroke-width="2" stroke="white" fill="white"/>
  <text x="12.5" y="30"
   font-family="Arial" font-size="25" fill="black" >
   Current time: 0 days, 4 hours, and 0.00 minutes, z = 0.00 &#956;m
  </text>
  <text x="12.5" y="57.5"
   font-family="Arial" font-size="23.75" fill="black" >
   85 agents
  </text>
 <g id="tissue" 
    transform="translate(0,1070) scale(1,-1)">
  <g id="ECM">
  </g>
  <g id="cells">
   <g id="cell0">
  <circle cx="513.251" cy="530.759" r="8.41271" stroke-width="0.5" stroke="black" fill="magenta"/>
  <circle cx="513.251" cy="530.759" r="5.05167" stroke-width="0.5" stroke="black" fill="magenta"/>
   </g>
   <g id="cell1">
  <circle cx="604.143" cy="530.32" r="8.41271" stroke-width="0.5" stroke="black" fill="magenta"/>
  <circle cx="604.143" cy="530.32" r="5.05167" stroke-width="0.5" stroke="black" fill="magenta"/>
   </g>
   <g id="cell2">
  <circle cx="510.583" cy="600.84" r="8.41271" stroke-width="0.5" stroke="black" fill="magenta"/>
  <circle cx="510.583" cy="600.84" r="5.05167" stroke-width="0.5" stroke="black" fill="magenta"/>
   </g>
   <g id="cell3">
  <circle cx="532.539" cy="545.721" r="8.41271" stroke-width="0.5" stroke="black" fill="magenta"/>
  <circle cx="532.539" cy="545.721" r="5.05167" stroke-width="0.5" stroke="black" fill="magenta"/>
   </g>
   <g id="cell4">
  <circle cx="481.375" cy="439.864" r="8.41271" stroke-width="0.5" stroke="black" fill="magenta"/>
  <circle cx="481.375" cy="439.864" r="5.05167" stroke-width="0.5" stroke="black" fill="magenta"/>
   </g>
   <g id="cell5">
  <circle cx="465.032" cy="493.3" r="8.41271" stroke-width="0.5" stroke="black" fill="magenta"/>
  <circle cx="465.032" cy="493.3" r="5.05167" stroke-width="0.5" stroke="black" fill="magenta"/>
   </g>
   <g id="cell6">
  <circle cx="591.947" cy="513.822" r="7.61469" stroke-width="0.5" stroke="black" fill="magenta"/>
  <circle cx="591.947" cy="513.822" r="4.62762" stroke-width="0.5" stroke="black" fill="magenta"/>
   </g>
   <g id="cell7">
  <circle cx="512.336" cy="464.862" r="8.41271" stroke-width="0.5" stroke="black" fill="magenta"/>
  <circle cx="512.336" cy="464.862" r="5.05167" stroke-width="0.5" stroke="black" fill="magenta"/>
   </g>
   <g id="cell8">
  <circle cx="376.09" cy="544.456" r="8.41271" stroke-width="0.5" stroke="black" fill="magenta"/>
  <circle cx="376.09" cy="544.456" r="5.05167" stroke-width="0.5" stroke="black" fill="magenta"/>
   </g>
   <g id="cell9">
  <circle cx="464.431" cy="595.938" r="7.24243" stroke-width="0.5" stroke="black" fill="magenta"/>
  <circle cx="464.431" cy="595.938" r="4.39934" stroke-width="0.5" stroke="black" fill="magenta"/>
   </g>
   <g id="cell10">
  <circle cx="583.447" cy="392.105" r="8.41271" stroke-width="0.5" stroke="black" fill="magenta"/>
  <circle cx="583.447" cy="392.105" r="5.05167" stroke-width="0.5" stroke="black" fill="magenta"/>
   </g>
   <g id="cell11">
  <circle cx="589.748" cy="590.273" r="8.41271" stroke-width="0.5" stroke="black" fill="magenta"/>
  <circle cx="589.748" cy="590.273" r="5.05167" stroke-width="0.5" stroke="black" fill="magenta"/>
   </g>
   <g id="cell12">
  <circle cx="506.462" cy="585.384" r="8.41271" stroke-width="0.5" stroke="black" fill="magenta"/>
  <circle cx="506.462" cy="585.384" r="5.05167" stroke-width="0.5" stroke="black" fill="magenta"/>
   </g>
   <g id="cell13">
  <circle cx="390.811" cy="567.936" r="7.44242" stroke-width="0.5" stroke="black" fill="magenta"/>
  <circle cx="390.811" cy="567.936" r="4.52373" stroke-width="0.5" stroke="black" fill="magenta"/>
   </g>
   <g id="cell14">
  <circle cx="529.123" cy="395.711" r="3.78562" stroke-width="0.5" stroke="black" fill="magenta"/>
  <circle cx="529.123" cy="395.711" r="2.80027" stroke-width="0.5" stroke="black" fill="black"/>
   </g>
   <g id="cell15">
  <circle cx="380.215" cy="474.908" r="8.41271" stroke-width="0.5" stroke="black" fill="magenta"/>
  <circle cx="380.215" cy="474.908" r="5.05167" stroke-width="0.5" stroke="black" fill="magenta"/>
   </g>
   <g id="cell16">
  <circle cx="428.948" cy="413.428" r="8.41271" stroke-width="0.5" stroke="black" fill="magenta"/>
  <circle cx="428.948" cy="413.428" r="5.05167" stroke-width="0.5" stroke="black" fill="magenta"/>
   </g>
   <g id="cell17">
  <circle cx="572.21" cy="490.804" r="8.41271" stroke-width="0.5" stroke="black" fill="magenta"/>
  <circle cx="572.21" cy="490.804" r="5.05167" stroke-width="0.5" stroke="black" fill="magenta"/>
   </g>
   <g id="cell18">
  <circle cx="516.013" cy="387.86" r="8.41271" stroke-width="0.5" stroke="black" fill="magenta"/>
  <circle cx="516.013" cy="387.86" r="5.05167" stroke-width="0.5" stroke="black" fill="magenta"/>
   </g>
   <g id="cell19">
  <circle cx="451.894" cy="539.462" r="8.41271" stroke-width="0.5" stroke="black" fill="magenta"/>
  <circle cx="451.894" cy="539.462" r="5.05167" stroke-width="0.5" stroke="black" fill="magenta"/>
   </g>
   <g id="cell20">
  <circle cx="532.651" cy="417.7" r="8.41271" stroke-width="0.5" stroke="black" fill="magenta"/>
  <circle cx="532.651" cy="417.7" r="5.05167" stroke-width="0.5" stroke="black" fill="magenta"/>
   </g>
   <g id="cell21">
  <circle cx="464.212" cy="634.718" r="8.41271" stroke-width="0.5" stroke="black" fill="magenta"/>
  <circle cx="464.212" cy="634.718" r="5.05167" stroke-width="0.5" stroke="black" fill="magenta"/>
   </g>
   <g id="cell22">
  <circle cx="556.406" cy="493.454" r="8.41271" stroke-width="0.5" stroke="black" fill="magenta"/>
  <circle cx="556.406" cy="493.454" r="5.05167" stroke-width="0.5" stroke="black" fill="magenta"/>
   </g>
   <g id="cell23">
  <circle cx="535.828" cy="483.285" r="8.41271" stroke-width="0.5" stroke="black" fill="magenta"/>
  <circle cx="535.828" cy="483.285" r="5.05167" stroke-width="0.5" stroke="black" fill="magenta"/>
   </g>
   <g id="cell24">
  <circle cx="559.289" cy="379.784" r="8.41271" stroke-width="0.5" stroke="black" fill="magenta"/>
  <circle cx="559.289" cy="379.784" r="5.05167" stroke-width="0.5" stroke="black" fill="magenta"/>
   </g>
   <g id="cell25">
  <circle cx="637.227" cy="555.448" r="7.54436" stroke-width="0.5" stroke="black" fill="green"/>
  <circle cx="637.227" cy="555.448" r="4.58555" stroke-width="0.5" stroke="black" fill="green"/>
   </g>
   <g id="cell26">
  <circle cx="551.191" cy="401.273" r="8.41271" stroke-width="0.5" stroke="black" fill="green"/>
  <circle cx="551.191" cy="401.273" r="5.05167" stroke-width="0.5" stroke="black" fill="green"/>
   </g>
   <g id="cell27">
  <circle cx="457.446" cy="388.678" r="8.41271" stroke-width="0.5" stroke="black" fill="green"/>
  <circle cx="457.446" cy="388.678" r="5.05167" stroke-width="0.5" stroke="black" fill="green"/>
   </g>
   <g id="cell28">
  <circle cx="438.497" cy="530.67" r="8.41271" stroke-width="0.5" stroke="black" fill="green"/>
  <circle cx="438.497" cy="530.67" r="5.05167" stroke-width="0.5" stroke="black" fill="green"/>
   </g>
   <g id="cell29">
  <circle cx="449.03" cy="518.594" r="8.41271" stroke-width="0.5" stroke="black" fill="green"/>
  <circle cx="449.03" cy="518.594" r="5.05167" stroke-width="0.5" stroke="black" fill="green"/>
   </g>
   <g id="cell30">
  <circle cx="481.58" cy="540.282" r="8.41271" stroke-width="0.5" stroke="black" fill="green"/>
  <circle cx="481.58" cy="540.282" r="5.05167" stroke-width="0.5" stroke="black" fill="green"/>
   </g>
   <g id="cell31">
  <circle cx="412.757" cy="541.193" r="8.41271" stroke-width="0.5" stroke="black" fill="green"/>
  <circle cx="412.757" cy="541.193" r="5.05167" stroke-width="0.5" stroke="black" fill="green"/>
   </g>
   <g id="cell32">
  <circle cx="425.371" cy="474.829" r="8.41271" stroke-width="0.5" stroke="black" fill="green"/>
  <circle cx="425.371" cy="474.829" r="5.05167" stroke-width="0.5" stroke="black" fill="green"/>
   </g>
   <g id="cell33">
  <circle cx="494.146" cy="423.183" r="8.41271" stroke-width="0.5" stroke="black" fill="green"/>
  <circle cx="494.146" cy="423.183" r="5.05167" stroke-width="0.5" stroke="black" fill="green"/>
   </g>
   <g id="cell34">
  <circle cx="397.088" cy="450.831" r="8.41271" stroke-width="0.5" stroke="black" fill="green"/>
  <circle cx="397.088" cy="450.831" r="5.05167" stroke-width="0.5" stroke="black" fill="green"/>
   </g>
   <g id="cell35">
  <circle cx="548.51" cy="544.487" r="8.41271" stroke-width="0.5" stroke="black" fill="green"/>
  <circle cx="548.51" cy="544.487" r="5.05167" stroke-width="0.5" stroke="black" fill="green"/>
   </g>
   <g id="cell36">
  <circle cx="391.804" cy="582.949" r="8.41271" stroke-width="0.5" stroke="black" fill="green"/>
  <circle cx="391.804" cy="582.949" r="5.05167" stroke-width="0.5" stroke="black" fill="green"/>
   </g>
   <g id="cell37">
  <circle cx="634.871" cy="460.618" r="8.41271" stroke-width="0.5" stroke="black" fill="green"/>
  <circle cx="634.871" cy="460.618" r="5.05167" stroke-width="0.5" stroke="black" fill="green"/>
   </g>
   <g id="cell38">
  <circle cx="537.7" cy="610.939" r="7.44242" stroke-width="0.5" stroke="black" fill="green"/>
  <circle cx="537.7" cy="610.939" r="4.52373" stroke-width="0.5" stroke="black" fill="green"/>
   </g>
   <g id="cell39">
  <circle cx="613.45" cy="490.6" r="8.41271" stroke-width="0.5" stroke="black" fill="green"/>
  <circle cx="613.45" cy="490.6" r="5.05167" stroke-width="0.5" stroke="black" fill="green"/>
   </g>
   <g id="cell40">
  <circle cx="483.14" cy="567.996" r="6.67717" stroke-width="0.5" stroke="black" fill="green"/>
  <circle cx="483.14" cy="567.996" r="4.00951" stroke-width="0.5" stroke="black" fill="green"/>
   </g>
   <g id="cell41">
  <circle cx="364.567" cy="480.191" r="8.41271" stroke-width="0.5" stroke="black" fill="green"/>
  <circle cx="364.567" cy="480.191" r="5.05167" stroke-width="0.5" stroke="black" fill="green"/>
   </g>
   <g id="cell42">
  <circle cx="438.842" cy="494.268" r="8.41271" stroke-width="0.5" stroke="black" fill="green"/>
  <circle cx="438.842" cy="494.268" r="5.05167" stroke-width="0.5" stroke="black" fill="green"/>
   </g>
   <g id="cell43">
  <circle cx="557.946" cy="445.588" r="8.41271" stroke-width="0.5" stroke="black" fill="green"/>
  <circle cx="557.946" cy="445.588" r="5.05167" stroke-width="0.5" stroke="black" fill="green"/>
   </g>
   <g id="cell44">
  <circle cx="476.013" cy="623.877" r="8.41271" stroke-width="0.5" stroke="black" fill="green"/>
  <circle cx="476.013" cy="623.877" r="5.05167" stroke-width="0.5" stroke="black" fill="green"/>
   </g>
   <g id="cell45">
  <circle cx="414.953" cy="557.066" r="8.41271" stroke-width="0.5" stroke="black" fill="green"/>
  <circle cx="414.953" cy="557.066" r="5.05167" stroke-width="0.5" stroke="black" fill="green"/>
   </g>
   <g id="cell46">
  <circle cx="522.723" cy="611.199" r="8.41271" stroke-width="0.5" stroke="black" fill="green"/>
  <circle cx="522.723" cy="611.199" r="5.05167" stroke-width="0.5" stroke="black" fill="green"/>
   </g>
   <g id="cell47">
  <circle cx="496.976" cy="507.731" r="7.51976" stroke-width="0.5" stroke="black" fill="green"/>
  <circle cx="496.976" cy="507.731" r="4.57072" stroke-width="0.5" stroke="black" fill="green"/>
   </g>
   <g id="cell48">
  <circle cx="564.394" cy="602.899" r="8.41271" stroke-width="0.5" stroke="black" fill="green"/>
  <circle cx="564.394" cy="602.899" r="5.05167" stroke-width="0.5" stroke="black" fill="green"/>
   </g>
   <g id="cell49">
  <circle cx="429.837" cy="397.429" r="8.41271" stroke-width="0.5" stroke="black" fill="green"/>
  <circle cx="429.837" cy="397.429" r="5.05167" stroke-width="0.5" stroke="black" fill="green"/>
   </g>
   <g id="cell50">
  <circle cx="520.12" cy="516.31" r="8.41271" stroke-width="0.5" stroke="black" fill="cyan"/>
  <circle cx="520.12" cy="516.31" r="5.05167" stroke-width="0.5" stroke="black" fill="cyan"/>
   </g>
   <g id="cell51">
  <circle cx="401.615" cy="593.898" r="7.08639" stroke-width="0.5" stroke="black" fill="cyan"/>
  <circle cx="401.615" cy="593.898" r="4.29876" stroke-width="0.5" stroke="black" fill="cyan"/>
   </g>
   <g id="cell52">
  <circle cx="521.715" cy="429.418" r="8.41271" stroke-width="0.5" stroke="black" fill="cyan"/>
  <circle cx="521.715" cy="429.418" r="5.05167" stroke-width="0.5" stroke="black" fill="cyan"/>
   </g>
   <g id="cell53">
  <circle cx="570.983" cy="436.228" r="8.41271" stroke-width="0.5" stroke="black" fill="cyan"/>
  <circle cx="570.983" cy="436.228" r="5.05167" stroke-width="0.5" stroke="black" fill="cyan"/>
   </g>
   <g id="cell54">
  <circle cx="478.152" cy="424.167" r="8.41271" stroke-width="0.5" stroke="black" fill="cyan"/>
  <circle cx="478.152" cy="424.167" r="5.05167" stroke-width="0.5" stroke="black" fill="cyan"/>
   </g>
   <g id="cell55">
  <circle cx="527.7" cy="469.48" r="8.41271" stroke-width="0.5" stroke="black" fill="cyan"/>
  <circle cx="527.7" cy="469.48" r="5.05167" stroke-width="0.5" stroke="black" fill="cyan"/>
   </g>
   <g id="cell56">
  <circle cx="617.948" cy="522.184" r="8.41271" stroke-width="0.5" stroke="black" fill="cyan"/>
  <circle cx="617.948" cy="522.184" r="5.05167" stroke-width="0.5" stroke="black" fill="cyan"/>
   </g>
   <g id="cell57">
  <circle cx="416.924" cy="617.466" r="8.41271" stroke-width="0.5" stroke="black" fill="cyan"/>
  <circle cx="416.924" cy="617.466" r="5.05167" stroke-width="0.5" stroke="black" fill="cyan"/>
   </g>
   <g id="cell58">
  <circle cx="551.033" cy="478.283" r="8.41271" stroke-width="0.5" stroke="black" fill="cyan"/>
  <circle cx="551.033" cy="478.283" r="5.05167" stroke-width="0.5" stroke="black" fill="cyan"/>
   </g>
   <g id="cell59">
  <circle cx="385.463" cy="439.803" r="8.41271" stroke-width="0.5" stroke="black" fill="cyan"/>
  <circle cx="385.463" cy="439.803" r="5.05167" stroke-width="0.5" stroke="black" fill="cyan"/>
   </g>
   <g id="cell60">
  <circle cx="599.878" cy="473.406" r="6.86652" stroke-width="0.5" stroke="black" fill="cyan"/>
  <circle cx="599.878" cy="473.406" r="4.14883" stroke-width="0.5" stroke="black" fill="cyan"/>
   </g>
   <g id="cell61">
  <circle cx="552.474" cy="613.561" r="8.41271" stroke-width="0.5" stroke="black" fill="cyan"/>
  <circle cx="552.474" cy="613.561" r="5.05167" stroke-width="0.5" stroke="black" fill="black"/>
   </g>
   <g id="cell62">
  <circle cx="526.385" cy="444.763" r="8.41271" stroke-width="0.5" stroke="black" fill="cyan"/>
  <circle cx="526.385" cy="444.763" r="5.05167" stroke-width="0.5" stroke="black" fill="cyan"/>
   </g>
   <g id="cell63">
  <circle cx="577.881" cy="546.406" r="8.41271" stroke-width="0.5" stroke="black" fill="cyan"/>
  <circle cx="577.881" cy="546.406" r="5.05167" stroke-width="0.5" stroke="black" fill="cyan"/>
   </g>
   <g id="cell64">
  <circle cx="509.962" cy="636.825" r="8.41271" stroke-width="0.5" stroke="black" fill="cyan"/>
  <circle cx="509.962" cy="636.825" r="5.05167" stroke-width="0.5" stroke="black" fill="cyan"/>
   </g>
   <g id="cell65">
  <circle cx="542.915" cy="464.324" r="8.41271" stroke-width="0.5" stroke="black" fill="cyan"/>
  <circle cx="542.915" cy="464.324" r="5.05167" stroke-width="0.5" stroke="black" fill="cyan"/>
   </g>
   <g id="cell66">
  <circle cx="535.805" cy="530.04" r="8.41271" stroke-width="0.5" stroke="black" fill="cyan"/>
  <circle cx="535.805" cy="530.04" r="5.05167" stroke-width="0.5" stroke="black" fill="cyan"/>
   </g>
   <g id="cell67">
  <circle cx="354.504" cy="492.852" r="8.41271" stroke-width="0.5" stroke="black" fill="cyan"/>
  <circle cx="354.504" cy="492.852" r="5.05167" stroke-width="0.5" stroke="black" fill="cyan"/>
   </g>
   <g id="cell68">
  <circle cx="562.79" cy="551.821" r="8.41271" stroke-width="0.5" stroke="black" fill="cyan"/>
  <circle cx="562.79" cy="551.821" r="5.05167" stroke-width="0.5" stroke="black" fill="cyan"/>
   </g>
   <g id="cell69">
  <circle cx="437.64" cy="464.521" r="8.41271" stroke-width="0.5" stroke="black" fill="cyan"/>
  <circle cx="437.64" cy="464.521" r="5.05167" stroke-width="0.5" stroke="black" fill="cyan"/>
   </g>
   <g id="cell70">
  <circle cx="572.545" cy="474.802" r="8.41271" stroke-width="0.5" stroke="black" fill="cyan"/>
  <circle cx="572.545" cy="474.802" r="5.05167" stroke-width="0.5" stroke="black" fill="cyan"/>
   </g>
   <g id="cell71">
  <circle cx="377.712" cy="520.989" r="8.41271" stroke-width="0.5" stroke="black" fill="cyan"/>
  <circle cx="377.712" cy="520.989" r="5.05167" stroke-width="0.5" stroke="black" fill="cyan"/>
   </g>
   <g id="cell72">
  <circle cx="535.947" cy="513.996" r="8.41271" stroke-width="0.5" stroke="black" fill="cyan"/>
  <circle cx="535.947" cy="513.996" r="5.05167" stroke-width="0.5" stroke="black" fill="cyan"/>
   </g>
   <g id="cell73">
  <circle cx="360.136" cy="545.956" r="8.41271" stroke-width="0.5" stroke="black" fill="cyan"/>
  <circle cx="360.136" cy="545.956" r="5.05167" stroke-width="0.5" stroke="black" fill="cyan"/>
   </g>
   <g id="cell74">
  <circle cx="542.088" cy="448.203" r="8.41271" stroke-width="0.5" stroke="black" fill="cyan"/>
  <circle cx="542.088" cy="448.203" r="5.05167" stroke-width="0.5" stroke="black" fill="cyan"/>
   </g>
   <g id="cell75">
  <circle cx="596.491" cy="500.096" r="7.61469" stroke-width="0.5" stroke="black" fill="magenta"/>
  <circle cx="596.491" cy="500.096" r="4.62762" stroke-width="0.5" stroke="black" fill="magenta"/>
   </g>
   <g id="cell76">
  <circle cx="645.327" cy="543.638" r="7.54436" stroke-width="0.5" stroke="black" fill="green"/>
  <circle cx="645.327" cy="543.638" r="4.58555" stroke-width="0.5" stroke="black" fill="green"/>
   </g>
   <g id="cell77">
  <circle cx="510.837" cy="504.381" r="7.51976" stroke-width="0.5" stroke="black" fill="green"/>
  <circle cx="510.837" cy="504.381" r="4.57072" stroke-width="0.5" stroke="black" fill="green"/>
   </g>
   <g id="cell78">
  <circle cx="376.776" cy="566.388" r="7.44242" stroke-width="0.5" stroke="black" fill="magenta"/>
  <circle cx="376.776" cy="566.388" r="4.52373" stroke-width="0.5" stroke="black" fill="magenta"/>
   </g>
   <g id="cell79">
  <circle cx="532.28" cy="590.044" r="6.14611" stroke-width="0.5" stroke="black" fill="green"/>
  <circle cx="532.28" cy="590.044" r="3.75824" stroke-width="0.5" stroke="black" fill="green"/>
   </g>
   <g id="cell80">
  <circle cx="454.58" cy="605.514" r="7.24243" stroke-width="0.5" stroke="black" fill="magenta"/>
  <circle cx="454.58" cy="605.514" r="4.39934" stroke-width="0.5" stroke="black" fill="magenta"/>
   </g>
   <g id="cell81">
  <circle cx="393.881" cy="604.885" r="7.08639" stroke-width="0.5" stroke="black" fill="cyan"/>
  <circle cx="393.881" cy="604.885" r="4.29876" stroke-width="0.5" stroke="black" fill="cyan"/>
   </g>
   <g id="cell82">
  <circle cx="586.915" cy="473.487" r="6.86652" stroke-width="0.5" stroke="black" fill="cyan"/>
  <circle cx="586.915" cy="473.487" r="4.14883" stroke-width="0.5" stroke="black" fill="cyan"/>
   </g>
   <g id="cell83">
  <circle cx="540.309" cy="598.399" r="6.14611" stroke-width="0.5" stroke="black" fill="green"/>
  <circle cx="540.309" cy="598.399" r="3.75824" stroke-width="0.5" stroke="black" fill="green"/>
   </g>
   <g id="cell84">
  <circle cx="489.269" cy="578.497" r="6.67717" stroke-width="0.5" stroke="black" fill="green"/>
  <circle cx="489.269" cy="578.497" r="4.00951" stroke-width="0.5" stroke="black" fill="green"/>
   </g>
  </g>
 </g>
  <rect x="775" y="1035" width="200" height="10" stroke-width="2" stroke="rgb(255,255,255)" fill="rgb(0,0,0)"/>
  <text x="781.25" y="1028.75"
   font-family="Arial" font-size="25" fill="black" >
   200 &#956;m
  </text>
  <text x="25" y="1045"
   font-family="Arial" font-size="18.75" fill="black" >
   0 days, 0 hours, 0 minutes, and 5.2874 seconds
  </text>
  <rect x="0" y="70" width="1000" height="1000" stroke-width="2" stroke="rgb(0,0,0)" fill="none"/>
</svg>
