<?xml version="1.0" encoding="UTF-8" standalone="no"?>
<!-- Created with PhysiCell (http://PhysiCell.MathCancer.org/) -->
<svg 
 xmlns:dc="http://purl.org/dc/elements/1.1/" 
 xmlns:cc="http://creativecommons.org/ns#" 
 xmlns:rdf="http://www.w3.org/1999/02/22-rdf-syntax-ns#" 
 xmlns:svg="http://www.w3.org/2000/svg" 
 xmlns="http://www.w3.org/2000/svg" 
 version="1.1" 
 width="1000" 
 height="1070" 
 id="svg2">
  <rect x="0" y="0" width="1000" height="1070" stroke-width="2" stroke="white" fill="white"/>
  <text x="12.5" y="30"
   font-family="Arial" font-size="25" fill="black" >
   Current time: 1 days, 0 hours, and 0.00 minutes, z = 0.00 &#956;m
  </text>
  <text x="12.5" y="57.5"
   font-family="Arial" font-size="23.75" fill="black" >
   161 agents
  </text>
 <g id="tissue" 
    transform="translate(0,1070) scale(1,-1)">
  <g id="ECM">
  </g>
  <g id="cells">
   <g id="cell0">
  <circle cx="513.141" cy="532.68" r="8.41271" stroke-width="0.5" stroke="black" fill="magenta"/>
  <circle cx="513.141" cy="532.68" r="5.05167" stroke-width="0.5" stroke="black" fill="magenta"/>
   </g>
   <g id="cell1">
  <circle cx="603.308" cy="536.816" r="8.41271" stroke-width="0.5" stroke="black" fill="magenta"/>
  <circle cx="603.308" cy="536.816" r="5.05167" stroke-width="0.5" stroke="black" fill="magenta"/>
   </g>
   <g id="cell2">
  <circle cx="508.098" cy="601.746" r="8.41271" stroke-width="0.5" stroke="black" fill="magenta"/>
  <circle cx="508.098" cy="601.746" r="5.05167" stroke-width="0.5" stroke="black" fill="magenta"/>
   </g>
   <g id="cell3">
  <circle cx="529.221" cy="551.754" r="7.08639" stroke-width="0.5" stroke="black" fill="magenta"/>
  <circle cx="529.221" cy="551.754" r="4.29876" stroke-width="0.5" stroke="black" fill="magenta"/>
   </g>
   <g id="cell4">
  <circle cx="481.375" cy="439.863" r="8.41271" stroke-width="0.5" stroke="black" fill="magenta"/>
  <circle cx="481.375" cy="439.863" r="5.05167" stroke-width="0.5" stroke="black" fill="magenta"/>
   </g>
   <g id="cell5">
  <circle cx="464.246" cy="489.914" r="8.41271" stroke-width="0.5" stroke="black" fill="magenta"/>
  <circle cx="464.246" cy="489.914" r="5.05167" stroke-width="0.5" stroke="black" fill="magenta"/>
   </g>
   <g id="cell6">
  <circle cx="586.419" cy="512.586" r="8.32358" stroke-width="0.5" stroke="black" fill="magenta"/>
  <circle cx="586.419" cy="512.586" r="5.01662" stroke-width="0.5" stroke="black" fill="magenta"/>
   </g>
   <g id="cell7">
  <circle cx="501.001" cy="459.559" r="1.45334" stroke-width="0.5" stroke="black" fill="magenta"/>
  <circle cx="501.001" cy="459.559" r="1.43656" stroke-width="0.5" stroke="black" fill="black"/>
   </g>
   <g id="cell8">
  <circle cx="383.176" cy="529.896" r="7.54436" stroke-width="0.5" stroke="black" fill="magenta"/>
  <circle cx="383.176" cy="529.896" r="4.58555" stroke-width="0.5" stroke="black" fill="magenta"/>
   </g>
   <g id="cell9">
  <circle cx="464.706" cy="595.651" r="3.78397" stroke-width="0.5" stroke="black" fill="magenta"/>
  <circle cx="464.706" cy="595.651" r="2.79975" stroke-width="0.5" stroke="black" fill="black"/>
   </g>
   <g id="cell10">
  <circle cx="583.447" cy="392.105" r="2.62118" stroke-width="0.5" stroke="black" fill="magenta"/>
  <circle cx="583.447" cy="392.105" r="2.28296" stroke-width="0.5" stroke="black" fill="black"/>
   </g>
   <g id="cell11">
  <circle cx="597.887" cy="574.015" r="6.94202" stroke-width="0.5" stroke="black" fill="magenta"/>
  <circle cx="597.887" cy="574.015" r="4.20749" stroke-width="0.5" stroke="black" fill="magenta"/>
   </g>
   <g id="cell12">
  <circle cx="505.848" cy="585.884" r="8.41271" stroke-width="0.5" stroke="black" fill="magenta"/>
  <circle cx="505.848" cy="585.884" r="5.05167" stroke-width="0.5" stroke="black" fill="magenta"/>
   </g>
   <g id="cell13">
  <circle cx="397.229" cy="570.809" r="8.40934" stroke-width="0.5" stroke="black" fill="magenta"/>
  <circle cx="397.229" cy="570.809" r="5.05073" stroke-width="0.5" stroke="black" fill="magenta"/>
   </g>
   <g id="cell109">
  <circle cx="376.037" cy="444.098" r="8.35727" stroke-width="0.5" stroke="black" fill="cyan"/>
  <circle cx="376.037" cy="444.098" r="5.03034" stroke-width="0.5" stroke="black" fill="cyan"/>
   </g>
   <g id="cell15">
  <circle cx="379.987" cy="474.811" r="8.41271" stroke-width="0.5" stroke="black" fill="magenta"/>
  <circle cx="379.987" cy="474.811" r="5.05167" stroke-width="0.5" stroke="black" fill="magenta"/>
   </g>
   <g id="cell16">
  <circle cx="420.331" cy="427.83" r="8.07532" stroke-width="0.5" stroke="black" fill="magenta"/>
  <circle cx="420.331" cy="427.83" r="4.89309" stroke-width="0.5" stroke="black" fill="magenta"/>
   </g>
   <g id="cell17">
  <circle cx="570.494" cy="496.115" r="6.69288" stroke-width="0.5" stroke="black" fill="magenta"/>
  <circle cx="570.494" cy="496.115" r="4.02051" stroke-width="0.5" stroke="black" fill="magenta"/>
   </g>
   <g id="cell18">
  <circle cx="509.588" cy="386.037" r="2.39696" stroke-width="0.5" stroke="black" fill="magenta"/>
  <circle cx="509.588" cy="386.037" r="2.15369" stroke-width="0.5" stroke="black" fill="black"/>
   </g>
   <g id="cell19">
  <circle cx="453.822" cy="554.796" r="8.38532" stroke-width="0.5" stroke="black" fill="magenta"/>
  <circle cx="453.822" cy="554.796" r="5.04199" stroke-width="0.5" stroke="black" fill="magenta"/>
   </g>
   <g id="cell20">
  <circle cx="531.674" cy="419.081" r="8.41271" stroke-width="0.5" stroke="black" fill="magenta"/>
  <circle cx="531.674" cy="419.081" r="5.05167" stroke-width="0.5" stroke="black" fill="magenta"/>
   </g>
   <g id="cell21">
  <circle cx="463.992" cy="635.074" r="8.41271" stroke-width="0.5" stroke="black" fill="magenta"/>
  <circle cx="463.992" cy="635.074" r="5.05167" stroke-width="0.5" stroke="black" fill="magenta"/>
   </g>
   <g id="cell22">
  <circle cx="557.018" cy="493.393" r="8.41271" stroke-width="0.5" stroke="black" fill="magenta"/>
  <circle cx="557.018" cy="493.393" r="5.05167" stroke-width="0.5" stroke="black" fill="magenta"/>
   </g>
   <g id="cell23">
  <circle cx="546.099" cy="502.517" r="6.69987" stroke-width="0.5" stroke="black" fill="magenta"/>
  <circle cx="546.099" cy="502.517" r="4.11897" stroke-width="0.5" stroke="black" fill="magenta"/>
   </g>
   <g id="cell124">
  <circle cx="558.599" cy="456.177" r="8.02013" stroke-width="0.5" stroke="black" fill="cyan"/>
  <circle cx="558.599" cy="456.177" r="4.86729" stroke-width="0.5" stroke="black" fill="cyan"/>
   </g>
   <g id="cell25">
  <circle cx="639.143" cy="553.081" r="8.3832" stroke-width="0.5" stroke="black" fill="green"/>
  <circle cx="639.143" cy="553.081" r="5.04171" stroke-width="0.5" stroke="black" fill="green"/>
   </g>
   <g id="cell26">
  <circle cx="556.814" cy="400.118" r="8.40154" stroke-width="0.5" stroke="black" fill="green"/>
  <circle cx="556.814" cy="400.118" r="5.04811" stroke-width="0.5" stroke="black" fill="green"/>
   </g>
   <g id="cell27">
  <circle cx="457.446" cy="388.678" r="8.41271" stroke-width="0.5" stroke="black" fill="green"/>
  <circle cx="457.446" cy="388.678" r="5.05167" stroke-width="0.5" stroke="black" fill="green"/>
   </g>
   <g id="cell28">
  <circle cx="426.118" cy="526.246" r="8.41271" stroke-width="0.5" stroke="black" fill="green"/>
  <circle cx="426.118" cy="526.246" r="5.05167" stroke-width="0.5" stroke="black" fill="green"/>
   </g>
   <g id="cell29">
  <circle cx="441.622" cy="509.551" r="8.13813" stroke-width="0.5" stroke="black" fill="green"/>
  <circle cx="441.622" cy="509.551" r="4.92317" stroke-width="0.5" stroke="black" fill="green"/>
   </g>
   <g id="cell126">
  <circle cx="529.331" cy="506.492" r="8.23073" stroke-width="0.5" stroke="black" fill="green"/>
  <circle cx="529.331" cy="506.492" r="4.97576" stroke-width="0.5" stroke="black" fill="green"/>
   </g>
   <g id="cell31">
  <circle cx="414.598" cy="537.22" r="8.33911" stroke-width="0.5" stroke="black" fill="green"/>
  <circle cx="414.598" cy="537.22" r="5.02235" stroke-width="0.5" stroke="black" fill="green"/>
   </g>
   <g id="cell32">
  <circle cx="419.422" cy="486.286" r="7.61469" stroke-width="0.5" stroke="black" fill="green"/>
  <circle cx="419.422" cy="486.286" r="4.62762" stroke-width="0.5" stroke="black" fill="green"/>
   </g>
   <g id="cell33">
  <circle cx="494.145" cy="423.184" r="8.41271" stroke-width="0.5" stroke="black" fill="green"/>
  <circle cx="494.145" cy="423.184" r="5.05167" stroke-width="0.5" stroke="black" fill="green"/>
   </g>
   <g id="cell34">
  <circle cx="389.667" cy="449.1" r="6.94603" stroke-width="0.5" stroke="black" fill="green"/>
  <circle cx="389.667" cy="449.1" r="4.23445" stroke-width="0.5" stroke="black" fill="green"/>
   </g>
   <g id="cell35">
  <circle cx="548.982" cy="548.964" r="8.41271" stroke-width="0.5" stroke="black" fill="green"/>
  <circle cx="548.982" cy="548.964" r="5.05167" stroke-width="0.5" stroke="black" fill="green"/>
   </g>
   <g id="cell36">
  <circle cx="385.946" cy="582.562" r="8.41271" stroke-width="0.5" stroke="black" fill="green"/>
  <circle cx="385.946" cy="582.562" r="5.05167" stroke-width="0.5" stroke="black" fill="green"/>
   </g>
   <g id="cell37">
  <circle cx="634.871" cy="460.618" r="8.41271" stroke-width="0.5" stroke="black" fill="green"/>
  <circle cx="634.871" cy="460.618" r="5.05167" stroke-width="0.5" stroke="black" fill="green"/>
   </g>
   <g id="cell38">
  <circle cx="542.904" cy="612.44" r="8.11999" stroke-width="0.5" stroke="black" fill="green"/>
  <circle cx="542.904" cy="612.44" r="4.91405" stroke-width="0.5" stroke="black" fill="green"/>
   </g>
   <g id="cell39">
  <circle cx="616.578" cy="484.716" r="8.41271" stroke-width="0.5" stroke="black" fill="green"/>
  <circle cx="616.578" cy="484.716" r="5.05167" stroke-width="0.5" stroke="black" fill="green"/>
   </g>
   <g id="cell40">
  <circle cx="482.307" cy="566.642" r="8.40557" stroke-width="0.5" stroke="black" fill="green"/>
  <circle cx="482.307" cy="566.642" r="5.04951" stroke-width="0.5" stroke="black" fill="green"/>
   </g>
   <g id="cell41">
  <circle cx="364.839" cy="480.242" r="8.41271" stroke-width="0.5" stroke="black" fill="green"/>
  <circle cx="364.839" cy="480.242" r="5.05167" stroke-width="0.5" stroke="black" fill="green"/>
   </g>
   <g id="cell42">
  <circle cx="438.985" cy="494.03" r="8.41271" stroke-width="0.5" stroke="black" fill="green"/>
  <circle cx="438.985" cy="494.03" r="5.05167" stroke-width="0.5" stroke="black" fill="green"/>
   </g>
   <g id="cell43">
  <circle cx="558.188" cy="440.469" r="8.41271" stroke-width="0.5" stroke="black" fill="green"/>
  <circle cx="558.188" cy="440.469" r="5.05167" stroke-width="0.5" stroke="black" fill="green"/>
   </g>
   <g id="cell44">
  <circle cx="471.403" cy="622.361" r="7.08639" stroke-width="0.5" stroke="black" fill="green"/>
  <circle cx="471.403" cy="622.361" r="4.29876" stroke-width="0.5" stroke="black" fill="green"/>
   </g>
   <g id="cell45">
  <circle cx="426" cy="565.117" r="8.16806" stroke-width="0.5" stroke="black" fill="green"/>
  <circle cx="426" cy="565.117" r="4.93877" stroke-width="0.5" stroke="black" fill="green"/>
   </g>
   <g id="cell46">
  <circle cx="519.199" cy="613.292" r="8.41271" stroke-width="0.5" stroke="black" fill="green"/>
  <circle cx="519.199" cy="613.292" r="5.05167" stroke-width="0.5" stroke="black" fill="green"/>
   </g>
   <g id="cell47">
  <circle cx="490.396" cy="503.592" r="8.25665" stroke-width="0.5" stroke="black" fill="green"/>
  <circle cx="490.396" cy="503.592" r="4.98384" stroke-width="0.5" stroke="black" fill="green"/>
   </g>
   <g id="cell48">
  <circle cx="562.402" cy="602.572" r="8.41271" stroke-width="0.5" stroke="black" fill="green"/>
  <circle cx="562.402" cy="602.572" r="5.05167" stroke-width="0.5" stroke="black" fill="green"/>
   </g>
   <g id="cell49">
  <circle cx="427.872" cy="389.704" r="8.41271" stroke-width="0.5" stroke="black" fill="green"/>
  <circle cx="427.872" cy="389.704" r="5.05167" stroke-width="0.5" stroke="black" fill="green"/>
   </g>
   <g id="cell50">
  <circle cx="518.225" cy="517.527" r="8.41271" stroke-width="0.5" stroke="black" fill="cyan"/>
  <circle cx="518.225" cy="517.527" r="5.05167" stroke-width="0.5" stroke="black" fill="cyan"/>
   </g>
   <g id="cell51">
  <circle cx="418.8" cy="596.482" r="8.35166" stroke-width="0.5" stroke="black" fill="cyan"/>
  <circle cx="418.8" cy="596.482" r="5.02825" stroke-width="0.5" stroke="black" fill="cyan"/>
   </g>
   <g id="cell52">
  <circle cx="516.593" cy="424.677" r="8.41271" stroke-width="0.5" stroke="black" fill="cyan"/>
  <circle cx="516.593" cy="424.677" r="5.05167" stroke-width="0.5" stroke="black" fill="cyan"/>
   </g>
   <g id="cell53">
  <circle cx="578.321" cy="436.314" r="6.71377" stroke-width="0.5" stroke="black" fill="cyan"/>
  <circle cx="578.321" cy="436.314" r="4.0437" stroke-width="0.5" stroke="black" fill="cyan"/>
   </g>
   <g id="cell54">
  <circle cx="478.151" cy="424.167" r="8.41271" stroke-width="0.5" stroke="black" fill="cyan"/>
  <circle cx="478.151" cy="424.167" r="5.05167" stroke-width="0.5" stroke="black" fill="cyan"/>
   </g>
   <g id="cell55">
  <circle cx="529.541" cy="463.216" r="8.38682" stroke-width="0.5" stroke="black" fill="cyan"/>
  <circle cx="529.541" cy="463.216" r="5.04258" stroke-width="0.5" stroke="black" fill="cyan"/>
   </g>
   <g id="cell56">
  <circle cx="630.544" cy="521.666" r="8.39473" stroke-width="0.5" stroke="black" fill="cyan"/>
  <circle cx="630.544" cy="521.666" r="5.04562" stroke-width="0.5" stroke="black" fill="cyan"/>
   </g>
   <g id="cell57">
  <circle cx="416.622" cy="617.171" r="8.41271" stroke-width="0.5" stroke="black" fill="cyan"/>
  <circle cx="416.622" cy="617.171" r="5.05167" stroke-width="0.5" stroke="black" fill="cyan"/>
   </g>
   <g id="cell58">
  <circle cx="550.204" cy="479.311" r="8.41271" stroke-width="0.5" stroke="black" fill="cyan"/>
  <circle cx="550.204" cy="479.311" r="5.05167" stroke-width="0.5" stroke="black" fill="cyan"/>
   </g>
   <g id="cell59">
  <circle cx="384.322" cy="431.325" r="5.48153" stroke-width="0.5" stroke="black" fill="cyan"/>
  <circle cx="384.322" cy="431.325" r="3.55412" stroke-width="0.5" stroke="black" fill="black"/>
   </g>
   <g id="cell60">
  <circle cx="608.436" cy="471.253" r="8.407" stroke-width="0.5" stroke="black" fill="cyan"/>
  <circle cx="608.436" cy="471.253" r="5.04998" stroke-width="0.5" stroke="black" fill="cyan"/>
   </g>
   <g id="cell121">
  <circle cx="452.085" cy="463.05" r="8.31304" stroke-width="0.5" stroke="black" fill="cyan"/>
  <circle cx="452.085" cy="463.05" r="5.01221" stroke-width="0.5" stroke="black" fill="cyan"/>
   </g>
   <g id="cell62">
  <circle cx="502.427" cy="451.038" r="7.6652" stroke-width="0.5" stroke="black" fill="cyan"/>
  <circle cx="502.427" cy="451.038" r="4.66083" stroke-width="0.5" stroke="black" fill="cyan"/>
   </g>
   <g id="cell63">
  <circle cx="578.783" cy="546.02" r="8.41271" stroke-width="0.5" stroke="black" fill="cyan"/>
  <circle cx="578.783" cy="546.02" r="5.05167" stroke-width="0.5" stroke="black" fill="cyan"/>
   </g>
   <g id="cell64">
  <circle cx="509.962" cy="636.825" r="8.41271" stroke-width="0.5" stroke="black" fill="cyan"/>
  <circle cx="509.962" cy="636.825" r="5.05167" stroke-width="0.5" stroke="black" fill="cyan"/>
   </g>
   <g id="cell65">
  <circle cx="545.27" cy="464.725" r="8.41271" stroke-width="0.5" stroke="black" fill="cyan"/>
  <circle cx="545.27" cy="464.725" r="5.05167" stroke-width="0.5" stroke="black" fill="cyan"/>
   </g>
   <g id="cell66">
  <circle cx="528.71" cy="529.043" r="8.21273" stroke-width="0.5" stroke="black" fill="cyan"/>
  <circle cx="528.71" cy="529.043" r="4.96162" stroke-width="0.5" stroke="black" fill="cyan"/>
   </g>
   <g id="cell67">
  <circle cx="354.666" cy="492.652" r="8.41271" stroke-width="0.5" stroke="black" fill="cyan"/>
  <circle cx="354.666" cy="492.652" r="5.05167" stroke-width="0.5" stroke="black" fill="cyan"/>
   </g>
   <g id="cell68">
  <circle cx="564.402" cy="552.991" r="8.41271" stroke-width="0.5" stroke="black" fill="cyan"/>
  <circle cx="564.402" cy="552.991" r="5.05167" stroke-width="0.5" stroke="black" fill="cyan"/>
   </g>
   <g id="cell69">
  <circle cx="441.54" cy="451.085" r="8.31304" stroke-width="0.5" stroke="black" fill="cyan"/>
  <circle cx="441.54" cy="451.085" r="5.01221" stroke-width="0.5" stroke="black" fill="cyan"/>
   </g>
   <g id="cell70">
  <circle cx="582.077" cy="474.768" r="8.3995" stroke-width="0.5" stroke="black" fill="cyan"/>
  <circle cx="582.077" cy="474.768" r="5.04738" stroke-width="0.5" stroke="black" fill="cyan"/>
   </g>
   <g id="cell71">
  <circle cx="375.8" cy="516.839" r="8.41271" stroke-width="0.5" stroke="black" fill="cyan"/>
  <circle cx="375.8" cy="516.839" r="5.05167" stroke-width="0.5" stroke="black" fill="cyan"/>
   </g>
   <g id="cell72">
  <circle cx="539.873" cy="517.31" r="8.41271" stroke-width="0.5" stroke="black" fill="cyan"/>
  <circle cx="539.873" cy="517.31" r="5.05167" stroke-width="0.5" stroke="black" fill="cyan"/>
   </g>
   <g id="cell73">
  <circle cx="356.107" cy="549.959" r="8.33672" stroke-width="0.5" stroke="black" fill="cyan"/>
  <circle cx="356.107" cy="549.959" r="5.02222" stroke-width="0.5" stroke="black" fill="cyan"/>
   </g>
   <g id="cell74">
  <circle cx="544.91" cy="449.16" r="8.41271" stroke-width="0.5" stroke="black" fill="cyan"/>
  <circle cx="544.91" cy="449.16" r="5.05167" stroke-width="0.5" stroke="black" fill="cyan"/>
   </g>
   <g id="cell75">
  <circle cx="588.441" cy="496.728" r="8.40398" stroke-width="0.5" stroke="black" fill="magenta"/>
  <circle cx="588.441" cy="496.728" r="5.04906" stroke-width="0.5" stroke="black" fill="magenta"/>
   </g>
   <g id="cell76">
  <circle cx="648.132" cy="539.858" r="8.4097" stroke-width="0.5" stroke="black" fill="green"/>
  <circle cx="648.132" cy="539.858" r="5.05084" stroke-width="0.5" stroke="black" fill="green"/>
   </g>
   <g id="cell77">
  <circle cx="505.079" cy="508.923" r="8.35247" stroke-width="0.5" stroke="black" fill="green"/>
  <circle cx="505.079" cy="508.923" r="5.0285" stroke-width="0.5" stroke="black" fill="green"/>
   </g>
   <g id="cell78">
  <circle cx="365.618" cy="569.258" r="8.40046" stroke-width="0.5" stroke="black" fill="magenta"/>
  <circle cx="365.618" cy="569.258" r="5.04786" stroke-width="0.5" stroke="black" fill="magenta"/>
   </g>
   <g id="cell79">
  <circle cx="538.51" cy="571.925" r="8.2125" stroke-width="0.5" stroke="black" fill="green"/>
  <circle cx="538.51" cy="571.925" r="4.96268" stroke-width="0.5" stroke="black" fill="green"/>
   </g>
   <g id="cell80">
  <circle cx="456.983" cy="602.607" r="6.72968" stroke-width="0.5" stroke="black" fill="magenta"/>
  <circle cx="456.983" cy="602.607" r="4.04947" stroke-width="0.5" stroke="black" fill="magenta"/>
   </g>
   <g id="cell81">
  <circle cx="395" cy="617.254" r="8.38587" stroke-width="0.5" stroke="black" fill="cyan"/>
  <circle cx="395" cy="617.254" r="5.04245" stroke-width="0.5" stroke="black" fill="cyan"/>
   </g>
   <g id="cell82">
  <circle cx="594.592" cy="468.426" r="6.8501" stroke-width="0.5" stroke="black" fill="cyan"/>
  <circle cx="594.592" cy="468.426" r="4.14319" stroke-width="0.5" stroke="black" fill="cyan"/>
   </g>
   <g id="cell83">
  <circle cx="547.271" cy="597.358" r="8.40531" stroke-width="0.5" stroke="black" fill="green"/>
  <circle cx="547.271" cy="597.358" r="5.04951" stroke-width="0.5" stroke="black" fill="green"/>
   </g>
   <g id="cell84">
  <circle cx="490.893" cy="580.154" r="8.40557" stroke-width="0.5" stroke="black" fill="green"/>
  <circle cx="490.893" cy="580.154" r="5.04951" stroke-width="0.5" stroke="black" fill="green"/>
   </g>
   <g id="cell85">
  <circle cx="613.164" cy="499.528" r="7.79055" stroke-width="0.5" stroke="black" fill="magenta"/>
  <circle cx="613.164" cy="499.528" r="4.73198" stroke-width="0.5" stroke="black" fill="magenta"/>
   </g>
   <g id="cell86">
  <circle cx="523.638" cy="597.925" r="8.40145" stroke-width="0.5" stroke="black" fill="green"/>
  <circle cx="523.638" cy="597.925" r="5.04828" stroke-width="0.5" stroke="black" fill="green"/>
   </g>
   <g id="cell87">
  <circle cx="589.868" cy="608.74" r="7.48924" stroke-width="0.5" stroke="black" fill="magenta"/>
  <circle cx="589.868" cy="608.74" r="4.55372" stroke-width="0.5" stroke="black" fill="magenta"/>
   </g>
   <g id="cell88">
  <circle cx="372.676" cy="554.963" r="8.33076" stroke-width="0.5" stroke="black" fill="magenta"/>
  <circle cx="372.676" cy="554.963" r="5.01945" stroke-width="0.5" stroke="black" fill="magenta"/>
   </g>
   <g id="cell89">
  <circle cx="546.012" cy="411.868" r="8.39274" stroke-width="0.5" stroke="black" fill="green"/>
  <circle cx="546.012" cy="411.868" r="5.04518" stroke-width="0.5" stroke="black" fill="green"/>
   </g>
   <g id="cell90">
  <circle cx="565.79" cy="479.726" r="8.30816" stroke-width="0.5" stroke="black" fill="cyan"/>
  <circle cx="565.79" cy="479.726" r="5.00913" stroke-width="0.5" stroke="black" fill="cyan"/>
   </g>
   <g id="cell91">
  <circle cx="541.117" cy="396.828" r="8.39274" stroke-width="0.5" stroke="black" fill="green"/>
  <circle cx="541.117" cy="396.828" r="5.04518" stroke-width="0.5" stroke="black" fill="green"/>
   </g>
   <g id="cell92">
  <circle cx="641.681" cy="568.853" r="8.39513" stroke-width="0.5" stroke="black" fill="green"/>
  <circle cx="641.681" cy="568.853" r="5.04592" stroke-width="0.5" stroke="black" fill="green"/>
   </g>
   <g id="cell93">
  <circle cx="368.379" cy="539.751" r="8.39618" stroke-width="0.5" stroke="black" fill="cyan"/>
  <circle cx="368.379" cy="539.751" r="5.04616" stroke-width="0.5" stroke="black" fill="cyan"/>
   </g>
   <g id="cell94">
  <circle cx="615.083" cy="525.89" r="8.39473" stroke-width="0.5" stroke="black" fill="cyan"/>
  <circle cx="615.083" cy="525.89" r="5.04562" stroke-width="0.5" stroke="black" fill="cyan"/>
   </g>
   <g id="cell95">
  <circle cx="577.684" cy="585.252" r="8.38946" stroke-width="0.5" stroke="black" fill="magenta"/>
  <circle cx="577.684" cy="585.252" r="5.04392" stroke-width="0.5" stroke="black" fill="magenta"/>
   </g>
   <g id="cell96">
  <circle cx="596.145" cy="482.693" r="8.39083" stroke-width="0.5" stroke="black" fill="cyan"/>
  <circle cx="596.145" cy="482.693" r="5.04438" stroke-width="0.5" stroke="black" fill="cyan"/>
   </g>
   <g id="cell97">
  <circle cx="624.215" cy="547.424" r="8.3832" stroke-width="0.5" stroke="black" fill="green"/>
  <circle cx="624.215" cy="547.424" r="5.04171" stroke-width="0.5" stroke="black" fill="green"/>
   </g>
   <g id="cell98">
  <circle cx="599.716" cy="521.379" r="8.39063" stroke-width="0.5" stroke="black" fill="magenta"/>
  <circle cx="599.716" cy="521.379" r="5.04421" stroke-width="0.5" stroke="black" fill="magenta"/>
   </g>
   <g id="cell99">
  <circle cx="567.272" cy="427.033" r="8.38823" stroke-width="0.5" stroke="black" fill="cyan"/>
  <circle cx="567.272" cy="427.033" r="5.04313" stroke-width="0.5" stroke="black" fill="cyan"/>
   </g>
   <g id="cell100">
  <circle cx="376.04" cy="594.557" r="8.32273" stroke-width="0.5" stroke="black" fill="cyan"/>
  <circle cx="376.04" cy="594.557" r="5.01708" stroke-width="0.5" stroke="black" fill="cyan"/>
   </g>
   <g id="cell101">
  <circle cx="539.903" cy="435.18" r="7.60402" stroke-width="0.5" stroke="black" fill="cyan"/>
  <circle cx="539.903" cy="435.18" r="4.63621" stroke-width="0.5" stroke="black" fill="cyan"/>
   </g>
   <g id="cell102">
  <circle cx="505.566" cy="474.277" r="8.1681" stroke-width="0.5" stroke="black" fill="cyan"/>
  <circle cx="505.566" cy="474.277" r="4.94098" stroke-width="0.5" stroke="black" fill="cyan"/>
   </g>
   <g id="cell103">
  <circle cx="467.581" cy="530.448" r="8.16879" stroke-width="0.5" stroke="black" fill="magenta"/>
  <circle cx="467.581" cy="530.448" r="4.94561" stroke-width="0.5" stroke="black" fill="magenta"/>
   </g>
   <g id="cell104">
  <circle cx="405.681" cy="605.461" r="8.36856" stroke-width="0.5" stroke="black" fill="cyan"/>
  <circle cx="405.681" cy="605.461" r="5.03604" stroke-width="0.5" stroke="black" fill="cyan"/>
   </g>
   <g id="cell105">
  <circle cx="513.873" cy="461.256" r="8.38028" stroke-width="0.5" stroke="black" fill="magenta"/>
  <circle cx="513.873" cy="461.256" r="5.03997" stroke-width="0.5" stroke="black" fill="magenta"/>
   </g>
   <g id="cell106">
  <circle cx="436.078" cy="403.405" r="8.37537" stroke-width="0.5" stroke="black" fill="magenta"/>
  <circle cx="436.078" cy="403.405" r="5.03798" stroke-width="0.5" stroke="black" fill="magenta"/>
   </g>
   <g id="cell107">
  <circle cx="424.49" cy="458.137" r="8.30334" stroke-width="0.5" stroke="black" fill="cyan"/>
  <circle cx="424.49" cy="458.137" r="5.00779" stroke-width="0.5" stroke="black" fill="cyan"/>
   </g>
   <g id="cell108">
  <circle cx="523.609" cy="381.224" r="8.3632" stroke-width="0.5" stroke="black" fill="magenta"/>
  <circle cx="523.609" cy="381.224" r="5.03288" stroke-width="0.5" stroke="black" fill="magenta"/>
   </g>
   <g id="cell110">
  <circle cx="515.203" cy="399.661" r="8.32901" stroke-width="0.5" stroke="black" fill="magenta"/>
  <circle cx="515.203" cy="399.661" r="5.01943" stroke-width="0.5" stroke="black" fill="magenta"/>
   </g>
   <g id="cell111">
  <circle cx="516.364" cy="498.357" r="8.23073" stroke-width="0.5" stroke="black" fill="green"/>
  <circle cx="516.364" cy="498.357" r="4.97576" stroke-width="0.5" stroke="black" fill="green"/>
   </g>
   <g id="cell112">
  <circle cx="399.617" cy="585.304" r="6.76223" stroke-width="0.5" stroke="black" fill="cyan"/>
  <circle cx="399.617" cy="585.304" r="4.08899" stroke-width="0.5" stroke="black" fill="cyan"/>
   </g>
   <g id="cell113">
  <circle cx="340.348" cy="547.223" r="8.33672" stroke-width="0.5" stroke="black" fill="cyan"/>
  <circle cx="340.348" cy="547.223" r="5.02222" stroke-width="0.5" stroke="black" fill="cyan"/>
   </g>
   <g id="cell114">
  <circle cx="381.409" cy="609.224" r="8.29767" stroke-width="0.5" stroke="black" fill="cyan"/>
  <circle cx="381.409" cy="609.224" r="5.00665" stroke-width="0.5" stroke="black" fill="cyan"/>
   </g>
   <g id="cell115">
  <circle cx="391.874" cy="597.376" r="8.29767" stroke-width="0.5" stroke="black" fill="cyan"/>
  <circle cx="391.874" cy="597.376" r="5.00665" stroke-width="0.5" stroke="black" fill="cyan"/>
   </g>
   <g id="cell116">
  <circle cx="399.926" cy="543.275" r="8.33911" stroke-width="0.5" stroke="black" fill="green"/>
  <circle cx="399.926" cy="543.275" r="5.02235" stroke-width="0.5" stroke="black" fill="green"/>
   </g>
   <g id="cell117">
  <circle cx="381.308" cy="567.952" r="8.27594" stroke-width="0.5" stroke="black" fill="magenta"/>
  <circle cx="381.308" cy="567.952" r="4.99617" stroke-width="0.5" stroke="black" fill="magenta"/>
   </g>
   <g id="cell118">
  <circle cx="398.254" cy="437.51" r="8.30885" stroke-width="0.5" stroke="black" fill="cyan"/>
  <circle cx="398.254" cy="437.51" r="5.01056" stroke-width="0.5" stroke="black" fill="cyan"/>
   </g>
   <g id="cell119">
  <circle cx="571.064" cy="509.596" r="8.32358" stroke-width="0.5" stroke="black" fill="magenta"/>
  <circle cx="571.064" cy="509.596" r="5.01662" stroke-width="0.5" stroke="black" fill="magenta"/>
   </g>
   <g id="cell120">
  <circle cx="506.219" cy="488.51" r="7.07479" stroke-width="0.5" stroke="black" fill="green"/>
  <circle cx="506.219" cy="488.51" r="4.30925" stroke-width="0.5" stroke="black" fill="green"/>
   </g>
   <g id="cell122">
  <circle cx="438.871" cy="479.114" r="7.39966" stroke-width="0.5" stroke="black" fill="cyan"/>
  <circle cx="438.871" cy="479.114" r="4.51119" stroke-width="0.5" stroke="black" fill="cyan"/>
   </g>
   <g id="cell123">
  <circle cx="391.034" cy="556.165" r="8.27594" stroke-width="0.5" stroke="black" fill="magenta"/>
  <circle cx="391.034" cy="556.165" r="4.99617" stroke-width="0.5" stroke="black" fill="magenta"/>
   </g>
   <g id="cell125">
  <circle cx="534.441" cy="478.227" r="8.29667" stroke-width="0.5" stroke="black" fill="magenta"/>
  <circle cx="534.441" cy="478.227" r="5.00279" stroke-width="0.5" stroke="black" fill="magenta"/>
   </g>
   <g id="cell127">
  <circle cx="440.11" cy="533.605" r="8.25682" stroke-width="0.5" stroke="black" fill="magenta"/>
  <circle cx="440.11" cy="533.605" r="4.98545" stroke-width="0.5" stroke="black" fill="magenta"/>
   </g>
   <g id="cell128">
  <circle cx="551.635" cy="426.332" r="8.24995" stroke-width="0.5" stroke="black" fill="cyan"/>
  <circle cx="551.635" cy="426.332" r="4.98197" stroke-width="0.5" stroke="black" fill="cyan"/>
   </g>
   <g id="cell129">
  <circle cx="493.462" cy="519.331" r="8.25665" stroke-width="0.5" stroke="black" fill="green"/>
  <circle cx="493.462" cy="519.331" r="4.98384" stroke-width="0.5" stroke="black" fill="green"/>
   </g>
   <g id="cell130">
  <circle cx="454.703" cy="539.025" r="8.16879" stroke-width="0.5" stroke="black" fill="magenta"/>
  <circle cx="454.703" cy="539.025" r="4.94561" stroke-width="0.5" stroke="black" fill="magenta"/>
   </g>
   <g id="cell131">
  <circle cx="535.197" cy="587.175" r="8.2125" stroke-width="0.5" stroke="black" fill="green"/>
  <circle cx="535.197" cy="587.175" r="4.96268" stroke-width="0.5" stroke="black" fill="green"/>
   </g>
   <g id="cell132">
  <circle cx="403.407" cy="457.363" r="7.36946" stroke-width="0.5" stroke="black" fill="green"/>
  <circle cx="403.407" cy="457.363" r="4.49818" stroke-width="0.5" stroke="black" fill="green"/>
   </g>
   <g id="cell133">
  <circle cx="544.21" cy="530.217" r="6.55454" stroke-width="0.5" stroke="black" fill="cyan"/>
  <circle cx="544.21" cy="530.217" r="3.96368" stroke-width="0.5" stroke="black" fill="cyan"/>
   </g>
   <g id="cell134">
  <circle cx="519.032" cy="481.987" r="8.1681" stroke-width="0.5" stroke="black" fill="cyan"/>
  <circle cx="519.032" cy="481.987" r="4.94098" stroke-width="0.5" stroke="black" fill="cyan"/>
   </g>
   <g id="cell135">
  <circle cx="405.834" cy="557.659" r="7.72444" stroke-width="0.5" stroke="black" fill="green"/>
  <circle cx="405.834" cy="557.659" r="4.70774" stroke-width="0.5" stroke="black" fill="green"/>
   </g>
   <g id="cell136">
  <circle cx="456.207" cy="509.116" r="7.3715" stroke-width="0.5" stroke="black" fill="green"/>
  <circle cx="456.207" cy="509.116" r="4.51658" stroke-width="0.5" stroke="black" fill="green"/>
   </g>
   <g id="cell137">
  <circle cx="531.608" cy="622.949" r="8.11999" stroke-width="0.5" stroke="black" fill="green"/>
  <circle cx="531.608" cy="622.949" r="4.91405" stroke-width="0.5" stroke="black" fill="green"/>
   </g>
   <g id="cell138">
  <circle cx="432.619" cy="418.645" r="8.07532" stroke-width="0.5" stroke="black" fill="magenta"/>
  <circle cx="432.619" cy="418.645" r="4.89309" stroke-width="0.5" stroke="black" fill="magenta"/>
   </g>
   <g id="cell139">
  <circle cx="570.491" cy="465.051" r="8.02013" stroke-width="0.5" stroke="black" fill="cyan"/>
  <circle cx="570.491" cy="465.051" r="4.86729" stroke-width="0.5" stroke="black" fill="cyan"/>
   </g>
   <g id="cell140">
  <circle cx="450.341" cy="522.281" r="7.88692" stroke-width="0.5" stroke="black" fill="green"/>
  <circle cx="450.341" cy="522.281" r="4.79853" stroke-width="0.5" stroke="black" fill="green"/>
   </g>
   <g id="cell141">
  <circle cx="419.142" cy="551.726" r="7.72444" stroke-width="0.5" stroke="black" fill="green"/>
  <circle cx="419.142" cy="551.726" r="4.70774" stroke-width="0.5" stroke="black" fill="green"/>
   </g>
   <g id="cell142">
  <circle cx="600.231" cy="506.22" r="7.79055" stroke-width="0.5" stroke="black" fill="magenta"/>
  <circle cx="600.231" cy="506.22" r="4.73198" stroke-width="0.5" stroke="black" fill="magenta"/>
   </g>
   <g id="cell143">
  <circle cx="525.953" cy="436.404" r="7.60402" stroke-width="0.5" stroke="black" fill="cyan"/>
  <circle cx="525.953" cy="436.404" r="4.63621" stroke-width="0.5" stroke="black" fill="cyan"/>
   </g>
   <g id="cell144">
  <circle cx="516.058" cy="446.459" r="7.6652" stroke-width="0.5" stroke="black" fill="cyan"/>
  <circle cx="516.058" cy="446.459" r="4.66083" stroke-width="0.5" stroke="black" fill="cyan"/>
   </g>
   <g id="cell145">
  <circle cx="467.454" cy="516.377" r="6.77046" stroke-width="0.5" stroke="black" fill="green"/>
  <circle cx="467.454" cy="516.377" r="4.17411" stroke-width="0.5" stroke="black" fill="green"/>
   </g>
   <g id="cell146">
  <circle cx="425.813" cy="473.344" r="7.61469" stroke-width="0.5" stroke="black" fill="green"/>
  <circle cx="425.813" cy="473.344" r="4.62762" stroke-width="0.5" stroke="black" fill="green"/>
   </g>
   <g id="cell147">
  <circle cx="382.918" cy="543.936" r="7.54436" stroke-width="0.5" stroke="black" fill="magenta"/>
  <circle cx="382.918" cy="543.936" r="4.58555" stroke-width="0.5" stroke="black" fill="magenta"/>
   </g>
   <g id="cell148">
  <circle cx="589.418" cy="594.614" r="7.48924" stroke-width="0.5" stroke="black" fill="magenta"/>
  <circle cx="589.418" cy="594.614" r="4.55372" stroke-width="0.5" stroke="black" fill="magenta"/>
   </g>
   <g id="cell149">
  <circle cx="529.381" cy="492.056" r="7.42175" stroke-width="0.5" stroke="black" fill="magenta"/>
  <circle cx="529.381" cy="492.056" r="4.52403" stroke-width="0.5" stroke="black" fill="magenta"/>
   </g>
   <g id="cell150">
  <circle cx="412.932" cy="467.54" r="7.36946" stroke-width="0.5" stroke="black" fill="green"/>
  <circle cx="412.932" cy="467.54" r="4.49818" stroke-width="0.5" stroke="black" fill="green"/>
   </g>
   <g id="cell151">
  <circle cx="437.442" cy="465.287" r="7.39966" stroke-width="0.5" stroke="black" fill="cyan"/>
  <circle cx="437.442" cy="465.287" r="4.51119" stroke-width="0.5" stroke="black" fill="cyan"/>
   </g>
   <g id="cell152">
  <circle cx="468.346" cy="503.64" r="6.77046" stroke-width="0.5" stroke="black" fill="green"/>
  <circle cx="468.346" cy="503.64" r="4.17411" stroke-width="0.5" stroke="black" fill="green"/>
   </g>
   <g id="cell153">
  <circle cx="542.241" cy="490.609" r="6.69987" stroke-width="0.5" stroke="black" fill="magenta"/>
  <circle cx="542.241" cy="490.609" r="4.11897" stroke-width="0.5" stroke="black" fill="magenta"/>
   </g>
   <g id="cell154">
  <circle cx="492.988" cy="488.731" r="7.07479" stroke-width="0.5" stroke="black" fill="green"/>
  <circle cx="492.988" cy="488.731" r="4.30925" stroke-width="0.5" stroke="black" fill="green"/>
   </g>
   <g id="cell155">
  <circle cx="484.371" cy="625.876" r="7.08639" stroke-width="0.5" stroke="black" fill="green"/>
  <circle cx="484.371" cy="625.876" r="4.29876" stroke-width="0.5" stroke="black" fill="green"/>
   </g>
   <g id="cell156">
  <circle cx="536.902" cy="540.776" r="7.08639" stroke-width="0.5" stroke="black" fill="magenta"/>
  <circle cx="536.902" cy="540.776" r="4.29876" stroke-width="0.5" stroke="black" fill="magenta"/>
   </g>
   <g id="cell157">
  <circle cx="390.706" cy="462.207" r="6.94603" stroke-width="0.5" stroke="black" fill="green"/>
  <circle cx="390.706" cy="462.207" r="4.23445" stroke-width="0.5" stroke="black" fill="green"/>
   </g>
   <g id="cell158">
  <circle cx="600.613" cy="586.868" r="6.94202" stroke-width="0.5" stroke="black" fill="magenta"/>
  <circle cx="600.613" cy="586.868" r="4.20749" stroke-width="0.5" stroke="black" fill="magenta"/>
   </g>
   <g id="cell159">
  <circle cx="583.997" cy="461.062" r="6.8501" stroke-width="0.5" stroke="black" fill="cyan"/>
  <circle cx="583.997" cy="461.062" r="4.14319" stroke-width="0.5" stroke="black" fill="cyan"/>
   </g>
   <g id="cell160">
  <circle cx="412.088" cy="583.915" r="6.76223" stroke-width="0.5" stroke="black" fill="cyan"/>
  <circle cx="412.088" cy="583.915" r="4.08899" stroke-width="0.5" stroke="black" fill="cyan"/>
   </g>
   <g id="cell161">
  <circle cx="448.65" cy="612.466" r="6.72968" stroke-width="0.5" stroke="black" fill="magenta"/>
  <circle cx="448.65" cy="612.466" r="4.04947" stroke-width="0.5" stroke="black" fill="magenta"/>
   </g>
   <g id="cell162">
  <circle cx="570.885" cy="446.654" r="6.71377" stroke-width="0.5" stroke="black" fill="cyan"/>
  <circle cx="570.885" cy="446.654" r="4.0437" stroke-width="0.5" stroke="black" fill="cyan"/>
   </g>
   <g id="cell163">
  <circle cx="554.789" cy="536.149" r="6.55454" stroke-width="0.5" stroke="black" fill="cyan"/>
  <circle cx="554.789" cy="536.149" r="3.96368" stroke-width="0.5" stroke="black" fill="cyan"/>
   </g>
   <g id="cell164">
  <circle cx="578.125" cy="487.262" r="6.69288" stroke-width="0.5" stroke="black" fill="magenta"/>
  <circle cx="578.125" cy="487.262" r="4.02051" stroke-width="0.5" stroke="black" fill="magenta"/>
   </g>
  </g>
 </g>
  <rect x="775" y="1035" width="200" height="10" stroke-width="2" stroke="rgb(255,255,255)" fill="rgb(0,0,0)"/>
  <text x="781.25" y="1028.75"
   font-family="Arial" font-size="25" fill="black" >
   200 &#956;m
  </text>
  <text x="25" y="1045"
   font-family="Arial" font-size="18.75" fill="black" >
   0 days, 0 hours, 0 minutes, and 32.5591 seconds
  </text>
  <rect x="0" y="70" width="1000" height="1000" stroke-width="2" stroke="rgb(0,0,0)" fill="none"/>
</svg>
