<?xml version="1.0" encoding="UTF-8" standalone="no"?>
<!-- Created with PhysiCell (http://PhysiCell.MathCancer.org/) -->
<svg 
 xmlns:dc="http://purl.org/dc/elements/1.1/" 
 xmlns:cc="http://creativecommons.org/ns#" 
 xmlns:rdf="http://www.w3.org/1999/02/22-rdf-syntax-ns#" 
 xmlns:svg="http://www.w3.org/2000/svg" 
 xmlns="http://www.w3.org/2000/svg" 
 version="1.1" 
 width="1000" 
 height="1070" 
 id="svg2">
  <rect x="0" y="0" width="1000" height="1070" stroke-width="2" stroke="white" fill="white"/>
  <text x="12.5" y="30"
   font-family="Arial" font-size="25" fill="black" >
   Current time: 0 days, 15 hours, and 0.00 minutes, z = 0.00 &#956;m
  </text>
  <text x="12.5" y="57.5"
   font-family="Arial" font-size="23.75" fill="black" >
   126 agents
  </text>
 <g id="tissue" 
    transform="translate(0,1070) scale(1,-1)">
  <g id="ECM">
  </g>
  <g id="cells">
   <g id="cell0">
  <circle cx="513.01" cy="531.222" r="8.41271" stroke-width="0.5" stroke="black" fill="magenta"/>
  <circle cx="513.01" cy="531.222" r="5.05167" stroke-width="0.5" stroke="black" fill="magenta"/>
   </g>
   <g id="cell1">
  <circle cx="601.089" cy="532.005" r="8.41271" stroke-width="0.5" stroke="black" fill="magenta"/>
  <circle cx="601.089" cy="532.005" r="5.05167" stroke-width="0.5" stroke="black" fill="magenta"/>
   </g>
   <g id="cell2">
  <circle cx="510.675" cy="600.535" r="8.41271" stroke-width="0.5" stroke="black" fill="magenta"/>
  <circle cx="510.675" cy="600.535" r="5.05167" stroke-width="0.5" stroke="black" fill="magenta"/>
   </g>
   <g id="cell3">
  <circle cx="532.328" cy="545.997" r="8.41271" stroke-width="0.5" stroke="black" fill="magenta"/>
  <circle cx="532.328" cy="545.997" r="5.05167" stroke-width="0.5" stroke="black" fill="magenta"/>
   </g>
   <g id="cell4">
  <circle cx="481.375" cy="439.864" r="8.41271" stroke-width="0.5" stroke="black" fill="magenta"/>
  <circle cx="481.375" cy="439.864" r="5.05167" stroke-width="0.5" stroke="black" fill="magenta"/>
   </g>
   <g id="cell5">
  <circle cx="465.032" cy="493.3" r="8.41271" stroke-width="0.5" stroke="black" fill="magenta"/>
  <circle cx="465.032" cy="493.3" r="5.05167" stroke-width="0.5" stroke="black" fill="magenta"/>
   </g>
   <g id="cell6">
  <circle cx="585.904" cy="513.587" r="7.20487" stroke-width="0.5" stroke="black" fill="magenta"/>
  <circle cx="585.904" cy="513.587" r="4.40467" stroke-width="0.5" stroke="black" fill="magenta"/>
   </g>
   <g id="cell7">
  <circle cx="501.647" cy="460.223" r="7.98892" stroke-width="0.5" stroke="black" fill="magenta"/>
  <circle cx="501.647" cy="460.223" r="4.84272" stroke-width="0.5" stroke="black" fill="magenta"/>
   </g>
   <g id="cell8">
  <circle cx="384.187" cy="543.139" r="8.41271" stroke-width="0.5" stroke="black" fill="magenta"/>
  <circle cx="384.187" cy="543.139" r="5.05167" stroke-width="0.5" stroke="black" fill="magenta"/>
   </g>
   <g id="cell9">
  <circle cx="465.214" cy="595.177" r="8.36178" stroke-width="0.5" stroke="black" fill="magenta"/>
  <circle cx="465.214" cy="595.177" r="5.03227" stroke-width="0.5" stroke="black" fill="magenta"/>
   </g>
   <g id="cell10">
  <circle cx="583.447" cy="392.105" r="8.41271" stroke-width="0.5" stroke="black" fill="magenta"/>
  <circle cx="583.447" cy="392.105" r="5.05167" stroke-width="0.5" stroke="black" fill="magenta"/>
   </g>
   <g id="cell11">
  <circle cx="595.67" cy="584.192" r="8.11189" stroke-width="0.5" stroke="black" fill="magenta"/>
  <circle cx="595.67" cy="584.192" r="4.91524" stroke-width="0.5" stroke="black" fill="magenta"/>
   </g>
   <g id="cell12">
  <circle cx="505.825" cy="585.256" r="8.41271" stroke-width="0.5" stroke="black" fill="magenta"/>
  <circle cx="505.825" cy="585.256" r="5.05167" stroke-width="0.5" stroke="black" fill="magenta"/>
   </g>
   <g id="cell13">
  <circle cx="398.261" cy="566.778" r="8.37092" stroke-width="0.5" stroke="black" fill="magenta"/>
  <circle cx="398.261" cy="566.778" r="5.03613" stroke-width="0.5" stroke="black" fill="magenta"/>
   </g>
   <g id="cell109">
  <circle cx="375.731" cy="443.122" r="7.67987" stroke-width="0.5" stroke="black" fill="cyan"/>
  <circle cx="375.731" cy="443.122" r="4.66617" stroke-width="0.5" stroke="black" fill="cyan"/>
   </g>
   <g id="cell15">
  <circle cx="379.896" cy="475.017" r="8.41271" stroke-width="0.5" stroke="black" fill="magenta"/>
  <circle cx="379.896" cy="475.017" r="5.05167" stroke-width="0.5" stroke="black" fill="magenta"/>
   </g>
   <g id="cell16">
  <circle cx="426.56" cy="420.988" r="7.9229" stroke-width="0.5" stroke="black" fill="magenta"/>
  <circle cx="426.56" cy="420.988" r="4.80599" stroke-width="0.5" stroke="black" fill="magenta"/>
   </g>
   <g id="cell17">
  <circle cx="572.451" cy="492.308" r="8.41271" stroke-width="0.5" stroke="black" fill="magenta"/>
  <circle cx="572.451" cy="492.308" r="5.05167" stroke-width="0.5" stroke="black" fill="magenta"/>
   </g>
   <g id="cell18">
  <circle cx="510.072" cy="386.413" r="7.25129" stroke-width="0.5" stroke="black" fill="magenta"/>
  <circle cx="510.072" cy="386.413" r="4.44064" stroke-width="0.5" stroke="black" fill="magenta"/>
   </g>
   <g id="cell19">
  <circle cx="453.634" cy="547.492" r="8.05651" stroke-width="0.5" stroke="black" fill="magenta"/>
  <circle cx="453.634" cy="547.492" r="4.87966" stroke-width="0.5" stroke="black" fill="magenta"/>
   </g>
   <g id="cell20">
  <circle cx="532.085" cy="418.326" r="8.41271" stroke-width="0.5" stroke="black" fill="magenta"/>
  <circle cx="532.085" cy="418.326" r="5.05167" stroke-width="0.5" stroke="black" fill="magenta"/>
   </g>
   <g id="cell21">
  <circle cx="464.212" cy="634.718" r="8.41271" stroke-width="0.5" stroke="black" fill="magenta"/>
  <circle cx="464.212" cy="634.718" r="5.05167" stroke-width="0.5" stroke="black" fill="magenta"/>
   </g>
   <g id="cell22">
  <circle cx="556.643" cy="494.861" r="8.41271" stroke-width="0.5" stroke="black" fill="magenta"/>
  <circle cx="556.643" cy="494.861" r="5.05167" stroke-width="0.5" stroke="black" fill="magenta"/>
   </g>
   <g id="cell23">
  <circle cx="539.579" cy="490.144" r="6.95901" stroke-width="0.5" stroke="black" fill="magenta"/>
  <circle cx="539.579" cy="490.144" r="4.21341" stroke-width="0.5" stroke="black" fill="magenta"/>
   </g>
   <g id="cell124">
  <circle cx="560.382" cy="462.581" r="7.03362" stroke-width="0.5" stroke="black" fill="cyan"/>
  <circle cx="560.382" cy="462.581" r="4.28775" stroke-width="0.5" stroke="black" fill="cyan"/>
   </g>
   <g id="cell25">
  <circle cx="638.987" cy="553.076" r="8.02721" stroke-width="0.5" stroke="black" fill="green"/>
  <circle cx="638.987" cy="553.076" r="4.87431" stroke-width="0.5" stroke="black" fill="green"/>
   </g>
   <g id="cell26">
  <circle cx="556.723" cy="399.857" r="8.27097" stroke-width="0.5" stroke="black" fill="green"/>
  <circle cx="556.723" cy="399.857" r="4.99048" stroke-width="0.5" stroke="black" fill="green"/>
   </g>
   <g id="cell27">
  <circle cx="457.446" cy="388.678" r="8.41271" stroke-width="0.5" stroke="black" fill="green"/>
  <circle cx="457.446" cy="388.678" r="5.05167" stroke-width="0.5" stroke="black" fill="green"/>
   </g>
   <g id="cell28">
  <circle cx="433.25" cy="528.997" r="8.41271" stroke-width="0.5" stroke="black" fill="green"/>
  <circle cx="433.25" cy="528.997" r="5.05167" stroke-width="0.5" stroke="black" fill="green"/>
   </g>
   <g id="cell29">
  <circle cx="447.661" cy="516.137" r="8.41271" stroke-width="0.5" stroke="black" fill="green"/>
  <circle cx="447.661" cy="516.137" r="5.05167" stroke-width="0.5" stroke="black" fill="green"/>
   </g>
   <g id="cell126">
  <circle cx="527.308" cy="500.037" r="5.74047" stroke-width="0.5" stroke="black" fill="green"/>
  <circle cx="527.308" cy="500.037" r="3.54101" stroke-width="0.5" stroke="black" fill="green"/>
   </g>
   <g id="cell31">
  <circle cx="416.55" cy="538.005" r="7.44242" stroke-width="0.5" stroke="black" fill="green"/>
  <circle cx="416.55" cy="538.005" r="4.52373" stroke-width="0.5" stroke="black" fill="green"/>
   </g>
   <g id="cell32">
  <circle cx="421.546" cy="479.608" r="8.41271" stroke-width="0.5" stroke="black" fill="green"/>
  <circle cx="421.546" cy="479.608" r="5.05167" stroke-width="0.5" stroke="black" fill="green"/>
   </g>
   <g id="cell33">
  <circle cx="494.146" cy="423.184" r="8.41271" stroke-width="0.5" stroke="black" fill="green"/>
  <circle cx="494.146" cy="423.184" r="5.05167" stroke-width="0.5" stroke="black" fill="green"/>
   </g>
   <g id="cell34">
  <circle cx="398.301" cy="454.65" r="8.41271" stroke-width="0.5" stroke="black" fill="green"/>
  <circle cx="398.301" cy="454.65" r="5.05167" stroke-width="0.5" stroke="black" fill="green"/>
   </g>
   <g id="cell35">
  <circle cx="548.08" cy="543.058" r="8.41271" stroke-width="0.5" stroke="black" fill="green"/>
  <circle cx="548.08" cy="543.058" r="5.05167" stroke-width="0.5" stroke="black" fill="green"/>
   </g>
   <g id="cell36">
  <circle cx="388.918" cy="579.437" r="8.41271" stroke-width="0.5" stroke="black" fill="green"/>
  <circle cx="388.918" cy="579.437" r="5.05167" stroke-width="0.5" stroke="black" fill="green"/>
   </g>
   <g id="cell37">
  <circle cx="634.871" cy="460.618" r="8.41271" stroke-width="0.5" stroke="black" fill="green"/>
  <circle cx="634.871" cy="460.618" r="5.05167" stroke-width="0.5" stroke="black" fill="green"/>
   </g>
   <g id="cell38">
  <circle cx="538.197" cy="613.583" r="8.37092" stroke-width="0.5" stroke="black" fill="green"/>
  <circle cx="538.197" cy="613.583" r="5.03613" stroke-width="0.5" stroke="black" fill="green"/>
   </g>
   <g id="cell39">
  <circle cx="613.369" cy="488.154" r="8.41271" stroke-width="0.5" stroke="black" fill="green"/>
  <circle cx="613.369" cy="488.154" r="5.05167" stroke-width="0.5" stroke="black" fill="green"/>
   </g>
   <g id="cell40">
  <circle cx="482.324" cy="566.669" r="8.32291" stroke-width="0.5" stroke="black" fill="green"/>
  <circle cx="482.324" cy="566.669" r="5.01502" stroke-width="0.5" stroke="black" fill="green"/>
   </g>
   <g id="cell41">
  <circle cx="364.751" cy="480.251" r="8.41271" stroke-width="0.5" stroke="black" fill="green"/>
  <circle cx="364.751" cy="480.251" r="5.05167" stroke-width="0.5" stroke="black" fill="green"/>
   </g>
   <g id="cell42">
  <circle cx="438.842" cy="494.268" r="8.41271" stroke-width="0.5" stroke="black" fill="green"/>
  <circle cx="438.842" cy="494.268" r="5.05167" stroke-width="0.5" stroke="black" fill="green"/>
   </g>
   <g id="cell43">
  <circle cx="560.309" cy="445.1" r="8.41271" stroke-width="0.5" stroke="black" fill="green"/>
  <circle cx="560.309" cy="445.1" r="5.05167" stroke-width="0.5" stroke="black" fill="green"/>
   </g>
   <g id="cell44">
  <circle cx="476.013" cy="623.877" r="8.41271" stroke-width="0.5" stroke="black" fill="green"/>
  <circle cx="476.013" cy="623.877" r="5.05167" stroke-width="0.5" stroke="black" fill="green"/>
   </g>
   <g id="cell45">
  <circle cx="415.239" cy="557.793" r="8.41271" stroke-width="0.5" stroke="black" fill="green"/>
  <circle cx="415.239" cy="557.793" r="5.05167" stroke-width="0.5" stroke="black" fill="green"/>
   </g>
   <g id="cell46">
  <circle cx="522.335" cy="611.553" r="8.41271" stroke-width="0.5" stroke="black" fill="green"/>
  <circle cx="522.335" cy="611.553" r="5.05167" stroke-width="0.5" stroke="black" fill="green"/>
   </g>
   <g id="cell47">
  <circle cx="490.404" cy="505.059" r="6.66254" stroke-width="0.5" stroke="black" fill="green"/>
  <circle cx="490.404" cy="505.059" r="4.00935" stroke-width="0.5" stroke="black" fill="green"/>
   </g>
   <g id="cell48">
  <circle cx="564.143" cy="603.12" r="8.41271" stroke-width="0.5" stroke="black" fill="green"/>
  <circle cx="564.143" cy="603.12" r="5.05167" stroke-width="0.5" stroke="black" fill="green"/>
   </g>
   <g id="cell49">
  <circle cx="429.047" cy="392.385" r="8.41271" stroke-width="0.5" stroke="black" fill="green"/>
  <circle cx="429.047" cy="392.385" r="5.05167" stroke-width="0.5" stroke="black" fill="green"/>
   </g>
   <g id="cell50">
  <circle cx="521.2" cy="517.529" r="8.41271" stroke-width="0.5" stroke="black" fill="cyan"/>
  <circle cx="521.2" cy="517.529" r="5.05167" stroke-width="0.5" stroke="black" fill="cyan"/>
   </g>
   <g id="cell51">
  <circle cx="414.74" cy="594.269" r="7.60147" stroke-width="0.5" stroke="black" fill="cyan"/>
  <circle cx="414.74" cy="594.269" r="4.62665" stroke-width="0.5" stroke="black" fill="cyan"/>
   </g>
   <g id="cell52">
  <circle cx="520.167" cy="429.214" r="8.41271" stroke-width="0.5" stroke="black" fill="cyan"/>
  <circle cx="520.167" cy="429.214" r="5.05167" stroke-width="0.5" stroke="black" fill="cyan"/>
   </g>
   <g id="cell53">
  <circle cx="575.134" cy="439.986" r="8.09544" stroke-width="0.5" stroke="black" fill="cyan"/>
  <circle cx="575.134" cy="439.986" r="4.90058" stroke-width="0.5" stroke="black" fill="cyan"/>
   </g>
   <g id="cell54">
  <circle cx="478.152" cy="424.167" r="8.41271" stroke-width="0.5" stroke="black" fill="cyan"/>
  <circle cx="478.152" cy="424.167" r="5.05167" stroke-width="0.5" stroke="black" fill="cyan"/>
   </g>
   <g id="cell55">
  <circle cx="530.818" cy="467.217" r="8.07654" stroke-width="0.5" stroke="black" fill="cyan"/>
  <circle cx="530.818" cy="467.217" r="4.89046" stroke-width="0.5" stroke="black" fill="cyan"/>
   </g>
   <g id="cell56">
  <circle cx="629.221" cy="521.775" r="8.18177" stroke-width="0.5" stroke="black" fill="cyan"/>
  <circle cx="629.221" cy="521.775" r="4.94584" stroke-width="0.5" stroke="black" fill="cyan"/>
   </g>
   <g id="cell57">
  <circle cx="416.924" cy="617.466" r="8.41271" stroke-width="0.5" stroke="black" fill="cyan"/>
  <circle cx="416.924" cy="617.466" r="5.05167" stroke-width="0.5" stroke="black" fill="cyan"/>
   </g>
   <g id="cell58">
  <circle cx="550.098" cy="480.318" r="8.41271" stroke-width="0.5" stroke="black" fill="cyan"/>
  <circle cx="550.098" cy="480.318" r="5.05167" stroke-width="0.5" stroke="black" fill="cyan"/>
   </g>
   <g id="cell59">
  <circle cx="385.001" cy="432.808" r="6.95587" stroke-width="0.5" stroke="black" fill="cyan"/>
  <circle cx="385.001" cy="432.808" r="4.26533" stroke-width="0.5" stroke="black" fill="cyan"/>
   </g>
   <g id="cell60">
  <circle cx="606.659" cy="473.705" r="8.34117" stroke-width="0.5" stroke="black" fill="cyan"/>
  <circle cx="606.659" cy="473.705" r="5.02327" stroke-width="0.5" stroke="black" fill="cyan"/>
   </g>
   <g id="cell121">
  <circle cx="450.981" cy="464.08" r="7.03582" stroke-width="0.5" stroke="black" fill="cyan"/>
  <circle cx="450.981" cy="464.08" r="4.30884" stroke-width="0.5" stroke="black" fill="cyan"/>
   </g>
   <g id="cell62">
  <circle cx="518.789" cy="445.705" r="8.09544" stroke-width="0.5" stroke="black" fill="cyan"/>
  <circle cx="518.789" cy="445.705" r="4.90058" stroke-width="0.5" stroke="black" fill="cyan"/>
   </g>
   <g id="cell63">
  <circle cx="577.409" cy="546.558" r="8.41271" stroke-width="0.5" stroke="black" fill="cyan"/>
  <circle cx="577.409" cy="546.558" r="5.05167" stroke-width="0.5" stroke="black" fill="cyan"/>
   </g>
   <g id="cell64">
  <circle cx="509.962" cy="636.825" r="8.41271" stroke-width="0.5" stroke="black" fill="cyan"/>
  <circle cx="509.962" cy="636.825" r="5.05167" stroke-width="0.5" stroke="black" fill="cyan"/>
   </g>
   <g id="cell65">
  <circle cx="546.069" cy="465.106" r="8.41271" stroke-width="0.5" stroke="black" fill="cyan"/>
  <circle cx="546.069" cy="465.106" r="5.05167" stroke-width="0.5" stroke="black" fill="cyan"/>
   </g>
   <g id="cell66">
  <circle cx="537.658" cy="530.883" r="8.41271" stroke-width="0.5" stroke="black" fill="cyan"/>
  <circle cx="537.658" cy="530.883" r="5.05167" stroke-width="0.5" stroke="black" fill="cyan"/>
   </g>
   <g id="cell67">
  <circle cx="354.64" cy="492.683" r="8.41271" stroke-width="0.5" stroke="black" fill="cyan"/>
  <circle cx="354.64" cy="492.683" r="5.05167" stroke-width="0.5" stroke="black" fill="cyan"/>
   </g>
   <g id="cell68">
  <circle cx="562.008" cy="550.983" r="8.41271" stroke-width="0.5" stroke="black" fill="cyan"/>
  <circle cx="562.008" cy="550.983" r="5.05167" stroke-width="0.5" stroke="black" fill="cyan"/>
   </g>
   <g id="cell69">
  <circle cx="440.608" cy="455.629" r="7.03582" stroke-width="0.5" stroke="black" fill="cyan"/>
  <circle cx="440.608" cy="455.629" r="4.30884" stroke-width="0.5" stroke="black" fill="cyan"/>
   </g>
   <g id="cell70">
  <circle cx="577.695" cy="477.576" r="8.24438" stroke-width="0.5" stroke="black" fill="cyan"/>
  <circle cx="577.695" cy="477.576" r="4.97746" stroke-width="0.5" stroke="black" fill="cyan"/>
   </g>
   <g id="cell71">
  <circle cx="377.712" cy="520.989" r="8.41271" stroke-width="0.5" stroke="black" fill="cyan"/>
  <circle cx="377.712" cy="520.989" r="5.05167" stroke-width="0.5" stroke="black" fill="cyan"/>
   </g>
   <g id="cell72">
  <circle cx="536.84" cy="514.872" r="8.41271" stroke-width="0.5" stroke="black" fill="cyan"/>
  <circle cx="536.84" cy="514.872" r="5.05167" stroke-width="0.5" stroke="black" fill="cyan"/>
   </g>
   <g id="cell73">
  <circle cx="355.172" cy="549.199" r="7.38822" stroke-width="0.5" stroke="black" fill="cyan"/>
  <circle cx="355.172" cy="549.199" r="4.51012" stroke-width="0.5" stroke="black" fill="cyan"/>
   </g>
   <g id="cell74">
  <circle cx="544.981" cy="449.502" r="8.41271" stroke-width="0.5" stroke="black" fill="cyan"/>
  <circle cx="544.981" cy="449.502" r="5.05167" stroke-width="0.5" stroke="black" fill="cyan"/>
   </g>
   <g id="cell75">
  <circle cx="589.922" cy="499.323" r="8.30282" stroke-width="0.5" stroke="black" fill="magenta"/>
  <circle cx="589.922" cy="499.323" r="5.00745" stroke-width="0.5" stroke="black" fill="magenta"/>
   </g>
   <g id="cell76">
  <circle cx="647.851" cy="540.268" r="8.37537" stroke-width="0.5" stroke="black" fill="green"/>
  <circle cx="647.851" cy="540.268" r="5.03798" stroke-width="0.5" stroke="black" fill="green"/>
   </g>
   <g id="cell77">
  <circle cx="509.573" cy="508.209" r="7.61372" stroke-width="0.5" stroke="black" fill="green"/>
  <circle cx="509.573" cy="508.209" r="4.63196" stroke-width="0.5" stroke="black" fill="green"/>
   </g>
   <g id="cell78">
  <circle cx="369.693" cy="570.254" r="8.25732" stroke-width="0.5" stroke="black" fill="magenta"/>
  <circle cx="369.693" cy="570.254" r="4.98625" stroke-width="0.5" stroke="black" fill="magenta"/>
   </g>
   <g id="cell79">
  <circle cx="535.358" cy="583.522" r="8.27047" stroke-width="0.5" stroke="black" fill="green"/>
  <circle cx="535.358" cy="583.522" r="4.9941" stroke-width="0.5" stroke="black" fill="green"/>
   </g>
   <g id="cell80">
  <circle cx="453.796" cy="606.276" r="8.36178" stroke-width="0.5" stroke="black" fill="magenta"/>
  <circle cx="453.796" cy="606.276" r="5.03227" stroke-width="0.5" stroke="black" fill="magenta"/>
   </g>
   <g id="cell81">
  <circle cx="393.897" cy="615.979" r="8.06386" stroke-width="0.5" stroke="black" fill="cyan"/>
  <circle cx="393.897" cy="615.979" r="4.8882" stroke-width="0.5" stroke="black" fill="cyan"/>
   </g>
   <g id="cell82">
  <circle cx="587.622" cy="465.806" r="8.13026" stroke-width="0.5" stroke="black" fill="cyan"/>
  <circle cx="587.622" cy="465.806" r="4.92366" stroke-width="0.5" stroke="black" fill="cyan"/>
   </g>
   <g id="cell83">
  <circle cx="541.566" cy="598.052" r="8.31996" stroke-width="0.5" stroke="black" fill="green"/>
  <circle cx="541.566" cy="598.052" r="5.01537" stroke-width="0.5" stroke="black" fill="green"/>
   </g>
   <g id="cell84">
  <circle cx="490.756" cy="580.083" r="8.32291" stroke-width="0.5" stroke="black" fill="green"/>
  <circle cx="490.756" cy="580.083" r="5.01502" stroke-width="0.5" stroke="black" fill="green"/>
   </g>
   <g id="cell85">
  <circle cx="605.6" cy="501.96" r="8.30282" stroke-width="0.5" stroke="black" fill="magenta"/>
  <circle cx="605.6" cy="501.96" r="5.00745" stroke-width="0.5" stroke="black" fill="magenta"/>
   </g>
   <g id="cell86">
  <circle cx="525.903" cy="596.089" r="8.27047" stroke-width="0.5" stroke="black" fill="green"/>
  <circle cx="525.903" cy="596.089" r="4.9941" stroke-width="0.5" stroke="black" fill="green"/>
   </g>
   <g id="cell87">
  <circle cx="590.644" cy="598.993" r="8.30618" stroke-width="0.5" stroke="black" fill="magenta"/>
  <circle cx="590.644" cy="598.993" r="5.00727" stroke-width="0.5" stroke="black" fill="magenta"/>
   </g>
   <g id="cell88">
  <circle cx="375.883" cy="555.833" r="7.31599" stroke-width="0.5" stroke="black" fill="magenta"/>
  <circle cx="375.883" cy="555.833" r="4.4642" stroke-width="0.5" stroke="black" fill="magenta"/>
   </g>
   <g id="cell89">
  <circle cx="546.349" cy="411.552" r="8.15577" stroke-width="0.5" stroke="black" fill="green"/>
  <circle cx="546.349" cy="411.552" r="4.93815" stroke-width="0.5" stroke="black" fill="green"/>
   </g>
   <g id="cell90">
  <circle cx="563.652" cy="475.436" r="7.03362" stroke-width="0.5" stroke="black" fill="cyan"/>
  <circle cx="563.652" cy="475.436" r="4.28775" stroke-width="0.5" stroke="black" fill="cyan"/>
   </g>
   <g id="cell91">
  <circle cx="541.375" cy="396.847" r="8.15577" stroke-width="0.5" stroke="black" fill="green"/>
  <circle cx="541.375" cy="396.847" r="4.93815" stroke-width="0.5" stroke="black" fill="green"/>
   </g>
   <g id="cell92">
  <circle cx="641.58" cy="568.244" r="8.18732" stroke-width="0.5" stroke="black" fill="green"/>
  <circle cx="641.58" cy="568.244" r="4.95142" stroke-width="0.5" stroke="black" fill="green"/>
   </g>
   <g id="cell93">
  <circle cx="368.486" cy="542.95" r="8.20088" stroke-width="0.5" stroke="black" fill="cyan"/>
  <circle cx="368.486" cy="542.95" r="4.95562" stroke-width="0.5" stroke="black" fill="cyan"/>
   </g>
   <g id="cell94">
  <circle cx="613.807" cy="522.574" r="8.18177" stroke-width="0.5" stroke="black" fill="cyan"/>
  <circle cx="613.807" cy="522.574" r="4.94584" stroke-width="0.5" stroke="black" fill="cyan"/>
   </g>
   <g id="cell95">
  <circle cx="580.51" cy="587.093" r="8.11189" stroke-width="0.5" stroke="black" fill="magenta"/>
  <circle cx="580.51" cy="587.093" r="4.91524" stroke-width="0.5" stroke="black" fill="magenta"/>
   </g>
   <g id="cell96">
  <circle cx="592.718" cy="480.614" r="8.13026" stroke-width="0.5" stroke="black" fill="cyan"/>
  <circle cx="592.718" cy="480.614" r="4.92366" stroke-width="0.5" stroke="black" fill="cyan"/>
   </g>
   <g id="cell97">
  <circle cx="624.752" cy="547.629" r="8.02721" stroke-width="0.5" stroke="black" fill="green"/>
  <circle cx="624.752" cy="547.629" r="4.87431" stroke-width="0.5" stroke="black" fill="green"/>
   </g>
   <g id="cell98">
  <circle cx="599.873" cy="516.37" r="8.12768" stroke-width="0.5" stroke="black" fill="magenta"/>
  <circle cx="599.873" cy="516.37" r="4.92055" stroke-width="0.5" stroke="black" fill="magenta"/>
   </g>
   <g id="cell99">
  <circle cx="563.642" cy="429.722" r="8.09544" stroke-width="0.5" stroke="black" fill="cyan"/>
  <circle cx="563.642" cy="429.722" r="4.90058" stroke-width="0.5" stroke="black" fill="cyan"/>
   </g>
   <g id="cell100">
  <circle cx="378.067" cy="593.969" r="7.15951" stroke-width="0.5" stroke="black" fill="cyan"/>
  <circle cx="378.067" cy="593.969" r="4.39486" stroke-width="0.5" stroke="black" fill="cyan"/>
   </g>
   <g id="cell101">
  <circle cx="530.34" cy="438.703" r="6.46249" stroke-width="0.5" stroke="black" fill="cyan"/>
  <circle cx="530.34" cy="438.703" r="3.91582" stroke-width="0.5" stroke="black" fill="cyan"/>
   </g>
   <g id="cell102">
  <circle cx="516.053" cy="478.573" r="8.07654" stroke-width="0.5" stroke="black" fill="cyan"/>
  <circle cx="516.053" cy="478.573" r="4.89046" stroke-width="0.5" stroke="black" fill="cyan"/>
   </g>
   <g id="cell103">
  <circle cx="458.41" cy="534.556" r="6.4807" stroke-width="0.5" stroke="black" fill="magenta"/>
  <circle cx="458.41" cy="534.556" r="3.93499" stroke-width="0.5" stroke="black" fill="magenta"/>
   </g>
   <g id="cell104">
  <circle cx="400.933" cy="602.416" r="7.82394" stroke-width="0.5" stroke="black" fill="cyan"/>
  <circle cx="400.933" cy="602.416" r="4.7671" stroke-width="0.5" stroke="black" fill="cyan"/>
   </g>
   <g id="cell105">
  <circle cx="516.314" cy="463.383" r="7.98892" stroke-width="0.5" stroke="black" fill="magenta"/>
  <circle cx="516.314" cy="463.383" r="4.84272" stroke-width="0.5" stroke="black" fill="magenta"/>
   </g>
   <g id="cell106">
  <circle cx="432.99" cy="407.391" r="7.9229" stroke-width="0.5" stroke="black" fill="magenta"/>
  <circle cx="432.99" cy="407.391" r="4.80599" stroke-width="0.5" stroke="black" fill="magenta"/>
   </g>
   <g id="cell107">
  <circle cx="425.995" cy="465.769" r="6.90696" stroke-width="0.5" stroke="black" fill="cyan"/>
  <circle cx="425.995" cy="465.769" r="4.22941" stroke-width="0.5" stroke="black" fill="cyan"/>
   </g>
   <g id="cell108">
  <circle cx="523.36" cy="381.291" r="7.75912" stroke-width="0.5" stroke="black" fill="magenta"/>
  <circle cx="523.36" cy="381.291" r="4.71248" stroke-width="0.5" stroke="black" fill="magenta"/>
   </g>
   <g id="cell110">
  <circle cx="515.006" cy="399.243" r="7.25129" stroke-width="0.5" stroke="black" fill="magenta"/>
  <circle cx="515.006" cy="399.243" r="4.44064" stroke-width="0.5" stroke="black" fill="magenta"/>
   </g>
   <g id="cell111">
  <circle cx="516.842" cy="498.506" r="5.74047" stroke-width="0.5" stroke="black" fill="green"/>
  <circle cx="516.842" cy="498.506" r="3.54101" stroke-width="0.5" stroke="black" fill="green"/>
   </g>
   <g id="cell112">
  <circle cx="402.657" cy="586.59" r="7.60147" stroke-width="0.5" stroke="black" fill="cyan"/>
  <circle cx="402.657" cy="586.59" r="4.62665" stroke-width="0.5" stroke="black" fill="cyan"/>
   </g>
   <g id="cell113">
  <circle cx="341.334" cy="547.388" r="7.38822" stroke-width="0.5" stroke="black" fill="cyan"/>
  <circle cx="341.334" cy="547.388" r="4.51012" stroke-width="0.5" stroke="black" fill="cyan"/>
   </g>
   <g id="cell114">
  <circle cx="386.149" cy="604.528" r="6.74418" stroke-width="0.5" stroke="black" fill="cyan"/>
  <circle cx="386.149" cy="604.528" r="4.1614" stroke-width="0.5" stroke="black" fill="cyan"/>
   </g>
   <g id="cell115">
  <circle cx="391.06" cy="593.134" r="6.74418" stroke-width="0.5" stroke="black" fill="cyan"/>
  <circle cx="391.06" cy="593.134" r="4.1614" stroke-width="0.5" stroke="black" fill="cyan"/>
   </g>
   <g id="cell116">
  <circle cx="405.262" cy="546.502" r="7.44242" stroke-width="0.5" stroke="black" fill="green"/>
  <circle cx="405.262" cy="546.502" r="4.52373" stroke-width="0.5" stroke="black" fill="green"/>
   </g>
   <g id="cell117">
  <circle cx="383.096" cy="566.905" r="6.4504" stroke-width="0.5" stroke="black" fill="magenta"/>
  <circle cx="383.096" cy="566.905" r="3.96892" stroke-width="0.5" stroke="black" fill="magenta"/>
   </g>
   <g id="cell118">
  <circle cx="395.756" cy="440.343" r="6.95587" stroke-width="0.5" stroke="black" fill="cyan"/>
  <circle cx="395.756" cy="440.343" r="4.26533" stroke-width="0.5" stroke="black" fill="cyan"/>
   </g>
   <g id="cell119">
  <circle cx="574.36" cy="506.781" r="7.20487" stroke-width="0.5" stroke="black" fill="magenta"/>
  <circle cx="574.36" cy="506.781" r="4.40467" stroke-width="0.5" stroke="black" fill="magenta"/>
   </g>
   <g id="cell120">
  <circle cx="508.409" cy="490.391" r="6.88401" stroke-width="0.5" stroke="black" fill="green"/>
  <circle cx="508.409" cy="490.391" r="4.22528" stroke-width="0.5" stroke="black" fill="green"/>
   </g>
   <g id="cell122">
  <circle cx="438.676" cy="468.749" r="6.90696" stroke-width="0.5" stroke="black" fill="cyan"/>
  <circle cx="438.676" cy="468.749" r="4.22941" stroke-width="0.5" stroke="black" fill="cyan"/>
   </g>
   <g id="cell123">
  <circle cx="388.912" cy="556.368" r="6.4504" stroke-width="0.5" stroke="black" fill="magenta"/>
  <circle cx="388.912" cy="556.368" r="3.96892" stroke-width="0.5" stroke="black" fill="magenta"/>
   </g>
   <g id="cell125">
  <circle cx="529.916" cy="481.335" r="6.95901" stroke-width="0.5" stroke="black" fill="magenta"/>
  <circle cx="529.916" cy="481.335" r="4.21341" stroke-width="0.5" stroke="black" fill="magenta"/>
   </g>
   <g id="cell127">
  <circle cx="447.124" cy="530.168" r="6.4807" stroke-width="0.5" stroke="black" fill="magenta"/>
  <circle cx="447.124" cy="530.168" r="3.93499" stroke-width="0.5" stroke="black" fill="magenta"/>
   </g>
   <g id="cell128">
  <circle cx="541.986" cy="435.948" r="6.46249" stroke-width="0.5" stroke="black" fill="cyan"/>
  <circle cx="541.986" cy="435.948" r="3.91582" stroke-width="0.5" stroke="black" fill="cyan"/>
   </g>
   <g id="cell129">
  <circle cx="498.349" cy="514.722" r="6.66254" stroke-width="0.5" stroke="black" fill="green"/>
  <circle cx="498.349" cy="514.722" r="4.00935" stroke-width="0.5" stroke="black" fill="green"/>
   </g>
  </g>
 </g>
  <rect x="775" y="1035" width="200" height="10" stroke-width="2" stroke="rgb(255,255,255)" fill="rgb(0,0,0)"/>
  <text x="781.25" y="1028.75"
   font-family="Arial" font-size="25" fill="black" >
   200 &#956;m
  </text>
  <text x="25" y="1045"
   font-family="Arial" font-size="18.75" fill="black" >
   0 days, 0 hours, 0 minutes, and 20.5709 seconds
  </text>
  <rect x="0" y="70" width="1000" height="1000" stroke-width="2" stroke="rgb(0,0,0)" fill="none"/>
</svg>
