<?xml version="1.0" encoding="UTF-8" standalone="no"?>
<!-- Created with PhysiCell (http://PhysiCell.MathCancer.org/) -->
<svg 
 xmlns:dc="http://purl.org/dc/elements/1.1/" 
 xmlns:cc="http://creativecommons.org/ns#" 
 xmlns:rdf="http://www.w3.org/1999/02/22-rdf-syntax-ns#" 
 xmlns:svg="http://www.w3.org/2000/svg" 
 xmlns="http://www.w3.org/2000/svg" 
 version="1.1" 
 width="1000" 
 height="1070" 
 id="svg2">
  <rect x="0" y="0" width="1000" height="1070" stroke-width="2" stroke="white" fill="white"/>
  <text x="12.5" y="30"
   font-family="Arial" font-size="25" fill="black" >
   Current time: 0 days, 19 hours, and 0.00 minutes, z = 0.00 &#956;m
  </text>
  <text x="12.5" y="57.5"
   font-family="Arial" font-size="23.75" fill="black" >
   137 agents
  </text>
 <g id="tissue" 
    transform="translate(0,1070) scale(1,-1)">
  <g id="ECM">
  </g>
  <g id="cells">
   <g id="cell0">
  <circle cx="513.606" cy="530.823" r="8.41271" stroke-width="0.5" stroke="black" fill="magenta"/>
  <circle cx="513.606" cy="530.823" r="5.05167" stroke-width="0.5" stroke="black" fill="magenta"/>
   </g>
   <g id="cell1">
  <circle cx="601.257" cy="532.403" r="8.41271" stroke-width="0.5" stroke="black" fill="magenta"/>
  <circle cx="601.257" cy="532.403" r="5.05167" stroke-width="0.5" stroke="black" fill="magenta"/>
   </g>
   <g id="cell2">
  <circle cx="508.626" cy="601.666" r="8.41271" stroke-width="0.5" stroke="black" fill="magenta"/>
  <circle cx="508.626" cy="601.666" r="5.05167" stroke-width="0.5" stroke="black" fill="magenta"/>
   </g>
   <g id="cell3">
  <circle cx="533.014" cy="543.811" r="8.41271" stroke-width="0.5" stroke="black" fill="magenta"/>
  <circle cx="533.014" cy="543.811" r="5.05167" stroke-width="0.5" stroke="black" fill="magenta"/>
   </g>
   <g id="cell4">
  <circle cx="481.375" cy="439.864" r="8.41271" stroke-width="0.5" stroke="black" fill="magenta"/>
  <circle cx="481.375" cy="439.864" r="5.05167" stroke-width="0.5" stroke="black" fill="magenta"/>
   </g>
   <g id="cell5">
  <circle cx="465.032" cy="493.3" r="8.41271" stroke-width="0.5" stroke="black" fill="magenta"/>
  <circle cx="465.032" cy="493.3" r="5.05167" stroke-width="0.5" stroke="black" fill="magenta"/>
   </g>
   <g id="cell6">
  <circle cx="585.6" cy="514.309" r="8.03737" stroke-width="0.5" stroke="black" fill="magenta"/>
  <circle cx="585.6" cy="514.309" r="4.8759" stroke-width="0.5" stroke="black" fill="magenta"/>
   </g>
   <g id="cell7">
  <circle cx="500.864" cy="460.07" r="3.40183" stroke-width="0.5" stroke="black" fill="magenta"/>
  <circle cx="500.864" cy="460.07" r="2.63092" stroke-width="0.5" stroke="black" fill="black"/>
   </g>
   <g id="cell8">
  <circle cx="383.545" cy="540.691" r="8.41271" stroke-width="0.5" stroke="black" fill="magenta"/>
  <circle cx="383.545" cy="540.691" r="5.05167" stroke-width="0.5" stroke="black" fill="magenta"/>
   </g>
   <g id="cell9">
  <circle cx="465.239" cy="595.153" r="8.39618" stroke-width="0.5" stroke="black" fill="magenta"/>
  <circle cx="465.239" cy="595.153" r="5.04616" stroke-width="0.5" stroke="black" fill="magenta"/>
   </g>
   <g id="cell10">
  <circle cx="583.447" cy="392.105" r="8.41271" stroke-width="0.5" stroke="black" fill="magenta"/>
  <circle cx="583.447" cy="392.105" r="5.05167" stroke-width="0.5" stroke="black" fill="magenta"/>
   </g>
   <g id="cell11">
  <circle cx="595.855" cy="584.091" r="8.31737" stroke-width="0.5" stroke="black" fill="magenta"/>
  <circle cx="595.855" cy="584.091" r="5.01407" stroke-width="0.5" stroke="black" fill="magenta"/>
   </g>
   <g id="cell12">
  <circle cx="505.829" cy="585.876" r="8.41271" stroke-width="0.5" stroke="black" fill="magenta"/>
  <circle cx="505.829" cy="585.876" r="5.05167" stroke-width="0.5" stroke="black" fill="magenta"/>
   </g>
   <g id="cell13">
  <circle cx="398.533" cy="567.855" r="8.39913" stroke-width="0.5" stroke="black" fill="magenta"/>
  <circle cx="398.533" cy="567.855" r="5.04725" stroke-width="0.5" stroke="black" fill="magenta"/>
   </g>
   <g id="cell109">
  <circle cx="375.218" cy="443.756" r="8.18177" stroke-width="0.5" stroke="black" fill="cyan"/>
  <circle cx="375.218" cy="443.756" r="4.94584" stroke-width="0.5" stroke="black" fill="cyan"/>
   </g>
   <g id="cell15">
  <circle cx="379.896" cy="475.017" r="8.41271" stroke-width="0.5" stroke="black" fill="magenta"/>
  <circle cx="379.896" cy="475.017" r="5.05167" stroke-width="0.5" stroke="black" fill="magenta"/>
   </g>
   <g id="cell16">
  <circle cx="421.611" cy="426.809" r="7.01064" stroke-width="0.5" stroke="black" fill="magenta"/>
  <circle cx="421.611" cy="426.809" r="4.2716" stroke-width="0.5" stroke="black" fill="magenta"/>
   </g>
   <g id="cell17">
  <circle cx="573.362" cy="492.35" r="8.41271" stroke-width="0.5" stroke="black" fill="magenta"/>
  <circle cx="573.362" cy="492.35" r="5.05167" stroke-width="0.5" stroke="black" fill="magenta"/>
   </g>
   <g id="cell18">
  <circle cx="509.194" cy="385.881" r="8.06013" stroke-width="0.5" stroke="black" fill="magenta"/>
  <circle cx="509.194" cy="385.881" r="4.88992" stroke-width="0.5" stroke="black" fill="magenta"/>
   </g>
   <g id="cell19">
  <circle cx="453.868" cy="553.525" r="8.29993" stroke-width="0.5" stroke="black" fill="magenta"/>
  <circle cx="453.868" cy="553.525" r="5.00433" stroke-width="0.5" stroke="black" fill="magenta"/>
   </g>
   <g id="cell20">
  <circle cx="531.746" cy="418.931" r="8.41271" stroke-width="0.5" stroke="black" fill="magenta"/>
  <circle cx="531.746" cy="418.931" r="5.05167" stroke-width="0.5" stroke="black" fill="magenta"/>
   </g>
   <g id="cell21">
  <circle cx="464.212" cy="634.718" r="8.41271" stroke-width="0.5" stroke="black" fill="magenta"/>
  <circle cx="464.212" cy="634.718" r="5.05167" stroke-width="0.5" stroke="black" fill="magenta"/>
   </g>
   <g id="cell22">
  <circle cx="557.013" cy="494.257" r="8.41271" stroke-width="0.5" stroke="black" fill="magenta"/>
  <circle cx="557.013" cy="494.257" r="5.05167" stroke-width="0.5" stroke="black" fill="magenta"/>
   </g>
   <g id="cell23">
  <circle cx="541.477" cy="493.866" r="7.9229" stroke-width="0.5" stroke="black" fill="magenta"/>
  <circle cx="541.477" cy="493.866" r="4.80599" stroke-width="0.5" stroke="black" fill="magenta"/>
   </g>
   <g id="cell124">
  <circle cx="557.661" cy="456.727" r="6.74328" stroke-width="0.5" stroke="black" fill="cyan"/>
  <circle cx="557.661" cy="456.727" r="4.12547" stroke-width="0.5" stroke="black" fill="cyan"/>
   </g>
   <g id="cell25">
  <circle cx="639.102" cy="553.08" r="8.29136" stroke-width="0.5" stroke="black" fill="green"/>
  <circle cx="639.102" cy="553.08" r="5.00314" stroke-width="0.5" stroke="black" fill="green"/>
   </g>
   <g id="cell26">
  <circle cx="556.712" cy="400.068" r="8.36722" stroke-width="0.5" stroke="black" fill="green"/>
  <circle cx="556.712" cy="400.068" r="5.03458" stroke-width="0.5" stroke="black" fill="green"/>
   </g>
   <g id="cell27">
  <circle cx="457.446" cy="388.678" r="8.41271" stroke-width="0.5" stroke="black" fill="green"/>
  <circle cx="457.446" cy="388.678" r="5.05167" stroke-width="0.5" stroke="black" fill="green"/>
   </g>
   <g id="cell28">
  <circle cx="427.703" cy="527.731" r="8.41271" stroke-width="0.5" stroke="black" fill="green"/>
  <circle cx="427.703" cy="527.731" r="5.05167" stroke-width="0.5" stroke="black" fill="green"/>
   </g>
   <g id="cell29">
  <circle cx="444.137" cy="509.384" r="7.27253" stroke-width="0.5" stroke="black" fill="green"/>
  <circle cx="444.137" cy="509.384" r="4.41835" stroke-width="0.5" stroke="black" fill="green"/>
   </g>
   <g id="cell126">
  <circle cx="529.928" cy="502.781" r="7.62167" stroke-width="0.5" stroke="black" fill="green"/>
  <circle cx="529.928" cy="502.781" r="4.65897" stroke-width="0.5" stroke="black" fill="green"/>
   </g>
   <g id="cell31">
  <circle cx="416.454" cy="538.542" r="8.10448" stroke-width="0.5" stroke="black" fill="green"/>
  <circle cx="416.454" cy="538.542" r="4.90539" stroke-width="0.5" stroke="black" fill="green"/>
   </g>
   <g id="cell32">
  <circle cx="421.443" cy="479.997" r="8.41271" stroke-width="0.5" stroke="black" fill="green"/>
  <circle cx="421.443" cy="479.997" r="5.05167" stroke-width="0.5" stroke="black" fill="green"/>
   </g>
   <g id="cell33">
  <circle cx="494.145" cy="423.184" r="8.41271" stroke-width="0.5" stroke="black" fill="green"/>
  <circle cx="494.145" cy="423.184" r="5.05167" stroke-width="0.5" stroke="black" fill="green"/>
   </g>
   <g id="cell34">
  <circle cx="393.573" cy="453.61" r="7.56839" stroke-width="0.5" stroke="black" fill="green"/>
  <circle cx="393.573" cy="453.61" r="4.59998" stroke-width="0.5" stroke="black" fill="green"/>
   </g>
   <g id="cell35">
  <circle cx="548.544" cy="547.551" r="8.41271" stroke-width="0.5" stroke="black" fill="green"/>
  <circle cx="548.544" cy="547.551" r="5.05167" stroke-width="0.5" stroke="black" fill="green"/>
   </g>
   <g id="cell36">
  <circle cx="388.942" cy="580.648" r="8.41271" stroke-width="0.5" stroke="black" fill="green"/>
  <circle cx="388.942" cy="580.648" r="5.05167" stroke-width="0.5" stroke="black" fill="green"/>
   </g>
   <g id="cell37">
  <circle cx="634.871" cy="460.618" r="8.41271" stroke-width="0.5" stroke="black" fill="green"/>
  <circle cx="634.871" cy="460.618" r="5.05167" stroke-width="0.5" stroke="black" fill="green"/>
   </g>
   <g id="cell38">
  <circle cx="542.093" cy="612.251" r="7.20265" stroke-width="0.5" stroke="black" fill="green"/>
  <circle cx="542.093" cy="612.251" r="4.37672" stroke-width="0.5" stroke="black" fill="green"/>
   </g>
   <g id="cell39">
  <circle cx="613.675" cy="487.796" r="8.41271" stroke-width="0.5" stroke="black" fill="green"/>
  <circle cx="613.675" cy="487.796" r="5.05167" stroke-width="0.5" stroke="black" fill="green"/>
   </g>
   <g id="cell40">
  <circle cx="482.322" cy="566.666" r="8.38373" stroke-width="0.5" stroke="black" fill="green"/>
  <circle cx="482.322" cy="566.666" r="5.04136" stroke-width="0.5" stroke="black" fill="green"/>
   </g>
   <g id="cell41">
  <circle cx="364.751" cy="480.251" r="8.41271" stroke-width="0.5" stroke="black" fill="green"/>
  <circle cx="364.751" cy="480.251" r="5.05167" stroke-width="0.5" stroke="black" fill="green"/>
   </g>
   <g id="cell42">
  <circle cx="439.145" cy="495.209" r="8.41271" stroke-width="0.5" stroke="black" fill="green"/>
  <circle cx="439.145" cy="495.209" r="5.05167" stroke-width="0.5" stroke="black" fill="green"/>
   </g>
   <g id="cell43">
  <circle cx="559.426" cy="442.763" r="8.41271" stroke-width="0.5" stroke="black" fill="green"/>
  <circle cx="559.426" cy="442.763" r="5.05167" stroke-width="0.5" stroke="black" fill="green"/>
   </g>
   <g id="cell44">
  <circle cx="476.013" cy="623.877" r="8.41271" stroke-width="0.5" stroke="black" fill="green"/>
  <circle cx="476.013" cy="623.877" r="5.05167" stroke-width="0.5" stroke="black" fill="green"/>
   </g>
   <g id="cell45">
  <circle cx="421.2" cy="560.61" r="7.38797" stroke-width="0.5" stroke="black" fill="green"/>
  <circle cx="421.2" cy="560.61" r="4.49029" stroke-width="0.5" stroke="black" fill="green"/>
   </g>
   <g id="cell46">
  <circle cx="519.945" cy="613.029" r="8.41271" stroke-width="0.5" stroke="black" fill="green"/>
  <circle cx="519.945" cy="613.029" r="5.05167" stroke-width="0.5" stroke="black" fill="green"/>
   </g>
   <g id="cell47">
  <circle cx="489.891" cy="504.164" r="7.75179" stroke-width="0.5" stroke="black" fill="green"/>
  <circle cx="489.891" cy="504.164" r="4.70999" stroke-width="0.5" stroke="black" fill="green"/>
   </g>
   <g id="cell48">
  <circle cx="564.056" cy="603.097" r="8.41271" stroke-width="0.5" stroke="black" fill="green"/>
  <circle cx="564.056" cy="603.097" r="5.05167" stroke-width="0.5" stroke="black" fill="green"/>
   </g>
   <g id="cell49">
  <circle cx="428.177" cy="390.252" r="8.41271" stroke-width="0.5" stroke="black" fill="green"/>
  <circle cx="428.177" cy="390.252" r="5.05167" stroke-width="0.5" stroke="black" fill="green"/>
   </g>
   <g id="cell50">
  <circle cx="521.514" cy="516.72" r="8.41271" stroke-width="0.5" stroke="black" fill="cyan"/>
  <circle cx="521.514" cy="516.72" r="5.05167" stroke-width="0.5" stroke="black" fill="cyan"/>
   </g>
   <g id="cell51">
  <circle cx="416.499" cy="594.962" r="8.15799" stroke-width="0.5" stroke="black" fill="cyan"/>
  <circle cx="416.499" cy="594.962" r="4.93531" stroke-width="0.5" stroke="black" fill="cyan"/>
   </g>
   <g id="cell52">
  <circle cx="520.185" cy="429.936" r="8.41271" stroke-width="0.5" stroke="black" fill="cyan"/>
  <circle cx="520.185" cy="429.936" r="5.05167" stroke-width="0.5" stroke="black" fill="cyan"/>
   </g>
   <g id="cell53">
  <circle cx="575.07" cy="439.725" r="8.31209" stroke-width="0.5" stroke="black" fill="cyan"/>
  <circle cx="575.07" cy="439.725" r="5.01002" stroke-width="0.5" stroke="black" fill="cyan"/>
   </g>
   <g id="cell54">
  <circle cx="478.151" cy="424.167" r="8.41271" stroke-width="0.5" stroke="black" fill="cyan"/>
  <circle cx="478.151" cy="424.167" r="5.05167" stroke-width="0.5" stroke="black" fill="cyan"/>
   </g>
   <g id="cell55">
  <circle cx="530.454" cy="465.954" r="8.30618" stroke-width="0.5" stroke="black" fill="cyan"/>
  <circle cx="530.454" cy="465.954" r="5.00727" stroke-width="0.5" stroke="black" fill="cyan"/>
   </g>
   <g id="cell56">
  <circle cx="630.432" cy="521.66" r="8.33911" stroke-width="0.5" stroke="black" fill="cyan"/>
  <circle cx="630.432" cy="521.66" r="5.02235" stroke-width="0.5" stroke="black" fill="cyan"/>
   </g>
   <g id="cell57">
  <circle cx="416.704" cy="617.242" r="8.41271" stroke-width="0.5" stroke="black" fill="cyan"/>
  <circle cx="416.704" cy="617.242" r="5.05167" stroke-width="0.5" stroke="black" fill="cyan"/>
   </g>
   <g id="cell58">
  <circle cx="548.641" cy="480.367" r="8.41271" stroke-width="0.5" stroke="black" fill="cyan"/>
  <circle cx="548.641" cy="480.367" r="5.05167" stroke-width="0.5" stroke="black" fill="cyan"/>
   </g>
   <g id="cell59">
  <circle cx="384.293" cy="431.365" r="7.97227" stroke-width="0.5" stroke="black" fill="cyan"/>
  <circle cx="384.293" cy="431.365" r="4.84399" stroke-width="0.5" stroke="black" fill="cyan"/>
   </g>
   <g id="cell60">
  <circle cx="607.336" cy="473.083" r="8.38957" stroke-width="0.5" stroke="black" fill="cyan"/>
  <circle cx="607.336" cy="473.083" r="5.04365" stroke-width="0.5" stroke="black" fill="cyan"/>
   </g>
   <g id="cell121">
  <circle cx="452.588" cy="463.802" r="7.99103" stroke-width="0.5" stroke="black" fill="cyan"/>
  <circle cx="452.588" cy="463.802" r="4.85283" stroke-width="0.5" stroke="black" fill="cyan"/>
   </g>
   <g id="cell62">
  <circle cx="517.254" cy="445.441" r="8.31209" stroke-width="0.5" stroke="black" fill="cyan"/>
  <circle cx="517.254" cy="445.441" r="5.01002" stroke-width="0.5" stroke="black" fill="cyan"/>
   </g>
   <g id="cell63">
  <circle cx="578.415" cy="546.188" r="8.41271" stroke-width="0.5" stroke="black" fill="cyan"/>
  <circle cx="578.415" cy="546.188" r="5.05167" stroke-width="0.5" stroke="black" fill="cyan"/>
   </g>
   <g id="cell64">
  <circle cx="509.962" cy="636.825" r="8.41271" stroke-width="0.5" stroke="black" fill="cyan"/>
  <circle cx="509.962" cy="636.825" r="5.05167" stroke-width="0.5" stroke="black" fill="cyan"/>
   </g>
   <g id="cell65">
  <circle cx="546.075" cy="464.769" r="8.41271" stroke-width="0.5" stroke="black" fill="cyan"/>
  <circle cx="546.075" cy="464.769" r="5.05167" stroke-width="0.5" stroke="black" fill="cyan"/>
   </g>
   <g id="cell66">
  <circle cx="530.292" cy="528.946" r="7.56839" stroke-width="0.5" stroke="black" fill="cyan"/>
  <circle cx="530.292" cy="528.946" r="4.59998" stroke-width="0.5" stroke="black" fill="cyan"/>
   </g>
   <g id="cell67">
  <circle cx="354.64" cy="492.683" r="8.41271" stroke-width="0.5" stroke="black" fill="cyan"/>
  <circle cx="354.64" cy="492.683" r="5.05167" stroke-width="0.5" stroke="black" fill="cyan"/>
   </g>
   <g id="cell68">
  <circle cx="563.712" cy="552.474" r="8.41271" stroke-width="0.5" stroke="black" fill="cyan"/>
  <circle cx="563.712" cy="552.474" r="5.05167" stroke-width="0.5" stroke="black" fill="cyan"/>
   </g>
   <g id="cell69">
  <circle cx="440.11" cy="455.078" r="7.99103" stroke-width="0.5" stroke="black" fill="cyan"/>
  <circle cx="440.11" cy="455.078" r="4.85283" stroke-width="0.5" stroke="black" fill="cyan"/>
   </g>
   <g id="cell70">
  <circle cx="578.516" cy="477.104" r="8.35882" stroke-width="0.5" stroke="black" fill="cyan"/>
  <circle cx="578.516" cy="477.104" r="5.031" stroke-width="0.5" stroke="black" fill="cyan"/>
   </g>
   <g id="cell71">
  <circle cx="377.714" cy="520.996" r="8.41271" stroke-width="0.5" stroke="black" fill="cyan"/>
  <circle cx="377.714" cy="520.996" r="5.05167" stroke-width="0.5" stroke="black" fill="cyan"/>
   </g>
   <g id="cell72">
  <circle cx="537.583" cy="515.66" r="8.41271" stroke-width="0.5" stroke="black" fill="cyan"/>
  <circle cx="537.583" cy="515.66" r="5.05167" stroke-width="0.5" stroke="black" fill="cyan"/>
   </g>
   <g id="cell73">
  <circle cx="355.053" cy="550.27" r="8.09402" stroke-width="0.5" stroke="black" fill="cyan"/>
  <circle cx="355.053" cy="550.27" r="4.9046" stroke-width="0.5" stroke="black" fill="cyan"/>
   </g>
   <g id="cell74">
  <circle cx="544.647" cy="448.872" r="8.41271" stroke-width="0.5" stroke="black" fill="cyan"/>
  <circle cx="544.647" cy="448.872" r="5.05167" stroke-width="0.5" stroke="black" fill="cyan"/>
   </g>
   <g id="cell75">
  <circle cx="588.883" cy="498.926" r="8.37729" stroke-width="0.5" stroke="black" fill="magenta"/>
  <circle cx="588.883" cy="498.926" r="5.03924" stroke-width="0.5" stroke="black" fill="magenta"/>
   </g>
   <g id="cell76">
  <circle cx="648.059" cy="539.965" r="8.40056" stroke-width="0.5" stroke="black" fill="green"/>
  <circle cx="648.059" cy="539.965" r="5.04776" stroke-width="0.5" stroke="black" fill="green"/>
   </g>
   <g id="cell77">
  <circle cx="507.905" cy="508.888" r="8.16144" stroke-width="0.5" stroke="black" fill="green"/>
  <circle cx="507.905" cy="508.888" r="4.9366" stroke-width="0.5" stroke="black" fill="green"/>
   </g>
   <g id="cell78">
  <circle cx="368.126" cy="568.17" r="8.36286" stroke-width="0.5" stroke="black" fill="magenta"/>
  <circle cx="368.126" cy="568.17" r="5.03339" stroke-width="0.5" stroke="black" fill="magenta"/>
   </g>
   <g id="cell79">
  <circle cx="538.179" cy="573.255" r="7.56381" stroke-width="0.5" stroke="black" fill="green"/>
  <circle cx="538.179" cy="573.255" r="4.60365" stroke-width="0.5" stroke="black" fill="green"/>
   </g>
   <g id="cell80">
  <circle cx="453.772" cy="606.299" r="8.39618" stroke-width="0.5" stroke="black" fill="magenta"/>
  <circle cx="453.772" cy="606.299" r="5.04616" stroke-width="0.5" stroke="black" fill="magenta"/>
   </g>
   <g id="cell81">
  <circle cx="395.068" cy="617.109" r="8.30236" stroke-width="0.5" stroke="black" fill="cyan"/>
  <circle cx="395.068" cy="617.109" r="5.00671" stroke-width="0.5" stroke="black" fill="cyan"/>
   </g>
   <g id="cell82">
  <circle cx="589.472" cy="465.772" r="8.32304" stroke-width="0.5" stroke="black" fill="cyan"/>
  <circle cx="589.472" cy="465.772" r="5.01633" stroke-width="0.5" stroke="black" fill="cyan"/>
   </g>
   <g id="cell83">
  <circle cx="545.169" cy="597.859" r="8.38274" stroke-width="0.5" stroke="black" fill="green"/>
  <circle cx="545.169" cy="597.859" r="5.04143" stroke-width="0.5" stroke="black" fill="green"/>
   </g>
   <g id="cell84">
  <circle cx="490.896" cy="580.137" r="8.38373" stroke-width="0.5" stroke="black" fill="green"/>
  <circle cx="490.896" cy="580.137" r="5.04136" stroke-width="0.5" stroke="black" fill="green"/>
   </g>
   <g id="cell85">
  <circle cx="604.857" cy="501.14" r="8.37729" stroke-width="0.5" stroke="black" fill="magenta"/>
  <circle cx="604.857" cy="501.14" r="5.03924" stroke-width="0.5" stroke="black" fill="magenta"/>
   </g>
   <g id="cell86">
  <circle cx="524.022" cy="597.671" r="8.36699" stroke-width="0.5" stroke="black" fill="green"/>
  <circle cx="524.022" cy="597.671" r="5.03553" stroke-width="0.5" stroke="black" fill="green"/>
   </g>
   <g id="cell87">
  <circle cx="590.668" cy="599.12" r="8.3784" stroke-width="0.5" stroke="black" fill="magenta"/>
  <circle cx="590.668" cy="599.12" r="5.03921" stroke-width="0.5" stroke="black" fill="magenta"/>
   </g>
   <g id="cell88">
  <circle cx="375.505" cy="554.118" r="8.06859" stroke-width="0.5" stroke="black" fill="magenta"/>
  <circle cx="375.505" cy="554.118" r="4.89059" stroke-width="0.5" stroke="black" fill="magenta"/>
   </g>
   <g id="cell89">
  <circle cx="545.979" cy="411.795" r="8.33104" stroke-width="0.5" stroke="black" fill="green"/>
  <circle cx="545.979" cy="411.795" r="5.02029" stroke-width="0.5" stroke="black" fill="green"/>
   </g>
   <g id="cell90">
  <circle cx="563.716" cy="480.408" r="7.9713" stroke-width="0.5" stroke="black" fill="cyan"/>
  <circle cx="563.716" cy="480.408" r="4.83781" stroke-width="0.5" stroke="black" fill="cyan"/>
   </g>
   <g id="cell91">
  <circle cx="541.178" cy="396.676" r="8.33104" stroke-width="0.5" stroke="black" fill="green"/>
  <circle cx="541.178" cy="396.676" r="5.02029" stroke-width="0.5" stroke="black" fill="green"/>
   </g>
   <g id="cell92">
  <circle cx="641.655" cy="568.695" r="8.34084" stroke-width="0.5" stroke="black" fill="green"/>
  <circle cx="641.655" cy="568.695" r="5.02387" stroke-width="0.5" stroke="black" fill="green"/>
   </g>
   <g id="cell93">
  <circle cx="367.528" cy="540.821" r="8.34511" stroke-width="0.5" stroke="black" fill="cyan"/>
  <circle cx="367.528" cy="540.821" r="5.02502" stroke-width="0.5" stroke="black" fill="cyan"/>
   </g>
   <g id="cell94">
  <circle cx="614.761" cy="523.891" r="8.33911" stroke-width="0.5" stroke="black" fill="cyan"/>
  <circle cx="614.761" cy="523.891" r="5.02235" stroke-width="0.5" stroke="black" fill="cyan"/>
   </g>
   <g id="cell95">
  <circle cx="580.3" cy="587.067" r="8.31737" stroke-width="0.5" stroke="black" fill="magenta"/>
  <circle cx="580.3" cy="587.067" r="5.01407" stroke-width="0.5" stroke="black" fill="magenta"/>
   </g>
   <g id="cell96">
  <circle cx="593.698" cy="481.183" r="8.32304" stroke-width="0.5" stroke="black" fill="cyan"/>
  <circle cx="593.698" cy="481.183" r="5.01633" stroke-width="0.5" stroke="black" fill="cyan"/>
   </g>
   <g id="cell97">
  <circle cx="624.354" cy="547.476" r="8.29136" stroke-width="0.5" stroke="black" fill="green"/>
  <circle cx="624.354" cy="547.476" r="5.00314" stroke-width="0.5" stroke="black" fill="green"/>
   </g>
   <g id="cell98">
  <circle cx="600.863" cy="516.485" r="8.32218" stroke-width="0.5" stroke="black" fill="magenta"/>
  <circle cx="600.863" cy="516.485" r="5.01546" stroke-width="0.5" stroke="black" fill="magenta"/>
   </g>
   <g id="cell99">
  <circle cx="564.411" cy="427.914" r="8.31209" stroke-width="0.5" stroke="black" fill="cyan"/>
  <circle cx="564.411" cy="427.914" r="5.01002" stroke-width="0.5" stroke="black" fill="cyan"/>
   </g>
   <g id="cell100">
  <circle cx="376.477" cy="593.821" r="8.03311" stroke-width="0.5" stroke="black" fill="cyan"/>
  <circle cx="376.477" cy="593.821" r="4.87795" stroke-width="0.5" stroke="black" fill="cyan"/>
   </g>
   <g id="cell101">
  <circle cx="531.594" cy="440.393" r="7.71903" stroke-width="0.5" stroke="black" fill="cyan"/>
  <circle cx="531.594" cy="440.393" r="4.69848" stroke-width="0.5" stroke="black" fill="cyan"/>
   </g>
   <g id="cell102">
  <circle cx="509.512" cy="474.182" r="7.37461" stroke-width="0.5" stroke="black" fill="cyan"/>
  <circle cx="509.512" cy="474.182" r="4.49469" stroke-width="0.5" stroke="black" fill="cyan"/>
   </g>
   <g id="cell103">
  <circle cx="466.093" cy="531.897" r="7.33768" stroke-width="0.5" stroke="black" fill="magenta"/>
  <circle cx="466.093" cy="531.897" r="4.49617" stroke-width="0.5" stroke="black" fill="magenta"/>
   </g>
   <g id="cell104">
  <circle cx="404.03" cy="604.185" r="8.22977" stroke-width="0.5" stroke="black" fill="cyan"/>
  <circle cx="404.03" cy="604.185" r="4.97479" stroke-width="0.5" stroke="black" fill="cyan"/>
   </g>
   <g id="cell105">
  <circle cx="515.679" cy="460.913" r="8.27885" stroke-width="0.5" stroke="black" fill="magenta"/>
  <circle cx="515.679" cy="460.913" r="4.99429" stroke-width="0.5" stroke="black" fill="magenta"/>
   </g>
   <g id="cell106">
  <circle cx="435.421" cy="404.302" r="8.25826" stroke-width="0.5" stroke="black" fill="magenta"/>
  <circle cx="435.421" cy="404.302" r="4.98429" stroke-width="0.5" stroke="black" fill="magenta"/>
   </g>
   <g id="cell107">
  <circle cx="424.797" cy="464.77" r="7.94887" stroke-width="0.5" stroke="black" fill="cyan"/>
  <circle cx="424.797" cy="464.77" r="4.83007" stroke-width="0.5" stroke="black" fill="cyan"/>
   </g>
   <g id="cell108">
  <circle cx="523.91" cy="381.097" r="8.20689" stroke-width="0.5" stroke="black" fill="magenta"/>
  <circle cx="523.91" cy="381.097" r="4.95867" stroke-width="0.5" stroke="black" fill="magenta"/>
   </g>
   <g id="cell110">
  <circle cx="515.294" cy="399.945" r="8.06013" stroke-width="0.5" stroke="black" fill="magenta"/>
  <circle cx="515.294" cy="399.945" r="4.88992" stroke-width="0.5" stroke="black" fill="magenta"/>
   </g>
   <g id="cell111">
  <circle cx="516.902" cy="497.31" r="7.62167" stroke-width="0.5" stroke="black" fill="green"/>
  <circle cx="516.902" cy="497.31" r="4.65897" stroke-width="0.5" stroke="black" fill="green"/>
   </g>
   <g id="cell112">
  <circle cx="403.6" cy="586.397" r="8.15799" stroke-width="0.5" stroke="black" fill="cyan"/>
  <circle cx="403.6" cy="586.397" r="4.93531" stroke-width="0.5" stroke="black" fill="cyan"/>
   </g>
   <g id="cell113">
  <circle cx="339.983" cy="547.161" r="8.09402" stroke-width="0.5" stroke="black" fill="cyan"/>
  <circle cx="339.983" cy="547.161" r="4.9046" stroke-width="0.5" stroke="black" fill="cyan"/>
   </g>
   <g id="cell114">
  <circle cx="382.781" cy="607.735" r="7.92235" stroke-width="0.5" stroke="black" fill="cyan"/>
  <circle cx="382.781" cy="607.735" r="4.82311" stroke-width="0.5" stroke="black" fill="cyan"/>
   </g>
   <g id="cell115">
  <circle cx="391.475" cy="595.641" r="7.92235" stroke-width="0.5" stroke="black" fill="cyan"/>
  <circle cx="391.475" cy="595.641" r="4.82311" stroke-width="0.5" stroke="black" fill="cyan"/>
   </g>
   <g id="cell116">
  <circle cx="401.7" cy="543.115" r="8.10448" stroke-width="0.5" stroke="black" fill="green"/>
  <circle cx="401.7" cy="543.115" r="4.90539" stroke-width="0.5" stroke="black" fill="green"/>
   </g>
   <g id="cell117">
  <circle cx="383.308" cy="566.659" r="7.82646" stroke-width="0.5" stroke="black" fill="magenta"/>
  <circle cx="383.308" cy="566.659" r="4.76836" stroke-width="0.5" stroke="black" fill="magenta"/>
   </g>
   <g id="cell118">
  <circle cx="397.182" cy="439.314" r="7.97227" stroke-width="0.5" stroke="black" fill="cyan"/>
  <circle cx="397.182" cy="439.314" r="4.84399" stroke-width="0.5" stroke="black" fill="cyan"/>
   </g>
   <g id="cell119">
  <circle cx="571.938" cy="507.764" r="8.03737" stroke-width="0.5" stroke="black" fill="magenta"/>
  <circle cx="571.938" cy="507.764" r="4.8759" stroke-width="0.5" stroke="black" fill="magenta"/>
   </g>
   <g id="cell120">
  <circle cx="505.576" cy="488.067" r="7.95195" stroke-width="0.5" stroke="black" fill="green"/>
  <circle cx="505.576" cy="488.067" r="4.83398" stroke-width="0.5" stroke="black" fill="green"/>
   </g>
   <g id="cell122">
  <circle cx="438.866" cy="470.188" r="7.94887" stroke-width="0.5" stroke="black" fill="cyan"/>
  <circle cx="438.866" cy="470.188" r="4.83007" stroke-width="0.5" stroke="black" fill="cyan"/>
   </g>
   <g id="cell123">
  <circle cx="391.119" cy="554.107" r="7.82646" stroke-width="0.5" stroke="black" fill="magenta"/>
  <circle cx="391.119" cy="554.107" r="4.76836" stroke-width="0.5" stroke="black" fill="magenta"/>
   </g>
   <g id="cell125">
  <circle cx="533.5" cy="481.028" r="7.9229" stroke-width="0.5" stroke="black" fill="magenta"/>
  <circle cx="533.5" cy="481.028" r="4.80599" stroke-width="0.5" stroke="black" fill="magenta"/>
   </g>
   <g id="cell127">
  <circle cx="442.431" cy="531.046" r="7.74811" stroke-width="0.5" stroke="black" fill="magenta"/>
  <circle cx="442.431" cy="531.046" r="4.71591" stroke-width="0.5" stroke="black" fill="magenta"/>
   </g>
   <g id="cell128">
  <circle cx="544.525" cy="433.539" r="7.71903" stroke-width="0.5" stroke="black" fill="cyan"/>
  <circle cx="544.525" cy="433.539" r="4.69848" stroke-width="0.5" stroke="black" fill="cyan"/>
   </g>
   <g id="cell129">
  <circle cx="495.846" cy="517.653" r="7.75179" stroke-width="0.5" stroke="black" fill="green"/>
  <circle cx="495.846" cy="517.653" r="4.70999" stroke-width="0.5" stroke="black" fill="green"/>
   </g>
   <g id="cell130">
  <circle cx="454.17" cy="538.831" r="7.33768" stroke-width="0.5" stroke="black" fill="magenta"/>
  <circle cx="454.17" cy="538.831" r="4.49617" stroke-width="0.5" stroke="black" fill="magenta"/>
   </g>
   <g id="cell131">
  <circle cx="534.633" cy="587.065" r="7.56381" stroke-width="0.5" stroke="black" fill="green"/>
  <circle cx="534.633" cy="587.065" r="4.60365" stroke-width="0.5" stroke="black" fill="green"/>
   </g>
   <g id="cell132">
  <circle cx="406.381" cy="460.105" r="7.56839" stroke-width="0.5" stroke="black" fill="green"/>
  <circle cx="406.381" cy="460.105" r="4.59998" stroke-width="0.5" stroke="black" fill="green"/>
   </g>
   <g id="cell133">
  <circle cx="543.996" cy="533.122" r="7.56839" stroke-width="0.5" stroke="black" fill="cyan"/>
  <circle cx="543.996" cy="533.122" r="4.59998" stroke-width="0.5" stroke="black" fill="cyan"/>
   </g>
   <g id="cell134">
  <circle cx="519.534" cy="483.63" r="7.37461" stroke-width="0.5" stroke="black" fill="cyan"/>
  <circle cx="519.534" cy="483.63" r="4.49469" stroke-width="0.5" stroke="black" fill="cyan"/>
   </g>
   <g id="cell135">
  <circle cx="407.905" cy="556.339" r="7.38797" stroke-width="0.5" stroke="black" fill="green"/>
  <circle cx="407.905" cy="556.339" r="4.49029" stroke-width="0.5" stroke="black" fill="green"/>
   </g>
   <g id="cell136">
  <circle cx="457.768" cy="512.199" r="6.10102" stroke-width="0.5" stroke="black" fill="green"/>
  <circle cx="457.768" cy="512.199" r="3.73522" stroke-width="0.5" stroke="black" fill="green"/>
   </g>
   <g id="cell137">
  <circle cx="532.105" cy="621.491" r="7.20265" stroke-width="0.5" stroke="black" fill="green"/>
  <circle cx="532.105" cy="621.491" r="4.37672" stroke-width="0.5" stroke="black" fill="green"/>
   </g>
   <g id="cell138">
  <circle cx="431.695" cy="418.228" r="7.01064" stroke-width="0.5" stroke="black" fill="magenta"/>
  <circle cx="431.695" cy="418.228" r="4.2716" stroke-width="0.5" stroke="black" fill="magenta"/>
   </g>
   <g id="cell139">
  <circle cx="565.362" cy="466.779" r="6.74328" stroke-width="0.5" stroke="black" fill="cyan"/>
  <circle cx="565.362" cy="466.779" r="4.12547" stroke-width="0.5" stroke="black" fill="cyan"/>
   </g>
   <g id="cell140">
  <circle cx="450.113" cy="520.636" r="6.10102" stroke-width="0.5" stroke="black" fill="green"/>
  <circle cx="450.113" cy="520.636" r="3.73522" stroke-width="0.5" stroke="black" fill="green"/>
   </g>
  </g>
 </g>
  <rect x="775" y="1035" width="200" height="10" stroke-width="2" stroke="rgb(255,255,255)" fill="rgb(0,0,0)"/>
  <text x="781.25" y="1028.75"
   font-family="Arial" font-size="25" fill="black" >
   200 &#956;m
  </text>
  <text x="25" y="1045"
   font-family="Arial" font-size="18.75" fill="black" >
   0 days, 0 hours, 0 minutes, and 25.9139 seconds
  </text>
  <rect x="0" y="70" width="1000" height="1000" stroke-width="2" stroke="rgb(0,0,0)" fill="none"/>
</svg>
