<?xml version="1.0" encoding="UTF-8" standalone="no"?>
<!-- Created with PhysiCell (http://PhysiCell.MathCancer.org/) -->
<svg 
 xmlns:dc="http://purl.org/dc/elements/1.1/" 
 xmlns:cc="http://creativecommons.org/ns#" 
 xmlns:rdf="http://www.w3.org/1999/02/22-rdf-syntax-ns#" 
 xmlns:svg="http://www.w3.org/2000/svg" 
 xmlns="http://www.w3.org/2000/svg" 
 version="1.1" 
 width="1000" 
 height="1070" 
 id="svg2">
  <rect x="0" y="0" width="1000" height="1070" stroke-width="2" stroke="white" fill="white"/>
  <text x="12.5" y="30"
   font-family="Arial" font-size="25" fill="black" >
   Current time: 1 days, 7 hours, and 0.00 minutes, z = 0.00 &#956;m
  </text>
  <text x="12.5" y="57.5"
   font-family="Arial" font-size="23.75" fill="black" >
   187 agents
  </text>
 <g id="tissue" 
    transform="translate(0,1070) scale(1,-1)">
  <g id="ECM">
  </g>
  <g id="cells">
   <g id="cell0">
  <circle cx="513.334" cy="533.354" r="8.41271" stroke-width="0.5" stroke="black" fill="magenta"/>
  <circle cx="513.334" cy="533.354" r="5.05167" stroke-width="0.5" stroke="black" fill="magenta"/>
   </g>
   <g id="cell1">
  <circle cx="603.992" cy="541.042" r="8.41271" stroke-width="0.5" stroke="black" fill="magenta"/>
  <circle cx="603.992" cy="541.042" r="5.05167" stroke-width="0.5" stroke="black" fill="magenta"/>
   </g>
   <g id="cell2">
  <circle cx="505.257" cy="599.601" r="8.41271" stroke-width="0.5" stroke="black" fill="magenta"/>
  <circle cx="505.257" cy="599.601" r="5.05167" stroke-width="0.5" stroke="black" fill="magenta"/>
   </g>
   <g id="cell3">
  <circle cx="524.097" cy="557.053" r="8.22925" stroke-width="0.5" stroke="black" fill="magenta"/>
  <circle cx="524.097" cy="557.053" r="4.96993" stroke-width="0.5" stroke="black" fill="magenta"/>
   </g>
   <g id="cell4">
  <circle cx="481.375" cy="439.863" r="8.41271" stroke-width="0.5" stroke="black" fill="magenta"/>
  <circle cx="481.375" cy="439.863" r="5.05167" stroke-width="0.5" stroke="black" fill="magenta"/>
   </g>
   <g id="cell5">
  <circle cx="464.859" cy="487.802" r="8.41271" stroke-width="0.5" stroke="black" fill="magenta"/>
  <circle cx="464.859" cy="487.802" r="5.05167" stroke-width="0.5" stroke="black" fill="magenta"/>
   </g>
   <g id="cell6">
  <circle cx="586.072" cy="518.044" r="8.40028" stroke-width="0.5" stroke="black" fill="magenta"/>
  <circle cx="586.072" cy="518.044" r="5.04779" stroke-width="0.5" stroke="black" fill="magenta"/>
   </g>
   <g id="cell171">
  <circle cx="583.518" cy="503.201" r="7.90782" stroke-width="0.5" stroke="black" fill="magenta"/>
  <circle cx="583.518" cy="503.201" r="4.79772" stroke-width="0.5" stroke="black" fill="magenta"/>
   </g>
   <g id="cell8">
  <circle cx="383.71" cy="527.55" r="8.29667" stroke-width="0.5" stroke="black" fill="magenta"/>
  <circle cx="383.71" cy="527.55" r="5.00279" stroke-width="0.5" stroke="black" fill="magenta"/>
   </g>
   <g id="cell9">
  <circle cx="464.605" cy="595.747" r="1.19178" stroke-width="0.5" stroke="black" fill="magenta"/>
  <circle cx="464.605" cy="595.747" r="1.18741" stroke-width="0.5" stroke="black" fill="black"/>
   </g>
   <g id="cell186">
  <circle cx="548.957" cy="432.968" r="6.9137" stroke-width="0.5" stroke="black" fill="cyan"/>
  <circle cx="548.957" cy="432.968" r="4.20311" stroke-width="0.5" stroke="black" fill="cyan"/>
   </g>
   <g id="cell11">
  <circle cx="597.485" cy="572.583" r="8.20516" stroke-width="0.5" stroke="black" fill="magenta"/>
  <circle cx="597.485" cy="572.583" r="4.95819" stroke-width="0.5" stroke="black" fill="magenta"/>
   </g>
   <g id="cell12">
  <circle cx="505.033" cy="583.684" r="8.41271" stroke-width="0.5" stroke="black" fill="magenta"/>
  <circle cx="505.033" cy="583.684" r="5.05167" stroke-width="0.5" stroke="black" fill="magenta"/>
   </g>
   <g id="cell13">
  <circle cx="394.272" cy="571.999" r="8.41223" stroke-width="0.5" stroke="black" fill="magenta"/>
  <circle cx="394.272" cy="571.999" r="5.05156" stroke-width="0.5" stroke="black" fill="magenta"/>
   </g>
   <g id="cell109">
  <circle cx="372.831" cy="442.869" r="8.40494" stroke-width="0.5" stroke="black" fill="cyan"/>
  <circle cx="372.831" cy="442.869" r="5.04929" stroke-width="0.5" stroke="black" fill="cyan"/>
   </g>
   <g id="cell15">
  <circle cx="379.833" cy="474.699" r="1.47065" stroke-width="0.5" stroke="black" fill="magenta"/>
  <circle cx="379.833" cy="474.699" r="1.45328" stroke-width="0.5" stroke="black" fill="black"/>
   </g>
   <g id="cell16">
  <circle cx="420.025" cy="428.055" r="8.36706" stroke-width="0.5" stroke="black" fill="magenta"/>
  <circle cx="420.025" cy="428.055" r="5.03485" stroke-width="0.5" stroke="black" fill="magenta"/>
   </g>
   <g id="cell17">
  <circle cx="568.863" cy="502.008" r="8.13813" stroke-width="0.5" stroke="black" fill="magenta"/>
  <circle cx="568.863" cy="502.008" r="4.92317" stroke-width="0.5" stroke="black" fill="magenta"/>
   </g>
   <g id="cell185">
  <circle cx="401.924" cy="545.197" r="6.48995" stroke-width="0.5" stroke="black" fill="green"/>
  <circle cx="401.924" cy="545.197" r="3.98288" stroke-width="0.5" stroke="black" fill="green"/>
   </g>
   <g id="cell19">
  <circle cx="450.101" cy="549.779" r="7.35738" stroke-width="0.5" stroke="black" fill="magenta"/>
  <circle cx="450.101" cy="549.779" r="4.47215" stroke-width="0.5" stroke="black" fill="magenta"/>
   </g>
   <g id="cell20">
  <circle cx="531.946" cy="420.714" r="8.41271" stroke-width="0.5" stroke="black" fill="magenta"/>
  <circle cx="531.946" cy="420.714" r="5.05167" stroke-width="0.5" stroke="black" fill="magenta"/>
   </g>
   <g id="cell21">
  <circle cx="463.672" cy="635.675" r="8.41271" stroke-width="0.5" stroke="black" fill="magenta"/>
  <circle cx="463.672" cy="635.675" r="5.05167" stroke-width="0.5" stroke="black" fill="magenta"/>
   </g>
   <g id="cell22">
  <circle cx="555.176" cy="495.857" r="8.41271" stroke-width="0.5" stroke="black" fill="magenta"/>
  <circle cx="555.176" cy="495.857" r="5.05167" stroke-width="0.5" stroke="black" fill="magenta"/>
   </g>
   <g id="cell23">
  <circle cx="551.885" cy="511.074" r="7.91968" stroke-width="0.5" stroke="black" fill="magenta"/>
  <circle cx="551.885" cy="511.074" r="4.81819" stroke-width="0.5" stroke="black" fill="magenta"/>
   </g>
   <g id="cell124">
  <circle cx="556.647" cy="457.263" r="8.35989" stroke-width="0.5" stroke="black" fill="cyan"/>
  <circle cx="556.647" cy="457.263" r="5.03222" stroke-width="0.5" stroke="black" fill="cyan"/>
   </g>
   <g id="cell25">
  <circle cx="636.623" cy="554.731" r="8.40853" stroke-width="0.5" stroke="black" fill="green"/>
  <circle cx="636.623" cy="554.731" r="5.05053" stroke-width="0.5" stroke="black" fill="green"/>
   </g>
   <g id="cell26">
  <circle cx="554.784" cy="399.619" r="8.41112" stroke-width="0.5" stroke="black" fill="green"/>
  <circle cx="554.784" cy="399.619" r="5.05126" stroke-width="0.5" stroke="black" fill="green"/>
   </g>
   <g id="cell27">
  <circle cx="457.446" cy="388.678" r="8.41271" stroke-width="0.5" stroke="black" fill="green"/>
  <circle cx="457.446" cy="388.678" r="5.05167" stroke-width="0.5" stroke="black" fill="green"/>
   </g>
   <g id="cell28">
  <circle cx="428.285" cy="522.676" r="8.41271" stroke-width="0.5" stroke="black" fill="green"/>
  <circle cx="428.285" cy="522.676" r="5.05167" stroke-width="0.5" stroke="black" fill="green"/>
   </g>
   <g id="cell29">
  <circle cx="440.095" cy="511.815" r="8.37537" stroke-width="0.5" stroke="black" fill="green"/>
  <circle cx="440.095" cy="511.815" r="5.03798" stroke-width="0.5" stroke="black" fill="green"/>
   </g>
   <g id="cell126">
  <circle cx="528.249" cy="506.77" r="8.38766" stroke-width="0.5" stroke="black" fill="green"/>
  <circle cx="528.249" cy="506.77" r="5.04343" stroke-width="0.5" stroke="black" fill="green"/>
   </g>
   <g id="cell31">
  <circle cx="417.973" cy="534.844" r="8.40244" stroke-width="0.5" stroke="black" fill="green"/>
  <circle cx="417.973" cy="534.844" r="5.04843" stroke-width="0.5" stroke="black" fill="green"/>
   </g>
   <g id="cell32">
  <circle cx="418.683" cy="487.641" r="8.30618" stroke-width="0.5" stroke="black" fill="green"/>
  <circle cx="418.683" cy="487.641" r="5.00727" stroke-width="0.5" stroke="black" fill="green"/>
   </g>
   <g id="cell33">
  <circle cx="494.145" cy="423.184" r="8.41271" stroke-width="0.5" stroke="black" fill="green"/>
  <circle cx="494.145" cy="423.184" r="5.05167" stroke-width="0.5" stroke="black" fill="green"/>
   </g>
   <g id="cell34">
  <circle cx="387.617" cy="448.131" r="8.21495" stroke-width="0.5" stroke="black" fill="green"/>
  <circle cx="387.617" cy="448.131" r="4.96483" stroke-width="0.5" stroke="black" fill="green"/>
   </g>
   <g id="cell35">
  <circle cx="546.302" cy="558.183" r="7.70049" stroke-width="0.5" stroke="black" fill="green"/>
  <circle cx="546.302" cy="558.183" r="4.67828" stroke-width="0.5" stroke="black" fill="green"/>
   </g>
   <g id="cell36">
  <circle cx="384.973" cy="584.415" r="8.41271" stroke-width="0.5" stroke="black" fill="green"/>
  <circle cx="384.973" cy="584.415" r="5.05167" stroke-width="0.5" stroke="black" fill="green"/>
   </g>
   <g id="cell37">
  <circle cx="634.871" cy="460.618" r="8.41271" stroke-width="0.5" stroke="black" fill="green"/>
  <circle cx="634.871" cy="460.618" r="5.05167" stroke-width="0.5" stroke="black" fill="green"/>
   </g>
   <g id="cell38">
  <circle cx="543.359" cy="613.549" r="8.37296" stroke-width="0.5" stroke="black" fill="green"/>
  <circle cx="543.359" cy="613.549" r="5.03702" stroke-width="0.5" stroke="black" fill="green"/>
   </g>
   <g id="cell39">
  <circle cx="620.133" cy="482.769" r="8.41271" stroke-width="0.5" stroke="black" fill="green"/>
  <circle cx="620.133" cy="482.769" r="5.05167" stroke-width="0.5" stroke="black" fill="green"/>
   </g>
   <g id="cell40">
  <circle cx="481.959" cy="566.043" r="8.41169" stroke-width="0.5" stroke="black" fill="green"/>
  <circle cx="481.959" cy="566.043" r="5.05142" stroke-width="0.5" stroke="black" fill="green"/>
   </g>
   <g id="cell41">
  <circle cx="365.092" cy="480.246" r="8.41271" stroke-width="0.5" stroke="black" fill="green"/>
  <circle cx="365.092" cy="480.246" r="5.05167" stroke-width="0.5" stroke="black" fill="green"/>
   </g>
   <g id="cell42">
  <circle cx="438.168" cy="495.719" r="8.41271" stroke-width="0.5" stroke="black" fill="green"/>
  <circle cx="438.168" cy="495.719" r="5.05167" stroke-width="0.5" stroke="black" fill="green"/>
   </g>
   <g id="cell43">
  <circle cx="560.217" cy="441.732" r="8.41271" stroke-width="0.5" stroke="black" fill="green"/>
  <circle cx="560.217" cy="441.732" r="5.05167" stroke-width="0.5" stroke="black" fill="green"/>
   </g>
   <g id="cell44">
  <circle cx="470.592" cy="621.424" r="8.22925" stroke-width="0.5" stroke="black" fill="green"/>
  <circle cx="470.592" cy="621.424" r="4.96993" stroke-width="0.5" stroke="black" fill="green"/>
   </g>
   <g id="cell45">
  <circle cx="431.555" cy="571.763" r="5.56114" stroke-width="0.5" stroke="black" fill="green"/>
  <circle cx="431.555" cy="571.763" r="3.37831" stroke-width="0.5" stroke="black" fill="green"/>
   </g>
   <g id="cell46">
  <circle cx="517.613" cy="626.02" r="7.61348" stroke-width="0.5" stroke="black" fill="green"/>
  <circle cx="517.613" cy="626.02" r="4.64837" stroke-width="0.5" stroke="black" fill="green"/>
   </g>
   <g id="cell47">
  <circle cx="489.023" cy="503.937" r="8.39121" stroke-width="0.5" stroke="black" fill="green"/>
  <circle cx="489.023" cy="503.937" r="5.04432" stroke-width="0.5" stroke="black" fill="green"/>
   </g>
   <g id="cell48">
  <circle cx="562.186" cy="602.5" r="8.41271" stroke-width="0.5" stroke="black" fill="green"/>
  <circle cx="562.186" cy="602.5" r="5.05167" stroke-width="0.5" stroke="black" fill="green"/>
   </g>
   <g id="cell49">
  <circle cx="431.171" cy="385.382" r="7.83019" stroke-width="0.5" stroke="black" fill="green"/>
  <circle cx="431.171" cy="385.382" r="4.75343" stroke-width="0.5" stroke="black" fill="green"/>
   </g>
   <g id="cell50">
  <circle cx="515.693" cy="515.744" r="1.50862" stroke-width="0.5" stroke="black" fill="cyan"/>
  <circle cx="515.693" cy="515.744" r="1.48821" stroke-width="0.5" stroke="black" fill="black"/>
   </g>
   <g id="cell51">
  <circle cx="418.929" cy="597.064" r="8.40416" stroke-width="0.5" stroke="black" fill="cyan"/>
  <circle cx="418.929" cy="597.064" r="5.04906" stroke-width="0.5" stroke="black" fill="cyan"/>
   </g>
   <g id="cell52">
  <circle cx="515.697" cy="419.842" r="8.41271" stroke-width="0.5" stroke="black" fill="cyan"/>
  <circle cx="515.697" cy="419.842" r="5.05167" stroke-width="0.5" stroke="black" fill="cyan"/>
   </g>
   <g id="cell53">
  <circle cx="578.416" cy="436.884" r="8.15169" stroke-width="0.5" stroke="black" fill="cyan"/>
  <circle cx="578.416" cy="436.884" r="4.93069" stroke-width="0.5" stroke="black" fill="cyan"/>
   </g>
   <g id="cell54">
  <circle cx="478.151" cy="424.167" r="8.41271" stroke-width="0.5" stroke="black" fill="cyan"/>
  <circle cx="478.151" cy="424.167" r="5.05167" stroke-width="0.5" stroke="black" fill="cyan"/>
   </g>
   <g id="cell55">
  <circle cx="524.865" cy="463.663" r="6.92494" stroke-width="0.5" stroke="black" fill="cyan"/>
  <circle cx="524.865" cy="463.663" r="4.19099" stroke-width="0.5" stroke="black" fill="cyan"/>
   </g>
   <g id="cell56">
  <circle cx="632.886" cy="521.525" r="8.41016" stroke-width="0.5" stroke="black" fill="cyan"/>
  <circle cx="632.886" cy="521.525" r="5.05098" stroke-width="0.5" stroke="black" fill="cyan"/>
   </g>
   <g id="cell57">
  <circle cx="418.61" cy="612.28" r="7.65871" stroke-width="0.5" stroke="black" fill="cyan"/>
  <circle cx="418.61" cy="612.28" r="4.6537" stroke-width="0.5" stroke="black" fill="cyan"/>
   </g>
   <g id="cell58">
  <circle cx="551.293" cy="480.036" r="1.60978" stroke-width="0.5" stroke="black" fill="cyan"/>
  <circle cx="551.293" cy="480.036" r="1.57926" stroke-width="0.5" stroke="black" fill="black"/>
   </g>
   <g id="cell59">
  <circle cx="384.335" cy="431.394" r="1.30706" stroke-width="0.5" stroke="black" fill="cyan"/>
  <circle cx="384.335" cy="431.394" r="1.29886" stroke-width="0.5" stroke="black" fill="black"/>
   </g>
   <g id="cell60">
  <circle cx="613.954" cy="468.349" r="8.41189" stroke-width="0.5" stroke="black" fill="cyan"/>
  <circle cx="613.954" cy="468.349" r="5.05147" stroke-width="0.5" stroke="black" fill="cyan"/>
   </g>
   <g id="cell121">
  <circle cx="452.405" cy="461.984" r="8.39883" stroke-width="0.5" stroke="black" fill="cyan"/>
  <circle cx="452.405" cy="461.984" r="5.04732" stroke-width="0.5" stroke="black" fill="cyan"/>
   </g>
   <g id="cell62">
  <circle cx="498.76" cy="451.847" r="8.31314" stroke-width="0.5" stroke="black" fill="cyan"/>
  <circle cx="498.76" cy="451.847" r="5.01083" stroke-width="0.5" stroke="black" fill="cyan"/>
   </g>
   <g id="cell63">
  <circle cx="580.304" cy="545.027" r="8.41271" stroke-width="0.5" stroke="black" fill="cyan"/>
  <circle cx="580.304" cy="545.027" r="5.05167" stroke-width="0.5" stroke="black" fill="cyan"/>
   </g>
   <g id="cell64">
  <circle cx="509.098" cy="638.681" r="8.41271" stroke-width="0.5" stroke="black" fill="cyan"/>
  <circle cx="509.098" cy="638.681" r="5.05167" stroke-width="0.5" stroke="black" fill="cyan"/>
   </g>
   <g id="cell65">
  <circle cx="543.87" cy="466.249" r="4.42406" stroke-width="0.5" stroke="black" fill="cyan"/>
  <circle cx="543.87" cy="466.249" r="3.07758" stroke-width="0.5" stroke="black" fill="black"/>
   </g>
   <g id="cell66">
  <circle cx="522.893" cy="521.179" r="7.94838" stroke-width="0.5" stroke="black" fill="cyan"/>
  <circle cx="522.893" cy="521.179" r="4.8232" stroke-width="0.5" stroke="black" fill="cyan"/>
   </g>
   <g id="cell67">
  <circle cx="354.782" cy="492.513" r="8.41271" stroke-width="0.5" stroke="black" fill="cyan"/>
  <circle cx="354.782" cy="492.513" r="5.05167" stroke-width="0.5" stroke="black" fill="cyan"/>
   </g>
   <g id="cell68">
  <circle cx="569.382" cy="556.729" r="8.41271" stroke-width="0.5" stroke="black" fill="cyan"/>
  <circle cx="569.382" cy="556.729" r="5.05167" stroke-width="0.5" stroke="black" fill="cyan"/>
   </g>
   <g id="cell69">
  <circle cx="442.791" cy="449.196" r="8.39883" stroke-width="0.5" stroke="black" fill="cyan"/>
  <circle cx="442.791" cy="449.196" r="5.04732" stroke-width="0.5" stroke="black" fill="cyan"/>
   </g>
   <g id="cell70">
  <circle cx="588.413" cy="478.028" r="8.09443" stroke-width="0.5" stroke="black" fill="cyan"/>
  <circle cx="588.413" cy="478.028" r="4.9003" stroke-width="0.5" stroke="black" fill="cyan"/>
   </g>
   <g id="cell71">
  <circle cx="374.493" cy="514.782" r="8.41271" stroke-width="0.5" stroke="black" fill="cyan"/>
  <circle cx="374.493" cy="514.782" r="5.05167" stroke-width="0.5" stroke="black" fill="cyan"/>
   </g>
   <g id="cell72">
  <circle cx="538.226" cy="518.214" r="8.41271" stroke-width="0.5" stroke="black" fill="cyan"/>
  <circle cx="538.226" cy="518.214" r="5.05167" stroke-width="0.5" stroke="black" fill="cyan"/>
   </g>
   <g id="cell73">
  <circle cx="354.873" cy="550.633" r="8.40209" stroke-width="0.5" stroke="black" fill="cyan"/>
  <circle cx="354.873" cy="550.633" r="5.0484" stroke-width="0.5" stroke="black" fill="cyan"/>
   </g>
   <g id="cell74">
  <circle cx="545.176" cy="446.579" r="8.41271" stroke-width="0.5" stroke="black" fill="cyan"/>
  <circle cx="545.176" cy="446.579" r="5.05167" stroke-width="0.5" stroke="black" fill="cyan"/>
   </g>
   <g id="cell75">
  <circle cx="592.679" cy="492.04" r="7.90782" stroke-width="0.5" stroke="black" fill="magenta"/>
  <circle cx="592.679" cy="492.04" r="4.79772" stroke-width="0.5" stroke="black" fill="magenta"/>
   </g>
   <g id="cell76">
  <circle cx="648.323" cy="533.012" r="8.05627" stroke-width="0.5" stroke="black" fill="green"/>
  <circle cx="648.323" cy="533.012" r="4.8796" stroke-width="0.5" stroke="black" fill="green"/>
   </g>
   <g id="cell77">
  <circle cx="502.77" cy="511.268" r="8.40427" stroke-width="0.5" stroke="black" fill="green"/>
  <circle cx="502.77" cy="511.268" r="5.04909" stroke-width="0.5" stroke="black" fill="green"/>
   </g>
   <g id="cell78">
  <circle cx="362.649" cy="570.541" r="8.41096" stroke-width="0.5" stroke="black" fill="magenta"/>
  <circle cx="362.649" cy="570.541" r="5.05123" stroke-width="0.5" stroke="black" fill="magenta"/>
   </g>
   <g id="cell79">
  <circle cx="538.634" cy="571.162" r="8.38527" stroke-width="0.5" stroke="black" fill="green"/>
  <circle cx="538.634" cy="571.162" r="5.04209" stroke-width="0.5" stroke="black" fill="green"/>
   </g>
   <g id="cell80">
  <circle cx="457.882" cy="601.573" r="8.15322" stroke-width="0.5" stroke="black" fill="magenta"/>
  <circle cx="457.882" cy="601.573" r="4.93115" stroke-width="0.5" stroke="black" fill="magenta"/>
   </g>
   <g id="cell81">
  <circle cx="396.031" cy="616.778" r="8.40891" stroke-width="0.5" stroke="black" fill="cyan"/>
  <circle cx="396.031" cy="616.778" r="5.05062" stroke-width="0.5" stroke="black" fill="cyan"/>
   </g>
   <g id="cell82">
  <circle cx="598.597" cy="466.595" r="8.18669" stroke-width="0.5" stroke="black" fill="cyan"/>
  <circle cx="598.597" cy="466.595" r="4.94875" stroke-width="0.5" stroke="black" fill="cyan"/>
   </g>
   <g id="cell83">
  <circle cx="546.868" cy="597.822" r="8.41165" stroke-width="0.5" stroke="black" fill="green"/>
  <circle cx="546.868" cy="597.822" r="5.05142" stroke-width="0.5" stroke="black" fill="green"/>
   </g>
   <g id="cell84">
  <circle cx="489.469" cy="580.169" r="8.41169" stroke-width="0.5" stroke="black" fill="green"/>
  <circle cx="489.469" cy="580.169" r="5.05142" stroke-width="0.5" stroke="black" fill="green"/>
   </g>
   <g id="cell85">
  <circle cx="618.284" cy="496.893" r="6.90241" stroke-width="0.5" stroke="black" fill="magenta"/>
  <circle cx="618.284" cy="496.893" r="4.2361" stroke-width="0.5" stroke="black" fill="magenta"/>
   </g>
   <g id="cell86">
  <circle cx="524.676" cy="597.419" r="7.77669" stroke-width="0.5" stroke="black" fill="green"/>
  <circle cx="524.676" cy="597.419" r="4.72294" stroke-width="0.5" stroke="black" fill="green"/>
   </g>
   <g id="cell87">
  <circle cx="589.96" cy="610.439" r="8.28923" stroke-width="0.5" stroke="black" fill="magenta"/>
  <circle cx="589.96" cy="610.439" r="4.9994" stroke-width="0.5" stroke="black" fill="magenta"/>
   </g>
   <g id="cell88">
  <circle cx="369.595" cy="556.179" r="8.40127" stroke-width="0.5" stroke="black" fill="magenta"/>
  <circle cx="369.595" cy="556.179" r="5.0481" stroke-width="0.5" stroke="black" fill="magenta"/>
   </g>
   <g id="cell89">
  <circle cx="539.902" cy="406.177" r="8.40987" stroke-width="0.5" stroke="black" fill="green"/>
  <circle cx="539.902" cy="406.177" r="5.05092" stroke-width="0.5" stroke="black" fill="green"/>
   </g>
   <g id="cell90">
  <circle cx="564.3" cy="485.101" r="6.88595" stroke-width="0.5" stroke="black" fill="cyan"/>
  <circle cx="564.3" cy="485.101" r="4.16662" stroke-width="0.5" stroke="black" fill="cyan"/>
   </g>
   <g id="cell91">
  <circle cx="541.687" cy="390.399" r="8.40987" stroke-width="0.5" stroke="black" fill="green"/>
  <circle cx="541.687" cy="390.399" r="5.05092" stroke-width="0.5" stroke="black" fill="green"/>
   </g>
   <g id="cell92">
  <circle cx="641.962" cy="569.845" r="8.41021" stroke-width="0.5" stroke="black" fill="green"/>
  <circle cx="641.962" cy="569.845" r="5.05101" stroke-width="0.5" stroke="black" fill="green"/>
   </g>
   <g id="cell93">
  <circle cx="363.06" cy="536.895" r="8.41036" stroke-width="0.5" stroke="black" fill="cyan"/>
  <circle cx="363.06" cy="536.895" r="5.05104" stroke-width="0.5" stroke="black" fill="cyan"/>
   </g>
   <g id="cell94">
  <circle cx="613.549" cy="530.539" r="6.77984" stroke-width="0.5" stroke="black" fill="cyan"/>
  <circle cx="613.549" cy="530.539" r="4.08659" stroke-width="0.5" stroke="black" fill="cyan"/>
   </g>
   <g id="cell95">
  <circle cx="576.669" cy="584.414" r="8.40941" stroke-width="0.5" stroke="black" fill="magenta"/>
  <circle cx="576.669" cy="584.414" r="5.05078" stroke-width="0.5" stroke="black" fill="magenta"/>
   </g>
   <g id="cell96">
  <circle cx="604.037" cy="481.396" r="8.40961" stroke-width="0.5" stroke="black" fill="cyan"/>
  <circle cx="604.037" cy="481.396" r="5.05083" stroke-width="0.5" stroke="black" fill="cyan"/>
   </g>
   <g id="cell97">
  <circle cx="622.727" cy="546.712" r="8.40853" stroke-width="0.5" stroke="black" fill="green"/>
  <circle cx="622.727" cy="546.712" r="5.05053" stroke-width="0.5" stroke="black" fill="green"/>
   </g>
   <g id="cell98">
  <circle cx="600.218" cy="525.132" r="8.40958" stroke-width="0.5" stroke="black" fill="magenta"/>
  <circle cx="600.218" cy="525.132" r="5.05082" stroke-width="0.5" stroke="black" fill="magenta"/>
   </g>
   <g id="cell99">
  <circle cx="575.662" cy="421.368" r="8.40925" stroke-width="0.5" stroke="black" fill="cyan"/>
  <circle cx="575.662" cy="421.368" r="5.0507" stroke-width="0.5" stroke="black" fill="cyan"/>
   </g>
   <g id="cell100">
  <circle cx="375.092" cy="596.605" r="8.40015" stroke-width="0.5" stroke="black" fill="cyan"/>
  <circle cx="375.092" cy="596.605" r="5.04783" stroke-width="0.5" stroke="black" fill="cyan"/>
   </g>
   <g id="cell101">
  <circle cx="536.389" cy="435.061" r="6.9137" stroke-width="0.5" stroke="black" fill="cyan"/>
  <circle cx="536.389" cy="435.061" r="4.20311" stroke-width="0.5" stroke="black" fill="cyan"/>
   </g>
   <g id="cell102">
  <circle cx="501.596" cy="473.698" r="8.37934" stroke-width="0.5" stroke="black" fill="cyan"/>
  <circle cx="501.596" cy="473.698" r="5.03982" stroke-width="0.5" stroke="black" fill="cyan"/>
   </g>
   <g id="cell103">
  <circle cx="468.375" cy="533.516" r="8.37942" stroke-width="0.5" stroke="black" fill="magenta"/>
  <circle cx="468.375" cy="533.516" r="5.04028" stroke-width="0.5" stroke="black" fill="magenta"/>
   </g>
   <g id="cell104">
  <circle cx="405.528" cy="605.529" r="1.8182" stroke-width="0.5" stroke="black" fill="cyan"/>
  <circle cx="405.528" cy="605.529" r="1.75593" stroke-width="0.5" stroke="black" fill="black"/>
   </g>
   <g id="cell105">
  <circle cx="511.084" cy="461.481" r="8.40814" stroke-width="0.5" stroke="black" fill="magenta"/>
  <circle cx="511.084" cy="461.481" r="5.05035" stroke-width="0.5" stroke="black" fill="magenta"/>
   </g>
   <g id="cell106">
  <circle cx="436.421" cy="403.018" r="8.40745" stroke-width="0.5" stroke="black" fill="magenta"/>
  <circle cx="436.421" cy="403.018" r="5.05013" stroke-width="0.5" stroke="black" fill="magenta"/>
   </g>
   <g id="cell107">
  <circle cx="423.133" cy="456.177" r="8.39751" stroke-width="0.5" stroke="black" fill="cyan"/>
  <circle cx="423.133" cy="456.177" r="5.04684" stroke-width="0.5" stroke="black" fill="cyan"/>
   </g>
   <g id="cell108">
  <circle cx="523.896" cy="380.383" r="8.40576" stroke-width="0.5" stroke="black" fill="magenta"/>
  <circle cx="523.896" cy="380.383" r="5.04957" stroke-width="0.5" stroke="black" fill="magenta"/>
   </g>
   <g id="cell110">
  <circle cx="519.407" cy="395.133" r="7.8871" stroke-width="0.5" stroke="black" fill="magenta"/>
  <circle cx="519.407" cy="395.133" r="4.78744" stroke-width="0.5" stroke="black" fill="magenta"/>
   </g>
   <g id="cell111">
  <circle cx="514.769" cy="493.337" r="6.76254" stroke-width="0.5" stroke="black" fill="green"/>
  <circle cx="514.769" cy="493.337" r="4.0807" stroke-width="0.5" stroke="black" fill="green"/>
   </g>
   <g id="cell112">
  <circle cx="400.766" cy="586.375" r="8.17049" stroke-width="0.5" stroke="black" fill="cyan"/>
  <circle cx="400.766" cy="586.375" r="4.94095" stroke-width="0.5" stroke="black" fill="cyan"/>
   </g>
   <g id="cell113">
  <circle cx="339.456" cy="546.993" r="8.40209" stroke-width="0.5" stroke="black" fill="cyan"/>
  <circle cx="339.456" cy="546.993" r="5.0484" stroke-width="0.5" stroke="black" fill="cyan"/>
   </g>
   <g id="cell114">
  <circle cx="381.02" cy="611.307" r="8.39671" stroke-width="0.5" stroke="black" fill="cyan"/>
  <circle cx="381.02" cy="611.307" r="5.0467" stroke-width="0.5" stroke="black" fill="cyan"/>
   </g>
   <g id="cell115">
  <circle cx="391.211" cy="599.04" r="8.39671" stroke-width="0.5" stroke="black" fill="cyan"/>
  <circle cx="391.211" cy="599.04" r="5.0467" stroke-width="0.5" stroke="black" fill="cyan"/>
   </g>
   <g id="cell116">
  <circle cx="403.122" cy="532.312" r="7.43586" stroke-width="0.5" stroke="black" fill="green"/>
  <circle cx="403.122" cy="532.312" r="4.52152" stroke-width="0.5" stroke="black" fill="green"/>
   </g>
   <g id="cell117">
  <circle cx="378.535" cy="569.675" r="8.39377" stroke-width="0.5" stroke="black" fill="magenta"/>
  <circle cx="378.535" cy="569.675" r="5.04559" stroke-width="0.5" stroke="black" fill="magenta"/>
   </g>
   <g id="cell118">
  <circle cx="398.996" cy="436.856" r="8.39826" stroke-width="0.5" stroke="black" fill="cyan"/>
  <circle cx="398.996" cy="436.856" r="5.04714" stroke-width="0.5" stroke="black" fill="cyan"/>
   </g>
   <g id="cell119">
  <circle cx="570.061" cy="517.597" r="8.40028" stroke-width="0.5" stroke="black" fill="magenta"/>
  <circle cx="570.061" cy="517.597" r="5.04779" stroke-width="0.5" stroke="black" fill="magenta"/>
   </g>
   <g id="cell120">
  <circle cx="501.449" cy="489.18" r="8.23163" stroke-width="0.5" stroke="black" fill="green"/>
  <circle cx="501.449" cy="489.18" r="4.97253" stroke-width="0.5" stroke="black" fill="green"/>
   </g>
   <g id="cell122">
  <circle cx="449.768" cy="485.691" r="7.75318" stroke-width="0.5" stroke="black" fill="cyan"/>
  <circle cx="449.768" cy="485.691" r="4.72061" stroke-width="0.5" stroke="black" fill="cyan"/>
   </g>
   <g id="cell123">
  <circle cx="384.431" cy="555.719" r="7.64729" stroke-width="0.5" stroke="black" fill="magenta"/>
  <circle cx="384.431" cy="555.719" r="4.64983" stroke-width="0.5" stroke="black" fill="magenta"/>
   </g>
   <g id="cell125">
  <circle cx="531.918" cy="475.766" r="8.39664" stroke-width="0.5" stroke="black" fill="magenta"/>
  <circle cx="531.918" cy="475.766" r="5.04633" stroke-width="0.5" stroke="black" fill="magenta"/>
   </g>
   <g id="cell127">
  <circle cx="439.919" cy="533.671" r="8.39121" stroke-width="0.5" stroke="black" fill="magenta"/>
  <circle cx="439.919" cy="533.671" r="5.04447" stroke-width="0.5" stroke="black" fill="magenta"/>
   </g>
   <g id="cell128">
  <circle cx="547.569" cy="419.298" r="8.00042" stroke-width="0.5" stroke="black" fill="cyan"/>
  <circle cx="547.569" cy="419.298" r="4.85157" stroke-width="0.5" stroke="black" fill="cyan"/>
   </g>
   <g id="cell129">
  <circle cx="490.643" cy="520.601" r="8.39121" stroke-width="0.5" stroke="black" fill="green"/>
  <circle cx="490.643" cy="520.601" r="5.04432" stroke-width="0.5" stroke="black" fill="green"/>
   </g>
   <g id="cell130">
  <circle cx="454.228" cy="538.305" r="2.25025" stroke-width="0.5" stroke="black" fill="magenta"/>
  <circle cx="454.228" cy="538.305" r="2.06721" stroke-width="0.5" stroke="black" fill="black"/>
   </g>
   <g id="cell131">
  <circle cx="535.462" cy="586.626" r="8.38527" stroke-width="0.5" stroke="black" fill="green"/>
  <circle cx="535.462" cy="586.626" r="5.04209" stroke-width="0.5" stroke="black" fill="green"/>
   </g>
   <g id="cell132">
  <circle cx="402.521" cy="452.169" r="8.27577" stroke-width="0.5" stroke="black" fill="green"/>
  <circle cx="402.521" cy="452.169" r="4.99455" stroke-width="0.5" stroke="black" fill="green"/>
   </g>
   <g id="cell133">
  <circle cx="550.485" cy="525.284" r="7.05403" stroke-width="0.5" stroke="black" fill="cyan"/>
  <circle cx="550.485" cy="525.284" r="4.31106" stroke-width="0.5" stroke="black" fill="cyan"/>
   </g>
   <g id="cell134">
  <circle cx="516.54" cy="479.492" r="8.37934" stroke-width="0.5" stroke="black" fill="cyan"/>
  <circle cx="516.54" cy="479.492" r="5.03982" stroke-width="0.5" stroke="black" fill="cyan"/>
   </g>
   <g id="cell135">
  <circle cx="409.212" cy="567.627" r="8.32217" stroke-width="0.5" stroke="black" fill="green"/>
  <circle cx="409.212" cy="567.627" r="5.01621" stroke-width="0.5" stroke="black" fill="green"/>
   </g>
   <g id="cell136">
  <circle cx="455.34" cy="507.488" r="8.27934" stroke-width="0.5" stroke="black" fill="green"/>
  <circle cx="455.34" cy="507.488" r="4.99788" stroke-width="0.5" stroke="black" fill="green"/>
   </g>
   <g id="cell137">
  <circle cx="532.979" cy="626.163" r="8.37296" stroke-width="0.5" stroke="black" fill="green"/>
  <circle cx="532.979" cy="626.163" r="5.03702" stroke-width="0.5" stroke="black" fill="green"/>
   </g>
   <g id="cell138">
  <circle cx="432.879" cy="418.624" r="8.36706" stroke-width="0.5" stroke="black" fill="magenta"/>
  <circle cx="432.879" cy="418.624" r="5.03485" stroke-width="0.5" stroke="black" fill="magenta"/>
   </g>
   <g id="cell139">
  <circle cx="568.883" cy="466.83" r="8.35989" stroke-width="0.5" stroke="black" fill="cyan"/>
  <circle cx="568.883" cy="466.83" r="5.03222" stroke-width="0.5" stroke="black" fill="cyan"/>
   </g>
   <g id="cell140">
  <circle cx="451.786" cy="522.882" r="8.34292" stroke-width="0.5" stroke="black" fill="green"/>
  <circle cx="451.786" cy="522.882" r="5.02535" stroke-width="0.5" stroke="black" fill="green"/>
   </g>
   <g id="cell141">
  <circle cx="420.858" cy="550.234" r="8.32217" stroke-width="0.5" stroke="black" fill="green"/>
  <circle cx="420.858" cy="550.234" r="5.01621" stroke-width="0.5" stroke="black" fill="green"/>
   </g>
   <g id="cell142">
  <circle cx="599.266" cy="508.997" r="8.32962" stroke-width="0.5" stroke="black" fill="magenta"/>
  <circle cx="599.266" cy="508.997" r="5.01821" stroke-width="0.5" stroke="black" fill="magenta"/>
   </g>
   <g id="cell143">
  <circle cx="522.521" cy="433.683" r="8.3062" stroke-width="0.5" stroke="black" fill="cyan"/>
  <circle cx="522.521" cy="433.683" r="5.00872" stroke-width="0.5" stroke="black" fill="cyan"/>
   </g>
   <g id="cell144">
  <circle cx="513.469" cy="446.115" r="8.31314" stroke-width="0.5" stroke="black" fill="cyan"/>
  <circle cx="513.469" cy="446.115" r="5.01083" stroke-width="0.5" stroke="black" fill="cyan"/>
   </g>
   <g id="cell145">
  <circle cx="466.993" cy="517.869" r="8.21051" stroke-width="0.5" stroke="black" fill="green"/>
  <circle cx="466.993" cy="517.869" r="4.96666" stroke-width="0.5" stroke="black" fill="green"/>
   </g>
   <g id="cell146">
  <circle cx="422.887" cy="472.261" r="8.30618" stroke-width="0.5" stroke="black" fill="green"/>
  <circle cx="422.887" cy="472.261" r="5.00727" stroke-width="0.5" stroke="black" fill="green"/>
   </g>
   <g id="cell147">
  <circle cx="377.86" cy="542.285" r="8.29667" stroke-width="0.5" stroke="black" fill="magenta"/>
  <circle cx="377.86" cy="542.285" r="5.00279" stroke-width="0.5" stroke="black" fill="magenta"/>
   </g>
   <g id="cell148">
  <circle cx="588.758" cy="594.718" r="8.28923" stroke-width="0.5" stroke="black" fill="magenta"/>
  <circle cx="588.758" cy="594.718" r="4.9994" stroke-width="0.5" stroke="black" fill="magenta"/>
   </g>
   <g id="cell149">
  <circle cx="528.772" cy="491.025" r="8.28158" stroke-width="0.5" stroke="black" fill="magenta"/>
  <circle cx="528.772" cy="491.025" r="4.99679" stroke-width="0.5" stroke="black" fill="magenta"/>
   </g>
   <g id="cell150">
  <circle cx="411.001" cy="463.352" r="6.73358" stroke-width="0.5" stroke="black" fill="green"/>
  <circle cx="411.001" cy="463.352" r="4.08405" stroke-width="0.5" stroke="black" fill="green"/>
   </g>
   <g id="cell151">
  <circle cx="436.697" cy="463.942" r="8.27846" stroke-width="0.5" stroke="black" fill="cyan"/>
  <circle cx="436.697" cy="463.942" r="4.99535" stroke-width="0.5" stroke="black" fill="cyan"/>
   </g>
   <g id="cell152">
  <circle cx="470.311" cy="502.603" r="8.21051" stroke-width="0.5" stroke="black" fill="green"/>
  <circle cx="470.311" cy="502.603" r="4.96666" stroke-width="0.5" stroke="black" fill="green"/>
   </g>
   <g id="cell153">
  <circle cx="543.759" cy="485.384" r="8.19946" stroke-width="0.5" stroke="black" fill="magenta"/>
  <circle cx="543.759" cy="485.384" r="4.96023" stroke-width="0.5" stroke="black" fill="magenta"/>
   </g>
   <g id="cell154">
  <circle cx="485.974" cy="488.427" r="8.23163" stroke-width="0.5" stroke="black" fill="green"/>
  <circle cx="485.974" cy="488.427" r="4.97253" stroke-width="0.5" stroke="black" fill="green"/>
   </g>
   <g id="cell155">
  <circle cx="485.503" cy="626.212" r="8.22925" stroke-width="0.5" stroke="black" fill="green"/>
  <circle cx="485.503" cy="626.212" r="4.96993" stroke-width="0.5" stroke="black" fill="green"/>
   </g>
   <g id="cell156">
  <circle cx="536.069" cy="547.252" r="8.22925" stroke-width="0.5" stroke="black" fill="magenta"/>
  <circle cx="536.069" cy="547.252" r="4.96993" stroke-width="0.5" stroke="black" fill="magenta"/>
   </g>
   <g id="cell157">
  <circle cx="391.467" cy="463.378" r="8.21495" stroke-width="0.5" stroke="black" fill="green"/>
  <circle cx="391.467" cy="463.378" r="4.96483" stroke-width="0.5" stroke="black" fill="green"/>
   </g>
   <g id="cell158">
  <circle cx="602.598" cy="587.334" r="8.20516" stroke-width="0.5" stroke="black" fill="magenta"/>
  <circle cx="602.598" cy="587.334" r="4.95819" stroke-width="0.5" stroke="black" fill="magenta"/>
   </g>
   <g id="cell159">
  <circle cx="587.54" cy="449.2" r="8.18669" stroke-width="0.5" stroke="black" fill="cyan"/>
  <circle cx="587.54" cy="449.2" r="4.94875" stroke-width="0.5" stroke="black" fill="cyan"/>
   </g>
   <g id="cell160">
  <circle cx="415.68" cy="581.708" r="8.17049" stroke-width="0.5" stroke="black" fill="cyan"/>
  <circle cx="415.68" cy="581.708" r="4.94095" stroke-width="0.5" stroke="black" fill="cyan"/>
   </g>
   <g id="cell161">
  <circle cx="447.852" cy="613.404" r="8.15322" stroke-width="0.5" stroke="black" fill="magenta"/>
  <circle cx="447.852" cy="613.404" r="4.93115" stroke-width="0.5" stroke="black" fill="magenta"/>
   </g>
   <g id="cell162">
  <circle cx="572.16" cy="451.499" r="8.15169" stroke-width="0.5" stroke="black" fill="cyan"/>
  <circle cx="572.16" cy="451.499" r="4.93069" stroke-width="0.5" stroke="black" fill="cyan"/>
   </g>
   <g id="cell163">
  <circle cx="561.424" cy="534.145" r="8.13136" stroke-width="0.5" stroke="black" fill="cyan"/>
  <circle cx="561.424" cy="534.145" r="4.92203" stroke-width="0.5" stroke="black" fill="cyan"/>
   </g>
   <g id="cell164">
  <circle cx="577.729" cy="489.123" r="8.13813" stroke-width="0.5" stroke="black" fill="magenta"/>
  <circle cx="577.729" cy="489.123" r="4.92317" stroke-width="0.5" stroke="black" fill="magenta"/>
   </g>
   <g id="cell165">
  <circle cx="583.658" cy="463.769" r="8.09443" stroke-width="0.5" stroke="black" fill="cyan"/>
  <circle cx="583.658" cy="463.769" r="4.9003" stroke-width="0.5" stroke="black" fill="cyan"/>
   </g>
   <g id="cell166">
  <circle cx="650.839" cy="548.133" r="8.05627" stroke-width="0.5" stroke="black" fill="green"/>
  <circle cx="650.839" cy="548.133" r="4.8796" stroke-width="0.5" stroke="black" fill="green"/>
   </g>
   <g id="cell167">
  <circle cx="541.219" cy="500.28" r="7.91968" stroke-width="0.5" stroke="black" fill="magenta"/>
  <circle cx="541.219" cy="500.28" r="4.81819" stroke-width="0.5" stroke="black" fill="magenta"/>
   </g>
   <g id="cell168">
  <circle cx="561.067" cy="426.207" r="8.00042" stroke-width="0.5" stroke="black" fill="cyan"/>
  <circle cx="561.067" cy="426.207" r="4.85157" stroke-width="0.5" stroke="black" fill="cyan"/>
   </g>
   <g id="cell169">
  <circle cx="532.94" cy="532.492" r="7.94838" stroke-width="0.5" stroke="black" fill="cyan"/>
  <circle cx="532.94" cy="532.492" r="4.8232" stroke-width="0.5" stroke="black" fill="cyan"/>
   </g>
   <g id="cell170">
  <circle cx="528.103" cy="611.695" r="7.93688" stroke-width="0.5" stroke="black" fill="green"/>
  <circle cx="528.103" cy="611.695" r="4.81381" stroke-width="0.5" stroke="black" fill="green"/>
   </g>
   <g id="cell172">
  <circle cx="509.272" cy="406.028" r="7.8871" stroke-width="0.5" stroke="black" fill="magenta"/>
  <circle cx="509.272" cy="406.028" r="4.78744" stroke-width="0.5" stroke="black" fill="magenta"/>
   </g>
   <g id="cell173">
  <circle cx="513.481" cy="612.238" r="7.61348" stroke-width="0.5" stroke="black" fill="green"/>
  <circle cx="513.481" cy="612.238" r="4.64837" stroke-width="0.5" stroke="black" fill="green"/>
   </g>
   <g id="cell174">
  <circle cx="422.133" cy="397.183" r="7.83019" stroke-width="0.5" stroke="black" fill="green"/>
  <circle cx="422.133" cy="397.183" r="4.75343" stroke-width="0.5" stroke="black" fill="green"/>
   </g>
   <g id="cell175">
  <circle cx="436.717" cy="479.118" r="7.75318" stroke-width="0.5" stroke="black" fill="cyan"/>
  <circle cx="436.717" cy="479.118" r="4.72061" stroke-width="0.5" stroke="black" fill="cyan"/>
   </g>
   <g id="cell176">
  <circle cx="626.358" cy="507.767" r="7.74743" stroke-width="0.5" stroke="black" fill="magenta"/>
  <circle cx="626.358" cy="507.767" r="4.71377" stroke-width="0.5" stroke="black" fill="magenta"/>
   </g>
   <g id="cell177">
  <circle cx="520.374" cy="583.432" r="7.77669" stroke-width="0.5" stroke="black" fill="green"/>
  <circle cx="520.374" cy="583.432" r="4.72294" stroke-width="0.5" stroke="black" fill="green"/>
   </g>
   <g id="cell178">
  <circle cx="556.773" cy="548.261" r="7.70049" stroke-width="0.5" stroke="black" fill="green"/>
  <circle cx="556.773" cy="548.261" r="4.67828" stroke-width="0.5" stroke="black" fill="green"/>
   </g>
   <g id="cell179">
  <circle cx="411.671" cy="625.028" r="7.65871" stroke-width="0.5" stroke="black" fill="cyan"/>
  <circle cx="411.671" cy="625.028" r="4.6537" stroke-width="0.5" stroke="black" fill="cyan"/>
   </g>
   <g id="cell180">
  <circle cx="398.352" cy="557.65" r="7.64729" stroke-width="0.5" stroke="black" fill="magenta"/>
  <circle cx="398.352" cy="557.65" r="4.64983" stroke-width="0.5" stroke="black" fill="magenta"/>
   </g>
   <g id="cell181">
  <circle cx="391.497" cy="538.982" r="6.48995" stroke-width="0.5" stroke="black" fill="green"/>
  <circle cx="391.497" cy="538.982" r="3.98288" stroke-width="0.5" stroke="black" fill="green"/>
   </g>
   <g id="cell182">
  <circle cx="459.154" cy="560.408" r="7.35738" stroke-width="0.5" stroke="black" fill="magenta"/>
  <circle cx="459.154" cy="560.408" r="4.47215" stroke-width="0.5" stroke="black" fill="magenta"/>
   </g>
   <g id="cell183">
  <circle cx="605.624" cy="495.988" r="6.90241" stroke-width="0.5" stroke="black" fill="magenta"/>
  <circle cx="605.624" cy="495.988" r="4.2361" stroke-width="0.5" stroke="black" fill="magenta"/>
   </g>
   <g id="cell184">
  <circle cx="547.205" cy="538.112" r="7.05403" stroke-width="0.5" stroke="black" fill="cyan"/>
  <circle cx="547.205" cy="538.112" r="4.31106" stroke-width="0.5" stroke="black" fill="cyan"/>
   </g>
   <g id="cell187">
  <circle cx="422.817" cy="564.227" r="6.90306" stroke-width="0.5" stroke="black" fill="green"/>
  <circle cx="422.817" cy="564.227" r="4.18261" stroke-width="0.5" stroke="black" fill="green"/>
   </g>
   <g id="cell188">
  <circle cx="535.082" cy="456.246" r="6.92494" stroke-width="0.5" stroke="black" fill="cyan"/>
  <circle cx="535.082" cy="456.246" r="4.19099" stroke-width="0.5" stroke="black" fill="cyan"/>
   </g>
   <g id="cell189">
  <circle cx="556.954" cy="474.451" r="6.88595" stroke-width="0.5" stroke="black" fill="cyan"/>
  <circle cx="556.954" cy="474.451" r="4.16662" stroke-width="0.5" stroke="black" fill="cyan"/>
   </g>
   <g id="cell190">
  <circle cx="407.995" cy="475.523" r="6.73358" stroke-width="0.5" stroke="black" fill="green"/>
  <circle cx="407.995" cy="475.523" r="4.08405" stroke-width="0.5" stroke="black" fill="green"/>
   </g>
   <g id="cell191">
  <circle cx="618.663" cy="518.985" r="6.77984" stroke-width="0.5" stroke="black" fill="cyan"/>
  <circle cx="618.663" cy="518.985" r="4.08659" stroke-width="0.5" stroke="black" fill="cyan"/>
   </g>
   <g id="cell192">
  <circle cx="514.971" cy="505.645" r="6.76254" stroke-width="0.5" stroke="black" fill="green"/>
  <circle cx="514.971" cy="505.645" r="4.0807" stroke-width="0.5" stroke="black" fill="green"/>
   </g>
   <g id="cell193">
  <circle cx="440.41" cy="566.194" r="5.56114" stroke-width="0.5" stroke="black" fill="green"/>
  <circle cx="440.41" cy="566.194" r="3.37831" stroke-width="0.5" stroke="black" fill="green"/>
   </g>
  </g>
 </g>
  <rect x="775" y="1035" width="200" height="10" stroke-width="2" stroke="rgb(255,255,255)" fill="rgb(0,0,0)"/>
  <text x="781.25" y="1028.75"
   font-family="Arial" font-size="25" fill="black" >
   200 &#956;m
  </text>
  <text x="25" y="1045"
   font-family="Arial" font-size="18.75" fill="black" >
   0 days, 0 hours, 0 minutes, and 42.7937 seconds
  </text>
  <rect x="0" y="70" width="1000" height="1000" stroke-width="2" stroke="rgb(0,0,0)" fill="none"/>
</svg>
