<?xml version="1.0" encoding="UTF-8" standalone="no"?>
<!-- Created with PhysiCell (http://PhysiCell.MathCancer.org/) -->
<svg 
 xmlns:dc="http://purl.org/dc/elements/1.1/" 
 xmlns:cc="http://creativecommons.org/ns#" 
 xmlns:rdf="http://www.w3.org/1999/02/22-rdf-syntax-ns#" 
 xmlns:svg="http://www.w3.org/2000/svg" 
 xmlns="http://www.w3.org/2000/svg" 
 version="1.1" 
 width="1000" 
 height="1070" 
 id="svg2">
  <rect x="0" y="0" width="1000" height="1070" stroke-width="2" stroke="white" fill="white"/>
  <text x="12.5" y="30"
   font-family="Arial" font-size="25" fill="black" >
   Current time: 0 days, 7 hours, and 0.00 minutes, z = 0.00 &#956;m
  </text>
  <text x="12.5" y="57.5"
   font-family="Arial" font-size="23.75" fill="black" >
   94 agents
  </text>
 <g id="tissue" 
    transform="translate(0,1070) scale(1,-1)">
  <g id="ECM">
  </g>
  <g id="cells">
   <g id="cell0">
  <circle cx="513.18" cy="530.904" r="8.41271" stroke-width="0.5" stroke="black" fill="magenta"/>
  <circle cx="513.18" cy="530.904" r="5.05167" stroke-width="0.5" stroke="black" fill="magenta"/>
   </g>
   <g id="cell1">
  <circle cx="604.143" cy="530.32" r="8.41271" stroke-width="0.5" stroke="black" fill="magenta"/>
  <circle cx="604.143" cy="530.32" r="5.05167" stroke-width="0.5" stroke="black" fill="magenta"/>
   </g>
   <g id="cell2">
  <circle cx="510.471" cy="600.57" r="8.41271" stroke-width="0.5" stroke="black" fill="magenta"/>
  <circle cx="510.471" cy="600.57" r="5.05167" stroke-width="0.5" stroke="black" fill="magenta"/>
   </g>
   <g id="cell3">
  <circle cx="532.455" cy="545.82" r="8.41271" stroke-width="0.5" stroke="black" fill="magenta"/>
  <circle cx="532.455" cy="545.82" r="5.05167" stroke-width="0.5" stroke="black" fill="magenta"/>
   </g>
   <g id="cell4">
  <circle cx="481.375" cy="439.864" r="8.41271" stroke-width="0.5" stroke="black" fill="magenta"/>
  <circle cx="481.375" cy="439.864" r="5.05167" stroke-width="0.5" stroke="black" fill="magenta"/>
   </g>
   <g id="cell5">
  <circle cx="465.032" cy="493.3" r="8.41271" stroke-width="0.5" stroke="black" fill="magenta"/>
  <circle cx="465.032" cy="493.3" r="5.05167" stroke-width="0.5" stroke="black" fill="magenta"/>
   </g>
   <g id="cell6">
  <circle cx="592.317" cy="512.675" r="8.07654" stroke-width="0.5" stroke="black" fill="magenta"/>
  <circle cx="592.317" cy="512.675" r="4.89046" stroke-width="0.5" stroke="black" fill="magenta"/>
   </g>
   <g id="cell7">
  <circle cx="512.324" cy="464.859" r="8.41271" stroke-width="0.5" stroke="black" fill="magenta"/>
  <circle cx="512.324" cy="464.859" r="5.05167" stroke-width="0.5" stroke="black" fill="magenta"/>
   </g>
   <g id="cell8">
  <circle cx="379.099" cy="545.058" r="8.41271" stroke-width="0.5" stroke="black" fill="magenta"/>
  <circle cx="379.099" cy="545.058" r="5.05167" stroke-width="0.5" stroke="black" fill="magenta"/>
   </g>
   <g id="cell9">
  <circle cx="464.894" cy="595.488" r="7.90853" stroke-width="0.5" stroke="black" fill="magenta"/>
  <circle cx="464.894" cy="595.488" r="4.79791" stroke-width="0.5" stroke="black" fill="magenta"/>
   </g>
   <g id="cell10">
  <circle cx="583.447" cy="392.105" r="8.41271" stroke-width="0.5" stroke="black" fill="magenta"/>
  <circle cx="583.447" cy="392.105" r="5.05167" stroke-width="0.5" stroke="black" fill="magenta"/>
   </g>
   <g id="cell11">
  <circle cx="588.845" cy="585.477" r="7.3599" stroke-width="0.5" stroke="black" fill="magenta"/>
  <circle cx="588.845" cy="585.477" r="4.47294" stroke-width="0.5" stroke="black" fill="magenta"/>
   </g>
   <g id="cell12">
  <circle cx="505.867" cy="585.197" r="8.41271" stroke-width="0.5" stroke="black" fill="magenta"/>
  <circle cx="505.867" cy="585.197" r="5.05167" stroke-width="0.5" stroke="black" fill="magenta"/>
   </g>
   <g id="cell13">
  <circle cx="392.814" cy="567.994" r="8.00101" stroke-width="0.5" stroke="black" fill="magenta"/>
  <circle cx="392.814" cy="567.994" r="4.84939" stroke-width="0.5" stroke="black" fill="magenta"/>
   </g>
   <g id="cell14">
  <circle cx="529.123" cy="395.711" r="2.01831" stroke-width="0.5" stroke="black" fill="magenta"/>
  <circle cx="529.123" cy="395.711" r="1.90974" stroke-width="0.5" stroke="black" fill="black"/>
   </g>
   <g id="cell15">
  <circle cx="379.896" cy="475.017" r="8.41271" stroke-width="0.5" stroke="black" fill="magenta"/>
  <circle cx="379.896" cy="475.017" r="5.05167" stroke-width="0.5" stroke="black" fill="magenta"/>
   </g>
   <g id="cell16">
  <circle cx="428.948" cy="413.428" r="8.41271" stroke-width="0.5" stroke="black" fill="magenta"/>
  <circle cx="428.948" cy="413.428" r="5.05167" stroke-width="0.5" stroke="black" fill="magenta"/>
   </g>
   <g id="cell17">
  <circle cx="572.211" cy="490.411" r="8.41271" stroke-width="0.5" stroke="black" fill="magenta"/>
  <circle cx="572.211" cy="490.411" r="5.05167" stroke-width="0.5" stroke="black" fill="magenta"/>
   </g>
   <g id="cell18">
  <circle cx="516.013" cy="387.86" r="8.41271" stroke-width="0.5" stroke="black" fill="magenta"/>
  <circle cx="516.013" cy="387.86" r="5.05167" stroke-width="0.5" stroke="black" fill="magenta"/>
   </g>
   <g id="cell19">
  <circle cx="451.894" cy="539.462" r="8.41271" stroke-width="0.5" stroke="black" fill="magenta"/>
  <circle cx="451.894" cy="539.462" r="5.05167" stroke-width="0.5" stroke="black" fill="magenta"/>
   </g>
   <g id="cell20">
  <circle cx="532.938" cy="417.543" r="8.41271" stroke-width="0.5" stroke="black" fill="magenta"/>
  <circle cx="532.938" cy="417.543" r="5.05167" stroke-width="0.5" stroke="black" fill="magenta"/>
   </g>
   <g id="cell21">
  <circle cx="464.212" cy="634.718" r="8.41271" stroke-width="0.5" stroke="black" fill="magenta"/>
  <circle cx="464.212" cy="634.718" r="5.05167" stroke-width="0.5" stroke="black" fill="magenta"/>
   </g>
   <g id="cell22">
  <circle cx="556.447" cy="493.308" r="8.41271" stroke-width="0.5" stroke="black" fill="magenta"/>
  <circle cx="556.447" cy="493.308" r="5.05167" stroke-width="0.5" stroke="black" fill="magenta"/>
   </g>
   <g id="cell23">
  <circle cx="534.762" cy="483.697" r="8.41271" stroke-width="0.5" stroke="black" fill="magenta"/>
  <circle cx="534.762" cy="483.697" r="5.05167" stroke-width="0.5" stroke="black" fill="magenta"/>
   </g>
   <g id="cell24">
  <circle cx="559.289" cy="379.784" r="2.97674" stroke-width="0.5" stroke="black" fill="magenta"/>
  <circle cx="559.289" cy="379.784" r="2.45592" stroke-width="0.5" stroke="black" fill="black"/>
   </g>
   <g id="cell25">
  <circle cx="635.196" cy="552.173" r="6.40332" stroke-width="0.5" stroke="black" fill="green"/>
  <circle cx="635.196" cy="552.173" r="3.8803" stroke-width="0.5" stroke="black" fill="green"/>
   </g>
   <g id="cell26">
  <circle cx="555.869" cy="398.595" r="7.0545" stroke-width="0.5" stroke="black" fill="green"/>
  <circle cx="555.869" cy="398.595" r="4.27772" stroke-width="0.5" stroke="black" fill="green"/>
   </g>
   <g id="cell27">
  <circle cx="457.446" cy="388.678" r="8.41271" stroke-width="0.5" stroke="black" fill="green"/>
  <circle cx="457.446" cy="388.678" r="5.05167" stroke-width="0.5" stroke="black" fill="green"/>
   </g>
   <g id="cell28">
  <circle cx="438.497" cy="530.67" r="8.41271" stroke-width="0.5" stroke="black" fill="green"/>
  <circle cx="438.497" cy="530.67" r="5.05167" stroke-width="0.5" stroke="black" fill="green"/>
   </g>
   <g id="cell29">
  <circle cx="449.03" cy="518.594" r="8.41271" stroke-width="0.5" stroke="black" fill="green"/>
  <circle cx="449.03" cy="518.594" r="5.05167" stroke-width="0.5" stroke="black" fill="green"/>
   </g>
   <g id="cell30">
  <circle cx="481.58" cy="540.282" r="3.66624" stroke-width="0.5" stroke="black" fill="green"/>
  <circle cx="481.58" cy="540.282" r="2.75003" stroke-width="0.5" stroke="black" fill="black"/>
   </g>
   <g id="cell31">
  <circle cx="412.757" cy="541.193" r="8.41271" stroke-width="0.5" stroke="black" fill="green"/>
  <circle cx="412.757" cy="541.193" r="5.05167" stroke-width="0.5" stroke="black" fill="green"/>
   </g>
   <g id="cell32">
  <circle cx="425.371" cy="474.829" r="8.41271" stroke-width="0.5" stroke="black" fill="green"/>
  <circle cx="425.371" cy="474.829" r="5.05167" stroke-width="0.5" stroke="black" fill="green"/>
   </g>
   <g id="cell33">
  <circle cx="494.146" cy="423.183" r="8.41271" stroke-width="0.5" stroke="black" fill="green"/>
  <circle cx="494.146" cy="423.183" r="5.05167" stroke-width="0.5" stroke="black" fill="green"/>
   </g>
   <g id="cell34">
  <circle cx="397.088" cy="450.831" r="8.41271" stroke-width="0.5" stroke="black" fill="green"/>
  <circle cx="397.088" cy="450.831" r="5.05167" stroke-width="0.5" stroke="black" fill="green"/>
   </g>
   <g id="cell35">
  <circle cx="548.37" cy="544.046" r="8.41271" stroke-width="0.5" stroke="black" fill="green"/>
  <circle cx="548.37" cy="544.046" r="5.05167" stroke-width="0.5" stroke="black" fill="green"/>
   </g>
   <g id="cell36">
  <circle cx="391.195" cy="583.508" r="8.41271" stroke-width="0.5" stroke="black" fill="green"/>
  <circle cx="391.195" cy="583.508" r="5.05167" stroke-width="0.5" stroke="black" fill="green"/>
   </g>
   <g id="cell37">
  <circle cx="634.871" cy="460.618" r="8.41271" stroke-width="0.5" stroke="black" fill="green"/>
  <circle cx="634.871" cy="460.618" r="5.05167" stroke-width="0.5" stroke="black" fill="green"/>
   </g>
   <g id="cell38">
  <circle cx="538.22" cy="612.46" r="8.00101" stroke-width="0.5" stroke="black" fill="green"/>
  <circle cx="538.22" cy="612.46" r="4.84939" stroke-width="0.5" stroke="black" fill="green"/>
   </g>
   <g id="cell39">
  <circle cx="612.831" cy="491.471" r="8.41271" stroke-width="0.5" stroke="black" fill="green"/>
  <circle cx="612.831" cy="491.471" r="5.05167" stroke-width="0.5" stroke="black" fill="green"/>
   </g>
   <g id="cell40">
  <circle cx="482.715" cy="567.274" r="7.51976" stroke-width="0.5" stroke="black" fill="green"/>
  <circle cx="482.715" cy="567.274" r="4.57072" stroke-width="0.5" stroke="black" fill="green"/>
   </g>
   <g id="cell41">
  <circle cx="364.751" cy="480.251" r="8.41271" stroke-width="0.5" stroke="black" fill="green"/>
  <circle cx="364.751" cy="480.251" r="5.05167" stroke-width="0.5" stroke="black" fill="green"/>
   </g>
   <g id="cell42">
  <circle cx="438.842" cy="494.268" r="8.41271" stroke-width="0.5" stroke="black" fill="green"/>
  <circle cx="438.842" cy="494.268" r="5.05167" stroke-width="0.5" stroke="black" fill="green"/>
   </g>
   <g id="cell43">
  <circle cx="557.881" cy="445.569" r="8.41271" stroke-width="0.5" stroke="black" fill="green"/>
  <circle cx="557.881" cy="445.569" r="5.05167" stroke-width="0.5" stroke="black" fill="green"/>
   </g>
   <g id="cell44">
  <circle cx="476.013" cy="623.877" r="8.41271" stroke-width="0.5" stroke="black" fill="green"/>
  <circle cx="476.013" cy="623.877" r="5.05167" stroke-width="0.5" stroke="black" fill="green"/>
   </g>
   <g id="cell45">
  <circle cx="414.953" cy="557.066" r="8.41271" stroke-width="0.5" stroke="black" fill="green"/>
  <circle cx="414.953" cy="557.066" r="5.05167" stroke-width="0.5" stroke="black" fill="green"/>
   </g>
   <g id="cell46">
  <circle cx="522.765" cy="610.694" r="8.41271" stroke-width="0.5" stroke="black" fill="green"/>
  <circle cx="522.765" cy="610.694" r="5.05167" stroke-width="0.5" stroke="black" fill="green"/>
   </g>
   <g id="cell47">
  <circle cx="496.401" cy="507.878" r="8.03527" stroke-width="0.5" stroke="black" fill="green"/>
  <circle cx="496.401" cy="507.878" r="4.86813" stroke-width="0.5" stroke="black" fill="green"/>
   </g>
   <g id="cell48">
  <circle cx="564.143" cy="603.12" r="8.41271" stroke-width="0.5" stroke="black" fill="green"/>
  <circle cx="564.143" cy="603.12" r="5.05167" stroke-width="0.5" stroke="black" fill="green"/>
   </g>
   <g id="cell49">
  <circle cx="429.837" cy="397.429" r="8.41271" stroke-width="0.5" stroke="black" fill="green"/>
  <circle cx="429.837" cy="397.429" r="5.05167" stroke-width="0.5" stroke="black" fill="green"/>
   </g>
   <g id="cell50">
  <circle cx="520.286" cy="516.555" r="8.41271" stroke-width="0.5" stroke="black" fill="cyan"/>
  <circle cx="520.286" cy="516.555" r="5.05167" stroke-width="0.5" stroke="black" fill="cyan"/>
   </g>
   <g id="cell51">
  <circle cx="402.653" cy="593.849" r="7.83019" stroke-width="0.5" stroke="black" fill="cyan"/>
  <circle cx="402.653" cy="593.849" r="4.75343" stroke-width="0.5" stroke="black" fill="cyan"/>
   </g>
   <g id="cell52">
  <circle cx="521.917" cy="429.314" r="8.41271" stroke-width="0.5" stroke="black" fill="cyan"/>
  <circle cx="521.917" cy="429.314" r="5.05167" stroke-width="0.5" stroke="black" fill="cyan"/>
   </g>
   <g id="cell53">
  <circle cx="570.929" cy="436.267" r="8.41271" stroke-width="0.5" stroke="black" fill="cyan"/>
  <circle cx="570.929" cy="436.267" r="5.05167" stroke-width="0.5" stroke="black" fill="cyan"/>
   </g>
   <g id="cell54">
  <circle cx="478.152" cy="424.167" r="8.41271" stroke-width="0.5" stroke="black" fill="cyan"/>
  <circle cx="478.152" cy="424.167" r="5.05167" stroke-width="0.5" stroke="black" fill="cyan"/>
   </g>
   <g id="cell55">
  <circle cx="527.684" cy="469.358" r="8.41271" stroke-width="0.5" stroke="black" fill="cyan"/>
  <circle cx="527.684" cy="469.358" r="5.05167" stroke-width="0.5" stroke="black" fill="cyan"/>
   </g>
   <g id="cell56">
  <circle cx="617.948" cy="522.184" r="8.41271" stroke-width="0.5" stroke="black" fill="cyan"/>
  <circle cx="617.948" cy="522.184" r="5.05167" stroke-width="0.5" stroke="black" fill="cyan"/>
   </g>
   <g id="cell57">
  <circle cx="416.924" cy="617.466" r="8.41271" stroke-width="0.5" stroke="black" fill="cyan"/>
  <circle cx="416.924" cy="617.466" r="5.05167" stroke-width="0.5" stroke="black" fill="cyan"/>
   </g>
   <g id="cell58">
  <circle cx="549.741" cy="478.766" r="8.41271" stroke-width="0.5" stroke="black" fill="cyan"/>
  <circle cx="549.741" cy="478.766" r="5.05167" stroke-width="0.5" stroke="black" fill="cyan"/>
   </g>
   <g id="cell59">
  <circle cx="385.463" cy="439.803" r="8.41271" stroke-width="0.5" stroke="black" fill="cyan"/>
  <circle cx="385.463" cy="439.803" r="5.05167" stroke-width="0.5" stroke="black" fill="cyan"/>
   </g>
   <g id="cell60">
  <circle cx="602.836" cy="473.454" r="7.70049" stroke-width="0.5" stroke="black" fill="cyan"/>
  <circle cx="602.836" cy="473.454" r="4.67828" stroke-width="0.5" stroke="black" fill="cyan"/>
   </g>
   <g id="cell61">
  <circle cx="552.376" cy="613.284" r="2.52098" stroke-width="0.5" stroke="black" fill="cyan"/>
  <circle cx="552.376" cy="613.284" r="2.229" stroke-width="0.5" stroke="black" fill="black"/>
   </g>
   <g id="cell62">
  <circle cx="526.48" cy="444.706" r="8.41271" stroke-width="0.5" stroke="black" fill="cyan"/>
  <circle cx="526.48" cy="444.706" r="5.05167" stroke-width="0.5" stroke="black" fill="cyan"/>
   </g>
   <g id="cell63">
  <circle cx="577.768" cy="546.446" r="8.41271" stroke-width="0.5" stroke="black" fill="cyan"/>
  <circle cx="577.768" cy="546.446" r="5.05167" stroke-width="0.5" stroke="black" fill="cyan"/>
   </g>
   <g id="cell64">
  <circle cx="509.962" cy="636.825" r="8.41271" stroke-width="0.5" stroke="black" fill="cyan"/>
  <circle cx="509.962" cy="636.825" r="5.05167" stroke-width="0.5" stroke="black" fill="cyan"/>
   </g>
   <g id="cell65">
  <circle cx="542.881" cy="464.309" r="8.41271" stroke-width="0.5" stroke="black" fill="cyan"/>
  <circle cx="542.881" cy="464.309" r="5.05167" stroke-width="0.5" stroke="black" fill="cyan"/>
   </g>
   <g id="cell66">
  <circle cx="536.356" cy="530.295" r="8.41271" stroke-width="0.5" stroke="black" fill="cyan"/>
  <circle cx="536.356" cy="530.295" r="5.05167" stroke-width="0.5" stroke="black" fill="cyan"/>
   </g>
   <g id="cell67">
  <circle cx="354.64" cy="492.683" r="8.41271" stroke-width="0.5" stroke="black" fill="cyan"/>
  <circle cx="354.64" cy="492.683" r="5.05167" stroke-width="0.5" stroke="black" fill="cyan"/>
   </g>
   <g id="cell68">
  <circle cx="562.576" cy="551.61" r="8.41271" stroke-width="0.5" stroke="black" fill="cyan"/>
  <circle cx="562.576" cy="551.61" r="5.05167" stroke-width="0.5" stroke="black" fill="cyan"/>
   </g>
   <g id="cell69">
  <circle cx="437.64" cy="464.521" r="8.41271" stroke-width="0.5" stroke="black" fill="cyan"/>
  <circle cx="437.64" cy="464.521" r="5.05167" stroke-width="0.5" stroke="black" fill="cyan"/>
   </g>
   <g id="cell70">
  <circle cx="575.442" cy="476.314" r="6.86652" stroke-width="0.5" stroke="black" fill="cyan"/>
  <circle cx="575.442" cy="476.314" r="4.14883" stroke-width="0.5" stroke="black" fill="cyan"/>
   </g>
   <g id="cell71">
  <circle cx="377.712" cy="520.989" r="8.41271" stroke-width="0.5" stroke="black" fill="cyan"/>
  <circle cx="377.712" cy="520.989" r="5.05167" stroke-width="0.5" stroke="black" fill="cyan"/>
   </g>
   <g id="cell72">
  <circle cx="536.126" cy="514.226" r="8.41271" stroke-width="0.5" stroke="black" fill="cyan"/>
  <circle cx="536.126" cy="514.226" r="5.05167" stroke-width="0.5" stroke="black" fill="cyan"/>
   </g>
   <g id="cell73">
  <circle cx="354.928" cy="546.811" r="6.67717" stroke-width="0.5" stroke="black" fill="cyan"/>
  <circle cx="354.928" cy="546.811" r="4.00951" stroke-width="0.5" stroke="black" fill="cyan"/>
   </g>
   <g id="cell74">
  <circle cx="542.095" cy="448.321" r="8.41271" stroke-width="0.5" stroke="black" fill="cyan"/>
  <circle cx="542.095" cy="448.321" r="5.05167" stroke-width="0.5" stroke="black" fill="cyan"/>
   </g>
   <g id="cell75">
  <circle cx="591.717" cy="498.109" r="7.28533" stroke-width="0.5" stroke="black" fill="magenta"/>
  <circle cx="591.717" cy="498.109" r="4.45412" stroke-width="0.5" stroke="black" fill="magenta"/>
   </g>
   <g id="cell76">
  <circle cx="645.612" cy="543.234" r="8.04604" stroke-width="0.5" stroke="black" fill="green"/>
  <circle cx="645.612" cy="543.234" r="4.87399" stroke-width="0.5" stroke="black" fill="green"/>
   </g>
   <g id="cell77">
  <circle cx="511.14" cy="503.871" r="8.03527" stroke-width="0.5" stroke="black" fill="green"/>
  <circle cx="511.14" cy="503.871" r="4.86813" stroke-width="0.5" stroke="black" fill="green"/>
   </g>
   <g id="cell78">
  <circle cx="372.764" cy="569.19" r="6.83321" stroke-width="0.5" stroke="black" fill="magenta"/>
  <circle cx="372.764" cy="569.19" r="4.17833" stroke-width="0.5" stroke="black" fill="magenta"/>
   </g>
   <g id="cell79">
  <circle cx="535.086" cy="585.617" r="6.88547" stroke-width="0.5" stroke="black" fill="green"/>
  <circle cx="535.086" cy="585.617" r="4.23749" stroke-width="0.5" stroke="black" fill="green"/>
   </g>
   <g id="cell80">
  <circle cx="454.116" cy="605.965" r="7.90853" stroke-width="0.5" stroke="black" fill="magenta"/>
  <circle cx="454.116" cy="605.965" r="4.79791" stroke-width="0.5" stroke="black" fill="magenta"/>
   </g>
   <g id="cell81">
  <circle cx="393.416" cy="605.509" r="7.83019" stroke-width="0.5" stroke="black" fill="cyan"/>
  <circle cx="393.416" cy="605.509" r="4.75343" stroke-width="0.5" stroke="black" fill="cyan"/>
   </g>
   <g id="cell82">
  <circle cx="588.454" cy="472.691" r="7.70049" stroke-width="0.5" stroke="black" fill="cyan"/>
  <circle cx="588.454" cy="472.691" r="4.67828" stroke-width="0.5" stroke="black" fill="cyan"/>
   </g>
   <g id="cell83">
  <circle cx="540.519" cy="598.026" r="7.45914" stroke-width="0.5" stroke="black" fill="green"/>
  <circle cx="540.519" cy="598.026" r="4.55914" stroke-width="0.5" stroke="black" fill="green"/>
   </g>
   <g id="cell84">
  <circle cx="490.301" cy="579.445" r="7.51976" stroke-width="0.5" stroke="black" fill="green"/>
  <circle cx="490.301" cy="579.445" r="4.57072" stroke-width="0.5" stroke="black" fill="green"/>
   </g>
   <g id="cell85">
  <circle cx="604.232" cy="503.982" r="7.28533" stroke-width="0.5" stroke="black" fill="magenta"/>
  <circle cx="604.232" cy="503.982" r="4.45412" stroke-width="0.5" stroke="black" fill="magenta"/>
   </g>
   <g id="cell86">
  <circle cx="526.997" cy="596.058" r="6.88547" stroke-width="0.5" stroke="black" fill="green"/>
  <circle cx="526.997" cy="596.058" r="4.23749" stroke-width="0.5" stroke="black" fill="green"/>
   </g>
   <g id="cell87">
  <circle cx="591.427" cy="599.201" r="7.3599" stroke-width="0.5" stroke="black" fill="magenta"/>
  <circle cx="591.427" cy="599.201" r="4.47294" stroke-width="0.5" stroke="black" fill="magenta"/>
   </g>
   <g id="cell88">
  <circle cx="381.473" cy="559.55" r="6.83321" stroke-width="0.5" stroke="black" fill="magenta"/>
  <circle cx="381.473" cy="559.55" r="4.17833" stroke-width="0.5" stroke="black" fill="magenta"/>
   </g>
   <g id="cell89">
  <circle cx="544.432" cy="410.381" r="5.7464" stroke-width="0.5" stroke="black" fill="green"/>
  <circle cx="544.432" cy="410.381" r="3.50041" stroke-width="0.5" stroke="black" fill="green"/>
   </g>
   <g id="cell90">
  <circle cx="562.996" cy="473.661" r="6.86652" stroke-width="0.5" stroke="black" fill="cyan"/>
  <circle cx="562.996" cy="473.661" r="4.14883" stroke-width="0.5" stroke="black" fill="cyan"/>
   </g>
   <g id="cell91">
  <circle cx="543.78" cy="399.51" r="5.7464" stroke-width="0.5" stroke="black" fill="green"/>
  <circle cx="543.78" cy="399.51" r="3.50041" stroke-width="0.5" stroke="black" fill="green"/>
   </g>
   <g id="cell92">
  <circle cx="640.43" cy="563.138" r="6.40332" stroke-width="0.5" stroke="black" fill="green"/>
  <circle cx="640.43" cy="563.138" r="3.8803" stroke-width="0.5" stroke="black" fill="green"/>
   </g>
   <g id="cell93">
  <circle cx="366.19" cy="544.471" r="6.67717" stroke-width="0.5" stroke="black" fill="cyan"/>
  <circle cx="366.19" cy="544.471" r="4.00951" stroke-width="0.5" stroke="black" fill="cyan"/>
   </g>
  </g>
 </g>
  <rect x="775" y="1035" width="200" height="10" stroke-width="2" stroke="rgb(255,255,255)" fill="rgb(0,0,0)"/>
  <text x="781.25" y="1028.75"
   font-family="Arial" font-size="25" fill="black" >
   200 &#956;m
  </text>
  <text x="25" y="1045"
   font-family="Arial" font-size="18.75" fill="black" >
   0 days, 0 hours, 0 minutes, and 9.3658 seconds
  </text>
  <rect x="0" y="70" width="1000" height="1000" stroke-width="2" stroke="rgb(0,0,0)" fill="none"/>
</svg>
