<?xml version="1.0" encoding="UTF-8" standalone="no"?>
<!-- Created with PhysiCell (http://PhysiCell.MathCancer.org/) -->
<svg 
 xmlns:dc="http://purl.org/dc/elements/1.1/" 
 xmlns:cc="http://creativecommons.org/ns#" 
 xmlns:rdf="http://www.w3.org/1999/02/22-rdf-syntax-ns#" 
 xmlns:svg="http://www.w3.org/2000/svg" 
 xmlns="http://www.w3.org/2000/svg" 
 version="1.1" 
 width="1000" 
 height="1070" 
 id="svg2">
  <rect x="0" y="0" width="1000" height="1070" stroke-width="2" stroke="white" fill="white"/>
  <text x="12.5" y="30"
   font-family="Arial" font-size="25" fill="black" >
   Current time: 1 days, 1 hours, and 0.00 minutes, z = 0.00 &#956;m
  </text>
  <text x="12.5" y="57.5"
   font-family="Arial" font-size="23.75" fill="black" >
   164 agents
  </text>
 <g id="tissue" 
    transform="translate(0,1070) scale(1,-1)">
  <g id="ECM">
  </g>
  <g id="cells">
   <g id="cell0">
  <circle cx="513.717" cy="532.426" r="8.41271" stroke-width="0.5" stroke="black" fill="magenta"/>
  <circle cx="513.717" cy="532.426" r="5.05167" stroke-width="0.5" stroke="black" fill="magenta"/>
   </g>
   <g id="cell1">
  <circle cx="603.536" cy="537.193" r="8.41271" stroke-width="0.5" stroke="black" fill="magenta"/>
  <circle cx="603.536" cy="537.193" r="5.05167" stroke-width="0.5" stroke="black" fill="magenta"/>
   </g>
   <g id="cell2">
  <circle cx="508.054" cy="601.75" r="8.41271" stroke-width="0.5" stroke="black" fill="magenta"/>
  <circle cx="508.054" cy="601.75" r="5.05167" stroke-width="0.5" stroke="black" fill="magenta"/>
   </g>
   <g id="cell3">
  <circle cx="528.569" cy="552.68" r="7.38797" stroke-width="0.5" stroke="black" fill="magenta"/>
  <circle cx="528.569" cy="552.68" r="4.49029" stroke-width="0.5" stroke="black" fill="magenta"/>
   </g>
   <g id="cell4">
  <circle cx="481.375" cy="439.863" r="8.41271" stroke-width="0.5" stroke="black" fill="magenta"/>
  <circle cx="481.375" cy="439.863" r="5.05167" stroke-width="0.5" stroke="black" fill="magenta"/>
   </g>
   <g id="cell5">
  <circle cx="464.046" cy="489.312" r="8.41271" stroke-width="0.5" stroke="black" fill="magenta"/>
  <circle cx="464.046" cy="489.312" r="5.05167" stroke-width="0.5" stroke="black" fill="magenta"/>
   </g>
   <g id="cell6">
  <circle cx="586.583" cy="512.598" r="8.34559" stroke-width="0.5" stroke="black" fill="magenta"/>
  <circle cx="586.583" cy="512.598" r="5.02617" stroke-width="0.5" stroke="black" fill="magenta"/>
   </g>
   <g id="cell7">
  <circle cx="500.969" cy="459.797" r="1.28316" stroke-width="0.5" stroke="black" fill="magenta"/>
  <circle cx="500.969" cy="459.797" r="1.2757" stroke-width="0.5" stroke="black" fill="black"/>
   </g>
   <g id="cell8">
  <circle cx="383.292" cy="529.376" r="7.75912" stroke-width="0.5" stroke="black" fill="magenta"/>
  <circle cx="383.292" cy="529.376" r="4.71248" stroke-width="0.5" stroke="black" fill="magenta"/>
   </g>
   <g id="cell9">
  <circle cx="464.351" cy="595.971" r="2.90976" stroke-width="0.5" stroke="black" fill="magenta"/>
  <circle cx="464.351" cy="595.971" r="2.42522" stroke-width="0.5" stroke="black" fill="black"/>
   </g>
   <g id="cell10">
  <circle cx="583.447" cy="392.105" r="2.1864" stroke-width="0.5" stroke="black" fill="magenta"/>
  <circle cx="583.447" cy="392.105" r="2.0266" stroke-width="0.5" stroke="black" fill="black"/>
   </g>
   <g id="cell11">
  <circle cx="597.797" cy="573.625" r="7.26078" stroke-width="0.5" stroke="black" fill="magenta"/>
  <circle cx="597.797" cy="573.625" r="4.41429" stroke-width="0.5" stroke="black" fill="magenta"/>
   </g>
   <g id="cell12">
  <circle cx="505.851" cy="585.879" r="8.41271" stroke-width="0.5" stroke="black" fill="magenta"/>
  <circle cx="505.851" cy="585.879" r="5.05167" stroke-width="0.5" stroke="black" fill="magenta"/>
   </g>
   <g id="cell13">
  <circle cx="396.857" cy="570.966" r="8.41016" stroke-width="0.5" stroke="black" fill="magenta"/>
  <circle cx="396.857" cy="570.966" r="5.05098" stroke-width="0.5" stroke="black" fill="magenta"/>
   </g>
   <g id="cell109">
  <circle cx="375.989" cy="444.019" r="8.37092" stroke-width="0.5" stroke="black" fill="cyan"/>
  <circle cx="375.989" cy="444.019" r="5.03613" stroke-width="0.5" stroke="black" fill="cyan"/>
   </g>
   <g id="cell15">
  <circle cx="379.843" cy="474.695" r="5.19915" stroke-width="0.5" stroke="black" fill="magenta"/>
  <circle cx="379.843" cy="474.695" r="3.42443" stroke-width="0.5" stroke="black" fill="black"/>
   </g>
   <g id="cell16">
  <circle cx="420.227" cy="427.907" r="8.16012" stroke-width="0.5" stroke="black" fill="magenta"/>
  <circle cx="420.227" cy="427.907" r="4.93702" stroke-width="0.5" stroke="black" fill="magenta"/>
   </g>
   <g id="cell17">
  <circle cx="569.322" cy="498.527" r="6.95901" stroke-width="0.5" stroke="black" fill="magenta"/>
  <circle cx="569.322" cy="498.527" r="4.21341" stroke-width="0.5" stroke="black" fill="magenta"/>
   </g>
   <g id="cell18">
  <circle cx="509.588" cy="386.037" r="2.02564" stroke-width="0.5" stroke="black" fill="magenta"/>
  <circle cx="509.588" cy="386.037" r="1.91233" stroke-width="0.5" stroke="black" fill="black"/>
   </g>
   <g id="cell19">
  <circle cx="453.825" cy="554.739" r="8.39203" stroke-width="0.5" stroke="black" fill="magenta"/>
  <circle cx="453.825" cy="554.739" r="5.0446" stroke-width="0.5" stroke="black" fill="magenta"/>
   </g>
   <g id="cell20">
  <circle cx="531.757" cy="419.834" r="8.41271" stroke-width="0.5" stroke="black" fill="magenta"/>
  <circle cx="531.757" cy="419.834" r="5.05167" stroke-width="0.5" stroke="black" fill="magenta"/>
   </g>
   <g id="cell21">
  <circle cx="463.901" cy="635.234" r="8.41271" stroke-width="0.5" stroke="black" fill="magenta"/>
  <circle cx="463.901" cy="635.234" r="5.05167" stroke-width="0.5" stroke="black" fill="magenta"/>
   </g>
   <g id="cell22">
  <circle cx="556.2" cy="493.295" r="8.41271" stroke-width="0.5" stroke="black" fill="magenta"/>
  <circle cx="556.2" cy="493.295" r="5.05167" stroke-width="0.5" stroke="black" fill="magenta"/>
   </g>
   <g id="cell23">
  <circle cx="548.056" cy="508.087" r="5.67419" stroke-width="0.5" stroke="black" fill="magenta"/>
  <circle cx="548.056" cy="508.087" r="3.48078" stroke-width="0.5" stroke="black" fill="magenta"/>
   </g>
   <g id="cell124">
  <circle cx="557.837" cy="455.264" r="8.11928" stroke-width="0.5" stroke="black" fill="cyan"/>
  <circle cx="557.837" cy="455.264" r="4.91857" stroke-width="0.5" stroke="black" fill="cyan"/>
   </g>
   <g id="cell25">
  <circle cx="637.449" cy="554.327" r="8.39042" stroke-width="0.5" stroke="black" fill="green"/>
  <circle cx="637.449" cy="554.327" r="5.04438" stroke-width="0.5" stroke="black" fill="green"/>
   </g>
   <g id="cell26">
  <circle cx="556.712" cy="400.031" r="8.40427" stroke-width="0.5" stroke="black" fill="green"/>
  <circle cx="556.712" cy="400.031" r="5.04906" stroke-width="0.5" stroke="black" fill="green"/>
   </g>
   <g id="cell27">
  <circle cx="457.446" cy="388.678" r="8.41271" stroke-width="0.5" stroke="black" fill="green"/>
  <circle cx="457.446" cy="388.678" r="5.05167" stroke-width="0.5" stroke="black" fill="green"/>
   </g>
   <g id="cell28">
  <circle cx="426.003" cy="526.026" r="8.41271" stroke-width="0.5" stroke="black" fill="green"/>
  <circle cx="426.003" cy="526.026" r="5.05167" stroke-width="0.5" stroke="black" fill="green"/>
   </g>
   <g id="cell29">
  <circle cx="441.218" cy="510.071" r="8.20689" stroke-width="0.5" stroke="black" fill="green"/>
  <circle cx="441.218" cy="510.071" r="4.95867" stroke-width="0.5" stroke="black" fill="green"/>
   </g>
   <g id="cell126">
  <circle cx="528.995" cy="506.856" r="8.2761" stroke-width="0.5" stroke="black" fill="green"/>
  <circle cx="528.995" cy="506.856" r="4.99664" stroke-width="0.5" stroke="black" fill="green"/>
   </g>
   <g id="cell31">
  <circle cx="414.473" cy="537.006" r="8.35727" stroke-width="0.5" stroke="black" fill="green"/>
  <circle cx="414.473" cy="537.006" r="5.03034" stroke-width="0.5" stroke="black" fill="green"/>
   </g>
   <g id="cell32">
  <circle cx="419.237" cy="486.661" r="7.81315" stroke-width="0.5" stroke="black" fill="green"/>
  <circle cx="419.237" cy="486.661" r="4.74367" stroke-width="0.5" stroke="black" fill="green"/>
   </g>
   <g id="cell33">
  <circle cx="494.145" cy="423.184" r="8.41271" stroke-width="0.5" stroke="black" fill="green"/>
  <circle cx="494.145" cy="423.184" r="5.05167" stroke-width="0.5" stroke="black" fill="green"/>
   </g>
   <g id="cell34">
  <circle cx="389.999" cy="449.284" r="7.29112" stroke-width="0.5" stroke="black" fill="green"/>
  <circle cx="389.999" cy="449.284" r="4.44722" stroke-width="0.5" stroke="black" fill="green"/>
   </g>
   <g id="cell35">
  <circle cx="549.094" cy="549.38" r="8.41271" stroke-width="0.5" stroke="black" fill="green"/>
  <circle cx="549.094" cy="549.38" r="5.05167" stroke-width="0.5" stroke="black" fill="green"/>
   </g>
   <g id="cell36">
  <circle cx="385.776" cy="582.721" r="8.41271" stroke-width="0.5" stroke="black" fill="green"/>
  <circle cx="385.776" cy="582.721" r="5.05167" stroke-width="0.5" stroke="black" fill="green"/>
   </g>
   <g id="cell37">
  <circle cx="634.871" cy="460.618" r="8.41271" stroke-width="0.5" stroke="black" fill="green"/>
  <circle cx="634.871" cy="460.618" r="5.05167" stroke-width="0.5" stroke="black" fill="green"/>
   </g>
   <g id="cell38">
  <circle cx="542.966" cy="612.462" r="8.19335" stroke-width="0.5" stroke="black" fill="green"/>
  <circle cx="542.966" cy="612.462" r="4.95209" stroke-width="0.5" stroke="black" fill="green"/>
   </g>
   <g id="cell39">
  <circle cx="617.101" cy="484.693" r="8.41271" stroke-width="0.5" stroke="black" fill="green"/>
  <circle cx="617.101" cy="484.693" r="5.05167" stroke-width="0.5" stroke="black" fill="green"/>
   </g>
   <g id="cell40">
  <circle cx="482.305" cy="566.639" r="8.40731" stroke-width="0.5" stroke="black" fill="green"/>
  <circle cx="482.305" cy="566.639" r="5.05008" stroke-width="0.5" stroke="black" fill="green"/>
   </g>
   <g id="cell41">
  <circle cx="365.099" cy="480.229" r="8.41271" stroke-width="0.5" stroke="black" fill="green"/>
  <circle cx="365.099" cy="480.229" r="5.05167" stroke-width="0.5" stroke="black" fill="green"/>
   </g>
   <g id="cell42">
  <circle cx="438.95" cy="494.49" r="8.41271" stroke-width="0.5" stroke="black" fill="green"/>
  <circle cx="438.95" cy="494.49" r="5.05167" stroke-width="0.5" stroke="black" fill="green"/>
   </g>
   <g id="cell43">
  <circle cx="558.043" cy="439.952" r="8.41271" stroke-width="0.5" stroke="black" fill="green"/>
  <circle cx="558.043" cy="439.952" r="5.05167" stroke-width="0.5" stroke="black" fill="green"/>
   </g>
   <g id="cell44">
  <circle cx="471.195" cy="622.118" r="7.38797" stroke-width="0.5" stroke="black" fill="green"/>
  <circle cx="471.195" cy="622.118" r="4.49029" stroke-width="0.5" stroke="black" fill="green"/>
   </g>
   <g id="cell45">
  <circle cx="426.124" cy="565.367" r="8.22925" stroke-width="0.5" stroke="black" fill="green"/>
  <circle cx="426.124" cy="565.367" r="4.96993" stroke-width="0.5" stroke="black" fill="green"/>
   </g>
   <g id="cell46">
  <circle cx="519.143" cy="613.314" r="8.41271" stroke-width="0.5" stroke="black" fill="green"/>
  <circle cx="519.143" cy="613.314" r="5.05167" stroke-width="0.5" stroke="black" fill="green"/>
   </g>
   <g id="cell47">
  <circle cx="490.1" cy="503.728" r="8.29546" stroke-width="0.5" stroke="black" fill="green"/>
  <circle cx="490.1" cy="503.728" r="5.00246" stroke-width="0.5" stroke="black" fill="green"/>
   </g>
   <g id="cell48">
  <circle cx="562.445" cy="602.587" r="8.41271" stroke-width="0.5" stroke="black" fill="green"/>
  <circle cx="562.445" cy="602.587" r="5.05167" stroke-width="0.5" stroke="black" fill="green"/>
   </g>
   <g id="cell49">
  <circle cx="427.847" cy="389.662" r="8.41271" stroke-width="0.5" stroke="black" fill="green"/>
  <circle cx="427.847" cy="389.662" r="5.05167" stroke-width="0.5" stroke="black" fill="green"/>
   </g>
   <g id="cell50">
  <circle cx="518.182" cy="517.667" r="5.95973" stroke-width="0.5" stroke="black" fill="cyan"/>
  <circle cx="518.182" cy="517.667" r="3.76978" stroke-width="0.5" stroke="black" fill="black"/>
   </g>
   <g id="cell51">
  <circle cx="419.007" cy="596.812" r="8.36669" stroke-width="0.5" stroke="black" fill="cyan"/>
  <circle cx="419.007" cy="596.812" r="5.03461" stroke-width="0.5" stroke="black" fill="cyan"/>
   </g>
   <g id="cell52">
  <circle cx="516.173" cy="423.897" r="8.41271" stroke-width="0.5" stroke="black" fill="cyan"/>
  <circle cx="516.173" cy="423.897" r="5.05167" stroke-width="0.5" stroke="black" fill="cyan"/>
   </g>
   <g id="cell53">
  <circle cx="578.675" cy="436.588" r="7.0093" stroke-width="0.5" stroke="black" fill="cyan"/>
  <circle cx="578.675" cy="436.588" r="4.25173" stroke-width="0.5" stroke="black" fill="cyan"/>
   </g>
   <g id="cell54">
  <circle cx="478.151" cy="424.167" r="8.41271" stroke-width="0.5" stroke="black" fill="cyan"/>
  <circle cx="478.151" cy="424.167" r="5.05167" stroke-width="0.5" stroke="black" fill="cyan"/>
   </g>
   <g id="cell55">
  <circle cx="529.253" cy="462.916" r="8.39316" stroke-width="0.5" stroke="black" fill="cyan"/>
  <circle cx="529.253" cy="462.916" r="5.04503" stroke-width="0.5" stroke="black" fill="cyan"/>
   </g>
   <g id="cell56">
  <circle cx="630.474" cy="521.686" r="8.39913" stroke-width="0.5" stroke="black" fill="cyan"/>
  <circle cx="630.474" cy="521.686" r="5.04725" stroke-width="0.5" stroke="black" fill="cyan"/>
   </g>
   <g id="cell57">
  <circle cx="416.528" cy="617.06" r="8.41271" stroke-width="0.5" stroke="black" fill="cyan"/>
  <circle cx="416.528" cy="617.06" r="5.05167" stroke-width="0.5" stroke="black" fill="cyan"/>
   </g>
   <g id="cell58">
  <circle cx="550.774" cy="478.417" r="8.41271" stroke-width="0.5" stroke="black" fill="cyan"/>
  <circle cx="550.774" cy="478.417" r="5.05167" stroke-width="0.5" stroke="black" fill="cyan"/>
   </g>
   <g id="cell59">
  <circle cx="384.335" cy="431.394" r="3.52566" stroke-width="0.5" stroke="black" fill="cyan"/>
  <circle cx="384.335" cy="431.394" r="2.68893" stroke-width="0.5" stroke="black" fill="black"/>
   </g>
   <g id="cell60">
  <circle cx="608.96" cy="471.154" r="8.40839" stroke-width="0.5" stroke="black" fill="cyan"/>
  <circle cx="608.96" cy="471.154" r="5.05043" stroke-width="0.5" stroke="black" fill="cyan"/>
   </g>
   <g id="cell121">
  <circle cx="452.482" cy="462.654" r="8.33768" stroke-width="0.5" stroke="black" fill="cyan"/>
  <circle cx="452.482" cy="462.654" r="5.02297" stroke-width="0.5" stroke="black" fill="cyan"/>
   </g>
   <g id="cell62">
  <circle cx="501.82" cy="451.174" r="7.85228" stroke-width="0.5" stroke="black" fill="cyan"/>
  <circle cx="501.82" cy="451.174" r="4.76837" stroke-width="0.5" stroke="black" fill="cyan"/>
   </g>
   <g id="cell63">
  <circle cx="578.893" cy="545.966" r="8.41271" stroke-width="0.5" stroke="black" fill="cyan"/>
  <circle cx="578.893" cy="545.966" r="5.05167" stroke-width="0.5" stroke="black" fill="cyan"/>
   </g>
   <g id="cell64">
  <circle cx="509.962" cy="636.825" r="8.41271" stroke-width="0.5" stroke="black" fill="cyan"/>
  <circle cx="509.962" cy="636.825" r="5.05167" stroke-width="0.5" stroke="black" fill="cyan"/>
   </g>
   <g id="cell65">
  <circle cx="544.91" cy="464.257" r="8.41271" stroke-width="0.5" stroke="black" fill="cyan"/>
  <circle cx="544.91" cy="464.257" r="5.05167" stroke-width="0.5" stroke="black" fill="cyan"/>
   </g>
   <g id="cell66">
  <circle cx="529.167" cy="528.437" r="8.26262" stroke-width="0.5" stroke="black" fill="cyan"/>
  <circle cx="529.167" cy="528.437" r="4.98642" stroke-width="0.5" stroke="black" fill="cyan"/>
   </g>
   <g id="cell67">
  <circle cx="354.765" cy="492.533" r="8.41271" stroke-width="0.5" stroke="black" fill="cyan"/>
  <circle cx="354.765" cy="492.533" r="5.05167" stroke-width="0.5" stroke="black" fill="cyan"/>
   </g>
   <g id="cell68">
  <circle cx="564.596" cy="553.12" r="8.41271" stroke-width="0.5" stroke="black" fill="cyan"/>
  <circle cx="564.596" cy="553.12" r="5.05167" stroke-width="0.5" stroke="black" fill="cyan"/>
   </g>
   <g id="cell69">
  <circle cx="441.792" cy="450.683" r="8.33768" stroke-width="0.5" stroke="black" fill="cyan"/>
  <circle cx="441.792" cy="450.683" r="5.02297" stroke-width="0.5" stroke="black" fill="cyan"/>
   </g>
   <g id="cell70">
  <circle cx="584.95" cy="478.905" r="6.80119" stroke-width="0.5" stroke="black" fill="cyan"/>
  <circle cx="584.95" cy="478.905" r="4.10464" stroke-width="0.5" stroke="black" fill="cyan"/>
   </g>
   <g id="cell71">
  <circle cx="375.478" cy="516.286" r="8.41271" stroke-width="0.5" stroke="black" fill="cyan"/>
  <circle cx="375.478" cy="516.286" r="5.05167" stroke-width="0.5" stroke="black" fill="cyan"/>
   </g>
   <g id="cell72">
  <circle cx="540.113" cy="517.519" r="8.41271" stroke-width="0.5" stroke="black" fill="cyan"/>
  <circle cx="540.113" cy="517.519" r="5.05167" stroke-width="0.5" stroke="black" fill="cyan"/>
   </g>
   <g id="cell73">
  <circle cx="356.531" cy="550.121" r="8.35546" stroke-width="0.5" stroke="black" fill="cyan"/>
  <circle cx="356.531" cy="550.121" r="5.03023" stroke-width="0.5" stroke="black" fill="cyan"/>
   </g>
   <g id="cell74">
  <circle cx="544.088" cy="448.533" r="8.41271" stroke-width="0.5" stroke="black" fill="cyan"/>
  <circle cx="544.088" cy="448.533" r="5.05167" stroke-width="0.5" stroke="black" fill="cyan"/>
   </g>
   <g id="cell75">
  <circle cx="589.225" cy="496.711" r="8.4061" stroke-width="0.5" stroke="black" fill="magenta"/>
  <circle cx="589.225" cy="496.711" r="5.04975" stroke-width="0.5" stroke="black" fill="magenta"/>
   </g>
   <g id="cell76">
  <circle cx="648.555" cy="534.646" r="6.70979" stroke-width="0.5" stroke="black" fill="green"/>
  <circle cx="648.555" cy="534.646" r="4.03386" stroke-width="0.5" stroke="black" fill="green"/>
   </g>
   <g id="cell77">
  <circle cx="504.939" cy="509.349" r="8.3673" stroke-width="0.5" stroke="black" fill="green"/>
  <circle cx="504.939" cy="509.349" r="5.03479" stroke-width="0.5" stroke="black" fill="green"/>
   </g>
   <g id="cell78">
  <circle cx="365.178" cy="569.262" r="8.40345" stroke-width="0.5" stroke="black" fill="magenta"/>
  <circle cx="365.178" cy="569.262" r="5.04887" stroke-width="0.5" stroke="black" fill="magenta"/>
   </g>
   <g id="cell79">
  <circle cx="538.536" cy="571.805" r="8.26245" stroke-width="0.5" stroke="black" fill="green"/>
  <circle cx="538.536" cy="571.805" r="4.98718" stroke-width="0.5" stroke="black" fill="green"/>
   </g>
   <g id="cell80">
  <circle cx="457.322" cy="602.305" r="7.02034" stroke-width="0.5" stroke="black" fill="magenta"/>
  <circle cx="457.322" cy="602.305" r="4.25577" stroke-width="0.5" stroke="black" fill="magenta"/>
   </g>
   <g id="cell81">
  <circle cx="395.154" cy="617.444" r="8.39244" stroke-width="0.5" stroke="black" fill="cyan"/>
  <circle cx="395.154" cy="617.444" r="5.04493" stroke-width="0.5" stroke="black" fill="cyan"/>
   </g>
   <g id="cell82">
  <circle cx="594.732" cy="468.265" r="7.16963" stroke-width="0.5" stroke="black" fill="cyan"/>
  <circle cx="594.732" cy="468.265" r="4.35624" stroke-width="0.5" stroke="black" fill="cyan"/>
   </g>
   <g id="cell83">
  <circle cx="547.34" cy="597.302" r="8.40711" stroke-width="0.5" stroke="black" fill="green"/>
  <circle cx="547.34" cy="597.302" r="5.05008" stroke-width="0.5" stroke="black" fill="green"/>
   </g>
   <g id="cell84">
  <circle cx="490.891" cy="580.155" r="8.40731" stroke-width="0.5" stroke="black" fill="green"/>
  <circle cx="490.891" cy="580.155" r="5.05008" stroke-width="0.5" stroke="black" fill="green"/>
   </g>
   <g id="cell85">
  <circle cx="613.987" cy="499.759" r="7.94675" stroke-width="0.5" stroke="black" fill="magenta"/>
  <circle cx="613.987" cy="499.759" r="4.82027" stroke-width="0.5" stroke="black" fill="magenta"/>
   </g>
   <g id="cell86">
  <circle cx="523.599" cy="597.948" r="8.40419" stroke-width="0.5" stroke="black" fill="green"/>
  <circle cx="523.599" cy="597.948" r="5.04918" stroke-width="0.5" stroke="black" fill="green"/>
   </g>
   <g id="cell87">
  <circle cx="589.887" cy="609.224" r="7.71677" stroke-width="0.5" stroke="black" fill="magenta"/>
  <circle cx="589.887" cy="609.224" r="4.68882" stroke-width="0.5" stroke="black" fill="magenta"/>
   </g>
   <g id="cell88">
  <circle cx="371.987" cy="554.796" r="8.35099" stroke-width="0.5" stroke="black" fill="magenta"/>
  <circle cx="371.987" cy="554.796" r="5.02823" stroke-width="0.5" stroke="black" fill="magenta"/>
   </g>
   <g id="cell89">
  <circle cx="545.518" cy="411.457" r="8.39762" stroke-width="0.5" stroke="black" fill="green"/>
  <circle cx="545.518" cy="411.457" r="5.04691" stroke-width="0.5" stroke="black" fill="green"/>
   </g>
   <g id="cell90">
  <circle cx="566.008" cy="480.525" r="8.33403" stroke-width="0.5" stroke="black" fill="cyan"/>
  <circle cx="566.008" cy="480.525" r="5.02075" stroke-width="0.5" stroke="black" fill="cyan"/>
   </g>
   <g id="cell91">
  <circle cx="541.092" cy="396.29" r="8.39762" stroke-width="0.5" stroke="black" fill="green"/>
  <circle cx="541.092" cy="396.29" r="5.04691" stroke-width="0.5" stroke="black" fill="green"/>
   </g>
   <g id="cell92">
  <circle cx="641.815" cy="569.357" r="8.39942" stroke-width="0.5" stroke="black" fill="green"/>
  <circle cx="641.815" cy="569.357" r="5.04746" stroke-width="0.5" stroke="black" fill="green"/>
   </g>
   <g id="cell93">
  <circle cx="368.255" cy="539.296" r="8.40022" stroke-width="0.5" stroke="black" fill="cyan"/>
  <circle cx="368.255" cy="539.296" r="5.04764" stroke-width="0.5" stroke="black" fill="cyan"/>
   </g>
   <g id="cell94">
  <circle cx="615.038" cy="525.974" r="8.39913" stroke-width="0.5" stroke="black" fill="cyan"/>
  <circle cx="615.038" cy="525.974" r="5.04725" stroke-width="0.5" stroke="black" fill="cyan"/>
   </g>
   <g id="cell95">
  <circle cx="577.404" cy="585.027" r="8.39514" stroke-width="0.5" stroke="black" fill="magenta"/>
  <circle cx="577.404" cy="585.027" r="5.046" stroke-width="0.5" stroke="black" fill="magenta"/>
   </g>
   <g id="cell96">
  <circle cx="598.292" cy="483.065" r="8.39617" stroke-width="0.5" stroke="black" fill="cyan"/>
  <circle cx="598.292" cy="483.065" r="5.04634" stroke-width="0.5" stroke="black" fill="cyan"/>
   </g>
   <g id="cell97">
  <circle cx="623.623" cy="547.131" r="8.39042" stroke-width="0.5" stroke="black" fill="green"/>
  <circle cx="623.623" cy="547.131" r="5.04438" stroke-width="0.5" stroke="black" fill="green"/>
   </g>
   <g id="cell98">
  <circle cx="599.584" cy="521.841" r="8.39603" stroke-width="0.5" stroke="black" fill="magenta"/>
  <circle cx="599.584" cy="521.841" r="5.04622" stroke-width="0.5" stroke="black" fill="magenta"/>
   </g>
   <g id="cell99">
  <circle cx="567.711" cy="427.077" r="8.39422" stroke-width="0.5" stroke="black" fill="cyan"/>
  <circle cx="567.711" cy="427.077" r="5.04543" stroke-width="0.5" stroke="black" fill="cyan"/>
   </g>
   <g id="cell100">
  <circle cx="375.774" cy="594.883" r="8.34495" stroke-width="0.5" stroke="black" fill="cyan"/>
  <circle cx="375.774" cy="594.883" r="5.0265" stroke-width="0.5" stroke="black" fill="cyan"/>
   </g>
   <g id="cell101">
  <circle cx="540" cy="434.011" r="7.80921" stroke-width="0.5" stroke="black" fill="cyan"/>
  <circle cx="540" cy="434.011" r="4.75185" stroke-width="0.5" stroke="black" fill="cyan"/>
   </g>
   <g id="cell102">
  <circle cx="504.811" cy="473.975" r="8.2293" stroke-width="0.5" stroke="black" fill="cyan"/>
  <circle cx="504.811" cy="473.975" r="4.97154" stroke-width="0.5" stroke="black" fill="cyan"/>
   </g>
   <g id="cell103">
  <circle cx="467.937" cy="531.097" r="8.22994" stroke-width="0.5" stroke="black" fill="magenta"/>
  <circle cx="467.937" cy="531.097" r="4.97494" stroke-width="0.5" stroke="black" fill="magenta"/>
   </g>
   <g id="cell104">
  <circle cx="405.558" cy="605.363" r="8.37939" stroke-width="0.5" stroke="black" fill="cyan"/>
  <circle cx="405.558" cy="605.363" r="5.04026" stroke-width="0.5" stroke="black" fill="cyan"/>
   </g>
   <g id="cell105">
  <circle cx="513.61" cy="461.256" r="8.38823" stroke-width="0.5" stroke="black" fill="magenta"/>
  <circle cx="513.61" cy="461.256" r="5.04313" stroke-width="0.5" stroke="black" fill="magenta"/>
   </g>
   <g id="cell106">
  <circle cx="436.128" cy="403.333" r="8.38454" stroke-width="0.5" stroke="black" fill="magenta"/>
  <circle cx="436.128" cy="403.333" r="5.04168" stroke-width="0.5" stroke="black" fill="magenta"/>
   </g>
   <g id="cell107">
  <circle cx="424.313" cy="458.015" r="8.33041" stroke-width="0.5" stroke="black" fill="cyan"/>
  <circle cx="424.313" cy="458.015" r="5.01978" stroke-width="0.5" stroke="black" fill="cyan"/>
   </g>
   <g id="cell108">
  <circle cx="523.599" cy="381.245" r="8.37537" stroke-width="0.5" stroke="black" fill="magenta"/>
  <circle cx="523.599" cy="381.245" r="5.03798" stroke-width="0.5" stroke="black" fill="magenta"/>
   </g>
   <g id="cell110">
  <circle cx="515.212" cy="399.64" r="8.34966" stroke-width="0.5" stroke="black" fill="magenta"/>
  <circle cx="515.212" cy="399.64" r="5.0282" stroke-width="0.5" stroke="black" fill="magenta"/>
   </g>
   <g id="cell111">
  <circle cx="516.009" cy="498.54" r="8.2761" stroke-width="0.5" stroke="black" fill="green"/>
  <circle cx="516.009" cy="498.54" r="4.99664" stroke-width="0.5" stroke="black" fill="green"/>
   </g>
   <g id="cell112">
  <circle cx="399.974" cy="585.452" r="7.08604" stroke-width="0.5" stroke="black" fill="cyan"/>
  <circle cx="399.974" cy="585.452" r="4.30712" stroke-width="0.5" stroke="black" fill="cyan"/>
   </g>
   <g id="cell113">
  <circle cx="340.728" cy="547.29" r="8.35546" stroke-width="0.5" stroke="black" fill="cyan"/>
  <circle cx="340.728" cy="547.29" r="5.03023" stroke-width="0.5" stroke="black" fill="cyan"/>
   </g>
   <g id="cell114">
  <circle cx="381.371" cy="609.604" r="8.32615" stroke-width="0.5" stroke="black" fill="cyan"/>
  <circle cx="381.371" cy="609.604" r="5.01894" stroke-width="0.5" stroke="black" fill="cyan"/>
   </g>
   <g id="cell115">
  <circle cx="391.619" cy="597.516" r="8.32615" stroke-width="0.5" stroke="black" fill="cyan"/>
  <circle cx="391.619" cy="597.516" r="5.01894" stroke-width="0.5" stroke="black" fill="cyan"/>
   </g>
   <g id="cell116">
  <circle cx="399.946" cy="543.43" r="8.35727" stroke-width="0.5" stroke="black" fill="green"/>
  <circle cx="399.946" cy="543.43" r="5.03034" stroke-width="0.5" stroke="black" fill="green"/>
   </g>
   <g id="cell117">
  <circle cx="380.903" cy="567.935" r="8.30989" stroke-width="0.5" stroke="black" fill="magenta"/>
  <circle cx="380.903" cy="567.935" r="5.01137" stroke-width="0.5" stroke="black" fill="magenta"/>
   </g>
   <g id="cell118">
  <circle cx="398.444" cy="437.163" r="8.33455" stroke-width="0.5" stroke="black" fill="cyan"/>
  <circle cx="398.444" cy="437.163" r="5.02178" stroke-width="0.5" stroke="black" fill="cyan"/>
   </g>
   <g id="cell119">
  <circle cx="570.794" cy="512.526" r="8.34559" stroke-width="0.5" stroke="black" fill="magenta"/>
  <circle cx="570.794" cy="512.526" r="5.02617" stroke-width="0.5" stroke="black" fill="magenta"/>
   </g>
   <g id="cell120">
  <circle cx="505.688" cy="488.464" r="7.39041" stroke-width="0.5" stroke="black" fill="green"/>
  <circle cx="505.688" cy="488.464" r="4.50302" stroke-width="0.5" stroke="black" fill="green"/>
   </g>
   <g id="cell122">
  <circle cx="439.173" cy="479.384" r="7.65154" stroke-width="0.5" stroke="black" fill="cyan"/>
  <circle cx="439.173" cy="479.384" r="4.65876" stroke-width="0.5" stroke="black" fill="cyan"/>
   </g>
   <g id="cell123">
  <circle cx="391.032" cy="556.313" r="8.30989" stroke-width="0.5" stroke="black" fill="magenta"/>
  <circle cx="391.032" cy="556.313" r="5.01137" stroke-width="0.5" stroke="black" fill="magenta"/>
   </g>
   <g id="cell125">
  <circle cx="534.525" cy="477.547" r="8.32543" stroke-width="0.5" stroke="black" fill="magenta"/>
  <circle cx="534.525" cy="477.547" r="5.01617" stroke-width="0.5" stroke="black" fill="magenta"/>
   </g>
   <g id="cell127">
  <circle cx="439.776" cy="533.809" r="8.29559" stroke-width="0.5" stroke="black" fill="magenta"/>
  <circle cx="439.776" cy="533.809" r="5.00363" stroke-width="0.5" stroke="black" fill="magenta"/>
   </g>
   <g id="cell128">
  <circle cx="552.208" cy="425.478" r="8.29045" stroke-width="0.5" stroke="black" fill="cyan"/>
  <circle cx="552.208" cy="425.478" r="5.00111" stroke-width="0.5" stroke="black" fill="cyan"/>
   </g>
   <g id="cell129">
  <circle cx="492.861" cy="519.336" r="8.29546" stroke-width="0.5" stroke="black" fill="green"/>
  <circle cx="492.861" cy="519.336" r="5.00246" stroke-width="0.5" stroke="black" fill="green"/>
   </g>
   <g id="cell130">
  <circle cx="454.518" cy="538.891" r="8.22994" stroke-width="0.5" stroke="black" fill="magenta"/>
  <circle cx="454.518" cy="538.891" r="4.97494" stroke-width="0.5" stroke="black" fill="magenta"/>
   </g>
   <g id="cell131">
  <circle cx="535.179" cy="587.146" r="8.26245" stroke-width="0.5" stroke="black" fill="green"/>
  <circle cx="535.179" cy="587.146" r="4.98718" stroke-width="0.5" stroke="black" fill="green"/>
   </g>
   <g id="cell132">
  <circle cx="402.876" cy="456.67" r="7.63202" stroke-width="0.5" stroke="black" fill="green"/>
  <circle cx="402.876" cy="456.67" r="4.65092" stroke-width="0.5" stroke="black" fill="green"/>
   </g>
   <g id="cell133">
  <circle cx="544.158" cy="530.718" r="6.88227" stroke-width="0.5" stroke="black" fill="cyan"/>
  <circle cx="544.158" cy="530.718" r="4.18699" stroke-width="0.5" stroke="black" fill="cyan"/>
   </g>
   <g id="cell134">
  <circle cx="518.732" cy="481.272" r="8.2293" stroke-width="0.5" stroke="black" fill="cyan"/>
  <circle cx="518.732" cy="481.272" r="4.97154" stroke-width="0.5" stroke="black" fill="cyan"/>
   </g>
   <g id="cell135">
  <circle cx="406.051" cy="558.007" r="7.90054" stroke-width="0.5" stroke="black" fill="green"/>
  <circle cx="406.051" cy="558.007" r="4.80434" stroke-width="0.5" stroke="black" fill="green"/>
   </g>
   <g id="cell136">
  <circle cx="456.113" cy="508.782" r="7.64289" stroke-width="0.5" stroke="black" fill="green"/>
  <circle cx="456.113" cy="508.782" r="4.6691" stroke-width="0.5" stroke="black" fill="green"/>
   </g>
   <g id="cell137">
  <circle cx="531.566" cy="623.075" r="8.19335" stroke-width="0.5" stroke="black" fill="green"/>
  <circle cx="531.566" cy="623.075" r="4.95209" stroke-width="0.5" stroke="black" fill="green"/>
   </g>
   <g id="cell138">
  <circle cx="432.697" cy="418.681" r="8.16012" stroke-width="0.5" stroke="black" fill="magenta"/>
  <circle cx="432.697" cy="418.681" r="4.93702" stroke-width="0.5" stroke="black" fill="magenta"/>
   </g>
   <g id="cell139">
  <circle cx="568.48" cy="465.418" r="8.11928" stroke-width="0.5" stroke="black" fill="cyan"/>
  <circle cx="568.48" cy="465.418" r="4.91857" stroke-width="0.5" stroke="black" fill="cyan"/>
   </g>
   <g id="cell140">
  <circle cx="450.461" cy="522.599" r="8.02111" stroke-width="0.5" stroke="black" fill="green"/>
  <circle cx="450.461" cy="522.599" r="4.86958" stroke-width="0.5" stroke="black" fill="green"/>
   </g>
   <g id="cell141">
  <circle cx="419.536" cy="551.561" r="7.90054" stroke-width="0.5" stroke="black" fill="green"/>
  <circle cx="419.536" cy="551.561" r="4.80434" stroke-width="0.5" stroke="black" fill="green"/>
   </g>
   <g id="cell142">
  <circle cx="600.782" cy="506.584" r="7.94675" stroke-width="0.5" stroke="black" fill="magenta"/>
  <circle cx="600.782" cy="506.584" r="4.82027" stroke-width="0.5" stroke="black" fill="magenta"/>
   </g>
   <g id="cell143">
  <circle cx="525.726" cy="435.7" r="7.80921" stroke-width="0.5" stroke="black" fill="cyan"/>
  <circle cx="525.726" cy="435.7" r="4.75185" stroke-width="0.5" stroke="black" fill="cyan"/>
   </g>
   <g id="cell144">
  <circle cx="515.752" cy="446.262" r="7.85228" stroke-width="0.5" stroke="black" fill="cyan"/>
  <circle cx="515.752" cy="446.262" r="4.76837" stroke-width="0.5" stroke="black" fill="cyan"/>
   </g>
   <g id="cell145">
  <circle cx="467.75" cy="516.628" r="7.20966" stroke-width="0.5" stroke="black" fill="green"/>
  <circle cx="467.75" cy="516.628" r="4.42938" stroke-width="0.5" stroke="black" fill="green"/>
   </g>
   <g id="cell146">
  <circle cx="425.759" cy="473.415" r="7.81315" stroke-width="0.5" stroke="black" fill="green"/>
  <circle cx="425.759" cy="473.415" r="4.74367" stroke-width="0.5" stroke="black" fill="green"/>
   </g>
   <g id="cell147">
  <circle cx="382.827" cy="543.876" r="7.75912" stroke-width="0.5" stroke="black" fill="magenta"/>
  <circle cx="382.827" cy="543.876" r="4.71248" stroke-width="0.5" stroke="black" fill="magenta"/>
   </g>
   <g id="cell148">
  <circle cx="589.245" cy="594.645" r="7.71677" stroke-width="0.5" stroke="black" fill="magenta"/>
  <circle cx="589.245" cy="594.645" r="4.68882" stroke-width="0.5" stroke="black" fill="magenta"/>
   </g>
   <g id="cell149">
  <circle cx="529.024" cy="491.862" r="7.66894" stroke-width="0.5" stroke="black" fill="magenta"/>
  <circle cx="529.024" cy="491.862" r="4.66855" stroke-width="0.5" stroke="black" fill="magenta"/>
   </g>
   <g id="cell150">
  <circle cx="412.464" cy="467.546" r="7.63202" stroke-width="0.5" stroke="black" fill="green"/>
  <circle cx="412.464" cy="467.546" r="4.65092" stroke-width="0.5" stroke="black" fill="green"/>
   </g>
   <g id="cell151">
  <circle cx="437.638" cy="465.099" r="7.65154" stroke-width="0.5" stroke="black" fill="cyan"/>
  <circle cx="437.638" cy="465.099" r="4.65876" stroke-width="0.5" stroke="black" fill="cyan"/>
   </g>
   <g id="cell152">
  <circle cx="469.04" cy="503.159" r="7.20966" stroke-width="0.5" stroke="black" fill="green"/>
  <circle cx="469.04" cy="503.159" r="4.42938" stroke-width="0.5" stroke="black" fill="green"/>
   </g>
   <g id="cell153">
  <circle cx="542.101" cy="488.963" r="7.14903" stroke-width="0.5" stroke="black" fill="magenta"/>
  <circle cx="542.101" cy="488.963" r="4.38551" stroke-width="0.5" stroke="black" fill="magenta"/>
   </g>
   <g id="cell154">
  <circle cx="491.854" cy="488.924" r="7.39041" stroke-width="0.5" stroke="black" fill="green"/>
  <circle cx="491.854" cy="488.924" r="4.50302" stroke-width="0.5" stroke="black" fill="green"/>
   </g>
   <g id="cell155">
  <circle cx="484.671" cy="625.959" r="7.38797" stroke-width="0.5" stroke="black" fill="green"/>
  <circle cx="484.671" cy="625.959" r="4.49029" stroke-width="0.5" stroke="black" fill="green"/>
   </g>
   <g id="cell156">
  <circle cx="536.455" cy="541.38" r="7.38797" stroke-width="0.5" stroke="black" fill="magenta"/>
  <circle cx="536.455" cy="541.38" r="4.49029" stroke-width="0.5" stroke="black" fill="magenta"/>
   </g>
   <g id="cell157">
  <circle cx="390.274" cy="463.035" r="7.29112" stroke-width="0.5" stroke="black" fill="green"/>
  <circle cx="390.274" cy="463.035" r="4.44722" stroke-width="0.5" stroke="black" fill="green"/>
   </g>
   <g id="cell158">
  <circle cx="601.137" cy="586.967" r="7.26078" stroke-width="0.5" stroke="black" fill="magenta"/>
  <circle cx="601.137" cy="586.967" r="4.41429" stroke-width="0.5" stroke="black" fill="magenta"/>
   </g>
   <g id="cell159">
  <circle cx="586.083" cy="454.797" r="7.16963" stroke-width="0.5" stroke="black" fill="cyan"/>
  <circle cx="586.083" cy="454.797" r="4.35624" stroke-width="0.5" stroke="black" fill="cyan"/>
   </g>
   <g id="cell160">
  <circle cx="413.106" cy="583.411" r="7.08604" stroke-width="0.5" stroke="black" fill="cyan"/>
  <circle cx="413.106" cy="583.411" r="4.30712" stroke-width="0.5" stroke="black" fill="cyan"/>
   </g>
   <g id="cell161">
  <circle cx="448.666" cy="612.448" r="7.02034" stroke-width="0.5" stroke="black" fill="magenta"/>
  <circle cx="448.666" cy="612.448" r="4.25577" stroke-width="0.5" stroke="black" fill="magenta"/>
   </g>
   <g id="cell162">
  <circle cx="570.684" cy="447.353" r="7.0093" stroke-width="0.5" stroke="black" fill="cyan"/>
  <circle cx="570.684" cy="447.353" r="4.25173" stroke-width="0.5" stroke="black" fill="cyan"/>
   </g>
   <g id="cell163">
  <circle cx="555.71" cy="536.425" r="6.88227" stroke-width="0.5" stroke="black" fill="cyan"/>
  <circle cx="555.71" cy="536.425" r="4.18699" stroke-width="0.5" stroke="black" fill="cyan"/>
   </g>
   <g id="cell164">
  <circle cx="577.4" cy="488.84" r="6.95901" stroke-width="0.5" stroke="black" fill="magenta"/>
  <circle cx="577.4" cy="488.84" r="4.21341" stroke-width="0.5" stroke="black" fill="magenta"/>
   </g>
   <g id="cell165">
  <circle cx="581.9" cy="466.965" r="6.80119" stroke-width="0.5" stroke="black" fill="cyan"/>
  <circle cx="581.9" cy="466.965" r="4.10464" stroke-width="0.5" stroke="black" fill="cyan"/>
   </g>
   <g id="cell166">
  <circle cx="649.464" cy="547.153" r="6.70979" stroke-width="0.5" stroke="black" fill="green"/>
  <circle cx="649.464" cy="547.153" r="4.03386" stroke-width="0.5" stroke="black" fill="green"/>
   </g>
   <g id="cell167">
  <circle cx="544.09" cy="499.416" r="5.67419" stroke-width="0.5" stroke="black" fill="magenta"/>
  <circle cx="544.09" cy="499.416" r="3.48078" stroke-width="0.5" stroke="black" fill="magenta"/>
   </g>
  </g>
 </g>
  <rect x="775" y="1035" width="200" height="10" stroke-width="2" stroke="rgb(255,255,255)" fill="rgb(0,0,0)"/>
  <text x="781.25" y="1028.75"
   font-family="Arial" font-size="25" fill="black" >
   200 &#956;m
  </text>
  <text x="25" y="1045"
   font-family="Arial" font-size="18.75" fill="black" >
   0 days, 0 hours, 0 minutes, and 33.8908 seconds
  </text>
  <rect x="0" y="70" width="1000" height="1000" stroke-width="2" stroke="rgb(0,0,0)" fill="none"/>
</svg>
