<?xml version="1.0" encoding="UTF-8" standalone="no"?>
<!-- Created with PhysiCell (http://PhysiCell.MathCancer.org/) -->
<svg 
 xmlns:dc="http://purl.org/dc/elements/1.1/" 
 xmlns:cc="http://creativecommons.org/ns#" 
 xmlns:rdf="http://www.w3.org/1999/02/22-rdf-syntax-ns#" 
 xmlns:svg="http://www.w3.org/2000/svg" 
 xmlns="http://www.w3.org/2000/svg" 
 version="1.1" 
 width="1000" 
 height="1070" 
 id="svg2">
  <rect x="0" y="0" width="1000" height="1070" stroke-width="2" stroke="white" fill="white"/>
  <text x="12.5" y="30"
   font-family="Arial" font-size="25" fill="black" >
   Current time: 0 days, 8 hours, and 0.00 minutes, z = 0.00 &#956;m
  </text>
  <text x="12.5" y="57.5"
   font-family="Arial" font-size="23.75" fill="black" >
   99 agents
  </text>
 <g id="tissue" 
    transform="translate(0,1070) scale(1,-1)">
  <g id="ECM">
  </g>
  <g id="cells">
   <g id="cell0">
  <circle cx="513.166" cy="530.933" r="8.41271" stroke-width="0.5" stroke="black" fill="magenta"/>
  <circle cx="513.166" cy="530.933" r="5.05167" stroke-width="0.5" stroke="black" fill="magenta"/>
   </g>
   <g id="cell1">
  <circle cx="602.227" cy="532.343" r="8.41271" stroke-width="0.5" stroke="black" fill="magenta"/>
  <circle cx="602.227" cy="532.343" r="5.05167" stroke-width="0.5" stroke="black" fill="magenta"/>
   </g>
   <g id="cell2">
  <circle cx="510.713" cy="600.199" r="8.41271" stroke-width="0.5" stroke="black" fill="magenta"/>
  <circle cx="510.713" cy="600.199" r="5.05167" stroke-width="0.5" stroke="black" fill="magenta"/>
   </g>
   <g id="cell3">
  <circle cx="532.404" cy="545.88" r="8.41271" stroke-width="0.5" stroke="black" fill="magenta"/>
  <circle cx="532.404" cy="545.88" r="5.05167" stroke-width="0.5" stroke="black" fill="magenta"/>
   </g>
   <g id="cell4">
  <circle cx="481.375" cy="439.864" r="8.41271" stroke-width="0.5" stroke="black" fill="magenta"/>
  <circle cx="481.375" cy="439.864" r="5.05167" stroke-width="0.5" stroke="black" fill="magenta"/>
   </g>
   <g id="cell5">
  <circle cx="465.032" cy="493.3" r="8.41271" stroke-width="0.5" stroke="black" fill="magenta"/>
  <circle cx="465.032" cy="493.3" r="5.05167" stroke-width="0.5" stroke="black" fill="magenta"/>
   </g>
   <g id="cell6">
  <circle cx="586.849" cy="513.21" r="6.51386" stroke-width="0.5" stroke="black" fill="magenta"/>
  <circle cx="586.849" cy="513.21" r="3.94285" stroke-width="0.5" stroke="black" fill="magenta"/>
   </g>
   <g id="cell7">
  <circle cx="512.293" cy="464.85" r="8.41271" stroke-width="0.5" stroke="black" fill="magenta"/>
  <circle cx="512.293" cy="464.85" r="5.05167" stroke-width="0.5" stroke="black" fill="magenta"/>
   </g>
   <g id="cell8">
  <circle cx="380.621" cy="544.686" r="8.41271" stroke-width="0.5" stroke="black" fill="magenta"/>
  <circle cx="380.621" cy="544.686" r="5.05167" stroke-width="0.5" stroke="black" fill="magenta"/>
   </g>
   <g id="cell9">
  <circle cx="464.983" cy="595.401" r="8.03527" stroke-width="0.5" stroke="black" fill="magenta"/>
  <circle cx="464.983" cy="595.401" r="4.86813" stroke-width="0.5" stroke="black" fill="magenta"/>
   </g>
   <g id="cell10">
  <circle cx="583.447" cy="392.105" r="8.41271" stroke-width="0.5" stroke="black" fill="magenta"/>
  <circle cx="583.447" cy="392.105" r="5.05167" stroke-width="0.5" stroke="black" fill="magenta"/>
   </g>
   <g id="cell11">
  <circle cx="593.492" cy="585.341" r="6.17082" stroke-width="0.5" stroke="black" fill="magenta"/>
  <circle cx="593.492" cy="585.341" r="3.76319" stroke-width="0.5" stroke="black" fill="magenta"/>
   </g>
   <g id="cell12">
  <circle cx="505.293" cy="585.09" r="8.41271" stroke-width="0.5" stroke="black" fill="magenta"/>
  <circle cx="505.293" cy="585.09" r="5.05167" stroke-width="0.5" stroke="black" fill="magenta"/>
   </g>
   <g id="cell13">
  <circle cx="393.143" cy="568.058" r="8.10448" stroke-width="0.5" stroke="black" fill="magenta"/>
  <circle cx="393.143" cy="568.058" r="4.90539" stroke-width="0.5" stroke="black" fill="magenta"/>
   </g>
   <g id="cell14">
  <circle cx="529.123" cy="395.711" r="1.74522" stroke-width="0.5" stroke="black" fill="magenta"/>
  <circle cx="529.123" cy="395.711" r="1.69589" stroke-width="0.5" stroke="black" fill="black"/>
   </g>
   <g id="cell15">
  <circle cx="379.896" cy="475.017" r="8.41271" stroke-width="0.5" stroke="black" fill="magenta"/>
  <circle cx="379.896" cy="475.017" r="5.05167" stroke-width="0.5" stroke="black" fill="magenta"/>
   </g>
   <g id="cell16">
  <circle cx="428.948" cy="413.428" r="8.41271" stroke-width="0.5" stroke="black" fill="magenta"/>
  <circle cx="428.948" cy="413.428" r="5.05167" stroke-width="0.5" stroke="black" fill="magenta"/>
   </g>
   <g id="cell17">
  <circle cx="572.183" cy="490.808" r="8.41271" stroke-width="0.5" stroke="black" fill="magenta"/>
  <circle cx="572.183" cy="490.808" r="5.05167" stroke-width="0.5" stroke="black" fill="magenta"/>
   </g>
   <g id="cell18">
  <circle cx="516.013" cy="387.86" r="8.41271" stroke-width="0.5" stroke="black" fill="magenta"/>
  <circle cx="516.013" cy="387.86" r="5.05167" stroke-width="0.5" stroke="black" fill="magenta"/>
   </g>
   <g id="cell19">
  <circle cx="451.894" cy="539.462" r="8.41271" stroke-width="0.5" stroke="black" fill="magenta"/>
  <circle cx="451.894" cy="539.462" r="5.05167" stroke-width="0.5" stroke="black" fill="magenta"/>
   </g>
   <g id="cell20">
  <circle cx="532.668" cy="417.67" r="8.41271" stroke-width="0.5" stroke="black" fill="magenta"/>
  <circle cx="532.668" cy="417.67" r="5.05167" stroke-width="0.5" stroke="black" fill="magenta"/>
   </g>
   <g id="cell21">
  <circle cx="464.212" cy="634.718" r="8.41271" stroke-width="0.5" stroke="black" fill="magenta"/>
  <circle cx="464.212" cy="634.718" r="5.05167" stroke-width="0.5" stroke="black" fill="magenta"/>
   </g>
   <g id="cell22">
  <circle cx="556.391" cy="493.349" r="8.41271" stroke-width="0.5" stroke="black" fill="magenta"/>
  <circle cx="556.391" cy="493.349" r="5.05167" stroke-width="0.5" stroke="black" fill="magenta"/>
   </g>
   <g id="cell23">
  <circle cx="534.251" cy="483.923" r="8.41271" stroke-width="0.5" stroke="black" fill="magenta"/>
  <circle cx="534.251" cy="483.923" r="5.05167" stroke-width="0.5" stroke="black" fill="magenta"/>
   </g>
   <g id="cell24">
  <circle cx="559.289" cy="379.784" r="2.42814" stroke-width="0.5" stroke="black" fill="magenta"/>
  <circle cx="559.289" cy="379.784" r="2.17648" stroke-width="0.5" stroke="black" fill="black"/>
   </g>
   <g id="cell25">
  <circle cx="638.004" cy="553.007" r="5.4178" stroke-width="0.5" stroke="black" fill="green"/>
  <circle cx="638.004" cy="553.007" r="3.306" stroke-width="0.5" stroke="black" fill="green"/>
   </g>
   <g id="cell26">
  <circle cx="556.294" cy="398.575" r="7.3599" stroke-width="0.5" stroke="black" fill="green"/>
  <circle cx="556.294" cy="398.575" r="4.47294" stroke-width="0.5" stroke="black" fill="green"/>
   </g>
   <g id="cell27">
  <circle cx="457.446" cy="388.678" r="8.41271" stroke-width="0.5" stroke="black" fill="green"/>
  <circle cx="457.446" cy="388.678" r="5.05167" stroke-width="0.5" stroke="black" fill="green"/>
   </g>
   <g id="cell28">
  <circle cx="438.497" cy="530.67" r="8.41271" stroke-width="0.5" stroke="black" fill="green"/>
  <circle cx="438.497" cy="530.67" r="5.05167" stroke-width="0.5" stroke="black" fill="green"/>
   </g>
   <g id="cell29">
  <circle cx="449.03" cy="518.594" r="8.41271" stroke-width="0.5" stroke="black" fill="green"/>
  <circle cx="449.03" cy="518.594" r="5.05167" stroke-width="0.5" stroke="black" fill="green"/>
   </g>
   <g id="cell30">
  <circle cx="481.58" cy="540.282" r="2.84772" stroke-width="0.5" stroke="black" fill="green"/>
  <circle cx="481.58" cy="540.282" r="2.39601" stroke-width="0.5" stroke="black" fill="black"/>
   </g>
   <g id="cell31">
  <circle cx="412.757" cy="541.193" r="8.41271" stroke-width="0.5" stroke="black" fill="green"/>
  <circle cx="412.757" cy="541.193" r="5.05167" stroke-width="0.5" stroke="black" fill="green"/>
   </g>
   <g id="cell32">
  <circle cx="425.371" cy="474.829" r="8.41271" stroke-width="0.5" stroke="black" fill="green"/>
  <circle cx="425.371" cy="474.829" r="5.05167" stroke-width="0.5" stroke="black" fill="green"/>
   </g>
   <g id="cell33">
  <circle cx="494.146" cy="423.183" r="8.41271" stroke-width="0.5" stroke="black" fill="green"/>
  <circle cx="494.146" cy="423.183" r="5.05167" stroke-width="0.5" stroke="black" fill="green"/>
   </g>
   <g id="cell34">
  <circle cx="397.088" cy="450.831" r="8.41271" stroke-width="0.5" stroke="black" fill="green"/>
  <circle cx="397.088" cy="450.831" r="5.05167" stroke-width="0.5" stroke="black" fill="green"/>
   </g>
   <g id="cell35">
  <circle cx="548.273" cy="543.766" r="8.41271" stroke-width="0.5" stroke="black" fill="green"/>
  <circle cx="548.273" cy="543.766" r="5.05167" stroke-width="0.5" stroke="black" fill="green"/>
   </g>
   <g id="cell36">
  <circle cx="391.084" cy="583.594" r="8.41271" stroke-width="0.5" stroke="black" fill="green"/>
  <circle cx="391.084" cy="583.594" r="5.05167" stroke-width="0.5" stroke="black" fill="green"/>
   </g>
   <g id="cell37">
  <circle cx="634.871" cy="460.618" r="8.41271" stroke-width="0.5" stroke="black" fill="green"/>
  <circle cx="634.871" cy="460.618" r="5.05167" stroke-width="0.5" stroke="black" fill="green"/>
   </g>
   <g id="cell38">
  <circle cx="538.339" cy="612.864" r="8.10448" stroke-width="0.5" stroke="black" fill="green"/>
  <circle cx="538.339" cy="612.864" r="4.90539" stroke-width="0.5" stroke="black" fill="green"/>
   </g>
   <g id="cell39">
  <circle cx="613.422" cy="490.581" r="8.41271" stroke-width="0.5" stroke="black" fill="green"/>
  <circle cx="613.422" cy="490.581" r="5.05167" stroke-width="0.5" stroke="black" fill="green"/>
   </g>
   <g id="cell40">
  <circle cx="482.75" cy="567.329" r="7.7401" stroke-width="0.5" stroke="black" fill="green"/>
  <circle cx="482.75" cy="567.329" r="4.70142" stroke-width="0.5" stroke="black" fill="green"/>
   </g>
   <g id="cell41">
  <circle cx="364.751" cy="480.251" r="8.41271" stroke-width="0.5" stroke="black" fill="green"/>
  <circle cx="364.751" cy="480.251" r="5.05167" stroke-width="0.5" stroke="black" fill="green"/>
   </g>
   <g id="cell42">
  <circle cx="438.842" cy="494.268" r="8.41271" stroke-width="0.5" stroke="black" fill="green"/>
  <circle cx="438.842" cy="494.268" r="5.05167" stroke-width="0.5" stroke="black" fill="green"/>
   </g>
   <g id="cell43">
  <circle cx="557.881" cy="445.569" r="8.41271" stroke-width="0.5" stroke="black" fill="green"/>
  <circle cx="557.881" cy="445.569" r="5.05167" stroke-width="0.5" stroke="black" fill="green"/>
   </g>
   <g id="cell44">
  <circle cx="476.013" cy="623.877" r="8.41271" stroke-width="0.5" stroke="black" fill="green"/>
  <circle cx="476.013" cy="623.877" r="5.05167" stroke-width="0.5" stroke="black" fill="green"/>
   </g>
   <g id="cell45">
  <circle cx="414.953" cy="557.066" r="8.41271" stroke-width="0.5" stroke="black" fill="green"/>
  <circle cx="414.953" cy="557.066" r="5.05167" stroke-width="0.5" stroke="black" fill="green"/>
   </g>
   <g id="cell46">
  <circle cx="522.787" cy="610.675" r="8.41271" stroke-width="0.5" stroke="black" fill="green"/>
  <circle cx="522.787" cy="610.675" r="5.05167" stroke-width="0.5" stroke="black" fill="green"/>
   </g>
   <g id="cell47">
  <circle cx="496.297" cy="507.907" r="8.13008" stroke-width="0.5" stroke="black" fill="green"/>
  <circle cx="496.297" cy="507.907" r="4.91894" stroke-width="0.5" stroke="black" fill="green"/>
   </g>
   <g id="cell48">
  <circle cx="564.143" cy="603.12" r="8.41271" stroke-width="0.5" stroke="black" fill="green"/>
  <circle cx="564.143" cy="603.12" r="5.05167" stroke-width="0.5" stroke="black" fill="green"/>
   </g>
   <g id="cell49">
  <circle cx="429.837" cy="397.429" r="8.41271" stroke-width="0.5" stroke="black" fill="green"/>
  <circle cx="429.837" cy="397.429" r="5.05167" stroke-width="0.5" stroke="black" fill="green"/>
   </g>
   <g id="cell50">
  <circle cx="520.311" cy="516.6" r="8.41271" stroke-width="0.5" stroke="black" fill="cyan"/>
  <circle cx="520.311" cy="516.6" r="5.05167" stroke-width="0.5" stroke="black" fill="cyan"/>
   </g>
   <g id="cell51">
  <circle cx="402.836" cy="593.815" r="7.97646" stroke-width="0.5" stroke="black" fill="cyan"/>
  <circle cx="402.836" cy="593.815" r="4.83584" stroke-width="0.5" stroke="black" fill="cyan"/>
   </g>
   <g id="cell52">
  <circle cx="521.855" cy="429.384" r="8.41271" stroke-width="0.5" stroke="black" fill="cyan"/>
  <circle cx="521.855" cy="429.384" r="5.05167" stroke-width="0.5" stroke="black" fill="cyan"/>
   </g>
   <g id="cell53">
  <circle cx="570.928" cy="436.267" r="8.41271" stroke-width="0.5" stroke="black" fill="cyan"/>
  <circle cx="570.928" cy="436.267" r="5.05167" stroke-width="0.5" stroke="black" fill="cyan"/>
   </g>
   <g id="cell54">
  <circle cx="478.152" cy="424.167" r="8.41271" stroke-width="0.5" stroke="black" fill="cyan"/>
  <circle cx="478.152" cy="424.167" r="5.05167" stroke-width="0.5" stroke="black" fill="cyan"/>
   </g>
   <g id="cell55">
  <circle cx="527.674" cy="469.322" r="8.41271" stroke-width="0.5" stroke="black" fill="cyan"/>
  <circle cx="527.674" cy="469.322" r="5.05167" stroke-width="0.5" stroke="black" fill="cyan"/>
   </g>
   <g id="cell56">
  <circle cx="624.158" cy="521.615" r="6.83713" stroke-width="0.5" stroke="black" fill="cyan"/>
  <circle cx="624.158" cy="521.615" r="4.12773" stroke-width="0.5" stroke="black" fill="cyan"/>
   </g>
   <g id="cell57">
  <circle cx="416.924" cy="617.466" r="8.41271" stroke-width="0.5" stroke="black" fill="cyan"/>
  <circle cx="416.924" cy="617.466" r="5.05167" stroke-width="0.5" stroke="black" fill="cyan"/>
   </g>
   <g id="cell58">
  <circle cx="549.365" cy="478.958" r="8.41271" stroke-width="0.5" stroke="black" fill="cyan"/>
  <circle cx="549.365" cy="478.958" r="5.05167" stroke-width="0.5" stroke="black" fill="cyan"/>
   </g>
   <g id="cell59">
  <circle cx="385.463" cy="439.803" r="8.41271" stroke-width="0.5" stroke="black" fill="cyan"/>
  <circle cx="385.463" cy="439.803" r="5.05167" stroke-width="0.5" stroke="black" fill="cyan"/>
   </g>
   <g id="cell60">
  <circle cx="604.452" cy="473.015" r="7.87851" stroke-width="0.5" stroke="black" fill="cyan"/>
  <circle cx="604.452" cy="473.015" r="4.78096" stroke-width="0.5" stroke="black" fill="cyan"/>
   </g>
   <g id="cell61">
  <circle cx="552.376" cy="613.284" r="2.11603" stroke-width="0.5" stroke="black" fill="cyan"/>
  <circle cx="552.376" cy="613.284" r="1.97902" stroke-width="0.5" stroke="black" fill="black"/>
   </g>
   <g id="cell62">
  <circle cx="526.481" cy="444.704" r="8.41271" stroke-width="0.5" stroke="black" fill="cyan"/>
  <circle cx="526.481" cy="444.704" r="5.05167" stroke-width="0.5" stroke="black" fill="cyan"/>
   </g>
   <g id="cell63">
  <circle cx="577.698" cy="546.469" r="8.41271" stroke-width="0.5" stroke="black" fill="cyan"/>
  <circle cx="577.698" cy="546.469" r="5.05167" stroke-width="0.5" stroke="black" fill="cyan"/>
   </g>
   <g id="cell64">
  <circle cx="509.962" cy="636.825" r="8.41271" stroke-width="0.5" stroke="black" fill="cyan"/>
  <circle cx="509.962" cy="636.825" r="5.05167" stroke-width="0.5" stroke="black" fill="cyan"/>
   </g>
   <g id="cell65">
  <circle cx="542.889" cy="464.302" r="8.41271" stroke-width="0.5" stroke="black" fill="cyan"/>
  <circle cx="542.889" cy="464.302" r="5.05167" stroke-width="0.5" stroke="black" fill="cyan"/>
   </g>
   <g id="cell66">
  <circle cx="536.703" cy="530.467" r="8.41271" stroke-width="0.5" stroke="black" fill="cyan"/>
  <circle cx="536.703" cy="530.467" r="5.05167" stroke-width="0.5" stroke="black" fill="cyan"/>
   </g>
   <g id="cell67">
  <circle cx="354.64" cy="492.683" r="8.41271" stroke-width="0.5" stroke="black" fill="cyan"/>
  <circle cx="354.64" cy="492.683" r="5.05167" stroke-width="0.5" stroke="black" fill="cyan"/>
   </g>
   <g id="cell68">
  <circle cx="562.442" cy="551.477" r="8.41271" stroke-width="0.5" stroke="black" fill="cyan"/>
  <circle cx="562.442" cy="551.477" r="5.05167" stroke-width="0.5" stroke="black" fill="cyan"/>
   </g>
   <g id="cell69">
  <circle cx="437.64" cy="464.521" r="8.41271" stroke-width="0.5" stroke="black" fill="cyan"/>
  <circle cx="437.64" cy="464.521" r="5.05167" stroke-width="0.5" stroke="black" fill="cyan"/>
   </g>
   <g id="cell70">
  <circle cx="575.833" cy="476.53" r="7.18097" stroke-width="0.5" stroke="black" fill="cyan"/>
  <circle cx="575.833" cy="476.53" r="4.36015" stroke-width="0.5" stroke="black" fill="cyan"/>
   </g>
   <g id="cell71">
  <circle cx="377.712" cy="520.989" r="8.41271" stroke-width="0.5" stroke="black" fill="cyan"/>
  <circle cx="377.712" cy="520.989" r="5.05167" stroke-width="0.5" stroke="black" fill="cyan"/>
   </g>
   <g id="cell72">
  <circle cx="536.168" cy="514.379" r="8.41271" stroke-width="0.5" stroke="black" fill="cyan"/>
  <circle cx="536.168" cy="514.379" r="5.05167" stroke-width="0.5" stroke="black" fill="cyan"/>
   </g>
   <g id="cell73">
  <circle cx="353.423" cy="547.152" r="6.92764" stroke-width="0.5" stroke="black" fill="cyan"/>
  <circle cx="353.423" cy="547.152" r="4.1918" stroke-width="0.5" stroke="black" fill="cyan"/>
   </g>
   <g id="cell74">
  <circle cx="542.092" cy="448.3" r="8.41271" stroke-width="0.5" stroke="black" fill="cyan"/>
  <circle cx="542.092" cy="448.3" r="5.05167" stroke-width="0.5" stroke="black" fill="cyan"/>
   </g>
   <g id="cell75">
  <circle cx="591.579" cy="498.012" r="7.57269" stroke-width="0.5" stroke="black" fill="magenta"/>
  <circle cx="591.579" cy="498.012" r="4.62087" stroke-width="0.5" stroke="black" fill="magenta"/>
   </g>
   <g id="cell76">
  <circle cx="645.856" cy="542.977" r="8.13813" stroke-width="0.5" stroke="black" fill="green"/>
  <circle cx="645.856" cy="542.977" r="4.92317" stroke-width="0.5" stroke="black" fill="green"/>
   </g>
   <g id="cell77">
  <circle cx="511.196" cy="503.775" r="8.13008" stroke-width="0.5" stroke="black" fill="green"/>
  <circle cx="511.196" cy="503.775" r="4.91894" stroke-width="0.5" stroke="black" fill="green"/>
   </g>
   <g id="cell78">
  <circle cx="372.431" cy="569.56" r="7.21915" stroke-width="0.5" stroke="black" fill="magenta"/>
  <circle cx="372.431" cy="569.56" r="4.41291" stroke-width="0.5" stroke="black" fill="magenta"/>
   </g>
   <g id="cell79">
  <circle cx="534.869" cy="585.19" r="7.29153" stroke-width="0.5" stroke="black" fill="green"/>
  <circle cx="534.869" cy="585.19" r="4.47325" stroke-width="0.5" stroke="black" fill="green"/>
   </g>
   <g id="cell80">
  <circle cx="454.027" cy="606.051" r="8.03527" stroke-width="0.5" stroke="black" fill="magenta"/>
  <circle cx="454.027" cy="606.051" r="4.86813" stroke-width="0.5" stroke="black" fill="magenta"/>
   </g>
   <g id="cell81">
  <circle cx="393.324" cy="605.624" r="7.97646" stroke-width="0.5" stroke="black" fill="cyan"/>
  <circle cx="393.324" cy="605.624" r="4.83584" stroke-width="0.5" stroke="black" fill="cyan"/>
   </g>
   <g id="cell82">
  <circle cx="585.705" cy="468.437" r="6.37209" stroke-width="0.5" stroke="black" fill="cyan"/>
  <circle cx="585.705" cy="468.437" r="3.87964" stroke-width="0.5" stroke="black" fill="cyan"/>
   </g>
   <g id="cell83">
  <circle cx="540.773" cy="598.092" r="7.70537" stroke-width="0.5" stroke="black" fill="green"/>
  <circle cx="540.773" cy="598.092" r="4.69841" stroke-width="0.5" stroke="black" fill="green"/>
   </g>
   <g id="cell84">
  <circle cx="490.88" cy="579.62" r="7.7401" stroke-width="0.5" stroke="black" fill="green"/>
  <circle cx="490.88" cy="579.62" r="4.70142" stroke-width="0.5" stroke="black" fill="green"/>
   </g>
   <g id="cell85">
  <circle cx="605.181" cy="502.779" r="7.57269" stroke-width="0.5" stroke="black" fill="magenta"/>
  <circle cx="605.181" cy="502.779" r="4.62087" stroke-width="0.5" stroke="black" fill="magenta"/>
   </g>
   <g id="cell86">
  <circle cx="526.536" cy="596.283" r="7.29153" stroke-width="0.5" stroke="black" fill="green"/>
  <circle cx="526.536" cy="596.283" r="4.47325" stroke-width="0.5" stroke="black" fill="green"/>
   </g>
   <g id="cell87">
  <circle cx="591.473" cy="598.838" r="7.61469" stroke-width="0.5" stroke="black" fill="magenta"/>
  <circle cx="591.473" cy="598.838" r="4.62762" stroke-width="0.5" stroke="black" fill="magenta"/>
   </g>
   <g id="cell88">
  <circle cx="381.531" cy="559.407" r="7.21915" stroke-width="0.5" stroke="black" fill="magenta"/>
  <circle cx="381.531" cy="559.407" r="4.41291" stroke-width="0.5" stroke="black" fill="magenta"/>
   </g>
   <g id="cell89">
  <circle cx="544.824" cy="410.817" r="6.36193" stroke-width="0.5" stroke="black" fill="green"/>
  <circle cx="544.824" cy="410.817" r="3.90227" stroke-width="0.5" stroke="black" fill="green"/>
   </g>
   <g id="cell90">
  <circle cx="562.789" cy="473.017" r="7.18097" stroke-width="0.5" stroke="black" fill="cyan"/>
  <circle cx="562.789" cy="473.017" r="4.36015" stroke-width="0.5" stroke="black" fill="cyan"/>
   </g>
   <g id="cell91">
  <circle cx="543.296" cy="398.898" r="6.36193" stroke-width="0.5" stroke="black" fill="green"/>
  <circle cx="543.296" cy="398.898" r="3.90227" stroke-width="0.5" stroke="black" fill="green"/>
   </g>
   <g id="cell92">
  <circle cx="640.717" cy="564.083" r="6.75916" stroke-width="0.5" stroke="black" fill="green"/>
  <circle cx="640.717" cy="564.083" r="4.11895" stroke-width="0.5" stroke="black" fill="green"/>
   </g>
   <g id="cell93">
  <circle cx="366.138" cy="544.044" r="6.92764" stroke-width="0.5" stroke="black" fill="cyan"/>
  <circle cx="366.138" cy="544.044" r="4.1918" stroke-width="0.5" stroke="black" fill="cyan"/>
   </g>
   <g id="cell94">
  <circle cx="611.176" cy="520.996" r="6.83713" stroke-width="0.5" stroke="black" fill="cyan"/>
  <circle cx="611.176" cy="520.996" r="4.12773" stroke-width="0.5" stroke="black" fill="cyan"/>
   </g>
   <g id="cell95">
  <circle cx="581.858" cy="586.1" r="6.17082" stroke-width="0.5" stroke="black" fill="magenta"/>
  <circle cx="581.858" cy="586.1" r="3.76319" stroke-width="0.5" stroke="black" fill="magenta"/>
   </g>
   <g id="cell96">
  <circle cx="592.171" cy="478.632" r="6.37209" stroke-width="0.5" stroke="black" fill="cyan"/>
  <circle cx="592.171" cy="478.632" r="3.87964" stroke-width="0.5" stroke="black" fill="cyan"/>
   </g>
   <g id="cell97">
  <circle cx="628.594" cy="549.149" r="5.4178" stroke-width="0.5" stroke="black" fill="green"/>
  <circle cx="628.594" cy="549.149" r="3.306" stroke-width="0.5" stroke="black" fill="green"/>
   </g>
   <g id="cell98">
  <circle cx="598.986" cy="514.144" r="6.51386" stroke-width="0.5" stroke="black" fill="magenta"/>
  <circle cx="598.986" cy="514.144" r="3.94285" stroke-width="0.5" stroke="black" fill="magenta"/>
   </g>
  </g>
 </g>
  <rect x="775" y="1035" width="200" height="10" stroke-width="2" stroke="rgb(255,255,255)" fill="rgb(0,0,0)"/>
  <text x="781.25" y="1028.75"
   font-family="Arial" font-size="25" fill="black" >
   200 &#956;m
  </text>
  <text x="25" y="1045"
   font-family="Arial" font-size="18.75" fill="black" >
   0 days, 0 hours, 0 minutes, and 10.7475 seconds
  </text>
  <rect x="0" y="70" width="1000" height="1000" stroke-width="2" stroke="rgb(0,0,0)" fill="none"/>
</svg>
