<?xml version="1.0" encoding="UTF-8" standalone="no"?>
<!-- Created with PhysiCell (http://PhysiCell.MathCancer.org/) -->
<svg 
 xmlns:dc="http://purl.org/dc/elements/1.1/" 
 xmlns:cc="http://creativecommons.org/ns#" 
 xmlns:rdf="http://www.w3.org/1999/02/22-rdf-syntax-ns#" 
 xmlns:svg="http://www.w3.org/2000/svg" 
 xmlns="http://www.w3.org/2000/svg" 
 version="1.1" 
 width="1000" 
 height="1070" 
 id="svg2">
  <rect x="0" y="0" width="1000" height="1070" stroke-width="2" stroke="white" fill="white"/>
  <text x="12.5" y="30"
   font-family="Arial" font-size="25" fill="black" >
   Current time: 0 days, 22 hours, and 0.00 minutes, z = 0.00 &#956;m
  </text>
  <text x="12.5" y="57.5"
   font-family="Arial" font-size="23.75" fill="black" >
   150 agents
  </text>
 <g id="tissue" 
    transform="translate(0,1070) scale(1,-1)">
  <g id="ECM">
  </g>
  <g id="cells">
   <g id="cell0">
  <circle cx="513.258" cy="532.257" r="8.41271" stroke-width="0.5" stroke="black" fill="magenta"/>
  <circle cx="513.258" cy="532.257" r="5.05167" stroke-width="0.5" stroke="black" fill="magenta"/>
   </g>
   <g id="cell1">
  <circle cx="602.694" cy="535.734" r="8.41271" stroke-width="0.5" stroke="black" fill="magenta"/>
  <circle cx="602.694" cy="535.734" r="5.05167" stroke-width="0.5" stroke="black" fill="magenta"/>
   </g>
   <g id="cell2">
  <circle cx="508.208" cy="601.745" r="8.41271" stroke-width="0.5" stroke="black" fill="magenta"/>
  <circle cx="508.208" cy="601.745" r="5.05167" stroke-width="0.5" stroke="black" fill="magenta"/>
   </g>
   <g id="cell3">
  <circle cx="533.374" cy="544.852" r="8.41271" stroke-width="0.5" stroke="black" fill="magenta"/>
  <circle cx="533.374" cy="544.852" r="5.05167" stroke-width="0.5" stroke="black" fill="magenta"/>
   </g>
   <g id="cell4">
  <circle cx="481.375" cy="439.863" r="8.41271" stroke-width="0.5" stroke="black" fill="magenta"/>
  <circle cx="481.375" cy="439.863" r="5.05167" stroke-width="0.5" stroke="black" fill="magenta"/>
   </g>
   <g id="cell5">
  <circle cx="464.581" cy="491.324" r="8.41271" stroke-width="0.5" stroke="black" fill="magenta"/>
  <circle cx="464.581" cy="491.324" r="5.05167" stroke-width="0.5" stroke="black" fill="magenta"/>
   </g>
   <g id="cell6">
  <circle cx="586.286" cy="512.615" r="8.25499" stroke-width="0.5" stroke="black" fill="magenta"/>
  <circle cx="586.286" cy="512.615" r="4.98517" stroke-width="0.5" stroke="black" fill="magenta"/>
   </g>
   <g id="cell7">
  <circle cx="500.868" cy="460.058" r="1.90471" stroke-width="0.5" stroke="black" fill="magenta"/>
  <circle cx="500.868" cy="460.058" r="1.82169" stroke-width="0.5" stroke="black" fill="black"/>
   </g>
   <g id="cell8">
  <circle cx="382.764" cy="531.582" r="6.95901" stroke-width="0.5" stroke="black" fill="magenta"/>
  <circle cx="382.764" cy="531.582" r="4.21341" stroke-width="0.5" stroke="black" fill="magenta"/>
   </g>
   <g id="cell9">
  <circle cx="465.245" cy="595.146" r="8.40557" stroke-width="0.5" stroke="black" fill="magenta"/>
  <circle cx="465.245" cy="595.146" r="5.04951" stroke-width="0.5" stroke="black" fill="magenta"/>
   </g>
   <g id="cell10">
  <circle cx="583.447" cy="392.105" r="4.64437" stroke-width="0.5" stroke="black" fill="magenta"/>
  <circle cx="583.447" cy="392.105" r="3.17578" stroke-width="0.5" stroke="black" fill="black"/>
   </g>
   <g id="cell11">
  <circle cx="597.713" cy="580.305" r="8.37191" stroke-width="0.5" stroke="black" fill="magenta"/>
  <circle cx="597.713" cy="580.305" r="5.03715" stroke-width="0.5" stroke="black" fill="magenta"/>
   </g>
   <g id="cell12">
  <circle cx="505.841" cy="585.899" r="8.41271" stroke-width="0.5" stroke="black" fill="magenta"/>
  <circle cx="505.841" cy="585.899" r="5.05167" stroke-width="0.5" stroke="black" fill="magenta"/>
   </g>
   <g id="cell13">
  <circle cx="398.14" cy="570.043" r="8.40683" stroke-width="0.5" stroke="black" fill="magenta"/>
  <circle cx="398.14" cy="570.043" r="5.04993" stroke-width="0.5" stroke="black" fill="magenta"/>
   </g>
   <g id="cell109">
  <circle cx="375.212" cy="443.993" r="8.31491" stroke-width="0.5" stroke="black" fill="cyan"/>
  <circle cx="375.212" cy="443.993" r="5.01133" stroke-width="0.5" stroke="black" fill="cyan"/>
   </g>
   <g id="cell15">
  <circle cx="379.896" cy="475.017" r="8.41271" stroke-width="0.5" stroke="black" fill="magenta"/>
  <circle cx="379.896" cy="475.017" r="5.05167" stroke-width="0.5" stroke="black" fill="magenta"/>
   </g>
   <g id="cell16">
  <circle cx="420.656" cy="427.583" r="7.8091" stroke-width="0.5" stroke="black" fill="magenta"/>
  <circle cx="420.656" cy="427.583" r="4.74779" stroke-width="0.5" stroke="black" fill="magenta"/>
   </g>
   <g id="cell17">
  <circle cx="573.529" cy="492.187" r="8.41271" stroke-width="0.5" stroke="black" fill="magenta"/>
  <circle cx="573.529" cy="492.187" r="5.05167" stroke-width="0.5" stroke="black" fill="magenta"/>
   </g>
   <g id="cell18">
  <circle cx="509.587" cy="386.037" r="3.85181" stroke-width="0.5" stroke="black" fill="magenta"/>
  <circle cx="509.587" cy="386.037" r="2.82334" stroke-width="0.5" stroke="black" fill="black"/>
   </g>
   <g id="cell19">
  <circle cx="453.826" cy="554.721" r="8.36458" stroke-width="0.5" stroke="black" fill="magenta"/>
  <circle cx="453.826" cy="554.721" r="5.03347" stroke-width="0.5" stroke="black" fill="magenta"/>
   </g>
   <g id="cell20">
  <circle cx="531.744" cy="418.812" r="8.41271" stroke-width="0.5" stroke="black" fill="magenta"/>
  <circle cx="531.744" cy="418.812" r="5.05167" stroke-width="0.5" stroke="black" fill="magenta"/>
   </g>
   <g id="cell21">
  <circle cx="464.212" cy="634.718" r="8.41271" stroke-width="0.5" stroke="black" fill="magenta"/>
  <circle cx="464.212" cy="634.718" r="5.05167" stroke-width="0.5" stroke="black" fill="magenta"/>
   </g>
   <g id="cell22">
  <circle cx="558.033" cy="494.455" r="8.41271" stroke-width="0.5" stroke="black" fill="magenta"/>
  <circle cx="558.033" cy="494.455" r="5.05167" stroke-width="0.5" stroke="black" fill="magenta"/>
   </g>
   <g id="cell23">
  <circle cx="545.783" cy="498.735" r="5.43872" stroke-width="0.5" stroke="black" fill="magenta"/>
  <circle cx="545.783" cy="498.735" r="3.31523" stroke-width="0.5" stroke="black" fill="magenta"/>
   </g>
   <g id="cell124">
  <circle cx="558.524" cy="456.837" r="7.70666" stroke-width="0.5" stroke="black" fill="cyan"/>
  <circle cx="558.524" cy="456.837" r="4.69658" stroke-width="0.5" stroke="black" fill="cyan"/>
   </g>
   <g id="cell25">
  <circle cx="639.133" cy="553.081" r="8.3609" stroke-width="0.5" stroke="black" fill="green"/>
  <circle cx="639.133" cy="553.081" r="5.03297" stroke-width="0.5" stroke="black" fill="green"/>
   </g>
   <g id="cell26">
  <circle cx="556.812" cy="400.025" r="8.39316" stroke-width="0.5" stroke="black" fill="green"/>
  <circle cx="556.812" cy="400.025" r="5.04503" stroke-width="0.5" stroke="black" fill="green"/>
   </g>
   <g id="cell27">
  <circle cx="457.446" cy="388.678" r="8.41271" stroke-width="0.5" stroke="black" fill="green"/>
  <circle cx="457.446" cy="388.678" r="5.05167" stroke-width="0.5" stroke="black" fill="green"/>
   </g>
   <g id="cell28">
  <circle cx="426.343" cy="526.726" r="8.41271" stroke-width="0.5" stroke="black" fill="green"/>
  <circle cx="426.343" cy="526.726" r="5.05167" stroke-width="0.5" stroke="black" fill="green"/>
   </g>
   <g id="cell29">
  <circle cx="442.479" cy="509.511" r="7.9229" stroke-width="0.5" stroke="black" fill="green"/>
  <circle cx="442.479" cy="509.511" r="4.80599" stroke-width="0.5" stroke="black" fill="green"/>
   </g>
   <g id="cell126">
  <circle cx="529.299" cy="506.377" r="8.08789" stroke-width="0.5" stroke="black" fill="green"/>
  <circle cx="529.299" cy="506.377" r="4.90634" stroke-width="0.5" stroke="black" fill="green"/>
   </g>
   <g id="cell31">
  <circle cx="415.242" cy="537.995" r="8.28262" stroke-width="0.5" stroke="black" fill="green"/>
  <circle cx="415.242" cy="537.995" r="4.9961" stroke-width="0.5" stroke="black" fill="green"/>
   </g>
   <g id="cell32">
  <circle cx="419.45" cy="486.217" r="7.0545" stroke-width="0.5" stroke="black" fill="green"/>
  <circle cx="419.45" cy="486.217" r="4.27772" stroke-width="0.5" stroke="black" fill="green"/>
   </g>
   <g id="cell33">
  <circle cx="494.145" cy="423.184" r="8.41271" stroke-width="0.5" stroke="black" fill="green"/>
  <circle cx="494.145" cy="423.184" r="5.05167" stroke-width="0.5" stroke="black" fill="green"/>
   </g>
   <g id="cell34">
  <circle cx="391.184" cy="453.123" r="8.05651" stroke-width="0.5" stroke="black" fill="green"/>
  <circle cx="391.184" cy="453.123" r="4.87966" stroke-width="0.5" stroke="black" fill="green"/>
   </g>
   <g id="cell35">
  <circle cx="549.005" cy="547.709" r="8.41271" stroke-width="0.5" stroke="black" fill="green"/>
  <circle cx="549.005" cy="547.709" r="5.05167" stroke-width="0.5" stroke="black" fill="green"/>
   </g>
   <g id="cell36">
  <circle cx="388.043" cy="582.221" r="8.41271" stroke-width="0.5" stroke="black" fill="green"/>
  <circle cx="388.043" cy="582.221" r="5.05167" stroke-width="0.5" stroke="black" fill="green"/>
   </g>
   <g id="cell37">
  <circle cx="634.871" cy="460.618" r="8.41271" stroke-width="0.5" stroke="black" fill="green"/>
  <circle cx="634.871" cy="460.618" r="5.05167" stroke-width="0.5" stroke="black" fill="green"/>
   </g>
   <g id="cell38">
  <circle cx="542.714" cy="612.445" r="7.8904" stroke-width="0.5" stroke="black" fill="green"/>
  <circle cx="542.714" cy="612.445" r="4.78853" stroke-width="0.5" stroke="black" fill="green"/>
   </g>
   <g id="cell39">
  <circle cx="615.35" cy="484.952" r="8.41271" stroke-width="0.5" stroke="black" fill="green"/>
  <circle cx="615.35" cy="484.952" r="5.05167" stroke-width="0.5" stroke="black" fill="green"/>
   </g>
   <g id="cell40">
  <circle cx="482.312" cy="566.65" r="8.40022" stroke-width="0.5" stroke="black" fill="green"/>
  <circle cx="482.312" cy="566.65" r="5.04764" stroke-width="0.5" stroke="black" fill="green"/>
   </g>
   <g id="cell41">
  <circle cx="364.751" cy="480.251" r="8.41271" stroke-width="0.5" stroke="black" fill="green"/>
  <circle cx="364.751" cy="480.251" r="5.05167" stroke-width="0.5" stroke="black" fill="green"/>
   </g>
   <g id="cell42">
  <circle cx="438.899" cy="494.384" r="8.41271" stroke-width="0.5" stroke="black" fill="green"/>
  <circle cx="438.899" cy="494.384" r="5.05167" stroke-width="0.5" stroke="black" fill="green"/>
   </g>
   <g id="cell43">
  <circle cx="559.105" cy="441.504" r="8.41271" stroke-width="0.5" stroke="black" fill="green"/>
  <circle cx="559.105" cy="441.504" r="5.05167" stroke-width="0.5" stroke="black" fill="green"/>
   </g>
   <g id="cell44">
  <circle cx="476.013" cy="623.877" r="8.41271" stroke-width="0.5" stroke="black" fill="green"/>
  <circle cx="476.013" cy="623.877" r="5.05167" stroke-width="0.5" stroke="black" fill="green"/>
   </g>
   <g id="cell45">
  <circle cx="425.461" cy="564.191" r="7.97646" stroke-width="0.5" stroke="black" fill="green"/>
  <circle cx="425.461" cy="564.191" r="4.83584" stroke-width="0.5" stroke="black" fill="green"/>
   </g>
   <g id="cell46">
  <circle cx="519.353" cy="613.25" r="8.41271" stroke-width="0.5" stroke="black" fill="green"/>
  <circle cx="519.353" cy="613.25" r="5.05167" stroke-width="0.5" stroke="black" fill="green"/>
   </g>
   <g id="cell47">
  <circle cx="490.904" cy="504.19" r="8.13524" stroke-width="0.5" stroke="black" fill="green"/>
  <circle cx="490.904" cy="504.19" r="4.9223" stroke-width="0.5" stroke="black" fill="green"/>
   </g>
   <g id="cell48">
  <circle cx="563.126" cy="602.811" r="8.41271" stroke-width="0.5" stroke="black" fill="green"/>
  <circle cx="563.126" cy="602.811" r="5.05167" stroke-width="0.5" stroke="black" fill="green"/>
   </g>
   <g id="cell49">
  <circle cx="427.95" cy="389.837" r="8.41271" stroke-width="0.5" stroke="black" fill="green"/>
  <circle cx="427.95" cy="389.837" r="5.05167" stroke-width="0.5" stroke="black" fill="green"/>
   </g>
   <g id="cell50">
  <circle cx="519.405" cy="517.825" r="8.41271" stroke-width="0.5" stroke="black" fill="cyan"/>
  <circle cx="519.405" cy="517.825" r="5.05167" stroke-width="0.5" stroke="black" fill="cyan"/>
   </g>
   <g id="cell51">
  <circle cx="416.86" cy="594.348" r="8.30497" stroke-width="0.5" stroke="black" fill="cyan"/>
  <circle cx="416.86" cy="594.348" r="5.00736" stroke-width="0.5" stroke="black" fill="cyan"/>
   </g>
   <g id="cell52">
  <circle cx="517.621" cy="426.476" r="8.41271" stroke-width="0.5" stroke="black" fill="cyan"/>
  <circle cx="517.621" cy="426.476" r="5.05167" stroke-width="0.5" stroke="black" fill="cyan"/>
   </g>
   <g id="cell53">
  <circle cx="575.023" cy="439.54" r="8.36972" stroke-width="0.5" stroke="black" fill="cyan"/>
  <circle cx="575.023" cy="439.54" r="5.03563" stroke-width="0.5" stroke="black" fill="cyan"/>
   </g>
   <g id="cell54">
  <circle cx="478.151" cy="424.167" r="8.41271" stroke-width="0.5" stroke="black" fill="cyan"/>
  <circle cx="478.151" cy="424.167" r="5.05167" stroke-width="0.5" stroke="black" fill="cyan"/>
   </g>
   <g id="cell55">
  <circle cx="529.857" cy="464.477" r="8.36722" stroke-width="0.5" stroke="black" fill="cyan"/>
  <circle cx="529.857" cy="464.477" r="5.03458" stroke-width="0.5" stroke="black" fill="cyan"/>
   </g>
   <g id="cell56">
  <circle cx="630.757" cy="521.609" r="8.38118" stroke-width="0.5" stroke="black" fill="cyan"/>
  <circle cx="630.757" cy="521.609" r="5.04034" stroke-width="0.5" stroke="black" fill="cyan"/>
   </g>
   <g id="cell57">
  <circle cx="416.298" cy="616.823" r="8.41271" stroke-width="0.5" stroke="black" fill="cyan"/>
  <circle cx="416.298" cy="616.823" r="5.05167" stroke-width="0.5" stroke="black" fill="cyan"/>
   </g>
   <g id="cell58">
  <circle cx="549.558" cy="479.814" r="8.41271" stroke-width="0.5" stroke="black" fill="cyan"/>
  <circle cx="549.558" cy="479.814" r="5.05167" stroke-width="0.5" stroke="black" fill="cyan"/>
   </g>
   <g id="cell59">
  <circle cx="384.138" cy="431.026" r="8.22864" stroke-width="0.5" stroke="black" fill="cyan"/>
  <circle cx="384.138" cy="431.026" r="4.97354" stroke-width="0.5" stroke="black" fill="cyan"/>
   </g>
   <g id="cell60">
  <circle cx="606.337" cy="471.776" r="8.40272" stroke-width="0.5" stroke="black" fill="cyan"/>
  <circle cx="606.337" cy="471.776" r="5.04853" stroke-width="0.5" stroke="black" fill="cyan"/>
   </g>
   <g id="cell121">
  <circle cx="451.737" cy="463.43" r="8.23614" stroke-width="0.5" stroke="black" fill="cyan"/>
  <circle cx="451.737" cy="463.43" r="4.97671" stroke-width="0.5" stroke="black" fill="cyan"/>
   </g>
   <g id="cell62">
  <circle cx="504.335" cy="449.935" r="7.11997" stroke-width="0.5" stroke="black" fill="cyan"/>
  <circle cx="504.335" cy="449.935" r="4.32844" stroke-width="0.5" stroke="black" fill="cyan"/>
   </g>
   <g id="cell63">
  <circle cx="578.625" cy="546.095" r="8.41271" stroke-width="0.5" stroke="black" fill="cyan"/>
  <circle cx="578.625" cy="546.095" r="5.05167" stroke-width="0.5" stroke="black" fill="cyan"/>
   </g>
   <g id="cell64">
  <circle cx="509.962" cy="636.825" r="8.41271" stroke-width="0.5" stroke="black" fill="cyan"/>
  <circle cx="509.962" cy="636.825" r="5.05167" stroke-width="0.5" stroke="black" fill="cyan"/>
   </g>
   <g id="cell65">
  <circle cx="545.598" cy="465.063" r="8.41271" stroke-width="0.5" stroke="black" fill="cyan"/>
  <circle cx="545.598" cy="465.063" r="5.05167" stroke-width="0.5" stroke="black" fill="cyan"/>
   </g>
   <g id="cell66">
  <circle cx="528.892" cy="530.031" r="8.05651" stroke-width="0.5" stroke="black" fill="cyan"/>
  <circle cx="528.892" cy="530.031" r="4.87966" stroke-width="0.5" stroke="black" fill="cyan"/>
   </g>
   <g id="cell67">
  <circle cx="354.64" cy="492.683" r="8.41271" stroke-width="0.5" stroke="black" fill="cyan"/>
  <circle cx="354.64" cy="492.683" r="5.05167" stroke-width="0.5" stroke="black" fill="cyan"/>
   </g>
   <g id="cell68">
  <circle cx="564.096" cy="552.76" r="8.41271" stroke-width="0.5" stroke="black" fill="cyan"/>
  <circle cx="564.096" cy="552.76" r="5.05167" stroke-width="0.5" stroke="black" fill="cyan"/>
   </g>
   <g id="cell69">
  <circle cx="441.564" cy="451.334" r="8.23614" stroke-width="0.5" stroke="black" fill="cyan"/>
  <circle cx="441.564" cy="451.334" r="4.97671" stroke-width="0.5" stroke="black" fill="cyan"/>
   </g>
   <g id="cell70">
  <circle cx="579.655" cy="477.3" r="8.38957" stroke-width="0.5" stroke="black" fill="cyan"/>
  <circle cx="579.655" cy="477.3" r="5.04365" stroke-width="0.5" stroke="black" fill="cyan"/>
   </g>
   <g id="cell71">
  <circle cx="376.714" cy="518.617" r="8.41271" stroke-width="0.5" stroke="black" fill="cyan"/>
  <circle cx="376.714" cy="518.617" r="5.05167" stroke-width="0.5" stroke="black" fill="cyan"/>
   </g>
   <g id="cell72">
  <circle cx="539.123" cy="518.184" r="8.41271" stroke-width="0.5" stroke="black" fill="cyan"/>
  <circle cx="539.123" cy="518.184" r="5.05167" stroke-width="0.5" stroke="black" fill="cyan"/>
   </g>
   <g id="cell73">
  <circle cx="355.456" cy="550.136" r="8.27842" stroke-width="0.5" stroke="black" fill="cyan"/>
  <circle cx="355.456" cy="550.136" r="4.99588" stroke-width="0.5" stroke="black" fill="cyan"/>
   </g>
   <g id="cell74">
  <circle cx="545.315" cy="449.658" r="8.41271" stroke-width="0.5" stroke="black" fill="cyan"/>
  <circle cx="545.315" cy="449.658" r="5.05167" stroke-width="0.5" stroke="black" fill="cyan"/>
   </g>
   <g id="cell75">
  <circle cx="588.171" cy="496.738" r="8.39744" stroke-width="0.5" stroke="black" fill="magenta"/>
  <circle cx="588.171" cy="496.738" r="5.04681" stroke-width="0.5" stroke="black" fill="magenta"/>
   </g>
   <g id="cell76">
  <circle cx="648.114" cy="539.884" r="8.40745" stroke-width="0.5" stroke="black" fill="green"/>
  <circle cx="648.114" cy="539.884" r="5.05013" stroke-width="0.5" stroke="black" fill="green"/>
   </g>
   <g id="cell77">
  <circle cx="506.103" cy="509.266" r="8.30641" stroke-width="0.5" stroke="black" fill="green"/>
  <circle cx="506.103" cy="509.266" r="5.00785" stroke-width="0.5" stroke="black" fill="green"/>
   </g>
   <g id="cell78">
  <circle cx="366.274" cy="568.697" r="8.39127" stroke-width="0.5" stroke="black" fill="magenta"/>
  <circle cx="366.274" cy="568.697" r="5.04455" stroke-width="0.5" stroke="black" fill="magenta"/>
   </g>
   <g id="cell79">
  <circle cx="538.463" cy="572.135" r="8.05597" stroke-width="0.5" stroke="black" fill="green"/>
  <circle cx="538.463" cy="572.135" r="4.88163" stroke-width="0.5" stroke="black" fill="green"/>
   </g>
   <g id="cell80">
  <circle cx="453.765" cy="606.306" r="8.40557" stroke-width="0.5" stroke="black" fill="magenta"/>
  <circle cx="453.765" cy="606.306" r="5.04951" stroke-width="0.5" stroke="black" fill="magenta"/>
   </g>
   <g id="cell81">
  <circle cx="394.833" cy="617.109" r="8.36557" stroke-width="0.5" stroke="black" fill="cyan"/>
  <circle cx="394.833" cy="617.109" r="5.03435" stroke-width="0.5" stroke="black" fill="cyan"/>
   </g>
   <g id="cell82">
  <circle cx="591.243" cy="466.525" r="8.37432" stroke-width="0.5" stroke="black" fill="cyan"/>
  <circle cx="591.243" cy="466.525" r="5.03801" stroke-width="0.5" stroke="black" fill="cyan"/>
   </g>
   <g id="cell83">
  <circle cx="546.635" cy="597.486" r="8.39978" stroke-width="0.5" stroke="black" fill="green"/>
  <circle cx="546.635" cy="597.486" r="5.04766" stroke-width="0.5" stroke="black" fill="green"/>
   </g>
   <g id="cell84">
  <circle cx="490.898" cy="580.15" r="8.40022" stroke-width="0.5" stroke="black" fill="green"/>
  <circle cx="490.898" cy="580.15" r="5.04764" stroke-width="0.5" stroke="black" fill="green"/>
   </g>
   <g id="cell85">
  <circle cx="611.27" cy="499.16" r="7.32125" stroke-width="0.5" stroke="black" fill="magenta"/>
  <circle cx="611.27" cy="499.16" r="4.45173" stroke-width="0.5" stroke="black" fill="magenta"/>
   </g>
   <g id="cell86">
  <circle cx="523.716" cy="597.887" r="8.39302" stroke-width="0.5" stroke="black" fill="green"/>
  <circle cx="523.716" cy="597.887" r="5.04537" stroke-width="0.5" stroke="black" fill="green"/>
   </g>
   <g id="cell87">
  <circle cx="589.918" cy="606.17" r="6.88576" stroke-width="0.5" stroke="black" fill="magenta"/>
  <circle cx="589.918" cy="606.17" r="4.16648" stroke-width="0.5" stroke="black" fill="magenta"/>
   </g>
   <g id="cell88">
  <circle cx="373.791" cy="554.893" r="8.2678" stroke-width="0.5" stroke="black" fill="magenta"/>
  <circle cx="373.791" cy="554.893" r="4.99059" stroke-width="0.5" stroke="black" fill="magenta"/>
   </g>
   <g id="cell89">
  <circle cx="546.299" cy="412.142" r="8.37771" stroke-width="0.5" stroke="black" fill="green"/>
  <circle cx="546.299" cy="412.142" r="5.03952" stroke-width="0.5" stroke="black" fill="green"/>
   </g>
   <g id="cell90">
  <circle cx="564.527" cy="479.84" r="8.22744" stroke-width="0.5" stroke="black" fill="cyan"/>
  <circle cx="564.527" cy="479.84" r="4.97082" stroke-width="0.5" stroke="black" fill="cyan"/>
   </g>
   <g id="cell91">
  <circle cx="541.196" cy="396.871" r="8.37771" stroke-width="0.5" stroke="black" fill="green"/>
  <circle cx="541.196" cy="396.871" r="5.03952" stroke-width="0.5" stroke="black" fill="green"/>
   </g>
   <g id="cell92">
  <circle cx="641.675" cy="568.815" r="8.38189" stroke-width="0.5" stroke="black" fill="green"/>
  <circle cx="641.675" cy="568.815" r="5.0409" stroke-width="0.5" stroke="black" fill="green"/>
   </g>
   <g id="cell93">
  <circle cx="367.981" cy="540.206" r="8.38373" stroke-width="0.5" stroke="black" fill="cyan"/>
  <circle cx="367.981" cy="540.206" r="5.04136" stroke-width="0.5" stroke="black" fill="cyan"/>
   </g>
   <g id="cell94">
  <circle cx="615.284" cy="525.667" r="8.38118" stroke-width="0.5" stroke="black" fill="cyan"/>
  <circle cx="615.284" cy="525.667" r="5.04034" stroke-width="0.5" stroke="black" fill="cyan"/>
   </g>
   <g id="cell95">
  <circle cx="578.84" cy="586.152" r="8.37191" stroke-width="0.5" stroke="black" fill="magenta"/>
  <circle cx="578.84" cy="586.152" r="5.03715" stroke-width="0.5" stroke="black" fill="magenta"/>
   </g>
   <g id="cell96">
  <circle cx="594.492" cy="482.234" r="8.37432" stroke-width="0.5" stroke="black" fill="cyan"/>
  <circle cx="594.492" cy="482.234" r="5.03801" stroke-width="0.5" stroke="black" fill="cyan"/>
   </g>
   <g id="cell97">
  <circle cx="624.249" cy="547.437" r="8.3609" stroke-width="0.5" stroke="black" fill="green"/>
  <circle cx="624.249" cy="547.437" r="5.03297" stroke-width="0.5" stroke="black" fill="green"/>
   </g>
   <g id="cell98">
  <circle cx="600.324" cy="520.211" r="8.37397" stroke-width="0.5" stroke="black" fill="magenta"/>
  <circle cx="600.324" cy="520.211" r="5.03769" stroke-width="0.5" stroke="black" fill="magenta"/>
   </g>
   <g id="cell99">
  <circle cx="565.585" cy="426.835" r="8.36972" stroke-width="0.5" stroke="black" fill="cyan"/>
  <circle cx="565.585" cy="426.835" r="5.03563" stroke-width="0.5" stroke="black" fill="cyan"/>
   </g>
   <g id="cell100">
  <circle cx="376.991" cy="593.455" r="8.25351" stroke-width="0.5" stroke="black" fill="cyan"/>
  <circle cx="376.991" cy="593.455" r="4.98608" stroke-width="0.5" stroke="black" fill="cyan"/>
   </g>
   <g id="cell101">
  <circle cx="539.367" cy="436.888" r="6.98359" stroke-width="0.5" stroke="black" fill="cyan"/>
  <circle cx="539.367" cy="436.888" r="4.26794" stroke-width="0.5" stroke="black" fill="cyan"/>
   </g>
   <g id="cell102">
  <circle cx="506.568" cy="473.406" r="7.97593" stroke-width="0.5" stroke="black" fill="cyan"/>
  <circle cx="506.568" cy="473.406" r="4.83979" stroke-width="0.5" stroke="black" fill="cyan"/>
   </g>
   <g id="cell103">
  <circle cx="467.338" cy="531.135" r="7.97525" stroke-width="0.5" stroke="black" fill="magenta"/>
  <circle cx="467.338" cy="531.135" r="4.84765" stroke-width="0.5" stroke="black" fill="magenta"/>
   </g>
   <g id="cell104">
  <circle cx="405.47" cy="605.28" r="8.33501" stroke-width="0.5" stroke="black" fill="cyan"/>
  <circle cx="405.47" cy="605.28" r="5.02224" stroke-width="0.5" stroke="black" fill="cyan"/>
   </g>
   <g id="cell105">
  <circle cx="514.689" cy="460.51" r="8.35568" stroke-width="0.5" stroke="black" fill="magenta"/>
  <circle cx="514.689" cy="460.51" r="5.02965" stroke-width="0.5" stroke="black" fill="magenta"/>
   </g>
   <g id="cell106">
  <circle cx="435.916" cy="403.63" r="8.347" stroke-width="0.5" stroke="black" fill="magenta"/>
  <circle cx="435.916" cy="403.63" r="5.02586" stroke-width="0.5" stroke="black" fill="magenta"/>
   </g>
   <g id="cell107">
  <circle cx="424.824" cy="459.031" r="8.21879" stroke-width="0.5" stroke="black" fill="cyan"/>
  <circle cx="424.824" cy="459.031" r="4.96824" stroke-width="0.5" stroke="black" fill="cyan"/>
   </g>
   <g id="cell108">
  <circle cx="523.621" cy="381.197" r="8.32543" stroke-width="0.5" stroke="black" fill="magenta"/>
  <circle cx="523.621" cy="381.197" r="5.01617" stroke-width="0.5" stroke="black" fill="magenta"/>
   </g>
   <g id="cell110">
  <circle cx="515.191" cy="399.689" r="8.26467" stroke-width="0.5" stroke="black" fill="magenta"/>
  <circle cx="515.191" cy="399.689" r="4.99054" stroke-width="0.5" stroke="black" fill="magenta"/>
   </g>
   <g id="cell111">
  <circle cx="516.559" cy="497.737" r="8.08789" stroke-width="0.5" stroke="black" fill="green"/>
  <circle cx="516.559" cy="497.737" r="4.90634" stroke-width="0.5" stroke="black" fill="green"/>
   </g>
   <g id="cell112">
  <circle cx="403.465" cy="585.754" r="8.30497" stroke-width="0.5" stroke="black" fill="cyan"/>
  <circle cx="403.465" cy="585.754" r="5.00736" stroke-width="0.5" stroke="black" fill="cyan"/>
   </g>
   <g id="cell113">
  <circle cx="339.926" cy="547.148" r="8.27842" stroke-width="0.5" stroke="black" fill="cyan"/>
  <circle cx="339.926" cy="547.148" r="4.99588" stroke-width="0.5" stroke="black" fill="cyan"/>
   </g>
   <g id="cell114">
  <circle cx="381.647" cy="608.422" r="8.20862" stroke-width="0.5" stroke="black" fill="cyan"/>
  <circle cx="381.647" cy="608.422" r="4.96604" stroke-width="0.5" stroke="black" fill="cyan"/>
   </g>
   <g id="cell115">
  <circle cx="392.288" cy="597.093" r="8.20862" stroke-width="0.5" stroke="black" fill="cyan"/>
  <circle cx="392.288" cy="597.093" r="4.96604" stroke-width="0.5" stroke="black" fill="cyan"/>
   </g>
   <g id="cell116">
  <circle cx="400.227" cy="543.104" r="8.28262" stroke-width="0.5" stroke="black" fill="green"/>
  <circle cx="400.227" cy="543.104" r="4.9961" stroke-width="0.5" stroke="black" fill="green"/>
   </g>
   <g id="cell117">
  <circle cx="381.984" cy="568.08" r="8.16955" stroke-width="0.5" stroke="black" fill="magenta"/>
  <circle cx="381.984" cy="568.08" r="4.94585" stroke-width="0.5" stroke="black" fill="magenta"/>
   </g>
   <g id="cell118">
  <circle cx="397.6" cy="439.024" r="8.22864" stroke-width="0.5" stroke="black" fill="cyan"/>
  <circle cx="397.6" cy="439.024" r="4.97354" stroke-width="0.5" stroke="black" fill="cyan"/>
   </g>
   <g id="cell119">
  <circle cx="571.289" cy="507.791" r="8.25499" stroke-width="0.5" stroke="black" fill="magenta"/>
  <circle cx="571.289" cy="507.791" r="4.98517" stroke-width="0.5" stroke="black" fill="magenta"/>
   </g>
   <g id="cell120">
  <circle cx="504.092" cy="488.459" r="8.22036" stroke-width="0.5" stroke="black" fill="green"/>
  <circle cx="504.092" cy="488.459" r="4.96986" stroke-width="0.5" stroke="black" fill="green"/>
   </g>
   <g id="cell122">
  <circle cx="439.525" cy="477.309" r="6.72125" stroke-width="0.5" stroke="black" fill="cyan"/>
  <circle cx="439.525" cy="477.309" r="4.08559" stroke-width="0.5" stroke="black" fill="cyan"/>
   </g>
   <g id="cell123">
  <circle cx="391.045" cy="555.927" r="8.16955" stroke-width="0.5" stroke="black" fill="magenta"/>
  <circle cx="391.045" cy="555.927" r="4.94585" stroke-width="0.5" stroke="black" fill="magenta"/>
   </g>
   <g id="cell125">
  <circle cx="533.672" cy="479.445" r="8.20689" stroke-width="0.5" stroke="black" fill="magenta"/>
  <circle cx="533.672" cy="479.445" r="4.95867" stroke-width="0.5" stroke="black" fill="magenta"/>
   </g>
   <g id="cell127">
  <circle cx="440.648" cy="533.07" r="8.1354" stroke-width="0.5" stroke="black" fill="magenta"/>
  <circle cx="440.648" cy="533.07" r="4.92532" stroke-width="0.5" stroke="black" fill="magenta"/>
   </g>
   <g id="cell128">
  <circle cx="550.246" cy="428.196" r="8.12307" stroke-width="0.5" stroke="black" fill="cyan"/>
  <circle cx="550.246" cy="428.196" r="4.91863" stroke-width="0.5" stroke="black" fill="cyan"/>
   </g>
   <g id="cell129">
  <circle cx="494.235" cy="519.267" r="8.13524" stroke-width="0.5" stroke="black" fill="green"/>
  <circle cx="494.235" cy="519.267" r="4.9223" stroke-width="0.5" stroke="black" fill="green"/>
   </g>
   <g id="cell130">
  <circle cx="454.583" cy="539.229" r="7.97525" stroke-width="0.5" stroke="black" fill="magenta"/>
  <circle cx="454.583" cy="539.229" r="4.84765" stroke-width="0.5" stroke="black" fill="magenta"/>
   </g>
   <g id="cell131">
  <circle cx="534.9" cy="587.012" r="8.05597" stroke-width="0.5" stroke="black" fill="green"/>
  <circle cx="534.9" cy="587.012" r="4.88163" stroke-width="0.5" stroke="black" fill="green"/>
   </g>
   <g id="cell132">
  <circle cx="404.25" cy="457.922" r="6.63284" stroke-width="0.5" stroke="black" fill="green"/>
  <circle cx="404.25" cy="457.922" r="4.04212" stroke-width="0.5" stroke="black" fill="green"/>
   </g>
   <g id="cell133">
  <circle cx="543.887" cy="532.987" r="8.05651" stroke-width="0.5" stroke="black" fill="cyan"/>
  <circle cx="543.887" cy="532.987" r="4.87966" stroke-width="0.5" stroke="black" fill="cyan"/>
   </g>
   <g id="cell134">
  <circle cx="518.527" cy="482.708" r="7.97593" stroke-width="0.5" stroke="black" fill="cyan"/>
  <circle cx="518.527" cy="482.708" r="4.83979" stroke-width="0.5" stroke="black" fill="cyan"/>
   </g>
   <g id="cell135">
  <circle cx="405.197" cy="557.016" r="7.16792" stroke-width="0.5" stroke="black" fill="green"/>
  <circle cx="405.197" cy="557.016" r="4.38693" stroke-width="0.5" stroke="black" fill="green"/>
   </g>
   <g id="cell136">
  <circle cx="456.136" cy="510.072" r="6.50389" stroke-width="0.5" stroke="black" fill="green"/>
  <circle cx="456.136" cy="510.072" r="4.00541" stroke-width="0.5" stroke="black" fill="green"/>
   </g>
   <g id="cell137">
  <circle cx="531.711" cy="622.593" r="7.8904" stroke-width="0.5" stroke="black" fill="green"/>
  <circle cx="531.711" cy="622.593" r="4.78853" stroke-width="0.5" stroke="black" fill="green"/>
   </g>
   <g id="cell138">
  <circle cx="432.376" cy="418.534" r="7.8091" stroke-width="0.5" stroke="black" fill="magenta"/>
  <circle cx="432.376" cy="418.534" r="4.74779" stroke-width="0.5" stroke="black" fill="magenta"/>
   </g>
   <g id="cell139">
  <circle cx="569.704" cy="465.844" r="7.70666" stroke-width="0.5" stroke="black" fill="cyan"/>
  <circle cx="569.704" cy="465.844" r="4.69658" stroke-width="0.5" stroke="black" fill="cyan"/>
   </g>
   <g id="cell140">
  <circle cx="450.268" cy="521.916" r="7.45708" stroke-width="0.5" stroke="black" fill="green"/>
  <circle cx="450.268" cy="521.916" r="4.55914" stroke-width="0.5" stroke="black" fill="green"/>
   </g>
   <g id="cell141">
  <circle cx="417.677" cy="552.288" r="7.16792" stroke-width="0.5" stroke="black" fill="green"/>
  <circle cx="417.677" cy="552.288" r="4.38693" stroke-width="0.5" stroke="black" fill="green"/>
   </g>
   <g id="cell142">
  <circle cx="599.382" cy="505.756" r="7.32125" stroke-width="0.5" stroke="black" fill="magenta"/>
  <circle cx="599.382" cy="505.756" r="4.45173" stroke-width="0.5" stroke="black" fill="magenta"/>
   </g>
   <g id="cell143">
  <circle cx="526.66" cy="437.647" r="6.98359" stroke-width="0.5" stroke="black" fill="cyan"/>
  <circle cx="526.66" cy="437.647" r="4.26794" stroke-width="0.5" stroke="black" fill="cyan"/>
   </g>
   <g id="cell144">
  <circle cx="517.141" cy="446.365" r="7.11997" stroke-width="0.5" stroke="black" fill="cyan"/>
  <circle cx="517.141" cy="446.365" r="4.32844" stroke-width="0.5" stroke="black" fill="cyan"/>
   </g>
   <g id="cell145">
  <circle cx="466.646" cy="513.959" r="5.37763" stroke-width="0.5" stroke="black" fill="green"/>
  <circle cx="466.646" cy="513.959" r="3.32455" stroke-width="0.5" stroke="black" fill="green"/>
   </g>
   <g id="cell146">
  <circle cx="424.216" cy="473.646" r="7.0545" stroke-width="0.5" stroke="black" fill="green"/>
  <circle cx="424.216" cy="473.646" r="4.27772" stroke-width="0.5" stroke="black" fill="green"/>
   </g>
   <g id="cell147">
  <circle cx="383.277" cy="544.342" r="6.95901" stroke-width="0.5" stroke="black" fill="magenta"/>
  <circle cx="383.277" cy="544.342" r="4.21341" stroke-width="0.5" stroke="black" fill="magenta"/>
   </g>
   <g id="cell148">
  <circle cx="591.425" cy="593.268" r="6.88576" stroke-width="0.5" stroke="black" fill="magenta"/>
  <circle cx="591.425" cy="593.268" r="4.16648" stroke-width="0.5" stroke="black" fill="magenta"/>
   </g>
   <g id="cell149">
  <circle cx="531.25" cy="493.08" r="6.74399" stroke-width="0.5" stroke="black" fill="magenta"/>
  <circle cx="531.25" cy="493.08" r="4.10051" stroke-width="0.5" stroke="black" fill="magenta"/>
   </g>
   <g id="cell150">
  <circle cx="413.131" cy="466.784" r="6.63284" stroke-width="0.5" stroke="black" fill="green"/>
  <circle cx="413.131" cy="466.784" r="4.04212" stroke-width="0.5" stroke="black" fill="green"/>
   </g>
   <g id="cell151">
  <circle cx="437.615" cy="464.832" r="6.72125" stroke-width="0.5" stroke="black" fill="cyan"/>
  <circle cx="437.615" cy="464.832" r="4.08559" stroke-width="0.5" stroke="black" fill="cyan"/>
   </g>
   <g id="cell152">
  <circle cx="467.514" cy="503.922" r="5.37763" stroke-width="0.5" stroke="black" fill="green"/>
  <circle cx="467.514" cy="503.922" r="3.32455" stroke-width="0.5" stroke="black" fill="green"/>
   </g>
   <g id="cell153">
  <circle cx="541.807" cy="489.498" r="5.43872" stroke-width="0.5" stroke="black" fill="magenta"/>
  <circle cx="541.807" cy="489.498" r="3.31523" stroke-width="0.5" stroke="black" fill="magenta"/>
   </g>
  </g>
 </g>
  <rect x="775" y="1035" width="200" height="10" stroke-width="2" stroke="rgb(255,255,255)" fill="rgb(0,0,0)"/>
  <text x="781.25" y="1028.75"
   font-family="Arial" font-size="25" fill="black" >
   200 &#956;m
  </text>
  <text x="25" y="1045"
   font-family="Arial" font-size="18.75" fill="black" >
   0 days, 0 hours, 0 minutes, and 29.9117 seconds
  </text>
  <rect x="0" y="70" width="1000" height="1000" stroke-width="2" stroke="rgb(0,0,0)" fill="none"/>
</svg>
