<?xml version="1.0" encoding="UTF-8" standalone="no"?>
<!-- Created with PhysiCell (http://PhysiCell.MathCancer.org/) -->
<svg 
 xmlns:dc="http://purl.org/dc/elements/1.1/" 
 xmlns:cc="http://creativecommons.org/ns#" 
 xmlns:rdf="http://www.w3.org/1999/02/22-rdf-syntax-ns#" 
 xmlns:svg="http://www.w3.org/2000/svg" 
 xmlns="http://www.w3.org/2000/svg" 
 version="1.1" 
 width="1000" 
 height="1070" 
 id="svg2">
  <rect x="0" y="0" width="1000" height="1070" stroke-width="2" stroke="white" fill="white"/>
  <text x="12.5" y="30"
   font-family="Arial" font-size="25" fill="black" >
   Current time: 0 days, 11 hours, and 0.00 minutes, z = 0.00 &#956;m
  </text>
  <text x="12.5" y="57.5"
   font-family="Arial" font-size="23.75" fill="black" >
   109 agents
  </text>
 <g id="tissue" 
    transform="translate(0,1070) scale(1,-1)">
  <g id="ECM">
  </g>
  <g id="cells">
   <g id="cell0">
  <circle cx="513.14" cy="530.984" r="8.41271" stroke-width="0.5" stroke="black" fill="magenta"/>
  <circle cx="513.14" cy="530.984" r="5.05167" stroke-width="0.5" stroke="black" fill="magenta"/>
   </g>
   <g id="cell1">
  <circle cx="601.548" cy="532.378" r="8.41271" stroke-width="0.5" stroke="black" fill="magenta"/>
  <circle cx="601.548" cy="532.378" r="5.05167" stroke-width="0.5" stroke="black" fill="magenta"/>
   </g>
   <g id="cell2">
  <circle cx="510.999" cy="600.214" r="8.41271" stroke-width="0.5" stroke="black" fill="magenta"/>
  <circle cx="510.999" cy="600.214" r="5.05167" stroke-width="0.5" stroke="black" fill="magenta"/>
   </g>
   <g id="cell3">
  <circle cx="532.323" cy="546.003" r="8.41271" stroke-width="0.5" stroke="black" fill="magenta"/>
  <circle cx="532.323" cy="546.003" r="5.05167" stroke-width="0.5" stroke="black" fill="magenta"/>
   </g>
   <g id="cell4">
  <circle cx="481.375" cy="439.864" r="8.41271" stroke-width="0.5" stroke="black" fill="magenta"/>
  <circle cx="481.375" cy="439.864" r="5.05167" stroke-width="0.5" stroke="black" fill="magenta"/>
   </g>
   <g id="cell5">
  <circle cx="465.032" cy="493.3" r="8.41271" stroke-width="0.5" stroke="black" fill="magenta"/>
  <circle cx="465.032" cy="493.3" r="5.05167" stroke-width="0.5" stroke="black" fill="magenta"/>
   </g>
   <g id="cell6">
  <circle cx="584.906" cy="512.087" r="7.50284" stroke-width="0.5" stroke="black" fill="magenta"/>
  <circle cx="584.906" cy="512.087" r="4.57198" stroke-width="0.5" stroke="black" fill="magenta"/>
   </g>
   <g id="cell7">
  <circle cx="504.707" cy="461.051" r="7.11815" stroke-width="0.5" stroke="black" fill="magenta"/>
  <circle cx="504.707" cy="461.051" r="4.31954" stroke-width="0.5" stroke="black" fill="magenta"/>
   </g>
   <g id="cell8">
  <circle cx="381.65" cy="543.56" r="8.41271" stroke-width="0.5" stroke="black" fill="magenta"/>
  <circle cx="381.65" cy="543.56" r="5.05167" stroke-width="0.5" stroke="black" fill="magenta"/>
   </g>
   <g id="cell9">
  <circle cx="465.138" cy="595.251" r="8.25377" stroke-width="0.5" stroke="black" fill="magenta"/>
  <circle cx="465.138" cy="595.251" r="4.98209" stroke-width="0.5" stroke="black" fill="magenta"/>
   </g>
   <g id="cell10">
  <circle cx="583.447" cy="392.105" r="8.41271" stroke-width="0.5" stroke="black" fill="magenta"/>
  <circle cx="583.447" cy="392.105" r="5.05167" stroke-width="0.5" stroke="black" fill="magenta"/>
   </g>
   <g id="cell11">
  <circle cx="595.062" cy="584.526" r="7.4358" stroke-width="0.5" stroke="black" fill="magenta"/>
  <circle cx="595.062" cy="584.526" r="4.54359" stroke-width="0.5" stroke="black" fill="magenta"/>
   </g>
   <g id="cell12">
  <circle cx="505.63" cy="585.11" r="8.41271" stroke-width="0.5" stroke="black" fill="magenta"/>
  <circle cx="505.63" cy="585.11" r="5.05167" stroke-width="0.5" stroke="black" fill="magenta"/>
   </g>
   <g id="cell13">
  <circle cx="394.169" cy="567.644" r="8.28262" stroke-width="0.5" stroke="black" fill="magenta"/>
  <circle cx="394.169" cy="567.644" r="4.9961" stroke-width="0.5" stroke="black" fill="magenta"/>
   </g>
   <g id="cell14">
  <circle cx="529.123" cy="395.711" r="1.19198" stroke-width="0.5" stroke="black" fill="magenta"/>
  <circle cx="529.123" cy="395.711" r="1.1876" stroke-width="0.5" stroke="black" fill="black"/>
   </g>
   <g id="cell15">
  <circle cx="379.896" cy="475.017" r="8.41271" stroke-width="0.5" stroke="black" fill="magenta"/>
  <circle cx="379.896" cy="475.017" r="5.05167" stroke-width="0.5" stroke="black" fill="magenta"/>
   </g>
   <g id="cell16">
  <circle cx="427.112" cy="419.751" r="6.95901" stroke-width="0.5" stroke="black" fill="magenta"/>
  <circle cx="427.112" cy="419.751" r="4.21341" stroke-width="0.5" stroke="black" fill="magenta"/>
   </g>
   <g id="cell17">
  <circle cx="572.294" cy="491.869" r="8.41271" stroke-width="0.5" stroke="black" fill="magenta"/>
  <circle cx="572.294" cy="491.869" r="5.05167" stroke-width="0.5" stroke="black" fill="magenta"/>
   </g>
   <g id="cell18">
  <circle cx="512.941" cy="390.902" r="6.69288" stroke-width="0.5" stroke="black" fill="magenta"/>
  <circle cx="512.941" cy="390.902" r="4.02051" stroke-width="0.5" stroke="black" fill="magenta"/>
   </g>
   <g id="cell19">
  <circle cx="453.547" cy="546.136" r="7.30216" stroke-width="0.5" stroke="black" fill="magenta"/>
  <circle cx="453.547" cy="546.136" r="4.43696" stroke-width="0.5" stroke="black" fill="magenta"/>
   </g>
   <g id="cell20">
  <circle cx="532.123" cy="418.107" r="8.41271" stroke-width="0.5" stroke="black" fill="magenta"/>
  <circle cx="532.123" cy="418.107" r="5.05167" stroke-width="0.5" stroke="black" fill="magenta"/>
   </g>
   <g id="cell21">
  <circle cx="464.212" cy="634.718" r="8.41271" stroke-width="0.5" stroke="black" fill="magenta"/>
  <circle cx="464.212" cy="634.718" r="5.05167" stroke-width="0.5" stroke="black" fill="magenta"/>
   </g>
   <g id="cell22">
  <circle cx="556.509" cy="494.453" r="8.41271" stroke-width="0.5" stroke="black" fill="magenta"/>
  <circle cx="556.509" cy="494.453" r="5.05167" stroke-width="0.5" stroke="black" fill="magenta"/>
   </g>
   <g id="cell23">
  <circle cx="534.626" cy="484.956" r="8.41271" stroke-width="0.5" stroke="black" fill="magenta"/>
  <circle cx="534.626" cy="484.956" r="5.05167" stroke-width="0.5" stroke="black" fill="magenta"/>
   </g>
   <g id="cell24">
  <circle cx="559.289" cy="379.784" r="1.54796" stroke-width="0.5" stroke="black" fill="magenta"/>
  <circle cx="559.289" cy="379.784" r="1.52398" stroke-width="0.5" stroke="black" fill="black"/>
   </g>
   <g id="cell25">
  <circle cx="638.62" cy="553.055" r="7.13553" stroke-width="0.5" stroke="black" fill="green"/>
  <circle cx="638.62" cy="553.055" r="4.37833" stroke-width="0.5" stroke="black" fill="green"/>
   </g>
   <g id="cell26">
  <circle cx="556.764" cy="399.116" r="7.96365" stroke-width="0.5" stroke="black" fill="green"/>
  <circle cx="556.764" cy="399.116" r="4.82873" stroke-width="0.5" stroke="black" fill="green"/>
   </g>
   <g id="cell27">
  <circle cx="457.446" cy="388.678" r="8.41271" stroke-width="0.5" stroke="black" fill="green"/>
  <circle cx="457.446" cy="388.678" r="5.05167" stroke-width="0.5" stroke="black" fill="green"/>
   </g>
   <g id="cell28">
  <circle cx="437.16" cy="529.7" r="8.41271" stroke-width="0.5" stroke="black" fill="green"/>
  <circle cx="437.16" cy="529.7" r="5.05167" stroke-width="0.5" stroke="black" fill="green"/>
   </g>
   <g id="cell29">
  <circle cx="448.231" cy="518.033" r="8.41271" stroke-width="0.5" stroke="black" fill="green"/>
  <circle cx="448.231" cy="518.033" r="5.05167" stroke-width="0.5" stroke="black" fill="green"/>
   </g>
   <g id="cell30">
  <circle cx="481.58" cy="540.282" r="1.72142" stroke-width="0.5" stroke="black" fill="green"/>
  <circle cx="481.58" cy="540.282" r="1.67587" stroke-width="0.5" stroke="black" fill="black"/>
   </g>
   <g id="cell31">
  <circle cx="412.757" cy="541.193" r="8.41271" stroke-width="0.5" stroke="black" fill="green"/>
  <circle cx="412.757" cy="541.193" r="5.05167" stroke-width="0.5" stroke="black" fill="green"/>
   </g>
   <g id="cell32">
  <circle cx="422.401" cy="478.043" r="8.41271" stroke-width="0.5" stroke="black" fill="green"/>
  <circle cx="422.401" cy="478.043" r="5.05167" stroke-width="0.5" stroke="black" fill="green"/>
   </g>
   <g id="cell33">
  <circle cx="494.146" cy="423.183" r="8.41271" stroke-width="0.5" stroke="black" fill="green"/>
  <circle cx="494.146" cy="423.183" r="5.05167" stroke-width="0.5" stroke="black" fill="green"/>
   </g>
   <g id="cell34">
  <circle cx="397.088" cy="450.831" r="8.41271" stroke-width="0.5" stroke="black" fill="green"/>
  <circle cx="397.088" cy="450.831" r="5.05167" stroke-width="0.5" stroke="black" fill="green"/>
   </g>
   <g id="cell35">
  <circle cx="548.079" cy="543.067" r="8.41271" stroke-width="0.5" stroke="black" fill="green"/>
  <circle cx="548.079" cy="543.067" r="5.05167" stroke-width="0.5" stroke="black" fill="green"/>
   </g>
   <g id="cell36">
  <circle cx="391.997" cy="583.305" r="8.41271" stroke-width="0.5" stroke="black" fill="green"/>
  <circle cx="391.997" cy="583.305" r="5.05167" stroke-width="0.5" stroke="black" fill="green"/>
   </g>
   <g id="cell37">
  <circle cx="634.871" cy="460.618" r="8.41271" stroke-width="0.5" stroke="black" fill="green"/>
  <circle cx="634.871" cy="460.618" r="5.05167" stroke-width="0.5" stroke="black" fill="green"/>
   </g>
   <g id="cell38">
  <circle cx="538.35" cy="613.453" r="8.28262" stroke-width="0.5" stroke="black" fill="green"/>
  <circle cx="538.35" cy="613.453" r="4.9961" stroke-width="0.5" stroke="black" fill="green"/>
   </g>
   <g id="cell39">
  <circle cx="613.832" cy="489.214" r="8.41271" stroke-width="0.5" stroke="black" fill="green"/>
  <circle cx="613.832" cy="489.214" r="5.05167" stroke-width="0.5" stroke="black" fill="green"/>
   </g>
   <g id="cell40">
  <circle cx="482.465" cy="566.891" r="8.13008" stroke-width="0.5" stroke="black" fill="green"/>
  <circle cx="482.465" cy="566.891" r="4.91894" stroke-width="0.5" stroke="black" fill="green"/>
   </g>
   <g id="cell41">
  <circle cx="364.751" cy="480.251" r="8.41271" stroke-width="0.5" stroke="black" fill="green"/>
  <circle cx="364.751" cy="480.251" r="5.05167" stroke-width="0.5" stroke="black" fill="green"/>
   </g>
   <g id="cell42">
  <circle cx="438.842" cy="494.268" r="8.41271" stroke-width="0.5" stroke="black" fill="green"/>
  <circle cx="438.842" cy="494.268" r="5.05167" stroke-width="0.5" stroke="black" fill="green"/>
   </g>
   <g id="cell43">
  <circle cx="559.909" cy="444.797" r="8.41271" stroke-width="0.5" stroke="black" fill="green"/>
  <circle cx="559.909" cy="444.797" r="5.05167" stroke-width="0.5" stroke="black" fill="green"/>
   </g>
   <g id="cell44">
  <circle cx="476.013" cy="623.877" r="8.41271" stroke-width="0.5" stroke="black" fill="green"/>
  <circle cx="476.013" cy="623.877" r="5.05167" stroke-width="0.5" stroke="black" fill="green"/>
   </g>
   <g id="cell45">
  <circle cx="414.953" cy="557.066" r="8.41271" stroke-width="0.5" stroke="black" fill="green"/>
  <circle cx="414.953" cy="557.066" r="5.05167" stroke-width="0.5" stroke="black" fill="green"/>
   </g>
   <g id="cell46">
  <circle cx="522.573" cy="611.362" r="8.41271" stroke-width="0.5" stroke="black" fill="green"/>
  <circle cx="522.573" cy="611.362" r="5.05167" stroke-width="0.5" stroke="black" fill="green"/>
   </g>
   <g id="cell47">
  <circle cx="496.118" cy="507.957" r="8.29331" stroke-width="0.5" stroke="black" fill="green"/>
  <circle cx="496.118" cy="507.957" r="5.0012" stroke-width="0.5" stroke="black" fill="green"/>
   </g>
   <g id="cell48">
  <circle cx="564.143" cy="603.12" r="8.41271" stroke-width="0.5" stroke="black" fill="green"/>
  <circle cx="564.143" cy="603.12" r="5.05167" stroke-width="0.5" stroke="black" fill="green"/>
   </g>
   <g id="cell49">
  <circle cx="429.275" cy="393.362" r="8.41271" stroke-width="0.5" stroke="black" fill="green"/>
  <circle cx="429.275" cy="393.362" r="5.05167" stroke-width="0.5" stroke="black" fill="green"/>
   </g>
   <g id="cell50">
  <circle cx="520.349" cy="516.677" r="8.41271" stroke-width="0.5" stroke="black" fill="cyan"/>
  <circle cx="520.349" cy="516.677" r="5.05167" stroke-width="0.5" stroke="black" fill="cyan"/>
   </g>
   <g id="cell51">
  <circle cx="405.87" cy="590.993" r="8.22925" stroke-width="0.5" stroke="black" fill="cyan"/>
  <circle cx="405.87" cy="590.993" r="4.96993" stroke-width="0.5" stroke="black" fill="cyan"/>
   </g>
   <g id="cell52">
  <circle cx="521.428" cy="430.108" r="8.41271" stroke-width="0.5" stroke="black" fill="cyan"/>
  <circle cx="521.428" cy="430.108" r="5.05167" stroke-width="0.5" stroke="black" fill="cyan"/>
   </g>
   <g id="cell53">
  <circle cx="574.11" cy="439.963" r="7.41548" stroke-width="0.5" stroke="black" fill="cyan"/>
  <circle cx="574.11" cy="439.963" r="4.50723" stroke-width="0.5" stroke="black" fill="cyan"/>
   </g>
   <g id="cell54">
  <circle cx="478.152" cy="424.167" r="8.41271" stroke-width="0.5" stroke="black" fill="cyan"/>
  <circle cx="478.152" cy="424.167" r="5.05167" stroke-width="0.5" stroke="black" fill="cyan"/>
   </g>
   <g id="cell55">
  <circle cx="530.77" cy="467.562" r="7.3599" stroke-width="0.5" stroke="black" fill="cyan"/>
  <circle cx="530.77" cy="467.562" r="4.47294" stroke-width="0.5" stroke="black" fill="cyan"/>
   </g>
   <g id="cell56">
  <circle cx="626.154" cy="521.73" r="7.67987" stroke-width="0.5" stroke="black" fill="cyan"/>
  <circle cx="626.154" cy="521.73" r="4.66617" stroke-width="0.5" stroke="black" fill="cyan"/>
   </g>
   <g id="cell57">
  <circle cx="416.924" cy="617.466" r="8.41271" stroke-width="0.5" stroke="black" fill="cyan"/>
  <circle cx="416.924" cy="617.466" r="5.05167" stroke-width="0.5" stroke="black" fill="cyan"/>
   </g>
   <g id="cell58">
  <circle cx="549.718" cy="480.036" r="8.41271" stroke-width="0.5" stroke="black" fill="cyan"/>
  <circle cx="549.718" cy="480.036" r="5.05167" stroke-width="0.5" stroke="black" fill="cyan"/>
   </g>
   <g id="cell59">
  <circle cx="385.463" cy="439.803" r="8.41271" stroke-width="0.5" stroke="black" fill="cyan"/>
  <circle cx="385.463" cy="439.803" r="5.05167" stroke-width="0.5" stroke="black" fill="cyan"/>
   </g>
   <g id="cell60">
  <circle cx="604.892" cy="473.322" r="8.18833" stroke-width="0.5" stroke="black" fill="cyan"/>
  <circle cx="604.892" cy="473.322" r="4.94921" stroke-width="0.5" stroke="black" fill="cyan"/>
   </g>
   <g id="cell61">
  <circle cx="552.376" cy="613.284" r="1.39843" stroke-width="0.5" stroke="black" fill="cyan"/>
  <circle cx="552.376" cy="613.284" r="1.38586" stroke-width="0.5" stroke="black" fill="black"/>
   </g>
   <g id="cell62">
  <circle cx="520.635" cy="445.225" r="7.41548" stroke-width="0.5" stroke="black" fill="cyan"/>
  <circle cx="520.635" cy="445.225" r="4.50723" stroke-width="0.5" stroke="black" fill="cyan"/>
   </g>
   <g id="cell63">
  <circle cx="577.42" cy="546.554" r="8.41271" stroke-width="0.5" stroke="black" fill="cyan"/>
  <circle cx="577.42" cy="546.554" r="5.05167" stroke-width="0.5" stroke="black" fill="cyan"/>
   </g>
   <g id="cell64">
  <circle cx="509.962" cy="636.825" r="8.41271" stroke-width="0.5" stroke="black" fill="cyan"/>
  <circle cx="509.962" cy="636.825" r="5.05167" stroke-width="0.5" stroke="black" fill="cyan"/>
   </g>
   <g id="cell65">
  <circle cx="545.42" cy="464.735" r="8.41271" stroke-width="0.5" stroke="black" fill="cyan"/>
  <circle cx="545.42" cy="464.735" r="5.05167" stroke-width="0.5" stroke="black" fill="cyan"/>
   </g>
   <g id="cell66">
  <circle cx="537.645" cy="530.889" r="8.41271" stroke-width="0.5" stroke="black" fill="cyan"/>
  <circle cx="537.645" cy="530.889" r="5.05167" stroke-width="0.5" stroke="black" fill="cyan"/>
   </g>
   <g id="cell67">
  <circle cx="354.64" cy="492.683" r="8.41271" stroke-width="0.5" stroke="black" fill="cyan"/>
  <circle cx="354.64" cy="492.683" r="5.05167" stroke-width="0.5" stroke="black" fill="cyan"/>
   </g>
   <g id="cell68">
  <circle cx="562.018" cy="550.998" r="8.41271" stroke-width="0.5" stroke="black" fill="cyan"/>
  <circle cx="562.018" cy="550.998" r="5.05167" stroke-width="0.5" stroke="black" fill="cyan"/>
   </g>
   <g id="cell69">
  <circle cx="443.392" cy="460.955" r="6.92764" stroke-width="0.5" stroke="black" fill="cyan"/>
  <circle cx="443.392" cy="460.955" r="4.1918" stroke-width="0.5" stroke="black" fill="cyan"/>
   </g>
   <g id="cell70">
  <circle cx="576.937" cy="477.144" r="7.87851" stroke-width="0.5" stroke="black" fill="cyan"/>
  <circle cx="576.937" cy="477.144" r="4.78096" stroke-width="0.5" stroke="black" fill="cyan"/>
   </g>
   <g id="cell71">
  <circle cx="377.712" cy="520.989" r="8.41271" stroke-width="0.5" stroke="black" fill="cyan"/>
  <circle cx="377.712" cy="520.989" r="5.05167" stroke-width="0.5" stroke="black" fill="cyan"/>
   </g>
   <g id="cell72">
  <circle cx="536.273" cy="514.917" r="8.41271" stroke-width="0.5" stroke="black" fill="cyan"/>
  <circle cx="536.273" cy="514.917" r="5.05167" stroke-width="0.5" stroke="black" fill="cyan"/>
   </g>
   <g id="cell73">
  <circle cx="352.164" cy="547.474" r="7.7401" stroke-width="0.5" stroke="black" fill="cyan"/>
  <circle cx="352.164" cy="547.474" r="4.70142" stroke-width="0.5" stroke="black" fill="cyan"/>
   </g>
   <g id="cell74">
  <circle cx="544.561" cy="448.895" r="8.41271" stroke-width="0.5" stroke="black" fill="cyan"/>
  <circle cx="544.561" cy="448.895" r="5.05167" stroke-width="0.5" stroke="black" fill="cyan"/>
   </g>
   <g id="cell75">
  <circle cx="590.886" cy="498.55" r="8.06497" stroke-width="0.5" stroke="black" fill="magenta"/>
  <circle cx="590.886" cy="498.55" r="4.89074" stroke-width="0.5" stroke="black" fill="magenta"/>
   </g>
   <g id="cell76">
  <circle cx="647.157" cy="541.249" r="8.29667" stroke-width="0.5" stroke="black" fill="green"/>
  <circle cx="647.157" cy="541.249" r="5.00279" stroke-width="0.5" stroke="black" fill="green"/>
   </g>
   <g id="cell77">
  <circle cx="511.292" cy="503.606" r="8.29331" stroke-width="0.5" stroke="black" fill="green"/>
  <circle cx="511.292" cy="503.606" r="5.0012" stroke-width="0.5" stroke="black" fill="green"/>
   </g>
   <g id="cell78">
  <circle cx="371.663" cy="570.431" r="7.91726" stroke-width="0.5" stroke="black" fill="magenta"/>
  <circle cx="371.663" cy="570.431" r="4.81183" stroke-width="0.5" stroke="black" fill="magenta"/>
   </g>
   <g id="cell79">
  <circle cx="534.993" cy="584.087" r="7.95847" stroke-width="0.5" stroke="black" fill="green"/>
  <circle cx="534.993" cy="584.087" r="4.84017" stroke-width="0.5" stroke="black" fill="green"/>
   </g>
   <g id="cell80">
  <circle cx="453.873" cy="606.201" r="8.25377" stroke-width="0.5" stroke="black" fill="magenta"/>
  <circle cx="453.873" cy="606.201" r="4.98209" stroke-width="0.5" stroke="black" fill="magenta"/>
   </g>
   <g id="cell81">
  <circle cx="392.695" cy="613.516" r="7.29813" stroke-width="0.5" stroke="black" fill="cyan"/>
  <circle cx="392.695" cy="613.516" r="4.45391" stroke-width="0.5" stroke="black" fill="cyan"/>
   </g>
   <g id="cell82">
  <circle cx="586.518" cy="466.165" r="7.50207" stroke-width="0.5" stroke="black" fill="cyan"/>
  <circle cx="586.518" cy="466.165" r="4.57844" stroke-width="0.5" stroke="black" fill="cyan"/>
   </g>
   <g id="cell83">
  <circle cx="541.152" cy="598.104" r="8.12016" stroke-width="0.5" stroke="black" fill="green"/>
  <circle cx="541.152" cy="598.104" r="4.91999" stroke-width="0.5" stroke="black" fill="green"/>
   </g>
   <g id="cell84">
  <circle cx="490.781" cy="579.918" r="8.13008" stroke-width="0.5" stroke="black" fill="green"/>
  <circle cx="490.781" cy="579.918" r="4.91894" stroke-width="0.5" stroke="black" fill="green"/>
   </g>
   <g id="cell85">
  <circle cx="605.676" cy="502.614" r="8.06497" stroke-width="0.5" stroke="black" fill="magenta"/>
  <circle cx="605.676" cy="502.614" r="4.89074" stroke-width="0.5" stroke="black" fill="magenta"/>
   </g>
   <g id="cell86">
  <circle cx="525.996" cy="596.202" r="7.95847" stroke-width="0.5" stroke="black" fill="green"/>
  <circle cx="525.996" cy="596.202" r="4.84017" stroke-width="0.5" stroke="black" fill="green"/>
   </g>
   <g id="cell87">
  <circle cx="590.567" cy="598.578" r="8.07654" stroke-width="0.5" stroke="black" fill="magenta"/>
  <circle cx="590.567" cy="598.578" r="4.89046" stroke-width="0.5" stroke="black" fill="magenta"/>
   </g>
   <g id="cell88">
  <circle cx="381.446" cy="559.04" r="7.91726" stroke-width="0.5" stroke="black" fill="magenta"/>
  <circle cx="381.446" cy="559.04" r="4.81183" stroke-width="0.5" stroke="black" fill="magenta"/>
   </g>
   <g id="cell89">
  <circle cx="545.873" cy="411.423" r="7.57646" stroke-width="0.5" stroke="black" fill="green"/>
  <circle cx="545.873" cy="411.423" r="4.62723" stroke-width="0.5" stroke="black" fill="green"/>
   </g>
   <g id="cell90">
  <circle cx="562.896" cy="472.052" r="7.87851" stroke-width="0.5" stroke="black" fill="cyan"/>
  <circle cx="562.896" cy="472.052" r="4.78096" stroke-width="0.5" stroke="black" fill="cyan"/>
   </g>
   <g id="cell91">
  <circle cx="542.115" cy="397.567" r="7.57646" stroke-width="0.5" stroke="black" fill="green"/>
  <circle cx="542.115" cy="397.567" r="4.62723" stroke-width="0.5" stroke="black" fill="green"/>
   </g>
   <g id="cell92">
  <circle cx="641.309" cy="566.768" r="7.69126" stroke-width="0.5" stroke="black" fill="green"/>
  <circle cx="641.309" cy="566.768" r="4.68338" stroke-width="0.5" stroke="black" fill="green"/>
   </g>
   <g id="cell93">
  <circle cx="366.337" cy="543.704" r="7.7401" stroke-width="0.5" stroke="black" fill="cyan"/>
  <circle cx="366.337" cy="543.704" r="4.70142" stroke-width="0.5" stroke="black" fill="cyan"/>
   </g>
   <g id="cell94">
  <circle cx="611.736" cy="521.053" r="7.67987" stroke-width="0.5" stroke="black" fill="cyan"/>
  <circle cx="611.736" cy="521.053" r="4.66617" stroke-width="0.5" stroke="black" fill="cyan"/>
   </g>
   <g id="cell95">
  <circle cx="581.194" cy="587.174" r="7.4358" stroke-width="0.5" stroke="black" fill="magenta"/>
  <circle cx="581.194" cy="587.174" r="4.54359" stroke-width="0.5" stroke="black" fill="magenta"/>
   </g>
   <g id="cell96">
  <circle cx="591.351" cy="479.582" r="7.50207" stroke-width="0.5" stroke="black" fill="cyan"/>
  <circle cx="591.351" cy="479.582" r="4.57844" stroke-width="0.5" stroke="black" fill="cyan"/>
   </g>
   <g id="cell97">
  <circle cx="626.084" cy="548.144" r="7.13553" stroke-width="0.5" stroke="black" fill="green"/>
  <circle cx="626.084" cy="548.144" r="4.37833" stroke-width="0.5" stroke="black" fill="green"/>
   </g>
   <g id="cell98">
  <circle cx="598.588" cy="515.633" r="7.50284" stroke-width="0.5" stroke="black" fill="magenta"/>
  <circle cx="598.588" cy="515.633" r="4.57198" stroke-width="0.5" stroke="black" fill="magenta"/>
   </g>
   <g id="cell99">
  <circle cx="563.865" cy="430.281" r="7.41548" stroke-width="0.5" stroke="black" fill="cyan"/>
  <circle cx="563.865" cy="430.281" r="4.50723" stroke-width="0.5" stroke="black" fill="cyan"/>
   </g>
   <g id="cell100">
  <circle cx="385.713" cy="595.869" r="6.43892" stroke-width="0.5" stroke="black" fill="cyan"/>
  <circle cx="385.713" cy="595.869" r="3.96232" stroke-width="0.5" stroke="black" fill="cyan"/>
   </g>
   <g id="cell101">
  <circle cx="533.311" cy="439.166" r="7.41548" stroke-width="0.5" stroke="black" fill="cyan"/>
  <circle cx="533.311" cy="439.166" r="4.50723" stroke-width="0.5" stroke="black" fill="cyan"/>
   </g>
   <g id="cell102">
  <circle cx="521.43" cy="478.194" r="7.3599" stroke-width="0.5" stroke="black" fill="cyan"/>
  <circle cx="521.43" cy="478.194" r="4.47294" stroke-width="0.5" stroke="black" fill="cyan"/>
   </g>
   <g id="cell103">
  <circle cx="451.827" cy="532.45" r="7.30216" stroke-width="0.5" stroke="black" fill="magenta"/>
  <circle cx="451.827" cy="532.45" r="4.43696" stroke-width="0.5" stroke="black" fill="magenta"/>
   </g>
   <g id="cell104">
  <circle cx="396.615" cy="601.213" r="6.43892" stroke-width="0.5" stroke="black" fill="cyan"/>
  <circle cx="396.615" cy="601.213" r="3.96232" stroke-width="0.5" stroke="black" fill="cyan"/>
   </g>
   <g id="cell105">
  <circle cx="517.387" cy="465.196" r="7.11815" stroke-width="0.5" stroke="black" fill="magenta"/>
  <circle cx="517.387" cy="465.196" r="4.31954" stroke-width="0.5" stroke="black" fill="magenta"/>
   </g>
   <g id="cell106">
  <circle cx="432.223" cy="407.616" r="6.95901" stroke-width="0.5" stroke="black" fill="magenta"/>
  <circle cx="432.223" cy="407.616" r="4.21341" stroke-width="0.5" stroke="black" fill="magenta"/>
   </g>
   <g id="cell107">
  <circle cx="431.738" cy="466.932" r="6.92764" stroke-width="0.5" stroke="black" fill="cyan"/>
  <circle cx="431.738" cy="466.932" r="4.1918" stroke-width="0.5" stroke="black" fill="cyan"/>
   </g>
   <g id="cell108">
  <circle cx="521.905" cy="382.026" r="6.69288" stroke-width="0.5" stroke="black" fill="magenta"/>
  <circle cx="521.905" cy="382.026" r="4.02051" stroke-width="0.5" stroke="black" fill="magenta"/>
   </g>
  </g>
 </g>
  <rect x="775" y="1035" width="200" height="10" stroke-width="2" stroke="rgb(255,255,255)" fill="rgb(0,0,0)"/>
  <text x="781.25" y="1028.75"
   font-family="Arial" font-size="25" fill="black" >
   200 &#956;m
  </text>
  <text x="25" y="1045"
   font-family="Arial" font-size="18.75" fill="black" >
   0 days, 0 hours, 0 minutes, and 15.0403 seconds
  </text>
  <rect x="0" y="70" width="1000" height="1000" stroke-width="2" stroke="rgb(0,0,0)" fill="none"/>
</svg>
