<?xml version="1.0" encoding="UTF-8" standalone="no"?>
<!-- Created with PhysiCell (http://PhysiCell.MathCancer.org/) -->
<svg 
 xmlns:dc="http://purl.org/dc/elements/1.1/" 
 xmlns:cc="http://creativecommons.org/ns#" 
 xmlns:rdf="http://www.w3.org/1999/02/22-rdf-syntax-ns#" 
 xmlns:svg="http://www.w3.org/2000/svg" 
 xmlns="http://www.w3.org/2000/svg" 
 version="1.1" 
 width="1000" 
 height="1070" 
 id="svg2">
  <rect x="0" y="0" width="1000" height="1070" stroke-width="2" stroke="white" fill="white"/>
  <text x="12.5" y="30"
   font-family="Arial" font-size="25" fill="black" >
   Current time: 1 days, 6 hours, and 0.00 minutes, z = 0.00 &#956;m
  </text>
  <text x="12.5" y="57.5"
   font-family="Arial" font-size="23.75" fill="black" >
   182 agents
  </text>
 <g id="tissue" 
    transform="translate(0,1070) scale(1,-1)">
  <g id="ECM">
  </g>
  <g id="cells">
   <g id="cell0">
  <circle cx="513.633" cy="532.913" r="8.41271" stroke-width="0.5" stroke="black" fill="magenta"/>
  <circle cx="513.633" cy="532.913" r="5.05167" stroke-width="0.5" stroke="black" fill="magenta"/>
   </g>
   <g id="cell1">
  <circle cx="605.38" cy="539.527" r="8.41271" stroke-width="0.5" stroke="black" fill="magenta"/>
  <circle cx="605.38" cy="539.527" r="5.05167" stroke-width="0.5" stroke="black" fill="magenta"/>
   </g>
   <g id="cell2">
  <circle cx="505.687" cy="599.891" r="8.41271" stroke-width="0.5" stroke="black" fill="magenta"/>
  <circle cx="505.687" cy="599.891" r="5.05167" stroke-width="0.5" stroke="black" fill="magenta"/>
   </g>
   <g id="cell3">
  <circle cx="524.779" cy="556.47" r="8.16806" stroke-width="0.5" stroke="black" fill="magenta"/>
  <circle cx="524.779" cy="556.47" r="4.93877" stroke-width="0.5" stroke="black" fill="magenta"/>
   </g>
   <g id="cell4">
  <circle cx="481.375" cy="439.863" r="8.41271" stroke-width="0.5" stroke="black" fill="magenta"/>
  <circle cx="481.375" cy="439.863" r="5.05167" stroke-width="0.5" stroke="black" fill="magenta"/>
   </g>
   <g id="cell5">
  <circle cx="464.149" cy="487.978" r="8.41271" stroke-width="0.5" stroke="black" fill="magenta"/>
  <circle cx="464.149" cy="487.978" r="5.05167" stroke-width="0.5" stroke="black" fill="magenta"/>
   </g>
   <g id="cell6">
  <circle cx="586.115" cy="516.632" r="8.39627" stroke-width="0.5" stroke="black" fill="magenta"/>
  <circle cx="586.115" cy="516.632" r="5.04638" stroke-width="0.5" stroke="black" fill="magenta"/>
   </g>
   <g id="cell171">
  <circle cx="582.899" cy="501.972" r="7.73913" stroke-width="0.5" stroke="black" fill="magenta"/>
  <circle cx="582.899" cy="501.972" r="4.70116" stroke-width="0.5" stroke="black" fill="magenta"/>
   </g>
   <g id="cell8">
  <circle cx="383.927" cy="528.098" r="8.25826" stroke-width="0.5" stroke="black" fill="magenta"/>
  <circle cx="383.927" cy="528.098" r="4.98429" stroke-width="0.5" stroke="black" fill="magenta"/>
   </g>
   <g id="cell9">
  <circle cx="464.593" cy="595.758" r="1.34698" stroke-width="0.5" stroke="black" fill="magenta"/>
  <circle cx="464.593" cy="595.758" r="1.33714" stroke-width="0.5" stroke="black" fill="black"/>
   </g>
   <g id="cell186">
  <circle cx="548.043" cy="433.245" r="6.6003" stroke-width="0.5" stroke="black" fill="cyan"/>
  <circle cx="548.043" cy="433.245" r="3.98789" stroke-width="0.5" stroke="black" fill="cyan"/>
   </g>
   <g id="cell11">
  <circle cx="597.51" cy="572.655" r="8.1358" stroke-width="0.5" stroke="black" fill="magenta"/>
  <circle cx="597.51" cy="572.655" r="4.9225" stroke-width="0.5" stroke="black" fill="magenta"/>
   </g>
   <g id="cell12">
  <circle cx="505.117" cy="584.031" r="8.41271" stroke-width="0.5" stroke="black" fill="magenta"/>
  <circle cx="505.117" cy="584.031" r="5.05167" stroke-width="0.5" stroke="black" fill="magenta"/>
   </g>
   <g id="cell13">
  <circle cx="395.235" cy="571.799" r="8.41207" stroke-width="0.5" stroke="black" fill="magenta"/>
  <circle cx="395.235" cy="571.799" r="5.05152" stroke-width="0.5" stroke="black" fill="magenta"/>
   </g>
   <g id="cell109">
  <circle cx="373.358" cy="443.06" r="8.40244" stroke-width="0.5" stroke="black" fill="cyan"/>
  <circle cx="373.358" cy="443.06" r="5.04843" stroke-width="0.5" stroke="black" fill="cyan"/>
   </g>
   <g id="cell15">
  <circle cx="379.833" cy="474.699" r="1.67536" stroke-width="0.5" stroke="black" fill="magenta"/>
  <circle cx="379.833" cy="474.699" r="1.63653" stroke-width="0.5" stroke="black" fill="black"/>
   </g>
   <g id="cell16">
  <circle cx="420.023" cy="428.056" r="8.35216" stroke-width="0.5" stroke="black" fill="magenta"/>
  <circle cx="420.023" cy="428.056" r="5.02858" stroke-width="0.5" stroke="black" fill="magenta"/>
   </g>
   <g id="cell17">
  <circle cx="568.529" cy="501.792" r="8.04604" stroke-width="0.5" stroke="black" fill="magenta"/>
  <circle cx="568.529" cy="501.792" r="4.87399" stroke-width="0.5" stroke="black" fill="magenta"/>
   </g>
   <g id="cell185">
  <circle cx="400.245" cy="545.606" r="5.88611" stroke-width="0.5" stroke="black" fill="green"/>
  <circle cx="400.245" cy="545.606" r="3.59657" stroke-width="0.5" stroke="black" fill="green"/>
   </g>
   <g id="cell19">
  <circle cx="450.294" cy="550.007" r="7.05087" stroke-width="0.5" stroke="black" fill="magenta"/>
  <circle cx="450.294" cy="550.007" r="4.27657" stroke-width="0.5" stroke="black" fill="magenta"/>
   </g>
   <g id="cell20">
  <circle cx="531.919" cy="420.442" r="8.41271" stroke-width="0.5" stroke="black" fill="magenta"/>
  <circle cx="531.919" cy="420.442" r="5.05167" stroke-width="0.5" stroke="black" fill="magenta"/>
   </g>
   <g id="cell21">
  <circle cx="463.687" cy="635.643" r="8.41271" stroke-width="0.5" stroke="black" fill="magenta"/>
  <circle cx="463.687" cy="635.643" r="5.05167" stroke-width="0.5" stroke="black" fill="magenta"/>
   </g>
   <g id="cell22">
  <circle cx="554.942" cy="495.456" r="8.41271" stroke-width="0.5" stroke="black" fill="magenta"/>
  <circle cx="554.942" cy="495.456" r="5.05167" stroke-width="0.5" stroke="black" fill="magenta"/>
   </g>
   <g id="cell23">
  <circle cx="551.591" cy="510.427" r="7.74955" stroke-width="0.5" stroke="black" fill="magenta"/>
  <circle cx="551.591" cy="510.427" r="4.72666" stroke-width="0.5" stroke="black" fill="magenta"/>
   </g>
   <g id="cell124">
  <circle cx="556.903" cy="457.471" r="8.34262" stroke-width="0.5" stroke="black" fill="cyan"/>
  <circle cx="556.903" cy="457.471" r="5.02496" stroke-width="0.5" stroke="black" fill="cyan"/>
   </g>
   <g id="cell25">
  <circle cx="636.747" cy="554.732" r="8.40719" stroke-width="0.5" stroke="black" fill="green"/>
  <circle cx="636.747" cy="554.732" r="5.05012" stroke-width="0.5" stroke="black" fill="green"/>
   </g>
   <g id="cell26">
  <circle cx="555.28" cy="399.448" r="8.41061" stroke-width="0.5" stroke="black" fill="green"/>
  <circle cx="555.28" cy="399.448" r="5.05111" stroke-width="0.5" stroke="black" fill="green"/>
   </g>
   <g id="cell27">
  <circle cx="457.446" cy="388.678" r="8.41271" stroke-width="0.5" stroke="black" fill="green"/>
  <circle cx="457.446" cy="388.678" r="5.05167" stroke-width="0.5" stroke="black" fill="green"/>
   </g>
   <g id="cell28">
  <circle cx="427.822" cy="523.143" r="8.41271" stroke-width="0.5" stroke="black" fill="green"/>
  <circle cx="427.822" cy="523.143" r="5.05167" stroke-width="0.5" stroke="black" fill="green"/>
   </g>
   <g id="cell29">
  <circle cx="440.113" cy="511.728" r="8.3632" stroke-width="0.5" stroke="black" fill="green"/>
  <circle cx="440.113" cy="511.728" r="5.03288" stroke-width="0.5" stroke="black" fill="green"/>
   </g>
   <g id="cell126">
  <circle cx="527.361" cy="506.467" r="8.37955" stroke-width="0.5" stroke="black" fill="green"/>
  <circle cx="527.361" cy="506.467" r="5.0404" stroke-width="0.5" stroke="black" fill="green"/>
   </g>
   <g id="cell31">
  <circle cx="418.145" cy="535.981" r="8.39913" stroke-width="0.5" stroke="black" fill="green"/>
  <circle cx="418.145" cy="535.981" r="5.04725" stroke-width="0.5" stroke="black" fill="green"/>
   </g>
   <g id="cell32">
  <circle cx="418.742" cy="487.911" r="8.27097" stroke-width="0.5" stroke="black" fill="green"/>
  <circle cx="418.742" cy="487.911" r="4.99048" stroke-width="0.5" stroke="black" fill="green"/>
   </g>
   <g id="cell33">
  <circle cx="494.145" cy="423.184" r="8.41271" stroke-width="0.5" stroke="black" fill="green"/>
  <circle cx="494.145" cy="423.184" r="5.05167" stroke-width="0.5" stroke="black" fill="green"/>
   </g>
   <g id="cell34">
  <circle cx="388.082" cy="448.456" r="8.14885" stroke-width="0.5" stroke="black" fill="green"/>
  <circle cx="388.082" cy="448.456" r="4.93167" stroke-width="0.5" stroke="black" fill="green"/>
   </g>
   <g id="cell35">
  <circle cx="546.144" cy="557.933" r="7.46878" stroke-width="0.5" stroke="black" fill="green"/>
  <circle cx="546.144" cy="557.933" r="4.53982" stroke-width="0.5" stroke="black" fill="green"/>
   </g>
   <g id="cell36">
  <circle cx="385.512" cy="583.919" r="8.41271" stroke-width="0.5" stroke="black" fill="green"/>
  <circle cx="385.512" cy="583.919" r="5.05167" stroke-width="0.5" stroke="black" fill="green"/>
   </g>
   <g id="cell37">
  <circle cx="634.871" cy="460.618" r="8.41271" stroke-width="0.5" stroke="black" fill="green"/>
  <circle cx="634.871" cy="460.618" r="5.05167" stroke-width="0.5" stroke="black" fill="green"/>
   </g>
   <g id="cell38">
  <circle cx="543.171" cy="613.165" r="8.36" stroke-width="0.5" stroke="black" fill="green"/>
  <circle cx="543.171" cy="613.165" r="5.03157" stroke-width="0.5" stroke="black" fill="green"/>
   </g>
   <g id="cell39">
  <circle cx="619.709" cy="483.174" r="8.41271" stroke-width="0.5" stroke="black" fill="green"/>
  <circle cx="619.709" cy="483.174" r="5.05167" stroke-width="0.5" stroke="black" fill="green"/>
   </g>
   <g id="cell40">
  <circle cx="481.999" cy="566.117" r="8.41136" stroke-width="0.5" stroke="black" fill="green"/>
  <circle cx="481.999" cy="566.117" r="5.05133" stroke-width="0.5" stroke="black" fill="green"/>
   </g>
   <g id="cell41">
  <circle cx="365.092" cy="480.246" r="8.41271" stroke-width="0.5" stroke="black" fill="green"/>
  <circle cx="365.092" cy="480.246" r="5.05167" stroke-width="0.5" stroke="black" fill="green"/>
   </g>
   <g id="cell42">
  <circle cx="438.302" cy="495.634" r="8.41271" stroke-width="0.5" stroke="black" fill="green"/>
  <circle cx="438.302" cy="495.634" r="5.05167" stroke-width="0.5" stroke="black" fill="green"/>
   </g>
   <g id="cell43">
  <circle cx="558.066" cy="442.063" r="8.41271" stroke-width="0.5" stroke="black" fill="green"/>
  <circle cx="558.066" cy="442.063" r="5.05167" stroke-width="0.5" stroke="black" fill="green"/>
   </g>
   <g id="cell44">
  <circle cx="470.636" cy="621.475" r="8.16806" stroke-width="0.5" stroke="black" fill="green"/>
  <circle cx="470.636" cy="621.475" r="4.93877" stroke-width="0.5" stroke="black" fill="green"/>
   </g>
   <g id="cell45">
  <circle cx="431.856" cy="568.285" r="6.64207" stroke-width="0.5" stroke="black" fill="green"/>
  <circle cx="431.856" cy="568.285" r="3.99637" stroke-width="0.5" stroke="black" fill="green"/>
   </g>
   <g id="cell46">
  <circle cx="516.576" cy="625.63" r="7.33203" stroke-width="0.5" stroke="black" fill="green"/>
  <circle cx="516.576" cy="625.63" r="4.48772" stroke-width="0.5" stroke="black" fill="green"/>
   </g>
   <g id="cell47">
  <circle cx="489.965" cy="504.005" r="8.38424" stroke-width="0.5" stroke="black" fill="green"/>
  <circle cx="489.965" cy="504.005" r="5.04161" stroke-width="0.5" stroke="black" fill="green"/>
   </g>
   <g id="cell48">
  <circle cx="562.207" cy="602.507" r="8.41271" stroke-width="0.5" stroke="black" fill="green"/>
  <circle cx="562.207" cy="602.507" r="5.05167" stroke-width="0.5" stroke="black" fill="green"/>
   </g>
   <g id="cell49">
  <circle cx="430.986" cy="385.392" r="7.63698" stroke-width="0.5" stroke="black" fill="green"/>
  <circle cx="430.986" cy="385.392" r="4.64085" stroke-width="0.5" stroke="black" fill="green"/>
   </g>
   <g id="cell50">
  <circle cx="515.707" cy="515.755" r="1.72142" stroke-width="0.5" stroke="black" fill="cyan"/>
  <circle cx="515.707" cy="515.755" r="1.67587" stroke-width="0.5" stroke="black" fill="black"/>
   </g>
   <g id="cell51">
  <circle cx="418.929" cy="597.377" r="8.4014" stroke-width="0.5" stroke="black" fill="cyan"/>
  <circle cx="418.929" cy="597.377" r="5.04811" stroke-width="0.5" stroke="black" fill="cyan"/>
   </g>
   <g id="cell52">
  <circle cx="515.758" cy="420.705" r="8.41271" stroke-width="0.5" stroke="black" fill="cyan"/>
  <circle cx="515.758" cy="420.705" r="5.05167" stroke-width="0.5" stroke="black" fill="cyan"/>
   </g>
   <g id="cell53">
  <circle cx="579.274" cy="436.784" r="8.06418" stroke-width="0.5" stroke="black" fill="cyan"/>
  <circle cx="579.274" cy="436.784" r="4.8844" stroke-width="0.5" stroke="black" fill="cyan"/>
   </g>
   <g id="cell54">
  <circle cx="478.151" cy="424.167" r="8.41271" stroke-width="0.5" stroke="black" fill="cyan"/>
  <circle cx="478.151" cy="424.167" r="5.05167" stroke-width="0.5" stroke="black" fill="cyan"/>
   </g>
   <g id="cell55">
  <circle cx="525.929" cy="462.814" r="6.67334" stroke-width="0.5" stroke="black" fill="cyan"/>
  <circle cx="525.929" cy="462.814" r="4.0084" stroke-width="0.5" stroke="black" fill="cyan"/>
   </g>
   <g id="cell56">
  <circle cx="630.329" cy="521.118" r="8.40934" stroke-width="0.5" stroke="black" fill="cyan"/>
  <circle cx="630.329" cy="521.118" r="5.05073" stroke-width="0.5" stroke="black" fill="cyan"/>
   </g>
   <g id="cell57">
  <circle cx="418.446" cy="612.328" r="7.41548" stroke-width="0.5" stroke="black" fill="cyan"/>
  <circle cx="418.446" cy="612.328" r="4.50723" stroke-width="0.5" stroke="black" fill="cyan"/>
   </g>
   <g id="cell58">
  <circle cx="551.809" cy="479.597" r="1.84616" stroke-width="0.5" stroke="black" fill="cyan"/>
  <circle cx="551.809" cy="479.597" r="1.7784" stroke-width="0.5" stroke="black" fill="black"/>
   </g>
   <g id="cell59">
  <circle cx="384.335" cy="431.394" r="1.48106" stroke-width="0.5" stroke="black" fill="cyan"/>
  <circle cx="384.335" cy="431.394" r="1.46264" stroke-width="0.5" stroke="black" fill="black"/>
   </g>
   <g id="cell60">
  <circle cx="613.413" cy="468.666" r="8.41163" stroke-width="0.5" stroke="black" fill="cyan"/>
  <circle cx="613.413" cy="468.666" r="5.0514" stroke-width="0.5" stroke="black" fill="cyan"/>
   </g>
   <g id="cell121">
  <circle cx="452.326" cy="461.962" r="8.39435" stroke-width="0.5" stroke="black" fill="cyan"/>
  <circle cx="452.326" cy="461.962" r="5.04572" stroke-width="0.5" stroke="black" fill="cyan"/>
   </g>
   <g id="cell62">
  <circle cx="500.225" cy="452.638" r="8.28027" stroke-width="0.5" stroke="black" fill="cyan"/>
  <circle cx="500.225" cy="452.638" r="4.99541" stroke-width="0.5" stroke="black" fill="cyan"/>
   </g>
   <g id="cell63">
  <circle cx="580.239" cy="545.093" r="8.41271" stroke-width="0.5" stroke="black" fill="cyan"/>
  <circle cx="580.239" cy="545.093" r="5.05167" stroke-width="0.5" stroke="black" fill="cyan"/>
   </g>
   <g id="cell64">
  <circle cx="509.169" cy="638.564" r="8.41271" stroke-width="0.5" stroke="black" fill="cyan"/>
  <circle cx="509.169" cy="638.564" r="5.05167" stroke-width="0.5" stroke="black" fill="cyan"/>
   </g>
   <g id="cell65">
  <circle cx="544.101" cy="466.454" r="8.41271" stroke-width="0.5" stroke="black" fill="cyan"/>
  <circle cx="544.101" cy="466.454" r="5.05167" stroke-width="0.5" stroke="black" fill="cyan"/>
   </g>
   <g id="cell66">
  <circle cx="523.091" cy="520.959" r="7.79214" stroke-width="0.5" stroke="black" fill="cyan"/>
  <circle cx="523.091" cy="520.959" r="4.73575" stroke-width="0.5" stroke="black" fill="cyan"/>
   </g>
   <g id="cell67">
  <circle cx="354.782" cy="492.513" r="8.41271" stroke-width="0.5" stroke="black" fill="cyan"/>
  <circle cx="354.782" cy="492.513" r="5.05167" stroke-width="0.5" stroke="black" fill="cyan"/>
   </g>
   <g id="cell68">
  <circle cx="568.809" cy="556.242" r="8.41271" stroke-width="0.5" stroke="black" fill="cyan"/>
  <circle cx="568.809" cy="556.242" r="5.05167" stroke-width="0.5" stroke="black" fill="cyan"/>
   </g>
   <g id="cell69">
  <circle cx="442.861" cy="449.11" r="8.39435" stroke-width="0.5" stroke="black" fill="cyan"/>
  <circle cx="442.861" cy="449.11" r="5.04572" stroke-width="0.5" stroke="black" fill="cyan"/>
   </g>
   <g id="cell70">
  <circle cx="588.116" cy="478.705" r="7.98754" stroke-width="0.5" stroke="black" fill="cyan"/>
  <circle cx="588.116" cy="478.705" r="4.84233" stroke-width="0.5" stroke="black" fill="cyan"/>
   </g>
   <g id="cell71">
  <circle cx="374.722" cy="515.101" r="8.41271" stroke-width="0.5" stroke="black" fill="cyan"/>
  <circle cx="374.722" cy="515.101" r="5.05167" stroke-width="0.5" stroke="black" fill="cyan"/>
   </g>
   <g id="cell72">
  <circle cx="538.094" cy="517.627" r="8.41271" stroke-width="0.5" stroke="black" fill="cyan"/>
  <circle cx="538.094" cy="517.627" r="5.05167" stroke-width="0.5" stroke="black" fill="cyan"/>
   </g>
   <g id="cell73">
  <circle cx="355.439" cy="550.844" r="8.39867" stroke-width="0.5" stroke="black" fill="cyan"/>
  <circle cx="355.439" cy="550.844" r="5.04721" stroke-width="0.5" stroke="black" fill="cyan"/>
   </g>
   <g id="cell74">
  <circle cx="544.62" cy="448.203" r="8.41271" stroke-width="0.5" stroke="black" fill="cyan"/>
  <circle cx="544.62" cy="448.203" r="5.05167" stroke-width="0.5" stroke="black" fill="cyan"/>
   </g>
   <g id="cell75">
  <circle cx="592.954" cy="492.225" r="7.73913" stroke-width="0.5" stroke="black" fill="magenta"/>
  <circle cx="592.954" cy="492.225" r="4.70116" stroke-width="0.5" stroke="black" fill="magenta"/>
   </g>
   <g id="cell76">
  <circle cx="648.368" cy="533.147" r="7.93656" stroke-width="0.5" stroke="black" fill="green"/>
  <circle cx="648.368" cy="533.147" r="4.81373" stroke-width="0.5" stroke="black" fill="green"/>
   </g>
   <g id="cell77">
  <circle cx="504.815" cy="509.938" r="8.40156" stroke-width="0.5" stroke="black" fill="green"/>
  <circle cx="504.815" cy="509.938" r="5.04815" stroke-width="0.5" stroke="black" fill="green"/>
   </g>
   <g id="cell78">
  <circle cx="362.966" cy="570.077" r="8.41041" stroke-width="0.5" stroke="black" fill="magenta"/>
  <circle cx="362.966" cy="570.077" r="5.05107" stroke-width="0.5" stroke="black" fill="magenta"/>
   </g>
   <g id="cell79">
  <circle cx="538.886" cy="571.023" r="8.37635" stroke-width="0.5" stroke="black" fill="green"/>
  <circle cx="538.886" cy="571.023" r="5.03854" stroke-width="0.5" stroke="black" fill="green"/>
   </g>
   <g id="cell80">
  <circle cx="457.833" cy="601.635" r="8.06625" stroke-width="0.5" stroke="black" fill="magenta"/>
  <circle cx="457.833" cy="601.635" r="4.88504" stroke-width="0.5" stroke="black" fill="magenta"/>
   </g>
   <g id="cell81">
  <circle cx="395.792" cy="616.939" r="8.40769" stroke-width="0.5" stroke="black" fill="cyan"/>
  <circle cx="395.792" cy="616.939" r="5.05024" stroke-width="0.5" stroke="black" fill="cyan"/>
   </g>
   <g id="cell82">
  <circle cx="597.987" cy="467.032" r="8.11106" stroke-width="0.5" stroke="black" fill="cyan"/>
  <circle cx="597.987" cy="467.032" r="4.90943" stroke-width="0.5" stroke="black" fill="cyan"/>
   </g>
   <g id="cell83">
  <circle cx="546.953" cy="597.51" r="8.41131" stroke-width="0.5" stroke="black" fill="green"/>
  <circle cx="546.953" cy="597.51" r="5.05133" stroke-width="0.5" stroke="black" fill="green"/>
   </g>
   <g id="cell84">
  <circle cx="489.662" cy="580.15" r="8.41136" stroke-width="0.5" stroke="black" fill="green"/>
  <circle cx="489.662" cy="580.15" r="5.05133" stroke-width="0.5" stroke="black" fill="green"/>
   </g>
   <g id="cell85">
  <circle cx="617.011" cy="496.757" r="6.39576" stroke-width="0.5" stroke="black" fill="magenta"/>
  <circle cx="617.011" cy="496.757" r="3.92684" stroke-width="0.5" stroke="black" fill="magenta"/>
   </g>
   <g id="cell86">
  <circle cx="525.041" cy="597.534" r="7.56708" stroke-width="0.5" stroke="black" fill="green"/>
  <circle cx="525.041" cy="597.534" r="4.59961" stroke-width="0.5" stroke="black" fill="green"/>
   </g>
   <g id="cell87">
  <circle cx="589.953" cy="610.354" r="8.24832" stroke-width="0.5" stroke="black" fill="magenta"/>
  <circle cx="589.953" cy="610.354" r="4.97959" stroke-width="0.5" stroke="black" fill="magenta"/>
   </g>
   <g id="cell88">
  <circle cx="370.275" cy="556.104" r="8.39758" stroke-width="0.5" stroke="black" fill="magenta"/>
  <circle cx="370.275" cy="556.104" r="5.0468" stroke-width="0.5" stroke="black" fill="magenta"/>
   </g>
   <g id="cell89">
  <circle cx="540.937" cy="406.807" r="8.40897" stroke-width="0.5" stroke="black" fill="green"/>
  <circle cx="540.937" cy="406.807" r="5.05065" stroke-width="0.5" stroke="black" fill="green"/>
   </g>
   <g id="cell90">
  <circle cx="561.531" cy="481.389" r="8.39349" stroke-width="0.5" stroke="black" fill="cyan"/>
  <circle cx="561.531" cy="481.389" r="5.04528" stroke-width="0.5" stroke="black" fill="cyan"/>
   </g>
   <g id="cell91">
  <circle cx="541.592" cy="391.055" r="8.40897" stroke-width="0.5" stroke="black" fill="green"/>
  <circle cx="541.592" cy="391.055" r="5.05065" stroke-width="0.5" stroke="black" fill="green"/>
   </g>
   <g id="cell92">
  <circle cx="641.974" cy="569.879" r="8.40941" stroke-width="0.5" stroke="black" fill="green"/>
  <circle cx="641.974" cy="569.879" r="5.05077" stroke-width="0.5" stroke="black" fill="green"/>
   </g>
   <g id="cell93">
  <circle cx="363.678" cy="537.163" r="8.40961" stroke-width="0.5" stroke="black" fill="cyan"/>
  <circle cx="363.678" cy="537.163" r="5.05081" stroke-width="0.5" stroke="black" fill="cyan"/>
   </g>
   <g id="cell94">
  <circle cx="615.439" cy="526.994" r="8.40934" stroke-width="0.5" stroke="black" fill="cyan"/>
  <circle cx="615.439" cy="526.994" r="5.05073" stroke-width="0.5" stroke="black" fill="cyan"/>
   </g>
   <g id="cell95">
  <circle cx="576.722" cy="584.46" r="8.40836" stroke-width="0.5" stroke="black" fill="magenta"/>
  <circle cx="576.722" cy="584.46" r="5.05046" stroke-width="0.5" stroke="black" fill="magenta"/>
   </g>
   <g id="cell96">
  <circle cx="603.764" cy="481.613" r="8.40861" stroke-width="0.5" stroke="black" fill="cyan"/>
  <circle cx="603.764" cy="481.613" r="5.05053" stroke-width="0.5" stroke="black" fill="cyan"/>
   </g>
   <g id="cell97">
  <circle cx="622.835" cy="546.734" r="8.40719" stroke-width="0.5" stroke="black" fill="green"/>
  <circle cx="622.835" cy="546.734" r="5.05012" stroke-width="0.5" stroke="black" fill="green"/>
   </g>
   <g id="cell98">
  <circle cx="599.693" cy="524.657" r="8.40858" stroke-width="0.5" stroke="black" fill="magenta"/>
  <circle cx="599.693" cy="524.657" r="5.05051" stroke-width="0.5" stroke="black" fill="magenta"/>
   </g>
   <g id="cell99">
  <circle cx="575.096" cy="421.853" r="8.40814" stroke-width="0.5" stroke="black" fill="cyan"/>
  <circle cx="575.096" cy="421.853" r="5.05035" stroke-width="0.5" stroke="black" fill="cyan"/>
   </g>
   <g id="cell100">
  <circle cx="375.407" cy="595.974" r="8.3961" stroke-width="0.5" stroke="black" fill="cyan"/>
  <circle cx="375.407" cy="595.974" r="5.04643" stroke-width="0.5" stroke="black" fill="cyan"/>
   </g>
   <g id="cell101">
  <circle cx="536.452" cy="435.29" r="6.6003" stroke-width="0.5" stroke="black" fill="cyan"/>
  <circle cx="536.452" cy="435.29" r="3.98789" stroke-width="0.5" stroke="black" fill="cyan"/>
   </g>
   <g id="cell102">
  <circle cx="503.021" cy="473.32" r="8.36847" stroke-width="0.5" stroke="black" fill="cyan"/>
  <circle cx="503.021" cy="473.32" r="5.03542" stroke-width="0.5" stroke="black" fill="cyan"/>
   </g>
   <g id="cell103">
  <circle cx="468.415" cy="533.216" r="8.3686" stroke-width="0.5" stroke="black" fill="magenta"/>
  <circle cx="468.415" cy="533.216" r="5.03607" stroke-width="0.5" stroke="black" fill="magenta"/>
   </g>
   <g id="cell104">
  <circle cx="405.528" cy="605.529" r="2.11365" stroke-width="0.5" stroke="black" fill="cyan"/>
  <circle cx="405.528" cy="605.529" r="1.97736" stroke-width="0.5" stroke="black" fill="black"/>
   </g>
   <g id="cell105">
  <circle cx="512.893" cy="461.522" r="8.40667" stroke-width="0.5" stroke="black" fill="magenta"/>
  <circle cx="512.893" cy="461.522" r="5.04987" stroke-width="0.5" stroke="black" fill="magenta"/>
   </g>
   <g id="cell106">
  <circle cx="436.376" cy="403.09" r="8.40576" stroke-width="0.5" stroke="black" fill="magenta"/>
  <circle cx="436.376" cy="403.09" r="5.04957" stroke-width="0.5" stroke="black" fill="magenta"/>
   </g>
   <g id="cell107">
  <circle cx="421.882" cy="457.326" r="8.3926" stroke-width="0.5" stroke="black" fill="cyan"/>
  <circle cx="421.882" cy="457.326" r="5.04508" stroke-width="0.5" stroke="black" fill="cyan"/>
   </g>
   <g id="cell108">
  <circle cx="523.77" cy="380.737" r="8.40353" stroke-width="0.5" stroke="black" fill="magenta"/>
  <circle cx="523.77" cy="380.737" r="5.04881" stroke-width="0.5" stroke="black" fill="magenta"/>
   </g>
   <g id="cell110">
  <circle cx="519.102" cy="395.265" r="7.71139" stroke-width="0.5" stroke="black" fill="magenta"/>
  <circle cx="519.102" cy="395.265" r="4.68697" stroke-width="0.5" stroke="black" fill="magenta"/>
   </g>
   <g id="cell111">
  <circle cx="514.866" cy="497.55" r="8.37955" stroke-width="0.5" stroke="black" fill="green"/>
  <circle cx="514.866" cy="497.55" r="5.0404" stroke-width="0.5" stroke="black" fill="green"/>
   </g>
   <g id="cell112">
  <circle cx="401.066" cy="586.268" r="8.08934" stroke-width="0.5" stroke="black" fill="cyan"/>
  <circle cx="401.066" cy="586.268" r="4.89861" stroke-width="0.5" stroke="black" fill="cyan"/>
   </g>
   <g id="cell113">
  <circle cx="340.024" cy="547.129" r="8.39867" stroke-width="0.5" stroke="black" fill="cyan"/>
  <circle cx="340.024" cy="547.129" r="5.04721" stroke-width="0.5" stroke="black" fill="cyan"/>
   </g>
   <g id="cell114">
  <circle cx="381.05" cy="610.812" r="8.39154" stroke-width="0.5" stroke="black" fill="cyan"/>
  <circle cx="381.05" cy="610.812" r="5.04489" stroke-width="0.5" stroke="black" fill="cyan"/>
   </g>
   <g id="cell115">
  <circle cx="391.369" cy="598.656" r="8.39154" stroke-width="0.5" stroke="black" fill="cyan"/>
  <circle cx="391.369" cy="598.656" r="5.04489" stroke-width="0.5" stroke="black" fill="cyan"/>
   </g>
   <g id="cell116">
  <circle cx="403.496" cy="534.094" r="7.1403" stroke-width="0.5" stroke="black" fill="green"/>
  <circle cx="403.496" cy="534.094" r="4.33675" stroke-width="0.5" stroke="black" fill="green"/>
   </g>
   <g id="cell117">
  <circle cx="379.118" cy="569.427" r="8.38764" stroke-width="0.5" stroke="black" fill="magenta"/>
  <circle cx="379.118" cy="569.427" r="5.04337" stroke-width="0.5" stroke="black" fill="magenta"/>
   </g>
   <g id="cell118">
  <circle cx="399.526" cy="437.638" r="8.39359" stroke-width="0.5" stroke="black" fill="cyan"/>
  <circle cx="399.526" cy="437.638" r="5.04548" stroke-width="0.5" stroke="black" fill="cyan"/>
   </g>
   <g id="cell119">
  <circle cx="570.191" cy="517.205" r="8.39627" stroke-width="0.5" stroke="black" fill="magenta"/>
  <circle cx="570.191" cy="517.205" r="5.04638" stroke-width="0.5" stroke="black" fill="magenta"/>
   </g>
   <g id="cell120">
  <circle cx="502.353" cy="488.771" r="8.17123" stroke-width="0.5" stroke="black" fill="green"/>
  <circle cx="502.353" cy="488.771" r="4.94237" stroke-width="0.5" stroke="black" fill="green"/>
   </g>
   <g id="cell122">
  <circle cx="449.462" cy="485.422" r="7.52928" stroke-width="0.5" stroke="black" fill="cyan"/>
  <circle cx="449.462" cy="485.422" r="4.59319" stroke-width="0.5" stroke="black" fill="cyan"/>
   </g>
   <g id="cell123">
  <circle cx="384.904" cy="555.759" r="7.39936" stroke-width="0.5" stroke="black" fill="magenta"/>
  <circle cx="384.904" cy="555.759" r="4.50155" stroke-width="0.5" stroke="black" fill="magenta"/>
   </g>
   <g id="cell125">
  <circle cx="531.157" cy="475.502" r="8.39144" stroke-width="0.5" stroke="black" fill="magenta"/>
  <circle cx="531.157" cy="475.502" r="5.04437" stroke-width="0.5" stroke="black" fill="magenta"/>
   </g>
   <g id="cell127">
  <circle cx="439.701" cy="533.834" r="8.38424" stroke-width="0.5" stroke="black" fill="magenta"/>
  <circle cx="439.701" cy="533.834" r="5.04182" stroke-width="0.5" stroke="black" fill="magenta"/>
   </g>
   <g id="cell128">
  <circle cx="547.384" cy="420.212" r="7.86161" stroke-width="0.5" stroke="black" fill="cyan"/>
  <circle cx="547.384" cy="420.212" r="4.77488" stroke-width="0.5" stroke="black" fill="cyan"/>
   </g>
   <g id="cell129">
  <circle cx="492.275" cy="519.825" r="8.38424" stroke-width="0.5" stroke="black" fill="green"/>
  <circle cx="492.275" cy="519.825" r="5.04161" stroke-width="0.5" stroke="black" fill="green"/>
   </g>
   <g id="cell130">
  <circle cx="454.228" cy="538.305" r="2.71426" stroke-width="0.5" stroke="black" fill="magenta"/>
  <circle cx="454.228" cy="538.305" r="2.32933" stroke-width="0.5" stroke="black" fill="black"/>
   </g>
   <g id="cell131">
  <circle cx="535.297" cy="586.484" r="8.37635" stroke-width="0.5" stroke="black" fill="green"/>
  <circle cx="535.297" cy="586.484" r="5.03854" stroke-width="0.5" stroke="black" fill="green"/>
   </g>
   <g id="cell132">
  <circle cx="402.879" cy="453.064" r="8.23031" stroke-width="0.5" stroke="black" fill="green"/>
  <circle cx="402.879" cy="453.064" r="4.97288" stroke-width="0.5" stroke="black" fill="green"/>
   </g>
   <g id="cell133">
  <circle cx="548.956" cy="526.342" r="6.6518" stroke-width="0.5" stroke="black" fill="cyan"/>
  <circle cx="548.956" cy="526.342" r="4.0592" stroke-width="0.5" stroke="black" fill="cyan"/>
   </g>
   <g id="cell134">
  <circle cx="516.512" cy="481.751" r="8.36847" stroke-width="0.5" stroke="black" fill="cyan"/>
  <circle cx="516.512" cy="481.751" r="5.03542" stroke-width="0.5" stroke="black" fill="cyan"/>
   </g>
   <g id="cell135">
  <circle cx="408.858" cy="565.249" r="8.29233" stroke-width="0.5" stroke="black" fill="green"/>
  <circle cx="408.858" cy="565.249" r="5.00286" stroke-width="0.5" stroke="black" fill="green"/>
   </g>
   <g id="cell136">
  <circle cx="455.542" cy="507.857" r="8.23507" stroke-width="0.5" stroke="black" fill="green"/>
  <circle cx="455.542" cy="507.857" r="4.97748" stroke-width="0.5" stroke="black" fill="green"/>
   </g>
   <g id="cell137">
  <circle cx="532.884" cy="625.818" r="8.36" stroke-width="0.5" stroke="black" fill="green"/>
  <circle cx="532.884" cy="625.818" r="5.03157" stroke-width="0.5" stroke="black" fill="green"/>
   </g>
   <g id="cell138">
  <circle cx="432.87" cy="418.674" r="8.35216" stroke-width="0.5" stroke="black" fill="magenta"/>
  <circle cx="432.87" cy="418.674" r="5.02858" stroke-width="0.5" stroke="black" fill="magenta"/>
   </g>
   <g id="cell139">
  <circle cx="568.331" cy="467.439" r="8.34262" stroke-width="0.5" stroke="black" fill="cyan"/>
  <circle cx="568.331" cy="467.439" r="5.02496" stroke-width="0.5" stroke="black" fill="cyan"/>
   </g>
   <g id="cell140">
  <circle cx="451.475" cy="523.025" r="8.32003" stroke-width="0.5" stroke="black" fill="green"/>
  <circle cx="451.475" cy="523.025" r="5.01549" stroke-width="0.5" stroke="black" fill="green"/>
   </g>
   <g id="cell141">
  <circle cx="420.869" cy="551.143" r="8.29233" stroke-width="0.5" stroke="black" fill="green"/>
  <circle cx="420.869" cy="551.143" r="5.00286" stroke-width="0.5" stroke="black" fill="green"/>
   </g>
   <g id="cell142">
  <circle cx="599.994" cy="508.787" r="8.30226" stroke-width="0.5" stroke="black" fill="magenta"/>
  <circle cx="599.994" cy="508.787" r="5.00561" stroke-width="0.5" stroke="black" fill="magenta"/>
   </g>
   <g id="cell143">
  <circle cx="523.233" cy="433.933" r="8.27101" stroke-width="0.5" stroke="black" fill="cyan"/>
  <circle cx="523.233" cy="433.933" r="4.9925" stroke-width="0.5" stroke="black" fill="cyan"/>
   </g>
   <g id="cell144">
  <circle cx="514.271" cy="446.069" r="8.28027" stroke-width="0.5" stroke="black" fill="cyan"/>
  <circle cx="514.271" cy="446.069" r="4.99541" stroke-width="0.5" stroke="black" fill="cyan"/>
   </g>
   <g id="cell145">
  <circle cx="467.628" cy="517.616" r="8.14266" stroke-width="0.5" stroke="black" fill="green"/>
  <circle cx="467.628" cy="517.616" r="4.93408" stroke-width="0.5" stroke="black" fill="green"/>
   </g>
   <g id="cell146">
  <circle cx="423.66" cy="472.959" r="8.27097" stroke-width="0.5" stroke="black" fill="green"/>
  <circle cx="423.66" cy="472.959" r="4.99048" stroke-width="0.5" stroke="black" fill="green"/>
   </g>
   <g id="cell147">
  <circle cx="378.307" cy="542.664" r="8.25826" stroke-width="0.5" stroke="black" fill="magenta"/>
  <circle cx="378.307" cy="542.664" r="4.98429" stroke-width="0.5" stroke="black" fill="magenta"/>
   </g>
   <g id="cell148">
  <circle cx="588.793" cy="594.714" r="8.24832" stroke-width="0.5" stroke="black" fill="magenta"/>
  <circle cx="588.793" cy="594.714" r="4.97959" stroke-width="0.5" stroke="black" fill="magenta"/>
   </g>
   <g id="cell149">
  <circle cx="529.254" cy="490.899" r="8.23809" stroke-width="0.5" stroke="black" fill="magenta"/>
  <circle cx="529.254" cy="490.899" r="4.97599" stroke-width="0.5" stroke="black" fill="magenta"/>
   </g>
   <g id="cell150">
  <circle cx="409.273" cy="467.174" r="8.23031" stroke-width="0.5" stroke="black" fill="green"/>
  <circle cx="409.273" cy="467.174" r="4.97288" stroke-width="0.5" stroke="black" fill="green"/>
   </g>
   <g id="cell151">
  <circle cx="436.489" cy="463.634" r="8.23393" stroke-width="0.5" stroke="black" fill="cyan"/>
  <circle cx="436.489" cy="463.634" r="4.97399" stroke-width="0.5" stroke="black" fill="cyan"/>
   </g>
   <g id="cell152">
  <circle cx="470.203" cy="502.394" r="8.14266" stroke-width="0.5" stroke="black" fill="green"/>
  <circle cx="470.203" cy="502.394" r="4.93408" stroke-width="0.5" stroke="black" fill="green"/>
   </g>
   <g id="cell153">
  <circle cx="543.708" cy="484.804" r="8.1278" stroke-width="0.5" stroke="black" fill="magenta"/>
  <circle cx="543.708" cy="484.804" r="4.92513" stroke-width="0.5" stroke="black" fill="magenta"/>
   </g>
   <g id="cell154">
  <circle cx="487.032" cy="488.492" r="8.17123" stroke-width="0.5" stroke="black" fill="green"/>
  <circle cx="487.032" cy="488.492" r="4.94237" stroke-width="0.5" stroke="black" fill="green"/>
   </g>
   <g id="cell155">
  <circle cx="485.443" cy="626.193" r="8.16806" stroke-width="0.5" stroke="black" fill="green"/>
  <circle cx="485.443" cy="626.193" r="4.93877" stroke-width="0.5" stroke="black" fill="green"/>
   </g>
   <g id="cell156">
  <circle cx="536.482" cy="546.7" r="8.16806" stroke-width="0.5" stroke="black" fill="magenta"/>
  <circle cx="536.482" cy="546.7" r="4.93877" stroke-width="0.5" stroke="black" fill="magenta"/>
   </g>
   <g id="cell157">
  <circle cx="391.342" cy="463.615" r="8.14885" stroke-width="0.5" stroke="black" fill="green"/>
  <circle cx="391.342" cy="463.615" r="4.93167" stroke-width="0.5" stroke="black" fill="green"/>
   </g>
   <g id="cell158">
  <circle cx="602.492" cy="587.306" r="8.1358" stroke-width="0.5" stroke="black" fill="magenta"/>
  <circle cx="602.492" cy="587.306" r="4.9225" stroke-width="0.5" stroke="black" fill="magenta"/>
   </g>
   <g id="cell159">
  <circle cx="586.096" cy="450.256" r="8.11106" stroke-width="0.5" stroke="black" fill="cyan"/>
  <circle cx="586.096" cy="450.256" r="4.90943" stroke-width="0.5" stroke="black" fill="cyan"/>
   </g>
   <g id="cell160">
  <circle cx="415.852" cy="582.001" r="8.08934" stroke-width="0.5" stroke="black" fill="cyan"/>
  <circle cx="415.852" cy="582.001" r="4.89861" stroke-width="0.5" stroke="black" fill="cyan"/>
   </g>
   <g id="cell161">
  <circle cx="447.914" cy="613.331" r="8.06625" stroke-width="0.5" stroke="black" fill="magenta"/>
  <circle cx="447.914" cy="613.331" r="4.88504" stroke-width="0.5" stroke="black" fill="magenta"/>
   </g>
   <g id="cell162">
  <circle cx="570.816" cy="449.694" r="8.06418" stroke-width="0.5" stroke="black" fill="cyan"/>
  <circle cx="570.816" cy="449.694" r="4.8844" stroke-width="0.5" stroke="black" fill="cyan"/>
   </g>
   <g id="cell163">
  <circle cx="560.634" cy="533.963" r="8.03675" stroke-width="0.5" stroke="black" fill="cyan"/>
  <circle cx="560.634" cy="533.963" r="4.87231" stroke-width="0.5" stroke="black" fill="cyan"/>
   </g>
   <g id="cell164">
  <circle cx="576.016" cy="488.283" r="8.04604" stroke-width="0.5" stroke="black" fill="magenta"/>
  <circle cx="576.016" cy="488.283" r="4.87399" stroke-width="0.5" stroke="black" fill="magenta"/>
   </g>
   <g id="cell165">
  <circle cx="583.09" cy="464.845" r="7.98754" stroke-width="0.5" stroke="black" fill="cyan"/>
  <circle cx="583.09" cy="464.845" r="4.84233" stroke-width="0.5" stroke="black" fill="cyan"/>
   </g>
   <g id="cell166">
  <circle cx="650.779" cy="548.036" r="7.93656" stroke-width="0.5" stroke="black" fill="green"/>
  <circle cx="650.779" cy="548.036" r="4.81373" stroke-width="0.5" stroke="black" fill="green"/>
   </g>
   <g id="cell167">
  <circle cx="540.95" cy="500.206" r="7.74955" stroke-width="0.5" stroke="black" fill="magenta"/>
  <circle cx="540.95" cy="500.206" r="4.72666" stroke-width="0.5" stroke="black" fill="magenta"/>
   </g>
   <g id="cell168">
  <circle cx="560.533" cy="427.071" r="7.86161" stroke-width="0.5" stroke="black" fill="cyan"/>
  <circle cx="560.533" cy="427.071" r="4.77488" stroke-width="0.5" stroke="black" fill="cyan"/>
   </g>
   <g id="cell169">
  <circle cx="532.709" cy="532.088" r="7.79214" stroke-width="0.5" stroke="black" fill="cyan"/>
  <circle cx="532.709" cy="532.088" r="4.73575" stroke-width="0.5" stroke="black" fill="cyan"/>
   </g>
   <g id="cell170">
  <circle cx="528.09" cy="611.508" r="7.77763" stroke-width="0.5" stroke="black" fill="green"/>
  <circle cx="528.09" cy="611.508" r="4.7232" stroke-width="0.5" stroke="black" fill="green"/>
   </g>
   <g id="cell172">
  <circle cx="510.221" cy="406.78" r="7.71139" stroke-width="0.5" stroke="black" fill="magenta"/>
  <circle cx="510.221" cy="406.78" r="4.68697" stroke-width="0.5" stroke="black" fill="magenta"/>
   </g>
   <g id="cell173">
  <circle cx="513.921" cy="612.111" r="7.33203" stroke-width="0.5" stroke="black" fill="green"/>
  <circle cx="513.921" cy="612.111" r="4.48772" stroke-width="0.5" stroke="black" fill="green"/>
   </g>
   <g id="cell174">
  <circle cx="422.375" cy="397.049" r="7.63698" stroke-width="0.5" stroke="black" fill="green"/>
  <circle cx="422.375" cy="397.049" r="4.64085" stroke-width="0.5" stroke="black" fill="green"/>
   </g>
   <g id="cell175">
  <circle cx="437.239" cy="478.618" r="7.52928" stroke-width="0.5" stroke="black" fill="cyan"/>
  <circle cx="437.239" cy="478.618" r="4.59319" stroke-width="0.5" stroke="black" fill="cyan"/>
   </g>
   <g id="cell176">
  <circle cx="625.353" cy="506.7" r="7.5243" stroke-width="0.5" stroke="black" fill="magenta"/>
  <circle cx="625.353" cy="506.7" r="4.58515" stroke-width="0.5" stroke="black" fill="magenta"/>
   </g>
   <g id="cell177">
  <circle cx="520.243" cy="584.17" r="7.56708" stroke-width="0.5" stroke="black" fill="green"/>
  <circle cx="520.243" cy="584.17" r="4.59961" stroke-width="0.5" stroke="black" fill="green"/>
   </g>
   <g id="cell178">
  <circle cx="556.354" cy="548.183" r="7.46878" stroke-width="0.5" stroke="black" fill="green"/>
  <circle cx="556.354" cy="548.183" r="4.53982" stroke-width="0.5" stroke="black" fill="green"/>
   </g>
   <g id="cell179">
  <circle cx="412.071" cy="624.817" r="7.41548" stroke-width="0.5" stroke="black" fill="cyan"/>
  <circle cx="412.071" cy="624.817" r="4.50723" stroke-width="0.5" stroke="black" fill="cyan"/>
   </g>
   <g id="cell180">
  <circle cx="398.024" cy="557.298" r="7.39936" stroke-width="0.5" stroke="black" fill="magenta"/>
  <circle cx="398.024" cy="557.298" r="4.50155" stroke-width="0.5" stroke="black" fill="magenta"/>
   </g>
   <g id="cell181">
  <circle cx="391.156" cy="539.487" r="5.88611" stroke-width="0.5" stroke="black" fill="green"/>
  <circle cx="391.156" cy="539.487" r="3.59657" stroke-width="0.5" stroke="black" fill="green"/>
   </g>
   <g id="cell182">
  <circle cx="458.967" cy="560.188" r="7.05087" stroke-width="0.5" stroke="black" fill="magenta"/>
  <circle cx="458.967" cy="560.188" r="4.27657" stroke-width="0.5" stroke="black" fill="magenta"/>
   </g>
   <g id="cell183">
  <circle cx="605.292" cy="495.917" r="6.39576" stroke-width="0.5" stroke="black" fill="magenta"/>
  <circle cx="605.292" cy="495.917" r="3.92684" stroke-width="0.5" stroke="black" fill="magenta"/>
   </g>
   <g id="cell184">
  <circle cx="547.491" cy="538.538" r="6.6518" stroke-width="0.5" stroke="black" fill="cyan"/>
  <circle cx="547.491" cy="538.538" r="4.0592" stroke-width="0.5" stroke="black" fill="cyan"/>
   </g>
   <g id="cell187">
  <circle cx="421.218" cy="564.428" r="6.64207" stroke-width="0.5" stroke="black" fill="green"/>
  <circle cx="421.218" cy="564.428" r="3.99637" stroke-width="0.5" stroke="black" fill="green"/>
   </g>
   <g id="cell188">
  <circle cx="534.654" cy="455.847" r="6.67334" stroke-width="0.5" stroke="black" fill="cyan"/>
  <circle cx="534.654" cy="455.847" r="4.0084" stroke-width="0.5" stroke="black" fill="cyan"/>
   </g>
  </g>
 </g>
  <rect x="775" y="1035" width="200" height="10" stroke-width="2" stroke="rgb(255,255,255)" fill="rgb(0,0,0)"/>
  <text x="781.25" y="1028.75"
   font-family="Arial" font-size="25" fill="black" >
   200 &#956;m
  </text>
  <text x="25" y="1045"
   font-family="Arial" font-size="18.75" fill="black" >
   0 days, 0 hours, 0 minutes, and 41.3749 seconds
  </text>
  <rect x="0" y="70" width="1000" height="1000" stroke-width="2" stroke="rgb(0,0,0)" fill="none"/>
</svg>
