<?xml version="1.0" encoding="UTF-8" standalone="no"?>
<!-- Created with PhysiCell (http://PhysiCell.MathCancer.org/) -->
<svg 
 xmlns:dc="http://purl.org/dc/elements/1.1/" 
 xmlns:cc="http://creativecommons.org/ns#" 
 xmlns:rdf="http://www.w3.org/1999/02/22-rdf-syntax-ns#" 
 xmlns:svg="http://www.w3.org/2000/svg" 
 xmlns="http://www.w3.org/2000/svg" 
 version="1.1" 
 width="1000" 
 height="1070" 
 id="svg2">
  <rect x="0" y="0" width="1000" height="1070" stroke-width="2" stroke="white" fill="white"/>
  <text x="12.5" y="30"
   font-family="Arial" font-size="25" fill="black" >
   Current time: 0 days, 12 hours, and 0.00 minutes, z = 0.00 &#956;m
  </text>
  <text x="12.5" y="57.5"
   font-family="Arial" font-size="23.75" fill="black" >
   114 agents
  </text>
 <g id="tissue" 
    transform="translate(0,1070) scale(1,-1)">
  <g id="ECM">
  </g>
  <g id="cells">
   <g id="cell0">
  <circle cx="513.131" cy="531.002" r="8.41271" stroke-width="0.5" stroke="black" fill="magenta"/>
  <circle cx="513.131" cy="531.002" r="5.05167" stroke-width="0.5" stroke="black" fill="magenta"/>
   </g>
   <g id="cell1">
  <circle cx="601.186" cy="531.939" r="8.41271" stroke-width="0.5" stroke="black" fill="magenta"/>
  <circle cx="601.186" cy="531.939" r="5.05167" stroke-width="0.5" stroke="black" fill="magenta"/>
   </g>
   <g id="cell2">
  <circle cx="510.88" cy="600.33" r="8.41271" stroke-width="0.5" stroke="black" fill="magenta"/>
  <circle cx="510.88" cy="600.33" r="5.05167" stroke-width="0.5" stroke="black" fill="magenta"/>
   </g>
   <g id="cell3">
  <circle cx="532.327" cy="546.004" r="8.41271" stroke-width="0.5" stroke="black" fill="magenta"/>
  <circle cx="532.327" cy="546.004" r="5.05167" stroke-width="0.5" stroke="black" fill="magenta"/>
   </g>
   <g id="cell4">
  <circle cx="481.375" cy="439.864" r="8.41271" stroke-width="0.5" stroke="black" fill="magenta"/>
  <circle cx="481.375" cy="439.864" r="5.05167" stroke-width="0.5" stroke="black" fill="magenta"/>
   </g>
   <g id="cell5">
  <circle cx="465.032" cy="493.3" r="8.41271" stroke-width="0.5" stroke="black" fill="magenta"/>
  <circle cx="465.032" cy="493.3" r="5.05167" stroke-width="0.5" stroke="black" fill="magenta"/>
   </g>
   <g id="cell6">
  <circle cx="584.333" cy="512.042" r="7.73091" stroke-width="0.5" stroke="black" fill="magenta"/>
  <circle cx="584.333" cy="512.042" r="4.70398" stroke-width="0.5" stroke="black" fill="magenta"/>
   </g>
   <g id="cell7">
  <circle cx="503.931" cy="460.81" r="7.41548" stroke-width="0.5" stroke="black" fill="magenta"/>
  <circle cx="503.931" cy="460.81" r="4.50723" stroke-width="0.5" stroke="black" fill="magenta"/>
   </g>
   <g id="cell8">
  <circle cx="382.042" cy="543.337" r="8.41271" stroke-width="0.5" stroke="black" fill="magenta"/>
  <circle cx="382.042" cy="543.337" r="5.05167" stroke-width="0.5" stroke="black" fill="magenta"/>
   </g>
   <g id="cell9">
  <circle cx="465.166" cy="595.224" r="8.29331" stroke-width="0.5" stroke="black" fill="magenta"/>
  <circle cx="465.166" cy="595.224" r="5.0012" stroke-width="0.5" stroke="black" fill="magenta"/>
   </g>
   <g id="cell10">
  <circle cx="583.447" cy="392.105" r="8.41271" stroke-width="0.5" stroke="black" fill="magenta"/>
  <circle cx="583.447" cy="392.105" r="5.05167" stroke-width="0.5" stroke="black" fill="magenta"/>
   </g>
   <g id="cell11">
  <circle cx="595.287" cy="584.401" r="7.68654" stroke-width="0.5" stroke="black" fill="magenta"/>
  <circle cx="595.287" cy="584.401" r="4.68641" stroke-width="0.5" stroke="black" fill="magenta"/>
   </g>
   <g id="cell12">
  <circle cx="505.703" cy="585.155" r="8.41271" stroke-width="0.5" stroke="black" fill="magenta"/>
  <circle cx="505.703" cy="585.155" r="5.05167" stroke-width="0.5" stroke="black" fill="magenta"/>
   </g>
   <g id="cell13">
  <circle cx="394.62" cy="567.019" r="8.31491" stroke-width="0.5" stroke="black" fill="magenta"/>
  <circle cx="394.62" cy="567.019" r="5.01133" stroke-width="0.5" stroke="black" fill="magenta"/>
   </g>
   <g id="cell109">
  <circle cx="377.128" cy="441.948" r="6.83713" stroke-width="0.5" stroke="black" fill="cyan"/>
  <circle cx="377.128" cy="441.948" r="4.12773" stroke-width="0.5" stroke="black" fill="cyan"/>
   </g>
   <g id="cell15">
  <circle cx="379.896" cy="475.017" r="8.41271" stroke-width="0.5" stroke="black" fill="magenta"/>
  <circle cx="379.896" cy="475.017" r="5.05167" stroke-width="0.5" stroke="black" fill="magenta"/>
   </g>
   <g id="cell16">
  <circle cx="426.936" cy="420.161" r="7.27253" stroke-width="0.5" stroke="black" fill="magenta"/>
  <circle cx="426.936" cy="420.161" r="4.41835" stroke-width="0.5" stroke="black" fill="magenta"/>
   </g>
   <g id="cell17">
  <circle cx="572.347" cy="492.099" r="8.41271" stroke-width="0.5" stroke="black" fill="magenta"/>
  <circle cx="572.347" cy="492.099" r="5.05167" stroke-width="0.5" stroke="black" fill="magenta"/>
   </g>
   <g id="cell18">
  <circle cx="511.683" cy="387.4" r="5.67452" stroke-width="0.5" stroke="black" fill="magenta"/>
  <circle cx="511.683" cy="387.4" r="3.4527" stroke-width="0.5" stroke="black" fill="magenta"/>
   </g>
   <g id="cell19">
  <circle cx="453.602" cy="546.602" r="7.56839" stroke-width="0.5" stroke="black" fill="magenta"/>
  <circle cx="453.602" cy="546.602" r="4.59998" stroke-width="0.5" stroke="black" fill="magenta"/>
   </g>
   <g id="cell20">
  <circle cx="532.246" cy="418.123" r="8.41271" stroke-width="0.5" stroke="black" fill="magenta"/>
  <circle cx="532.246" cy="418.123" r="5.05167" stroke-width="0.5" stroke="black" fill="magenta"/>
   </g>
   <g id="cell21">
  <circle cx="464.212" cy="634.718" r="8.41271" stroke-width="0.5" stroke="black" fill="magenta"/>
  <circle cx="464.212" cy="634.718" r="5.05167" stroke-width="0.5" stroke="black" fill="magenta"/>
   </g>
   <g id="cell22">
  <circle cx="556.552" cy="494.697" r="8.41271" stroke-width="0.5" stroke="black" fill="magenta"/>
  <circle cx="556.552" cy="494.697" r="5.05167" stroke-width="0.5" stroke="black" fill="magenta"/>
   </g>
   <g id="cell23">
  <circle cx="534.658" cy="485.044" r="8.41271" stroke-width="0.5" stroke="black" fill="magenta"/>
  <circle cx="534.658" cy="485.044" r="5.05167" stroke-width="0.5" stroke="black" fill="magenta"/>
   </g>
   <g id="cell24">
  <circle cx="559.289" cy="379.784" r="1.36402" stroke-width="0.5" stroke="black" fill="magenta"/>
  <circle cx="559.289" cy="379.784" r="1.35333" stroke-width="0.5" stroke="black" fill="black"/>
   </g>
   <g id="cell25">
  <circle cx="638.754" cy="553.064" r="7.4702" stroke-width="0.5" stroke="black" fill="green"/>
  <circle cx="638.754" cy="553.064" r="4.57095" stroke-width="0.5" stroke="black" fill="green"/>
   </g>
   <g id="cell26">
  <circle cx="556.536" cy="399.754" r="8.07654" stroke-width="0.5" stroke="black" fill="green"/>
  <circle cx="556.536" cy="399.754" r="4.89046" stroke-width="0.5" stroke="black" fill="green"/>
   </g>
   <g id="cell27">
  <circle cx="457.446" cy="388.678" r="8.41271" stroke-width="0.5" stroke="black" fill="green"/>
  <circle cx="457.446" cy="388.678" r="5.05167" stroke-width="0.5" stroke="black" fill="green"/>
   </g>
   <g id="cell28">
  <circle cx="437.103" cy="529.561" r="8.41271" stroke-width="0.5" stroke="black" fill="green"/>
  <circle cx="437.103" cy="529.561" r="5.05167" stroke-width="0.5" stroke="black" fill="green"/>
   </g>
   <g id="cell29">
  <circle cx="448.035" cy="517.781" r="8.41271" stroke-width="0.5" stroke="black" fill="green"/>
  <circle cx="448.035" cy="517.781" r="5.05167" stroke-width="0.5" stroke="black" fill="green"/>
   </g>
   <g id="cell30">
  <circle cx="481.58" cy="540.282" r="1.50862" stroke-width="0.5" stroke="black" fill="green"/>
  <circle cx="481.58" cy="540.282" r="1.48821" stroke-width="0.5" stroke="black" fill="black"/>
   </g>
   <g id="cell31">
  <circle cx="412.757" cy="541.193" r="8.41271" stroke-width="0.5" stroke="black" fill="green"/>
  <circle cx="412.757" cy="541.193" r="5.05167" stroke-width="0.5" stroke="black" fill="green"/>
   </g>
   <g id="cell32">
  <circle cx="422.167" cy="478.325" r="8.41271" stroke-width="0.5" stroke="black" fill="green"/>
  <circle cx="422.167" cy="478.325" r="5.05167" stroke-width="0.5" stroke="black" fill="green"/>
   </g>
   <g id="cell33">
  <circle cx="494.146" cy="423.183" r="8.41271" stroke-width="0.5" stroke="black" fill="green"/>
  <circle cx="494.146" cy="423.183" r="5.05167" stroke-width="0.5" stroke="black" fill="green"/>
   </g>
   <g id="cell34">
  <circle cx="397.167" cy="450.959" r="8.41271" stroke-width="0.5" stroke="black" fill="green"/>
  <circle cx="397.167" cy="450.959" r="5.05167" stroke-width="0.5" stroke="black" fill="green"/>
   </g>
   <g id="cell35">
  <circle cx="548.08" cy="543.064" r="8.41271" stroke-width="0.5" stroke="black" fill="green"/>
  <circle cx="548.08" cy="543.064" r="5.05167" stroke-width="0.5" stroke="black" fill="green"/>
   </g>
   <g id="cell36">
  <circle cx="388.619" cy="581.76" r="8.41271" stroke-width="0.5" stroke="black" fill="green"/>
  <circle cx="388.619" cy="581.76" r="5.05167" stroke-width="0.5" stroke="black" fill="green"/>
   </g>
   <g id="cell37">
  <circle cx="634.871" cy="460.618" r="8.41271" stroke-width="0.5" stroke="black" fill="green"/>
  <circle cx="634.871" cy="460.618" r="5.05167" stroke-width="0.5" stroke="black" fill="green"/>
   </g>
   <g id="cell38">
  <circle cx="538.3" cy="613.506" r="8.31491" stroke-width="0.5" stroke="black" fill="green"/>
  <circle cx="538.3" cy="613.506" r="5.01133" stroke-width="0.5" stroke="black" fill="green"/>
   </g>
   <g id="cell39">
  <circle cx="613.546" cy="488.844" r="8.41271" stroke-width="0.5" stroke="black" fill="green"/>
  <circle cx="613.546" cy="488.844" r="5.05167" stroke-width="0.5" stroke="black" fill="green"/>
   </g>
   <g id="cell40">
  <circle cx="482.412" cy="566.808" r="8.20088" stroke-width="0.5" stroke="black" fill="green"/>
  <circle cx="482.412" cy="566.808" r="4.95562" stroke-width="0.5" stroke="black" fill="green"/>
   </g>
   <g id="cell41">
  <circle cx="364.751" cy="480.251" r="8.41271" stroke-width="0.5" stroke="black" fill="green"/>
  <circle cx="364.751" cy="480.251" r="5.05167" stroke-width="0.5" stroke="black" fill="green"/>
   </g>
   <g id="cell42">
  <circle cx="438.842" cy="494.268" r="8.41271" stroke-width="0.5" stroke="black" fill="green"/>
  <circle cx="438.842" cy="494.268" r="5.05167" stroke-width="0.5" stroke="black" fill="green"/>
   </g>
   <g id="cell43">
  <circle cx="560.029" cy="444.884" r="8.41271" stroke-width="0.5" stroke="black" fill="green"/>
  <circle cx="560.029" cy="444.884" r="5.05167" stroke-width="0.5" stroke="black" fill="green"/>
   </g>
   <g id="cell44">
  <circle cx="476.013" cy="623.877" r="8.41271" stroke-width="0.5" stroke="black" fill="green"/>
  <circle cx="476.013" cy="623.877" r="5.05167" stroke-width="0.5" stroke="black" fill="green"/>
   </g>
   <g id="cell45">
  <circle cx="414.953" cy="557.066" r="8.41271" stroke-width="0.5" stroke="black" fill="green"/>
  <circle cx="414.953" cy="557.066" r="5.05167" stroke-width="0.5" stroke="black" fill="green"/>
   </g>
   <g id="cell46">
  <circle cx="522.49" cy="611.435" r="8.41271" stroke-width="0.5" stroke="black" fill="green"/>
  <circle cx="522.49" cy="611.435" r="5.05167" stroke-width="0.5" stroke="black" fill="green"/>
   </g>
   <g id="cell47">
  <circle cx="495.16" cy="507.998" r="8.32291" stroke-width="0.5" stroke="black" fill="green"/>
  <circle cx="495.16" cy="507.998" r="5.01502" stroke-width="0.5" stroke="black" fill="green"/>
   </g>
   <g id="cell48">
  <circle cx="564.143" cy="603.12" r="8.41271" stroke-width="0.5" stroke="black" fill="green"/>
  <circle cx="564.143" cy="603.12" r="5.05167" stroke-width="0.5" stroke="black" fill="green"/>
   </g>
   <g id="cell49">
  <circle cx="429.209" cy="393.052" r="8.41271" stroke-width="0.5" stroke="black" fill="green"/>
  <circle cx="429.209" cy="393.052" r="5.05167" stroke-width="0.5" stroke="black" fill="green"/>
   </g>
   <g id="cell50">
  <circle cx="520.471" cy="516.793" r="8.41271" stroke-width="0.5" stroke="black" fill="cyan"/>
  <circle cx="520.471" cy="516.793" r="5.05167" stroke-width="0.5" stroke="black" fill="cyan"/>
   </g>
   <g id="cell51">
  <circle cx="412.549" cy="592.645" r="6.67591" stroke-width="0.5" stroke="black" fill="cyan"/>
  <circle cx="412.549" cy="592.645" r="4.04137" stroke-width="0.5" stroke="black" fill="cyan"/>
   </g>
   <g id="cell52">
  <circle cx="521.188" cy="429.853" r="8.41271" stroke-width="0.5" stroke="black" fill="cyan"/>
  <circle cx="521.188" cy="429.853" r="5.05167" stroke-width="0.5" stroke="black" fill="cyan"/>
   </g>
   <g id="cell53">
  <circle cx="574.46" cy="439.982" r="7.65871" stroke-width="0.5" stroke="black" fill="cyan"/>
  <circle cx="574.46" cy="439.982" r="4.6537" stroke-width="0.5" stroke="black" fill="cyan"/>
   </g>
   <g id="cell54">
  <circle cx="478.152" cy="424.167" r="8.41271" stroke-width="0.5" stroke="black" fill="cyan"/>
  <circle cx="478.152" cy="424.167" r="5.05167" stroke-width="0.5" stroke="black" fill="cyan"/>
   </g>
   <g id="cell55">
  <circle cx="531.127" cy="468.091" r="7.61469" stroke-width="0.5" stroke="black" fill="cyan"/>
  <circle cx="531.127" cy="468.091" r="4.62762" stroke-width="0.5" stroke="black" fill="cyan"/>
   </g>
   <g id="cell56">
  <circle cx="626.888" cy="521.763" r="7.86286" stroke-width="0.5" stroke="black" fill="cyan"/>
  <circle cx="626.888" cy="521.763" r="4.77207" stroke-width="0.5" stroke="black" fill="cyan"/>
   </g>
   <g id="cell57">
  <circle cx="416.924" cy="617.466" r="8.41271" stroke-width="0.5" stroke="black" fill="cyan"/>
  <circle cx="416.924" cy="617.466" r="5.05167" stroke-width="0.5" stroke="black" fill="cyan"/>
   </g>
   <g id="cell58">
  <circle cx="549.804" cy="480.255" r="8.41271" stroke-width="0.5" stroke="black" fill="cyan"/>
  <circle cx="549.804" cy="480.255" r="5.05167" stroke-width="0.5" stroke="black" fill="cyan"/>
   </g>
   <g id="cell59">
  <circle cx="389.653" cy="438.575" r="6.83713" stroke-width="0.5" stroke="black" fill="cyan"/>
  <circle cx="389.653" cy="438.575" r="4.12773" stroke-width="0.5" stroke="black" fill="cyan"/>
   </g>
   <g id="cell60">
  <circle cx="605.338" cy="473.673" r="8.24438" stroke-width="0.5" stroke="black" fill="cyan"/>
  <circle cx="605.338" cy="473.673" r="4.97746" stroke-width="0.5" stroke="black" fill="cyan"/>
   </g>
   <g id="cell61">
  <circle cx="552.376" cy="613.284" r="1.23626" stroke-width="0.5" stroke="black" fill="cyan"/>
  <circle cx="552.376" cy="613.284" r="1.23068" stroke-width="0.5" stroke="black" fill="black"/>
   </g>
   <g id="cell62">
  <circle cx="520.369" cy="445.205" r="7.65871" stroke-width="0.5" stroke="black" fill="cyan"/>
  <circle cx="520.369" cy="445.205" r="4.6537" stroke-width="0.5" stroke="black" fill="cyan"/>
   </g>
   <g id="cell63">
  <circle cx="577.412" cy="546.557" r="8.41271" stroke-width="0.5" stroke="black" fill="cyan"/>
  <circle cx="577.412" cy="546.557" r="5.05167" stroke-width="0.5" stroke="black" fill="cyan"/>
   </g>
   <g id="cell64">
  <circle cx="509.962" cy="636.825" r="8.41271" stroke-width="0.5" stroke="black" fill="cyan"/>
  <circle cx="509.962" cy="636.825" r="5.05167" stroke-width="0.5" stroke="black" fill="cyan"/>
   </g>
   <g id="cell65">
  <circle cx="545.946" cy="464.827" r="8.41271" stroke-width="0.5" stroke="black" fill="cyan"/>
  <circle cx="545.946" cy="464.827" r="5.05167" stroke-width="0.5" stroke="black" fill="cyan"/>
   </g>
   <g id="cell66">
  <circle cx="537.655" cy="530.891" r="8.41271" stroke-width="0.5" stroke="black" fill="cyan"/>
  <circle cx="537.655" cy="530.891" r="5.05167" stroke-width="0.5" stroke="black" fill="cyan"/>
   </g>
   <g id="cell67">
  <circle cx="354.64" cy="492.683" r="8.41271" stroke-width="0.5" stroke="black" fill="cyan"/>
  <circle cx="354.64" cy="492.683" r="5.05167" stroke-width="0.5" stroke="black" fill="cyan"/>
   </g>
   <g id="cell68">
  <circle cx="562.011" cy="550.987" r="8.41271" stroke-width="0.5" stroke="black" fill="cyan"/>
  <circle cx="562.011" cy="550.987" r="5.05167" stroke-width="0.5" stroke="black" fill="cyan"/>
   </g>
   <g id="cell69">
  <circle cx="443.81" cy="460.744" r="7.24243" stroke-width="0.5" stroke="black" fill="cyan"/>
  <circle cx="443.81" cy="460.744" r="4.39934" stroke-width="0.5" stroke="black" fill="cyan"/>
   </g>
   <g id="cell70">
  <circle cx="576.838" cy="477.177" r="8.01277" stroke-width="0.5" stroke="black" fill="cyan"/>
  <circle cx="576.838" cy="477.177" r="4.85584" stroke-width="0.5" stroke="black" fill="cyan"/>
   </g>
   <g id="cell71">
  <circle cx="377.712" cy="520.989" r="8.41271" stroke-width="0.5" stroke="black" fill="cyan"/>
  <circle cx="377.712" cy="520.989" r="5.05167" stroke-width="0.5" stroke="black" fill="cyan"/>
   </g>
   <g id="cell72">
  <circle cx="536.321" cy="514.921" r="8.41271" stroke-width="0.5" stroke="black" fill="cyan"/>
  <circle cx="536.321" cy="514.921" r="5.05167" stroke-width="0.5" stroke="black" fill="cyan"/>
   </g>
   <g id="cell73">
  <circle cx="355.264" cy="547.844" r="6.277" stroke-width="0.5" stroke="black" fill="cyan"/>
  <circle cx="355.264" cy="547.844" r="3.8081" stroke-width="0.5" stroke="black" fill="cyan"/>
   </g>
   <g id="cell74">
  <circle cx="544.658" cy="448.987" r="8.41271" stroke-width="0.5" stroke="black" fill="cyan"/>
  <circle cx="544.658" cy="448.987" r="5.05167" stroke-width="0.5" stroke="black" fill="cyan"/>
   </g>
   <g id="cell75">
  <circle cx="590.821" cy="498.39" r="8.15265" stroke-width="0.5" stroke="black" fill="magenta"/>
  <circle cx="590.821" cy="498.39" r="4.93545" stroke-width="0.5" stroke="black" fill="magenta"/>
   </g>
   <g id="cell76">
  <circle cx="647.416" cy="540.888" r="8.32543" stroke-width="0.5" stroke="black" fill="green"/>
  <circle cx="647.416" cy="540.888" r="5.01617" stroke-width="0.5" stroke="black" fill="green"/>
   </g>
   <g id="cell77">
  <circle cx="509.344" cy="507.849" r="6.71275" stroke-width="0.5" stroke="black" fill="green"/>
  <circle cx="509.344" cy="507.849" r="4.05877" stroke-width="0.5" stroke="black" fill="green"/>
   </g>
   <g id="cell78">
  <circle cx="371.516" cy="570.604" r="8.0429" stroke-width="0.5" stroke="black" fill="magenta"/>
  <circle cx="371.516" cy="570.604" r="4.87874" stroke-width="0.5" stroke="black" fill="magenta"/>
   </g>
   <g id="cell79">
  <circle cx="535.12" cy="583.879" r="8.07416" stroke-width="0.5" stroke="black" fill="green"/>
  <circle cx="535.12" cy="583.879" r="4.89946" stroke-width="0.5" stroke="black" fill="green"/>
   </g>
   <g id="cell80">
  <circle cx="453.845" cy="606.229" r="8.29331" stroke-width="0.5" stroke="black" fill="magenta"/>
  <circle cx="453.845" cy="606.229" r="5.0012" stroke-width="0.5" stroke="black" fill="magenta"/>
   </g>
   <g id="cell81">
  <circle cx="392.273" cy="614.641" r="7.57607" stroke-width="0.5" stroke="black" fill="cyan"/>
  <circle cx="392.273" cy="614.641" r="4.61748" stroke-width="0.5" stroke="black" fill="cyan"/>
   </g>
   <g id="cell82">
  <circle cx="586.662" cy="465.916" r="7.73378" stroke-width="0.5" stroke="black" fill="cyan"/>
  <circle cx="586.662" cy="465.916" r="4.71044" stroke-width="0.5" stroke="black" fill="cyan"/>
   </g>
   <g id="cell83">
  <circle cx="541.304" cy="598.085" r="8.19375" stroke-width="0.5" stroke="black" fill="green"/>
  <circle cx="541.304" cy="598.085" r="4.95651" stroke-width="0.5" stroke="black" fill="green"/>
   </g>
   <g id="cell84">
  <circle cx="490.769" cy="579.978" r="8.20088" stroke-width="0.5" stroke="black" fill="green"/>
  <circle cx="490.769" cy="579.978" r="4.95562" stroke-width="0.5" stroke="black" fill="green"/>
   </g>
   <g id="cell85">
  <circle cx="605.744" cy="502.656" r="8.15265" stroke-width="0.5" stroke="black" fill="magenta"/>
  <circle cx="605.744" cy="502.656" r="4.93545" stroke-width="0.5" stroke="black" fill="magenta"/>
   </g>
   <g id="cell86">
  <circle cx="525.962" cy="596.164" r="8.07416" stroke-width="0.5" stroke="black" fill="green"/>
  <circle cx="525.962" cy="596.164" r="4.89946" stroke-width="0.5" stroke="black" fill="green"/>
   </g>
   <g id="cell87">
  <circle cx="590.594" cy="598.731" r="8.1609" stroke-width="0.5" stroke="black" fill="magenta"/>
  <circle cx="590.594" cy="598.731" r="4.93506" stroke-width="0.5" stroke="black" fill="magenta"/>
   </g>
   <g id="cell88">
  <circle cx="381.364" cy="558.942" r="8.0429" stroke-width="0.5" stroke="black" fill="magenta"/>
  <circle cx="381.364" cy="558.942" r="4.87874" stroke-width="0.5" stroke="black" fill="magenta"/>
   </g>
   <g id="cell89">
  <circle cx="546.246" cy="411.265" r="7.79266" stroke-width="0.5" stroke="black" fill="green"/>
  <circle cx="546.246" cy="411.265" r="4.74751" stroke-width="0.5" stroke="black" fill="green"/>
   </g>
   <g id="cell90">
  <circle cx="562.71" cy="471.632" r="8.01277" stroke-width="0.5" stroke="black" fill="cyan"/>
  <circle cx="562.71" cy="471.632" r="4.85584" stroke-width="0.5" stroke="black" fill="cyan"/>
   </g>
   <g id="cell91">
  <circle cx="541.719" cy="397.209" r="7.79266" stroke-width="0.5" stroke="black" fill="green"/>
  <circle cx="541.719" cy="397.209" r="4.74751" stroke-width="0.5" stroke="black" fill="green"/>
   </g>
   <g id="cell92">
  <circle cx="641.414" cy="567.314" r="7.87391" stroke-width="0.5" stroke="black" fill="green"/>
  <circle cx="641.414" cy="567.314" r="4.78576" stroke-width="0.5" stroke="black" fill="green"/>
   </g>
   <g id="cell93">
  <circle cx="367.08" cy="543.314" r="7.90853" stroke-width="0.5" stroke="black" fill="cyan"/>
  <circle cx="367.08" cy="543.314" r="4.79791" stroke-width="0.5" stroke="black" fill="cyan"/>
   </g>
   <g id="cell94">
  <circle cx="612.11" cy="521.1" r="7.86286" stroke-width="0.5" stroke="black" fill="cyan"/>
  <circle cx="612.11" cy="521.1" r="4.77207" stroke-width="0.5" stroke="black" fill="cyan"/>
   </g>
   <g id="cell95">
  <circle cx="580.942" cy="587.146" r="7.68654" stroke-width="0.5" stroke="black" fill="magenta"/>
  <circle cx="580.942" cy="587.146" r="4.68641" stroke-width="0.5" stroke="black" fill="magenta"/>
   </g>
   <g id="cell96">
  <circle cx="591.498" cy="479.848" r="7.73378" stroke-width="0.5" stroke="black" fill="cyan"/>
  <circle cx="591.498" cy="479.848" r="4.71044" stroke-width="0.5" stroke="black" fill="cyan"/>
   </g>
   <g id="cell97">
  <circle cx="625.587" cy="547.95" r="7.4702" stroke-width="0.5" stroke="black" fill="green"/>
  <circle cx="625.587" cy="547.95" r="4.57095" stroke-width="0.5" stroke="black" fill="green"/>
   </g>
   <g id="cell98">
  <circle cx="598.401" cy="516.009" r="7.73091" stroke-width="0.5" stroke="black" fill="magenta"/>
  <circle cx="598.401" cy="516.009" r="4.70398" stroke-width="0.5" stroke="black" fill="magenta"/>
   </g>
   <g id="cell99">
  <circle cx="563.785" cy="430.071" r="7.65871" stroke-width="0.5" stroke="black" fill="cyan"/>
  <circle cx="563.785" cy="430.071" r="4.6537" stroke-width="0.5" stroke="black" fill="cyan"/>
   </g>
   <g id="cell100">
  <circle cx="381.052" cy="595.107" r="5.51977" stroke-width="0.5" stroke="black" fill="cyan"/>
  <circle cx="381.052" cy="595.107" r="3.39093" stroke-width="0.5" stroke="black" fill="cyan"/>
   </g>
   <g id="cell101">
  <circle cx="533.427" cy="438.845" r="7.65871" stroke-width="0.5" stroke="black" fill="cyan"/>
  <circle cx="533.427" cy="438.845" r="4.6537" stroke-width="0.5" stroke="black" fill="cyan"/>
   </g>
   <g id="cell102">
  <circle cx="521.041" cy="478.478" r="7.61469" stroke-width="0.5" stroke="black" fill="cyan"/>
  <circle cx="521.041" cy="478.478" r="4.62762" stroke-width="0.5" stroke="black" fill="cyan"/>
   </g>
   <g id="cell103">
  <circle cx="452.025" cy="532.374" r="7.56839" stroke-width="0.5" stroke="black" fill="magenta"/>
  <circle cx="452.025" cy="532.374" r="4.59998" stroke-width="0.5" stroke="black" fill="magenta"/>
   </g>
   <g id="cell104">
  <circle cx="398.832" cy="602.968" r="6.95447" stroke-width="0.5" stroke="black" fill="cyan"/>
  <circle cx="398.832" cy="602.968" r="4.2723" stroke-width="0.5" stroke="black" fill="cyan"/>
   </g>
   <g id="cell105">
  <circle cx="517.333" cy="464.758" r="7.41548" stroke-width="0.5" stroke="black" fill="magenta"/>
  <circle cx="517.333" cy="464.758" r="4.50723" stroke-width="0.5" stroke="black" fill="magenta"/>
   </g>
   <g id="cell106">
  <circle cx="432.451" cy="407.551" r="7.27253" stroke-width="0.5" stroke="black" fill="magenta"/>
  <circle cx="432.451" cy="407.551" r="4.41835" stroke-width="0.5" stroke="black" fill="magenta"/>
   </g>
   <g id="cell107">
  <circle cx="431.555" cy="466.861" r="7.24243" stroke-width="0.5" stroke="black" fill="cyan"/>
  <circle cx="431.555" cy="466.861" r="4.39934" stroke-width="0.5" stroke="black" fill="cyan"/>
   </g>
   <g id="cell108">
  <circle cx="522.243" cy="381.799" r="6.95901" stroke-width="0.5" stroke="black" fill="magenta"/>
  <circle cx="522.243" cy="381.799" r="4.21341" stroke-width="0.5" stroke="black" fill="magenta"/>
   </g>
   <g id="cell110">
  <circle cx="514.512" cy="397.748" r="5.67452" stroke-width="0.5" stroke="black" fill="magenta"/>
  <circle cx="514.512" cy="397.748" r="3.4527" stroke-width="0.5" stroke="black" fill="magenta"/>
   </g>
   <g id="cell111">
  <circle cx="515.564" cy="496.792" r="6.71275" stroke-width="0.5" stroke="black" fill="green"/>
  <circle cx="515.564" cy="496.792" r="4.05877" stroke-width="0.5" stroke="black" fill="green"/>
   </g>
   <g id="cell112">
  <circle cx="400.489" cy="589.484" r="6.67591" stroke-width="0.5" stroke="black" fill="cyan"/>
  <circle cx="400.489" cy="589.484" r="4.04137" stroke-width="0.5" stroke="black" fill="cyan"/>
   </g>
   <g id="cell113">
  <circle cx="343.91" cy="547.589" r="6.277" stroke-width="0.5" stroke="black" fill="cyan"/>
  <circle cx="343.91" cy="547.589" r="3.8081" stroke-width="0.5" stroke="black" fill="cyan"/>
   </g>
   <g id="cell114">
  <circle cx="390.859" cy="595.345" r="5.51977" stroke-width="0.5" stroke="black" fill="cyan"/>
  <circle cx="390.859" cy="595.345" r="3.39093" stroke-width="0.5" stroke="black" fill="cyan"/>
   </g>
  </g>
 </g>
  <rect x="775" y="1035" width="200" height="10" stroke-width="2" stroke="rgb(255,255,255)" fill="rgb(0,0,0)"/>
  <text x="781.25" y="1028.75"
   font-family="Arial" font-size="25" fill="black" >
   200 &#956;m
  </text>
  <text x="25" y="1045"
   font-family="Arial" font-size="18.75" fill="black" >
   0 days, 0 hours, 0 minutes, and 16.6374 seconds
  </text>
  <rect x="0" y="70" width="1000" height="1000" stroke-width="2" stroke="rgb(0,0,0)" fill="none"/>
</svg>
