<?xml version="1.0" encoding="UTF-8" standalone="no"?>
<!-- Created with PhysiCell (http://PhysiCell.MathCancer.org/) -->
<svg 
 xmlns:dc="http://purl.org/dc/elements/1.1/" 
 xmlns:cc="http://creativecommons.org/ns#" 
 xmlns:rdf="http://www.w3.org/1999/02/22-rdf-syntax-ns#" 
 xmlns:svg="http://www.w3.org/2000/svg" 
 xmlns="http://www.w3.org/2000/svg" 
 version="1.1" 
 width="1000" 
 height="1070" 
 id="svg2">
  <rect x="0" y="0" width="1000" height="1070" stroke-width="2" stroke="white" fill="white"/>
  <text x="12.5" y="30"
   font-family="Arial" font-size="25" fill="black" >
   Current time: 1 days, 2 hours, and 0.00 minutes, z = 0.00 &#956;m
  </text>
  <text x="12.5" y="57.5"
   font-family="Arial" font-size="23.75" fill="black" >
   167 agents
  </text>
 <g id="tissue" 
    transform="translate(0,1070) scale(1,-1)">
  <g id="ECM">
  </g>
  <g id="cells">
   <g id="cell0">
  <circle cx="513.522" cy="532.453" r="8.41271" stroke-width="0.5" stroke="black" fill="magenta"/>
  <circle cx="513.522" cy="532.453" r="5.05167" stroke-width="0.5" stroke="black" fill="magenta"/>
   </g>
   <g id="cell1">
  <circle cx="603.737" cy="537.509" r="8.41271" stroke-width="0.5" stroke="black" fill="magenta"/>
  <circle cx="603.737" cy="537.509" r="5.05167" stroke-width="0.5" stroke="black" fill="magenta"/>
   </g>
   <g id="cell2">
  <circle cx="508.142" cy="601.777" r="8.41271" stroke-width="0.5" stroke="black" fill="magenta"/>
  <circle cx="508.142" cy="601.777" r="5.05167" stroke-width="0.5" stroke="black" fill="magenta"/>
   </g>
   <g id="cell3">
  <circle cx="527.017" cy="554.488" r="7.63698" stroke-width="0.5" stroke="black" fill="magenta"/>
  <circle cx="527.017" cy="554.488" r="4.64085" stroke-width="0.5" stroke="black" fill="magenta"/>
   </g>
   <g id="cell4">
  <circle cx="481.375" cy="439.863" r="8.41271" stroke-width="0.5" stroke="black" fill="magenta"/>
  <circle cx="481.375" cy="439.863" r="5.05167" stroke-width="0.5" stroke="black" fill="magenta"/>
   </g>
   <g id="cell5">
  <circle cx="463.853" cy="488.805" r="8.41271" stroke-width="0.5" stroke="black" fill="magenta"/>
  <circle cx="463.853" cy="488.805" r="5.05167" stroke-width="0.5" stroke="black" fill="magenta"/>
   </g>
   <g id="cell6">
  <circle cx="586.697" cy="512.932" r="8.36212" stroke-width="0.5" stroke="black" fill="magenta"/>
  <circle cx="586.697" cy="512.932" r="5.03309" stroke-width="0.5" stroke="black" fill="magenta"/>
   </g>
   <g id="cell171">
  <circle cx="584.336" cy="499.731" r="6.6732" stroke-width="0.5" stroke="black" fill="magenta"/>
  <circle cx="584.336" cy="499.731" r="4.00839" stroke-width="0.5" stroke="black" fill="magenta"/>
   </g>
   <g id="cell8">
  <circle cx="383.38" cy="528.909" r="7.9229" stroke-width="0.5" stroke="black" fill="magenta"/>
  <circle cx="383.38" cy="528.909" r="4.80599" stroke-width="0.5" stroke="black" fill="magenta"/>
   </g>
   <g id="cell9">
  <circle cx="464.374" cy="595.95" r="2.38359" stroke-width="0.5" stroke="black" fill="magenta"/>
  <circle cx="464.374" cy="595.95" r="2.15038" stroke-width="0.5" stroke="black" fill="black"/>
   </g>
   <g id="cell10">
  <circle cx="583.447" cy="392.105" r="1.87298" stroke-width="0.5" stroke="black" fill="magenta"/>
  <circle cx="583.447" cy="392.105" r="1.79964" stroke-width="0.5" stroke="black" fill="black"/>
   </g>
   <g id="cell11">
  <circle cx="597.713" cy="573.307" r="7.53611" stroke-width="0.5" stroke="black" fill="magenta"/>
  <circle cx="597.713" cy="573.307" r="4.5828" stroke-width="0.5" stroke="black" fill="magenta"/>
   </g>
   <g id="cell12">
  <circle cx="505.864" cy="585.897" r="8.41271" stroke-width="0.5" stroke="black" fill="magenta"/>
  <circle cx="505.864" cy="585.897" r="5.05167" stroke-width="0.5" stroke="black" fill="magenta"/>
   </g>
   <g id="cell13">
  <circle cx="396.643" cy="571.066" r="8.41078" stroke-width="0.5" stroke="black" fill="magenta"/>
  <circle cx="396.643" cy="571.066" r="5.05116" stroke-width="0.5" stroke="black" fill="magenta"/>
   </g>
   <g id="cell109">
  <circle cx="375.871" cy="443.975" r="8.38118" stroke-width="0.5" stroke="black" fill="cyan"/>
  <circle cx="375.871" cy="443.975" r="5.04034" stroke-width="0.5" stroke="black" fill="cyan"/>
   </g>
   <g id="cell15">
  <circle cx="379.833" cy="474.699" r="3.45715" stroke-width="0.5" stroke="black" fill="magenta"/>
  <circle cx="379.833" cy="474.699" r="2.66266" stroke-width="0.5" stroke="black" fill="black"/>
   </g>
   <g id="cell16">
  <circle cx="420.149" cy="427.964" r="8.22335" stroke-width="0.5" stroke="black" fill="magenta"/>
  <circle cx="420.149" cy="427.964" r="4.96868" stroke-width="0.5" stroke="black" fill="magenta"/>
   </g>
   <g id="cell17">
  <circle cx="569.302" cy="499.569" r="7.27253" stroke-width="0.5" stroke="black" fill="magenta"/>
  <circle cx="569.302" cy="499.569" r="4.41835" stroke-width="0.5" stroke="black" fill="magenta"/>
   </g>
   <g id="cell18">
  <circle cx="509.588" cy="386.037" r="1.74973" stroke-width="0.5" stroke="black" fill="magenta"/>
  <circle cx="509.588" cy="386.037" r="1.69818" stroke-width="0.5" stroke="black" fill="black"/>
   </g>
   <g id="cell19">
  <circle cx="453.831" cy="554.57" r="8.39708" stroke-width="0.5" stroke="black" fill="magenta"/>
  <circle cx="453.831" cy="554.57" r="5.0465" stroke-width="0.5" stroke="black" fill="magenta"/>
   </g>
   <g id="cell20">
  <circle cx="532.194" cy="420.778" r="8.41271" stroke-width="0.5" stroke="black" fill="magenta"/>
  <circle cx="532.194" cy="420.778" r="5.05167" stroke-width="0.5" stroke="black" fill="magenta"/>
   </g>
   <g id="cell21">
  <circle cx="463.829" cy="635.366" r="8.41271" stroke-width="0.5" stroke="black" fill="magenta"/>
  <circle cx="463.829" cy="635.366" r="5.05167" stroke-width="0.5" stroke="black" fill="magenta"/>
   </g>
   <g id="cell22">
  <circle cx="555.84" cy="494.181" r="8.41271" stroke-width="0.5" stroke="black" fill="magenta"/>
  <circle cx="555.84" cy="494.181" r="5.05167" stroke-width="0.5" stroke="black" fill="magenta"/>
   </g>
   <g id="cell23">
  <circle cx="550.857" cy="509.149" r="6.24913" stroke-width="0.5" stroke="black" fill="magenta"/>
  <circle cx="550.857" cy="509.149" r="3.84448" stroke-width="0.5" stroke="black" fill="magenta"/>
   </g>
   <g id="cell124">
  <circle cx="556.94" cy="456.922" r="8.19299" stroke-width="0.5" stroke="black" fill="cyan"/>
  <circle cx="556.94" cy="456.922" r="4.95544" stroke-width="0.5" stroke="black" fill="cyan"/>
   </g>
   <g id="cell25">
  <circle cx="637.265" cy="554.456" r="8.39586" stroke-width="0.5" stroke="black" fill="green"/>
  <circle cx="637.265" cy="554.456" r="5.04634" stroke-width="0.5" stroke="black" fill="green"/>
   </g>
   <g id="cell26">
  <circle cx="556.446" cy="399.476" r="8.40632" stroke-width="0.5" stroke="black" fill="green"/>
  <circle cx="556.446" cy="399.476" r="5.04976" stroke-width="0.5" stroke="black" fill="green"/>
   </g>
   <g id="cell27">
  <circle cx="457.446" cy="388.678" r="8.41271" stroke-width="0.5" stroke="black" fill="green"/>
  <circle cx="457.446" cy="388.678" r="5.05167" stroke-width="0.5" stroke="black" fill="green"/>
   </g>
   <g id="cell28">
  <circle cx="425.843" cy="525.771" r="8.41271" stroke-width="0.5" stroke="black" fill="green"/>
  <circle cx="425.843" cy="525.771" r="5.05167" stroke-width="0.5" stroke="black" fill="green"/>
   </g>
   <g id="cell29">
  <circle cx="440.957" cy="510.601" r="8.25826" stroke-width="0.5" stroke="black" fill="green"/>
  <circle cx="440.957" cy="510.601" r="4.98429" stroke-width="0.5" stroke="black" fill="green"/>
   </g>
   <g id="cell126">
  <circle cx="528.956" cy="506.727" r="8.31" stroke-width="0.5" stroke="black" fill="green"/>
  <circle cx="528.956" cy="506.727" r="5.01171" stroke-width="0.5" stroke="black" fill="green"/>
   </g>
   <g id="cell31">
  <circle cx="414.391" cy="536.858" r="8.37092" stroke-width="0.5" stroke="black" fill="green"/>
  <circle cx="414.391" cy="536.858" r="5.03613" stroke-width="0.5" stroke="black" fill="green"/>
   </g>
   <g id="cell32">
  <circle cx="419.054" cy="487.034" r="7.96365" stroke-width="0.5" stroke="black" fill="green"/>
  <circle cx="419.054" cy="487.034" r="4.82873" stroke-width="0.5" stroke="black" fill="green"/>
   </g>
   <g id="cell33">
  <circle cx="494.145" cy="423.184" r="8.41271" stroke-width="0.5" stroke="black" fill="green"/>
  <circle cx="494.145" cy="423.184" r="5.05167" stroke-width="0.5" stroke="black" fill="green"/>
   </g>
   <g id="cell34">
  <circle cx="389.997" cy="449.235" r="7.56886" stroke-width="0.5" stroke="black" fill="green"/>
  <circle cx="389.997" cy="449.235" r="4.61162" stroke-width="0.5" stroke="black" fill="green"/>
   </g>
   <g id="cell35">
  <circle cx="550.3" cy="550.348" r="8.41271" stroke-width="0.5" stroke="black" fill="green"/>
  <circle cx="550.3" cy="550.348" r="5.05167" stroke-width="0.5" stroke="black" fill="green"/>
   </g>
   <g id="cell36">
  <circle cx="385.662" cy="582.859" r="8.41271" stroke-width="0.5" stroke="black" fill="green"/>
  <circle cx="385.662" cy="582.859" r="5.05167" stroke-width="0.5" stroke="black" fill="green"/>
   </g>
   <g id="cell37">
  <circle cx="634.871" cy="460.618" r="8.41271" stroke-width="0.5" stroke="black" fill="green"/>
  <circle cx="634.871" cy="460.618" r="5.05167" stroke-width="0.5" stroke="black" fill="green"/>
   </g>
   <g id="cell38">
  <circle cx="543.013" cy="612.485" r="8.24814" stroke-width="0.5" stroke="black" fill="green"/>
  <circle cx="543.013" cy="612.485" r="4.97954" stroke-width="0.5" stroke="black" fill="green"/>
   </g>
   <g id="cell39">
  <circle cx="617.202" cy="484.731" r="8.41271" stroke-width="0.5" stroke="black" fill="green"/>
  <circle cx="617.202" cy="484.731" r="5.05167" stroke-width="0.5" stroke="black" fill="green"/>
   </g>
   <g id="cell40">
  <circle cx="482.304" cy="566.637" r="8.40862" stroke-width="0.5" stroke="black" fill="green"/>
  <circle cx="482.304" cy="566.637" r="5.0505" stroke-width="0.5" stroke="black" fill="green"/>
   </g>
   <g id="cell41">
  <circle cx="365.092" cy="480.245" r="8.41271" stroke-width="0.5" stroke="black" fill="green"/>
  <circle cx="365.092" cy="480.245" r="5.05167" stroke-width="0.5" stroke="black" fill="green"/>
   </g>
   <g id="cell42">
  <circle cx="438.906" cy="494.901" r="8.41271" stroke-width="0.5" stroke="black" fill="green"/>
  <circle cx="438.906" cy="494.901" r="5.05167" stroke-width="0.5" stroke="black" fill="green"/>
   </g>
   <g id="cell43">
  <circle cx="557.962" cy="441.863" r="8.41271" stroke-width="0.5" stroke="black" fill="green"/>
  <circle cx="557.962" cy="441.863" r="5.05167" stroke-width="0.5" stroke="black" fill="green"/>
   </g>
   <g id="cell44">
  <circle cx="471.019" cy="621.914" r="7.63698" stroke-width="0.5" stroke="black" fill="green"/>
  <circle cx="471.019" cy="621.914" r="4.64085" stroke-width="0.5" stroke="black" fill="green"/>
   </g>
   <g id="cell45">
  <circle cx="426.207" cy="565.547" r="8.27497" stroke-width="0.5" stroke="black" fill="green"/>
  <circle cx="426.207" cy="565.547" r="4.99242" stroke-width="0.5" stroke="black" fill="green"/>
   </g>
   <g id="cell46">
  <circle cx="515.28" cy="617.769" r="6.71158" stroke-width="0.5" stroke="black" fill="green"/>
  <circle cx="515.28" cy="617.769" r="4.03435" stroke-width="0.5" stroke="black" fill="green"/>
   </g>
   <g id="cell47">
  <circle cx="490.013" cy="503.932" r="8.32453" stroke-width="0.5" stroke="black" fill="green"/>
  <circle cx="490.013" cy="503.932" r="5.01593" stroke-width="0.5" stroke="black" fill="green"/>
   </g>
   <g id="cell48">
  <circle cx="562.496" cy="602.605" r="8.41271" stroke-width="0.5" stroke="black" fill="green"/>
  <circle cx="562.496" cy="602.605" r="5.05167" stroke-width="0.5" stroke="black" fill="green"/>
   </g>
   <g id="cell49">
  <circle cx="427.828" cy="389.631" r="8.41271" stroke-width="0.5" stroke="black" fill="green"/>
  <circle cx="427.828" cy="389.631" r="5.05167" stroke-width="0.5" stroke="black" fill="green"/>
   </g>
   <g id="cell50">
  <circle cx="517.458" cy="517.008" r="3.66624" stroke-width="0.5" stroke="black" fill="cyan"/>
  <circle cx="517.458" cy="517.008" r="2.75003" stroke-width="0.5" stroke="black" fill="black"/>
   </g>
   <g id="cell51">
  <circle cx="419.131" cy="597.049" r="8.378" stroke-width="0.5" stroke="black" fill="cyan"/>
  <circle cx="419.131" cy="597.049" r="5.03923" stroke-width="0.5" stroke="black" fill="cyan"/>
   </g>
   <g id="cell52">
  <circle cx="516.041" cy="423.005" r="8.41271" stroke-width="0.5" stroke="black" fill="cyan"/>
  <circle cx="516.041" cy="423.005" r="5.05167" stroke-width="0.5" stroke="black" fill="cyan"/>
   </g>
   <g id="cell53">
  <circle cx="579.664" cy="437.382" r="7.3221" stroke-width="0.5" stroke="black" fill="cyan"/>
  <circle cx="579.664" cy="437.382" r="4.45195" stroke-width="0.5" stroke="black" fill="cyan"/>
   </g>
   <g id="cell54">
  <circle cx="478.151" cy="424.167" r="8.41271" stroke-width="0.5" stroke="black" fill="cyan"/>
  <circle cx="478.151" cy="424.167" r="5.05167" stroke-width="0.5" stroke="black" fill="cyan"/>
   </g>
   <g id="cell55">
  <circle cx="529.017" cy="461.313" r="8.39794" stroke-width="0.5" stroke="black" fill="cyan"/>
  <circle cx="529.017" cy="461.313" r="5.04681" stroke-width="0.5" stroke="black" fill="cyan"/>
   </g>
   <g id="cell56">
  <circle cx="630.396" cy="521.708" r="8.40244" stroke-width="0.5" stroke="black" fill="cyan"/>
  <circle cx="630.396" cy="521.708" r="5.04843" stroke-width="0.5" stroke="black" fill="cyan"/>
   </g>
   <g id="cell57">
  <circle cx="416.472" cy="616.967" r="8.41271" stroke-width="0.5" stroke="black" fill="cyan"/>
  <circle cx="416.472" cy="616.967" r="5.05167" stroke-width="0.5" stroke="black" fill="cyan"/>
   </g>
   <g id="cell58">
  <circle cx="551.014" cy="478.338" r="4.42406" stroke-width="0.5" stroke="black" fill="cyan"/>
  <circle cx="551.014" cy="478.338" r="3.07758" stroke-width="0.5" stroke="black" fill="black"/>
   </g>
   <g id="cell59">
  <circle cx="384.335" cy="431.394" r="2.76617" stroke-width="0.5" stroke="black" fill="cyan"/>
  <circle cx="384.335" cy="431.394" r="2.35408" stroke-width="0.5" stroke="black" fill="black"/>
   </g>
   <g id="cell60">
  <circle cx="609.997" cy="470.716" r="8.40944" stroke-width="0.5" stroke="black" fill="cyan"/>
  <circle cx="609.997" cy="470.716" r="5.05076" stroke-width="0.5" stroke="black" fill="cyan"/>
   </g>
   <g id="cell121">
  <circle cx="452.828" cy="462.262" r="8.35618" stroke-width="0.5" stroke="black" fill="cyan"/>
  <circle cx="452.828" cy="462.262" r="5.03077" stroke-width="0.5" stroke="black" fill="cyan"/>
   </g>
   <g id="cell62">
  <circle cx="501.304" cy="451.206" r="7.9933" stroke-width="0.5" stroke="black" fill="cyan"/>
  <circle cx="501.304" cy="451.206" r="4.84679" stroke-width="0.5" stroke="black" fill="cyan"/>
   </g>
   <g id="cell63">
  <circle cx="579.206" cy="545.799" r="8.41271" stroke-width="0.5" stroke="black" fill="cyan"/>
  <circle cx="579.206" cy="545.799" r="5.05167" stroke-width="0.5" stroke="black" fill="cyan"/>
   </g>
   <g id="cell64">
  <circle cx="509.962" cy="636.825" r="8.41271" stroke-width="0.5" stroke="black" fill="cyan"/>
  <circle cx="509.962" cy="636.825" r="5.05167" stroke-width="0.5" stroke="black" fill="cyan"/>
   </g>
   <g id="cell65">
  <circle cx="544.229" cy="465.493" r="8.41271" stroke-width="0.5" stroke="black" fill="cyan"/>
  <circle cx="544.229" cy="465.493" r="5.05167" stroke-width="0.5" stroke="black" fill="cyan"/>
   </g>
   <g id="cell66">
  <circle cx="524.624" cy="523.297" r="6.66901" stroke-width="0.5" stroke="black" fill="cyan"/>
  <circle cx="524.624" cy="523.297" r="4.03133" stroke-width="0.5" stroke="black" fill="cyan"/>
   </g>
   <g id="cell67">
  <circle cx="354.782" cy="492.513" r="8.41271" stroke-width="0.5" stroke="black" fill="cyan"/>
  <circle cx="354.782" cy="492.513" r="5.05167" stroke-width="0.5" stroke="black" fill="cyan"/>
   </g>
   <g id="cell68">
  <circle cx="565.453" cy="553.493" r="8.41271" stroke-width="0.5" stroke="black" fill="cyan"/>
  <circle cx="565.453" cy="553.493" r="5.05167" stroke-width="0.5" stroke="black" fill="cyan"/>
   </g>
   <g id="cell69">
  <circle cx="442.135" cy="450.293" r="8.35618" stroke-width="0.5" stroke="black" fill="cyan"/>
  <circle cx="442.135" cy="450.293" r="5.03077" stroke-width="0.5" stroke="black" fill="cyan"/>
   </g>
   <g id="cell70">
  <circle cx="585.957" cy="478.789" r="7.11288" stroke-width="0.5" stroke="black" fill="cyan"/>
  <circle cx="585.957" cy="478.789" r="4.31781" stroke-width="0.5" stroke="black" fill="cyan"/>
   </g>
   <g id="cell71">
  <circle cx="375.207" cy="515.841" r="8.41271" stroke-width="0.5" stroke="black" fill="cyan"/>
  <circle cx="375.207" cy="515.841" r="5.05167" stroke-width="0.5" stroke="black" fill="cyan"/>
   </g>
   <g id="cell72">
  <circle cx="539.819" cy="517.734" r="8.41271" stroke-width="0.5" stroke="black" fill="cyan"/>
  <circle cx="539.819" cy="517.734" r="5.05167" stroke-width="0.5" stroke="black" fill="cyan"/>
   </g>
   <g id="cell73">
  <circle cx="356.586" cy="550.172" r="8.36954" stroke-width="0.5" stroke="black" fill="cyan"/>
  <circle cx="356.586" cy="550.172" r="5.03604" stroke-width="0.5" stroke="black" fill="cyan"/>
   </g>
   <g id="cell74">
  <circle cx="543.451" cy="449.359" r="8.41271" stroke-width="0.5" stroke="black" fill="cyan"/>
  <circle cx="543.451" cy="449.359" r="5.05167" stroke-width="0.5" stroke="black" fill="cyan"/>
   </g>
   <g id="cell75">
  <circle cx="594.229" cy="494.055" r="6.6732" stroke-width="0.5" stroke="black" fill="magenta"/>
  <circle cx="594.229" cy="494.055" r="4.00839" stroke-width="0.5" stroke="black" fill="magenta"/>
   </g>
   <g id="cell76">
  <circle cx="648.51" cy="534.179" r="6.98944" stroke-width="0.5" stroke="black" fill="green"/>
  <circle cx="648.51" cy="534.179" r="4.23463" stroke-width="0.5" stroke="black" fill="green"/>
   </g>
   <g id="cell77">
  <circle cx="504.78" cy="509.777" r="8.37846" stroke-width="0.5" stroke="black" fill="green"/>
  <circle cx="504.78" cy="509.777" r="5.03936" stroke-width="0.5" stroke="black" fill="green"/>
   </g>
   <g id="cell78">
  <circle cx="364.861" cy="569.159" r="8.4057" stroke-width="0.5" stroke="black" fill="magenta"/>
  <circle cx="364.861" cy="569.159" r="5.04962" stroke-width="0.5" stroke="black" fill="magenta"/>
   </g>
   <g id="cell79">
  <circle cx="538.592" cy="571.537" r="8.2998" stroke-width="0.5" stroke="black" fill="green"/>
  <circle cx="538.592" cy="571.537" r="5.00488" stroke-width="0.5" stroke="black" fill="green"/>
   </g>
   <g id="cell80">
  <circle cx="457.491" cy="602.1" r="7.32975" stroke-width="0.5" stroke="black" fill="magenta"/>
  <circle cx="457.491" cy="602.1" r="4.4547" stroke-width="0.5" stroke="black" fill="magenta"/>
   </g>
   <g id="cell81">
  <circle cx="395.235" cy="617.549" r="8.39739" stroke-width="0.5" stroke="black" fill="cyan"/>
  <circle cx="395.235" cy="617.549" r="5.04674" stroke-width="0.5" stroke="black" fill="cyan"/>
   </g>
   <g id="cell82">
  <circle cx="595.374" cy="468.795" r="7.46086" stroke-width="0.5" stroke="black" fill="cyan"/>
  <circle cx="595.374" cy="468.795" r="4.53716" stroke-width="0.5" stroke="black" fill="cyan"/>
   </g>
   <g id="cell83">
  <circle cx="547.433" cy="597.293" r="8.40847" stroke-width="0.5" stroke="black" fill="green"/>
  <circle cx="547.433" cy="597.293" r="5.0505" stroke-width="0.5" stroke="black" fill="green"/>
   </g>
   <g id="cell84">
  <circle cx="490.894" cy="580.158" r="8.40862" stroke-width="0.5" stroke="black" fill="green"/>
  <circle cx="490.894" cy="580.158" r="5.0505" stroke-width="0.5" stroke="black" fill="green"/>
   </g>
   <g id="cell85">
  <circle cx="614.691" cy="500.013" r="8.06395" stroke-width="0.5" stroke="black" fill="magenta"/>
  <circle cx="614.691" cy="500.013" r="4.88435" stroke-width="0.5" stroke="black" fill="magenta"/>
   </g>
   <g id="cell86">
  <circle cx="522.891" cy="595.72" r="8.40626" stroke-width="0.5" stroke="black" fill="green"/>
  <circle cx="522.891" cy="595.72" r="5.04984" stroke-width="0.5" stroke="black" fill="green"/>
   </g>
   <g id="cell87">
  <circle cx="589.905" cy="609.595" r="7.89099" stroke-width="0.5" stroke="black" fill="magenta"/>
  <circle cx="589.905" cy="609.595" r="4.78873" stroke-width="0.5" stroke="black" fill="magenta"/>
   </g>
   <g id="cell88">
  <circle cx="371.884" cy="554.736" r="8.36618" stroke-width="0.5" stroke="black" fill="magenta"/>
  <circle cx="371.884" cy="554.736" r="5.03459" stroke-width="0.5" stroke="black" fill="magenta"/>
   </g>
   <g id="cell89">
  <circle cx="543.714" cy="409.053" r="8.4013" stroke-width="0.5" stroke="black" fill="green"/>
  <circle cx="543.714" cy="409.053" r="5.04818" stroke-width="0.5" stroke="black" fill="green"/>
   </g>
   <g id="cell90">
  <circle cx="564.733" cy="481.175" r="8.35344" stroke-width="0.5" stroke="black" fill="cyan"/>
  <circle cx="564.733" cy="481.175" r="5.02917" stroke-width="0.5" stroke="black" fill="cyan"/>
   </g>
   <g id="cell91">
  <circle cx="541.12" cy="393.74" r="8.4013" stroke-width="0.5" stroke="black" fill="green"/>
  <circle cx="541.12" cy="393.74" r="5.04818" stroke-width="0.5" stroke="black" fill="green"/>
   </g>
   <g id="cell92">
  <circle cx="641.924" cy="569.723" r="8.40266" stroke-width="0.5" stroke="black" fill="green"/>
  <circle cx="641.924" cy="569.723" r="5.04858" stroke-width="0.5" stroke="black" fill="green"/>
   </g>
   <g id="cell93">
  <circle cx="368.111" cy="539.133" r="8.40327" stroke-width="0.5" stroke="black" fill="cyan"/>
  <circle cx="368.111" cy="539.133" r="5.04872" stroke-width="0.5" stroke="black" fill="cyan"/>
   </g>
   <g id="cell94">
  <circle cx="614.948" cy="526.023" r="8.40244" stroke-width="0.5" stroke="black" fill="cyan"/>
  <circle cx="614.948" cy="526.023" r="5.04843" stroke-width="0.5" stroke="black" fill="cyan"/>
   </g>
   <g id="cell95">
  <circle cx="577.185" cy="584.847" r="8.39943" stroke-width="0.5" stroke="black" fill="magenta"/>
  <circle cx="577.185" cy="584.847" r="5.04752" stroke-width="0.5" stroke="black" fill="magenta"/>
   </g>
   <g id="cell96">
  <circle cx="600.252" cy="482.615" r="8.40021" stroke-width="0.5" stroke="black" fill="cyan"/>
  <circle cx="600.252" cy="482.615" r="5.04776" stroke-width="0.5" stroke="black" fill="cyan"/>
   </g>
   <g id="cell97">
  <circle cx="623.215" cy="546.916" r="8.39586" stroke-width="0.5" stroke="black" fill="green"/>
  <circle cx="623.215" cy="546.916" r="5.04634" stroke-width="0.5" stroke="black" fill="green"/>
   </g>
   <g id="cell98">
  <circle cx="599.381" cy="522.225" r="8.4001" stroke-width="0.5" stroke="black" fill="magenta"/>
  <circle cx="599.381" cy="522.225" r="5.04768" stroke-width="0.5" stroke="black" fill="magenta"/>
   </g>
   <g id="cell99">
  <circle cx="571.476" cy="425.014" r="8.39874" stroke-width="0.5" stroke="black" fill="cyan"/>
  <circle cx="571.476" cy="425.014" r="5.04711" stroke-width="0.5" stroke="black" fill="cyan"/>
   </g>
   <g id="cell100">
  <circle cx="375.632" cy="595.1" r="8.36163" stroke-width="0.5" stroke="black" fill="cyan"/>
  <circle cx="375.632" cy="595.1" r="5.03333" stroke-width="0.5" stroke="black" fill="cyan"/>
   </g>
   <g id="cell101">
  <circle cx="540.201" cy="434.47" r="7.96232" stroke-width="0.5" stroke="black" fill="cyan"/>
  <circle cx="540.201" cy="434.47" r="4.83543" stroke-width="0.5" stroke="black" fill="cyan"/>
   </g>
   <g id="cell102">
  <circle cx="504.054" cy="473.692" r="8.27501" stroke-width="0.5" stroke="black" fill="cyan"/>
  <circle cx="504.054" cy="473.692" r="4.99358" stroke-width="0.5" stroke="black" fill="cyan"/>
   </g>
   <g id="cell103">
  <circle cx="468.371" cy="531.712" r="8.27552" stroke-width="0.5" stroke="black" fill="magenta"/>
  <circle cx="468.371" cy="531.712" r="4.99605" stroke-width="0.5" stroke="black" fill="magenta"/>
   </g>
   <g id="cell104">
  <circle cx="405.484" cy="605.309" r="8.38754" stroke-width="0.5" stroke="black" fill="cyan"/>
  <circle cx="405.484" cy="605.309" r="5.04333" stroke-width="0.5" stroke="black" fill="black"/>
   </g>
   <g id="cell105">
  <circle cx="513.267" cy="461.183" r="8.39422" stroke-width="0.5" stroke="black" fill="magenta"/>
  <circle cx="513.267" cy="461.183" r="5.04543" stroke-width="0.5" stroke="black" fill="magenta"/>
   </g>
   <g id="cell106">
  <circle cx="436.166" cy="403.279" r="8.39144" stroke-width="0.5" stroke="black" fill="magenta"/>
  <circle cx="436.166" cy="403.279" r="5.04437" stroke-width="0.5" stroke="black" fill="magenta"/>
   </g>
   <g id="cell107">
  <circle cx="424.121" cy="457.967" r="8.35072" stroke-width="0.5" stroke="black" fill="cyan"/>
  <circle cx="424.121" cy="457.967" r="5.02846" stroke-width="0.5" stroke="black" fill="cyan"/>
   </g>
   <g id="cell108">
  <circle cx="523.587" cy="381.272" r="8.38454" stroke-width="0.5" stroke="black" fill="magenta"/>
  <circle cx="523.587" cy="381.272" r="5.04168" stroke-width="0.5" stroke="black" fill="magenta"/>
   </g>
   <g id="cell110">
  <circle cx="515.225" cy="399.613" r="8.36518" stroke-width="0.5" stroke="black" fill="magenta"/>
  <circle cx="515.225" cy="399.613" r="5.03457" stroke-width="0.5" stroke="black" fill="magenta"/>
   </g>
   <g id="cell111">
  <circle cx="515.83" cy="498.595" r="8.31" stroke-width="0.5" stroke="black" fill="green"/>
  <circle cx="515.83" cy="498.595" r="5.01171" stroke-width="0.5" stroke="black" fill="green"/>
   </g>
   <g id="cell112">
  <circle cx="400.224" cy="585.659" r="7.39316" stroke-width="0.5" stroke="black" fill="cyan"/>
  <circle cx="400.224" cy="585.659" r="4.49883" stroke-width="0.5" stroke="black" fill="cyan"/>
   </g>
   <g id="cell113">
  <circle cx="340.888" cy="547.319" r="8.36954" stroke-width="0.5" stroke="black" fill="cyan"/>
  <circle cx="340.888" cy="547.319" r="5.03604" stroke-width="0.5" stroke="black" fill="cyan"/>
   </g>
   <g id="cell114">
  <circle cx="381.284" cy="609.898" r="8.3475" stroke-width="0.5" stroke="black" fill="cyan"/>
  <circle cx="381.284" cy="609.898" r="5.02784" stroke-width="0.5" stroke="black" fill="cyan"/>
   </g>
   <g id="cell115">
  <circle cx="391.425" cy="597.714" r="8.3475" stroke-width="0.5" stroke="black" fill="cyan"/>
  <circle cx="391.425" cy="597.714" r="5.02784" stroke-width="0.5" stroke="black" fill="cyan"/>
   </g>
   <g id="cell116">
  <circle cx="399.952" cy="543.55" r="8.37092" stroke-width="0.5" stroke="black" fill="green"/>
  <circle cx="399.952" cy="543.55" r="5.03613" stroke-width="0.5" stroke="black" fill="green"/>
   </g>
   <g id="cell117">
  <circle cx="380.657" cy="568.018" r="8.33531" stroke-width="0.5" stroke="black" fill="magenta"/>
  <circle cx="380.657" cy="568.018" r="5.02236" stroke-width="0.5" stroke="black" fill="magenta"/>
   </g>
   <g id="cell118">
  <circle cx="398.649" cy="436.874" r="8.35382" stroke-width="0.5" stroke="black" fill="cyan"/>
  <circle cx="398.649" cy="436.874" r="5.02991" stroke-width="0.5" stroke="black" fill="cyan"/>
   </g>
   <g id="cell119">
  <circle cx="570.822" cy="514.037" r="8.36212" stroke-width="0.5" stroke="black" fill="magenta"/>
  <circle cx="570.822" cy="514.037" r="5.03309" stroke-width="0.5" stroke="black" fill="magenta"/>
   </g>
   <g id="cell120">
  <circle cx="505.109" cy="488.491" r="7.64307" stroke-width="0.5" stroke="black" fill="green"/>
  <circle cx="505.109" cy="488.491" r="4.65206" stroke-width="0.5" stroke="black" fill="green"/>
   </g>
   <g id="cell122">
  <circle cx="439.421" cy="479.578" r="7.84328" stroke-width="0.5" stroke="black" fill="cyan"/>
  <circle cx="439.421" cy="479.578" r="4.76744" stroke-width="0.5" stroke="black" fill="cyan"/>
   </g>
   <g id="cell123">
  <circle cx="390.961" cy="556.417" r="8.33531" stroke-width="0.5" stroke="black" fill="magenta"/>
  <circle cx="390.961" cy="556.417" r="5.02236" stroke-width="0.5" stroke="black" fill="magenta"/>
   </g>
   <g id="cell125">
  <circle cx="533.041" cy="476.527" r="8.347" stroke-width="0.5" stroke="black" fill="magenta"/>
  <circle cx="533.041" cy="476.527" r="5.02586" stroke-width="0.5" stroke="black" fill="magenta"/>
   </g>
   <g id="cell127">
  <circle cx="439.453" cy="533.875" r="8.32461" stroke-width="0.5" stroke="black" fill="magenta"/>
  <circle cx="439.453" cy="533.875" r="5.01677" stroke-width="0.5" stroke="black" fill="magenta"/>
   </g>
   <g id="cell128">
  <circle cx="546.508" cy="422.553" r="6.79756" stroke-width="0.5" stroke="black" fill="cyan"/>
  <circle cx="546.508" cy="422.553" r="4.12083" stroke-width="0.5" stroke="black" fill="cyan"/>
   </g>
   <g id="cell129">
  <circle cx="492.416" cy="519.615" r="8.32453" stroke-width="0.5" stroke="black" fill="green"/>
  <circle cx="492.416" cy="519.615" r="5.01593" stroke-width="0.5" stroke="black" fill="green"/>
   </g>
   <g id="cell130">
  <circle cx="454.36" cy="538.613" r="8.27552" stroke-width="0.5" stroke="black" fill="magenta"/>
  <circle cx="454.36" cy="538.613" r="4.99605" stroke-width="0.5" stroke="black" fill="magenta"/>
   </g>
   <g id="cell131">
  <circle cx="535.633" cy="586.828" r="8.2998" stroke-width="0.5" stroke="black" fill="green"/>
  <circle cx="535.633" cy="586.828" r="5.00488" stroke-width="0.5" stroke="black" fill="green"/>
   </g>
   <g id="cell132">
  <circle cx="402.741" cy="456.203" r="7.83003" stroke-width="0.5" stroke="black" fill="green"/>
  <circle cx="402.741" cy="456.203" r="4.76246" stroke-width="0.5" stroke="black" fill="green"/>
   </g>
   <g id="cell133">
  <circle cx="545.616" cy="531.061" r="7.22755" stroke-width="0.5" stroke="black" fill="cyan"/>
  <circle cx="545.616" cy="531.061" r="4.40476" stroke-width="0.5" stroke="black" fill="cyan"/>
   </g>
   <g id="cell134">
  <circle cx="518.1" cy="481.003" r="8.27501" stroke-width="0.5" stroke="black" fill="cyan"/>
  <circle cx="518.1" cy="481.003" r="4.99358" stroke-width="0.5" stroke="black" fill="cyan"/>
   </g>
   <g id="cell135">
  <circle cx="406.166" cy="558.221" r="8.03081" stroke-width="0.5" stroke="black" fill="green"/>
  <circle cx="406.166" cy="558.221" r="4.87353" stroke-width="0.5" stroke="black" fill="green"/>
   </g>
   <g id="cell136">
  <circle cx="456.031" cy="508.64" r="7.84178" stroke-width="0.5" stroke="black" fill="green"/>
  <circle cx="456.031" cy="508.64" r="4.77748" stroke-width="0.5" stroke="black" fill="green"/>
   </g>
   <g id="cell137">
  <circle cx="531.351" cy="622.952" r="8.24814" stroke-width="0.5" stroke="black" fill="green"/>
  <circle cx="531.351" cy="622.952" r="4.97954" stroke-width="0.5" stroke="black" fill="green"/>
   </g>
   <g id="cell138">
  <circle cx="432.756" cy="418.708" r="8.22335" stroke-width="0.5" stroke="black" fill="magenta"/>
  <circle cx="432.756" cy="418.708" r="4.96868" stroke-width="0.5" stroke="black" fill="magenta"/>
   </g>
   <g id="cell139">
  <circle cx="568.394" cy="466.3" r="8.19299" stroke-width="0.5" stroke="black" fill="cyan"/>
  <circle cx="568.394" cy="466.3" r="4.95544" stroke-width="0.5" stroke="black" fill="cyan"/>
   </g>
   <g id="cell140">
  <circle cx="450.693" cy="522.978" r="8.12031" stroke-width="0.5" stroke="black" fill="green"/>
  <circle cx="450.693" cy="522.978" r="4.92039" stroke-width="0.5" stroke="black" fill="green"/>
   </g>
   <g id="cell141">
  <circle cx="419.807" cy="551.45" r="8.03081" stroke-width="0.5" stroke="black" fill="green"/>
  <circle cx="419.807" cy="551.45" r="4.87353" stroke-width="0.5" stroke="black" fill="green"/>
   </g>
   <g id="cell142">
  <circle cx="601.079" cy="506.737" r="8.06395" stroke-width="0.5" stroke="black" fill="magenta"/>
  <circle cx="601.079" cy="506.737" r="4.88435" stroke-width="0.5" stroke="black" fill="magenta"/>
   </g>
   <g id="cell143">
  <circle cx="525.517" cy="435.024" r="7.96232" stroke-width="0.5" stroke="black" fill="cyan"/>
  <circle cx="525.517" cy="435.024" r="4.83543" stroke-width="0.5" stroke="black" fill="cyan"/>
   </g>
   <g id="cell144">
  <circle cx="515.491" cy="446.004" r="7.9933" stroke-width="0.5" stroke="black" fill="cyan"/>
  <circle cx="515.491" cy="446.004" r="4.84679" stroke-width="0.5" stroke="black" fill="cyan"/>
   </g>
   <g id="cell145">
  <circle cx="467.986" cy="516.873" r="7.52758" stroke-width="0.5" stroke="black" fill="green"/>
  <circle cx="467.986" cy="516.873" r="4.60889" stroke-width="0.5" stroke="black" fill="green"/>
   </g>
   <g id="cell146">
  <circle cx="425.695" cy="473.51" r="7.96365" stroke-width="0.5" stroke="black" fill="green"/>
  <circle cx="425.695" cy="473.51" r="4.82873" stroke-width="0.5" stroke="black" fill="green"/>
   </g>
   <g id="cell147">
  <circle cx="382.837" cy="543.722" r="7.9229" stroke-width="0.5" stroke="black" fill="magenta"/>
  <circle cx="382.837" cy="543.722" r="4.80599" stroke-width="0.5" stroke="black" fill="magenta"/>
   </g>
   <g id="cell148">
  <circle cx="589.1" cy="594.671" r="7.89099" stroke-width="0.5" stroke="black" fill="magenta"/>
  <circle cx="589.1" cy="594.671" r="4.78873" stroke-width="0.5" stroke="black" fill="magenta"/>
   </g>
   <g id="cell149">
  <circle cx="529.249" cy="491.462" r="7.85653" stroke-width="0.5" stroke="black" fill="magenta"/>
  <circle cx="529.249" cy="491.462" r="4.77467" stroke-width="0.5" stroke="black" fill="magenta"/>
   </g>
   <g id="cell150">
  <circle cx="412.084" cy="467.594" r="7.83003" stroke-width="0.5" stroke="black" fill="green"/>
  <circle cx="412.084" cy="467.594" r="4.76246" stroke-width="0.5" stroke="black" fill="green"/>
   </g>
   <g id="cell151">
  <circle cx="437.786" cy="464.897" r="7.84328" stroke-width="0.5" stroke="black" fill="cyan"/>
  <circle cx="437.786" cy="464.897" r="4.76744" stroke-width="0.5" stroke="black" fill="cyan"/>
   </g>
   <g id="cell152">
  <circle cx="469.444" cy="502.783" r="7.52758" stroke-width="0.5" stroke="black" fill="green"/>
  <circle cx="469.444" cy="502.783" r="4.60889" stroke-width="0.5" stroke="black" fill="green"/>
   </g>
   <g id="cell153">
  <circle cx="543.023" cy="487.197" r="7.48012" stroke-width="0.5" stroke="black" fill="magenta"/>
  <circle cx="543.023" cy="487.197" r="4.57608" stroke-width="0.5" stroke="black" fill="magenta"/>
   </g>
   <g id="cell154">
  <circle cx="490.825" cy="488.788" r="7.64307" stroke-width="0.5" stroke="black" fill="green"/>
  <circle cx="490.825" cy="488.788" r="4.65206" stroke-width="0.5" stroke="black" fill="green"/>
   </g>
   <g id="cell155">
  <circle cx="484.918" cy="626.031" r="7.63698" stroke-width="0.5" stroke="black" fill="green"/>
  <circle cx="484.918" cy="626.031" r="4.64085" stroke-width="0.5" stroke="black" fill="green"/>
   </g>
   <g id="cell156">
  <circle cx="536.96" cy="544.389" r="7.63698" stroke-width="0.5" stroke="black" fill="magenta"/>
  <circle cx="536.96" cy="544.389" r="4.64085" stroke-width="0.5" stroke="black" fill="magenta"/>
   </g>
   <g id="cell157">
  <circle cx="390.073" cy="463.585" r="7.56886" stroke-width="0.5" stroke="black" fill="green"/>
  <circle cx="390.073" cy="463.585" r="4.61162" stroke-width="0.5" stroke="black" fill="green"/>
   </g>
   <g id="cell158">
  <circle cx="601.569" cy="587.068" r="7.53611" stroke-width="0.5" stroke="black" fill="magenta"/>
  <circle cx="601.569" cy="587.068" r="4.5828" stroke-width="0.5" stroke="black" fill="magenta"/>
   </g>
   <g id="cell159">
  <circle cx="586.445" cy="453.137" r="7.46086" stroke-width="0.5" stroke="black" fill="cyan"/>
  <circle cx="586.445" cy="453.137" r="4.53716" stroke-width="0.5" stroke="black" fill="cyan"/>
   </g>
   <g id="cell160">
  <circle cx="413.872" cy="583.033" r="7.39316" stroke-width="0.5" stroke="black" fill="cyan"/>
  <circle cx="413.872" cy="583.033" r="4.49883" stroke-width="0.5" stroke="black" fill="cyan"/>
   </g>
   <g id="cell161">
  <circle cx="448.474" cy="612.672" r="7.32975" stroke-width="0.5" stroke="black" fill="magenta"/>
  <circle cx="448.474" cy="612.672" r="4.4547" stroke-width="0.5" stroke="black" fill="magenta"/>
   </g>
   <g id="cell162">
  <circle cx="571.402" cy="448.562" r="7.3221" stroke-width="0.5" stroke="black" fill="cyan"/>
  <circle cx="571.402" cy="448.562" r="4.45195" stroke-width="0.5" stroke="black" fill="cyan"/>
   </g>
   <g id="cell163">
  <circle cx="557.465" cy="537.265" r="7.22755" stroke-width="0.5" stroke="black" fill="cyan"/>
  <circle cx="557.465" cy="537.265" r="4.40476" stroke-width="0.5" stroke="black" fill="cyan"/>
   </g>
   <g id="cell164">
  <circle cx="577.311" cy="488.817" r="7.27253" stroke-width="0.5" stroke="black" fill="magenta"/>
  <circle cx="577.311" cy="488.817" r="4.41835" stroke-width="0.5" stroke="black" fill="magenta"/>
   </g>
   <g id="cell165">
  <circle cx="582.275" cy="466.063" r="7.11288" stroke-width="0.5" stroke="black" fill="cyan"/>
  <circle cx="582.275" cy="466.063" r="4.31781" stroke-width="0.5" stroke="black" fill="cyan"/>
   </g>
   <g id="cell166">
  <circle cx="649.992" cy="547.34" r="6.98944" stroke-width="0.5" stroke="black" fill="green"/>
  <circle cx="649.992" cy="547.34" r="4.23463" stroke-width="0.5" stroke="black" fill="green"/>
   </g>
   <g id="cell167">
  <circle cx="543.24" cy="500.179" r="6.24913" stroke-width="0.5" stroke="black" fill="magenta"/>
  <circle cx="543.24" cy="500.179" r="3.84448" stroke-width="0.5" stroke="black" fill="magenta"/>
   </g>
   <g id="cell168">
  <circle cx="557.707" cy="427.935" r="6.79756" stroke-width="0.5" stroke="black" fill="cyan"/>
  <circle cx="557.707" cy="427.935" r="4.12083" stroke-width="0.5" stroke="black" fill="cyan"/>
   </g>
   <g id="cell169">
  <circle cx="532.845" cy="532.094" r="6.66901" stroke-width="0.5" stroke="black" fill="cyan"/>
  <circle cx="532.845" cy="532.094" r="4.03133" stroke-width="0.5" stroke="black" fill="cyan"/>
   </g>
   <g id="cell170">
  <circle cx="524.757" cy="609.656" r="6.71158" stroke-width="0.5" stroke="black" fill="green"/>
  <circle cx="524.757" cy="609.656" r="4.03435" stroke-width="0.5" stroke="black" fill="green"/>
   </g>
  </g>
 </g>
  <rect x="775" y="1035" width="200" height="10" stroke-width="2" stroke="rgb(255,255,255)" fill="rgb(0,0,0)"/>
  <text x="781.25" y="1028.75"
   font-family="Arial" font-size="25" fill="black" >
   200 &#956;m
  </text>
  <text x="25" y="1045"
   font-family="Arial" font-size="18.75" fill="black" >
   0 days, 0 hours, 0 minutes, and 35.3696 seconds
  </text>
  <rect x="0" y="70" width="1000" height="1000" stroke-width="2" stroke="rgb(0,0,0)" fill="none"/>
</svg>
