<?xml version="1.0" encoding="UTF-8" standalone="no"?>
<!-- Created with PhysiCell (http://PhysiCell.MathCancer.org/) -->
<svg 
 xmlns:dc="http://purl.org/dc/elements/1.1/" 
 xmlns:cc="http://creativecommons.org/ns#" 
 xmlns:rdf="http://www.w3.org/1999/02/22-rdf-syntax-ns#" 
 xmlns:svg="http://www.w3.org/2000/svg" 
 xmlns="http://www.w3.org/2000/svg" 
 version="1.1" 
 width="1000" 
 height="1070" 
 id="svg2">
  <rect x="0" y="0" width="1000" height="1070" stroke-width="2" stroke="white" fill="white"/>
  <text x="12.5" y="30"
   font-family="Arial" font-size="25" fill="black" >
   Current time: 1 days, 12 hours, and 0.00 minutes, z = 0.00 &#956;m
  </text>
  <text x="12.5" y="57.5"
   font-family="Arial" font-size="23.75" fill="black" >
   198 agents
  </text>
 <g id="tissue" 
    transform="translate(0,1070) scale(1,-1)">
  <g id="ECM">
  </g>
  <g id="cells">
   <g id="cell0">
  <circle cx="512.698" cy="534.245" r="8.41271" stroke-width="0.5" stroke="black" fill="magenta"/>
  <circle cx="512.698" cy="534.245" r="5.05167" stroke-width="0.5" stroke="black" fill="magenta"/>
   </g>
   <g id="cell1">
  <circle cx="602.25" cy="541.956" r="8.41271" stroke-width="0.5" stroke="black" fill="magenta"/>
  <circle cx="602.25" cy="541.956" r="5.05167" stroke-width="0.5" stroke="black" fill="magenta"/>
   </g>
   <g id="cell2">
  <circle cx="504.349" cy="598.411" r="8.41271" stroke-width="0.5" stroke="black" fill="magenta"/>
  <circle cx="504.349" cy="598.411" r="5.05167" stroke-width="0.5" stroke="black" fill="magenta"/>
   </g>
   <g id="cell3">
  <circle cx="522.525" cy="558.692" r="8.36849" stroke-width="0.5" stroke="black" fill="magenta"/>
  <circle cx="522.525" cy="558.692" r="5.03512" stroke-width="0.5" stroke="black" fill="magenta"/>
   </g>
   <g id="cell4">
  <circle cx="485.931" cy="439.985" r="7.72056" stroke-width="0.5" stroke="black" fill="magenta"/>
  <circle cx="485.931" cy="439.985" r="4.69003" stroke-width="0.5" stroke="black" fill="magenta"/>
   </g>
   <g id="cell5">
  <circle cx="466.718" cy="487.374" r="8.41271" stroke-width="0.5" stroke="black" fill="magenta"/>
  <circle cx="466.718" cy="487.374" r="5.05167" stroke-width="0.5" stroke="black" fill="magenta"/>
   </g>
   <g id="cell6">
  <circle cx="586.023" cy="520.322" r="8.40962" stroke-width="0.5" stroke="black" fill="magenta"/>
  <circle cx="586.023" cy="520.322" r="5.05084" stroke-width="0.5" stroke="black" fill="magenta"/>
   </g>
   <g id="cell171">
  <circle cx="584.685" cy="504.524" r="8.29315" stroke-width="0.5" stroke="black" fill="magenta"/>
  <circle cx="584.685" cy="504.524" r="5.00117" stroke-width="0.5" stroke="black" fill="magenta"/>
   </g>
   <g id="cell8">
  <circle cx="377.014" cy="525.529" r="8.38454" stroke-width="0.5" stroke="black" fill="magenta"/>
  <circle cx="377.014" cy="525.529" r="5.04168" stroke-width="0.5" stroke="black" fill="magenta"/>
   </g>
   <g id="cell193">
  <circle cx="445.646" cy="565.217" r="7.74071" stroke-width="0.5" stroke="black" fill="green"/>
  <circle cx="445.646" cy="565.217" r="4.71962" stroke-width="0.5" stroke="black" fill="green"/>
   </g>
   <g id="cell186">
  <circle cx="549.35" cy="431.042" r="8.04239" stroke-width="0.5" stroke="black" fill="cyan"/>
  <circle cx="549.35" cy="431.042" r="4.87475" stroke-width="0.5" stroke="black" fill="cyan"/>
   </g>
   <g id="cell11">
  <circle cx="597.134" cy="571.753" r="8.36278" stroke-width="0.5" stroke="black" fill="magenta"/>
  <circle cx="597.134" cy="571.753" r="5.03278" stroke-width="0.5" stroke="black" fill="magenta"/>
   </g>
   <g id="cell12">
  <circle cx="504.711" cy="582.461" r="8.41271" stroke-width="0.5" stroke="black" fill="magenta"/>
  <circle cx="504.711" cy="582.461" r="5.05167" stroke-width="0.5" stroke="black" fill="magenta"/>
   </g>
   <g id="cell13">
  <circle cx="387.915" cy="572.795" r="7.35982" stroke-width="0.5" stroke="black" fill="magenta"/>
  <circle cx="387.915" cy="572.795" r="4.47292" stroke-width="0.5" stroke="black" fill="magenta"/>
   </g>
   <g id="cell109">
  <circle cx="371.75" cy="442.499" r="8.41078" stroke-width="0.5" stroke="black" fill="cyan"/>
  <circle cx="371.75" cy="442.499" r="5.05116" stroke-width="0.5" stroke="black" fill="cyan"/>
   </g>
   <g id="cell199">
  <circle cx="653.115" cy="526.234" r="7.53988" stroke-width="0.5" stroke="black" fill="green"/>
  <circle cx="653.115" cy="526.234" r="4.59236" stroke-width="0.5" stroke="black" fill="green"/>
   </g>
   <g id="cell16">
  <circle cx="420.318" cy="427.829" r="8.40149" stroke-width="0.5" stroke="black" fill="magenta"/>
  <circle cx="420.318" cy="427.829" r="5.04816" stroke-width="0.5" stroke="black" fill="magenta"/>
   </g>
   <g id="cell17">
  <circle cx="569.193" cy="503.635" r="8.347" stroke-width="0.5" stroke="black" fill="magenta"/>
  <circle cx="569.193" cy="503.635" r="5.02586" stroke-width="0.5" stroke="black" fill="magenta"/>
   </g>
   <g id="cell185">
  <circle cx="398.088" cy="545.906" r="7.46903" stroke-width="0.5" stroke="black" fill="green"/>
  <circle cx="398.088" cy="545.906" r="4.57076" stroke-width="0.5" stroke="black" fill="green"/>
   </g>
   <g id="cell19">
  <circle cx="448.664" cy="549.869" r="8.16039" stroke-width="0.5" stroke="black" fill="magenta"/>
  <circle cx="448.664" cy="549.869" r="4.93493" stroke-width="0.5" stroke="black" fill="magenta"/>
   </g>
   <g id="cell20">
  <circle cx="536.063" cy="420.999" r="8.41271" stroke-width="0.5" stroke="black" fill="magenta"/>
  <circle cx="536.063" cy="420.999" r="5.05167" stroke-width="0.5" stroke="black" fill="magenta"/>
   </g>
   <g id="cell21">
  <circle cx="460.385" cy="631.581" r="7.63698" stroke-width="0.5" stroke="black" fill="magenta"/>
  <circle cx="460.385" cy="631.581" r="4.64085" stroke-width="0.5" stroke="black" fill="magenta"/>
   </g>
   <g id="cell22">
  <circle cx="556.191" cy="494.843" r="8.41271" stroke-width="0.5" stroke="black" fill="magenta"/>
  <circle cx="556.191" cy="494.843" r="5.05167" stroke-width="0.5" stroke="black" fill="magenta"/>
   </g>
   <g id="cell23">
  <circle cx="555.682" cy="510.609" r="8.29679" stroke-width="0.5" stroke="black" fill="magenta"/>
  <circle cx="555.682" cy="510.609" r="5.00556" stroke-width="0.5" stroke="black" fill="magenta"/>
   </g>
   <g id="cell124">
  <circle cx="559.072" cy="456.185" r="8.39974" stroke-width="0.5" stroke="black" fill="cyan"/>
  <circle cx="559.072" cy="456.185" r="5.04761" stroke-width="0.5" stroke="black" fill="cyan"/>
   </g>
   <g id="cell25">
  <circle cx="637.831" cy="549.517" r="7.46812" stroke-width="0.5" stroke="black" fill="green"/>
  <circle cx="637.831" cy="549.517" r="4.53964" stroke-width="0.5" stroke="black" fill="green"/>
   </g>
   <g id="cell26">
  <circle cx="553.906" cy="400.149" r="8.41231" stroke-width="0.5" stroke="black" fill="green"/>
  <circle cx="553.906" cy="400.149" r="5.05158" stroke-width="0.5" stroke="black" fill="green"/>
   </g>
   <g id="cell27">
  <circle cx="457.446" cy="388.678" r="8.41271" stroke-width="0.5" stroke="black" fill="green"/>
  <circle cx="457.446" cy="388.678" r="5.05167" stroke-width="0.5" stroke="black" fill="green"/>
   </g>
   <g id="cell28">
  <circle cx="429.973" cy="521.149" r="8.41271" stroke-width="0.5" stroke="black" fill="green"/>
  <circle cx="429.973" cy="521.149" r="5.05167" stroke-width="0.5" stroke="black" fill="green"/>
   </g>
   <g id="cell29">
  <circle cx="441.975" cy="511.351" r="8.40353" stroke-width="0.5" stroke="black" fill="green"/>
  <circle cx="441.975" cy="511.351" r="5.04881" stroke-width="0.5" stroke="black" fill="green"/>
   </g>
   <g id="cell126">
  <circle cx="527.058" cy="506.845" r="8.40651" stroke-width="0.5" stroke="black" fill="green"/>
  <circle cx="527.058" cy="506.845" r="5.04992" stroke-width="0.5" stroke="black" fill="green"/>
   </g>
   <g id="cell31">
  <circle cx="418.64" cy="531.657" r="8.41016" stroke-width="0.5" stroke="black" fill="green"/>
  <circle cx="418.64" cy="531.657" r="5.05098" stroke-width="0.5" stroke="black" fill="green"/>
   </g>
   <g id="cell32">
  <circle cx="413.01" cy="488.402" r="7.45237" stroke-width="0.5" stroke="black" fill="green"/>
  <circle cx="413.01" cy="488.402" r="4.53376" stroke-width="0.5" stroke="black" fill="green"/>
   </g>
   <g id="cell33">
  <circle cx="494.567" cy="422.901" r="8.41271" stroke-width="0.5" stroke="black" fill="green"/>
  <circle cx="494.567" cy="422.901" r="5.05167" stroke-width="0.5" stroke="black" fill="green"/>
   </g>
   <g id="cell34">
  <circle cx="386.796" cy="447.881" r="8.36508" stroke-width="0.5" stroke="black" fill="green"/>
  <circle cx="386.796" cy="447.881" r="5.03408" stroke-width="0.5" stroke="black" fill="green"/>
   </g>
   <g id="cell35">
  <circle cx="546.816" cy="559.175" r="8.24438" stroke-width="0.5" stroke="black" fill="green"/>
  <circle cx="546.816" cy="559.175" r="4.97746" stroke-width="0.5" stroke="black" fill="green"/>
   </g>
   <g id="cell36">
  <circle cx="383.506" cy="587.113" r="8.41271" stroke-width="0.5" stroke="black" fill="green"/>
  <circle cx="383.506" cy="587.113" r="5.05167" stroke-width="0.5" stroke="black" fill="green"/>
   </g>
   <g id="cell37">
  <circle cx="634.829" cy="460.631" r="8.41271" stroke-width="0.5" stroke="black" fill="green"/>
  <circle cx="634.829" cy="460.631" r="5.05167" stroke-width="0.5" stroke="black" fill="green"/>
   </g>
   <g id="cell38">
  <circle cx="543.777" cy="614.135" r="8.40294" stroke-width="0.5" stroke="black" fill="green"/>
  <circle cx="543.777" cy="614.135" r="5.04861" stroke-width="0.5" stroke="black" fill="green"/>
   </g>
   <g id="cell39">
  <circle cx="620.926" cy="481.701" r="8.41271" stroke-width="0.5" stroke="black" fill="green"/>
  <circle cx="620.926" cy="481.701" r="5.05167" stroke-width="0.5" stroke="black" fill="green"/>
   </g>
   <g id="cell40">
  <circle cx="481.861" cy="565.851" r="8.41245" stroke-width="0.5" stroke="black" fill="green"/>
  <circle cx="481.861" cy="565.851" r="5.05161" stroke-width="0.5" stroke="black" fill="green"/>
   </g>
   <g id="cell41">
  <circle cx="365.092" cy="480.246" r="8.41271" stroke-width="0.5" stroke="black" fill="green"/>
  <circle cx="365.092" cy="480.246" r="5.05167" stroke-width="0.5" stroke="black" fill="green"/>
   </g>
   <g id="cell42">
  <circle cx="440.918" cy="495.693" r="8.41271" stroke-width="0.5" stroke="black" fill="green"/>
  <circle cx="440.918" cy="495.693" r="5.05167" stroke-width="0.5" stroke="black" fill="green"/>
   </g>
   <g id="cell43">
  <circle cx="561.604" cy="440.723" r="8.41271" stroke-width="0.5" stroke="black" fill="green"/>
  <circle cx="561.604" cy="440.723" r="5.05167" stroke-width="0.5" stroke="black" fill="green"/>
   </g>
   <g id="cell44">
  <circle cx="470.92" cy="620.617" r="8.36849" stroke-width="0.5" stroke="black" fill="green"/>
  <circle cx="470.92" cy="620.617" r="5.03512" stroke-width="0.5" stroke="black" fill="green"/>
   </g>
   <g id="cell45">
  <circle cx="438.301" cy="577.992" r="7.74071" stroke-width="0.5" stroke="black" fill="green"/>
  <circle cx="438.301" cy="577.992" r="4.71962" stroke-width="0.5" stroke="black" fill="green"/>
   </g>
   <g id="cell46">
  <circle cx="519.039" cy="626.052" r="8.22854" stroke-width="0.5" stroke="black" fill="green"/>
  <circle cx="519.039" cy="626.052" r="4.97359" stroke-width="0.5" stroke="black" fill="green"/>
   </g>
   <g id="cell47">
  <circle cx="487.833" cy="504.588" r="8.4074" stroke-width="0.5" stroke="black" fill="green"/>
  <circle cx="487.833" cy="504.588" r="5.05012" stroke-width="0.5" stroke="black" fill="green"/>
   </g>
   <g id="cell48">
  <circle cx="562.574" cy="602.606" r="8.41271" stroke-width="0.5" stroke="black" fill="green"/>
  <circle cx="562.574" cy="602.606" r="5.05167" stroke-width="0.5" stroke="black" fill="green"/>
   </g>
   <g id="cell49">
  <circle cx="432.269" cy="386.579" r="8.27497" stroke-width="0.5" stroke="black" fill="green"/>
  <circle cx="432.269" cy="386.579" r="4.99242" stroke-width="0.5" stroke="black" fill="green"/>
   </g>
   <g id="cell201">
  <circle cx="426.424" cy="492.242" r="7.45237" stroke-width="0.5" stroke="black" fill="green"/>
  <circle cx="426.424" cy="492.242" r="4.53376" stroke-width="0.5" stroke="black" fill="green"/>
   </g>
   <g id="cell51">
  <circle cx="424.569" cy="601.851" r="8.41058" stroke-width="0.5" stroke="black" fill="cyan"/>
  <circle cx="424.569" cy="601.851" r="5.05111" stroke-width="0.5" stroke="black" fill="cyan"/>
   </g>
   <g id="cell52">
  <circle cx="507.733" cy="415.825" r="7.41548" stroke-width="0.5" stroke="black" fill="cyan"/>
  <circle cx="507.733" cy="415.825" r="4.50723" stroke-width="0.5" stroke="black" fill="cyan"/>
   </g>
   <g id="cell53">
  <circle cx="576.562" cy="435.601" r="8.35018" stroke-width="0.5" stroke="black" fill="cyan"/>
  <circle cx="576.562" cy="435.601" r="5.02734" stroke-width="0.5" stroke="black" fill="cyan"/>
   </g>
   <g id="cell54">
  <circle cx="478.659" cy="423.874" r="8.41271" stroke-width="0.5" stroke="black" fill="cyan"/>
  <circle cx="478.659" cy="423.874" r="5.05167" stroke-width="0.5" stroke="black" fill="cyan"/>
   </g>
   <g id="cell55">
  <circle cx="521.72" cy="461.868" r="8.03477" stroke-width="0.5" stroke="black" fill="cyan"/>
  <circle cx="521.72" cy="461.868" r="4.868" stroke-width="0.5" stroke="black" fill="cyan"/>
   </g>
   <g id="cell56">
  <circle cx="633.509" cy="525.174" r="8.41207" stroke-width="0.5" stroke="black" fill="cyan"/>
  <circle cx="633.509" cy="525.174" r="5.05152" stroke-width="0.5" stroke="black" fill="cyan"/>
   </g>
   <g id="cell57">
  <circle cx="420.076" cy="616.891" r="8.23444" stroke-width="0.5" stroke="black" fill="cyan"/>
  <circle cx="420.076" cy="616.891" r="4.97252" stroke-width="0.5" stroke="black" fill="cyan"/>
   </g>
   <g id="cell207">
  <circle cx="430.732" cy="452.587" r="7.32881" stroke-width="0.5" stroke="black" fill="cyan"/>
  <circle cx="430.732" cy="452.587" r="4.45441" stroke-width="0.5" stroke="black" fill="cyan"/>
   </g>
   <g id="cell195">
  <circle cx="411.824" cy="544.894" r="7.46903" stroke-width="0.5" stroke="black" fill="green"/>
  <circle cx="411.824" cy="544.894" r="4.57076" stroke-width="0.5" stroke="black" fill="green"/>
   </g>
   <g id="cell60">
  <circle cx="615.93" cy="466.671" r="8.41251" stroke-width="0.5" stroke="black" fill="cyan"/>
  <circle cx="615.93" cy="466.671" r="5.05163" stroke-width="0.5" stroke="black" fill="cyan"/>
   </g>
   <g id="cell121">
  <circle cx="453.907" cy="462.282" r="8.40927" stroke-width="0.5" stroke="black" fill="cyan"/>
  <circle cx="453.907" cy="462.282" r="5.05074" stroke-width="0.5" stroke="black" fill="cyan"/>
   </g>
   <g id="cell62">
  <circle cx="495.981" cy="451.064" r="6.98167" stroke-width="0.5" stroke="black" fill="cyan"/>
  <circle cx="495.981" cy="451.064" r="4.26906" stroke-width="0.5" stroke="black" fill="black"/>
   </g>
   <g id="cell63">
  <circle cx="579.947" cy="544.714" r="8.41271" stroke-width="0.5" stroke="black" fill="cyan"/>
  <circle cx="579.947" cy="544.714" r="5.05167" stroke-width="0.5" stroke="black" fill="cyan"/>
   </g>
   <g id="cell64">
  <circle cx="509.241" cy="638.501" r="8.41271" stroke-width="0.5" stroke="black" fill="cyan"/>
  <circle cx="509.241" cy="638.501" r="5.05167" stroke-width="0.5" stroke="black" fill="cyan"/>
   </g>
   <g id="cell65">
  <circle cx="543.248" cy="466.098" r="1.60978" stroke-width="0.5" stroke="black" fill="cyan"/>
  <circle cx="543.248" cy="466.098" r="1.57926" stroke-width="0.5" stroke="black" fill="black"/>
   </g>
   <g id="cell66">
  <circle cx="522.497" cy="521.795" r="8.30272" stroke-width="0.5" stroke="black" fill="cyan"/>
  <circle cx="522.497" cy="521.795" r="5.00622" stroke-width="0.5" stroke="black" fill="cyan"/>
   </g>
   <g id="cell67">
  <circle cx="354.782" cy="492.513" r="8.41271" stroke-width="0.5" stroke="black" fill="cyan"/>
  <circle cx="354.782" cy="492.513" r="5.05167" stroke-width="0.5" stroke="black" fill="cyan"/>
   </g>
   <g id="cell68">
  <circle cx="571.863" cy="558.561" r="8.41271" stroke-width="0.5" stroke="black" fill="cyan"/>
  <circle cx="571.863" cy="558.561" r="5.05167" stroke-width="0.5" stroke="black" fill="cyan"/>
   </g>
   <g id="cell69">
  <circle cx="445.057" cy="449.044" r="8.40927" stroke-width="0.5" stroke="black" fill="cyan"/>
  <circle cx="445.057" cy="449.044" r="5.05074" stroke-width="0.5" stroke="black" fill="cyan"/>
   </g>
   <g id="cell70">
  <circle cx="588.574" cy="476.273" r="8.33675" stroke-width="0.5" stroke="black" fill="cyan"/>
  <circle cx="588.574" cy="476.273" r="5.02135" stroke-width="0.5" stroke="black" fill="cyan"/>
   </g>
   <g id="cell71">
  <circle cx="372.067" cy="510.48" r="8.41271" stroke-width="0.5" stroke="black" fill="cyan"/>
  <circle cx="372.067" cy="510.48" r="5.05167" stroke-width="0.5" stroke="black" fill="cyan"/>
   </g>
   <g id="cell72">
  <circle cx="538.209" cy="518.139" r="8.41271" stroke-width="0.5" stroke="black" fill="cyan"/>
  <circle cx="538.209" cy="518.139" r="5.05167" stroke-width="0.5" stroke="black" fill="cyan"/>
   </g>
   <g id="cell73">
  <circle cx="351.808" cy="548.853" r="8.41007" stroke-width="0.5" stroke="black" fill="cyan"/>
  <circle cx="351.808" cy="548.853" r="5.05097" stroke-width="0.5" stroke="black" fill="cyan"/>
   </g>
   <g id="cell74">
  <circle cx="546.664" cy="446.584" r="8.41271" stroke-width="0.5" stroke="black" fill="cyan"/>
  <circle cx="546.664" cy="446.584" r="5.05167" stroke-width="0.5" stroke="black" fill="cyan"/>
   </g>
   <g id="cell75">
  <circle cx="597.406" cy="494.149" r="6.58228" stroke-width="0.5" stroke="black" fill="magenta"/>
  <circle cx="597.406" cy="494.149" r="3.96943" stroke-width="0.5" stroke="black" fill="magenta"/>
   </g>
   <g id="cell76">
  <circle cx="643.422" cy="536.613" r="7.53988" stroke-width="0.5" stroke="black" fill="green"/>
  <circle cx="643.422" cy="536.613" r="4.59236" stroke-width="0.5" stroke="black" fill="green"/>
   </g>
   <g id="cell77">
  <circle cx="499.491" cy="515.371" r="8.41061" stroke-width="0.5" stroke="black" fill="green"/>
  <circle cx="499.491" cy="515.371" r="5.05112" stroke-width="0.5" stroke="black" fill="green"/>
   </g>
   <g id="cell78">
  <circle cx="357.932" cy="570.634" r="8.41227" stroke-width="0.5" stroke="black" fill="magenta"/>
  <circle cx="357.932" cy="570.634" r="5.05157" stroke-width="0.5" stroke="black" fill="magenta"/>
   </g>
   <g id="cell79">
  <circle cx="537.088" cy="571.698" r="8.40594" stroke-width="0.5" stroke="black" fill="green"/>
  <circle cx="537.088" cy="571.698" r="5.04965" stroke-width="0.5" stroke="black" fill="green"/>
   </g>
   <g id="cell80">
  <circle cx="458.008" cy="601.424" r="8.35055" stroke-width="0.5" stroke="black" fill="magenta"/>
  <circle cx="458.008" cy="601.424" r="5.02743" stroke-width="0.5" stroke="black" fill="magenta"/>
   </g>
   <g id="cell81">
  <circle cx="397.759" cy="615.885" r="8.41176" stroke-width="0.5" stroke="black" fill="cyan"/>
  <circle cx="397.759" cy="615.885" r="5.05144" stroke-width="0.5" stroke="black" fill="cyan"/>
   </g>
   <g id="cell82">
  <circle cx="600.287" cy="466.301" r="8.35842" stroke-width="0.5" stroke="black" fill="cyan"/>
  <circle cx="600.287" cy="466.301" r="5.03091" stroke-width="0.5" stroke="black" fill="cyan"/>
   </g>
   <g id="cell83">
  <circle cx="547.113" cy="598.494" r="8.41244" stroke-width="0.5" stroke="black" fill="green"/>
  <circle cx="547.113" cy="598.494" r="5.05161" stroke-width="0.5" stroke="black" fill="green"/>
   </g>
   <g id="cell84">
  <circle cx="488.888" cy="580.237" r="8.41245" stroke-width="0.5" stroke="black" fill="green"/>
  <circle cx="488.888" cy="580.237" r="5.05161" stroke-width="0.5" stroke="black" fill="green"/>
   </g>
   <g id="cell85">
  <circle cx="623.326" cy="497.02" r="8.07102" stroke-width="0.5" stroke="black" fill="magenta"/>
  <circle cx="623.326" cy="497.02" r="4.89583" stroke-width="0.5" stroke="black" fill="magenta"/>
   </g>
   <g id="cell86">
  <circle cx="523.135" cy="597.993" r="8.26241" stroke-width="0.5" stroke="black" fill="green"/>
  <circle cx="523.135" cy="597.993" r="4.98637" stroke-width="0.5" stroke="black" fill="green"/>
   </g>
   <g id="cell87">
  <circle cx="588.893" cy="611.986" r="8.38275" stroke-width="0.5" stroke="black" fill="magenta"/>
  <circle cx="588.893" cy="611.986" r="5.04099" stroke-width="0.5" stroke="black" fill="magenta"/>
   </g>
   <g id="cell88">
  <circle cx="365.545" cy="556.37" r="8.40987" stroke-width="0.5" stroke="black" fill="magenta"/>
  <circle cx="365.545" cy="556.37" r="5.05091" stroke-width="0.5" stroke="black" fill="magenta"/>
   </g>
   <g id="cell89">
  <circle cx="538.744" cy="405.281" r="8.412" stroke-width="0.5" stroke="black" fill="green"/>
  <circle cx="538.744" cy="405.281" r="5.05151" stroke-width="0.5" stroke="black" fill="green"/>
   </g>
   <g id="cell90">
  <circle cx="565.091" cy="482.073" r="8.0222" stroke-width="0.5" stroke="black" fill="cyan"/>
  <circle cx="565.091" cy="482.073" r="4.86152" stroke-width="0.5" stroke="black" fill="cyan"/>
   </g>
   <g id="cell91">
  <circle cx="541.88" cy="389.581" r="8.412" stroke-width="0.5" stroke="black" fill="green"/>
  <circle cx="541.88" cy="389.581" r="5.05151" stroke-width="0.5" stroke="black" fill="green"/>
   </g>
   <g id="cell92">
  <circle cx="637.764" cy="568.894" r="6.41702" stroke-width="0.5" stroke="black" fill="green"/>
  <circle cx="637.764" cy="568.894" r="3.93572" stroke-width="0.5" stroke="black" fill="green"/>
   </g>
   <g id="cell93">
  <circle cx="359.853" cy="535.036" r="8.41212" stroke-width="0.5" stroke="black" fill="cyan"/>
  <circle cx="359.853" cy="535.036" r="5.05153" stroke-width="0.5" stroke="black" fill="cyan"/>
   </g>
   <g id="cell94">
  <circle cx="614.934" cy="532.942" r="7.97611" stroke-width="0.5" stroke="black" fill="cyan"/>
  <circle cx="614.934" cy="532.942" r="4.83575" stroke-width="0.5" stroke="black" fill="cyan"/>
   </g>
   <g id="cell95">
  <circle cx="574.833" cy="582.503" r="8.41189" stroke-width="0.5" stroke="black" fill="magenta"/>
  <circle cx="574.833" cy="582.503" r="5.05148" stroke-width="0.5" stroke="black" fill="magenta"/>
   </g>
   <g id="cell96">
  <circle cx="604.88" cy="481.534" r="8.41193" stroke-width="0.5" stroke="black" fill="cyan"/>
  <circle cx="604.88" cy="481.534" r="5.05149" stroke-width="0.5" stroke="black" fill="cyan"/>
   </g>
   <g id="cell97">
  <circle cx="623.225" cy="545.927" r="8.41167" stroke-width="0.5" stroke="black" fill="green"/>
  <circle cx="623.225" cy="545.927" r="5.05142" stroke-width="0.5" stroke="black" fill="green"/>
   </g>
   <g id="cell98">
  <circle cx="601.04" cy="526.005" r="8.41193" stroke-width="0.5" stroke="black" fill="magenta"/>
  <circle cx="601.04" cy="526.005" r="5.05148" stroke-width="0.5" stroke="black" fill="magenta"/>
   </g>
   <g id="cell99">
  <circle cx="578.873" cy="419.916" r="8.41185" stroke-width="0.5" stroke="black" fill="cyan"/>
  <circle cx="578.873" cy="419.916" r="5.05146" stroke-width="0.5" stroke="black" fill="cyan"/>
   </g>
   <g id="cell100">
  <circle cx="377.086" cy="600.546" r="7.30009" stroke-width="0.5" stroke="black" fill="cyan"/>
  <circle cx="377.086" cy="600.546" r="4.43635" stroke-width="0.5" stroke="black" fill="cyan"/>
   </g>
   <g id="cell101">
  <circle cx="535.163" cy="436.431" r="8.04239" stroke-width="0.5" stroke="black" fill="cyan"/>
  <circle cx="535.163" cy="436.431" r="4.87475" stroke-width="0.5" stroke="black" fill="cyan"/>
   </g>
   <g id="cell102">
  <circle cx="498.024" cy="476.371" r="8.40449" stroke-width="0.5" stroke="black" fill="cyan"/>
  <circle cx="498.024" cy="476.371" r="5.04918" stroke-width="0.5" stroke="black" fill="cyan"/>
   </g>
   <g id="cell103">
  <circle cx="468.029" cy="534.012" r="8.40449" stroke-width="0.5" stroke="black" fill="magenta"/>
  <circle cx="468.029" cy="534.012" r="5.04927" stroke-width="0.5" stroke="black" fill="magenta"/>
   </g>
   <g id="cell209">
  <circle cx="639.173" cy="580.843" r="6.41702" stroke-width="0.5" stroke="black" fill="green"/>
  <circle cx="639.173" cy="580.843" r="3.93572" stroke-width="0.5" stroke="black" fill="green"/>
   </g>
   <g id="cell105">
  <circle cx="505.969" cy="462.455" r="8.41157" stroke-width="0.5" stroke="black" fill="magenta"/>
  <circle cx="505.969" cy="462.455" r="5.05138" stroke-width="0.5" stroke="black" fill="magenta"/>
   </g>
   <g id="cell106">
  <circle cx="432.976" cy="400.359" r="6.67613" stroke-width="0.5" stroke="black" fill="magenta"/>
  <circle cx="432.976" cy="400.359" r="4.00925" stroke-width="0.5" stroke="black" fill="magenta"/>
   </g>
   <g id="cell107">
  <circle cx="417.126" cy="451.653" r="7.32881" stroke-width="0.5" stroke="black" fill="cyan"/>
  <circle cx="417.126" cy="451.653" r="4.45441" stroke-width="0.5" stroke="black" fill="cyan"/>
   </g>
   <g id="cell108">
  <circle cx="524.268" cy="379.679" r="8.41098" stroke-width="0.5" stroke="black" fill="magenta"/>
  <circle cx="524.268" cy="379.679" r="5.05122" stroke-width="0.5" stroke="black" fill="magenta"/>
   </g>
   <g id="cell110">
  <circle cx="520.35" cy="395.077" r="8.28835" stroke-width="0.5" stroke="black" fill="magenta"/>
  <circle cx="520.35" cy="395.077" r="4.99916" stroke-width="0.5" stroke="black" fill="magenta"/>
   </g>
   <g id="cell111">
  <circle cx="513.546" cy="491.275" r="7.97302" stroke-width="0.5" stroke="black" fill="green"/>
  <circle cx="513.546" cy="491.275" r="4.83482" stroke-width="0.5" stroke="black" fill="green"/>
   </g>
   <g id="cell112">
  <circle cx="399.427" cy="587.417" r="8.3546" stroke-width="0.5" stroke="black" fill="cyan"/>
  <circle cx="399.427" cy="587.417" r="5.02936" stroke-width="0.5" stroke="black" fill="cyan"/>
   </g>
   <g id="cell113">
  <circle cx="336.192" cy="546.323" r="8.41007" stroke-width="0.5" stroke="black" fill="cyan"/>
  <circle cx="336.192" cy="546.323" r="5.05097" stroke-width="0.5" stroke="black" fill="cyan"/>
   </g>
   <g id="cell114">
  <circle cx="381.953" cy="614.446" r="8.40874" stroke-width="0.5" stroke="black" fill="cyan"/>
  <circle cx="381.953" cy="614.446" r="5.05061" stroke-width="0.5" stroke="black" fill="cyan"/>
   </g>
   <g id="cell115">
  <circle cx="391.774" cy="601.175" r="8.40874" stroke-width="0.5" stroke="black" fill="cyan"/>
  <circle cx="391.774" cy="601.175" r="5.05061" stroke-width="0.5" stroke="black" fill="cyan"/>
   </g>
   <g id="cell116">
  <circle cx="403.3" cy="532.168" r="8.18042" stroke-width="0.5" stroke="black" fill="green"/>
  <circle cx="403.3" cy="532.168" r="4.94546" stroke-width="0.5" stroke="black" fill="green"/>
   </g>
   <g id="cell117">
  <circle cx="373.674" cy="569.932" r="8.40802" stroke-width="0.5" stroke="black" fill="magenta"/>
  <circle cx="373.674" cy="569.932" r="5.05038" stroke-width="0.5" stroke="black" fill="magenta"/>
   </g>
   <g id="cell118">
  <circle cx="398.571" cy="437.536" r="2.30002" stroke-width="0.5" stroke="black" fill="cyan"/>
  <circle cx="398.571" cy="437.536" r="2.09961" stroke-width="0.5" stroke="black" fill="black"/>
   </g>
   <g id="cell119">
  <circle cx="569.379" cy="519.293" r="8.40962" stroke-width="0.5" stroke="black" fill="magenta"/>
  <circle cx="569.379" cy="519.293" r="5.05084" stroke-width="0.5" stroke="black" fill="magenta"/>
   </g>
   <g id="cell120">
  <circle cx="498.12" cy="492.36" r="8.36902" stroke-width="0.5" stroke="black" fill="green"/>
  <circle cx="498.12" cy="492.36" r="5.03562" stroke-width="0.5" stroke="black" fill="green"/>
   </g>
   <g id="cell122">
  <circle cx="451.315" cy="483.949" r="8.25818" stroke-width="0.5" stroke="black" fill="cyan"/>
  <circle cx="451.315" cy="483.949" r="4.98645" stroke-width="0.5" stroke="black" fill="cyan"/>
   </g>
   <g id="cell123">
  <circle cx="380.964" cy="555.724" r="8.23199" stroke-width="0.5" stroke="black" fill="magenta"/>
  <circle cx="380.964" cy="555.724" r="4.97183" stroke-width="0.5" stroke="black" fill="magenta"/>
   </g>
   <g id="cell125">
  <circle cx="529.097" cy="475.459" r="8.40873" stroke-width="0.5" stroke="black" fill="magenta"/>
  <circle cx="529.097" cy="475.459" r="5.05054" stroke-width="0.5" stroke="black" fill="magenta"/>
   </g>
   <g id="cell127">
  <circle cx="440.55" cy="533.294" r="8.40739" stroke-width="0.5" stroke="black" fill="magenta"/>
  <circle cx="440.55" cy="533.294" r="5.05015" stroke-width="0.5" stroke="black" fill="magenta"/>
   </g>
   <g id="cell128">
  <circle cx="550.954" cy="415.693" r="8.31482" stroke-width="0.5" stroke="black" fill="cyan"/>
  <circle cx="550.954" cy="415.693" r="5.01178" stroke-width="0.5" stroke="black" fill="cyan"/>
   </g>
   <g id="cell129">
  <circle cx="484.313" cy="520.252" r="8.4074" stroke-width="0.5" stroke="black" fill="green"/>
  <circle cx="484.313" cy="520.252" r="5.05012" stroke-width="0.5" stroke="black" fill="green"/>
   </g>
   <g id="cell208">
  <circle cx="368.677" cy="589.775" r="7.30009" stroke-width="0.5" stroke="black" fill="cyan"/>
  <circle cx="368.677" cy="589.775" r="4.43635" stroke-width="0.5" stroke="black" fill="cyan"/>
   </g>
   <g id="cell131">
  <circle cx="535.389" cy="587.661" r="8.40594" stroke-width="0.5" stroke="black" fill="green"/>
  <circle cx="535.389" cy="587.661" r="5.04965" stroke-width="0.5" stroke="black" fill="green"/>
   </g>
   <g id="cell132">
  <circle cx="402.54" cy="449.541" r="8.37951" stroke-width="0.5" stroke="black" fill="green"/>
  <circle cx="402.54" cy="449.541" r="5.04" stroke-width="0.5" stroke="black" fill="green"/>
   </g>
   <g id="cell133">
  <circle cx="552.161" cy="525.316" r="8.09418" stroke-width="0.5" stroke="black" fill="cyan"/>
  <circle cx="552.161" cy="525.316" r="4.90491" stroke-width="0.5" stroke="black" fill="cyan"/>
   </g>
   <g id="cell134">
  <circle cx="513.79" cy="475.966" r="8.40449" stroke-width="0.5" stroke="black" fill="cyan"/>
  <circle cx="513.79" cy="475.966" r="5.04918" stroke-width="0.5" stroke="black" fill="cyan"/>
   </g>
   <g id="cell135">
  <circle cx="410.163" cy="561.435" r="7.42831" stroke-width="0.5" stroke="black" fill="green"/>
  <circle cx="410.163" cy="561.435" r="4.51877" stroke-width="0.5" stroke="black" fill="green"/>
   </g>
   <g id="cell136">
  <circle cx="457.042" cy="507.113" r="8.38032" stroke-width="0.5" stroke="black" fill="green"/>
  <circle cx="457.042" cy="507.113" r="5.04065" stroke-width="0.5" stroke="black" fill="green"/>
   </g>
   <g id="cell137">
  <circle cx="534.793" cy="627.377" r="8.40294" stroke-width="0.5" stroke="black" fill="green"/>
  <circle cx="534.793" cy="627.377" r="5.04861" stroke-width="0.5" stroke="black" fill="green"/>
   </g>
   <g id="cell138">
  <circle cx="432.852" cy="417.776" r="8.40149" stroke-width="0.5" stroke="black" fill="magenta"/>
  <circle cx="432.852" cy="417.776" r="5.04816" stroke-width="0.5" stroke="black" fill="magenta"/>
   </g>
   <g id="cell139">
  <circle cx="571.059" cy="467.221" r="8.39974" stroke-width="0.5" stroke="black" fill="cyan"/>
  <circle cx="571.059" cy="467.221" r="5.04761" stroke-width="0.5" stroke="black" fill="cyan"/>
   </g>
   <g id="cell140">
  <circle cx="453.034" cy="522.819" r="8.39562" stroke-width="0.5" stroke="black" fill="green"/>
  <circle cx="453.034" cy="522.819" r="5.04621" stroke-width="0.5" stroke="black" fill="green"/>
   </g>
   <g id="cell141">
  <circle cx="426.689" cy="545.031" r="8.39061" stroke-width="0.5" stroke="black" fill="green"/>
  <circle cx="426.689" cy="545.031" r="5.04435" stroke-width="0.5" stroke="black" fill="green"/>
   </g>
   <g id="cell142">
  <circle cx="599.247" cy="510.207" r="8.39244" stroke-width="0.5" stroke="black" fill="magenta"/>
  <circle cx="599.247" cy="510.207" r="5.04478" stroke-width="0.5" stroke="black" fill="magenta"/>
   </g>
   <g id="cell143">
  <circle cx="519.905" cy="434.63" r="8.38678" stroke-width="0.5" stroke="black" fill="cyan"/>
  <circle cx="519.905" cy="434.63" r="5.04285" stroke-width="0.5" stroke="black" fill="cyan"/>
   </g>
   <g id="cell144">
  <circle cx="511.371" cy="447.826" r="8.38847" stroke-width="0.5" stroke="black" fill="cyan"/>
  <circle cx="511.371" cy="447.826" r="5.04329" stroke-width="0.5" stroke="black" fill="cyan"/>
   </g>
   <g id="cell145">
  <circle cx="468.442" cy="518.066" r="8.36399" stroke-width="0.5" stroke="black" fill="green"/>
  <circle cx="468.442" cy="518.066" r="5.03442" stroke-width="0.5" stroke="black" fill="green"/>
   </g>
   <g id="cell146">
  <circle cx="423.148" cy="471.177" r="8.38682" stroke-width="0.5" stroke="black" fill="green"/>
  <circle cx="423.148" cy="471.177" r="5.04258" stroke-width="0.5" stroke="black" fill="green"/>
   </g>
   <g id="cell147">
  <circle cx="374.299" cy="541.528" r="8.38454" stroke-width="0.5" stroke="black" fill="magenta"/>
  <circle cx="374.299" cy="541.528" r="5.04168" stroke-width="0.5" stroke="black" fill="magenta"/>
   </g>
   <g id="cell148">
  <circle cx="584.845" cy="593.956" r="7.61883" stroke-width="0.5" stroke="black" fill="magenta"/>
  <circle cx="584.845" cy="593.956" r="4.6341" stroke-width="0.5" stroke="black" fill="magenta"/>
   </g>
   <g id="cell149">
  <circle cx="528.916" cy="491.295" r="8.3809" stroke-width="0.5" stroke="black" fill="magenta"/>
  <circle cx="528.916" cy="491.295" r="5.04046" stroke-width="0.5" stroke="black" fill="magenta"/>
   </g>
   <g id="cell150">
  <circle cx="409.188" cy="463.673" r="7.98269" stroke-width="0.5" stroke="black" fill="green"/>
  <circle cx="409.188" cy="463.673" r="4.8428" stroke-width="0.5" stroke="black" fill="green"/>
   </g>
   <g id="cell151">
  <circle cx="438.23" cy="465.263" r="8.38016" stroke-width="0.5" stroke="black" fill="cyan"/>
  <circle cx="438.23" cy="465.263" r="5.04017" stroke-width="0.5" stroke="black" fill="cyan"/>
   </g>
   <g id="cell152">
  <circle cx="472.159" cy="502.357" r="8.36399" stroke-width="0.5" stroke="black" fill="green"/>
  <circle cx="472.159" cy="502.357" r="5.03442" stroke-width="0.5" stroke="black" fill="green"/>
   </g>
   <g id="cell153">
  <circle cx="543.192" cy="488.181" r="7.35477" stroke-width="0.5" stroke="black" fill="magenta"/>
  <circle cx="543.192" cy="488.181" r="4.47772" stroke-width="0.5" stroke="black" fill="magenta"/>
   </g>
   <g id="cell154">
  <circle cx="482.408" cy="489.684" r="8.36902" stroke-width="0.5" stroke="black" fill="green"/>
  <circle cx="482.408" cy="489.684" r="5.03562" stroke-width="0.5" stroke="black" fill="green"/>
   </g>
   <g id="cell155">
  <circle cx="485.793" cy="626.313" r="8.36849" stroke-width="0.5" stroke="black" fill="green"/>
  <circle cx="485.793" cy="626.313" r="5.03512" stroke-width="0.5" stroke="black" fill="green"/>
   </g>
   <g id="cell156">
  <circle cx="534.898" cy="548.848" r="8.36849" stroke-width="0.5" stroke="black" fill="magenta"/>
  <circle cx="534.898" cy="548.848" r="5.03512" stroke-width="0.5" stroke="black" fill="magenta"/>
   </g>
   <g id="cell157">
  <circle cx="393.462" cy="462.54" r="8.36508" stroke-width="0.5" stroke="black" fill="green"/>
  <circle cx="393.462" cy="462.54" r="5.03408" stroke-width="0.5" stroke="black" fill="green"/>
   </g>
   <g id="cell158">
  <circle cx="604.142" cy="586.019" r="8.36278" stroke-width="0.5" stroke="black" fill="magenta"/>
  <circle cx="604.142" cy="586.019" r="5.03278" stroke-width="0.5" stroke="black" fill="magenta"/>
   </g>
   <g id="cell159">
  <circle cx="588.712" cy="446.06" r="8.35842" stroke-width="0.5" stroke="black" fill="cyan"/>
  <circle cx="588.712" cy="446.06" r="5.03091" stroke-width="0.5" stroke="black" fill="cyan"/>
   </g>
   <g id="cell160">
  <circle cx="415.091" cy="589.389" r="8.3546" stroke-width="0.5" stroke="black" fill="cyan"/>
  <circle cx="415.091" cy="589.389" r="5.02936" stroke-width="0.5" stroke="black" fill="cyan"/>
   </g>
   <g id="cell161">
  <circle cx="447.725" cy="613.553" r="8.35055" stroke-width="0.5" stroke="black" fill="magenta"/>
  <circle cx="447.725" cy="613.553" r="5.02743" stroke-width="0.5" stroke="black" fill="magenta"/>
   </g>
   <g id="cell162">
  <circle cx="573.774" cy="451.208" r="8.35018" stroke-width="0.5" stroke="black" fill="cyan"/>
  <circle cx="573.774" cy="451.208" r="5.02734" stroke-width="0.5" stroke="black" fill="cyan"/>
   </g>
   <g id="cell163">
  <circle cx="564.605" cy="534.625" r="8.34541" stroke-width="0.5" stroke="black" fill="cyan"/>
  <circle cx="564.605" cy="534.625" r="5.02563" stroke-width="0.5" stroke="black" fill="cyan"/>
   </g>
   <g id="cell164">
  <circle cx="576.054" cy="490.757" r="8.347" stroke-width="0.5" stroke="black" fill="magenta"/>
  <circle cx="576.054" cy="490.757" r="5.02586" stroke-width="0.5" stroke="black" fill="magenta"/>
   </g>
   <g id="cell165">
  <circle cx="585.5" cy="461.444" r="8.33675" stroke-width="0.5" stroke="black" fill="cyan"/>
  <circle cx="585.5" cy="461.444" r="5.02135" stroke-width="0.5" stroke="black" fill="cyan"/>
   </g>
   <g id="cell166">
  <circle cx="652.708" cy="548.759" r="8.32782" stroke-width="0.5" stroke="black" fill="green"/>
  <circle cx="652.708" cy="548.759" r="5.01728" stroke-width="0.5" stroke="black" fill="green"/>
   </g>
   <g id="cell167">
  <circle cx="542.205" cy="502.758" r="8.29679" stroke-width="0.5" stroke="black" fill="magenta"/>
  <circle cx="542.205" cy="502.758" r="5.00556" stroke-width="0.5" stroke="black" fill="magenta"/>
   </g>
   <g id="cell168">
  <circle cx="563.862" cy="425.13" r="8.31482" stroke-width="0.5" stroke="black" fill="cyan"/>
  <circle cx="563.862" cy="425.13" r="5.01178" stroke-width="0.5" stroke="black" fill="cyan"/>
   </g>
   <g id="cell169">
  <circle cx="533.235" cy="533.167" r="8.30272" stroke-width="0.5" stroke="black" fill="cyan"/>
  <circle cx="533.235" cy="533.167" r="5.00622" stroke-width="0.5" stroke="black" fill="cyan"/>
   </g>
   <g id="cell170">
  <circle cx="527.96" cy="613.031" r="8.29993" stroke-width="0.5" stroke="black" fill="green"/>
  <circle cx="527.96" cy="613.031" r="5.00433" stroke-width="0.5" stroke="black" fill="green"/>
   </g>
   <g id="cell172">
  <circle cx="505.784" cy="401.093" r="8.28835" stroke-width="0.5" stroke="black" fill="magenta"/>
  <circle cx="505.784" cy="401.093" r="4.99916" stroke-width="0.5" stroke="black" fill="magenta"/>
   </g>
   <g id="cell173">
  <circle cx="512.382" cy="611.909" r="8.22854" stroke-width="0.5" stroke="black" fill="green"/>
  <circle cx="512.382" cy="611.909" r="4.97359" stroke-width="0.5" stroke="black" fill="green"/>
   </g>
   <g id="cell174">
  <circle cx="420.098" cy="397.405" r="8.27497" stroke-width="0.5" stroke="black" fill="green"/>
  <circle cx="420.098" cy="397.405" r="4.99242" stroke-width="0.5" stroke="black" fill="green"/>
   </g>
   <g id="cell175">
  <circle cx="435.874" cy="480.753" r="8.25818" stroke-width="0.5" stroke="black" fill="cyan"/>
  <circle cx="435.874" cy="480.753" r="4.98645" stroke-width="0.5" stroke="black" fill="cyan"/>
   </g>
   <g id="cell176">
  <circle cx="631.865" cy="509.549" r="8.25637" stroke-width="0.5" stroke="black" fill="magenta"/>
  <circle cx="631.865" cy="509.549" r="4.98489" stroke-width="0.5" stroke="black" fill="magenta"/>
   </g>
   <g id="cell177">
  <circle cx="520.521" cy="582.427" r="8.26241" stroke-width="0.5" stroke="black" fill="green"/>
  <circle cx="520.521" cy="582.427" r="4.98637" stroke-width="0.5" stroke="black" fill="green"/>
   </g>
   <g id="cell178">
  <circle cx="559.089" cy="549.42" r="8.24438" stroke-width="0.5" stroke="black" fill="green"/>
  <circle cx="559.089" cy="549.42" r="4.97746" stroke-width="0.5" stroke="black" fill="green"/>
   </g>
   <g id="cell179">
  <circle cx="408.517" cy="627.36" r="8.23444" stroke-width="0.5" stroke="black" fill="cyan"/>
  <circle cx="408.517" cy="627.36" r="4.97252" stroke-width="0.5" stroke="black" fill="cyan"/>
   </g>
   <g id="cell180">
  <circle cx="395.484" cy="560.038" r="8.23199" stroke-width="0.5" stroke="black" fill="magenta"/>
  <circle cx="395.484" cy="560.038" r="4.97183" stroke-width="0.5" stroke="black" fill="magenta"/>
   </g>
   <g id="cell181">
  <circle cx="388.482" cy="535.43" r="7.98088" stroke-width="0.5" stroke="black" fill="green"/>
  <circle cx="388.482" cy="535.43" r="4.84875" stroke-width="0.5" stroke="black" fill="green"/>
   </g>
   <g id="cell182">
  <circle cx="459.832" cy="560.738" r="8.16039" stroke-width="0.5" stroke="black" fill="magenta"/>
  <circle cx="459.832" cy="560.738" r="4.93493" stroke-width="0.5" stroke="black" fill="magenta"/>
   </g>
   <g id="cell183">
  <circle cx="609.089" cy="497.573" r="8.07102" stroke-width="0.5" stroke="black" fill="magenta"/>
  <circle cx="609.089" cy="497.573" r="4.89583" stroke-width="0.5" stroke="black" fill="magenta"/>
   </g>
   <g id="cell184">
  <circle cx="547.352" cy="539.596" r="8.09418" stroke-width="0.5" stroke="black" fill="cyan"/>
  <circle cx="547.352" cy="539.596" r="4.90491" stroke-width="0.5" stroke="black" fill="cyan"/>
   </g>
   <g id="cell187">
  <circle cx="433.819" cy="557.673" r="7.43194" stroke-width="0.5" stroke="black" fill="green"/>
  <circle cx="433.819" cy="557.673" r="4.54313" stroke-width="0.5" stroke="black" fill="green"/>
   </g>
   <g id="cell188">
  <circle cx="537.01" cy="459.12" r="8.03477" stroke-width="0.5" stroke="black" fill="cyan"/>
  <circle cx="537.01" cy="459.12" r="4.868" stroke-width="0.5" stroke="black" fill="cyan"/>
   </g>
   <g id="cell189">
  <circle cx="556.398" cy="470.829" r="8.0222" stroke-width="0.5" stroke="black" fill="cyan"/>
  <circle cx="556.398" cy="470.829" r="4.86152" stroke-width="0.5" stroke="black" fill="cyan"/>
   </g>
   <g id="cell190">
  <circle cx="403.419" cy="477.494" r="7.98269" stroke-width="0.5" stroke="black" fill="green"/>
  <circle cx="403.419" cy="477.494" r="4.8428" stroke-width="0.5" stroke="black" fill="green"/>
   </g>
   <g id="cell191">
  <circle cx="619.345" cy="518.537" r="7.97611" stroke-width="0.5" stroke="black" fill="cyan"/>
  <circle cx="619.345" cy="518.537" r="4.83575" stroke-width="0.5" stroke="black" fill="cyan"/>
   </g>
   <g id="cell192">
  <circle cx="511.713" cy="506.083" r="7.97302" stroke-width="0.5" stroke="black" fill="green"/>
  <circle cx="511.713" cy="506.083" r="4.83482" stroke-width="0.5" stroke="black" fill="green"/>
   </g>
   <g id="cell194">
  <circle cx="471.473" cy="437.395" r="7.72056" stroke-width="0.5" stroke="black" fill="magenta"/>
  <circle cx="471.473" cy="437.395" r="4.69003" stroke-width="0.5" stroke="black" fill="magenta"/>
   </g>
   <g id="cell196">
  <circle cx="426.983" cy="569.519" r="7.43194" stroke-width="0.5" stroke="black" fill="green"/>
  <circle cx="426.983" cy="569.519" r="4.54313" stroke-width="0.5" stroke="black" fill="green"/>
   </g>
   <g id="cell197">
  <circle cx="598.013" cy="599.867" r="7.61883" stroke-width="0.5" stroke="black" fill="magenta"/>
  <circle cx="598.013" cy="599.867" r="4.6341" stroke-width="0.5" stroke="black" fill="magenta"/>
   </g>
   <g id="cell198">
  <circle cx="468.138" cy="643.829" r="7.63698" stroke-width="0.5" stroke="black" fill="magenta"/>
  <circle cx="468.138" cy="643.829" r="4.64085" stroke-width="0.5" stroke="black" fill="magenta"/>
   </g>
   <g id="cell200">
  <circle cx="628.39" cy="559.93" r="7.46812" stroke-width="0.5" stroke="black" fill="green"/>
  <circle cx="628.39" cy="559.93" r="4.53964" stroke-width="0.5" stroke="black" fill="green"/>
   </g>
   <g id="cell202">
  <circle cx="414.606" cy="574.796" r="7.42831" stroke-width="0.5" stroke="black" fill="green"/>
  <circle cx="414.606" cy="574.796" r="4.51877" stroke-width="0.5" stroke="black" fill="green"/>
   </g>
   <g id="cell203">
  <circle cx="649.894" cy="563.959" r="7.44202" stroke-width="0.5" stroke="black" fill="green"/>
  <circle cx="649.894" cy="563.959" r="4.52363" stroke-width="0.5" stroke="black" fill="green"/>
   </g>
   <g id="cell204">
  <circle cx="521.116" cy="419.805" r="7.41548" stroke-width="0.5" stroke="black" fill="cyan"/>
  <circle cx="521.116" cy="419.805" r="4.50723" stroke-width="0.5" stroke="black" fill="cyan"/>
   </g>
   <g id="cell205">
  <circle cx="543.226" cy="474.589" r="7.35477" stroke-width="0.5" stroke="black" fill="magenta"/>
  <circle cx="543.226" cy="474.589" r="4.47772" stroke-width="0.5" stroke="black" fill="magenta"/>
   </g>
   <g id="cell206">
  <circle cx="401.427" cy="572.921" r="7.35982" stroke-width="0.5" stroke="black" fill="magenta"/>
  <circle cx="401.427" cy="572.921" r="4.47292" stroke-width="0.5" stroke="black" fill="magenta"/>
   </g>
   <g id="cell210">
  <circle cx="443.241" cy="406.069" r="6.67613" stroke-width="0.5" stroke="black" fill="magenta"/>
  <circle cx="443.241" cy="406.069" r="4.00925" stroke-width="0.5" stroke="black" fill="magenta"/>
   </g>
   <g id="cell211">
  <circle cx="588.073" cy="489.06" r="6.58228" stroke-width="0.5" stroke="black" fill="magenta"/>
  <circle cx="588.073" cy="489.06" r="3.96943" stroke-width="0.5" stroke="black" fill="magenta"/>
   </g>
  </g>
 </g>
  <rect x="775" y="1035" width="200" height="10" stroke-width="2" stroke="rgb(255,255,255)" fill="rgb(0,0,0)"/>
  <text x="781.25" y="1028.75"
   font-family="Arial" font-size="25" fill="black" >
   200 &#956;m
  </text>
  <text x="25" y="1045"
   font-family="Arial" font-size="18.75" fill="black" >
   0 days, 0 hours, 0 minutes, and 49.5728 seconds
  </text>
  <rect x="0" y="70" width="1000" height="1000" stroke-width="2" stroke="rgb(0,0,0)" fill="none"/>
</svg>
