<?xml version="1.0" encoding="UTF-8" standalone="no"?>
<!-- Created with PhysiCell (http://PhysiCell.MathCancer.org/) -->
<svg 
 xmlns:dc="http://purl.org/dc/elements/1.1/" 
 xmlns:cc="http://creativecommons.org/ns#" 
 xmlns:rdf="http://www.w3.org/1999/02/22-rdf-syntax-ns#" 
 xmlns:svg="http://www.w3.org/2000/svg" 
 xmlns="http://www.w3.org/2000/svg" 
 version="1.1" 
 width="1000" 
 height="1070" 
 id="svg2">
  <rect x="0" y="0" width="1000" height="1070" stroke-width="2" stroke="white" fill="white"/>
  <text x="12.5" y="30"
   font-family="Arial" font-size="25" fill="black" >
   Current time: 0 days, 3 hours, and 0.00 minutes, z = 0.00 &#956;m
  </text>
  <text x="12.5" y="57.5"
   font-family="Arial" font-size="23.75" fill="black" >
   82 agents
  </text>
 <g id="tissue" 
    transform="translate(0,1070) scale(1,-1)">
  <g id="ECM">
  </g>
  <g id="cells">
   <g id="cell0">
  <circle cx="513.286" cy="530.683" r="8.41271" stroke-width="0.5" stroke="black" fill="magenta"/>
  <circle cx="513.286" cy="530.683" r="5.05167" stroke-width="0.5" stroke="black" fill="magenta"/>
   </g>
   <g id="cell1">
  <circle cx="604.143" cy="530.32" r="8.41271" stroke-width="0.5" stroke="black" fill="magenta"/>
  <circle cx="604.143" cy="530.32" r="5.05167" stroke-width="0.5" stroke="black" fill="magenta"/>
   </g>
   <g id="cell2">
  <circle cx="510.695" cy="600.897" r="8.41271" stroke-width="0.5" stroke="black" fill="magenta"/>
  <circle cx="510.695" cy="600.897" r="5.05167" stroke-width="0.5" stroke="black" fill="magenta"/>
   </g>
   <g id="cell3">
  <circle cx="532.557" cy="545.704" r="8.41271" stroke-width="0.5" stroke="black" fill="magenta"/>
  <circle cx="532.557" cy="545.704" r="5.05167" stroke-width="0.5" stroke="black" fill="magenta"/>
   </g>
   <g id="cell4">
  <circle cx="481.375" cy="439.864" r="8.41271" stroke-width="0.5" stroke="black" fill="magenta"/>
  <circle cx="481.375" cy="439.864" r="5.05167" stroke-width="0.5" stroke="black" fill="magenta"/>
   </g>
   <g id="cell5">
  <circle cx="465.032" cy="493.3" r="8.41271" stroke-width="0.5" stroke="black" fill="magenta"/>
  <circle cx="465.032" cy="493.3" r="5.05167" stroke-width="0.5" stroke="black" fill="magenta"/>
   </g>
   <g id="cell6">
  <circle cx="592.023" cy="513.591" r="7.3599" stroke-width="0.5" stroke="black" fill="magenta"/>
  <circle cx="592.023" cy="513.591" r="4.47294" stroke-width="0.5" stroke="black" fill="magenta"/>
   </g>
   <g id="cell7">
  <circle cx="512.284" cy="464.846" r="8.41271" stroke-width="0.5" stroke="black" fill="magenta"/>
  <circle cx="512.284" cy="464.846" r="5.05167" stroke-width="0.5" stroke="black" fill="magenta"/>
   </g>
   <g id="cell8">
  <circle cx="376.09" cy="544.456" r="8.41271" stroke-width="0.5" stroke="black" fill="magenta"/>
  <circle cx="376.09" cy="544.456" r="5.05167" stroke-width="0.5" stroke="black" fill="magenta"/>
   </g>
   <g id="cell9">
  <circle cx="464.217" cy="596.145" r="6.92764" stroke-width="0.5" stroke="black" fill="magenta"/>
  <circle cx="464.217" cy="596.145" r="4.1918" stroke-width="0.5" stroke="black" fill="magenta"/>
   </g>
   <g id="cell10">
  <circle cx="583.447" cy="392.105" r="8.41271" stroke-width="0.5" stroke="black" fill="magenta"/>
  <circle cx="583.447" cy="392.105" r="5.05167" stroke-width="0.5" stroke="black" fill="magenta"/>
   </g>
   <g id="cell11">
  <circle cx="589.748" cy="590.273" r="8.41271" stroke-width="0.5" stroke="black" fill="magenta"/>
  <circle cx="589.748" cy="590.273" r="5.05167" stroke-width="0.5" stroke="black" fill="magenta"/>
   </g>
   <g id="cell12">
  <circle cx="506.476" cy="585.432" r="8.41271" stroke-width="0.5" stroke="black" fill="magenta"/>
  <circle cx="506.476" cy="585.432" r="5.05167" stroke-width="0.5" stroke="black" fill="magenta"/>
   </g>
   <g id="cell13">
  <circle cx="390.545" cy="567.602" r="7.1497" stroke-width="0.5" stroke="black" fill="magenta"/>
  <circle cx="390.545" cy="567.602" r="4.34001" stroke-width="0.5" stroke="black" fill="magenta"/>
   </g>
   <g id="cell14">
  <circle cx="529.237" cy="395.779" r="6.44044" stroke-width="0.5" stroke="black" fill="magenta"/>
  <circle cx="529.237" cy="395.779" r="3.99684" stroke-width="0.5" stroke="black" fill="black"/>
   </g>
   <g id="cell15">
  <circle cx="380.951" cy="474.663" r="8.41271" stroke-width="0.5" stroke="black" fill="magenta"/>
  <circle cx="380.951" cy="474.663" r="5.05167" stroke-width="0.5" stroke="black" fill="magenta"/>
   </g>
   <g id="cell16">
  <circle cx="428.948" cy="413.428" r="8.41271" stroke-width="0.5" stroke="black" fill="magenta"/>
  <circle cx="428.948" cy="413.428" r="5.05167" stroke-width="0.5" stroke="black" fill="magenta"/>
   </g>
   <g id="cell17">
  <circle cx="572.202" cy="490.157" r="8.41271" stroke-width="0.5" stroke="black" fill="magenta"/>
  <circle cx="572.202" cy="490.157" r="5.05167" stroke-width="0.5" stroke="black" fill="magenta"/>
   </g>
   <g id="cell18">
  <circle cx="515.899" cy="387.792" r="8.41271" stroke-width="0.5" stroke="black" fill="magenta"/>
  <circle cx="515.899" cy="387.792" r="5.05167" stroke-width="0.5" stroke="black" fill="magenta"/>
   </g>
   <g id="cell19">
  <circle cx="451.894" cy="539.462" r="8.41271" stroke-width="0.5" stroke="black" fill="magenta"/>
  <circle cx="451.894" cy="539.462" r="5.05167" stroke-width="0.5" stroke="black" fill="magenta"/>
   </g>
   <g id="cell20">
  <circle cx="532.661" cy="417.689" r="8.41271" stroke-width="0.5" stroke="black" fill="magenta"/>
  <circle cx="532.661" cy="417.689" r="5.05167" stroke-width="0.5" stroke="black" fill="magenta"/>
   </g>
   <g id="cell21">
  <circle cx="464.212" cy="634.718" r="8.41271" stroke-width="0.5" stroke="black" fill="magenta"/>
  <circle cx="464.212" cy="634.718" r="5.05167" stroke-width="0.5" stroke="black" fill="magenta"/>
   </g>
   <g id="cell22">
  <circle cx="556.557" cy="493.64" r="8.41271" stroke-width="0.5" stroke="black" fill="magenta"/>
  <circle cx="556.557" cy="493.64" r="5.05167" stroke-width="0.5" stroke="black" fill="magenta"/>
   </g>
   <g id="cell23">
  <circle cx="535.864" cy="483.287" r="8.41271" stroke-width="0.5" stroke="black" fill="magenta"/>
  <circle cx="535.864" cy="483.287" r="5.05167" stroke-width="0.5" stroke="black" fill="magenta"/>
   </g>
   <g id="cell24">
  <circle cx="559.289" cy="379.784" r="8.41271" stroke-width="0.5" stroke="black" fill="magenta"/>
  <circle cx="559.289" cy="379.784" r="5.05167" stroke-width="0.5" stroke="black" fill="magenta"/>
   </g>
   <g id="cell25">
  <circle cx="637.375" cy="555.231" r="7.27253" stroke-width="0.5" stroke="black" fill="green"/>
  <circle cx="637.375" cy="555.231" r="4.41835" stroke-width="0.5" stroke="black" fill="green"/>
   </g>
   <g id="cell26">
  <circle cx="551.191" cy="401.273" r="8.41271" stroke-width="0.5" stroke="black" fill="green"/>
  <circle cx="551.191" cy="401.273" r="5.05167" stroke-width="0.5" stroke="black" fill="green"/>
   </g>
   <g id="cell27">
  <circle cx="457.446" cy="388.678" r="8.41271" stroke-width="0.5" stroke="black" fill="green"/>
  <circle cx="457.446" cy="388.678" r="5.05167" stroke-width="0.5" stroke="black" fill="green"/>
   </g>
   <g id="cell28">
  <circle cx="438.497" cy="530.67" r="8.41271" stroke-width="0.5" stroke="black" fill="green"/>
  <circle cx="438.497" cy="530.67" r="5.05167" stroke-width="0.5" stroke="black" fill="green"/>
   </g>
   <g id="cell29">
  <circle cx="449.03" cy="518.594" r="8.41271" stroke-width="0.5" stroke="black" fill="green"/>
  <circle cx="449.03" cy="518.594" r="5.05167" stroke-width="0.5" stroke="black" fill="green"/>
   </g>
   <g id="cell30">
  <circle cx="481.58" cy="540.282" r="8.41271" stroke-width="0.5" stroke="black" fill="green"/>
  <circle cx="481.58" cy="540.282" r="5.05167" stroke-width="0.5" stroke="black" fill="green"/>
   </g>
   <g id="cell31">
  <circle cx="412.757" cy="541.193" r="8.41271" stroke-width="0.5" stroke="black" fill="green"/>
  <circle cx="412.757" cy="541.193" r="5.05167" stroke-width="0.5" stroke="black" fill="green"/>
   </g>
   <g id="cell32">
  <circle cx="425.371" cy="474.829" r="8.41271" stroke-width="0.5" stroke="black" fill="green"/>
  <circle cx="425.371" cy="474.829" r="5.05167" stroke-width="0.5" stroke="black" fill="green"/>
   </g>
   <g id="cell33">
  <circle cx="494.146" cy="423.183" r="8.41271" stroke-width="0.5" stroke="black" fill="green"/>
  <circle cx="494.146" cy="423.183" r="5.05167" stroke-width="0.5" stroke="black" fill="green"/>
   </g>
   <g id="cell34">
  <circle cx="397.088" cy="450.831" r="8.41271" stroke-width="0.5" stroke="black" fill="green"/>
  <circle cx="397.088" cy="450.831" r="5.05167" stroke-width="0.5" stroke="black" fill="green"/>
   </g>
   <g id="cell35">
  <circle cx="548.536" cy="544.574" r="8.41271" stroke-width="0.5" stroke="black" fill="green"/>
  <circle cx="548.536" cy="544.574" r="5.05167" stroke-width="0.5" stroke="black" fill="green"/>
   </g>
   <g id="cell36">
  <circle cx="391.819" cy="583.245" r="8.41271" stroke-width="0.5" stroke="black" fill="green"/>
  <circle cx="391.819" cy="583.245" r="5.05167" stroke-width="0.5" stroke="black" fill="green"/>
   </g>
   <g id="cell37">
  <circle cx="634.871" cy="460.618" r="8.41271" stroke-width="0.5" stroke="black" fill="green"/>
  <circle cx="634.871" cy="460.618" r="5.05167" stroke-width="0.5" stroke="black" fill="green"/>
   </g>
   <g id="cell38">
  <circle cx="537.605" cy="607.796" r="7.1497" stroke-width="0.5" stroke="black" fill="green"/>
  <circle cx="537.605" cy="607.796" r="4.34001" stroke-width="0.5" stroke="black" fill="green"/>
   </g>
   <g id="cell39">
  <circle cx="613.458" cy="490.595" r="8.41271" stroke-width="0.5" stroke="black" fill="green"/>
  <circle cx="613.458" cy="490.595" r="5.05167" stroke-width="0.5" stroke="black" fill="green"/>
   </g>
   <g id="cell40">
  <circle cx="485.348" cy="571.779" r="8.41271" stroke-width="0.5" stroke="black" fill="green"/>
  <circle cx="485.348" cy="571.779" r="5.05167" stroke-width="0.5" stroke="black" fill="green"/>
   </g>
   <g id="cell41">
  <circle cx="364.006" cy="480.21" r="8.41271" stroke-width="0.5" stroke="black" fill="green"/>
  <circle cx="364.006" cy="480.21" r="5.05167" stroke-width="0.5" stroke="black" fill="green"/>
   </g>
   <g id="cell42">
  <circle cx="438.842" cy="494.268" r="8.41271" stroke-width="0.5" stroke="black" fill="green"/>
  <circle cx="438.842" cy="494.268" r="5.05167" stroke-width="0.5" stroke="black" fill="green"/>
   </g>
   <g id="cell43">
  <circle cx="558.051" cy="445.611" r="8.41271" stroke-width="0.5" stroke="black" fill="green"/>
  <circle cx="558.051" cy="445.611" r="5.05167" stroke-width="0.5" stroke="black" fill="green"/>
   </g>
   <g id="cell44">
  <circle cx="476.013" cy="623.877" r="8.41271" stroke-width="0.5" stroke="black" fill="green"/>
  <circle cx="476.013" cy="623.877" r="5.05167" stroke-width="0.5" stroke="black" fill="green"/>
   </g>
   <g id="cell45">
  <circle cx="414.953" cy="557.066" r="8.41271" stroke-width="0.5" stroke="black" fill="green"/>
  <circle cx="414.953" cy="557.066" r="5.05167" stroke-width="0.5" stroke="black" fill="green"/>
   </g>
   <g id="cell46">
  <circle cx="523.092" cy="611.071" r="8.41271" stroke-width="0.5" stroke="black" fill="green"/>
  <circle cx="523.092" cy="611.071" r="5.05167" stroke-width="0.5" stroke="black" fill="green"/>
   </g>
   <g id="cell47">
  <circle cx="497.289" cy="507.657" r="7.24243" stroke-width="0.5" stroke="black" fill="green"/>
  <circle cx="497.289" cy="507.657" r="4.39934" stroke-width="0.5" stroke="black" fill="green"/>
   </g>
   <g id="cell48">
  <circle cx="564.431" cy="602.866" r="8.41271" stroke-width="0.5" stroke="black" fill="green"/>
  <circle cx="564.431" cy="602.866" r="5.05167" stroke-width="0.5" stroke="black" fill="green"/>
   </g>
   <g id="cell49">
  <circle cx="429.837" cy="397.429" r="8.41271" stroke-width="0.5" stroke="black" fill="green"/>
  <circle cx="429.837" cy="397.429" r="5.05167" stroke-width="0.5" stroke="black" fill="green"/>
   </g>
   <g id="cell50">
  <circle cx="520.022" cy="516.177" r="8.41271" stroke-width="0.5" stroke="black" fill="cyan"/>
  <circle cx="520.022" cy="516.177" r="5.05167" stroke-width="0.5" stroke="black" fill="cyan"/>
   </g>
   <g id="cell51">
  <circle cx="401.467" cy="594.136" r="6.78181" stroke-width="0.5" stroke="black" fill="cyan"/>
  <circle cx="401.467" cy="594.136" r="4.08714" stroke-width="0.5" stroke="black" fill="cyan"/>
   </g>
   <g id="cell52">
  <circle cx="521.689" cy="429.379" r="8.41271" stroke-width="0.5" stroke="black" fill="cyan"/>
  <circle cx="521.689" cy="429.379" r="5.05167" stroke-width="0.5" stroke="black" fill="cyan"/>
   </g>
   <g id="cell53">
  <circle cx="571.05" cy="436.18" r="8.41271" stroke-width="0.5" stroke="black" fill="cyan"/>
  <circle cx="571.05" cy="436.18" r="5.05167" stroke-width="0.5" stroke="black" fill="cyan"/>
   </g>
   <g id="cell54">
  <circle cx="478.152" cy="424.167" r="8.41271" stroke-width="0.5" stroke="black" fill="cyan"/>
  <circle cx="478.152" cy="424.167" r="5.05167" stroke-width="0.5" stroke="black" fill="cyan"/>
   </g>
   <g id="cell55">
  <circle cx="527.612" cy="469.563" r="8.41271" stroke-width="0.5" stroke="black" fill="cyan"/>
  <circle cx="527.612" cy="469.563" r="5.05167" stroke-width="0.5" stroke="black" fill="cyan"/>
   </g>
   <g id="cell56">
  <circle cx="617.948" cy="522.184" r="8.41271" stroke-width="0.5" stroke="black" fill="cyan"/>
  <circle cx="617.948" cy="522.184" r="5.05167" stroke-width="0.5" stroke="black" fill="cyan"/>
   </g>
   <g id="cell57">
  <circle cx="416.924" cy="617.466" r="8.41271" stroke-width="0.5" stroke="black" fill="cyan"/>
  <circle cx="416.924" cy="617.466" r="5.05167" stroke-width="0.5" stroke="black" fill="cyan"/>
   </g>
   <g id="cell58">
  <circle cx="551.13" cy="478.491" r="8.41271" stroke-width="0.5" stroke="black" fill="cyan"/>
  <circle cx="551.13" cy="478.491" r="5.05167" stroke-width="0.5" stroke="black" fill="cyan"/>
   </g>
   <g id="cell59">
  <circle cx="385.463" cy="439.803" r="8.41271" stroke-width="0.5" stroke="black" fill="cyan"/>
  <circle cx="385.463" cy="439.803" r="5.05167" stroke-width="0.5" stroke="black" fill="cyan"/>
   </g>
   <g id="cell60">
  <circle cx="593.147" cy="473.627" r="8.41271" stroke-width="0.5" stroke="black" fill="cyan"/>
  <circle cx="593.147" cy="473.627" r="5.05167" stroke-width="0.5" stroke="black" fill="cyan"/>
   </g>
   <g id="cell61">
  <circle cx="552.491" cy="613.63" r="8.41271" stroke-width="0.5" stroke="black" fill="cyan"/>
  <circle cx="552.491" cy="613.63" r="5.05167" stroke-width="0.5" stroke="black" fill="cyan"/>
   </g>
   <g id="cell62">
  <circle cx="526.209" cy="444.776" r="8.41271" stroke-width="0.5" stroke="black" fill="cyan"/>
  <circle cx="526.209" cy="444.776" r="5.05167" stroke-width="0.5" stroke="black" fill="cyan"/>
   </g>
   <g id="cell63">
  <circle cx="577.903" cy="546.398" r="8.41271" stroke-width="0.5" stroke="black" fill="cyan"/>
  <circle cx="577.903" cy="546.398" r="5.05167" stroke-width="0.5" stroke="black" fill="cyan"/>
   </g>
   <g id="cell64">
  <circle cx="509.962" cy="636.825" r="8.41271" stroke-width="0.5" stroke="black" fill="cyan"/>
  <circle cx="509.962" cy="636.825" r="5.05167" stroke-width="0.5" stroke="black" fill="cyan"/>
   </g>
   <g id="cell65">
  <circle cx="542.887" cy="464.553" r="8.41271" stroke-width="0.5" stroke="black" fill="cyan"/>
  <circle cx="542.887" cy="464.553" r="5.05167" stroke-width="0.5" stroke="black" fill="cyan"/>
   </g>
   <g id="cell66">
  <circle cx="535.699" cy="529.995" r="8.41271" stroke-width="0.5" stroke="black" fill="cyan"/>
  <circle cx="535.699" cy="529.995" r="5.05167" stroke-width="0.5" stroke="black" fill="cyan"/>
   </g>
   <g id="cell67">
  <circle cx="354.33" cy="493.078" r="8.41271" stroke-width="0.5" stroke="black" fill="cyan"/>
  <circle cx="354.33" cy="493.078" r="5.05167" stroke-width="0.5" stroke="black" fill="cyan"/>
   </g>
   <g id="cell68">
  <circle cx="562.832" cy="551.862" r="8.41271" stroke-width="0.5" stroke="black" fill="cyan"/>
  <circle cx="562.832" cy="551.862" r="5.05167" stroke-width="0.5" stroke="black" fill="cyan"/>
   </g>
   <g id="cell69">
  <circle cx="437.64" cy="464.521" r="8.41271" stroke-width="0.5" stroke="black" fill="cyan"/>
  <circle cx="437.64" cy="464.521" r="5.05167" stroke-width="0.5" stroke="black" fill="cyan"/>
   </g>
   <g id="cell70">
  <circle cx="577.175" cy="474.923" r="8.41271" stroke-width="0.5" stroke="black" fill="cyan"/>
  <circle cx="577.175" cy="474.923" r="5.05167" stroke-width="0.5" stroke="black" fill="cyan"/>
   </g>
   <g id="cell71">
  <circle cx="377.712" cy="520.989" r="8.41271" stroke-width="0.5" stroke="black" fill="cyan"/>
  <circle cx="377.712" cy="520.989" r="5.05167" stroke-width="0.5" stroke="black" fill="cyan"/>
   </g>
   <g id="cell72">
  <circle cx="535.856" cy="513.953" r="8.41271" stroke-width="0.5" stroke="black" fill="cyan"/>
  <circle cx="535.856" cy="513.953" r="5.05167" stroke-width="0.5" stroke="black" fill="cyan"/>
   </g>
   <g id="cell73">
  <circle cx="360.136" cy="545.956" r="8.41271" stroke-width="0.5" stroke="black" fill="cyan"/>
  <circle cx="360.136" cy="545.956" r="5.05167" stroke-width="0.5" stroke="black" fill="cyan"/>
   </g>
   <g id="cell74">
  <circle cx="542.072" cy="447.559" r="8.41271" stroke-width="0.5" stroke="black" fill="cyan"/>
  <circle cx="542.072" cy="447.559" r="5.05167" stroke-width="0.5" stroke="black" fill="cyan"/>
   </g>
   <g id="cell75">
  <circle cx="596.407" cy="500.332" r="7.3599" stroke-width="0.5" stroke="black" fill="magenta"/>
  <circle cx="596.407" cy="500.332" r="4.47294" stroke-width="0.5" stroke="black" fill="magenta"/>
   </g>
   <g id="cell76">
  <circle cx="645.179" cy="543.854" r="7.27253" stroke-width="0.5" stroke="black" fill="green"/>
  <circle cx="645.179" cy="543.854" r="4.41835" stroke-width="0.5" stroke="black" fill="green"/>
   </g>
   <g id="cell77">
  <circle cx="510.678" cy="504.648" r="7.24243" stroke-width="0.5" stroke="black" fill="green"/>
  <circle cx="510.678" cy="504.648" r="4.39934" stroke-width="0.5" stroke="black" fill="green"/>
   </g>
   <g id="cell78">
  <circle cx="377.018" cy="566.414" r="7.1497" stroke-width="0.5" stroke="black" fill="magenta"/>
  <circle cx="377.018" cy="566.414" r="4.34001" stroke-width="0.5" stroke="black" fill="magenta"/>
   </g>
   <g id="cell79">
  <circle cx="535.195" cy="594.401" r="7.1497" stroke-width="0.5" stroke="black" fill="green"/>
  <circle cx="535.195" cy="594.401" r="4.34001" stroke-width="0.5" stroke="black" fill="green"/>
   </g>
   <g id="cell80">
  <circle cx="454.793" cy="605.307" r="6.92764" stroke-width="0.5" stroke="black" fill="magenta"/>
  <circle cx="454.793" cy="605.307" r="4.1918" stroke-width="0.5" stroke="black" fill="magenta"/>
   </g>
   <g id="cell81">
  <circle cx="394.039" cy="604.659" r="6.78181" stroke-width="0.5" stroke="black" fill="cyan"/>
  <circle cx="394.039" cy="604.659" r="4.08714" stroke-width="0.5" stroke="black" fill="cyan"/>
   </g>
  </g>
 </g>
  <rect x="775" y="1035" width="200" height="10" stroke-width="2" stroke="rgb(255,255,255)" fill="rgb(0,0,0)"/>
  <text x="781.25" y="1028.75"
   font-family="Arial" font-size="25" fill="black" >
   200 &#956;m
  </text>
  <text x="25" y="1045"
   font-family="Arial" font-size="18.75" fill="black" >
   0 days, 0 hours, 0 minutes, and 4.0107 seconds
  </text>
  <rect x="0" y="70" width="1000" height="1000" stroke-width="2" stroke="rgb(0,0,0)" fill="none"/>
</svg>
