<?xml version="1.0" encoding="UTF-8" standalone="no"?>
<!-- Created with PhysiCell (http://PhysiCell.MathCancer.org/) -->
<svg 
 xmlns:dc="http://purl.org/dc/elements/1.1/" 
 xmlns:cc="http://creativecommons.org/ns#" 
 xmlns:rdf="http://www.w3.org/1999/02/22-rdf-syntax-ns#" 
 xmlns:svg="http://www.w3.org/2000/svg" 
 xmlns="http://www.w3.org/2000/svg" 
 version="1.1" 
 width="1000" 
 height="1070" 
 id="svg2">
  <rect x="0" y="0" width="1000" height="1070" stroke-width="2" stroke="white" fill="white"/>
  <text x="12.5" y="30"
   font-family="Arial" font-size="25" fill="black" >
   Current time: 0 days, 5 hours, and 0.00 minutes, z = 0.00 &#956;m
  </text>
  <text x="12.5" y="57.5"
   font-family="Arial" font-size="23.75" fill="black" >
   88 agents
  </text>
 <g id="tissue" 
    transform="translate(0,1070) scale(1,-1)">
  <g id="ECM">
  </g>
  <g id="cells">
   <g id="cell0">
  <circle cx="513.221" cy="530.82" r="8.41271" stroke-width="0.5" stroke="black" fill="magenta"/>
  <circle cx="513.221" cy="530.82" r="5.05167" stroke-width="0.5" stroke="black" fill="magenta"/>
   </g>
   <g id="cell1">
  <circle cx="604.143" cy="530.32" r="8.41271" stroke-width="0.5" stroke="black" fill="magenta"/>
  <circle cx="604.143" cy="530.32" r="5.05167" stroke-width="0.5" stroke="black" fill="magenta"/>
   </g>
   <g id="cell2">
  <circle cx="510.549" cy="600.83" r="8.41271" stroke-width="0.5" stroke="black" fill="magenta"/>
  <circle cx="510.549" cy="600.83" r="5.05167" stroke-width="0.5" stroke="black" fill="magenta"/>
   </g>
   <g id="cell3">
  <circle cx="532.518" cy="545.745" r="8.41271" stroke-width="0.5" stroke="black" fill="magenta"/>
  <circle cx="532.518" cy="545.745" r="5.05167" stroke-width="0.5" stroke="black" fill="magenta"/>
   </g>
   <g id="cell4">
  <circle cx="481.375" cy="439.864" r="8.41271" stroke-width="0.5" stroke="black" fill="magenta"/>
  <circle cx="481.375" cy="439.864" r="5.05167" stroke-width="0.5" stroke="black" fill="magenta"/>
   </g>
   <g id="cell5">
  <circle cx="465.032" cy="493.3" r="8.41271" stroke-width="0.5" stroke="black" fill="magenta"/>
  <circle cx="465.032" cy="493.3" r="5.05167" stroke-width="0.5" stroke="black" fill="magenta"/>
   </g>
   <g id="cell6">
  <circle cx="592.39" cy="513.111" r="7.81315" stroke-width="0.5" stroke="black" fill="magenta"/>
  <circle cx="592.39" cy="513.111" r="4.74367" stroke-width="0.5" stroke="black" fill="magenta"/>
   </g>
   <g id="cell7">
  <circle cx="512.362" cy="464.87" r="8.41271" stroke-width="0.5" stroke="black" fill="magenta"/>
  <circle cx="512.362" cy="464.87" r="5.05167" stroke-width="0.5" stroke="black" fill="magenta"/>
   </g>
   <g id="cell8">
  <circle cx="376.09" cy="544.456" r="8.41271" stroke-width="0.5" stroke="black" fill="magenta"/>
  <circle cx="376.09" cy="544.456" r="5.05167" stroke-width="0.5" stroke="black" fill="magenta"/>
   </g>
   <g id="cell9">
  <circle cx="464.622" cy="595.752" r="7.51976" stroke-width="0.5" stroke="black" fill="magenta"/>
  <circle cx="464.622" cy="595.752" r="4.57072" stroke-width="0.5" stroke="black" fill="magenta"/>
   </g>
   <g id="cell10">
  <circle cx="583.447" cy="392.105" r="8.41271" stroke-width="0.5" stroke="black" fill="magenta"/>
  <circle cx="583.447" cy="392.105" r="5.05167" stroke-width="0.5" stroke="black" fill="magenta"/>
   </g>
   <g id="cell11">
  <circle cx="588.95" cy="586.034" r="6.75639" stroke-width="0.5" stroke="black" fill="magenta"/>
  <circle cx="588.95" cy="586.034" r="4.06813" stroke-width="0.5" stroke="black" fill="magenta"/>
   </g>
   <g id="cell12">
  <circle cx="506.413" cy="585.344" r="8.41271" stroke-width="0.5" stroke="black" fill="magenta"/>
  <circle cx="506.413" cy="585.344" r="5.05167" stroke-width="0.5" stroke="black" fill="magenta"/>
   </g>
   <g id="cell13">
  <circle cx="391.045" cy="567.731" r="7.67987" stroke-width="0.5" stroke="black" fill="magenta"/>
  <circle cx="391.045" cy="567.731" r="4.66617" stroke-width="0.5" stroke="black" fill="magenta"/>
   </g>
   <g id="cell14">
  <circle cx="529.123" cy="395.711" r="2.91074" stroke-width="0.5" stroke="black" fill="magenta"/>
  <circle cx="529.123" cy="395.711" r="2.42562" stroke-width="0.5" stroke="black" fill="black"/>
   </g>
   <g id="cell15">
  <circle cx="379.909" cy="475.012" r="8.41271" stroke-width="0.5" stroke="black" fill="magenta"/>
  <circle cx="379.909" cy="475.012" r="5.05167" stroke-width="0.5" stroke="black" fill="magenta"/>
   </g>
   <g id="cell16">
  <circle cx="428.948" cy="413.428" r="8.41271" stroke-width="0.5" stroke="black" fill="magenta"/>
  <circle cx="428.948" cy="413.428" r="5.05167" stroke-width="0.5" stroke="black" fill="magenta"/>
   </g>
   <g id="cell17">
  <circle cx="572.203" cy="490.831" r="8.41271" stroke-width="0.5" stroke="black" fill="magenta"/>
  <circle cx="572.203" cy="490.831" r="5.05167" stroke-width="0.5" stroke="black" fill="magenta"/>
   </g>
   <g id="cell18">
  <circle cx="516.013" cy="387.86" r="8.41271" stroke-width="0.5" stroke="black" fill="magenta"/>
  <circle cx="516.013" cy="387.86" r="5.05167" stroke-width="0.5" stroke="black" fill="magenta"/>
   </g>
   <g id="cell19">
  <circle cx="451.894" cy="539.462" r="8.41271" stroke-width="0.5" stroke="black" fill="magenta"/>
  <circle cx="451.894" cy="539.462" r="5.05167" stroke-width="0.5" stroke="black" fill="magenta"/>
   </g>
   <g id="cell20">
  <circle cx="532.645" cy="417.706" r="8.41271" stroke-width="0.5" stroke="black" fill="magenta"/>
  <circle cx="532.645" cy="417.706" r="5.05167" stroke-width="0.5" stroke="black" fill="magenta"/>
   </g>
   <g id="cell21">
  <circle cx="464.212" cy="634.718" r="8.41271" stroke-width="0.5" stroke="black" fill="magenta"/>
  <circle cx="464.212" cy="634.718" r="5.05167" stroke-width="0.5" stroke="black" fill="magenta"/>
   </g>
   <g id="cell22">
  <circle cx="556.376" cy="493.348" r="8.41271" stroke-width="0.5" stroke="black" fill="magenta"/>
  <circle cx="556.376" cy="493.348" r="5.05167" stroke-width="0.5" stroke="black" fill="magenta"/>
   </g>
   <g id="cell23">
  <circle cx="535.814" cy="483.271" r="8.41271" stroke-width="0.5" stroke="black" fill="magenta"/>
  <circle cx="535.814" cy="483.271" r="5.05167" stroke-width="0.5" stroke="black" fill="magenta"/>
   </g>
   <g id="cell24">
  <circle cx="559.289" cy="379.784" r="7.00193" stroke-width="0.5" stroke="black" fill="magenta"/>
  <circle cx="559.289" cy="379.784" r="4.27611" stroke-width="0.5" stroke="black" fill="black"/>
   </g>
   <g id="cell25">
  <circle cx="637.109" cy="555.62" r="7.75912" stroke-width="0.5" stroke="black" fill="green"/>
  <circle cx="637.109" cy="555.62" r="4.71248" stroke-width="0.5" stroke="black" fill="green"/>
   </g>
   <g id="cell26">
  <circle cx="551.191" cy="401.273" r="8.41271" stroke-width="0.5" stroke="black" fill="green"/>
  <circle cx="551.191" cy="401.273" r="5.05167" stroke-width="0.5" stroke="black" fill="green"/>
   </g>
   <g id="cell27">
  <circle cx="457.446" cy="388.678" r="8.41271" stroke-width="0.5" stroke="black" fill="green"/>
  <circle cx="457.446" cy="388.678" r="5.05167" stroke-width="0.5" stroke="black" fill="green"/>
   </g>
   <g id="cell28">
  <circle cx="438.497" cy="530.67" r="8.41271" stroke-width="0.5" stroke="black" fill="green"/>
  <circle cx="438.497" cy="530.67" r="5.05167" stroke-width="0.5" stroke="black" fill="green"/>
   </g>
   <g id="cell29">
  <circle cx="449.03" cy="518.594" r="8.41271" stroke-width="0.5" stroke="black" fill="green"/>
  <circle cx="449.03" cy="518.594" r="5.05167" stroke-width="0.5" stroke="black" fill="green"/>
   </g>
   <g id="cell30">
  <circle cx="481.58" cy="540.282" r="8.41271" stroke-width="0.5" stroke="black" fill="green"/>
  <circle cx="481.58" cy="540.282" r="5.05167" stroke-width="0.5" stroke="black" fill="green"/>
   </g>
   <g id="cell31">
  <circle cx="412.757" cy="541.193" r="8.41271" stroke-width="0.5" stroke="black" fill="green"/>
  <circle cx="412.757" cy="541.193" r="5.05167" stroke-width="0.5" stroke="black" fill="green"/>
   </g>
   <g id="cell32">
  <circle cx="425.371" cy="474.829" r="8.41271" stroke-width="0.5" stroke="black" fill="green"/>
  <circle cx="425.371" cy="474.829" r="5.05167" stroke-width="0.5" stroke="black" fill="green"/>
   </g>
   <g id="cell33">
  <circle cx="494.146" cy="423.183" r="8.41271" stroke-width="0.5" stroke="black" fill="green"/>
  <circle cx="494.146" cy="423.183" r="5.05167" stroke-width="0.5" stroke="black" fill="green"/>
   </g>
   <g id="cell34">
  <circle cx="397.088" cy="450.831" r="8.41271" stroke-width="0.5" stroke="black" fill="green"/>
  <circle cx="397.088" cy="450.831" r="5.05167" stroke-width="0.5" stroke="black" fill="green"/>
   </g>
   <g id="cell35">
  <circle cx="548.477" cy="544.379" r="8.41271" stroke-width="0.5" stroke="black" fill="green"/>
  <circle cx="548.477" cy="544.379" r="5.05167" stroke-width="0.5" stroke="black" fill="green"/>
   </g>
   <g id="cell36">
  <circle cx="391.639" cy="582.987" r="8.41271" stroke-width="0.5" stroke="black" fill="green"/>
  <circle cx="391.639" cy="582.987" r="5.05167" stroke-width="0.5" stroke="black" fill="green"/>
   </g>
   <g id="cell37">
  <circle cx="634.871" cy="460.618" r="8.41271" stroke-width="0.5" stroke="black" fill="green"/>
  <circle cx="634.871" cy="460.618" r="5.05167" stroke-width="0.5" stroke="black" fill="green"/>
   </g>
   <g id="cell38">
  <circle cx="538.027" cy="611.322" r="7.67987" stroke-width="0.5" stroke="black" fill="green"/>
  <circle cx="538.027" cy="611.322" r="4.66617" stroke-width="0.5" stroke="black" fill="green"/>
   </g>
   <g id="cell39">
  <circle cx="613.398" cy="490.666" r="8.41271" stroke-width="0.5" stroke="black" fill="green"/>
  <circle cx="613.398" cy="490.666" r="5.05167" stroke-width="0.5" stroke="black" fill="green"/>
   </g>
   <g id="cell40">
  <circle cx="482.899" cy="567.583" r="6.92764" stroke-width="0.5" stroke="black" fill="green"/>
  <circle cx="482.899" cy="567.583" r="4.1918" stroke-width="0.5" stroke="black" fill="green"/>
   </g>
   <g id="cell41">
  <circle cx="364.746" cy="480.245" r="8.41271" stroke-width="0.5" stroke="black" fill="green"/>
  <circle cx="364.746" cy="480.245" r="5.05167" stroke-width="0.5" stroke="black" fill="green"/>
   </g>
   <g id="cell42">
  <circle cx="438.842" cy="494.268" r="8.41271" stroke-width="0.5" stroke="black" fill="green"/>
  <circle cx="438.842" cy="494.268" r="5.05167" stroke-width="0.5" stroke="black" fill="green"/>
   </g>
   <g id="cell43">
  <circle cx="557.899" cy="445.575" r="8.41271" stroke-width="0.5" stroke="black" fill="green"/>
  <circle cx="557.899" cy="445.575" r="5.05167" stroke-width="0.5" stroke="black" fill="green"/>
   </g>
   <g id="cell44">
  <circle cx="476.013" cy="623.877" r="8.41271" stroke-width="0.5" stroke="black" fill="green"/>
  <circle cx="476.013" cy="623.877" r="5.05167" stroke-width="0.5" stroke="black" fill="green"/>
   </g>
   <g id="cell45">
  <circle cx="414.953" cy="557.066" r="8.41271" stroke-width="0.5" stroke="black" fill="green"/>
  <circle cx="414.953" cy="557.066" r="5.05167" stroke-width="0.5" stroke="black" fill="green"/>
   </g>
   <g id="cell46">
  <circle cx="522.728" cy="611.232" r="8.41271" stroke-width="0.5" stroke="black" fill="green"/>
  <circle cx="522.728" cy="611.232" r="5.05167" stroke-width="0.5" stroke="black" fill="green"/>
   </g>
   <g id="cell47">
  <circle cx="496.729" cy="507.792" r="7.7401" stroke-width="0.5" stroke="black" fill="green"/>
  <circle cx="496.729" cy="507.792" r="4.70142" stroke-width="0.5" stroke="black" fill="green"/>
   </g>
   <g id="cell48">
  <circle cx="564.143" cy="603.12" r="8.41271" stroke-width="0.5" stroke="black" fill="green"/>
  <circle cx="564.143" cy="603.12" r="5.05167" stroke-width="0.5" stroke="black" fill="green"/>
   </g>
   <g id="cell49">
  <circle cx="429.837" cy="397.429" r="8.41271" stroke-width="0.5" stroke="black" fill="green"/>
  <circle cx="429.837" cy="397.429" r="5.05167" stroke-width="0.5" stroke="black" fill="green"/>
   </g>
   <g id="cell50">
  <circle cx="520.195" cy="516.416" r="8.41271" stroke-width="0.5" stroke="black" fill="cyan"/>
  <circle cx="520.195" cy="516.416" r="5.05167" stroke-width="0.5" stroke="black" fill="cyan"/>
   </g>
   <g id="cell51">
  <circle cx="401.976" cy="593.835" r="7.38797" stroke-width="0.5" stroke="black" fill="cyan"/>
  <circle cx="401.976" cy="593.835" r="4.49029" stroke-width="0.5" stroke="black" fill="cyan"/>
   </g>
   <g id="cell52">
  <circle cx="521.729" cy="429.439" r="8.41271" stroke-width="0.5" stroke="black" fill="cyan"/>
  <circle cx="521.729" cy="429.439" r="5.05167" stroke-width="0.5" stroke="black" fill="cyan"/>
   </g>
   <g id="cell53">
  <circle cx="570.946" cy="436.255" r="8.41271" stroke-width="0.5" stroke="black" fill="cyan"/>
  <circle cx="570.946" cy="436.255" r="5.05167" stroke-width="0.5" stroke="black" fill="cyan"/>
   </g>
   <g id="cell54">
  <circle cx="478.152" cy="424.167" r="8.41271" stroke-width="0.5" stroke="black" fill="cyan"/>
  <circle cx="478.152" cy="424.167" r="5.05167" stroke-width="0.5" stroke="black" fill="cyan"/>
   </g>
   <g id="cell55">
  <circle cx="527.723" cy="469.445" r="8.41271" stroke-width="0.5" stroke="black" fill="cyan"/>
  <circle cx="527.723" cy="469.445" r="5.05167" stroke-width="0.5" stroke="black" fill="cyan"/>
   </g>
   <g id="cell56">
  <circle cx="617.948" cy="522.184" r="8.41271" stroke-width="0.5" stroke="black" fill="cyan"/>
  <circle cx="617.948" cy="522.184" r="5.05167" stroke-width="0.5" stroke="black" fill="cyan"/>
   </g>
   <g id="cell57">
  <circle cx="416.924" cy="617.466" r="8.41271" stroke-width="0.5" stroke="black" fill="cyan"/>
  <circle cx="416.924" cy="617.466" r="5.05167" stroke-width="0.5" stroke="black" fill="cyan"/>
   </g>
   <g id="cell58">
  <circle cx="551.015" cy="478.227" r="8.41271" stroke-width="0.5" stroke="black" fill="cyan"/>
  <circle cx="551.015" cy="478.227" r="5.05167" stroke-width="0.5" stroke="black" fill="cyan"/>
   </g>
   <g id="cell59">
  <circle cx="385.463" cy="439.803" r="8.41271" stroke-width="0.5" stroke="black" fill="cyan"/>
  <circle cx="385.463" cy="439.803" r="5.05167" stroke-width="0.5" stroke="black" fill="cyan"/>
   </g>
   <g id="cell60">
  <circle cx="600.403" cy="473.403" r="7.18097" stroke-width="0.5" stroke="black" fill="cyan"/>
  <circle cx="600.403" cy="473.403" r="4.36015" stroke-width="0.5" stroke="black" fill="cyan"/>
   </g>
   <g id="cell61">
  <circle cx="552.376" cy="613.284" r="4.23297" stroke-width="0.5" stroke="black" fill="cyan"/>
  <circle cx="552.376" cy="613.284" r="2.99316" stroke-width="0.5" stroke="black" fill="black"/>
   </g>
   <g id="cell62">
  <circle cx="526.46" cy="444.755" r="8.41271" stroke-width="0.5" stroke="black" fill="cyan"/>
  <circle cx="526.46" cy="444.755" r="5.05167" stroke-width="0.5" stroke="black" fill="cyan"/>
   </g>
   <g id="cell63">
  <circle cx="577.853" cy="546.416" r="8.41271" stroke-width="0.5" stroke="black" fill="cyan"/>
  <circle cx="577.853" cy="546.416" r="5.05167" stroke-width="0.5" stroke="black" fill="cyan"/>
   </g>
   <g id="cell64">
  <circle cx="509.962" cy="636.825" r="8.41271" stroke-width="0.5" stroke="black" fill="cyan"/>
  <circle cx="509.962" cy="636.825" r="5.05167" stroke-width="0.5" stroke="black" fill="cyan"/>
   </g>
   <g id="cell65">
  <circle cx="542.927" cy="464.363" r="8.41271" stroke-width="0.5" stroke="black" fill="cyan"/>
  <circle cx="542.927" cy="464.363" r="5.05167" stroke-width="0.5" stroke="black" fill="cyan"/>
   </g>
   <g id="cell66">
  <circle cx="535.939" cy="530.1" r="8.41271" stroke-width="0.5" stroke="black" fill="cyan"/>
  <circle cx="535.939" cy="530.1" r="5.05167" stroke-width="0.5" stroke="black" fill="cyan"/>
   </g>
   <g id="cell67">
  <circle cx="354.632" cy="492.694" r="8.41271" stroke-width="0.5" stroke="black" fill="cyan"/>
  <circle cx="354.632" cy="492.694" r="5.05167" stroke-width="0.5" stroke="black" fill="cyan"/>
   </g>
   <g id="cell68">
  <circle cx="562.737" cy="551.77" r="8.41271" stroke-width="0.5" stroke="black" fill="cyan"/>
  <circle cx="562.737" cy="551.77" r="5.05167" stroke-width="0.5" stroke="black" fill="cyan"/>
   </g>
   <g id="cell69">
  <circle cx="437.64" cy="464.521" r="8.41271" stroke-width="0.5" stroke="black" fill="cyan"/>
  <circle cx="437.64" cy="464.521" r="5.05167" stroke-width="0.5" stroke="black" fill="cyan"/>
   </g>
   <g id="cell70">
  <circle cx="572.146" cy="474.813" r="8.41271" stroke-width="0.5" stroke="black" fill="cyan"/>
  <circle cx="572.146" cy="474.813" r="5.05167" stroke-width="0.5" stroke="black" fill="cyan"/>
   </g>
   <g id="cell71">
  <circle cx="377.712" cy="520.989" r="8.41271" stroke-width="0.5" stroke="black" fill="cyan"/>
  <circle cx="377.712" cy="520.989" r="5.05167" stroke-width="0.5" stroke="black" fill="cyan"/>
   </g>
   <g id="cell72">
  <circle cx="536.021" cy="514.05" r="8.41271" stroke-width="0.5" stroke="black" fill="cyan"/>
  <circle cx="536.021" cy="514.05" r="5.05167" stroke-width="0.5" stroke="black" fill="cyan"/>
   </g>
   <g id="cell73">
  <circle cx="360.136" cy="545.956" r="8.41271" stroke-width="0.5" stroke="black" fill="cyan"/>
  <circle cx="360.136" cy="545.956" r="5.05167" stroke-width="0.5" stroke="black" fill="cyan"/>
   </g>
   <g id="cell74">
  <circle cx="542.097" cy="448.332" r="8.41271" stroke-width="0.5" stroke="black" fill="cyan"/>
  <circle cx="542.097" cy="448.332" r="5.05167" stroke-width="0.5" stroke="black" fill="cyan"/>
   </g>
   <g id="cell75">
  <circle cx="592.476" cy="498.012" r="6.45391" stroke-width="0.5" stroke="black" fill="magenta"/>
  <circle cx="592.476" cy="498.012" r="3.94252" stroke-width="0.5" stroke="black" fill="magenta"/>
   </g>
   <g id="cell76">
  <circle cx="645.445" cy="543.465" r="7.75912" stroke-width="0.5" stroke="black" fill="green"/>
  <circle cx="645.445" cy="543.465" r="4.71248" stroke-width="0.5" stroke="black" fill="green"/>
   </g>
   <g id="cell77">
  <circle cx="510.966" cy="504.165" r="7.7401" stroke-width="0.5" stroke="black" fill="green"/>
  <circle cx="510.966" cy="504.165" r="4.70142" stroke-width="0.5" stroke="black" fill="green"/>
   </g>
   <g id="cell78">
  <circle cx="376.53" cy="566.363" r="7.67987" stroke-width="0.5" stroke="black" fill="magenta"/>
  <circle cx="376.53" cy="566.363" r="4.66617" stroke-width="0.5" stroke="black" fill="magenta"/>
   </g>
   <g id="cell79">
  <circle cx="535.166" cy="587.432" r="5.59972" stroke-width="0.5" stroke="black" fill="green"/>
  <circle cx="535.166" cy="587.432" r="3.45255" stroke-width="0.5" stroke="black" fill="green"/>
   </g>
   <g id="cell80">
  <circle cx="454.388" cy="605.7" r="7.51976" stroke-width="0.5" stroke="black" fill="magenta"/>
  <circle cx="454.388" cy="605.7" r="4.57072" stroke-width="0.5" stroke="black" fill="magenta"/>
   </g>
   <g id="cell81">
  <circle cx="393.698" cy="605.14" r="7.38797" stroke-width="0.5" stroke="black" fill="cyan"/>
  <circle cx="393.698" cy="605.14" r="4.49029" stroke-width="0.5" stroke="black" fill="cyan"/>
   </g>
   <g id="cell82">
  <circle cx="586.831" cy="473.453" r="7.18097" stroke-width="0.5" stroke="black" fill="cyan"/>
  <circle cx="586.831" cy="473.453" r="4.36015" stroke-width="0.5" stroke="black" fill="cyan"/>
   </g>
   <g id="cell83">
  <circle cx="540.058" cy="597.914" r="6.68746" stroke-width="0.5" stroke="black" fill="green"/>
  <circle cx="540.058" cy="597.914" r="4.10021" stroke-width="0.5" stroke="black" fill="green"/>
   </g>
   <g id="cell84">
  <circle cx="489.553" cy="578.926" r="6.92764" stroke-width="0.5" stroke="black" fill="green"/>
  <circle cx="489.553" cy="578.926" r="4.1918" stroke-width="0.5" stroke="black" fill="green"/>
   </g>
   <g id="cell85">
  <circle cx="602.832" cy="504.447" r="6.45391" stroke-width="0.5" stroke="black" fill="magenta"/>
  <circle cx="602.832" cy="504.447" r="3.94252" stroke-width="0.5" stroke="black" fill="magenta"/>
   </g>
   <g id="cell86">
  <circle cx="527.546" cy="594.758" r="5.59972" stroke-width="0.5" stroke="black" fill="green"/>
  <circle cx="527.546" cy="594.758" r="3.45255" stroke-width="0.5" stroke="black" fill="green"/>
   </g>
   <g id="cell87">
  <circle cx="591.322" cy="598.644" r="6.75639" stroke-width="0.5" stroke="black" fill="magenta"/>
  <circle cx="591.322" cy="598.644" r="4.06813" stroke-width="0.5" stroke="black" fill="magenta"/>
   </g>
  </g>
 </g>
  <rect x="775" y="1035" width="200" height="10" stroke-width="2" stroke="rgb(255,255,255)" fill="rgb(0,0,0)"/>
  <text x="781.25" y="1028.75"
   font-family="Arial" font-size="25" fill="black" >
   200 &#956;m
  </text>
  <text x="25" y="1045"
   font-family="Arial" font-size="18.75" fill="black" >
   0 days, 0 hours, 0 minutes, and 6.6357 seconds
  </text>
  <rect x="0" y="70" width="1000" height="1000" stroke-width="2" stroke="rgb(0,0,0)" fill="none"/>
</svg>
