<?xml version="1.0" encoding="UTF-8" standalone="no"?>
<!-- Created with PhysiCell (http://PhysiCell.MathCancer.org/) -->
<svg 
 xmlns:dc="http://purl.org/dc/elements/1.1/" 
 xmlns:cc="http://creativecommons.org/ns#" 
 xmlns:rdf="http://www.w3.org/1999/02/22-rdf-syntax-ns#" 
 xmlns:svg="http://www.w3.org/2000/svg" 
 xmlns="http://www.w3.org/2000/svg" 
 version="1.1" 
 width="1000" 
 height="1070" 
 id="svg2">
  <rect x="0" y="0" width="1000" height="1070" stroke-width="2" stroke="white" fill="white"/>
  <text x="12.5" y="30"
   font-family="Arial" font-size="25" fill="black" >
   Current time: 0 days, 10 hours, and 0.00 minutes, z = 0.00 &#956;m
  </text>
  <text x="12.5" y="57.5"
   font-family="Arial" font-size="23.75" fill="black" >
   108 agents
  </text>
 <g id="tissue" 
    transform="translate(0,1070) scale(1,-1)">
  <g id="ECM">
  </g>
  <g id="cells">
   <g id="cell0">
  <circle cx="513.146" cy="530.972" r="8.41271" stroke-width="0.5" stroke="black" fill="magenta"/>
  <circle cx="513.146" cy="530.972" r="5.05167" stroke-width="0.5" stroke="black" fill="magenta"/>
   </g>
   <g id="cell1">
  <circle cx="601.83" cy="532.511" r="8.41271" stroke-width="0.5" stroke="black" fill="magenta"/>
  <circle cx="601.83" cy="532.511" r="5.05167" stroke-width="0.5" stroke="black" fill="magenta"/>
   </g>
   <g id="cell2">
  <circle cx="511.153" cy="600.07" r="8.41271" stroke-width="0.5" stroke="black" fill="magenta"/>
  <circle cx="511.153" cy="600.07" r="5.05167" stroke-width="0.5" stroke="black" fill="magenta"/>
   </g>
   <g id="cell3">
  <circle cx="532.309" cy="546.003" r="8.41271" stroke-width="0.5" stroke="black" fill="magenta"/>
  <circle cx="532.309" cy="546.003" r="5.05167" stroke-width="0.5" stroke="black" fill="magenta"/>
   </g>
   <g id="cell4">
  <circle cx="481.375" cy="439.864" r="8.41271" stroke-width="0.5" stroke="black" fill="magenta"/>
  <circle cx="481.375" cy="439.864" r="5.05167" stroke-width="0.5" stroke="black" fill="magenta"/>
   </g>
   <g id="cell5">
  <circle cx="465.032" cy="493.3" r="8.41271" stroke-width="0.5" stroke="black" fill="magenta"/>
  <circle cx="465.032" cy="493.3" r="5.05167" stroke-width="0.5" stroke="black" fill="magenta"/>
   </g>
   <g id="cell6">
  <circle cx="585.712" cy="512.131" r="7.20847" stroke-width="0.5" stroke="black" fill="magenta"/>
  <circle cx="585.712" cy="512.131" r="4.39552" stroke-width="0.5" stroke="black" fill="magenta"/>
   </g>
   <g id="cell7">
  <circle cx="505.801" cy="461.433" r="6.80881" stroke-width="0.5" stroke="black" fill="magenta"/>
  <circle cx="505.801" cy="461.433" r="4.10709" stroke-width="0.5" stroke="black" fill="magenta"/>
   </g>
   <g id="cell8">
  <circle cx="381.364" cy="543.85" r="8.41271" stroke-width="0.5" stroke="black" fill="magenta"/>
  <circle cx="381.364" cy="543.85" r="5.05167" stroke-width="0.5" stroke="black" fill="magenta"/>
   </g>
   <g id="cell9">
  <circle cx="465.1" cy="595.287" r="8.20088" stroke-width="0.5" stroke="black" fill="magenta"/>
  <circle cx="465.1" cy="595.287" r="4.95562" stroke-width="0.5" stroke="black" fill="magenta"/>
   </g>
   <g id="cell10">
  <circle cx="583.447" cy="392.105" r="8.41271" stroke-width="0.5" stroke="black" fill="magenta"/>
  <circle cx="583.447" cy="392.105" r="5.05167" stroke-width="0.5" stroke="black" fill="magenta"/>
   </g>
   <g id="cell11">
  <circle cx="594.648" cy="584.814" r="7.1011" stroke-width="0.5" stroke="black" fill="magenta"/>
  <circle cx="594.648" cy="584.814" r="4.34682" stroke-width="0.5" stroke="black" fill="magenta"/>
   </g>
   <g id="cell12">
  <circle cx="505.528" cy="585.077" r="8.41271" stroke-width="0.5" stroke="black" fill="magenta"/>
  <circle cx="505.528" cy="585.077" r="5.05167" stroke-width="0.5" stroke="black" fill="magenta"/>
   </g>
   <g id="cell13">
  <circle cx="393.879" cy="567.827" r="8.23948" stroke-width="0.5" stroke="black" fill="magenta"/>
  <circle cx="393.879" cy="567.827" r="4.97503" stroke-width="0.5" stroke="black" fill="magenta"/>
   </g>
   <g id="cell14">
  <circle cx="529.123" cy="395.711" r="1.34721" stroke-width="0.5" stroke="black" fill="magenta"/>
  <circle cx="529.123" cy="395.711" r="1.33735" stroke-width="0.5" stroke="black" fill="black"/>
   </g>
   <g id="cell15">
  <circle cx="379.896" cy="475.017" r="8.41271" stroke-width="0.5" stroke="black" fill="magenta"/>
  <circle cx="379.896" cy="475.017" r="5.05167" stroke-width="0.5" stroke="black" fill="magenta"/>
   </g>
   <g id="cell16">
  <circle cx="427.426" cy="418.971" r="6.69288" stroke-width="0.5" stroke="black" fill="magenta"/>
  <circle cx="427.426" cy="418.971" r="4.02051" stroke-width="0.5" stroke="black" fill="magenta"/>
   </g>
   <g id="cell17">
  <circle cx="572.253" cy="491.582" r="8.41271" stroke-width="0.5" stroke="black" fill="magenta"/>
  <circle cx="572.253" cy="491.582" r="5.05167" stroke-width="0.5" stroke="black" fill="magenta"/>
   </g>
   <g id="cell18">
  <circle cx="516.013" cy="387.86" r="8.41271" stroke-width="0.5" stroke="black" fill="magenta"/>
  <circle cx="516.013" cy="387.86" r="5.05167" stroke-width="0.5" stroke="black" fill="magenta"/>
   </g>
   <g id="cell19">
  <circle cx="453.474" cy="545.595" r="6.99069" stroke-width="0.5" stroke="black" fill="magenta"/>
  <circle cx="453.474" cy="545.595" r="4.23498" stroke-width="0.5" stroke="black" fill="magenta"/>
   </g>
   <g id="cell20">
  <circle cx="532.165" cy="418.009" r="8.41271" stroke-width="0.5" stroke="black" fill="magenta"/>
  <circle cx="532.165" cy="418.009" r="5.05167" stroke-width="0.5" stroke="black" fill="magenta"/>
   </g>
   <g id="cell21">
  <circle cx="464.212" cy="634.718" r="8.41271" stroke-width="0.5" stroke="black" fill="magenta"/>
  <circle cx="464.212" cy="634.718" r="5.05167" stroke-width="0.5" stroke="black" fill="magenta"/>
   </g>
   <g id="cell22">
  <circle cx="556.483" cy="494.152" r="8.41271" stroke-width="0.5" stroke="black" fill="magenta"/>
  <circle cx="556.483" cy="494.152" r="5.05167" stroke-width="0.5" stroke="black" fill="magenta"/>
   </g>
   <g id="cell23">
  <circle cx="534.463" cy="484.544" r="8.41271" stroke-width="0.5" stroke="black" fill="magenta"/>
  <circle cx="534.463" cy="484.544" r="5.05167" stroke-width="0.5" stroke="black" fill="magenta"/>
   </g>
   <g id="cell24">
  <circle cx="559.289" cy="379.784" r="1.76957" stroke-width="0.5" stroke="black" fill="magenta"/>
  <circle cx="559.289" cy="379.784" r="1.71615" stroke-width="0.5" stroke="black" fill="black"/>
   </g>
   <g id="cell25">
  <circle cx="638.445" cy="553.041" r="6.68179" stroke-width="0.5" stroke="black" fill="green"/>
  <circle cx="638.445" cy="553.041" r="4.10914" stroke-width="0.5" stroke="black" fill="green"/>
   </g>
   <g id="cell26">
  <circle cx="556.763" cy="398.782" r="7.81315" stroke-width="0.5" stroke="black" fill="green"/>
  <circle cx="556.763" cy="398.782" r="4.74367" stroke-width="0.5" stroke="black" fill="green"/>
   </g>
   <g id="cell27">
  <circle cx="457.446" cy="388.678" r="8.41271" stroke-width="0.5" stroke="black" fill="green"/>
  <circle cx="457.446" cy="388.678" r="5.05167" stroke-width="0.5" stroke="black" fill="green"/>
   </g>
   <g id="cell28">
  <circle cx="437.231" cy="529.867" r="8.41271" stroke-width="0.5" stroke="black" fill="green"/>
  <circle cx="437.231" cy="529.867" r="5.05167" stroke-width="0.5" stroke="black" fill="green"/>
   </g>
   <g id="cell29">
  <circle cx="448.456" cy="518.324" r="8.41271" stroke-width="0.5" stroke="black" fill="green"/>
  <circle cx="448.456" cy="518.324" r="5.05167" stroke-width="0.5" stroke="black" fill="green"/>
   </g>
   <g id="cell30">
  <circle cx="481.58" cy="540.282" r="1.98761" stroke-width="0.5" stroke="black" fill="green"/>
  <circle cx="481.58" cy="540.282" r="1.8872" stroke-width="0.5" stroke="black" fill="black"/>
   </g>
   <g id="cell31">
  <circle cx="412.757" cy="541.193" r="8.41271" stroke-width="0.5" stroke="black" fill="green"/>
  <circle cx="412.757" cy="541.193" r="5.05167" stroke-width="0.5" stroke="black" fill="green"/>
   </g>
   <g id="cell32">
  <circle cx="423.375" cy="476.93" r="8.41271" stroke-width="0.5" stroke="black" fill="green"/>
  <circle cx="423.375" cy="476.93" r="5.05167" stroke-width="0.5" stroke="black" fill="green"/>
   </g>
   <g id="cell33">
  <circle cx="494.146" cy="423.183" r="8.41271" stroke-width="0.5" stroke="black" fill="green"/>
  <circle cx="494.146" cy="423.183" r="5.05167" stroke-width="0.5" stroke="black" fill="green"/>
   </g>
   <g id="cell34">
  <circle cx="397.088" cy="450.831" r="8.41271" stroke-width="0.5" stroke="black" fill="green"/>
  <circle cx="397.088" cy="450.831" r="5.05167" stroke-width="0.5" stroke="black" fill="green"/>
   </g>
   <g id="cell35">
  <circle cx="548.074" cy="543.089" r="8.41271" stroke-width="0.5" stroke="black" fill="green"/>
  <circle cx="548.074" cy="543.089" r="5.05167" stroke-width="0.5" stroke="black" fill="green"/>
   </g>
   <g id="cell36">
  <circle cx="391.8" cy="583.414" r="8.41271" stroke-width="0.5" stroke="black" fill="green"/>
  <circle cx="391.8" cy="583.414" r="5.05167" stroke-width="0.5" stroke="black" fill="green"/>
   </g>
   <g id="cell37">
  <circle cx="634.871" cy="460.618" r="8.41271" stroke-width="0.5" stroke="black" fill="green"/>
  <circle cx="634.871" cy="460.618" r="5.05167" stroke-width="0.5" stroke="black" fill="green"/>
   </g>
   <g id="cell38">
  <circle cx="538.393" cy="613.362" r="8.23948" stroke-width="0.5" stroke="black" fill="green"/>
  <circle cx="538.393" cy="613.362" r="4.97503" stroke-width="0.5" stroke="black" fill="green"/>
   </g>
   <g id="cell39">
  <circle cx="613.893" cy="489.553" r="8.41271" stroke-width="0.5" stroke="black" fill="green"/>
  <circle cx="613.893" cy="489.553" r="5.05167" stroke-width="0.5" stroke="black" fill="green"/>
   </g>
   <g id="cell40">
  <circle cx="482.541" cy="567.009" r="8.03527" stroke-width="0.5" stroke="black" fill="green"/>
  <circle cx="482.541" cy="567.009" r="4.86813" stroke-width="0.5" stroke="black" fill="green"/>
   </g>
   <g id="cell41">
  <circle cx="364.751" cy="480.251" r="8.41271" stroke-width="0.5" stroke="black" fill="green"/>
  <circle cx="364.751" cy="480.251" r="5.05167" stroke-width="0.5" stroke="black" fill="green"/>
   </g>
   <g id="cell42">
  <circle cx="438.842" cy="494.268" r="8.41271" stroke-width="0.5" stroke="black" fill="green"/>
  <circle cx="438.842" cy="494.268" r="5.05167" stroke-width="0.5" stroke="black" fill="green"/>
   </g>
   <g id="cell43">
  <circle cx="559.76" cy="444.699" r="8.41271" stroke-width="0.5" stroke="black" fill="green"/>
  <circle cx="559.76" cy="444.699" r="5.05167" stroke-width="0.5" stroke="black" fill="green"/>
   </g>
   <g id="cell44">
  <circle cx="476.013" cy="623.877" r="8.41271" stroke-width="0.5" stroke="black" fill="green"/>
  <circle cx="476.013" cy="623.877" r="5.05167" stroke-width="0.5" stroke="black" fill="green"/>
   </g>
   <g id="cell45">
  <circle cx="414.953" cy="557.066" r="8.41271" stroke-width="0.5" stroke="black" fill="green"/>
  <circle cx="414.953" cy="557.066" r="5.05167" stroke-width="0.5" stroke="black" fill="green"/>
   </g>
   <g id="cell46">
  <circle cx="522.669" cy="611.256" r="8.41271" stroke-width="0.5" stroke="black" fill="green"/>
  <circle cx="522.669" cy="611.256" r="5.05167" stroke-width="0.5" stroke="black" fill="green"/>
   </g>
   <g id="cell47">
  <circle cx="496.161" cy="507.945" r="8.25377" stroke-width="0.5" stroke="black" fill="green"/>
  <circle cx="496.161" cy="507.945" r="4.98209" stroke-width="0.5" stroke="black" fill="green"/>
   </g>
   <g id="cell48">
  <circle cx="564.143" cy="603.12" r="8.41271" stroke-width="0.5" stroke="black" fill="green"/>
  <circle cx="564.143" cy="603.12" r="5.05167" stroke-width="0.5" stroke="black" fill="green"/>
   </g>
   <g id="cell49">
  <circle cx="429.422" cy="394.139" r="8.41271" stroke-width="0.5" stroke="black" fill="green"/>
  <circle cx="429.422" cy="394.139" r="5.05167" stroke-width="0.5" stroke="black" fill="green"/>
   </g>
   <g id="cell50">
  <circle cx="520.337" cy="516.659" r="8.41271" stroke-width="0.5" stroke="black" fill="cyan"/>
  <circle cx="520.337" cy="516.659" r="5.05167" stroke-width="0.5" stroke="black" fill="cyan"/>
   </g>
   <g id="cell51">
  <circle cx="405.285" cy="591.666" r="8.16806" stroke-width="0.5" stroke="black" fill="cyan"/>
  <circle cx="405.285" cy="591.666" r="4.93877" stroke-width="0.5" stroke="black" fill="cyan"/>
   </g>
   <g id="cell52">
  <circle cx="521.754" cy="430.332" r="8.41271" stroke-width="0.5" stroke="black" fill="cyan"/>
  <circle cx="521.754" cy="430.332" r="5.05167" stroke-width="0.5" stroke="black" fill="cyan"/>
   </g>
   <g id="cell53">
  <circle cx="573.76" cy="439.878" r="7.11815" stroke-width="0.5" stroke="black" fill="cyan"/>
  <circle cx="573.76" cy="439.878" r="4.31954" stroke-width="0.5" stroke="black" fill="cyan"/>
   </g>
   <g id="cell54">
  <circle cx="478.152" cy="424.167" r="8.41271" stroke-width="0.5" stroke="black" fill="cyan"/>
  <circle cx="478.152" cy="424.167" r="5.05167" stroke-width="0.5" stroke="black" fill="cyan"/>
   </g>
   <g id="cell55">
  <circle cx="530.577" cy="466.637" r="7.0545" stroke-width="0.5" stroke="black" fill="cyan"/>
  <circle cx="530.577" cy="466.637" r="4.27772" stroke-width="0.5" stroke="black" fill="cyan"/>
   </g>
   <g id="cell56">
  <circle cx="625.317" cy="521.687" r="7.44242" stroke-width="0.5" stroke="black" fill="cyan"/>
  <circle cx="625.317" cy="521.687" r="4.52373" stroke-width="0.5" stroke="black" fill="cyan"/>
   </g>
   <g id="cell57">
  <circle cx="416.924" cy="617.466" r="8.41271" stroke-width="0.5" stroke="black" fill="cyan"/>
  <circle cx="416.924" cy="617.466" r="5.05167" stroke-width="0.5" stroke="black" fill="cyan"/>
   </g>
   <g id="cell58">
  <circle cx="549.533" cy="479.852" r="8.41271" stroke-width="0.5" stroke="black" fill="cyan"/>
  <circle cx="549.533" cy="479.852" r="5.05167" stroke-width="0.5" stroke="black" fill="cyan"/>
   </g>
   <g id="cell59">
  <circle cx="385.463" cy="439.803" r="8.41271" stroke-width="0.5" stroke="black" fill="cyan"/>
  <circle cx="385.463" cy="439.803" r="5.05167" stroke-width="0.5" stroke="black" fill="cyan"/>
   </g>
   <g id="cell60">
  <circle cx="604.84" cy="473.055" r="8.11327" stroke-width="0.5" stroke="black" fill="cyan"/>
  <circle cx="604.84" cy="473.055" r="4.91006" stroke-width="0.5" stroke="black" fill="cyan"/>
   </g>
   <g id="cell61">
  <circle cx="552.376" cy="613.284" r="1.58878" stroke-width="0.5" stroke="black" fill="cyan"/>
  <circle cx="552.376" cy="613.284" r="1.56061" stroke-width="0.5" stroke="black" fill="black"/>
   </g>
   <g id="cell62">
  <circle cx="520.982" cy="445.3" r="7.11815" stroke-width="0.5" stroke="black" fill="cyan"/>
  <circle cx="520.982" cy="445.3" r="4.31954" stroke-width="0.5" stroke="black" fill="cyan"/>
   </g>
   <g id="cell63">
  <circle cx="577.464" cy="546.542" r="8.41271" stroke-width="0.5" stroke="black" fill="cyan"/>
  <circle cx="577.464" cy="546.542" r="5.05167" stroke-width="0.5" stroke="black" fill="cyan"/>
   </g>
   <g id="cell64">
  <circle cx="509.962" cy="636.825" r="8.41271" stroke-width="0.5" stroke="black" fill="cyan"/>
  <circle cx="509.962" cy="636.825" r="5.05167" stroke-width="0.5" stroke="black" fill="cyan"/>
   </g>
   <g id="cell65">
  <circle cx="544.96" cy="464.663" r="8.41271" stroke-width="0.5" stroke="black" fill="cyan"/>
  <circle cx="544.96" cy="464.663" r="5.05167" stroke-width="0.5" stroke="black" fill="cyan"/>
   </g>
   <g id="cell66">
  <circle cx="537.587" cy="530.875" r="8.41271" stroke-width="0.5" stroke="black" fill="cyan"/>
  <circle cx="537.587" cy="530.875" r="5.05167" stroke-width="0.5" stroke="black" fill="cyan"/>
   </g>
   <g id="cell67">
  <circle cx="354.64" cy="492.683" r="8.41271" stroke-width="0.5" stroke="black" fill="cyan"/>
  <circle cx="354.64" cy="492.683" r="5.05167" stroke-width="0.5" stroke="black" fill="cyan"/>
   </g>
   <g id="cell68">
  <circle cx="562.057" cy="551.057" r="8.41271" stroke-width="0.5" stroke="black" fill="cyan"/>
  <circle cx="562.057" cy="551.057" r="5.05167" stroke-width="0.5" stroke="black" fill="cyan"/>
   </g>
   <g id="cell69">
  <circle cx="442.091" cy="461.657" r="6.67717" stroke-width="0.5" stroke="black" fill="cyan"/>
  <circle cx="442.091" cy="461.657" r="4.00951" stroke-width="0.5" stroke="black" fill="cyan"/>
   </g>
   <g id="cell70">
  <circle cx="576.575" cy="476.963" r="7.70049" stroke-width="0.5" stroke="black" fill="cyan"/>
  <circle cx="576.575" cy="476.963" r="4.67828" stroke-width="0.5" stroke="black" fill="cyan"/>
   </g>
   <g id="cell71">
  <circle cx="377.712" cy="520.989" r="8.41271" stroke-width="0.5" stroke="black" fill="cyan"/>
  <circle cx="377.712" cy="520.989" r="5.05167" stroke-width="0.5" stroke="black" fill="cyan"/>
   </g>
   <g id="cell72">
  <circle cx="536.255" cy="514.865" r="8.41271" stroke-width="0.5" stroke="black" fill="cyan"/>
  <circle cx="536.255" cy="514.865" r="5.05167" stroke-width="0.5" stroke="black" fill="cyan"/>
   </g>
   <g id="cell73">
  <circle cx="352.508" cy="547.383" r="7.51976" stroke-width="0.5" stroke="black" fill="cyan"/>
  <circle cx="352.508" cy="547.383" r="4.57072" stroke-width="0.5" stroke="black" fill="cyan"/>
   </g>
   <g id="cell74">
  <circle cx="544.355" cy="448.832" r="8.41271" stroke-width="0.5" stroke="black" fill="cyan"/>
  <circle cx="544.355" cy="448.832" r="5.05167" stroke-width="0.5" stroke="black" fill="cyan"/>
   </g>
   <g id="cell75">
  <circle cx="590.955" cy="498.712" r="7.94684" stroke-width="0.5" stroke="black" fill="magenta"/>
  <circle cx="590.955" cy="498.712" r="4.82845" stroke-width="0.5" stroke="black" fill="magenta"/>
   </g>
   <g id="cell76">
  <circle cx="646.81" cy="541.724" r="8.25826" stroke-width="0.5" stroke="black" fill="green"/>
  <circle cx="646.81" cy="541.724" r="4.98429" stroke-width="0.5" stroke="black" fill="green"/>
   </g>
   <g id="cell77">
  <circle cx="511.269" cy="503.646" r="8.25377" stroke-width="0.5" stroke="black" fill="green"/>
  <circle cx="511.269" cy="503.646" r="4.98209" stroke-width="0.5" stroke="black" fill="green"/>
   </g>
   <g id="cell78">
  <circle cx="371.858" cy="570.206" r="7.74799" stroke-width="0.5" stroke="black" fill="magenta"/>
  <circle cx="371.858" cy="570.206" r="4.71873" stroke-width="0.5" stroke="black" fill="magenta"/>
   </g>
   <g id="cell79">
  <circle cx="534.851" cy="584.366" r="7.80123" stroke-width="0.5" stroke="black" fill="green"/>
  <circle cx="534.851" cy="584.366" r="4.75691" stroke-width="0.5" stroke="black" fill="green"/>
   </g>
   <g id="cell80">
  <circle cx="453.91" cy="606.165" r="8.20088" stroke-width="0.5" stroke="black" fill="magenta"/>
  <circle cx="453.91" cy="606.165" r="4.95562" stroke-width="0.5" stroke="black" fill="magenta"/>
   </g>
   <g id="cell81">
  <circle cx="392.972" cy="612.59" r="6.94819" stroke-width="0.5" stroke="black" fill="cyan"/>
  <circle cx="392.972" cy="612.59" r="4.23989" stroke-width="0.5" stroke="black" fill="cyan"/>
   </g>
   <g id="cell82">
  <circle cx="586.314" cy="466.846" r="7.1957" stroke-width="0.5" stroke="black" fill="cyan"/>
  <circle cx="586.314" cy="466.846" r="4.39819" stroke-width="0.5" stroke="black" fill="cyan"/>
   </g>
   <g id="cell83">
  <circle cx="540.954" cy="598.123" r="8.021" stroke-width="0.5" stroke="black" fill="green"/>
  <circle cx="540.954" cy="598.123" r="4.86908" stroke-width="0.5" stroke="black" fill="green"/>
   </g>
   <g id="cell84">
  <circle cx="490.809" cy="579.836" r="8.03527" stroke-width="0.5" stroke="black" fill="green"/>
  <circle cx="490.809" cy="579.836" r="4.86813" stroke-width="0.5" stroke="black" fill="green"/>
   </g>
   <g id="cell85">
  <circle cx="605.541" cy="502.633" r="7.94684" stroke-width="0.5" stroke="black" fill="magenta"/>
  <circle cx="605.541" cy="502.633" r="4.82845" stroke-width="0.5" stroke="black" fill="magenta"/>
   </g>
   <g id="cell86">
  <circle cx="526.041" cy="596.241" r="7.80123" stroke-width="0.5" stroke="black" fill="green"/>
  <circle cx="526.041" cy="596.241" r="4.75691" stroke-width="0.5" stroke="black" fill="green"/>
   </g>
   <g id="cell87">
  <circle cx="590.778" cy="598.528" r="7.96365" stroke-width="0.5" stroke="black" fill="magenta"/>
  <circle cx="590.778" cy="598.528" r="4.82873" stroke-width="0.5" stroke="black" fill="magenta"/>
   </g>
   <g id="cell88">
  <circle cx="381.494" cy="559.142" r="7.74799" stroke-width="0.5" stroke="black" fill="magenta"/>
  <circle cx="381.494" cy="559.142" r="4.71873" stroke-width="0.5" stroke="black" fill="magenta"/>
   </g>
   <g id="cell89">
  <circle cx="545.588" cy="411.364" r="7.2823" stroke-width="0.5" stroke="black" fill="green"/>
  <circle cx="545.588" cy="411.364" r="4.45841" stroke-width="0.5" stroke="black" fill="green"/>
   </g>
   <g id="cell90">
  <circle cx="562.708" cy="472.322" r="7.70049" stroke-width="0.5" stroke="black" fill="cyan"/>
  <circle cx="562.708" cy="472.322" r="4.67828" stroke-width="0.5" stroke="black" fill="cyan"/>
   </g>
   <g id="cell91">
  <circle cx="542.474" cy="397.923" r="7.2823" stroke-width="0.5" stroke="black" fill="green"/>
  <circle cx="542.474" cy="397.923" r="4.45841" stroke-width="0.5" stroke="black" fill="green"/>
   </g>
   <g id="cell92">
  <circle cx="641.162" cy="566.044" r="7.44889" stroke-width="0.5" stroke="black" fill="green"/>
  <circle cx="641.162" cy="566.044" r="4.54307" stroke-width="0.5" stroke="black" fill="green"/>
   </g>
   <g id="cell93">
  <circle cx="366.278" cy="543.794" r="7.51976" stroke-width="0.5" stroke="black" fill="cyan"/>
  <circle cx="366.278" cy="543.794" r="4.57072" stroke-width="0.5" stroke="black" fill="cyan"/>
   </g>
   <g id="cell94">
  <circle cx="611.371" cy="520.923" r="7.44242" stroke-width="0.5" stroke="black" fill="cyan"/>
  <circle cx="611.371" cy="520.923" r="4.52373" stroke-width="0.5" stroke="black" fill="cyan"/>
   </g>
   <g id="cell95">
  <circle cx="581.398" cy="586.936" r="7.1011" stroke-width="0.5" stroke="black" fill="magenta"/>
  <circle cx="581.398" cy="586.936" r="4.34682" stroke-width="0.5" stroke="black" fill="magenta"/>
   </g>
   <g id="cell96">
  <circle cx="591.654" cy="479.378" r="7.1957" stroke-width="0.5" stroke="black" fill="cyan"/>
  <circle cx="591.654" cy="479.378" r="4.39819" stroke-width="0.5" stroke="black" fill="cyan"/>
   </g>
   <g id="cell97">
  <circle cx="626.753" cy="548.408" r="6.68179" stroke-width="0.5" stroke="black" fill="green"/>
  <circle cx="626.753" cy="548.408" r="4.10914" stroke-width="0.5" stroke="black" fill="green"/>
   </g>
   <g id="cell98">
  <circle cx="598.861" cy="515.352" r="7.20847" stroke-width="0.5" stroke="black" fill="magenta"/>
  <circle cx="598.861" cy="515.352" r="4.39552" stroke-width="0.5" stroke="black" fill="magenta"/>
   </g>
   <g id="cell99">
  <circle cx="563.985" cy="430.565" r="7.11815" stroke-width="0.5" stroke="black" fill="cyan"/>
  <circle cx="563.985" cy="430.565" r="4.31954" stroke-width="0.5" stroke="black" fill="cyan"/>
   </g>
   <g id="cell100">
  <circle cx="386.685" cy="595.788" r="5.78667" stroke-width="0.5" stroke="black" fill="cyan"/>
  <circle cx="386.685" cy="595.788" r="3.5531" stroke-width="0.5" stroke="black" fill="cyan"/>
   </g>
   <g id="cell101">
  <circle cx="533.135" cy="439.519" r="7.11815" stroke-width="0.5" stroke="black" fill="cyan"/>
  <circle cx="533.135" cy="439.519" r="4.31954" stroke-width="0.5" stroke="black" fill="cyan"/>
   </g>
   <g id="cell102">
  <circle cx="521.417" cy="478.264" r="7.0545" stroke-width="0.5" stroke="black" fill="cyan"/>
  <circle cx="521.417" cy="478.264" r="4.27772" stroke-width="0.5" stroke="black" fill="cyan"/>
   </g>
   <g id="cell103">
  <circle cx="451.603" cy="532.532" r="6.99069" stroke-width="0.5" stroke="black" fill="magenta"/>
  <circle cx="451.603" cy="532.532" r="4.23498" stroke-width="0.5" stroke="black" fill="magenta"/>
   </g>
   <g id="cell104">
  <circle cx="396.196" cy="601.088" r="5.78667" stroke-width="0.5" stroke="black" fill="cyan"/>
  <circle cx="396.196" cy="601.088" r="3.5531" stroke-width="0.5" stroke="black" fill="cyan"/>
   </g>
   <g id="cell105">
  <circle cx="517.702" cy="465.827" r="6.80881" stroke-width="0.5" stroke="black" fill="magenta"/>
  <circle cx="517.702" cy="465.827" r="4.10709" stroke-width="0.5" stroke="black" fill="magenta"/>
   </g>
   <g id="cell106">
  <circle cx="431.763" cy="407.619" r="6.69288" stroke-width="0.5" stroke="black" fill="magenta"/>
  <circle cx="431.763" cy="407.619" r="4.02051" stroke-width="0.5" stroke="black" fill="magenta"/>
   </g>
   <g id="cell107">
  <circle cx="432.066" cy="467.344" r="6.67717" stroke-width="0.5" stroke="black" fill="cyan"/>
  <circle cx="432.066" cy="467.344" r="4.00951" stroke-width="0.5" stroke="black" fill="cyan"/>
   </g>
  </g>
 </g>
  <rect x="775" y="1035" width="200" height="10" stroke-width="2" stroke="rgb(255,255,255)" fill="rgb(0,0,0)"/>
  <text x="781.25" y="1028.75"
   font-family="Arial" font-size="25" fill="black" >
   200 &#956;m
  </text>
  <text x="25" y="1045"
   font-family="Arial" font-size="18.75" fill="black" >
   0 days, 0 hours, 0 minutes, and 13.5133 seconds
  </text>
  <rect x="0" y="70" width="1000" height="1000" stroke-width="2" stroke="rgb(0,0,0)" fill="none"/>
</svg>
