<?xml version="1.0" encoding="UTF-8" standalone="no"?>
<!-- Created with PhysiCell (http://PhysiCell.MathCancer.org/) -->
<svg 
 xmlns:dc="http://purl.org/dc/elements/1.1/" 
 xmlns:cc="http://creativecommons.org/ns#" 
 xmlns:rdf="http://www.w3.org/1999/02/22-rdf-syntax-ns#" 
 xmlns:svg="http://www.w3.org/2000/svg" 
 xmlns="http://www.w3.org/2000/svg" 
 version="1.1" 
 width="1000" 
 height="1070" 
 id="svg2">
  <rect x="0" y="0" width="1000" height="1070" stroke-width="2" stroke="white" fill="white"/>
  <text x="12.5" y="30"
   font-family="Arial" font-size="25" fill="black" >
   Current time: 1 days, 3 hours, and 0.00 minutes, z = 0.00 &#956;m
  </text>
  <text x="12.5" y="57.5"
   font-family="Arial" font-size="23.75" fill="black" >
   173 agents
  </text>
 <g id="tissue" 
    transform="translate(0,1070) scale(1,-1)">
  <g id="ECM">
  </g>
  <g id="cells">
   <g id="cell0">
  <circle cx="513.735" cy="532.252" r="8.41271" stroke-width="0.5" stroke="black" fill="magenta"/>
  <circle cx="513.735" cy="532.252" r="5.05167" stroke-width="0.5" stroke="black" fill="magenta"/>
   </g>
   <g id="cell1">
  <circle cx="604.045" cy="537.954" r="8.41271" stroke-width="0.5" stroke="black" fill="magenta"/>
  <circle cx="604.045" cy="537.954" r="5.05167" stroke-width="0.5" stroke="black" fill="magenta"/>
   </g>
   <g id="cell2">
  <circle cx="507.665" cy="601.372" r="8.41271" stroke-width="0.5" stroke="black" fill="magenta"/>
  <circle cx="507.665" cy="601.372" r="5.05167" stroke-width="0.5" stroke="black" fill="magenta"/>
   </g>
   <g id="cell3">
  <circle cx="526.451" cy="555.061" r="7.83019" stroke-width="0.5" stroke="black" fill="magenta"/>
  <circle cx="526.451" cy="555.061" r="4.75343" stroke-width="0.5" stroke="black" fill="magenta"/>
   </g>
   <g id="cell4">
  <circle cx="481.375" cy="439.863" r="8.41271" stroke-width="0.5" stroke="black" fill="magenta"/>
  <circle cx="481.375" cy="439.863" r="5.05167" stroke-width="0.5" stroke="black" fill="magenta"/>
   </g>
   <g id="cell5">
  <circle cx="463.702" cy="488.44" r="8.41271" stroke-width="0.5" stroke="black" fill="magenta"/>
  <circle cx="463.702" cy="488.44" r="5.05167" stroke-width="0.5" stroke="black" fill="magenta"/>
   </g>
   <g id="cell6">
  <circle cx="586.608" cy="514.038" r="8.37455" stroke-width="0.5" stroke="black" fill="magenta"/>
  <circle cx="586.608" cy="514.038" r="5.03812" stroke-width="0.5" stroke="black" fill="magenta"/>
   </g>
   <g id="cell171">
  <circle cx="582.992" cy="500.251" r="6.92485" stroke-width="0.5" stroke="black" fill="magenta"/>
  <circle cx="582.992" cy="500.251" r="4.19098" stroke-width="0.5" stroke="black" fill="magenta"/>
   </g>
   <g id="cell8">
  <circle cx="383.495" cy="528.437" r="8.04604" stroke-width="0.5" stroke="black" fill="magenta"/>
  <circle cx="383.495" cy="528.437" r="4.87399" stroke-width="0.5" stroke="black" fill="magenta"/>
   </g>
   <g id="cell9">
  <circle cx="464.447" cy="595.885" r="2.01785" stroke-width="0.5" stroke="black" fill="magenta"/>
  <circle cx="464.447" cy="595.885" r="1.90944" stroke-width="0.5" stroke="black" fill="black"/>
   </g>
   <g id="cell10">
  <circle cx="583.447" cy="392.105" r="1.6312" stroke-width="0.5" stroke="black" fill="magenta"/>
  <circle cx="583.447" cy="392.105" r="1.59812" stroke-width="0.5" stroke="black" fill="black"/>
   </g>
   <g id="cell11">
  <circle cx="597.642" cy="573.065" r="7.75322" stroke-width="0.5" stroke="black" fill="magenta"/>
  <circle cx="597.642" cy="573.065" r="4.71058" stroke-width="0.5" stroke="black" fill="magenta"/>
   </g>
   <g id="cell12">
  <circle cx="505.236" cy="585.657" r="8.41271" stroke-width="0.5" stroke="black" fill="magenta"/>
  <circle cx="505.236" cy="585.657" r="5.05167" stroke-width="0.5" stroke="black" fill="magenta"/>
   </g>
   <g id="cell13">
  <circle cx="396.499" cy="571.166" r="8.41125" stroke-width="0.5" stroke="black" fill="magenta"/>
  <circle cx="396.499" cy="571.166" r="5.05129" stroke-width="0.5" stroke="black" fill="magenta"/>
   </g>
   <g id="cell109">
  <circle cx="375.18" cy="443.721" r="8.38891" stroke-width="0.5" stroke="black" fill="cyan"/>
  <circle cx="375.18" cy="443.721" r="5.0434" stroke-width="0.5" stroke="black" fill="cyan"/>
   </g>
   <g id="cell15">
  <circle cx="379.833" cy="474.699" r="2.72971" stroke-width="0.5" stroke="black" fill="magenta"/>
  <circle cx="379.833" cy="474.699" r="2.33853" stroke-width="0.5" stroke="black" fill="black"/>
   </g>
   <g id="cell16">
  <circle cx="420.097" cy="428.002" r="8.27056" stroke-width="0.5" stroke="black" fill="magenta"/>
  <circle cx="420.097" cy="428.002" r="4.99152" stroke-width="0.5" stroke="black" fill="magenta"/>
   </g>
   <g id="cell17">
  <circle cx="569.511" cy="500.197" r="7.54436" stroke-width="0.5" stroke="black" fill="magenta"/>
  <circle cx="569.511" cy="500.197" r="4.58555" stroke-width="0.5" stroke="black" fill="magenta"/>
   </g>
   <g id="cell18">
  <circle cx="509.588" cy="386.037" r="1.53116" stroke-width="0.5" stroke="black" fill="magenta"/>
  <circle cx="509.588" cy="386.037" r="1.50803" stroke-width="0.5" stroke="black" fill="black"/>
   </g>
   <g id="cell19">
  <circle cx="453.835" cy="554.448" r="8.4009" stroke-width="0.5" stroke="black" fill="magenta"/>
  <circle cx="453.835" cy="554.448" r="5.04788" stroke-width="0.5" stroke="black" fill="magenta"/>
   </g>
   <g id="cell20">
  <circle cx="532.051" cy="420.741" r="8.41271" stroke-width="0.5" stroke="black" fill="magenta"/>
  <circle cx="532.051" cy="420.741" r="5.05167" stroke-width="0.5" stroke="black" fill="magenta"/>
   </g>
   <g id="cell21">
  <circle cx="463.776" cy="635.467" r="8.41271" stroke-width="0.5" stroke="black" fill="magenta"/>
  <circle cx="463.776" cy="635.467" r="5.05167" stroke-width="0.5" stroke="black" fill="magenta"/>
   </g>
   <g id="cell22">
  <circle cx="555.516" cy="495.408" r="8.41271" stroke-width="0.5" stroke="black" fill="magenta"/>
  <circle cx="555.516" cy="495.408" r="5.05167" stroke-width="0.5" stroke="black" fill="magenta"/>
   </g>
   <g id="cell23">
  <circle cx="551.086" cy="509.17" r="6.78581" stroke-width="0.5" stroke="black" fill="magenta"/>
  <circle cx="551.086" cy="509.17" r="4.17191" stroke-width="0.5" stroke="black" fill="magenta"/>
   </g>
   <g id="cell124">
  <circle cx="557.063" cy="456.958" r="8.24792" stroke-width="0.5" stroke="black" fill="cyan"/>
  <circle cx="557.063" cy="456.958" r="4.98198" stroke-width="0.5" stroke="black" fill="cyan"/>
   </g>
   <g id="cell25">
  <circle cx="637.112" cy="554.559" r="8.39997" stroke-width="0.5" stroke="black" fill="green"/>
  <circle cx="637.112" cy="554.559" r="5.04776" stroke-width="0.5" stroke="black" fill="green"/>
   </g>
   <g id="cell26">
  <circle cx="556.023" cy="399.313" r="8.40788" stroke-width="0.5" stroke="black" fill="green"/>
  <circle cx="556.023" cy="399.313" r="5.05027" stroke-width="0.5" stroke="black" fill="green"/>
   </g>
   <g id="cell27">
  <circle cx="457.446" cy="388.678" r="8.41271" stroke-width="0.5" stroke="black" fill="green"/>
  <circle cx="457.446" cy="388.678" r="5.05167" stroke-width="0.5" stroke="black" fill="green"/>
   </g>
   <g id="cell28">
  <circle cx="425.699" cy="525.566" r="8.41271" stroke-width="0.5" stroke="black" fill="green"/>
  <circle cx="425.699" cy="525.566" r="5.05167" stroke-width="0.5" stroke="black" fill="green"/>
   </g>
   <g id="cell29">
  <circle cx="440.739" cy="511.124" r="8.29667" stroke-width="0.5" stroke="black" fill="green"/>
  <circle cx="440.739" cy="511.124" r="5.00279" stroke-width="0.5" stroke="black" fill="green"/>
   </g>
   <g id="cell126">
  <circle cx="529.195" cy="506.844" r="8.3354" stroke-width="0.5" stroke="black" fill="green"/>
  <circle cx="529.195" cy="506.844" r="5.02261" stroke-width="0.5" stroke="black" fill="green"/>
   </g>
   <g id="cell31">
  <circle cx="414.307" cy="536.76" r="8.38118" stroke-width="0.5" stroke="black" fill="green"/>
  <circle cx="414.307" cy="536.76" r="5.04034" stroke-width="0.5" stroke="black" fill="green"/>
   </g>
   <g id="cell32">
  <circle cx="418.806" cy="487.715" r="8.07654" stroke-width="0.5" stroke="black" fill="green"/>
  <circle cx="418.806" cy="487.715" r="4.89046" stroke-width="0.5" stroke="black" fill="green"/>
   </g>
   <g id="cell33">
  <circle cx="494.145" cy="423.184" r="8.41271" stroke-width="0.5" stroke="black" fill="green"/>
  <circle cx="494.145" cy="423.184" r="5.05167" stroke-width="0.5" stroke="black" fill="green"/>
   </g>
   <g id="cell34">
  <circle cx="389.359" cy="448.89" r="7.78141" stroke-width="0.5" stroke="black" fill="green"/>
  <circle cx="389.359" cy="448.89" r="4.73328" stroke-width="0.5" stroke="black" fill="green"/>
   </g>
   <g id="cell35">
  <circle cx="550.65" cy="550.854" r="8.41271" stroke-width="0.5" stroke="black" fill="green"/>
  <circle cx="550.65" cy="550.854" r="5.05167" stroke-width="0.5" stroke="black" fill="green"/>
   </g>
   <g id="cell36">
  <circle cx="385.635" cy="583.044" r="8.41271" stroke-width="0.5" stroke="black" fill="green"/>
  <circle cx="385.635" cy="583.044" r="5.05167" stroke-width="0.5" stroke="black" fill="green"/>
   </g>
   <g id="cell37">
  <circle cx="634.871" cy="460.618" r="8.41271" stroke-width="0.5" stroke="black" fill="green"/>
  <circle cx="634.871" cy="460.618" r="5.05167" stroke-width="0.5" stroke="black" fill="green"/>
   </g>
   <g id="cell38">
  <circle cx="542.786" cy="612.528" r="8.2891" stroke-width="0.5" stroke="black" fill="green"/>
  <circle cx="542.786" cy="612.528" r="4.99936" stroke-width="0.5" stroke="black" fill="green"/>
   </g>
   <g id="cell39">
  <circle cx="617.073" cy="484.876" r="8.41271" stroke-width="0.5" stroke="black" fill="green"/>
  <circle cx="617.073" cy="484.876" r="5.05167" stroke-width="0.5" stroke="black" fill="green"/>
   </g>
   <g id="cell40">
  <circle cx="482.269" cy="566.581" r="8.40961" stroke-width="0.5" stroke="black" fill="green"/>
  <circle cx="482.269" cy="566.581" r="5.05081" stroke-width="0.5" stroke="black" fill="green"/>
   </g>
   <g id="cell41">
  <circle cx="365.092" cy="480.246" r="8.41271" stroke-width="0.5" stroke="black" fill="green"/>
  <circle cx="365.092" cy="480.246" r="5.05167" stroke-width="0.5" stroke="black" fill="green"/>
   </g>
   <g id="cell42">
  <circle cx="438.553" cy="495.454" r="8.41271" stroke-width="0.5" stroke="black" fill="green"/>
  <circle cx="438.553" cy="495.454" r="5.05167" stroke-width="0.5" stroke="black" fill="green"/>
   </g>
   <g id="cell43">
  <circle cx="557.504" cy="441.683" r="8.41271" stroke-width="0.5" stroke="black" fill="green"/>
  <circle cx="557.504" cy="441.683" r="5.05167" stroke-width="0.5" stroke="black" fill="green"/>
   </g>
   <g id="cell44">
  <circle cx="470.881" cy="621.755" r="7.83019" stroke-width="0.5" stroke="black" fill="green"/>
  <circle cx="470.881" cy="621.755" r="4.75343" stroke-width="0.5" stroke="black" fill="green"/>
   </g>
   <g id="cell45">
  <circle cx="426.266" cy="565.678" r="8.30918" stroke-width="0.5" stroke="black" fill="green"/>
  <circle cx="426.266" cy="565.678" r="5.00867" stroke-width="0.5" stroke="black" fill="green"/>
   </g>
   <g id="cell46">
  <circle cx="514.596" cy="623.604" r="5.81734" stroke-width="0.5" stroke="black" fill="green"/>
  <circle cx="514.596" cy="623.604" r="3.55167" stroke-width="0.5" stroke="black" fill="green"/>
   </g>
   <g id="cell47">
  <circle cx="489.966" cy="504.037" r="8.34632" stroke-width="0.5" stroke="black" fill="green"/>
  <circle cx="489.966" cy="504.037" r="5.02568" stroke-width="0.5" stroke="black" fill="green"/>
   </g>
   <g id="cell48">
  <circle cx="562.63" cy="602.653" r="8.41271" stroke-width="0.5" stroke="black" fill="green"/>
  <circle cx="562.63" cy="602.653" r="5.05167" stroke-width="0.5" stroke="black" fill="green"/>
   </g>
   <g id="cell49">
  <circle cx="430.42" cy="385.848" r="6.78181" stroke-width="0.5" stroke="black" fill="green"/>
  <circle cx="430.42" cy="385.848" r="4.08714" stroke-width="0.5" stroke="black" fill="green"/>
   </g>
   <g id="cell50">
  <circle cx="516.617" cy="516.339" r="2.84772" stroke-width="0.5" stroke="black" fill="cyan"/>
  <circle cx="516.617" cy="516.339" r="2.39601" stroke-width="0.5" stroke="black" fill="black"/>
   </g>
   <g id="cell51">
  <circle cx="418.888" cy="597.408" r="8.38651" stroke-width="0.5" stroke="black" fill="cyan"/>
  <circle cx="418.888" cy="597.408" r="5.04259" stroke-width="0.5" stroke="black" fill="cyan"/>
   </g>
   <g id="cell52">
  <circle cx="515.986" cy="422.294" r="8.41271" stroke-width="0.5" stroke="black" fill="cyan"/>
  <circle cx="515.986" cy="422.294" r="5.05167" stroke-width="0.5" stroke="black" fill="cyan"/>
   </g>
   <g id="cell53">
  <circle cx="580.112" cy="437.909" r="7.58535" stroke-width="0.5" stroke="black" fill="cyan"/>
  <circle cx="580.112" cy="437.909" r="4.61181" stroke-width="0.5" stroke="black" fill="cyan"/>
   </g>
   <g id="cell54">
  <circle cx="478.151" cy="424.167" r="8.41271" stroke-width="0.5" stroke="black" fill="cyan"/>
  <circle cx="478.151" cy="424.167" r="5.05167" stroke-width="0.5" stroke="black" fill="cyan"/>
   </g>
   <g id="cell55">
  <circle cx="529.241" cy="460.513" r="8.40154" stroke-width="0.5" stroke="black" fill="cyan"/>
  <circle cx="529.241" cy="460.513" r="5.04811" stroke-width="0.5" stroke="black" fill="cyan"/>
   </g>
   <g id="cell56">
  <circle cx="630.447" cy="521.692" r="8.40494" stroke-width="0.5" stroke="black" fill="cyan"/>
  <circle cx="630.447" cy="521.692" r="5.04929" stroke-width="0.5" stroke="black" fill="cyan"/>
   </g>
   <g id="cell57">
  <circle cx="416.252" cy="616.623" r="8.41271" stroke-width="0.5" stroke="black" fill="cyan"/>
  <circle cx="416.252" cy="616.623" r="5.05167" stroke-width="0.5" stroke="black" fill="cyan"/>
   </g>
   <g id="cell58">
  <circle cx="550.742" cy="478.864" r="3.19585" stroke-width="0.5" stroke="black" fill="cyan"/>
  <circle cx="550.742" cy="478.864" r="2.55241" stroke-width="0.5" stroke="black" fill="black"/>
   </g>
   <g id="cell59">
  <circle cx="384.335" cy="431.394" r="2.28539" stroke-width="0.5" stroke="black" fill="cyan"/>
  <circle cx="384.335" cy="431.394" r="2.08874" stroke-width="0.5" stroke="black" fill="black"/>
   </g>
   <g id="cell60">
  <circle cx="611.465" cy="469.792" r="8.41023" stroke-width="0.5" stroke="black" fill="cyan"/>
  <circle cx="611.465" cy="469.792" r="5.051" stroke-width="0.5" stroke="black" fill="cyan"/>
   </g>
   <g id="cell121">
  <circle cx="453.08" cy="461.805" r="8.37008" stroke-width="0.5" stroke="black" fill="cyan"/>
  <circle cx="453.08" cy="461.805" r="5.03643" stroke-width="0.5" stroke="black" fill="cyan"/>
   </g>
   <g id="cell62">
  <circle cx="500.909" cy="451.427" r="8.0988" stroke-width="0.5" stroke="black" fill="cyan"/>
  <circle cx="500.909" cy="451.427" r="4.90355" stroke-width="0.5" stroke="black" fill="cyan"/>
   </g>
   <g id="cell63">
  <circle cx="579.701" cy="545.508" r="8.41271" stroke-width="0.5" stroke="black" fill="cyan"/>
  <circle cx="579.701" cy="545.508" r="5.05167" stroke-width="0.5" stroke="black" fill="cyan"/>
   </g>
   <g id="cell64">
  <circle cx="510.118" cy="636.367" r="8.41271" stroke-width="0.5" stroke="black" fill="cyan"/>
  <circle cx="510.118" cy="636.367" r="5.05167" stroke-width="0.5" stroke="black" fill="cyan"/>
   </g>
   <g id="cell65">
  <circle cx="544.254" cy="465.817" r="8.41271" stroke-width="0.5" stroke="black" fill="cyan"/>
  <circle cx="544.254" cy="465.817" r="5.05167" stroke-width="0.5" stroke="black" fill="cyan"/>
   </g>
   <g id="cell66">
  <circle cx="524.176" cy="521.641" r="6.99427" stroke-width="0.5" stroke="black" fill="cyan"/>
  <circle cx="524.176" cy="521.641" r="4.2526" stroke-width="0.5" stroke="black" fill="cyan"/>
   </g>
   <g id="cell67">
  <circle cx="354.782" cy="492.513" r="8.41271" stroke-width="0.5" stroke="black" fill="cyan"/>
  <circle cx="354.782" cy="492.513" r="5.05167" stroke-width="0.5" stroke="black" fill="cyan"/>
   </g>
   <g id="cell68">
  <circle cx="566.14" cy="553.823" r="8.41271" stroke-width="0.5" stroke="black" fill="cyan"/>
  <circle cx="566.14" cy="553.823" r="5.05167" stroke-width="0.5" stroke="black" fill="cyan"/>
   </g>
   <g id="cell69">
  <circle cx="442.856" cy="449.318" r="8.37008" stroke-width="0.5" stroke="black" fill="cyan"/>
  <circle cx="442.856" cy="449.318" r="5.03643" stroke-width="0.5" stroke="black" fill="cyan"/>
   </g>
   <g id="cell70">
  <circle cx="587.067" cy="478.645" r="7.4118" stroke-width="0.5" stroke="black" fill="cyan"/>
  <circle cx="587.067" cy="478.645" r="4.50605" stroke-width="0.5" stroke="black" fill="cyan"/>
   </g>
   <g id="cell71">
  <circle cx="374.955" cy="515.448" r="8.41271" stroke-width="0.5" stroke="black" fill="cyan"/>
  <circle cx="374.955" cy="515.448" r="5.05167" stroke-width="0.5" stroke="black" fill="cyan"/>
   </g>
   <g id="cell72">
  <circle cx="539.728" cy="518.384" r="8.41271" stroke-width="0.5" stroke="black" fill="cyan"/>
  <circle cx="539.728" cy="518.384" r="5.05167" stroke-width="0.5" stroke="black" fill="cyan"/>
   </g>
   <g id="cell73">
  <circle cx="356.591" cy="550.239" r="8.38014" stroke-width="0.5" stroke="black" fill="cyan"/>
  <circle cx="356.591" cy="550.239" r="5.04027" stroke-width="0.5" stroke="black" fill="cyan"/>
   </g>
   <g id="cell74">
  <circle cx="543.098" cy="449.894" r="8.41271" stroke-width="0.5" stroke="black" fill="cyan"/>
  <circle cx="543.098" cy="449.894" r="5.05167" stroke-width="0.5" stroke="black" fill="cyan"/>
   </g>
   <g id="cell75">
  <circle cx="594.567" cy="494.625" r="6.92485" stroke-width="0.5" stroke="black" fill="magenta"/>
  <circle cx="594.567" cy="494.625" r="4.19098" stroke-width="0.5" stroke="black" fill="magenta"/>
   </g>
   <g id="cell76">
  <circle cx="648.469" cy="533.835" r="7.30129" stroke-width="0.5" stroke="black" fill="green"/>
  <circle cx="648.469" cy="533.835" r="4.43671" stroke-width="0.5" stroke="black" fill="green"/>
   </g>
   <g id="cell77">
  <circle cx="504.777" cy="509.909" r="8.38686" stroke-width="0.5" stroke="black" fill="green"/>
  <circle cx="504.777" cy="509.909" r="5.04269" stroke-width="0.5" stroke="black" fill="green"/>
   </g>
   <g id="cell78">
  <circle cx="364.649" cy="568.993" r="8.40741" stroke-width="0.5" stroke="black" fill="magenta"/>
  <circle cx="364.649" cy="568.993" r="5.05016" stroke-width="0.5" stroke="black" fill="magenta"/>
   </g>
   <g id="cell79">
  <circle cx="538.651" cy="571.224" r="8.32777" stroke-width="0.5" stroke="black" fill="green"/>
  <circle cx="538.651" cy="571.224" r="5.01768" stroke-width="0.5" stroke="black" fill="green"/>
   </g>
   <g id="cell80">
  <circle cx="457.612" cy="601.938" r="7.59074" stroke-width="0.5" stroke="black" fill="magenta"/>
  <circle cx="457.612" cy="601.938" r="4.61368" stroke-width="0.5" stroke="black" fill="magenta"/>
   </g>
   <g id="cell81">
  <circle cx="395.49" cy="617.253" r="8.40113" stroke-width="0.5" stroke="black" fill="cyan"/>
  <circle cx="395.49" cy="617.253" r="5.04806" stroke-width="0.5" stroke="black" fill="cyan"/>
   </g>
   <g id="cell82">
  <circle cx="596.463" cy="467.846" r="7.69485" stroke-width="0.5" stroke="black" fill="cyan"/>
  <circle cx="596.463" cy="467.846" r="4.67646" stroke-width="0.5" stroke="black" fill="cyan"/>
   </g>
   <g id="cell83">
  <circle cx="547.538" cy="597.325" r="8.4095" stroke-width="0.5" stroke="black" fill="green"/>
  <circle cx="547.538" cy="597.325" r="5.05081" stroke-width="0.5" stroke="black" fill="green"/>
   </g>
   <g id="cell84">
  <circle cx="490.604" cy="580.09" r="8.40961" stroke-width="0.5" stroke="black" fill="green"/>
  <circle cx="490.604" cy="580.09" r="5.05081" stroke-width="0.5" stroke="black" fill="green"/>
   </g>
   <g id="cell85">
  <circle cx="611.216" cy="497.919" r="6.52914" stroke-width="0.5" stroke="black" fill="magenta"/>
  <circle cx="611.216" cy="497.919" r="3.95601" stroke-width="0.5" stroke="black" fill="magenta"/>
   </g>
   <g id="cell86">
  <circle cx="524.828" cy="598.236" r="6.70775" stroke-width="0.5" stroke="black" fill="green"/>
  <circle cx="524.828" cy="598.236" r="4.03329" stroke-width="0.5" stroke="black" fill="green"/>
   </g>
   <g id="cell87">
  <circle cx="589.921" cy="609.875" r="8.02217" stroke-width="0.5" stroke="black" fill="magenta"/>
  <circle cx="589.921" cy="609.875" r="4.8615" stroke-width="0.5" stroke="black" fill="magenta"/>
   </g>
   <g id="cell88">
  <circle cx="371.948" cy="554.685" r="8.37761" stroke-width="0.5" stroke="black" fill="magenta"/>
  <circle cx="371.948" cy="554.685" r="5.03921" stroke-width="0.5" stroke="black" fill="magenta"/>
   </g>
   <g id="cell89">
  <circle cx="542.716" cy="408.324" r="8.40408" stroke-width="0.5" stroke="black" fill="green"/>
  <circle cx="542.716" cy="408.324" r="5.04911" stroke-width="0.5" stroke="black" fill="green"/>
   </g>
   <g id="cell90">
  <circle cx="563.427" cy="481.686" r="8.36803" stroke-width="0.5" stroke="black" fill="cyan"/>
  <circle cx="563.427" cy="481.686" r="5.03527" stroke-width="0.5" stroke="black" fill="cyan"/>
   </g>
   <g id="cell91">
  <circle cx="541.37" cy="392.645" r="8.40408" stroke-width="0.5" stroke="black" fill="green"/>
  <circle cx="541.37" cy="392.645" r="5.04911" stroke-width="0.5" stroke="black" fill="green"/>
   </g>
   <g id="cell92">
  <circle cx="641.946" cy="569.795" r="8.40511" stroke-width="0.5" stroke="black" fill="green"/>
  <circle cx="641.946" cy="569.795" r="5.0494" stroke-width="0.5" stroke="black" fill="green"/>
   </g>
   <g id="cell93">
  <circle cx="368.019" cy="539.096" r="8.40557" stroke-width="0.5" stroke="black" fill="cyan"/>
  <circle cx="368.019" cy="539.096" r="5.04951" stroke-width="0.5" stroke="black" fill="cyan"/>
   </g>
   <g id="cell94">
  <circle cx="615.143" cy="526.276" r="8.40494" stroke-width="0.5" stroke="black" fill="cyan"/>
  <circle cx="615.143" cy="526.276" r="5.04929" stroke-width="0.5" stroke="black" fill="cyan"/>
   </g>
   <g id="cell95">
  <circle cx="577.016" cy="584.708" r="8.40266" stroke-width="0.5" stroke="black" fill="magenta"/>
  <circle cx="577.016" cy="584.708" r="5.04863" stroke-width="0.5" stroke="black" fill="magenta"/>
   </g>
   <g id="cell96">
  <circle cx="601.499" cy="482.162" r="8.40326" stroke-width="0.5" stroke="black" fill="cyan"/>
  <circle cx="601.499" cy="482.162" r="5.04881" stroke-width="0.5" stroke="black" fill="cyan"/>
   </g>
   <g id="cell97">
  <circle cx="623.119" cy="546.864" r="8.39997" stroke-width="0.5" stroke="black" fill="green"/>
  <circle cx="623.119" cy="546.864" r="5.04776" stroke-width="0.5" stroke="black" fill="green"/>
   </g>
   <g id="cell98">
  <circle cx="599.669" cy="522.767" r="8.40318" stroke-width="0.5" stroke="black" fill="magenta"/>
  <circle cx="599.669" cy="522.767" r="5.04874" stroke-width="0.5" stroke="black" fill="magenta"/>
   </g>
   <g id="cell99">
  <circle cx="572.822" cy="424.519" r="8.40215" stroke-width="0.5" stroke="black" fill="cyan"/>
  <circle cx="572.822" cy="424.519" r="5.04833" stroke-width="0.5" stroke="black" fill="cyan"/>
   </g>
   <g id="cell100">
  <circle cx="375.552" cy="595.31" r="8.37417" stroke-width="0.5" stroke="black" fill="cyan"/>
  <circle cx="375.552" cy="595.31" r="5.03829" stroke-width="0.5" stroke="black" fill="cyan"/>
   </g>
   <g id="cell101">
  <circle cx="540.286" cy="434.707" r="8.07619" stroke-width="0.5" stroke="black" fill="cyan"/>
  <circle cx="540.286" cy="434.707" r="4.8956" stroke-width="0.5" stroke="black" fill="cyan"/>
   </g>
   <g id="cell102">
  <circle cx="503.628" cy="473.643" r="8.3092" stroke-width="0.5" stroke="black" fill="cyan"/>
  <circle cx="503.628" cy="473.643" r="5.0095" stroke-width="0.5" stroke="black" fill="cyan"/>
   </g>
   <g id="cell103">
  <circle cx="468.723" cy="532.22" r="8.30957" stroke-width="0.5" stroke="black" fill="magenta"/>
  <circle cx="468.723" cy="532.22" r="5.01129" stroke-width="0.5" stroke="black" fill="magenta"/>
   </g>
   <g id="cell104">
  <circle cx="405.528" cy="605.529" r="4.22409" stroke-width="0.5" stroke="black" fill="cyan"/>
  <circle cx="405.528" cy="605.529" r="2.98999" stroke-width="0.5" stroke="black" fill="black"/>
   </g>
   <g id="cell105">
  <circle cx="513.275" cy="461.275" r="8.39874" stroke-width="0.5" stroke="black" fill="magenta"/>
  <circle cx="513.275" cy="461.275" r="5.04711" stroke-width="0.5" stroke="black" fill="magenta"/>
   </g>
   <g id="cell106">
  <circle cx="436.067" cy="403.176" r="8.39664" stroke-width="0.5" stroke="black" fill="magenta"/>
  <circle cx="436.067" cy="403.176" r="5.04633" stroke-width="0.5" stroke="black" fill="magenta"/>
   </g>
   <g id="cell107">
  <circle cx="423.384" cy="457.7" r="8.36598" stroke-width="0.5" stroke="black" fill="cyan"/>
  <circle cx="423.384" cy="457.7" r="5.03475" stroke-width="0.5" stroke="black" fill="cyan"/>
   </g>
   <g id="cell108">
  <circle cx="523.496" cy="381.528" r="8.39144" stroke-width="0.5" stroke="black" fill="magenta"/>
  <circle cx="523.496" cy="381.528" r="5.04437" stroke-width="0.5" stroke="black" fill="magenta"/>
   </g>
   <g id="cell110">
  <circle cx="518.786" cy="395.206" r="6.87008" stroke-width="0.5" stroke="black" fill="magenta"/>
  <circle cx="518.786" cy="395.206" r="4.16065" stroke-width="0.5" stroke="black" fill="magenta"/>
   </g>
   <g id="cell111">
  <circle cx="515.916" cy="498.572" r="8.3354" stroke-width="0.5" stroke="black" fill="green"/>
  <circle cx="515.916" cy="498.572" r="5.02261" stroke-width="0.5" stroke="black" fill="green"/>
   </g>
   <g id="cell112">
  <circle cx="400.483" cy="585.872" r="7.64291" stroke-width="0.5" stroke="black" fill="cyan"/>
  <circle cx="400.483" cy="585.872" r="4.64797" stroke-width="0.5" stroke="black" fill="cyan"/>
   </g>
   <g id="cell113">
  <circle cx="340.895" cy="547.32" r="8.38014" stroke-width="0.5" stroke="black" fill="cyan"/>
  <circle cx="340.895" cy="547.32" r="5.04027" stroke-width="0.5" stroke="black" fill="cyan"/>
   </g>
   <g id="cell114">
  <circle cx="381.199" cy="610.174" r="8.36354" stroke-width="0.5" stroke="black" fill="cyan"/>
  <circle cx="381.199" cy="610.174" r="5.0343" stroke-width="0.5" stroke="black" fill="cyan"/>
   </g>
   <g id="cell115">
  <circle cx="391.322" cy="597.954" r="8.36354" stroke-width="0.5" stroke="black" fill="cyan"/>
  <circle cx="391.322" cy="597.954" r="5.0343" stroke-width="0.5" stroke="black" fill="cyan"/>
   </g>
   <g id="cell116">
  <circle cx="399.897" cy="543.631" r="8.38118" stroke-width="0.5" stroke="black" fill="green"/>
  <circle cx="399.897" cy="543.631" r="5.04034" stroke-width="0.5" stroke="black" fill="green"/>
   </g>
   <g id="cell117">
  <circle cx="380.503" cy="568.171" r="8.35439" stroke-width="0.5" stroke="black" fill="magenta"/>
  <circle cx="380.503" cy="568.171" r="5.03033" stroke-width="0.5" stroke="black" fill="magenta"/>
   </g>
   <g id="cell118">
  <circle cx="398.785" cy="436.771" r="8.3683" stroke-width="0.5" stroke="black" fill="cyan"/>
  <circle cx="398.785" cy="436.771" r="5.03581" stroke-width="0.5" stroke="black" fill="cyan"/>
   </g>
   <g id="cell119">
  <circle cx="570.753" cy="515.097" r="8.37455" stroke-width="0.5" stroke="black" fill="magenta"/>
  <circle cx="570.753" cy="515.097" r="5.03812" stroke-width="0.5" stroke="black" fill="magenta"/>
   </g>
   <g id="cell120">
  <circle cx="504.446" cy="488.792" r="7.83637" stroke-width="0.5" stroke="black" fill="green"/>
  <circle cx="504.446" cy="488.792" r="4.76231" stroke-width="0.5" stroke="black" fill="green"/>
   </g>
   <g id="cell122">
  <circle cx="446.016" cy="483.55" r="6.45512" stroke-width="0.5" stroke="black" fill="cyan"/>
  <circle cx="446.016" cy="483.55" r="3.92938" stroke-width="0.5" stroke="black" fill="cyan"/>
   </g>
   <g id="cell123">
  <circle cx="390.846" cy="556.506" r="8.35439" stroke-width="0.5" stroke="black" fill="magenta"/>
  <circle cx="390.846" cy="556.506" r="5.03033" stroke-width="0.5" stroke="black" fill="magenta"/>
   </g>
   <g id="cell125">
  <circle cx="532.407" cy="476.13" r="8.3632" stroke-width="0.5" stroke="black" fill="magenta"/>
  <circle cx="532.407" cy="476.13" r="5.03288" stroke-width="0.5" stroke="black" fill="magenta"/>
   </g>
   <g id="cell127">
  <circle cx="439.271" cy="533.848" r="8.34637" stroke-width="0.5" stroke="black" fill="magenta"/>
  <circle cx="439.271" cy="533.848" r="5.02628" stroke-width="0.5" stroke="black" fill="magenta"/>
   </g>
   <g id="cell128">
  <circle cx="546.557" cy="422.119" r="7.13354" stroke-width="0.5" stroke="black" fill="cyan"/>
  <circle cx="546.557" cy="422.119" r="4.34113" stroke-width="0.5" stroke="black" fill="cyan"/>
   </g>
   <g id="cell129">
  <circle cx="492.272" cy="519.752" r="8.34632" stroke-width="0.5" stroke="black" fill="green"/>
  <circle cx="492.272" cy="519.752" r="5.02568" stroke-width="0.5" stroke="black" fill="green"/>
   </g>
   <g id="cell130">
  <circle cx="454.316" cy="538.539" r="8.30957" stroke-width="0.5" stroke="black" fill="magenta"/>
  <circle cx="454.316" cy="538.539" r="5.01129" stroke-width="0.5" stroke="black" fill="magenta"/>
   </g>
   <g id="cell131">
  <circle cx="535.521" cy="586.834" r="8.32777" stroke-width="0.5" stroke="black" fill="green"/>
  <circle cx="535.521" cy="586.834" r="5.01768" stroke-width="0.5" stroke="black" fill="green"/>
   </g>
   <g id="cell132">
  <circle cx="402.569" cy="454.945" r="7.97776" stroke-width="0.5" stroke="black" fill="green"/>
  <circle cx="402.569" cy="454.945" r="4.84305" stroke-width="0.5" stroke="black" fill="green"/>
   </g>
   <g id="cell133">
  <circle cx="546.149" cy="531.929" r="7.51615" stroke-width="0.5" stroke="black" fill="cyan"/>
  <circle cx="546.149" cy="531.929" r="4.5782" stroke-width="0.5" stroke="black" fill="cyan"/>
   </g>
   <g id="cell134">
  <circle cx="517.636" cy="481.307" r="8.3092" stroke-width="0.5" stroke="black" fill="cyan"/>
  <circle cx="517.636" cy="481.307" r="5.0095" stroke-width="0.5" stroke="black" fill="cyan"/>
   </g>
   <g id="cell135">
  <circle cx="406.199" cy="558.357" r="8.12735" stroke-width="0.5" stroke="black" fill="green"/>
  <circle cx="406.199" cy="558.357" r="4.92313" stroke-width="0.5" stroke="black" fill="green"/>
   </g>
   <g id="cell136">
  <circle cx="455.95" cy="508.529" r="7.98796" stroke-width="0.5" stroke="black" fill="green"/>
  <circle cx="455.95" cy="508.529" r="4.85463" stroke-width="0.5" stroke="black" fill="green"/>
   </g>
   <g id="cell137">
  <circle cx="531.545" cy="623.775" r="8.2891" stroke-width="0.5" stroke="black" fill="green"/>
  <circle cx="531.545" cy="623.775" r="4.99936" stroke-width="0.5" stroke="black" fill="green"/>
   </g>
   <g id="cell138">
  <circle cx="432.8" cy="418.704" r="8.27056" stroke-width="0.5" stroke="black" fill="magenta"/>
  <circle cx="432.8" cy="418.704" r="4.99152" stroke-width="0.5" stroke="black" fill="magenta"/>
   </g>
   <g id="cell139">
  <circle cx="568.344" cy="466.992" r="8.24792" stroke-width="0.5" stroke="black" fill="cyan"/>
  <circle cx="568.344" cy="466.992" r="4.98198" stroke-width="0.5" stroke="black" fill="cyan"/>
   </g>
   <g id="cell140">
  <circle cx="450.865" cy="523.131" r="8.19388" stroke-width="0.5" stroke="black" fill="green"/>
  <circle cx="450.865" cy="523.131" r="4.95681" stroke-width="0.5" stroke="black" fill="green"/>
   </g>
   <g id="cell141">
  <circle cx="419.976" cy="551.382" r="8.12735" stroke-width="0.5" stroke="black" fill="green"/>
  <circle cx="419.976" cy="551.382" r="4.92313" stroke-width="0.5" stroke="black" fill="green"/>
   </g>
   <g id="cell142">
  <circle cx="600.905" cy="507.267" r="8.15152" stroke-width="0.5" stroke="black" fill="magenta"/>
  <circle cx="600.905" cy="507.267" r="4.93066" stroke-width="0.5" stroke="black" fill="magenta"/>
   </g>
   <g id="cell143">
  <circle cx="525.246" cy="434.767" r="8.07619" stroke-width="0.5" stroke="black" fill="cyan"/>
  <circle cx="525.246" cy="434.767" r="4.8956" stroke-width="0.5" stroke="black" fill="cyan"/>
   </g>
   <g id="cell144">
  <circle cx="515.154" cy="445.93" r="8.0988" stroke-width="0.5" stroke="black" fill="cyan"/>
  <circle cx="515.154" cy="445.93" r="4.90355" stroke-width="0.5" stroke="black" fill="cyan"/>
   </g>
   <g id="cell145">
  <circle cx="468.141" cy="517.089" r="7.75852" stroke-width="0.5" stroke="black" fill="green"/>
  <circle cx="468.141" cy="517.089" r="4.7354" stroke-width="0.5" stroke="black" fill="green"/>
   </g>
   <g id="cell146">
  <circle cx="423.499" cy="473.198" r="8.07654" stroke-width="0.5" stroke="black" fill="green"/>
  <circle cx="423.499" cy="473.198" r="4.89046" stroke-width="0.5" stroke="black" fill="green"/>
   </g>
   <g id="cell147">
  <circle cx="382.946" cy="543.503" r="8.04604" stroke-width="0.5" stroke="black" fill="magenta"/>
  <circle cx="382.946" cy="543.503" r="4.87399" stroke-width="0.5" stroke="black" fill="magenta"/>
   </g>
   <g id="cell148">
  <circle cx="588.987" cy="594.689" r="8.02217" stroke-width="0.5" stroke="black" fill="magenta"/>
  <circle cx="588.987" cy="594.689" r="4.8615" stroke-width="0.5" stroke="black" fill="magenta"/>
   </g>
   <g id="cell149">
  <circle cx="529.56" cy="491.382" r="7.99704" stroke-width="0.5" stroke="black" fill="magenta"/>
  <circle cx="529.56" cy="491.382" r="4.85162" stroke-width="0.5" stroke="black" fill="magenta"/>
   </g>
   <g id="cell150">
  <circle cx="410.074" cy="467.494" r="7.97776" stroke-width="0.5" stroke="black" fill="green"/>
  <circle cx="410.074" cy="467.494" r="4.84305" stroke-width="0.5" stroke="black" fill="green"/>
   </g>
   <g id="cell151">
  <circle cx="437.665" cy="463.758" r="7.98707" stroke-width="0.5" stroke="black" fill="cyan"/>
  <circle cx="437.665" cy="463.758" r="4.84635" stroke-width="0.5" stroke="black" fill="cyan"/>
   </g>
   <g id="cell152">
  <circle cx="469.698" cy="502.524" r="7.75852" stroke-width="0.5" stroke="black" fill="green"/>
  <circle cx="469.698" cy="502.524" r="4.7354" stroke-width="0.5" stroke="black" fill="green"/>
   </g>
   <g id="cell153">
  <circle cx="543.508" cy="486.372" r="7.72259" stroke-width="0.5" stroke="black" fill="magenta"/>
  <circle cx="543.508" cy="486.372" r="4.71146" stroke-width="0.5" stroke="black" fill="magenta"/>
   </g>
   <g id="cell154">
  <circle cx="489.765" cy="488.655" r="7.83637" stroke-width="0.5" stroke="black" fill="green"/>
  <circle cx="489.765" cy="488.655" r="4.76231" stroke-width="0.5" stroke="black" fill="green"/>
   </g>
   <g id="cell155">
  <circle cx="485.11" cy="626.089" r="7.83019" stroke-width="0.5" stroke="black" fill="green"/>
  <circle cx="485.11" cy="626.089" r="4.75343" stroke-width="0.5" stroke="black" fill="green"/>
   </g>
   <g id="cell156">
  <circle cx="536.879" cy="544.527" r="7.83019" stroke-width="0.5" stroke="black" fill="magenta"/>
  <circle cx="536.879" cy="544.527" r="4.75343" stroke-width="0.5" stroke="black" fill="magenta"/>
   </g>
   <g id="cell157">
  <circle cx="390.159" cy="463.692" r="7.78141" stroke-width="0.5" stroke="black" fill="green"/>
  <circle cx="390.159" cy="463.692" r="4.73328" stroke-width="0.5" stroke="black" fill="green"/>
   </g>
   <g id="cell158">
  <circle cx="601.904" cy="587.152" r="7.75322" stroke-width="0.5" stroke="black" fill="magenta"/>
  <circle cx="601.904" cy="587.152" r="4.71058" stroke-width="0.5" stroke="black" fill="magenta"/>
   </g>
   <g id="cell159">
  <circle cx="585.744" cy="451.566" r="7.69485" stroke-width="0.5" stroke="black" fill="cyan"/>
  <circle cx="585.744" cy="451.566" r="4.67646" stroke-width="0.5" stroke="black" fill="cyan"/>
   </g>
   <g id="cell160">
  <circle cx="414.548" cy="582.788" r="7.64291" stroke-width="0.5" stroke="black" fill="cyan"/>
  <circle cx="414.548" cy="582.788" r="4.64797" stroke-width="0.5" stroke="black" fill="cyan"/>
   </g>
   <g id="cell161">
  <circle cx="448.28" cy="612.9" r="7.59074" stroke-width="0.5" stroke="black" fill="magenta"/>
  <circle cx="448.28" cy="612.9" r="4.61368" stroke-width="0.5" stroke="black" fill="magenta"/>
   </g>
   <g id="cell162">
  <circle cx="571.085" cy="449.169" r="7.58535" stroke-width="0.5" stroke="black" fill="cyan"/>
  <circle cx="571.085" cy="449.169" r="4.61181" stroke-width="0.5" stroke="black" fill="cyan"/>
   </g>
   <g id="cell163">
  <circle cx="558.811" cy="538.084" r="7.51615" stroke-width="0.5" stroke="black" fill="cyan"/>
  <circle cx="558.811" cy="538.084" r="4.5782" stroke-width="0.5" stroke="black" fill="cyan"/>
   </g>
   <g id="cell164">
  <circle cx="576.912" cy="488.13" r="7.54436" stroke-width="0.5" stroke="black" fill="magenta"/>
  <circle cx="576.912" cy="488.13" r="4.58555" stroke-width="0.5" stroke="black" fill="magenta"/>
   </g>
   <g id="cell165">
  <circle cx="582.65" cy="465.452" r="7.4118" stroke-width="0.5" stroke="black" fill="cyan"/>
  <circle cx="582.65" cy="465.452" r="4.50605" stroke-width="0.5" stroke="black" fill="cyan"/>
   </g>
   <g id="cell166">
  <circle cx="650.26" cy="547.56" r="7.30129" stroke-width="0.5" stroke="black" fill="green"/>
  <circle cx="650.26" cy="547.56" r="4.43671" stroke-width="0.5" stroke="black" fill="green"/>
   </g>
   <g id="cell167">
  <circle cx="541.894" cy="500.08" r="6.78581" stroke-width="0.5" stroke="black" fill="magenta"/>
  <circle cx="541.894" cy="500.08" r="4.17191" stroke-width="0.5" stroke="black" fill="magenta"/>
   </g>
   <g id="cell168">
  <circle cx="558.622" cy="427.303" r="7.13354" stroke-width="0.5" stroke="black" fill="cyan"/>
  <circle cx="558.622" cy="427.303" r="4.34113" stroke-width="0.5" stroke="black" fill="cyan"/>
   </g>
   <g id="cell169">
  <circle cx="532.646" cy="531.407" r="6.99427" stroke-width="0.5" stroke="black" fill="cyan"/>
  <circle cx="532.646" cy="531.407" r="4.2526" stroke-width="0.5" stroke="black" fill="cyan"/>
   </g>
   <g id="cell170">
  <circle cx="526.667" cy="610.601" r="6.99069" stroke-width="0.5" stroke="black" fill="green"/>
  <circle cx="526.667" cy="610.601" r="4.23498" stroke-width="0.5" stroke="black" fill="green"/>
   </g>
   <g id="cell172">
  <circle cx="510.533" cy="405.271" r="6.87008" stroke-width="0.5" stroke="black" fill="magenta"/>
  <circle cx="510.533" cy="405.271" r="4.16065" stroke-width="0.5" stroke="black" fill="magenta"/>
   </g>
   <g id="cell173">
  <circle cx="514.781" cy="612.667" r="5.81734" stroke-width="0.5" stroke="black" fill="green"/>
  <circle cx="514.781" cy="612.667" r="3.55167" stroke-width="0.5" stroke="black" fill="green"/>
   </g>
   <g id="cell174">
  <circle cx="423.245" cy="396.531" r="6.78181" stroke-width="0.5" stroke="black" fill="green"/>
  <circle cx="423.245" cy="396.531" r="4.08714" stroke-width="0.5" stroke="black" fill="green"/>
   </g>
   <g id="cell175">
  <circle cx="436.073" cy="477.12" r="6.45512" stroke-width="0.5" stroke="black" fill="cyan"/>
  <circle cx="436.073" cy="477.12" r="3.92938" stroke-width="0.5" stroke="black" fill="cyan"/>
   </g>
   <g id="cell176">
  <circle cx="622.234" cy="503.52" r="6.52914" stroke-width="0.5" stroke="black" fill="magenta"/>
  <circle cx="622.234" cy="503.52" r="3.95601" stroke-width="0.5" stroke="black" fill="magenta"/>
   </g>
   <g id="cell177">
  <circle cx="519.122" cy="587.383" r="6.70775" stroke-width="0.5" stroke="black" fill="green"/>
  <circle cx="519.122" cy="587.383" r="4.03329" stroke-width="0.5" stroke="black" fill="green"/>
   </g>
  </g>
 </g>
  <rect x="775" y="1035" width="200" height="10" stroke-width="2" stroke="rgb(255,255,255)" fill="rgb(0,0,0)"/>
  <text x="781.25" y="1028.75"
   font-family="Arial" font-size="25" fill="black" >
   200 &#956;m
  </text>
  <text x="25" y="1045"
   font-family="Arial" font-size="18.75" fill="black" >
   0 days, 0 hours, 0 minutes, and 36.8325 seconds
  </text>
  <rect x="0" y="70" width="1000" height="1000" stroke-width="2" stroke="rgb(0,0,0)" fill="none"/>
</svg>
