<?xml version="1.0" encoding="UTF-8" standalone="no"?>
<!-- Created with PhysiCell (http://PhysiCell.MathCancer.org/) -->
<svg 
 xmlns:dc="http://purl.org/dc/elements/1.1/" 
 xmlns:cc="http://creativecommons.org/ns#" 
 xmlns:rdf="http://www.w3.org/1999/02/22-rdf-syntax-ns#" 
 xmlns:svg="http://www.w3.org/2000/svg" 
 xmlns="http://www.w3.org/2000/svg" 
 version="1.1" 
 width="1000" 
 height="1070" 
 id="svg2">
  <rect x="0" y="0" width="1000" height="1070" stroke-width="2" stroke="white" fill="white"/>
  <text x="12.5" y="30"
   font-family="Arial" font-size="25" fill="black" >
   Current time: 1 days, 8 hours, and 0.00 minutes, z = 0.00 &#956;m
  </text>
  <text x="12.5" y="57.5"
   font-family="Arial" font-size="23.75" fill="black" >
   186 agents
  </text>
 <g id="tissue" 
    transform="translate(0,1070) scale(1,-1)">
  <g id="ECM">
  </g>
  <g id="cells">
   <g id="cell0">
  <circle cx="513.179" cy="533.586" r="8.41271" stroke-width="0.5" stroke="black" fill="magenta"/>
  <circle cx="513.179" cy="533.586" r="5.05167" stroke-width="0.5" stroke="black" fill="magenta"/>
   </g>
   <g id="cell1">
  <circle cx="603.39" cy="541.153" r="8.41271" stroke-width="0.5" stroke="black" fill="magenta"/>
  <circle cx="603.39" cy="541.153" r="5.05167" stroke-width="0.5" stroke="black" fill="magenta"/>
   </g>
   <g id="cell2">
  <circle cx="504.959" cy="599.355" r="8.41271" stroke-width="0.5" stroke="black" fill="magenta"/>
  <circle cx="504.959" cy="599.355" r="5.05167" stroke-width="0.5" stroke="black" fill="magenta"/>
   </g>
   <g id="cell3">
  <circle cx="523.645" cy="557.442" r="8.27497" stroke-width="0.5" stroke="black" fill="magenta"/>
  <circle cx="523.645" cy="557.442" r="4.99242" stroke-width="0.5" stroke="black" fill="magenta"/>
   </g>
   <g id="cell4">
  <circle cx="481.382" cy="439.867" r="8.41271" stroke-width="0.5" stroke="black" fill="magenta"/>
  <circle cx="481.382" cy="439.867" r="5.05167" stroke-width="0.5" stroke="black" fill="magenta"/>
   </g>
   <g id="cell5">
  <circle cx="465.245" cy="487.773" r="8.41271" stroke-width="0.5" stroke="black" fill="magenta"/>
  <circle cx="465.245" cy="487.773" r="5.05167" stroke-width="0.5" stroke="black" fill="magenta"/>
   </g>
   <g id="cell6">
  <circle cx="585.895" cy="519.103" r="8.40331" stroke-width="0.5" stroke="black" fill="magenta"/>
  <circle cx="585.895" cy="519.103" r="5.04883" stroke-width="0.5" stroke="black" fill="magenta"/>
   </g>
   <g id="cell171">
  <circle cx="584.169" cy="503.823" r="8.03475" stroke-width="0.5" stroke="black" fill="magenta"/>
  <circle cx="584.169" cy="503.823" r="4.868" stroke-width="0.5" stroke="black" fill="magenta"/>
   </g>
   <g id="cell8">
  <circle cx="383.34" cy="527.376" r="8.32543" stroke-width="0.5" stroke="black" fill="magenta"/>
  <circle cx="383.34" cy="527.376" r="5.01617" stroke-width="0.5" stroke="black" fill="magenta"/>
   </g>
   <g id="cell193">
  <circle cx="441.015" cy="565.754" r="6.19054" stroke-width="0.5" stroke="black" fill="green"/>
  <circle cx="441.015" cy="565.754" r="3.79748" stroke-width="0.5" stroke="black" fill="green"/>
   </g>
   <g id="cell186">
  <circle cx="549.435" cy="432.663" r="7.24909" stroke-width="0.5" stroke="black" fill="cyan"/>
  <circle cx="549.435" cy="432.663" r="4.41548" stroke-width="0.5" stroke="black" fill="cyan"/>
   </g>
   <g id="cell11">
  <circle cx="597.467" cy="572.529" r="8.25696" stroke-width="0.5" stroke="black" fill="magenta"/>
  <circle cx="597.467" cy="572.529" r="4.98394" stroke-width="0.5" stroke="black" fill="magenta"/>
   </g>
   <g id="cell12">
  <circle cx="504.976" cy="583.424" r="8.41271" stroke-width="0.5" stroke="black" fill="magenta"/>
  <circle cx="504.976" cy="583.424" r="5.05167" stroke-width="0.5" stroke="black" fill="magenta"/>
   </g>
   <g id="cell13">
  <circle cx="394.137" cy="572.058" r="8.41234" stroke-width="0.5" stroke="black" fill="magenta"/>
  <circle cx="394.137" cy="572.058" r="5.05159" stroke-width="0.5" stroke="black" fill="magenta"/>
   </g>
   <g id="cell109">
  <circle cx="372.565" cy="442.775" r="8.40683" stroke-width="0.5" stroke="black" fill="cyan"/>
  <circle cx="372.565" cy="442.775" r="5.04993" stroke-width="0.5" stroke="black" fill="cyan"/>
   </g>
   <g id="cell15">
  <circle cx="379.833" cy="474.699" r="1.29827" stroke-width="0.5" stroke="black" fill="magenta"/>
  <circle cx="379.833" cy="474.699" r="1.29055" stroke-width="0.5" stroke="black" fill="black"/>
   </g>
   <g id="cell16">
  <circle cx="420.043" cy="428.042" r="8.37828" stroke-width="0.5" stroke="black" fill="magenta"/>
  <circle cx="420.043" cy="428.042" r="5.0394" stroke-width="0.5" stroke="black" fill="magenta"/>
   </g>
   <g id="cell17">
  <circle cx="569.237" cy="502.544" r="8.20689" stroke-width="0.5" stroke="black" fill="magenta"/>
  <circle cx="569.237" cy="502.544" r="4.95867" stroke-width="0.5" stroke="black" fill="magenta"/>
   </g>
   <g id="cell185">
  <circle cx="403.528" cy="544.723" r="6.98365" stroke-width="0.5" stroke="black" fill="green"/>
  <circle cx="403.528" cy="544.723" r="4.28282" stroke-width="0.5" stroke="black" fill="green"/>
   </g>
   <g id="cell19">
  <circle cx="449.926" cy="549.56" r="7.6129" stroke-width="0.5" stroke="black" fill="magenta"/>
  <circle cx="449.926" cy="549.56" r="4.62708" stroke-width="0.5" stroke="black" fill="magenta"/>
   </g>
   <g id="cell20">
  <circle cx="532.034" cy="420.647" r="8.41271" stroke-width="0.5" stroke="black" fill="magenta"/>
  <circle cx="532.034" cy="420.647" r="5.05167" stroke-width="0.5" stroke="black" fill="magenta"/>
   </g>
   <g id="cell21">
  <circle cx="463.661" cy="635.698" r="8.41271" stroke-width="0.5" stroke="black" fill="magenta"/>
  <circle cx="463.661" cy="635.698" r="5.05167" stroke-width="0.5" stroke="black" fill="magenta"/>
   </g>
   <g id="cell22">
  <circle cx="555.715" cy="495.471" r="8.41271" stroke-width="0.5" stroke="black" fill="magenta"/>
  <circle cx="555.715" cy="495.471" r="5.05167" stroke-width="0.5" stroke="black" fill="magenta"/>
   </g>
   <g id="cell23">
  <circle cx="552.451" cy="510.702" r="8.0452" stroke-width="0.5" stroke="black" fill="magenta"/>
  <circle cx="552.451" cy="510.702" r="4.88357" stroke-width="0.5" stroke="black" fill="magenta"/>
   </g>
   <g id="cell124">
  <circle cx="557.304" cy="457.216" r="8.37287" stroke-width="0.5" stroke="black" fill="cyan"/>
  <circle cx="557.304" cy="457.216" r="5.03748" stroke-width="0.5" stroke="black" fill="cyan"/>
   </g>
   <g id="cell25">
  <circle cx="636.545" cy="554.732" r="8.40955" stroke-width="0.5" stroke="black" fill="green"/>
  <circle cx="636.545" cy="554.732" r="5.05083" stroke-width="0.5" stroke="black" fill="green"/>
   </g>
   <g id="cell26">
  <circle cx="554.302" cy="399.875" r="8.41151" stroke-width="0.5" stroke="black" fill="green"/>
  <circle cx="554.302" cy="399.875" r="5.05137" stroke-width="0.5" stroke="black" fill="green"/>
   </g>
   <g id="cell27">
  <circle cx="457.446" cy="388.678" r="8.41271" stroke-width="0.5" stroke="black" fill="green"/>
  <circle cx="457.446" cy="388.678" r="5.05167" stroke-width="0.5" stroke="black" fill="green"/>
   </g>
   <g id="cell28">
  <circle cx="428.485" cy="522.493" r="8.41271" stroke-width="0.5" stroke="black" fill="green"/>
  <circle cx="428.485" cy="522.493" r="5.05167" stroke-width="0.5" stroke="black" fill="green"/>
   </g>
   <g id="cell29">
  <circle cx="440.158" cy="511.574" r="8.38454" stroke-width="0.5" stroke="black" fill="green"/>
  <circle cx="440.158" cy="511.574" r="5.04168" stroke-width="0.5" stroke="black" fill="green"/>
   </g>
   <g id="cell126">
  <circle cx="527.837" cy="506.673" r="8.39378" stroke-width="0.5" stroke="black" fill="green"/>
  <circle cx="527.837" cy="506.673" r="5.04564" stroke-width="0.5" stroke="black" fill="green"/>
   </g>
   <g id="cell31">
  <circle cx="417.799" cy="534.315" r="8.40494" stroke-width="0.5" stroke="black" fill="green"/>
  <circle cx="417.799" cy="534.315" r="5.04929" stroke-width="0.5" stroke="black" fill="green"/>
   </g>
   <g id="cell32">
  <circle cx="418.529" cy="487.304" r="8.33257" stroke-width="0.5" stroke="black" fill="green"/>
  <circle cx="418.529" cy="487.304" r="5.01941" stroke-width="0.5" stroke="black" fill="green"/>
   </g>
   <g id="cell33">
  <circle cx="494.145" cy="423.184" r="8.41271" stroke-width="0.5" stroke="black" fill="green"/>
  <circle cx="494.145" cy="423.184" r="5.05167" stroke-width="0.5" stroke="black" fill="green"/>
   </g>
   <g id="cell34">
  <circle cx="387.483" cy="447.975" r="8.26429" stroke-width="0.5" stroke="black" fill="green"/>
  <circle cx="387.483" cy="447.975" r="4.98874" stroke-width="0.5" stroke="black" fill="green"/>
   </g>
   <g id="cell35">
  <circle cx="546.527" cy="558.614" r="7.87851" stroke-width="0.5" stroke="black" fill="green"/>
  <circle cx="546.527" cy="558.614" r="4.78096" stroke-width="0.5" stroke="black" fill="green"/>
   </g>
   <g id="cell36">
  <circle cx="384.72" cy="584.594" r="8.41271" stroke-width="0.5" stroke="black" fill="green"/>
  <circle cx="384.72" cy="584.594" r="5.05167" stroke-width="0.5" stroke="black" fill="green"/>
   </g>
   <g id="cell37">
  <circle cx="634.871" cy="460.618" r="8.41271" stroke-width="0.5" stroke="black" fill="green"/>
  <circle cx="634.871" cy="460.618" r="5.05167" stroke-width="0.5" stroke="black" fill="green"/>
   </g>
   <g id="cell38">
  <circle cx="543.501" cy="613.818" r="8.38272" stroke-width="0.5" stroke="black" fill="green"/>
  <circle cx="543.501" cy="613.818" r="5.04099" stroke-width="0.5" stroke="black" fill="green"/>
   </g>
   <g id="cell39">
  <circle cx="620.385" cy="482.327" r="8.41271" stroke-width="0.5" stroke="black" fill="green"/>
  <circle cx="620.385" cy="482.327" r="5.05167" stroke-width="0.5" stroke="black" fill="green"/>
   </g>
   <g id="cell40">
  <circle cx="481.932" cy="565.992" r="8.41194" stroke-width="0.5" stroke="black" fill="green"/>
  <circle cx="481.932" cy="565.992" r="5.05148" stroke-width="0.5" stroke="black" fill="green"/>
   </g>
   <g id="cell41">
  <circle cx="365.092" cy="480.246" r="8.41271" stroke-width="0.5" stroke="black" fill="green"/>
  <circle cx="365.092" cy="480.246" r="5.05167" stroke-width="0.5" stroke="black" fill="green"/>
   </g>
   <g id="cell42">
  <circle cx="437.97" cy="495.527" r="8.41271" stroke-width="0.5" stroke="black" fill="green"/>
  <circle cx="437.97" cy="495.527" r="5.05167" stroke-width="0.5" stroke="black" fill="green"/>
   </g>
   <g id="cell43">
  <circle cx="561.086" cy="441.586" r="8.41271" stroke-width="0.5" stroke="black" fill="green"/>
  <circle cx="561.086" cy="441.586" r="5.05167" stroke-width="0.5" stroke="black" fill="green"/>
   </g>
   <g id="cell44">
  <circle cx="470.558" cy="621.387" r="8.27497" stroke-width="0.5" stroke="black" fill="green"/>
  <circle cx="470.558" cy="621.387" r="4.99242" stroke-width="0.5" stroke="black" fill="green"/>
   </g>
   <g id="cell45">
  <circle cx="432.011" cy="573.222" r="6.19054" stroke-width="0.5" stroke="black" fill="green"/>
  <circle cx="432.011" cy="573.222" r="3.79748" stroke-width="0.5" stroke="black" fill="green"/>
   </g>
   <g id="cell46">
  <circle cx="518.076" cy="626.197" r="7.82004" stroke-width="0.5" stroke="black" fill="green"/>
  <circle cx="518.076" cy="626.197" r="4.76266" stroke-width="0.5" stroke="black" fill="green"/>
   </g>
   <g id="cell47">
  <circle cx="487.894" cy="504.208" r="8.39647" stroke-width="0.5" stroke="black" fill="green"/>
  <circle cx="487.894" cy="504.208" r="5.0463" stroke-width="0.5" stroke="black" fill="green"/>
   </g>
   <g id="cell48">
  <circle cx="562.233" cy="602.514" r="8.41271" stroke-width="0.5" stroke="black" fill="green"/>
  <circle cx="562.233" cy="602.514" r="5.05167" stroke-width="0.5" stroke="black" fill="green"/>
   </g>
   <g id="cell49">
  <circle cx="431.366" cy="385.473" r="7.97646" stroke-width="0.5" stroke="black" fill="green"/>
  <circle cx="431.366" cy="385.473" r="4.83584" stroke-width="0.5" stroke="black" fill="green"/>
   </g>
   <g id="cell50">
  <circle cx="515.802" cy="515.814" r="1.33065" stroke-width="0.5" stroke="black" fill="cyan"/>
  <circle cx="515.802" cy="515.814" r="1.32157" stroke-width="0.5" stroke="black" fill="black"/>
   </g>
   <g id="cell51">
  <circle cx="419.112" cy="597.263" r="8.40624" stroke-width="0.5" stroke="black" fill="cyan"/>
  <circle cx="419.112" cy="597.263" r="5.04976" stroke-width="0.5" stroke="black" fill="cyan"/>
   </g>
   <g id="cell52">
  <circle cx="515.9" cy="419.145" r="8.41271" stroke-width="0.5" stroke="black" fill="cyan"/>
  <circle cx="515.9" cy="419.145" r="5.05167" stroke-width="0.5" stroke="black" fill="cyan"/>
   </g>
   <g id="cell53">
  <circle cx="577.352" cy="437.028" r="8.21702" stroke-width="0.5" stroke="black" fill="cyan"/>
  <circle cx="577.352" cy="437.028" r="4.9641" stroke-width="0.5" stroke="black" fill="cyan"/>
   </g>
   <g id="cell54">
  <circle cx="478.152" cy="424.169" r="8.41271" stroke-width="0.5" stroke="black" fill="cyan"/>
  <circle cx="478.152" cy="424.169" r="5.05167" stroke-width="0.5" stroke="black" fill="cyan"/>
   </g>
   <g id="cell55">
  <circle cx="524.059" cy="463.674" r="7.24056" stroke-width="0.5" stroke="black" fill="cyan"/>
  <circle cx="524.059" cy="463.674" r="4.39877" stroke-width="0.5" stroke="black" fill="cyan"/>
   </g>
   <g id="cell56">
  <circle cx="633.173" cy="522.375" r="8.41078" stroke-width="0.5" stroke="black" fill="cyan"/>
  <circle cx="633.173" cy="522.375" r="5.05116" stroke-width="0.5" stroke="black" fill="cyan"/>
   </g>
   <g id="cell57">
  <circle cx="418.801" cy="612.518" r="7.84675" stroke-width="0.5" stroke="black" fill="cyan"/>
  <circle cx="418.801" cy="612.518" r="4.7629" stroke-width="0.5" stroke="black" fill="cyan"/>
   </g>
   <g id="cell58">
  <circle cx="551.387" cy="480.339" r="1.41604" stroke-width="0.5" stroke="black" fill="cyan"/>
  <circle cx="551.387" cy="480.339" r="1.40242" stroke-width="0.5" stroke="black" fill="black"/>
   </g>
   <g id="cell59">
  <circle cx="384.335" cy="431.394" r="1.15705" stroke-width="0.5" stroke="black" fill="cyan"/>
  <circle cx="384.335" cy="431.394" r="1.15342" stroke-width="0.5" stroke="black" fill="black"/>
   </g>
   <g id="cell60">
  <circle cx="614.15" cy="467.961" r="8.41209" stroke-width="0.5" stroke="black" fill="cyan"/>
  <circle cx="614.15" cy="467.961" r="5.05152" stroke-width="0.5" stroke="black" fill="cyan"/>
   </g>
   <g id="cell121">
  <circle cx="452.503" cy="461.997" r="8.40222" stroke-width="0.5" stroke="black" fill="cyan"/>
  <circle cx="452.503" cy="461.997" r="5.04848" stroke-width="0.5" stroke="black" fill="cyan"/>
   </g>
   <g id="cell62">
  <circle cx="497.969" cy="451.34" r="8.33778" stroke-width="0.5" stroke="black" fill="cyan"/>
  <circle cx="497.969" cy="451.34" r="5.02199" stroke-width="0.5" stroke="black" fill="cyan"/>
   </g>
   <g id="cell63">
  <circle cx="580.33" cy="544.997" r="8.41271" stroke-width="0.5" stroke="black" fill="cyan"/>
  <circle cx="580.33" cy="544.997" r="5.05167" stroke-width="0.5" stroke="black" fill="cyan"/>
   </g>
   <g id="cell64">
  <circle cx="509.056" cy="638.741" r="8.41271" stroke-width="0.5" stroke="black" fill="cyan"/>
  <circle cx="509.056" cy="638.741" r="5.05167" stroke-width="0.5" stroke="black" fill="cyan"/>
   </g>
   <g id="cell65">
  <circle cx="543.852" cy="466.235" r="3.19585" stroke-width="0.5" stroke="black" fill="cyan"/>
  <circle cx="543.852" cy="466.235" r="2.55241" stroke-width="0.5" stroke="black" fill="black"/>
   </g>
   <g id="cell66">
  <circle cx="522.882" cy="521.338" r="8.06533" stroke-width="0.5" stroke="black" fill="cyan"/>
  <circle cx="522.882" cy="521.338" r="4.88655" stroke-width="0.5" stroke="black" fill="cyan"/>
   </g>
   <g id="cell67">
  <circle cx="354.782" cy="492.513" r="8.41271" stroke-width="0.5" stroke="black" fill="cyan"/>
  <circle cx="354.782" cy="492.513" r="5.05167" stroke-width="0.5" stroke="black" fill="cyan"/>
   </g>
   <g id="cell68">
  <circle cx="569.798" cy="557.059" r="8.41271" stroke-width="0.5" stroke="black" fill="cyan"/>
  <circle cx="569.798" cy="557.059" r="5.05167" stroke-width="0.5" stroke="black" fill="cyan"/>
   </g>
   <g id="cell69">
  <circle cx="442.679" cy="449.379" r="8.40222" stroke-width="0.5" stroke="black" fill="cyan"/>
  <circle cx="442.679" cy="449.379" r="5.04848" stroke-width="0.5" stroke="black" fill="cyan"/>
   </g>
   <g id="cell70">
  <circle cx="588.288" cy="477.604" r="8.17426" stroke-width="0.5" stroke="black" fill="cyan"/>
  <circle cx="588.288" cy="477.604" r="4.94216" stroke-width="0.5" stroke="black" fill="cyan"/>
   </g>
   <g id="cell71">
  <circle cx="374.233" cy="514.419" r="8.41271" stroke-width="0.5" stroke="black" fill="cyan"/>
  <circle cx="374.233" cy="514.419" r="5.05167" stroke-width="0.5" stroke="black" fill="cyan"/>
   </g>
   <g id="cell72">
  <circle cx="538.382" cy="518.018" r="8.41271" stroke-width="0.5" stroke="black" fill="cyan"/>
  <circle cx="538.382" cy="518.018" r="5.05167" stroke-width="0.5" stroke="black" fill="cyan"/>
   </g>
   <g id="cell73">
  <circle cx="354.567" cy="550.514" r="8.40468" stroke-width="0.5" stroke="black" fill="cyan"/>
  <circle cx="354.567" cy="550.514" r="5.04927" stroke-width="0.5" stroke="black" fill="cyan"/>
   </g>
   <g id="cell74">
  <circle cx="545.74" cy="446.57" r="8.41271" stroke-width="0.5" stroke="black" fill="cyan"/>
  <circle cx="545.74" cy="446.57" r="5.05167" stroke-width="0.5" stroke="black" fill="cyan"/>
   </g>
   <g id="cell75">
  <circle cx="592.854" cy="491.806" r="8.03475" stroke-width="0.5" stroke="black" fill="magenta"/>
  <circle cx="592.854" cy="491.806" r="4.868" stroke-width="0.5" stroke="black" fill="magenta"/>
   </g>
   <g id="cell76">
  <circle cx="648.154" cy="532.862" r="8.14577" stroke-width="0.5" stroke="black" fill="green"/>
  <circle cx="648.154" cy="532.862" r="4.92722" stroke-width="0.5" stroke="black" fill="green"/>
   </g>
   <g id="cell77">
  <circle cx="501.504" cy="512.329" r="8.40633" stroke-width="0.5" stroke="black" fill="green"/>
  <circle cx="501.504" cy="512.329" r="5.04978" stroke-width="0.5" stroke="black" fill="green"/>
   </g>
   <g id="cell78">
  <circle cx="362.363" cy="570.65" r="8.41139" stroke-width="0.5" stroke="black" fill="magenta"/>
  <circle cx="362.363" cy="570.65" r="5.05134" stroke-width="0.5" stroke="black" fill="magenta"/>
   </g>
   <g id="cell79">
  <circle cx="538.204" cy="571.353" r="8.39199" stroke-width="0.5" stroke="black" fill="green"/>
  <circle cx="538.204" cy="571.353" r="5.04467" stroke-width="0.5" stroke="black" fill="green"/>
   </g>
   <g id="cell80">
  <circle cx="457.923" cy="601.524" r="8.21816" stroke-width="0.5" stroke="black" fill="magenta"/>
  <circle cx="457.923" cy="601.524" r="4.96443" stroke-width="0.5" stroke="black" fill="magenta"/>
   </g>
   <g id="cell81">
  <circle cx="396.35" cy="616.62" r="8.40983" stroke-width="0.5" stroke="black" fill="cyan"/>
  <circle cx="396.35" cy="616.62" r="5.0509" stroke-width="0.5" stroke="black" fill="cyan"/>
   </g>
   <g id="cell82">
  <circle cx="598.723" cy="466.174" r="8.24316" stroke-width="0.5" stroke="black" fill="cyan"/>
  <circle cx="598.723" cy="466.174" r="4.97713" stroke-width="0.5" stroke="black" fill="cyan"/>
   </g>
   <g id="cell83">
  <circle cx="546.849" cy="598.125" r="8.41191" stroke-width="0.5" stroke="black" fill="green"/>
  <circle cx="546.849" cy="598.125" r="5.05148" stroke-width="0.5" stroke="black" fill="green"/>
   </g>
   <g id="cell84">
  <circle cx="489.332" cy="580.185" r="8.41194" stroke-width="0.5" stroke="black" fill="green"/>
  <circle cx="489.332" cy="580.185" r="5.05148" stroke-width="0.5" stroke="black" fill="green"/>
   </g>
   <g id="cell85">
  <circle cx="619.412" cy="496.867" r="7.29262" stroke-width="0.5" stroke="black" fill="magenta"/>
  <circle cx="619.412" cy="496.867" r="4.46611" stroke-width="0.5" stroke="black" fill="magenta"/>
   </g>
   <g id="cell86">
  <circle cx="524.222" cy="597.427" r="7.93619" stroke-width="0.5" stroke="black" fill="green"/>
  <circle cx="524.222" cy="597.427" r="4.81364" stroke-width="0.5" stroke="black" fill="green"/>
   </g>
   <g id="cell87">
  <circle cx="589.965" cy="610.503" r="8.31986" stroke-width="0.5" stroke="black" fill="magenta"/>
  <circle cx="589.965" cy="610.503" r="5.01371" stroke-width="0.5" stroke="black" fill="magenta"/>
   </g>
   <g id="cell88">
  <circle cx="369.321" cy="556.262" r="8.40406" stroke-width="0.5" stroke="black" fill="magenta"/>
  <circle cx="369.321" cy="556.262" r="5.04906" stroke-width="0.5" stroke="black" fill="magenta"/>
   </g>
   <g id="cell89">
  <circle cx="539.198" cy="405.838" r="8.41056" stroke-width="0.5" stroke="black" fill="green"/>
  <circle cx="539.198" cy="405.838" r="5.05112" stroke-width="0.5" stroke="black" fill="green"/>
   </g>
   <g id="cell90">
  <circle cx="564.643" cy="483.917" r="7.20442" stroke-width="0.5" stroke="black" fill="cyan"/>
  <circle cx="564.643" cy="483.917" r="4.37743" stroke-width="0.5" stroke="black" fill="cyan"/>
   </g>
   <g id="cell91">
  <circle cx="541.663" cy="390.069" r="8.41056" stroke-width="0.5" stroke="black" fill="green"/>
  <circle cx="541.663" cy="390.069" r="5.05112" stroke-width="0.5" stroke="black" fill="green"/>
   </g>
   <g id="cell92">
  <circle cx="641.953" cy="569.822" r="8.41082" stroke-width="0.5" stroke="black" fill="green"/>
  <circle cx="641.953" cy="569.822" r="5.05118" stroke-width="0.5" stroke="black" fill="green"/>
   </g>
   <g id="cell93">
  <circle cx="362.62" cy="536.69" r="8.41093" stroke-width="0.5" stroke="black" fill="cyan"/>
  <circle cx="362.62" cy="536.69" r="5.0512" stroke-width="0.5" stroke="black" fill="cyan"/>
   </g>
   <g id="cell94">
  <circle cx="614.006" cy="531.155" r="7.08503" stroke-width="0.5" stroke="black" fill="cyan"/>
  <circle cx="614.006" cy="531.155" r="4.29837" stroke-width="0.5" stroke="black" fill="cyan"/>
   </g>
   <g id="cell95">
  <circle cx="576.629" cy="584.38" r="8.41021" stroke-width="0.5" stroke="black" fill="magenta"/>
  <circle cx="576.629" cy="584.38" r="5.05102" stroke-width="0.5" stroke="black" fill="magenta"/>
   </g>
   <g id="cell96">
  <circle cx="604.232" cy="481.085" r="8.41036" stroke-width="0.5" stroke="black" fill="cyan"/>
  <circle cx="604.232" cy="481.085" r="5.05105" stroke-width="0.5" stroke="black" fill="cyan"/>
   </g>
   <g id="cell97">
  <circle cx="622.674" cy="546.659" r="8.40955" stroke-width="0.5" stroke="black" fill="green"/>
  <circle cx="622.674" cy="546.659" r="5.05083" stroke-width="0.5" stroke="black" fill="green"/>
   </g>
   <g id="cell98">
  <circle cx="600.536" cy="525.247" r="8.41034" stroke-width="0.5" stroke="black" fill="magenta"/>
  <circle cx="600.536" cy="525.247" r="5.05104" stroke-width="0.5" stroke="black" fill="magenta"/>
   </g>
   <g id="cell99">
  <circle cx="576.546" cy="421.152" r="8.41009" stroke-width="0.5" stroke="black" fill="cyan"/>
  <circle cx="576.546" cy="421.152" r="5.05096" stroke-width="0.5" stroke="black" fill="cyan"/>
   </g>
   <g id="cell100">
  <circle cx="374.98" cy="597.044" r="8.40321" stroke-width="0.5" stroke="black" fill="cyan"/>
  <circle cx="374.98" cy="597.044" r="5.04885" stroke-width="0.5" stroke="black" fill="cyan"/>
   </g>
   <g id="cell101">
  <circle cx="536.28" cy="435.058" r="7.24909" stroke-width="0.5" stroke="black" fill="cyan"/>
  <circle cx="536.28" cy="435.058" r="4.41548" stroke-width="0.5" stroke="black" fill="cyan"/>
   </g>
   <g id="cell102">
  <circle cx="500.788" cy="474.208" r="8.38752" stroke-width="0.5" stroke="black" fill="cyan"/>
  <circle cx="500.788" cy="474.208" r="5.04301" stroke-width="0.5" stroke="black" fill="cyan"/>
   </g>
   <g id="cell103">
  <circle cx="468.338" cy="533.701" r="8.38757" stroke-width="0.5" stroke="black" fill="magenta"/>
  <circle cx="468.338" cy="533.701" r="5.04335" stroke-width="0.5" stroke="black" fill="magenta"/>
   </g>
   <g id="cell104">
  <circle cx="405.528" cy="605.529" r="1.58732" stroke-width="0.5" stroke="black" fill="cyan"/>
  <circle cx="405.528" cy="605.529" r="1.55931" stroke-width="0.5" stroke="black" fill="black"/>
   </g>
   <g id="cell105">
  <circle cx="509.897" cy="461.575" r="8.40925" stroke-width="0.5" stroke="black" fill="magenta"/>
  <circle cx="509.897" cy="461.575" r="5.0507" stroke-width="0.5" stroke="black" fill="magenta"/>
   </g>
   <g id="cell106">
  <circle cx="436.432" cy="402.907" r="8.40873" stroke-width="0.5" stroke="black" fill="magenta"/>
  <circle cx="436.432" cy="402.907" r="5.05054" stroke-width="0.5" stroke="black" fill="magenta"/>
   </g>
   <g id="cell107">
  <circle cx="423.382" cy="455.856" r="8.40122" stroke-width="0.5" stroke="black" fill="cyan"/>
  <circle cx="423.382" cy="455.856" r="5.04813" stroke-width="0.5" stroke="black" fill="cyan"/>
   </g>
   <g id="cell108">
  <circle cx="523.994" cy="380.14" r="8.40745" stroke-width="0.5" stroke="black" fill="magenta"/>
  <circle cx="523.994" cy="380.14" r="5.05013" stroke-width="0.5" stroke="black" fill="magenta"/>
   </g>
   <g id="cell110">
  <circle cx="519.62" cy="395.096" r="8.01932" stroke-width="0.5" stroke="black" fill="magenta"/>
  <circle cx="519.62" cy="395.096" r="4.86059" stroke-width="0.5" stroke="black" fill="magenta"/>
   </g>
   <g id="cell111">
  <circle cx="514.978" cy="492.66" r="7.07306" stroke-width="0.5" stroke="black" fill="green"/>
  <circle cx="514.978" cy="492.66" r="4.29424" stroke-width="0.5" stroke="black" fill="green"/>
   </g>
   <g id="cell112">
  <circle cx="400.582" cy="586.521" r="8.23107" stroke-width="0.5" stroke="black" fill="cyan"/>
  <circle cx="400.582" cy="586.521" r="4.9715" stroke-width="0.5" stroke="black" fill="cyan"/>
   </g>
   <g id="cell113">
  <circle cx="339.072" cy="546.903" r="8.40468" stroke-width="0.5" stroke="black" fill="cyan"/>
  <circle cx="339.072" cy="546.903" r="5.04927" stroke-width="0.5" stroke="black" fill="cyan"/>
   </g>
   <g id="cell114">
  <circle cx="381.072" cy="611.744" r="8.40061" stroke-width="0.5" stroke="black" fill="cyan"/>
  <circle cx="381.072" cy="611.744" r="5.04803" stroke-width="0.5" stroke="black" fill="cyan"/>
   </g>
   <g id="cell115">
  <circle cx="391.034" cy="599.271" r="8.40061" stroke-width="0.5" stroke="black" fill="cyan"/>
  <circle cx="391.034" cy="599.271" r="5.04803" stroke-width="0.5" stroke="black" fill="cyan"/>
   </g>
   <g id="cell116">
  <circle cx="402.913" cy="531.013" r="7.67521" stroke-width="0.5" stroke="black" fill="green"/>
  <circle cx="402.913" cy="531.013" r="4.66466" stroke-width="0.5" stroke="black" fill="green"/>
   </g>
   <g id="cell117">
  <circle cx="378.29" cy="569.81" r="8.39839" stroke-width="0.5" stroke="black" fill="magenta"/>
  <circle cx="378.29" cy="569.81" r="5.04722" stroke-width="0.5" stroke="black" fill="magenta"/>
   </g>
   <g id="cell118">
  <circle cx="398.713" cy="436.654" r="8.40178" stroke-width="0.5" stroke="black" fill="cyan"/>
  <circle cx="398.713" cy="436.654" r="5.04835" stroke-width="0.5" stroke="black" fill="cyan"/>
   </g>
   <g id="cell119">
  <circle cx="569.87" cy="518.253" r="8.40331" stroke-width="0.5" stroke="black" fill="magenta"/>
  <circle cx="569.87" cy="518.253" r="5.04883" stroke-width="0.5" stroke="black" fill="magenta"/>
   </g>
   <g id="cell120">
  <circle cx="500.939" cy="489.837" r="8.27674" stroke-width="0.5" stroke="black" fill="green"/>
  <circle cx="500.939" cy="489.837" r="4.99429" stroke-width="0.5" stroke="black" fill="green"/>
   </g>
   <g id="cell122">
  <circle cx="449.936" cy="485.673" r="7.92061" stroke-width="0.5" stroke="black" fill="cyan"/>
  <circle cx="449.936" cy="485.673" r="4.81291" stroke-width="0.5" stroke="black" fill="cyan"/>
   </g>
   <g id="cell123">
  <circle cx="384.406" cy="555.724" r="7.83853" stroke-width="0.5" stroke="black" fill="magenta"/>
  <circle cx="384.406" cy="555.724" r="4.76022" stroke-width="0.5" stroke="black" fill="magenta"/>
   </g>
   <g id="cell125">
  <circle cx="532.121" cy="475.554" r="8.40056" stroke-width="0.5" stroke="black" fill="magenta"/>
  <circle cx="532.121" cy="475.554" r="5.04776" stroke-width="0.5" stroke="black" fill="magenta"/>
   </g>
   <g id="cell127">
  <circle cx="440.037" cy="533.598" r="8.39647" stroke-width="0.5" stroke="black" fill="magenta"/>
  <circle cx="440.037" cy="533.598" r="5.04641" stroke-width="0.5" stroke="black" fill="magenta"/>
   </g>
   <g id="cell128">
  <circle cx="547.865" cy="418.565" r="8.10417" stroke-width="0.5" stroke="black" fill="cyan"/>
  <circle cx="547.865" cy="418.565" r="4.90702" stroke-width="0.5" stroke="black" fill="cyan"/>
   </g>
   <g id="cell129">
  <circle cx="488.682" cy="521.056" r="8.39647" stroke-width="0.5" stroke="black" fill="green"/>
  <circle cx="488.682" cy="521.056" r="5.0463" stroke-width="0.5" stroke="black" fill="green"/>
   </g>
   <g id="cell130">
  <circle cx="454.228" cy="538.305" r="1.92004" stroke-width="0.5" stroke="black" fill="magenta"/>
  <circle cx="454.228" cy="538.305" r="1.83567" stroke-width="0.5" stroke="black" fill="black"/>
   </g>
   <g id="cell131">
  <circle cx="535.522" cy="586.902" r="8.39199" stroke-width="0.5" stroke="black" fill="green"/>
  <circle cx="535.522" cy="586.902" r="5.04467" stroke-width="0.5" stroke="black" fill="green"/>
   </g>
   <g id="cell132">
  <circle cx="402.575" cy="451.95" r="8.30976" stroke-width="0.5" stroke="black" fill="green"/>
  <circle cx="402.575" cy="451.95" r="5.0102" stroke-width="0.5" stroke="black" fill="green"/>
   </g>
   <g id="cell133">
  <circle cx="551.261" cy="524.989" r="7.38884" stroke-width="0.5" stroke="black" fill="cyan"/>
  <circle cx="551.261" cy="524.989" r="4.5114" stroke-width="0.5" stroke="black" fill="cyan"/>
   </g>
   <g id="cell134">
  <circle cx="516.397" cy="478.161" r="8.38752" stroke-width="0.5" stroke="black" fill="cyan"/>
  <circle cx="516.397" cy="478.161" r="5.04301" stroke-width="0.5" stroke="black" fill="cyan"/>
   </g>
   <g id="cell135">
  <circle cx="409.43" cy="568.036" r="8.34453" stroke-width="0.5" stroke="black" fill="green"/>
  <circle cx="409.43" cy="568.036" r="5.02587" stroke-width="0.5" stroke="black" fill="green"/>
   </g>
   <g id="cell136">
  <circle cx="455.419" cy="507.23" r="8.31243" stroke-width="0.5" stroke="black" fill="green"/>
  <circle cx="455.419" cy="507.23" r="5.0126" stroke-width="0.5" stroke="black" fill="green"/>
   </g>
   <g id="cell137">
  <circle cx="533.503" cy="626.456" r="8.38272" stroke-width="0.5" stroke="black" fill="green"/>
  <circle cx="533.503" cy="626.456" r="5.04099" stroke-width="0.5" stroke="black" fill="green"/>
   </g>
   <g id="cell138">
  <circle cx="432.882" cy="418.542" r="8.37828" stroke-width="0.5" stroke="black" fill="magenta"/>
  <circle cx="432.882" cy="418.542" r="5.0394" stroke-width="0.5" stroke="black" fill="magenta"/>
   </g>
   <g id="cell139">
  <circle cx="569.039" cy="467.589" r="8.37287" stroke-width="0.5" stroke="black" fill="cyan"/>
  <circle cx="569.039" cy="467.589" r="5.03748" stroke-width="0.5" stroke="black" fill="cyan"/>
   </g>
   <g id="cell140">
  <circle cx="451.735" cy="522.697" r="8.36011" stroke-width="0.5" stroke="black" fill="green"/>
  <circle cx="451.735" cy="522.697" r="5.0325" stroke-width="0.5" stroke="black" fill="green"/>
   </g>
   <g id="cell141">
  <circle cx="420.787" cy="549.76" r="8.34453" stroke-width="0.5" stroke="black" fill="green"/>
  <circle cx="420.787" cy="549.76" r="5.02587" stroke-width="0.5" stroke="black" fill="green"/>
   </g>
   <g id="cell142">
  <circle cx="598.667" cy="509.275" r="8.35014" stroke-width="0.5" stroke="black" fill="magenta"/>
  <circle cx="598.667" cy="509.275" r="5.02733" stroke-width="0.5" stroke="black" fill="magenta"/>
   </g>
   <g id="cell143">
  <circle cx="522.004" cy="433.452" r="8.33256" stroke-width="0.5" stroke="black" fill="cyan"/>
  <circle cx="522.004" cy="433.452" r="5.02045" stroke-width="0.5" stroke="black" fill="cyan"/>
   </g>
   <g id="cell144">
  <circle cx="512.96" cy="446.152" r="8.33778" stroke-width="0.5" stroke="black" fill="cyan"/>
  <circle cx="512.96" cy="446.152" r="5.02199" stroke-width="0.5" stroke="black" fill="cyan"/>
   </g>
   <g id="cell145">
  <circle cx="466.891" cy="517.968" r="8.26102" stroke-width="0.5" stroke="black" fill="green"/>
  <circle cx="466.891" cy="517.968" r="4.99009" stroke-width="0.5" stroke="black" fill="green"/>
   </g>
   <g id="cell146">
  <circle cx="422.845" cy="471.979" r="8.33257" stroke-width="0.5" stroke="black" fill="green"/>
  <circle cx="422.845" cy="471.979" r="5.01941" stroke-width="0.5" stroke="black" fill="green"/>
   </g>
   <g id="cell147">
  <circle cx="377.416" cy="542.21" r="8.32543" stroke-width="0.5" stroke="black" fill="magenta"/>
  <circle cx="377.416" cy="542.21" r="5.01617" stroke-width="0.5" stroke="black" fill="magenta"/>
   </g>
   <g id="cell148">
  <circle cx="588.733" cy="594.72" r="8.31986" stroke-width="0.5" stroke="black" fill="magenta"/>
  <circle cx="588.733" cy="594.72" r="5.01371" stroke-width="0.5" stroke="black" fill="magenta"/>
   </g>
   <g id="cell149">
  <circle cx="529.22" cy="490.942" r="8.31412" stroke-width="0.5" stroke="black" fill="magenta"/>
  <circle cx="529.22" cy="490.942" r="5.01182" stroke-width="0.5" stroke="black" fill="magenta"/>
   </g>
   <g id="cell150">
  <circle cx="411.015" cy="463.561" r="7.0786" stroke-width="0.5" stroke="black" fill="green"/>
  <circle cx="411.015" cy="463.561" r="4.31043" stroke-width="0.5" stroke="black" fill="green"/>
   </g>
   <g id="cell151">
  <circle cx="436.771" cy="464.247" r="8.31178" stroke-width="0.5" stroke="black" fill="cyan"/>
  <circle cx="436.771" cy="464.247" r="5.01078" stroke-width="0.5" stroke="black" fill="cyan"/>
   </g>
   <g id="cell152">
  <circle cx="470.641" cy="502.704" r="8.26102" stroke-width="0.5" stroke="black" fill="green"/>
  <circle cx="470.641" cy="502.704" r="4.99009" stroke-width="0.5" stroke="black" fill="green"/>
   </g>
   <g id="cell153">
  <circle cx="543.917" cy="485.392" r="8.25278" stroke-width="0.5" stroke="black" fill="magenta"/>
  <circle cx="543.917" cy="485.392" r="4.98545" stroke-width="0.5" stroke="black" fill="magenta"/>
   </g>
   <g id="cell154">
  <circle cx="485.413" cy="488.451" r="8.27674" stroke-width="0.5" stroke="black" fill="green"/>
  <circle cx="485.413" cy="488.451" r="4.99429" stroke-width="0.5" stroke="black" fill="green"/>
   </g>
   <g id="cell155">
  <circle cx="485.548" cy="626.226" r="8.27497" stroke-width="0.5" stroke="black" fill="green"/>
  <circle cx="485.548" cy="626.226" r="4.99242" stroke-width="0.5" stroke="black" fill="green"/>
   </g>
   <g id="cell156">
  <circle cx="535.874" cy="547.753" r="8.27497" stroke-width="0.5" stroke="black" fill="magenta"/>
  <circle cx="535.874" cy="547.753" r="4.99242" stroke-width="0.5" stroke="black" fill="magenta"/>
   </g>
   <g id="cell157">
  <circle cx="391.488" cy="463.226" r="8.26429" stroke-width="0.5" stroke="black" fill="green"/>
  <circle cx="391.488" cy="463.226" r="4.98874" stroke-width="0.5" stroke="black" fill="green"/>
   </g>
   <g id="cell158">
  <circle cx="602.677" cy="587.355" r="8.25696" stroke-width="0.5" stroke="black" fill="magenta"/>
  <circle cx="602.677" cy="587.355" r="4.98394" stroke-width="0.5" stroke="black" fill="magenta"/>
   </g>
   <g id="cell159">
  <circle cx="588.081" cy="448.324" r="8.24316" stroke-width="0.5" stroke="black" fill="cyan"/>
  <circle cx="588.081" cy="448.324" r="4.97713" stroke-width="0.5" stroke="black" fill="cyan"/>
   </g>
   <g id="cell160">
  <circle cx="415.751" cy="582.09" r="8.23107" stroke-width="0.5" stroke="black" fill="cyan"/>
  <circle cx="415.751" cy="582.09" r="4.9715" stroke-width="0.5" stroke="black" fill="cyan"/>
   </g>
   <g id="cell161">
  <circle cx="447.81" cy="613.454" r="8.21816" stroke-width="0.5" stroke="black" fill="magenta"/>
  <circle cx="447.81" cy="613.454" r="4.96443" stroke-width="0.5" stroke="black" fill="magenta"/>
   </g>
   <g id="cell162">
  <circle cx="572.655" cy="452.094" r="8.21702" stroke-width="0.5" stroke="black" fill="cyan"/>
  <circle cx="572.655" cy="452.094" r="4.9641" stroke-width="0.5" stroke="black" fill="cyan"/>
   </g>
   <g id="cell163">
  <circle cx="562.352" cy="534.256" r="8.20189" stroke-width="0.5" stroke="black" fill="cyan"/>
  <circle cx="562.352" cy="534.256" r="4.95787" stroke-width="0.5" stroke="black" fill="cyan"/>
   </g>
   <g id="cell164">
  <circle cx="577.932" cy="489.51" r="8.20689" stroke-width="0.5" stroke="black" fill="magenta"/>
  <circle cx="577.932" cy="489.51" r="4.95867" stroke-width="0.5" stroke="black" fill="magenta"/>
   </g>
   <g id="cell165">
  <circle cx="583.684" cy="463.016" r="8.17426" stroke-width="0.5" stroke="black" fill="cyan"/>
  <circle cx="583.684" cy="463.016" r="4.94216" stroke-width="0.5" stroke="black" fill="cyan"/>
   </g>
   <g id="cell166">
  <circle cx="650.872" cy="548.152" r="8.14577" stroke-width="0.5" stroke="black" fill="green"/>
  <circle cx="650.872" cy="548.152" r="4.92722" stroke-width="0.5" stroke="black" fill="green"/>
   </g>
   <g id="cell167">
  <circle cx="541.422" cy="500.469" r="8.0452" stroke-width="0.5" stroke="black" fill="magenta"/>
  <circle cx="541.422" cy="500.469" r="4.88357" stroke-width="0.5" stroke="black" fill="magenta"/>
   </g>
   <g id="cell168">
  <circle cx="561.751" cy="425.688" r="8.10417" stroke-width="0.5" stroke="black" fill="cyan"/>
  <circle cx="561.751" cy="425.688" r="4.90702" stroke-width="0.5" stroke="black" fill="cyan"/>
   </g>
   <g id="cell169">
  <circle cx="533.19" cy="532.659" r="8.06533" stroke-width="0.5" stroke="black" fill="cyan"/>
  <circle cx="533.19" cy="532.659" r="4.88655" stroke-width="0.5" stroke="black" fill="cyan"/>
   </g>
   <g id="cell170">
  <circle cx="528.057" cy="611.975" r="8.05651" stroke-width="0.5" stroke="black" fill="green"/>
  <circle cx="528.057" cy="611.975" r="4.87966" stroke-width="0.5" stroke="black" fill="green"/>
   </g>
   <g id="cell172">
  <circle cx="508.595" cy="405.542" r="8.01932" stroke-width="0.5" stroke="black" fill="magenta"/>
  <circle cx="508.595" cy="405.542" r="4.86059" stroke-width="0.5" stroke="black" fill="magenta"/>
   </g>
   <g id="cell173">
  <circle cx="513.091" cy="612.296" r="7.82004" stroke-width="0.5" stroke="black" fill="green"/>
  <circle cx="513.091" cy="612.296" r="4.76266" stroke-width="0.5" stroke="black" fill="green"/>
   </g>
   <g id="cell174">
  <circle cx="421.905" cy="397.297" r="7.97646" stroke-width="0.5" stroke="black" fill="green"/>
  <circle cx="421.905" cy="397.297" r="4.83584" stroke-width="0.5" stroke="black" fill="green"/>
   </g>
   <g id="cell175">
  <circle cx="436.184" cy="479.763" r="7.92061" stroke-width="0.5" stroke="black" fill="cyan"/>
  <circle cx="436.184" cy="479.763" r="4.81291" stroke-width="0.5" stroke="black" fill="cyan"/>
   </g>
   <g id="cell176">
  <circle cx="627.901" cy="508.014" r="7.91553" stroke-width="0.5" stroke="black" fill="magenta"/>
  <circle cx="627.901" cy="508.014" r="4.80757" stroke-width="0.5" stroke="black" fill="magenta"/>
   </g>
   <g id="cell177">
  <circle cx="520.485" cy="582.898" r="7.93619" stroke-width="0.5" stroke="black" fill="green"/>
  <circle cx="520.485" cy="582.898" r="4.81364" stroke-width="0.5" stroke="black" fill="green"/>
   </g>
   <g id="cell178">
  <circle cx="557.12" cy="548.395" r="7.87851" stroke-width="0.5" stroke="black" fill="green"/>
  <circle cx="557.12" cy="548.395" r="4.78096" stroke-width="0.5" stroke="black" fill="green"/>
   </g>
   <g id="cell179">
  <circle cx="411.048" cy="625.147" r="7.84675" stroke-width="0.5" stroke="black" fill="cyan"/>
  <circle cx="411.048" cy="625.147" r="4.7629" stroke-width="0.5" stroke="black" fill="cyan"/>
   </g>
   <g id="cell180">
  <circle cx="398.75" cy="557.572" r="7.83853" stroke-width="0.5" stroke="black" fill="magenta"/>
  <circle cx="398.75" cy="557.572" r="4.76022" stroke-width="0.5" stroke="black" fill="magenta"/>
   </g>
   <g id="cell181">
  <circle cx="391.586" cy="539.182" r="6.98365" stroke-width="0.5" stroke="black" fill="green"/>
  <circle cx="391.586" cy="539.182" r="4.28282" stroke-width="0.5" stroke="black" fill="green"/>
   </g>
   <g id="cell182">
  <circle cx="459.299" cy="560.578" r="7.6129" stroke-width="0.5" stroke="black" fill="magenta"/>
  <circle cx="459.299" cy="560.578" r="4.62708" stroke-width="0.5" stroke="black" fill="magenta"/>
   </g>
   <g id="cell183">
  <circle cx="606.043" cy="496.291" r="7.29262" stroke-width="0.5" stroke="black" fill="magenta"/>
  <circle cx="606.043" cy="496.291" r="4.46611" stroke-width="0.5" stroke="black" fill="magenta"/>
   </g>
   <g id="cell184">
  <circle cx="547.065" cy="538.091" r="7.38884" stroke-width="0.5" stroke="black" fill="cyan"/>
  <circle cx="547.065" cy="538.091" r="4.5114" stroke-width="0.5" stroke="black" fill="cyan"/>
   </g>
   <g id="cell187">
  <circle cx="423.425" cy="564.075" r="7.22545" stroke-width="0.5" stroke="black" fill="green"/>
  <circle cx="423.425" cy="564.075" r="4.39307" stroke-width="0.5" stroke="black" fill="green"/>
   </g>
   <g id="cell188">
  <circle cx="535.391" cy="456.608" r="7.24056" stroke-width="0.5" stroke="black" fill="cyan"/>
  <circle cx="535.391" cy="456.608" r="4.39877" stroke-width="0.5" stroke="black" fill="cyan"/>
   </g>
   <g id="cell189">
  <circle cx="555.788" cy="473.58" r="7.20442" stroke-width="0.5" stroke="black" fill="cyan"/>
  <circle cx="555.788" cy="473.58" r="4.37743" stroke-width="0.5" stroke="black" fill="cyan"/>
   </g>
   <g id="cell190">
  <circle cx="408.697" cy="476.603" r="7.0786" stroke-width="0.5" stroke="black" fill="green"/>
  <circle cx="408.697" cy="476.603" r="4.31043" stroke-width="0.5" stroke="black" fill="green"/>
   </g>
   <g id="cell191">
  <circle cx="618.732" cy="518.728" r="7.08503" stroke-width="0.5" stroke="black" fill="cyan"/>
  <circle cx="618.732" cy="518.728" r="4.29837" stroke-width="0.5" stroke="black" fill="cyan"/>
   </g>
   <g id="cell192">
  <circle cx="513.897" cy="505.725" r="7.07306" stroke-width="0.5" stroke="black" fill="green"/>
  <circle cx="513.897" cy="505.725" r="4.29424" stroke-width="0.5" stroke="black" fill="green"/>
   </g>
  </g>
 </g>
  <rect x="775" y="1035" width="200" height="10" stroke-width="2" stroke="rgb(255,255,255)" fill="rgb(0,0,0)"/>
  <text x="781.25" y="1028.75"
   font-family="Arial" font-size="25" fill="black" >
   200 &#956;m
  </text>
  <text x="25" y="1045"
   font-family="Arial" font-size="18.75" fill="black" >
   0 days, 0 hours, 0 minutes, and 44.1709 seconds
  </text>
  <rect x="0" y="70" width="1000" height="1000" stroke-width="2" stroke="rgb(0,0,0)" fill="none"/>
</svg>
