<?xml version="1.0" encoding="UTF-8" standalone="no"?>
<!-- Created with PhysiCell (http://PhysiCell.MathCancer.org/) -->
<svg 
 xmlns:dc="http://purl.org/dc/elements/1.1/" 
 xmlns:cc="http://creativecommons.org/ns#" 
 xmlns:rdf="http://www.w3.org/1999/02/22-rdf-syntax-ns#" 
 xmlns:svg="http://www.w3.org/2000/svg" 
 xmlns="http://www.w3.org/2000/svg" 
 version="1.1" 
 width="1000" 
 height="1070" 
 id="svg2">
  <rect x="0" y="0" width="1000" height="1070" stroke-width="2" stroke="white" fill="white"/>
  <text x="12.5" y="30"
   font-family="Arial" font-size="25" fill="black" >
   Current time: 0 days, 13 hours, and 0.00 minutes, z = 0.00 &#956;m
  </text>
  <text x="12.5" y="57.5"
   font-family="Arial" font-size="23.75" fill="black" >
   121 agents
  </text>
 <g id="tissue" 
    transform="translate(0,1070) scale(1,-1)">
  <g id="ECM">
  </g>
  <g id="cells">
   <g id="cell0">
  <circle cx="513.088" cy="531.083" r="8.41271" stroke-width="0.5" stroke="black" fill="magenta"/>
  <circle cx="513.088" cy="531.083" r="5.05167" stroke-width="0.5" stroke="black" fill="magenta"/>
   </g>
   <g id="cell1">
  <circle cx="601.011" cy="531.681" r="8.41271" stroke-width="0.5" stroke="black" fill="magenta"/>
  <circle cx="601.011" cy="531.681" r="5.05167" stroke-width="0.5" stroke="black" fill="magenta"/>
   </g>
   <g id="cell2">
  <circle cx="510.791" cy="600.419" r="8.41271" stroke-width="0.5" stroke="black" fill="magenta"/>
  <circle cx="510.791" cy="600.419" r="5.05167" stroke-width="0.5" stroke="black" fill="magenta"/>
   </g>
   <g id="cell3">
  <circle cx="532.328" cy="546.003" r="8.41271" stroke-width="0.5" stroke="black" fill="magenta"/>
  <circle cx="532.328" cy="546.003" r="5.05167" stroke-width="0.5" stroke="black" fill="magenta"/>
   </g>
   <g id="cell4">
  <circle cx="481.375" cy="439.864" r="8.41271" stroke-width="0.5" stroke="black" fill="magenta"/>
  <circle cx="481.375" cy="439.864" r="5.05167" stroke-width="0.5" stroke="black" fill="magenta"/>
   </g>
   <g id="cell5">
  <circle cx="465.032" cy="493.3" r="8.41271" stroke-width="0.5" stroke="black" fill="magenta"/>
  <circle cx="465.032" cy="493.3" r="5.05167" stroke-width="0.5" stroke="black" fill="magenta"/>
   </g>
   <g id="cell6">
  <circle cx="586.317" cy="513.79" r="6.39086" stroke-width="0.5" stroke="black" fill="magenta"/>
  <circle cx="586.317" cy="513.79" r="3.89433" stroke-width="0.5" stroke="black" fill="magenta"/>
   </g>
   <g id="cell7">
  <circle cx="503.432" cy="460.668" r="7.65871" stroke-width="0.5" stroke="black" fill="magenta"/>
  <circle cx="503.432" cy="460.668" r="4.6537" stroke-width="0.5" stroke="black" fill="magenta"/>
   </g>
   <g id="cell8">
  <circle cx="383.25" cy="542.516" r="8.41271" stroke-width="0.5" stroke="black" fill="magenta"/>
  <circle cx="383.25" cy="542.516" r="5.05167" stroke-width="0.5" stroke="black" fill="magenta"/>
   </g>
   <g id="cell9">
  <circle cx="465.187" cy="595.203" r="8.32291" stroke-width="0.5" stroke="black" fill="magenta"/>
  <circle cx="465.187" cy="595.203" r="5.01502" stroke-width="0.5" stroke="black" fill="magenta"/>
   </g>
   <g id="cell10">
  <circle cx="583.447" cy="392.105" r="8.41271" stroke-width="0.5" stroke="black" fill="magenta"/>
  <circle cx="583.447" cy="392.105" r="5.05167" stroke-width="0.5" stroke="black" fill="magenta"/>
   </g>
   <g id="cell11">
  <circle cx="595.454" cy="584.31" r="7.87244" stroke-width="0.5" stroke="black" fill="magenta"/>
  <circle cx="595.454" cy="584.31" r="4.78902" stroke-width="0.5" stroke="black" fill="magenta"/>
   </g>
   <g id="cell12">
  <circle cx="505.757" cy="585.196" r="8.41271" stroke-width="0.5" stroke="black" fill="magenta"/>
  <circle cx="505.757" cy="585.196" r="5.05167" stroke-width="0.5" stroke="black" fill="magenta"/>
   </g>
   <g id="cell13">
  <circle cx="398.334" cy="567.397" r="8.33911" stroke-width="0.5" stroke="black" fill="magenta"/>
  <circle cx="398.334" cy="567.397" r="5.02235" stroke-width="0.5" stroke="black" fill="magenta"/>
   </g>
   <g id="cell109">
  <circle cx="376.393" cy="442.466" r="7.1497" stroke-width="0.5" stroke="black" fill="cyan"/>
  <circle cx="376.393" cy="442.466" r="4.34001" stroke-width="0.5" stroke="black" fill="cyan"/>
   </g>
   <g id="cell15">
  <circle cx="379.896" cy="475.017" r="8.41271" stroke-width="0.5" stroke="black" fill="magenta"/>
  <circle cx="379.896" cy="475.017" r="5.05167" stroke-width="0.5" stroke="black" fill="magenta"/>
   </g>
   <g id="cell16">
  <circle cx="426.782" cy="420.507" r="7.54436" stroke-width="0.5" stroke="black" fill="magenta"/>
  <circle cx="426.782" cy="420.507" r="4.58555" stroke-width="0.5" stroke="black" fill="magenta"/>
   </g>
   <g id="cell17">
  <circle cx="572.492" cy="492.435" r="8.41271" stroke-width="0.5" stroke="black" fill="magenta"/>
  <circle cx="572.492" cy="492.435" r="5.05167" stroke-width="0.5" stroke="black" fill="magenta"/>
   </g>
   <g id="cell18">
  <circle cx="511.052" cy="387.013" r="6.30363" stroke-width="0.5" stroke="black" fill="magenta"/>
  <circle cx="511.052" cy="387.013" r="3.86654" stroke-width="0.5" stroke="black" fill="magenta"/>
   </g>
   <g id="cell19">
  <circle cx="453.641" cy="546.972" r="7.77763" stroke-width="0.5" stroke="black" fill="magenta"/>
  <circle cx="453.641" cy="546.972" r="4.7232" stroke-width="0.5" stroke="black" fill="magenta"/>
   </g>
   <g id="cell20">
  <circle cx="532.27" cy="418.187" r="8.41271" stroke-width="0.5" stroke="black" fill="magenta"/>
  <circle cx="532.27" cy="418.187" r="5.05167" stroke-width="0.5" stroke="black" fill="magenta"/>
   </g>
   <g id="cell21">
  <circle cx="464.212" cy="634.718" r="8.41271" stroke-width="0.5" stroke="black" fill="magenta"/>
  <circle cx="464.212" cy="634.718" r="5.05167" stroke-width="0.5" stroke="black" fill="magenta"/>
   </g>
   <g id="cell22">
  <circle cx="556.645" cy="494.929" r="8.41271" stroke-width="0.5" stroke="black" fill="magenta"/>
  <circle cx="556.645" cy="494.929" r="5.05167" stroke-width="0.5" stroke="black" fill="magenta"/>
   </g>
   <g id="cell23">
  <circle cx="534.593" cy="484.761" r="8.41271" stroke-width="0.5" stroke="black" fill="magenta"/>
  <circle cx="534.593" cy="484.761" r="5.05167" stroke-width="0.5" stroke="black" fill="magenta"/>
   </g>
   <g id="cell24">
  <circle cx="559.289" cy="379.784" r="1.20653" stroke-width="0.5" stroke="black" fill="magenta"/>
  <circle cx="559.289" cy="379.784" r="1.20179" stroke-width="0.5" stroke="black" fill="black"/>
   </g>
   <g id="cell25">
  <circle cx="638.855" cy="553.07" r="7.71531" stroke-width="0.5" stroke="black" fill="green"/>
  <circle cx="638.855" cy="553.07" r="4.70781" stroke-width="0.5" stroke="black" fill="green"/>
   </g>
   <g id="cell26">
  <circle cx="556.549" cy="399.944" r="8.1609" stroke-width="0.5" stroke="black" fill="green"/>
  <circle cx="556.549" cy="399.944" r="4.93506" stroke-width="0.5" stroke="black" fill="green"/>
   </g>
   <g id="cell27">
  <circle cx="457.446" cy="388.678" r="8.41271" stroke-width="0.5" stroke="black" fill="green"/>
  <circle cx="457.446" cy="388.678" r="5.05167" stroke-width="0.5" stroke="black" fill="green"/>
   </g>
   <g id="cell28">
  <circle cx="437.061" cy="529.454" r="8.41271" stroke-width="0.5" stroke="black" fill="green"/>
  <circle cx="437.061" cy="529.454" r="5.05167" stroke-width="0.5" stroke="black" fill="green"/>
   </g>
   <g id="cell29">
  <circle cx="447.876" cy="517.582" r="8.41271" stroke-width="0.5" stroke="black" fill="green"/>
  <circle cx="447.876" cy="517.582" r="5.05167" stroke-width="0.5" stroke="black" fill="green"/>
   </g>
   <g id="cell30">
  <circle cx="481.58" cy="540.282" r="1.33065" stroke-width="0.5" stroke="black" fill="green"/>
  <circle cx="481.58" cy="540.282" r="1.32157" stroke-width="0.5" stroke="black" fill="black"/>
   </g>
   <g id="cell31">
  <circle cx="416.097" cy="538.352" r="6.83713" stroke-width="0.5" stroke="black" fill="green"/>
  <circle cx="416.097" cy="538.352" r="4.12773" stroke-width="0.5" stroke="black" fill="green"/>
   </g>
   <g id="cell32">
  <circle cx="421.876" cy="478.796" r="8.41271" stroke-width="0.5" stroke="black" fill="green"/>
  <circle cx="421.876" cy="478.796" r="5.05167" stroke-width="0.5" stroke="black" fill="green"/>
   </g>
   <g id="cell33">
  <circle cx="494.146" cy="423.183" r="8.41271" stroke-width="0.5" stroke="black" fill="green"/>
  <circle cx="494.146" cy="423.183" r="5.05167" stroke-width="0.5" stroke="black" fill="green"/>
   </g>
   <g id="cell34">
  <circle cx="398.065" cy="453.562" r="8.41271" stroke-width="0.5" stroke="black" fill="green"/>
  <circle cx="398.065" cy="453.562" r="5.05167" stroke-width="0.5" stroke="black" fill="green"/>
   </g>
   <g id="cell35">
  <circle cx="548.08" cy="543.062" r="8.41271" stroke-width="0.5" stroke="black" fill="green"/>
  <circle cx="548.08" cy="543.062" r="5.05167" stroke-width="0.5" stroke="black" fill="green"/>
   </g>
   <g id="cell36">
  <circle cx="387.897" cy="579.516" r="8.41271" stroke-width="0.5" stroke="black" fill="green"/>
  <circle cx="387.897" cy="579.516" r="5.05167" stroke-width="0.5" stroke="black" fill="green"/>
   </g>
   <g id="cell37">
  <circle cx="634.871" cy="460.618" r="8.41271" stroke-width="0.5" stroke="black" fill="green"/>
  <circle cx="634.871" cy="460.618" r="5.05167" stroke-width="0.5" stroke="black" fill="green"/>
   </g>
   <g id="cell38">
  <circle cx="538.257" cy="613.541" r="8.33911" stroke-width="0.5" stroke="black" fill="green"/>
  <circle cx="538.257" cy="613.541" r="5.02235" stroke-width="0.5" stroke="black" fill="green"/>
   </g>
   <g id="cell39">
  <circle cx="613.118" cy="488.414" r="8.41271" stroke-width="0.5" stroke="black" fill="green"/>
  <circle cx="613.118" cy="488.414" r="5.05167" stroke-width="0.5" stroke="black" fill="green"/>
   </g>
   <g id="cell40">
  <circle cx="482.374" cy="566.747" r="8.25377" stroke-width="0.5" stroke="black" fill="green"/>
  <circle cx="482.374" cy="566.747" r="4.98209" stroke-width="0.5" stroke="black" fill="green"/>
   </g>
   <g id="cell41">
  <circle cx="364.751" cy="480.251" r="8.41271" stroke-width="0.5" stroke="black" fill="green"/>
  <circle cx="364.751" cy="480.251" r="5.05167" stroke-width="0.5" stroke="black" fill="green"/>
   </g>
   <g id="cell42">
  <circle cx="438.842" cy="494.268" r="8.41271" stroke-width="0.5" stroke="black" fill="green"/>
  <circle cx="438.842" cy="494.268" r="5.05167" stroke-width="0.5" stroke="black" fill="green"/>
   </g>
   <g id="cell43">
  <circle cx="560.116" cy="444.952" r="8.41271" stroke-width="0.5" stroke="black" fill="green"/>
  <circle cx="560.116" cy="444.952" r="5.05167" stroke-width="0.5" stroke="black" fill="green"/>
   </g>
   <g id="cell44">
  <circle cx="476.013" cy="623.877" r="8.41271" stroke-width="0.5" stroke="black" fill="green"/>
  <circle cx="476.013" cy="623.877" r="5.05167" stroke-width="0.5" stroke="black" fill="green"/>
   </g>
   <g id="cell45">
  <circle cx="415.235" cy="557.467" r="8.41271" stroke-width="0.5" stroke="black" fill="green"/>
  <circle cx="415.235" cy="557.467" r="5.05167" stroke-width="0.5" stroke="black" fill="green"/>
   </g>
   <g id="cell46">
  <circle cx="522.424" cy="611.487" r="8.41271" stroke-width="0.5" stroke="black" fill="green"/>
  <circle cx="522.424" cy="611.487" r="5.05167" stroke-width="0.5" stroke="black" fill="green"/>
   </g>
   <g id="cell47">
  <circle cx="494.848" cy="508.002" r="8.34511" stroke-width="0.5" stroke="black" fill="green"/>
  <circle cx="494.848" cy="508.002" r="5.02502" stroke-width="0.5" stroke="black" fill="green"/>
   </g>
   <g id="cell48">
  <circle cx="564.143" cy="603.12" r="8.41271" stroke-width="0.5" stroke="black" fill="green"/>
  <circle cx="564.143" cy="603.12" r="5.05167" stroke-width="0.5" stroke="black" fill="green"/>
   </g>
   <g id="cell49">
  <circle cx="429.144" cy="392.772" r="8.41271" stroke-width="0.5" stroke="black" fill="green"/>
  <circle cx="429.144" cy="392.772" r="5.05167" stroke-width="0.5" stroke="black" fill="green"/>
   </g>
   <g id="cell50">
  <circle cx="520.649" cy="516.984" r="8.41271" stroke-width="0.5" stroke="black" fill="cyan"/>
  <circle cx="520.649" cy="516.984" r="5.05167" stroke-width="0.5" stroke="black" fill="cyan"/>
   </g>
   <g id="cell51">
  <circle cx="413.965" cy="593.156" r="7.01359" stroke-width="0.5" stroke="black" fill="cyan"/>
  <circle cx="413.965" cy="593.156" r="4.2677" stroke-width="0.5" stroke="black" fill="cyan"/>
   </g>
   <g id="cell52">
  <circle cx="521.014" cy="429.645" r="8.41271" stroke-width="0.5" stroke="black" fill="cyan"/>
  <circle cx="521.014" cy="429.645" r="5.05167" stroke-width="0.5" stroke="black" fill="cyan"/>
   </g>
   <g id="cell53">
  <circle cx="574.734" cy="439.993" r="7.84675" stroke-width="0.5" stroke="black" fill="cyan"/>
  <circle cx="574.734" cy="439.993" r="4.7629" stroke-width="0.5" stroke="black" fill="cyan"/>
   </g>
   <g id="cell54">
  <circle cx="478.152" cy="424.167" r="8.41271" stroke-width="0.5" stroke="black" fill="cyan"/>
  <circle cx="478.152" cy="424.167" r="5.05167" stroke-width="0.5" stroke="black" fill="cyan"/>
   </g>
   <g id="cell55">
  <circle cx="531.517" cy="468.737" r="7.81315" stroke-width="0.5" stroke="black" fill="cyan"/>
  <circle cx="531.517" cy="468.737" r="4.74367" stroke-width="0.5" stroke="black" fill="cyan"/>
   </g>
   <g id="cell56">
  <circle cx="627.948" cy="521.797" r="8.00101" stroke-width="0.5" stroke="black" fill="cyan"/>
  <circle cx="627.948" cy="521.797" r="4.84939" stroke-width="0.5" stroke="black" fill="cyan"/>
   </g>
   <g id="cell57">
  <circle cx="416.924" cy="617.466" r="8.41271" stroke-width="0.5" stroke="black" fill="cyan"/>
  <circle cx="416.924" cy="617.466" r="5.05167" stroke-width="0.5" stroke="black" fill="cyan"/>
   </g>
   <g id="cell58">
  <circle cx="549.886" cy="480.493" r="8.41271" stroke-width="0.5" stroke="black" fill="cyan"/>
  <circle cx="549.886" cy="480.493" r="5.05167" stroke-width="0.5" stroke="black" fill="cyan"/>
   </g>
   <g id="cell59">
  <circle cx="385.615" cy="434.347" r="5.85481" stroke-width="0.5" stroke="black" fill="cyan"/>
  <circle cx="385.615" cy="434.347" r="3.57257" stroke-width="0.5" stroke="black" fill="cyan"/>
   </g>
   <g id="cell60">
  <circle cx="605.816" cy="474.225" r="8.28629" stroke-width="0.5" stroke="black" fill="cyan"/>
  <circle cx="605.816" cy="474.225" r="4.99786" stroke-width="0.5" stroke="black" fill="cyan"/>
   </g>
   <g id="cell121">
  <circle cx="449.245" cy="464.674" r="6.06713" stroke-width="0.5" stroke="black" fill="cyan"/>
  <circle cx="449.245" cy="464.674" r="3.69781" stroke-width="0.5" stroke="black" fill="cyan"/>
   </g>
   <g id="cell62">
  <circle cx="520.165" cy="445.154" r="7.84675" stroke-width="0.5" stroke="black" fill="cyan"/>
  <circle cx="520.165" cy="445.154" r="4.7629" stroke-width="0.5" stroke="black" fill="cyan"/>
   </g>
   <g id="cell63">
  <circle cx="577.41" cy="546.557" r="8.41271" stroke-width="0.5" stroke="black" fill="cyan"/>
  <circle cx="577.41" cy="546.557" r="5.05167" stroke-width="0.5" stroke="black" fill="cyan"/>
   </g>
   <g id="cell64">
  <circle cx="509.962" cy="636.825" r="8.41271" stroke-width="0.5" stroke="black" fill="cyan"/>
  <circle cx="509.962" cy="636.825" r="5.05167" stroke-width="0.5" stroke="black" fill="cyan"/>
   </g>
   <g id="cell65">
  <circle cx="546.528" cy="464.95" r="8.41271" stroke-width="0.5" stroke="black" fill="cyan"/>
  <circle cx="546.528" cy="464.95" r="5.05167" stroke-width="0.5" stroke="black" fill="cyan"/>
   </g>
   <g id="cell66">
  <circle cx="537.657" cy="530.89" r="8.41271" stroke-width="0.5" stroke="black" fill="cyan"/>
  <circle cx="537.657" cy="530.89" r="5.05167" stroke-width="0.5" stroke="black" fill="cyan"/>
   </g>
   <g id="cell67">
  <circle cx="354.64" cy="492.683" r="8.41271" stroke-width="0.5" stroke="black" fill="cyan"/>
  <circle cx="354.64" cy="492.683" r="5.05167" stroke-width="0.5" stroke="black" fill="cyan"/>
   </g>
   <g id="cell68">
  <circle cx="562.009" cy="550.985" r="8.41271" stroke-width="0.5" stroke="black" fill="cyan"/>
  <circle cx="562.009" cy="550.985" r="5.05167" stroke-width="0.5" stroke="black" fill="cyan"/>
   </g>
   <g id="cell69">
  <circle cx="440.442" cy="456.352" r="6.06713" stroke-width="0.5" stroke="black" fill="cyan"/>
  <circle cx="440.442" cy="456.352" r="3.69781" stroke-width="0.5" stroke="black" fill="cyan"/>
   </g>
   <g id="cell70">
  <circle cx="576.646" cy="477.209" r="8.11327" stroke-width="0.5" stroke="black" fill="cyan"/>
  <circle cx="576.646" cy="477.209" r="4.91006" stroke-width="0.5" stroke="black" fill="cyan"/>
   </g>
   <g id="cell71">
  <circle cx="377.712" cy="520.989" r="8.41271" stroke-width="0.5" stroke="black" fill="cyan"/>
  <circle cx="377.712" cy="520.989" r="5.05167" stroke-width="0.5" stroke="black" fill="cyan"/>
   </g>
   <g id="cell72">
  <circle cx="536.494" cy="514.906" r="8.41271" stroke-width="0.5" stroke="black" fill="cyan"/>
  <circle cx="536.494" cy="514.906" r="5.05167" stroke-width="0.5" stroke="black" fill="cyan"/>
   </g>
   <g id="cell73">
  <circle cx="355.116" cy="548.511" r="6.65072" stroke-width="0.5" stroke="black" fill="cyan"/>
  <circle cx="355.116" cy="548.511" r="4.05636" stroke-width="0.5" stroke="black" fill="cyan"/>
   </g>
   <g id="cell74">
  <circle cx="544.728" cy="449.107" r="8.41271" stroke-width="0.5" stroke="black" fill="cyan"/>
  <circle cx="544.728" cy="449.107" r="5.05167" stroke-width="0.5" stroke="black" fill="cyan"/>
   </g>
   <g id="cell75">
  <circle cx="590.662" cy="498.426" r="8.21786" stroke-width="0.5" stroke="black" fill="magenta"/>
  <circle cx="590.662" cy="498.426" r="4.96759" stroke-width="0.5" stroke="black" fill="magenta"/>
   </g>
   <g id="cell76">
  <circle cx="647.606" cy="540.618" r="8.347" stroke-width="0.5" stroke="black" fill="green"/>
  <circle cx="647.606" cy="540.618" r="5.02586" stroke-width="0.5" stroke="black" fill="green"/>
   </g>
   <g id="cell77">
  <circle cx="509.413" cy="507.598" r="7.03882" stroke-width="0.5" stroke="black" fill="green"/>
  <circle cx="509.413" cy="507.598" r="4.27938" stroke-width="0.5" stroke="black" fill="green"/>
   </g>
   <g id="cell78">
  <circle cx="371.44" cy="570.627" r="8.1362" stroke-width="0.5" stroke="black" fill="magenta"/>
  <circle cx="371.44" cy="570.627" r="4.9268" stroke-width="0.5" stroke="black" fill="magenta"/>
   </g>
   <g id="cell79">
  <circle cx="535.221" cy="583.724" r="8.15969" stroke-width="0.5" stroke="black" fill="green"/>
  <circle cx="535.221" cy="583.724" r="4.94184" stroke-width="0.5" stroke="black" fill="green"/>
   </g>
   <g id="cell80">
  <circle cx="453.824" cy="606.249" r="8.32291" stroke-width="0.5" stroke="black" fill="magenta"/>
  <circle cx="453.824" cy="606.249" r="5.01502" stroke-width="0.5" stroke="black" fill="magenta"/>
   </g>
   <g id="cell81">
  <circle cx="392.224" cy="614.417" r="7.78753" stroke-width="0.5" stroke="black" fill="cyan"/>
  <circle cx="392.224" cy="614.417" r="4.7379" stroke-width="0.5" stroke="black" fill="cyan"/>
   </g>
   <g id="cell82">
  <circle cx="586.774" cy="465.814" r="7.90659" stroke-width="0.5" stroke="black" fill="cyan"/>
  <circle cx="586.774" cy="465.814" r="4.8058" stroke-width="0.5" stroke="black" fill="cyan"/>
   </g>
   <g id="cell83">
  <circle cx="541.418" cy="598.071" r="8.24852" stroke-width="0.5" stroke="black" fill="green"/>
  <circle cx="541.418" cy="598.071" r="4.98277" stroke-width="0.5" stroke="black" fill="green"/>
   </g>
   <g id="cell84">
  <circle cx="490.763" cy="580.024" r="8.25377" stroke-width="0.5" stroke="black" fill="green"/>
  <circle cx="490.763" cy="580.024" r="4.98209" stroke-width="0.5" stroke="black" fill="green"/>
   </g>
   <g id="cell85">
  <circle cx="605.825" cy="502.459" r="8.21786" stroke-width="0.5" stroke="black" fill="magenta"/>
  <circle cx="605.825" cy="502.459" r="4.96759" stroke-width="0.5" stroke="black" fill="magenta"/>
   </g>
   <g id="cell86">
  <circle cx="525.936" cy="596.132" r="8.15969" stroke-width="0.5" stroke="black" fill="green"/>
  <circle cx="525.936" cy="596.132" r="4.94184" stroke-width="0.5" stroke="black" fill="green"/>
   </g>
   <g id="cell87">
  <circle cx="590.616" cy="598.845" r="8.2239" stroke-width="0.5" stroke="black" fill="magenta"/>
  <circle cx="590.616" cy="598.845" r="4.96725" stroke-width="0.5" stroke="black" fill="magenta"/>
   </g>
   <g id="cell88">
  <circle cx="377.228" cy="555.447" r="6.59816" stroke-width="0.5" stroke="black" fill="magenta"/>
  <circle cx="377.228" cy="555.447" r="4.01148" stroke-width="0.5" stroke="black" fill="magenta"/>
   </g>
   <g id="cell89">
  <circle cx="546.285" cy="411.354" r="7.95166" stroke-width="0.5" stroke="black" fill="green"/>
  <circle cx="546.285" cy="411.354" r="4.83319" stroke-width="0.5" stroke="black" fill="green"/>
   </g>
   <g id="cell90">
  <circle cx="562.405" cy="471.153" r="8.11327" stroke-width="0.5" stroke="black" fill="cyan"/>
  <circle cx="562.405" cy="471.153" r="4.91006" stroke-width="0.5" stroke="black" fill="cyan"/>
   </g>
   <g id="cell91">
  <circle cx="541.505" cy="397.009" r="7.95166" stroke-width="0.5" stroke="black" fill="green"/>
  <circle cx="541.505" cy="397.009" r="4.83319" stroke-width="0.5" stroke="black" fill="green"/>
   </g>
   <g id="cell92">
  <circle cx="641.488" cy="567.72" r="8.01025" stroke-width="0.5" stroke="black" fill="green"/>
  <circle cx="641.488" cy="567.72" r="4.85975" stroke-width="0.5" stroke="black" fill="green"/>
   </g>
   <g id="cell93">
  <circle cx="367.728" cy="542.869" r="8.03527" stroke-width="0.5" stroke="black" fill="cyan"/>
  <circle cx="367.728" cy="542.869" r="4.86813" stroke-width="0.5" stroke="black" fill="cyan"/>
   </g>
   <g id="cell94">
  <circle cx="612.992" cy="521.631" r="8.00101" stroke-width="0.5" stroke="black" fill="cyan"/>
  <circle cx="612.992" cy="521.631" r="4.84939" stroke-width="0.5" stroke="black" fill="cyan"/>
   </g>
   <g id="cell95">
  <circle cx="580.753" cy="587.123" r="7.87244" stroke-width="0.5" stroke="black" fill="magenta"/>
  <circle cx="580.753" cy="587.123" r="4.78902" stroke-width="0.5" stroke="black" fill="magenta"/>
   </g>
   <g id="cell96">
  <circle cx="591.589" cy="480.102" r="7.90659" stroke-width="0.5" stroke="black" fill="cyan"/>
  <circle cx="591.589" cy="480.102" r="4.8058" stroke-width="0.5" stroke="black" fill="cyan"/>
   </g>
   <g id="cell97">
  <circle cx="625.221" cy="547.809" r="7.71531" stroke-width="0.5" stroke="black" fill="green"/>
  <circle cx="625.221" cy="547.809" r="4.70781" stroke-width="0.5" stroke="black" fill="green"/>
   </g>
   <g id="cell98">
  <circle cx="599.293" cy="516.252" r="7.90307" stroke-width="0.5" stroke="black" fill="magenta"/>
  <circle cx="599.293" cy="516.252" r="4.80043" stroke-width="0.5" stroke="black" fill="magenta"/>
   </g>
   <g id="cell99">
  <circle cx="563.724" cy="429.911" r="7.84675" stroke-width="0.5" stroke="black" fill="cyan"/>
  <circle cx="563.724" cy="429.911" r="4.7629" stroke-width="0.5" stroke="black" fill="cyan"/>
   </g>
   <g id="cell100">
  <circle cx="380.366" cy="594.311" r="6.14731" stroke-width="0.5" stroke="black" fill="cyan"/>
  <circle cx="380.366" cy="594.311" r="3.78705" stroke-width="0.5" stroke="black" fill="cyan"/>
   </g>
   <g id="cell101">
  <circle cx="533.541" cy="438.591" r="7.84675" stroke-width="0.5" stroke="black" fill="cyan"/>
  <circle cx="533.541" cy="438.591" r="4.7629" stroke-width="0.5" stroke="black" fill="cyan"/>
   </g>
   <g id="cell102">
  <circle cx="520.54" cy="478.742" r="7.81315" stroke-width="0.5" stroke="black" fill="cyan"/>
  <circle cx="520.54" cy="478.742" r="4.74367" stroke-width="0.5" stroke="black" fill="cyan"/>
   </g>
   <g id="cell103">
  <circle cx="452.186" cy="532.311" r="7.77763" stroke-width="0.5" stroke="black" fill="magenta"/>
  <circle cx="452.186" cy="532.311" r="4.7232" stroke-width="0.5" stroke="black" fill="magenta"/>
   </g>
   <g id="cell104">
  <circle cx="400.222" cy="602.344" r="7.33761" stroke-width="0.5" stroke="black" fill="cyan"/>
  <circle cx="400.222" cy="602.344" r="4.49559" stroke-width="0.5" stroke="black" fill="cyan"/>
   </g>
   <g id="cell105">
  <circle cx="517.433" cy="464.436" r="7.65871" stroke-width="0.5" stroke="black" fill="magenta"/>
  <circle cx="517.433" cy="464.436" r="4.6537" stroke-width="0.5" stroke="black" fill="magenta"/>
   </g>
   <g id="cell106">
  <circle cx="432.67" cy="407.484" r="7.54436" stroke-width="0.5" stroke="black" fill="magenta"/>
  <circle cx="432.67" cy="407.484" r="4.58555" stroke-width="0.5" stroke="black" fill="magenta"/>
   </g>
   <g id="cell107">
  <circle cx="427.645" cy="466.855" r="5.96843" stroke-width="0.5" stroke="black" fill="cyan"/>
  <circle cx="427.645" cy="466.855" r="3.62779" stroke-width="0.5" stroke="black" fill="cyan"/>
   </g>
   <g id="cell108">
  <circle cx="522.692" cy="381.575" r="7.27253" stroke-width="0.5" stroke="black" fill="magenta"/>
  <circle cx="522.692" cy="381.575" r="4.41835" stroke-width="0.5" stroke="black" fill="magenta"/>
   </g>
   <g id="cell110">
  <circle cx="514.694" cy="398.359" r="6.30363" stroke-width="0.5" stroke="black" fill="magenta"/>
  <circle cx="514.694" cy="398.359" r="3.86654" stroke-width="0.5" stroke="black" fill="magenta"/>
   </g>
   <g id="cell111">
  <circle cx="518.23" cy="499.309" r="5.73459" stroke-width="0.5" stroke="black" fill="green"/>
  <circle cx="518.23" cy="499.309" r="3.50127" stroke-width="0.5" stroke="black" fill="green"/>
   </g>
   <g id="cell112">
  <circle cx="401.631" cy="588.572" r="7.01359" stroke-width="0.5" stroke="black" fill="cyan"/>
  <circle cx="401.631" cy="588.572" r="4.2677" stroke-width="0.5" stroke="black" fill="cyan"/>
   </g>
   <g id="cell113">
  <circle cx="342.625" cy="547.523" r="6.65072" stroke-width="0.5" stroke="black" fill="cyan"/>
  <circle cx="342.625" cy="547.523" r="4.05636" stroke-width="0.5" stroke="black" fill="cyan"/>
   </g>
   <g id="cell114">
  <circle cx="388.381" cy="601.664" r="5.27162" stroke-width="0.5" stroke="black" fill="cyan"/>
  <circle cx="388.381" cy="601.664" r="3.26665" stroke-width="0.5" stroke="black" fill="cyan"/>
   </g>
   <g id="cell115">
  <circle cx="390.811" cy="592.055" r="5.27162" stroke-width="0.5" stroke="black" fill="cyan"/>
  <circle cx="390.811" cy="592.055" r="3.26665" stroke-width="0.5" stroke="black" fill="cyan"/>
   </g>
   <g id="cell116">
  <circle cx="405.901" cy="546.38" r="6.83713" stroke-width="0.5" stroke="black" fill="green"/>
  <circle cx="405.901" cy="546.38" r="4.12773" stroke-width="0.5" stroke="black" fill="green"/>
   </g>
   <g id="cell117">
  <circle cx="384.388" cy="565.684" r="6.59816" stroke-width="0.5" stroke="black" fill="magenta"/>
  <circle cx="384.388" cy="565.684" r="4.01148" stroke-width="0.5" stroke="black" fill="magenta"/>
   </g>
   <g id="cell118">
  <circle cx="394.716" cy="440.547" r="5.85481" stroke-width="0.5" stroke="black" fill="cyan"/>
  <circle cx="394.716" cy="440.547" r="3.57257" stroke-width="0.5" stroke="black" fill="cyan"/>
   </g>
   <g id="cell119">
  <circle cx="576.172" cy="507.505" r="6.39086" stroke-width="0.5" stroke="black" fill="magenta"/>
  <circle cx="576.172" cy="507.505" r="3.89433" stroke-width="0.5" stroke="black" fill="magenta"/>
   </g>
   <g id="cell120">
  <circle cx="510.405" cy="491.79" r="5.73459" stroke-width="0.5" stroke="black" fill="green"/>
  <circle cx="510.405" cy="491.79" r="3.50127" stroke-width="0.5" stroke="black" fill="green"/>
   </g>
   <g id="cell122">
  <circle cx="438.502" cy="467.172" r="5.96843" stroke-width="0.5" stroke="black" fill="cyan"/>
  <circle cx="438.502" cy="467.172" r="3.62779" stroke-width="0.5" stroke="black" fill="cyan"/>
   </g>
  </g>
 </g>
  <rect x="775" y="1035" width="200" height="10" stroke-width="2" stroke="rgb(255,255,255)" fill="rgb(0,0,0)"/>
  <text x="781.25" y="1028.75"
   font-family="Arial" font-size="25" fill="black" >
   200 &#956;m
  </text>
  <text x="25" y="1045"
   font-family="Arial" font-size="18.75" fill="black" >
   0 days, 0 hours, 0 minutes, and 17.9402 seconds
  </text>
  <rect x="0" y="70" width="1000" height="1000" stroke-width="2" stroke="rgb(0,0,0)" fill="none"/>
</svg>
