<?xml version="1.0" encoding="UTF-8" standalone="no"?>
<!-- Created with PhysiCell (http://PhysiCell.MathCancer.org/) -->
<svg 
 xmlns:dc="http://purl.org/dc/elements/1.1/" 
 xmlns:cc="http://creativecommons.org/ns#" 
 xmlns:rdf="http://www.w3.org/1999/02/22-rdf-syntax-ns#" 
 xmlns:svg="http://www.w3.org/2000/svg" 
 xmlns="http://www.w3.org/2000/svg" 
 version="1.1" 
 width="1000" 
 height="1070" 
 id="svg2">
  <rect x="0" y="0" width="1000" height="1070" stroke-width="2" stroke="white" fill="white"/>
  <text x="12.5" y="30"
   font-family="Arial" font-size="25" fill="black" >
   Current time: 0 days, 18 hours, and 0.00 minutes, z = 0.00 &#956;m
  </text>
  <text x="12.5" y="57.5"
   font-family="Arial" font-size="23.75" fill="black" >
   137 agents
  </text>
 <g id="tissue" 
    transform="translate(0,1070) scale(1,-1)">
  <g id="ECM">
  </g>
  <g id="cells">
   <g id="cell0">
  <circle cx="513.121" cy="531.118" r="8.41271" stroke-width="0.5" stroke="black" fill="magenta"/>
  <circle cx="513.121" cy="531.118" r="5.05167" stroke-width="0.5" stroke="black" fill="magenta"/>
   </g>
   <g id="cell1">
  <circle cx="601.234" cy="532.352" r="8.41271" stroke-width="0.5" stroke="black" fill="magenta"/>
  <circle cx="601.234" cy="532.352" r="5.05167" stroke-width="0.5" stroke="black" fill="magenta"/>
   </g>
   <g id="cell2">
  <circle cx="508.853" cy="601.592" r="8.41271" stroke-width="0.5" stroke="black" fill="magenta"/>
  <circle cx="508.853" cy="601.592" r="5.05167" stroke-width="0.5" stroke="black" fill="magenta"/>
   </g>
   <g id="cell3">
  <circle cx="532.73" cy="544.693" r="8.41271" stroke-width="0.5" stroke="black" fill="magenta"/>
  <circle cx="532.73" cy="544.693" r="5.05167" stroke-width="0.5" stroke="black" fill="magenta"/>
   </g>
   <g id="cell4">
  <circle cx="481.375" cy="439.864" r="8.41271" stroke-width="0.5" stroke="black" fill="magenta"/>
  <circle cx="481.375" cy="439.864" r="5.05167" stroke-width="0.5" stroke="black" fill="magenta"/>
   </g>
   <g id="cell5">
  <circle cx="465.032" cy="493.3" r="8.41271" stroke-width="0.5" stroke="black" fill="magenta"/>
  <circle cx="465.032" cy="493.3" r="5.05167" stroke-width="0.5" stroke="black" fill="magenta"/>
   </g>
   <g id="cell6">
  <circle cx="585.573" cy="514.281" r="7.90992" stroke-width="0.5" stroke="black" fill="magenta"/>
  <circle cx="585.573" cy="514.281" r="4.80795" stroke-width="0.5" stroke="black" fill="magenta"/>
   </g>
   <g id="cell7">
  <circle cx="500.822" cy="460.067" r="5.09061" stroke-width="0.5" stroke="black" fill="magenta"/>
  <circle cx="500.822" cy="460.067" r="3.37259" stroke-width="0.5" stroke="black" fill="black"/>
   </g>
   <g id="cell8">
  <circle cx="383.527" cy="541.072" r="8.41271" stroke-width="0.5" stroke="black" fill="magenta"/>
  <circle cx="383.527" cy="541.072" r="5.05167" stroke-width="0.5" stroke="black" fill="magenta"/>
   </g>
   <g id="cell9">
  <circle cx="465.235" cy="595.157" r="8.39083" stroke-width="0.5" stroke="black" fill="magenta"/>
  <circle cx="465.235" cy="595.157" r="5.04414" stroke-width="0.5" stroke="black" fill="magenta"/>
   </g>
   <g id="cell10">
  <circle cx="583.447" cy="392.105" r="8.41271" stroke-width="0.5" stroke="black" fill="magenta"/>
  <circle cx="583.447" cy="392.105" r="5.05167" stroke-width="0.5" stroke="black" fill="magenta"/>
   </g>
   <g id="cell11">
  <circle cx="595.827" cy="584.107" r="8.28592" stroke-width="0.5" stroke="black" fill="magenta"/>
  <circle cx="595.827" cy="584.107" r="4.99991" stroke-width="0.5" stroke="black" fill="magenta"/>
   </g>
   <g id="cell12">
  <circle cx="505.831" cy="585.828" r="8.41271" stroke-width="0.5" stroke="black" fill="magenta"/>
  <circle cx="505.831" cy="585.828" r="5.05167" stroke-width="0.5" stroke="black" fill="magenta"/>
   </g>
   <g id="cell13">
  <circle cx="398.463" cy="567.566" r="8.39473" stroke-width="0.5" stroke="black" fill="magenta"/>
  <circle cx="398.463" cy="567.566" r="5.04562" stroke-width="0.5" stroke="black" fill="magenta"/>
   </g>
   <g id="cell109">
  <circle cx="375.29" cy="443.659" r="8.10448" stroke-width="0.5" stroke="black" fill="cyan"/>
  <circle cx="375.29" cy="443.659" r="4.90539" stroke-width="0.5" stroke="black" fill="cyan"/>
   </g>
   <g id="cell15">
  <circle cx="379.896" cy="475.017" r="8.41271" stroke-width="0.5" stroke="black" fill="magenta"/>
  <circle cx="379.896" cy="475.017" r="5.05167" stroke-width="0.5" stroke="black" fill="magenta"/>
   </g>
   <g id="cell16">
  <circle cx="422.083" cy="426.396" r="6.65193" stroke-width="0.5" stroke="black" fill="magenta"/>
  <circle cx="422.083" cy="426.396" r="4.03587" stroke-width="0.5" stroke="black" fill="magenta"/>
   </g>
   <g id="cell17">
  <circle cx="572.37" cy="491.992" r="8.41271" stroke-width="0.5" stroke="black" fill="magenta"/>
  <circle cx="572.37" cy="491.992" r="5.05167" stroke-width="0.5" stroke="black" fill="magenta"/>
   </g>
   <g id="cell18">
  <circle cx="509.323" cy="385.959" r="7.93968" stroke-width="0.5" stroke="black" fill="magenta"/>
  <circle cx="509.323" cy="385.959" r="4.82695" stroke-width="0.5" stroke="black" fill="magenta"/>
   </g>
   <g id="cell19">
  <circle cx="453.868" cy="552.406" r="8.26262" stroke-width="0.5" stroke="black" fill="magenta"/>
  <circle cx="453.868" cy="552.406" r="4.98642" stroke-width="0.5" stroke="black" fill="magenta"/>
   </g>
   <g id="cell20">
  <circle cx="531.693" cy="418.917" r="8.41271" stroke-width="0.5" stroke="black" fill="magenta"/>
  <circle cx="531.693" cy="418.917" r="5.05167" stroke-width="0.5" stroke="black" fill="magenta"/>
   </g>
   <g id="cell21">
  <circle cx="464.212" cy="634.718" r="8.41271" stroke-width="0.5" stroke="black" fill="magenta"/>
  <circle cx="464.212" cy="634.718" r="5.05167" stroke-width="0.5" stroke="black" fill="magenta"/>
   </g>
   <g id="cell22">
  <circle cx="556.515" cy="494.521" r="8.41271" stroke-width="0.5" stroke="black" fill="magenta"/>
  <circle cx="556.515" cy="494.521" r="5.05167" stroke-width="0.5" stroke="black" fill="magenta"/>
   </g>
   <g id="cell23">
  <circle cx="541.264" cy="493.595" r="7.75912" stroke-width="0.5" stroke="black" fill="magenta"/>
  <circle cx="541.264" cy="493.595" r="4.71248" stroke-width="0.5" stroke="black" fill="magenta"/>
   </g>
   <g id="cell124">
  <circle cx="558.286" cy="457.02" r="6.29974" stroke-width="0.5" stroke="black" fill="cyan"/>
  <circle cx="558.286" cy="457.02" r="3.83934" stroke-width="0.5" stroke="black" fill="cyan"/>
   </g>
   <g id="cell25">
  <circle cx="639.085" cy="553.079" r="8.25116" stroke-width="0.5" stroke="black" fill="green"/>
  <circle cx="639.085" cy="553.079" r="4.98476" stroke-width="0.5" stroke="black" fill="green"/>
   </g>
   <g id="cell26">
  <circle cx="556.711" cy="400.032" r="8.35236" stroke-width="0.5" stroke="black" fill="green"/>
  <circle cx="556.711" cy="400.032" r="5.02821" stroke-width="0.5" stroke="black" fill="green"/>
   </g>
   <g id="cell27">
  <circle cx="457.446" cy="388.678" r="8.41271" stroke-width="0.5" stroke="black" fill="green"/>
  <circle cx="457.446" cy="388.678" r="5.05167" stroke-width="0.5" stroke="black" fill="green"/>
   </g>
   <g id="cell28">
  <circle cx="429.261" cy="528.912" r="8.41271" stroke-width="0.5" stroke="black" fill="green"/>
  <circle cx="429.261" cy="528.912" r="5.05167" stroke-width="0.5" stroke="black" fill="green"/>
   </g>
   <g id="cell29">
  <circle cx="443.556" cy="509.027" r="6.95901" stroke-width="0.5" stroke="black" fill="green"/>
  <circle cx="443.556" cy="509.027" r="4.21341" stroke-width="0.5" stroke="black" fill="green"/>
   </g>
   <g id="cell126">
  <circle cx="529.954" cy="501.869" r="7.34069" stroke-width="0.5" stroke="black" fill="green"/>
  <circle cx="529.954" cy="501.869" r="4.50129" stroke-width="0.5" stroke="black" fill="green"/>
   </g>
   <g id="cell31">
  <circle cx="417.094" cy="537.853" r="8.00101" stroke-width="0.5" stroke="black" fill="green"/>
  <circle cx="417.094" cy="537.853" r="4.84939" stroke-width="0.5" stroke="black" fill="green"/>
   </g>
   <g id="cell32">
  <circle cx="421.44" cy="479.987" r="8.41271" stroke-width="0.5" stroke="black" fill="green"/>
  <circle cx="421.44" cy="479.987" r="5.05167" stroke-width="0.5" stroke="black" fill="green"/>
   </g>
   <g id="cell33">
  <circle cx="494.145" cy="423.184" r="8.41271" stroke-width="0.5" stroke="black" fill="green"/>
  <circle cx="494.145" cy="423.184" r="5.05167" stroke-width="0.5" stroke="black" fill="green"/>
   </g>
   <g id="cell34">
  <circle cx="393.896" cy="453.478" r="7.30216" stroke-width="0.5" stroke="black" fill="green"/>
  <circle cx="393.896" cy="453.478" r="4.43696" stroke-width="0.5" stroke="black" fill="green"/>
   </g>
   <g id="cell35">
  <circle cx="548.523" cy="547.046" r="8.41271" stroke-width="0.5" stroke="black" fill="green"/>
  <circle cx="548.523" cy="547.046" r="5.05167" stroke-width="0.5" stroke="black" fill="green"/>
   </g>
   <g id="cell36">
  <circle cx="388.989" cy="580.332" r="8.41271" stroke-width="0.5" stroke="black" fill="green"/>
  <circle cx="388.989" cy="580.332" r="5.05167" stroke-width="0.5" stroke="black" fill="green"/>
   </g>
   <g id="cell37">
  <circle cx="634.871" cy="460.618" r="8.41271" stroke-width="0.5" stroke="black" fill="green"/>
  <circle cx="634.871" cy="460.618" r="5.05167" stroke-width="0.5" stroke="black" fill="green"/>
   </g>
   <g id="cell38">
  <circle cx="541.798" cy="612.109" r="6.88338" stroke-width="0.5" stroke="black" fill="green"/>
  <circle cx="541.798" cy="612.109" r="4.16557" stroke-width="0.5" stroke="black" fill="green"/>
   </g>
   <g id="cell39">
  <circle cx="613.666" cy="487.848" r="8.41271" stroke-width="0.5" stroke="black" fill="green"/>
  <circle cx="613.666" cy="487.848" r="5.05167" stroke-width="0.5" stroke="black" fill="green"/>
   </g>
   <g id="cell40">
  <circle cx="482.324" cy="566.668" r="8.37431" stroke-width="0.5" stroke="black" fill="green"/>
  <circle cx="482.324" cy="566.668" r="5.03754" stroke-width="0.5" stroke="black" fill="green"/>
   </g>
   <g id="cell41">
  <circle cx="364.751" cy="480.251" r="8.41271" stroke-width="0.5" stroke="black" fill="green"/>
  <circle cx="364.751" cy="480.251" r="5.05167" stroke-width="0.5" stroke="black" fill="green"/>
   </g>
   <g id="cell42">
  <circle cx="439.072" cy="494.991" r="8.41271" stroke-width="0.5" stroke="black" fill="green"/>
  <circle cx="439.072" cy="494.991" r="5.05167" stroke-width="0.5" stroke="black" fill="green"/>
   </g>
   <g id="cell43">
  <circle cx="559.839" cy="443.634" r="8.41271" stroke-width="0.5" stroke="black" fill="green"/>
  <circle cx="559.839" cy="443.634" r="5.05167" stroke-width="0.5" stroke="black" fill="green"/>
   </g>
   <g id="cell44">
  <circle cx="476.013" cy="623.877" r="8.41271" stroke-width="0.5" stroke="black" fill="green"/>
  <circle cx="476.013" cy="623.877" r="5.05167" stroke-width="0.5" stroke="black" fill="green"/>
   </g>
   <g id="cell45">
  <circle cx="420.656" cy="560.439" r="7.08639" stroke-width="0.5" stroke="black" fill="green"/>
  <circle cx="420.656" cy="560.439" r="4.29876" stroke-width="0.5" stroke="black" fill="green"/>
   </g>
   <g id="cell46">
  <circle cx="520.273" cy="612.893" r="8.41271" stroke-width="0.5" stroke="black" fill="green"/>
  <circle cx="520.273" cy="612.893" r="5.05167" stroke-width="0.5" stroke="black" fill="green"/>
   </g>
   <g id="cell47">
  <circle cx="489.901" cy="504.283" r="7.5341" stroke-width="0.5" stroke="black" fill="green"/>
  <circle cx="489.901" cy="504.283" r="4.58194" stroke-width="0.5" stroke="black" fill="green"/>
   </g>
   <g id="cell48">
  <circle cx="564.126" cy="603.116" r="8.41271" stroke-width="0.5" stroke="black" fill="green"/>
  <circle cx="564.126" cy="603.116" r="5.05167" stroke-width="0.5" stroke="black" fill="green"/>
   </g>
   <g id="cell49">
  <circle cx="428.313" cy="390.526" r="8.41271" stroke-width="0.5" stroke="black" fill="green"/>
  <circle cx="428.313" cy="390.526" r="5.05167" stroke-width="0.5" stroke="black" fill="green"/>
   </g>
   <g id="cell50">
  <circle cx="521.257" cy="517.205" r="8.41271" stroke-width="0.5" stroke="black" fill="cyan"/>
  <circle cx="521.257" cy="517.205" r="5.05167" stroke-width="0.5" stroke="black" fill="cyan"/>
   </g>
   <g id="cell51">
  <circle cx="416.015" cy="595.057" r="8.07252" stroke-width="0.5" stroke="black" fill="cyan"/>
  <circle cx="416.015" cy="595.057" r="4.89075" stroke-width="0.5" stroke="black" fill="cyan"/>
   </g>
   <g id="cell52">
  <circle cx="519.941" cy="429.954" r="8.41271" stroke-width="0.5" stroke="black" fill="cyan"/>
  <circle cx="519.941" cy="429.954" r="5.05167" stroke-width="0.5" stroke="black" fill="cyan"/>
   </g>
   <g id="cell53">
  <circle cx="575.283" cy="439.969" r="8.27885" stroke-width="0.5" stroke="black" fill="cyan"/>
  <circle cx="575.283" cy="439.969" r="4.99429" stroke-width="0.5" stroke="black" fill="cyan"/>
   </g>
   <g id="cell54">
  <circle cx="478.151" cy="424.167" r="8.41271" stroke-width="0.5" stroke="black" fill="cyan"/>
  <circle cx="478.151" cy="424.167" r="5.05167" stroke-width="0.5" stroke="black" fill="cyan"/>
   </g>
   <g id="cell55">
  <circle cx="530.716" cy="466.067" r="8.27097" stroke-width="0.5" stroke="black" fill="cyan"/>
  <circle cx="530.716" cy="466.067" r="4.99048" stroke-width="0.5" stroke="black" fill="cyan"/>
   </g>
   <g id="cell56">
  <circle cx="630.244" cy="521.685" r="8.31491" stroke-width="0.5" stroke="black" fill="cyan"/>
  <circle cx="630.244" cy="521.685" r="5.01133" stroke-width="0.5" stroke="black" fill="cyan"/>
   </g>
   <g id="cell57">
  <circle cx="416.875" cy="617.417" r="8.41271" stroke-width="0.5" stroke="black" fill="cyan"/>
  <circle cx="416.875" cy="617.417" r="5.05167" stroke-width="0.5" stroke="black" fill="cyan"/>
   </g>
   <g id="cell58">
  <circle cx="548.566" cy="480.439" r="8.41271" stroke-width="0.5" stroke="black" fill="cyan"/>
  <circle cx="548.566" cy="480.439" r="5.05167" stroke-width="0.5" stroke="black" fill="cyan"/>
   </g>
   <g id="cell59">
  <circle cx="384.391" cy="431.568" r="7.82068" stroke-width="0.5" stroke="black" fill="cyan"/>
  <circle cx="384.391" cy="431.568" r="4.76268" stroke-width="0.5" stroke="black" fill="cyan"/>
   </g>
   <g id="cell60">
  <circle cx="607.27" cy="473.185" r="8.38206" stroke-width="0.5" stroke="black" fill="cyan"/>
  <circle cx="607.27" cy="473.185" r="5.04069" stroke-width="0.5" stroke="black" fill="cyan"/>
   </g>
   <g id="cell121">
  <circle cx="452.366" cy="463.866" r="7.84669" stroke-width="0.5" stroke="black" fill="cyan"/>
  <circle cx="452.366" cy="463.866" r="4.77538" stroke-width="0.5" stroke="black" fill="cyan"/>
   </g>
   <g id="cell62">
  <circle cx="517.466" cy="445.747" r="8.27885" stroke-width="0.5" stroke="black" fill="cyan"/>
  <circle cx="517.466" cy="445.747" r="4.99429" stroke-width="0.5" stroke="black" fill="cyan"/>
   </g>
   <g id="cell63">
  <circle cx="578.301" cy="546.235" r="8.41271" stroke-width="0.5" stroke="black" fill="cyan"/>
  <circle cx="578.301" cy="546.235" r="5.05167" stroke-width="0.5" stroke="black" fill="cyan"/>
   </g>
   <g id="cell64">
  <circle cx="509.962" cy="636.825" r="8.41271" stroke-width="0.5" stroke="black" fill="cyan"/>
  <circle cx="509.962" cy="636.825" r="5.05167" stroke-width="0.5" stroke="black" fill="cyan"/>
   </g>
   <g id="cell65">
  <circle cx="546.639" cy="464.69" r="8.41271" stroke-width="0.5" stroke="black" fill="cyan"/>
  <circle cx="546.639" cy="464.69" r="5.05167" stroke-width="0.5" stroke="black" fill="cyan"/>
   </g>
   <g id="cell66">
  <circle cx="531.05" cy="528.283" r="7.30216" stroke-width="0.5" stroke="black" fill="cyan"/>
  <circle cx="531.05" cy="528.283" r="4.43696" stroke-width="0.5" stroke="black" fill="cyan"/>
   </g>
   <g id="cell67">
  <circle cx="354.64" cy="492.683" r="8.41271" stroke-width="0.5" stroke="black" fill="cyan"/>
  <circle cx="354.64" cy="492.683" r="5.05167" stroke-width="0.5" stroke="black" fill="cyan"/>
   </g>
   <g id="cell68">
  <circle cx="563.53" cy="552.326" r="8.41271" stroke-width="0.5" stroke="black" fill="cyan"/>
  <circle cx="563.53" cy="552.326" r="5.05167" stroke-width="0.5" stroke="black" fill="cyan"/>
   </g>
   <g id="cell69">
  <circle cx="440.262" cy="455.108" r="7.84669" stroke-width="0.5" stroke="black" fill="cyan"/>
  <circle cx="440.262" cy="455.108" r="4.77538" stroke-width="0.5" stroke="black" fill="cyan"/>
   </g>
   <g id="cell70">
  <circle cx="578.322" cy="477.184" r="8.34117" stroke-width="0.5" stroke="black" fill="cyan"/>
  <circle cx="578.322" cy="477.184" r="5.02327" stroke-width="0.5" stroke="black" fill="cyan"/>
   </g>
   <g id="cell71">
  <circle cx="377.712" cy="520.99" r="8.41271" stroke-width="0.5" stroke="black" fill="cyan"/>
  <circle cx="377.712" cy="520.99" r="5.05167" stroke-width="0.5" stroke="black" fill="cyan"/>
   </g>
   <g id="cell72">
  <circle cx="537.189" cy="514.667" r="8.41271" stroke-width="0.5" stroke="black" fill="cyan"/>
  <circle cx="537.189" cy="514.667" r="5.05167" stroke-width="0.5" stroke="black" fill="cyan"/>
   </g>
   <g id="cell73">
  <circle cx="355.005" cy="550.157" r="7.98628" stroke-width="0.5" stroke="black" fill="cyan"/>
  <circle cx="355.005" cy="550.157" r="4.84793" stroke-width="0.5" stroke="black" fill="cyan"/>
   </g>
   <g id="cell74">
  <circle cx="544.6" cy="448.891" r="8.41271" stroke-width="0.5" stroke="black" fill="cyan"/>
  <circle cx="544.6" cy="448.891" r="5.05167" stroke-width="0.5" stroke="black" fill="cyan"/>
   </g>
   <g id="cell75">
  <circle cx="589.268" cy="499.168" r="8.36576" stroke-width="0.5" stroke="black" fill="magenta"/>
  <circle cx="589.268" cy="499.168" r="5.03463" stroke-width="0.5" stroke="black" fill="magenta"/>
   </g>
   <g id="cell76">
  <circle cx="648.027" cy="540.011" r="8.39664" stroke-width="0.5" stroke="black" fill="green"/>
  <circle cx="648.027" cy="540.011" r="5.04633" stroke-width="0.5" stroke="black" fill="green"/>
   </g>
   <g id="cell77">
  <circle cx="508.418" cy="508.379" r="8.07719" stroke-width="0.5" stroke="black" fill="green"/>
  <circle cx="508.418" cy="508.379" r="4.89256" stroke-width="0.5" stroke="black" fill="green"/>
   </g>
   <g id="cell78">
  <circle cx="368.46" cy="568.625" r="8.34658" stroke-width="0.5" stroke="black" fill="magenta"/>
  <circle cx="368.46" cy="568.625" r="5.02658" stroke-width="0.5" stroke="black" fill="magenta"/>
   </g>
   <g id="cell79">
  <circle cx="538" cy="573.953" r="7.29145" stroke-width="0.5" stroke="black" fill="green"/>
  <circle cx="538" cy="573.953" r="4.4399" stroke-width="0.5" stroke="black" fill="green"/>
   </g>
   <g id="cell80">
  <circle cx="453.776" cy="606.296" r="8.39083" stroke-width="0.5" stroke="black" fill="magenta"/>
  <circle cx="453.776" cy="606.296" r="5.04414" stroke-width="0.5" stroke="black" fill="magenta"/>
   </g>
   <g id="cell81">
  <circle cx="395.068" cy="617.007" r="8.26587" stroke-width="0.5" stroke="black" fill="cyan"/>
  <circle cx="395.068" cy="617.007" r="4.98972" stroke-width="0.5" stroke="black" fill="cyan"/>
   </g>
   <g id="cell82">
  <circle cx="589.038" cy="465.693" r="8.29349" stroke-width="0.5" stroke="black" fill="cyan"/>
  <circle cx="589.038" cy="465.693" r="5.00303" stroke-width="0.5" stroke="black" fill="cyan"/>
   </g>
   <g id="cell83">
  <circle cx="544.675" cy="598.023" r="8.37301" stroke-width="0.5" stroke="black" fill="green"/>
  <circle cx="544.675" cy="598.023" r="5.03764" stroke-width="0.5" stroke="black" fill="green"/>
   </g>
   <g id="cell84">
  <circle cx="490.883" cy="580.13" r="8.37431" stroke-width="0.5" stroke="black" fill="green"/>
  <circle cx="490.883" cy="580.13" r="5.03754" stroke-width="0.5" stroke="black" fill="green"/>
   </g>
   <g id="cell85">
  <circle cx="605.132" cy="501.328" r="8.36576" stroke-width="0.5" stroke="black" fill="magenta"/>
  <circle cx="605.132" cy="501.328" r="5.03463" stroke-width="0.5" stroke="black" fill="magenta"/>
   </g>
   <g id="cell86">
  <circle cx="524.186" cy="597.544" r="8.35208" stroke-width="0.5" stroke="black" fill="green"/>
  <circle cx="524.186" cy="597.544" r="5.02954" stroke-width="0.5" stroke="black" fill="green"/>
   </g>
   <g id="cell87">
  <circle cx="590.665" cy="599.1" r="8.36722" stroke-width="0.5" stroke="black" fill="magenta"/>
  <circle cx="590.665" cy="599.1" r="5.03458" stroke-width="0.5" stroke="black" fill="magenta"/>
   </g>
   <g id="cell88">
  <circle cx="375.509" cy="554.48" r="7.95237" stroke-width="0.5" stroke="black" fill="magenta"/>
  <circle cx="375.509" cy="554.48" r="4.82861" stroke-width="0.5" stroke="black" fill="magenta"/>
   </g>
   <g id="cell89">
  <circle cx="545.997" cy="411.775" r="8.30417" stroke-width="0.5" stroke="black" fill="green"/>
  <circle cx="545.997" cy="411.775" r="5.0085" stroke-width="0.5" stroke="black" fill="green"/>
   </g>
   <g id="cell90">
  <circle cx="563.436" cy="479.947" r="7.82204" stroke-width="0.5" stroke="black" fill="cyan"/>
  <circle cx="563.436" cy="479.947" r="4.75555" stroke-width="0.5" stroke="black" fill="cyan"/>
   </g>
   <g id="cell91">
  <circle cx="541.213" cy="396.705" r="8.30417" stroke-width="0.5" stroke="black" fill="green"/>
  <circle cx="541.213" cy="396.705" r="5.0085" stroke-width="0.5" stroke="black" fill="green"/>
   </g>
   <g id="cell92">
  <circle cx="641.644" cy="568.626" r="8.31724" stroke-width="0.5" stroke="black" fill="green"/>
  <circle cx="641.644" cy="568.626" r="5.01344" stroke-width="0.5" stroke="black" fill="green"/>
   </g>
   <g id="cell93">
  <circle cx="367.651" cy="541.259" r="8.32291" stroke-width="0.5" stroke="black" fill="cyan"/>
  <circle cx="367.651" cy="541.259" r="5.01502" stroke-width="0.5" stroke="black" fill="cyan"/>
   </g>
   <g id="cell94">
  <circle cx="614.595" cy="523.657" r="8.31491" stroke-width="0.5" stroke="black" fill="cyan"/>
  <circle cx="614.595" cy="523.657" r="5.01133" stroke-width="0.5" stroke="black" fill="cyan"/>
   </g>
   <g id="cell95">
  <circle cx="580.332" cy="587.071" r="8.28592" stroke-width="0.5" stroke="black" fill="magenta"/>
  <circle cx="580.332" cy="587.071" r="4.99991" stroke-width="0.5" stroke="black" fill="magenta"/>
   </g>
   <g id="cell96">
  <circle cx="593.522" cy="480.99" r="8.29349" stroke-width="0.5" stroke="black" fill="cyan"/>
  <circle cx="593.522" cy="480.99" r="5.00303" stroke-width="0.5" stroke="black" fill="cyan"/>
   </g>
   <g id="cell97">
  <circle cx="624.415" cy="547.5" r="8.25116" stroke-width="0.5" stroke="black" fill="green"/>
  <circle cx="624.415" cy="547.5" r="4.98476" stroke-width="0.5" stroke="black" fill="green"/>
   </g>
   <g id="cell98">
  <circle cx="600.656" cy="516.478" r="8.29235" stroke-width="0.5" stroke="black" fill="magenta"/>
  <circle cx="600.656" cy="516.478" r="5.00182" stroke-width="0.5" stroke="black" fill="magenta"/>
   </g>
   <g id="cell99">
  <circle cx="563.861" cy="428.731" r="8.27885" stroke-width="0.5" stroke="black" fill="cyan"/>
  <circle cx="563.861" cy="428.731" r="4.99429" stroke-width="0.5" stroke="black" fill="cyan"/>
   </g>
   <g id="cell100">
  <circle cx="376.566" cy="593.897" r="7.90315" stroke-width="0.5" stroke="black" fill="cyan"/>
  <circle cx="376.566" cy="593.897" r="4.81023" stroke-width="0.5" stroke="black" fill="cyan"/>
   </g>
   <g id="cell101">
  <circle cx="531.283" cy="440.066" r="7.48611" stroke-width="0.5" stroke="black" fill="cyan"/>
  <circle cx="531.283" cy="440.066" r="4.56395" stroke-width="0.5" stroke="black" fill="cyan"/>
   </g>
   <g id="cell102">
  <circle cx="510.554" cy="474.759" r="7.05189" stroke-width="0.5" stroke="black" fill="cyan"/>
  <circle cx="510.554" cy="474.759" r="4.29678" stroke-width="0.5" stroke="black" fill="cyan"/>
   </g>
   <g id="cell103">
  <circle cx="465.125" cy="532.425" r="6.95341" stroke-width="0.5" stroke="black" fill="magenta"/>
  <circle cx="465.125" cy="532.425" r="4.27244" stroke-width="0.5" stroke="black" fill="magenta"/>
   </g>
   <g id="cell104">
  <circle cx="403.394" cy="603.787" r="8.16857" stroke-width="0.5" stroke="black" fill="cyan"/>
  <circle cx="403.394" cy="603.787" r="4.9454" stroke-width="0.5" stroke="black" fill="cyan"/>
   </g>
   <g id="cell105">
  <circle cx="515.662" cy="461.32" r="8.23444" stroke-width="0.5" stroke="black" fill="magenta"/>
  <circle cx="515.662" cy="461.32" r="4.97252" stroke-width="0.5" stroke="black" fill="magenta"/>
   </g>
   <g id="cell106">
  <circle cx="435.121" cy="404.626" r="8.20689" stroke-width="0.5" stroke="black" fill="magenta"/>
  <circle cx="435.121" cy="404.626" r="4.95867" stroke-width="0.5" stroke="black" fill="magenta"/>
   </g>
   <g id="cell107">
  <circle cx="424.914" cy="464.957" r="7.7899" stroke-width="0.5" stroke="black" fill="cyan"/>
  <circle cx="424.914" cy="464.957" r="4.74372" stroke-width="0.5" stroke="black" fill="cyan"/>
   </g>
   <g id="cell108">
  <circle cx="523.827" cy="381.124" r="8.13813" stroke-width="0.5" stroke="black" fill="magenta"/>
  <circle cx="523.827" cy="381.124" r="4.92317" stroke-width="0.5" stroke="black" fill="magenta"/>
   </g>
   <g id="cell110">
  <circle cx="515.249" cy="399.84" r="7.93968" stroke-width="0.5" stroke="black" fill="magenta"/>
  <circle cx="515.249" cy="399.84" r="4.82695" stroke-width="0.5" stroke="black" fill="magenta"/>
   </g>
   <g id="cell111">
  <circle cx="517.269" cy="497.114" r="7.34069" stroke-width="0.5" stroke="black" fill="green"/>
  <circle cx="517.269" cy="497.114" r="4.50129" stroke-width="0.5" stroke="black" fill="green"/>
   </g>
   <g id="cell112">
  <circle cx="403.469" cy="586.285" r="8.07252" stroke-width="0.5" stroke="black" fill="cyan"/>
  <circle cx="403.469" cy="586.285" r="4.89075" stroke-width="0.5" stroke="black" fill="cyan"/>
   </g>
   <g id="cell113">
  <circle cx="340.143" cy="547.193" r="7.98628" stroke-width="0.5" stroke="black" fill="cyan"/>
  <circle cx="340.143" cy="547.193" r="4.84793" stroke-width="0.5" stroke="black" fill="cyan"/>
   </g>
   <g id="cell114">
  <circle cx="383.381" cy="607.238" r="7.7516" stroke-width="0.5" stroke="black" fill="cyan"/>
  <circle cx="383.381" cy="607.238" r="4.73264" stroke-width="0.5" stroke="black" fill="cyan"/>
   </g>
   <g id="cell115">
  <circle cx="391.322" cy="595.082" r="7.7516" stroke-width="0.5" stroke="black" fill="cyan"/>
  <circle cx="391.322" cy="595.082" r="4.73264" stroke-width="0.5" stroke="black" fill="cyan"/>
   </g>
   <g id="cell116">
  <circle cx="402.949" cy="543.172" r="8.00101" stroke-width="0.5" stroke="black" fill="green"/>
  <circle cx="402.949" cy="543.172" r="4.84939" stroke-width="0.5" stroke="black" fill="green"/>
   </g>
   <g id="cell117">
  <circle cx="383.349" cy="566.644" r="7.6219" stroke-width="0.5" stroke="black" fill="magenta"/>
  <circle cx="383.349" cy="566.644" r="4.65622" stroke-width="0.5" stroke="black" fill="magenta"/>
   </g>
   <g id="cell118">
  <circle cx="396.949" cy="439.476" r="7.82068" stroke-width="0.5" stroke="black" fill="cyan"/>
  <circle cx="396.949" cy="439.476" r="4.76268" stroke-width="0.5" stroke="black" fill="cyan"/>
   </g>
   <g id="cell119">
  <circle cx="572.47" cy="507.251" r="7.90992" stroke-width="0.5" stroke="black" fill="magenta"/>
  <circle cx="572.47" cy="507.251" r="4.80795" stroke-width="0.5" stroke="black" fill="magenta"/>
   </g>
   <g id="cell120">
  <circle cx="506.37" cy="488.101" r="7.79301" stroke-width="0.5" stroke="black" fill="green"/>
  <circle cx="506.37" cy="488.101" r="4.74859" stroke-width="0.5" stroke="black" fill="green"/>
   </g>
   <g id="cell122">
  <circle cx="438.823" cy="469.916" r="7.7899" stroke-width="0.5" stroke="black" fill="cyan"/>
  <circle cx="438.823" cy="469.916" r="4.74372" stroke-width="0.5" stroke="black" fill="cyan"/>
   </g>
   <g id="cell123">
  <circle cx="390.714" cy="554.357" r="7.6219" stroke-width="0.5" stroke="black" fill="magenta"/>
  <circle cx="390.714" cy="554.357" r="4.65622" stroke-width="0.5" stroke="black" fill="magenta"/>
   </g>
   <g id="cell125">
  <circle cx="533.52" cy="481.009" r="7.75912" stroke-width="0.5" stroke="black" fill="magenta"/>
  <circle cx="533.52" cy="481.009" r="4.71248" stroke-width="0.5" stroke="black" fill="magenta"/>
   </g>
   <g id="cell127">
  <circle cx="443.201" cy="529.899" r="7.52363" stroke-width="0.5" stroke="black" fill="magenta"/>
  <circle cx="443.201" cy="529.899" r="4.58728" stroke-width="0.5" stroke="black" fill="magenta"/>
   </g>
   <g id="cell128">
  <circle cx="543.991" cy="433.872" r="7.48611" stroke-width="0.5" stroke="black" fill="cyan"/>
  <circle cx="543.991" cy="433.872" r="4.56395" stroke-width="0.5" stroke="black" fill="cyan"/>
   </g>
   <g id="cell129">
  <circle cx="496.562" cy="516.954" r="7.5341" stroke-width="0.5" stroke="black" fill="green"/>
  <circle cx="496.562" cy="516.954" r="4.58194" stroke-width="0.5" stroke="black" fill="green"/>
   </g>
   <g id="cell130">
  <circle cx="453.431" cy="538.194" r="6.95341" stroke-width="0.5" stroke="black" fill="magenta"/>
  <circle cx="453.431" cy="538.194" r="4.27244" stroke-width="0.5" stroke="black" fill="magenta"/>
   </g>
   <g id="cell131">
  <circle cx="534.61" cy="587.22" r="7.29145" stroke-width="0.5" stroke="black" fill="green"/>
  <circle cx="534.61" cy="587.22" r="4.4399" stroke-width="0.5" stroke="black" fill="green"/>
   </g>
   <g id="cell132">
  <circle cx="406.12" cy="459.97" r="7.30216" stroke-width="0.5" stroke="black" fill="green"/>
  <circle cx="406.12" cy="459.97" r="4.43696" stroke-width="0.5" stroke="black" fill="green"/>
   </g>
   <g id="cell133">
  <circle cx="543.881" cy="533.016" r="7.30216" stroke-width="0.5" stroke="black" fill="cyan"/>
  <circle cx="543.881" cy="533.016" r="4.43696" stroke-width="0.5" stroke="black" fill="cyan"/>
   </g>
   <g id="cell134">
  <circle cx="520.012" cy="483.989" r="7.05189" stroke-width="0.5" stroke="black" fill="cyan"/>
  <circle cx="520.012" cy="483.989" r="4.29678" stroke-width="0.5" stroke="black" fill="cyan"/>
   </g>
   <g id="cell135">
  <circle cx="407.891" cy="556.485" r="7.08639" stroke-width="0.5" stroke="black" fill="green"/>
  <circle cx="407.891" cy="556.485" r="4.29876" stroke-width="0.5" stroke="black" fill="green"/>
   </g>
   <g id="cell136">
  <circle cx="456.607" cy="514.064" r="5.52337" stroke-width="0.5" stroke="black" fill="green"/>
  <circle cx="456.607" cy="514.064" r="3.34419" stroke-width="0.5" stroke="black" fill="green"/>
   </g>
   <g id="cell137">
  <circle cx="532.317" cy="620.986" r="6.88338" stroke-width="0.5" stroke="black" fill="green"/>
  <circle cx="532.317" cy="620.986" r="4.16557" stroke-width="0.5" stroke="black" fill="green"/>
   </g>
   <g id="cell138">
  <circle cx="431.386" cy="418.042" r="6.65193" stroke-width="0.5" stroke="black" fill="magenta"/>
  <circle cx="431.386" cy="418.042" r="4.03587" stroke-width="0.5" stroke="black" fill="magenta"/>
   </g>
   <g id="cell139">
  <circle cx="564.297" cy="466.923" r="6.29974" stroke-width="0.5" stroke="black" fill="cyan"/>
  <circle cx="564.297" cy="466.923" r="3.83934" stroke-width="0.5" stroke="black" fill="cyan"/>
   </g>
   <g id="cell140">
  <circle cx="450.356" cy="521.34" r="5.52337" stroke-width="0.5" stroke="black" fill="green"/>
  <circle cx="450.356" cy="521.34" r="3.34419" stroke-width="0.5" stroke="black" fill="green"/>
   </g>
  </g>
 </g>
  <rect x="775" y="1035" width="200" height="10" stroke-width="2" stroke="rgb(255,255,255)" fill="rgb(0,0,0)"/>
  <text x="781.25" y="1028.75"
   font-family="Arial" font-size="25" fill="black" >
   200 &#956;m
  </text>
  <text x="25" y="1045"
   font-family="Arial" font-size="18.75" fill="black" >
   0 days, 0 hours, 0 minutes, and 24.5901 seconds
  </text>
  <rect x="0" y="70" width="1000" height="1000" stroke-width="2" stroke="rgb(0,0,0)" fill="none"/>
</svg>
