<?xml version="1.0" encoding="UTF-8" standalone="no"?>
<!-- Created with PhysiCell (http://PhysiCell.MathCancer.org/) -->
<svg 
 xmlns:dc="http://purl.org/dc/elements/1.1/" 
 xmlns:cc="http://creativecommons.org/ns#" 
 xmlns:rdf="http://www.w3.org/1999/02/22-rdf-syntax-ns#" 
 xmlns:svg="http://www.w3.org/2000/svg" 
 xmlns="http://www.w3.org/2000/svg" 
 version="1.1" 
 width="1000" 
 height="1070" 
 id="svg2">
  <rect x="0" y="0" width="1000" height="1070" stroke-width="2" stroke="white" fill="white"/>
  <text x="12.5" y="30"
   font-family="Arial" font-size="25" fill="black" >
   Current time: 1 days, 15 hours, and 0.00 minutes, z = 0.00 &#956;m
  </text>
  <text x="12.5" y="57.5"
   font-family="Arial" font-size="23.75" fill="black" >
   206 agents
  </text>
 <g id="tissue" 
    transform="translate(0,1070) scale(1,-1)">
  <g id="ECM">
  </g>
  <g id="cells">
   <g id="cell0">
  <circle cx="512.258" cy="534.779" r="8.41271" stroke-width="0.5" stroke="black" fill="magenta"/>
  <circle cx="512.258" cy="534.779" r="5.05167" stroke-width="0.5" stroke="black" fill="magenta"/>
   </g>
   <g id="cell1">
  <circle cx="602.55" cy="542.797" r="8.41271" stroke-width="0.5" stroke="black" fill="magenta"/>
  <circle cx="602.55" cy="542.797" r="5.05167" stroke-width="0.5" stroke="black" fill="magenta"/>
   </g>
   <g id="cell2">
  <circle cx="504.859" cy="597.755" r="8.41271" stroke-width="0.5" stroke="black" fill="magenta"/>
  <circle cx="504.859" cy="597.755" r="5.05167" stroke-width="0.5" stroke="black" fill="magenta"/>
   </g>
   <g id="cell3">
  <circle cx="521.907" cy="559.75" r="8.3937" stroke-width="0.5" stroke="black" fill="magenta"/>
  <circle cx="521.907" cy="559.75" r="5.04523" stroke-width="0.5" stroke="black" fill="magenta"/>
   </g>
   <g id="cell4">
  <circle cx="486.306" cy="438.106" r="8.1218" stroke-width="0.5" stroke="black" fill="magenta"/>
  <circle cx="486.306" cy="438.106" r="4.91457" stroke-width="0.5" stroke="black" fill="magenta"/>
   </g>
   <g id="cell5">
  <circle cx="463.271" cy="490.038" r="6.67717" stroke-width="0.5" stroke="black" fill="magenta"/>
  <circle cx="463.271" cy="490.038" r="4.00951" stroke-width="0.5" stroke="black" fill="magenta"/>
   </g>
   <g id="cell6">
  <circle cx="585.744" cy="519.35" r="8.41137" stroke-width="0.5" stroke="black" fill="magenta"/>
  <circle cx="585.744" cy="519.35" r="5.05134" stroke-width="0.5" stroke="black" fill="magenta"/>
   </g>
   <g id="cell171">
  <circle cx="585.992" cy="503.456" r="8.36171" stroke-width="0.5" stroke="black" fill="magenta"/>
  <circle cx="585.992" cy="503.456" r="5.03226" stroke-width="0.5" stroke="black" fill="magenta"/>
   </g>
   <g id="cell8">
  <circle cx="373.015" cy="525.625" r="8.40056" stroke-width="0.5" stroke="black" fill="magenta"/>
  <circle cx="373.015" cy="525.625" r="5.04776" stroke-width="0.5" stroke="black" fill="magenta"/>
   </g>
   <g id="cell193">
  <circle cx="447.129" cy="566.668" r="8.13491" stroke-width="0.5" stroke="black" fill="green"/>
  <circle cx="447.129" cy="566.668" r="4.92801" stroke-width="0.5" stroke="black" fill="green"/>
   </g>
   <g id="cell186">
  <circle cx="549.17" cy="430.482" r="8.25682" stroke-width="0.5" stroke="black" fill="cyan"/>
  <circle cx="549.17" cy="430.482" r="4.98461" stroke-width="0.5" stroke="black" fill="cyan"/>
   </g>
   <g id="cell11">
  <circle cx="597.021" cy="571.532" r="8.39126" stroke-width="0.5" stroke="black" fill="magenta"/>
  <circle cx="597.021" cy="571.532" r="5.04433" stroke-width="0.5" stroke="black" fill="magenta"/>
   </g>
   <g id="cell12">
  <circle cx="504.466" cy="581.816" r="8.41271" stroke-width="0.5" stroke="black" fill="magenta"/>
  <circle cx="504.466" cy="581.816" r="5.05167" stroke-width="0.5" stroke="black" fill="magenta"/>
   </g>
   <g id="cell13">
  <circle cx="386.797" cy="572.982" r="7.96362" stroke-width="0.5" stroke="black" fill="magenta"/>
  <circle cx="386.797" cy="572.982" r="4.82873" stroke-width="0.5" stroke="black" fill="magenta"/>
   </g>
   <g id="cell109">
  <circle cx="371.376" cy="442.34" r="8.41187" stroke-width="0.5" stroke="black" fill="cyan"/>
  <circle cx="371.376" cy="442.34" r="5.05147" stroke-width="0.5" stroke="black" fill="cyan"/>
   </g>
   <g id="cell199">
  <circle cx="653.956" cy="525.306" r="8.04695" stroke-width="0.5" stroke="black" fill="green"/>
  <circle cx="653.956" cy="525.306" r="4.87782" stroke-width="0.5" stroke="black" fill="green"/>
   </g>
   <g id="cell16">
  <circle cx="420.896" cy="427.344" r="8.40785" stroke-width="0.5" stroke="black" fill="magenta"/>
  <circle cx="420.896" cy="427.344" r="5.05028" stroke-width="0.5" stroke="black" fill="magenta"/>
   </g>
   <g id="cell17">
  <circle cx="570.001" cy="506.079" r="8.38454" stroke-width="0.5" stroke="black" fill="magenta"/>
  <circle cx="570.001" cy="506.079" r="5.04168" stroke-width="0.5" stroke="black" fill="magenta"/>
   </g>
   <g id="cell185">
  <circle cx="396.562" cy="544.049" r="8.02588" stroke-width="0.5" stroke="black" fill="green"/>
  <circle cx="396.562" cy="544.049" r="4.87377" stroke-width="0.5" stroke="black" fill="green"/>
   </g>
   <g id="cell19">
  <circle cx="450.687" cy="548.99" r="8.30597" stroke-width="0.5" stroke="black" fill="magenta"/>
  <circle cx="450.687" cy="548.99" r="5.00722" stroke-width="0.5" stroke="black" fill="magenta"/>
   </g>
   <g id="cell20">
  <circle cx="537.06" cy="420.731" r="8.41271" stroke-width="0.5" stroke="black" fill="magenta"/>
  <circle cx="537.06" cy="420.731" r="5.05167" stroke-width="0.5" stroke="black" fill="magenta"/>
   </g>
   <g id="cell21">
  <circle cx="459.588" cy="630.493" r="8.08613" stroke-width="0.5" stroke="black" fill="magenta"/>
  <circle cx="459.588" cy="630.493" r="4.8956" stroke-width="0.5" stroke="black" fill="magenta"/>
   </g>
   <g id="cell22">
  <circle cx="558.011" cy="495.702" r="8.41271" stroke-width="0.5" stroke="black" fill="magenta"/>
  <circle cx="558.011" cy="495.702" r="5.05167" stroke-width="0.5" stroke="black" fill="magenta"/>
   </g>
   <g id="cell23">
  <circle cx="555.826" cy="511.948" r="8.36318" stroke-width="0.5" stroke="black" fill="magenta"/>
  <circle cx="555.826" cy="511.948" r="5.03389" stroke-width="0.5" stroke="black" fill="magenta"/>
   </g>
   <g id="cell124">
  <circle cx="559.559" cy="455.087" r="8.40709" stroke-width="0.5" stroke="black" fill="cyan"/>
  <circle cx="559.559" cy="455.087" r="5.05007" stroke-width="0.5" stroke="black" fill="cyan"/>
   </g>
   <g id="cell25">
  <circle cx="637.987" cy="550.761" r="8.01251" stroke-width="0.5" stroke="black" fill="green"/>
  <circle cx="637.987" cy="550.761" r="4.85578" stroke-width="0.5" stroke="black" fill="green"/>
   </g>
   <g id="cell26">
  <circle cx="554.113" cy="399.144" r="8.41254" stroke-width="0.5" stroke="black" fill="green"/>
  <circle cx="554.113" cy="399.144" r="5.05163" stroke-width="0.5" stroke="black" fill="green"/>
   </g>
   <g id="cell27">
  <circle cx="457.446" cy="388.678" r="8.41271" stroke-width="0.5" stroke="black" fill="green"/>
  <circle cx="457.446" cy="388.678" r="5.05167" stroke-width="0.5" stroke="black" fill="green"/>
   </g>
   <g id="cell28">
  <circle cx="428.384" cy="518.773" r="8.41271" stroke-width="0.5" stroke="black" fill="green"/>
  <circle cx="428.384" cy="518.773" r="5.05167" stroke-width="0.5" stroke="black" fill="green"/>
   </g>
   <g id="cell29">
  <circle cx="441.923" cy="510.618" r="8.40873" stroke-width="0.5" stroke="black" fill="green"/>
  <circle cx="441.923" cy="510.618" r="5.05054" stroke-width="0.5" stroke="black" fill="green"/>
   </g>
   <g id="cell126">
  <circle cx="522.572" cy="510.048" r="6.69076" stroke-width="0.5" stroke="black" fill="green"/>
  <circle cx="522.572" cy="510.048" r="4.01996" stroke-width="0.5" stroke="black" fill="green"/>
   </g>
   <g id="cell31">
  <circle cx="418.411" cy="531.247" r="8.4116" stroke-width="0.5" stroke="black" fill="green"/>
  <circle cx="418.411" cy="531.247" r="5.05139" stroke-width="0.5" stroke="black" fill="green"/>
   </g>
   <g id="cell32">
  <circle cx="409.955" cy="489.402" r="8.00661" stroke-width="0.5" stroke="black" fill="green"/>
  <circle cx="409.955" cy="489.402" r="4.85382" stroke-width="0.5" stroke="black" fill="green"/>
   </g>
   <g id="cell33">
  <circle cx="494.604" cy="424.811" r="8.41271" stroke-width="0.5" stroke="black" fill="green"/>
  <circle cx="494.604" cy="424.811" r="5.05167" stroke-width="0.5" stroke="black" fill="green"/>
   </g>
   <g id="cell34">
  <circle cx="385.832" cy="449.05" r="8.39223" stroke-width="0.5" stroke="black" fill="green"/>
  <circle cx="385.832" cy="449.05" r="5.04483" stroke-width="0.5" stroke="black" fill="green"/>
   </g>
   <g id="cell35">
  <circle cx="545.919" cy="559.782" r="8.34117" stroke-width="0.5" stroke="black" fill="green"/>
  <circle cx="545.919" cy="559.782" r="5.02327" stroke-width="0.5" stroke="black" fill="green"/>
   </g>
   <g id="cell36">
  <circle cx="383.183" cy="588.498" r="8.41271" stroke-width="0.5" stroke="black" fill="green"/>
  <circle cx="383.183" cy="588.498" r="5.05167" stroke-width="0.5" stroke="black" fill="green"/>
   </g>
   <g id="cell37">
  <circle cx="633.465" cy="461.032" r="8.41271" stroke-width="0.5" stroke="black" fill="green"/>
  <circle cx="633.465" cy="461.032" r="5.05167" stroke-width="0.5" stroke="black" fill="green"/>
   </g>
   <g id="cell38">
  <circle cx="544.337" cy="614.397" r="8.40848" stroke-width="0.5" stroke="black" fill="green"/>
  <circle cx="544.337" cy="614.397" r="5.05046" stroke-width="0.5" stroke="black" fill="green"/>
   </g>
   <g id="cell39">
  <circle cx="619.14" cy="481.509" r="8.41271" stroke-width="0.5" stroke="black" fill="green"/>
  <circle cx="619.14" cy="481.509" r="5.05167" stroke-width="0.5" stroke="black" fill="green"/>
   </g>
   <g id="cell40">
  <circle cx="481.816" cy="565.757" r="8.4126" stroke-width="0.5" stroke="black" fill="green"/>
  <circle cx="481.816" cy="565.757" r="5.05165" stroke-width="0.5" stroke="black" fill="green"/>
   </g>
   <g id="cell41">
  <circle cx="365.092" cy="480.246" r="8.41271" stroke-width="0.5" stroke="black" fill="green"/>
  <circle cx="365.092" cy="480.246" r="5.05167" stroke-width="0.5" stroke="black" fill="green"/>
   </g>
   <g id="cell42">
  <circle cx="444.179" cy="494.885" r="8.41271" stroke-width="0.5" stroke="black" fill="green"/>
  <circle cx="444.179" cy="494.885" r="5.05167" stroke-width="0.5" stroke="black" fill="green"/>
   </g>
   <g id="cell43">
  <circle cx="561.339" cy="439.92" r="8.41271" stroke-width="0.5" stroke="black" fill="green"/>
  <circle cx="561.339" cy="439.92" r="5.05167" stroke-width="0.5" stroke="black" fill="green"/>
   </g>
   <g id="cell44">
  <circle cx="471.267" cy="620.077" r="8.3937" stroke-width="0.5" stroke="black" fill="green"/>
  <circle cx="471.267" cy="620.077" r="5.04523" stroke-width="0.5" stroke="black" fill="green"/>
   </g>
   <g id="cell45">
  <circle cx="441.447" cy="581.212" r="8.13491" stroke-width="0.5" stroke="black" fill="green"/>
  <circle cx="441.447" cy="581.212" r="4.92801" stroke-width="0.5" stroke="black" fill="green"/>
   </g>
   <g id="cell46">
  <circle cx="519.175" cy="625.879" r="8.33451" stroke-width="0.5" stroke="black" fill="green"/>
  <circle cx="519.175" cy="625.879" r="5.0218" stroke-width="0.5" stroke="black" fill="green"/>
   </g>
   <g id="cell47">
  <circle cx="488.384" cy="505.001" r="8.4104" stroke-width="0.5" stroke="black" fill="green"/>
  <circle cx="488.384" cy="505.001" r="5.05105" stroke-width="0.5" stroke="black" fill="green"/>
   </g>
   <g id="cell48">
  <circle cx="562.737" cy="602.649" r="8.41271" stroke-width="0.5" stroke="black" fill="green"/>
  <circle cx="562.737" cy="602.649" r="5.05167" stroke-width="0.5" stroke="black" fill="green"/>
   </g>
   <g id="cell49">
  <circle cx="431.418" cy="386.498" r="8.35404" stroke-width="0.5" stroke="black" fill="green"/>
  <circle cx="431.418" cy="386.498" r="5.02894" stroke-width="0.5" stroke="black" fill="green"/>
   </g>
   <g id="cell201">
  <circle cx="424.202" cy="488.611" r="7.18661" stroke-width="0.5" stroke="black" fill="green"/>
  <circle cx="424.202" cy="488.611" r="4.39796" stroke-width="0.5" stroke="black" fill="green"/>
   </g>
   <g id="cell51">
  <circle cx="426.416" cy="602.83" r="8.41179" stroke-width="0.5" stroke="black" fill="cyan"/>
  <circle cx="426.416" cy="602.83" r="5.05145" stroke-width="0.5" stroke="black" fill="cyan"/>
   </g>
   <g id="cell52">
  <circle cx="508.213" cy="420.088" r="6.89317" stroke-width="0.5" stroke="black" fill="cyan"/>
  <circle cx="508.213" cy="420.088" r="4.21703" stroke-width="0.5" stroke="black" fill="cyan"/>
   </g>
   <g id="cell53">
  <circle cx="576.117" cy="435.246" r="8.38589" stroke-width="0.5" stroke="black" fill="cyan"/>
  <circle cx="576.117" cy="435.246" r="5.04224" stroke-width="0.5" stroke="black" fill="cyan"/>
   </g>
   <g id="cell54">
  <circle cx="478.653" cy="424.333" r="8.41271" stroke-width="0.5" stroke="black" fill="cyan"/>
  <circle cx="478.653" cy="424.333" r="5.05167" stroke-width="0.5" stroke="black" fill="cyan"/>
   </g>
   <g id="cell55">
  <circle cx="519.952" cy="461.771" r="8.25356" stroke-width="0.5" stroke="black" fill="cyan"/>
  <circle cx="519.952" cy="461.771" r="4.98204" stroke-width="0.5" stroke="black" fill="cyan"/>
   </g>
   <g id="cell56">
  <circle cx="632.368" cy="525.855" r="8.41243" stroke-width="0.5" stroke="black" fill="cyan"/>
  <circle cx="632.368" cy="525.855" r="5.05161" stroke-width="0.5" stroke="black" fill="cyan"/>
   </g>
   <g id="cell57">
  <circle cx="420.148" cy="617.371" r="8.33699" stroke-width="0.5" stroke="black" fill="cyan"/>
  <circle cx="420.148" cy="617.371" r="5.02141" stroke-width="0.5" stroke="black" fill="cyan"/>
   </g>
   <g id="cell207">
  <circle cx="431.6" cy="451.614" r="7.94954" stroke-width="0.5" stroke="black" fill="cyan"/>
  <circle cx="431.6" cy="451.614" r="4.82115" stroke-width="0.5" stroke="black" fill="cyan"/>
   </g>
   <g id="cell195">
  <circle cx="411.26" cy="545.495" r="8.02588" stroke-width="0.5" stroke="black" fill="green"/>
  <circle cx="411.26" cy="545.495" r="4.87377" stroke-width="0.5" stroke="black" fill="green"/>
   </g>
   <g id="cell60">
  <circle cx="617.919" cy="465.499" r="8.41262" stroke-width="0.5" stroke="black" fill="cyan"/>
  <circle cx="617.919" cy="465.499" r="5.05165" stroke-width="0.5" stroke="black" fill="cyan"/>
   </g>
   <g id="cell121">
  <circle cx="454.615" cy="463.325" r="8.41121" stroke-width="0.5" stroke="black" fill="cyan"/>
  <circle cx="454.615" cy="463.325" r="5.0513" stroke-width="0.5" stroke="black" fill="cyan"/>
   </g>
   <g id="cell62">
  <circle cx="496.49" cy="451.493" r="2.42486" stroke-width="0.5" stroke="black" fill="cyan"/>
  <circle cx="496.49" cy="451.493" r="2.17446" stroke-width="0.5" stroke="black" fill="black"/>
   </g>
   <g id="cell63">
  <circle cx="584.546" cy="542.1" r="6.83713" stroke-width="0.5" stroke="black" fill="cyan"/>
  <circle cx="584.546" cy="542.1" r="4.12773" stroke-width="0.5" stroke="black" fill="cyan"/>
   </g>
   <g id="cell64">
  <circle cx="509.295" cy="638.432" r="8.41271" stroke-width="0.5" stroke="black" fill="cyan"/>
  <circle cx="509.295" cy="638.432" r="5.05167" stroke-width="0.5" stroke="black" fill="cyan"/>
   </g>
   <g id="cell218">
  <circle cx="582.712" cy="423.048" r="6.78152" stroke-width="0.5" stroke="black" fill="cyan"/>
  <circle cx="582.712" cy="423.048" r="4.08707" stroke-width="0.5" stroke="black" fill="cyan"/>
   </g>
   <g id="cell66">
  <circle cx="522.652" cy="523.31" r="8.36574" stroke-width="0.5" stroke="black" fill="cyan"/>
  <circle cx="522.652" cy="523.31" r="5.03417" stroke-width="0.5" stroke="black" fill="cyan"/>
   </g>
   <g id="cell67">
  <circle cx="354.782" cy="492.513" r="8.41271" stroke-width="0.5" stroke="black" fill="cyan"/>
  <circle cx="354.782" cy="492.513" r="5.05167" stroke-width="0.5" stroke="black" fill="cyan"/>
   </g>
   <g id="cell68">
  <circle cx="572.562" cy="561.125" r="8.41271" stroke-width="0.5" stroke="black" fill="cyan"/>
  <circle cx="572.562" cy="561.125" r="5.05167" stroke-width="0.5" stroke="black" fill="cyan"/>
   </g>
   <g id="cell69">
  <circle cx="446.789" cy="449.382" r="8.41121" stroke-width="0.5" stroke="black" fill="cyan"/>
  <circle cx="446.789" cy="449.382" r="5.0513" stroke-width="0.5" stroke="black" fill="cyan"/>
   </g>
   <g id="cell70">
  <circle cx="588.633" cy="474.526" r="8.38018" stroke-width="0.5" stroke="black" fill="cyan"/>
  <circle cx="588.633" cy="474.526" r="5.03995" stroke-width="0.5" stroke="black" fill="cyan"/>
   </g>
   <g id="cell71">
  <circle cx="371.907" cy="509.749" r="8.41271" stroke-width="0.5" stroke="black" fill="cyan"/>
  <circle cx="371.907" cy="509.749" r="5.05167" stroke-width="0.5" stroke="black" fill="cyan"/>
   </g>
   <g id="cell72">
  <circle cx="538.13" cy="517.842" r="8.41271" stroke-width="0.5" stroke="black" fill="cyan"/>
  <circle cx="538.13" cy="517.842" r="5.05167" stroke-width="0.5" stroke="black" fill="cyan"/>
   </g>
   <g id="cell73">
  <circle cx="350.675" cy="547.299" r="8.41156" stroke-width="0.5" stroke="black" fill="cyan"/>
  <circle cx="350.675" cy="547.299" r="5.05139" stroke-width="0.5" stroke="black" fill="cyan"/>
   </g>
   <g id="cell74">
  <circle cx="546.446" cy="446.334" r="8.41271" stroke-width="0.5" stroke="black" fill="cyan"/>
  <circle cx="546.446" cy="446.334" r="5.05167" stroke-width="0.5" stroke="black" fill="cyan"/>
   </g>
   <g id="cell75">
  <circle cx="600.409" cy="496.775" r="7.4879" stroke-width="0.5" stroke="black" fill="magenta"/>
  <circle cx="600.409" cy="496.775" r="4.55814" stroke-width="0.5" stroke="black" fill="magenta"/>
   </g>
   <g id="cell76">
  <circle cx="643.652" cy="536.583" r="8.04695" stroke-width="0.5" stroke="black" fill="green"/>
  <circle cx="643.652" cy="536.583" r="4.87782" stroke-width="0.5" stroke="black" fill="green"/>
   </g>
   <g id="cell77">
  <circle cx="499.333" cy="516.708" r="8.4118" stroke-width="0.5" stroke="black" fill="green"/>
  <circle cx="499.333" cy="516.708" r="5.05145" stroke-width="0.5" stroke="black" fill="green"/>
   </g>
   <g id="cell78">
  <circle cx="355.964" cy="569.804" r="8.41252" stroke-width="0.5" stroke="black" fill="magenta"/>
  <circle cx="355.964" cy="569.804" r="5.05163" stroke-width="0.5" stroke="black" fill="magenta"/>
   </g>
   <g id="cell79">
  <circle cx="536.199" cy="572.41" r="8.40977" stroke-width="0.5" stroke="black" fill="green"/>
  <circle cx="536.199" cy="572.41" r="5.05087" stroke-width="0.5" stroke="black" fill="green"/>
   </g>
   <g id="cell80">
  <circle cx="458.031" cy="601.397" r="8.38605" stroke-width="0.5" stroke="black" fill="magenta"/>
  <circle cx="458.031" cy="601.397" r="5.04228" stroke-width="0.5" stroke="black" fill="magenta"/>
   </g>
   <g id="cell81">
  <circle cx="397.569" cy="617.088" r="8.4123" stroke-width="0.5" stroke="black" fill="cyan"/>
  <circle cx="397.569" cy="617.088" r="5.05158" stroke-width="0.5" stroke="black" fill="cyan"/>
   </g>
   <g id="cell82">
  <circle cx="601.814" cy="465.673" r="8.3894" stroke-width="0.5" stroke="black" fill="cyan"/>
  <circle cx="601.814" cy="465.673" r="5.04361" stroke-width="0.5" stroke="black" fill="cyan"/>
   </g>
   <g id="cell83">
  <circle cx="547.243" cy="598.645" r="8.41259" stroke-width="0.5" stroke="black" fill="green"/>
  <circle cx="547.243" cy="598.645" r="5.05165" stroke-width="0.5" stroke="black" fill="green"/>
   </g>
   <g id="cell84">
  <circle cx="488.553" cy="580.285" r="8.4126" stroke-width="0.5" stroke="black" fill="green"/>
  <circle cx="488.553" cy="580.285" r="5.05165" stroke-width="0.5" stroke="black" fill="green"/>
   </g>
   <g id="cell85">
  <circle cx="627.246" cy="495.217" r="8.26909" stroke-width="0.5" stroke="black" fill="magenta"/>
  <circle cx="627.246" cy="495.217" r="4.9927" stroke-width="0.5" stroke="black" fill="magenta"/>
   </g>
   <g id="cell86">
  <circle cx="522.002" cy="598.232" r="8.34875" stroke-width="0.5" stroke="black" fill="green"/>
  <circle cx="522.002" cy="598.232" r="5.02665" stroke-width="0.5" stroke="black" fill="green"/>
   </g>
   <g id="cell87">
  <circle cx="588.225" cy="611.623" r="8.3998" stroke-width="0.5" stroke="black" fill="magenta"/>
  <circle cx="588.225" cy="611.623" r="5.0475" stroke-width="0.5" stroke="black" fill="magenta"/>
   </g>
   <g id="cell88">
  <circle cx="363.949" cy="555.854" r="8.41148" stroke-width="0.5" stroke="black" fill="magenta"/>
  <circle cx="363.949" cy="555.854" r="5.05136" stroke-width="0.5" stroke="black" fill="magenta"/>
   </g>
   <g id="cell89">
  <circle cx="539.179" cy="404.977" r="8.4124" stroke-width="0.5" stroke="black" fill="green"/>
  <circle cx="539.179" cy="404.977" r="5.0516" stroke-width="0.5" stroke="black" fill="green"/>
   </g>
   <g id="cell90">
  <circle cx="564.14" cy="481.655" r="8.24833" stroke-width="0.5" stroke="black" fill="cyan"/>
  <circle cx="564.14" cy="481.655" r="4.9796" stroke-width="0.5" stroke="black" fill="cyan"/>
   </g>
   <g id="cell91">
  <circle cx="541.558" cy="389.187" r="8.4124" stroke-width="0.5" stroke="black" fill="green"/>
  <circle cx="541.558" cy="389.187" r="5.0516" stroke-width="0.5" stroke="black" fill="green"/>
   </g>
   <g id="cell92">
  <circle cx="638" cy="569.173" r="7.59706" stroke-width="0.5" stroke="black" fill="green"/>
  <circle cx="638" cy="569.173" r="4.63859" stroke-width="0.5" stroke="black" fill="green"/>
   </g>
   <g id="cell93">
  <circle cx="359.388" cy="533.89" r="8.41245" stroke-width="0.5" stroke="black" fill="cyan"/>
  <circle cx="359.388" cy="533.89" r="5.05161" stroke-width="0.5" stroke="black" fill="cyan"/>
   </g>
   <g id="cell94">
  <circle cx="614.578" cy="532.305" r="8.2291" stroke-width="0.5" stroke="black" fill="cyan"/>
  <circle cx="614.578" cy="532.305" r="4.96989" stroke-width="0.5" stroke="black" fill="cyan"/>
   </g>
   <g id="cell95">
  <circle cx="574.727" cy="582.381" r="8.41235" stroke-width="0.5" stroke="black" fill="magenta"/>
  <circle cx="574.727" cy="582.381" r="5.05159" stroke-width="0.5" stroke="black" fill="magenta"/>
   </g>
   <g id="cell96">
  <circle cx="602.961" cy="481.784" r="8.41237" stroke-width="0.5" stroke="black" fill="cyan"/>
  <circle cx="602.961" cy="481.784" r="5.0516" stroke-width="0.5" stroke="black" fill="cyan"/>
   </g>
   <g id="cell97">
  <circle cx="623.329" cy="545.319" r="8.41226" stroke-width="0.5" stroke="black" fill="green"/>
  <circle cx="623.329" cy="545.319" r="5.05157" stroke-width="0.5" stroke="black" fill="green"/>
   </g>
   <g id="cell98">
  <circle cx="599.678" cy="527.205" r="8.41237" stroke-width="0.5" stroke="black" fill="magenta"/>
  <circle cx="599.678" cy="527.205" r="5.05159" stroke-width="0.5" stroke="black" fill="magenta"/>
   </g>
   <g id="cell99">
  <circle cx="577.587" cy="411.485" r="6.78152" stroke-width="0.5" stroke="black" fill="cyan"/>
  <circle cx="577.587" cy="411.485" r="4.08707" stroke-width="0.5" stroke="black" fill="cyan"/>
   </g>
   <g id="cell100">
  <circle cx="374.486" cy="601.8" r="7.93611" stroke-width="0.5" stroke="black" fill="cyan"/>
  <circle cx="374.486" cy="601.8" r="4.81362" stroke-width="0.5" stroke="black" fill="cyan"/>
   </g>
   <g id="cell101">
  <circle cx="534.449" cy="436.286" r="8.25682" stroke-width="0.5" stroke="black" fill="cyan"/>
  <circle cx="534.449" cy="436.286" r="4.98461" stroke-width="0.5" stroke="black" fill="cyan"/>
   </g>
   <g id="cell102">
  <circle cx="495.666" cy="476.162" r="8.40914" stroke-width="0.5" stroke="black" fill="cyan"/>
  <circle cx="495.666" cy="476.162" r="5.05068" stroke-width="0.5" stroke="black" fill="cyan"/>
   </g>
   <g id="cell103">
  <circle cx="466.984" cy="533.441" r="8.40914" stroke-width="0.5" stroke="black" fill="magenta"/>
  <circle cx="466.984" cy="533.441" r="5.05071" stroke-width="0.5" stroke="black" fill="magenta"/>
   </g>
   <g id="cell209">
  <circle cx="639.451" cy="583.433" r="7.59706" stroke-width="0.5" stroke="black" fill="green"/>
  <circle cx="639.451" cy="583.433" r="4.63859" stroke-width="0.5" stroke="black" fill="green"/>
   </g>
   <g id="cell105">
  <circle cx="503.736" cy="461.81" r="8.41221" stroke-width="0.5" stroke="black" fill="magenta"/>
  <circle cx="503.736" cy="461.81" r="5.05155" stroke-width="0.5" stroke="black" fill="magenta"/>
   </g>
   <g id="cell106">
  <circle cx="432.559" cy="401.494" r="7.5194" stroke-width="0.5" stroke="black" fill="magenta"/>
  <circle cx="432.559" cy="401.494" r="4.57063" stroke-width="0.5" stroke="black" fill="magenta"/>
   </g>
   <g id="cell107">
  <circle cx="416.89" cy="450.07" r="7.94954" stroke-width="0.5" stroke="black" fill="cyan"/>
  <circle cx="416.89" cy="450.07" r="4.82115" stroke-width="0.5" stroke="black" fill="cyan"/>
   </g>
   <g id="cell108">
  <circle cx="524.507" cy="379.454" r="8.41196" stroke-width="0.5" stroke="black" fill="magenta"/>
  <circle cx="524.507" cy="379.454" r="5.05149" stroke-width="0.5" stroke="black" fill="magenta"/>
   </g>
   <g id="cell110">
  <circle cx="521.375" cy="395.097" r="8.35968" stroke-width="0.5" stroke="black" fill="magenta"/>
  <circle cx="521.375" cy="395.097" r="5.03149" stroke-width="0.5" stroke="black" fill="magenta"/>
   </g>
   <g id="cell111">
  <circle cx="513.834" cy="490.947" r="8.22784" stroke-width="0.5" stroke="black" fill="green"/>
  <circle cx="513.834" cy="490.947" r="4.96955" stroke-width="0.5" stroke="black" fill="green"/>
   </g>
   <g id="cell112">
  <circle cx="398.93" cy="591.607" r="8.38777" stroke-width="0.5" stroke="black" fill="cyan"/>
  <circle cx="398.93" cy="591.607" r="5.04302" stroke-width="0.5" stroke="black" fill="cyan"/>
   </g>
   <g id="cell113">
  <circle cx="334.808" cy="546.149" r="8.41156" stroke-width="0.5" stroke="black" fill="cyan"/>
  <circle cx="334.808" cy="546.149" r="5.05139" stroke-width="0.5" stroke="black" fill="cyan"/>
   </g>
   <g id="cell114">
  <circle cx="381.126" cy="616.562" r="8.41098" stroke-width="0.5" stroke="black" fill="cyan"/>
  <circle cx="381.126" cy="616.562" r="5.05124" stroke-width="0.5" stroke="black" fill="cyan"/>
   </g>
   <g id="cell115">
  <circle cx="389.551" cy="603.491" r="8.41098" stroke-width="0.5" stroke="black" fill="cyan"/>
  <circle cx="389.551" cy="603.491" r="5.05124" stroke-width="0.5" stroke="black" fill="cyan"/>
   </g>
   <g id="cell116">
  <circle cx="402.592" cy="530.063" r="8.31434" stroke-width="0.5" stroke="black" fill="green"/>
  <circle cx="402.592" cy="530.063" r="5.01119" stroke-width="0.5" stroke="black" fill="green"/>
   </g>
   <g id="cell117">
  <circle cx="371.776" cy="569.931" r="8.41067" stroke-width="0.5" stroke="black" fill="magenta"/>
  <circle cx="371.776" cy="569.931" r="5.05115" stroke-width="0.5" stroke="black" fill="magenta"/>
   </g>
   <g id="cell118">
  <circle cx="398.594" cy="437.612" r="1.48904" stroke-width="0.5" stroke="black" fill="cyan"/>
  <circle cx="398.594" cy="437.612" r="1.47025" stroke-width="0.5" stroke="black" fill="black"/>
   </g>
   <g id="cell119">
  <circle cx="569.742" cy="521.679" r="8.41137" stroke-width="0.5" stroke="black" fill="magenta"/>
  <circle cx="569.742" cy="521.679" r="5.05134" stroke-width="0.5" stroke="black" fill="magenta"/>
   </g>
   <g id="cell120">
  <circle cx="498.334" cy="492.21" r="8.39392" stroke-width="0.5" stroke="black" fill="green"/>
  <circle cx="498.334" cy="492.21" r="5.04542" stroke-width="0.5" stroke="black" fill="green"/>
   </g>
   <g id="cell122">
  <circle cx="452.215" cy="481.069" r="8.34693" stroke-width="0.5" stroke="black" fill="cyan"/>
  <circle cx="452.215" cy="481.069" r="5.02665" stroke-width="0.5" stroke="black" fill="cyan"/>
   </g>
   <g id="cell123">
  <circle cx="379.46" cy="556.102" r="8.33595" stroke-width="0.5" stroke="black" fill="magenta"/>
  <circle cx="379.46" cy="556.102" r="5.02114" stroke-width="0.5" stroke="black" fill="magenta"/>
   </g>
   <g id="cell125">
  <circle cx="526.832" cy="475.552" r="8.41098" stroke-width="0.5" stroke="black" fill="magenta"/>
  <circle cx="526.832" cy="475.552" r="5.05122" stroke-width="0.5" stroke="black" fill="magenta"/>
   </g>
   <g id="cell127">
  <circle cx="446.271" cy="534.716" r="6.98902" stroke-width="0.5" stroke="black" fill="magenta"/>
  <circle cx="446.271" cy="534.716" r="4.2345" stroke-width="0.5" stroke="black" fill="magenta"/>
   </g>
   <g id="cell128">
  <circle cx="551.758" cy="414.863" r="8.37086" stroke-width="0.5" stroke="black" fill="cyan"/>
  <circle cx="551.758" cy="414.863" r="5.03629" stroke-width="0.5" stroke="black" fill="cyan"/>
   </g>
   <g id="cell129">
  <circle cx="484.116" cy="520.52" r="8.4104" stroke-width="0.5" stroke="black" fill="green"/>
  <circle cx="484.116" cy="520.52" r="5.05105" stroke-width="0.5" stroke="black" fill="green"/>
   </g>
   <g id="cell208">
  <circle cx="367.598" cy="588.41" r="7.93611" stroke-width="0.5" stroke="black" fill="cyan"/>
  <circle cx="367.598" cy="588.41" r="4.81362" stroke-width="0.5" stroke="black" fill="cyan"/>
   </g>
   <g id="cell131">
  <circle cx="534.954" cy="588.439" r="8.40977" stroke-width="0.5" stroke="black" fill="green"/>
  <circle cx="534.954" cy="588.439" r="5.05087" stroke-width="0.5" stroke="black" fill="green"/>
   </g>
   <g id="cell132">
  <circle cx="401.656" cy="449.511" r="8.3984" stroke-width="0.5" stroke="black" fill="green"/>
  <circle cx="401.656" cy="449.511" r="5.04711" stroke-width="0.5" stroke="black" fill="green"/>
   </g>
   <g id="cell133">
  <circle cx="551.38" cy="526.464" r="8.27848" stroke-width="0.5" stroke="black" fill="cyan"/>
  <circle cx="551.38" cy="526.464" r="4.99599" stroke-width="0.5" stroke="black" fill="cyan"/>
   </g>
   <g id="cell134">
  <circle cx="511.399" cy="475.491" r="8.40914" stroke-width="0.5" stroke="black" fill="cyan"/>
  <circle cx="511.399" cy="475.491" r="5.05068" stroke-width="0.5" stroke="black" fill="cyan"/>
   </g>
   <g id="cell135">
  <circle cx="410.175" cy="560.9" r="7.99574" stroke-width="0.5" stroke="black" fill="green"/>
  <circle cx="410.175" cy="560.9" r="4.84774" stroke-width="0.5" stroke="black" fill="green"/>
   </g>
   <g id="cell136">
  <circle cx="457.169" cy="506.247" r="8.39874" stroke-width="0.5" stroke="black" fill="green"/>
  <circle cx="457.169" cy="506.247" r="5.04735" stroke-width="0.5" stroke="black" fill="green"/>
   </g>
   <g id="cell137">
  <circle cx="535.035" cy="627.461" r="8.40848" stroke-width="0.5" stroke="black" fill="green"/>
  <circle cx="535.035" cy="627.461" r="5.05046" stroke-width="0.5" stroke="black" fill="green"/>
   </g>
   <g id="cell138">
  <circle cx="432.753" cy="416.603" r="8.40785" stroke-width="0.5" stroke="black" fill="magenta"/>
  <circle cx="432.753" cy="416.603" r="5.05028" stroke-width="0.5" stroke="black" fill="magenta"/>
   </g>
   <g id="cell139">
  <circle cx="571.457" cy="466.197" r="8.40709" stroke-width="0.5" stroke="black" fill="cyan"/>
  <circle cx="571.457" cy="466.197" r="5.05007" stroke-width="0.5" stroke="black" fill="cyan"/>
   </g>
   <g id="cell140">
  <circle cx="453.402" cy="521.924" r="8.40531" stroke-width="0.5" stroke="black" fill="green"/>
  <circle cx="453.402" cy="521.924" r="5.04951" stroke-width="0.5" stroke="black" fill="green"/>
   </g>
   <g id="cell141">
  <circle cx="426.314" cy="544.873" r="8.40316" stroke-width="0.5" stroke="black" fill="green"/>
  <circle cx="426.314" cy="544.873" r="5.04879" stroke-width="0.5" stroke="black" fill="green"/>
   </g>
   <g id="cell142">
  <circle cx="599.843" cy="511.485" r="8.40396" stroke-width="0.5" stroke="black" fill="magenta"/>
  <circle cx="599.843" cy="511.485" r="5.04897" stroke-width="0.5" stroke="black" fill="magenta"/>
   </g>
   <g id="cell143">
  <circle cx="518.855" cy="433.786" r="8.40152" stroke-width="0.5" stroke="black" fill="cyan"/>
  <circle cx="518.855" cy="433.786" r="5.04821" stroke-width="0.5" stroke="black" fill="cyan"/>
   </g>
   <g id="cell144">
  <circle cx="512.017" cy="448.177" r="8.40225" stroke-width="0.5" stroke="black" fill="cyan"/>
  <circle cx="512.017" cy="448.177" r="5.04839" stroke-width="0.5" stroke="black" fill="cyan"/>
   </g>
   <g id="cell145">
  <circle cx="468.59" cy="517.557" r="8.39174" stroke-width="0.5" stroke="black" fill="green"/>
  <circle cx="468.59" cy="517.557" r="5.04494" stroke-width="0.5" stroke="black" fill="green"/>
   </g>
   <g id="cell146">
  <circle cx="423.701" cy="471.066" r="8.40154" stroke-width="0.5" stroke="black" fill="green"/>
  <circle cx="423.701" cy="471.066" r="5.04811" stroke-width="0.5" stroke="black" fill="green"/>
   </g>
   <g id="cell147">
  <circle cx="373.301" cy="541.648" r="8.40056" stroke-width="0.5" stroke="black" fill="magenta"/>
  <circle cx="373.301" cy="541.648" r="5.04776" stroke-width="0.5" stroke="black" fill="magenta"/>
   </g>
   <g id="cell148">
  <circle cx="584.519" cy="594.727" r="8.07914" stroke-width="0.5" stroke="black" fill="magenta"/>
  <circle cx="584.519" cy="594.727" r="4.89329" stroke-width="0.5" stroke="black" fill="magenta"/>
   </g>
   <g id="cell149">
  <circle cx="529.384" cy="490.425" r="8.399" stroke-width="0.5" stroke="black" fill="magenta"/>
  <circle cx="529.384" cy="490.425" r="5.04729" stroke-width="0.5" stroke="black" fill="magenta"/>
   </g>
   <g id="cell150">
  <circle cx="409.472" cy="463.504" r="8.23203" stroke-width="0.5" stroke="black" fill="green"/>
  <circle cx="409.472" cy="463.504" r="4.97262" stroke-width="0.5" stroke="black" fill="green"/>
   </g>
   <g id="cell151">
  <circle cx="438.778" cy="465.187" r="8.39868" stroke-width="0.5" stroke="black" fill="cyan"/>
  <circle cx="438.778" cy="465.187" r="5.04717" stroke-width="0.5" stroke="black" fill="cyan"/>
   </g>
   <g id="cell152">
  <circle cx="472.56" cy="502.159" r="8.39174" stroke-width="0.5" stroke="black" fill="green"/>
  <circle cx="472.56" cy="502.159" r="5.04494" stroke-width="0.5" stroke="black" fill="green"/>
   </g>
   <g id="cell153">
  <circle cx="544.542" cy="487.217" r="7.9642" stroke-width="0.5" stroke="black" fill="magenta"/>
  <circle cx="544.542" cy="487.217" r="4.83171" stroke-width="0.5" stroke="black" fill="magenta"/>
   </g>
   <g id="cell154">
  <circle cx="483.141" cy="490.308" r="8.39392" stroke-width="0.5" stroke="black" fill="green"/>
  <circle cx="483.141" cy="490.308" r="5.04542" stroke-width="0.5" stroke="black" fill="green"/>
   </g>
   <g id="cell155">
  <circle cx="485.947" cy="626.376" r="8.3937" stroke-width="0.5" stroke="black" fill="green"/>
  <circle cx="485.947" cy="626.376" r="5.04523" stroke-width="0.5" stroke="black" fill="green"/>
   </g>
   <g id="cell156">
  <circle cx="533.965" cy="549.375" r="8.3937" stroke-width="0.5" stroke="black" fill="magenta"/>
  <circle cx="533.965" cy="549.375" r="5.04523" stroke-width="0.5" stroke="black" fill="magenta"/>
   </g>
   <g id="cell157">
  <circle cx="393.518" cy="463.105" r="8.39223" stroke-width="0.5" stroke="black" fill="green"/>
  <circle cx="393.518" cy="463.105" r="5.04483" stroke-width="0.5" stroke="black" fill="green"/>
   </g>
   <g id="cell158">
  <circle cx="604.51" cy="585.626" r="8.39126" stroke-width="0.5" stroke="black" fill="magenta"/>
  <circle cx="604.51" cy="585.626" r="5.04433" stroke-width="0.5" stroke="black" fill="magenta"/>
   </g>
   <g id="cell159">
  <circle cx="589.332" cy="443.896" r="8.3894" stroke-width="0.5" stroke="black" fill="cyan"/>
  <circle cx="589.332" cy="443.896" r="5.04361" stroke-width="0.5" stroke="black" fill="cyan"/>
   </g>
   <g id="cell160">
  <circle cx="415.609" cy="591.556" r="8.38777" stroke-width="0.5" stroke="black" fill="cyan"/>
  <circle cx="415.609" cy="591.556" r="5.04302" stroke-width="0.5" stroke="black" fill="cyan"/>
   </g>
   <g id="cell161">
  <circle cx="447.703" cy="613.58" r="8.38605" stroke-width="0.5" stroke="black" fill="magenta"/>
  <circle cx="447.703" cy="613.58" r="5.04228" stroke-width="0.5" stroke="black" fill="magenta"/>
   </g>
   <g id="cell162">
  <circle cx="574.334" cy="450.513" r="8.38589" stroke-width="0.5" stroke="black" fill="cyan"/>
  <circle cx="574.334" cy="450.513" r="5.04224" stroke-width="0.5" stroke="black" fill="cyan"/>
   </g>
   <g id="cell163">
  <circle cx="563.382" cy="536.218" r="8.38384" stroke-width="0.5" stroke="black" fill="cyan"/>
  <circle cx="563.382" cy="536.218" r="5.04158" stroke-width="0.5" stroke="black" fill="cyan"/>
   </g>
   <g id="cell164">
  <circle cx="575.29" cy="491.757" r="8.38454" stroke-width="0.5" stroke="black" fill="magenta"/>
  <circle cx="575.29" cy="491.757" r="5.04168" stroke-width="0.5" stroke="black" fill="magenta"/>
   </g>
   <g id="cell165">
  <circle cx="587.016" cy="459.372" r="8.38018" stroke-width="0.5" stroke="black" fill="cyan"/>
  <circle cx="587.016" cy="459.372" r="5.03995" stroke-width="0.5" stroke="black" fill="cyan"/>
   </g>
   <g id="cell166">
  <circle cx="653.504" cy="548.584" r="8.37639" stroke-width="0.5" stroke="black" fill="green"/>
  <circle cx="653.504" cy="548.584" r="5.0384" stroke-width="0.5" stroke="black" fill="green"/>
   </g>
   <g id="cell167">
  <circle cx="544.596" cy="502.257" r="8.36318" stroke-width="0.5" stroke="black" fill="magenta"/>
  <circle cx="544.596" cy="502.257" r="5.03389" stroke-width="0.5" stroke="black" fill="magenta"/>
   </g>
   <g id="cell168">
  <circle cx="564.328" cy="424.441" r="8.37086" stroke-width="0.5" stroke="black" fill="cyan"/>
  <circle cx="564.328" cy="424.441" r="5.03629" stroke-width="0.5" stroke="black" fill="cyan"/>
   </g>
   <g id="cell169">
  <circle cx="534.05" cy="533.543" r="8.36574" stroke-width="0.5" stroke="black" fill="cyan"/>
  <circle cx="534.05" cy="533.543" r="5.03417" stroke-width="0.5" stroke="black" fill="cyan"/>
   </g>
   <g id="cell170">
  <circle cx="528.489" cy="612.897" r="8.36458" stroke-width="0.5" stroke="black" fill="green"/>
  <circle cx="528.489" cy="612.897" r="5.03347" stroke-width="0.5" stroke="black" fill="green"/>
   </g>
   <g id="cell172">
  <circle cx="505.831" cy="398.277" r="8.35968" stroke-width="0.5" stroke="black" fill="magenta"/>
  <circle cx="505.831" cy="398.277" r="5.03149" stroke-width="0.5" stroke="black" fill="magenta"/>
   </g>
   <g id="cell173">
  <circle cx="512.814" cy="611.37" r="8.33451" stroke-width="0.5" stroke="black" fill="green"/>
  <circle cx="512.814" cy="611.37" r="5.0218" stroke-width="0.5" stroke="black" fill="green"/>
   </g>
   <g id="cell174">
  <circle cx="418.585" cy="395.997" r="8.35404" stroke-width="0.5" stroke="black" fill="green"/>
  <circle cx="418.585" cy="395.997" r="5.02894" stroke-width="0.5" stroke="black" fill="green"/>
   </g>
   <g id="cell175">
  <circle cx="436.467" cy="480.814" r="8.34693" stroke-width="0.5" stroke="black" fill="cyan"/>
  <circle cx="436.467" cy="480.814" r="5.02665" stroke-width="0.5" stroke="black" fill="cyan"/>
   </g>
   <g id="cell176">
  <circle cx="633.035" cy="509.935" r="8.34618" stroke-width="0.5" stroke="black" fill="magenta"/>
  <circle cx="633.035" cy="509.935" r="5.02607" stroke-width="0.5" stroke="black" fill="magenta"/>
   </g>
   <g id="cell177">
  <circle cx="520.367" cy="582.332" r="8.34875" stroke-width="0.5" stroke="black" fill="green"/>
  <circle cx="520.367" cy="582.332" r="5.02665" stroke-width="0.5" stroke="black" fill="green"/>
   </g>
   <g id="cell178">
  <circle cx="559.386" cy="551.671" r="8.34117" stroke-width="0.5" stroke="black" fill="green"/>
  <circle cx="559.386" cy="551.671" r="5.02327" stroke-width="0.5" stroke="black" fill="green"/>
   </g>
   <g id="cell179">
  <circle cx="408.785" cy="628.38" r="8.33699" stroke-width="0.5" stroke="black" fill="cyan"/>
  <circle cx="408.785" cy="628.38" r="5.02141" stroke-width="0.5" stroke="black" fill="cyan"/>
   </g>
   <g id="cell180">
  <circle cx="394.473" cy="558.731" r="8.33595" stroke-width="0.5" stroke="black" fill="magenta"/>
  <circle cx="394.473" cy="558.731" r="5.02114" stroke-width="0.5" stroke="black" fill="magenta"/>
   </g>
   <g id="cell181">
  <circle cx="386.756" cy="532.824" r="8.23217" stroke-width="0.5" stroke="black" fill="green"/>
  <circle cx="386.756" cy="532.824" r="4.9753" stroke-width="0.5" stroke="black" fill="green"/>
   </g>
   <g id="cell182">
  <circle cx="461.425" cy="560.627" r="8.30597" stroke-width="0.5" stroke="black" fill="magenta"/>
  <circle cx="461.425" cy="560.627" r="5.00722" stroke-width="0.5" stroke="black" fill="magenta"/>
   </g>
   <g id="cell183">
  <circle cx="613.6" cy="502.911" r="8.26909" stroke-width="0.5" stroke="black" fill="magenta"/>
  <circle cx="613.6" cy="502.911" r="4.9927" stroke-width="0.5" stroke="black" fill="magenta"/>
   </g>
   <g id="cell184">
  <circle cx="547.63" cy="541.392" r="8.27848" stroke-width="0.5" stroke="black" fill="cyan"/>
  <circle cx="547.63" cy="541.392" r="4.99599" stroke-width="0.5" stroke="black" fill="cyan"/>
   </g>
   <g id="cell187">
  <circle cx="436.951" cy="555.426" r="8.00935" stroke-width="0.5" stroke="black" fill="green"/>
  <circle cx="436.951" cy="555.426" r="4.86285" stroke-width="0.5" stroke="black" fill="green"/>
   </g>
   <g id="cell188">
  <circle cx="535.81" cy="458.524" r="8.25356" stroke-width="0.5" stroke="black" fill="cyan"/>
  <circle cx="535.81" cy="458.524" r="4.98204" stroke-width="0.5" stroke="black" fill="cyan"/>
   </g>
   <g id="cell189">
  <circle cx="555.807" cy="469.481" r="8.24833" stroke-width="0.5" stroke="black" fill="cyan"/>
  <circle cx="555.807" cy="469.481" r="4.9796" stroke-width="0.5" stroke="black" fill="cyan"/>
   </g>
   <g id="cell190">
  <circle cx="401.241" cy="476.799" r="8.23203" stroke-width="0.5" stroke="black" fill="green"/>
  <circle cx="401.241" cy="476.799" r="4.97262" stroke-width="0.5" stroke="black" fill="green"/>
   </g>
   <g id="cell191">
  <circle cx="619.101" cy="517.379" r="8.2291" stroke-width="0.5" stroke="black" fill="cyan"/>
  <circle cx="619.101" cy="517.379" r="4.96989" stroke-width="0.5" stroke="black" fill="cyan"/>
   </g>
   <g id="cell192">
  <circle cx="510.024" cy="505.779" r="8.22784" stroke-width="0.5" stroke="black" fill="green"/>
  <circle cx="510.024" cy="505.779" r="4.96955" stroke-width="0.5" stroke="black" fill="green"/>
   </g>
   <g id="cell194">
  <circle cx="470.854" cy="437.998" r="8.1218" stroke-width="0.5" stroke="black" fill="magenta"/>
  <circle cx="470.854" cy="437.998" r="4.91457" stroke-width="0.5" stroke="black" fill="magenta"/>
   </g>
   <g id="cell196">
  <circle cx="432.211" cy="569.348" r="8.00935" stroke-width="0.5" stroke="black" fill="green"/>
  <circle cx="432.211" cy="569.348" r="4.86285" stroke-width="0.5" stroke="black" fill="green"/>
   </g>
   <g id="cell197">
  <circle cx="598.858" cy="600.194" r="8.07914" stroke-width="0.5" stroke="black" fill="magenta"/>
  <circle cx="598.858" cy="600.194" r="4.89329" stroke-width="0.5" stroke="black" fill="magenta"/>
   </g>
   <g id="cell198">
  <circle cx="473.311" cy="644.565" r="6.78956" stroke-width="0.5" stroke="black" fill="magenta"/>
  <circle cx="473.311" cy="644.565" r="4.14398" stroke-width="0.5" stroke="black" fill="magenta"/>
   </g>
   <g id="cell200">
  <circle cx="626.172" cy="560.513" r="8.01251" stroke-width="0.5" stroke="black" fill="green"/>
  <circle cx="626.172" cy="560.513" r="4.85578" stroke-width="0.5" stroke="black" fill="green"/>
   </g>
   <g id="cell202">
  <circle cx="418.424" cy="573.871" r="7.99574" stroke-width="0.5" stroke="black" fill="green"/>
  <circle cx="418.424" cy="573.871" r="4.84774" stroke-width="0.5" stroke="black" fill="green"/>
   </g>
   <g id="cell203">
  <circle cx="651.751" cy="563.97" r="8.00086" stroke-width="0.5" stroke="black" fill="green"/>
  <circle cx="651.751" cy="563.97" r="4.84935" stroke-width="0.5" stroke="black" fill="green"/>
   </g>
   <g id="cell204">
  <circle cx="521.975" cy="418.512" r="7.98892" stroke-width="0.5" stroke="black" fill="cyan"/>
  <circle cx="521.975" cy="418.512" r="4.84272" stroke-width="0.5" stroke="black" fill="cyan"/>
   </g>
   <g id="cell205">
  <circle cx="541.465" cy="472.722" r="7.9642" stroke-width="0.5" stroke="black" fill="magenta"/>
  <circle cx="541.465" cy="472.722" r="4.83171" stroke-width="0.5" stroke="black" fill="magenta"/>
   </g>
   <g id="cell206">
  <circle cx="400.338" cy="570.806" r="6.8076" stroke-width="0.5" stroke="black" fill="magenta"/>
  <circle cx="400.338" cy="570.806" r="4.16422" stroke-width="0.5" stroke="black" fill="magenta"/>
   </g>
   <g id="cell210">
  <circle cx="445.227" cy="407.944" r="7.5194" stroke-width="0.5" stroke="black" fill="magenta"/>
  <circle cx="445.227" cy="407.944" r="4.57063" stroke-width="0.5" stroke="black" fill="magenta"/>
   </g>
   <g id="cell211">
  <circle cx="589.458" cy="488.878" r="7.4879" stroke-width="0.5" stroke="black" fill="magenta"/>
  <circle cx="589.458" cy="488.878" r="4.55814" stroke-width="0.5" stroke="black" fill="magenta"/>
   </g>
   <g id="cell212">
  <circle cx="430.534" cy="500.754" r="7.18661" stroke-width="0.5" stroke="black" fill="green"/>
  <circle cx="430.534" cy="500.754" r="4.39796" stroke-width="0.5" stroke="black" fill="green"/>
   </g>
   <g id="cell213">
  <circle cx="498.962" cy="410.949" r="6.89317" stroke-width="0.5" stroke="black" fill="cyan"/>
  <circle cx="498.962" cy="410.949" r="4.21703" stroke-width="0.5" stroke="black" fill="cyan"/>
   </g>
   <g id="cell214">
  <circle cx="407.059" cy="580.769" r="6.8076" stroke-width="0.5" stroke="black" fill="magenta"/>
  <circle cx="407.059" cy="580.769" r="4.16422" stroke-width="0.5" stroke="black" fill="magenta"/>
   </g>
   <g id="cell215">
  <circle cx="460.447" cy="644.568" r="6.78956" stroke-width="0.5" stroke="black" fill="magenta"/>
  <circle cx="460.447" cy="644.568" r="4.14398" stroke-width="0.5" stroke="black" fill="magenta"/>
   </g>
   <g id="cell216">
  <circle cx="433.245" cy="532.368" r="6.98902" stroke-width="0.5" stroke="black" fill="magenta"/>
  <circle cx="433.245" cy="532.368" r="4.2345" stroke-width="0.5" stroke="black" fill="magenta"/>
   </g>
   <g id="cell217">
  <circle cx="572.723" cy="546.86" r="6.83713" stroke-width="0.5" stroke="black" fill="cyan"/>
  <circle cx="572.723" cy="546.86" r="4.12773" stroke-width="0.5" stroke="black" fill="cyan"/>
   </g>
   <g id="cell219">
  <circle cx="531.901" cy="503.543" r="6.69076" stroke-width="0.5" stroke="black" fill="green"/>
  <circle cx="531.901" cy="503.543" r="4.01996" stroke-width="0.5" stroke="black" fill="green"/>
   </g>
   <g id="cell220">
  <circle cx="472.531" cy="482.038" r="6.67717" stroke-width="0.5" stroke="black" fill="magenta"/>
  <circle cx="472.531" cy="482.038" r="4.00951" stroke-width="0.5" stroke="black" fill="magenta"/>
   </g>
  </g>
 </g>
  <rect x="775" y="1035" width="200" height="10" stroke-width="2" stroke="rgb(255,255,255)" fill="rgb(0,0,0)"/>
  <text x="781.25" y="1028.75"
   font-family="Arial" font-size="25" fill="black" >
   200 &#956;m
  </text>
  <text x="25" y="1045"
   font-family="Arial" font-size="18.75" fill="black" >
   0 days, 0 hours, 0 minutes, and 53.6905 seconds
  </text>
  <rect x="0" y="70" width="1000" height="1000" stroke-width="2" stroke="rgb(0,0,0)" fill="none"/>
</svg>
