<?xml version="1.0" encoding="UTF-8" standalone="no"?>
<!-- Created with PhysiCell (http://PhysiCell.MathCancer.org/) -->
<svg 
 xmlns:dc="http://purl.org/dc/elements/1.1/" 
 xmlns:cc="http://creativecommons.org/ns#" 
 xmlns:rdf="http://www.w3.org/1999/02/22-rdf-syntax-ns#" 
 xmlns:svg="http://www.w3.org/2000/svg" 
 xmlns="http://www.w3.org/2000/svg" 
 version="1.1" 
 width="1000" 
 height="1070" 
 id="svg2">
  <rect x="0" y="0" width="1000" height="1070" stroke-width="2" stroke="white" fill="white"/>
  <text x="12.5" y="30"
   font-family="Arial" font-size="25" fill="black" >
   Current time: 0 days, 1 hours, and 0.00 minutes, z = 0.00 &#956;m
  </text>
  <text x="12.5" y="57.5"
   font-family="Arial" font-size="23.75" fill="black" >
   78 agents
  </text>
 <g id="tissue" 
    transform="translate(0,1070) scale(1,-1)">
  <g id="ECM">
  </g>
  <g id="cells">
   <g id="cell0">
  <circle cx="513.532" cy="530.128" r="8.41271" stroke-width="0.5" stroke="black" fill="magenta"/>
  <circle cx="513.532" cy="530.128" r="5.05167" stroke-width="0.5" stroke="black" fill="magenta"/>
   </g>
   <g id="cell1">
  <circle cx="603.902" cy="530.463" r="8.41271" stroke-width="0.5" stroke="black" fill="magenta"/>
  <circle cx="603.902" cy="530.463" r="5.05167" stroke-width="0.5" stroke="black" fill="magenta"/>
   </g>
   <g id="cell2">
  <circle cx="510.588" cy="601.411" r="8.41271" stroke-width="0.5" stroke="black" fill="magenta"/>
  <circle cx="510.588" cy="601.411" r="5.05167" stroke-width="0.5" stroke="black" fill="magenta"/>
   </g>
   <g id="cell3">
  <circle cx="532.702" cy="545.714" r="8.41271" stroke-width="0.5" stroke="black" fill="magenta"/>
  <circle cx="532.702" cy="545.714" r="5.05167" stroke-width="0.5" stroke="black" fill="magenta"/>
   </g>
   <g id="cell4">
  <circle cx="481.374" cy="439.863" r="8.41271" stroke-width="0.5" stroke="black" fill="magenta"/>
  <circle cx="481.374" cy="439.863" r="5.05167" stroke-width="0.5" stroke="black" fill="magenta"/>
   </g>
   <g id="cell5">
  <circle cx="465.032" cy="493.3" r="8.41271" stroke-width="0.5" stroke="black" fill="magenta"/>
  <circle cx="465.032" cy="493.3" r="5.05167" stroke-width="0.5" stroke="black" fill="magenta"/>
   </g>
   <g id="cell6">
  <circle cx="592.203" cy="513.046" r="6.75639" stroke-width="0.5" stroke="black" fill="magenta"/>
  <circle cx="592.203" cy="513.046" r="4.06813" stroke-width="0.5" stroke="black" fill="magenta"/>
   </g>
   <g id="cell7">
  <circle cx="512.375" cy="464.875" r="8.41271" stroke-width="0.5" stroke="black" fill="magenta"/>
  <circle cx="512.375" cy="464.875" r="5.05167" stroke-width="0.5" stroke="black" fill="magenta"/>
   </g>
   <g id="cell8">
  <circle cx="376.09" cy="544.456" r="8.41271" stroke-width="0.5" stroke="black" fill="magenta"/>
  <circle cx="376.09" cy="544.456" r="5.05167" stroke-width="0.5" stroke="black" fill="magenta"/>
   </g>
   <g id="cell9">
  <circle cx="460.472" cy="599.786" r="8.41271" stroke-width="0.5" stroke="black" fill="magenta"/>
  <circle cx="460.472" cy="599.786" r="5.05167" stroke-width="0.5" stroke="black" fill="magenta"/>
   </g>
   <g id="cell10">
  <circle cx="583.447" cy="392.105" r="8.41271" stroke-width="0.5" stroke="black" fill="magenta"/>
  <circle cx="583.447" cy="392.105" r="5.05167" stroke-width="0.5" stroke="black" fill="magenta"/>
   </g>
   <g id="cell11">
  <circle cx="589.748" cy="590.273" r="8.41271" stroke-width="0.5" stroke="black" fill="magenta"/>
  <circle cx="589.748" cy="590.273" r="5.05167" stroke-width="0.5" stroke="black" fill="magenta"/>
   </g>
   <g id="cell12">
  <circle cx="506.274" cy="584.67" r="8.41271" stroke-width="0.5" stroke="black" fill="magenta"/>
  <circle cx="506.274" cy="584.67" r="5.05167" stroke-width="0.5" stroke="black" fill="magenta"/>
   </g>
   <g id="cell13">
  <circle cx="385.613" cy="566.563" r="8.41271" stroke-width="0.5" stroke="black" fill="magenta"/>
  <circle cx="385.613" cy="566.563" r="5.05167" stroke-width="0.5" stroke="black" fill="magenta"/>
   </g>
   <g id="cell14">
  <circle cx="529.44" cy="395.901" r="8.41271" stroke-width="0.5" stroke="black" fill="magenta"/>
  <circle cx="529.44" cy="395.901" r="5.05167" stroke-width="0.5" stroke="black" fill="magenta"/>
   </g>
   <g id="cell15">
  <circle cx="381.617" cy="474.448" r="8.41271" stroke-width="0.5" stroke="black" fill="magenta"/>
  <circle cx="381.617" cy="474.448" r="5.05167" stroke-width="0.5" stroke="black" fill="magenta"/>
   </g>
   <g id="cell16">
  <circle cx="428.948" cy="413.426" r="8.41271" stroke-width="0.5" stroke="black" fill="magenta"/>
  <circle cx="428.948" cy="413.426" r="5.05167" stroke-width="0.5" stroke="black" fill="magenta"/>
   </g>
   <g id="cell17">
  <circle cx="572.193" cy="490.231" r="8.41271" stroke-width="0.5" stroke="black" fill="magenta"/>
  <circle cx="572.193" cy="490.231" r="5.05167" stroke-width="0.5" stroke="black" fill="magenta"/>
   </g>
   <g id="cell18">
  <circle cx="515.696" cy="387.671" r="8.41271" stroke-width="0.5" stroke="black" fill="magenta"/>
  <circle cx="515.696" cy="387.671" r="5.05167" stroke-width="0.5" stroke="black" fill="magenta"/>
   </g>
   <g id="cell19">
  <circle cx="451.893" cy="539.461" r="8.41271" stroke-width="0.5" stroke="black" fill="magenta"/>
  <circle cx="451.893" cy="539.461" r="5.05167" stroke-width="0.5" stroke="black" fill="magenta"/>
   </g>
   <g id="cell20">
  <circle cx="533.314" cy="417.014" r="8.41271" stroke-width="0.5" stroke="black" fill="magenta"/>
  <circle cx="533.314" cy="417.014" r="5.05167" stroke-width="0.5" stroke="black" fill="magenta"/>
   </g>
   <g id="cell21">
  <circle cx="464.214" cy="634.716" r="8.41271" stroke-width="0.5" stroke="black" fill="magenta"/>
  <circle cx="464.214" cy="634.716" r="5.05167" stroke-width="0.5" stroke="black" fill="magenta"/>
   </g>
   <g id="cell22">
  <circle cx="556.577" cy="493.743" r="8.41271" stroke-width="0.5" stroke="black" fill="magenta"/>
  <circle cx="556.577" cy="493.743" r="5.05167" stroke-width="0.5" stroke="black" fill="magenta"/>
   </g>
   <g id="cell23">
  <circle cx="535.83" cy="483.31" r="8.41271" stroke-width="0.5" stroke="black" fill="magenta"/>
  <circle cx="535.83" cy="483.31" r="5.05167" stroke-width="0.5" stroke="black" fill="magenta"/>
   </g>
   <g id="cell24">
  <circle cx="559.289" cy="379.784" r="8.41271" stroke-width="0.5" stroke="black" fill="magenta"/>
  <circle cx="559.289" cy="379.784" r="5.05167" stroke-width="0.5" stroke="black" fill="magenta"/>
   </g>
   <g id="cell25">
  <circle cx="637.757" cy="554.675" r="6.69288" stroke-width="0.5" stroke="black" fill="green"/>
  <circle cx="637.757" cy="554.675" r="4.02051" stroke-width="0.5" stroke="black" fill="green"/>
   </g>
   <g id="cell26">
  <circle cx="551.191" cy="401.273" r="8.41271" stroke-width="0.5" stroke="black" fill="green"/>
  <circle cx="551.191" cy="401.273" r="5.05167" stroke-width="0.5" stroke="black" fill="green"/>
   </g>
   <g id="cell27">
  <circle cx="457.446" cy="388.678" r="8.41271" stroke-width="0.5" stroke="black" fill="green"/>
  <circle cx="457.446" cy="388.678" r="5.05167" stroke-width="0.5" stroke="black" fill="green"/>
   </g>
   <g id="cell28">
  <circle cx="438.499" cy="530.67" r="8.41271" stroke-width="0.5" stroke="black" fill="green"/>
  <circle cx="438.499" cy="530.67" r="5.05167" stroke-width="0.5" stroke="black" fill="green"/>
   </g>
   <g id="cell29">
  <circle cx="449.029" cy="518.595" r="8.41271" stroke-width="0.5" stroke="black" fill="green"/>
  <circle cx="449.029" cy="518.595" r="5.05167" stroke-width="0.5" stroke="black" fill="green"/>
   </g>
   <g id="cell30">
  <circle cx="481.58" cy="540.282" r="8.41271" stroke-width="0.5" stroke="black" fill="green"/>
  <circle cx="481.58" cy="540.282" r="5.05167" stroke-width="0.5" stroke="black" fill="green"/>
   </g>
   <g id="cell31">
  <circle cx="412.754" cy="541.172" r="8.41271" stroke-width="0.5" stroke="black" fill="green"/>
  <circle cx="412.754" cy="541.172" r="5.05167" stroke-width="0.5" stroke="black" fill="green"/>
   </g>
   <g id="cell32">
  <circle cx="425.372" cy="474.828" r="8.41271" stroke-width="0.5" stroke="black" fill="green"/>
  <circle cx="425.372" cy="474.828" r="5.05167" stroke-width="0.5" stroke="black" fill="green"/>
   </g>
   <g id="cell33">
  <circle cx="494.144" cy="423.183" r="8.41271" stroke-width="0.5" stroke="black" fill="green"/>
  <circle cx="494.144" cy="423.183" r="5.05167" stroke-width="0.5" stroke="black" fill="green"/>
   </g>
   <g id="cell34">
  <circle cx="397.139" cy="450.879" r="8.41271" stroke-width="0.5" stroke="black" fill="green"/>
  <circle cx="397.139" cy="450.879" r="5.05167" stroke-width="0.5" stroke="black" fill="green"/>
   </g>
   <g id="cell35">
  <circle cx="548.588" cy="544.779" r="8.41271" stroke-width="0.5" stroke="black" fill="green"/>
  <circle cx="548.588" cy="544.779" r="5.05167" stroke-width="0.5" stroke="black" fill="green"/>
   </g>
   <g id="cell36">
  <circle cx="391.657" cy="583.761" r="8.41271" stroke-width="0.5" stroke="black" fill="green"/>
  <circle cx="391.657" cy="583.761" r="5.05167" stroke-width="0.5" stroke="black" fill="green"/>
   </g>
   <g id="cell37">
  <circle cx="634.871" cy="460.618" r="8.41271" stroke-width="0.5" stroke="black" fill="green"/>
  <circle cx="634.871" cy="460.618" r="5.05167" stroke-width="0.5" stroke="black" fill="green"/>
   </g>
   <g id="cell38">
  <circle cx="536.289" cy="601.814" r="8.41271" stroke-width="0.5" stroke="black" fill="green"/>
  <circle cx="536.289" cy="601.814" r="5.05167" stroke-width="0.5" stroke="black" fill="green"/>
   </g>
   <g id="cell39">
  <circle cx="613.458" cy="490.595" r="8.41271" stroke-width="0.5" stroke="black" fill="green"/>
  <circle cx="613.458" cy="490.595" r="5.05167" stroke-width="0.5" stroke="black" fill="green"/>
   </g>
   <g id="cell40">
  <circle cx="485.348" cy="571.779" r="8.41271" stroke-width="0.5" stroke="black" fill="green"/>
  <circle cx="485.348" cy="571.779" r="5.05167" stroke-width="0.5" stroke="black" fill="green"/>
   </g>
   <g id="cell41">
  <circle cx="363.493" cy="480.217" r="8.41271" stroke-width="0.5" stroke="black" fill="green"/>
  <circle cx="363.493" cy="480.217" r="5.05167" stroke-width="0.5" stroke="black" fill="green"/>
   </g>
   <g id="cell42">
  <circle cx="438.842" cy="494.268" r="8.41271" stroke-width="0.5" stroke="black" fill="green"/>
  <circle cx="438.842" cy="494.268" r="5.05167" stroke-width="0.5" stroke="black" fill="green"/>
   </g>
   <g id="cell43">
  <circle cx="558.554" cy="445.735" r="8.41271" stroke-width="0.5" stroke="black" fill="green"/>
  <circle cx="558.554" cy="445.735" r="5.05167" stroke-width="0.5" stroke="black" fill="green"/>
   </g>
   <g id="cell44">
  <circle cx="476.012" cy="623.879" r="8.41271" stroke-width="0.5" stroke="black" fill="green"/>
  <circle cx="476.012" cy="623.879" r="5.05167" stroke-width="0.5" stroke="black" fill="green"/>
   </g>
   <g id="cell45">
  <circle cx="414.956" cy="557.087" r="8.41271" stroke-width="0.5" stroke="black" fill="green"/>
  <circle cx="414.956" cy="557.087" r="5.05167" stroke-width="0.5" stroke="black" fill="green"/>
   </g>
   <g id="cell46">
  <circle cx="523.302" cy="611.362" r="8.41271" stroke-width="0.5" stroke="black" fill="green"/>
  <circle cx="523.302" cy="611.362" r="5.05167" stroke-width="0.5" stroke="black" fill="green"/>
   </g>
   <g id="cell47">
  <circle cx="498.478" cy="507.44" r="6.67717" stroke-width="0.5" stroke="black" fill="green"/>
  <circle cx="498.478" cy="507.44" r="4.00951" stroke-width="0.5" stroke="black" fill="green"/>
   </g>
   <g id="cell48">
  <circle cx="564.517" cy="602.786" r="8.41271" stroke-width="0.5" stroke="black" fill="green"/>
  <circle cx="564.517" cy="602.786" r="5.05167" stroke-width="0.5" stroke="black" fill="green"/>
   </g>
   <g id="cell49">
  <circle cx="429.837" cy="397.431" r="8.41271" stroke-width="0.5" stroke="black" fill="green"/>
  <circle cx="429.837" cy="397.431" r="5.05167" stroke-width="0.5" stroke="black" fill="green"/>
   </g>
   <g id="cell50">
  <circle cx="519.621" cy="515.64" r="8.41271" stroke-width="0.5" stroke="black" fill="cyan"/>
  <circle cx="519.621" cy="515.64" r="5.05167" stroke-width="0.5" stroke="black" fill="cyan"/>
   </g>
   <g id="cell51">
  <circle cx="399.15" cy="598.051" r="8.41271" stroke-width="0.5" stroke="black" fill="cyan"/>
  <circle cx="399.15" cy="598.051" r="5.05167" stroke-width="0.5" stroke="black" fill="cyan"/>
   </g>
   <g id="cell52">
  <circle cx="520.902" cy="429.575" r="8.41271" stroke-width="0.5" stroke="black" fill="cyan"/>
  <circle cx="520.902" cy="429.575" r="5.05167" stroke-width="0.5" stroke="black" fill="cyan"/>
   </g>
   <g id="cell53">
  <circle cx="571.298" cy="435.996" r="8.41271" stroke-width="0.5" stroke="black" fill="cyan"/>
  <circle cx="571.298" cy="435.996" r="5.05167" stroke-width="0.5" stroke="black" fill="cyan"/>
   </g>
   <g id="cell54">
  <circle cx="478.153" cy="424.167" r="8.41271" stroke-width="0.5" stroke="black" fill="cyan"/>
  <circle cx="478.153" cy="424.167" r="5.05167" stroke-width="0.5" stroke="black" fill="cyan"/>
   </g>
   <g id="cell55">
  <circle cx="527.557" cy="469.664" r="8.41271" stroke-width="0.5" stroke="black" fill="cyan"/>
  <circle cx="527.557" cy="469.664" r="5.05167" stroke-width="0.5" stroke="black" fill="cyan"/>
   </g>
   <g id="cell56">
  <circle cx="618.19" cy="522.042" r="8.41271" stroke-width="0.5" stroke="black" fill="cyan"/>
  <circle cx="618.19" cy="522.042" r="5.05167" stroke-width="0.5" stroke="black" fill="cyan"/>
   </g>
   <g id="cell57">
  <circle cx="416.924" cy="617.466" r="8.41271" stroke-width="0.5" stroke="black" fill="cyan"/>
  <circle cx="416.924" cy="617.466" r="5.05167" stroke-width="0.5" stroke="black" fill="cyan"/>
   </g>
   <g id="cell58">
  <circle cx="551.184" cy="478.746" r="8.41271" stroke-width="0.5" stroke="black" fill="cyan"/>
  <circle cx="551.184" cy="478.746" r="5.05167" stroke-width="0.5" stroke="black" fill="cyan"/>
   </g>
   <g id="cell59">
  <circle cx="385.412" cy="439.754" r="8.41271" stroke-width="0.5" stroke="black" fill="cyan"/>
  <circle cx="385.412" cy="439.754" r="5.05167" stroke-width="0.5" stroke="black" fill="cyan"/>
   </g>
   <g id="cell60">
  <circle cx="593.466" cy="473.603" r="8.41271" stroke-width="0.5" stroke="black" fill="cyan"/>
  <circle cx="593.466" cy="473.603" r="5.05167" stroke-width="0.5" stroke="black" fill="cyan"/>
   </g>
   <g id="cell61">
  <circle cx="553.003" cy="613.953" r="8.41271" stroke-width="0.5" stroke="black" fill="cyan"/>
  <circle cx="553.003" cy="613.953" r="5.05167" stroke-width="0.5" stroke="black" fill="cyan"/>
   </g>
   <g id="cell62">
  <circle cx="525.163" cy="445.114" r="8.41271" stroke-width="0.5" stroke="black" fill="cyan"/>
  <circle cx="525.163" cy="445.114" r="5.05167" stroke-width="0.5" stroke="black" fill="cyan"/>
   </g>
   <g id="cell63">
  <circle cx="577.841" cy="546.421" r="8.41271" stroke-width="0.5" stroke="black" fill="cyan"/>
  <circle cx="577.841" cy="546.421" r="5.05167" stroke-width="0.5" stroke="black" fill="cyan"/>
   </g>
   <g id="cell64">
  <circle cx="509.962" cy="636.825" r="8.41271" stroke-width="0.5" stroke="black" fill="cyan"/>
  <circle cx="509.962" cy="636.825" r="5.05167" stroke-width="0.5" stroke="black" fill="cyan"/>
   </g>
   <g id="cell65">
  <circle cx="542.841" cy="465.155" r="8.41271" stroke-width="0.5" stroke="black" fill="cyan"/>
  <circle cx="542.841" cy="465.155" r="5.05167" stroke-width="0.5" stroke="black" fill="cyan"/>
   </g>
   <g id="cell66">
  <circle cx="535.551" cy="529.94" r="8.41271" stroke-width="0.5" stroke="black" fill="cyan"/>
  <circle cx="535.551" cy="529.94" r="5.05167" stroke-width="0.5" stroke="black" fill="cyan"/>
   </g>
   <g id="cell67">
  <circle cx="354.177" cy="493.286" r="8.41271" stroke-width="0.5" stroke="black" fill="cyan"/>
  <circle cx="354.177" cy="493.286" r="5.05167" stroke-width="0.5" stroke="black" fill="cyan"/>
   </g>
   <g id="cell68">
  <circle cx="562.846" cy="551.816" r="8.41271" stroke-width="0.5" stroke="black" fill="cyan"/>
  <circle cx="562.846" cy="551.816" r="5.05167" stroke-width="0.5" stroke="black" fill="cyan"/>
   </g>
   <g id="cell69">
  <circle cx="437.639" cy="464.521" r="8.41271" stroke-width="0.5" stroke="black" fill="cyan"/>
  <circle cx="437.639" cy="464.521" r="5.05167" stroke-width="0.5" stroke="black" fill="cyan"/>
   </g>
   <g id="cell70">
  <circle cx="576.881" cy="474.87" r="8.41271" stroke-width="0.5" stroke="black" fill="cyan"/>
  <circle cx="576.881" cy="474.87" r="5.05167" stroke-width="0.5" stroke="black" fill="cyan"/>
   </g>
   <g id="cell71">
  <circle cx="377.712" cy="520.989" r="8.41271" stroke-width="0.5" stroke="black" fill="cyan"/>
  <circle cx="377.712" cy="520.989" r="5.05167" stroke-width="0.5" stroke="black" fill="cyan"/>
   </g>
   <g id="cell72">
  <circle cx="535.13" cy="513.911" r="8.41271" stroke-width="0.5" stroke="black" fill="cyan"/>
  <circle cx="535.13" cy="513.911" r="5.05167" stroke-width="0.5" stroke="black" fill="cyan"/>
   </g>
   <g id="cell73">
  <circle cx="360.136" cy="545.956" r="8.41271" stroke-width="0.5" stroke="black" fill="cyan"/>
  <circle cx="360.136" cy="545.956" r="5.05167" stroke-width="0.5" stroke="black" fill="cyan"/>
   </g>
   <g id="cell74">
  <circle cx="542.454" cy="446.649" r="8.41271" stroke-width="0.5" stroke="black" fill="cyan"/>
  <circle cx="542.454" cy="446.649" r="5.05167" stroke-width="0.5" stroke="black" fill="cyan"/>
   </g>
   <g id="cell75">
  <circle cx="596.227" cy="500.876" r="6.75639" stroke-width="0.5" stroke="black" fill="magenta"/>
  <circle cx="596.227" cy="500.876" r="4.06813" stroke-width="0.5" stroke="black" fill="magenta"/>
   </g>
   <g id="cell76">
  <circle cx="644.797" cy="544.41" r="6.69288" stroke-width="0.5" stroke="black" fill="green"/>
  <circle cx="644.797" cy="544.41" r="4.02051" stroke-width="0.5" stroke="black" fill="green"/>
   </g>
   <g id="cell77">
  <circle cx="510.37" cy="505.864" r="6.67717" stroke-width="0.5" stroke="black" fill="green"/>
  <circle cx="510.37" cy="505.864" r="4.00951" stroke-width="0.5" stroke="black" fill="green"/>
   </g>
  </g>
 </g>
  <rect x="775" y="1035" width="200" height="10" stroke-width="2" stroke="rgb(255,255,255)" fill="rgb(0,0,0)"/>
  <text x="781.25" y="1028.75"
   font-family="Arial" font-size="25" fill="black" >
   200 &#956;m
  </text>
  <text x="25" y="1045"
   font-family="Arial" font-size="18.75" fill="black" >
   0 days, 0 hours, 0 minutes, and 1.2973 seconds
  </text>
  <rect x="0" y="70" width="1000" height="1000" stroke-width="2" stroke="rgb(0,0,0)" fill="none"/>
</svg>
