<?xml version="1.0" encoding="UTF-8" standalone="no"?>
<!-- Created with PhysiCell (http://PhysiCell.MathCancer.org/) -->
<svg 
 xmlns:dc="http://purl.org/dc/elements/1.1/" 
 xmlns:cc="http://creativecommons.org/ns#" 
 xmlns:rdf="http://www.w3.org/1999/02/22-rdf-syntax-ns#" 
 xmlns:svg="http://www.w3.org/2000/svg" 
 xmlns="http://www.w3.org/2000/svg" 
 version="1.1" 
 width="1000" 
 height="1070" 
 id="svg2">
  <rect x="0" y="0" width="1000" height="1070" stroke-width="2" stroke="white" fill="white"/>
  <text x="12.5" y="30"
   font-family="Arial" font-size="25" fill="black" >
   Current time: 1 days, 14 hours, and 0.00 minutes, z = 0.00 &#956;m
  </text>
  <text x="12.5" y="57.5"
   font-family="Arial" font-size="23.75" fill="black" >
   203 agents
  </text>
 <g id="tissue" 
    transform="translate(0,1070) scale(1,-1)">
  <g id="ECM">
  </g>
  <g id="cells">
   <g id="cell0">
  <circle cx="512.494" cy="534.507" r="8.41271" stroke-width="0.5" stroke="black" fill="magenta"/>
  <circle cx="512.494" cy="534.507" r="5.05167" stroke-width="0.5" stroke="black" fill="magenta"/>
   </g>
   <g id="cell1">
  <circle cx="602.272" cy="542.477" r="8.41271" stroke-width="0.5" stroke="black" fill="magenta"/>
  <circle cx="602.272" cy="542.477" r="5.05167" stroke-width="0.5" stroke="black" fill="magenta"/>
   </g>
   <g id="cell2">
  <circle cx="504.52" cy="597.998" r="8.41271" stroke-width="0.5" stroke="black" fill="magenta"/>
  <circle cx="504.52" cy="597.998" r="5.05167" stroke-width="0.5" stroke="black" fill="magenta"/>
   </g>
   <g id="cell3">
  <circle cx="522.033" cy="559.423" r="8.38753" stroke-width="0.5" stroke="black" fill="magenta"/>
  <circle cx="522.033" cy="559.423" r="5.04286" stroke-width="0.5" stroke="black" fill="magenta"/>
   </g>
   <g id="cell4">
  <circle cx="486.13" cy="438.421" r="8.02418" stroke-width="0.5" stroke="black" fill="magenta"/>
  <circle cx="486.13" cy="438.421" r="4.86209" stroke-width="0.5" stroke="black" fill="magenta"/>
   </g>
   <g id="cell5">
  <circle cx="466.67" cy="487.445" r="8.41271" stroke-width="0.5" stroke="black" fill="magenta"/>
  <circle cx="466.67" cy="487.445" r="5.05167" stroke-width="0.5" stroke="black" fill="magenta"/>
   </g>
   <g id="cell6">
  <circle cx="585.829" cy="519.36" r="8.41094" stroke-width="0.5" stroke="black" fill="magenta"/>
  <circle cx="585.829" cy="519.36" r="5.05122" stroke-width="0.5" stroke="black" fill="magenta"/>
   </g>
   <g id="cell171">
  <circle cx="585.63" cy="503.407" r="8.34502" stroke-width="0.5" stroke="black" fill="magenta"/>
  <circle cx="585.63" cy="503.407" r="5.025" stroke-width="0.5" stroke="black" fill="magenta"/>
   </g>
   <g id="cell8">
  <circle cx="374.394" cy="525.718" r="8.39664" stroke-width="0.5" stroke="black" fill="magenta"/>
  <circle cx="374.394" cy="525.718" r="5.04633" stroke-width="0.5" stroke="black" fill="magenta"/>
   </g>
   <g id="cell193">
  <circle cx="446.54" cy="566.004" r="8.04079" stroke-width="0.5" stroke="black" fill="green"/>
  <circle cx="446.54" cy="566.004" r="4.88021" stroke-width="0.5" stroke="black" fill="green"/>
   </g>
   <g id="cell186">
  <circle cx="549.265" cy="430.752" r="8.20497" stroke-width="0.5" stroke="black" fill="cyan"/>
  <circle cx="549.265" cy="430.752" r="4.95911" stroke-width="0.5" stroke="black" fill="cyan"/>
   </g>
   <g id="cell11">
  <circle cx="597.054" cy="571.595" r="8.3843" stroke-width="0.5" stroke="black" fill="magenta"/>
  <circle cx="597.054" cy="571.595" r="5.04162" stroke-width="0.5" stroke="black" fill="magenta"/>
   </g>
   <g id="cell12">
  <circle cx="504.544" cy="582.055" r="8.41271" stroke-width="0.5" stroke="black" fill="magenta"/>
  <circle cx="504.544" cy="582.055" r="5.05167" stroke-width="0.5" stroke="black" fill="magenta"/>
   </g>
   <g id="cell13">
  <circle cx="387.188" cy="572.919" r="7.81311" stroke-width="0.5" stroke="black" fill="magenta"/>
  <circle cx="387.188" cy="572.919" r="4.74366" stroke-width="0.5" stroke="black" fill="magenta"/>
   </g>
   <g id="cell109">
  <circle cx="371.54" cy="442.415" r="8.4116" stroke-width="0.5" stroke="black" fill="cyan"/>
  <circle cx="371.54" cy="442.415" r="5.05139" stroke-width="0.5" stroke="black" fill="cyan"/>
   </g>
   <g id="cell199">
  <circle cx="653.783" cy="525.498" r="7.92355" stroke-width="0.5" stroke="black" fill="green"/>
  <circle cx="653.783" cy="525.498" r="4.81102" stroke-width="0.5" stroke="black" fill="green"/>
   </g>
   <g id="cell16">
  <circle cx="420.858" cy="427.379" r="8.40629" stroke-width="0.5" stroke="black" fill="magenta"/>
  <circle cx="420.858" cy="427.379" r="5.04978" stroke-width="0.5" stroke="black" fill="magenta"/>
   </g>
   <g id="cell17">
  <circle cx="569.527" cy="505.7" r="8.37537" stroke-width="0.5" stroke="black" fill="magenta"/>
  <circle cx="569.527" cy="505.7" r="5.03798" stroke-width="0.5" stroke="black" fill="magenta"/>
   </g>
   <g id="cell185">
  <circle cx="397.53" cy="544.807" r="7.89341" stroke-width="0.5" stroke="black" fill="green"/>
  <circle cx="397.53" cy="544.807" r="4.80441" stroke-width="0.5" stroke="black" fill="green"/>
   </g>
   <g id="cell19">
  <circle cx="449.445" cy="550.013" r="8.27068" stroke-width="0.5" stroke="black" fill="magenta"/>
  <circle cx="449.445" cy="550.013" r="4.99041" stroke-width="0.5" stroke="black" fill="magenta"/>
   </g>
   <g id="cell20">
  <circle cx="537.136" cy="421.002" r="8.41271" stroke-width="0.5" stroke="black" fill="magenta"/>
  <circle cx="537.136" cy="421.002" r="5.05167" stroke-width="0.5" stroke="black" fill="magenta"/>
   </g>
   <g id="cell21">
  <circle cx="459.778" cy="630.702" r="7.97646" stroke-width="0.5" stroke="black" fill="magenta"/>
  <circle cx="459.778" cy="630.702" r="4.83584" stroke-width="0.5" stroke="black" fill="magenta"/>
   </g>
   <g id="cell22">
  <circle cx="556.929" cy="495.698" r="8.41271" stroke-width="0.5" stroke="black" fill="magenta"/>
  <circle cx="556.929" cy="495.698" r="5.05167" stroke-width="0.5" stroke="black" fill="magenta"/>
   </g>
   <g id="cell23">
  <circle cx="554.911" cy="511.275" r="8.34702" stroke-width="0.5" stroke="black" fill="magenta"/>
  <circle cx="554.911" cy="511.275" r="5.02728" stroke-width="0.5" stroke="black" fill="magenta"/>
   </g>
   <g id="cell124">
  <circle cx="559.613" cy="455.102" r="8.40529" stroke-width="0.5" stroke="black" fill="cyan"/>
  <circle cx="559.613" cy="455.102" r="5.04949" stroke-width="0.5" stroke="black" fill="cyan"/>
   </g>
   <g id="cell25">
  <circle cx="637.904" cy="550.431" r="7.87817" stroke-width="0.5" stroke="black" fill="green"/>
  <circle cx="637.904" cy="550.431" r="4.78087" stroke-width="0.5" stroke="black" fill="green"/>
   </g>
   <g id="cell26">
  <circle cx="554.093" cy="399.43" r="8.41248" stroke-width="0.5" stroke="black" fill="green"/>
  <circle cx="554.093" cy="399.43" r="5.05162" stroke-width="0.5" stroke="black" fill="green"/>
   </g>
   <g id="cell27">
  <circle cx="457.446" cy="388.678" r="8.41271" stroke-width="0.5" stroke="black" fill="green"/>
  <circle cx="457.446" cy="388.678" r="5.05167" stroke-width="0.5" stroke="black" fill="green"/>
   </g>
   <g id="cell28">
  <circle cx="429.597" cy="519.915" r="8.41271" stroke-width="0.5" stroke="black" fill="green"/>
  <circle cx="429.597" cy="519.915" r="5.05167" stroke-width="0.5" stroke="black" fill="green"/>
   </g>
   <g id="cell29">
  <circle cx="442.178" cy="510.877" r="8.40745" stroke-width="0.5" stroke="black" fill="green"/>
  <circle cx="442.178" cy="510.877" r="5.05013" stroke-width="0.5" stroke="black" fill="green"/>
   </g>
   <g id="cell126">
  <circle cx="526.905" cy="507.116" r="8.40916" stroke-width="0.5" stroke="black" fill="green"/>
  <circle cx="526.905" cy="507.116" r="5.05072" stroke-width="0.5" stroke="black" fill="green"/>
   </g>
   <g id="cell31">
  <circle cx="418.464" cy="531.135" r="8.41125" stroke-width="0.5" stroke="black" fill="green"/>
  <circle cx="418.464" cy="531.135" r="5.05129" stroke-width="0.5" stroke="black" fill="green"/>
   </g>
   <g id="cell32">
  <circle cx="410.605" cy="489.011" r="7.8701" stroke-width="0.5" stroke="black" fill="green"/>
  <circle cx="410.605" cy="489.011" r="4.77808" stroke-width="0.5" stroke="black" fill="green"/>
   </g>
   <g id="cell33">
  <circle cx="494.6" cy="424.348" r="8.41271" stroke-width="0.5" stroke="black" fill="green"/>
  <circle cx="494.6" cy="424.348" r="5.05167" stroke-width="0.5" stroke="black" fill="green"/>
   </g>
   <g id="cell34">
  <circle cx="386.153" cy="448.8" r="8.38559" stroke-width="0.5" stroke="black" fill="green"/>
  <circle cx="386.153" cy="448.8" r="5.04231" stroke-width="0.5" stroke="black" fill="green"/>
   </g>
   <g id="cell35">
  <circle cx="546.445" cy="559.489" r="8.31766" stroke-width="0.5" stroke="black" fill="green"/>
  <circle cx="546.445" cy="559.489" r="5.0126" stroke-width="0.5" stroke="black" fill="green"/>
   </g>
   <g id="cell36">
  <circle cx="383.114" cy="587.952" r="8.41271" stroke-width="0.5" stroke="black" fill="green"/>
  <circle cx="383.114" cy="587.952" r="5.05167" stroke-width="0.5" stroke="black" fill="green"/>
   </g>
   <g id="cell37">
  <circle cx="634.211" cy="460.816" r="8.41271" stroke-width="0.5" stroke="black" fill="green"/>
  <circle cx="634.211" cy="460.816" r="5.05167" stroke-width="0.5" stroke="black" fill="green"/>
   </g>
   <g id="cell38">
  <circle cx="544.152" cy="614.301" r="8.40712" stroke-width="0.5" stroke="black" fill="green"/>
  <circle cx="544.152" cy="614.301" r="5.05002" stroke-width="0.5" stroke="black" fill="green"/>
   </g>
   <g id="cell39">
  <circle cx="619.742" cy="481.507" r="8.41271" stroke-width="0.5" stroke="black" fill="green"/>
  <circle cx="619.742" cy="481.507" r="5.05167" stroke-width="0.5" stroke="black" fill="green"/>
   </g>
   <g id="cell40">
  <circle cx="481.83" cy="565.787" r="8.41256" stroke-width="0.5" stroke="black" fill="green"/>
  <circle cx="481.83" cy="565.787" r="5.05164" stroke-width="0.5" stroke="black" fill="green"/>
   </g>
   <g id="cell41">
  <circle cx="365.092" cy="480.246" r="8.41271" stroke-width="0.5" stroke="black" fill="green"/>
  <circle cx="365.092" cy="480.246" r="5.05167" stroke-width="0.5" stroke="black" fill="green"/>
   </g>
   <g id="cell42">
  <circle cx="443.618" cy="495.152" r="8.41271" stroke-width="0.5" stroke="black" fill="green"/>
  <circle cx="443.618" cy="495.152" r="5.05167" stroke-width="0.5" stroke="black" fill="green"/>
   </g>
   <g id="cell43">
  <circle cx="561.726" cy="439.925" r="8.41271" stroke-width="0.5" stroke="black" fill="green"/>
  <circle cx="561.726" cy="439.925" r="5.05167" stroke-width="0.5" stroke="black" fill="green"/>
   </g>
   <g id="cell44">
  <circle cx="471.165" cy="620.251" r="8.38753" stroke-width="0.5" stroke="black" fill="green"/>
  <circle cx="471.165" cy="620.251" r="5.04286" stroke-width="0.5" stroke="black" fill="green"/>
   </g>
   <g id="cell45">
  <circle cx="440.23" cy="580.085" r="8.04079" stroke-width="0.5" stroke="black" fill="green"/>
  <circle cx="440.23" cy="580.085" r="4.88021" stroke-width="0.5" stroke="black" fill="green"/>
   </g>
   <g id="cell46">
  <circle cx="519.104" cy="625.948" r="8.3088" stroke-width="0.5" stroke="black" fill="green"/>
  <circle cx="519.104" cy="625.948" r="5.01059" stroke-width="0.5" stroke="black" fill="green"/>
   </g>
   <g id="cell47">
  <circle cx="488.147" cy="504.878" r="8.40967" stroke-width="0.5" stroke="black" fill="green"/>
  <circle cx="488.147" cy="504.878" r="5.05083" stroke-width="0.5" stroke="black" fill="green"/>
   </g>
   <g id="cell48">
  <circle cx="562.686" cy="602.636" r="8.41271" stroke-width="0.5" stroke="black" fill="green"/>
  <circle cx="562.686" cy="602.636" r="5.05167" stroke-width="0.5" stroke="black" fill="green"/>
   </g>
   <g id="cell49">
  <circle cx="431.5" cy="386.547" r="8.33481" stroke-width="0.5" stroke="black" fill="green"/>
  <circle cx="431.5" cy="386.547" r="5.02043" stroke-width="0.5" stroke="black" fill="green"/>
   </g>
   <g id="cell201">
  <circle cx="424.336" cy="488.473" r="6.77888" stroke-width="0.5" stroke="black" fill="green"/>
  <circle cx="424.336" cy="488.473" r="4.15189" stroke-width="0.5" stroke="black" fill="green"/>
   </g>
   <g id="cell51">
  <circle cx="425.548" cy="602.264" r="8.41149" stroke-width="0.5" stroke="black" fill="cyan"/>
  <circle cx="425.548" cy="602.264" r="5.05137" stroke-width="0.5" stroke="black" fill="cyan"/>
   </g>
   <g id="cell52">
  <circle cx="508.851" cy="419.228" r="6.44424" stroke-width="0.5" stroke="black" fill="cyan"/>
  <circle cx="508.851" cy="419.228" r="3.9332" stroke-width="0.5" stroke="black" fill="cyan"/>
   </g>
   <g id="cell53">
  <circle cx="576.615" cy="434.467" r="8.37717" stroke-width="0.5" stroke="black" fill="cyan"/>
  <circle cx="576.615" cy="434.467" r="5.03875" stroke-width="0.5" stroke="black" fill="cyan"/>
   </g>
   <g id="cell54">
  <circle cx="478.657" cy="424.449" r="8.41271" stroke-width="0.5" stroke="black" fill="cyan"/>
  <circle cx="478.657" cy="424.449" r="5.05167" stroke-width="0.5" stroke="black" fill="cyan"/>
   </g>
   <g id="cell55">
  <circle cx="520.326" cy="461.681" r="8.20061" stroke-width="0.5" stroke="black" fill="cyan"/>
  <circle cx="520.326" cy="461.681" r="4.95555" stroke-width="0.5" stroke="black" fill="cyan"/>
   </g>
   <g id="cell56">
  <circle cx="632.785" cy="525.837" r="8.41234" stroke-width="0.5" stroke="black" fill="cyan"/>
  <circle cx="632.785" cy="525.837" r="5.05159" stroke-width="0.5" stroke="black" fill="cyan"/>
   </g>
   <g id="cell57">
  <circle cx="420.155" cy="617.199" r="8.31209" stroke-width="0.5" stroke="black" fill="cyan"/>
  <circle cx="420.155" cy="617.199" r="5.01002" stroke-width="0.5" stroke="black" fill="cyan"/>
   </g>
   <g id="cell207">
  <circle cx="431.343" cy="452.01" r="7.79438" stroke-width="0.5" stroke="black" fill="cyan"/>
  <circle cx="431.343" cy="452.01" r="4.73324" stroke-width="0.5" stroke="black" fill="cyan"/>
   </g>
   <g id="cell195">
  <circle cx="411.807" cy="545.318" r="7.89341" stroke-width="0.5" stroke="black" fill="green"/>
  <circle cx="411.807" cy="545.318" r="4.80441" stroke-width="0.5" stroke="black" fill="green"/>
   </g>
   <g id="cell60">
  <circle cx="617.414" cy="465.695" r="8.41259" stroke-width="0.5" stroke="black" fill="cyan"/>
  <circle cx="617.414" cy="465.695" r="5.05165" stroke-width="0.5" stroke="black" fill="cyan"/>
   </g>
   <g id="cell121">
  <circle cx="454.4" cy="462.877" r="8.41073" stroke-width="0.5" stroke="black" fill="cyan"/>
  <circle cx="454.4" cy="462.877" r="5.05116" stroke-width="0.5" stroke="black" fill="cyan"/>
   </g>
   <g id="cell62">
  <circle cx="496.42" cy="451.396" r="2.97197" stroke-width="0.5" stroke="black" fill="cyan"/>
  <circle cx="496.42" cy="451.396" r="2.45361" stroke-width="0.5" stroke="black" fill="black"/>
   </g>
   <g id="cell63">
  <circle cx="578.814" cy="544.172" r="8.41271" stroke-width="0.5" stroke="black" fill="cyan"/>
  <circle cx="578.814" cy="544.172" r="5.05167" stroke-width="0.5" stroke="black" fill="cyan"/>
   </g>
   <g id="cell64">
  <circle cx="509.25" cy="638.49" r="8.41271" stroke-width="0.5" stroke="black" fill="cyan"/>
  <circle cx="509.25" cy="638.49" r="5.05167" stroke-width="0.5" stroke="black" fill="cyan"/>
   </g>
   <g id="cell65">
  <circle cx="543.476" cy="464.844" r="1.25143" stroke-width="0.5" stroke="black" fill="cyan"/>
  <circle cx="543.476" cy="464.844" r="1.24538" stroke-width="0.5" stroke="black" fill="black"/>
   </g>
   <g id="cell66">
  <circle cx="522.579" cy="522.176" r="8.35039" stroke-width="0.5" stroke="black" fill="cyan"/>
  <circle cx="522.579" cy="522.176" r="5.02765" stroke-width="0.5" stroke="black" fill="cyan"/>
   </g>
   <g id="cell67">
  <circle cx="354.782" cy="492.513" r="8.41271" stroke-width="0.5" stroke="black" fill="cyan"/>
  <circle cx="354.782" cy="492.513" r="5.05167" stroke-width="0.5" stroke="black" fill="cyan"/>
   </g>
   <g id="cell68">
  <circle cx="572.854" cy="559.075" r="8.41271" stroke-width="0.5" stroke="black" fill="cyan"/>
  <circle cx="572.854" cy="559.075" r="5.05167" stroke-width="0.5" stroke="black" fill="cyan"/>
   </g>
   <g id="cell69">
  <circle cx="446.254" cy="449.161" r="8.41073" stroke-width="0.5" stroke="black" fill="cyan"/>
  <circle cx="446.254" cy="449.161" r="5.05116" stroke-width="0.5" stroke="black" fill="cyan"/>
   </g>
   <g id="cell70">
  <circle cx="588.789" cy="474.881" r="8.36958" stroke-width="0.5" stroke="black" fill="cyan"/>
  <circle cx="588.789" cy="474.881" r="5.0356" stroke-width="0.5" stroke="black" fill="cyan"/>
   </g>
   <g id="cell71">
  <circle cx="371.928" cy="509.952" r="8.41271" stroke-width="0.5" stroke="black" fill="cyan"/>
  <circle cx="371.928" cy="509.952" r="5.05167" stroke-width="0.5" stroke="black" fill="cyan"/>
   </g>
   <g id="cell72">
  <circle cx="538.478" cy="518.237" r="8.41271" stroke-width="0.5" stroke="black" fill="cyan"/>
  <circle cx="538.478" cy="518.237" r="5.05167" stroke-width="0.5" stroke="black" fill="cyan"/>
   </g>
   <g id="cell73">
  <circle cx="350.973" cy="547.889" r="8.4112" stroke-width="0.5" stroke="black" fill="cyan"/>
  <circle cx="350.973" cy="547.889" r="5.05129" stroke-width="0.5" stroke="black" fill="cyan"/>
   </g>
   <g id="cell74">
  <circle cx="546.492" cy="446.511" r="8.41271" stroke-width="0.5" stroke="black" fill="cyan"/>
  <circle cx="546.492" cy="446.511" r="5.05167" stroke-width="0.5" stroke="black" fill="cyan"/>
   </g>
   <g id="cell75">
  <circle cx="599.267" cy="496.647" r="7.19684" stroke-width="0.5" stroke="black" fill="magenta"/>
  <circle cx="599.267" cy="496.647" r="4.38071" stroke-width="0.5" stroke="black" fill="magenta"/>
   </g>
   <g id="cell76">
  <circle cx="643.743" cy="536.649" r="7.92355" stroke-width="0.5" stroke="black" fill="green"/>
  <circle cx="643.743" cy="536.649" r="4.81102" stroke-width="0.5" stroke="black" fill="green"/>
   </g>
   <g id="cell77">
  <circle cx="499.37" cy="516.337" r="8.41151" stroke-width="0.5" stroke="black" fill="green"/>
  <circle cx="499.37" cy="516.337" r="5.05137" stroke-width="0.5" stroke="black" fill="green"/>
   </g>
   <g id="cell78">
  <circle cx="356.594" cy="569.967" r="8.41246" stroke-width="0.5" stroke="black" fill="magenta"/>
  <circle cx="356.594" cy="569.967" r="5.05162" stroke-width="0.5" stroke="black" fill="magenta"/>
   </g>
   <g id="cell79">
  <circle cx="536.651" cy="572.052" r="8.40883" stroke-width="0.5" stroke="black" fill="green"/>
  <circle cx="536.651" cy="572.052" r="5.05058" stroke-width="0.5" stroke="black" fill="green"/>
   </g>
   <g id="cell80">
  <circle cx="458.025" cy="601.404" r="8.37738" stroke-width="0.5" stroke="black" fill="magenta"/>
  <circle cx="458.025" cy="601.404" r="5.0388" stroke-width="0.5" stroke="black" fill="magenta"/>
   </g>
   <g id="cell81">
  <circle cx="398.054" cy="616.477" r="8.41217" stroke-width="0.5" stroke="black" fill="cyan"/>
  <circle cx="398.054" cy="616.477" r="5.05154" stroke-width="0.5" stroke="black" fill="cyan"/>
   </g>
   <g id="cell82">
  <circle cx="601.418" cy="465.577" r="8.38183" stroke-width="0.5" stroke="black" fill="cyan"/>
  <circle cx="601.418" cy="465.577" r="5.04064" stroke-width="0.5" stroke="black" fill="cyan"/>
   </g>
   <g id="cell83">
  <circle cx="547.203" cy="598.576" r="8.41256" stroke-width="0.5" stroke="black" fill="green"/>
  <circle cx="547.203" cy="598.576" r="5.05164" stroke-width="0.5" stroke="black" fill="green"/>
   </g>
   <g id="cell84">
  <circle cx="488.663" cy="580.268" r="8.41256" stroke-width="0.5" stroke="black" fill="green"/>
  <circle cx="488.663" cy="580.268" r="5.05164" stroke-width="0.5" stroke="black" fill="green"/>
   </g>
   <g id="cell85">
  <circle cx="626.99" cy="495.542" r="8.22133" stroke-width="0.5" stroke="black" fill="magenta"/>
  <circle cx="626.99" cy="495.542" r="4.9703" stroke-width="0.5" stroke="black" fill="magenta"/>
   </g>
   <g id="cell86">
  <circle cx="522.385" cy="598.229" r="8.32776" stroke-width="0.5" stroke="black" fill="green"/>
  <circle cx="522.385" cy="598.229" r="5.01726" stroke-width="0.5" stroke="black" fill="green"/>
   </g>
   <g id="cell87">
  <circle cx="588.493" cy="611.901" r="8.39563" stroke-width="0.5" stroke="black" fill="magenta"/>
  <circle cx="588.493" cy="611.901" r="5.04597" stroke-width="0.5" stroke="black" fill="magenta"/>
   </g>
   <g id="cell88">
  <circle cx="364.485" cy="555.902" r="8.41108" stroke-width="0.5" stroke="black" fill="magenta"/>
  <circle cx="364.485" cy="555.902" r="5.05126" stroke-width="0.5" stroke="black" fill="magenta"/>
   </g>
   <g id="cell89">
  <circle cx="539.095" cy="405.173" r="8.4123" stroke-width="0.5" stroke="black" fill="green"/>
  <circle cx="539.095" cy="405.173" r="5.05158" stroke-width="0.5" stroke="black" fill="green"/>
   </g>
   <g id="cell90">
  <circle cx="563.984" cy="481.658" r="8.19361" stroke-width="0.5" stroke="black" fill="cyan"/>
  <circle cx="563.984" cy="481.658" r="4.95217" stroke-width="0.5" stroke="black" fill="cyan"/>
   </g>
   <g id="cell91">
  <circle cx="541.656" cy="389.381" r="8.4123" stroke-width="0.5" stroke="black" fill="green"/>
  <circle cx="541.656" cy="389.381" r="5.05158" stroke-width="0.5" stroke="black" fill="green"/>
   </g>
   <g id="cell92">
  <circle cx="637.957" cy="569.089" r="7.31086" stroke-width="0.5" stroke="black" fill="green"/>
  <circle cx="637.957" cy="569.089" r="4.47467" stroke-width="0.5" stroke="black" fill="green"/>
   </g>
   <g id="cell93">
  <circle cx="359.52" cy="534.249" r="8.41237" stroke-width="0.5" stroke="black" fill="cyan"/>
  <circle cx="359.52" cy="534.249" r="5.05159" stroke-width="0.5" stroke="black" fill="cyan"/>
   </g>
   <g id="cell94">
  <circle cx="614.635" cy="532.535" r="8.16787" stroke-width="0.5" stroke="black" fill="cyan"/>
  <circle cx="614.635" cy="532.535" r="4.93872" stroke-width="0.5" stroke="black" fill="cyan"/>
   </g>
   <g id="cell95">
  <circle cx="574.69" cy="582.336" r="8.41224" stroke-width="0.5" stroke="black" fill="magenta"/>
  <circle cx="574.69" cy="582.336" r="5.05156" stroke-width="0.5" stroke="black" fill="magenta"/>
   </g>
   <g id="cell96">
  <circle cx="603.423" cy="481.756" r="8.41226" stroke-width="0.5" stroke="black" fill="cyan"/>
  <circle cx="603.423" cy="481.756" r="5.05157" stroke-width="0.5" stroke="black" fill="cyan"/>
   </g>
   <g id="cell97">
  <circle cx="623.202" cy="545.551" r="8.41211" stroke-width="0.5" stroke="black" fill="green"/>
  <circle cx="623.202" cy="545.551" r="5.05153" stroke-width="0.5" stroke="black" fill="green"/>
   </g>
   <g id="cell98">
  <circle cx="600.068" cy="526.763" r="8.41226" stroke-width="0.5" stroke="black" fill="magenta"/>
  <circle cx="600.068" cy="526.763" r="5.05157" stroke-width="0.5" stroke="black" fill="magenta"/>
   </g>
   <g id="cell99">
  <circle cx="579.094" cy="418.831" r="8.41221" stroke-width="0.5" stroke="black" fill="cyan"/>
  <circle cx="579.094" cy="418.831" r="5.05155" stroke-width="0.5" stroke="black" fill="cyan"/>
   </g>
   <g id="cell100">
  <circle cx="375.368" cy="601.358" r="7.77658" stroke-width="0.5" stroke="black" fill="cyan"/>
  <circle cx="375.368" cy="601.358" r="4.72291" stroke-width="0.5" stroke="black" fill="cyan"/>
   </g>
   <g id="cell101">
  <circle cx="534.587" cy="436.473" r="8.20497" stroke-width="0.5" stroke="black" fill="cyan"/>
  <circle cx="534.587" cy="436.473" r="4.95911" stroke-width="0.5" stroke="black" fill="cyan"/>
   </g>
   <g id="cell102">
  <circle cx="496.268" cy="476.247" r="8.408" stroke-width="0.5" stroke="black" fill="cyan"/>
  <circle cx="496.268" cy="476.247" r="5.05033" stroke-width="0.5" stroke="black" fill="cyan"/>
   </g>
   <g id="cell103">
  <circle cx="467.382" cy="533.744" r="8.408" stroke-width="0.5" stroke="black" fill="magenta"/>
  <circle cx="467.382" cy="533.744" r="5.05037" stroke-width="0.5" stroke="black" fill="magenta"/>
   </g>
   <g id="cell209">
  <circle cx="639.382" cy="582.764" r="7.31086" stroke-width="0.5" stroke="black" fill="green"/>
  <circle cx="639.382" cy="582.764" r="4.47467" stroke-width="0.5" stroke="black" fill="green"/>
   </g>
   <g id="cell105">
  <circle cx="504.164" cy="461.997" r="8.41206" stroke-width="0.5" stroke="black" fill="magenta"/>
  <circle cx="504.164" cy="461.997" r="5.05151" stroke-width="0.5" stroke="black" fill="magenta"/>
   </g>
   <g id="cell106">
  <circle cx="432.647" cy="401.405" r="7.24192" stroke-width="0.5" stroke="black" fill="magenta"/>
  <circle cx="432.647" cy="401.405" r="4.3992" stroke-width="0.5" stroke="black" fill="magenta"/>
   </g>
   <g id="cell107">
  <circle cx="416.961" cy="450.449" r="7.79438" stroke-width="0.5" stroke="black" fill="cyan"/>
  <circle cx="416.961" cy="450.449" r="4.73324" stroke-width="0.5" stroke="black" fill="cyan"/>
   </g>
   <g id="cell108">
  <circle cx="524.415" cy="379.485" r="8.41172" stroke-width="0.5" stroke="black" fill="magenta"/>
  <circle cx="524.415" cy="379.485" r="5.05142" stroke-width="0.5" stroke="black" fill="magenta"/>
   </g>
   <g id="cell110">
  <circle cx="521.155" cy="395.065" r="8.34232" stroke-width="0.5" stroke="black" fill="magenta"/>
  <circle cx="521.155" cy="395.065" r="5.02395" stroke-width="0.5" stroke="black" fill="magenta"/>
   </g>
   <g id="cell111">
  <circle cx="513.636" cy="491.127" r="8.16618" stroke-width="0.5" stroke="black" fill="green"/>
  <circle cx="513.636" cy="491.127" r="4.93825" stroke-width="0.5" stroke="black" fill="green"/>
   </g>
   <g id="cell112">
  <circle cx="398.691" cy="590.417" r="8.37966" stroke-width="0.5" stroke="black" fill="cyan"/>
  <circle cx="398.691" cy="590.417" r="5.03982" stroke-width="0.5" stroke="black" fill="cyan"/>
   </g>
   <g id="cell113">
  <circle cx="335.192" cy="546.183" r="8.4112" stroke-width="0.5" stroke="black" fill="cyan"/>
  <circle cx="335.192" cy="546.183" r="5.05129" stroke-width="0.5" stroke="black" fill="cyan"/>
   </g>
   <g id="cell114">
  <circle cx="381.738" cy="615.723" r="8.41043" stroke-width="0.5" stroke="black" fill="cyan"/>
  <circle cx="381.738" cy="615.723" r="5.05109" stroke-width="0.5" stroke="black" fill="cyan"/>
   </g>
   <g id="cell115">
  <circle cx="390.303" cy="602.815" r="8.41043" stroke-width="0.5" stroke="black" fill="cyan"/>
  <circle cx="390.303" cy="602.815" r="5.05109" stroke-width="0.5" stroke="black" fill="cyan"/>
   </g>
   <g id="cell116">
  <circle cx="402.725" cy="530.712" r="8.28187" stroke-width="0.5" stroke="black" fill="green"/>
  <circle cx="402.725" cy="530.712" r="4.99591" stroke-width="0.5" stroke="black" fill="green"/>
   </g>
   <g id="cell117">
  <circle cx="372.378" cy="569.829" r="8.41002" stroke-width="0.5" stroke="black" fill="magenta"/>
  <circle cx="372.378" cy="569.829" r="5.05097" stroke-width="0.5" stroke="black" fill="magenta"/>
   </g>
   <g id="cell118">
  <circle cx="398.593" cy="437.609" r="1.69761" stroke-width="0.5" stroke="black" fill="cyan"/>
  <circle cx="398.593" cy="437.609" r="1.65565" stroke-width="0.5" stroke="black" fill="black"/>
   </g>
   <g id="cell119">
  <circle cx="569.704" cy="521.19" r="8.41094" stroke-width="0.5" stroke="black" fill="magenta"/>
  <circle cx="569.704" cy="521.19" r="5.05122" stroke-width="0.5" stroke="black" fill="magenta"/>
   </g>
   <g id="cell120">
  <circle cx="498.022" cy="492.267" r="8.38783" stroke-width="0.5" stroke="black" fill="green"/>
  <circle cx="498.022" cy="492.267" r="5.04312" stroke-width="0.5" stroke="black" fill="green"/>
   </g>
   <g id="cell122">
  <circle cx="451.957" cy="481.67" r="8.32536" stroke-width="0.5" stroke="black" fill="cyan"/>
  <circle cx="451.957" cy="481.67" r="5.01729" stroke-width="0.5" stroke="black" fill="cyan"/>
   </g>
   <g id="cell123">
  <circle cx="379.916" cy="555.922" r="8.31071" stroke-width="0.5" stroke="black" fill="magenta"/>
  <circle cx="379.916" cy="555.922" r="5.00966" stroke-width="0.5" stroke="black" fill="magenta"/>
   </g>
   <g id="cell125">
  <circle cx="527.383" cy="475.739" r="8.41043" stroke-width="0.5" stroke="black" fill="magenta"/>
  <circle cx="527.383" cy="475.739" r="5.05106" stroke-width="0.5" stroke="black" fill="magenta"/>
   </g>
   <g id="cell127">
  <circle cx="445.494" cy="533.455" r="6.70919" stroke-width="0.5" stroke="black" fill="magenta"/>
  <circle cx="445.494" cy="533.455" r="4.0337" stroke-width="0.5" stroke="black" fill="magenta"/>
   </g>
   <g id="cell128">
  <circle cx="551.647" cy="415.069" r="8.35721" stroke-width="0.5" stroke="black" fill="cyan"/>
  <circle cx="551.647" cy="415.069" r="5.03056" stroke-width="0.5" stroke="black" fill="cyan"/>
   </g>
   <g id="cell129">
  <circle cx="484.118" cy="520.458" r="8.40967" stroke-width="0.5" stroke="black" fill="green"/>
  <circle cx="484.118" cy="520.458" r="5.05083" stroke-width="0.5" stroke="black" fill="green"/>
   </g>
   <g id="cell208">
  <circle cx="367.8" cy="588.711" r="7.77658" stroke-width="0.5" stroke="black" fill="cyan"/>
  <circle cx="367.8" cy="588.711" r="4.72291" stroke-width="0.5" stroke="black" fill="cyan"/>
   </g>
   <g id="cell131">
  <circle cx="535.135" cy="588.096" r="8.40883" stroke-width="0.5" stroke="black" fill="green"/>
  <circle cx="535.135" cy="588.096" r="5.05058" stroke-width="0.5" stroke="black" fill="green"/>
   </g>
   <g id="cell132">
  <circle cx="401.912" cy="449.519" r="8.39377" stroke-width="0.5" stroke="black" fill="green"/>
  <circle cx="401.912" cy="449.519" r="5.04544" stroke-width="0.5" stroke="black" fill="green"/>
   </g>
   <g id="cell133">
  <circle cx="552.393" cy="526.369" r="8.23394" stroke-width="0.5" stroke="black" fill="cyan"/>
  <circle cx="552.393" cy="526.369" r="4.97487" stroke-width="0.5" stroke="black" fill="cyan"/>
   </g>
   <g id="cell134">
  <circle cx="511.992" cy="475.566" r="8.408" stroke-width="0.5" stroke="black" fill="cyan"/>
  <circle cx="511.992" cy="475.566" r="5.05033" stroke-width="0.5" stroke="black" fill="cyan"/>
   </g>
   <g id="cell135">
  <circle cx="410.047" cy="561.609" r="7.85563" stroke-width="0.5" stroke="black" fill="green"/>
  <circle cx="410.047" cy="561.609" r="4.76972" stroke-width="0.5" stroke="black" fill="green"/>
   </g>
   <g id="cell136">
  <circle cx="457.228" cy="506.588" r="8.39423" stroke-width="0.5" stroke="black" fill="green"/>
  <circle cx="457.228" cy="506.588" r="5.04577" stroke-width="0.5" stroke="black" fill="green"/>
   </g>
   <g id="cell137">
  <circle cx="534.967" cy="627.464" r="8.40712" stroke-width="0.5" stroke="black" fill="green"/>
  <circle cx="534.967" cy="627.464" r="5.05002" stroke-width="0.5" stroke="black" fill="green"/>
   </g>
   <g id="cell138">
  <circle cx="432.825" cy="416.622" r="8.40629" stroke-width="0.5" stroke="black" fill="magenta"/>
  <circle cx="432.825" cy="416.622" r="5.04978" stroke-width="0.5" stroke="black" fill="magenta"/>
   </g>
   <g id="cell139">
  <circle cx="571.364" cy="466.13" r="8.40529" stroke-width="0.5" stroke="black" fill="cyan"/>
  <circle cx="571.364" cy="466.13" r="5.04949" stroke-width="0.5" stroke="black" fill="cyan"/>
   </g>
   <g id="cell140">
  <circle cx="453.598" cy="522.087" r="8.40294" stroke-width="0.5" stroke="black" fill="green"/>
  <circle cx="453.598" cy="522.087" r="5.04873" stroke-width="0.5" stroke="black" fill="green"/>
   </g>
   <g id="cell141">
  <circle cx="426.369" cy="544.901" r="8.40008" stroke-width="0.5" stroke="black" fill="green"/>
  <circle cx="426.369" cy="544.901" r="5.04775" stroke-width="0.5" stroke="black" fill="green"/>
   </g>
   <g id="cell142">
  <circle cx="599.699" cy="511.071" r="8.40114" stroke-width="0.5" stroke="black" fill="magenta"/>
  <circle cx="599.699" cy="511.071" r="5.04798" stroke-width="0.5" stroke="black" fill="magenta"/>
   </g>
   <g id="cell143">
  <circle cx="519.077" cy="434.035" r="8.39791" stroke-width="0.5" stroke="black" fill="cyan"/>
  <circle cx="519.077" cy="434.035" r="5.04695" stroke-width="0.5" stroke="black" fill="cyan"/>
   </g>
   <g id="cell144">
  <circle cx="511.993" cy="448.22" r="8.39888" stroke-width="0.5" stroke="black" fill="cyan"/>
  <circle cx="511.993" cy="448.22" r="5.04719" stroke-width="0.5" stroke="black" fill="cyan"/>
   </g>
   <g id="cell145">
  <circle cx="468.612" cy="517.798" r="8.38495" stroke-width="0.5" stroke="black" fill="green"/>
  <circle cx="468.612" cy="517.798" r="5.04247" stroke-width="0.5" stroke="black" fill="green"/>
   </g>
   <g id="cell146">
  <circle cx="423.573" cy="471.089" r="8.39794" stroke-width="0.5" stroke="black" fill="green"/>
  <circle cx="423.573" cy="471.089" r="5.04681" stroke-width="0.5" stroke="black" fill="green"/>
   </g>
   <g id="cell147">
  <circle cx="373.446" cy="541.72" r="8.39664" stroke-width="0.5" stroke="black" fill="magenta"/>
  <circle cx="373.446" cy="541.72" r="5.04633" stroke-width="0.5" stroke="black" fill="magenta"/>
   </g>
   <g id="cell148">
  <circle cx="584.617" cy="594.374" r="7.96697" stroke-width="0.5" stroke="black" fill="magenta"/>
  <circle cx="584.617" cy="594.374" r="4.83258" stroke-width="0.5" stroke="black" fill="magenta"/>
   </g>
   <g id="cell149">
  <circle cx="529.328" cy="491.546" r="8.39457" stroke-width="0.5" stroke="black" fill="magenta"/>
  <circle cx="529.328" cy="491.546" r="5.04568" stroke-width="0.5" stroke="black" fill="magenta"/>
   </g>
   <g id="cell150">
  <circle cx="409.476" cy="463.546" r="8.17177" stroke-width="0.5" stroke="black" fill="green"/>
  <circle cx="409.476" cy="463.546" r="4.9425" stroke-width="0.5" stroke="black" fill="green"/>
   </g>
   <g id="cell151">
  <circle cx="438.645" cy="465.334" r="8.39414" stroke-width="0.5" stroke="black" fill="cyan"/>
  <circle cx="438.645" cy="465.334" r="5.04553" stroke-width="0.5" stroke="black" fill="cyan"/>
   </g>
   <g id="cell152">
  <circle cx="472.44" cy="502.34" r="8.38495" stroke-width="0.5" stroke="black" fill="green"/>
  <circle cx="472.44" cy="502.34" r="5.04247" stroke-width="0.5" stroke="black" fill="green"/>
   </g>
   <g id="cell153">
  <circle cx="544.032" cy="487.608" r="7.81335" stroke-width="0.5" stroke="black" fill="magenta"/>
  <circle cx="544.032" cy="487.608" r="4.74753" stroke-width="0.5" stroke="black" fill="magenta"/>
   </g>
   <g id="cell154">
  <circle cx="482.371" cy="489.887" r="8.38783" stroke-width="0.5" stroke="black" fill="green"/>
  <circle cx="482.371" cy="489.887" r="5.04312" stroke-width="0.5" stroke="black" fill="green"/>
   </g>
   <g id="cell155">
  <circle cx="485.886" cy="626.35" r="8.38753" stroke-width="0.5" stroke="black" fill="green"/>
  <circle cx="485.886" cy="626.35" r="5.04286" stroke-width="0.5" stroke="black" fill="green"/>
   </g>
   <g id="cell156">
  <circle cx="534.256" cy="549.337" r="8.38753" stroke-width="0.5" stroke="black" fill="magenta"/>
  <circle cx="534.256" cy="549.337" r="5.04286" stroke-width="0.5" stroke="black" fill="magenta"/>
   </g>
   <g id="cell157">
  <circle cx="393.656" cy="463.084" r="8.38559" stroke-width="0.5" stroke="black" fill="green"/>
  <circle cx="393.656" cy="463.084" r="5.04231" stroke-width="0.5" stroke="black" fill="green"/>
   </g>
   <g id="cell158">
  <circle cx="604.405" cy="585.745" r="8.3843" stroke-width="0.5" stroke="black" fill="magenta"/>
  <circle cx="604.405" cy="585.745" r="5.04162" stroke-width="0.5" stroke="black" fill="magenta"/>
   </g>
   <g id="cell159">
  <circle cx="589.136" cy="444.259" r="8.38183" stroke-width="0.5" stroke="black" fill="cyan"/>
  <circle cx="589.136" cy="444.259" r="5.04064" stroke-width="0.5" stroke="black" fill="cyan"/>
   </g>
   <g id="cell160">
  <circle cx="415.033" cy="590.481" r="8.37966" stroke-width="0.5" stroke="black" fill="cyan"/>
  <circle cx="415.033" cy="590.481" r="5.03982" stroke-width="0.5" stroke="black" fill="cyan"/>
   </g>
   <g id="cell161">
  <circle cx="447.708" cy="613.573" r="8.37738" stroke-width="0.5" stroke="black" fill="magenta"/>
  <circle cx="447.708" cy="613.573" r="5.0388" stroke-width="0.5" stroke="black" fill="magenta"/>
   </g>
   <g id="cell162">
  <circle cx="574.247" cy="450.046" r="8.37717" stroke-width="0.5" stroke="black" fill="cyan"/>
  <circle cx="574.247" cy="450.046" r="5.03875" stroke-width="0.5" stroke="black" fill="cyan"/>
   </g>
   <g id="cell163">
  <circle cx="564.908" cy="536.087" r="8.37446" stroke-width="0.5" stroke="black" fill="cyan"/>
  <circle cx="564.908" cy="536.087" r="5.03785" stroke-width="0.5" stroke="black" fill="cyan"/>
   </g>
   <g id="cell164">
  <circle cx="575.135" cy="491.558" r="8.37537" stroke-width="0.5" stroke="black" fill="magenta"/>
  <circle cx="575.135" cy="491.558" r="5.03798" stroke-width="0.5" stroke="black" fill="magenta"/>
   </g>
   <g id="cell165">
  <circle cx="586.376" cy="459.76" r="8.36958" stroke-width="0.5" stroke="black" fill="cyan"/>
  <circle cx="586.376" cy="459.76" r="5.0356" stroke-width="0.5" stroke="black" fill="cyan"/>
   </g>
   <g id="cell166">
  <circle cx="653.333" cy="548.647" r="8.36455" stroke-width="0.5" stroke="black" fill="green"/>
  <circle cx="653.333" cy="548.647" r="5.03346" stroke-width="0.5" stroke="black" fill="green"/>
   </g>
   <g id="cell167">
  <circle cx="541.927" cy="502.513" r="8.34702" stroke-width="0.5" stroke="black" fill="magenta"/>
  <circle cx="541.927" cy="502.513" r="5.02728" stroke-width="0.5" stroke="black" fill="magenta"/>
   </g>
   <g id="cell168">
  <circle cx="564.166" cy="424.483" r="8.35721" stroke-width="0.5" stroke="black" fill="cyan"/>
  <circle cx="564.166" cy="424.483" r="5.03056" stroke-width="0.5" stroke="black" fill="cyan"/>
   </g>
   <g id="cell169">
  <circle cx="533.54" cy="533.46" r="8.35039" stroke-width="0.5" stroke="black" fill="cyan"/>
  <circle cx="533.54" cy="533.46" r="5.02765" stroke-width="0.5" stroke="black" fill="cyan"/>
   </g>
   <g id="cell170">
  <circle cx="528.339" cy="612.994" r="8.34884" stroke-width="0.5" stroke="black" fill="green"/>
  <circle cx="528.339" cy="612.994" r="5.02667" stroke-width="0.5" stroke="black" fill="green"/>
   </g>
   <g id="cell172">
  <circle cx="505.8" cy="398.725" r="8.34232" stroke-width="0.5" stroke="black" fill="magenta"/>
  <circle cx="505.8" cy="398.725" r="5.02395" stroke-width="0.5" stroke="black" fill="magenta"/>
   </g>
   <g id="cell173">
  <circle cx="512.755" cy="611.419" r="8.3088" stroke-width="0.5" stroke="black" fill="green"/>
  <circle cx="512.755" cy="611.419" r="5.01059" stroke-width="0.5" stroke="black" fill="green"/>
   </g>
   <g id="cell174">
  <circle cx="418.863" cy="396.188" r="8.33481" stroke-width="0.5" stroke="black" fill="green"/>
  <circle cx="418.863" cy="396.188" r="5.02043" stroke-width="0.5" stroke="black" fill="green"/>
   </g>
   <g id="cell175">
  <circle cx="436.267" cy="480.921" r="8.32536" stroke-width="0.5" stroke="black" fill="cyan"/>
  <circle cx="436.267" cy="480.921" r="5.01729" stroke-width="0.5" stroke="black" fill="cyan"/>
   </g>
   <g id="cell176">
  <circle cx="632.952" cy="510.013" r="8.32436" stroke-width="0.5" stroke="black" fill="magenta"/>
  <circle cx="632.952" cy="510.013" r="5.01648" stroke-width="0.5" stroke="black" fill="magenta"/>
   </g>
   <g id="cell177">
  <circle cx="520.413" cy="582.389" r="8.32776" stroke-width="0.5" stroke="black" fill="green"/>
  <circle cx="520.413" cy="582.389" r="5.01726" stroke-width="0.5" stroke="black" fill="green"/>
   </g>
   <g id="cell178">
  <circle cx="559.471" cy="550.746" r="8.31766" stroke-width="0.5" stroke="black" fill="green"/>
  <circle cx="559.471" cy="550.746" r="5.0126" stroke-width="0.5" stroke="black" fill="green"/>
   </g>
   <g id="cell179">
  <circle cx="408.738" cy="628.133" r="8.31209" stroke-width="0.5" stroke="black" fill="cyan"/>
  <circle cx="408.738" cy="628.133" r="5.01002" stroke-width="0.5" stroke="black" fill="cyan"/>
   </g>
   <g id="cell180">
  <circle cx="394.677" cy="559.117" r="8.31071" stroke-width="0.5" stroke="black" fill="magenta"/>
  <circle cx="394.677" cy="559.117" r="5.00966" stroke-width="0.5" stroke="black" fill="magenta"/>
   </g>
   <g id="cell181">
  <circle cx="387.347" cy="534.198" r="8.17178" stroke-width="0.5" stroke="black" fill="green"/>
  <circle cx="387.347" cy="534.198" r="4.94611" stroke-width="0.5" stroke="black" fill="green"/>
   </g>
   <g id="cell182">
  <circle cx="461.012" cy="560.396" r="8.27068" stroke-width="0.5" stroke="black" fill="magenta"/>
  <circle cx="461.012" cy="560.396" r="4.99041" stroke-width="0.5" stroke="black" fill="magenta"/>
   </g>
   <g id="cell183">
  <circle cx="612.642" cy="501.337" r="8.22133" stroke-width="0.5" stroke="black" fill="magenta"/>
  <circle cx="612.642" cy="501.337" r="4.9703" stroke-width="0.5" stroke="black" fill="magenta"/>
   </g>
   <g id="cell184">
  <circle cx="547.421" cy="540.894" r="8.23394" stroke-width="0.5" stroke="black" fill="cyan"/>
  <circle cx="547.421" cy="540.894" r="4.97487" stroke-width="0.5" stroke="black" fill="cyan"/>
   </g>
   <g id="cell187">
  <circle cx="435.867" cy="555.873" r="7.87138" stroke-width="0.5" stroke="black" fill="green"/>
  <circle cx="435.867" cy="555.873" r="4.78934" stroke-width="0.5" stroke="black" fill="green"/>
   </g>
   <g id="cell188">
  <circle cx="536.282" cy="459.266" r="8.20061" stroke-width="0.5" stroke="black" fill="cyan"/>
  <circle cx="536.282" cy="459.266" r="4.95555" stroke-width="0.5" stroke="black" fill="cyan"/>
   </g>
   <g id="cell189">
  <circle cx="555.837" cy="469.445" r="8.19361" stroke-width="0.5" stroke="black" fill="cyan"/>
  <circle cx="555.837" cy="469.445" r="4.95217" stroke-width="0.5" stroke="black" fill="cyan"/>
   </g>
   <g id="cell190">
  <circle cx="401.535" cy="476.816" r="8.17177" stroke-width="0.5" stroke="black" fill="green"/>
  <circle cx="401.535" cy="476.816" r="4.9425" stroke-width="0.5" stroke="black" fill="green"/>
   </g>
   <g id="cell191">
  <circle cx="619.273" cy="517.72" r="8.16787" stroke-width="0.5" stroke="black" fill="cyan"/>
  <circle cx="619.273" cy="517.72" r="4.93872" stroke-width="0.5" stroke="black" fill="cyan"/>
   </g>
   <g id="cell192">
  <circle cx="511.313" cy="506.353" r="8.16618" stroke-width="0.5" stroke="black" fill="green"/>
  <circle cx="511.313" cy="506.353" r="4.93825" stroke-width="0.5" stroke="black" fill="green"/>
   </g>
   <g id="cell194">
  <circle cx="470.853" cy="437.909" r="8.02418" stroke-width="0.5" stroke="black" fill="magenta"/>
  <circle cx="470.853" cy="437.909" r="4.86209" stroke-width="0.5" stroke="black" fill="magenta"/>
   </g>
   <g id="cell196">
  <circle cx="430.655" cy="569.001" r="7.87138" stroke-width="0.5" stroke="black" fill="green"/>
  <circle cx="430.655" cy="569.001" r="4.78934" stroke-width="0.5" stroke="black" fill="green"/>
   </g>
   <g id="cell197">
  <circle cx="598.602" cy="600.132" r="7.96697" stroke-width="0.5" stroke="black" fill="magenta"/>
  <circle cx="598.602" cy="600.132" r="4.83258" stroke-width="0.5" stroke="black" fill="magenta"/>
   </g>
   <g id="cell198">
  <circle cx="472.909" cy="644.56" r="6.3928" stroke-width="0.5" stroke="black" fill="magenta"/>
  <circle cx="472.909" cy="644.56" r="3.8823" stroke-width="0.5" stroke="black" fill="magenta"/>
   </g>
   <g id="cell200">
  <circle cx="626.674" cy="560.437" r="7.87817" stroke-width="0.5" stroke="black" fill="green"/>
  <circle cx="626.674" cy="560.437" r="4.78087" stroke-width="0.5" stroke="black" fill="green"/>
   </g>
   <g id="cell202">
  <circle cx="417.791" cy="574.701" r="7.85563" stroke-width="0.5" stroke="black" fill="green"/>
  <circle cx="417.791" cy="574.701" r="4.76972" stroke-width="0.5" stroke="black" fill="green"/>
   </g>
   <g id="cell203">
  <circle cx="651.217" cy="563.815" r="7.86265" stroke-width="0.5" stroke="black" fill="green"/>
  <circle cx="651.217" cy="563.815" r="4.77202" stroke-width="0.5" stroke="black" fill="green"/>
   </g>
   <g id="cell204">
  <circle cx="522.197" cy="418.951" r="7.84675" stroke-width="0.5" stroke="black" fill="cyan"/>
  <circle cx="522.197" cy="418.951" r="4.7629" stroke-width="0.5" stroke="black" fill="cyan"/>
   </g>
   <g id="cell205">
  <circle cx="541.894" cy="473.286" r="7.81335" stroke-width="0.5" stroke="black" fill="magenta"/>
  <circle cx="541.894" cy="473.286" r="4.74753" stroke-width="0.5" stroke="black" fill="magenta"/>
   </g>
   <g id="cell206">
  <circle cx="400.174" cy="570.831" r="6.35316" stroke-width="0.5" stroke="black" fill="magenta"/>
  <circle cx="400.174" cy="570.831" r="3.87318" stroke-width="0.5" stroke="black" fill="magenta"/>
   </g>
   <g id="cell210">
  <circle cx="444.747" cy="407.738" r="7.24192" stroke-width="0.5" stroke="black" fill="magenta"/>
  <circle cx="444.747" cy="407.738" r="4.3992" stroke-width="0.5" stroke="black" fill="magenta"/>
   </g>
   <g id="cell211">
  <circle cx="588.958" cy="488.951" r="7.19684" stroke-width="0.5" stroke="black" fill="magenta"/>
  <circle cx="588.958" cy="488.951" r="4.38071" stroke-width="0.5" stroke="black" fill="magenta"/>
   </g>
   <g id="cell212">
  <circle cx="430.023" cy="499.985" r="6.77888" stroke-width="0.5" stroke="black" fill="green"/>
  <circle cx="430.023" cy="499.985" r="4.15189" stroke-width="0.5" stroke="black" fill="green"/>
   </g>
   <g id="cell213">
  <circle cx="499.787" cy="411.267" r="6.44424" stroke-width="0.5" stroke="black" fill="cyan"/>
  <circle cx="499.787" cy="411.267" r="3.9332" stroke-width="0.5" stroke="black" fill="cyan"/>
   </g>
   <g id="cell214">
  <circle cx="406.464" cy="580.075" r="6.35316" stroke-width="0.5" stroke="black" fill="magenta"/>
  <circle cx="406.464" cy="580.075" r="3.87318" stroke-width="0.5" stroke="black" fill="magenta"/>
   </g>
   <g id="cell215">
  <circle cx="460.824" cy="644.215" r="6.3928" stroke-width="0.5" stroke="black" fill="magenta"/>
  <circle cx="460.824" cy="644.215" r="3.8823" stroke-width="0.5" stroke="black" fill="magenta"/>
   </g>
   <g id="cell216">
  <circle cx="433.181" cy="533.21" r="6.70919" stroke-width="0.5" stroke="black" fill="magenta"/>
  <circle cx="433.181" cy="533.21" r="4.0337" stroke-width="0.5" stroke="black" fill="magenta"/>
   </g>
  </g>
 </g>
  <rect x="775" y="1035" width="200" height="10" stroke-width="2" stroke="rgb(255,255,255)" fill="rgb(0,0,0)"/>
  <text x="781.25" y="1028.75"
   font-family="Arial" font-size="25" fill="black" >
   200 &#956;m
  </text>
  <text x="25" y="1045"
   font-family="Arial" font-size="18.75" fill="black" >
   0 days, 0 hours, 0 minutes, and 52.3172 seconds
  </text>
  <rect x="0" y="70" width="1000" height="1000" stroke-width="2" stroke="rgb(0,0,0)" fill="none"/>
</svg>
