<?xml version="1.0" encoding="UTF-8" standalone="no"?>
<!-- Created with PhysiCell (http://PhysiCell.MathCancer.org/) -->
<svg 
 xmlns:dc="http://purl.org/dc/elements/1.1/" 
 xmlns:cc="http://creativecommons.org/ns#" 
 xmlns:rdf="http://www.w3.org/1999/02/22-rdf-syntax-ns#" 
 xmlns:svg="http://www.w3.org/2000/svg" 
 xmlns="http://www.w3.org/2000/svg" 
 version="1.1" 
 width="1000" 
 height="1070" 
 id="svg2">
  <rect x="0" y="0" width="1000" height="1070" stroke-width="2" stroke="white" fill="white"/>
  <text x="12.5" y="30"
   font-family="Arial" font-size="25" fill="black" >
   Current time: 0 days, 14 hours, and 0.00 minutes, z = 0.00 &#956;m
  </text>
  <text x="12.5" y="57.5"
   font-family="Arial" font-size="23.75" fill="black" >
   123 agents
  </text>
 <g id="tissue" 
    transform="translate(0,1070) scale(1,-1)">
  <g id="ECM">
  </g>
  <g id="cells">
   <g id="cell0">
  <circle cx="513.055" cy="531.144" r="8.41271" stroke-width="0.5" stroke="black" fill="magenta"/>
  <circle cx="513.055" cy="531.144" r="5.05167" stroke-width="0.5" stroke="black" fill="magenta"/>
   </g>
   <g id="cell1">
  <circle cx="601.021" cy="531.812" r="8.41271" stroke-width="0.5" stroke="black" fill="magenta"/>
  <circle cx="601.021" cy="531.812" r="5.05167" stroke-width="0.5" stroke="black" fill="magenta"/>
   </g>
   <g id="cell2">
  <circle cx="510.724" cy="600.485" r="8.41271" stroke-width="0.5" stroke="black" fill="magenta"/>
  <circle cx="510.724" cy="600.485" r="5.05167" stroke-width="0.5" stroke="black" fill="magenta"/>
   </g>
   <g id="cell3">
  <circle cx="532.328" cy="546.001" r="8.41271" stroke-width="0.5" stroke="black" fill="magenta"/>
  <circle cx="532.328" cy="546.001" r="5.05167" stroke-width="0.5" stroke="black" fill="magenta"/>
   </g>
   <g id="cell4">
  <circle cx="481.375" cy="439.864" r="8.41271" stroke-width="0.5" stroke="black" fill="magenta"/>
  <circle cx="481.375" cy="439.864" r="5.05167" stroke-width="0.5" stroke="black" fill="magenta"/>
   </g>
   <g id="cell5">
  <circle cx="465.032" cy="493.3" r="8.41271" stroke-width="0.5" stroke="black" fill="magenta"/>
  <circle cx="465.032" cy="493.3" r="5.05167" stroke-width="0.5" stroke="black" fill="magenta"/>
   </g>
   <g id="cell6">
  <circle cx="585.945" cy="513.602" r="6.82004" stroke-width="0.5" stroke="black" fill="magenta"/>
  <circle cx="585.945" cy="513.602" r="4.17038" stroke-width="0.5" stroke="black" fill="magenta"/>
   </g>
   <g id="cell7">
  <circle cx="502.761" cy="460.493" r="7.84675" stroke-width="0.5" stroke="black" fill="magenta"/>
  <circle cx="502.761" cy="460.493" r="4.7629" stroke-width="0.5" stroke="black" fill="magenta"/>
   </g>
   <g id="cell8">
  <circle cx="383.834" cy="542.489" r="8.41271" stroke-width="0.5" stroke="black" fill="magenta"/>
  <circle cx="383.834" cy="542.489" r="5.05167" stroke-width="0.5" stroke="black" fill="magenta"/>
   </g>
   <g id="cell9">
  <circle cx="465.202" cy="595.188" r="8.34511" stroke-width="0.5" stroke="black" fill="magenta"/>
  <circle cx="465.202" cy="595.188" r="5.02502" stroke-width="0.5" stroke="black" fill="magenta"/>
   </g>
   <g id="cell10">
  <circle cx="583.447" cy="392.105" r="8.41271" stroke-width="0.5" stroke="black" fill="magenta"/>
  <circle cx="583.447" cy="392.105" r="5.05167" stroke-width="0.5" stroke="black" fill="magenta"/>
   </g>
   <g id="cell11">
  <circle cx="595.578" cy="584.243" r="8.00999" stroke-width="0.5" stroke="black" fill="magenta"/>
  <circle cx="595.578" cy="584.243" r="4.86254" stroke-width="0.5" stroke="black" fill="magenta"/>
   </g>
   <g id="cell12">
  <circle cx="505.796" cy="585.23" r="8.41271" stroke-width="0.5" stroke="black" fill="magenta"/>
  <circle cx="505.796" cy="585.23" r="5.05167" stroke-width="0.5" stroke="black" fill="magenta"/>
   </g>
   <g id="cell13">
  <circle cx="398.056" cy="567.175" r="8.35727" stroke-width="0.5" stroke="black" fill="magenta"/>
  <circle cx="398.056" cy="567.175" r="5.03034" stroke-width="0.5" stroke="black" fill="magenta"/>
   </g>
   <g id="cell109">
  <circle cx="376.013" cy="442.823" r="7.44242" stroke-width="0.5" stroke="black" fill="cyan"/>
  <circle cx="376.013" cy="442.823" r="4.52373" stroke-width="0.5" stroke="black" fill="cyan"/>
   </g>
   <g id="cell15">
  <circle cx="379.896" cy="475.017" r="8.41271" stroke-width="0.5" stroke="black" fill="magenta"/>
  <circle cx="379.896" cy="475.017" r="5.05167" stroke-width="0.5" stroke="black" fill="magenta"/>
   </g>
   <g id="cell16">
  <circle cx="426.657" cy="420.781" r="7.75912" stroke-width="0.5" stroke="black" fill="magenta"/>
  <circle cx="426.657" cy="420.781" r="4.71248" stroke-width="0.5" stroke="black" fill="magenta"/>
   </g>
   <g id="cell17">
  <circle cx="572.615" cy="492.657" r="8.41271" stroke-width="0.5" stroke="black" fill="magenta"/>
  <circle cx="572.615" cy="492.657" r="5.05167" stroke-width="0.5" stroke="black" fill="magenta"/>
   </g>
   <g id="cell18">
  <circle cx="510.499" cy="386.674" r="6.84172" stroke-width="0.5" stroke="black" fill="magenta"/>
  <circle cx="510.499" cy="386.674" r="4.19761" stroke-width="0.5" stroke="black" fill="magenta"/>
   </g>
   <g id="cell19">
  <circle cx="453.668" cy="547.253" r="7.93688" stroke-width="0.5" stroke="black" fill="magenta"/>
  <circle cx="453.668" cy="547.253" r="4.81381" stroke-width="0.5" stroke="black" fill="magenta"/>
   </g>
   <g id="cell20">
  <circle cx="532.189" cy="418.245" r="8.41271" stroke-width="0.5" stroke="black" fill="magenta"/>
  <circle cx="532.189" cy="418.245" r="5.05167" stroke-width="0.5" stroke="black" fill="magenta"/>
   </g>
   <g id="cell21">
  <circle cx="464.212" cy="634.718" r="8.41271" stroke-width="0.5" stroke="black" fill="magenta"/>
  <circle cx="464.212" cy="634.718" r="5.05167" stroke-width="0.5" stroke="black" fill="magenta"/>
   </g>
   <g id="cell22">
  <circle cx="556.733" cy="494.888" r="8.41271" stroke-width="0.5" stroke="black" fill="magenta"/>
  <circle cx="556.733" cy="494.888" r="5.05167" stroke-width="0.5" stroke="black" fill="magenta"/>
   </g>
   <g id="cell23">
  <circle cx="539.127" cy="488.498" r="6.69288" stroke-width="0.5" stroke="black" fill="magenta"/>
  <circle cx="539.127" cy="488.498" r="4.02051" stroke-width="0.5" stroke="black" fill="magenta"/>
   </g>
   <g id="cell124">
  <circle cx="559.422" cy="463.568" r="6.66759" stroke-width="0.5" stroke="black" fill="cyan"/>
  <circle cx="559.422" cy="463.568" r="4.04985" stroke-width="0.5" stroke="black" fill="cyan"/>
   </g>
   <g id="cell25">
  <circle cx="638.931" cy="553.073" r="7.89501" stroke-width="0.5" stroke="black" fill="green"/>
  <circle cx="638.931" cy="553.073" r="4.80505" stroke-width="0.5" stroke="black" fill="green"/>
   </g>
   <g id="cell26">
  <circle cx="556.644" cy="399.906" r="8.2239" stroke-width="0.5" stroke="black" fill="green"/>
  <circle cx="556.644" cy="399.906" r="4.96725" stroke-width="0.5" stroke="black" fill="green"/>
   </g>
   <g id="cell27">
  <circle cx="457.446" cy="388.678" r="8.41271" stroke-width="0.5" stroke="black" fill="green"/>
  <circle cx="457.446" cy="388.678" r="5.05167" stroke-width="0.5" stroke="black" fill="green"/>
   </g>
   <g id="cell28">
  <circle cx="437.031" cy="529.373" r="8.41271" stroke-width="0.5" stroke="black" fill="green"/>
  <circle cx="437.031" cy="529.373" r="5.05167" stroke-width="0.5" stroke="black" fill="green"/>
   </g>
   <g id="cell29">
  <circle cx="447.754" cy="517.431" r="8.41271" stroke-width="0.5" stroke="black" fill="green"/>
  <circle cx="447.754" cy="517.431" r="5.05167" stroke-width="0.5" stroke="black" fill="green"/>
   </g>
   <g id="cell30">
  <circle cx="481.58" cy="540.282" r="1.17761" stroke-width="0.5" stroke="black" fill="green"/>
  <circle cx="481.58" cy="540.282" r="1.17358" stroke-width="0.5" stroke="black" fill="black"/>
   </g>
   <g id="cell31">
  <circle cx="416.326" cy="538.174" r="7.1497" stroke-width="0.5" stroke="black" fill="green"/>
  <circle cx="416.326" cy="538.174" r="4.34001" stroke-width="0.5" stroke="black" fill="green"/>
   </g>
   <g id="cell32">
  <circle cx="421.64" cy="479.339" r="8.41271" stroke-width="0.5" stroke="black" fill="green"/>
  <circle cx="421.64" cy="479.339" r="5.05167" stroke-width="0.5" stroke="black" fill="green"/>
   </g>
   <g id="cell33">
  <circle cx="494.146" cy="423.184" r="8.41271" stroke-width="0.5" stroke="black" fill="green"/>
  <circle cx="494.146" cy="423.184" r="5.05167" stroke-width="0.5" stroke="black" fill="green"/>
   </g>
   <g id="cell34">
  <circle cx="398.205" cy="454.16" r="8.41271" stroke-width="0.5" stroke="black" fill="green"/>
  <circle cx="398.205" cy="454.16" r="5.05167" stroke-width="0.5" stroke="black" fill="green"/>
   </g>
   <g id="cell35">
  <circle cx="548.08" cy="543.061" r="8.41271" stroke-width="0.5" stroke="black" fill="green"/>
  <circle cx="548.08" cy="543.061" r="5.05167" stroke-width="0.5" stroke="black" fill="green"/>
   </g>
   <g id="cell36">
  <circle cx="388.713" cy="579.882" r="8.41271" stroke-width="0.5" stroke="black" fill="green"/>
  <circle cx="388.713" cy="579.882" r="5.05167" stroke-width="0.5" stroke="black" fill="green"/>
   </g>
   <g id="cell37">
  <circle cx="634.871" cy="460.618" r="8.41271" stroke-width="0.5" stroke="black" fill="green"/>
  <circle cx="634.871" cy="460.618" r="5.05167" stroke-width="0.5" stroke="black" fill="green"/>
   </g>
   <g id="cell38">
  <circle cx="538.223" cy="613.565" r="8.35727" stroke-width="0.5" stroke="black" fill="green"/>
  <circle cx="538.223" cy="613.565" r="5.03034" stroke-width="0.5" stroke="black" fill="green"/>
   </g>
   <g id="cell39">
  <circle cx="613.217" cy="488.291" r="8.41271" stroke-width="0.5" stroke="black" fill="green"/>
  <circle cx="613.217" cy="488.291" r="5.05167" stroke-width="0.5" stroke="black" fill="green"/>
   </g>
   <g id="cell40">
  <circle cx="482.345" cy="566.702" r="8.29331" stroke-width="0.5" stroke="black" fill="green"/>
  <circle cx="482.345" cy="566.702" r="5.0012" stroke-width="0.5" stroke="black" fill="green"/>
   </g>
   <g id="cell41">
  <circle cx="364.751" cy="480.251" r="8.41271" stroke-width="0.5" stroke="black" fill="green"/>
  <circle cx="364.751" cy="480.251" r="5.05167" stroke-width="0.5" stroke="black" fill="green"/>
   </g>
   <g id="cell42">
  <circle cx="438.842" cy="494.268" r="8.41271" stroke-width="0.5" stroke="black" fill="green"/>
  <circle cx="438.842" cy="494.268" r="5.05167" stroke-width="0.5" stroke="black" fill="green"/>
   </g>
   <g id="cell43">
  <circle cx="560.209" cy="445.002" r="8.41271" stroke-width="0.5" stroke="black" fill="green"/>
  <circle cx="560.209" cy="445.002" r="5.05167" stroke-width="0.5" stroke="black" fill="green"/>
   </g>
   <g id="cell44">
  <circle cx="476.013" cy="623.877" r="8.41271" stroke-width="0.5" stroke="black" fill="green"/>
  <circle cx="476.013" cy="623.877" r="5.05167" stroke-width="0.5" stroke="black" fill="green"/>
   </g>
   <g id="cell45">
  <circle cx="415.256" cy="557.624" r="8.41271" stroke-width="0.5" stroke="black" fill="green"/>
  <circle cx="415.256" cy="557.624" r="5.05167" stroke-width="0.5" stroke="black" fill="green"/>
   </g>
   <g id="cell46">
  <circle cx="522.373" cy="611.525" r="8.41271" stroke-width="0.5" stroke="black" fill="green"/>
  <circle cx="522.373" cy="611.525" r="5.05167" stroke-width="0.5" stroke="black" fill="green"/>
   </g>
   <g id="cell47">
  <circle cx="494.376" cy="508.013" r="8.36178" stroke-width="0.5" stroke="black" fill="green"/>
  <circle cx="494.376" cy="508.013" r="5.03227" stroke-width="0.5" stroke="black" fill="green"/>
   </g>
   <g id="cell48">
  <circle cx="564.143" cy="603.12" r="8.41271" stroke-width="0.5" stroke="black" fill="green"/>
  <circle cx="564.143" cy="603.12" r="5.05167" stroke-width="0.5" stroke="black" fill="green"/>
   </g>
   <g id="cell49">
  <circle cx="429.09" cy="392.552" r="8.41271" stroke-width="0.5" stroke="black" fill="green"/>
  <circle cx="429.09" cy="392.552" r="5.05167" stroke-width="0.5" stroke="black" fill="green"/>
   </g>
   <g id="cell50">
  <circle cx="520.804" cy="517.142" r="8.41271" stroke-width="0.5" stroke="black" fill="cyan"/>
  <circle cx="520.804" cy="517.142" r="5.05167" stroke-width="0.5" stroke="black" fill="cyan"/>
   </g>
   <g id="cell51">
  <circle cx="414.542" cy="593.654" r="7.33759" stroke-width="0.5" stroke="black" fill="cyan"/>
  <circle cx="414.542" cy="593.654" r="4.4694" stroke-width="0.5" stroke="black" fill="cyan"/>
   </g>
   <g id="cell52">
  <circle cx="520.8" cy="429.525" r="8.41271" stroke-width="0.5" stroke="black" fill="cyan"/>
  <circle cx="520.8" cy="429.525" r="5.05167" stroke-width="0.5" stroke="black" fill="cyan"/>
   </g>
   <g id="cell53">
  <circle cx="574.952" cy="439.995" r="7.98892" stroke-width="0.5" stroke="black" fill="cyan"/>
  <circle cx="574.952" cy="439.995" r="4.84272" stroke-width="0.5" stroke="black" fill="cyan"/>
   </g>
   <g id="cell54">
  <circle cx="478.152" cy="424.167" r="8.41271" stroke-width="0.5" stroke="black" fill="cyan"/>
  <circle cx="478.152" cy="424.167" r="5.05167" stroke-width="0.5" stroke="black" fill="cyan"/>
   </g>
   <g id="cell55">
  <circle cx="530.899" cy="467.647" r="7.96365" stroke-width="0.5" stroke="black" fill="cyan"/>
  <circle cx="530.899" cy="467.647" r="4.82873" stroke-width="0.5" stroke="black" fill="cyan"/>
   </g>
   <g id="cell56">
  <circle cx="628.68" cy="521.794" r="8.10448" stroke-width="0.5" stroke="black" fill="cyan"/>
  <circle cx="628.68" cy="521.794" r="4.90539" stroke-width="0.5" stroke="black" fill="cyan"/>
   </g>
   <g id="cell57">
  <circle cx="416.924" cy="617.466" r="8.41271" stroke-width="0.5" stroke="black" fill="cyan"/>
  <circle cx="416.924" cy="617.466" r="5.05167" stroke-width="0.5" stroke="black" fill="cyan"/>
   </g>
   <g id="cell58">
  <circle cx="550.393" cy="480.115" r="8.41271" stroke-width="0.5" stroke="black" fill="cyan"/>
  <circle cx="550.393" cy="480.115" r="5.05167" stroke-width="0.5" stroke="black" fill="cyan"/>
   </g>
   <g id="cell59">
  <circle cx="385.288" cy="433.503" r="6.45596" stroke-width="0.5" stroke="black" fill="cyan"/>
  <circle cx="385.288" cy="433.503" r="3.96031" stroke-width="0.5" stroke="black" fill="cyan"/>
   </g>
   <g id="cell60">
  <circle cx="606.302" cy="473.967" r="8.31766" stroke-width="0.5" stroke="black" fill="cyan"/>
  <circle cx="606.302" cy="473.967" r="5.0126" stroke-width="0.5" stroke="black" fill="cyan"/>
   </g>
   <g id="cell121">
  <circle cx="450.194" cy="464.178" r="6.58259" stroke-width="0.5" stroke="black" fill="cyan"/>
  <circle cx="450.194" cy="464.178" r="4.03151" stroke-width="0.5" stroke="black" fill="cyan"/>
   </g>
   <g id="cell62">
  <circle cx="520.015" cy="445.155" r="7.98892" stroke-width="0.5" stroke="black" fill="cyan"/>
  <circle cx="520.015" cy="445.155" r="4.84272" stroke-width="0.5" stroke="black" fill="cyan"/>
   </g>
   <g id="cell63">
  <circle cx="577.41" cy="546.557" r="8.41271" stroke-width="0.5" stroke="black" fill="cyan"/>
  <circle cx="577.41" cy="546.557" r="5.05167" stroke-width="0.5" stroke="black" fill="cyan"/>
   </g>
   <g id="cell64">
  <circle cx="509.962" cy="636.825" r="8.41271" stroke-width="0.5" stroke="black" fill="cyan"/>
  <circle cx="509.962" cy="636.825" r="5.05167" stroke-width="0.5" stroke="black" fill="cyan"/>
   </g>
   <g id="cell65">
  <circle cx="545.549" cy="464.898" r="8.41271" stroke-width="0.5" stroke="black" fill="cyan"/>
  <circle cx="545.549" cy="464.898" r="5.05167" stroke-width="0.5" stroke="black" fill="cyan"/>
   </g>
   <g id="cell66">
  <circle cx="537.658" cy="530.888" r="8.41271" stroke-width="0.5" stroke="black" fill="cyan"/>
  <circle cx="537.658" cy="530.888" r="5.05167" stroke-width="0.5" stroke="black" fill="cyan"/>
   </g>
   <g id="cell67">
  <circle cx="354.64" cy="492.683" r="8.41271" stroke-width="0.5" stroke="black" fill="cyan"/>
  <circle cx="354.64" cy="492.683" r="5.05167" stroke-width="0.5" stroke="black" fill="cyan"/>
   </g>
   <g id="cell68">
  <circle cx="562.009" cy="550.984" r="8.41271" stroke-width="0.5" stroke="black" fill="cyan"/>
  <circle cx="562.009" cy="550.984" r="5.05167" stroke-width="0.5" stroke="black" fill="cyan"/>
   </g>
   <g id="cell69">
  <circle cx="440.728" cy="455.976" r="6.58259" stroke-width="0.5" stroke="black" fill="cyan"/>
  <circle cx="440.728" cy="455.976" r="4.03151" stroke-width="0.5" stroke="black" fill="cyan"/>
   </g>
   <g id="cell70">
  <circle cx="577.361" cy="477.733" r="8.18833" stroke-width="0.5" stroke="black" fill="cyan"/>
  <circle cx="577.361" cy="477.733" r="4.94921" stroke-width="0.5" stroke="black" fill="cyan"/>
   </g>
   <g id="cell71">
  <circle cx="377.712" cy="520.989" r="8.41271" stroke-width="0.5" stroke="black" fill="cyan"/>
  <circle cx="377.712" cy="520.989" r="5.05167" stroke-width="0.5" stroke="black" fill="cyan"/>
   </g>
   <g id="cell72">
  <circle cx="536.625" cy="514.894" r="8.41271" stroke-width="0.5" stroke="black" fill="cyan"/>
  <circle cx="536.625" cy="514.894" r="5.05167" stroke-width="0.5" stroke="black" fill="cyan"/>
   </g>
   <g id="cell73">
  <circle cx="355.148" cy="548.869" r="7.05319" stroke-width="0.5" stroke="black" fill="cyan"/>
  <circle cx="355.148" cy="548.869" r="4.30918" stroke-width="0.5" stroke="black" fill="cyan"/>
   </g>
   <g id="cell74">
  <circle cx="544.793" cy="449.034" r="8.41271" stroke-width="0.5" stroke="black" fill="cyan"/>
  <circle cx="544.793" cy="449.034" r="5.05167" stroke-width="0.5" stroke="black" fill="cyan"/>
   </g>
   <g id="cell75">
  <circle cx="590.306" cy="498.819" r="8.26649" stroke-width="0.5" stroke="black" fill="magenta"/>
  <circle cx="590.306" cy="498.819" r="4.99075" stroke-width="0.5" stroke="black" fill="magenta"/>
   </g>
   <g id="cell76">
  <circle cx="647.747" cy="540.417" r="8.3632" stroke-width="0.5" stroke="black" fill="green"/>
  <circle cx="647.747" cy="540.417" r="5.03288" stroke-width="0.5" stroke="black" fill="green"/>
   </g>
   <g id="cell77">
  <circle cx="509.213" cy="507.734" r="7.355" stroke-width="0.5" stroke="black" fill="green"/>
  <circle cx="509.213" cy="507.734" r="4.47722" stroke-width="0.5" stroke="black" fill="green"/>
   </g>
   <g id="cell78">
  <circle cx="370.304" cy="570.613" r="8.2056" stroke-width="0.5" stroke="black" fill="magenta"/>
  <circle cx="370.304" cy="570.613" r="4.96136" stroke-width="0.5" stroke="black" fill="magenta"/>
   </g>
   <g id="cell79">
  <circle cx="535.299" cy="583.608" r="8.22318" stroke-width="0.5" stroke="black" fill="green"/>
  <circle cx="535.299" cy="583.608" r="4.97223" stroke-width="0.5" stroke="black" fill="green"/>
   </g>
   <g id="cell80">
  <circle cx="453.808" cy="606.264" r="8.34511" stroke-width="0.5" stroke="black" fill="magenta"/>
  <circle cx="453.808" cy="606.264" r="5.02502" stroke-width="0.5" stroke="black" fill="magenta"/>
   </g>
   <g id="cell81">
  <circle cx="392.854" cy="615.026" r="7.94589" stroke-width="0.5" stroke="black" fill="cyan"/>
  <circle cx="392.854" cy="615.026" r="4.82523" stroke-width="0.5" stroke="black" fill="cyan"/>
   </g>
   <g id="cell82">
  <circle cx="587.102" cy="465.886" r="8.03494" stroke-width="0.5" stroke="black" fill="cyan"/>
  <circle cx="587.102" cy="465.886" r="4.87438" stroke-width="0.5" stroke="black" fill="cyan"/>
   </g>
   <g id="cell83">
  <circle cx="541.503" cy="598.06" r="8.28939" stroke-width="0.5" stroke="black" fill="green"/>
  <circle cx="541.503" cy="598.06" r="5.0017" stroke-width="0.5" stroke="black" fill="green"/>
   </g>
   <g id="cell84">
  <circle cx="490.759" cy="580.057" r="8.29331" stroke-width="0.5" stroke="black" fill="green"/>
  <circle cx="490.759" cy="580.057" r="5.0012" stroke-width="0.5" stroke="black" fill="green"/>
   </g>
   <g id="cell85">
  <circle cx="605.759" cy="502.233" r="8.26649" stroke-width="0.5" stroke="black" fill="magenta"/>
  <circle cx="605.759" cy="502.233" r="4.99075" stroke-width="0.5" stroke="black" fill="magenta"/>
   </g>
   <g id="cell86">
  <circle cx="525.917" cy="596.108" r="8.22318" stroke-width="0.5" stroke="black" fill="green"/>
  <circle cx="525.917" cy="596.108" r="4.97223" stroke-width="0.5" stroke="black" fill="green"/>
   </g>
   <g id="cell87">
  <circle cx="590.632" cy="598.93" r="8.27097" stroke-width="0.5" stroke="black" fill="magenta"/>
  <circle cx="590.632" cy="598.93" r="4.99048" stroke-width="0.5" stroke="black" fill="magenta"/>
   </g>
   <g id="cell88">
  <circle cx="376.358" cy="555.138" r="6.97414" stroke-width="0.5" stroke="black" fill="magenta"/>
  <circle cx="376.358" cy="555.138" r="4.25533" stroke-width="0.5" stroke="black" fill="magenta"/>
   </g>
   <g id="cell89">
  <circle cx="546.321" cy="411.464" r="8.06895" stroke-width="0.5" stroke="black" fill="green"/>
  <circle cx="546.321" cy="411.464" r="4.89436" stroke-width="0.5" stroke="black" fill="green"/>
   </g>
   <g id="cell90">
  <circle cx="563.698" cy="475.338" r="6.66759" stroke-width="0.5" stroke="black" fill="cyan"/>
  <circle cx="563.698" cy="475.338" r="4.04985" stroke-width="0.5" stroke="black" fill="cyan"/>
   </g>
   <g id="cell91">
  <circle cx="541.425" cy="396.912" r="8.06895" stroke-width="0.5" stroke="black" fill="green"/>
  <circle cx="541.425" cy="396.912" r="4.89436" stroke-width="0.5" stroke="black" fill="green"/>
   </g>
   <g id="cell92">
  <circle cx="641.541" cy="568.02" r="8.11174" stroke-width="0.5" stroke="black" fill="green"/>
  <circle cx="641.541" cy="568.02" r="4.91305" stroke-width="0.5" stroke="black" fill="green"/>
   </g>
   <g id="cell93">
  <circle cx="368.242" cy="543.161" r="8.13008" stroke-width="0.5" stroke="black" fill="cyan"/>
  <circle cx="368.242" cy="543.161" r="4.91894" stroke-width="0.5" stroke="black" fill="cyan"/>
   </g>
   <g id="cell94">
  <circle cx="613.407" cy="522.094" r="8.10448" stroke-width="0.5" stroke="black" fill="cyan"/>
  <circle cx="613.407" cy="522.094" r="4.90539" stroke-width="0.5" stroke="black" fill="cyan"/>
   </g>
   <g id="cell95">
  <circle cx="580.613" cy="587.106" r="8.00999" stroke-width="0.5" stroke="black" fill="magenta"/>
  <circle cx="580.613" cy="587.106" r="4.86254" stroke-width="0.5" stroke="black" fill="magenta"/>
   </g>
   <g id="cell96">
  <circle cx="592.305" cy="480.457" r="8.03494" stroke-width="0.5" stroke="black" fill="cyan"/>
  <circle cx="592.305" cy="480.457" r="4.87438" stroke-width="0.5" stroke="black" fill="cyan"/>
   </g>
   <g id="cell97">
  <circle cx="624.951" cy="547.705" r="7.89501" stroke-width="0.5" stroke="black" fill="green"/>
  <circle cx="624.951" cy="547.705" r="4.80505" stroke-width="0.5" stroke="black" fill="green"/>
   </g>
   <g id="cell98">
  <circle cx="599.48" cy="516.286" r="8.03176" stroke-width="0.5" stroke="black" fill="magenta"/>
  <circle cx="599.48" cy="516.286" r="4.87022" stroke-width="0.5" stroke="black" fill="magenta"/>
   </g>
   <g id="cell99">
  <circle cx="563.679" cy="429.789" r="7.98892" stroke-width="0.5" stroke="black" fill="cyan"/>
  <circle cx="563.679" cy="429.789" r="4.84272" stroke-width="0.5" stroke="black" fill="cyan"/>
   </g>
   <g id="cell100">
  <circle cx="379.192" cy="594.086" r="6.71857" stroke-width="0.5" stroke="black" fill="cyan"/>
  <circle cx="379.192" cy="594.086" r="4.13501" stroke-width="0.5" stroke="black" fill="cyan"/>
   </g>
   <g id="cell101">
  <circle cx="533.586" cy="438.351" r="7.98892" stroke-width="0.5" stroke="black" fill="cyan"/>
  <circle cx="533.586" cy="438.351" r="4.84272" stroke-width="0.5" stroke="black" fill="cyan"/>
   </g>
   <g id="cell102">
  <circle cx="516.78" cy="479.097" r="7.96365" stroke-width="0.5" stroke="black" fill="cyan"/>
  <circle cx="516.78" cy="479.097" r="4.82873" stroke-width="0.5" stroke="black" fill="cyan"/>
   </g>
   <g id="cell103">
  <circle cx="452.312" cy="532.261" r="7.93688" stroke-width="0.5" stroke="black" fill="magenta"/>
  <circle cx="452.312" cy="532.261" r="4.81381" stroke-width="0.5" stroke="black" fill="magenta"/>
   </g>
   <g id="cell104">
  <circle cx="400.354" cy="601.905" r="7.61838" stroke-width="0.5" stroke="black" fill="cyan"/>
  <circle cx="400.354" cy="601.905" r="4.65438" stroke-width="0.5" stroke="black" fill="cyan"/>
   </g>
   <g id="cell105">
  <circle cx="516.886" cy="464.132" r="7.84675" stroke-width="0.5" stroke="black" fill="magenta"/>
  <circle cx="516.886" cy="464.132" r="4.7629" stroke-width="0.5" stroke="black" fill="magenta"/>
   </g>
   <g id="cell106">
  <circle cx="432.849" cy="407.431" r="7.75912" stroke-width="0.5" stroke="black" fill="magenta"/>
  <circle cx="432.849" cy="407.431" r="4.71248" stroke-width="0.5" stroke="black" fill="magenta"/>
   </g>
   <g id="cell107">
  <circle cx="426.642" cy="466.187" r="6.43626" stroke-width="0.5" stroke="black" fill="cyan"/>
  <circle cx="426.642" cy="466.187" r="3.93581" stroke-width="0.5" stroke="black" fill="cyan"/>
   </g>
   <g id="cell108">
  <circle cx="523.073" cy="381.407" r="7.54436" stroke-width="0.5" stroke="black" fill="magenta"/>
  <circle cx="523.073" cy="381.407" r="4.58555" stroke-width="0.5" stroke="black" fill="magenta"/>
   </g>
   <g id="cell110">
  <circle cx="514.866" cy="398.867" r="6.84172" stroke-width="0.5" stroke="black" fill="magenta"/>
  <circle cx="514.866" cy="398.867" r="4.19761" stroke-width="0.5" stroke="black" fill="magenta"/>
   </g>
   <g id="cell111">
  <circle cx="519.059" cy="499.319" r="6.35866" stroke-width="0.5" stroke="black" fill="green"/>
  <circle cx="519.059" cy="499.319" r="3.90454" stroke-width="0.5" stroke="black" fill="green"/>
   </g>
   <g id="cell112">
  <circle cx="402.265" cy="587.335" r="7.33759" stroke-width="0.5" stroke="black" fill="cyan"/>
  <circle cx="402.265" cy="587.335" r="4.4694" stroke-width="0.5" stroke="black" fill="cyan"/>
   </g>
   <g id="cell113">
  <circle cx="341.929" cy="547.458" r="7.05319" stroke-width="0.5" stroke="black" fill="cyan"/>
  <circle cx="341.929" cy="547.458" r="4.30918" stroke-width="0.5" stroke="black" fill="cyan"/>
   </g>
   <g id="cell114">
  <circle cx="387.111" cy="603.342" r="6.11836" stroke-width="0.5" stroke="black" fill="cyan"/>
  <circle cx="387.111" cy="603.342" r="3.78809" stroke-width="0.5" stroke="black" fill="cyan"/>
   </g>
   <g id="cell115">
  <circle cx="391.175" cy="592.911" r="6.11836" stroke-width="0.5" stroke="black" fill="cyan"/>
  <circle cx="391.175" cy="592.911" r="3.78809" stroke-width="0.5" stroke="black" fill="cyan"/>
   </g>
   <g id="cell116">
  <circle cx="405.576" cy="546.445" r="7.1497" stroke-width="0.5" stroke="black" fill="green"/>
  <circle cx="405.576" cy="546.445" r="4.34001" stroke-width="0.5" stroke="black" fill="green"/>
   </g>
   <g id="cell117">
  <circle cx="383.192" cy="567.91" r="5.80539" stroke-width="0.5" stroke="black" fill="magenta"/>
  <circle cx="383.192" cy="567.91" r="3.56416" stroke-width="0.5" stroke="black" fill="magenta"/>
   </g>
   <g id="cell118">
  <circle cx="395.283" cy="440.436" r="6.45596" stroke-width="0.5" stroke="black" fill="cyan"/>
  <circle cx="395.283" cy="440.436" r="3.96031" stroke-width="0.5" stroke="black" fill="cyan"/>
   </g>
   <g id="cell119">
  <circle cx="575.32" cy="506.672" r="6.82004" stroke-width="0.5" stroke="black" fill="magenta"/>
  <circle cx="575.32" cy="506.672" r="4.17038" stroke-width="0.5" stroke="black" fill="magenta"/>
   </g>
   <g id="cell120">
  <circle cx="510.156" cy="491.201" r="6.35866" stroke-width="0.5" stroke="black" fill="green"/>
  <circle cx="510.156" cy="491.201" r="3.90454" stroke-width="0.5" stroke="black" fill="green"/>
   </g>
   <g id="cell122">
  <circle cx="438.601" cy="468.155" r="6.43626" stroke-width="0.5" stroke="black" fill="cyan"/>
  <circle cx="438.601" cy="468.155" r="3.93581" stroke-width="0.5" stroke="black" fill="cyan"/>
   </g>
   <g id="cell123">
  <circle cx="388.065" cy="558.24" r="5.80539" stroke-width="0.5" stroke="black" fill="magenta"/>
  <circle cx="388.065" cy="558.24" r="3.56416" stroke-width="0.5" stroke="black" fill="magenta"/>
   </g>
   <g id="cell125">
  <circle cx="529.888" cy="480.88" r="6.69288" stroke-width="0.5" stroke="black" fill="magenta"/>
  <circle cx="529.888" cy="480.88" r="4.02051" stroke-width="0.5" stroke="black" fill="magenta"/>
   </g>
  </g>
 </g>
  <rect x="775" y="1035" width="200" height="10" stroke-width="2" stroke="rgb(255,255,255)" fill="rgb(0,0,0)"/>
  <text x="781.25" y="1028.75"
   font-family="Arial" font-size="25" fill="black" >
   200 &#956;m
  </text>
  <text x="25" y="1045"
   font-family="Arial" font-size="18.75" fill="black" >
   0 days, 0 hours, 0 minutes, and 19.2566 seconds
  </text>
  <rect x="0" y="70" width="1000" height="1000" stroke-width="2" stroke="rgb(0,0,0)" fill="none"/>
</svg>
