<?xml version="1.0" encoding="UTF-8" standalone="no"?>
<!-- Created with PhysiCell (http://PhysiCell.MathCancer.org/) -->
<svg 
 xmlns:dc="http://purl.org/dc/elements/1.1/" 
 xmlns:cc="http://creativecommons.org/ns#" 
 xmlns:rdf="http://www.w3.org/1999/02/22-rdf-syntax-ns#" 
 xmlns:svg="http://www.w3.org/2000/svg" 
 xmlns="http://www.w3.org/2000/svg" 
 version="1.1" 
 width="1000" 
 height="1070" 
 id="svg2">
  <rect x="0" y="0" width="1000" height="1070" stroke-width="2" stroke="white" fill="white"/>
  <text x="12.5" y="30"
   font-family="Arial" font-size="25" fill="black" >
   Current time: 1 days, 4 hours, and 0.00 minutes, z = 0.00 &#956;m
  </text>
  <text x="12.5" y="57.5"
   font-family="Arial" font-size="23.75" fill="black" >
   176 agents
  </text>
 <g id="tissue" 
    transform="translate(0,1070) scale(1,-1)">
  <g id="ECM">
  </g>
  <g id="cells">
   <g id="cell0">
  <circle cx="514.065" cy="531.971" r="8.41271" stroke-width="0.5" stroke="black" fill="magenta"/>
  <circle cx="514.065" cy="531.971" r="5.05167" stroke-width="0.5" stroke="black" fill="magenta"/>
   </g>
   <g id="cell1">
  <circle cx="604.389" cy="538.393" r="8.41271" stroke-width="0.5" stroke="black" fill="magenta"/>
  <circle cx="604.389" cy="538.393" r="5.05167" stroke-width="0.5" stroke="black" fill="magenta"/>
   </g>
   <g id="cell2">
  <circle cx="507.099" cy="600.881" r="8.41271" stroke-width="0.5" stroke="black" fill="magenta"/>
  <circle cx="507.099" cy="600.881" r="5.05167" stroke-width="0.5" stroke="black" fill="magenta"/>
   </g>
   <g id="cell3">
  <circle cx="526.423" cy="555.09" r="7.97646" stroke-width="0.5" stroke="black" fill="magenta"/>
  <circle cx="526.423" cy="555.09" r="4.83584" stroke-width="0.5" stroke="black" fill="magenta"/>
   </g>
   <g id="cell4">
  <circle cx="481.375" cy="439.863" r="8.41271" stroke-width="0.5" stroke="black" fill="magenta"/>
  <circle cx="481.375" cy="439.863" r="5.05167" stroke-width="0.5" stroke="black" fill="magenta"/>
   </g>
   <g id="cell5">
  <circle cx="463.385" cy="488.189" r="8.41271" stroke-width="0.5" stroke="black" fill="magenta"/>
  <circle cx="463.385" cy="488.189" r="5.05167" stroke-width="0.5" stroke="black" fill="magenta"/>
   </g>
   <g id="cell6">
  <circle cx="586.565" cy="514.655" r="8.38391" stroke-width="0.5" stroke="black" fill="magenta"/>
  <circle cx="586.565" cy="514.655" r="5.04178" stroke-width="0.5" stroke="black" fill="magenta"/>
   </g>
   <g id="cell171">
  <circle cx="583.103" cy="500.486" r="7.24049" stroke-width="0.5" stroke="black" fill="magenta"/>
  <circle cx="583.103" cy="500.486" r="4.39877" stroke-width="0.5" stroke="black" fill="magenta"/>
   </g>
   <g id="cell8">
  <circle cx="383.58" cy="528.096" r="8.13813" stroke-width="0.5" stroke="black" fill="magenta"/>
  <circle cx="383.58" cy="528.096" r="4.92317" stroke-width="0.5" stroke="black" fill="magenta"/>
   </g>
   <g id="cell9">
  <circle cx="464.515" cy="595.825" r="1.74488" stroke-width="0.5" stroke="black" fill="magenta"/>
  <circle cx="464.515" cy="595.825" r="1.69562" stroke-width="0.5" stroke="black" fill="black"/>
   </g>
   <g id="cell10">
  <circle cx="583.447" cy="392.105" r="1.43395" stroke-width="0.5" stroke="black" fill="magenta"/>
  <circle cx="583.447" cy="392.105" r="1.41917" stroke-width="0.5" stroke="black" fill="black"/>
   </g>
   <g id="cell11">
  <circle cx="597.586" cy="572.885" r="7.91862" stroke-width="0.5" stroke="black" fill="magenta"/>
  <circle cx="597.586" cy="572.885" r="4.80467" stroke-width="0.5" stroke="black" fill="magenta"/>
   </g>
   <g id="cell12">
  <circle cx="505.164" cy="585.199" r="8.41271" stroke-width="0.5" stroke="black" fill="magenta"/>
  <circle cx="505.164" cy="585.199" r="5.05167" stroke-width="0.5" stroke="black" fill="magenta"/>
   </g>
   <g id="cell13">
  <circle cx="396.059" cy="570.946" r="8.4116" stroke-width="0.5" stroke="black" fill="magenta"/>
  <circle cx="396.059" cy="570.946" r="5.05139" stroke-width="0.5" stroke="black" fill="magenta"/>
   </g>
   <g id="cell109">
  <circle cx="374.314" cy="443.407" r="8.39473" stroke-width="0.5" stroke="black" fill="cyan"/>
  <circle cx="374.314" cy="443.407" r="5.04562" stroke-width="0.5" stroke="black" fill="cyan"/>
   </g>
   <g id="cell15">
  <circle cx="379.833" cy="474.699" r="2.2615" stroke-width="0.5" stroke="black" fill="magenta"/>
  <circle cx="379.833" cy="474.699" r="2.07535" stroke-width="0.5" stroke="black" fill="black"/>
   </g>
   <g id="cell16">
  <circle cx="420.061" cy="428.029" r="8.30587" stroke-width="0.5" stroke="black" fill="magenta"/>
  <circle cx="420.061" cy="428.029" r="5.00801" stroke-width="0.5" stroke="black" fill="magenta"/>
   </g>
   <g id="cell17">
  <circle cx="569.23" cy="500.699" r="7.75912" stroke-width="0.5" stroke="black" fill="magenta"/>
  <circle cx="569.23" cy="500.699" r="4.71248" stroke-width="0.5" stroke="black" fill="magenta"/>
   </g>
   <g id="cell18">
  <circle cx="509.588" cy="386.037" r="1.34947" stroke-width="0.5" stroke="black" fill="magenta"/>
  <circle cx="509.588" cy="386.037" r="1.33916" stroke-width="0.5" stroke="black" fill="black"/>
   </g>
   <g id="cell19">
  <circle cx="453.842" cy="554.184" r="8.40378" stroke-width="0.5" stroke="black" fill="magenta"/>
  <circle cx="453.842" cy="554.184" r="5.0489" stroke-width="0.5" stroke="black" fill="magenta"/>
   </g>
   <g id="cell20">
  <circle cx="531.981" cy="420.56" r="8.41271" stroke-width="0.5" stroke="black" fill="magenta"/>
  <circle cx="531.981" cy="420.56" r="5.05167" stroke-width="0.5" stroke="black" fill="magenta"/>
   </g>
   <g id="cell21">
  <circle cx="463.737" cy="635.544" r="8.41271" stroke-width="0.5" stroke="black" fill="magenta"/>
  <circle cx="463.737" cy="635.544" r="5.05167" stroke-width="0.5" stroke="black" fill="magenta"/>
   </g>
   <g id="cell22">
  <circle cx="555.239" cy="495.59" r="8.41271" stroke-width="0.5" stroke="black" fill="magenta"/>
  <circle cx="555.239" cy="495.59" r="5.05167" stroke-width="0.5" stroke="black" fill="magenta"/>
   </g>
   <g id="cell23">
  <circle cx="551.017" cy="509.672" r="7.20529" stroke-width="0.5" stroke="black" fill="magenta"/>
  <circle cx="551.017" cy="509.672" r="4.41923" stroke-width="0.5" stroke="black" fill="magenta"/>
   </g>
   <g id="cell124">
  <circle cx="557.11" cy="456.984" r="8.28893" stroke-width="0.5" stroke="black" fill="cyan"/>
  <circle cx="557.11" cy="456.984" r="5.00112" stroke-width="0.5" stroke="black" fill="cyan"/>
   </g>
   <g id="cell25">
  <circle cx="636.981" cy="554.646" r="8.40307" stroke-width="0.5" stroke="black" fill="green"/>
  <circle cx="636.981" cy="554.646" r="5.0488" stroke-width="0.5" stroke="black" fill="green"/>
   </g>
   <g id="cell26">
  <circle cx="555.712" cy="399.354" r="8.40905" stroke-width="0.5" stroke="black" fill="green"/>
  <circle cx="555.712" cy="399.354" r="5.05064" stroke-width="0.5" stroke="black" fill="green"/>
   </g>
   <g id="cell27">
  <circle cx="457.446" cy="388.678" r="8.41271" stroke-width="0.5" stroke="black" fill="green"/>
  <circle cx="457.446" cy="388.678" r="5.05167" stroke-width="0.5" stroke="black" fill="green"/>
   </g>
   <g id="cell28">
  <circle cx="426.013" cy="525.246" r="8.41271" stroke-width="0.5" stroke="black" fill="green"/>
  <circle cx="426.013" cy="525.246" r="5.05167" stroke-width="0.5" stroke="black" fill="green"/>
   </g>
   <g id="cell29">
  <circle cx="440.584" cy="511.34" r="8.32543" stroke-width="0.5" stroke="black" fill="green"/>
  <circle cx="440.584" cy="511.34" r="5.01617" stroke-width="0.5" stroke="black" fill="green"/>
   </g>
   <g id="cell126">
  <circle cx="528.808" cy="507.044" r="8.35445" stroke-width="0.5" stroke="black" fill="green"/>
  <circle cx="528.808" cy="507.044" r="5.0305" stroke-width="0.5" stroke="black" fill="green"/>
   </g>
   <g id="cell31">
  <circle cx="414.758" cy="536.505" r="8.38891" stroke-width="0.5" stroke="black" fill="green"/>
  <circle cx="414.758" cy="536.505" r="5.0434" stroke-width="0.5" stroke="black" fill="green"/>
   </g>
   <g id="cell32">
  <circle cx="418.745" cy="487.9" r="8.1609" stroke-width="0.5" stroke="black" fill="green"/>
  <circle cx="418.745" cy="487.9" r="4.93506" stroke-width="0.5" stroke="black" fill="green"/>
   </g>
   <g id="cell33">
  <circle cx="494.145" cy="423.184" r="8.41271" stroke-width="0.5" stroke="black" fill="green"/>
  <circle cx="494.145" cy="423.184" r="5.05167" stroke-width="0.5" stroke="black" fill="green"/>
   </g>
   <g id="cell34">
  <circle cx="388.758" cy="448.613" r="7.94105" stroke-width="0.5" stroke="black" fill="green"/>
  <circle cx="388.758" cy="448.613" r="4.82175" stroke-width="0.5" stroke="black" fill="green"/>
   </g>
   <g id="cell35">
  <circle cx="546.245" cy="555.996" r="6.86652" stroke-width="0.5" stroke="black" fill="green"/>
  <circle cx="546.245" cy="555.996" r="4.14883" stroke-width="0.5" stroke="black" fill="green"/>
   </g>
   <g id="cell36">
  <circle cx="385.81" cy="583.548" r="8.41271" stroke-width="0.5" stroke="black" fill="green"/>
  <circle cx="385.81" cy="583.548" r="5.05167" stroke-width="0.5" stroke="black" fill="green"/>
   </g>
   <g id="cell37">
  <circle cx="634.871" cy="460.618" r="8.41271" stroke-width="0.5" stroke="black" fill="green"/>
  <circle cx="634.871" cy="460.618" r="5.05167" stroke-width="0.5" stroke="black" fill="green"/>
   </g>
   <g id="cell38">
  <circle cx="542.249" cy="612.495" r="8.31976" stroke-width="0.5" stroke="black" fill="green"/>
  <circle cx="542.249" cy="612.495" r="5.01369" stroke-width="0.5" stroke="black" fill="green"/>
   </g>
   <g id="cell39">
  <circle cx="617.785" cy="484.768" r="8.41271" stroke-width="0.5" stroke="black" fill="green"/>
  <circle cx="617.785" cy="484.768" r="5.05167" stroke-width="0.5" stroke="black" fill="green"/>
   </g>
   <g id="cell40">
  <circle cx="482.101" cy="566.299" r="8.41036" stroke-width="0.5" stroke="black" fill="green"/>
  <circle cx="482.101" cy="566.299" r="5.05104" stroke-width="0.5" stroke="black" fill="green"/>
   </g>
   <g id="cell41">
  <circle cx="365.092" cy="480.246" r="8.41271" stroke-width="0.5" stroke="black" fill="green"/>
  <circle cx="365.092" cy="480.246" r="5.05167" stroke-width="0.5" stroke="black" fill="green"/>
   </g>
   <g id="cell42">
  <circle cx="438.433" cy="495.498" r="8.41271" stroke-width="0.5" stroke="black" fill="green"/>
  <circle cx="438.433" cy="495.498" r="5.05167" stroke-width="0.5" stroke="black" fill="green"/>
   </g>
   <g id="cell43">
  <circle cx="556.822" cy="441.559" r="8.41271" stroke-width="0.5" stroke="black" fill="green"/>
  <circle cx="556.822" cy="441.559" r="5.05167" stroke-width="0.5" stroke="black" fill="green"/>
   </g>
   <g id="cell44">
  <circle cx="470.775" cy="621.634" r="7.97646" stroke-width="0.5" stroke="black" fill="green"/>
  <circle cx="470.775" cy="621.634" r="4.83584" stroke-width="0.5" stroke="black" fill="green"/>
   </g>
   <g id="cell45">
  <circle cx="426.052" cy="565.728" r="8.33481" stroke-width="0.5" stroke="black" fill="green"/>
  <circle cx="426.052" cy="565.728" r="5.02043" stroke-width="0.5" stroke="black" fill="green"/>
   </g>
   <g id="cell46">
  <circle cx="514.986" cy="624.307" r="6.44151" stroke-width="0.5" stroke="black" fill="green"/>
  <circle cx="514.986" cy="624.307" r="3.95311" stroke-width="0.5" stroke="black" fill="green"/>
   </g>
   <g id="cell47">
  <circle cx="489.961" cy="504.065" r="8.36268" stroke-width="0.5" stroke="black" fill="green"/>
  <circle cx="489.961" cy="504.065" r="5.03275" stroke-width="0.5" stroke="black" fill="green"/>
   </g>
   <g id="cell48">
  <circle cx="562.53" cy="602.617" r="8.41271" stroke-width="0.5" stroke="black" fill="green"/>
  <circle cx="562.53" cy="602.617" r="5.05167" stroke-width="0.5" stroke="black" fill="green"/>
   </g>
   <g id="cell49">
  <circle cx="430.6" cy="385.655" r="7.08639" stroke-width="0.5" stroke="black" fill="green"/>
  <circle cx="430.6" cy="385.655" r="4.29876" stroke-width="0.5" stroke="black" fill="green"/>
   </g>
   <g id="cell50">
  <circle cx="516.282" cy="516.125" r="2.34188" stroke-width="0.5" stroke="black" fill="cyan"/>
  <circle cx="516.282" cy="516.125" r="2.12529" stroke-width="0.5" stroke="black" fill="black"/>
   </g>
   <g id="cell51">
  <circle cx="418.83" cy="597.827" r="8.39292" stroke-width="0.5" stroke="black" fill="cyan"/>
  <circle cx="418.83" cy="597.827" r="5.04503" stroke-width="0.5" stroke="black" fill="cyan"/>
   </g>
   <g id="cell52">
  <circle cx="515.926" cy="421.733" r="8.41271" stroke-width="0.5" stroke="black" fill="cyan"/>
  <circle cx="515.926" cy="421.733" r="5.05167" stroke-width="0.5" stroke="black" fill="cyan"/>
   </g>
   <g id="cell53">
  <circle cx="579.886" cy="437.717" r="7.79099" stroke-width="0.5" stroke="black" fill="cyan"/>
  <circle cx="579.886" cy="437.717" r="4.73209" stroke-width="0.5" stroke="black" fill="cyan"/>
   </g>
   <g id="cell54">
  <circle cx="478.151" cy="424.167" r="8.41271" stroke-width="0.5" stroke="black" fill="cyan"/>
  <circle cx="478.151" cy="424.167" r="5.05167" stroke-width="0.5" stroke="black" fill="cyan"/>
   </g>
   <g id="cell55">
  <circle cx="529.577" cy="459.99" r="8.40427" stroke-width="0.5" stroke="black" fill="cyan"/>
  <circle cx="529.577" cy="459.99" r="5.04906" stroke-width="0.5" stroke="black" fill="cyan"/>
   </g>
   <g id="cell56">
  <circle cx="630.527" cy="521.668" r="8.40683" stroke-width="0.5" stroke="black" fill="cyan"/>
  <circle cx="630.527" cy="521.668" r="5.04993" stroke-width="0.5" stroke="black" fill="cyan"/>
   </g>
   <g id="cell57">
  <circle cx="418.095" cy="612.346" r="6.80881" stroke-width="0.5" stroke="black" fill="cyan"/>
  <circle cx="418.095" cy="612.346" r="4.10709" stroke-width="0.5" stroke="black" fill="cyan"/>
   </g>
   <g id="cell58">
  <circle cx="551.018" cy="478.95" r="2.5701" stroke-width="0.5" stroke="black" fill="cyan"/>
  <circle cx="551.018" cy="478.95" r="2.25579" stroke-width="0.5" stroke="black" fill="black"/>
   </g>
   <g id="cell59">
  <circle cx="384.335" cy="431.394" r="1.94564" stroke-width="0.5" stroke="black" fill="cyan"/>
  <circle cx="384.335" cy="431.394" r="1.85477" stroke-width="0.5" stroke="black" fill="black"/>
   </g>
   <g id="cell60">
  <circle cx="612.379" cy="469.629" r="8.41083" stroke-width="0.5" stroke="black" fill="cyan"/>
  <circle cx="612.379" cy="469.629" r="5.05118" stroke-width="0.5" stroke="black" fill="cyan"/>
   </g>
   <g id="cell121">
  <circle cx="452.862" cy="461.709" r="8.38054" stroke-width="0.5" stroke="black" fill="cyan"/>
  <circle cx="452.862" cy="461.709" r="5.04055" stroke-width="0.5" stroke="black" fill="cyan"/>
   </g>
   <g id="cell62">
  <circle cx="500.676" cy="451.854" r="8.17755" stroke-width="0.5" stroke="black" fill="cyan"/>
  <circle cx="500.676" cy="451.854" r="4.94452" stroke-width="0.5" stroke="black" fill="cyan"/>
   </g>
   <g id="cell63">
  <circle cx="579.915" cy="545.367" r="8.41271" stroke-width="0.5" stroke="black" fill="cyan"/>
  <circle cx="579.915" cy="545.367" r="5.05167" stroke-width="0.5" stroke="black" fill="cyan"/>
   </g>
   <g id="cell64">
  <circle cx="509.799" cy="637.214" r="8.41271" stroke-width="0.5" stroke="black" fill="cyan"/>
  <circle cx="509.799" cy="637.214" r="5.05167" stroke-width="0.5" stroke="black" fill="cyan"/>
   </g>
   <g id="cell65">
  <circle cx="544.339" cy="466.096" r="8.41271" stroke-width="0.5" stroke="black" fill="cyan"/>
  <circle cx="544.339" cy="466.096" r="5.05167" stroke-width="0.5" stroke="black" fill="cyan"/>
   </g>
   <g id="cell66">
  <circle cx="524.113" cy="520.885" r="7.31826" stroke-width="0.5" stroke="black" fill="cyan"/>
  <circle cx="524.113" cy="520.885" r="4.45602" stroke-width="0.5" stroke="black" fill="cyan"/>
   </g>
   <g id="cell67">
  <circle cx="354.782" cy="492.513" r="8.41271" stroke-width="0.5" stroke="black" fill="cyan"/>
  <circle cx="354.782" cy="492.513" r="5.05167" stroke-width="0.5" stroke="black" fill="cyan"/>
   </g>
   <g id="cell68">
  <circle cx="566.728" cy="554.45" r="8.41271" stroke-width="0.5" stroke="black" fill="cyan"/>
  <circle cx="566.728" cy="554.45" r="5.05167" stroke-width="0.5" stroke="black" fill="cyan"/>
   </g>
   <g id="cell69">
  <circle cx="443.061" cy="449.127" r="8.38054" stroke-width="0.5" stroke="black" fill="cyan"/>
  <circle cx="443.061" cy="449.127" r="5.04055" stroke-width="0.5" stroke="black" fill="cyan"/>
   </g>
   <g id="cell70">
  <circle cx="587.528" cy="478.69" r="7.6561" stroke-width="0.5" stroke="black" fill="cyan"/>
  <circle cx="587.528" cy="478.69" r="4.65289" stroke-width="0.5" stroke="black" fill="cyan"/>
   </g>
   <g id="cell71">
  <circle cx="374.762" cy="515.16" r="8.41271" stroke-width="0.5" stroke="black" fill="cyan"/>
  <circle cx="374.762" cy="515.16" r="5.05167" stroke-width="0.5" stroke="black" fill="cyan"/>
   </g>
   <g id="cell72">
  <circle cx="539.412" cy="518.85" r="8.41271" stroke-width="0.5" stroke="black" fill="cyan"/>
  <circle cx="539.412" cy="518.85" r="5.05167" stroke-width="0.5" stroke="black" fill="cyan"/>
   </g>
   <g id="cell73">
  <circle cx="356.49" cy="550.242" r="8.38812" stroke-width="0.5" stroke="black" fill="cyan"/>
  <circle cx="356.49" cy="550.242" r="5.04334" stroke-width="0.5" stroke="black" fill="cyan"/>
   </g>
   <g id="cell74">
  <circle cx="542.847" cy="450.196" r="8.41271" stroke-width="0.5" stroke="black" fill="cyan"/>
  <circle cx="542.847" cy="450.196" r="5.05167" stroke-width="0.5" stroke="black" fill="cyan"/>
   </g>
   <g id="cell75">
  <circle cx="595.032" cy="494.382" r="7.24049" stroke-width="0.5" stroke="black" fill="magenta"/>
  <circle cx="595.032" cy="494.382" r="4.39877" stroke-width="0.5" stroke="black" fill="magenta"/>
   </g>
   <g id="cell76">
  <circle cx="648.429" cy="533.544" r="7.56777" stroke-width="0.5" stroke="black" fill="green"/>
  <circle cx="648.429" cy="533.544" r="4.59981" stroke-width="0.5" stroke="black" fill="green"/>
   </g>
   <g id="cell77">
  <circle cx="504.814" cy="509.912" r="8.39318" stroke-width="0.5" stroke="black" fill="green"/>
  <circle cx="504.814" cy="509.912" r="5.0451" stroke-width="0.5" stroke="black" fill="green"/>
   </g>
   <g id="cell78">
  <circle cx="363.747" cy="568.778" r="8.40869" stroke-width="0.5" stroke="black" fill="magenta"/>
  <circle cx="363.747" cy="568.778" r="5.05056" stroke-width="0.5" stroke="black" fill="magenta"/>
   </g>
   <g id="cell79">
  <circle cx="538.628" cy="571.426" r="8.34875" stroke-width="0.5" stroke="black" fill="green"/>
  <circle cx="538.628" cy="571.426" r="5.02694" stroke-width="0.5" stroke="black" fill="green"/>
   </g>
   <g id="cell80">
  <circle cx="457.703" cy="601.812" r="7.79485" stroke-width="0.5" stroke="black" fill="magenta"/>
  <circle cx="457.703" cy="601.812" r="4.73337" stroke-width="0.5" stroke="black" fill="magenta"/>
   </g>
   <g id="cell81">
  <circle cx="395.525" cy="617.171" r="8.40395" stroke-width="0.5" stroke="black" fill="cyan"/>
  <circle cx="395.525" cy="617.171" r="5.04902" stroke-width="0.5" stroke="black" fill="cyan"/>
   </g>
   <g id="cell82">
  <circle cx="597.148" cy="467.373" r="7.87444" stroke-width="0.5" stroke="black" fill="cyan"/>
  <circle cx="597.148" cy="467.373" r="4.7797" stroke-width="0.5" stroke="black" fill="cyan"/>
   </g>
   <g id="cell83">
  <circle cx="547.326" cy="597.315" r="8.41028" stroke-width="0.5" stroke="black" fill="green"/>
  <circle cx="547.326" cy="597.315" r="5.05104" stroke-width="0.5" stroke="black" fill="green"/>
   </g>
   <g id="cell84">
  <circle cx="490.087" cy="580.121" r="8.41036" stroke-width="0.5" stroke="black" fill="green"/>
  <circle cx="490.087" cy="580.121" r="5.05104" stroke-width="0.5" stroke="black" fill="green"/>
   </g>
   <g id="cell85">
  <circle cx="611.007" cy="497.611" r="6.88253" stroke-width="0.5" stroke="black" fill="magenta"/>
  <circle cx="611.007" cy="497.611" r="4.19275" stroke-width="0.5" stroke="black" fill="magenta"/>
   </g>
   <g id="cell86">
  <circle cx="525.429" cy="597.831" r="6.98802" stroke-width="0.5" stroke="black" fill="green"/>
  <circle cx="525.429" cy="597.831" r="4.23421" stroke-width="0.5" stroke="black" fill="green"/>
   </g>
   <g id="cell87">
  <circle cx="589.934" cy="610.083" r="8.12031" stroke-width="0.5" stroke="black" fill="magenta"/>
  <circle cx="589.934" cy="610.083" r="4.91415" stroke-width="0.5" stroke="black" fill="magenta"/>
   </g>
   <g id="cell88">
  <circle cx="371.633" cy="554.798" r="8.38621" stroke-width="0.5" stroke="black" fill="magenta"/>
  <circle cx="371.633" cy="554.798" r="5.04257" stroke-width="0.5" stroke="black" fill="magenta"/>
   </g>
   <g id="cell89">
  <circle cx="541.992" cy="407.77" r="8.40618" stroke-width="0.5" stroke="black" fill="green"/>
  <circle cx="541.992" cy="407.77" r="5.04979" stroke-width="0.5" stroke="black" fill="green"/>
   </g>
   <g id="cell90">
  <circle cx="562.562" cy="481.784" r="8.379" stroke-width="0.5" stroke="black" fill="cyan"/>
  <circle cx="562.562" cy="481.784" r="5.03971" stroke-width="0.5" stroke="black" fill="cyan"/>
   </g>
   <g id="cell91">
  <circle cx="541.465" cy="391.956" r="8.40618" stroke-width="0.5" stroke="black" fill="green"/>
  <circle cx="541.465" cy="391.956" r="5.04979" stroke-width="0.5" stroke="black" fill="green"/>
   </g>
   <g id="cell92">
  <circle cx="641.962" cy="569.845" r="8.40696" stroke-width="0.5" stroke="black" fill="green"/>
  <circle cx="641.962" cy="569.845" r="5.05001" stroke-width="0.5" stroke="black" fill="green"/>
   </g>
   <g id="cell93">
  <circle cx="368.079" cy="539.163" r="8.40731" stroke-width="0.5" stroke="black" fill="cyan"/>
  <circle cx="368.079" cy="539.163" r="5.05008" stroke-width="0.5" stroke="black" fill="cyan"/>
   </g>
   <g id="cell94">
  <circle cx="615.305" cy="526.559" r="8.40683" stroke-width="0.5" stroke="black" fill="cyan"/>
  <circle cx="615.305" cy="526.559" r="5.04993" stroke-width="0.5" stroke="black" fill="cyan"/>
   </g>
   <g id="cell95">
  <circle cx="576.889" cy="584.601" r="8.40511" stroke-width="0.5" stroke="black" fill="magenta"/>
  <circle cx="576.889" cy="584.601" r="5.04944" stroke-width="0.5" stroke="black" fill="magenta"/>
   </g>
   <g id="cell96">
  <circle cx="602.267" cy="481.817" r="8.40556" stroke-width="0.5" stroke="black" fill="cyan"/>
  <circle cx="602.267" cy="481.817" r="5.04957" stroke-width="0.5" stroke="black" fill="cyan"/>
   </g>
   <g id="cell97">
  <circle cx="623.043" cy="546.823" r="8.40307" stroke-width="0.5" stroke="black" fill="green"/>
  <circle cx="623.043" cy="546.823" r="5.0488" stroke-width="0.5" stroke="black" fill="green"/>
   </g>
   <g id="cell98">
  <circle cx="599.763" cy="523.253" r="8.4055" stroke-width="0.5" stroke="black" fill="magenta"/>
  <circle cx="599.763" cy="523.253" r="5.04952" stroke-width="0.5" stroke="black" fill="magenta"/>
   </g>
   <g id="cell99">
  <circle cx="573.874" cy="423.771" r="8.40472" stroke-width="0.5" stroke="black" fill="cyan"/>
  <circle cx="573.874" cy="423.771" r="5.04922" stroke-width="0.5" stroke="black" fill="cyan"/>
   </g>
   <g id="cell100">
  <circle cx="375.47" cy="595.556" r="8.38361" stroke-width="0.5" stroke="black" fill="cyan"/>
  <circle cx="375.47" cy="595.556" r="5.04189" stroke-width="0.5" stroke="black" fill="cyan"/>
   </g>
   <g id="cell101">
  <circle cx="540.379" cy="434.746" r="8.16087" stroke-width="0.5" stroke="black" fill="cyan"/>
  <circle cx="540.379" cy="434.746" r="4.93888" stroke-width="0.5" stroke="black" fill="cyan"/>
   </g>
   <g id="cell102">
  <circle cx="503.583" cy="473.672" r="8.33481" stroke-width="0.5" stroke="black" fill="cyan"/>
  <circle cx="503.583" cy="473.672" r="5.02102" stroke-width="0.5" stroke="black" fill="cyan"/>
   </g>
   <g id="cell103">
  <circle cx="468.517" cy="532.7" r="8.33508" stroke-width="0.5" stroke="black" fill="magenta"/>
  <circle cx="468.517" cy="532.7" r="5.0223" stroke-width="0.5" stroke="black" fill="magenta"/>
   </g>
   <g id="cell104">
  <circle cx="405.528" cy="605.529" r="3.1139" stroke-width="0.5" stroke="black" fill="cyan"/>
  <circle cx="405.528" cy="605.529" r="2.51697" stroke-width="0.5" stroke="black" fill="black"/>
   </g>
   <g id="cell105">
  <circle cx="513.488" cy="461.382" r="8.40215" stroke-width="0.5" stroke="black" fill="magenta"/>
  <circle cx="513.488" cy="461.382" r="5.04833" stroke-width="0.5" stroke="black" fill="magenta"/>
   </g>
   <g id="cell106">
  <circle cx="436.182" cy="403.161" r="8.40056" stroke-width="0.5" stroke="black" fill="magenta"/>
  <circle cx="436.182" cy="403.161" r="5.04776" stroke-width="0.5" stroke="black" fill="magenta"/>
   </g>
   <g id="cell107">
  <circle cx="422.614" cy="457.671" r="8.37745" stroke-width="0.5" stroke="black" fill="cyan"/>
  <circle cx="422.614" cy="457.671" r="5.03933" stroke-width="0.5" stroke="black" fill="cyan"/>
   </g>
   <g id="cell108">
  <circle cx="523.604" cy="381.211" r="8.39664" stroke-width="0.5" stroke="black" fill="magenta"/>
  <circle cx="523.604" cy="381.211" r="5.04633" stroke-width="0.5" stroke="black" fill="magenta"/>
   </g>
   <g id="cell110">
  <circle cx="518.93" cy="395.215" r="7.19348" stroke-width="0.5" stroke="black" fill="magenta"/>
  <circle cx="518.93" cy="395.215" r="4.37335" stroke-width="0.5" stroke="black" fill="magenta"/>
   </g>
   <g id="cell111">
  <circle cx="515.813" cy="498.314" r="8.35445" stroke-width="0.5" stroke="black" fill="green"/>
  <circle cx="515.813" cy="498.314" r="5.0305" stroke-width="0.5" stroke="black" fill="green"/>
   </g>
   <g id="cell112">
  <circle cx="400.774" cy="585.94" r="7.83539" stroke-width="0.5" stroke="black" fill="cyan"/>
  <circle cx="400.774" cy="585.94" r="4.75894" stroke-width="0.5" stroke="black" fill="cyan"/>
   </g>
   <g id="cell113">
  <circle cx="340.855" cy="547.313" r="8.38812" stroke-width="0.5" stroke="black" fill="cyan"/>
  <circle cx="340.855" cy="547.313" r="5.04334" stroke-width="0.5" stroke="black" fill="cyan"/>
   </g>
   <g id="cell114">
  <circle cx="381.061" cy="610.436" r="8.37561" stroke-width="0.5" stroke="black" fill="cyan"/>
  <circle cx="381.061" cy="610.436" r="5.03899" stroke-width="0.5" stroke="black" fill="cyan"/>
   </g>
   <g id="cell115">
  <circle cx="391.368" cy="598.332" r="8.37561" stroke-width="0.5" stroke="black" fill="cyan"/>
  <circle cx="391.368" cy="598.332" r="5.03899" stroke-width="0.5" stroke="black" fill="cyan"/>
   </g>
   <g id="cell116">
  <circle cx="399.251" cy="540.225" r="8.38891" stroke-width="0.5" stroke="black" fill="green"/>
  <circle cx="399.251" cy="540.225" r="5.0434" stroke-width="0.5" stroke="black" fill="green"/>
   </g>
   <g id="cell117">
  <circle cx="379.454" cy="569.417" r="8.36873" stroke-width="0.5" stroke="black" fill="magenta"/>
  <circle cx="379.454" cy="569.417" r="5.03611" stroke-width="0.5" stroke="black" fill="magenta"/>
   </g>
   <g id="cell118">
  <circle cx="398.974" cy="436.993" r="8.3792" stroke-width="0.5" stroke="black" fill="cyan"/>
  <circle cx="398.974" cy="436.993" r="5.04009" stroke-width="0.5" stroke="black" fill="cyan"/>
   </g>
   <g id="cell119">
  <circle cx="570.679" cy="515.813" r="8.38391" stroke-width="0.5" stroke="black" fill="magenta"/>
  <circle cx="570.679" cy="515.813" r="5.04178" stroke-width="0.5" stroke="black" fill="magenta"/>
   </g>
   <g id="cell120">
  <circle cx="503.764" cy="489.035" r="7.98171" stroke-width="0.5" stroke="black" fill="green"/>
  <circle cx="503.764" cy="489.035" r="4.84254" stroke-width="0.5" stroke="black" fill="green"/>
   </g>
   <g id="cell122">
  <circle cx="447.848" cy="484.385" r="6.86349" stroke-width="0.5" stroke="black" fill="cyan"/>
  <circle cx="447.848" cy="484.385" r="4.19342" stroke-width="0.5" stroke="black" fill="cyan"/>
   </g>
   <g id="cell123">
  <circle cx="385.512" cy="556.992" r="6.77525" stroke-width="0.5" stroke="black" fill="magenta"/>
  <circle cx="385.512" cy="556.992" r="4.09501" stroke-width="0.5" stroke="black" fill="magenta"/>
   </g>
   <g id="cell125">
  <circle cx="531.901" cy="475.85" r="8.37537" stroke-width="0.5" stroke="black" fill="magenta"/>
  <circle cx="531.901" cy="475.85" r="5.03798" stroke-width="0.5" stroke="black" fill="magenta"/>
   </g>
   <g id="cell127">
  <circle cx="439.467" cy="533.917" r="8.36271" stroke-width="0.5" stroke="black" fill="magenta"/>
  <circle cx="439.467" cy="533.917" r="5.03318" stroke-width="0.5" stroke="black" fill="magenta"/>
   </g>
   <g id="cell128">
  <circle cx="546.78" cy="421.689" r="7.43575" stroke-width="0.5" stroke="black" fill="cyan"/>
  <circle cx="546.78" cy="421.689" r="4.52698" stroke-width="0.5" stroke="black" fill="cyan"/>
   </g>
   <g id="cell129">
  <circle cx="492.276" cy="519.808" r="8.36268" stroke-width="0.5" stroke="black" fill="green"/>
  <circle cx="492.276" cy="519.808" r="5.03275" stroke-width="0.5" stroke="black" fill="green"/>
   </g>
   <g id="cell130">
  <circle cx="454.231" cy="538.32" r="5.15227" stroke-width="0.5" stroke="black" fill="magenta"/>
  <circle cx="454.231" cy="538.32" r="3.40556" stroke-width="0.5" stroke="black" fill="black"/>
   </g>
   <g id="cell131">
  <circle cx="534.928" cy="586.933" r="8.34875" stroke-width="0.5" stroke="black" fill="green"/>
  <circle cx="534.928" cy="586.933" r="5.02694" stroke-width="0.5" stroke="black" fill="green"/>
   </g>
   <g id="cell132">
  <circle cx="402.716" cy="454.078" r="8.08765" stroke-width="0.5" stroke="black" fill="green"/>
  <circle cx="402.716" cy="454.078" r="4.90107" stroke-width="0.5" stroke="black" fill="green"/>
   </g>
   <g id="cell133">
  <circle cx="546.433" cy="532.678" r="7.74037" stroke-width="0.5" stroke="black" fill="cyan"/>
  <circle cx="546.433" cy="532.678" r="4.70825" stroke-width="0.5" stroke="black" fill="cyan"/>
   </g>
   <g id="cell134">
  <circle cx="517.335" cy="481.901" r="8.33481" stroke-width="0.5" stroke="black" fill="cyan"/>
  <circle cx="517.335" cy="481.901" r="5.02102" stroke-width="0.5" stroke="black" fill="cyan"/>
   </g>
   <g id="cell135">
  <circle cx="409.416" cy="561.581" r="8.19906" stroke-width="0.5" stroke="black" fill="green"/>
  <circle cx="409.416" cy="561.581" r="4.95875" stroke-width="0.5" stroke="black" fill="green"/>
   </g>
   <g id="cell136">
  <circle cx="455.865" cy="508.393" r="8.09581" stroke-width="0.5" stroke="black" fill="green"/>
  <circle cx="455.865" cy="508.393" r="4.90971" stroke-width="0.5" stroke="black" fill="green"/>
   </g>
   <g id="cell137">
  <circle cx="532.07" cy="624.85" r="8.31976" stroke-width="0.5" stroke="black" fill="green"/>
  <circle cx="532.07" cy="624.85" r="5.01369" stroke-width="0.5" stroke="black" fill="green"/>
   </g>
   <g id="cell138">
  <circle cx="432.83" cy="418.707" r="8.30587" stroke-width="0.5" stroke="black" fill="magenta"/>
  <circle cx="432.83" cy="418.707" r="5.00801" stroke-width="0.5" stroke="black" fill="magenta"/>
   </g>
   <g id="cell139">
  <circle cx="568.311" cy="467.393" r="8.28893" stroke-width="0.5" stroke="black" fill="cyan"/>
  <circle cx="568.311" cy="467.393" r="5.00112" stroke-width="0.5" stroke="black" fill="cyan"/>
   </g>
   <g id="cell140">
  <circle cx="451.117" cy="523.218" r="8.24863" stroke-width="0.5" stroke="black" fill="green"/>
  <circle cx="451.117" cy="523.218" r="4.98299" stroke-width="0.5" stroke="black" fill="green"/>
   </g>
   <g id="cell141">
  <circle cx="420.82" cy="550.981" r="8.19906" stroke-width="0.5" stroke="black" fill="green"/>
  <circle cx="420.82" cy="550.981" r="4.95875" stroke-width="0.5" stroke="black" fill="green"/>
   </g>
   <g id="cell142">
  <circle cx="600.853" cy="507.669" r="8.21689" stroke-width="0.5" stroke="black" fill="magenta"/>
  <circle cx="600.853" cy="507.669" r="4.96407" stroke-width="0.5" stroke="black" fill="magenta"/>
   </g>
   <g id="cell143">
  <circle cx="525.06" cy="434.542" r="8.16087" stroke-width="0.5" stroke="black" fill="cyan"/>
  <circle cx="525.06" cy="434.542" r="4.93888" stroke-width="0.5" stroke="black" fill="cyan"/>
   </g>
   <g id="cell144">
  <circle cx="514.886" cy="445.879" r="8.17755" stroke-width="0.5" stroke="black" fill="cyan"/>
  <circle cx="514.886" cy="445.879" r="4.94452" stroke-width="0.5" stroke="black" fill="cyan"/>
   </g>
   <g id="cell145">
  <circle cx="468.15" cy="517.3" r="7.92722" stroke-width="0.5" stroke="black" fill="green"/>
  <circle cx="468.15" cy="517.3" r="4.82495" stroke-width="0.5" stroke="black" fill="green"/>
   </g>
   <g id="cell146">
  <circle cx="423.716" cy="473.192" r="8.1609" stroke-width="0.5" stroke="black" fill="green"/>
  <circle cx="423.716" cy="473.192" r="4.93506" stroke-width="0.5" stroke="black" fill="green"/>
   </g>
   <g id="cell147">
  <circle cx="383.23" cy="543.358" r="8.13813" stroke-width="0.5" stroke="black" fill="magenta"/>
  <circle cx="383.23" cy="543.358" r="4.92317" stroke-width="0.5" stroke="black" fill="magenta"/>
   </g>
   <g id="cell148">
  <circle cx="588.902" cy="594.701" r="8.12031" stroke-width="0.5" stroke="black" fill="magenta"/>
  <circle cx="588.902" cy="594.701" r="4.91415" stroke-width="0.5" stroke="black" fill="magenta"/>
   </g>
   <g id="cell149">
  <circle cx="529.686" cy="491.401" r="8.10181" stroke-width="0.5" stroke="black" fill="magenta"/>
  <circle cx="529.686" cy="491.401" r="4.90714" stroke-width="0.5" stroke="black" fill="magenta"/>
   </g>
   <g id="cell150">
  <circle cx="409.684" cy="467.529" r="8.08765" stroke-width="0.5" stroke="black" fill="green"/>
  <circle cx="409.684" cy="467.529" r="4.90107" stroke-width="0.5" stroke="black" fill="green"/>
   </g>
   <g id="cell151">
  <circle cx="437.169" cy="463.66" r="8.09435" stroke-width="0.5" stroke="black" fill="cyan"/>
  <circle cx="437.169" cy="463.66" r="4.90332" stroke-width="0.5" stroke="black" fill="cyan"/>
   </g>
   <g id="cell152">
  <circle cx="469.852" cy="502.342" r="7.92722" stroke-width="0.5" stroke="black" fill="green"/>
  <circle cx="469.852" cy="502.342" r="4.82495" stroke-width="0.5" stroke="black" fill="green"/>
   </g>
   <g id="cell153">
  <circle cx="543.668" cy="485.677" r="7.90036" stroke-width="0.5" stroke="black" fill="magenta"/>
  <circle cx="543.668" cy="485.677" r="4.80765" stroke-width="0.5" stroke="black" fill="magenta"/>
   </g>
   <g id="cell154">
  <circle cx="488.821" cy="488.552" r="7.98171" stroke-width="0.5" stroke="black" fill="green"/>
  <circle cx="488.821" cy="488.552" r="4.84254" stroke-width="0.5" stroke="black" fill="green"/>
   </g>
   <g id="cell155">
  <circle cx="485.255" cy="626.133" r="7.97646" stroke-width="0.5" stroke="black" fill="green"/>
  <circle cx="485.255" cy="626.133" r="4.83584" stroke-width="0.5" stroke="black" fill="green"/>
   </g>
   <g id="cell156">
  <circle cx="537.706" cy="544.944" r="7.97646" stroke-width="0.5" stroke="black" fill="magenta"/>
  <circle cx="537.706" cy="544.944" r="4.83584" stroke-width="0.5" stroke="black" fill="magenta"/>
   </g>
   <g id="cell157">
  <circle cx="390.544" cy="463.574" r="7.94105" stroke-width="0.5" stroke="black" fill="green"/>
  <circle cx="390.544" cy="463.574" r="4.82175" stroke-width="0.5" stroke="black" fill="green"/>
   </g>
   <g id="cell158">
  <circle cx="602.159" cy="587.218" r="7.91862" stroke-width="0.5" stroke="black" fill="magenta"/>
  <circle cx="602.159" cy="587.218" r="4.80467" stroke-width="0.5" stroke="black" fill="magenta"/>
   </g>
   <g id="cell159">
  <circle cx="585.717" cy="451.065" r="7.87444" stroke-width="0.5" stroke="black" fill="cyan"/>
  <circle cx="585.717" cy="451.065" r="4.7797" stroke-width="0.5" stroke="black" fill="cyan"/>
   </g>
   <g id="cell160">
  <circle cx="415.19" cy="582.759" r="7.83539" stroke-width="0.5" stroke="black" fill="cyan"/>
  <circle cx="415.19" cy="582.759" r="4.75894" stroke-width="0.5" stroke="black" fill="cyan"/>
   </g>
   <g id="cell161">
  <circle cx="448.121" cy="613.086" r="7.79485" stroke-width="0.5" stroke="black" fill="magenta"/>
  <circle cx="448.121" cy="613.086" r="4.73337" stroke-width="0.5" stroke="black" fill="magenta"/>
   </g>
   <g id="cell162">
  <circle cx="570.575" cy="449.364" r="7.79099" stroke-width="0.5" stroke="black" fill="cyan"/>
  <circle cx="570.575" cy="449.364" r="4.73209" stroke-width="0.5" stroke="black" fill="cyan"/>
   </g>
   <g id="cell163">
  <circle cx="561.063" cy="533.915" r="7.74037" stroke-width="0.5" stroke="black" fill="cyan"/>
  <circle cx="561.063" cy="533.915" r="4.70825" stroke-width="0.5" stroke="black" fill="cyan"/>
   </g>
   <g id="cell164">
  <circle cx="576.494" cy="487.98" r="7.75912" stroke-width="0.5" stroke="black" fill="magenta"/>
  <circle cx="576.494" cy="487.98" r="4.71248" stroke-width="0.5" stroke="black" fill="magenta"/>
   </g>
   <g id="cell165">
  <circle cx="582.835" cy="465.183" r="7.6561" stroke-width="0.5" stroke="black" fill="cyan"/>
  <circle cx="582.835" cy="465.183" r="4.65289" stroke-width="0.5" stroke="black" fill="cyan"/>
   </g>
   <g id="cell166">
  <circle cx="650.486" cy="547.754" r="7.56777" stroke-width="0.5" stroke="black" fill="green"/>
  <circle cx="650.486" cy="547.754" r="4.59981" stroke-width="0.5" stroke="black" fill="green"/>
   </g>
   <g id="cell167">
  <circle cx="541.403" cy="499.899" r="7.20529" stroke-width="0.5" stroke="black" fill="magenta"/>
  <circle cx="541.403" cy="499.899" r="4.41923" stroke-width="0.5" stroke="black" fill="magenta"/>
   </g>
   <g id="cell168">
  <circle cx="559.461" cy="427.005" r="7.43575" stroke-width="0.5" stroke="black" fill="cyan"/>
  <circle cx="559.461" cy="427.005" r="4.52698" stroke-width="0.5" stroke="black" fill="cyan"/>
   </g>
   <g id="cell169">
  <circle cx="532.221" cy="531.797" r="7.31826" stroke-width="0.5" stroke="black" fill="cyan"/>
  <circle cx="532.221" cy="531.797" r="4.45602" stroke-width="0.5" stroke="black" fill="cyan"/>
   </g>
   <g id="cell170">
  <circle cx="527.605" cy="610.931" r="7.30216" stroke-width="0.5" stroke="black" fill="green"/>
  <circle cx="527.605" cy="610.931" r="4.43696" stroke-width="0.5" stroke="black" fill="green"/>
   </g>
   <g id="cell172">
  <circle cx="510.361" cy="405.816" r="7.19348" stroke-width="0.5" stroke="black" fill="magenta"/>
  <circle cx="510.361" cy="405.816" r="4.37335" stroke-width="0.5" stroke="black" fill="magenta"/>
   </g>
   <g id="cell173">
  <circle cx="514.811" cy="612.335" r="6.44151" stroke-width="0.5" stroke="black" fill="green"/>
  <circle cx="514.811" cy="612.335" r="3.95311" stroke-width="0.5" stroke="black" fill="green"/>
   </g>
   <g id="cell174">
  <circle cx="422.956" cy="396.71" r="7.08639" stroke-width="0.5" stroke="black" fill="green"/>
  <circle cx="422.956" cy="396.71" r="4.29876" stroke-width="0.5" stroke="black" fill="green"/>
   </g>
   <g id="cell175">
  <circle cx="436.841" cy="477.79" r="6.86349" stroke-width="0.5" stroke="black" fill="cyan"/>
  <circle cx="436.841" cy="477.79" r="4.19342" stroke-width="0.5" stroke="black" fill="cyan"/>
   </g>
   <g id="cell176">
  <circle cx="622.56" cy="503.688" r="6.88253" stroke-width="0.5" stroke="black" fill="magenta"/>
  <circle cx="622.56" cy="503.688" r="4.19275" stroke-width="0.5" stroke="black" fill="magenta"/>
   </g>
   <g id="cell177">
  <circle cx="519.782" cy="586.06" r="6.98802" stroke-width="0.5" stroke="black" fill="green"/>
  <circle cx="519.782" cy="586.06" r="4.23421" stroke-width="0.5" stroke="black" fill="green"/>
   </g>
   <g id="cell178">
  <circle cx="554.752" cy="546.174" r="6.86652" stroke-width="0.5" stroke="black" fill="green"/>
  <circle cx="554.752" cy="546.174" r="4.14883" stroke-width="0.5" stroke="black" fill="green"/>
   </g>
   <g id="cell179">
  <circle cx="412.608" cy="624.101" r="6.80881" stroke-width="0.5" stroke="black" fill="cyan"/>
  <circle cx="412.608" cy="624.101" r="4.10709" stroke-width="0.5" stroke="black" fill="cyan"/>
   </g>
   <g id="cell180">
  <circle cx="397.587" cy="554.288" r="6.77525" stroke-width="0.5" stroke="black" fill="magenta"/>
  <circle cx="397.587" cy="554.288" r="4.09501" stroke-width="0.5" stroke="black" fill="magenta"/>
   </g>
  </g>
 </g>
  <rect x="775" y="1035" width="200" height="10" stroke-width="2" stroke="rgb(255,255,255)" fill="rgb(0,0,0)"/>
  <text x="781.25" y="1028.75"
   font-family="Arial" font-size="25" fill="black" >
   200 &#956;m
  </text>
  <text x="25" y="1045"
   font-family="Arial" font-size="18.75" fill="black" >
   0 days, 0 hours, 0 minutes, and 38.3373 seconds
  </text>
  <rect x="0" y="70" width="1000" height="1000" stroke-width="2" stroke="rgb(0,0,0)" fill="none"/>
</svg>
