<?xml version="1.0" encoding="UTF-8" standalone="no"?>
<!-- Created with PhysiCell (http://PhysiCell.MathCancer.org/) -->
<svg 
 xmlns:dc="http://purl.org/dc/elements/1.1/" 
 xmlns:cc="http://creativecommons.org/ns#" 
 xmlns:rdf="http://www.w3.org/1999/02/22-rdf-syntax-ns#" 
 xmlns:svg="http://www.w3.org/2000/svg" 
 xmlns="http://www.w3.org/2000/svg" 
 version="1.1" 
 width="1000" 
 height="1070" 
 id="svg2">
  <rect x="0" y="0" width="1000" height="1070" stroke-width="2" stroke="white" fill="white"/>
  <text x="12.5" y="30"
   font-family="Arial" font-size="25" fill="black" >
   Current time: 0 days, 20 hours, and 0.00 minutes, z = 0.00 &#956;m
  </text>
  <text x="12.5" y="57.5"
   font-family="Arial" font-size="23.75" fill="black" >
   139 agents
  </text>
 <g id="tissue" 
    transform="translate(0,1070) scale(1,-1)">
  <g id="ECM">
  </g>
  <g id="cells">
   <g id="cell0">
  <circle cx="514.31" cy="530.507" r="8.41271" stroke-width="0.5" stroke="black" fill="magenta"/>
  <circle cx="514.31" cy="530.507" r="5.05167" stroke-width="0.5" stroke="black" fill="magenta"/>
   </g>
   <g id="cell1">
  <circle cx="601.523" cy="533.734" r="8.41271" stroke-width="0.5" stroke="black" fill="magenta"/>
  <circle cx="601.523" cy="533.734" r="5.05167" stroke-width="0.5" stroke="black" fill="magenta"/>
   </g>
   <g id="cell2">
  <circle cx="508.447" cy="601.707" r="8.41271" stroke-width="0.5" stroke="black" fill="magenta"/>
  <circle cx="508.447" cy="601.707" r="5.05167" stroke-width="0.5" stroke="black" fill="magenta"/>
   </g>
   <g id="cell3">
  <circle cx="533.072" cy="544.104" r="8.41271" stroke-width="0.5" stroke="black" fill="magenta"/>
  <circle cx="533.072" cy="544.104" r="5.05167" stroke-width="0.5" stroke="black" fill="magenta"/>
   </g>
   <g id="cell4">
  <circle cx="481.375" cy="439.863" r="8.41271" stroke-width="0.5" stroke="black" fill="magenta"/>
  <circle cx="481.375" cy="439.863" r="5.05167" stroke-width="0.5" stroke="black" fill="magenta"/>
   </g>
   <g id="cell5">
  <circle cx="465.032" cy="493.3" r="8.41271" stroke-width="0.5" stroke="black" fill="magenta"/>
  <circle cx="465.032" cy="493.3" r="5.05167" stroke-width="0.5" stroke="black" fill="magenta"/>
   </g>
   <g id="cell6">
  <circle cx="586.048" cy="513.703" r="8.13205" stroke-width="0.5" stroke="black" fill="magenta"/>
  <circle cx="586.048" cy="513.703" r="4.92474" stroke-width="0.5" stroke="black" fill="magenta"/>
   </g>
   <g id="cell7">
  <circle cx="500.864" cy="460.07" r="2.69065" stroke-width="0.5" stroke="black" fill="magenta"/>
  <circle cx="500.864" cy="460.07" r="2.31156" stroke-width="0.5" stroke="black" fill="black"/>
   </g>
   <g id="cell8">
  <circle cx="383.459" cy="540.289" r="8.41271" stroke-width="0.5" stroke="black" fill="magenta"/>
  <circle cx="383.459" cy="540.289" r="5.05167" stroke-width="0.5" stroke="black" fill="magenta"/>
   </g>
   <g id="cell9">
  <circle cx="465.241" cy="595.15" r="8.40022" stroke-width="0.5" stroke="black" fill="magenta"/>
  <circle cx="465.241" cy="595.15" r="5.04764" stroke-width="0.5" stroke="black" fill="magenta"/>
   </g>
   <g id="cell10">
  <circle cx="583.447" cy="392.105" r="8.41271" stroke-width="0.5" stroke="black" fill="magenta"/>
  <circle cx="583.447" cy="392.105" r="5.05167" stroke-width="0.5" stroke="black" fill="magenta"/>
   </g>
   <g id="cell11">
  <circle cx="595.876" cy="584.079" r="8.34093" stroke-width="0.5" stroke="black" fill="magenta"/>
  <circle cx="595.876" cy="584.079" r="5.02433" stroke-width="0.5" stroke="black" fill="magenta"/>
   </g>
   <g id="cell12">
  <circle cx="505.832" cy="585.894" r="8.41271" stroke-width="0.5" stroke="black" fill="magenta"/>
  <circle cx="505.832" cy="585.894" r="5.05167" stroke-width="0.5" stroke="black" fill="magenta"/>
   </g>
   <g id="cell13">
  <circle cx="398.387" cy="568.727" r="8.40244" stroke-width="0.5" stroke="black" fill="magenta"/>
  <circle cx="398.387" cy="568.727" r="5.04843" stroke-width="0.5" stroke="black" fill="magenta"/>
   </g>
   <g id="cell109">
  <circle cx="375.165" cy="443.829" r="8.23948" stroke-width="0.5" stroke="black" fill="cyan"/>
  <circle cx="375.165" cy="443.829" r="4.97503" stroke-width="0.5" stroke="black" fill="cyan"/>
   </g>
   <g id="cell15">
  <circle cx="379.896" cy="475.017" r="8.41271" stroke-width="0.5" stroke="black" fill="magenta"/>
  <circle cx="379.896" cy="475.017" r="5.05167" stroke-width="0.5" stroke="black" fill="magenta"/>
   </g>
   <g id="cell16">
  <circle cx="421.22" cy="427.135" r="7.34109" stroke-width="0.5" stroke="black" fill="magenta"/>
  <circle cx="421.22" cy="427.135" r="4.47505" stroke-width="0.5" stroke="black" fill="magenta"/>
   </g>
   <g id="cell17">
  <circle cx="572.856" cy="492.293" r="8.41271" stroke-width="0.5" stroke="black" fill="magenta"/>
  <circle cx="572.856" cy="492.293" r="5.05167" stroke-width="0.5" stroke="black" fill="magenta"/>
   </g>
   <g id="cell18">
  <circle cx="509.099" cy="385.824" r="8.14924" stroke-width="0.5" stroke="black" fill="magenta"/>
  <circle cx="509.099" cy="385.824" r="4.93496" stroke-width="0.5" stroke="black" fill="magenta"/>
   </g>
   <g id="cell19">
  <circle cx="453.851" cy="554.116" r="8.32788" stroke-width="0.5" stroke="black" fill="magenta"/>
  <circle cx="453.851" cy="554.116" r="5.01729" stroke-width="0.5" stroke="black" fill="magenta"/>
   </g>
   <g id="cell20">
  <circle cx="531.833" cy="418.811" r="8.41271" stroke-width="0.5" stroke="black" fill="magenta"/>
  <circle cx="531.833" cy="418.811" r="5.05167" stroke-width="0.5" stroke="black" fill="magenta"/>
   </g>
   <g id="cell21">
  <circle cx="464.212" cy="634.718" r="8.41271" stroke-width="0.5" stroke="black" fill="magenta"/>
  <circle cx="464.212" cy="634.718" r="5.05167" stroke-width="0.5" stroke="black" fill="magenta"/>
   </g>
   <g id="cell22">
  <circle cx="557.141" cy="494.433" r="8.41271" stroke-width="0.5" stroke="black" fill="magenta"/>
  <circle cx="557.141" cy="494.433" r="5.05167" stroke-width="0.5" stroke="black" fill="magenta"/>
   </g>
   <g id="cell23">
  <circle cx="541.604" cy="494.169" r="8.04604" stroke-width="0.5" stroke="black" fill="magenta"/>
  <circle cx="541.604" cy="494.169" r="4.87399" stroke-width="0.5" stroke="black" fill="magenta"/>
   </g>
   <g id="cell124">
  <circle cx="557.569" cy="456.356" r="7.1465" stroke-width="0.5" stroke="black" fill="cyan"/>
  <circle cx="557.569" cy="456.356" r="4.37159" stroke-width="0.5" stroke="black" fill="cyan"/>
   </g>
   <g id="cell25">
  <circle cx="639.115" cy="553.08" r="8.32143" stroke-width="0.5" stroke="black" fill="green"/>
  <circle cx="639.115" cy="553.08" r="5.01641" stroke-width="0.5" stroke="black" fill="green"/>
   </g>
   <g id="cell26">
  <circle cx="556.759" cy="400.012" r="8.3784" stroke-width="0.5" stroke="black" fill="green"/>
  <circle cx="556.759" cy="400.012" r="5.03921" stroke-width="0.5" stroke="black" fill="green"/>
   </g>
   <g id="cell27">
  <circle cx="457.446" cy="388.678" r="8.41271" stroke-width="0.5" stroke="black" fill="green"/>
  <circle cx="457.446" cy="388.678" r="5.05167" stroke-width="0.5" stroke="black" fill="green"/>
   </g>
   <g id="cell28">
  <circle cx="427.006" cy="527.374" r="8.41271" stroke-width="0.5" stroke="black" fill="green"/>
  <circle cx="427.006" cy="527.374" r="5.05167" stroke-width="0.5" stroke="black" fill="green"/>
   </g>
   <g id="cell29">
  <circle cx="444.52" cy="509.101" r="7.54436" stroke-width="0.5" stroke="black" fill="green"/>
  <circle cx="444.52" cy="509.101" r="4.58555" stroke-width="0.5" stroke="black" fill="green"/>
   </g>
   <g id="cell126">
  <circle cx="530.017" cy="503.379" r="7.82676" stroke-width="0.5" stroke="black" fill="green"/>
  <circle cx="530.017" cy="503.379" r="4.77059" stroke-width="0.5" stroke="black" fill="green"/>
   </g>
   <g id="cell31">
  <circle cx="416.224" cy="538.986" r="8.18177" stroke-width="0.5" stroke="black" fill="green"/>
  <circle cx="416.224" cy="538.986" r="4.94584" stroke-width="0.5" stroke="black" fill="green"/>
   </g>
   <g id="cell32">
  <circle cx="421.469" cy="479.95" r="8.41271" stroke-width="0.5" stroke="black" fill="green"/>
  <circle cx="421.469" cy="479.95" r="5.05167" stroke-width="0.5" stroke="black" fill="green"/>
   </g>
   <g id="cell33">
  <circle cx="494.145" cy="423.184" r="8.41271" stroke-width="0.5" stroke="black" fill="green"/>
  <circle cx="494.145" cy="423.184" r="5.05167" stroke-width="0.5" stroke="black" fill="green"/>
   </g>
   <g id="cell34">
  <circle cx="393.335" cy="453.712" r="7.77763" stroke-width="0.5" stroke="black" fill="green"/>
  <circle cx="393.335" cy="453.712" r="4.7232" stroke-width="0.5" stroke="black" fill="green"/>
   </g>
   <g id="cell35">
  <circle cx="548.612" cy="547.652" r="8.41271" stroke-width="0.5" stroke="black" fill="green"/>
  <circle cx="548.612" cy="547.652" r="5.05167" stroke-width="0.5" stroke="black" fill="green"/>
   </g>
   <g id="cell36">
  <circle cx="388.58" cy="581.251" r="8.41271" stroke-width="0.5" stroke="black" fill="green"/>
  <circle cx="388.58" cy="581.251" r="5.05167" stroke-width="0.5" stroke="black" fill="green"/>
   </g>
   <g id="cell37">
  <circle cx="634.871" cy="460.618" r="8.41271" stroke-width="0.5" stroke="black" fill="green"/>
  <circle cx="634.871" cy="460.618" r="5.05167" stroke-width="0.5" stroke="black" fill="green"/>
   </g>
   <g id="cell38">
  <circle cx="542.353" cy="612.351" r="7.48809" stroke-width="0.5" stroke="black" fill="green"/>
  <circle cx="542.353" cy="612.351" r="4.5533" stroke-width="0.5" stroke="black" fill="green"/>
   </g>
   <g id="cell39">
  <circle cx="614.618" cy="486.526" r="8.41271" stroke-width="0.5" stroke="black" fill="green"/>
  <circle cx="614.618" cy="486.526" r="5.05167" stroke-width="0.5" stroke="black" fill="green"/>
   </g>
   <g id="cell40">
  <circle cx="482.319" cy="566.66" r="8.39083" stroke-width="0.5" stroke="black" fill="green"/>
  <circle cx="482.319" cy="566.66" r="5.04414" stroke-width="0.5" stroke="black" fill="green"/>
   </g>
   <g id="cell41">
  <circle cx="364.751" cy="480.251" r="8.41271" stroke-width="0.5" stroke="black" fill="green"/>
  <circle cx="364.751" cy="480.251" r="5.05167" stroke-width="0.5" stroke="black" fill="green"/>
   </g>
   <g id="cell42">
  <circle cx="439.075" cy="495.027" r="8.41271" stroke-width="0.5" stroke="black" fill="green"/>
  <circle cx="439.075" cy="495.027" r="5.05167" stroke-width="0.5" stroke="black" fill="green"/>
   </g>
   <g id="cell43">
  <circle cx="558.934" cy="441.84" r="8.41271" stroke-width="0.5" stroke="black" fill="green"/>
  <circle cx="558.934" cy="441.84" r="5.05167" stroke-width="0.5" stroke="black" fill="green"/>
   </g>
   <g id="cell44">
  <circle cx="476.013" cy="623.877" r="8.41271" stroke-width="0.5" stroke="black" fill="green"/>
  <circle cx="476.013" cy="623.877" r="5.05167" stroke-width="0.5" stroke="black" fill="green"/>
   </g>
   <g id="cell45">
  <circle cx="424.232" cy="562.658" r="7.63698" stroke-width="0.5" stroke="black" fill="green"/>
  <circle cx="424.232" cy="562.658" r="4.64085" stroke-width="0.5" stroke="black" fill="green"/>
   </g>
   <g id="cell46">
  <circle cx="519.689" cy="613.126" r="8.41271" stroke-width="0.5" stroke="black" fill="green"/>
  <circle cx="519.689" cy="613.126" r="5.05167" stroke-width="0.5" stroke="black" fill="green"/>
   </g>
   <g id="cell47">
  <circle cx="490.007" cy="504.111" r="7.91758" stroke-width="0.5" stroke="black" fill="green"/>
  <circle cx="490.007" cy="504.111" r="4.80426" stroke-width="0.5" stroke="black" fill="green"/>
   </g>
   <g id="cell48">
  <circle cx="563.91" cy="603.055" r="8.41271" stroke-width="0.5" stroke="black" fill="green"/>
  <circle cx="563.91" cy="603.055" r="5.05167" stroke-width="0.5" stroke="black" fill="green"/>
   </g>
   <g id="cell49">
  <circle cx="428.085" cy="390.079" r="8.41271" stroke-width="0.5" stroke="black" fill="green"/>
  <circle cx="428.085" cy="390.079" r="5.05167" stroke-width="0.5" stroke="black" fill="green"/>
   </g>
   <g id="cell50">
  <circle cx="521.695" cy="516.237" r="8.41271" stroke-width="0.5" stroke="black" fill="cyan"/>
  <circle cx="521.695" cy="516.237" r="5.05167" stroke-width="0.5" stroke="black" fill="cyan"/>
   </g>
   <g id="cell51">
  <circle cx="416.825" cy="594.836" r="8.22175" stroke-width="0.5" stroke="black" fill="cyan"/>
  <circle cx="416.825" cy="594.836" r="4.96744" stroke-width="0.5" stroke="black" fill="cyan"/>
   </g>
   <g id="cell52">
  <circle cx="520.289" cy="429.744" r="8.41271" stroke-width="0.5" stroke="black" fill="cyan"/>
  <circle cx="520.289" cy="429.744" r="5.05167" stroke-width="0.5" stroke="black" fill="cyan"/>
   </g>
   <g id="cell53">
  <circle cx="574.842" cy="439.612" r="8.33699" stroke-width="0.5" stroke="black" fill="cyan"/>
  <circle cx="574.842" cy="439.612" r="5.02141" stroke-width="0.5" stroke="black" fill="cyan"/>
   </g>
   <g id="cell54">
  <circle cx="478.151" cy="424.167" r="8.41271" stroke-width="0.5" stroke="black" fill="cyan"/>
  <circle cx="478.151" cy="424.167" r="5.05167" stroke-width="0.5" stroke="black" fill="cyan"/>
   </g>
   <g id="cell55">
  <circle cx="530.149" cy="465.982" r="8.33257" stroke-width="0.5" stroke="black" fill="cyan"/>
  <circle cx="530.149" cy="465.982" r="5.01941" stroke-width="0.5" stroke="black" fill="cyan"/>
   </g>
   <g id="cell56">
  <circle cx="630.723" cy="521.613" r="8.35727" stroke-width="0.5" stroke="black" fill="cyan"/>
  <circle cx="630.723" cy="521.613" r="5.03034" stroke-width="0.5" stroke="black" fill="cyan"/>
   </g>
   <g id="cell57">
  <circle cx="416.285" cy="616.806" r="8.41271" stroke-width="0.5" stroke="black" fill="cyan"/>
  <circle cx="416.285" cy="616.806" r="5.05167" stroke-width="0.5" stroke="black" fill="cyan"/>
   </g>
   <g id="cell58">
  <circle cx="548.724" cy="480.548" r="8.41271" stroke-width="0.5" stroke="black" fill="cyan"/>
  <circle cx="548.724" cy="480.548" r="5.05167" stroke-width="0.5" stroke="black" fill="cyan"/>
   </g>
   <g id="cell59">
  <circle cx="384.223" cy="431.217" r="8.08416" stroke-width="0.5" stroke="black" fill="cyan"/>
  <circle cx="384.223" cy="431.217" r="4.90207" stroke-width="0.5" stroke="black" fill="cyan"/>
   </g>
   <g id="cell60">
  <circle cx="607.102" cy="472.624" r="8.39523" stroke-width="0.5" stroke="black" fill="cyan"/>
  <circle cx="607.102" cy="472.624" r="5.04581" stroke-width="0.5" stroke="black" fill="cyan"/>
   </g>
   <g id="cell121">
  <circle cx="452.72" cy="463.732" r="8.09787" stroke-width="0.5" stroke="black" fill="cyan"/>
  <circle cx="452.72" cy="463.732" r="4.9083" stroke-width="0.5" stroke="black" fill="cyan"/>
   </g>
   <g id="cell62">
  <circle cx="517.06" cy="445.157" r="8.33699" stroke-width="0.5" stroke="black" fill="cyan"/>
  <circle cx="517.06" cy="445.157" r="5.02141" stroke-width="0.5" stroke="black" fill="cyan"/>
   </g>
   <g id="cell63">
  <circle cx="578.484" cy="546.158" r="8.41271" stroke-width="0.5" stroke="black" fill="cyan"/>
  <circle cx="578.484" cy="546.158" r="5.05167" stroke-width="0.5" stroke="black" fill="cyan"/>
   </g>
   <g id="cell64">
  <circle cx="509.962" cy="636.825" r="8.41271" stroke-width="0.5" stroke="black" fill="cyan"/>
  <circle cx="509.962" cy="636.825" r="5.05167" stroke-width="0.5" stroke="black" fill="cyan"/>
   </g>
   <g id="cell65">
  <circle cx="545.831" cy="464.981" r="8.41271" stroke-width="0.5" stroke="black" fill="cyan"/>
  <circle cx="545.831" cy="464.981" r="5.05167" stroke-width="0.5" stroke="black" fill="cyan"/>
   </g>
   <g id="cell66">
  <circle cx="529.635" cy="529.245" r="7.77763" stroke-width="0.5" stroke="black" fill="cyan"/>
  <circle cx="529.635" cy="529.245" r="4.7232" stroke-width="0.5" stroke="black" fill="cyan"/>
   </g>
   <g id="cell67">
  <circle cx="354.64" cy="492.683" r="8.41271" stroke-width="0.5" stroke="black" fill="cyan"/>
  <circle cx="354.64" cy="492.683" r="5.05167" stroke-width="0.5" stroke="black" fill="cyan"/>
   </g>
   <g id="cell68">
  <circle cx="563.815" cy="552.558" r="8.41271" stroke-width="0.5" stroke="black" fill="cyan"/>
  <circle cx="563.815" cy="552.558" r="5.05167" stroke-width="0.5" stroke="black" fill="cyan"/>
   </g>
   <g id="cell69">
  <circle cx="439.904" cy="455.117" r="8.09787" stroke-width="0.5" stroke="black" fill="cyan"/>
  <circle cx="439.904" cy="455.117" r="4.9083" stroke-width="0.5" stroke="black" fill="cyan"/>
   </g>
   <g id="cell70">
  <circle cx="578.734" cy="477.04" r="8.37208" stroke-width="0.5" stroke="black" fill="cyan"/>
  <circle cx="578.734" cy="477.04" r="5.03661" stroke-width="0.5" stroke="black" fill="cyan"/>
   </g>
   <g id="cell71">
  <circle cx="377.722" cy="521.022" r="8.41271" stroke-width="0.5" stroke="black" fill="cyan"/>
  <circle cx="377.722" cy="521.022" r="5.05167" stroke-width="0.5" stroke="black" fill="cyan"/>
   </g>
   <g id="cell72">
  <circle cx="537.957" cy="516.434" r="8.41271" stroke-width="0.5" stroke="black" fill="cyan"/>
  <circle cx="537.957" cy="516.434" r="5.05167" stroke-width="0.5" stroke="black" fill="cyan"/>
   </g>
   <g id="cell73">
  <circle cx="355.145" cy="550.274" r="8.17416" stroke-width="0.5" stroke="black" fill="cyan"/>
  <circle cx="355.145" cy="550.274" r="4.94536" stroke-width="0.5" stroke="black" fill="cyan"/>
   </g>
   <g id="cell74">
  <circle cx="544.663" cy="449.056" r="8.41271" stroke-width="0.5" stroke="black" fill="cyan"/>
  <circle cx="544.663" cy="449.056" r="5.05167" stroke-width="0.5" stroke="black" fill="cyan"/>
   </g>
   <g id="cell75">
  <circle cx="587.131" cy="497.376" r="8.38597" stroke-width="0.5" stroke="black" fill="magenta"/>
  <circle cx="587.131" cy="497.376" r="5.04259" stroke-width="0.5" stroke="black" fill="magenta"/>
   </g>
   <g id="cell76">
  <circle cx="648.083" cy="539.93" r="8.40353" stroke-width="0.5" stroke="black" fill="green"/>
  <circle cx="648.083" cy="539.93" r="5.04881" stroke-width="0.5" stroke="black" fill="green"/>
   </g>
   <g id="cell77">
  <circle cx="507.461" cy="509.322" r="8.22431" stroke-width="0.5" stroke="black" fill="green"/>
  <circle cx="507.461" cy="509.322" r="4.96836" stroke-width="0.5" stroke="black" fill="green"/>
   </g>
   <g id="cell78">
  <circle cx="367.647" cy="567.863" r="8.37511" stroke-width="0.5" stroke="black" fill="magenta"/>
  <circle cx="367.647" cy="567.863" r="5.03834" stroke-width="0.5" stroke="black" fill="magenta"/>
   </g>
   <g id="cell79">
  <circle cx="538.31" cy="572.741" r="7.77558" stroke-width="0.5" stroke="black" fill="green"/>
  <circle cx="538.31" cy="572.741" r="4.72647" stroke-width="0.5" stroke="black" fill="green"/>
   </g>
   <g id="cell80">
  <circle cx="453.769" cy="606.302" r="8.40022" stroke-width="0.5" stroke="black" fill="magenta"/>
  <circle cx="453.769" cy="606.302" r="5.04764" stroke-width="0.5" stroke="black" fill="magenta"/>
   </g>
   <g id="cell81">
  <circle cx="395.015" cy="617.155" r="8.32968" stroke-width="0.5" stroke="black" fill="cyan"/>
  <circle cx="395.015" cy="617.155" r="5.019" stroke-width="0.5" stroke="black" fill="cyan"/>
   </g>
   <g id="cell82">
  <circle cx="590.034" cy="465.929" r="8.34519" stroke-width="0.5" stroke="black" fill="cyan"/>
  <circle cx="590.034" cy="465.929" r="5.02596" stroke-width="0.5" stroke="black" fill="cyan"/>
   </g>
   <g id="cell83">
  <circle cx="545.627" cy="597.694" r="8.39008" stroke-width="0.5" stroke="black" fill="green"/>
  <circle cx="545.627" cy="597.694" r="5.04418" stroke-width="0.5" stroke="black" fill="green"/>
   </g>
   <g id="cell84">
  <circle cx="490.899" cy="580.142" r="8.39083" stroke-width="0.5" stroke="black" fill="green"/>
  <circle cx="490.899" cy="580.142" r="5.04414" stroke-width="0.5" stroke="black" fill="green"/>
   </g>
   <g id="cell85">
  <circle cx="608.709" cy="499.209" r="6.712" stroke-width="0.5" stroke="black" fill="magenta"/>
  <circle cx="608.709" cy="499.209" r="4.04327" stroke-width="0.5" stroke="black" fill="magenta"/>
   </g>
   <g id="cell86">
  <circle cx="523.89" cy="597.769" r="8.3782" stroke-width="0.5" stroke="black" fill="green"/>
  <circle cx="523.89" cy="597.769" r="5.03989" stroke-width="0.5" stroke="black" fill="green"/>
   </g>
   <g id="cell87">
  <circle cx="590.671" cy="599.135" r="8.38682" stroke-width="0.5" stroke="black" fill="magenta"/>
  <circle cx="590.671" cy="599.135" r="5.04258" stroke-width="0.5" stroke="black" fill="magenta"/>
   </g>
   <g id="cell88">
  <circle cx="375.2" cy="553.925" r="8.15515" stroke-width="0.5" stroke="black" fill="magenta"/>
  <circle cx="375.2" cy="553.925" r="4.93523" stroke-width="0.5" stroke="black" fill="magenta"/>
   </g>
   <g id="cell89">
  <circle cx="546.086" cy="411.789" r="8.35119" stroke-width="0.5" stroke="black" fill="green"/>
  <circle cx="546.086" cy="411.789" r="5.02882" stroke-width="0.5" stroke="black" fill="green"/>
   </g>
   <g id="cell90">
  <circle cx="563.775" cy="480.291" r="8.08264" stroke-width="0.5" stroke="black" fill="cyan"/>
  <circle cx="563.775" cy="480.291" r="4.89719" stroke-width="0.5" stroke="black" fill="cyan"/>
   </g>
   <g id="cell91">
  <circle cx="541.176" cy="396.661" r="8.35119" stroke-width="0.5" stroke="black" fill="green"/>
  <circle cx="541.176" cy="396.661" r="5.02882" stroke-width="0.5" stroke="black" fill="green"/>
   </g>
   <g id="cell92">
  <circle cx="641.664" cy="568.747" r="8.35855" stroke-width="0.5" stroke="black" fill="green"/>
  <circle cx="641.664" cy="568.747" r="5.03143" stroke-width="0.5" stroke="black" fill="green"/>
   </g>
   <g id="cell93">
  <circle cx="367.441" cy="540.412" r="8.36178" stroke-width="0.5" stroke="black" fill="cyan"/>
  <circle cx="367.441" cy="540.412" r="5.03227" stroke-width="0.5" stroke="black" fill="cyan"/>
   </g>
   <g id="cell94">
  <circle cx="615.213" cy="524.555" r="8.35727" stroke-width="0.5" stroke="black" fill="cyan"/>
  <circle cx="615.213" cy="524.555" r="5.03034" stroke-width="0.5" stroke="black" fill="cyan"/>
   </g>
   <g id="cell95">
  <circle cx="580.276" cy="587.064" r="8.34093" stroke-width="0.5" stroke="black" fill="magenta"/>
  <circle cx="580.276" cy="587.064" r="5.02433" stroke-width="0.5" stroke="black" fill="magenta"/>
   </g>
   <g id="cell96">
  <circle cx="593.871" cy="481.506" r="8.34519" stroke-width="0.5" stroke="black" fill="cyan"/>
  <circle cx="593.871" cy="481.506" r="5.02596" stroke-width="0.5" stroke="black" fill="cyan"/>
   </g>
   <g id="cell97">
  <circle cx="624.308" cy="547.459" r="8.32143" stroke-width="0.5" stroke="black" fill="green"/>
  <circle cx="624.308" cy="547.459" r="5.01641" stroke-width="0.5" stroke="black" fill="green"/>
   </g>
   <g id="cell98">
  <circle cx="600.988" cy="518.43" r="8.34455" stroke-width="0.5" stroke="black" fill="magenta"/>
  <circle cx="600.988" cy="518.43" r="5.02534" stroke-width="0.5" stroke="black" fill="magenta"/>
   </g>
   <g id="cell99">
  <circle cx="564.817" cy="427.244" r="8.33699" stroke-width="0.5" stroke="black" fill="cyan"/>
  <circle cx="564.817" cy="427.244" r="5.02141" stroke-width="0.5" stroke="black" fill="cyan"/>
   </g>
   <g id="cell100">
  <circle cx="376.638" cy="593.646" r="8.12918" stroke-width="0.5" stroke="black" fill="cyan"/>
  <circle cx="376.638" cy="593.646" r="4.92638" stroke-width="0.5" stroke="black" fill="cyan"/>
   </g>
   <g id="cell101">
  <circle cx="531.733" cy="440.382" r="7.8945" stroke-width="0.5" stroke="black" fill="cyan"/>
  <circle cx="531.733" cy="440.382" r="4.7966" stroke-width="0.5" stroke="black" fill="cyan"/>
   </g>
   <g id="cell102">
  <circle cx="508.368" cy="473.799" r="7.63194" stroke-width="0.5" stroke="black" fill="cyan"/>
  <circle cx="508.368" cy="473.799" r="4.64639" stroke-width="0.5" stroke="black" fill="cyan"/>
   </g>
   <g id="cell103">
  <circle cx="466.661" cy="531.558" r="7.61876" stroke-width="0.5" stroke="black" fill="magenta"/>
  <circle cx="466.661" cy="531.558" r="4.65497" stroke-width="0.5" stroke="black" fill="magenta"/>
   </g>
   <g id="cell104">
  <circle cx="404.699" cy="604.689" r="8.27539" stroke-width="0.5" stroke="black" fill="cyan"/>
  <circle cx="404.699" cy="604.689" r="4.99594" stroke-width="0.5" stroke="black" fill="cyan"/>
   </g>
   <g id="cell105">
  <circle cx="515.427" cy="460.657" r="8.31209" stroke-width="0.5" stroke="black" fill="magenta"/>
  <circle cx="515.427" cy="460.657" r="5.01002" stroke-width="0.5" stroke="black" fill="magenta"/>
   </g>
   <g id="cell106">
  <circle cx="435.63" cy="404.026" r="8.29667" stroke-width="0.5" stroke="black" fill="magenta"/>
  <circle cx="435.63" cy="404.026" r="5.00279" stroke-width="0.5" stroke="black" fill="magenta"/>
   </g>
   <g id="cell107">
  <circle cx="424.764" cy="464.577" r="8.06657" stroke-width="0.5" stroke="black" fill="cyan"/>
  <circle cx="424.764" cy="464.577" r="4.89195" stroke-width="0.5" stroke="black" fill="cyan"/>
   </g>
   <g id="cell108">
  <circle cx="523.972" cy="381.077" r="8.25826" stroke-width="0.5" stroke="black" fill="magenta"/>
  <circle cx="523.972" cy="381.077" r="4.98429" stroke-width="0.5" stroke="black" fill="magenta"/>
   </g>
   <g id="cell110">
  <circle cx="515.328" cy="400.022" r="8.14924" stroke-width="0.5" stroke="black" fill="magenta"/>
  <circle cx="515.328" cy="400.022" r="4.93496" stroke-width="0.5" stroke="black" fill="magenta"/>
   </g>
   <g id="cell111">
  <circle cx="516.665" cy="497.498" r="7.82676" stroke-width="0.5" stroke="black" fill="green"/>
  <circle cx="516.665" cy="497.498" r="4.77059" stroke-width="0.5" stroke="black" fill="green"/>
   </g>
   <g id="cell112">
  <circle cx="403.629" cy="586.374" r="8.22175" stroke-width="0.5" stroke="black" fill="cyan"/>
  <circle cx="403.629" cy="586.374" r="4.96744" stroke-width="0.5" stroke="black" fill="cyan"/>
   </g>
   <g id="cell113">
  <circle cx="339.907" cy="547.145" r="8.17416" stroke-width="0.5" stroke="black" fill="cyan"/>
  <circle cx="339.907" cy="547.145" r="4.94536" stroke-width="0.5" stroke="black" fill="cyan"/>
   </g>
   <g id="cell114">
  <circle cx="382.294" cy="608.089" r="8.04764" stroke-width="0.5" stroke="black" fill="cyan"/>
  <circle cx="382.294" cy="608.089" r="4.88736" stroke-width="0.5" stroke="black" fill="cyan"/>
   </g>
   <g id="cell115">
  <circle cx="391.764" cy="596.262" r="8.04764" stroke-width="0.5" stroke="black" fill="cyan"/>
  <circle cx="391.764" cy="596.262" r="4.88736" stroke-width="0.5" stroke="black" fill="cyan"/>
   </g>
   <g id="cell116">
  <circle cx="400.999" cy="542.631" r="8.18177" stroke-width="0.5" stroke="black" fill="green"/>
  <circle cx="400.999" cy="542.631" r="4.94584" stroke-width="0.5" stroke="black" fill="green"/>
   </g>
   <g id="cell117">
  <circle cx="383.007" cy="566.974" r="7.97671" stroke-width="0.5" stroke="black" fill="magenta"/>
  <circle cx="383.007" cy="566.974" r="4.84815" stroke-width="0.5" stroke="black" fill="magenta"/>
   </g>
   <g id="cell118">
  <circle cx="397.357" cy="439.195" r="8.08416" stroke-width="0.5" stroke="black" fill="cyan"/>
  <circle cx="397.357" cy="439.195" r="4.90207" stroke-width="0.5" stroke="black" fill="cyan"/>
   </g>
   <g id="cell119">
  <circle cx="571.677" cy="507.934" r="8.13205" stroke-width="0.5" stroke="black" fill="magenta"/>
  <circle cx="571.677" cy="507.934" r="4.92474" stroke-width="0.5" stroke="black" fill="magenta"/>
   </g>
   <g id="cell120">
  <circle cx="504.928" cy="488.196" r="8.06917" stroke-width="0.5" stroke="black" fill="green"/>
  <circle cx="504.928" cy="488.196" r="4.89493" stroke-width="0.5" stroke="black" fill="green"/>
   </g>
   <g id="cell122">
  <circle cx="438.905" cy="470.448" r="8.06657" stroke-width="0.5" stroke="black" fill="cyan"/>
  <circle cx="438.905" cy="470.448" r="4.89195" stroke-width="0.5" stroke="black" fill="cyan"/>
   </g>
   <g id="cell123">
  <circle cx="390.463" cy="554.019" r="7.97671" stroke-width="0.5" stroke="black" fill="magenta"/>
  <circle cx="390.463" cy="554.019" r="4.84815" stroke-width="0.5" stroke="black" fill="magenta"/>
   </g>
   <g id="cell125">
  <circle cx="533.494" cy="481.139" r="8.04604" stroke-width="0.5" stroke="black" fill="magenta"/>
  <circle cx="533.494" cy="481.139" r="4.87399" stroke-width="0.5" stroke="black" fill="magenta"/>
   </g>
   <g id="cell127">
  <circle cx="441.738" cy="531.754" r="7.91651" stroke-width="0.5" stroke="black" fill="magenta"/>
  <circle cx="441.738" cy="531.754" r="4.80936" stroke-width="0.5" stroke="black" fill="magenta"/>
   </g>
   <g id="cell128">
  <circle cx="545.225" cy="433.642" r="7.8945" stroke-width="0.5" stroke="black" fill="cyan"/>
  <circle cx="545.225" cy="433.642" r="4.7966" stroke-width="0.5" stroke="black" fill="cyan"/>
   </g>
   <g id="cell129">
  <circle cx="495.2" cy="518.249" r="7.91758" stroke-width="0.5" stroke="black" fill="green"/>
  <circle cx="495.2" cy="518.249" r="4.80426" stroke-width="0.5" stroke="black" fill="green"/>
   </g>
   <g id="cell130">
  <circle cx="454.397" cy="539.065" r="7.61876" stroke-width="0.5" stroke="black" fill="magenta"/>
  <circle cx="454.397" cy="539.065" r="4.65497" stroke-width="0.5" stroke="black" fill="magenta"/>
   </g>
   <g id="cell131">
  <circle cx="534.666" cy="586.977" r="7.77558" stroke-width="0.5" stroke="black" fill="green"/>
  <circle cx="534.666" cy="586.977" r="4.72647" stroke-width="0.5" stroke="black" fill="green"/>
   </g>
   <g id="cell132">
  <circle cx="406.61" cy="460.208" r="7.77763" stroke-width="0.5" stroke="black" fill="green"/>
  <circle cx="406.61" cy="460.208" r="4.7232" stroke-width="0.5" stroke="black" fill="green"/>
   </g>
   <g id="cell133">
  <circle cx="543.884" cy="532.968" r="7.77763" stroke-width="0.5" stroke="black" fill="cyan"/>
  <circle cx="543.884" cy="532.968" r="4.7232" stroke-width="0.5" stroke="black" fill="cyan"/>
   </g>
   <g id="cell134">
  <circle cx="519.071" cy="483.273" r="7.63194" stroke-width="0.5" stroke="black" fill="cyan"/>
  <circle cx="519.071" cy="483.273" r="4.64639" stroke-width="0.5" stroke="black" fill="cyan"/>
   </g>
   <g id="cell135">
  <circle cx="403.474" cy="556.029" r="6.25408" stroke-width="0.5" stroke="black" fill="green"/>
  <circle cx="403.474" cy="556.029" r="3.81951" stroke-width="0.5" stroke="black" fill="green"/>
   </g>
   <g id="cell136">
  <circle cx="457.938" cy="511.16" r="6.67111" stroke-width="0.5" stroke="black" fill="green"/>
  <circle cx="457.938" cy="511.16" r="4.09305" stroke-width="0.5" stroke="black" fill="green"/>
   </g>
   <g id="cell137">
  <circle cx="531.934" cy="621.944" r="7.48809" stroke-width="0.5" stroke="black" fill="green"/>
  <circle cx="531.934" cy="621.944" r="4.5533" stroke-width="0.5" stroke="black" fill="green"/>
   </g>
   <g id="cell138">
  <circle cx="431.968" cy="418.35" r="7.34109" stroke-width="0.5" stroke="black" fill="magenta"/>
  <circle cx="431.968" cy="418.35" r="4.47505" stroke-width="0.5" stroke="black" fill="magenta"/>
   </g>
   <g id="cell139">
  <circle cx="566.431" cy="466.432" r="7.1465" stroke-width="0.5" stroke="black" fill="cyan"/>
  <circle cx="566.431" cy="466.432" r="4.37159" stroke-width="0.5" stroke="black" fill="cyan"/>
   </g>
   <g id="cell140">
  <circle cx="450.383" cy="521.164" r="6.67111" stroke-width="0.5" stroke="black" fill="green"/>
  <circle cx="450.383" cy="521.164" r="4.09305" stroke-width="0.5" stroke="black" fill="green"/>
   </g>
   <g id="cell141">
  <circle cx="414.806" cy="553.592" r="6.25408" stroke-width="0.5" stroke="black" fill="green"/>
  <circle cx="414.806" cy="553.592" r="3.81951" stroke-width="0.5" stroke="black" fill="green"/>
   </g>
   <g id="cell142">
  <circle cx="598.028" cy="505.301" r="6.712" stroke-width="0.5" stroke="black" fill="magenta"/>
  <circle cx="598.028" cy="505.301" r="4.04327" stroke-width="0.5" stroke="black" fill="magenta"/>
   </g>
  </g>
 </g>
  <rect x="775" y="1035" width="200" height="10" stroke-width="2" stroke="rgb(255,255,255)" fill="rgb(0,0,0)"/>
  <text x="781.25" y="1028.75"
   font-family="Arial" font-size="25" fill="black" >
   200 &#956;m
  </text>
  <text x="25" y="1045"
   font-family="Arial" font-size="18.75" fill="black" >
   0 days, 0 hours, 0 minutes, and 27.2420 seconds
  </text>
  <rect x="0" y="70" width="1000" height="1000" stroke-width="2" stroke="rgb(0,0,0)" fill="none"/>
</svg>
