<?xml version="1.0" encoding="UTF-8" standalone="no"?>
<!-- Created with PhysiCell (http://PhysiCell.MathCancer.org/) -->
<svg 
 xmlns:dc="http://purl.org/dc/elements/1.1/" 
 xmlns:cc="http://creativecommons.org/ns#" 
 xmlns:rdf="http://www.w3.org/1999/02/22-rdf-syntax-ns#" 
 xmlns:svg="http://www.w3.org/2000/svg" 
 xmlns="http://www.w3.org/2000/svg" 
 version="1.1" 
 width="1000" 
 height="1070" 
 id="svg2">
  <rect x="0" y="0" width="1000" height="1070" stroke-width="2" stroke="white" fill="white"/>
  <text x="12.5" y="30"
   font-family="Arial" font-size="25" fill="black" >
   Current time: 0 days, 6 hours, and 0.00 minutes, z = 0.00 &#956;m
  </text>
  <text x="12.5" y="57.5"
   font-family="Arial" font-size="23.75" fill="black" >
   90 agents
  </text>
 <g id="tissue" 
    transform="translate(0,1070) scale(1,-1)">
  <g id="ECM">
  </g>
  <g id="cells">
   <g id="cell0">
  <circle cx="513.198" cy="530.867" r="8.41271" stroke-width="0.5" stroke="black" fill="magenta"/>
  <circle cx="513.198" cy="530.867" r="5.05167" stroke-width="0.5" stroke="black" fill="magenta"/>
   </g>
   <g id="cell1">
  <circle cx="604.143" cy="530.32" r="8.41271" stroke-width="0.5" stroke="black" fill="magenta"/>
  <circle cx="604.143" cy="530.32" r="5.05167" stroke-width="0.5" stroke="black" fill="magenta"/>
   </g>
   <g id="cell2">
  <circle cx="510.5" cy="600.769" r="8.41271" stroke-width="0.5" stroke="black" fill="magenta"/>
  <circle cx="510.5" cy="600.769" r="5.05167" stroke-width="0.5" stroke="black" fill="magenta"/>
   </g>
   <g id="cell3">
  <circle cx="532.491" cy="545.777" r="8.41271" stroke-width="0.5" stroke="black" fill="magenta"/>
  <circle cx="532.491" cy="545.777" r="5.05167" stroke-width="0.5" stroke="black" fill="magenta"/>
   </g>
   <g id="cell4">
  <circle cx="481.375" cy="439.864" r="8.41271" stroke-width="0.5" stroke="black" fill="magenta"/>
  <circle cx="481.375" cy="439.864" r="5.05167" stroke-width="0.5" stroke="black" fill="magenta"/>
   </g>
   <g id="cell5">
  <circle cx="465.032" cy="493.3" r="8.41271" stroke-width="0.5" stroke="black" fill="magenta"/>
  <circle cx="465.032" cy="493.3" r="5.05167" stroke-width="0.5" stroke="black" fill="magenta"/>
   </g>
   <g id="cell6">
  <circle cx="592.173" cy="512.614" r="7.96365" stroke-width="0.5" stroke="black" fill="magenta"/>
  <circle cx="592.173" cy="512.614" r="4.82873" stroke-width="0.5" stroke="black" fill="magenta"/>
   </g>
   <g id="cell7">
  <circle cx="512.361" cy="464.87" r="8.41271" stroke-width="0.5" stroke="black" fill="magenta"/>
  <circle cx="512.361" cy="464.87" r="5.05167" stroke-width="0.5" stroke="black" fill="magenta"/>
   </g>
   <g id="cell8">
  <circle cx="376.11" cy="544.532" r="8.41271" stroke-width="0.5" stroke="black" fill="magenta"/>
  <circle cx="376.11" cy="544.532" r="5.05167" stroke-width="0.5" stroke="black" fill="magenta"/>
   </g>
   <g id="cell9">
  <circle cx="464.776" cy="595.602" r="7.7401" stroke-width="0.5" stroke="black" fill="magenta"/>
  <circle cx="464.776" cy="595.602" r="4.70142" stroke-width="0.5" stroke="black" fill="magenta"/>
   </g>
   <g id="cell10">
  <circle cx="583.447" cy="392.105" r="8.41271" stroke-width="0.5" stroke="black" fill="magenta"/>
  <circle cx="583.447" cy="392.105" r="5.05167" stroke-width="0.5" stroke="black" fill="magenta"/>
   </g>
   <g id="cell11">
  <circle cx="588.899" cy="585.764" r="7.0545" stroke-width="0.5" stroke="black" fill="magenta"/>
  <circle cx="588.899" cy="585.764" r="4.27772" stroke-width="0.5" stroke="black" fill="magenta"/>
   </g>
   <g id="cell12">
  <circle cx="506.265" cy="585.304" r="8.41271" stroke-width="0.5" stroke="black" fill="magenta"/>
  <circle cx="506.265" cy="585.304" r="5.05167" stroke-width="0.5" stroke="black" fill="magenta"/>
   </g>
   <g id="cell13">
  <circle cx="392.633" cy="568.079" r="7.86286" stroke-width="0.5" stroke="black" fill="magenta"/>
  <circle cx="392.633" cy="568.079" r="4.77207" stroke-width="0.5" stroke="black" fill="magenta"/>
   </g>
   <g id="cell14">
  <circle cx="529.123" cy="395.711" r="2.38423" stroke-width="0.5" stroke="black" fill="magenta"/>
  <circle cx="529.123" cy="395.711" r="2.15073" stroke-width="0.5" stroke="black" fill="black"/>
   </g>
   <g id="cell15">
  <circle cx="379.896" cy="475.017" r="8.41271" stroke-width="0.5" stroke="black" fill="magenta"/>
  <circle cx="379.896" cy="475.017" r="5.05167" stroke-width="0.5" stroke="black" fill="magenta"/>
   </g>
   <g id="cell16">
  <circle cx="428.948" cy="413.428" r="8.41271" stroke-width="0.5" stroke="black" fill="magenta"/>
  <circle cx="428.948" cy="413.428" r="5.05167" stroke-width="0.5" stroke="black" fill="magenta"/>
   </g>
   <g id="cell17">
  <circle cx="572.201" cy="490.846" r="8.41271" stroke-width="0.5" stroke="black" fill="magenta"/>
  <circle cx="572.201" cy="490.846" r="5.05167" stroke-width="0.5" stroke="black" fill="magenta"/>
   </g>
   <g id="cell18">
  <circle cx="516.013" cy="387.86" r="8.41271" stroke-width="0.5" stroke="black" fill="magenta"/>
  <circle cx="516.013" cy="387.86" r="5.05167" stroke-width="0.5" stroke="black" fill="magenta"/>
   </g>
   <g id="cell19">
  <circle cx="451.894" cy="539.462" r="8.41271" stroke-width="0.5" stroke="black" fill="magenta"/>
  <circle cx="451.894" cy="539.462" r="5.05167" stroke-width="0.5" stroke="black" fill="magenta"/>
   </g>
   <g id="cell20">
  <circle cx="532.679" cy="417.672" r="8.41271" stroke-width="0.5" stroke="black" fill="magenta"/>
  <circle cx="532.679" cy="417.672" r="5.05167" stroke-width="0.5" stroke="black" fill="magenta"/>
   </g>
   <g id="cell21">
  <circle cx="464.212" cy="634.718" r="8.41271" stroke-width="0.5" stroke="black" fill="magenta"/>
  <circle cx="464.212" cy="634.718" r="5.05167" stroke-width="0.5" stroke="black" fill="magenta"/>
   </g>
   <g id="cell22">
  <circle cx="556.37" cy="493.324" r="8.41271" stroke-width="0.5" stroke="black" fill="magenta"/>
  <circle cx="556.37" cy="493.324" r="5.05167" stroke-width="0.5" stroke="black" fill="magenta"/>
   </g>
   <g id="cell23">
  <circle cx="535.817" cy="483.253" r="8.41271" stroke-width="0.5" stroke="black" fill="magenta"/>
  <circle cx="535.817" cy="483.253" r="5.05167" stroke-width="0.5" stroke="black" fill="magenta"/>
   </g>
   <g id="cell24">
  <circle cx="559.289" cy="379.784" r="3.9178" stroke-width="0.5" stroke="black" fill="magenta"/>
  <circle cx="559.289" cy="379.784" r="2.85647" stroke-width="0.5" stroke="black" fill="black"/>
   </g>
   <g id="cell25">
  <circle cx="637.018" cy="555.752" r="7.9229" stroke-width="0.5" stroke="black" fill="green"/>
  <circle cx="637.018" cy="555.752" r="4.80599" stroke-width="0.5" stroke="black" fill="green"/>
   </g>
   <g id="cell26">
  <circle cx="555.563" cy="398.649" r="6.75639" stroke-width="0.5" stroke="black" fill="green"/>
  <circle cx="555.563" cy="398.649" r="4.06813" stroke-width="0.5" stroke="black" fill="green"/>
   </g>
   <g id="cell27">
  <circle cx="457.446" cy="388.678" r="8.41271" stroke-width="0.5" stroke="black" fill="green"/>
  <circle cx="457.446" cy="388.678" r="5.05167" stroke-width="0.5" stroke="black" fill="green"/>
   </g>
   <g id="cell28">
  <circle cx="438.497" cy="530.67" r="8.41271" stroke-width="0.5" stroke="black" fill="green"/>
  <circle cx="438.497" cy="530.67" r="5.05167" stroke-width="0.5" stroke="black" fill="green"/>
   </g>
   <g id="cell29">
  <circle cx="449.03" cy="518.594" r="8.41271" stroke-width="0.5" stroke="black" fill="green"/>
  <circle cx="449.03" cy="518.594" r="5.05167" stroke-width="0.5" stroke="black" fill="green"/>
   </g>
   <g id="cell30">
  <circle cx="481.58" cy="540.282" r="5.95973" stroke-width="0.5" stroke="black" fill="green"/>
  <circle cx="481.58" cy="540.282" r="3.76978" stroke-width="0.5" stroke="black" fill="black"/>
   </g>
   <g id="cell31">
  <circle cx="412.757" cy="541.193" r="8.41271" stroke-width="0.5" stroke="black" fill="green"/>
  <circle cx="412.757" cy="541.193" r="5.05167" stroke-width="0.5" stroke="black" fill="green"/>
   </g>
   <g id="cell32">
  <circle cx="425.371" cy="474.829" r="8.41271" stroke-width="0.5" stroke="black" fill="green"/>
  <circle cx="425.371" cy="474.829" r="5.05167" stroke-width="0.5" stroke="black" fill="green"/>
   </g>
   <g id="cell33">
  <circle cx="494.146" cy="423.183" r="8.41271" stroke-width="0.5" stroke="black" fill="green"/>
  <circle cx="494.146" cy="423.183" r="5.05167" stroke-width="0.5" stroke="black" fill="green"/>
   </g>
   <g id="cell34">
  <circle cx="397.088" cy="450.831" r="8.41271" stroke-width="0.5" stroke="black" fill="green"/>
  <circle cx="397.088" cy="450.831" r="5.05167" stroke-width="0.5" stroke="black" fill="green"/>
   </g>
   <g id="cell35">
  <circle cx="548.433" cy="544.239" r="8.41271" stroke-width="0.5" stroke="black" fill="green"/>
  <circle cx="548.433" cy="544.239" r="5.05167" stroke-width="0.5" stroke="black" fill="green"/>
   </g>
   <g id="cell36">
  <circle cx="391.347" cy="583.431" r="8.41271" stroke-width="0.5" stroke="black" fill="green"/>
  <circle cx="391.347" cy="583.431" r="5.05167" stroke-width="0.5" stroke="black" fill="green"/>
   </g>
   <g id="cell37">
  <circle cx="634.871" cy="460.618" r="8.41271" stroke-width="0.5" stroke="black" fill="green"/>
  <circle cx="634.871" cy="460.618" r="5.05167" stroke-width="0.5" stroke="black" fill="green"/>
   </g>
   <g id="cell38">
  <circle cx="538.091" cy="611.965" r="7.86286" stroke-width="0.5" stroke="black" fill="green"/>
  <circle cx="538.091" cy="611.965" r="4.77207" stroke-width="0.5" stroke="black" fill="green"/>
   </g>
   <g id="cell39">
  <circle cx="613.248" cy="490.871" r="8.41271" stroke-width="0.5" stroke="black" fill="green"/>
  <circle cx="613.248" cy="490.871" r="5.05167" stroke-width="0.5" stroke="black" fill="green"/>
   </g>
   <g id="cell40">
  <circle cx="482.775" cy="567.375" r="7.24243" stroke-width="0.5" stroke="black" fill="green"/>
  <circle cx="482.775" cy="567.375" r="4.39934" stroke-width="0.5" stroke="black" fill="green"/>
   </g>
   <g id="cell41">
  <circle cx="364.75" cy="480.251" r="8.41271" stroke-width="0.5" stroke="black" fill="green"/>
  <circle cx="364.75" cy="480.251" r="5.05167" stroke-width="0.5" stroke="black" fill="green"/>
   </g>
   <g id="cell42">
  <circle cx="438.842" cy="494.268" r="8.41271" stroke-width="0.5" stroke="black" fill="green"/>
  <circle cx="438.842" cy="494.268" r="5.05167" stroke-width="0.5" stroke="black" fill="green"/>
   </g>
   <g id="cell43">
  <circle cx="557.884" cy="445.571" r="8.41271" stroke-width="0.5" stroke="black" fill="green"/>
  <circle cx="557.884" cy="445.571" r="5.05167" stroke-width="0.5" stroke="black" fill="green"/>
   </g>
   <g id="cell44">
  <circle cx="476.013" cy="623.877" r="8.41271" stroke-width="0.5" stroke="black" fill="green"/>
  <circle cx="476.013" cy="623.877" r="5.05167" stroke-width="0.5" stroke="black" fill="green"/>
   </g>
   <g id="cell45">
  <circle cx="414.953" cy="557.066" r="8.41271" stroke-width="0.5" stroke="black" fill="green"/>
  <circle cx="414.953" cy="557.066" r="5.05167" stroke-width="0.5" stroke="black" fill="green"/>
   </g>
   <g id="cell46">
  <circle cx="522.659" cy="611.153" r="8.41271" stroke-width="0.5" stroke="black" fill="green"/>
  <circle cx="522.659" cy="611.153" r="5.05167" stroke-width="0.5" stroke="black" fill="green"/>
   </g>
   <g id="cell47">
  <circle cx="496.541" cy="507.84" r="7.90853" stroke-width="0.5" stroke="black" fill="green"/>
  <circle cx="496.541" cy="507.84" r="4.79791" stroke-width="0.5" stroke="black" fill="green"/>
   </g>
   <g id="cell48">
  <circle cx="564.143" cy="603.12" r="8.41271" stroke-width="0.5" stroke="black" fill="green"/>
  <circle cx="564.143" cy="603.12" r="5.05167" stroke-width="0.5" stroke="black" fill="green"/>
   </g>
   <g id="cell49">
  <circle cx="429.837" cy="397.429" r="8.41271" stroke-width="0.5" stroke="black" fill="green"/>
  <circle cx="429.837" cy="397.429" r="5.05167" stroke-width="0.5" stroke="black" fill="green"/>
   </g>
   <g id="cell50">
  <circle cx="520.249" cy="516.496" r="8.41271" stroke-width="0.5" stroke="black" fill="cyan"/>
  <circle cx="520.249" cy="516.496" r="5.05167" stroke-width="0.5" stroke="black" fill="cyan"/>
   </g>
   <g id="cell51">
  <circle cx="402.398" cy="593.882" r="7.63698" stroke-width="0.5" stroke="black" fill="cyan"/>
  <circle cx="402.398" cy="593.882" r="4.64085" stroke-width="0.5" stroke="black" fill="cyan"/>
   </g>
   <g id="cell52">
  <circle cx="521.749" cy="429.433" r="8.41271" stroke-width="0.5" stroke="black" fill="cyan"/>
  <circle cx="521.749" cy="429.433" r="5.05167" stroke-width="0.5" stroke="black" fill="cyan"/>
   </g>
   <g id="cell53">
  <circle cx="570.933" cy="436.264" r="8.41271" stroke-width="0.5" stroke="black" fill="cyan"/>
  <circle cx="570.933" cy="436.264" r="5.05167" stroke-width="0.5" stroke="black" fill="cyan"/>
   </g>
   <g id="cell54">
  <circle cx="478.152" cy="424.167" r="8.41271" stroke-width="0.5" stroke="black" fill="cyan"/>
  <circle cx="478.152" cy="424.167" r="5.05167" stroke-width="0.5" stroke="black" fill="cyan"/>
   </g>
   <g id="cell55">
  <circle cx="527.72" cy="469.432" r="8.41271" stroke-width="0.5" stroke="black" fill="cyan"/>
  <circle cx="527.72" cy="469.432" r="5.05167" stroke-width="0.5" stroke="black" fill="cyan"/>
   </g>
   <g id="cell56">
  <circle cx="617.948" cy="522.184" r="8.41271" stroke-width="0.5" stroke="black" fill="cyan"/>
  <circle cx="617.948" cy="522.184" r="5.05167" stroke-width="0.5" stroke="black" fill="cyan"/>
   </g>
   <g id="cell57">
  <circle cx="416.924" cy="617.466" r="8.41271" stroke-width="0.5" stroke="black" fill="cyan"/>
  <circle cx="416.924" cy="617.466" r="5.05167" stroke-width="0.5" stroke="black" fill="cyan"/>
   </g>
   <g id="cell58">
  <circle cx="551.023" cy="478.215" r="8.41271" stroke-width="0.5" stroke="black" fill="cyan"/>
  <circle cx="551.023" cy="478.215" r="5.05167" stroke-width="0.5" stroke="black" fill="cyan"/>
   </g>
   <g id="cell59">
  <circle cx="385.463" cy="439.803" r="8.41271" stroke-width="0.5" stroke="black" fill="cyan"/>
  <circle cx="385.463" cy="439.803" r="5.05167" stroke-width="0.5" stroke="black" fill="cyan"/>
   </g>
   <g id="cell60">
  <circle cx="600.867" cy="473.402" r="7.46878" stroke-width="0.5" stroke="black" fill="cyan"/>
  <circle cx="600.867" cy="473.402" r="4.53982" stroke-width="0.5" stroke="black" fill="cyan"/>
   </g>
   <g id="cell61">
  <circle cx="552.376" cy="613.284" r="3.11891" stroke-width="0.5" stroke="black" fill="cyan"/>
  <circle cx="552.376" cy="613.284" r="2.51913" stroke-width="0.5" stroke="black" fill="black"/>
   </g>
   <g id="cell62">
  <circle cx="526.484" cy="444.749" r="8.41271" stroke-width="0.5" stroke="black" fill="cyan"/>
  <circle cx="526.484" cy="444.749" r="5.05167" stroke-width="0.5" stroke="black" fill="cyan"/>
   </g>
   <g id="cell63">
  <circle cx="577.817" cy="546.429" r="8.41271" stroke-width="0.5" stroke="black" fill="cyan"/>
  <circle cx="577.817" cy="546.429" r="5.05167" stroke-width="0.5" stroke="black" fill="cyan"/>
   </g>
   <g id="cell64">
  <circle cx="509.962" cy="636.825" r="8.41271" stroke-width="0.5" stroke="black" fill="cyan"/>
  <circle cx="509.962" cy="636.825" r="5.05167" stroke-width="0.5" stroke="black" fill="cyan"/>
   </g>
   <g id="cell65">
  <circle cx="542.925" cy="464.383" r="8.41271" stroke-width="0.5" stroke="black" fill="cyan"/>
  <circle cx="542.925" cy="464.383" r="5.05167" stroke-width="0.5" stroke="black" fill="cyan"/>
   </g>
   <g id="cell66">
  <circle cx="536.115" cy="530.181" r="8.41271" stroke-width="0.5" stroke="black" fill="cyan"/>
  <circle cx="536.115" cy="530.181" r="5.05167" stroke-width="0.5" stroke="black" fill="cyan"/>
   </g>
   <g id="cell67">
  <circle cx="354.64" cy="492.684" r="8.41271" stroke-width="0.5" stroke="black" fill="cyan"/>
  <circle cx="354.64" cy="492.684" r="5.05167" stroke-width="0.5" stroke="black" fill="cyan"/>
   </g>
   <g id="cell68">
  <circle cx="562.669" cy="551.702" r="8.41271" stroke-width="0.5" stroke="black" fill="cyan"/>
  <circle cx="562.669" cy="551.702" r="5.05167" stroke-width="0.5" stroke="black" fill="cyan"/>
   </g>
   <g id="cell69">
  <circle cx="437.64" cy="464.521" r="8.41271" stroke-width="0.5" stroke="black" fill="cyan"/>
  <circle cx="437.64" cy="464.521" r="5.05167" stroke-width="0.5" stroke="black" fill="cyan"/>
   </g>
   <g id="cell70">
  <circle cx="571.773" cy="474.832" r="8.41271" stroke-width="0.5" stroke="black" fill="cyan"/>
  <circle cx="571.773" cy="474.832" r="5.05167" stroke-width="0.5" stroke="black" fill="cyan"/>
   </g>
   <g id="cell71">
  <circle cx="377.712" cy="520.989" r="8.41271" stroke-width="0.5" stroke="black" fill="cyan"/>
  <circle cx="377.712" cy="520.989" r="5.05167" stroke-width="0.5" stroke="black" fill="cyan"/>
   </g>
   <g id="cell72">
  <circle cx="536.079" cy="514.123" r="8.41271" stroke-width="0.5" stroke="black" fill="cyan"/>
  <circle cx="536.079" cy="514.123" r="5.05167" stroke-width="0.5" stroke="black" fill="cyan"/>
   </g>
   <g id="cell73">
  <circle cx="360.142" cy="545.955" r="8.41271" stroke-width="0.5" stroke="black" fill="cyan"/>
  <circle cx="360.142" cy="545.955" r="5.05167" stroke-width="0.5" stroke="black" fill="cyan"/>
   </g>
   <g id="cell74">
  <circle cx="542.1" cy="448.369" r="8.41271" stroke-width="0.5" stroke="black" fill="cyan"/>
  <circle cx="542.1" cy="448.369" r="5.05167" stroke-width="0.5" stroke="black" fill="cyan"/>
   </g>
   <g id="cell75">
  <circle cx="592.004" cy="498.409" r="6.90992" stroke-width="0.5" stroke="black" fill="magenta"/>
  <circle cx="592.004" cy="498.409" r="4.22882" stroke-width="0.5" stroke="black" fill="magenta"/>
   </g>
   <g id="cell76">
  <circle cx="645.536" cy="543.333" r="7.9229" stroke-width="0.5" stroke="black" fill="green"/>
  <circle cx="645.536" cy="543.333" r="4.80599" stroke-width="0.5" stroke="black" fill="green"/>
   </g>
   <g id="cell77">
  <circle cx="511.065" cy="503.998" r="7.90853" stroke-width="0.5" stroke="black" fill="green"/>
  <circle cx="511.065" cy="503.998" r="4.79791" stroke-width="0.5" stroke="black" fill="green"/>
   </g>
   <g id="cell78">
  <circle cx="372.999" cy="568.944" r="6.3908" stroke-width="0.5" stroke="black" fill="magenta"/>
  <circle cx="372.999" cy="568.944" r="3.89458" stroke-width="0.5" stroke="black" fill="magenta"/>
   </g>
   <g id="cell79">
  <circle cx="535.245" cy="586.205" r="6.32962" stroke-width="0.5" stroke="black" fill="green"/>
  <circle cx="535.245" cy="586.205" r="3.90509" stroke-width="0.5" stroke="black" fill="green"/>
   </g>
   <g id="cell80">
  <circle cx="454.234" cy="605.85" r="7.7401" stroke-width="0.5" stroke="black" fill="magenta"/>
  <circle cx="454.234" cy="605.85" r="4.70142" stroke-width="0.5" stroke="black" fill="magenta"/>
   </g>
   <g id="cell81">
  <circle cx="393.538" cy="605.354" r="7.63698" stroke-width="0.5" stroke="black" fill="cyan"/>
  <circle cx="393.538" cy="605.354" r="4.64085" stroke-width="0.5" stroke="black" fill="cyan"/>
   </g>
   <g id="cell82">
  <circle cx="586.739" cy="473.419" r="7.46878" stroke-width="0.5" stroke="black" fill="cyan"/>
  <circle cx="586.739" cy="473.419" r="4.53982" stroke-width="0.5" stroke="black" fill="cyan"/>
   </g>
   <g id="cell83">
  <circle cx="540.062" cy="597.958" r="7.12686" stroke-width="0.5" stroke="black" fill="green"/>
  <circle cx="540.062" cy="597.958" r="4.36525" stroke-width="0.5" stroke="black" fill="green"/>
   </g>
   <g id="cell84">
  <circle cx="489.83" cy="579.193" r="7.24243" stroke-width="0.5" stroke="black" fill="green"/>
  <circle cx="489.83" cy="579.193" r="4.39934" stroke-width="0.5" stroke="black" fill="green"/>
   </g>
   <g id="cell85">
  <circle cx="603.672" cy="504.342" r="6.90992" stroke-width="0.5" stroke="black" fill="magenta"/>
  <circle cx="603.672" cy="504.342" r="4.22882" stroke-width="0.5" stroke="black" fill="magenta"/>
   </g>
   <g id="cell86">
  <circle cx="527.513" cy="595.42" r="6.32962" stroke-width="0.5" stroke="black" fill="green"/>
  <circle cx="527.513" cy="595.42" r="3.90509" stroke-width="0.5" stroke="black" fill="green"/>
   </g>
   <g id="cell87">
  <circle cx="591.373" cy="598.914" r="7.0545" stroke-width="0.5" stroke="black" fill="magenta"/>
  <circle cx="591.373" cy="598.914" r="4.27772" stroke-width="0.5" stroke="black" fill="magenta"/>
   </g>
   <g id="cell88">
  <circle cx="381.551" cy="560.369" r="6.3908" stroke-width="0.5" stroke="black" fill="magenta"/>
  <circle cx="381.551" cy="560.369" r="3.89458" stroke-width="0.5" stroke="black" fill="magenta"/>
   </g>
   <g id="cell89">
  <circle cx="544.568" cy="405.269" r="6.75639" stroke-width="0.5" stroke="black" fill="green"/>
  <circle cx="544.568" cy="405.269" r="4.06813" stroke-width="0.5" stroke="black" fill="green"/>
   </g>
  </g>
 </g>
  <rect x="775" y="1035" width="200" height="10" stroke-width="2" stroke="rgb(255,255,255)" fill="rgb(0,0,0)"/>
  <text x="781.25" y="1028.75"
   font-family="Arial" font-size="25" fill="black" >
   200 &#956;m
  </text>
  <text x="25" y="1045"
   font-family="Arial" font-size="18.75" fill="black" >
   0 days, 0 hours, 0 minutes, and 8.0639 seconds
  </text>
  <rect x="0" y="70" width="1000" height="1000" stroke-width="2" stroke="rgb(0,0,0)" fill="none"/>
</svg>
