<?xml version="1.0" encoding="UTF-8" standalone="no"?>
<!-- Created with PhysiCell (http://PhysiCell.MathCancer.org/) -->
<svg 
 xmlns:dc="http://purl.org/dc/elements/1.1/" 
 xmlns:cc="http://creativecommons.org/ns#" 
 xmlns:rdf="http://www.w3.org/1999/02/22-rdf-syntax-ns#" 
 xmlns:svg="http://www.w3.org/2000/svg" 
 xmlns="http://www.w3.org/2000/svg" 
 version="1.1" 
 width="1000" 
 height="1070" 
 id="svg2">
  <rect x="0" y="0" width="1000" height="1070" stroke-width="2" stroke="white" fill="white"/>
  <text x="12.5" y="30"
   font-family="Arial" font-size="25" fill="black" >
   Current time: 1 days, 11 hours, and 0.00 minutes, z = 0.00 &#956;m
  </text>
  <text x="12.5" y="57.5"
   font-family="Arial" font-size="23.75" fill="black" >
   197 agents
  </text>
 <g id="tissue" 
    transform="translate(0,1070) scale(1,-1)">
  <g id="ECM">
  </g>
  <g id="cells">
   <g id="cell0">
  <circle cx="512.865" cy="534.025" r="8.41271" stroke-width="0.5" stroke="black" fill="magenta"/>
  <circle cx="512.865" cy="534.025" r="5.05167" stroke-width="0.5" stroke="black" fill="magenta"/>
   </g>
   <g id="cell1">
  <circle cx="602.42" cy="541.749" r="8.41271" stroke-width="0.5" stroke="black" fill="magenta"/>
  <circle cx="602.42" cy="541.749" r="5.05167" stroke-width="0.5" stroke="black" fill="magenta"/>
   </g>
   <g id="cell2">
  <circle cx="504.4" cy="598.606" r="8.41271" stroke-width="0.5" stroke="black" fill="magenta"/>
  <circle cx="504.4" cy="598.606" r="5.05167" stroke-width="0.5" stroke="black" fill="magenta"/>
   </g>
   <g id="cell3">
  <circle cx="522.78" cy="558.358" r="8.35404" stroke-width="0.5" stroke="black" fill="magenta"/>
  <circle cx="522.78" cy="558.358" r="5.02894" stroke-width="0.5" stroke="black" fill="magenta"/>
   </g>
   <g id="cell4">
  <circle cx="485.871" cy="440.631" r="7.49456" stroke-width="0.5" stroke="black" fill="magenta"/>
  <circle cx="485.871" cy="440.631" r="4.55548" stroke-width="0.5" stroke="black" fill="magenta"/>
   </g>
   <g id="cell5">
  <circle cx="466.783" cy="487.538" r="8.41271" stroke-width="0.5" stroke="black" fill="magenta"/>
  <circle cx="466.783" cy="487.538" r="5.05167" stroke-width="0.5" stroke="black" fill="magenta"/>
   </g>
   <g id="cell6">
  <circle cx="585.999" cy="520.175" r="8.40864" stroke-width="0.5" stroke="black" fill="magenta"/>
  <circle cx="585.999" cy="520.175" r="5.05054" stroke-width="0.5" stroke="black" fill="magenta"/>
   </g>
   <g id="cell171">
  <circle cx="584.368" cy="504.609" r="8.25355" stroke-width="0.5" stroke="black" fill="magenta"/>
  <circle cx="584.368" cy="504.609" r="4.98204" stroke-width="0.5" stroke="black" fill="magenta"/>
   </g>
   <g id="cell8">
  <circle cx="378.401" cy="525.592" r="8.37537" stroke-width="0.5" stroke="black" fill="magenta"/>
  <circle cx="378.401" cy="525.592" r="5.03798" stroke-width="0.5" stroke="black" fill="magenta"/>
   </g>
   <g id="cell193">
  <circle cx="444.751" cy="564.92" r="7.50548" stroke-width="0.5" stroke="black" fill="green"/>
  <circle cx="444.751" cy="564.92" r="4.58791" stroke-width="0.5" stroke="black" fill="green"/>
   </g>
   <g id="cell186">
  <circle cx="549.546" cy="431.228" r="7.91762" stroke-width="0.5" stroke="black" fill="cyan"/>
  <circle cx="549.546" cy="431.228" r="4.80685" stroke-width="0.5" stroke="black" fill="cyan"/>
   </g>
   <g id="cell11">
  <circle cx="597.186" cy="571.862" r="8.34645" stroke-width="0.5" stroke="black" fill="magenta"/>
  <circle cx="597.186" cy="571.862" r="5.02572" stroke-width="0.5" stroke="black" fill="magenta"/>
   </g>
   <g id="cell12">
  <circle cx="504.794" cy="582.672" r="8.41271" stroke-width="0.5" stroke="black" fill="magenta"/>
  <circle cx="504.794" cy="582.672" r="5.05167" stroke-width="0.5" stroke="black" fill="magenta"/>
   </g>
   <g id="cell13">
  <circle cx="388.373" cy="572.259" r="7.05439" stroke-width="0.5" stroke="black" fill="magenta"/>
  <circle cx="388.373" cy="572.259" r="4.27769" stroke-width="0.5" stroke="black" fill="magenta"/>
   </g>
   <g id="cell109">
  <circle cx="371.684" cy="442.476" r="8.41016" stroke-width="0.5" stroke="black" fill="cyan"/>
  <circle cx="371.684" cy="442.476" r="5.05098" stroke-width="0.5" stroke="black" fill="cyan"/>
   </g>
   <g id="cell199">
  <circle cx="652.63" cy="526.761" r="7.25724" stroke-width="0.5" stroke="black" fill="green"/>
  <circle cx="652.63" cy="526.761" r="4.42321" stroke-width="0.5" stroke="black" fill="green"/>
   </g>
   <g id="cell16">
  <circle cx="420.264" cy="427.872" r="8.39787" stroke-width="0.5" stroke="black" fill="magenta"/>
  <circle cx="420.264" cy="427.872" r="5.04688" stroke-width="0.5" stroke="black" fill="magenta"/>
   </g>
   <g id="cell17">
  <circle cx="569.139" cy="503.278" r="8.32543" stroke-width="0.5" stroke="black" fill="magenta"/>
  <circle cx="569.139" cy="503.278" r="5.01617" stroke-width="0.5" stroke="black" fill="magenta"/>
   </g>
   <g id="cell185">
  <circle cx="398.571" cy="545.849" r="7.13675" stroke-width="0.5" stroke="black" fill="green"/>
  <circle cx="398.571" cy="545.849" r="4.37975" stroke-width="0.5" stroke="black" fill="green"/>
   </g>
   <g id="cell19">
  <circle cx="449.123" cy="549.256" r="8.07585" stroke-width="0.5" stroke="black" fill="magenta"/>
  <circle cx="449.123" cy="549.256" r="4.89027" stroke-width="0.5" stroke="black" fill="magenta"/>
   </g>
   <g id="cell20">
  <circle cx="535.53" cy="420.873" r="8.41271" stroke-width="0.5" stroke="black" fill="magenta"/>
  <circle cx="535.53" cy="420.873" r="5.05167" stroke-width="0.5" stroke="black" fill="magenta"/>
   </g>
   <g id="cell21">
  <circle cx="460.643" cy="631.679" r="7.38797" stroke-width="0.5" stroke="black" fill="magenta"/>
  <circle cx="460.643" cy="631.679" r="4.49029" stroke-width="0.5" stroke="black" fill="magenta"/>
   </g>
   <g id="cell22">
  <circle cx="556.058" cy="494.796" r="8.41271" stroke-width="0.5" stroke="black" fill="magenta"/>
  <circle cx="556.058" cy="494.796" r="5.05167" stroke-width="0.5" stroke="black" fill="magenta"/>
   </g>
   <g id="cell23">
  <circle cx="555.521" cy="510.514" r="8.25843" stroke-width="0.5" stroke="black" fill="magenta"/>
  <circle cx="555.521" cy="510.514" r="4.98814" stroke-width="0.5" stroke="black" fill="magenta"/>
   </g>
   <g id="cell124">
  <circle cx="558.786" cy="456.396" r="8.39555" stroke-width="0.5" stroke="black" fill="cyan"/>
  <circle cx="558.786" cy="456.396" r="5.04613" stroke-width="0.5" stroke="black" fill="cyan"/>
   </g>
   <g id="cell25">
  <circle cx="638.029" cy="549.22" r="7.18002" stroke-width="0.5" stroke="black" fill="green"/>
  <circle cx="638.029" cy="549.22" r="4.35989" stroke-width="0.5" stroke="black" fill="green"/>
   </g>
   <g id="cell26">
  <circle cx="553.747" cy="400.495" r="8.41219" stroke-width="0.5" stroke="black" fill="green"/>
  <circle cx="553.747" cy="400.495" r="5.05155" stroke-width="0.5" stroke="black" fill="green"/>
   </g>
   <g id="cell27">
  <circle cx="457.446" cy="388.678" r="8.41271" stroke-width="0.5" stroke="black" fill="green"/>
  <circle cx="457.446" cy="388.678" r="5.05167" stroke-width="0.5" stroke="black" fill="green"/>
   </g>
   <g id="cell28">
  <circle cx="429.756" cy="521.232" r="8.41271" stroke-width="0.5" stroke="black" fill="green"/>
  <circle cx="429.756" cy="521.232" r="5.05167" stroke-width="0.5" stroke="black" fill="green"/>
   </g>
   <g id="cell29">
  <circle cx="441.553" cy="511.323" r="8.40056" stroke-width="0.5" stroke="black" fill="green"/>
  <circle cx="441.553" cy="511.323" r="5.04776" stroke-width="0.5" stroke="black" fill="green"/>
   </g>
   <g id="cell126">
  <circle cx="527.09" cy="506.73" r="8.40452" stroke-width="0.5" stroke="black" fill="green"/>
  <circle cx="527.09" cy="506.73" r="5.04929" stroke-width="0.5" stroke="black" fill="green"/>
   </g>
   <g id="cell31">
  <circle cx="418.892" cy="532.119" r="8.40934" stroke-width="0.5" stroke="black" fill="green"/>
  <circle cx="418.892" cy="532.119" r="5.05073" stroke-width="0.5" stroke="black" fill="green"/>
   </g>
   <g id="cell32">
  <circle cx="413.585" cy="488.019" r="7.15744" stroke-width="0.5" stroke="black" fill="green"/>
  <circle cx="413.585" cy="488.019" r="4.35119" stroke-width="0.5" stroke="black" fill="green"/>
   </g>
   <g id="cell33">
  <circle cx="494.542" cy="422.948" r="8.41271" stroke-width="0.5" stroke="black" fill="green"/>
  <circle cx="494.542" cy="422.948" r="5.05167" stroke-width="0.5" stroke="black" fill="green"/>
   </g>
   <g id="cell34">
  <circle cx="386.782" cy="447.668" r="8.34952" stroke-width="0.5" stroke="black" fill="green"/>
  <circle cx="386.782" cy="447.668" r="5.02753" stroke-width="0.5" stroke="black" fill="green"/>
   </g>
   <g id="cell35">
  <circle cx="546.741" cy="559.036" r="8.18833" stroke-width="0.5" stroke="black" fill="green"/>
  <circle cx="546.741" cy="559.036" r="4.94921" stroke-width="0.5" stroke="black" fill="green"/>
   </g>
   <g id="cell36">
  <circle cx="383.662" cy="586.532" r="8.41271" stroke-width="0.5" stroke="black" fill="green"/>
  <circle cx="383.662" cy="586.532" r="5.05167" stroke-width="0.5" stroke="black" fill="green"/>
   </g>
   <g id="cell37">
  <circle cx="634.868" cy="460.619" r="8.41271" stroke-width="0.5" stroke="black" fill="green"/>
  <circle cx="634.868" cy="460.619" r="5.05167" stroke-width="0.5" stroke="black" fill="green"/>
   </g>
   <g id="cell38">
  <circle cx="543.654" cy="614.081" r="8.39979" stroke-width="0.5" stroke="black" fill="green"/>
  <circle cx="543.654" cy="614.081" r="5.0475" stroke-width="0.5" stroke="black" fill="green"/>
   </g>
   <g id="cell39">
  <circle cx="620.728" cy="481.777" r="8.41271" stroke-width="0.5" stroke="black" fill="green"/>
  <circle cx="620.728" cy="481.777" r="5.05167" stroke-width="0.5" stroke="black" fill="green"/>
   </g>
   <g id="cell40">
  <circle cx="481.878" cy="565.887" r="8.41237" stroke-width="0.5" stroke="black" fill="green"/>
  <circle cx="481.878" cy="565.887" r="5.05159" stroke-width="0.5" stroke="black" fill="green"/>
   </g>
   <g id="cell41">
  <circle cx="365.092" cy="480.246" r="8.41271" stroke-width="0.5" stroke="black" fill="green"/>
  <circle cx="365.092" cy="480.246" r="5.05167" stroke-width="0.5" stroke="black" fill="green"/>
   </g>
   <g id="cell42">
  <circle cx="440.354" cy="495.791" r="8.41271" stroke-width="0.5" stroke="black" fill="green"/>
  <circle cx="440.354" cy="495.791" r="5.05167" stroke-width="0.5" stroke="black" fill="green"/>
   </g>
   <g id="cell43">
  <circle cx="561.601" cy="440.892" r="8.41271" stroke-width="0.5" stroke="black" fill="green"/>
  <circle cx="561.601" cy="440.892" r="5.05167" stroke-width="0.5" stroke="black" fill="green"/>
   </g>
   <g id="cell44">
  <circle cx="470.847" cy="620.76" r="8.35404" stroke-width="0.5" stroke="black" fill="green"/>
  <circle cx="470.847" cy="620.76" r="5.02894" stroke-width="0.5" stroke="black" fill="green"/>
   </g>
   <g id="cell45">
  <circle cx="437.092" cy="577.091" r="7.50548" stroke-width="0.5" stroke="black" fill="green"/>
  <circle cx="437.092" cy="577.091" r="4.58791" stroke-width="0.5" stroke="black" fill="green"/>
   </g>
   <g id="cell46">
  <circle cx="518.972" cy="626.034" r="8.1669" stroke-width="0.5" stroke="black" fill="green"/>
  <circle cx="518.972" cy="626.034" r="4.94373" stroke-width="0.5" stroke="black" fill="green"/>
   </g>
   <g id="cell47">
  <circle cx="487.426" cy="504.55" r="8.40569" stroke-width="0.5" stroke="black" fill="green"/>
  <circle cx="487.426" cy="504.55" r="5.04956" stroke-width="0.5" stroke="black" fill="green"/>
   </g>
   <g id="cell48">
  <circle cx="562.495" cy="602.585" r="8.41271" stroke-width="0.5" stroke="black" fill="green"/>
  <circle cx="562.495" cy="602.585" r="5.05167" stroke-width="0.5" stroke="black" fill="green"/>
   </g>
   <g id="cell49">
  <circle cx="432.249" cy="386.699" r="8.22925" stroke-width="0.5" stroke="black" fill="green"/>
  <circle cx="432.249" cy="386.699" r="4.96993" stroke-width="0.5" stroke="black" fill="green"/>
   </g>
   <g id="cell201">
  <circle cx="426.341" cy="491.816" r="7.15744" stroke-width="0.5" stroke="black" fill="green"/>
  <circle cx="426.341" cy="491.816" r="4.35119" stroke-width="0.5" stroke="black" fill="green"/>
   </g>
   <g id="cell51">
  <circle cx="423.591" cy="601.388" r="8.4099" stroke-width="0.5" stroke="black" fill="cyan"/>
  <circle cx="423.591" cy="601.388" r="5.05091" stroke-width="0.5" stroke="black" fill="cyan"/>
   </g>
   <g id="cell52">
  <circle cx="508.384" cy="415.668" r="7.11815" stroke-width="0.5" stroke="black" fill="cyan"/>
  <circle cx="508.384" cy="415.668" r="4.31954" stroke-width="0.5" stroke="black" fill="cyan"/>
   </g>
   <g id="cell53">
  <circle cx="576.579" cy="436.043" r="8.32967" stroke-width="0.5" stroke="black" fill="cyan"/>
  <circle cx="576.579" cy="436.043" r="5.01822" stroke-width="0.5" stroke="black" fill="cyan"/>
   </g>
   <g id="cell54">
  <circle cx="478.421" cy="423.691" r="8.41271" stroke-width="0.5" stroke="black" fill="cyan"/>
  <circle cx="478.421" cy="423.691" r="5.05167" stroke-width="0.5" stroke="black" fill="cyan"/>
   </g>
   <g id="cell55">
  <circle cx="522.302" cy="462.256" r="7.90785" stroke-width="0.5" stroke="black" fill="cyan"/>
  <circle cx="522.302" cy="462.256" r="4.79773" stroke-width="0.5" stroke="black" fill="cyan"/>
   </g>
   <g id="cell56">
  <circle cx="633.597" cy="524.825" r="8.41187" stroke-width="0.5" stroke="black" fill="cyan"/>
  <circle cx="633.597" cy="524.825" r="5.05147" stroke-width="0.5" stroke="black" fill="cyan"/>
   </g>
   <g id="cell57">
  <circle cx="419.966" cy="616.468" r="8.17502" stroke-width="0.5" stroke="black" fill="cyan"/>
  <circle cx="419.966" cy="616.468" r="4.94236" stroke-width="0.5" stroke="black" fill="cyan"/>
   </g>
   <g id="cell207">
  <circle cx="430.839" cy="453.118" r="7.01899" stroke-width="0.5" stroke="black" fill="cyan"/>
  <circle cx="430.839" cy="453.118" r="4.25535" stroke-width="0.5" stroke="black" fill="cyan"/>
   </g>
   <g id="cell195">
  <circle cx="411.522" cy="544.498" r="7.13675" stroke-width="0.5" stroke="black" fill="green"/>
  <circle cx="411.522" cy="544.498" r="4.37975" stroke-width="0.5" stroke="black" fill="green"/>
   </g>
   <g id="cell60">
  <circle cx="615.348" cy="466.961" r="8.41244" stroke-width="0.5" stroke="black" fill="cyan"/>
  <circle cx="615.348" cy="466.961" r="5.05161" stroke-width="0.5" stroke="black" fill="cyan"/>
   </g>
   <g id="cell121">
  <circle cx="453.682" cy="462.092" r="8.40816" stroke-width="0.5" stroke="black" fill="cyan"/>
  <circle cx="453.682" cy="462.092" r="5.0504" stroke-width="0.5" stroke="black" fill="cyan"/>
   </g>
   <g id="cell62">
  <circle cx="496.126" cy="451.338" r="8.38061" stroke-width="0.5" stroke="black" fill="cyan"/>
  <circle cx="496.126" cy="451.338" r="5.04019" stroke-width="0.5" stroke="black" fill="cyan"/>
   </g>
   <g id="cell63">
  <circle cx="580.186" cy="544.848" r="8.41271" stroke-width="0.5" stroke="black" fill="cyan"/>
  <circle cx="580.186" cy="544.848" r="5.05167" stroke-width="0.5" stroke="black" fill="cyan"/>
   </g>
   <g id="cell64">
  <circle cx="509.242" cy="638.5" r="8.41271" stroke-width="0.5" stroke="black" fill="cyan"/>
  <circle cx="509.242" cy="638.5" r="5.05167" stroke-width="0.5" stroke="black" fill="cyan"/>
   </g>
   <g id="cell65">
  <circle cx="543.663" cy="466.204" r="1.84616" stroke-width="0.5" stroke="black" fill="cyan"/>
  <circle cx="543.663" cy="466.204" r="1.7784" stroke-width="0.5" stroke="black" fill="black"/>
   </g>
   <g id="cell66">
  <circle cx="522.638" cy="521.635" r="8.26635" stroke-width="0.5" stroke="black" fill="cyan"/>
  <circle cx="522.638" cy="521.635" r="4.98903" stroke-width="0.5" stroke="black" fill="cyan"/>
   </g>
   <g id="cell67">
  <circle cx="354.782" cy="492.513" r="8.41271" stroke-width="0.5" stroke="black" fill="cyan"/>
  <circle cx="354.782" cy="492.513" r="5.05167" stroke-width="0.5" stroke="black" fill="cyan"/>
   </g>
   <g id="cell68">
  <circle cx="571.393" cy="558.248" r="8.41271" stroke-width="0.5" stroke="black" fill="cyan"/>
  <circle cx="571.393" cy="558.248" r="5.05167" stroke-width="0.5" stroke="black" fill="cyan"/>
   </g>
   <g id="cell69">
  <circle cx="444.729" cy="448.905" r="8.40816" stroke-width="0.5" stroke="black" fill="cyan"/>
  <circle cx="444.729" cy="448.905" r="5.0504" stroke-width="0.5" stroke="black" fill="cyan"/>
   </g>
   <g id="cell70">
  <circle cx="588.287" cy="477.404" r="8.31177" stroke-width="0.5" stroke="black" fill="cyan"/>
  <circle cx="588.287" cy="477.404" r="5.00995" stroke-width="0.5" stroke="black" fill="cyan"/>
   </g>
   <g id="cell71">
  <circle cx="372.286" cy="511.062" r="8.41271" stroke-width="0.5" stroke="black" fill="cyan"/>
  <circle cx="372.286" cy="511.062" r="5.05167" stroke-width="0.5" stroke="black" fill="cyan"/>
   </g>
   <g id="cell72">
  <circle cx="538.288" cy="517.968" r="8.41271" stroke-width="0.5" stroke="black" fill="cyan"/>
  <circle cx="538.288" cy="517.968" r="5.05167" stroke-width="0.5" stroke="black" fill="cyan"/>
   </g>
   <g id="cell73">
  <circle cx="352.429" cy="549.309" r="8.40923" stroke-width="0.5" stroke="black" fill="cyan"/>
  <circle cx="352.429" cy="549.309" r="5.05072" stroke-width="0.5" stroke="black" fill="cyan"/>
   </g>
   <g id="cell74">
  <circle cx="546.692" cy="446.502" r="8.41271" stroke-width="0.5" stroke="black" fill="cyan"/>
  <circle cx="546.692" cy="446.502" r="5.05167" stroke-width="0.5" stroke="black" fill="cyan"/>
   </g>
   <g id="cell75">
  <circle cx="593.306" cy="492.074" r="8.25355" stroke-width="0.5" stroke="black" fill="magenta"/>
  <circle cx="593.306" cy="492.074" r="4.98204" stroke-width="0.5" stroke="black" fill="magenta"/>
   </g>
   <g id="cell76">
  <circle cx="643.305" cy="536.744" r="7.25724" stroke-width="0.5" stroke="black" fill="green"/>
  <circle cx="643.305" cy="536.744" r="4.42321" stroke-width="0.5" stroke="black" fill="green"/>
   </g>
   <g id="cell77">
  <circle cx="499.793" cy="514.505" r="8.40994" stroke-width="0.5" stroke="black" fill="green"/>
  <circle cx="499.793" cy="514.505" r="5.05092" stroke-width="0.5" stroke="black" fill="green"/>
   </g>
   <g id="cell78">
  <circle cx="358.766" cy="570.904" r="8.41213" stroke-width="0.5" stroke="black" fill="magenta"/>
  <circle cx="358.766" cy="570.904" r="5.05154" stroke-width="0.5" stroke="black" fill="magenta"/>
   </g>
   <g id="cell79">
  <circle cx="537.271" cy="571.617" r="8.40376" stroke-width="0.5" stroke="black" fill="green"/>
  <circle cx="537.271" cy="571.617" r="5.04892" stroke-width="0.5" stroke="black" fill="green"/>
   </g>
   <g id="cell80">
  <circle cx="457.995" cy="601.439" r="8.33016" stroke-width="0.5" stroke="black" fill="magenta"/>
  <circle cx="457.995" cy="601.439" r="5.01835" stroke-width="0.5" stroke="black" fill="magenta"/>
   </g>
   <g id="cell81">
  <circle cx="397.451" cy="615.768" r="8.41146" stroke-width="0.5" stroke="black" fill="cyan"/>
  <circle cx="397.451" cy="615.768" r="5.05136" stroke-width="0.5" stroke="black" fill="cyan"/>
   </g>
   <g id="cell82">
  <circle cx="599.752" cy="466.311" r="8.34065" stroke-width="0.5" stroke="black" fill="cyan"/>
  <circle cx="599.752" cy="466.311" r="5.02315" stroke-width="0.5" stroke="black" fill="cyan"/>
   </g>
   <g id="cell83">
  <circle cx="547.042" cy="598.459" r="8.41236" stroke-width="0.5" stroke="black" fill="green"/>
  <circle cx="547.042" cy="598.459" r="5.05159" stroke-width="0.5" stroke="black" fill="green"/>
   </g>
   <g id="cell84">
  <circle cx="489.007" cy="580.222" r="8.41237" stroke-width="0.5" stroke="black" fill="green"/>
  <circle cx="489.007" cy="580.222" r="5.05159" stroke-width="0.5" stroke="black" fill="green"/>
   </g>
   <g id="cell85">
  <circle cx="622.246" cy="497.038" r="7.95459" stroke-width="0.5" stroke="black" fill="magenta"/>
  <circle cx="622.246" cy="497.038" r="4.83532" stroke-width="0.5" stroke="black" fill="magenta"/>
   </g>
   <g id="cell86">
  <circle cx="523.361" cy="597.891" r="8.21245" stroke-width="0.5" stroke="black" fill="green"/>
  <circle cx="523.361" cy="597.891" r="4.96156" stroke-width="0.5" stroke="black" fill="green"/>
   </g>
   <g id="cell87">
  <circle cx="589.086" cy="611.863" r="8.37301" stroke-width="0.5" stroke="black" fill="magenta"/>
  <circle cx="589.086" cy="611.863" r="5.03704" stroke-width="0.5" stroke="black" fill="magenta"/>
   </g>
   <g id="cell88">
  <circle cx="366.205" cy="556.57" r="8.40896" stroke-width="0.5" stroke="black" fill="magenta"/>
  <circle cx="366.205" cy="556.57" r="5.05063" stroke-width="0.5" stroke="black" fill="magenta"/>
   </g>
   <g id="cell89">
  <circle cx="538.522" cy="405.297" r="8.41177" stroke-width="0.5" stroke="black" fill="green"/>
  <circle cx="538.522" cy="405.297" r="5.05145" stroke-width="0.5" stroke="black" fill="green"/>
   </g>
   <g id="cell90">
  <circle cx="565.273" cy="482.406" r="7.89103" stroke-width="0.5" stroke="black" fill="cyan"/>
  <circle cx="565.273" cy="482.406" r="4.78876" stroke-width="0.5" stroke="black" fill="cyan"/>
   </g>
   <g id="cell91">
  <circle cx="541.89" cy="389.685" r="8.41177" stroke-width="0.5" stroke="black" fill="green"/>
  <circle cx="541.89" cy="389.685" r="5.05145" stroke-width="0.5" stroke="black" fill="green"/>
   </g>
   <g id="cell92">
  <circle cx="637.652" cy="568.923" r="5.81778" stroke-width="0.5" stroke="black" fill="green"/>
  <circle cx="637.652" cy="568.923" r="3.54671" stroke-width="0.5" stroke="black" fill="green"/>
   </g>
   <g id="cell93">
  <circle cx="360.239" cy="535.383" r="8.41194" stroke-width="0.5" stroke="black" fill="cyan"/>
  <circle cx="360.239" cy="535.383" r="5.05148" stroke-width="0.5" stroke="black" fill="cyan"/>
   </g>
   <g id="cell94">
  <circle cx="615.011" cy="532.889" r="7.8297" stroke-width="0.5" stroke="black" fill="cyan"/>
  <circle cx="615.011" cy="532.889" r="4.7533" stroke-width="0.5" stroke="black" fill="cyan"/>
   </g>
   <g id="cell95">
  <circle cx="575.003" cy="582.694" r="8.41162" stroke-width="0.5" stroke="black" fill="magenta"/>
  <circle cx="575.003" cy="582.694" r="5.05141" stroke-width="0.5" stroke="black" fill="magenta"/>
   </g>
   <g id="cell96">
  <circle cx="604.69" cy="481.272" r="8.41169" stroke-width="0.5" stroke="black" fill="cyan"/>
  <circle cx="604.69" cy="481.272" r="5.05142" stroke-width="0.5" stroke="black" fill="cyan"/>
   </g>
   <g id="cell97">
  <circle cx="623.354" cy="546.172" r="8.41133" stroke-width="0.5" stroke="black" fill="green"/>
  <circle cx="623.354" cy="546.172" r="5.05133" stroke-width="0.5" stroke="black" fill="green"/>
   </g>
   <g id="cell98">
  <circle cx="601.112" cy="525.801" r="8.41168" stroke-width="0.5" stroke="black" fill="magenta"/>
  <circle cx="601.112" cy="525.801" r="5.05142" stroke-width="0.5" stroke="black" fill="magenta"/>
   </g>
   <g id="cell99">
  <circle cx="578.608" cy="420.346" r="8.41157" stroke-width="0.5" stroke="black" fill="cyan"/>
  <circle cx="578.608" cy="420.346" r="5.05138" stroke-width="0.5" stroke="black" fill="cyan"/>
   </g>
   <g id="cell100">
  <circle cx="377.617" cy="600.541" r="6.98771" stroke-width="0.5" stroke="black" fill="cyan"/>
  <circle cx="377.617" cy="600.541" r="4.23411" stroke-width="0.5" stroke="black" fill="cyan"/>
   </g>
   <g id="cell101">
  <circle cx="535.598" cy="436.186" r="7.91762" stroke-width="0.5" stroke="black" fill="cyan"/>
  <circle cx="535.598" cy="436.186" r="4.80685" stroke-width="0.5" stroke="black" fill="cyan"/>
   </g>
   <g id="cell102">
  <circle cx="498.756" cy="476.05" r="8.40184" stroke-width="0.5" stroke="black" fill="cyan"/>
  <circle cx="498.756" cy="476.05" r="5.04828" stroke-width="0.5" stroke="black" fill="cyan"/>
   </g>
   <g id="cell103">
  <circle cx="468.2" cy="534.049" r="8.40185" stroke-width="0.5" stroke="black" fill="magenta"/>
  <circle cx="468.2" cy="534.049" r="5.0484" stroke-width="0.5" stroke="black" fill="magenta"/>
   </g>
   <g id="cell209">
  <circle cx="639.039" cy="579.77" r="5.81778" stroke-width="0.5" stroke="black" fill="green"/>
  <circle cx="639.039" cy="579.77" r="3.54671" stroke-width="0.5" stroke="black" fill="green"/>
   </g>
   <g id="cell105">
  <circle cx="506.999" cy="462.542" r="8.41121" stroke-width="0.5" stroke="black" fill="magenta"/>
  <circle cx="506.999" cy="462.542" r="5.05128" stroke-width="0.5" stroke="black" fill="magenta"/>
   </g>
   <g id="cell106">
  <circle cx="436.217" cy="402.159" r="8.41098" stroke-width="0.5" stroke="black" fill="magenta"/>
  <circle cx="436.217" cy="402.159" r="5.05122" stroke-width="0.5" stroke="black" fill="magenta"/>
   </g>
   <g id="cell107">
  <circle cx="417.673" cy="452.428" r="7.01899" stroke-width="0.5" stroke="black" fill="cyan"/>
  <circle cx="417.673" cy="452.428" r="4.25535" stroke-width="0.5" stroke="black" fill="cyan"/>
   </g>
   <g id="cell108">
  <circle cx="524.226" cy="379.717" r="8.41043" stroke-width="0.5" stroke="black" fill="magenta"/>
  <circle cx="524.226" cy="379.717" r="5.05106" stroke-width="0.5" stroke="black" fill="magenta"/>
   </g>
   <g id="cell110">
  <circle cx="520.278" cy="395.06" r="8.24715" stroke-width="0.5" stroke="black" fill="magenta"/>
  <circle cx="520.278" cy="395.06" r="4.97926" stroke-width="0.5" stroke="black" fill="magenta"/>
   </g>
   <g id="cell111">
  <circle cx="514.003" cy="491.167" r="7.82546" stroke-width="0.5" stroke="black" fill="green"/>
  <circle cx="514.003" cy="491.167" r="4.75198" stroke-width="0.5" stroke="black" fill="green"/>
   </g>
   <g id="cell112">
  <circle cx="399.672" cy="586.966" r="8.33556" stroke-width="0.5" stroke="black" fill="cyan"/>
  <circle cx="399.672" cy="586.966" r="5.02101" stroke-width="0.5" stroke="black" fill="cyan"/>
   </g>
   <g id="cell113">
  <circle cx="336.93" cy="546.451" r="8.40923" stroke-width="0.5" stroke="black" fill="cyan"/>
  <circle cx="336.93" cy="546.451" r="5.05072" stroke-width="0.5" stroke="black" fill="cyan"/>
   </g>
   <g id="cell114">
  <circle cx="381.605" cy="614.514" r="8.40746" stroke-width="0.5" stroke="black" fill="cyan"/>
  <circle cx="381.605" cy="614.514" r="5.05022" stroke-width="0.5" stroke="black" fill="cyan"/>
   </g>
   <g id="cell115">
  <circle cx="391.97" cy="600.752" r="8.40746" stroke-width="0.5" stroke="black" fill="cyan"/>
  <circle cx="391.97" cy="600.752" r="5.05022" stroke-width="0.5" stroke="black" fill="cyan"/>
   </g>
   <g id="cell116">
  <circle cx="403.493" cy="532.159" r="8.10267" stroke-width="0.5" stroke="black" fill="green"/>
  <circle cx="403.493" cy="532.159" r="4.90487" stroke-width="0.5" stroke="black" fill="green"/>
   </g>
   <g id="cell117">
  <circle cx="374.435" cy="570.01" r="8.40651" stroke-width="0.5" stroke="black" fill="magenta"/>
  <circle cx="374.435" cy="570.01" r="5.04991" stroke-width="0.5" stroke="black" fill="magenta"/>
   </g>
   <g id="cell118">
  <circle cx="398.55" cy="437.474" r="2.78598" stroke-width="0.5" stroke="black" fill="cyan"/>
  <circle cx="398.55" cy="437.474" r="2.36638" stroke-width="0.5" stroke="black" fill="black"/>
   </g>
   <g id="cell119">
  <circle cx="569.403" cy="519.238" r="8.40864" stroke-width="0.5" stroke="black" fill="magenta"/>
  <circle cx="569.403" cy="519.238" r="5.05054" stroke-width="0.5" stroke="black" fill="magenta"/>
   </g>
   <g id="cell120">
  <circle cx="498.653" cy="492.001" r="8.35476" stroke-width="0.5" stroke="black" fill="green"/>
  <circle cx="498.653" cy="492.001" r="5.02964" stroke-width="0.5" stroke="black" fill="green"/>
   </g>
   <g id="cell122">
  <circle cx="451.159" cy="484.5" r="8.20676" stroke-width="0.5" stroke="black" fill="cyan"/>
  <circle cx="451.159" cy="484.5" r="4.96164" stroke-width="0.5" stroke="black" fill="cyan"/>
   </g>
   <g id="cell123">
  <circle cx="381.47" cy="555.637" r="8.17173" stroke-width="0.5" stroke="black" fill="magenta"/>
  <circle cx="381.47" cy="555.637" r="4.94141" stroke-width="0.5" stroke="black" fill="magenta"/>
   </g>
   <g id="cell125">
  <circle cx="529.996" cy="475.426" r="8.40745" stroke-width="0.5" stroke="black" fill="magenta"/>
  <circle cx="529.996" cy="475.426" r="5.05013" stroke-width="0.5" stroke="black" fill="magenta"/>
   </g>
   <g id="cell127">
  <circle cx="440.369" cy="533.374" r="8.40568" stroke-width="0.5" stroke="black" fill="magenta"/>
  <circle cx="440.369" cy="533.374" r="5.0496" stroke-width="0.5" stroke="black" fill="magenta"/>
   </g>
   <g id="cell128">
  <circle cx="550.525" cy="415.974" r="8.28251" stroke-width="0.5" stroke="black" fill="cyan"/>
  <circle cx="550.525" cy="415.974" r="4.99672" stroke-width="0.5" stroke="black" fill="cyan"/>
   </g>
   <g id="cell129">
  <circle cx="485.174" cy="520.642" r="8.40569" stroke-width="0.5" stroke="black" fill="green"/>
  <circle cx="485.174" cy="520.642" r="5.04956" stroke-width="0.5" stroke="black" fill="green"/>
   </g>
   <g id="cell130">
  <circle cx="454.228" cy="538.305" r="1.29308" stroke-width="0.5" stroke="black" fill="magenta"/>
  <circle cx="454.228" cy="538.305" r="1.28549" stroke-width="0.5" stroke="black" fill="black"/>
   </g>
   <g id="cell131">
  <circle cx="535.441" cy="587.514" r="8.40376" stroke-width="0.5" stroke="black" fill="green"/>
  <circle cx="535.441" cy="587.514" r="5.04892" stroke-width="0.5" stroke="black" fill="green"/>
   </g>
   <g id="cell132">
  <circle cx="402.595" cy="449.918" r="8.3687" stroke-width="0.5" stroke="black" fill="green"/>
  <circle cx="402.595" cy="449.918" r="5.03568" stroke-width="0.5" stroke="black" fill="green"/>
   </g>
   <g id="cell133">
  <circle cx="552.084" cy="525.094" r="7.9865" stroke-width="0.5" stroke="black" fill="cyan"/>
  <circle cx="552.084" cy="525.094" r="4.84837" stroke-width="0.5" stroke="black" fill="cyan"/>
   </g>
   <g id="cell134">
  <circle cx="514.62" cy="476.069" r="8.40184" stroke-width="0.5" stroke="black" fill="cyan"/>
  <circle cx="514.62" cy="476.069" r="5.04828" stroke-width="0.5" stroke="black" fill="cyan"/>
   </g>
   <g id="cell135">
  <circle cx="410.036" cy="561.429" r="7.12946" stroke-width="0.5" stroke="black" fill="green"/>
  <circle cx="410.036" cy="561.429" r="4.33269" stroke-width="0.5" stroke="black" fill="green"/>
   </g>
   <g id="cell136">
  <circle cx="456.557" cy="507.044" r="8.3698" stroke-width="0.5" stroke="black" fill="green"/>
  <circle cx="456.557" cy="507.044" r="5.03657" stroke-width="0.5" stroke="black" fill="green"/>
   </g>
   <g id="cell137">
  <circle cx="534.643" cy="627.284" r="8.39979" stroke-width="0.5" stroke="black" fill="green"/>
  <circle cx="534.643" cy="627.284" r="5.0475" stroke-width="0.5" stroke="black" fill="green"/>
   </g>
   <g id="cell138">
  <circle cx="432.838" cy="417.911" r="8.39787" stroke-width="0.5" stroke="black" fill="magenta"/>
  <circle cx="432.838" cy="417.911" r="5.04688" stroke-width="0.5" stroke="black" fill="magenta"/>
   </g>
   <g id="cell139">
  <circle cx="570.726" cy="467.503" r="8.39555" stroke-width="0.5" stroke="black" fill="cyan"/>
  <circle cx="570.726" cy="467.503" r="5.04613" stroke-width="0.5" stroke="black" fill="cyan"/>
   </g>
   <g id="cell140">
  <circle cx="452.528" cy="522.742" r="8.39009" stroke-width="0.5" stroke="black" fill="green"/>
  <circle cx="452.528" cy="522.742" r="5.0442" stroke-width="0.5" stroke="black" fill="green"/>
   </g>
   <g id="cell141">
  <circle cx="425.816" cy="546.235" r="8.38345" stroke-width="0.5" stroke="black" fill="green"/>
  <circle cx="425.816" cy="546.235" r="5.04166" stroke-width="0.5" stroke="black" fill="green"/>
   </g>
   <g id="cell142">
  <circle cx="598.953" cy="510.032" r="8.38587" stroke-width="0.5" stroke="black" fill="magenta"/>
  <circle cx="598.953" cy="510.032" r="5.04224" stroke-width="0.5" stroke="black" fill="magenta"/>
   </g>
   <g id="cell143">
  <circle cx="520.558" cy="434.971" r="8.37837" stroke-width="0.5" stroke="black" fill="cyan"/>
  <circle cx="520.558" cy="434.971" r="5.03959" stroke-width="0.5" stroke="black" fill="cyan"/>
   </g>
   <g id="cell144">
  <circle cx="511.551" cy="447.6" r="8.38061" stroke-width="0.5" stroke="black" fill="cyan"/>
  <circle cx="511.551" cy="447.6" r="5.04019" stroke-width="0.5" stroke="black" fill="cyan"/>
   </g>
   <g id="cell145">
  <circle cx="467.867" cy="518.142" r="8.3481" stroke-width="0.5" stroke="black" fill="green"/>
  <circle cx="467.867" cy="518.142" r="5.02801" stroke-width="0.5" stroke="black" fill="green"/>
   </g>
   <g id="cell146">
  <circle cx="422.934" cy="471.58" r="8.3784" stroke-width="0.5" stroke="black" fill="green"/>
  <circle cx="422.934" cy="471.58" r="5.03921" stroke-width="0.5" stroke="black" fill="green"/>
   </g>
   <g id="cell147">
  <circle cx="374.824" cy="541.494" r="8.37537" stroke-width="0.5" stroke="black" fill="magenta"/>
  <circle cx="374.824" cy="541.494" r="5.03798" stroke-width="0.5" stroke="black" fill="magenta"/>
   </g>
   <g id="cell148">
  <circle cx="584.991" cy="593.811" r="7.36226" stroke-width="0.5" stroke="black" fill="magenta"/>
  <circle cx="584.991" cy="593.811" r="4.48038" stroke-width="0.5" stroke="black" fill="magenta"/>
   </g>
   <g id="cell149">
  <circle cx="529.19" cy="491.234" r="8.37056" stroke-width="0.5" stroke="black" fill="magenta"/>
  <circle cx="529.19" cy="491.234" r="5.0363" stroke-width="0.5" stroke="black" fill="magenta"/>
   </g>
   <g id="cell150">
  <circle cx="409.433" cy="463.588" r="7.83772" stroke-width="0.5" stroke="black" fill="green"/>
  <circle cx="409.433" cy="463.588" r="4.76268" stroke-width="0.5" stroke="black" fill="green"/>
   </g>
   <g id="cell151">
  <circle cx="438.111" cy="465.541" r="8.36956" stroke-width="0.5" stroke="black" fill="cyan"/>
  <circle cx="438.111" cy="465.541" r="5.0359" stroke-width="0.5" stroke="black" fill="cyan"/>
   </g>
   <g id="cell152">
  <circle cx="471.709" cy="502.63" r="8.3481" stroke-width="0.5" stroke="black" fill="green"/>
  <circle cx="471.709" cy="502.63" r="5.02801" stroke-width="0.5" stroke="black" fill="green"/>
   </g>
   <g id="cell153">
  <circle cx="543.197" cy="488.611" r="7.0385" stroke-width="0.5" stroke="black" fill="magenta"/>
  <circle cx="543.197" cy="488.611" r="4.28015" stroke-width="0.5" stroke="black" fill="magenta"/>
   </g>
   <g id="cell154">
  <circle cx="482.889" cy="489.29" r="8.35476" stroke-width="0.5" stroke="black" fill="green"/>
  <circle cx="482.889" cy="489.29" r="5.02964" stroke-width="0.5" stroke="black" fill="green"/>
   </g>
   <g id="cell155">
  <circle cx="485.747" cy="626.295" r="8.35404" stroke-width="0.5" stroke="black" fill="green"/>
  <circle cx="485.747" cy="626.295" r="5.02894" stroke-width="0.5" stroke="black" fill="green"/>
   </g>
   <g id="cell156">
  <circle cx="535.11" cy="548.509" r="8.35404" stroke-width="0.5" stroke="black" fill="magenta"/>
  <circle cx="535.11" cy="548.509" r="5.02894" stroke-width="0.5" stroke="black" fill="magenta"/>
   </g>
   <g id="cell157">
  <circle cx="392.697" cy="462.461" r="8.34952" stroke-width="0.5" stroke="black" fill="green"/>
  <circle cx="392.697" cy="462.461" r="5.02753" stroke-width="0.5" stroke="black" fill="green"/>
   </g>
   <g id="cell158">
  <circle cx="603.959" cy="586.198" r="8.34645" stroke-width="0.5" stroke="black" fill="magenta"/>
  <circle cx="603.959" cy="586.198" r="5.02572" stroke-width="0.5" stroke="black" fill="magenta"/>
   </g>
   <g id="cell159">
  <circle cx="588.489" cy="446.584" r="8.34065" stroke-width="0.5" stroke="black" fill="cyan"/>
  <circle cx="588.489" cy="446.584" r="5.02315" stroke-width="0.5" stroke="black" fill="cyan"/>
   </g>
   <g id="cell160">
  <circle cx="415.39" cy="588.27" r="8.33556" stroke-width="0.5" stroke="black" fill="cyan"/>
  <circle cx="415.39" cy="588.27" r="5.02101" stroke-width="0.5" stroke="black" fill="cyan"/>
   </g>
   <g id="cell161">
  <circle cx="447.738" cy="613.538" r="8.33016" stroke-width="0.5" stroke="black" fill="magenta"/>
  <circle cx="447.738" cy="613.538" r="5.01835" stroke-width="0.5" stroke="black" fill="magenta"/>
   </g>
   <g id="cell162">
  <circle cx="573.498" cy="451.545" r="8.32967" stroke-width="0.5" stroke="black" fill="cyan"/>
  <circle cx="573.498" cy="451.545" r="5.01822" stroke-width="0.5" stroke="black" fill="cyan"/>
   </g>
   <g id="cell163">
  <circle cx="564.249" cy="534.465" r="8.32332" stroke-width="0.5" stroke="black" fill="cyan"/>
  <circle cx="564.249" cy="534.465" r="5.01586" stroke-width="0.5" stroke="black" fill="cyan"/>
   </g>
   <g id="cell164">
  <circle cx="578.087" cy="490.159" r="8.32543" stroke-width="0.5" stroke="black" fill="magenta"/>
  <circle cx="578.087" cy="490.159" r="5.01617" stroke-width="0.5" stroke="black" fill="magenta"/>
   </g>
   <g id="cell165">
  <circle cx="585.075" cy="461.933" r="8.31177" stroke-width="0.5" stroke="black" fill="cyan"/>
  <circle cx="585.075" cy="461.933" r="5.00995" stroke-width="0.5" stroke="black" fill="cyan"/>
   </g>
   <g id="cell166">
  <circle cx="652.697" cy="548.49" r="8.29986" stroke-width="0.5" stroke="black" fill="green"/>
  <circle cx="652.697" cy="548.49" r="5.00432" stroke-width="0.5" stroke="black" fill="green"/>
   </g>
   <g id="cell167">
  <circle cx="542.117" cy="502.7" r="8.25843" stroke-width="0.5" stroke="black" fill="magenta"/>
  <circle cx="542.117" cy="502.7" r="4.98814" stroke-width="0.5" stroke="black" fill="magenta"/>
   </g>
   <g id="cell168">
  <circle cx="563.588" cy="425.197" r="8.28251" stroke-width="0.5" stroke="black" fill="cyan"/>
  <circle cx="563.588" cy="425.197" r="4.99672" stroke-width="0.5" stroke="black" fill="cyan"/>
   </g>
   <g id="cell169">
  <circle cx="533.322" cy="532.918" r="8.26635" stroke-width="0.5" stroke="black" fill="cyan"/>
  <circle cx="533.322" cy="532.918" r="4.98903" stroke-width="0.5" stroke="black" fill="cyan"/>
   </g>
   <g id="cell170">
  <circle cx="527.846" cy="612.979" r="8.26262" stroke-width="0.5" stroke="black" fill="green"/>
  <circle cx="527.846" cy="612.979" r="4.98642" stroke-width="0.5" stroke="black" fill="green"/>
   </g>
   <g id="cell172">
  <circle cx="505.907" cy="401.319" r="8.24715" stroke-width="0.5" stroke="black" fill="magenta"/>
  <circle cx="505.907" cy="401.319" r="4.97926" stroke-width="0.5" stroke="black" fill="magenta"/>
   </g>
   <g id="cell173">
  <circle cx="512.353" cy="612.057" r="8.1669" stroke-width="0.5" stroke="black" fill="green"/>
  <circle cx="512.353" cy="612.057" r="4.94373" stroke-width="0.5" stroke="black" fill="green"/>
   </g>
   <g id="cell174">
  <circle cx="421.062" cy="397.621" r="8.22925" stroke-width="0.5" stroke="black" fill="green"/>
  <circle cx="421.062" cy="397.621" r="4.96993" stroke-width="0.5" stroke="black" fill="green"/>
   </g>
   <g id="cell175">
  <circle cx="435.824" cy="480.852" r="8.20676" stroke-width="0.5" stroke="black" fill="cyan"/>
  <circle cx="435.824" cy="480.852" r="4.96164" stroke-width="0.5" stroke="black" fill="cyan"/>
   </g>
   <g id="cell176">
  <circle cx="631.171" cy="509.242" r="8.20435" stroke-width="0.5" stroke="black" fill="magenta"/>
  <circle cx="631.171" cy="509.242" r="4.9595" stroke-width="0.5" stroke="black" fill="magenta"/>
   </g>
   <g id="cell177">
  <circle cx="520.555" cy="582.453" r="8.21245" stroke-width="0.5" stroke="black" fill="green"/>
  <circle cx="520.555" cy="582.453" r="4.96156" stroke-width="0.5" stroke="black" fill="green"/>
   </g>
   <g id="cell178">
  <circle cx="558.7" cy="549.137" r="8.18833" stroke-width="0.5" stroke="black" fill="green"/>
  <circle cx="558.7" cy="549.137" r="4.94921" stroke-width="0.5" stroke="black" fill="green"/>
   </g>
   <g id="cell179">
  <circle cx="408.593" cy="626.868" r="8.17502" stroke-width="0.5" stroke="black" fill="cyan"/>
  <circle cx="408.593" cy="626.868" r="4.94236" stroke-width="0.5" stroke="black" fill="cyan"/>
   </g>
   <g id="cell180">
  <circle cx="395.876" cy="559.697" r="8.17173" stroke-width="0.5" stroke="black" fill="magenta"/>
  <circle cx="395.876" cy="559.697" r="4.94141" stroke-width="0.5" stroke="black" fill="magenta"/>
   </g>
   <g id="cell181">
  <circle cx="389.046" cy="536.042" r="7.83234" stroke-width="0.5" stroke="black" fill="green"/>
  <circle cx="389.046" cy="536.042" r="4.76932" stroke-width="0.5" stroke="black" fill="green"/>
   </g>
   <g id="cell182">
  <circle cx="458.982" cy="561.015" r="8.07585" stroke-width="0.5" stroke="black" fill="magenta"/>
  <circle cx="458.982" cy="561.015" r="4.89027" stroke-width="0.5" stroke="black" fill="magenta"/>
   </g>
   <g id="cell183">
  <circle cx="607.43" cy="496.883" r="7.95459" stroke-width="0.5" stroke="black" fill="magenta"/>
  <circle cx="607.43" cy="496.883" r="4.83532" stroke-width="0.5" stroke="black" fill="magenta"/>
   </g>
   <g id="cell184">
  <circle cx="547.346" cy="539.152" r="7.9865" stroke-width="0.5" stroke="black" fill="cyan"/>
  <circle cx="547.346" cy="539.152" r="4.84837" stroke-width="0.5" stroke="black" fill="cyan"/>
   </g>
   <g id="cell187">
  <circle cx="432.677" cy="558.695" r="7.09275" stroke-width="0.5" stroke="black" fill="green"/>
  <circle cx="432.677" cy="558.695" r="4.34447" stroke-width="0.5" stroke="black" fill="green"/>
   </g>
   <g id="cell188">
  <circle cx="536.698" cy="458.243" r="7.90785" stroke-width="0.5" stroke="black" fill="cyan"/>
  <circle cx="536.698" cy="458.243" r="4.79773" stroke-width="0.5" stroke="black" fill="cyan"/>
   </g>
   <g id="cell189">
  <circle cx="556.31" cy="471.027" r="7.89103" stroke-width="0.5" stroke="black" fill="cyan"/>
  <circle cx="556.31" cy="471.027" r="4.78876" stroke-width="0.5" stroke="black" fill="cyan"/>
   </g>
   <g id="cell190">
  <circle cx="404.58" cy="477.322" r="7.83772" stroke-width="0.5" stroke="black" fill="green"/>
  <circle cx="404.58" cy="477.322" r="4.76268" stroke-width="0.5" stroke="black" fill="green"/>
   </g>
   <g id="cell191">
  <circle cx="619.219" cy="518.638" r="7.8297" stroke-width="0.5" stroke="black" fill="cyan"/>
  <circle cx="619.219" cy="518.638" r="4.7533" stroke-width="0.5" stroke="black" fill="cyan"/>
   </g>
   <g id="cell192">
  <circle cx="512" cy="505.611" r="7.82546" stroke-width="0.5" stroke="black" fill="green"/>
  <circle cx="512" cy="505.611" r="4.75198" stroke-width="0.5" stroke="black" fill="green"/>
   </g>
   <g id="cell194">
  <circle cx="472.133" cy="437.474" r="7.49456" stroke-width="0.5" stroke="black" fill="magenta"/>
  <circle cx="472.133" cy="437.474" r="4.55548" stroke-width="0.5" stroke="black" fill="magenta"/>
   </g>
   <g id="cell196">
  <circle cx="425.746" cy="569.68" r="7.09275" stroke-width="0.5" stroke="black" fill="green"/>
  <circle cx="425.746" cy="569.68" r="4.34447" stroke-width="0.5" stroke="black" fill="green"/>
   </g>
   <g id="cell197">
  <circle cx="597.636" cy="599.656" r="7.36226" stroke-width="0.5" stroke="black" fill="magenta"/>
  <circle cx="597.636" cy="599.656" r="4.48038" stroke-width="0.5" stroke="black" fill="magenta"/>
   </g>
   <g id="cell198">
  <circle cx="467.998" cy="643.605" r="7.38797" stroke-width="0.5" stroke="black" fill="magenta"/>
  <circle cx="467.998" cy="643.605" r="4.49029" stroke-width="0.5" stroke="black" fill="magenta"/>
   </g>
   <g id="cell200">
  <circle cx="629.621" cy="559.712" r="7.18002" stroke-width="0.5" stroke="black" fill="green"/>
  <circle cx="629.621" cy="559.712" r="4.35989" stroke-width="0.5" stroke="black" fill="green"/>
   </g>
   <g id="cell202">
  <circle cx="413.783" cy="574.223" r="7.12946" stroke-width="0.5" stroke="black" fill="green"/>
  <circle cx="413.783" cy="574.223" r="4.33269" stroke-width="0.5" stroke="black" fill="green"/>
   </g>
   <g id="cell203">
  <circle cx="649.206" cy="564.854" r="7.14913" stroke-width="0.5" stroke="black" fill="green"/>
  <circle cx="649.206" cy="564.854" r="4.33986" stroke-width="0.5" stroke="black" fill="green"/>
   </g>
   <g id="cell204">
  <circle cx="520.899" cy="420.493" r="7.11815" stroke-width="0.5" stroke="black" fill="cyan"/>
  <circle cx="520.899" cy="420.493" r="4.31954" stroke-width="0.5" stroke="black" fill="cyan"/>
   </g>
   <g id="cell205">
  <circle cx="543.893" cy="475.749" r="7.0385" stroke-width="0.5" stroke="black" fill="magenta"/>
  <circle cx="543.893" cy="475.749" r="4.28015" stroke-width="0.5" stroke="black" fill="magenta"/>
   </g>
   <g id="cell206">
  <circle cx="401.194" cy="572.588" r="7.05439" stroke-width="0.5" stroke="black" fill="magenta"/>
  <circle cx="401.194" cy="572.588" r="4.27769" stroke-width="0.5" stroke="black" fill="magenta"/>
   </g>
   <g id="cell208">
  <circle cx="368.901" cy="590.857" r="6.98771" stroke-width="0.5" stroke="black" fill="cyan"/>
  <circle cx="368.901" cy="590.857" r="4.23411" stroke-width="0.5" stroke="black" fill="cyan"/>
   </g>
  </g>
 </g>
  <rect x="775" y="1035" width="200" height="10" stroke-width="2" stroke="rgb(255,255,255)" fill="rgb(0,0,0)"/>
  <text x="781.25" y="1028.75"
   font-family="Arial" font-size="25" fill="black" >
   200 &#956;m
  </text>
  <text x="25" y="1045"
   font-family="Arial" font-size="18.75" fill="black" >
   0 days, 0 hours, 0 minutes, and 48.2258 seconds
  </text>
  <rect x="0" y="70" width="1000" height="1000" stroke-width="2" stroke="rgb(0,0,0)" fill="none"/>
</svg>
