<?xml version="1.0" encoding="UTF-8" standalone="no"?>
<!-- Created with PhysiCell (http://PhysiCell.MathCancer.org/) -->
<svg 
 xmlns:dc="http://purl.org/dc/elements/1.1/" 
 xmlns:cc="http://creativecommons.org/ns#" 
 xmlns:rdf="http://www.w3.org/1999/02/22-rdf-syntax-ns#" 
 xmlns:svg="http://www.w3.org/2000/svg" 
 xmlns="http://www.w3.org/2000/svg" 
 version="1.1" 
 width="1000" 
 height="1070" 
 id="svg2">
  <rect x="0" y="0" width="1000" height="1070" stroke-width="2" stroke="white" fill="white"/>
  <text x="12.5" y="30"
   font-family="Arial" font-size="25" fill="black" >
   Current time: 0 days, 9 hours, and 0.00 minutes, z = 0.00 &#956;m
  </text>
  <text x="12.5" y="57.5"
   font-family="Arial" font-size="23.75" fill="black" >
   104 agents
  </text>
 <g id="tissue" 
    transform="translate(0,1070) scale(1,-1)">
  <g id="ECM">
  </g>
  <g id="cells">
   <g id="cell0">
  <circle cx="513.154" cy="530.955" r="8.41271" stroke-width="0.5" stroke="black" fill="magenta"/>
  <circle cx="513.154" cy="530.955" r="5.05167" stroke-width="0.5" stroke="black" fill="magenta"/>
   </g>
   <g id="cell1">
  <circle cx="602.063" cy="532.469" r="8.41271" stroke-width="0.5" stroke="black" fill="magenta"/>
  <circle cx="602.063" cy="532.469" r="5.05167" stroke-width="0.5" stroke="black" fill="magenta"/>
   </g>
   <g id="cell2">
  <circle cx="511.264" cy="599.96" r="8.41271" stroke-width="0.5" stroke="black" fill="magenta"/>
  <circle cx="511.264" cy="599.96" r="5.05167" stroke-width="0.5" stroke="black" fill="magenta"/>
   </g>
   <g id="cell3">
  <circle cx="532.328" cy="545.965" r="8.41271" stroke-width="0.5" stroke="black" fill="magenta"/>
  <circle cx="532.328" cy="545.965" r="5.05167" stroke-width="0.5" stroke="black" fill="magenta"/>
   </g>
   <g id="cell4">
  <circle cx="481.375" cy="439.864" r="8.41271" stroke-width="0.5" stroke="black" fill="magenta"/>
  <circle cx="481.375" cy="439.864" r="5.05167" stroke-width="0.5" stroke="black" fill="magenta"/>
   </g>
   <g id="cell5">
  <circle cx="465.032" cy="493.3" r="8.41271" stroke-width="0.5" stroke="black" fill="magenta"/>
  <circle cx="465.032" cy="493.3" r="5.05167" stroke-width="0.5" stroke="black" fill="magenta"/>
   </g>
   <g id="cell6">
  <circle cx="586.488" cy="512.735" r="6.85438" stroke-width="0.5" stroke="black" fill="magenta"/>
  <circle cx="586.488" cy="512.735" r="4.17309" stroke-width="0.5" stroke="black" fill="magenta"/>
   </g>
   <g id="cell7">
  <circle cx="512.083" cy="464.608" r="8.41271" stroke-width="0.5" stroke="black" fill="magenta"/>
  <circle cx="512.083" cy="464.608" r="5.05167" stroke-width="0.5" stroke="black" fill="magenta"/>
   </g>
   <g id="cell8">
  <circle cx="381.012" cy="544.233" r="8.41271" stroke-width="0.5" stroke="black" fill="magenta"/>
  <circle cx="381.012" cy="544.233" r="5.05167" stroke-width="0.5" stroke="black" fill="magenta"/>
   </g>
   <g id="cell9">
  <circle cx="465.05" cy="595.336" r="8.13008" stroke-width="0.5" stroke="black" fill="magenta"/>
  <circle cx="465.05" cy="595.336" r="4.91894" stroke-width="0.5" stroke="black" fill="magenta"/>
   </g>
   <g id="cell10">
  <circle cx="583.447" cy="392.105" r="8.41271" stroke-width="0.5" stroke="black" fill="magenta"/>
  <circle cx="583.447" cy="392.105" r="5.05167" stroke-width="0.5" stroke="black" fill="magenta"/>
   </g>
   <g id="cell11">
  <circle cx="594.051" cy="585.245" r="6.66922" stroke-width="0.5" stroke="black" fill="magenta"/>
  <circle cx="594.051" cy="585.245" r="4.08368" stroke-width="0.5" stroke="black" fill="magenta"/>
   </g>
   <g id="cell12">
  <circle cx="505.395" cy="585.09" r="8.41271" stroke-width="0.5" stroke="black" fill="magenta"/>
  <circle cx="505.395" cy="585.09" r="5.05167" stroke-width="0.5" stroke="black" fill="magenta"/>
   </g>
   <g id="cell13">
  <circle cx="393.456" cy="568.218" r="8.18177" stroke-width="0.5" stroke="black" fill="magenta"/>
  <circle cx="393.456" cy="568.218" r="4.94584" stroke-width="0.5" stroke="black" fill="magenta"/>
   </g>
   <g id="cell14">
  <circle cx="529.123" cy="395.711" r="1.52812" stroke-width="0.5" stroke="black" fill="magenta"/>
  <circle cx="529.123" cy="395.711" r="1.50599" stroke-width="0.5" stroke="black" fill="black"/>
   </g>
   <g id="cell15">
  <circle cx="379.896" cy="475.017" r="8.41271" stroke-width="0.5" stroke="black" fill="magenta"/>
  <circle cx="379.896" cy="475.017" r="5.05167" stroke-width="0.5" stroke="black" fill="magenta"/>
   </g>
   <g id="cell16">
  <circle cx="428.948" cy="413.428" r="8.41271" stroke-width="0.5" stroke="black" fill="magenta"/>
  <circle cx="428.948" cy="413.428" r="5.05167" stroke-width="0.5" stroke="black" fill="magenta"/>
   </g>
   <g id="cell17">
  <circle cx="572.196" cy="491.224" r="8.41271" stroke-width="0.5" stroke="black" fill="magenta"/>
  <circle cx="572.196" cy="491.224" r="5.05167" stroke-width="0.5" stroke="black" fill="magenta"/>
   </g>
   <g id="cell18">
  <circle cx="516.013" cy="387.86" r="8.41271" stroke-width="0.5" stroke="black" fill="magenta"/>
  <circle cx="516.013" cy="387.86" r="5.05167" stroke-width="0.5" stroke="black" fill="magenta"/>
   </g>
   <g id="cell19">
  <circle cx="453.367" cy="544.908" r="6.71158" stroke-width="0.5" stroke="black" fill="magenta"/>
  <circle cx="453.367" cy="544.908" r="4.03435" stroke-width="0.5" stroke="black" fill="magenta"/>
   </g>
   <g id="cell20">
  <circle cx="532.391" cy="417.782" r="8.41271" stroke-width="0.5" stroke="black" fill="magenta"/>
  <circle cx="532.391" cy="417.782" r="5.05167" stroke-width="0.5" stroke="black" fill="magenta"/>
   </g>
   <g id="cell21">
  <circle cx="464.212" cy="634.718" r="8.41271" stroke-width="0.5" stroke="black" fill="magenta"/>
  <circle cx="464.212" cy="634.718" r="5.05167" stroke-width="0.5" stroke="black" fill="magenta"/>
   </g>
   <g id="cell22">
  <circle cx="556.433" cy="493.708" r="8.41271" stroke-width="0.5" stroke="black" fill="magenta"/>
  <circle cx="556.433" cy="493.708" r="5.05167" stroke-width="0.5" stroke="black" fill="magenta"/>
   </g>
   <g id="cell23">
  <circle cx="533.734" cy="483.714" r="8.41271" stroke-width="0.5" stroke="black" fill="magenta"/>
  <circle cx="533.734" cy="483.714" r="5.05167" stroke-width="0.5" stroke="black" fill="magenta"/>
   </g>
   <g id="cell24">
  <circle cx="559.289" cy="379.784" r="2.04991" stroke-width="0.5" stroke="black" fill="magenta"/>
  <circle cx="559.289" cy="379.784" r="1.93256" stroke-width="0.5" stroke="black" fill="black"/>
   </g>
   <g id="cell25">
  <circle cx="638.228" cy="553.021" r="6.08756" stroke-width="0.5" stroke="black" fill="green"/>
  <circle cx="638.228" cy="553.021" r="3.74391" stroke-width="0.5" stroke="black" fill="green"/>
   </g>
   <g id="cell26">
  <circle cx="556.602" cy="398.62" r="7.61469" stroke-width="0.5" stroke="black" fill="green"/>
  <circle cx="556.602" cy="398.62" r="4.62762" stroke-width="0.5" stroke="black" fill="green"/>
   </g>
   <g id="cell27">
  <circle cx="457.446" cy="388.678" r="8.41271" stroke-width="0.5" stroke="black" fill="green"/>
  <circle cx="457.446" cy="388.678" r="5.05167" stroke-width="0.5" stroke="black" fill="green"/>
   </g>
   <g id="cell28">
  <circle cx="437.288" cy="530.227" r="8.41271" stroke-width="0.5" stroke="black" fill="green"/>
  <circle cx="437.288" cy="530.227" r="5.05167" stroke-width="0.5" stroke="black" fill="green"/>
   </g>
   <g id="cell29">
  <circle cx="448.866" cy="518.61" r="8.41271" stroke-width="0.5" stroke="black" fill="green"/>
  <circle cx="448.866" cy="518.61" r="5.05167" stroke-width="0.5" stroke="black" fill="green"/>
   </g>
   <g id="cell30">
  <circle cx="481.58" cy="540.282" r="2.34188" stroke-width="0.5" stroke="black" fill="green"/>
  <circle cx="481.58" cy="540.282" r="2.12529" stroke-width="0.5" stroke="black" fill="black"/>
   </g>
   <g id="cell31">
  <circle cx="412.757" cy="541.193" r="8.41271" stroke-width="0.5" stroke="black" fill="green"/>
  <circle cx="412.757" cy="541.193" r="5.05167" stroke-width="0.5" stroke="black" fill="green"/>
   </g>
   <g id="cell32">
  <circle cx="425.371" cy="474.829" r="8.41271" stroke-width="0.5" stroke="black" fill="green"/>
  <circle cx="425.371" cy="474.829" r="5.05167" stroke-width="0.5" stroke="black" fill="green"/>
   </g>
   <g id="cell33">
  <circle cx="494.146" cy="423.183" r="8.41271" stroke-width="0.5" stroke="black" fill="green"/>
  <circle cx="494.146" cy="423.183" r="5.05167" stroke-width="0.5" stroke="black" fill="green"/>
   </g>
   <g id="cell34">
  <circle cx="397.088" cy="450.831" r="8.41271" stroke-width="0.5" stroke="black" fill="green"/>
  <circle cx="397.088" cy="450.831" r="5.05167" stroke-width="0.5" stroke="black" fill="green"/>
   </g>
   <g id="cell35">
  <circle cx="548.11" cy="543.32" r="8.41271" stroke-width="0.5" stroke="black" fill="green"/>
  <circle cx="548.11" cy="543.32" r="5.05167" stroke-width="0.5" stroke="black" fill="green"/>
   </g>
   <g id="cell36">
  <circle cx="391.353" cy="583.814" r="8.41271" stroke-width="0.5" stroke="black" fill="green"/>
  <circle cx="391.353" cy="583.814" r="5.05167" stroke-width="0.5" stroke="black" fill="green"/>
   </g>
   <g id="cell37">
  <circle cx="634.871" cy="460.618" r="8.41271" stroke-width="0.5" stroke="black" fill="green"/>
  <circle cx="634.871" cy="460.618" r="5.05167" stroke-width="0.5" stroke="black" fill="green"/>
   </g>
   <g id="cell38">
  <circle cx="538.387" cy="613.171" r="8.18177" stroke-width="0.5" stroke="black" fill="green"/>
  <circle cx="538.387" cy="613.171" r="4.94584" stroke-width="0.5" stroke="black" fill="green"/>
   </g>
   <g id="cell39">
  <circle cx="613.805" cy="489.914" r="8.41271" stroke-width="0.5" stroke="black" fill="green"/>
  <circle cx="613.805" cy="489.914" r="5.05167" stroke-width="0.5" stroke="black" fill="green"/>
   </g>
   <g id="cell40">
  <circle cx="482.647" cy="567.172" r="7.90853" stroke-width="0.5" stroke="black" fill="green"/>
  <circle cx="482.647" cy="567.172" r="4.79791" stroke-width="0.5" stroke="black" fill="green"/>
   </g>
   <g id="cell41">
  <circle cx="364.751" cy="480.251" r="8.41271" stroke-width="0.5" stroke="black" fill="green"/>
  <circle cx="364.751" cy="480.251" r="5.05167" stroke-width="0.5" stroke="black" fill="green"/>
   </g>
   <g id="cell42">
  <circle cx="438.842" cy="494.268" r="8.41271" stroke-width="0.5" stroke="black" fill="green"/>
  <circle cx="438.842" cy="494.268" r="5.05167" stroke-width="0.5" stroke="black" fill="green"/>
   </g>
   <g id="cell43">
  <circle cx="559.246" cy="444.752" r="8.41271" stroke-width="0.5" stroke="black" fill="green"/>
  <circle cx="559.246" cy="444.752" r="5.05167" stroke-width="0.5" stroke="black" fill="green"/>
   </g>
   <g id="cell44">
  <circle cx="476.013" cy="623.877" r="8.41271" stroke-width="0.5" stroke="black" fill="green"/>
  <circle cx="476.013" cy="623.877" r="5.05167" stroke-width="0.5" stroke="black" fill="green"/>
   </g>
   <g id="cell45">
  <circle cx="414.953" cy="557.066" r="8.41271" stroke-width="0.5" stroke="black" fill="green"/>
  <circle cx="414.953" cy="557.066" r="5.05167" stroke-width="0.5" stroke="black" fill="green"/>
   </g>
   <g id="cell46">
  <circle cx="522.75" cy="611.075" r="8.41271" stroke-width="0.5" stroke="black" fill="green"/>
  <circle cx="522.75" cy="611.075" r="5.05167" stroke-width="0.5" stroke="black" fill="green"/>
   </g>
   <g id="cell47">
  <circle cx="496.219" cy="507.929" r="8.20088" stroke-width="0.5" stroke="black" fill="green"/>
  <circle cx="496.219" cy="507.929" r="4.95562" stroke-width="0.5" stroke="black" fill="green"/>
   </g>
   <g id="cell48">
  <circle cx="564.143" cy="603.12" r="8.41271" stroke-width="0.5" stroke="black" fill="green"/>
  <circle cx="564.143" cy="603.12" r="5.05167" stroke-width="0.5" stroke="black" fill="green"/>
   </g>
   <g id="cell49">
  <circle cx="429.837" cy="397.429" r="8.41271" stroke-width="0.5" stroke="black" fill="green"/>
  <circle cx="429.837" cy="397.429" r="5.05167" stroke-width="0.5" stroke="black" fill="green"/>
   </g>
   <g id="cell50">
  <circle cx="520.326" cy="516.634" r="8.41271" stroke-width="0.5" stroke="black" fill="cyan"/>
  <circle cx="520.326" cy="516.634" r="5.05167" stroke-width="0.5" stroke="black" fill="cyan"/>
   </g>
   <g id="cell51">
  <circle cx="404.259" cy="592.933" r="8.08613" stroke-width="0.5" stroke="black" fill="cyan"/>
  <circle cx="404.259" cy="592.933" r="4.8956" stroke-width="0.5" stroke="black" fill="cyan"/>
   </g>
   <g id="cell52">
  <circle cx="522.063" cy="430.087" r="8.41271" stroke-width="0.5" stroke="black" fill="cyan"/>
  <circle cx="522.063" cy="430.087" r="5.05167" stroke-width="0.5" stroke="black" fill="cyan"/>
   </g>
   <g id="cell53">
  <circle cx="574.032" cy="439.373" r="6.80881" stroke-width="0.5" stroke="black" fill="cyan"/>
  <circle cx="574.032" cy="439.373" r="4.10709" stroke-width="0.5" stroke="black" fill="cyan"/>
   </g>
   <g id="cell54">
  <circle cx="478.152" cy="424.167" r="8.41271" stroke-width="0.5" stroke="black" fill="cyan"/>
  <circle cx="478.152" cy="424.167" r="5.05167" stroke-width="0.5" stroke="black" fill="cyan"/>
   </g>
   <g id="cell55">
  <circle cx="529.88" cy="466.249" r="6.75639" stroke-width="0.5" stroke="black" fill="cyan"/>
  <circle cx="529.88" cy="466.249" r="4.06813" stroke-width="0.5" stroke="black" fill="cyan"/>
   </g>
   <g id="cell56">
  <circle cx="624.429" cy="521.633" r="7.1497" stroke-width="0.5" stroke="black" fill="cyan"/>
  <circle cx="624.429" cy="521.633" r="4.34001" stroke-width="0.5" stroke="black" fill="cyan"/>
   </g>
   <g id="cell57">
  <circle cx="416.924" cy="617.466" r="8.41271" stroke-width="0.5" stroke="black" fill="cyan"/>
  <circle cx="416.924" cy="617.466" r="5.05167" stroke-width="0.5" stroke="black" fill="cyan"/>
   </g>
   <g id="cell58">
  <circle cx="549.255" cy="479.612" r="8.41271" stroke-width="0.5" stroke="black" fill="cyan"/>
  <circle cx="549.255" cy="479.612" r="5.05167" stroke-width="0.5" stroke="black" fill="cyan"/>
   </g>
   <g id="cell59">
  <circle cx="385.463" cy="439.803" r="8.41271" stroke-width="0.5" stroke="black" fill="cyan"/>
  <circle cx="385.463" cy="439.803" r="5.05167" stroke-width="0.5" stroke="black" fill="cyan"/>
   </g>
   <g id="cell60">
  <circle cx="604.712" cy="472.962" r="8.01277" stroke-width="0.5" stroke="black" fill="cyan"/>
  <circle cx="604.712" cy="472.962" r="4.85584" stroke-width="0.5" stroke="black" fill="cyan"/>
   </g>
   <g id="cell61">
  <circle cx="552.376" cy="613.284" r="1.82001" stroke-width="0.5" stroke="black" fill="cyan"/>
  <circle cx="552.376" cy="613.284" r="1.7574" stroke-width="0.5" stroke="black" fill="black"/>
   </g>
   <g id="cell62">
  <circle cx="521.424" cy="445.866" r="6.80881" stroke-width="0.5" stroke="black" fill="cyan"/>
  <circle cx="521.424" cy="445.866" r="4.10709" stroke-width="0.5" stroke="black" fill="cyan"/>
   </g>
   <g id="cell63">
  <circle cx="577.589" cy="546.504" r="8.41271" stroke-width="0.5" stroke="black" fill="cyan"/>
  <circle cx="577.589" cy="546.504" r="5.05167" stroke-width="0.5" stroke="black" fill="cyan"/>
   </g>
   <g id="cell64">
  <circle cx="509.962" cy="636.825" r="8.41271" stroke-width="0.5" stroke="black" fill="cyan"/>
  <circle cx="509.962" cy="636.825" r="5.05167" stroke-width="0.5" stroke="black" fill="cyan"/>
   </g>
   <g id="cell65">
  <circle cx="544.065" cy="464.778" r="8.41271" stroke-width="0.5" stroke="black" fill="cyan"/>
  <circle cx="544.065" cy="464.778" r="5.05167" stroke-width="0.5" stroke="black" fill="cyan"/>
   </g>
   <g id="cell66">
  <circle cx="537.245" cy="530.747" r="8.41271" stroke-width="0.5" stroke="black" fill="cyan"/>
  <circle cx="537.245" cy="530.747" r="5.05167" stroke-width="0.5" stroke="black" fill="cyan"/>
   </g>
   <g id="cell67">
  <circle cx="354.64" cy="492.683" r="8.41271" stroke-width="0.5" stroke="black" fill="cyan"/>
  <circle cx="354.64" cy="492.683" r="5.05167" stroke-width="0.5" stroke="black" fill="cyan"/>
   </g>
   <g id="cell68">
  <circle cx="562.235" cy="551.268" r="8.41271" stroke-width="0.5" stroke="black" fill="cyan"/>
  <circle cx="562.235" cy="551.268" r="5.05167" stroke-width="0.5" stroke="black" fill="cyan"/>
   </g>
   <g id="cell69">
  <circle cx="437.64" cy="464.521" r="8.41271" stroke-width="0.5" stroke="black" fill="cyan"/>
  <circle cx="437.64" cy="464.521" r="5.05167" stroke-width="0.5" stroke="black" fill="cyan"/>
   </g>
   <g id="cell70">
  <circle cx="576.138" cy="476.745" r="7.46878" stroke-width="0.5" stroke="black" fill="cyan"/>
  <circle cx="576.138" cy="476.745" r="4.53982" stroke-width="0.5" stroke="black" fill="cyan"/>
   </g>
   <g id="cell71">
  <circle cx="377.712" cy="520.989" r="8.41271" stroke-width="0.5" stroke="black" fill="cyan"/>
  <circle cx="377.712" cy="520.989" r="5.05167" stroke-width="0.5" stroke="black" fill="cyan"/>
   </g>
   <g id="cell72">
  <circle cx="536.213" cy="514.63" r="8.41271" stroke-width="0.5" stroke="black" fill="cyan"/>
  <circle cx="536.213" cy="514.63" r="5.05167" stroke-width="0.5" stroke="black" fill="cyan"/>
   </g>
   <g id="cell73">
  <circle cx="352.938" cy="547.273" r="7.24243" stroke-width="0.5" stroke="black" fill="cyan"/>
  <circle cx="352.938" cy="547.273" r="4.39934" stroke-width="0.5" stroke="black" fill="cyan"/>
   </g>
   <g id="cell74">
  <circle cx="543.786" cy="449.033" r="8.41271" stroke-width="0.5" stroke="black" fill="cyan"/>
  <circle cx="543.786" cy="449.033" r="5.05167" stroke-width="0.5" stroke="black" fill="cyan"/>
   </g>
   <g id="cell75">
  <circle cx="591.236" cy="498.347" r="7.78747" stroke-width="0.5" stroke="black" fill="magenta"/>
  <circle cx="591.236" cy="498.347" r="4.74164" stroke-width="0.5" stroke="black" fill="magenta"/>
   </g>
   <g id="cell76">
  <circle cx="646.362" cy="542.321" r="8.20689" stroke-width="0.5" stroke="black" fill="green"/>
  <circle cx="646.362" cy="542.321" r="4.95867" stroke-width="0.5" stroke="black" fill="green"/>
   </g>
   <g id="cell77">
  <circle cx="511.238" cy="503.701" r="8.20088" stroke-width="0.5" stroke="black" fill="green"/>
  <circle cx="511.238" cy="503.701" r="4.95562" stroke-width="0.5" stroke="black" fill="green"/>
   </g>
   <g id="cell78">
  <circle cx="372.112" cy="569.918" r="7.5207" stroke-width="0.5" stroke="black" fill="magenta"/>
  <circle cx="372.112" cy="569.918" r="4.58968" stroke-width="0.5" stroke="black" fill="magenta"/>
   </g>
   <g id="cell79">
  <circle cx="534.772" cy="584.749" r="7.58644" stroke-width="0.5" stroke="black" fill="green"/>
  <circle cx="534.772" cy="584.749" r="4.63948" stroke-width="0.5" stroke="black" fill="green"/>
   </g>
   <g id="cell80">
  <circle cx="453.96" cy="606.116" r="8.13008" stroke-width="0.5" stroke="black" fill="magenta"/>
  <circle cx="453.96" cy="606.116" r="4.91894" stroke-width="0.5" stroke="black" fill="magenta"/>
   </g>
   <g id="cell81">
  <circle cx="393.495" cy="610.136" r="6.5601" stroke-width="0.5" stroke="black" fill="cyan"/>
  <circle cx="393.495" cy="610.136" r="3.98796" stroke-width="0.5" stroke="black" fill="cyan"/>
   </g>
   <g id="cell82">
  <circle cx="586.039" cy="467.636" r="6.80687" stroke-width="0.5" stroke="black" fill="cyan"/>
  <circle cx="586.039" cy="467.636" r="4.16072" stroke-width="0.5" stroke="black" fill="cyan"/>
   </g>
   <g id="cell83">
  <circle cx="540.762" cy="598.126" r="7.88698" stroke-width="0.5" stroke="black" fill="green"/>
  <circle cx="540.762" cy="598.126" r="4.79795" stroke-width="0.5" stroke="black" fill="green"/>
   </g>
   <g id="cell84">
  <circle cx="490.864" cy="579.731" r="7.90853" stroke-width="0.5" stroke="black" fill="green"/>
  <circle cx="490.864" cy="579.731" r="4.79791" stroke-width="0.5" stroke="black" fill="green"/>
   </g>
   <g id="cell85">
  <circle cx="605.367" cy="502.712" r="7.78747" stroke-width="0.5" stroke="black" fill="magenta"/>
  <circle cx="605.367" cy="502.712" r="4.74164" stroke-width="0.5" stroke="black" fill="magenta"/>
   </g>
   <g id="cell86">
  <circle cx="526.099" cy="596.265" r="7.58644" stroke-width="0.5" stroke="black" fill="green"/>
  <circle cx="526.099" cy="596.265" r="4.63948" stroke-width="0.5" stroke="black" fill="green"/>
   </g>
   <g id="cell87">
  <circle cx="591.288" cy="598.682" r="7.81315" stroke-width="0.5" stroke="black" fill="magenta"/>
  <circle cx="591.288" cy="598.682" r="4.74367" stroke-width="0.5" stroke="black" fill="magenta"/>
   </g>
   <g id="cell88">
  <circle cx="381.57" cy="559.289" r="7.5207" stroke-width="0.5" stroke="black" fill="magenta"/>
  <circle cx="381.57" cy="559.289" r="4.58968" stroke-width="0.5" stroke="black" fill="magenta"/>
   </g>
   <g id="cell89">
  <circle cx="545.304" cy="411.138" r="6.8846" stroke-width="0.5" stroke="black" fill="green"/>
  <circle cx="545.304" cy="411.138" r="4.22295" stroke-width="0.5" stroke="black" fill="green"/>
   </g>
   <g id="cell90">
  <circle cx="562.618" cy="472.641" r="7.46878" stroke-width="0.5" stroke="black" fill="cyan"/>
  <circle cx="562.618" cy="472.641" r="4.53982" stroke-width="0.5" stroke="black" fill="cyan"/>
   </g>
   <g id="cell91">
  <circle cx="542.856" cy="398.343" r="6.8846" stroke-width="0.5" stroke="black" fill="green"/>
  <circle cx="542.856" cy="398.343" r="4.22295" stroke-width="0.5" stroke="black" fill="green"/>
   </g>
   <g id="cell92">
  <circle cx="640.962" cy="565.121" r="7.1356" stroke-width="0.5" stroke="black" fill="green"/>
  <circle cx="640.962" cy="565.121" r="4.3553" stroke-width="0.5" stroke="black" fill="green"/>
   </g>
   <g id="cell93">
  <circle cx="366.209" cy="543.909" r="7.24243" stroke-width="0.5" stroke="black" fill="cyan"/>
  <circle cx="366.209" cy="543.909" r="4.39934" stroke-width="0.5" stroke="black" fill="cyan"/>
   </g>
   <g id="cell94">
  <circle cx="611.004" cy="520.739" r="7.1497" stroke-width="0.5" stroke="black" fill="cyan"/>
  <circle cx="611.004" cy="520.739" r="4.34001" stroke-width="0.5" stroke="black" fill="cyan"/>
   </g>
   <g id="cell95">
  <circle cx="581.484" cy="586.351" r="6.66922" stroke-width="0.5" stroke="black" fill="magenta"/>
  <circle cx="581.484" cy="586.351" r="4.08368" stroke-width="0.5" stroke="black" fill="magenta"/>
   </g>
   <g id="cell96">
  <circle cx="592.02" cy="479.064" r="6.80687" stroke-width="0.5" stroke="black" fill="cyan"/>
  <circle cx="592.02" cy="479.064" r="4.16072" stroke-width="0.5" stroke="black" fill="cyan"/>
   </g>
   <g id="cell97">
  <circle cx="627.618" cy="548.753" r="6.08756" stroke-width="0.5" stroke="black" fill="green"/>
  <circle cx="627.618" cy="548.753" r="3.74391" stroke-width="0.5" stroke="black" fill="green"/>
   </g>
   <g id="cell98">
  <circle cx="599.157" cy="515.077" r="6.85438" stroke-width="0.5" stroke="black" fill="magenta"/>
  <circle cx="599.157" cy="515.077" r="4.17309" stroke-width="0.5" stroke="black" fill="magenta"/>
   </g>
   <g id="cell99">
  <circle cx="564.264" cy="431.007" r="6.80881" stroke-width="0.5" stroke="black" fill="cyan"/>
  <circle cx="564.264" cy="431.007" r="4.10709" stroke-width="0.5" stroke="black" fill="cyan"/>
   </g>
   <g id="cell100">
  <circle cx="391.313" cy="597.947" r="6.5601" stroke-width="0.5" stroke="black" fill="cyan"/>
  <circle cx="391.313" cy="597.947" r="3.98796" stroke-width="0.5" stroke="black" fill="cyan"/>
   </g>
   <g id="cell101">
  <circle cx="532.767" cy="439.845" r="6.80881" stroke-width="0.5" stroke="black" fill="cyan"/>
  <circle cx="532.767" cy="439.845" r="4.10709" stroke-width="0.5" stroke="black" fill="cyan"/>
   </g>
   <g id="cell102">
  <circle cx="521.42" cy="475.735" r="6.75639" stroke-width="0.5" stroke="black" fill="cyan"/>
  <circle cx="521.42" cy="475.735" r="4.06813" stroke-width="0.5" stroke="black" fill="cyan"/>
   </g>
   <g id="cell103">
  <circle cx="451.244" cy="532.574" r="6.71158" stroke-width="0.5" stroke="black" fill="magenta"/>
  <circle cx="451.244" cy="532.574" r="4.03435" stroke-width="0.5" stroke="black" fill="magenta"/>
   </g>
  </g>
 </g>
  <rect x="775" y="1035" width="200" height="10" stroke-width="2" stroke="rgb(255,255,255)" fill="rgb(0,0,0)"/>
  <text x="781.25" y="1028.75"
   font-family="Arial" font-size="25" fill="black" >
   200 &#956;m
  </text>
  <text x="25" y="1045"
   font-family="Arial" font-size="18.75" fill="black" >
   0 days, 0 hours, 0 minutes, and 12.1452 seconds
  </text>
  <rect x="0" y="70" width="1000" height="1000" stroke-width="2" stroke="rgb(0,0,0)" fill="none"/>
</svg>
