<?xml version="1.0" encoding="UTF-8" standalone="no"?>
<!-- Created with PhysiCell (http://PhysiCell.MathCancer.org/) -->
<svg 
 xmlns:dc="http://purl.org/dc/elements/1.1/" 
 xmlns:cc="http://creativecommons.org/ns#" 
 xmlns:rdf="http://www.w3.org/1999/02/22-rdf-syntax-ns#" 
 xmlns:svg="http://www.w3.org/2000/svg" 
 xmlns="http://www.w3.org/2000/svg" 
 version="1.1" 
 width="1000" 
 height="1070" 
 id="svg2">
  <rect x="0" y="0" width="1000" height="1070" stroke-width="2" stroke="white" fill="white"/>
  <text x="12.5" y="30"
   font-family="Arial" font-size="25" fill="black" >
   Current time: 1 days, 9 hours, and 30.00 minutes, z = 0.00 &#956;m
  </text>
  <text x="12.5" y="57.5"
   font-family="Arial" font-size="23.75" fill="black" >
   186 agents
  </text>
 <g id="tissue" 
    transform="translate(0,1070) scale(1,-1)">
  <g id="ECM">
  </g>
  <g id="cells">
   <g id="cell0">
  <circle cx="511.218" cy="533.912" r="8.4125" stroke-width="0.5" stroke="black" fill="magenta"/>
  <circle cx="511.218" cy="533.912" r="5.05162" stroke-width="0.5" stroke="black" fill="magenta"/>
   </g>
   <g id="cell147">
  <circle cx="422.167" cy="575.272" r="8.30233" stroke-width="0.5" stroke="black" fill="green"/>
  <circle cx="422.167" cy="575.272" r="5.00562" stroke-width="0.5" stroke="black" fill="green"/>
   </g>
   <g id="cell2">
  <circle cx="503.367" cy="593.623" r="8.38291" stroke-width="0.5" stroke="black" fill="magenta"/>
  <circle cx="503.367" cy="593.623" r="5.04103" stroke-width="0.5" stroke="black" fill="magenta"/>
   </g>
   <g id="cell3">
  <circle cx="538.84" cy="545.519" r="8.37321" stroke-width="0.5" stroke="black" fill="magenta"/>
  <circle cx="538.84" cy="545.519" r="5.03708" stroke-width="0.5" stroke="black" fill="magenta"/>
   </g>
   <g id="cell4">
  <circle cx="455.024" cy="439.496" r="8.41252" stroke-width="0.5" stroke="black" fill="magenta"/>
  <circle cx="455.024" cy="439.496" r="5.05163" stroke-width="0.5" stroke="black" fill="magenta"/>
   </g>
   <g id="cell5">
  <circle cx="460.647" cy="493.732" r="8.32032" stroke-width="0.5" stroke="black" fill="magenta"/>
  <circle cx="460.647" cy="493.732" r="5.01383" stroke-width="0.5" stroke="black" fill="magenta"/>
   </g>
   <g id="cell6">
  <circle cx="596.188" cy="516.25" r="8.41204" stroke-width="0.5" stroke="black" fill="magenta"/>
  <circle cx="596.188" cy="516.25" r="5.05151" stroke-width="0.5" stroke="black" fill="magenta"/>
   </g>
   <g id="cell7">
  <circle cx="513.422" cy="463.712" r="8.41271" stroke-width="0.5" stroke="black" fill="magenta"/>
  <circle cx="513.422" cy="463.712" r="5.05167" stroke-width="0.5" stroke="black" fill="magenta"/>
   </g>
   <g id="cell8">
  <circle cx="365.145" cy="549.207" r="8.32543" stroke-width="0.5" stroke="black" fill="magenta"/>
  <circle cx="365.145" cy="549.207" r="5.01617" stroke-width="0.5" stroke="black" fill="magenta"/>
   </g>
   <g id="cell9">
  <circle cx="462.773" cy="601.826" r="8.412" stroke-width="0.5" stroke="black" fill="magenta"/>
  <circle cx="462.773" cy="601.826" r="5.0515" stroke-width="0.5" stroke="black" fill="magenta"/>
   </g>
   <g id="cell10">
  <circle cx="588.183" cy="396.874" r="8.32676" stroke-width="0.5" stroke="black" fill="magenta"/>
  <circle cx="588.183" cy="396.874" r="5.01791" stroke-width="0.5" stroke="black" fill="magenta"/>
   </g>
   <g id="cell11">
  <circle cx="589.748" cy="590.273" r="8.41271" stroke-width="0.5" stroke="black" fill="magenta"/>
  <circle cx="589.748" cy="590.273" r="5.05167" stroke-width="0.5" stroke="black" fill="magenta"/>
   </g>
   <g id="cell12">
  <circle cx="495.766" cy="580.643" r="8.41271" stroke-width="0.5" stroke="black" fill="magenta"/>
  <circle cx="495.766" cy="580.643" r="5.05167" stroke-width="0.5" stroke="black" fill="magenta"/>
   </g>
   <g id="cell13">
  <circle cx="377.775" cy="558.348" r="8.40271" stroke-width="0.5" stroke="black" fill="magenta"/>
  <circle cx="377.775" cy="558.348" r="5.04856" stroke-width="0.5" stroke="black" fill="magenta"/>
   </g>
   <g id="cell14">
  <circle cx="529.059" cy="395.943" r="7.99769" stroke-width="0.5" stroke="black" fill="magenta"/>
  <circle cx="529.059" cy="395.943" r="4.85039" stroke-width="0.5" stroke="black" fill="magenta"/>
   </g>
   <g id="cell15">
  <circle cx="389.374" cy="488.784" r="8.13605" stroke-width="0.5" stroke="black" fill="magenta"/>
  <circle cx="389.374" cy="488.784" r="4.92561" stroke-width="0.5" stroke="black" fill="magenta"/>
   </g>
   <g id="cell16">
  <circle cx="430.372" cy="415.482" r="8.41271" stroke-width="0.5" stroke="black" fill="magenta"/>
  <circle cx="430.372" cy="415.482" r="5.05167" stroke-width="0.5" stroke="black" fill="magenta"/>
   </g>
   <g id="cell17">
  <circle cx="580.468" cy="484.492" r="8.41121" stroke-width="0.5" stroke="black" fill="magenta"/>
  <circle cx="580.468" cy="484.492" r="5.05128" stroke-width="0.5" stroke="black" fill="magenta"/>
   </g>
   <g id="cell18">
  <circle cx="514.034" cy="394.234" r="8.41253" stroke-width="0.5" stroke="black" fill="magenta"/>
  <circle cx="514.034" cy="394.234" r="5.05163" stroke-width="0.5" stroke="black" fill="magenta"/>
   </g>
   <g id="cell19">
  <circle cx="452.859" cy="541.358" r="8.41177" stroke-width="0.5" stroke="black" fill="magenta"/>
  <circle cx="452.859" cy="541.358" r="5.05144" stroke-width="0.5" stroke="black" fill="magenta"/>
   </g>
   <g id="cell20">
  <circle cx="525.532" cy="421.032" r="8.41271" stroke-width="0.5" stroke="black" fill="magenta"/>
  <circle cx="525.532" cy="421.032" r="5.05167" stroke-width="0.5" stroke="black" fill="magenta"/>
   </g>
   <g id="cell141">
  <circle cx="493.79" cy="441.803" r="7.17812" stroke-width="0.5" stroke="black" fill="magenta"/>
  <circle cx="493.79" cy="441.803" r="4.39757" stroke-width="0.5" stroke="black" fill="magenta"/>
   </g>
   <g id="cell22">
  <circle cx="560.572" cy="496.877" r="8.41141" stroke-width="0.5" stroke="black" fill="magenta"/>
  <circle cx="560.572" cy="496.877" r="5.05135" stroke-width="0.5" stroke="black" fill="magenta"/>
   </g>
   <g id="cell23">
  <circle cx="535.766" cy="484.918" r="8.41271" stroke-width="0.5" stroke="black" fill="magenta"/>
  <circle cx="535.766" cy="484.918" r="5.05167" stroke-width="0.5" stroke="black" fill="magenta"/>
   </g>
   <g id="cell24">
  <circle cx="562.805" cy="381.837" r="8.41271" stroke-width="0.5" stroke="black" fill="magenta"/>
  <circle cx="562.805" cy="381.837" r="5.05167" stroke-width="0.5" stroke="black" fill="magenta"/>
   </g>
   <g id="cell25">
  <circle cx="653.472" cy="564.441" r="8.23691" stroke-width="0.5" stroke="black" fill="green"/>
  <circle cx="653.472" cy="564.441" r="4.9743" stroke-width="0.5" stroke="black" fill="green"/>
   </g>
   <g id="cell26">
  <circle cx="548.687" cy="401.984" r="8.41271" stroke-width="0.5" stroke="black" fill="green"/>
  <circle cx="548.687" cy="401.984" r="5.05167" stroke-width="0.5" stroke="black" fill="green"/>
   </g>
   <g id="cell27">
  <circle cx="452.177" cy="389.579" r="8.02418" stroke-width="0.5" stroke="black" fill="green"/>
  <circle cx="452.177" cy="389.579" r="4.86209" stroke-width="0.5" stroke="black" fill="green"/>
   </g>
   <g id="cell28">
  <circle cx="440.611" cy="550.459" r="8.41271" stroke-width="0.5" stroke="black" fill="green"/>
  <circle cx="440.611" cy="550.459" r="5.05167" stroke-width="0.5" stroke="black" fill="green"/>
   </g>
   <g id="cell29">
  <circle cx="466.704" cy="518.521" r="8.40669" stroke-width="0.5" stroke="black" fill="green"/>
  <circle cx="466.704" cy="518.521" r="5.04991" stroke-width="0.5" stroke="black" fill="green"/>
   </g>
   <g id="cell30">
  <circle cx="480.329" cy="539.889" r="8.41271" stroke-width="0.5" stroke="black" fill="green"/>
  <circle cx="480.329" cy="539.889" r="5.05167" stroke-width="0.5" stroke="black" fill="green"/>
   </g>
   <g id="cell31">
  <circle cx="410.129" cy="531.284" r="7.08639" stroke-width="0.5" stroke="black" fill="green"/>
  <circle cx="410.129" cy="531.284" r="4.29876" stroke-width="0.5" stroke="black" fill="green"/>
   </g>
   <g id="cell32">
  <circle cx="425.195" cy="455.683" r="8.14566" stroke-width="0.5" stroke="black" fill="green"/>
  <circle cx="425.195" cy="455.683" r="4.92719" stroke-width="0.5" stroke="black" fill="green"/>
   </g>
   <g id="cell33">
  <circle cx="497.956" cy="414.671" r="8.41225" stroke-width="0.5" stroke="black" fill="green"/>
  <circle cx="497.956" cy="414.671" r="5.05156" stroke-width="0.5" stroke="black" fill="green"/>
   </g>
   <g id="cell34">
  <circle cx="391.947" cy="454.265" r="8.41214" stroke-width="0.5" stroke="black" fill="green"/>
  <circle cx="391.947" cy="454.265" r="5.05154" stroke-width="0.5" stroke="black" fill="green"/>
   </g>
   <g id="cell35">
  <circle cx="546.946" cy="558.349" r="8.41043" stroke-width="0.5" stroke="black" fill="green"/>
  <circle cx="546.946" cy="558.349" r="5.05106" stroke-width="0.5" stroke="black" fill="green"/>
   </g>
   <g id="cell36">
  <circle cx="392.806" cy="581.041" r="8.4009" stroke-width="0.5" stroke="black" fill="green"/>
  <circle cx="392.806" cy="581.041" r="5.04788" stroke-width="0.5" stroke="black" fill="green"/>
   </g>
   <g id="cell174">
  <circle cx="477.869" cy="617.56" r="7.84639" stroke-width="0.5" stroke="black" fill="green"/>
  <circle cx="477.869" cy="617.56" r="4.76281" stroke-width="0.5" stroke="black" fill="green"/>
   </g>
   <g id="cell38">
  <circle cx="526.339" cy="606.375" r="8.41182" stroke-width="0.5" stroke="black" fill="green"/>
  <circle cx="526.339" cy="606.375" r="5.05145" stroke-width="0.5" stroke="black" fill="green"/>
   </g>
   <g id="cell39">
  <circle cx="617.047" cy="498.413" r="7.95033" stroke-width="0.5" stroke="black" fill="green"/>
  <circle cx="617.047" cy="498.413" r="4.82136" stroke-width="0.5" stroke="black" fill="green"/>
   </g>
   <g id="cell40">
  <circle cx="483.982" cy="570.597" r="8.41271" stroke-width="0.5" stroke="black" fill="green"/>
  <circle cx="483.982" cy="570.597" r="5.05167" stroke-width="0.5" stroke="black" fill="green"/>
   </g>
   <g id="cell41">
  <circle cx="363.258" cy="479.381" r="8.41271" stroke-width="0.5" stroke="black" fill="green"/>
  <circle cx="363.258" cy="479.381" r="5.05167" stroke-width="0.5" stroke="black" fill="green"/>
   </g>
   <g id="cell176">
  <circle cx="467.793" cy="447.134" r="7.33571" stroke-width="0.5" stroke="black" fill="magenta"/>
  <circle cx="467.793" cy="447.134" r="4.49136" stroke-width="0.5" stroke="black" fill="magenta"/>
   </g>
   <g id="cell43">
  <circle cx="558.191" cy="445.615" r="8.41271" stroke-width="0.5" stroke="black" fill="green"/>
  <circle cx="558.191" cy="445.615" r="5.05167" stroke-width="0.5" stroke="black" fill="green"/>
   </g>
   <g id="cell44">
  <circle cx="487.979" cy="629.178" r="8.25793" stroke-width="0.5" stroke="black" fill="green"/>
  <circle cx="487.979" cy="629.178" r="4.98421" stroke-width="0.5" stroke="black" fill="green"/>
   </g>
   <g id="cell45">
  <circle cx="431.923" cy="562.985" r="7.82685" stroke-width="0.5" stroke="black" fill="green"/>
  <circle cx="431.923" cy="562.985" r="4.77167" stroke-width="0.5" stroke="black" fill="green"/>
   </g>
   <g id="cell46">
  <circle cx="520.746" cy="620.986" r="8.34807" stroke-width="0.5" stroke="black" fill="green"/>
  <circle cx="520.746" cy="620.986" r="5.02688" stroke-width="0.5" stroke="black" fill="green"/>
   </g>
   <g id="cell47">
  <circle cx="494.715" cy="510.004" r="8.41271" stroke-width="0.5" stroke="black" fill="green"/>
  <circle cx="494.715" cy="510.004" r="5.05167" stroke-width="0.5" stroke="black" fill="green"/>
   </g>
   <g id="cell48">
  <circle cx="566.013" cy="605.701" r="8.41271" stroke-width="0.5" stroke="black" fill="green"/>
  <circle cx="566.013" cy="605.701" r="5.05167" stroke-width="0.5" stroke="black" fill="green"/>
   </g>
   <g id="cell49">
  <circle cx="438.264" cy="390.653" r="6.88261" stroke-width="0.5" stroke="black" fill="green"/>
  <circle cx="438.264" cy="390.653" r="4.16528" stroke-width="0.5" stroke="black" fill="green"/>
   </g>
   <g id="cell50">
  <circle cx="508.188" cy="497.311" r="6.18747" stroke-width="0.5" stroke="black" fill="cyan"/>
  <circle cx="508.188" cy="497.311" r="3.76839" stroke-width="0.5" stroke="black" fill="cyan"/>
   </g>
   <g id="cell51">
  <circle cx="385.09" cy="604.221" r="8.27778" stroke-width="0.5" stroke="black" fill="cyan"/>
  <circle cx="385.09" cy="604.221" r="4.995" stroke-width="0.5" stroke="black" fill="cyan"/>
   </g>
   <g id="cell120">
  <circle cx="419.449" cy="610.603" r="8.40403" stroke-width="0.5" stroke="black" fill="cyan"/>
  <circle cx="419.449" cy="610.603" r="5.04898" stroke-width="0.5" stroke="black" fill="cyan"/>
   </g>
   <g id="cell53">
  <circle cx="571.109" cy="436.134" r="8.41271" stroke-width="0.5" stroke="black" fill="cyan"/>
  <circle cx="571.109" cy="436.134" r="5.05167" stroke-width="0.5" stroke="black" fill="cyan"/>
   </g>
   <g id="cell54">
  <circle cx="486.486" cy="425.534" r="8.3031" stroke-width="0.5" stroke="black" fill="cyan"/>
  <circle cx="486.486" cy="425.534" r="5.00583" stroke-width="0.5" stroke="black" fill="cyan"/>
   </g>
   <g id="cell55">
  <circle cx="521.309" cy="477.985" r="8.41271" stroke-width="0.5" stroke="black" fill="cyan"/>
  <circle cx="521.309" cy="477.985" r="5.05167" stroke-width="0.5" stroke="black" fill="cyan"/>
   </g>
   <g id="cell56">
  <circle cx="620.427" cy="520.413" r="5.96717" stroke-width="0.5" stroke="black" fill="cyan"/>
  <circle cx="620.427" cy="520.413" r="3.65171" stroke-width="0.5" stroke="black" fill="cyan"/>
   </g>
   <g id="cell57">
  <circle cx="418.485" cy="626.58" r="8.40403" stroke-width="0.5" stroke="black" fill="cyan"/>
  <circle cx="418.485" cy="626.58" r="5.04898" stroke-width="0.5" stroke="black" fill="cyan"/>
   </g>
   <g id="cell58">
  <circle cx="551.065" cy="483.935" r="8.41271" stroke-width="0.5" stroke="black" fill="cyan"/>
  <circle cx="551.065" cy="483.935" r="5.05167" stroke-width="0.5" stroke="black" fill="cyan"/>
   </g>
   <g id="cell59">
  <circle cx="385.354" cy="439.594" r="8.41271" stroke-width="0.5" stroke="black" fill="cyan"/>
  <circle cx="385.354" cy="439.594" r="5.05167" stroke-width="0.5" stroke="black" fill="cyan"/>
   </g>
   <g id="cell60">
  <circle cx="599.376" cy="471.198" r="6.77368" stroke-width="0.5" stroke="black" fill="cyan"/>
  <circle cx="599.376" cy="471.198" r="4.08452" stroke-width="0.5" stroke="black" fill="cyan"/>
   </g>
   <g id="cell155">
  <circle cx="518.173" cy="593.276" r="8.15582" stroke-width="0.5" stroke="black" fill="magenta"/>
  <circle cx="518.173" cy="593.276" r="4.93882" stroke-width="0.5" stroke="black" fill="magenta"/>
   </g>
   <g id="cell62">
  <circle cx="525.978" cy="436.286" r="8.41271" stroke-width="0.5" stroke="black" fill="cyan"/>
  <circle cx="525.978" cy="436.286" r="5.05167" stroke-width="0.5" stroke="black" fill="cyan"/>
   </g>
   <g id="cell63">
  <circle cx="582.045" cy="551.378" r="8.41182" stroke-width="0.5" stroke="black" fill="cyan"/>
  <circle cx="582.045" cy="551.378" r="5.05145" stroke-width="0.5" stroke="black" fill="cyan"/>
   </g>
   <g id="cell64">
  <circle cx="511.385" cy="633.742" r="8.40123" stroke-width="0.5" stroke="black" fill="cyan"/>
  <circle cx="511.385" cy="633.742" r="5.048" stroke-width="0.5" stroke="black" fill="cyan"/>
   </g>
   <g id="cell65">
  <circle cx="532.761" cy="450.029" r="8.09493" stroke-width="0.5" stroke="black" fill="cyan"/>
  <circle cx="532.761" cy="450.029" r="4.90045" stroke-width="0.5" stroke="black" fill="cyan"/>
   </g>
   <g id="cell66">
  <circle cx="550.348" cy="524.147" r="8.4045" stroke-width="0.5" stroke="black" fill="cyan"/>
  <circle cx="550.348" cy="524.147" r="5.04914" stroke-width="0.5" stroke="black" fill="cyan"/>
   </g>
   <g id="cell67">
  <circle cx="354.58" cy="492.851" r="8.41271" stroke-width="0.5" stroke="black" fill="cyan"/>
  <circle cx="354.58" cy="492.851" r="5.05167" stroke-width="0.5" stroke="black" fill="cyan"/>
   </g>
   <g id="cell68">
  <circle cx="562.25" cy="554.768" r="8.41271" stroke-width="0.5" stroke="black" fill="cyan"/>
  <circle cx="562.25" cy="554.768" r="5.05167" stroke-width="0.5" stroke="black" fill="cyan"/>
   </g>
   <g id="cell69">
  <circle cx="438.042" cy="445.694" r="8.41254" stroke-width="0.5" stroke="black" fill="cyan"/>
  <circle cx="438.042" cy="445.694" r="5.05163" stroke-width="0.5" stroke="black" fill="cyan"/>
   </g>
   <g id="cell70">
  <circle cx="573.686" cy="468.599" r="8.37935" stroke-width="0.5" stroke="black" fill="cyan"/>
  <circle cx="573.686" cy="468.599" r="5.0396" stroke-width="0.5" stroke="black" fill="cyan"/>
   </g>
   <g id="cell71">
  <circle cx="381.378" cy="528.407" r="8.22327" stroke-width="0.5" stroke="black" fill="cyan"/>
  <circle cx="381.378" cy="528.407" r="4.96882" stroke-width="0.5" stroke="black" fill="cyan"/>
   </g>
   <g id="cell72">
  <circle cx="539.742" cy="512.422" r="8.41271" stroke-width="0.5" stroke="black" fill="cyan"/>
  <circle cx="539.742" cy="512.422" r="5.05167" stroke-width="0.5" stroke="black" fill="cyan"/>
   </g>
   <g id="cell129">
  <circle cx="417.284" cy="402.841" r="8.3937" stroke-width="0.5" stroke="black" fill="green"/>
  <circle cx="417.284" cy="402.841" r="5.04523" stroke-width="0.5" stroke="black" fill="green"/>
   </g>
   <g id="cell74">
  <circle cx="542.682" cy="442.821" r="2.2615" stroke-width="0.5" stroke="black" fill="cyan"/>
  <circle cx="542.682" cy="442.821" r="2.07535" stroke-width="0.5" stroke="black" fill="black"/>
   </g>
   <g id="cell75">
  <circle cx="442.722" cy="480.301" r="6.33276" stroke-width="0.5" stroke="black" fill="cyan"/>
  <circle cx="442.722" cy="480.301" r="3.9039" stroke-width="0.5" stroke="black" fill="cyan"/>
   </g>
   <g id="cell76">
  <circle cx="514.415" cy="375.046" r="7.11736" stroke-width="0.5" stroke="black" fill="magenta"/>
  <circle cx="514.415" cy="375.046" r="4.31932" stroke-width="0.5" stroke="black" fill="magenta"/>
   </g>
   <g id="cell77">
  <circle cx="500.981" cy="429.827" r="8.33646" stroke-width="0.5" stroke="black" fill="magenta"/>
  <circle cx="500.981" cy="429.827" r="5.02158" stroke-width="0.5" stroke="black" fill="magenta"/>
   </g>
   <g id="cell78">
  <circle cx="370.955" cy="465.758" r="8.41251" stroke-width="0.5" stroke="black" fill="magenta"/>
  <circle cx="370.955" cy="465.758" r="5.05163" stroke-width="0.5" stroke="black" fill="magenta"/>
   </g>
   <g id="cell79">
  <circle cx="498.127" cy="525.408" r="8.4125" stroke-width="0.5" stroke="black" fill="magenta"/>
  <circle cx="498.127" cy="525.408" r="5.05162" stroke-width="0.5" stroke="black" fill="magenta"/>
   </g>
   <g id="cell80">
  <circle cx="602.961" cy="485.832" r="8.02406" stroke-width="0.5" stroke="black" fill="green"/>
  <circle cx="602.961" cy="485.832" r="4.86206" stroke-width="0.5" stroke="black" fill="green"/>
   </g>
   <g id="cell81">
  <circle cx="429.455" cy="504.93" r="8.39617" stroke-width="0.5" stroke="black" fill="green"/>
  <circle cx="429.455" cy="504.93" r="5.0463" stroke-width="0.5" stroke="black" fill="green"/>
   </g>
   <g id="cell82">
  <circle cx="544.897" cy="497.694" r="8.41245" stroke-width="0.5" stroke="black" fill="magenta"/>
  <circle cx="544.897" cy="497.694" r="5.05161" stroke-width="0.5" stroke="black" fill="magenta"/>
   </g>
   <g id="cell130">
  <circle cx="573.957" cy="392.007" r="8.3926" stroke-width="0.5" stroke="black" fill="magenta"/>
  <circle cx="573.957" cy="392.007" r="5.04482" stroke-width="0.5" stroke="black" fill="magenta"/>
   </g>
   <g id="cell84">
  <circle cx="403.984" cy="485.098" r="8.408" stroke-width="0.5" stroke="black" fill="green"/>
  <circle cx="403.984" cy="485.098" r="5.05033" stroke-width="0.5" stroke="black" fill="green"/>
   </g>
   <g id="cell140">
  <circle cx="525.565" cy="580.029" r="8.31499" stroke-width="0.5" stroke="black" fill="magenta"/>
  <circle cx="525.565" cy="580.029" r="5.01393" stroke-width="0.5" stroke="black" fill="magenta"/>
   </g>
   <g id="cell86">
  <circle cx="391.324" cy="565.722" r="8.40833" stroke-width="0.5" stroke="black" fill="magenta"/>
  <circle cx="391.324" cy="565.722" r="5.05044" stroke-width="0.5" stroke="black" fill="magenta"/>
   </g>
   <g id="cell87">
  <circle cx="432.135" cy="520.533" r="8.263" stroke-width="0.5" stroke="black" fill="green"/>
  <circle cx="432.135" cy="520.533" r="4.98731" stroke-width="0.5" stroke="black" fill="green"/>
   </g>
   <g id="cell88">
  <circle cx="477.802" cy="602.643" r="7.84639" stroke-width="0.5" stroke="black" fill="green"/>
  <circle cx="477.802" cy="602.643" r="4.76281" stroke-width="0.5" stroke="black" fill="green"/>
   </g>
   <g id="cell89">
  <circle cx="431.807" cy="489.102" r="8.4106" stroke-width="0.5" stroke="black" fill="green"/>
  <circle cx="431.807" cy="489.102" r="5.05113" stroke-width="0.5" stroke="black" fill="green"/>
   </g>
   <g id="cell90">
  <circle cx="580.642" cy="514.292" r="8.22889" stroke-width="0.5" stroke="black" fill="magenta"/>
  <circle cx="580.642" cy="514.292" r="4.96984" stroke-width="0.5" stroke="black" fill="magenta"/>
   </g>
   <g id="cell136">
  <circle cx="525.014" cy="539.804" r="8.37321" stroke-width="0.5" stroke="black" fill="magenta"/>
  <circle cx="525.014" cy="539.804" r="5.03708" stroke-width="0.5" stroke="black" fill="magenta"/>
   </g>
   <g id="cell92">
  <circle cx="557.603" cy="592.207" r="8.40778" stroke-width="0.5" stroke="black" fill="green"/>
  <circle cx="557.603" cy="592.207" r="5.0503" stroke-width="0.5" stroke="black" fill="green"/>
   </g>
   <g id="cell93">
  <circle cx="575.599" cy="526.49" r="6.69208" stroke-width="0.5" stroke="black" fill="cyan"/>
  <circle cx="575.599" cy="526.49" r="4.02763" stroke-width="0.5" stroke="black" fill="cyan"/>
   </g>
   <g id="cell94">
  <circle cx="542.827" cy="470.632" r="8.41177" stroke-width="0.5" stroke="black" fill="cyan"/>
  <circle cx="542.827" cy="470.632" r="5.05144" stroke-width="0.5" stroke="black" fill="cyan"/>
   </g>
   <g id="cell95">
  <circle cx="465.917" cy="534" r="8.41177" stroke-width="0.5" stroke="black" fill="magenta"/>
  <circle cx="465.917" cy="534" r="5.05144" stroke-width="0.5" stroke="black" fill="magenta"/>
   </g>
   <g id="cell96">
  <circle cx="535.88" cy="378.981" r="8.41157" stroke-width="0.5" stroke="black" fill="magenta"/>
  <circle cx="535.88" cy="378.981" r="5.05139" stroke-width="0.5" stroke="black" fill="magenta"/>
   </g>
   <g id="cell97">
  <circle cx="566.214" cy="511.056" r="8.41141" stroke-width="0.5" stroke="black" fill="magenta"/>
  <circle cx="566.214" cy="511.056" r="5.05135" stroke-width="0.5" stroke="black" fill="magenta"/>
   </g>
   <g id="cell98">
  <circle cx="406.16" cy="572.347" r="8.30233" stroke-width="0.5" stroke="black" fill="green"/>
  <circle cx="406.16" cy="572.347" r="5.00562" stroke-width="0.5" stroke="black" fill="green"/>
   </g>
   <g id="cell99">
  <circle cx="576.234" cy="499.304" r="8.41121" stroke-width="0.5" stroke="black" fill="magenta"/>
  <circle cx="576.234" cy="499.304" r="5.05128" stroke-width="0.5" stroke="black" fill="magenta"/>
   </g>
   <g id="cell100">
  <circle cx="569.875" cy="540.782" r="8.41068" stroke-width="0.5" stroke="black" fill="cyan"/>
  <circle cx="569.875" cy="540.782" r="5.05115" stroke-width="0.5" stroke="black" fill="cyan"/>
   </g>
   <g id="cell101">
  <circle cx="459.513" cy="627.891" r="6.75315" stroke-width="0.5" stroke="black" fill="magenta"/>
  <circle cx="459.513" cy="627.891" r="4.06722" stroke-width="0.5" stroke="black" fill="magenta"/>
   </g>
   <g id="cell102">
  <circle cx="445.941" cy="506.284" r="8.4106" stroke-width="0.5" stroke="black" fill="green"/>
  <circle cx="445.941" cy="506.284" r="5.05113" stroke-width="0.5" stroke="black" fill="green"/>
   </g>
   <g id="cell103">
  <circle cx="551.342" cy="617.207" r="7.8614" stroke-width="0.5" stroke="black" fill="green"/>
  <circle cx="551.342" cy="617.207" r="4.77166" stroke-width="0.5" stroke="black" fill="green"/>
   </g>
   <g id="cell104">
  <circle cx="553.731" cy="540.723" r="8.41043" stroke-width="0.5" stroke="black" fill="green"/>
  <circle cx="553.731" cy="540.723" r="5.05106" stroke-width="0.5" stroke="black" fill="green"/>
   </g>
   <g id="cell105">
  <circle cx="416.646" cy="495.232" r="8.41004" stroke-width="0.5" stroke="black" fill="green"/>
  <circle cx="416.646" cy="495.232" r="5.05095" stroke-width="0.5" stroke="black" fill="green"/>
   </g>
   <g id="cell106">
  <circle cx="646.494" cy="532.528" r="7.61313" stroke-width="0.5" stroke="black" fill="green"/>
  <circle cx="646.494" cy="532.528" r="4.62716" stroke-width="0.5" stroke="black" fill="green"/>
   </g>
   <g id="cell107">
  <circle cx="383.645" cy="512.932" r="8.40944" stroke-width="0.5" stroke="black" fill="cyan"/>
  <circle cx="383.645" cy="512.932" r="5.05076" stroke-width="0.5" stroke="black" fill="cyan"/>
   </g>
   <g id="cell108">
  <circle cx="460.55" cy="641.397" r="8.40853" stroke-width="0.5" stroke="black" fill="magenta"/>
  <circle cx="460.55" cy="641.397" r="5.05052" stroke-width="0.5" stroke="black" fill="magenta"/>
   </g>
   <g id="cell109">
  <circle cx="445.968" cy="637.918" r="8.40853" stroke-width="0.5" stroke="black" fill="magenta"/>
  <circle cx="445.968" cy="637.918" r="5.05052" stroke-width="0.5" stroke="black" fill="magenta"/>
   </g>
   <g id="cell110">
  <circle cx="543.417" cy="572.322" r="7.17758" stroke-width="0.5" stroke="black" fill="green"/>
  <circle cx="543.417" cy="572.322" r="4.35912" stroke-width="0.5" stroke="black" fill="green"/>
   </g>
   <g id="cell111">
  <circle cx="627.463" cy="553.91" r="8.40777" stroke-width="0.5" stroke="black" fill="green"/>
  <circle cx="627.463" cy="553.91" r="5.05029" stroke-width="0.5" stroke="black" fill="green"/>
   </g>
   <g id="cell112">
  <circle cx="378.723" cy="573.731" r="8.40833" stroke-width="0.5" stroke="black" fill="magenta"/>
  <circle cx="378.723" cy="573.731" r="5.05044" stroke-width="0.5" stroke="black" fill="magenta"/>
   </g>
   <g id="cell113">
  <circle cx="418.503" cy="479.805" r="8.408" stroke-width="0.5" stroke="black" fill="green"/>
  <circle cx="418.503" cy="479.805" r="5.05033" stroke-width="0.5" stroke="black" fill="green"/>
   </g>
   <g id="cell114">
  <circle cx="502.584" cy="452.862" r="8.38492" stroke-width="0.5" stroke="black" fill="magenta"/>
  <circle cx="502.584" cy="452.862" r="5.0421" stroke-width="0.5" stroke="black" fill="magenta"/>
   </g>
   <g id="cell115">
  <circle cx="452.451" cy="525.893" r="8.40669" stroke-width="0.5" stroke="black" fill="green"/>
  <circle cx="452.451" cy="525.893" r="5.04991" stroke-width="0.5" stroke="black" fill="green"/>
   </g>
   <g id="cell116">
  <circle cx="368.687" cy="519.173" r="8.40486" stroke-width="0.5" stroke="black" fill="cyan"/>
  <circle cx="368.687" cy="519.173" r="5.04936" stroke-width="0.5" stroke="black" fill="cyan"/>
   </g>
   <g id="cell173">
  <circle cx="539.973" cy="609.67" r="6.70237" stroke-width="0.5" stroke="black" fill="green"/>
  <circle cx="539.973" cy="609.67" r="4.10278" stroke-width="0.5" stroke="black" fill="green"/>
   </g>
   <g id="cell118">
  <circle cx="524.362" cy="524.974" r="7.88907" stroke-width="0.5" stroke="black" fill="cyan"/>
  <circle cx="524.362" cy="524.974" r="4.78807" stroke-width="0.5" stroke="black" fill="cyan"/>
   </g>
   <g id="cell119">
  <circle cx="527.139" cy="635.582" r="8.32826" stroke-width="0.5" stroke="black" fill="green"/>
  <circle cx="527.139" cy="635.582" r="5.01808" stroke-width="0.5" stroke="black" fill="green"/>
   </g>
   <g id="cell121">
  <circle cx="390.901" cy="550.669" r="8.40271" stroke-width="0.5" stroke="black" fill="magenta"/>
  <circle cx="390.901" cy="550.669" r="5.04856" stroke-width="0.5" stroke="black" fill="magenta"/>
   </g>
   <g id="cell122">
  <circle cx="615.312" cy="459.406" r="8.06093" stroke-width="0.5" stroke="black" fill="cyan"/>
  <circle cx="615.312" cy="459.406" r="4.88328" stroke-width="0.5" stroke="black" fill="cyan"/>
   </g>
   <g id="cell123">
  <circle cx="500.024" cy="644.878" r="8.40123" stroke-width="0.5" stroke="black" fill="cyan"/>
  <circle cx="500.024" cy="644.878" r="5.048" stroke-width="0.5" stroke="black" fill="cyan"/>
   </g>
   <g id="cell124">
  <circle cx="379.345" cy="589.381" r="8.4009" stroke-width="0.5" stroke="black" fill="green"/>
  <circle cx="379.345" cy="589.381" r="5.04788" stroke-width="0.5" stroke="black" fill="green"/>
   </g>
   <g id="cell125">
  <circle cx="453.562" cy="454.698" r="8.39978" stroke-width="0.5" stroke="black" fill="cyan"/>
  <circle cx="453.562" cy="454.698" r="5.04749" stroke-width="0.5" stroke="black" fill="cyan"/>
   </g>
   <g id="cell126">
  <circle cx="414.129" cy="510.581" r="8.39617" stroke-width="0.5" stroke="black" fill="green"/>
  <circle cx="414.129" cy="510.581" r="5.0463" stroke-width="0.5" stroke="black" fill="green"/>
   </g>
   <g id="cell127">
  <circle cx="413.453" cy="595.781" r="8.39618" stroke-width="0.5" stroke="black" fill="cyan"/>
  <circle cx="413.453" cy="595.781" r="5.04616" stroke-width="0.5" stroke="black" fill="cyan"/>
   </g>
   <g id="cell128">
  <circle cx="353.655" cy="535.41" r="7.4552" stroke-width="0.5" stroke="black" fill="cyan"/>
  <circle cx="353.655" cy="535.41" r="4.53509" stroke-width="0.5" stroke="black" fill="cyan"/>
   </g>
   <g id="cell131">
  <circle cx="585.357" cy="536.024" r="8.38789" stroke-width="0.5" stroke="black" fill="cyan"/>
  <circle cx="585.357" cy="536.024" r="5.04313" stroke-width="0.5" stroke="black" fill="cyan"/>
   </g>
   <g id="cell132">
  <circle cx="511.06" cy="440.609" r="8.38492" stroke-width="0.5" stroke="black" fill="magenta"/>
  <circle cx="511.06" cy="440.609" r="5.0421" stroke-width="0.5" stroke="black" fill="magenta"/>
   </g>
   <g id="cell133">
  <circle cx="535.034" cy="409.39" r="8.38532" stroke-width="0.5" stroke="black" fill="magenta"/>
  <circle cx="535.034" cy="409.39" r="5.04199" stroke-width="0.5" stroke="black" fill="magenta"/>
   </g>
   <g id="cell134">
  <circle cx="510.73" cy="580.464" r="8.3422" stroke-width="0.5" stroke="black" fill="magenta"/>
  <circle cx="510.73" cy="580.464" r="5.02495" stroke-width="0.5" stroke="black" fill="magenta"/>
   </g>
   <g id="cell135">
  <circle cx="565.981" cy="482.306" r="8.37935" stroke-width="0.5" stroke="black" fill="cyan"/>
  <circle cx="565.981" cy="482.306" r="5.0396" stroke-width="0.5" stroke="black" fill="cyan"/>
   </g>
   <g id="cell137">
  <circle cx="378.718" cy="478.627" r="8.36582" stroke-width="0.5" stroke="black" fill="magenta"/>
  <circle cx="378.718" cy="478.627" r="5.03401" stroke-width="0.5" stroke="black" fill="magenta"/>
   </g>
   <g id="cell138">
  <circle cx="532.671" cy="592.775" r="8.15582" stroke-width="0.5" stroke="black" fill="magenta"/>
  <circle cx="532.671" cy="592.775" r="4.93882" stroke-width="0.5" stroke="black" fill="magenta"/>
   </g>
   <g id="cell139">
  <circle cx="510.84" cy="607.12" r="8.34807" stroke-width="0.5" stroke="black" fill="green"/>
  <circle cx="510.84" cy="607.12" r="5.02688" stroke-width="0.5" stroke="black" fill="green"/>
   </g>
   <g id="cell142">
  <circle cx="585.292" cy="382.152" r="8.32676" stroke-width="0.5" stroke="black" fill="magenta"/>
  <circle cx="585.292" cy="382.152" r="5.01791" stroke-width="0.5" stroke="black" fill="magenta"/>
   </g>
   <g id="cell143">
  <circle cx="536.765" cy="623.232" r="8.32826" stroke-width="0.5" stroke="black" fill="green"/>
  <circle cx="536.765" cy="623.232" r="5.01808" stroke-width="0.5" stroke="black" fill="green"/>
   </g>
   <g id="cell144">
  <circle cx="378.524" cy="543.228" r="8.32543" stroke-width="0.5" stroke="black" fill="magenta"/>
  <circle cx="378.524" cy="543.228" r="5.01617" stroke-width="0.5" stroke="black" fill="magenta"/>
   </g>
   <g id="cell145">
  <circle cx="454.669" cy="481.429" r="6.92389" stroke-width="0.5" stroke="black" fill="magenta"/>
  <circle cx="454.669" cy="481.429" r="4.20695" stroke-width="0.5" stroke="black" fill="magenta"/>
   </g>
   <g id="cell146">
  <circle cx="460.26" cy="424.308" r="8.3031" stroke-width="0.5" stroke="black" fill="cyan"/>
  <circle cx="460.26" cy="424.308" r="5.00583" stroke-width="0.5" stroke="black" fill="cyan"/>
   </g>
   <g id="cell148">
  <circle cx="400.823" cy="605.381" r="8.27778" stroke-width="0.5" stroke="black" fill="cyan"/>
  <circle cx="400.823" cy="605.381" r="4.995" stroke-width="0.5" stroke="black" fill="cyan"/>
   </g>
   <g id="cell149">
  <circle cx="438.901" cy="534.588" r="8.263" stroke-width="0.5" stroke="black" fill="green"/>
  <circle cx="438.901" cy="534.588" r="4.98731" stroke-width="0.5" stroke="black" fill="green"/>
   </g>
   <g id="cell150">
  <circle cx="472.728" cy="631.996" r="8.25793" stroke-width="0.5" stroke="black" fill="green"/>
  <circle cx="472.728" cy="631.996" r="4.98421" stroke-width="0.5" stroke="black" fill="green"/>
   </g>
   <g id="cell151">
  <circle cx="523.858" cy="509.627" r="8.25377" stroke-width="0.5" stroke="black" fill="cyan"/>
  <circle cx="523.858" cy="509.627" r="4.98209" stroke-width="0.5" stroke="black" fill="cyan"/>
   </g>
   <g id="cell152">
  <circle cx="643.275" cy="552.559" r="8.23691" stroke-width="0.5" stroke="black" fill="green"/>
  <circle cx="643.275" cy="552.559" r="4.9743" stroke-width="0.5" stroke="black" fill="green"/>
   </g>
   <g id="cell153">
  <circle cx="396.069" cy="523.119" r="8.22327" stroke-width="0.5" stroke="black" fill="cyan"/>
  <circle cx="396.069" cy="523.119" r="4.96882" stroke-width="0.5" stroke="black" fill="cyan"/>
   </g>
   <g id="cell154">
  <circle cx="589.176" cy="504.573" r="7.18081" stroke-width="0.5" stroke="black" fill="magenta"/>
  <circle cx="589.176" cy="504.573" r="4.38181" stroke-width="0.5" stroke="black" fill="magenta"/>
   </g>
   <g id="cell156">
  <circle cx="403.584" cy="557.544" r="7.90978" stroke-width="0.5" stroke="black" fill="green"/>
  <circle cx="403.584" cy="557.544" r="4.81078" stroke-width="0.5" stroke="black" fill="green"/>
   </g>
   <g id="cell157">
  <circle cx="392.934" cy="474.45" r="8.13605" stroke-width="0.5" stroke="black" fill="magenta"/>
  <circle cx="392.934" cy="474.45" r="4.92561" stroke-width="0.5" stroke="black" fill="magenta"/>
   </g>
   <g id="cell158">
  <circle cx="431.787" cy="473.317" r="7.99751" stroke-width="0.5" stroke="black" fill="green"/>
  <circle cx="431.787" cy="473.317" r="4.85756" stroke-width="0.5" stroke="black" fill="green"/>
   </g>
   <g id="cell159">
  <circle cx="439.548" cy="460.917" r="7.99751" stroke-width="0.5" stroke="black" fill="green"/>
  <circle cx="439.548" cy="460.917" r="4.85756" stroke-width="0.5" stroke="black" fill="green"/>
   </g>
   <g id="cell160">
  <circle cx="417.486" cy="560.882" r="7.96087" stroke-width="0.5" stroke="black" fill="green"/>
  <circle cx="417.486" cy="560.882" r="4.83821" stroke-width="0.5" stroke="black" fill="green"/>
   </g>
   <g id="cell161">
  <circle cx="528.633" cy="464.498" r="8.09493" stroke-width="0.5" stroke="black" fill="cyan"/>
  <circle cx="528.633" cy="464.498" r="4.90045" stroke-width="0.5" stroke="black" fill="cyan"/>
   </g>
   <g id="cell162">
  <circle cx="612.726" cy="474.392" r="8.06093" stroke-width="0.5" stroke="black" fill="cyan"/>
  <circle cx="612.726" cy="474.392" r="4.88328" stroke-width="0.5" stroke="black" fill="cyan"/>
   </g>
   <g id="cell163">
  <circle cx="425.666" cy="548.546" r="7.82685" stroke-width="0.5" stroke="black" fill="green"/>
  <circle cx="425.666" cy="548.546" r="4.77167" stroke-width="0.5" stroke="black" fill="green"/>
   </g>
   <g id="cell164">
  <circle cx="462.229" cy="467.835" r="8.05964" stroke-width="0.5" stroke="black" fill="cyan"/>
  <circle cx="462.229" cy="467.835" r="4.88282" stroke-width="0.5" stroke="black" fill="cyan"/>
   </g>
   <g id="cell165">
  <circle cx="411.357" cy="545.21" r="7.90978" stroke-width="0.5" stroke="black" fill="green"/>
  <circle cx="411.357" cy="545.21" r="4.81078" stroke-width="0.5" stroke="black" fill="green"/>
   </g>
   <g id="cell166">
  <circle cx="602.454" cy="501.594" r="8.02406" stroke-width="0.5" stroke="black" fill="green"/>
  <circle cx="602.454" cy="501.594" r="4.86206" stroke-width="0.5" stroke="black" fill="green"/>
   </g>
   <g id="cell167">
  <circle cx="467.094" cy="387.253" r="8.02418" stroke-width="0.5" stroke="black" fill="green"/>
  <circle cx="467.094" cy="387.253" r="4.86209" stroke-width="0.5" stroke="black" fill="green"/>
   </g>
   <g id="cell168">
  <circle cx="520.373" cy="407.411" r="7.99769" stroke-width="0.5" stroke="black" fill="magenta"/>
  <circle cx="520.373" cy="407.411" r="4.85039" stroke-width="0.5" stroke="black" fill="magenta"/>
   </g>
   <g id="cell169">
  <circle cx="467.006" cy="435.376" r="6.068" stroke-width="0.5" stroke="black" fill="magenta"/>
  <circle cx="467.006" cy="435.376" r="3.73302" stroke-width="0.5" stroke="black" fill="magenta"/>
   </g>
   <g id="cell170">
  <circle cx="628.582" cy="488.782" r="7.95033" stroke-width="0.5" stroke="black" fill="green"/>
  <circle cx="628.582" cy="488.782" r="4.82136" stroke-width="0.5" stroke="black" fill="green"/>
   </g>
   <g id="cell171">
  <circle cx="537.254" cy="530.941" r="7.88907" stroke-width="0.5" stroke="black" fill="cyan"/>
  <circle cx="537.254" cy="530.941" r="4.78807" stroke-width="0.5" stroke="black" fill="cyan"/>
   </g>
   <g id="cell172">
  <circle cx="511.582" cy="519.78" r="7.77256" stroke-width="0.5" stroke="black" fill="cyan"/>
  <circle cx="511.582" cy="519.78" r="4.73209" stroke-width="0.5" stroke="black" fill="cyan"/>
   </g>
   <g id="cell175">
  <circle cx="634.398" cy="540.391" r="7.61313" stroke-width="0.5" stroke="black" fill="green"/>
  <circle cx="634.398" cy="540.391" r="4.62716" stroke-width="0.5" stroke="black" fill="green"/>
   </g>
   <g id="cell177">
  <circle cx="367.489" cy="534.282" r="7.4552" stroke-width="0.5" stroke="black" fill="cyan"/>
  <circle cx="367.489" cy="534.282" r="4.53509" stroke-width="0.5" stroke="black" fill="cyan"/>
   </g>
   <g id="cell178">
  <circle cx="481.206" cy="445.949" r="7.17812" stroke-width="0.5" stroke="black" fill="magenta"/>
  <circle cx="481.206" cy="445.949" r="4.39757" stroke-width="0.5" stroke="black" fill="magenta"/>
   </g>
   <g id="cell179">
  <circle cx="446.573" cy="491.915" r="7.1318" stroke-width="0.5" stroke="black" fill="cyan"/>
  <circle cx="446.573" cy="491.915" r="4.36254" stroke-width="0.5" stroke="black" fill="cyan"/>
   </g>
   <g id="cell180">
  <circle cx="591.121" cy="492.634" r="7.18081" stroke-width="0.5" stroke="black" fill="magenta"/>
  <circle cx="591.121" cy="492.634" r="4.38181" stroke-width="0.5" stroke="black" fill="magenta"/>
   </g>
   <g id="cell181">
  <circle cx="544.546" cy="585.483" r="7.17758" stroke-width="0.5" stroke="black" fill="green"/>
  <circle cx="544.546" cy="585.483" r="4.35912" stroke-width="0.5" stroke="black" fill="green"/>
   </g>
   <g id="cell182">
  <circle cx="449.126" cy="470.442" r="6.33276" stroke-width="0.5" stroke="black" fill="cyan"/>
  <circle cx="449.126" cy="470.442" r="3.9039" stroke-width="0.5" stroke="black" fill="cyan"/>
   </g>
   <g id="cell183">
  <circle cx="523.17" cy="384.011" r="7.11736" stroke-width="0.5" stroke="black" fill="magenta"/>
  <circle cx="523.17" cy="384.011" r="4.31932" stroke-width="0.5" stroke="black" fill="magenta"/>
   </g>
   <g id="cell184">
  <circle cx="544.962" cy="598.425" r="6.70237" stroke-width="0.5" stroke="black" fill="green"/>
  <circle cx="544.962" cy="598.425" r="4.10278" stroke-width="0.5" stroke="black" fill="green"/>
   </g>
   <g id="cell185">
  <circle cx="419.016" cy="522.945" r="6.01145" stroke-width="0.5" stroke="black" fill="green"/>
  <circle cx="419.016" cy="522.945" r="3.68022" stroke-width="0.5" stroke="black" fill="green"/>
   </g>
   <g id="cell186">
  <circle cx="607.375" cy="523.016" r="5.79963" stroke-width="0.5" stroke="black" fill="cyan"/>
  <circle cx="607.375" cy="523.016" r="3.53881" stroke-width="0.5" stroke="black" fill="cyan"/>
   </g>
   <g id="cell187">
  <circle cx="466.889" cy="481.102" r="6.92389" stroke-width="0.5" stroke="black" fill="magenta"/>
  <circle cx="466.889" cy="481.102" r="4.20695" stroke-width="0.5" stroke="black" fill="magenta"/>
   </g>
   <g id="cell188">
  <circle cx="619.493" cy="531.64" r="5.96717" stroke-width="0.5" stroke="black" fill="cyan"/>
  <circle cx="619.493" cy="531.64" r="3.65171" stroke-width="0.5" stroke="black" fill="cyan"/>
   </g>
   <g id="cell189">
  <circle cx="424.481" cy="532.763" r="6.01145" stroke-width="0.5" stroke="black" fill="green"/>
  <circle cx="424.481" cy="532.763" r="3.68022" stroke-width="0.5" stroke="black" fill="green"/>
   </g>
   <g id="cell190">
  <circle cx="431.543" cy="401.57" r="6.88261" stroke-width="0.5" stroke="black" fill="green"/>
  <circle cx="431.543" cy="401.57" r="4.16528" stroke-width="0.5" stroke="black" fill="green"/>
   </g>
   <g id="cell191">
  <circle cx="477.505" cy="434.913" r="6.068" stroke-width="0.5" stroke="black" fill="magenta"/>
  <circle cx="477.505" cy="434.913" r="3.73302" stroke-width="0.5" stroke="black" fill="magenta"/>
   </g>
   <g id="cell192">
  <circle cx="611.96" cy="513.076" r="5.79963" stroke-width="0.5" stroke="black" fill="cyan"/>
  <circle cx="611.96" cy="513.076" r="3.53881" stroke-width="0.5" stroke="black" fill="cyan"/>
   </g>
   <g id="cell193">
  <circle cx="587.084" cy="472.505" r="6.77368" stroke-width="0.5" stroke="black" fill="cyan"/>
  <circle cx="587.084" cy="472.505" r="4.08452" stroke-width="0.5" stroke="black" fill="cyan"/>
   </g>
   <g id="cell194">
  <circle cx="448.003" cy="624.561" r="6.75315" stroke-width="0.5" stroke="black" fill="magenta"/>
  <circle cx="448.003" cy="624.561" r="4.06722" stroke-width="0.5" stroke="black" fill="magenta"/>
   </g>
   <g id="cell195">
  <circle cx="563.78" cy="525.193" r="6.69208" stroke-width="0.5" stroke="black" fill="cyan"/>
  <circle cx="563.78" cy="525.193" r="4.02763" stroke-width="0.5" stroke="black" fill="cyan"/>
   </g>
   <g id="cell196">
  <circle cx="508.554" cy="508.212" r="6.18747" stroke-width="0.5" stroke="black" fill="cyan"/>
  <circle cx="508.554" cy="508.212" r="3.76839" stroke-width="0.5" stroke="black" fill="cyan"/>
   </g>
  </g>
 </g>
  <rect x="775" y="1035" width="200" height="10" stroke-width="2" stroke="rgb(255,255,255)" fill="rgb(0,0,0)"/>
  <text x="781.25" y="1028.75"
   font-family="Arial" font-size="25" fill="black" >
   200 &#956;m
  </text>
  <text x="25" y="1045"
   font-family="Arial" font-size="18.75" fill="black" >
   0 days, 0 hours, 0 minutes, and 45.3040 seconds
  </text>
  <rect x="0" y="70" width="1000" height="1000" stroke-width="2" stroke="rgb(0,0,0)" fill="none"/>
</svg>
