<?xml version="1.0" encoding="UTF-8" standalone="no"?>
<!-- Created with PhysiCell (http://PhysiCell.MathCancer.org/) -->
<svg 
 xmlns:dc="http://purl.org/dc/elements/1.1/" 
 xmlns:cc="http://creativecommons.org/ns#" 
 xmlns:rdf="http://www.w3.org/1999/02/22-rdf-syntax-ns#" 
 xmlns:svg="http://www.w3.org/2000/svg" 
 xmlns="http://www.w3.org/2000/svg" 
 version="1.1" 
 width="1000" 
 height="1070" 
 id="svg2">
  <rect x="0" y="0" width="1000" height="1070" stroke-width="2" stroke="white" fill="white"/>
  <text x="12.5" y="30"
   font-family="Arial" font-size="25" fill="black" >
   Current time: 1 days, 1 hours, and 0.00 minutes, z = 0.00 &#956;m
  </text>
  <text x="12.5" y="57.5"
   font-family="Arial" font-size="23.75" fill="black" >
   148 agents
  </text>
 <g id="tissue" 
    transform="translate(0,1070) scale(1,-1)">
  <g id="ECM">
  </g>
  <g id="cells">
   <g id="cell0">
  <circle cx="514.269" cy="529.572" r="8.41049" stroke-width="0.5" stroke="black" fill="magenta"/>
  <circle cx="514.269" cy="529.572" r="5.05108" stroke-width="0.5" stroke="black" fill="magenta"/>
   </g>
   <g id="cell147">
  <circle cx="418.622" cy="570.749" r="7.16994" stroke-width="0.5" stroke="black" fill="green"/>
  <circle cx="418.622" cy="570.749" r="4.35626" stroke-width="0.5" stroke="black" fill="green"/>
   </g>
   <g id="cell2">
  <circle cx="512.499" cy="595.191" r="8.07654" stroke-width="0.5" stroke="black" fill="magenta"/>
  <circle cx="512.499" cy="595.191" r="4.89046" stroke-width="0.5" stroke="black" fill="magenta"/>
   </g>
   <g id="cell3">
  <circle cx="538.86" cy="540.846" r="7.96365" stroke-width="0.5" stroke="black" fill="magenta"/>
  <circle cx="538.86" cy="540.846" r="4.82873" stroke-width="0.5" stroke="black" fill="magenta"/>
   </g>
   <g id="cell4">
  <circle cx="467.591" cy="440.311" r="8.41072" stroke-width="0.5" stroke="black" fill="magenta"/>
  <circle cx="467.591" cy="440.311" r="5.05114" stroke-width="0.5" stroke="black" fill="magenta"/>
   </g>
   <g id="cell5">
  <circle cx="465.834" cy="498.395" r="7.3599" stroke-width="0.5" stroke="black" fill="magenta"/>
  <circle cx="465.834" cy="498.395" r="4.47294" stroke-width="0.5" stroke="black" fill="magenta"/>
   </g>
   <g id="cell6">
  <circle cx="594.694" cy="513.809" r="8.40557" stroke-width="0.5" stroke="black" fill="magenta"/>
  <circle cx="594.694" cy="513.809" r="5.04951" stroke-width="0.5" stroke="black" fill="magenta"/>
   </g>
   <g id="cell7">
  <circle cx="511.734" cy="464.581" r="8.41271" stroke-width="0.5" stroke="black" fill="magenta"/>
  <circle cx="511.734" cy="464.581" r="5.05167" stroke-width="0.5" stroke="black" fill="magenta"/>
   </g>
   <g id="cell8">
  <circle cx="369.276" cy="549.084" r="7.41548" stroke-width="0.5" stroke="black" fill="magenta"/>
  <circle cx="369.276" cy="549.084" r="4.50723" stroke-width="0.5" stroke="black" fill="magenta"/>
   </g>
   <g id="cell9">
  <circle cx="463.962" cy="602.07" r="8.40516" stroke-width="0.5" stroke="black" fill="magenta"/>
  <circle cx="463.962" cy="602.07" r="5.04937" stroke-width="0.5" stroke="black" fill="magenta"/>
   </g>
   <g id="cell10">
  <circle cx="587.535" cy="396.243" r="7.40603" stroke-width="0.5" stroke="black" fill="magenta"/>
  <circle cx="587.535" cy="396.243" r="4.52145" stroke-width="0.5" stroke="black" fill="magenta"/>
   </g>
   <g id="cell11">
  <circle cx="589.748" cy="590.273" r="8.41271" stroke-width="0.5" stroke="black" fill="magenta"/>
  <circle cx="589.748" cy="590.273" r="5.05167" stroke-width="0.5" stroke="black" fill="magenta"/>
   </g>
   <g id="cell12">
  <circle cx="501.673" cy="584.957" r="8.41271" stroke-width="0.5" stroke="black" fill="magenta"/>
  <circle cx="501.673" cy="584.957" r="5.05167" stroke-width="0.5" stroke="black" fill="magenta"/>
   </g>
   <g id="cell13">
  <circle cx="378.801" cy="559.437" r="8.30309" stroke-width="0.5" stroke="black" fill="magenta"/>
  <circle cx="378.801" cy="559.437" r="5.00634" stroke-width="0.5" stroke="black" fill="magenta"/>
   </g>
   <g id="cell14">
  <circle cx="523.323" cy="399.117" r="8.10448" stroke-width="0.5" stroke="black" fill="magenta"/>
  <circle cx="523.323" cy="399.117" r="4.90539" stroke-width="0.5" stroke="black" fill="magenta"/>
   </g>
   <g id="cell15">
  <circle cx="391.932" cy="483.392" r="7.87732" stroke-width="0.5" stroke="black" fill="magenta"/>
  <circle cx="391.932" cy="483.392" r="4.78062" stroke-width="0.5" stroke="black" fill="magenta"/>
   </g>
   <g id="cell16">
  <circle cx="431.261" cy="412.12" r="8.41271" stroke-width="0.5" stroke="black" fill="magenta"/>
  <circle cx="431.261" cy="412.12" r="5.05167" stroke-width="0.5" stroke="black" fill="magenta"/>
   </g>
   <g id="cell17">
  <circle cx="589.207" cy="487.855" r="8.39664" stroke-width="0.5" stroke="black" fill="magenta"/>
  <circle cx="589.207" cy="487.855" r="5.04633" stroke-width="0.5" stroke="black" fill="magenta"/>
   </g>
   <g id="cell18">
  <circle cx="509.86" cy="392.844" r="8.41083" stroke-width="0.5" stroke="black" fill="magenta"/>
  <circle cx="509.86" cy="392.844" r="5.05118" stroke-width="0.5" stroke="black" fill="magenta"/>
   </g>
   <g id="cell19">
  <circle cx="449.662" cy="541.398" r="8.40272" stroke-width="0.5" stroke="black" fill="magenta"/>
  <circle cx="449.662" cy="541.398" r="5.04853" stroke-width="0.5" stroke="black" fill="magenta"/>
   </g>
   <g id="cell20">
  <circle cx="528.505" cy="422.525" r="8.41271" stroke-width="0.5" stroke="black" fill="magenta"/>
  <circle cx="528.505" cy="422.525" r="5.05167" stroke-width="0.5" stroke="black" fill="magenta"/>
   </g>
   <g id="cell141">
  <circle cx="481.807" cy="440.109" r="7.53359" stroke-width="0.5" stroke="black" fill="magenta"/>
  <circle cx="481.807" cy="440.109" r="4.58618" stroke-width="0.5" stroke="black" fill="magenta"/>
   </g>
   <g id="cell22">
  <circle cx="559.18" cy="495.564" r="8.39883" stroke-width="0.5" stroke="black" fill="magenta"/>
  <circle cx="559.18" cy="495.564" r="5.04726" stroke-width="0.5" stroke="black" fill="magenta"/>
   </g>
   <g id="cell23">
  <circle cx="534.698" cy="484.205" r="8.41271" stroke-width="0.5" stroke="black" fill="magenta"/>
  <circle cx="534.698" cy="484.205" r="5.05167" stroke-width="0.5" stroke="black" fill="magenta"/>
   </g>
   <g id="cell24">
  <circle cx="562.407" cy="382.386" r="8.41271" stroke-width="0.5" stroke="black" fill="magenta"/>
  <circle cx="562.407" cy="382.386" r="5.05167" stroke-width="0.5" stroke="black" fill="magenta"/>
   </g>
   <g id="cell25">
  <circle cx="652.462" cy="563.27" r="6.66971" stroke-width="0.5" stroke="black" fill="green"/>
  <circle cx="652.462" cy="563.27" r="4.01904" stroke-width="0.5" stroke="black" fill="green"/>
   </g>
   <g id="cell26">
  <circle cx="548.115" cy="402.295" r="8.41271" stroke-width="0.5" stroke="black" fill="green"/>
  <circle cx="548.115" cy="402.295" r="5.05167" stroke-width="0.5" stroke="black" fill="green"/>
   </g>
   <g id="cell27">
  <circle cx="457.446" cy="388.678" r="8.41271" stroke-width="0.5" stroke="black" fill="green"/>
  <circle cx="457.446" cy="388.678" r="5.05167" stroke-width="0.5" stroke="black" fill="green"/>
   </g>
   <g id="cell28">
  <circle cx="431.806" cy="546.973" r="8.41271" stroke-width="0.5" stroke="black" fill="green"/>
  <circle cx="431.806" cy="546.973" r="5.05167" stroke-width="0.5" stroke="black" fill="green"/>
   </g>
   <g id="cell29">
  <circle cx="467.074" cy="520.544" r="8.34738" stroke-width="0.5" stroke="black" fill="green"/>
  <circle cx="467.074" cy="520.544" r="5.02647" stroke-width="0.5" stroke="black" fill="green"/>
   </g>
   <g id="cell30">
  <circle cx="478.624" cy="539.394" r="8.41271" stroke-width="0.5" stroke="black" fill="green"/>
  <circle cx="478.624" cy="539.394" r="5.05167" stroke-width="0.5" stroke="black" fill="green"/>
   </g>
   <g id="cell31">
  <circle cx="412.603" cy="539.19" r="8.41271" stroke-width="0.5" stroke="black" fill="green"/>
  <circle cx="412.603" cy="539.19" r="5.05167" stroke-width="0.5" stroke="black" fill="green"/>
   </g>
   <g id="cell32">
  <circle cx="430.077" cy="465.352" r="8.40715" stroke-width="0.5" stroke="black" fill="green"/>
  <circle cx="430.077" cy="465.352" r="5.05003" stroke-width="0.5" stroke="black" fill="green"/>
   </g>
   <g id="cell33">
  <circle cx="498.87" cy="413.253" r="8.40788" stroke-width="0.5" stroke="black" fill="green"/>
  <circle cx="498.87" cy="413.253" r="5.05027" stroke-width="0.5" stroke="black" fill="green"/>
   </g>
   <g id="cell34">
  <circle cx="392.094" cy="453.618" r="8.40667" stroke-width="0.5" stroke="black" fill="green"/>
  <circle cx="392.094" cy="453.618" r="5.04987" stroke-width="0.5" stroke="black" fill="green"/>
   </g>
   <g id="cell35">
  <circle cx="545.157" cy="554.772" r="8.38823" stroke-width="0.5" stroke="black" fill="green"/>
  <circle cx="545.157" cy="554.772" r="5.04313" stroke-width="0.5" stroke="black" fill="green"/>
   </g>
   <g id="cell36">
  <circle cx="395.694" cy="580.258" r="8.28262" stroke-width="0.5" stroke="black" fill="green"/>
  <circle cx="395.694" cy="580.258" r="4.9961" stroke-width="0.5" stroke="black" fill="green"/>
   </g>
   <g id="cell37">
  <circle cx="634.871" cy="460.618" r="1.98761" stroke-width="0.5" stroke="black" fill="green"/>
  <circle cx="634.871" cy="460.618" r="1.8872" stroke-width="0.5" stroke="black" fill="black"/>
   </g>
   <g id="cell38">
  <circle cx="525.246" cy="604.732" r="8.40327" stroke-width="0.5" stroke="black" fill="green"/>
  <circle cx="525.246" cy="604.732" r="5.04872" stroke-width="0.5" stroke="black" fill="green"/>
   </g>
   <g id="cell39">
  <circle cx="617.591" cy="494.752" r="8.41036" stroke-width="0.5" stroke="black" fill="green"/>
  <circle cx="617.591" cy="494.752" r="5.05104" stroke-width="0.5" stroke="black" fill="green"/>
   </g>
   <g id="cell40">
  <circle cx="486.04" cy="572.342" r="8.41271" stroke-width="0.5" stroke="black" fill="green"/>
  <circle cx="486.04" cy="572.342" r="5.05167" stroke-width="0.5" stroke="black" fill="green"/>
   </g>
   <g id="cell41">
  <circle cx="364.361" cy="479.75" r="8.41271" stroke-width="0.5" stroke="black" fill="green"/>
  <circle cx="364.361" cy="479.75" r="5.05167" stroke-width="0.5" stroke="black" fill="green"/>
   </g>
   <g id="cell42">
  <circle cx="452.751" cy="487.094" r="2.51852" stroke-width="0.5" stroke="black" fill="green"/>
  <circle cx="452.751" cy="487.094" r="2.22766" stroke-width="0.5" stroke="black" fill="black"/>
   </g>
   <g id="cell43">
  <circle cx="558.276" cy="445.662" r="8.41271" stroke-width="0.5" stroke="black" fill="green"/>
  <circle cx="558.276" cy="445.662" r="5.05167" stroke-width="0.5" stroke="black" fill="green"/>
   </g>
   <g id="cell44">
  <circle cx="485.387" cy="628.256" r="6.80379" stroke-width="0.5" stroke="black" fill="green"/>
  <circle cx="485.387" cy="628.256" r="4.10555" stroke-width="0.5" stroke="black" fill="green"/>
   </g>
   <g id="cell45">
  <circle cx="416.855" cy="554.69" r="8.39664" stroke-width="0.5" stroke="black" fill="green"/>
  <circle cx="416.855" cy="554.69" r="5.04633" stroke-width="0.5" stroke="black" fill="green"/>
   </g>
   <g id="cell46">
  <circle cx="519.526" cy="620.865" r="7.66593" stroke-width="0.5" stroke="black" fill="green"/>
  <circle cx="519.526" cy="620.865" r="4.66715" stroke-width="0.5" stroke="black" fill="green"/>
   </g>
   <g id="cell47">
  <circle cx="499.683" cy="507.443" r="8.41271" stroke-width="0.5" stroke="black" fill="green"/>
  <circle cx="499.683" cy="507.443" r="5.05167" stroke-width="0.5" stroke="black" fill="green"/>
   </g>
   <g id="cell48">
  <circle cx="565.445" cy="604.366" r="8.41271" stroke-width="0.5" stroke="black" fill="green"/>
  <circle cx="565.445" cy="604.366" r="5.05167" stroke-width="0.5" stroke="black" fill="green"/>
   </g>
   <g id="cell49">
  <circle cx="434.591" cy="397.084" r="8.20088" stroke-width="0.5" stroke="black" fill="green"/>
  <circle cx="434.591" cy="397.084" r="4.95562" stroke-width="0.5" stroke="black" fill="green"/>
   </g>
   <g id="cell50">
  <circle cx="510.77" cy="516.022" r="6.78181" stroke-width="0.5" stroke="black" fill="cyan"/>
  <circle cx="510.77" cy="516.022" r="4.08714" stroke-width="0.5" stroke="black" fill="cyan"/>
   </g>
   <g id="cell51">
  <circle cx="386.957" cy="603.976" r="6.89133" stroke-width="0.5" stroke="black" fill="cyan"/>
  <circle cx="386.957" cy="603.976" r="4.19697" stroke-width="0.5" stroke="black" fill="cyan"/>
   </g>
   <g id="cell120">
  <circle cx="419.632" cy="610.673" r="8.31766" stroke-width="0.5" stroke="black" fill="cyan"/>
  <circle cx="419.632" cy="610.673" r="5.0126" stroke-width="0.5" stroke="black" fill="cyan"/>
   </g>
   <g id="cell53">
  <circle cx="571.159" cy="436.099" r="8.41271" stroke-width="0.5" stroke="black" fill="cyan"/>
  <circle cx="571.159" cy="436.099" r="5.05167" stroke-width="0.5" stroke="black" fill="cyan"/>
   </g>
   <g id="cell54">
  <circle cx="481.392" cy="426.63" r="7.18097" stroke-width="0.5" stroke="black" fill="cyan"/>
  <circle cx="481.392" cy="426.63" r="4.36015" stroke-width="0.5" stroke="black" fill="cyan"/>
   </g>
   <g id="cell55">
  <circle cx="525.834" cy="471.277" r="8.41271" stroke-width="0.5" stroke="black" fill="cyan"/>
  <circle cx="525.834" cy="471.277" r="5.05167" stroke-width="0.5" stroke="black" fill="cyan"/>
   </g>
   <g id="cell56">
  <circle cx="615.728" cy="522.513" r="8.41271" stroke-width="0.5" stroke="black" fill="cyan"/>
  <circle cx="615.728" cy="522.513" r="5.05167" stroke-width="0.5" stroke="black" fill="cyan"/>
   </g>
   <g id="cell57">
  <circle cx="418.494" cy="626.459" r="8.31766" stroke-width="0.5" stroke="black" fill="cyan"/>
  <circle cx="418.494" cy="626.459" r="5.0126" stroke-width="0.5" stroke="black" fill="cyan"/>
   </g>
   <g id="cell58">
  <circle cx="549.969" cy="482.994" r="8.41271" stroke-width="0.5" stroke="black" fill="cyan"/>
  <circle cx="549.969" cy="482.994" r="5.05167" stroke-width="0.5" stroke="black" fill="cyan"/>
   </g>
   <g id="cell59">
  <circle cx="385.161" cy="439.178" r="8.41271" stroke-width="0.5" stroke="black" fill="cyan"/>
  <circle cx="385.161" cy="439.178" r="5.05167" stroke-width="0.5" stroke="black" fill="cyan"/>
   </g>
   <g id="cell60">
  <circle cx="593.806" cy="474.028" r="8.29667" stroke-width="0.5" stroke="black" fill="cyan"/>
  <circle cx="593.806" cy="474.028" r="5.00279" stroke-width="0.5" stroke="black" fill="cyan"/>
   </g>
   <g id="cell61">
  <circle cx="554.623" cy="614.976" r="1.28243" stroke-width="0.5" stroke="black" fill="cyan"/>
  <circle cx="554.623" cy="614.976" r="1.27531" stroke-width="0.5" stroke="black" fill="black"/>
   </g>
   <g id="cell62">
  <circle cx="526.178" cy="442.464" r="8.41271" stroke-width="0.5" stroke="black" fill="cyan"/>
  <circle cx="526.178" cy="442.464" r="5.05167" stroke-width="0.5" stroke="black" fill="cyan"/>
   </g>
   <g id="cell63">
  <circle cx="582.567" cy="552.462" r="8.40327" stroke-width="0.5" stroke="black" fill="cyan"/>
  <circle cx="582.567" cy="552.462" r="5.04872" stroke-width="0.5" stroke="black" fill="cyan"/>
   </g>
   <g id="cell64">
  <circle cx="512.237" cy="634.202" r="8.28629" stroke-width="0.5" stroke="black" fill="cyan"/>
  <circle cx="512.237" cy="634.202" r="4.99786" stroke-width="0.5" stroke="black" fill="cyan"/>
   </g>
   <g id="cell65">
  <circle cx="532.935" cy="456.873" r="8.40272" stroke-width="0.5" stroke="black" fill="cyan"/>
  <circle cx="532.935" cy="456.873" r="5.04853" stroke-width="0.5" stroke="black" fill="cyan"/>
   </g>
   <g id="cell66">
  <circle cx="545.459" cy="527.371" r="8.32291" stroke-width="0.5" stroke="black" fill="cyan"/>
  <circle cx="545.459" cy="527.371" r="5.01502" stroke-width="0.5" stroke="black" fill="cyan"/>
   </g>
   <g id="cell67">
  <circle cx="354.77" cy="492.568" r="8.41271" stroke-width="0.5" stroke="black" fill="cyan"/>
  <circle cx="354.77" cy="492.568" r="5.05167" stroke-width="0.5" stroke="black" fill="cyan"/>
   </g>
   <g id="cell68">
  <circle cx="561.114" cy="555.861" r="8.41271" stroke-width="0.5" stroke="black" fill="cyan"/>
  <circle cx="561.114" cy="555.861" r="5.05167" stroke-width="0.5" stroke="black" fill="cyan"/>
   </g>
   <g id="cell69">
  <circle cx="436.688" cy="450.781" r="8.41088" stroke-width="0.5" stroke="black" fill="cyan"/>
  <circle cx="436.688" cy="450.781" r="5.05119" stroke-width="0.5" stroke="black" fill="cyan"/>
   </g>
   <g id="cell70">
  <circle cx="578.875" cy="477.923" r="8.03527" stroke-width="0.5" stroke="black" fill="cyan"/>
  <circle cx="578.875" cy="477.923" r="4.86813" stroke-width="0.5" stroke="black" fill="cyan"/>
   </g>
   <g id="cell71">
  <circle cx="379.134" cy="528.487" r="6.5042" stroke-width="0.5" stroke="black" fill="cyan"/>
  <circle cx="379.134" cy="528.487" r="3.93796" stroke-width="0.5" stroke="black" fill="cyan"/>
   </g>
   <g id="cell72">
  <circle cx="536.021" cy="509.902" r="8.41271" stroke-width="0.5" stroke="black" fill="cyan"/>
  <circle cx="536.021" cy="509.902" r="5.05167" stroke-width="0.5" stroke="black" fill="cyan"/>
   </g>
   <g id="cell129">
  <circle cx="419.744" cy="401.897" r="8.20088" stroke-width="0.5" stroke="black" fill="green"/>
  <circle cx="419.744" cy="401.897" r="4.95562" stroke-width="0.5" stroke="black" fill="green"/>
   </g>
   <g id="cell74">
  <circle cx="542.284" cy="443.932" r="8.41271" stroke-width="0.5" stroke="black" fill="cyan"/>
  <circle cx="542.284" cy="443.932" r="5.05167" stroke-width="0.5" stroke="black" fill="cyan"/>
   </g>
   <g id="cell75">
  <circle cx="443.777" cy="473.381" r="8.27003" stroke-width="0.5" stroke="black" fill="cyan"/>
  <circle cx="443.777" cy="473.381" r="4.99023" stroke-width="0.5" stroke="black" fill="cyan"/>
   </g>
   <g id="cell76">
  <circle cx="522.354" cy="384.301" r="8.4006" stroke-width="0.5" stroke="black" fill="magenta"/>
  <circle cx="522.354" cy="384.301" r="5.04786" stroke-width="0.5" stroke="black" fill="magenta"/>
   </g>
   <g id="cell77">
  <circle cx="493.579" cy="433.524" r="7.53359" stroke-width="0.5" stroke="black" fill="magenta"/>
  <circle cx="493.579" cy="433.524" r="4.58618" stroke-width="0.5" stroke="black" fill="magenta"/>
   </g>
   <g id="cell78">
  <circle cx="370.679" cy="465.452" r="8.41061" stroke-width="0.5" stroke="black" fill="magenta"/>
  <circle cx="370.679" cy="465.452" r="5.05111" stroke-width="0.5" stroke="black" fill="magenta"/>
   </g>
   <g id="cell79">
  <circle cx="499.734" cy="523.908" r="8.41049" stroke-width="0.5" stroke="black" fill="magenta"/>
  <circle cx="499.734" cy="523.908" r="5.05108" stroke-width="0.5" stroke="black" fill="magenta"/>
   </g>
   <g id="cell80">
  <circle cx="604.349" cy="486.013" r="8.41036" stroke-width="0.5" stroke="black" fill="green"/>
  <circle cx="604.349" cy="486.013" r="5.05104" stroke-width="0.5" stroke="black" fill="green"/>
   </g>
   <g id="cell81">
  <circle cx="430.146" cy="501.818" r="8.22946" stroke-width="0.5" stroke="black" fill="green"/>
  <circle cx="430.146" cy="501.818" r="4.97219" stroke-width="0.5" stroke="black" fill="green"/>
   </g>
   <g id="cell82">
  <circle cx="543.762" cy="496.718" r="8.40994" stroke-width="0.5" stroke="black" fill="magenta"/>
  <circle cx="543.762" cy="496.718" r="5.05091" stroke-width="0.5" stroke="black" fill="magenta"/>
   </g>
   <g id="cell130">
  <circle cx="574.446" cy="391.209" r="8.18833" stroke-width="0.5" stroke="black" fill="magenta"/>
  <circle cx="574.446" cy="391.209" r="4.94921" stroke-width="0.5" stroke="black" fill="magenta"/>
   </g>
   <g id="cell84">
  <circle cx="406.757" cy="481.388" r="8.36177" stroke-width="0.5" stroke="black" fill="green"/>
  <circle cx="406.757" cy="481.388" r="5.03263" stroke-width="0.5" stroke="black" fill="green"/>
   </g>
   <g id="cell140">
  <circle cx="528.61" cy="578.062" r="7.22417" stroke-width="0.5" stroke="black" fill="magenta"/>
  <circle cx="528.61" cy="578.062" r="4.43529" stroke-width="0.5" stroke="black" fill="magenta"/>
   </g>
   <g id="cell86">
  <circle cx="392.385" cy="565.433" r="8.36544" stroke-width="0.5" stroke="black" fill="magenta"/>
  <circle cx="392.385" cy="565.433" r="5.0342" stroke-width="0.5" stroke="black" fill="magenta"/>
   </g>
   <g id="cell87">
  <circle cx="434.629" cy="521.663" r="6.80566" stroke-width="0.5" stroke="black" fill="green"/>
  <circle cx="434.629" cy="521.663" r="4.12424" stroke-width="0.5" stroke="black" fill="green"/>
   </g>
   <g id="cell88">
  <circle cx="476.369" cy="611.464" r="8.40614" stroke-width="0.5" stroke="black" fill="green"/>
  <circle cx="476.369" cy="611.464" r="5.0497" stroke-width="0.5" stroke="black" fill="green"/>
   </g>
   <g id="cell89">
  <circle cx="436.228" cy="487.268" r="8.39017" stroke-width="0.5" stroke="black" fill="green"/>
  <circle cx="436.228" cy="487.268" r="5.04423" stroke-width="0.5" stroke="black" fill="green"/>
   </g>
   <g id="cell90">
  <circle cx="581.614" cy="508.549" r="6.6715" stroke-width="0.5" stroke="black" fill="magenta"/>
  <circle cx="581.614" cy="508.549" r="4.0078" stroke-width="0.5" stroke="black" fill="magenta"/>
   </g>
   <g id="cell136">
  <circle cx="524.527" cy="540.419" r="7.96365" stroke-width="0.5" stroke="black" fill="magenta"/>
  <circle cx="524.527" cy="540.419" r="4.82873" stroke-width="0.5" stroke="black" fill="magenta"/>
   </g>
   <g id="cell92">
  <circle cx="553.858" cy="593.549" r="8.35948" stroke-width="0.5" stroke="black" fill="green"/>
  <circle cx="553.858" cy="593.549" r="5.03241" stroke-width="0.5" stroke="black" fill="green"/>
   </g>
   <g id="cell93">
  <circle cx="572.85" cy="526.767" r="8.13437" stroke-width="0.5" stroke="black" fill="cyan"/>
  <circle cx="572.85" cy="526.767" r="4.92338" stroke-width="0.5" stroke="black" fill="cyan"/>
   </g>
   <g id="cell94">
  <circle cx="541.663" cy="469.943" r="8.40272" stroke-width="0.5" stroke="black" fill="cyan"/>
  <circle cx="541.663" cy="469.943" r="5.04853" stroke-width="0.5" stroke="black" fill="cyan"/>
   </g>
   <g id="cell95">
  <circle cx="463.585" cy="535.615" r="8.40272" stroke-width="0.5" stroke="black" fill="magenta"/>
  <circle cx="463.585" cy="535.615" r="5.04853" stroke-width="0.5" stroke="black" fill="magenta"/>
   </g>
   <g id="cell96">
  <circle cx="535.321" cy="376.522" r="8.4006" stroke-width="0.5" stroke="black" fill="magenta"/>
  <circle cx="535.321" cy="376.522" r="5.04786" stroke-width="0.5" stroke="black" fill="magenta"/>
   </g>
   <g id="cell97">
  <circle cx="568.77" cy="507.044" r="8.39883" stroke-width="0.5" stroke="black" fill="magenta"/>
  <circle cx="568.77" cy="507.044" r="5.04726" stroke-width="0.5" stroke="black" fill="magenta"/>
   </g>
   <g id="cell98">
  <circle cx="406.457" cy="565.15" r="7.16994" stroke-width="0.5" stroke="black" fill="green"/>
  <circle cx="406.457" cy="565.15" r="4.35626" stroke-width="0.5" stroke="black" fill="green"/>
   </g>
   <g id="cell99">
  <circle cx="574.657" cy="493.064" r="8.39664" stroke-width="0.5" stroke="black" fill="magenta"/>
  <circle cx="574.657" cy="493.064" r="5.04633" stroke-width="0.5" stroke="black" fill="magenta"/>
   </g>
   <g id="cell100">
  <circle cx="569.993" cy="542.476" r="8.39098" stroke-width="0.5" stroke="black" fill="cyan"/>
  <circle cx="569.993" cy="542.476" r="5.04451" stroke-width="0.5" stroke="black" fill="cyan"/>
   </g>
   <g id="cell101">
  <circle cx="459.548" cy="628.615" r="8.36761" stroke-width="0.5" stroke="black" fill="magenta"/>
  <circle cx="459.548" cy="628.615" r="5.03544" stroke-width="0.5" stroke="black" fill="magenta"/>
   </g>
   <g id="cell102">
  <circle cx="445.877" cy="499.998" r="8.39017" stroke-width="0.5" stroke="black" fill="green"/>
  <circle cx="445.877" cy="499.998" r="5.04423" stroke-width="0.5" stroke="black" fill="green"/>
   </g>
   <g id="cell103">
  <circle cx="541.64" cy="604.048" r="8.38546" stroke-width="0.5" stroke="black" fill="green"/>
  <circle cx="541.64" cy="604.048" r="5.04241" stroke-width="0.5" stroke="black" fill="green"/>
   </g>
   <g id="cell104">
  <circle cx="554.028" cy="541.398" r="8.38823" stroke-width="0.5" stroke="black" fill="green"/>
  <circle cx="554.028" cy="541.398" r="5.04313" stroke-width="0.5" stroke="black" fill="green"/>
   </g>
   <g id="cell105">
  <circle cx="416.346" cy="494.093" r="8.384" stroke-width="0.5" stroke="black" fill="green"/>
  <circle cx="416.346" cy="494.093" r="5.04163" stroke-width="0.5" stroke="black" fill="green"/>
   </g>
   <g id="cell106">
  <circle cx="639.194" cy="537.204" r="8.38532" stroke-width="0.5" stroke="black" fill="green"/>
  <circle cx="639.194" cy="537.204" r="5.04199" stroke-width="0.5" stroke="black" fill="green"/>
   </g>
   <g id="cell107">
  <circle cx="384.088" cy="512.278" r="8.37742" stroke-width="0.5" stroke="black" fill="cyan"/>
  <circle cx="384.088" cy="512.278" r="5.03881" stroke-width="0.5" stroke="black" fill="cyan"/>
   </g>
   <g id="cell108">
  <circle cx="459.096" cy="643.66" r="8.36761" stroke-width="0.5" stroke="black" fill="magenta"/>
  <circle cx="459.096" cy="643.66" r="5.03544" stroke-width="0.5" stroke="black" fill="magenta"/>
   </g>
   <g id="cell109">
  <circle cx="446.339" cy="635.55" r="8.36761" stroke-width="0.5" stroke="black" fill="magenta"/>
  <circle cx="446.339" cy="635.55" r="5.03544" stroke-width="0.5" stroke="black" fill="magenta"/>
   </g>
   <g id="cell110">
  <circle cx="539.135" cy="588.191" r="8.35948" stroke-width="0.5" stroke="black" fill="green"/>
  <circle cx="539.135" cy="588.191" r="5.03241" stroke-width="0.5" stroke="black" fill="green"/>
   </g>
   <g id="cell111">
  <circle cx="630.455" cy="550.833" r="8.3594" stroke-width="0.5" stroke="black" fill="green"/>
  <circle cx="630.455" cy="550.833" r="5.0322" stroke-width="0.5" stroke="black" fill="green"/>
   </g>
   <g id="cell112">
  <circle cx="380.848" cy="574.732" r="8.36544" stroke-width="0.5" stroke="black" fill="magenta"/>
  <circle cx="380.848" cy="574.732" r="5.0342" stroke-width="0.5" stroke="black" fill="magenta"/>
   </g>
   <g id="cell113">
  <circle cx="422.442" cy="479.339" r="8.36177" stroke-width="0.5" stroke="black" fill="green"/>
  <circle cx="422.442" cy="479.339" r="5.03263" stroke-width="0.5" stroke="black" fill="green"/>
   </g>
   <g id="cell114">
  <circle cx="493.474" cy="447.72" r="8.09995" stroke-width="0.5" stroke="black" fill="magenta"/>
  <circle cx="493.474" cy="447.72" r="4.90729" stroke-width="0.5" stroke="black" fill="magenta"/>
   </g>
   <g id="cell115">
  <circle cx="451.671" cy="525.781" r="8.34738" stroke-width="0.5" stroke="black" fill="green"/>
  <circle cx="451.671" cy="525.781" r="5.02647" stroke-width="0.5" stroke="black" fill="green"/>
   </g>
   <g id="cell116">
  <circle cx="369.355" cy="518.645" r="8.32722" stroke-width="0.5" stroke="black" fill="cyan"/>
  <circle cx="369.355" cy="518.645" r="5.01849" stroke-width="0.5" stroke="black" fill="cyan"/>
   </g>
   <g id="cell117">
  <circle cx="437.573" cy="513.722" r="2.15405" stroke-width="0.5" stroke="black" fill="green"/>
  <circle cx="437.573" cy="513.722" r="2.00012" stroke-width="0.5" stroke="black" fill="black"/>
   </g>
   <g id="cell118">
  <circle cx="529.763" cy="526.524" r="8.32291" stroke-width="0.5" stroke="black" fill="cyan"/>
  <circle cx="529.763" cy="526.524" r="5.01502" stroke-width="0.5" stroke="black" fill="cyan"/>
   </g>
   <g id="cell119">
  <circle cx="527.112" cy="632.929" r="7.43655" stroke-width="0.5" stroke="black" fill="green"/>
  <circle cx="527.112" cy="632.929" r="4.53103" stroke-width="0.5" stroke="black" fill="green"/>
   </g>
   <g id="cell121">
  <circle cx="391.041" cy="550.719" r="8.30309" stroke-width="0.5" stroke="black" fill="magenta"/>
  <circle cx="391.041" cy="550.719" r="5.00634" stroke-width="0.5" stroke="black" fill="magenta"/>
   </g>
   <g id="cell122">
  <circle cx="608.941" cy="470.73" r="8.29667" stroke-width="0.5" stroke="black" fill="cyan"/>
  <circle cx="608.941" cy="470.73" r="5.00279" stroke-width="0.5" stroke="black" fill="cyan"/>
   </g>
   <g id="cell123">
  <circle cx="500.395" cy="644.57" r="8.28629" stroke-width="0.5" stroke="black" fill="cyan"/>
  <circle cx="500.395" cy="644.57" r="4.99786" stroke-width="0.5" stroke="black" fill="cyan"/>
   </g>
   <g id="cell124">
  <circle cx="383.589" cy="590.001" r="8.28262" stroke-width="0.5" stroke="black" fill="green"/>
  <circle cx="383.589" cy="590.001" r="4.9961" stroke-width="0.5" stroke="black" fill="green"/>
   </g>
   <g id="cell125">
  <circle cx="450.236" cy="459.062" r="8.27003" stroke-width="0.5" stroke="black" fill="cyan"/>
  <circle cx="450.236" cy="459.062" r="4.99023" stroke-width="0.5" stroke="black" fill="cyan"/>
   </g>
   <g id="cell126">
  <circle cx="416.759" cy="509.907" r="8.22946" stroke-width="0.5" stroke="black" fill="green"/>
  <circle cx="416.759" cy="509.907" r="4.97219" stroke-width="0.5" stroke="black" fill="green"/>
   </g>
   <g id="cell127">
  <circle cx="412.149" cy="596.822" r="8.22925" stroke-width="0.5" stroke="black" fill="cyan"/>
  <circle cx="412.149" cy="596.822" r="4.96993" stroke-width="0.5" stroke="black" fill="cyan"/>
   </g>
   <g id="cell128">
  <circle cx="367.37" cy="534.845" r="8.17382" stroke-width="0.5" stroke="black" fill="cyan"/>
  <circle cx="367.37" cy="534.845" r="4.94708" stroke-width="0.5" stroke="black" fill="cyan"/>
   </g>
   <g id="cell131">
  <circle cx="584.619" cy="536.847" r="8.13437" stroke-width="0.5" stroke="black" fill="cyan"/>
  <circle cx="584.619" cy="536.847" r="4.92338" stroke-width="0.5" stroke="black" fill="cyan"/>
   </g>
   <g id="cell132">
  <circle cx="505.987" cy="440.4" r="8.09995" stroke-width="0.5" stroke="black" fill="magenta"/>
  <circle cx="505.987" cy="440.4" r="4.90729" stroke-width="0.5" stroke="black" fill="magenta"/>
   </g>
   <g id="cell133">
  <circle cx="534.234" cy="408.777" r="8.10448" stroke-width="0.5" stroke="black" fill="magenta"/>
  <circle cx="534.234" cy="408.777" r="4.90539" stroke-width="0.5" stroke="black" fill="magenta"/>
   </g>
   <g id="cell134">
  <circle cx="515.595" cy="581.339" r="7.58395" stroke-width="0.5" stroke="black" fill="magenta"/>
  <circle cx="515.595" cy="581.339" r="4.62979" stroke-width="0.5" stroke="black" fill="magenta"/>
   </g>
   <g id="cell135">
  <circle cx="564.727" cy="481.302" r="8.03527" stroke-width="0.5" stroke="black" fill="cyan"/>
  <circle cx="564.727" cy="481.302" r="4.86813" stroke-width="0.5" stroke="black" fill="cyan"/>
   </g>
   <g id="cell137">
  <circle cx="379.213" cy="477.318" r="7.87732" stroke-width="0.5" stroke="black" fill="magenta"/>
  <circle cx="379.213" cy="477.318" r="4.78062" stroke-width="0.5" stroke="black" fill="magenta"/>
   </g>
   <g id="cell138">
  <circle cx="525.167" cy="590.456" r="7.22417" stroke-width="0.5" stroke="black" fill="magenta"/>
  <circle cx="525.167" cy="590.456" r="4.43529" stroke-width="0.5" stroke="black" fill="magenta"/>
   </g>
   <g id="cell139">
  <circle cx="510.769" cy="609.488" r="7.66593" stroke-width="0.5" stroke="black" fill="green"/>
  <circle cx="510.769" cy="609.488" r="4.66715" stroke-width="0.5" stroke="black" fill="green"/>
   </g>
   <g id="cell142">
  <circle cx="585.848" cy="383.031" r="7.40603" stroke-width="0.5" stroke="black" fill="magenta"/>
  <circle cx="585.848" cy="383.031" r="4.52145" stroke-width="0.5" stroke="black" fill="magenta"/>
   </g>
   <g id="cell143">
  <circle cx="537.652" cy="623.559" r="7.43655" stroke-width="0.5" stroke="black" fill="green"/>
  <circle cx="537.652" cy="623.559" r="4.53103" stroke-width="0.5" stroke="black" fill="green"/>
   </g>
   <g id="cell144">
  <circle cx="380.294" cy="541.693" r="7.41548" stroke-width="0.5" stroke="black" fill="magenta"/>
  <circle cx="380.294" cy="541.693" r="4.50723" stroke-width="0.5" stroke="black" fill="magenta"/>
   </g>
   <g id="cell145">
  <circle cx="461.746" cy="485.814" r="7.3599" stroke-width="0.5" stroke="black" fill="magenta"/>
  <circle cx="461.746" cy="485.814" r="4.47294" stroke-width="0.5" stroke="black" fill="magenta"/>
   </g>
   <g id="cell146">
  <circle cx="467.58" cy="425.917" r="7.18097" stroke-width="0.5" stroke="black" fill="cyan"/>
  <circle cx="467.58" cy="425.917" r="4.36015" stroke-width="0.5" stroke="black" fill="cyan"/>
   </g>
   <g id="cell148">
  <circle cx="399.962" cy="604.288" r="6.89133" stroke-width="0.5" stroke="black" fill="cyan"/>
  <circle cx="399.962" cy="604.288" r="4.19697" stroke-width="0.5" stroke="black" fill="cyan"/>
   </g>
   <g id="cell149">
  <circle cx="437.996" cy="533.94" r="6.80566" stroke-width="0.5" stroke="black" fill="green"/>
  <circle cx="437.996" cy="533.94" r="4.12424" stroke-width="0.5" stroke="black" fill="green"/>
   </g>
   <g id="cell150">
  <circle cx="472.973" cy="625.4" r="6.80379" stroke-width="0.5" stroke="black" fill="green"/>
  <circle cx="472.973" cy="625.4" r="4.10555" stroke-width="0.5" stroke="black" fill="green"/>
   </g>
   <g id="cell151">
  <circle cx="522.835" cy="514.233" r="6.78181" stroke-width="0.5" stroke="black" fill="cyan"/>
  <circle cx="522.835" cy="514.233" r="4.08714" stroke-width="0.5" stroke="black" fill="cyan"/>
   </g>
   <g id="cell152">
  <circle cx="643.898" cy="554.353" r="6.66971" stroke-width="0.5" stroke="black" fill="green"/>
  <circle cx="643.898" cy="554.353" r="4.01904" stroke-width="0.5" stroke="black" fill="green"/>
   </g>
   <g id="cell153">
  <circle cx="390.873" cy="526.709" r="6.5042" stroke-width="0.5" stroke="black" fill="cyan"/>
  <circle cx="390.873" cy="526.709" r="3.93796" stroke-width="0.5" stroke="black" fill="cyan"/>
   </g>
   <g id="cell154">
  <circle cx="588.239" cy="500.001" r="6.6715" stroke-width="0.5" stroke="black" fill="magenta"/>
  <circle cx="588.239" cy="500.001" r="4.0078" stroke-width="0.5" stroke="black" fill="magenta"/>
   </g>
  </g>
 </g>
  <rect x="775" y="1035" width="200" height="10" stroke-width="2" stroke="rgb(255,255,255)" fill="rgb(0,0,0)"/>
  <text x="781.25" y="1028.75"
   font-family="Arial" font-size="25" fill="black" >
   200 &#956;m
  </text>
  <text x="25" y="1045"
   font-family="Arial" font-size="18.75" fill="black" >
   0 days, 0 hours, 0 minutes, and 33.2800 seconds
  </text>
  <rect x="0" y="70" width="1000" height="1000" stroke-width="2" stroke="rgb(0,0,0)" fill="none"/>
</svg>
