<?xml version="1.0" encoding="UTF-8" standalone="no"?>
<!-- Created with PhysiCell (http://PhysiCell.MathCancer.org/) -->
<svg 
 xmlns:dc="http://purl.org/dc/elements/1.1/" 
 xmlns:cc="http://creativecommons.org/ns#" 
 xmlns:rdf="http://www.w3.org/1999/02/22-rdf-syntax-ns#" 
 xmlns:svg="http://www.w3.org/2000/svg" 
 xmlns="http://www.w3.org/2000/svg" 
 version="1.1" 
 width="1000" 
 height="1070" 
 id="svg2">
  <rect x="0" y="0" width="1000" height="1070" stroke-width="2" stroke="white" fill="white"/>
  <text x="12.5" y="30"
   font-family="Arial" font-size="25" fill="black" >
   Current time: 0 days, 21 hours, and 0.00 minutes, z = 0.00 &#956;m
  </text>
  <text x="12.5" y="57.5"
   font-family="Arial" font-size="23.75" fill="black" >
   135 agents
  </text>
 <g id="tissue" 
    transform="translate(0,1070) scale(1,-1)">
  <g id="ECM">
  </g>
  <g id="cells">
   <g id="cell0">
  <circle cx="514.924" cy="531.77" r="8.40596" stroke-width="0.5" stroke="black" fill="magenta"/>
  <circle cx="514.924" cy="531.77" r="5.04964" stroke-width="0.5" stroke="black" fill="magenta"/>
   </g>
   <g id="cell1">
  <circle cx="600.209" cy="520.326" r="1.54796" stroke-width="0.5" stroke="black" fill="magenta"/>
  <circle cx="600.209" cy="520.326" r="1.52398" stroke-width="0.5" stroke="black" fill="black"/>
   </g>
   <g id="cell2">
  <circle cx="512.08" cy="599.222" r="7.3599" stroke-width="0.5" stroke="black" fill="magenta"/>
  <circle cx="512.08" cy="599.222" r="4.47294" stroke-width="0.5" stroke="black" fill="magenta"/>
   </g>
   <g id="cell3">
  <circle cx="539.331" cy="540.988" r="7.0545" stroke-width="0.5" stroke="black" fill="magenta"/>
  <circle cx="539.331" cy="540.988" r="4.27772" stroke-width="0.5" stroke="black" fill="magenta"/>
   </g>
   <g id="cell4">
  <circle cx="473.749" cy="440.556" r="8.40667" stroke-width="0.5" stroke="black" fill="magenta"/>
  <circle cx="473.749" cy="440.556" r="5.04987" stroke-width="0.5" stroke="black" fill="magenta"/>
   </g>
   <g id="cell5">
  <circle cx="465.729" cy="494.328" r="8.41271" stroke-width="0.5" stroke="black" fill="magenta"/>
  <circle cx="465.729" cy="494.328" r="5.05167" stroke-width="0.5" stroke="black" fill="magenta"/>
   </g>
   <g id="cell6">
  <circle cx="594.385" cy="513.558" r="8.39083" stroke-width="0.5" stroke="black" fill="magenta"/>
  <circle cx="594.385" cy="513.558" r="5.04414" stroke-width="0.5" stroke="black" fill="magenta"/>
   </g>
   <g id="cell7">
  <circle cx="511.496" cy="464.487" r="8.41271" stroke-width="0.5" stroke="black" fill="magenta"/>
  <circle cx="511.496" cy="464.487" r="5.05167" stroke-width="0.5" stroke="black" fill="magenta"/>
   </g>
   <g id="cell8">
  <circle cx="374.549" cy="547.431" r="8.41271" stroke-width="0.5" stroke="black" fill="magenta"/>
  <circle cx="374.549" cy="547.431" r="5.05167" stroke-width="0.5" stroke="black" fill="magenta"/>
   </g>
   <g id="cell9">
  <circle cx="463.975" cy="602.079" r="8.38957" stroke-width="0.5" stroke="black" fill="magenta"/>
  <circle cx="463.975" cy="602.079" r="5.04365" stroke-width="0.5" stroke="black" fill="magenta"/>
   </g>
   <g id="cell10">
  <circle cx="587.516" cy="391.407" r="7.70049" stroke-width="0.5" stroke="black" fill="magenta"/>
  <circle cx="587.516" cy="391.407" r="4.67828" stroke-width="0.5" stroke="black" fill="magenta"/>
   </g>
   <g id="cell11">
  <circle cx="589.748" cy="590.273" r="8.41271" stroke-width="0.5" stroke="black" fill="magenta"/>
  <circle cx="589.748" cy="590.273" r="5.05167" stroke-width="0.5" stroke="black" fill="magenta"/>
   </g>
   <g id="cell12">
  <circle cx="503.471" cy="587.516" r="8.41271" stroke-width="0.5" stroke="black" fill="magenta"/>
  <circle cx="503.471" cy="587.516" r="5.05167" stroke-width="0.5" stroke="black" fill="magenta"/>
   </g>
   <g id="cell13">
  <circle cx="378.625" cy="561.468" r="8.06652" stroke-width="0.5" stroke="black" fill="magenta"/>
  <circle cx="378.625" cy="561.468" r="4.887" stroke-width="0.5" stroke="black" fill="magenta"/>
   </g>
   <g id="cell14">
  <circle cx="523.117" cy="398.763" r="7.44242" stroke-width="0.5" stroke="black" fill="magenta"/>
  <circle cx="523.117" cy="398.763" r="4.52373" stroke-width="0.5" stroke="black" fill="magenta"/>
   </g>
   <g id="cell15">
  <circle cx="389.271" cy="483.296" r="6.86172" stroke-width="0.5" stroke="black" fill="magenta"/>
  <circle cx="389.271" cy="483.296" r="4.14734" stroke-width="0.5" stroke="black" fill="magenta"/>
   </g>
   <g id="cell16">
  <circle cx="430.053" cy="414.282" r="8.41271" stroke-width="0.5" stroke="black" fill="magenta"/>
  <circle cx="430.053" cy="414.282" r="5.05167" stroke-width="0.5" stroke="black" fill="magenta"/>
   </g>
   <g id="cell17">
  <circle cx="588.15" cy="488.488" r="8.3632" stroke-width="0.5" stroke="black" fill="magenta"/>
  <circle cx="588.15" cy="488.488" r="5.03288" stroke-width="0.5" stroke="black" fill="magenta"/>
   </g>
   <g id="cell18">
  <circle cx="510.065" cy="393.126" r="8.407" stroke-width="0.5" stroke="black" fill="magenta"/>
  <circle cx="510.065" cy="393.126" r="5.04998" stroke-width="0.5" stroke="black" fill="magenta"/>
   </g>
   <g id="cell19">
  <circle cx="448.062" cy="539.451" r="8.38206" stroke-width="0.5" stroke="black" fill="magenta"/>
  <circle cx="448.062" cy="539.451" r="5.04069" stroke-width="0.5" stroke="black" fill="magenta"/>
   </g>
   <g id="cell20">
  <circle cx="528.267" cy="422.606" r="8.41271" stroke-width="0.5" stroke="black" fill="magenta"/>
  <circle cx="528.267" cy="422.606" r="5.05167" stroke-width="0.5" stroke="black" fill="magenta"/>
   </g>
   <g id="cell21">
  <circle cx="464.948" cy="637.024" r="1.14016" stroke-width="0.5" stroke="black" fill="magenta"/>
  <circle cx="464.948" cy="637.024" r="1.13467" stroke-width="0.5" stroke="black" fill="black"/>
   </g>
   <g id="cell22">
  <circle cx="558.33" cy="497.66" r="8.37005" stroke-width="0.5" stroke="black" fill="magenta"/>
  <circle cx="558.33" cy="497.66" r="5.03622" stroke-width="0.5" stroke="black" fill="magenta"/>
   </g>
   <g id="cell23">
  <circle cx="536.697" cy="481.971" r="8.41271" stroke-width="0.5" stroke="black" fill="magenta"/>
  <circle cx="536.697" cy="481.971" r="5.05167" stroke-width="0.5" stroke="black" fill="magenta"/>
   </g>
   <g id="cell24">
  <circle cx="562.118" cy="382.136" r="8.41271" stroke-width="0.5" stroke="black" fill="magenta"/>
  <circle cx="562.118" cy="382.136" r="5.05167" stroke-width="0.5" stroke="black" fill="magenta"/>
   </g>
   <g id="cell25">
  <circle cx="647.898" cy="559.499" r="8.24638" stroke-width="0.5" stroke="black" fill="green"/>
  <circle cx="647.898" cy="559.499" r="4.9819" stroke-width="0.5" stroke="black" fill="green"/>
   </g>
   <g id="cell26">
  <circle cx="550.591" cy="401.224" r="8.41271" stroke-width="0.5" stroke="black" fill="green"/>
  <circle cx="550.591" cy="401.224" r="5.05167" stroke-width="0.5" stroke="black" fill="green"/>
   </g>
   <g id="cell27">
  <circle cx="457.446" cy="388.678" r="8.41271" stroke-width="0.5" stroke="black" fill="green"/>
  <circle cx="457.446" cy="388.678" r="5.05167" stroke-width="0.5" stroke="black" fill="green"/>
   </g>
   <g id="cell28">
  <circle cx="433.021" cy="543.964" r="8.41271" stroke-width="0.5" stroke="black" fill="green"/>
  <circle cx="433.021" cy="543.964" r="5.05167" stroke-width="0.5" stroke="black" fill="green"/>
   </g>
   <g id="cell29">
  <circle cx="467.326" cy="520.992" r="8.20816" stroke-width="0.5" stroke="black" fill="green"/>
  <circle cx="467.326" cy="520.992" r="4.96096" stroke-width="0.5" stroke="black" fill="green"/>
   </g>
   <g id="cell30">
  <circle cx="477.818" cy="539.19" r="8.41271" stroke-width="0.5" stroke="black" fill="green"/>
  <circle cx="477.818" cy="539.19" r="5.05167" stroke-width="0.5" stroke="black" fill="green"/>
   </g>
   <g id="cell31">
  <circle cx="412.406" cy="538.447" r="8.41271" stroke-width="0.5" stroke="black" fill="green"/>
  <circle cx="412.406" cy="538.447" r="5.05167" stroke-width="0.5" stroke="black" fill="green"/>
   </g>
   <g id="cell32">
  <circle cx="430.247" cy="465.388" r="8.39571" stroke-width="0.5" stroke="black" fill="green"/>
  <circle cx="430.247" cy="465.388" r="5.04599" stroke-width="0.5" stroke="black" fill="green"/>
   </g>
   <g id="cell33">
  <circle cx="498.876" cy="413.227" r="8.39794" stroke-width="0.5" stroke="black" fill="green"/>
  <circle cx="498.876" cy="413.227" r="5.04681" stroke-width="0.5" stroke="black" fill="green"/>
   </g>
   <g id="cell34">
  <circle cx="392.091" cy="453.613" r="8.39422" stroke-width="0.5" stroke="black" fill="green"/>
  <circle cx="392.091" cy="453.613" r="5.04543" stroke-width="0.5" stroke="black" fill="green"/>
   </g>
   <g id="cell35">
  <circle cx="543.983" cy="554.251" r="8.33699" stroke-width="0.5" stroke="black" fill="green"/>
  <circle cx="543.983" cy="554.251" r="5.02141" stroke-width="0.5" stroke="black" fill="green"/>
   </g>
   <g id="cell36">
  <circle cx="396.483" cy="579.849" r="8.00101" stroke-width="0.5" stroke="black" fill="green"/>
  <circle cx="396.483" cy="579.849" r="4.84939" stroke-width="0.5" stroke="black" fill="green"/>
   </g>
   <g id="cell37">
  <circle cx="634.871" cy="460.618" r="5.95973" stroke-width="0.5" stroke="black" fill="green"/>
  <circle cx="634.871" cy="460.618" r="3.76978" stroke-width="0.5" stroke="black" fill="black"/>
   </g>
   <g id="cell38">
  <circle cx="526.885" cy="600.604" r="8.38373" stroke-width="0.5" stroke="black" fill="green"/>
  <circle cx="526.885" cy="600.604" r="5.04136" stroke-width="0.5" stroke="black" fill="green"/>
   </g>
   <g id="cell39">
  <circle cx="617.796" cy="494.86" r="8.40557" stroke-width="0.5" stroke="black" fill="green"/>
  <circle cx="617.796" cy="494.86" r="5.04951" stroke-width="0.5" stroke="black" fill="green"/>
   </g>
   <g id="cell40">
  <circle cx="485.352" cy="571.782" r="8.41271" stroke-width="0.5" stroke="black" fill="green"/>
  <circle cx="485.352" cy="571.782" r="5.05167" stroke-width="0.5" stroke="black" fill="green"/>
   </g>
   <g id="cell41">
  <circle cx="364.926" cy="480.106" r="8.41271" stroke-width="0.5" stroke="black" fill="green"/>
  <circle cx="364.926" cy="480.106" r="5.05167" stroke-width="0.5" stroke="black" fill="green"/>
   </g>
   <g id="cell42">
  <circle cx="452.473" cy="486.217" r="8.38802" stroke-width="0.5" stroke="black" fill="green"/>
  <circle cx="452.473" cy="486.217" r="5.04336" stroke-width="0.5" stroke="black" fill="green"/>
   </g>
   <g id="cell43">
  <circle cx="558.586" cy="445.795" r="8.41271" stroke-width="0.5" stroke="black" fill="green"/>
  <circle cx="558.586" cy="445.795" r="5.05167" stroke-width="0.5" stroke="black" fill="green"/>
   </g>
   <g id="cell44">
  <circle cx="477.543" cy="627.414" r="8.3926" stroke-width="0.5" stroke="black" fill="green"/>
  <circle cx="477.543" cy="627.414" r="5.04482" stroke-width="0.5" stroke="black" fill="green"/>
   </g>
   <g id="cell45">
  <circle cx="416.816" cy="553.832" r="8.3632" stroke-width="0.5" stroke="black" fill="green"/>
  <circle cx="416.816" cy="553.832" r="5.03288" stroke-width="0.5" stroke="black" fill="green"/>
   </g>
   <g id="cell46">
  <circle cx="517.017" cy="612.736" r="8.1218" stroke-width="0.5" stroke="black" fill="green"/>
  <circle cx="517.017" cy="612.736" r="4.91457" stroke-width="0.5" stroke="black" fill="green"/>
   </g>
   <g id="cell47">
  <circle cx="501.539" cy="508.651" r="8.41271" stroke-width="0.5" stroke="black" fill="green"/>
  <circle cx="501.539" cy="508.651" r="5.05167" stroke-width="0.5" stroke="black" fill="green"/>
   </g>
   <g id="cell48">
  <circle cx="564.747" cy="603.647" r="8.41271" stroke-width="0.5" stroke="black" fill="green"/>
  <circle cx="564.747" cy="603.647" r="5.05167" stroke-width="0.5" stroke="black" fill="green"/>
   </g>
   <g id="cell49">
  <circle cx="434.136" cy="394.726" r="7.7401" stroke-width="0.5" stroke="black" fill="green"/>
  <circle cx="434.136" cy="394.726" r="4.70142" stroke-width="0.5" stroke="black" fill="green"/>
   </g>
   <g id="cell50">
  <circle cx="515.393" cy="516.383" r="8.41271" stroke-width="0.5" stroke="black" fill="cyan"/>
  <circle cx="515.393" cy="516.383" r="5.05167" stroke-width="0.5" stroke="black" fill="cyan"/>
   </g>
   <g id="cell51">
  <circle cx="394.131" cy="601.857" r="7.83019" stroke-width="0.5" stroke="black" fill="cyan"/>
  <circle cx="394.131" cy="601.857" r="4.75343" stroke-width="0.5" stroke="black" fill="cyan"/>
   </g>
   <g id="cell120">
  <circle cx="418.997" cy="610.482" r="8.11327" stroke-width="0.5" stroke="black" fill="cyan"/>
  <circle cx="418.997" cy="610.482" r="4.91006" stroke-width="0.5" stroke="black" fill="cyan"/>
   </g>
   <g id="cell53">
  <circle cx="571.281" cy="436.007" r="8.41271" stroke-width="0.5" stroke="black" fill="cyan"/>
  <circle cx="571.281" cy="436.007" r="5.05167" stroke-width="0.5" stroke="black" fill="cyan"/>
   </g>
   <g id="cell54">
  <circle cx="476.798" cy="425.384" r="8.41271" stroke-width="0.5" stroke="black" fill="cyan"/>
  <circle cx="476.798" cy="425.384" r="5.05167" stroke-width="0.5" stroke="black" fill="cyan"/>
   </g>
   <g id="cell55">
  <circle cx="525.505" cy="471.233" r="8.41271" stroke-width="0.5" stroke="black" fill="cyan"/>
  <circle cx="525.505" cy="471.233" r="5.05167" stroke-width="0.5" stroke="black" fill="cyan"/>
   </g>
   <g id="cell56">
  <circle cx="615.793" cy="522.539" r="8.41271" stroke-width="0.5" stroke="black" fill="cyan"/>
  <circle cx="615.793" cy="522.539" r="5.05167" stroke-width="0.5" stroke="black" fill="cyan"/>
   </g>
   <g id="cell57">
  <circle cx="418.525" cy="625.868" r="8.11327" stroke-width="0.5" stroke="black" fill="cyan"/>
  <circle cx="418.525" cy="625.868" r="4.91006" stroke-width="0.5" stroke="black" fill="cyan"/>
   </g>
   <g id="cell58">
  <circle cx="551.728" cy="483.885" r="8.41271" stroke-width="0.5" stroke="black" fill="cyan"/>
  <circle cx="551.728" cy="483.885" r="5.05167" stroke-width="0.5" stroke="black" fill="cyan"/>
   </g>
   <g id="cell59">
  <circle cx="385.163" cy="439.184" r="8.41271" stroke-width="0.5" stroke="black" fill="cyan"/>
  <circle cx="385.163" cy="439.184" r="5.05167" stroke-width="0.5" stroke="black" fill="cyan"/>
   </g>
   <g id="cell60">
  <circle cx="590.814" cy="473.203" r="8.04604" stroke-width="0.5" stroke="black" fill="cyan"/>
  <circle cx="590.814" cy="473.203" r="4.87399" stroke-width="0.5" stroke="black" fill="cyan"/>
   </g>
   <g id="cell61">
  <circle cx="554.623" cy="614.976" r="2.22333" stroke-width="0.5" stroke="black" fill="cyan"/>
  <circle cx="554.623" cy="614.976" r="2.05083" stroke-width="0.5" stroke="black" fill="black"/>
   </g>
   <g id="cell62">
  <circle cx="526.533" cy="445.187" r="8.41271" stroke-width="0.5" stroke="black" fill="cyan"/>
  <circle cx="526.533" cy="445.187" r="5.05167" stroke-width="0.5" stroke="black" fill="cyan"/>
   </g>
   <g id="cell63">
  <circle cx="582.895" cy="552.563" r="8.38373" stroke-width="0.5" stroke="black" fill="cyan"/>
  <circle cx="582.895" cy="552.563" r="5.04136" stroke-width="0.5" stroke="black" fill="cyan"/>
   </g>
   <g id="cell64">
  <circle cx="513.726" cy="633.759" r="8.01277" stroke-width="0.5" stroke="black" fill="cyan"/>
  <circle cx="513.726" cy="633.759" r="4.85584" stroke-width="0.5" stroke="black" fill="cyan"/>
   </g>
   <g id="cell65">
  <circle cx="535.107" cy="458.499" r="8.38206" stroke-width="0.5" stroke="black" fill="cyan"/>
  <circle cx="535.107" cy="458.499" r="5.04069" stroke-width="0.5" stroke="black" fill="cyan"/>
   </g>
   <g id="cell66">
  <circle cx="544.376" cy="528.02" r="8.13008" stroke-width="0.5" stroke="black" fill="cyan"/>
  <circle cx="544.376" cy="528.02" r="4.91894" stroke-width="0.5" stroke="black" fill="cyan"/>
   </g>
   <g id="cell67">
  <circle cx="354.706" cy="492.646" r="8.41271" stroke-width="0.5" stroke="black" fill="cyan"/>
  <circle cx="354.706" cy="492.646" r="5.05167" stroke-width="0.5" stroke="black" fill="cyan"/>
   </g>
   <g id="cell68">
  <circle cx="559.602" cy="556.169" r="8.41271" stroke-width="0.5" stroke="black" fill="cyan"/>
  <circle cx="559.602" cy="556.169" r="5.05167" stroke-width="0.5" stroke="black" fill="cyan"/>
   </g>
   <g id="cell69">
  <circle cx="436.954" cy="450.863" r="8.40715" stroke-width="0.5" stroke="black" fill="cyan"/>
  <circle cx="436.954" cy="450.863" r="5.05003" stroke-width="0.5" stroke="black" fill="cyan"/>
   </g>
   <g id="cell70">
  <circle cx="578.028" cy="478.761" r="7.24243" stroke-width="0.5" stroke="black" fill="cyan"/>
  <circle cx="578.028" cy="478.761" r="4.39934" stroke-width="0.5" stroke="black" fill="cyan"/>
   </g>
   <g id="cell71">
  <circle cx="382.596" cy="527.174" r="7.64082" stroke-width="0.5" stroke="black" fill="cyan"/>
  <circle cx="382.596" cy="527.174" r="4.66369" stroke-width="0.5" stroke="black" fill="cyan"/>
   </g>
   <g id="cell72">
  <circle cx="534.602" cy="509.072" r="8.41271" stroke-width="0.5" stroke="black" fill="cyan"/>
  <circle cx="534.602" cy="509.072" r="5.05167" stroke-width="0.5" stroke="black" fill="cyan"/>
   </g>
   <g id="cell129">
  <circle cx="421.439" cy="402.083" r="7.7401" stroke-width="0.5" stroke="black" fill="green"/>
  <circle cx="421.439" cy="402.083" r="4.70142" stroke-width="0.5" stroke="black" fill="green"/>
   </g>
   <g id="cell74">
  <circle cx="542.601" cy="444.412" r="8.41271" stroke-width="0.5" stroke="black" fill="cyan"/>
  <circle cx="542.601" cy="444.412" r="5.05167" stroke-width="0.5" stroke="black" fill="cyan"/>
   </g>
   <g id="cell75">
  <circle cx="443.341" cy="473.71" r="7.96055" stroke-width="0.5" stroke="black" fill="cyan"/>
  <circle cx="443.341" cy="473.71" r="4.82778" stroke-width="0.5" stroke="black" fill="cyan"/>
   </g>
   <g id="cell76">
  <circle cx="522.556" cy="384.578" r="8.37552" stroke-width="0.5" stroke="black" fill="magenta"/>
  <circle cx="522.556" cy="384.578" r="5.03836" stroke-width="0.5" stroke="black" fill="magenta"/>
   </g>
   <g id="cell77">
  <circle cx="488.301" cy="436.13" r="8.23634" stroke-width="0.5" stroke="black" fill="magenta"/>
  <circle cx="488.301" cy="436.13" r="4.97408" stroke-width="0.5" stroke="black" fill="magenta"/>
   </g>
   <g id="cell78">
  <circle cx="371.403" cy="465.567" r="8.40632" stroke-width="0.5" stroke="black" fill="magenta"/>
  <circle cx="371.403" cy="465.567" r="5.04976" stroke-width="0.5" stroke="black" fill="magenta"/>
   </g>
   <g id="cell79">
  <circle cx="501.831" cy="524.236" r="8.40596" stroke-width="0.5" stroke="black" fill="magenta"/>
  <circle cx="501.831" cy="524.236" r="5.04964" stroke-width="0.5" stroke="black" fill="magenta"/>
   </g>
   <g id="cell80">
  <circle cx="603.791" cy="486.444" r="8.40557" stroke-width="0.5" stroke="black" fill="green"/>
  <circle cx="603.791" cy="486.444" r="5.04951" stroke-width="0.5" stroke="black" fill="green"/>
   </g>
   <g id="cell81">
  <circle cx="429.948" cy="500.927" r="7.82804" stroke-width="0.5" stroke="black" fill="green"/>
  <circle cx="429.948" cy="500.927" r="4.76035" stroke-width="0.5" stroke="black" fill="green"/>
   </g>
   <g id="cell82">
  <circle cx="542.933" cy="496.106" r="8.40427" stroke-width="0.5" stroke="black" fill="magenta"/>
  <circle cx="542.933" cy="496.106" r="5.04906" stroke-width="0.5" stroke="black" fill="magenta"/>
   </g>
   <g id="cell130">
  <circle cx="573.678" cy="390.878" r="7.70049" stroke-width="0.5" stroke="black" fill="magenta"/>
  <circle cx="573.678" cy="390.878" r="4.67828" stroke-width="0.5" stroke="black" fill="magenta"/>
   </g>
   <g id="cell84">
  <circle cx="407.224" cy="481.03" r="8.25382" stroke-width="0.5" stroke="black" fill="green"/>
  <circle cx="407.224" cy="481.03" r="4.98345" stroke-width="0.5" stroke="black" fill="green"/>
   </g>
   <g id="cell85">
  <circle cx="405.579" cy="447.367" r="1.19431" stroke-width="0.5" stroke="black" fill="green"/>
  <circle cx="405.579" cy="447.367" r="1.18972" stroke-width="0.5" stroke="black" fill="black"/>
   </g>
   <g id="cell86">
  <circle cx="392.771" cy="565.298" r="8.26542" stroke-width="0.5" stroke="black" fill="magenta"/>
  <circle cx="392.771" cy="565.298" r="4.98917" stroke-width="0.5" stroke="black" fill="magenta"/>
   </g>
   <g id="cell87">
  <circle cx="437.083" cy="528.926" r="8.1577" stroke-width="0.5" stroke="black" fill="green"/>
  <circle cx="437.083" cy="528.926" r="4.9352" stroke-width="0.5" stroke="black" fill="green"/>
   </g>
   <g id="cell88">
  <circle cx="476.375" cy="611.475" r="8.3926" stroke-width="0.5" stroke="black" fill="green"/>
  <circle cx="476.375" cy="611.475" r="5.04482" stroke-width="0.5" stroke="black" fill="green"/>
   </g>
   <g id="cell89">
  <circle cx="436.552" cy="487.35" r="8.34318" stroke-width="0.5" stroke="black" fill="green"/>
  <circle cx="436.552" cy="487.35" r="5.02544" stroke-width="0.5" stroke="black" fill="green"/>
   </g>
   <g id="cell90">
  <circle cx="583.896" cy="502.783" r="8.39083" stroke-width="0.5" stroke="black" fill="magenta"/>
  <circle cx="583.896" cy="502.783" r="5.04414" stroke-width="0.5" stroke="black" fill="magenta"/>
   </g>
   <g id="cell136">
  <circle cx="527.336" cy="537.528" r="7.0545" stroke-width="0.5" stroke="black" fill="magenta"/>
  <circle cx="527.336" cy="537.528" r="4.27772" stroke-width="0.5" stroke="black" fill="magenta"/>
   </g>
   <g id="cell92">
  <circle cx="553.532" cy="592.656" r="8.24668" stroke-width="0.5" stroke="black" fill="green"/>
  <circle cx="553.532" cy="592.656" r="4.98272" stroke-width="0.5" stroke="black" fill="green"/>
   </g>
   <g id="cell93">
  <circle cx="573.808" cy="526.567" r="7.52708" stroke-width="0.5" stroke="black" fill="cyan"/>
  <circle cx="573.808" cy="526.567" r="4.58383" stroke-width="0.5" stroke="black" fill="cyan"/>
   </g>
   <g id="cell94">
  <circle cx="546.442" cy="469.318" r="8.38206" stroke-width="0.5" stroke="black" fill="cyan"/>
  <circle cx="546.442" cy="469.318" r="5.04069" stroke-width="0.5" stroke="black" fill="cyan"/>
   </g>
   <g id="cell95">
  <circle cx="462.658" cy="535.633" r="8.38206" stroke-width="0.5" stroke="black" fill="magenta"/>
  <circle cx="462.658" cy="535.633" r="5.04069" stroke-width="0.5" stroke="black" fill="magenta"/>
   </g>
   <g id="cell96">
  <circle cx="535.307" cy="376.531" r="8.37552" stroke-width="0.5" stroke="black" fill="magenta"/>
  <circle cx="535.307" cy="376.531" r="5.03836" stroke-width="0.5" stroke="black" fill="magenta"/>
   </g>
   <g id="cell97">
  <circle cx="569.687" cy="507.366" r="8.37005" stroke-width="0.5" stroke="black" fill="magenta"/>
  <circle cx="569.687" cy="507.366" r="5.03622" stroke-width="0.5" stroke="black" fill="magenta"/>
   </g>
   <g id="cell98">
  <circle cx="408.002" cy="567.266" r="8.3632" stroke-width="0.5" stroke="black" fill="green"/>
  <circle cx="408.002" cy="567.266" r="5.03288" stroke-width="0.5" stroke="black" fill="green"/>
   </g>
   <g id="cell99">
  <circle cx="572.904" cy="492.405" r="8.3632" stroke-width="0.5" stroke="black" fill="magenta"/>
  <circle cx="572.904" cy="492.405" r="5.03288" stroke-width="0.5" stroke="black" fill="magenta"/>
   </g>
   <g id="cell100">
  <circle cx="569.426" cy="543.782" r="8.34567" stroke-width="0.5" stroke="black" fill="cyan"/>
  <circle cx="569.426" cy="543.782" r="5.02643" stroke-width="0.5" stroke="black" fill="cyan"/>
   </g>
   <g id="cell101">
  <circle cx="462.19" cy="628.997" r="8.27233" stroke-width="0.5" stroke="black" fill="magenta"/>
  <circle cx="462.19" cy="628.997" r="4.99372" stroke-width="0.5" stroke="black" fill="magenta"/>
   </g>
   <g id="cell102">
  <circle cx="445.488" cy="500.41" r="8.34318" stroke-width="0.5" stroke="black" fill="green"/>
  <circle cx="445.488" cy="500.41" r="5.02544" stroke-width="0.5" stroke="black" fill="green"/>
   </g>
   <g id="cell103">
  <circle cx="542.532" cy="604.238" r="8.32846" stroke-width="0.5" stroke="black" fill="green"/>
  <circle cx="542.532" cy="604.238" r="5.01892" stroke-width="0.5" stroke="black" fill="green"/>
   </g>
   <g id="cell104">
  <circle cx="553.538" cy="541.24" r="8.33699" stroke-width="0.5" stroke="black" fill="green"/>
  <circle cx="553.538" cy="541.24" r="5.02141" stroke-width="0.5" stroke="black" fill="green"/>
   </g>
   <g id="cell105">
  <circle cx="416.403" cy="493.84" r="8.32381" stroke-width="0.5" stroke="black" fill="green"/>
  <circle cx="416.403" cy="493.84" r="5.01603" stroke-width="0.5" stroke="black" fill="green"/>
   </g>
   <g id="cell106">
  <circle cx="639.252" cy="537.124" r="8.32788" stroke-width="0.5" stroke="black" fill="green"/>
  <circle cx="639.252" cy="537.124" r="5.01729" stroke-width="0.5" stroke="black" fill="green"/>
   </g>
   <g id="cell107">
  <circle cx="383.946" cy="512.104" r="8.3031" stroke-width="0.5" stroke="black" fill="cyan"/>
  <circle cx="383.946" cy="512.104" r="5.00583" stroke-width="0.5" stroke="black" fill="cyan"/>
   </g>
   <g id="cell108">
  <circle cx="459.623" cy="643.632" r="8.27233" stroke-width="0.5" stroke="black" fill="magenta"/>
  <circle cx="459.623" cy="643.632" r="4.99372" stroke-width="0.5" stroke="black" fill="magenta"/>
   </g>
   <g id="cell109">
  <circle cx="448.195" cy="634.076" r="8.27233" stroke-width="0.5" stroke="black" fill="magenta"/>
  <circle cx="448.195" cy="634.076" r="4.99372" stroke-width="0.5" stroke="black" fill="magenta"/>
   </g>
   <g id="cell110">
  <circle cx="538.662" cy="589.164" r="8.24668" stroke-width="0.5" stroke="black" fill="green"/>
  <circle cx="538.662" cy="589.164" r="4.98272" stroke-width="0.5" stroke="black" fill="green"/>
   </g>
   <g id="cell111">
  <circle cx="634.094" cy="552.031" r="8.24638" stroke-width="0.5" stroke="black" fill="green"/>
  <circle cx="634.094" cy="552.031" r="4.9819" stroke-width="0.5" stroke="black" fill="green"/>
   </g>
   <g id="cell112">
  <circle cx="382.016" cy="575.575" r="8.26542" stroke-width="0.5" stroke="black" fill="magenta"/>
  <circle cx="382.016" cy="575.575" r="4.98917" stroke-width="0.5" stroke="black" fill="magenta"/>
   </g>
   <g id="cell113">
  <circle cx="422.902" cy="479.444" r="8.25382" stroke-width="0.5" stroke="black" fill="green"/>
  <circle cx="422.902" cy="479.444" r="4.98345" stroke-width="0.5" stroke="black" fill="green"/>
   </g>
   <g id="cell114">
  <circle cx="493.069" cy="449.287" r="7.41009" stroke-width="0.5" stroke="black" fill="magenta"/>
  <circle cx="493.069" cy="449.287" r="4.52153" stroke-width="0.5" stroke="black" fill="magenta"/>
   </g>
   <g id="cell115">
  <circle cx="452.035" cy="524.506" r="8.20816" stroke-width="0.5" stroke="black" fill="green"/>
  <circle cx="452.035" cy="524.506" r="4.96096" stroke-width="0.5" stroke="black" fill="green"/>
   </g>
   <g id="cell116">
  <circle cx="369.915" cy="518.859" r="8.14356" stroke-width="0.5" stroke="black" fill="cyan"/>
  <circle cx="369.915" cy="518.859" r="4.93155" stroke-width="0.5" stroke="black" fill="cyan"/>
   </g>
   <g id="cell117">
  <circle cx="437.614" cy="513.776" r="8.1577" stroke-width="0.5" stroke="black" fill="green"/>
  <circle cx="437.614" cy="513.776" r="4.9352" stroke-width="0.5" stroke="black" fill="green"/>
   </g>
   <g id="cell118">
  <circle cx="529.162" cy="523.754" r="8.13008" stroke-width="0.5" stroke="black" fill="cyan"/>
  <circle cx="529.162" cy="523.754" r="4.91894" stroke-width="0.5" stroke="black" fill="cyan"/>
   </g>
   <g id="cell119">
  <circle cx="526.32" cy="625.059" r="8.1218" stroke-width="0.5" stroke="black" fill="green"/>
  <circle cx="526.32" cy="625.059" r="4.91457" stroke-width="0.5" stroke="black" fill="green"/>
   </g>
   <g id="cell121">
  <circle cx="388.883" cy="551.161" r="8.06652" stroke-width="0.5" stroke="black" fill="magenta"/>
  <circle cx="388.883" cy="551.161" r="4.887" stroke-width="0.5" stroke="black" fill="magenta"/>
   </g>
   <g id="cell122">
  <circle cx="605.555" cy="470.726" r="8.04604" stroke-width="0.5" stroke="black" fill="cyan"/>
  <circle cx="605.555" cy="470.726" r="4.87399" stroke-width="0.5" stroke="black" fill="cyan"/>
   </g>
   <g id="cell123">
  <circle cx="501.867" cy="643.271" r="8.01277" stroke-width="0.5" stroke="black" fill="cyan"/>
  <circle cx="501.867" cy="643.271" r="4.85584" stroke-width="0.5" stroke="black" fill="cyan"/>
   </g>
   <g id="cell124">
  <circle cx="385.004" cy="590.119" r="8.00101" stroke-width="0.5" stroke="black" fill="green"/>
  <circle cx="385.004" cy="590.119" r="4.84939" stroke-width="0.5" stroke="black" fill="green"/>
   </g>
   <g id="cell125">
  <circle cx="449.476" cy="460.07" r="7.96055" stroke-width="0.5" stroke="black" fill="cyan"/>
  <circle cx="449.476" cy="460.07" r="4.82778" stroke-width="0.5" stroke="black" fill="cyan"/>
   </g>
   <g id="cell126">
  <circle cx="417.679" cy="509.202" r="7.82804" stroke-width="0.5" stroke="black" fill="green"/>
  <circle cx="417.679" cy="509.202" r="4.76035" stroke-width="0.5" stroke="black" fill="green"/>
   </g>
   <g id="cell127">
  <circle cx="408.724" cy="599.425" r="7.83019" stroke-width="0.5" stroke="black" fill="cyan"/>
  <circle cx="408.724" cy="599.425" r="4.75343" stroke-width="0.5" stroke="black" fill="cyan"/>
   </g>
   <g id="cell128">
  <circle cx="369.63" cy="533.656" r="7.64082" stroke-width="0.5" stroke="black" fill="cyan"/>
  <circle cx="369.63" cy="533.656" r="4.66369" stroke-width="0.5" stroke="black" fill="cyan"/>
   </g>
   <g id="cell131">
  <circle cx="583.078" cy="537.462" r="7.52708" stroke-width="0.5" stroke="black" fill="cyan"/>
  <circle cx="583.078" cy="537.462" r="4.58383" stroke-width="0.5" stroke="black" fill="cyan"/>
   </g>
   <g id="cell132">
  <circle cx="502.537" cy="440.069" r="7.41009" stroke-width="0.5" stroke="black" fill="magenta"/>
  <circle cx="502.537" cy="440.069" r="4.52153" stroke-width="0.5" stroke="black" fill="magenta"/>
   </g>
   <g id="cell133">
  <circle cx="531.861" cy="408.826" r="7.44242" stroke-width="0.5" stroke="black" fill="magenta"/>
  <circle cx="531.861" cy="408.826" r="4.52373" stroke-width="0.5" stroke="black" fill="magenta"/>
   </g>
   <g id="cell134">
  <circle cx="515.992" cy="588.154" r="5.8864" stroke-width="0.5" stroke="black" fill="magenta"/>
  <circle cx="515.992" cy="588.154" r="3.5815" stroke-width="0.5" stroke="black" fill="magenta"/>
   </g>
   <g id="cell135">
  <circle cx="565.149" cy="479.889" r="7.24243" stroke-width="0.5" stroke="black" fill="cyan"/>
  <circle cx="565.149" cy="479.889" r="4.39934" stroke-width="0.5" stroke="black" fill="cyan"/>
   </g>
   <g id="cell137">
  <circle cx="378.676" cy="477.103" r="6.86172" stroke-width="0.5" stroke="black" fill="magenta"/>
  <circle cx="378.676" cy="477.103" r="4.14734" stroke-width="0.5" stroke="black" fill="magenta"/>
   </g>
   <g id="cell138">
  <circle cx="526.168" cy="587.478" r="5.8864" stroke-width="0.5" stroke="black" fill="magenta"/>
  <circle cx="526.168" cy="587.478" r="3.5815" stroke-width="0.5" stroke="black" fill="magenta"/>
   </g>
  </g>
 </g>
  <rect x="775" y="1035" width="200" height="10" stroke-width="2" stroke="rgb(255,255,255)" fill="rgb(0,0,0)"/>
  <text x="781.25" y="1028.75"
   font-family="Arial" font-size="25" fill="black" >
   200 &#956;m
  </text>
  <text x="25" y="1045"
   font-family="Arial" font-size="18.75" fill="black" >
   0 days, 0 hours, 0 minutes, and 28.0439 seconds
  </text>
  <rect x="0" y="70" width="1000" height="1000" stroke-width="2" stroke="rgb(0,0,0)" fill="none"/>
</svg>
