<?xml version="1.0" encoding="UTF-8" standalone="no"?>
<!-- Created with PhysiCell (http://PhysiCell.MathCancer.org/) -->
<svg 
 xmlns:dc="http://purl.org/dc/elements/1.1/" 
 xmlns:cc="http://creativecommons.org/ns#" 
 xmlns:rdf="http://www.w3.org/1999/02/22-rdf-syntax-ns#" 
 xmlns:svg="http://www.w3.org/2000/svg" 
 xmlns="http://www.w3.org/2000/svg" 
 version="1.1" 
 width="1000" 
 height="1070" 
 id="svg2">
  <rect x="0" y="0" width="1000" height="1070" stroke-width="2" stroke="white" fill="white"/>
  <text x="12.5" y="30"
   font-family="Arial" font-size="25" fill="black" >
   Current time: 1 days, 7 hours, and 30.00 minutes, z = 0.00 &#956;m
  </text>
  <text x="12.5" y="57.5"
   font-family="Arial" font-size="23.75" fill="black" >
   170 agents
  </text>
 <g id="tissue" 
    transform="translate(0,1070) scale(1,-1)">
  <g id="ECM">
  </g>
  <g id="cells">
   <g id="cell0">
  <circle cx="511.541" cy="532.834" r="8.41234" stroke-width="0.5" stroke="black" fill="magenta"/>
  <circle cx="511.541" cy="532.834" r="5.05159" stroke-width="0.5" stroke="black" fill="magenta"/>
   </g>
   <g id="cell147">
  <circle cx="421.994" cy="573.864" r="8.21702" stroke-width="0.5" stroke="black" fill="green"/>
  <circle cx="421.994" cy="573.864" r="4.9641" stroke-width="0.5" stroke="black" fill="green"/>
   </g>
   <g id="cell2">
  <circle cx="505.656" cy="593.797" r="8.36032" stroke-width="0.5" stroke="black" fill="magenta"/>
  <circle cx="505.656" cy="593.797" r="5.03165" stroke-width="0.5" stroke="black" fill="magenta"/>
   </g>
   <g id="cell3">
  <circle cx="539.009" cy="545.031" r="8.34317" stroke-width="0.5" stroke="black" fill="magenta"/>
  <circle cx="539.009" cy="545.031" r="5.02416" stroke-width="0.5" stroke="black" fill="magenta"/>
   </g>
   <g id="cell4">
  <circle cx="459.105" cy="440.827" r="8.41238" stroke-width="0.5" stroke="black" fill="magenta"/>
  <circle cx="459.105" cy="440.827" r="5.0516" stroke-width="0.5" stroke="black" fill="magenta"/>
   </g>
   <g id="cell5">
  <circle cx="461.163" cy="497.982" r="8.24914" stroke-width="0.5" stroke="black" fill="magenta"/>
  <circle cx="461.163" cy="497.982" r="4.97981" stroke-width="0.5" stroke="black" fill="magenta"/>
   </g>
   <g id="cell6">
  <circle cx="596.261" cy="514.296" r="8.41154" stroke-width="0.5" stroke="black" fill="magenta"/>
  <circle cx="596.261" cy="514.296" r="5.05138" stroke-width="0.5" stroke="black" fill="magenta"/>
   </g>
   <g id="cell7">
  <circle cx="514.119" cy="464.061" r="8.41271" stroke-width="0.5" stroke="black" fill="magenta"/>
  <circle cx="514.119" cy="464.061" r="5.05167" stroke-width="0.5" stroke="black" fill="magenta"/>
   </g>
   <g id="cell8">
  <circle cx="365.775" cy="549.723" r="8.25826" stroke-width="0.5" stroke="black" fill="magenta"/>
  <circle cx="365.775" cy="549.723" r="4.98429" stroke-width="0.5" stroke="black" fill="magenta"/>
   </g>
   <g id="cell9">
  <circle cx="463" cy="601.823" r="8.41147" stroke-width="0.5" stroke="black" fill="magenta"/>
  <circle cx="463" cy="601.823" r="5.05136" stroke-width="0.5" stroke="black" fill="magenta"/>
   </g>
   <g id="cell10">
  <circle cx="588.077" cy="396.915" r="8.26067" stroke-width="0.5" stroke="black" fill="magenta"/>
  <circle cx="588.077" cy="396.915" r="4.98763" stroke-width="0.5" stroke="black" fill="magenta"/>
   </g>
   <g id="cell11">
  <circle cx="589.748" cy="590.273" r="8.41271" stroke-width="0.5" stroke="black" fill="magenta"/>
  <circle cx="589.748" cy="590.273" r="5.05167" stroke-width="0.5" stroke="black" fill="magenta"/>
   </g>
   <g id="cell12">
  <circle cx="497.16" cy="581.491" r="8.41271" stroke-width="0.5" stroke="black" fill="magenta"/>
  <circle cx="497.16" cy="581.491" r="5.05167" stroke-width="0.5" stroke="black" fill="magenta"/>
   </g>
   <g id="cell13">
  <circle cx="378.39" cy="558.38" r="8.39522" stroke-width="0.5" stroke="black" fill="magenta"/>
  <circle cx="378.39" cy="558.38" r="5.04587" stroke-width="0.5" stroke="black" fill="magenta"/>
   </g>
   <g id="cell14">
  <circle cx="526.988" cy="395.215" r="7.67182" stroke-width="0.5" stroke="black" fill="magenta"/>
  <circle cx="526.988" cy="395.215" r="4.66709" stroke-width="0.5" stroke="black" fill="magenta"/>
   </g>
   <g id="cell15">
  <circle cx="390.188" cy="488.26" r="7.91773" stroke-width="0.5" stroke="black" fill="magenta"/>
  <circle cx="390.188" cy="488.26" r="4.80994" stroke-width="0.5" stroke="black" fill="magenta"/>
   </g>
   <g id="cell16">
  <circle cx="431.303" cy="412.161" r="8.41271" stroke-width="0.5" stroke="black" fill="magenta"/>
  <circle cx="431.303" cy="412.161" r="5.05167" stroke-width="0.5" stroke="black" fill="magenta"/>
   </g>
   <g id="cell17">
  <circle cx="582.386" cy="484.025" r="8.41009" stroke-width="0.5" stroke="black" fill="magenta"/>
  <circle cx="582.386" cy="484.025" r="5.05096" stroke-width="0.5" stroke="black" fill="magenta"/>
   </g>
   <g id="cell18">
  <circle cx="512.393" cy="394.983" r="8.4124" stroke-width="0.5" stroke="black" fill="magenta"/>
  <circle cx="512.393" cy="394.983" r="5.0516" stroke-width="0.5" stroke="black" fill="magenta"/>
   </g>
   <g id="cell19">
  <circle cx="451.785" cy="541.542" r="8.41108" stroke-width="0.5" stroke="black" fill="magenta"/>
  <circle cx="451.785" cy="541.542" r="5.05125" stroke-width="0.5" stroke="black" fill="magenta"/>
   </g>
   <g id="cell20">
  <circle cx="526.005" cy="420.141" r="8.41271" stroke-width="0.5" stroke="black" fill="magenta"/>
  <circle cx="526.005" cy="420.141" r="5.05167" stroke-width="0.5" stroke="black" fill="magenta"/>
   </g>
   <g id="cell141">
  <circle cx="490.987" cy="441.509" r="6.24559" stroke-width="0.5" stroke="black" fill="magenta"/>
  <circle cx="490.987" cy="441.509" r="3.82675" stroke-width="0.5" stroke="black" fill="magenta"/>
   </g>
   <g id="cell22">
  <circle cx="560.018" cy="497.244" r="8.41044" stroke-width="0.5" stroke="black" fill="magenta"/>
  <circle cx="560.018" cy="497.244" r="5.05108" stroke-width="0.5" stroke="black" fill="magenta"/>
   </g>
   <g id="cell23">
  <circle cx="536.573" cy="484.327" r="8.41271" stroke-width="0.5" stroke="black" fill="magenta"/>
  <circle cx="536.573" cy="484.327" r="5.05167" stroke-width="0.5" stroke="black" fill="magenta"/>
   </g>
   <g id="cell24">
  <circle cx="562.458" cy="382.026" r="8.41271" stroke-width="0.5" stroke="black" fill="magenta"/>
  <circle cx="562.458" cy="382.026" r="5.05167" stroke-width="0.5" stroke="black" fill="magenta"/>
   </g>
   <g id="cell25">
  <circle cx="653.304" cy="564.243" r="8.09984" stroke-width="0.5" stroke="black" fill="green"/>
  <circle cx="653.304" cy="564.243" r="4.90398" stroke-width="0.5" stroke="black" fill="green"/>
   </g>
   <g id="cell26">
  <circle cx="548.832" cy="402.056" r="8.41271" stroke-width="0.5" stroke="black" fill="green"/>
  <circle cx="548.832" cy="402.056" r="5.05167" stroke-width="0.5" stroke="black" fill="green"/>
   </g>
   <g id="cell27">
  <circle cx="451.681" cy="389.568" r="7.72056" stroke-width="0.5" stroke="black" fill="green"/>
  <circle cx="451.681" cy="389.568" r="4.69003" stroke-width="0.5" stroke="black" fill="green"/>
   </g>
   <g id="cell28">
  <circle cx="439.015" cy="549.745" r="8.41271" stroke-width="0.5" stroke="black" fill="green"/>
  <circle cx="439.015" cy="549.745" r="5.05167" stroke-width="0.5" stroke="black" fill="green"/>
   </g>
   <g id="cell29">
  <circle cx="466.687" cy="519.451" r="8.4022" stroke-width="0.5" stroke="black" fill="green"/>
  <circle cx="466.687" cy="519.451" r="5.0484" stroke-width="0.5" stroke="black" fill="green"/>
   </g>
   <g id="cell30">
  <circle cx="479.872" cy="539.721" r="8.41271" stroke-width="0.5" stroke="black" fill="green"/>
  <circle cx="479.872" cy="539.721" r="5.05167" stroke-width="0.5" stroke="black" fill="green"/>
   </g>
   <g id="cell31">
  <circle cx="414.038" cy="530.811" r="8.41271" stroke-width="0.5" stroke="black" fill="green"/>
  <circle cx="414.038" cy="530.811" r="5.05167" stroke-width="0.5" stroke="black" fill="green"/>
   </g>
   <g id="cell32">
  <circle cx="424.704" cy="456.621" r="7.93636" stroke-width="0.5" stroke="black" fill="green"/>
  <circle cx="424.704" cy="456.621" r="4.81368" stroke-width="0.5" stroke="black" fill="green"/>
   </g>
   <g id="cell33">
  <circle cx="498.353" cy="415.856" r="8.41192" stroke-width="0.5" stroke="black" fill="green"/>
  <circle cx="498.353" cy="415.856" r="5.05148" stroke-width="0.5" stroke="black" fill="green"/>
   </g>
   <g id="cell34">
  <circle cx="392.032" cy="453.898" r="8.41172" stroke-width="0.5" stroke="black" fill="green"/>
  <circle cx="392.032" cy="453.898" r="5.05142" stroke-width="0.5" stroke="black" fill="green"/>
   </g>
   <g id="cell35">
  <circle cx="546.892" cy="558.3" r="8.40873" stroke-width="0.5" stroke="black" fill="green"/>
  <circle cx="546.892" cy="558.3" r="5.05054" stroke-width="0.5" stroke="black" fill="green"/>
   </g>
   <g id="cell36">
  <circle cx="393.667" cy="580.701" r="8.39203" stroke-width="0.5" stroke="black" fill="green"/>
  <circle cx="393.667" cy="580.701" r="5.0446" stroke-width="0.5" stroke="black" fill="green"/>
   </g>
   <g id="cell174">
  <circle cx="478.171" cy="617.366" r="7.41479" stroke-width="0.5" stroke="black" fill="green"/>
  <circle cx="478.171" cy="617.366" r="4.50703" stroke-width="0.5" stroke="black" fill="green"/>
   </g>
   <g id="cell38">
  <circle cx="526.578" cy="605.602" r="8.41116" stroke-width="0.5" stroke="black" fill="green"/>
  <circle cx="526.578" cy="605.602" r="5.05127" stroke-width="0.5" stroke="black" fill="green"/>
   </g>
   <g id="cell39">
  <circle cx="617.729" cy="498.256" r="7.59159" stroke-width="0.5" stroke="black" fill="green"/>
  <circle cx="617.729" cy="498.256" r="4.61393" stroke-width="0.5" stroke="black" fill="green"/>
   </g>
   <g id="cell40">
  <circle cx="485.211" cy="571.601" r="8.41271" stroke-width="0.5" stroke="black" fill="green"/>
  <circle cx="485.211" cy="571.601" r="5.05167" stroke-width="0.5" stroke="black" fill="green"/>
   </g>
   <g id="cell41">
  <circle cx="363.633" cy="479.633" r="8.41271" stroke-width="0.5" stroke="black" fill="green"/>
  <circle cx="363.633" cy="479.633" r="5.05167" stroke-width="0.5" stroke="black" fill="green"/>
   </g>
   <g id="cell176">
  <circle cx="470.748" cy="447.41" r="6.47086" stroke-width="0.5" stroke="black" fill="magenta"/>
  <circle cx="470.748" cy="447.41" r="3.97415" stroke-width="0.5" stroke="black" fill="magenta"/>
   </g>
   <g id="cell43">
  <circle cx="558.191" cy="445.615" r="8.41271" stroke-width="0.5" stroke="black" fill="green"/>
  <circle cx="558.191" cy="445.615" r="5.05167" stroke-width="0.5" stroke="black" fill="green"/>
   </g>
   <g id="cell44">
  <circle cx="487.332" cy="628.817" r="8.13755" stroke-width="0.5" stroke="black" fill="green"/>
  <circle cx="487.332" cy="628.817" r="4.92302" stroke-width="0.5" stroke="black" fill="green"/>
   </g>
   <g id="cell45">
  <circle cx="430.43" cy="561.601" r="7.33704" stroke-width="0.5" stroke="black" fill="green"/>
  <circle cx="430.43" cy="561.601" r="4.50118" stroke-width="0.5" stroke="black" fill="green"/>
   </g>
   <g id="cell46">
  <circle cx="521.128" cy="620.446" r="8.29861" stroke-width="0.5" stroke="black" fill="green"/>
  <circle cx="521.128" cy="620.446" r="5.00476" stroke-width="0.5" stroke="black" fill="green"/>
   </g>
   <g id="cell47">
  <circle cx="494.06" cy="509.567" r="8.41271" stroke-width="0.5" stroke="black" fill="green"/>
  <circle cx="494.06" cy="509.567" r="5.05167" stroke-width="0.5" stroke="black" fill="green"/>
   </g>
   <g id="cell48">
  <circle cx="564.824" cy="604.049" r="8.41271" stroke-width="0.5" stroke="black" fill="green"/>
  <circle cx="564.824" cy="604.049" r="5.05167" stroke-width="0.5" stroke="black" fill="green"/>
   </g>
   <g id="cell49">
  <circle cx="434.827" cy="396.988" r="8.37935" stroke-width="0.5" stroke="black" fill="green"/>
  <circle cx="434.827" cy="396.988" r="5.0396" stroke-width="0.5" stroke="black" fill="green"/>
   </g>
   <g id="cell50">
  <circle cx="508.387" cy="505.268" r="7.26359" stroke-width="0.5" stroke="black" fill="cyan"/>
  <circle cx="508.387" cy="505.268" r="4.43864" stroke-width="0.5" stroke="black" fill="cyan"/>
   </g>
   <g id="cell51">
  <circle cx="385.178" cy="604.19" r="8.17306" stroke-width="0.5" stroke="black" fill="cyan"/>
  <circle cx="385.178" cy="604.19" r="4.94371" stroke-width="0.5" stroke="black" fill="cyan"/>
   </g>
   <g id="cell120">
  <circle cx="419.607" cy="610.617" r="8.39752" stroke-width="0.5" stroke="black" fill="cyan"/>
  <circle cx="419.607" cy="610.617" r="5.04666" stroke-width="0.5" stroke="black" fill="cyan"/>
   </g>
   <g id="cell53">
  <circle cx="571.11" cy="436.134" r="8.41271" stroke-width="0.5" stroke="black" fill="cyan"/>
  <circle cx="571.11" cy="436.134" r="5.05167" stroke-width="0.5" stroke="black" fill="cyan"/>
   </g>
   <g id="cell54">
  <circle cx="482.909" cy="428.448" r="8.21839" stroke-width="0.5" stroke="black" fill="cyan"/>
  <circle cx="482.909" cy="428.448" r="4.96448" stroke-width="0.5" stroke="black" fill="cyan"/>
   </g>
   <g id="cell55">
  <circle cx="522.289" cy="477.718" r="8.41271" stroke-width="0.5" stroke="black" fill="cyan"/>
  <circle cx="522.289" cy="477.718" r="5.05167" stroke-width="0.5" stroke="black" fill="cyan"/>
   </g>
   <g id="cell56">
  <circle cx="615.478" cy="522.396" r="8.41271" stroke-width="0.5" stroke="black" fill="cyan"/>
  <circle cx="615.478" cy="522.396" r="5.05167" stroke-width="0.5" stroke="black" fill="cyan"/>
   </g>
   <g id="cell57">
  <circle cx="418.486" cy="626.572" r="8.39752" stroke-width="0.5" stroke="black" fill="cyan"/>
  <circle cx="418.486" cy="626.572" r="5.04666" stroke-width="0.5" stroke="black" fill="cyan"/>
   </g>
   <g id="cell58">
  <circle cx="552.059" cy="483.687" r="8.41271" stroke-width="0.5" stroke="black" fill="cyan"/>
  <circle cx="552.059" cy="483.687" r="5.05167" stroke-width="0.5" stroke="black" fill="cyan"/>
   </g>
   <g id="cell59">
  <circle cx="385.238" cy="439.342" r="8.41271" stroke-width="0.5" stroke="black" fill="cyan"/>
  <circle cx="385.238" cy="439.342" r="5.05167" stroke-width="0.5" stroke="black" fill="cyan"/>
   </g>
   <g id="cell60">
  <circle cx="593.265" cy="472.99" r="8.39422" stroke-width="0.5" stroke="black" fill="cyan"/>
  <circle cx="593.265" cy="472.99" r="5.04543" stroke-width="0.5" stroke="black" fill="cyan"/>
   </g>
   <g id="cell155">
  <circle cx="520.053" cy="592.165" r="7.95229" stroke-width="0.5" stroke="black" fill="magenta"/>
  <circle cx="520.053" cy="592.165" r="4.8348" stroke-width="0.5" stroke="black" fill="magenta"/>
   </g>
   <g id="cell62">
  <circle cx="525.731" cy="435.428" r="8.41271" stroke-width="0.5" stroke="black" fill="cyan"/>
  <circle cx="525.731" cy="435.428" r="5.05167" stroke-width="0.5" stroke="black" fill="cyan"/>
   </g>
   <g id="cell63">
  <circle cx="581.644" cy="551.328" r="8.41116" stroke-width="0.5" stroke="black" fill="cyan"/>
  <circle cx="581.644" cy="551.328" r="5.05127" stroke-width="0.5" stroke="black" fill="cyan"/>
   </g>
   <g id="cell64">
  <circle cx="511.781" cy="633.218" r="8.3926" stroke-width="0.5" stroke="black" fill="cyan"/>
  <circle cx="511.781" cy="633.218" r="5.04482" stroke-width="0.5" stroke="black" fill="cyan"/>
   </g>
   <g id="cell65">
  <circle cx="530.741" cy="449.676" r="7.84581" stroke-width="0.5" stroke="black" fill="cyan"/>
  <circle cx="530.741" cy="449.676" r="4.76264" stroke-width="0.5" stroke="black" fill="cyan"/>
   </g>
   <g id="cell66">
  <circle cx="550.49" cy="524.779" r="8.39834" stroke-width="0.5" stroke="black" fill="cyan"/>
  <circle cx="550.49" cy="524.779" r="5.04696" stroke-width="0.5" stroke="black" fill="cyan"/>
   </g>
   <g id="cell67">
  <circle cx="354.577" cy="492.857" r="8.41271" stroke-width="0.5" stroke="black" fill="cyan"/>
  <circle cx="354.577" cy="492.857" r="5.05167" stroke-width="0.5" stroke="black" fill="cyan"/>
   </g>
   <g id="cell68">
  <circle cx="562.391" cy="554.45" r="8.41271" stroke-width="0.5" stroke="black" fill="cyan"/>
  <circle cx="562.391" cy="554.45" r="5.05167" stroke-width="0.5" stroke="black" fill="cyan"/>
   </g>
   <g id="cell69">
  <circle cx="436.978" cy="446.685" r="8.41241" stroke-width="0.5" stroke="black" fill="cyan"/>
  <circle cx="436.978" cy="446.685" r="5.0516" stroke-width="0.5" stroke="black" fill="cyan"/>
   </g>
   <g id="cell70">
  <circle cx="577.037" cy="470.114" r="8.35404" stroke-width="0.5" stroke="black" fill="cyan"/>
  <circle cx="577.037" cy="470.114" r="5.02894" stroke-width="0.5" stroke="black" fill="cyan"/>
   </g>
   <g id="cell71">
  <circle cx="381.231" cy="528.45" r="8.0752" stroke-width="0.5" stroke="black" fill="cyan"/>
  <circle cx="381.231" cy="528.45" r="4.89337" stroke-width="0.5" stroke="black" fill="cyan"/>
   </g>
   <g id="cell72">
  <circle cx="539.902" cy="512.318" r="8.41271" stroke-width="0.5" stroke="black" fill="cyan"/>
  <circle cx="539.902" cy="512.318" r="5.05167" stroke-width="0.5" stroke="black" fill="cyan"/>
   </g>
   <g id="cell129">
  <circle cx="419.612" cy="401.889" r="8.37935" stroke-width="0.5" stroke="black" fill="green"/>
  <circle cx="419.612" cy="401.889" r="5.0396" stroke-width="0.5" stroke="black" fill="green"/>
   </g>
   <g id="cell74">
  <circle cx="542.705" cy="442.806" r="3.45715" stroke-width="0.5" stroke="black" fill="cyan"/>
  <circle cx="542.705" cy="442.806" r="2.66266" stroke-width="0.5" stroke="black" fill="black"/>
   </g>
   <g id="cell75">
  <circle cx="446.818" cy="476.269" r="6.26923" stroke-width="0.5" stroke="black" fill="cyan"/>
  <circle cx="446.818" cy="476.269" r="3.81892" stroke-width="0.5" stroke="black" fill="cyan"/>
   </g>
   <g id="cell76">
  <circle cx="520.56" cy="382.325" r="8.41073" stroke-width="0.5" stroke="black" fill="magenta"/>
  <circle cx="520.56" cy="382.325" r="5.05116" stroke-width="0.5" stroke="black" fill="magenta"/>
   </g>
   <g id="cell77">
  <circle cx="498.142" cy="431.134" r="8.27794" stroke-width="0.5" stroke="black" fill="magenta"/>
  <circle cx="498.142" cy="431.134" r="4.99464" stroke-width="0.5" stroke="black" fill="magenta"/>
   </g>
   <g id="cell78">
  <circle cx="371.298" cy="466.011" r="8.41236" stroke-width="0.5" stroke="black" fill="magenta"/>
  <circle cx="371.298" cy="466.011" r="5.05159" stroke-width="0.5" stroke="black" fill="magenta"/>
   </g>
   <g id="cell79">
  <circle cx="498.893" cy="524.426" r="8.41234" stroke-width="0.5" stroke="black" fill="magenta"/>
  <circle cx="498.893" cy="524.426" r="5.05159" stroke-width="0.5" stroke="black" fill="magenta"/>
   </g>
   <g id="cell80">
  <circle cx="600.549" cy="486.437" r="7.72033" stroke-width="0.5" stroke="black" fill="green"/>
  <circle cx="600.549" cy="486.437" r="4.68997" stroke-width="0.5" stroke="black" fill="green"/>
   </g>
   <g id="cell81">
  <circle cx="429.643" cy="504.72" r="8.38373" stroke-width="0.5" stroke="black" fill="green"/>
  <circle cx="429.643" cy="504.72" r="5.04162" stroke-width="0.5" stroke="black" fill="green"/>
   </g>
   <g id="cell82">
  <circle cx="544.662" cy="497.315" r="8.41225" stroke-width="0.5" stroke="black" fill="magenta"/>
  <circle cx="544.662" cy="497.315" r="5.05156" stroke-width="0.5" stroke="black" fill="magenta"/>
   </g>
   <g id="cell130">
  <circle cx="574.052" cy="391.689" r="8.37742" stroke-width="0.5" stroke="black" fill="magenta"/>
  <circle cx="574.052" cy="391.689" r="5.03881" stroke-width="0.5" stroke="black" fill="magenta"/>
   </g>
   <g id="cell84">
  <circle cx="404.577" cy="484.057" r="8.40449" stroke-width="0.5" stroke="black" fill="green"/>
  <circle cx="404.577" cy="484.057" r="5.04918" stroke-width="0.5" stroke="black" fill="green"/>
   </g>
   <g id="cell140">
  <circle cx="527.233" cy="579.461" r="8.23964" stroke-width="0.5" stroke="black" fill="magenta"/>
  <circle cx="527.233" cy="579.461" r="4.98001" stroke-width="0.5" stroke="black" fill="magenta"/>
   </g>
   <g id="cell86">
  <circle cx="391.878" cy="565.436" r="8.40507" stroke-width="0.5" stroke="black" fill="magenta"/>
  <circle cx="391.878" cy="565.436" r="5.04938" stroke-width="0.5" stroke="black" fill="magenta"/>
   </g>
   <g id="cell87">
  <circle cx="432.446" cy="519.885" r="8.14661" stroke-width="0.5" stroke="black" fill="green"/>
  <circle cx="432.446" cy="519.885" r="4.92897" stroke-width="0.5" stroke="black" fill="green"/>
   </g>
   <g id="cell88">
  <circle cx="477.562" cy="603.307" r="7.41479" stroke-width="0.5" stroke="black" fill="green"/>
  <circle cx="477.562" cy="603.307" r="4.50703" stroke-width="0.5" stroke="black" fill="green"/>
   </g>
   <g id="cell89">
  <circle cx="432.979" cy="489.654" r="8.40904" stroke-width="0.5" stroke="black" fill="green"/>
  <circle cx="432.979" cy="489.654" r="5.05067" stroke-width="0.5" stroke="black" fill="green"/>
   </g>
   <g id="cell90">
  <circle cx="580.835" cy="512.703" r="8.08549" stroke-width="0.5" stroke="black" fill="magenta"/>
  <circle cx="580.835" cy="512.703" r="4.89543" stroke-width="0.5" stroke="black" fill="magenta"/>
   </g>
   <g id="cell136">
  <circle cx="525.051" cy="539.548" r="8.34317" stroke-width="0.5" stroke="black" fill="magenta"/>
  <circle cx="525.051" cy="539.548" r="5.02416" stroke-width="0.5" stroke="black" fill="magenta"/>
   </g>
   <g id="cell92">
  <circle cx="551.998" cy="593.808" r="8.4041" stroke-width="0.5" stroke="black" fill="green"/>
  <circle cx="551.998" cy="593.808" r="5.04914" stroke-width="0.5" stroke="black" fill="green"/>
   </g>
   <g id="cell93">
  <circle cx="573.174" cy="525.132" r="8.36913" stroke-width="0.5" stroke="black" fill="cyan"/>
  <circle cx="573.174" cy="525.132" r="5.03564" stroke-width="0.5" stroke="black" fill="cyan"/>
   </g>
   <g id="cell94">
  <circle cx="543.475" cy="470.258" r="8.41108" stroke-width="0.5" stroke="black" fill="cyan"/>
  <circle cx="543.475" cy="470.258" r="5.05125" stroke-width="0.5" stroke="black" fill="cyan"/>
   </g>
   <g id="cell95">
  <circle cx="465.127" cy="534.851" r="8.41108" stroke-width="0.5" stroke="black" fill="magenta"/>
  <circle cx="465.127" cy="534.851" r="5.05125" stroke-width="0.5" stroke="black" fill="magenta"/>
   </g>
   <g id="cell96">
  <circle cx="534.931" cy="377.911" r="8.41073" stroke-width="0.5" stroke="black" fill="magenta"/>
  <circle cx="534.931" cy="377.911" r="5.05116" stroke-width="0.5" stroke="black" fill="magenta"/>
   </g>
   <g id="cell97">
  <circle cx="566.462" cy="510.711" r="8.41044" stroke-width="0.5" stroke="black" fill="magenta"/>
  <circle cx="566.462" cy="510.711" r="5.05108" stroke-width="0.5" stroke="black" fill="magenta"/>
   </g>
   <g id="cell98">
  <circle cx="406.445" cy="571.434" r="8.21702" stroke-width="0.5" stroke="black" fill="green"/>
  <circle cx="406.445" cy="571.434" r="4.9641" stroke-width="0.5" stroke="black" fill="green"/>
   </g>
   <g id="cell99">
  <circle cx="575.971" cy="498.191" r="8.41009" stroke-width="0.5" stroke="black" fill="magenta"/>
  <circle cx="575.971" cy="498.191" r="5.05096" stroke-width="0.5" stroke="black" fill="magenta"/>
   </g>
   <g id="cell100">
  <circle cx="569.936" cy="540.448" r="8.40917" stroke-width="0.5" stroke="black" fill="cyan"/>
  <circle cx="569.936" cy="540.448" r="5.05071" stroke-width="0.5" stroke="black" fill="cyan"/>
   </g>
   <g id="cell101">
  <circle cx="456.863" cy="627.161" r="8.40541" stroke-width="0.5" stroke="black" fill="magenta"/>
  <circle cx="456.863" cy="627.161" r="5.04953" stroke-width="0.5" stroke="black" fill="magenta"/>
   </g>
   <g id="cell102">
  <circle cx="445.872" cy="501.346" r="8.40904" stroke-width="0.5" stroke="black" fill="green"/>
  <circle cx="445.872" cy="501.346" r="5.05067" stroke-width="0.5" stroke="black" fill="green"/>
   </g>
   <g id="cell103">
  <circle cx="549.973" cy="615.141" r="7.43959" stroke-width="0.5" stroke="black" fill="green"/>
  <circle cx="549.973" cy="615.141" r="4.52287" stroke-width="0.5" stroke="black" fill="green"/>
   </g>
   <g id="cell104">
  <circle cx="553.929" cy="540.714" r="8.40873" stroke-width="0.5" stroke="black" fill="green"/>
  <circle cx="553.929" cy="540.714" r="5.05054" stroke-width="0.5" stroke="black" fill="green"/>
   </g>
   <g id="cell105">
  <circle cx="415.877" cy="496.025" r="8.40805" stroke-width="0.5" stroke="black" fill="green"/>
  <circle cx="415.877" cy="496.025" r="5.05034" stroke-width="0.5" stroke="black" fill="green"/>
   </g>
   <g id="cell106">
  <circle cx="645.817" cy="532.99" r="7.05134" stroke-width="0.5" stroke="black" fill="green"/>
  <circle cx="645.817" cy="532.99" r="4.27673" stroke-width="0.5" stroke="black" fill="green"/>
   </g>
   <g id="cell107">
  <circle cx="383.596" cy="513.109" r="8.407" stroke-width="0.5" stroke="black" fill="cyan"/>
  <circle cx="383.596" cy="513.109" r="5.04998" stroke-width="0.5" stroke="black" fill="cyan"/>
   </g>
   <g id="cell108">
  <circle cx="460.13" cy="641.827" r="8.40541" stroke-width="0.5" stroke="black" fill="magenta"/>
  <circle cx="460.13" cy="641.827" r="5.04953" stroke-width="0.5" stroke="black" fill="magenta"/>
   </g>
   <g id="cell109">
  <circle cx="445.59" cy="637.238" r="8.40541" stroke-width="0.5" stroke="black" fill="magenta"/>
  <circle cx="445.59" cy="637.238" r="5.04953" stroke-width="0.5" stroke="black" fill="magenta"/>
   </g>
   <g id="cell110">
  <circle cx="542.99" cy="580.172" r="8.4041" stroke-width="0.5" stroke="black" fill="green"/>
  <circle cx="542.99" cy="580.172" r="5.04914" stroke-width="0.5" stroke="black" fill="green"/>
   </g>
   <g id="cell111">
  <circle cx="627.632" cy="553.38" r="8.4041" stroke-width="0.5" stroke="black" fill="green"/>
  <circle cx="627.632" cy="553.38" r="5.04912" stroke-width="0.5" stroke="black" fill="green"/>
   </g>
   <g id="cell112">
  <circle cx="379.456" cy="573.693" r="8.40507" stroke-width="0.5" stroke="black" fill="magenta"/>
  <circle cx="379.456" cy="573.693" r="5.04938" stroke-width="0.5" stroke="black" fill="magenta"/>
   </g>
   <g id="cell113">
  <circle cx="419.856" cy="480.572" r="8.40449" stroke-width="0.5" stroke="black" fill="green"/>
  <circle cx="419.856" cy="480.572" r="5.04918" stroke-width="0.5" stroke="black" fill="green"/>
   </g>
   <g id="cell114">
  <circle cx="500.803" cy="449.844" r="8.3639" stroke-width="0.5" stroke="black" fill="magenta"/>
  <circle cx="500.803" cy="449.844" r="5.03369" stroke-width="0.5" stroke="black" fill="magenta"/>
   </g>
   <g id="cell115">
  <circle cx="452.111" cy="526.063" r="8.4022" stroke-width="0.5" stroke="black" fill="green"/>
  <circle cx="452.111" cy="526.063" r="5.0484" stroke-width="0.5" stroke="black" fill="green"/>
   </g>
   <g id="cell116">
  <circle cx="368.594" cy="519.277" r="8.39899" stroke-width="0.5" stroke="black" fill="cyan"/>
  <circle cx="368.594" cy="519.277" r="5.04737" stroke-width="0.5" stroke="black" fill="cyan"/>
   </g>
   <g id="cell173">
  <circle cx="541.362" cy="604.287" r="7.43959" stroke-width="0.5" stroke="black" fill="green"/>
  <circle cx="541.362" cy="604.287" r="4.52287" stroke-width="0.5" stroke="black" fill="green"/>
   </g>
   <g id="cell118">
  <circle cx="524.014" cy="524.978" r="7.48552" stroke-width="0.5" stroke="black" fill="cyan"/>
  <circle cx="524.014" cy="524.978" r="4.55233" stroke-width="0.5" stroke="black" fill="cyan"/>
   </g>
   <g id="cell119">
  <circle cx="527.543" cy="634.871" r="8.26333" stroke-width="0.5" stroke="black" fill="green"/>
  <circle cx="527.543" cy="634.871" r="4.98795" stroke-width="0.5" stroke="black" fill="green"/>
   </g>
   <g id="cell121">
  <circle cx="391.332" cy="550.38" r="8.39522" stroke-width="0.5" stroke="black" fill="magenta"/>
  <circle cx="391.332" cy="550.38" r="5.04587" stroke-width="0.5" stroke="black" fill="magenta"/>
   </g>
   <g id="cell122">
  <circle cx="614.23" cy="462.348" r="7.78488" stroke-width="0.5" stroke="black" fill="cyan"/>
  <circle cx="614.23" cy="462.348" r="4.72981" stroke-width="0.5" stroke="black" fill="cyan"/>
   </g>
   <g id="cell123">
  <circle cx="500.49" cy="644.479" r="8.3926" stroke-width="0.5" stroke="black" fill="cyan"/>
  <circle cx="500.49" cy="644.479" r="5.04482" stroke-width="0.5" stroke="black" fill="cyan"/>
   </g>
   <g id="cell124">
  <circle cx="380.361" cy="589.237" r="8.39203" stroke-width="0.5" stroke="black" fill="green"/>
  <circle cx="380.361" cy="589.237" r="5.0446" stroke-width="0.5" stroke="black" fill="green"/>
   </g>
   <g id="cell125">
  <circle cx="451.491" cy="454.252" r="8.39006" stroke-width="0.5" stroke="black" fill="cyan"/>
  <circle cx="451.491" cy="454.252" r="5.04387" stroke-width="0.5" stroke="black" fill="cyan"/>
   </g>
   <g id="cell126">
  <circle cx="415.643" cy="512.145" r="8.38373" stroke-width="0.5" stroke="black" fill="green"/>
  <circle cx="415.643" cy="512.145" r="5.04162" stroke-width="0.5" stroke="black" fill="green"/>
   </g>
   <g id="cell127">
  <circle cx="413.349" cy="595.915" r="8.38373" stroke-width="0.5" stroke="black" fill="cyan"/>
  <circle cx="413.349" cy="595.915" r="5.04136" stroke-width="0.5" stroke="black" fill="cyan"/>
   </g>
   <g id="cell128">
  <circle cx="356.057" cy="534.224" r="6.83834" stroke-width="0.5" stroke="black" fill="cyan"/>
  <circle cx="356.057" cy="534.224" r="4.13869" stroke-width="0.5" stroke="black" fill="cyan"/>
   </g>
   <g id="cell131">
  <circle cx="585.202" cy="535.728" r="8.36913" stroke-width="0.5" stroke="black" fill="cyan"/>
  <circle cx="585.202" cy="535.728" r="5.03564" stroke-width="0.5" stroke="black" fill="cyan"/>
   </g>
   <g id="cell132">
  <circle cx="510.79" cy="438.831" r="8.3639" stroke-width="0.5" stroke="black" fill="magenta"/>
  <circle cx="510.79" cy="438.831" r="5.03369" stroke-width="0.5" stroke="black" fill="magenta"/>
   </g>
   <g id="cell133">
  <circle cx="534.37" cy="407.651" r="8.36458" stroke-width="0.5" stroke="black" fill="magenta"/>
  <circle cx="534.37" cy="407.651" r="5.03347" stroke-width="0.5" stroke="black" fill="magenta"/>
   </g>
   <g id="cell134">
  <circle cx="512.146" cy="580.07" r="8.28818" stroke-width="0.5" stroke="black" fill="magenta"/>
  <circle cx="512.146" cy="580.07" r="5.00109" stroke-width="0.5" stroke="black" fill="magenta"/>
   </g>
   <g id="cell135">
  <circle cx="567.611" cy="484.056" r="8.35404" stroke-width="0.5" stroke="black" fill="cyan"/>
  <circle cx="567.611" cy="484.056" r="5.02894" stroke-width="0.5" stroke="black" fill="cyan"/>
   </g>
   <g id="cell137">
  <circle cx="379.098" cy="478.848" r="8.33008" stroke-width="0.5" stroke="black" fill="magenta"/>
  <circle cx="379.098" cy="478.848" r="5.01833" stroke-width="0.5" stroke="black" fill="magenta"/>
   </g>
   <g id="cell138">
  <circle cx="534.219" cy="592.269" r="7.95229" stroke-width="0.5" stroke="black" fill="magenta"/>
  <circle cx="534.219" cy="592.269" r="4.8348" stroke-width="0.5" stroke="black" fill="magenta"/>
   </g>
   <g id="cell139">
  <circle cx="510.966" cy="608.273" r="8.29861" stroke-width="0.5" stroke="black" fill="green"/>
  <circle cx="510.966" cy="608.273" r="5.00476" stroke-width="0.5" stroke="black" fill="green"/>
   </g>
   <g id="cell142">
  <circle cx="585.65" cy="382.24" r="8.26067" stroke-width="0.5" stroke="black" fill="magenta"/>
  <circle cx="585.65" cy="382.24" r="4.98763" stroke-width="0.5" stroke="black" fill="magenta"/>
   </g>
   <g id="cell143">
  <circle cx="536.783" cy="622.148" r="8.26333" stroke-width="0.5" stroke="black" fill="green"/>
  <circle cx="536.783" cy="622.148" r="4.98795" stroke-width="0.5" stroke="black" fill="green"/>
   </g>
   <g id="cell144">
  <circle cx="378.867" cy="543.315" r="8.25826" stroke-width="0.5" stroke="black" fill="magenta"/>
  <circle cx="378.867" cy="543.315" r="4.98429" stroke-width="0.5" stroke="black" fill="magenta"/>
   </g>
   <g id="cell145">
  <circle cx="459.135" cy="483.172" r="8.24914" stroke-width="0.5" stroke="black" fill="magenta"/>
  <circle cx="459.135" cy="483.172" r="4.97981" stroke-width="0.5" stroke="black" fill="magenta"/>
   </g>
   <g id="cell146">
  <circle cx="463.049" cy="425.014" r="8.21839" stroke-width="0.5" stroke="black" fill="cyan"/>
  <circle cx="463.049" cy="425.014" r="4.96448" stroke-width="0.5" stroke="black" fill="cyan"/>
   </g>
   <g id="cell148">
  <circle cx="400.671" cy="605.234" r="8.17306" stroke-width="0.5" stroke="black" fill="cyan"/>
  <circle cx="400.671" cy="605.234" r="4.94371" stroke-width="0.5" stroke="black" fill="cyan"/>
   </g>
   <g id="cell149">
  <circle cx="438.411" cy="534.022" r="8.14661" stroke-width="0.5" stroke="black" fill="green"/>
  <circle cx="438.411" cy="534.022" r="4.92897" stroke-width="0.5" stroke="black" fill="green"/>
   </g>
   <g id="cell150">
  <circle cx="471.696" cy="630.956" r="8.13755" stroke-width="0.5" stroke="black" fill="green"/>
  <circle cx="471.696" cy="630.956" r="4.92302" stroke-width="0.5" stroke="black" fill="green"/>
   </g>
   <g id="cell151">
  <circle cx="524.087" cy="510.145" r="8.13008" stroke-width="0.5" stroke="black" fill="cyan"/>
  <circle cx="524.087" cy="510.145" r="4.91894" stroke-width="0.5" stroke="black" fill="cyan"/>
   </g>
   <g id="cell152">
  <circle cx="643.364" cy="552.465" r="8.09984" stroke-width="0.5" stroke="black" fill="green"/>
  <circle cx="643.364" cy="552.465" r="4.90398" stroke-width="0.5" stroke="black" fill="green"/>
   </g>
   <g id="cell153">
  <circle cx="395.703" cy="523.972" r="8.0752" stroke-width="0.5" stroke="black" fill="cyan"/>
  <circle cx="395.703" cy="523.972" r="4.89337" stroke-width="0.5" stroke="black" fill="cyan"/>
   </g>
   <g id="cell154">
  <circle cx="588.937" cy="503.714" r="6.45469" stroke-width="0.5" stroke="black" fill="magenta"/>
  <circle cx="588.937" cy="503.714" r="3.91179" stroke-width="0.5" stroke="black" fill="magenta"/>
   </g>
   <g id="cell156">
  <circle cx="403.568" cy="557.15" r="7.49966" stroke-width="0.5" stroke="black" fill="green"/>
  <circle cx="403.568" cy="557.15" r="4.58345" stroke-width="0.5" stroke="black" fill="green"/>
   </g>
   <g id="cell157">
  <circle cx="392.969" cy="474.232" r="7.91773" stroke-width="0.5" stroke="black" fill="magenta"/>
  <circle cx="392.969" cy="474.232" r="4.80994" stroke-width="0.5" stroke="black" fill="magenta"/>
   </g>
   <g id="cell158">
  <circle cx="433.669" cy="474.789" r="7.66071" stroke-width="0.5" stroke="black" fill="green"/>
  <circle cx="433.669" cy="474.789" r="4.67496" stroke-width="0.5" stroke="black" fill="green"/>
   </g>
   <g id="cell159">
  <circle cx="438.541" cy="461.61" r="7.66071" stroke-width="0.5" stroke="black" fill="green"/>
  <circle cx="438.541" cy="461.61" r="4.67496" stroke-width="0.5" stroke="black" fill="green"/>
   </g>
   <g id="cell160">
  <circle cx="416.785" cy="560.042" r="7.59334" stroke-width="0.5" stroke="black" fill="green"/>
  <circle cx="416.785" cy="560.042" r="4.63704" stroke-width="0.5" stroke="black" fill="green"/>
   </g>
   <g id="cell161">
  <circle cx="529.277" cy="464.225" r="7.84581" stroke-width="0.5" stroke="black" fill="cyan"/>
  <circle cx="529.277" cy="464.225" r="4.76264" stroke-width="0.5" stroke="black" fill="cyan"/>
   </g>
   <g id="cell162">
  <circle cx="608.99" cy="475.567" r="7.78488" stroke-width="0.5" stroke="black" fill="cyan"/>
  <circle cx="608.99" cy="475.567" r="4.72981" stroke-width="0.5" stroke="black" fill="cyan"/>
   </g>
   <g id="cell163">
  <circle cx="424.502" cy="548.434" r="7.33704" stroke-width="0.5" stroke="black" fill="green"/>
  <circle cx="424.502" cy="548.434" r="4.50118" stroke-width="0.5" stroke="black" fill="green"/>
   </g>
   <g id="cell164">
  <circle cx="457.252" cy="468.466" r="7.78246" stroke-width="0.5" stroke="black" fill="cyan"/>
  <circle cx="457.252" cy="468.466" r="4.72888" stroke-width="0.5" stroke="black" fill="cyan"/>
   </g>
   <g id="cell165">
  <circle cx="410.972" cy="545.465" r="7.49966" stroke-width="0.5" stroke="black" fill="green"/>
  <circle cx="410.972" cy="545.465" r="4.58345" stroke-width="0.5" stroke="black" fill="green"/>
   </g>
   <g id="cell166">
  <circle cx="603.046" cy="500.764" r="7.72033" stroke-width="0.5" stroke="black" fill="green"/>
  <circle cx="603.046" cy="500.764" r="4.68997" stroke-width="0.5" stroke="black" fill="green"/>
   </g>
   <g id="cell167">
  <circle cx="466.205" cy="387.39" r="7.72056" stroke-width="0.5" stroke="black" fill="green"/>
  <circle cx="466.205" cy="387.39" r="4.69003" stroke-width="0.5" stroke="black" fill="green"/>
   </g>
   <g id="cell168">
  <circle cx="519.963" cy="407.156" r="7.67182" stroke-width="0.5" stroke="black" fill="magenta"/>
  <circle cx="519.963" cy="407.156" r="4.66709" stroke-width="0.5" stroke="black" fill="magenta"/>
   </g>
   <g id="cell169">
  <circle cx="471.102" cy="435.547" r="6.47086" stroke-width="0.5" stroke="black" fill="magenta"/>
  <circle cx="471.102" cy="435.547" r="3.97415" stroke-width="0.5" stroke="black" fill="magenta"/>
   </g>
   <g id="cell170">
  <circle cx="628.592" cy="488.773" r="7.59159" stroke-width="0.5" stroke="black" fill="green"/>
  <circle cx="628.592" cy="488.773" r="4.61393" stroke-width="0.5" stroke="black" fill="green"/>
   </g>
   <g id="cell171">
  <circle cx="536.763" cy="530.67" r="7.48552" stroke-width="0.5" stroke="black" fill="cyan"/>
  <circle cx="536.763" cy="530.67" r="4.55233" stroke-width="0.5" stroke="black" fill="cyan"/>
   </g>
   <g id="cell172">
  <circle cx="511.963" cy="518.38" r="7.26359" stroke-width="0.5" stroke="black" fill="cyan"/>
  <circle cx="511.963" cy="518.38" r="4.43864" stroke-width="0.5" stroke="black" fill="cyan"/>
   </g>
   <g id="cell175">
  <circle cx="634.984" cy="540.75" r="7.05134" stroke-width="0.5" stroke="black" fill="green"/>
  <circle cx="634.984" cy="540.75" r="4.27673" stroke-width="0.5" stroke="black" fill="green"/>
   </g>
   <g id="cell177">
  <circle cx="368.628" cy="534.526" r="6.83834" stroke-width="0.5" stroke="black" fill="cyan"/>
  <circle cx="368.628" cy="534.526" r="4.13869" stroke-width="0.5" stroke="black" fill="cyan"/>
   </g>
   <g id="cell178">
  <circle cx="480.289" cy="441.572" r="6.24559" stroke-width="0.5" stroke="black" fill="magenta"/>
  <circle cx="480.289" cy="441.572" r="3.82675" stroke-width="0.5" stroke="black" fill="magenta"/>
   </g>
   <g id="cell179">
  <circle cx="446.698" cy="487.805" r="6.26923" stroke-width="0.5" stroke="black" fill="cyan"/>
  <circle cx="446.698" cy="487.805" r="3.81892" stroke-width="0.5" stroke="black" fill="cyan"/>
   </g>
   <g id="cell180">
  <circle cx="590.497" cy="493.371" r="6.45469" stroke-width="0.5" stroke="black" fill="magenta"/>
  <circle cx="590.497" cy="493.371" r="3.91179" stroke-width="0.5" stroke="black" fill="magenta"/>
   </g>
  </g>
 </g>
  <rect x="775" y="1035" width="200" height="10" stroke-width="2" stroke="rgb(255,255,255)" fill="rgb(0,0,0)"/>
  <text x="781.25" y="1028.75"
   font-family="Arial" font-size="25" fill="black" >
   200 &#956;m
  </text>
  <text x="25" y="1045"
   font-family="Arial" font-size="18.75" fill="black" >
   0 days, 0 hours, 0 minutes, and 42.4604 seconds
  </text>
  <rect x="0" y="70" width="1000" height="1000" stroke-width="2" stroke="rgb(0,0,0)" fill="none"/>
</svg>
