<?xml version="1.0" encoding="UTF-8" standalone="no"?>
<!-- Created with PhysiCell (http://PhysiCell.MathCancer.org/) -->
<svg 
 xmlns:dc="http://purl.org/dc/elements/1.1/" 
 xmlns:cc="http://creativecommons.org/ns#" 
 xmlns:rdf="http://www.w3.org/1999/02/22-rdf-syntax-ns#" 
 xmlns:svg="http://www.w3.org/2000/svg" 
 xmlns="http://www.w3.org/2000/svg" 
 version="1.1" 
 width="1000" 
 height="1070" 
 id="svg2">
  <rect x="0" y="0" width="1000" height="1070" stroke-width="2" stroke="white" fill="white"/>
  <text x="12.5" y="30"
   font-family="Arial" font-size="25" fill="black" >
   Current time: 0 days, 0 hours, and 30.00 minutes, z = 0.00 &#956;m
  </text>
  <text x="12.5" y="57.5"
   font-family="Arial" font-size="23.75" fill="black" >
   78 agents
  </text>
 <g id="tissue" 
    transform="translate(0,1070) scale(1,-1)">
  <g id="ECM">
  </g>
  <g id="cells">
   <g id="cell0">
  <circle cx="513.727" cy="529.861" r="8.41271" stroke-width="0.5" stroke="black" fill="magenta"/>
  <circle cx="513.727" cy="529.861" r="5.05167" stroke-width="0.5" stroke="black" fill="magenta"/>
   </g>
   <g id="cell1">
  <circle cx="604.088" cy="530.308" r="8.41271" stroke-width="0.5" stroke="black" fill="magenta"/>
  <circle cx="604.088" cy="530.308" r="5.05167" stroke-width="0.5" stroke="black" fill="magenta"/>
   </g>
   <g id="cell2">
  <circle cx="510.693" cy="600.694" r="8.41271" stroke-width="0.5" stroke="black" fill="magenta"/>
  <circle cx="510.693" cy="600.694" r="5.05167" stroke-width="0.5" stroke="black" fill="magenta"/>
   </g>
   <g id="cell3">
  <circle cx="533.297" cy="545.449" r="8.41271" stroke-width="0.5" stroke="black" fill="magenta"/>
  <circle cx="533.297" cy="545.449" r="5.05167" stroke-width="0.5" stroke="black" fill="magenta"/>
   </g>
   <g id="cell4">
  <circle cx="477.508" cy="439.906" r="6.69288" stroke-width="0.5" stroke="black" fill="magenta"/>
  <circle cx="477.508" cy="439.906" r="4.02051" stroke-width="0.5" stroke="black" fill="magenta"/>
   </g>
   <g id="cell5">
  <circle cx="465.032" cy="493.3" r="8.41271" stroke-width="0.5" stroke="black" fill="magenta"/>
  <circle cx="465.032" cy="493.3" r="5.05167" stroke-width="0.5" stroke="black" fill="magenta"/>
   </g>
   <g id="cell6">
  <circle cx="593.667" cy="508.705" r="8.41271" stroke-width="0.5" stroke="black" fill="magenta"/>
  <circle cx="593.667" cy="508.705" r="5.05167" stroke-width="0.5" stroke="black" fill="magenta"/>
   </g>
   <g id="cell7">
  <circle cx="512.871" cy="465.024" r="8.41271" stroke-width="0.5" stroke="black" fill="magenta"/>
  <circle cx="512.871" cy="465.024" r="5.05167" stroke-width="0.5" stroke="black" fill="magenta"/>
   </g>
   <g id="cell8">
  <circle cx="375.895" cy="544.516" r="8.41271" stroke-width="0.5" stroke="black" fill="magenta"/>
  <circle cx="375.895" cy="544.516" r="5.05167" stroke-width="0.5" stroke="black" fill="magenta"/>
   </g>
   <g id="cell9">
  <circle cx="460.472" cy="599.786" r="8.41271" stroke-width="0.5" stroke="black" fill="magenta"/>
  <circle cx="460.472" cy="599.786" r="5.05167" stroke-width="0.5" stroke="black" fill="magenta"/>
   </g>
   <g id="cell10">
  <circle cx="583.447" cy="392.105" r="8.41271" stroke-width="0.5" stroke="black" fill="magenta"/>
  <circle cx="583.447" cy="392.105" r="5.05167" stroke-width="0.5" stroke="black" fill="magenta"/>
   </g>
   <g id="cell11">
  <circle cx="589.748" cy="590.273" r="8.41271" stroke-width="0.5" stroke="black" fill="magenta"/>
  <circle cx="589.748" cy="590.273" r="5.05167" stroke-width="0.5" stroke="black" fill="magenta"/>
   </g>
   <g id="cell12">
  <circle cx="506.567" cy="585.713" r="8.41271" stroke-width="0.5" stroke="black" fill="magenta"/>
  <circle cx="506.567" cy="585.713" r="5.05167" stroke-width="0.5" stroke="black" fill="magenta"/>
   </g>
   <g id="cell13">
  <circle cx="385.728" cy="566.907" r="8.41271" stroke-width="0.5" stroke="black" fill="magenta"/>
  <circle cx="385.728" cy="566.907" r="5.05167" stroke-width="0.5" stroke="black" fill="magenta"/>
   </g>
   <g id="cell14">
  <circle cx="529.8" cy="398.353" r="8.41271" stroke-width="0.5" stroke="black" fill="magenta"/>
  <circle cx="529.8" cy="398.353" r="5.05167" stroke-width="0.5" stroke="black" fill="magenta"/>
   </g>
   <g id="cell15">
  <circle cx="381.367" cy="474.531" r="8.41271" stroke-width="0.5" stroke="black" fill="magenta"/>
  <circle cx="381.367" cy="474.531" r="5.05167" stroke-width="0.5" stroke="black" fill="magenta"/>
   </g>
   <g id="cell16">
  <circle cx="428.961" cy="413.205" r="8.41271" stroke-width="0.5" stroke="black" fill="magenta"/>
  <circle cx="428.961" cy="413.205" r="5.05167" stroke-width="0.5" stroke="black" fill="magenta"/>
   </g>
   <g id="cell17">
  <circle cx="571.717" cy="490.017" r="8.41271" stroke-width="0.5" stroke="black" fill="magenta"/>
  <circle cx="571.717" cy="490.017" r="5.05167" stroke-width="0.5" stroke="black" fill="magenta"/>
   </g>
   <g id="cell18">
  <circle cx="512.14" cy="388.374" r="6.73287" stroke-width="0.5" stroke="black" fill="magenta"/>
  <circle cx="512.14" cy="388.374" r="4.05039" stroke-width="0.5" stroke="black" fill="magenta"/>
   </g>
   <g id="cell19">
  <circle cx="451.747" cy="539.097" r="8.41271" stroke-width="0.5" stroke="black" fill="magenta"/>
  <circle cx="451.747" cy="539.097" r="5.05167" stroke-width="0.5" stroke="black" fill="magenta"/>
   </g>
   <g id="cell20">
  <circle cx="532.98" cy="416.263" r="8.41271" stroke-width="0.5" stroke="black" fill="magenta"/>
  <circle cx="532.98" cy="416.263" r="5.05167" stroke-width="0.5" stroke="black" fill="magenta"/>
   </g>
   <g id="cell21">
  <circle cx="464.375" cy="634.568" r="8.41271" stroke-width="0.5" stroke="black" fill="magenta"/>
  <circle cx="464.375" cy="634.568" r="5.05167" stroke-width="0.5" stroke="black" fill="magenta"/>
   </g>
   <g id="cell22">
  <circle cx="556.954" cy="493.14" r="8.41271" stroke-width="0.5" stroke="black" fill="magenta"/>
  <circle cx="556.954" cy="493.14" r="5.05167" stroke-width="0.5" stroke="black" fill="magenta"/>
   </g>
   <g id="cell23">
  <circle cx="536.025" cy="482.496" r="8.41271" stroke-width="0.5" stroke="black" fill="magenta"/>
  <circle cx="536.025" cy="482.496" r="5.05167" stroke-width="0.5" stroke="black" fill="magenta"/>
   </g>
   <g id="cell24">
  <circle cx="559.289" cy="379.785" r="8.41271" stroke-width="0.5" stroke="black" fill="magenta"/>
  <circle cx="559.289" cy="379.785" r="5.05167" stroke-width="0.5" stroke="black" fill="magenta"/>
   </g>
   <g id="cell25">
  <circle cx="640.943" cy="550.03" r="8.41271" stroke-width="0.5" stroke="black" fill="green"/>
  <circle cx="640.943" cy="550.03" r="5.05167" stroke-width="0.5" stroke="black" fill="green"/>
   </g>
   <g id="cell26">
  <circle cx="551.147" cy="401.265" r="8.41271" stroke-width="0.5" stroke="black" fill="green"/>
  <circle cx="551.147" cy="401.265" r="5.05167" stroke-width="0.5" stroke="black" fill="green"/>
   </g>
   <g id="cell27">
  <circle cx="457.446" cy="388.678" r="8.41271" stroke-width="0.5" stroke="black" fill="green"/>
  <circle cx="457.446" cy="388.678" r="5.05167" stroke-width="0.5" stroke="black" fill="green"/>
   </g>
   <g id="cell28">
  <circle cx="438.586" cy="530.803" r="8.41271" stroke-width="0.5" stroke="black" fill="green"/>
  <circle cx="438.586" cy="530.803" r="5.05167" stroke-width="0.5" stroke="black" fill="green"/>
   </g>
   <g id="cell29">
  <circle cx="449.076" cy="518.815" r="8.41271" stroke-width="0.5" stroke="black" fill="green"/>
  <circle cx="449.076" cy="518.815" r="5.05167" stroke-width="0.5" stroke="black" fill="green"/>
   </g>
   <g id="cell30">
  <circle cx="481.58" cy="540.282" r="8.41271" stroke-width="0.5" stroke="black" fill="green"/>
  <circle cx="481.58" cy="540.282" r="5.05167" stroke-width="0.5" stroke="black" fill="green"/>
   </g>
   <g id="cell31">
  <circle cx="412.723" cy="540.951" r="8.41271" stroke-width="0.5" stroke="black" fill="green"/>
  <circle cx="412.723" cy="540.951" r="5.05167" stroke-width="0.5" stroke="black" fill="green"/>
   </g>
   <g id="cell32">
  <circle cx="426.497" cy="473.905" r="8.41271" stroke-width="0.5" stroke="black" fill="green"/>
  <circle cx="426.497" cy="473.905" r="5.05167" stroke-width="0.5" stroke="black" fill="green"/>
   </g>
   <g id="cell33">
  <circle cx="494.007" cy="423.651" r="8.41271" stroke-width="0.5" stroke="black" fill="green"/>
  <circle cx="494.007" cy="423.651" r="5.05167" stroke-width="0.5" stroke="black" fill="green"/>
   </g>
   <g id="cell34">
  <circle cx="397.421" cy="451.146" r="8.41271" stroke-width="0.5" stroke="black" fill="green"/>
  <circle cx="397.421" cy="451.146" r="5.05167" stroke-width="0.5" stroke="black" fill="green"/>
   </g>
   <g id="cell35">
  <circle cx="548.56" cy="545.107" r="8.41271" stroke-width="0.5" stroke="black" fill="green"/>
  <circle cx="548.56" cy="545.107" r="5.05167" stroke-width="0.5" stroke="black" fill="green"/>
   </g>
   <g id="cell36">
  <circle cx="391.385" cy="583.113" r="8.41271" stroke-width="0.5" stroke="black" fill="green"/>
  <circle cx="391.385" cy="583.113" r="5.05167" stroke-width="0.5" stroke="black" fill="green"/>
   </g>
   <g id="cell37">
  <circle cx="634.871" cy="460.618" r="8.41271" stroke-width="0.5" stroke="black" fill="green"/>
  <circle cx="634.871" cy="460.618" r="5.05167" stroke-width="0.5" stroke="black" fill="green"/>
   </g>
   <g id="cell38">
  <circle cx="536.558" cy="601.599" r="8.41271" stroke-width="0.5" stroke="black" fill="green"/>
  <circle cx="536.558" cy="601.599" r="5.05167" stroke-width="0.5" stroke="black" fill="green"/>
   </g>
   <g id="cell39">
  <circle cx="613.458" cy="490.595" r="8.41271" stroke-width="0.5" stroke="black" fill="green"/>
  <circle cx="613.458" cy="490.595" r="5.05167" stroke-width="0.5" stroke="black" fill="green"/>
   </g>
   <g id="cell40">
  <circle cx="485.348" cy="571.779" r="8.41271" stroke-width="0.5" stroke="black" fill="green"/>
  <circle cx="485.348" cy="571.779" r="5.05167" stroke-width="0.5" stroke="black" fill="green"/>
   </g>
   <g id="cell41">
  <circle cx="363.692" cy="480.211" r="8.41271" stroke-width="0.5" stroke="black" fill="green"/>
  <circle cx="363.692" cy="480.211" r="5.05167" stroke-width="0.5" stroke="black" fill="green"/>
   </g>
   <g id="cell42">
  <circle cx="438.842" cy="494.268" r="8.41271" stroke-width="0.5" stroke="black" fill="green"/>
  <circle cx="438.842" cy="494.268" r="5.05167" stroke-width="0.5" stroke="black" fill="green"/>
   </g>
   <g id="cell43">
  <circle cx="558.637" cy="445.689" r="8.41271" stroke-width="0.5" stroke="black" fill="green"/>
  <circle cx="558.637" cy="445.689" r="5.05167" stroke-width="0.5" stroke="black" fill="green"/>
   </g>
   <g id="cell44">
  <circle cx="475.85" cy="624.027" r="8.41271" stroke-width="0.5" stroke="black" fill="green"/>
  <circle cx="475.85" cy="624.027" r="5.05167" stroke-width="0.5" stroke="black" fill="green"/>
   </g>
   <g id="cell45">
  <circle cx="414.987" cy="557.308" r="8.41271" stroke-width="0.5" stroke="black" fill="green"/>
  <circle cx="414.987" cy="557.308" r="5.05167" stroke-width="0.5" stroke="black" fill="green"/>
   </g>
   <g id="cell46">
  <circle cx="522.631" cy="611.247" r="8.41271" stroke-width="0.5" stroke="black" fill="green"/>
  <circle cx="522.631" cy="611.247" r="5.05167" stroke-width="0.5" stroke="black" fill="green"/>
   </g>
   <g id="cell47">
  <circle cx="502.809" cy="507.035" r="8.41271" stroke-width="0.5" stroke="black" fill="green"/>
  <circle cx="502.809" cy="507.035" r="5.05167" stroke-width="0.5" stroke="black" fill="green"/>
   </g>
   <g id="cell48">
  <circle cx="564.591" cy="602.714" r="8.41271" stroke-width="0.5" stroke="black" fill="green"/>
  <circle cx="564.591" cy="602.714" r="5.05167" stroke-width="0.5" stroke="black" fill="green"/>
   </g>
   <g id="cell49">
  <circle cx="429.825" cy="397.652" r="8.41271" stroke-width="0.5" stroke="black" fill="green"/>
  <circle cx="429.825" cy="397.652" r="5.05167" stroke-width="0.5" stroke="black" fill="green"/>
   </g>
   <g id="cell50">
  <circle cx="519.102" cy="515.28" r="8.41271" stroke-width="0.5" stroke="black" fill="cyan"/>
  <circle cx="519.102" cy="515.28" r="5.05167" stroke-width="0.5" stroke="black" fill="cyan"/>
   </g>
   <g id="cell51">
  <circle cx="399.289" cy="598.315" r="8.41271" stroke-width="0.5" stroke="black" fill="cyan"/>
  <circle cx="399.289" cy="598.315" r="5.05167" stroke-width="0.5" stroke="black" fill="cyan"/>
   </g>
   <g id="cell52">
  <circle cx="521.065" cy="429.407" r="8.41271" stroke-width="0.5" stroke="black" fill="cyan"/>
  <circle cx="521.065" cy="429.407" r="5.05167" stroke-width="0.5" stroke="black" fill="cyan"/>
   </g>
   <g id="cell53">
  <circle cx="571.24" cy="436.04" r="8.41271" stroke-width="0.5" stroke="black" fill="cyan"/>
  <circle cx="571.24" cy="436.04" r="5.05167" stroke-width="0.5" stroke="black" fill="cyan"/>
   </g>
   <g id="cell54">
  <circle cx="478.198" cy="424.831" r="8.41271" stroke-width="0.5" stroke="black" fill="cyan"/>
  <circle cx="478.198" cy="424.831" r="5.05167" stroke-width="0.5" stroke="black" fill="cyan"/>
   </g>
   <g id="cell55">
  <circle cx="527.396" cy="469.753" r="8.41271" stroke-width="0.5" stroke="black" fill="cyan"/>
  <circle cx="527.396" cy="469.753" r="5.05167" stroke-width="0.5" stroke="black" fill="cyan"/>
   </g>
   <g id="cell56">
  <circle cx="617.987" cy="522.16" r="8.41271" stroke-width="0.5" stroke="black" fill="cyan"/>
  <circle cx="617.987" cy="522.16" r="5.05167" stroke-width="0.5" stroke="black" fill="cyan"/>
   </g>
   <g id="cell57">
  <circle cx="416.924" cy="617.466" r="8.41271" stroke-width="0.5" stroke="black" fill="cyan"/>
  <circle cx="416.924" cy="617.466" r="5.05167" stroke-width="0.5" stroke="black" fill="cyan"/>
   </g>
   <g id="cell58">
  <circle cx="551.141" cy="479.019" r="8.41271" stroke-width="0.5" stroke="black" fill="cyan"/>
  <circle cx="551.141" cy="479.019" r="5.05167" stroke-width="0.5" stroke="black" fill="cyan"/>
   </g>
   <g id="cell59">
  <circle cx="385.131" cy="439.487" r="8.41271" stroke-width="0.5" stroke="black" fill="cyan"/>
  <circle cx="385.131" cy="439.487" r="5.05167" stroke-width="0.5" stroke="black" fill="cyan"/>
   </g>
   <g id="cell60">
  <circle cx="593.896" cy="473.572" r="8.41271" stroke-width="0.5" stroke="black" fill="cyan"/>
  <circle cx="593.896" cy="473.572" r="5.05167" stroke-width="0.5" stroke="black" fill="cyan"/>
   </g>
   <g id="cell61">
  <circle cx="552.932" cy="614.028" r="8.41271" stroke-width="0.5" stroke="black" fill="cyan"/>
  <circle cx="552.932" cy="614.028" r="5.05167" stroke-width="0.5" stroke="black" fill="cyan"/>
   </g>
   <g id="cell62">
  <circle cx="524.841" cy="445.075" r="8.41271" stroke-width="0.5" stroke="black" fill="cyan"/>
  <circle cx="524.841" cy="445.075" r="5.05167" stroke-width="0.5" stroke="black" fill="cyan"/>
   </g>
   <g id="cell63">
  <circle cx="577.487" cy="546.55" r="8.41271" stroke-width="0.5" stroke="black" fill="cyan"/>
  <circle cx="577.487" cy="546.55" r="5.05167" stroke-width="0.5" stroke="black" fill="cyan"/>
   </g>
   <g id="cell64">
  <circle cx="509.962" cy="636.825" r="8.41271" stroke-width="0.5" stroke="black" fill="cyan"/>
  <circle cx="509.962" cy="636.825" r="5.05167" stroke-width="0.5" stroke="black" fill="cyan"/>
   </g>
   <g id="cell65">
  <circle cx="542.512" cy="466.16" r="8.41271" stroke-width="0.5" stroke="black" fill="cyan"/>
  <circle cx="542.512" cy="466.16" r="5.05167" stroke-width="0.5" stroke="black" fill="cyan"/>
   </g>
   <g id="cell66">
  <circle cx="535.444" cy="530.009" r="8.41271" stroke-width="0.5" stroke="black" fill="cyan"/>
  <circle cx="535.444" cy="530.009" r="5.05167" stroke-width="0.5" stroke="black" fill="cyan"/>
   </g>
   <g id="cell67">
  <circle cx="354.228" cy="493.209" r="8.41271" stroke-width="0.5" stroke="black" fill="cyan"/>
  <circle cx="354.228" cy="493.209" r="5.05167" stroke-width="0.5" stroke="black" fill="cyan"/>
   </g>
   <g id="cell68">
  <circle cx="562.669" cy="551.429" r="8.41271" stroke-width="0.5" stroke="black" fill="cyan"/>
  <circle cx="562.669" cy="551.429" r="5.05167" stroke-width="0.5" stroke="black" fill="cyan"/>
   </g>
   <g id="cell69">
  <circle cx="434.233" cy="461.052" r="6.75639" stroke-width="0.5" stroke="black" fill="cyan"/>
  <circle cx="434.233" cy="461.052" r="4.06813" stroke-width="0.5" stroke="black" fill="cyan"/>
   </g>
   <g id="cell70">
  <circle cx="576.393" cy="475.176" r="8.41271" stroke-width="0.5" stroke="black" fill="cyan"/>
  <circle cx="576.393" cy="475.176" r="5.05167" stroke-width="0.5" stroke="black" fill="cyan"/>
   </g>
   <g id="cell71">
  <circle cx="377.712" cy="520.989" r="8.41271" stroke-width="0.5" stroke="black" fill="cyan"/>
  <circle cx="377.712" cy="520.989" r="5.05167" stroke-width="0.5" stroke="black" fill="cyan"/>
   </g>
   <g id="cell72">
  <circle cx="534.99" cy="514.037" r="8.41271" stroke-width="0.5" stroke="black" fill="cyan"/>
  <circle cx="534.99" cy="514.037" r="5.05167" stroke-width="0.5" stroke="black" fill="cyan"/>
   </g>
   <g id="cell73">
  <circle cx="360.349" cy="545.936" r="8.41271" stroke-width="0.5" stroke="black" fill="cyan"/>
  <circle cx="360.349" cy="545.936" r="5.05167" stroke-width="0.5" stroke="black" fill="cyan"/>
   </g>
   <g id="cell74">
  <circle cx="542.743" cy="446.516" r="8.41271" stroke-width="0.5" stroke="black" fill="cyan"/>
  <circle cx="542.743" cy="446.516" r="5.05167" stroke-width="0.5" stroke="black" fill="cyan"/>
   </g>
   <g id="cell75">
  <circle cx="440.813" cy="471.979" r="6.75639" stroke-width="0.5" stroke="black" fill="cyan"/>
  <circle cx="440.813" cy="471.979" r="4.06813" stroke-width="0.5" stroke="black" fill="cyan"/>
   </g>
   <g id="cell76">
  <circle cx="523.971" cy="385.859" r="6.73287" stroke-width="0.5" stroke="black" fill="magenta"/>
  <circle cx="523.971" cy="385.859" r="4.05039" stroke-width="0.5" stroke="black" fill="magenta"/>
   </g>
   <g id="cell77">
  <circle cx="489.364" cy="437.705" r="6.69288" stroke-width="0.5" stroke="black" fill="magenta"/>
  <circle cx="489.364" cy="437.705" r="4.02051" stroke-width="0.5" stroke="black" fill="magenta"/>
   </g>
  </g>
 </g>
  <rect x="775" y="1035" width="200" height="10" stroke-width="2" stroke="rgb(255,255,255)" fill="rgb(0,0,0)"/>
  <text x="781.25" y="1028.75"
   font-family="Arial" font-size="25" fill="black" >
   200 &#956;m
  </text>
  <text x="25" y="1045"
   font-family="Arial" font-size="18.75" fill="black" >
   0 days, 0 hours, 0 minutes, and 0.7086 seconds
  </text>
  <rect x="0" y="70" width="1000" height="1000" stroke-width="2" stroke="rgb(0,0,0)" fill="none"/>
</svg>
