<?xml version="1.0" encoding="UTF-8" standalone="no"?>
<!-- Created with PhysiCell (http://PhysiCell.MathCancer.org/) -->
<svg 
 xmlns:dc="http://purl.org/dc/elements/1.1/" 
 xmlns:cc="http://creativecommons.org/ns#" 
 xmlns:rdf="http://www.w3.org/1999/02/22-rdf-syntax-ns#" 
 xmlns:svg="http://www.w3.org/2000/svg" 
 xmlns="http://www.w3.org/2000/svg" 
 version="1.1" 
 width="1000" 
 height="1070" 
 id="svg2">
  <rect x="0" y="0" width="1000" height="1070" stroke-width="2" stroke="white" fill="white"/>
  <text x="12.5" y="30"
   font-family="Arial" font-size="25" fill="black" >
   Current time: 1 days, 3 hours, and 0.00 minutes, z = 0.00 &#956;m
  </text>
  <text x="12.5" y="57.5"
   font-family="Arial" font-size="23.75" fill="black" >
   154 agents
  </text>
 <g id="tissue" 
    transform="translate(0,1070) scale(1,-1)">
  <g id="ECM">
  </g>
  <g id="cells">
   <g id="cell0">
  <circle cx="514.945" cy="528.408" r="8.41144" stroke-width="0.5" stroke="black" fill="magenta"/>
  <circle cx="514.945" cy="528.408" r="5.05135" stroke-width="0.5" stroke="black" fill="magenta"/>
   </g>
   <g id="cell147">
  <circle cx="420.694" cy="570.421" r="7.69501" stroke-width="0.5" stroke="black" fill="green"/>
  <circle cx="420.694" cy="570.421" r="4.67647" stroke-width="0.5" stroke="black" fill="green"/>
   </g>
   <g id="cell2">
  <circle cx="508.87" cy="594.967" r="8.2239" stroke-width="0.5" stroke="black" fill="magenta"/>
  <circle cx="508.87" cy="594.967" r="4.96725" stroke-width="0.5" stroke="black" fill="magenta"/>
   </g>
   <g id="cell3">
  <circle cx="538.356" cy="540.447" r="8.1609" stroke-width="0.5" stroke="black" fill="magenta"/>
  <circle cx="538.356" cy="540.447" r="4.93506" stroke-width="0.5" stroke="black" fill="magenta"/>
   </g>
   <g id="cell4">
  <circle cx="467.011" cy="440.405" r="8.41157" stroke-width="0.5" stroke="black" fill="magenta"/>
  <circle cx="467.011" cy="440.405" r="5.05138" stroke-width="0.5" stroke="black" fill="magenta"/>
   </g>
   <g id="cell5">
  <circle cx="465.248" cy="498.817" r="7.81315" stroke-width="0.5" stroke="black" fill="magenta"/>
  <circle cx="465.248" cy="498.817" r="4.74367" stroke-width="0.5" stroke="black" fill="magenta"/>
   </g>
   <g id="cell6">
  <circle cx="594.607" cy="513.217" r="8.40862" stroke-width="0.5" stroke="black" fill="magenta"/>
  <circle cx="594.607" cy="513.217" r="5.0505" stroke-width="0.5" stroke="black" fill="magenta"/>
   </g>
   <g id="cell7">
  <circle cx="511.522" cy="464.365" r="8.41271" stroke-width="0.5" stroke="black" fill="magenta"/>
  <circle cx="511.522" cy="464.365" r="5.05167" stroke-width="0.5" stroke="black" fill="magenta"/>
   </g>
   <g id="cell8">
  <circle cx="367.089" cy="550.042" r="7.84675" stroke-width="0.5" stroke="black" fill="magenta"/>
  <circle cx="367.089" cy="550.042" r="4.7629" stroke-width="0.5" stroke="black" fill="magenta"/>
   </g>
   <g id="cell9">
  <circle cx="463.85" cy="601.988" r="8.40839" stroke-width="0.5" stroke="black" fill="magenta"/>
  <circle cx="463.85" cy="601.988" r="5.05043" stroke-width="0.5" stroke="black" fill="magenta"/>
   </g>
   <g id="cell10">
  <circle cx="587.785" cy="396.631" r="7.85207" stroke-width="0.5" stroke="black" fill="magenta"/>
  <circle cx="587.785" cy="396.631" r="4.77549" stroke-width="0.5" stroke="black" fill="magenta"/>
   </g>
   <g id="cell11">
  <circle cx="589.748" cy="590.273" r="8.41271" stroke-width="0.5" stroke="black" fill="magenta"/>
  <circle cx="589.748" cy="590.273" r="5.05167" stroke-width="0.5" stroke="black" fill="magenta"/>
   </g>
   <g id="cell12">
  <circle cx="499.208" cy="583.681" r="8.41271" stroke-width="0.5" stroke="black" fill="magenta"/>
  <circle cx="499.208" cy="583.681" r="5.05167" stroke-width="0.5" stroke="black" fill="magenta"/>
   </g>
   <g id="cell13">
  <circle cx="379.321" cy="558.071" r="8.3506" stroke-width="0.5" stroke="black" fill="magenta"/>
  <circle cx="379.321" cy="558.071" r="5.02771" stroke-width="0.5" stroke="black" fill="magenta"/>
   </g>
   <g id="cell14">
  <circle cx="523.391" cy="399.227" r="8.23948" stroke-width="0.5" stroke="black" fill="magenta"/>
  <circle cx="523.391" cy="399.227" r="4.97503" stroke-width="0.5" stroke="black" fill="magenta"/>
   </g>
   <g id="cell15">
  <circle cx="393.154" cy="487.92" r="6.67426" stroke-width="0.5" stroke="black" fill="magenta"/>
  <circle cx="393.154" cy="487.92" r="4.0644" stroke-width="0.5" stroke="black" fill="magenta"/>
   </g>
   <g id="cell16">
  <circle cx="431.271" cy="412.15" r="8.41271" stroke-width="0.5" stroke="black" fill="magenta"/>
  <circle cx="431.271" cy="412.15" r="5.05167" stroke-width="0.5" stroke="black" fill="magenta"/>
   </g>
   <g id="cell17">
  <circle cx="588.545" cy="487.257" r="8.40353" stroke-width="0.5" stroke="black" fill="magenta"/>
  <circle cx="588.545" cy="487.257" r="5.04881" stroke-width="0.5" stroke="black" fill="magenta"/>
   </g>
   <g id="cell18">
  <circle cx="509.834" cy="392.808" r="8.41163" stroke-width="0.5" stroke="black" fill="magenta"/>
  <circle cx="509.834" cy="392.808" r="5.0514" stroke-width="0.5" stroke="black" fill="magenta"/>
   </g>
   <g id="cell19">
  <circle cx="449.399" cy="542.294" r="8.407" stroke-width="0.5" stroke="black" fill="magenta"/>
  <circle cx="449.399" cy="542.294" r="5.04998" stroke-width="0.5" stroke="black" fill="magenta"/>
   </g>
   <g id="cell20">
  <circle cx="528.585" cy="423.691" r="8.41271" stroke-width="0.5" stroke="black" fill="magenta"/>
  <circle cx="528.585" cy="423.691" r="5.05167" stroke-width="0.5" stroke="black" fill="magenta"/>
   </g>
   <g id="cell141">
  <circle cx="481.686" cy="440.6" r="7.91887" stroke-width="0.5" stroke="black" fill="magenta"/>
  <circle cx="481.686" cy="440.6" r="4.80721" stroke-width="0.5" stroke="black" fill="magenta"/>
   </g>
   <g id="cell22">
  <circle cx="559.411" cy="495.803" r="8.40477" stroke-width="0.5" stroke="black" fill="magenta"/>
  <circle cx="559.411" cy="495.803" r="5.0493" stroke-width="0.5" stroke="black" fill="magenta"/>
   </g>
   <g id="cell23">
  <circle cx="535.216" cy="484.239" r="8.41271" stroke-width="0.5" stroke="black" fill="magenta"/>
  <circle cx="535.216" cy="484.239" r="5.05167" stroke-width="0.5" stroke="black" fill="magenta"/>
   </g>
   <g id="cell24">
  <circle cx="562.295" cy="382.271" r="8.41271" stroke-width="0.5" stroke="black" fill="magenta"/>
  <circle cx="562.295" cy="382.271" r="5.05167" stroke-width="0.5" stroke="black" fill="magenta"/>
   </g>
   <g id="cell25">
  <circle cx="653.037" cy="563.899" r="7.28204" stroke-width="0.5" stroke="black" fill="green"/>
  <circle cx="653.037" cy="563.899" r="4.42967" stroke-width="0.5" stroke="black" fill="green"/>
   </g>
   <g id="cell26">
  <circle cx="547.879" cy="402.413" r="8.41271" stroke-width="0.5" stroke="black" fill="green"/>
  <circle cx="547.879" cy="402.413" r="5.05167" stroke-width="0.5" stroke="black" fill="green"/>
   </g>
   <g id="cell27">
  <circle cx="457.446" cy="388.678" r="8.41271" stroke-width="0.5" stroke="black" fill="green"/>
  <circle cx="457.446" cy="388.678" r="5.05167" stroke-width="0.5" stroke="black" fill="green"/>
   </g>
   <g id="cell28">
  <circle cx="433.569" cy="547.446" r="8.41271" stroke-width="0.5" stroke="black" fill="green"/>
  <circle cx="433.569" cy="547.446" r="5.05167" stroke-width="0.5" stroke="black" fill="green"/>
   </g>
   <g id="cell29">
  <circle cx="466.1" cy="520.786" r="8.37558" stroke-width="0.5" stroke="black" fill="green"/>
  <circle cx="466.1" cy="520.786" r="5.03829" stroke-width="0.5" stroke="black" fill="green"/>
   </g>
   <g id="cell30">
  <circle cx="478.688" cy="539.411" r="8.41271" stroke-width="0.5" stroke="black" fill="green"/>
  <circle cx="478.688" cy="539.411" r="5.05167" stroke-width="0.5" stroke="black" fill="green"/>
   </g>
   <g id="cell31">
  <circle cx="413.032" cy="537.74" r="8.41271" stroke-width="0.5" stroke="black" fill="green"/>
  <circle cx="413.032" cy="537.74" r="5.05167" stroke-width="0.5" stroke="black" fill="green"/>
   </g>
   <g id="cell32">
  <circle cx="425.035" cy="458.225" r="6.83472" stroke-width="0.5" stroke="black" fill="green"/>
  <circle cx="425.035" cy="458.225" r="4.12703" stroke-width="0.5" stroke="black" fill="green"/>
   </g>
   <g id="cell33">
  <circle cx="498.816" cy="413.469" r="8.40994" stroke-width="0.5" stroke="black" fill="green"/>
  <circle cx="498.816" cy="413.469" r="5.05091" stroke-width="0.5" stroke="black" fill="green"/>
   </g>
   <g id="cell34">
  <circle cx="392.094" cy="453.619" r="8.40925" stroke-width="0.5" stroke="black" fill="green"/>
  <circle cx="392.094" cy="453.619" r="5.0507" stroke-width="0.5" stroke="black" fill="green"/>
   </g>
   <g id="cell35">
  <circle cx="544.871" cy="554.354" r="8.39874" stroke-width="0.5" stroke="black" fill="green"/>
  <circle cx="544.871" cy="554.354" r="5.04711" stroke-width="0.5" stroke="black" fill="green"/>
   </g>
   <g id="cell36">
  <circle cx="394.923" cy="580.07" r="8.33911" stroke-width="0.5" stroke="black" fill="green"/>
  <circle cx="394.923" cy="580.07" r="5.02235" stroke-width="0.5" stroke="black" fill="green"/>
   </g>
   <g id="cell37">
  <circle cx="634.871" cy="460.618" r="1.50862" stroke-width="0.5" stroke="black" fill="green"/>
  <circle cx="634.871" cy="460.618" r="1.48821" stroke-width="0.5" stroke="black" fill="black"/>
   </g>
   <g id="cell38">
  <circle cx="523.753" cy="604.107" r="8.40731" stroke-width="0.5" stroke="black" fill="green"/>
  <circle cx="523.753" cy="604.107" r="5.05008" stroke-width="0.5" stroke="black" fill="green"/>
   </g>
   <g id="cell39">
  <circle cx="617.516" cy="494.696" r="8.41136" stroke-width="0.5" stroke="black" fill="green"/>
  <circle cx="617.516" cy="494.696" r="5.05133" stroke-width="0.5" stroke="black" fill="green"/>
   </g>
   <g id="cell40">
  <circle cx="487.464" cy="573.537" r="8.41271" stroke-width="0.5" stroke="black" fill="green"/>
  <circle cx="487.464" cy="573.537" r="5.05167" stroke-width="0.5" stroke="black" fill="green"/>
   </g>
   <g id="cell41">
  <circle cx="363.131" cy="479.287" r="8.41271" stroke-width="0.5" stroke="black" fill="green"/>
  <circle cx="363.131" cy="479.287" r="5.05167" stroke-width="0.5" stroke="black" fill="green"/>
   </g>
   <g id="cell42">
  <circle cx="452.723" cy="487.102" r="1.8187" stroke-width="0.5" stroke="black" fill="green"/>
  <circle cx="452.723" cy="487.102" r="1.75634" stroke-width="0.5" stroke="black" fill="black"/>
   </g>
   <g id="cell43">
  <circle cx="558.038" cy="445.549" r="8.41271" stroke-width="0.5" stroke="black" fill="green"/>
  <circle cx="558.038" cy="445.549" r="5.05167" stroke-width="0.5" stroke="black" fill="green"/>
   </g>
   <g id="cell44">
  <circle cx="486.657" cy="628.548" r="7.41306" stroke-width="0.5" stroke="black" fill="green"/>
  <circle cx="486.657" cy="628.548" r="4.50648" stroke-width="0.5" stroke="black" fill="green"/>
   </g>
   <g id="cell45">
  <circle cx="426.285" cy="558.298" r="5.49191" stroke-width="0.5" stroke="black" fill="green"/>
  <circle cx="426.285" cy="558.298" r="3.32427" stroke-width="0.5" stroke="black" fill="green"/>
   </g>
   <g id="cell46">
  <circle cx="520.423" cy="620.508" r="7.99546" stroke-width="0.5" stroke="black" fill="green"/>
  <circle cx="520.423" cy="620.508" r="4.85094" stroke-width="0.5" stroke="black" fill="green"/>
   </g>
   <g id="cell47">
  <circle cx="496.846" cy="508.888" r="8.41271" stroke-width="0.5" stroke="black" fill="green"/>
  <circle cx="496.846" cy="508.888" r="5.05167" stroke-width="0.5" stroke="black" fill="green"/>
   </g>
   <g id="cell48">
  <circle cx="566.479" cy="605.332" r="8.41271" stroke-width="0.5" stroke="black" fill="green"/>
  <circle cx="566.479" cy="605.332" r="5.05167" stroke-width="0.5" stroke="black" fill="green"/>
   </g>
   <g id="cell49">
  <circle cx="434.673" cy="397.041" r="8.29331" stroke-width="0.5" stroke="black" fill="green"/>
  <circle cx="434.673" cy="397.041" r="5.0012" stroke-width="0.5" stroke="black" fill="green"/>
   </g>
   <g id="cell50">
  <circle cx="510.36" cy="514.571" r="7.38797" stroke-width="0.5" stroke="black" fill="cyan"/>
  <circle cx="510.36" cy="514.571" r="4.49029" stroke-width="0.5" stroke="black" fill="cyan"/>
   </g>
   <g id="cell51">
  <circle cx="386.03" cy="604.028" r="7.52851" stroke-width="0.5" stroke="black" fill="cyan"/>
  <circle cx="386.03" cy="604.028" r="4.58705" stroke-width="0.5" stroke="black" fill="cyan"/>
   </g>
   <g id="cell120">
  <circle cx="419.663" cy="610.656" r="8.35882" stroke-width="0.5" stroke="black" fill="cyan"/>
  <circle cx="419.663" cy="610.656" r="5.031" stroke-width="0.5" stroke="black" fill="cyan"/>
   </g>
   <g id="cell53">
  <circle cx="571.054" cy="436.175" r="8.41271" stroke-width="0.5" stroke="black" fill="cyan"/>
  <circle cx="571.054" cy="436.175" r="5.05167" stroke-width="0.5" stroke="black" fill="cyan"/>
   </g>
   <g id="cell54">
  <circle cx="481.624" cy="426.156" r="7.70049" stroke-width="0.5" stroke="black" fill="cyan"/>
  <circle cx="481.624" cy="426.156" r="4.67828" stroke-width="0.5" stroke="black" fill="cyan"/>
   </g>
   <g id="cell55">
  <circle cx="524.3" cy="473.111" r="8.41271" stroke-width="0.5" stroke="black" fill="cyan"/>
  <circle cx="524.3" cy="473.111" r="5.05167" stroke-width="0.5" stroke="black" fill="cyan"/>
   </g>
   <g id="cell56">
  <circle cx="615.728" cy="522.513" r="8.41271" stroke-width="0.5" stroke="black" fill="cyan"/>
  <circle cx="615.728" cy="522.513" r="5.05167" stroke-width="0.5" stroke="black" fill="cyan"/>
   </g>
   <g id="cell57">
  <circle cx="418.489" cy="626.528" r="8.35882" stroke-width="0.5" stroke="black" fill="cyan"/>
  <circle cx="418.489" cy="626.528" r="5.031" stroke-width="0.5" stroke="black" fill="cyan"/>
   </g>
   <g id="cell58">
  <circle cx="550.946" cy="483.42" r="8.41271" stroke-width="0.5" stroke="black" fill="cyan"/>
  <circle cx="550.946" cy="483.42" r="5.05167" stroke-width="0.5" stroke="black" fill="cyan"/>
   </g>
   <g id="cell59">
  <circle cx="385.16" cy="439.177" r="8.41271" stroke-width="0.5" stroke="black" fill="cyan"/>
  <circle cx="385.16" cy="439.177" r="5.05167" stroke-width="0.5" stroke="black" fill="cyan"/>
   </g>
   <g id="cell60">
  <circle cx="594.757" cy="472.898" r="8.347" stroke-width="0.5" stroke="black" fill="cyan"/>
  <circle cx="594.757" cy="472.898" r="5.02586" stroke-width="0.5" stroke="black" fill="cyan"/>
   </g>
   <g id="cell155">
  <circle cx="521.094" cy="590.726" r="6.67324" stroke-width="0.5" stroke="black" fill="magenta"/>
  <circle cx="521.094" cy="590.726" r="4.10137" stroke-width="0.5" stroke="black" fill="magenta"/>
   </g>
   <g id="cell62">
  <circle cx="525.589" cy="439.261" r="8.41271" stroke-width="0.5" stroke="black" fill="cyan"/>
  <circle cx="525.589" cy="439.261" r="5.05167" stroke-width="0.5" stroke="black" fill="cyan"/>
   </g>
   <g id="cell63">
  <circle cx="582.159" cy="552.207" r="8.40731" stroke-width="0.5" stroke="black" fill="cyan"/>
  <circle cx="582.159" cy="552.207" r="5.05008" stroke-width="0.5" stroke="black" fill="cyan"/>
   </g>
   <g id="cell64">
  <circle cx="512.099" cy="633.845" r="8.34117" stroke-width="0.5" stroke="black" fill="cyan"/>
  <circle cx="512.099" cy="633.845" r="5.02327" stroke-width="0.5" stroke="black" fill="cyan"/>
   </g>
   <g id="cell65">
  <circle cx="530.572" cy="451.735" r="6.68837" stroke-width="0.5" stroke="black" fill="cyan"/>
  <circle cx="530.572" cy="451.735" r="4.01918" stroke-width="0.5" stroke="black" fill="cyan"/>
   </g>
   <g id="cell66">
  <circle cx="546.185" cy="527.078" r="8.36178" stroke-width="0.5" stroke="black" fill="cyan"/>
  <circle cx="546.185" cy="527.078" r="5.03227" stroke-width="0.5" stroke="black" fill="cyan"/>
   </g>
   <g id="cell67">
  <circle cx="354.584" cy="492.848" r="8.41271" stroke-width="0.5" stroke="black" fill="cyan"/>
  <circle cx="354.584" cy="492.848" r="5.05167" stroke-width="0.5" stroke="black" fill="cyan"/>
   </g>
   <g id="cell68">
  <circle cx="560.897" cy="555.36" r="8.41271" stroke-width="0.5" stroke="black" fill="cyan"/>
  <circle cx="560.897" cy="555.36" r="5.05167" stroke-width="0.5" stroke="black" fill="cyan"/>
   </g>
   <g id="cell69">
  <circle cx="437.107" cy="450.197" r="8.41166" stroke-width="0.5" stroke="black" fill="cyan"/>
  <circle cx="437.107" cy="450.197" r="5.05141" stroke-width="0.5" stroke="black" fill="cyan"/>
   </g>
   <g id="cell70">
  <circle cx="579.48" cy="475.003" r="8.20088" stroke-width="0.5" stroke="black" fill="cyan"/>
  <circle cx="579.48" cy="475.003" r="4.95562" stroke-width="0.5" stroke="black" fill="cyan"/>
   </g>
   <g id="cell71">
  <circle cx="379.847" cy="529.082" r="7.1829" stroke-width="0.5" stroke="black" fill="cyan"/>
  <circle cx="379.847" cy="529.082" r="4.38057" stroke-width="0.5" stroke="black" fill="cyan"/>
   </g>
   <g id="cell72">
  <circle cx="538.35" cy="511.252" r="8.41271" stroke-width="0.5" stroke="black" fill="cyan"/>
  <circle cx="538.35" cy="511.252" r="5.05167" stroke-width="0.5" stroke="black" fill="cyan"/>
   </g>
   <g id="cell129">
  <circle cx="419.653" cy="401.91" r="8.29331" stroke-width="0.5" stroke="black" fill="green"/>
  <circle cx="419.653" cy="401.91" r="5.0012" stroke-width="0.5" stroke="black" fill="green"/>
   </g>
   <g id="cell74">
  <circle cx="542.107" cy="443.8" r="8.41271" stroke-width="0.5" stroke="black" fill="cyan"/>
  <circle cx="542.107" cy="443.8" r="5.05167" stroke-width="0.5" stroke="black" fill="cyan"/>
   </g>
   <g id="cell75">
  <circle cx="446.26" cy="474.119" r="8.33203" stroke-width="0.5" stroke="black" fill="cyan"/>
  <circle cx="446.26" cy="474.119" r="5.01928" stroke-width="0.5" stroke="black" fill="cyan"/>
   </g>
   <g id="cell76">
  <circle cx="522.329" cy="384.275" r="8.40578" stroke-width="0.5" stroke="black" fill="magenta"/>
  <circle cx="522.329" cy="384.275" r="5.04962" stroke-width="0.5" stroke="black" fill="magenta"/>
   </g>
   <g id="cell77">
  <circle cx="494.062" cy="433.484" r="7.91887" stroke-width="0.5" stroke="black" fill="magenta"/>
  <circle cx="494.062" cy="433.484" r="4.80721" stroke-width="0.5" stroke="black" fill="magenta"/>
   </g>
   <g id="cell78">
  <circle cx="370.206" cy="465.45" r="8.41151" stroke-width="0.5" stroke="black" fill="magenta"/>
  <circle cx="370.206" cy="465.45" r="5.05137" stroke-width="0.5" stroke="black" fill="magenta"/>
   </g>
   <g id="cell79">
  <circle cx="500.004" cy="524.514" r="8.41144" stroke-width="0.5" stroke="black" fill="magenta"/>
  <circle cx="500.004" cy="524.514" r="5.05135" stroke-width="0.5" stroke="black" fill="magenta"/>
   </g>
   <g id="cell80">
  <circle cx="604.305" cy="485.499" r="8.41136" stroke-width="0.5" stroke="black" fill="green"/>
  <circle cx="604.305" cy="485.499" r="5.05133" stroke-width="0.5" stroke="black" fill="green"/>
   </g>
   <g id="cell81">
  <circle cx="430.207" cy="502.268" r="8.30929" stroke-width="0.5" stroke="black" fill="green"/>
  <circle cx="430.207" cy="502.268" r="5.00984" stroke-width="0.5" stroke="black" fill="green"/>
   </g>
   <g id="cell82">
  <circle cx="543.972" cy="496.78" r="8.41112" stroke-width="0.5" stroke="black" fill="magenta"/>
  <circle cx="543.972" cy="496.78" r="5.05126" stroke-width="0.5" stroke="black" fill="magenta"/>
   </g>
   <g id="cell130">
  <circle cx="574.268" cy="391.336" r="8.28629" stroke-width="0.5" stroke="black" fill="magenta"/>
  <circle cx="574.268" cy="391.336" r="4.99786" stroke-width="0.5" stroke="black" fill="magenta"/>
   </g>
   <g id="cell84">
  <circle cx="405.387" cy="481.312" r="8.38372" stroke-width="0.5" stroke="black" fill="green"/>
  <circle cx="405.387" cy="481.312" r="5.04154" stroke-width="0.5" stroke="black" fill="green"/>
   </g>
   <g id="cell140">
  <circle cx="528.166" cy="580.138" r="7.76626" stroke-width="0.5" stroke="black" fill="magenta"/>
  <circle cx="528.166" cy="580.138" r="4.73839" stroke-width="0.5" stroke="black" fill="magenta"/>
   </g>
   <g id="cell86">
  <circle cx="392.616" cy="564.905" r="8.38579" stroke-width="0.5" stroke="black" fill="magenta"/>
  <circle cx="392.616" cy="564.905" r="5.04237" stroke-width="0.5" stroke="black" fill="magenta"/>
   </g>
   <g id="cell87">
  <circle cx="433.735" cy="520.205" r="7.4396" stroke-width="0.5" stroke="black" fill="green"/>
  <circle cx="433.735" cy="520.205" r="4.52853" stroke-width="0.5" stroke="black" fill="green"/>
   </g>
   <g id="cell88">
  <circle cx="476.643" cy="610.884" r="8.40895" stroke-width="0.5" stroke="black" fill="green"/>
  <circle cx="476.643" cy="610.884" r="5.05061" stroke-width="0.5" stroke="black" fill="green"/>
   </g>
   <g id="cell89">
  <circle cx="436.818" cy="488.013" r="8.39983" stroke-width="0.5" stroke="black" fill="green"/>
  <circle cx="436.818" cy="488.013" r="5.04768" stroke-width="0.5" stroke="black" fill="green"/>
   </g>
   <g id="cell90">
  <circle cx="580.569" cy="511.936" r="7.23967" stroke-width="0.5" stroke="black" fill="magenta"/>
  <circle cx="580.569" cy="511.936" r="4.39848" stroke-width="0.5" stroke="black" fill="magenta"/>
   </g>
   <g id="cell136">
  <circle cx="523.505" cy="540.885" r="8.1609" stroke-width="0.5" stroke="black" fill="magenta"/>
  <circle cx="523.505" cy="540.885" r="4.93506" stroke-width="0.5" stroke="black" fill="magenta"/>
   </g>
   <g id="cell92">
  <circle cx="554.655" cy="594.584" r="8.3824" stroke-width="0.5" stroke="black" fill="green"/>
  <circle cx="554.655" cy="594.584" r="5.04141" stroke-width="0.5" stroke="black" fill="green"/>
   </g>
   <g id="cell93">
  <circle cx="573.18" cy="525.433" r="8.25619" stroke-width="0.5" stroke="black" fill="cyan"/>
  <circle cx="573.18" cy="525.433" r="4.98441" stroke-width="0.5" stroke="black" fill="cyan"/>
   </g>
   <g id="cell94">
  <circle cx="543.551" cy="470.842" r="8.407" stroke-width="0.5" stroke="black" fill="cyan"/>
  <circle cx="543.551" cy="470.842" r="5.04998" stroke-width="0.5" stroke="black" fill="cyan"/>
   </g>
   <g id="cell95">
  <circle cx="463.405" cy="536.173" r="8.407" stroke-width="0.5" stroke="black" fill="magenta"/>
  <circle cx="463.405" cy="536.173" r="5.04998" stroke-width="0.5" stroke="black" fill="magenta"/>
   </g>
   <g id="cell96">
  <circle cx="535.321" cy="376.522" r="8.40578" stroke-width="0.5" stroke="black" fill="magenta"/>
  <circle cx="535.321" cy="376.522" r="5.04962" stroke-width="0.5" stroke="black" fill="magenta"/>
   </g>
   <g id="cell97">
  <circle cx="567.289" cy="508.337" r="8.40477" stroke-width="0.5" stroke="black" fill="magenta"/>
  <circle cx="567.289" cy="508.337" r="5.0493" stroke-width="0.5" stroke="black" fill="magenta"/>
   </g>
   <g id="cell98">
  <circle cx="407.303" cy="564.955" r="7.69501" stroke-width="0.5" stroke="black" fill="green"/>
  <circle cx="407.303" cy="564.955" r="4.67647" stroke-width="0.5" stroke="black" fill="green"/>
   </g>
   <g id="cell99">
  <circle cx="574.911" cy="495.026" r="8.40353" stroke-width="0.5" stroke="black" fill="magenta"/>
  <circle cx="574.911" cy="495.026" r="5.04881" stroke-width="0.5" stroke="black" fill="magenta"/>
   </g>
   <g id="cell100">
  <circle cx="569.773" cy="541.877" r="8.40029" stroke-width="0.5" stroke="black" fill="cyan"/>
  <circle cx="569.773" cy="541.877" r="5.04783" stroke-width="0.5" stroke="black" fill="cyan"/>
   </g>
   <g id="cell101">
  <circle cx="458.807" cy="628.498" r="8.38701" stroke-width="0.5" stroke="black" fill="magenta"/>
  <circle cx="458.807" cy="628.498" r="5.04302" stroke-width="0.5" stroke="black" fill="magenta"/>
   </g>
   <g id="cell102">
  <circle cx="446.471" cy="500.5" r="8.39983" stroke-width="0.5" stroke="black" fill="green"/>
  <circle cx="446.471" cy="500.5" r="5.04768" stroke-width="0.5" stroke="black" fill="green"/>
   </g>
   <g id="cell103">
  <circle cx="541.194" cy="603.288" r="8.39716" stroke-width="0.5" stroke="black" fill="green"/>
  <circle cx="541.194" cy="603.288" r="5.04672" stroke-width="0.5" stroke="black" fill="green"/>
   </g>
   <g id="cell104">
  <circle cx="553.751" cy="541.078" r="8.39874" stroke-width="0.5" stroke="black" fill="green"/>
  <circle cx="553.751" cy="541.078" r="5.04711" stroke-width="0.5" stroke="black" fill="green"/>
   </g>
   <g id="cell105">
  <circle cx="415.882" cy="494.559" r="8.39633" stroke-width="0.5" stroke="black" fill="green"/>
  <circle cx="415.882" cy="494.559" r="5.0463" stroke-width="0.5" stroke="black" fill="green"/>
   </g>
   <g id="cell106">
  <circle cx="639.329" cy="537.934" r="8.39708" stroke-width="0.5" stroke="black" fill="green"/>
  <circle cx="639.329" cy="537.934" r="5.0465" stroke-width="0.5" stroke="black" fill="green"/>
   </g>
   <g id="cell107">
  <circle cx="383.844" cy="514.012" r="8.3926" stroke-width="0.5" stroke="black" fill="cyan"/>
  <circle cx="383.844" cy="514.012" r="5.04482" stroke-width="0.5" stroke="black" fill="cyan"/>
   </g>
   <g id="cell108">
  <circle cx="458.905" cy="643.593" r="8.38701" stroke-width="0.5" stroke="black" fill="magenta"/>
  <circle cx="458.905" cy="643.593" r="5.04302" stroke-width="0.5" stroke="black" fill="magenta"/>
   </g>
   <g id="cell109">
  <circle cx="445.802" cy="636.068" r="8.38701" stroke-width="0.5" stroke="black" fill="magenta"/>
  <circle cx="445.802" cy="636.068" r="5.04302" stroke-width="0.5" stroke="black" fill="magenta"/>
   </g>
   <g id="cell110">
  <circle cx="542.914" cy="583.742" r="8.3824" stroke-width="0.5" stroke="black" fill="green"/>
  <circle cx="542.914" cy="583.742" r="5.04141" stroke-width="0.5" stroke="black" fill="green"/>
   </g>
   <g id="cell111">
  <circle cx="629.528" cy="550.504" r="8.38236" stroke-width="0.5" stroke="black" fill="green"/>
  <circle cx="629.528" cy="550.504" r="5.0413" stroke-width="0.5" stroke="black" fill="green"/>
   </g>
   <g id="cell112">
  <circle cx="380.507" cy="573.623" r="8.38579" stroke-width="0.5" stroke="black" fill="magenta"/>
  <circle cx="380.507" cy="573.623" r="5.04237" stroke-width="0.5" stroke="black" fill="magenta"/>
   </g>
   <g id="cell113">
  <circle cx="421.146" cy="479.801" r="8.38372" stroke-width="0.5" stroke="black" fill="green"/>
  <circle cx="421.146" cy="479.801" r="5.04154" stroke-width="0.5" stroke="black" fill="green"/>
   </g>
   <g id="cell114">
  <circle cx="494.185" cy="448.01" r="8.23712" stroke-width="0.5" stroke="black" fill="magenta"/>
  <circle cx="494.185" cy="448.01" r="4.97609" stroke-width="0.5" stroke="black" fill="magenta"/>
   </g>
   <g id="cell115">
  <circle cx="451.227" cy="526.649" r="8.37558" stroke-width="0.5" stroke="black" fill="green"/>
  <circle cx="451.227" cy="526.649" r="5.03829" stroke-width="0.5" stroke="black" fill="green"/>
   </g>
   <g id="cell116">
  <circle cx="368.831" cy="519.257" r="8.36417" stroke-width="0.5" stroke="black" fill="cyan"/>
  <circle cx="368.831" cy="519.257" r="5.03408" stroke-width="0.5" stroke="black" fill="cyan"/>
   </g>
   <g id="cell117">
  <circle cx="437.994" cy="512.81" r="1.60906" stroke-width="0.5" stroke="black" fill="green"/>
  <circle cx="437.994" cy="512.81" r="1.57724" stroke-width="0.5" stroke="black" fill="black"/>
   </g>
   <g id="cell118">
  <circle cx="530.502" cy="527.472" r="8.36178" stroke-width="0.5" stroke="black" fill="cyan"/>
  <circle cx="530.502" cy="527.472" r="5.03227" stroke-width="0.5" stroke="black" fill="cyan"/>
   </g>
   <g id="cell119">
  <circle cx="527.451" cy="633.914" r="7.86405" stroke-width="0.5" stroke="black" fill="green"/>
  <circle cx="527.451" cy="633.914" r="4.77798" stroke-width="0.5" stroke="black" fill="green"/>
   </g>
   <g id="cell121">
  <circle cx="392.266" cy="550.003" r="8.3506" stroke-width="0.5" stroke="black" fill="magenta"/>
  <circle cx="392.266" cy="550.003" r="5.02771" stroke-width="0.5" stroke="black" fill="magenta"/>
   </g>
   <g id="cell122">
  <circle cx="610.319" cy="470.529" r="8.347" stroke-width="0.5" stroke="black" fill="cyan"/>
  <circle cx="610.319" cy="470.529" r="5.02586" stroke-width="0.5" stroke="black" fill="cyan"/>
   </g>
   <g id="cell123">
  <circle cx="500.368" cy="644.593" r="8.34117" stroke-width="0.5" stroke="black" fill="cyan"/>
  <circle cx="500.368" cy="644.593" r="5.02327" stroke-width="0.5" stroke="black" fill="cyan"/>
   </g>
   <g id="cell124">
  <circle cx="382.256" cy="589.307" r="8.33911" stroke-width="0.5" stroke="black" fill="green"/>
  <circle cx="382.256" cy="589.307" r="5.02235" stroke-width="0.5" stroke="black" fill="green"/>
   </g>
   <g id="cell125">
  <circle cx="450.5" cy="458.796" r="8.33203" stroke-width="0.5" stroke="black" fill="cyan"/>
  <circle cx="450.5" cy="458.796" r="5.01928" stroke-width="0.5" stroke="black" fill="cyan"/>
   </g>
   <g id="cell126">
  <circle cx="416.627" cy="510.339" r="8.30929" stroke-width="0.5" stroke="black" fill="green"/>
  <circle cx="416.627" cy="510.339" r="5.00984" stroke-width="0.5" stroke="black" fill="green"/>
   </g>
   <g id="cell127">
  <circle cx="412.751" cy="596.368" r="8.30918" stroke-width="0.5" stroke="black" fill="cyan"/>
  <circle cx="412.751" cy="596.368" r="5.00867" stroke-width="0.5" stroke="black" fill="cyan"/>
   </g>
   <g id="cell128">
  <circle cx="366.612" cy="535.09" r="8.27826" stroke-width="0.5" stroke="black" fill="cyan"/>
  <circle cx="366.612" cy="535.09" r="4.99678" stroke-width="0.5" stroke="black" fill="cyan"/>
   </g>
   <g id="cell131">
  <circle cx="584.619" cy="536.508" r="8.25619" stroke-width="0.5" stroke="black" fill="cyan"/>
  <circle cx="584.619" cy="536.508" r="4.98441" stroke-width="0.5" stroke="black" fill="cyan"/>
   </g>
   <g id="cell132">
  <circle cx="506.93" cy="440.33" r="8.23712" stroke-width="0.5" stroke="black" fill="magenta"/>
  <circle cx="506.93" cy="440.33" r="4.97609" stroke-width="0.5" stroke="black" fill="magenta"/>
   </g>
   <g id="cell133">
  <circle cx="534.09" cy="409.563" r="8.23948" stroke-width="0.5" stroke="black" fill="magenta"/>
  <circle cx="534.09" cy="409.563" r="4.97503" stroke-width="0.5" stroke="black" fill="magenta"/>
   </g>
   <g id="cell134">
  <circle cx="513.539" cy="580.47" r="7.95458" stroke-width="0.5" stroke="black" fill="magenta"/>
  <circle cx="513.539" cy="580.47" r="4.83387" stroke-width="0.5" stroke="black" fill="magenta"/>
   </g>
   <g id="cell135">
  <circle cx="566.183" cy="482.148" r="8.20088" stroke-width="0.5" stroke="black" fill="cyan"/>
  <circle cx="566.183" cy="482.148" r="4.95562" stroke-width="0.5" stroke="black" fill="cyan"/>
   </g>
   <g id="cell137">
  <circle cx="378.546" cy="477.902" r="8.11262" stroke-width="0.5" stroke="black" fill="magenta"/>
  <circle cx="378.546" cy="477.902" r="4.90989" stroke-width="0.5" stroke="black" fill="magenta"/>
   </g>
   <g id="cell138">
  <circle cx="532.49" cy="592.668" r="6.67324" stroke-width="0.5" stroke="black" fill="magenta"/>
  <circle cx="532.49" cy="592.668" r="4.10137" stroke-width="0.5" stroke="black" fill="magenta"/>
   </g>
   <g id="cell139">
  <circle cx="509.364" cy="610.031" r="7.99546" stroke-width="0.5" stroke="black" fill="green"/>
  <circle cx="509.364" cy="610.031" r="4.85094" stroke-width="0.5" stroke="black" fill="green"/>
   </g>
   <g id="cell142">
  <circle cx="585.889" cy="382.631" r="7.85207" stroke-width="0.5" stroke="black" fill="magenta"/>
  <circle cx="585.889" cy="382.631" r="4.77549" stroke-width="0.5" stroke="black" fill="magenta"/>
   </g>
   <g id="cell143">
  <circle cx="537.712" cy="623.124" r="7.86405" stroke-width="0.5" stroke="black" fill="green"/>
  <circle cx="537.712" cy="623.124" r="4.77798" stroke-width="0.5" stroke="black" fill="green"/>
   </g>
   <g id="cell144">
  <circle cx="379.363" cy="543.204" r="7.84675" stroke-width="0.5" stroke="black" fill="magenta"/>
  <circle cx="379.363" cy="543.204" r="4.7629" stroke-width="0.5" stroke="black" fill="magenta"/>
   </g>
   <g id="cell145">
  <circle cx="461.348" cy="485.29" r="7.81315" stroke-width="0.5" stroke="black" fill="magenta"/>
  <circle cx="461.348" cy="485.29" r="4.74367" stroke-width="0.5" stroke="black" fill="magenta"/>
   </g>
   <g id="cell146">
  <circle cx="467.071" cy="425.506" r="7.70049" stroke-width="0.5" stroke="black" fill="cyan"/>
  <circle cx="467.071" cy="425.506" r="4.67828" stroke-width="0.5" stroke="black" fill="cyan"/>
   </g>
   <g id="cell148">
  <circle cx="400.279" cy="604.719" r="7.52851" stroke-width="0.5" stroke="black" fill="cyan"/>
  <circle cx="400.279" cy="604.719" r="4.58705" stroke-width="0.5" stroke="black" fill="cyan"/>
   </g>
   <g id="cell149">
  <circle cx="437.932" cy="533.416" r="7.4396" stroke-width="0.5" stroke="black" fill="green"/>
  <circle cx="437.932" cy="533.416" r="4.52853" stroke-width="0.5" stroke="black" fill="green"/>
   </g>
   <g id="cell150">
  <circle cx="473.009" cy="625.435" r="7.41306" stroke-width="0.5" stroke="black" fill="green"/>
  <circle cx="473.009" cy="625.435" r="4.50648" stroke-width="0.5" stroke="black" fill="green"/>
   </g>
   <g id="cell151">
  <circle cx="523.87" cy="514.561" r="7.38797" stroke-width="0.5" stroke="black" fill="cyan"/>
  <circle cx="523.87" cy="514.561" r="4.49029" stroke-width="0.5" stroke="black" fill="cyan"/>
   </g>
   <g id="cell152">
  <circle cx="644.085" cy="553.316" r="7.28204" stroke-width="0.5" stroke="black" fill="green"/>
  <circle cx="644.085" cy="553.316" r="4.42967" stroke-width="0.5" stroke="black" fill="green"/>
   </g>
   <g id="cell153">
  <circle cx="392.91" cy="525.656" r="7.1829" stroke-width="0.5" stroke="black" fill="cyan"/>
  <circle cx="392.91" cy="525.656" r="4.38057" stroke-width="0.5" stroke="black" fill="cyan"/>
   </g>
   <g id="cell154">
  <circle cx="587.594" cy="501.093" r="7.23967" stroke-width="0.5" stroke="black" fill="magenta"/>
  <circle cx="587.594" cy="501.093" r="4.39848" stroke-width="0.5" stroke="black" fill="magenta"/>
   </g>
   <g id="cell156">
  <circle cx="406.542" cy="550.742" r="6.88992" stroke-width="0.5" stroke="black" fill="green"/>
  <circle cx="406.542" cy="550.742" r="4.16801" stroke-width="0.5" stroke="black" fill="green"/>
   </g>
   <g id="cell157">
  <circle cx="391.827" cy="476.103" r="6.67426" stroke-width="0.5" stroke="black" fill="magenta"/>
  <circle cx="391.827" cy="476.103" r="4.0644" stroke-width="0.5" stroke="black" fill="magenta"/>
   </g>
   <g id="cell158">
  <circle cx="433.339" cy="475.613" r="5.62093" stroke-width="0.5" stroke="black" fill="green"/>
  <circle cx="433.339" cy="475.613" r="3.41745" stroke-width="0.5" stroke="black" fill="green"/>
   </g>
   <g id="cell159">
  <circle cx="434.36" cy="465.299" r="5.62093" stroke-width="0.5" stroke="black" fill="green"/>
  <circle cx="434.36" cy="465.299" r="3.41745" stroke-width="0.5" stroke="black" fill="green"/>
   </g>
   <g id="cell160">
  <circle cx="416.447" cy="556.279" r="5.49191" stroke-width="0.5" stroke="black" fill="green"/>
  <circle cx="416.447" cy="556.279" r="3.32427" stroke-width="0.5" stroke="black" fill="green"/>
   </g>
   <g id="cell161">
  <circle cx="533.239" cy="462.928" r="6.68837" stroke-width="0.5" stroke="black" fill="cyan"/>
  <circle cx="533.239" cy="462.928" r="4.01918" stroke-width="0.5" stroke="black" fill="cyan"/>
   </g>
  </g>
 </g>
  <rect x="775" y="1035" width="200" height="10" stroke-width="2" stroke="rgb(255,255,255)" fill="rgb(0,0,0)"/>
  <text x="781.25" y="1028.75"
   font-family="Arial" font-size="25" fill="black" >
   200 &#956;m
  </text>
  <text x="25" y="1045"
   font-family="Arial" font-size="18.75" fill="black" >
   0 days, 0 hours, 0 minutes, and 35.9205 seconds
  </text>
  <rect x="0" y="70" width="1000" height="1000" stroke-width="2" stroke="rgb(0,0,0)" fill="none"/>
</svg>
