<?xml version="1.0" encoding="UTF-8" standalone="no"?>
<!-- Created with PhysiCell (http://PhysiCell.MathCancer.org/) -->
<svg 
 xmlns:dc="http://purl.org/dc/elements/1.1/" 
 xmlns:cc="http://creativecommons.org/ns#" 
 xmlns:rdf="http://www.w3.org/1999/02/22-rdf-syntax-ns#" 
 xmlns:svg="http://www.w3.org/2000/svg" 
 xmlns="http://www.w3.org/2000/svg" 
 version="1.1" 
 width="1000" 
 height="1070" 
 id="svg2">
  <rect x="0" y="0" width="1000" height="1070" stroke-width="2" stroke="white" fill="white"/>
  <text x="12.5" y="30"
   font-family="Arial" font-size="25" fill="black" >
   Current time: 1 days, 15 hours, and 30.00 minutes, z = 0.00 &#956;m
  </text>
  <text x="12.5" y="57.5"
   font-family="Arial" font-size="23.75" fill="black" >
   215 agents
  </text>
 <g id="tissue" 
    transform="translate(0,1070) scale(1,-1)">
  <g id="ECM">
  </g>
  <g id="cells">
   <g id="cell0">
  <circle cx="510.3" cy="534.06" r="8.41267" stroke-width="0.5" stroke="black" fill="magenta"/>
  <circle cx="510.3" cy="534.06" r="5.05166" stroke-width="0.5" stroke="black" fill="magenta"/>
   </g>
   <g id="cell147">
  <circle cx="421.982" cy="578.024" r="8.39246" stroke-width="0.5" stroke="black" fill="green"/>
  <circle cx="421.982" cy="578.024" r="5.04478" stroke-width="0.5" stroke="black" fill="green"/>
   </g>
   <g id="cell2">
  <circle cx="505.555" cy="590.9" r="6.98667" stroke-width="0.5" stroke="black" fill="magenta"/>
  <circle cx="505.555" cy="590.9" r="4.23372" stroke-width="0.5" stroke="black" fill="magenta"/>
   </g>
   <g id="cell3">
  <circle cx="537.583" cy="546.329" r="8.40537" stroke-width="0.5" stroke="black" fill="magenta"/>
  <circle cx="537.583" cy="546.329" r="5.04944" stroke-width="0.5" stroke="black" fill="magenta"/>
   </g>
   <g id="cell4">
  <circle cx="451.594" cy="427.558" r="8.41267" stroke-width="0.5" stroke="black" fill="magenta"/>
  <circle cx="451.594" cy="427.558" r="5.05166" stroke-width="0.5" stroke="black" fill="magenta"/>
   </g>
   <g id="cell5">
  <circle cx="467.22" cy="500.816" r="8.39571" stroke-width="0.5" stroke="black" fill="magenta"/>
  <circle cx="467.22" cy="500.816" r="5.04599" stroke-width="0.5" stroke="black" fill="magenta"/>
   </g>
   <g id="cell6">
  <circle cx="591.551" cy="516.936" r="8.41258" stroke-width="0.5" stroke="black" fill="magenta"/>
  <circle cx="591.551" cy="516.936" r="5.05164" stroke-width="0.5" stroke="black" fill="magenta"/>
   </g>
   <g id="cell7">
  <circle cx="512.192" cy="458.366" r="8.41271" stroke-width="0.5" stroke="black" fill="magenta"/>
  <circle cx="512.192" cy="458.366" r="5.05167" stroke-width="0.5" stroke="black" fill="magenta"/>
   </g>
   <g id="cell8">
  <circle cx="358.919" cy="545.817" r="7.53438" stroke-width="0.5" stroke="black" fill="magenta"/>
  <circle cx="358.919" cy="545.817" r="4.58205" stroke-width="0.5" stroke="black" fill="magenta"/>
   </g>
   <g id="cell9">
  <circle cx="461.535" cy="601.547" r="8.41257" stroke-width="0.5" stroke="black" fill="magenta"/>
  <circle cx="461.535" cy="601.547" r="5.05164" stroke-width="0.5" stroke="black" fill="magenta"/>
   </g>
   <g id="cell10">
  <circle cx="588.323" cy="395.678" r="8.39685" stroke-width="0.5" stroke="black" fill="magenta"/>
  <circle cx="588.323" cy="395.678" r="5.04657" stroke-width="0.5" stroke="black" fill="magenta"/>
   </g>
   <g id="cell11">
  <circle cx="589.748" cy="590.273" r="8.41271" stroke-width="0.5" stroke="black" fill="magenta"/>
  <circle cx="589.748" cy="590.273" r="5.05167" stroke-width="0.5" stroke="black" fill="magenta"/>
   </g>
   <g id="cell12">
  <circle cx="496.872" cy="580.038" r="8.41271" stroke-width="0.5" stroke="black" fill="magenta"/>
  <circle cx="496.872" cy="580.038" r="5.05167" stroke-width="0.5" stroke="black" fill="magenta"/>
   </g>
   <g id="cell13">
  <circle cx="380.012" cy="558.455" r="8.41083" stroke-width="0.5" stroke="black" fill="magenta"/>
  <circle cx="380.012" cy="558.455" r="5.05118" stroke-width="0.5" stroke="black" fill="magenta"/>
   </g>
   <g id="cell14">
  <circle cx="529.98" cy="395.468" r="8.33857" stroke-width="0.5" stroke="black" fill="magenta"/>
  <circle cx="529.98" cy="395.468" r="5.02251" stroke-width="0.5" stroke="black" fill="magenta"/>
   </g>
   <g id="cell15">
  <circle cx="382.423" cy="491.554" r="6.37694" stroke-width="0.5" stroke="black" fill="magenta"/>
  <circle cx="382.423" cy="491.554" r="3.89476" stroke-width="0.5" stroke="black" fill="magenta"/>
   </g>
   <g id="cell16">
  <circle cx="427.148" cy="420.382" r="8.41271" stroke-width="0.5" stroke="black" fill="magenta"/>
  <circle cx="427.148" cy="420.382" r="5.05167" stroke-width="0.5" stroke="black" fill="magenta"/>
   </g>
   <g id="cell17">
  <circle cx="577.781" cy="483.759" r="8.41242" stroke-width="0.5" stroke="black" fill="magenta"/>
  <circle cx="577.781" cy="483.759" r="5.05161" stroke-width="0.5" stroke="black" fill="magenta"/>
   </g>
   <g id="cell18">
  <circle cx="515.143" cy="392.437" r="8.41268" stroke-width="0.5" stroke="black" fill="magenta"/>
  <circle cx="515.143" cy="392.437" r="5.05166" stroke-width="0.5" stroke="black" fill="magenta"/>
   </g>
   <g id="cell19">
  <circle cx="456.364" cy="541.983" r="8.41253" stroke-width="0.5" stroke="black" fill="magenta"/>
  <circle cx="456.364" cy="541.983" r="5.05163" stroke-width="0.5" stroke="black" fill="magenta"/>
   </g>
   <g id="cell20">
  <circle cx="524.243" cy="420.875" r="8.41271" stroke-width="0.5" stroke="black" fill="magenta"/>
  <circle cx="524.243" cy="420.875" r="5.05167" stroke-width="0.5" stroke="black" fill="magenta"/>
   </g>
   <g id="cell141">
  <circle cx="494.087" cy="439.514" r="8.20143" stroke-width="0.5" stroke="black" fill="magenta"/>
  <circle cx="494.087" cy="439.514" r="4.9605" stroke-width="0.5" stroke="black" fill="magenta"/>
   </g>
   <g id="cell22">
  <circle cx="558.469" cy="496.967" r="8.41246" stroke-width="0.5" stroke="black" fill="magenta"/>
  <circle cx="558.469" cy="496.967" r="5.05162" stroke-width="0.5" stroke="black" fill="magenta"/>
   </g>
   <g id="cell23">
  <circle cx="532.427" cy="492.559" r="6.95901" stroke-width="0.5" stroke="black" fill="magenta"/>
  <circle cx="532.427" cy="492.559" r="4.21341" stroke-width="0.5" stroke="black" fill="magenta"/>
   </g>
   <g id="cell24">
  <circle cx="566.795" cy="380.743" r="8.41271" stroke-width="0.5" stroke="black" fill="magenta"/>
  <circle cx="566.795" cy="380.743" r="5.05167" stroke-width="0.5" stroke="black" fill="magenta"/>
   </g>
   <g id="cell25">
  <circle cx="654.017" cy="565.039" r="8.38071" stroke-width="0.5" stroke="black" fill="green"/>
  <circle cx="654.017" cy="565.039" r="5.04022" stroke-width="0.5" stroke="black" fill="green"/>
   </g>
   <g id="cell26">
  <circle cx="545.282" cy="398.496" r="8.41271" stroke-width="0.5" stroke="black" fill="green"/>
  <circle cx="545.282" cy="398.496" r="5.05167" stroke-width="0.5" stroke="black" fill="green"/>
   </g>
   <g id="cell27">
  <circle cx="453.165" cy="387.609" r="1.59431" stroke-width="0.5" stroke="black" fill="green"/>
  <circle cx="453.165" cy="387.609" r="1.56296" stroke-width="0.5" stroke="black" fill="black"/>
   </g>
   <g id="cell28">
  <circle cx="445.15" cy="552.552" r="8.41271" stroke-width="0.5" stroke="black" fill="green"/>
  <circle cx="445.15" cy="552.552" r="5.05167" stroke-width="0.5" stroke="black" fill="green"/>
   </g>
   <g id="cell29">
  <circle cx="466.089" cy="516.603" r="8.41157" stroke-width="0.5" stroke="black" fill="green"/>
  <circle cx="466.089" cy="516.603" r="5.05139" stroke-width="0.5" stroke="black" fill="green"/>
   </g>
   <g id="cell30">
  <circle cx="483.16" cy="537.055" r="8.41271" stroke-width="0.5" stroke="black" fill="green"/>
  <circle cx="483.16" cy="537.055" r="5.05167" stroke-width="0.5" stroke="black" fill="green"/>
   </g>
   <g id="cell31">
  <circle cx="406.57" cy="532.522" r="8.16806" stroke-width="0.5" stroke="black" fill="green"/>
  <circle cx="406.57" cy="532.522" r="4.93877" stroke-width="0.5" stroke="black" fill="green"/>
   </g>
   <g id="cell32">
  <circle cx="423.419" cy="451.423" r="8.36453" stroke-width="0.5" stroke="black" fill="green"/>
  <circle cx="423.419" cy="451.423" r="5.03345" stroke-width="0.5" stroke="black" fill="green"/>
   </g>
   <g id="cell33">
  <circle cx="500.677" cy="413.474" r="8.41262" stroke-width="0.5" stroke="black" fill="green"/>
  <circle cx="500.677" cy="413.474" r="5.05165" stroke-width="0.5" stroke="black" fill="green"/>
   </g>
   <g id="cell34">
  <circle cx="390.059" cy="455.129" r="8.4126" stroke-width="0.5" stroke="black" fill="green"/>
  <circle cx="390.059" cy="455.129" r="5.05165" stroke-width="0.5" stroke="black" fill="green"/>
   </g>
   <g id="cell35">
  <circle cx="547.868" cy="558.094" r="8.41228" stroke-width="0.5" stroke="black" fill="green"/>
  <circle cx="547.868" cy="558.094" r="5.05157" stroke-width="0.5" stroke="black" fill="green"/>
   </g>
   <g id="cell36">
  <circle cx="392.139" cy="582.458" r="8.41049" stroke-width="0.5" stroke="black" fill="green"/>
  <circle cx="392.139" cy="582.458" r="5.05108" stroke-width="0.5" stroke="black" fill="green"/>
   </g>
   <g id="cell174">
  <circle cx="478.822" cy="619.141" r="8.31203" stroke-width="0.5" stroke="black" fill="green"/>
  <circle cx="478.822" cy="619.141" r="5.01001" stroke-width="0.5" stroke="black" fill="green"/>
   </g>
   <g id="cell38">
  <circle cx="525.58" cy="605.977" r="8.41254" stroke-width="0.5" stroke="black" fill="green"/>
  <circle cx="525.58" cy="605.977" r="5.05163" stroke-width="0.5" stroke="black" fill="green"/>
   </g>
   <g id="cell39">
  <circle cx="619.863" cy="500.708" r="8.33023" stroke-width="0.5" stroke="black" fill="green"/>
  <circle cx="619.863" cy="500.708" r="5.01836" stroke-width="0.5" stroke="black" fill="green"/>
   </g>
   <g id="cell40">
  <circle cx="484.18" cy="570.7" r="8.41271" stroke-width="0.5" stroke="black" fill="green"/>
  <circle cx="484.18" cy="570.7" r="5.05167" stroke-width="0.5" stroke="black" fill="green"/>
   </g>
   <g id="cell41">
  <circle cx="360.393" cy="481.183" r="8.41271" stroke-width="0.5" stroke="black" fill="green"/>
  <circle cx="360.393" cy="481.183" r="5.05167" stroke-width="0.5" stroke="black" fill="green"/>
   </g>
   <g id="cell176">
  <circle cx="469.623" cy="445.942" r="8.2283" stroke-width="0.5" stroke="black" fill="magenta"/>
  <circle cx="469.623" cy="445.942" r="4.97365" stroke-width="0.5" stroke="black" fill="magenta"/>
   </g>
   <g id="cell43">
  <circle cx="558.191" cy="445.615" r="8.41271" stroke-width="0.5" stroke="black" fill="green"/>
  <circle cx="558.191" cy="445.615" r="5.05167" stroke-width="0.5" stroke="black" fill="green"/>
   </g>
   <g id="cell44">
  <circle cx="489.057" cy="631.303" r="8.38448" stroke-width="0.5" stroke="black" fill="green"/>
  <circle cx="489.057" cy="631.303" r="5.04167" stroke-width="0.5" stroke="black" fill="green"/>
   </g>
   <g id="cell45">
  <circle cx="435.503" cy="565.046" r="8.31017" stroke-width="0.5" stroke="black" fill="green"/>
  <circle cx="435.503" cy="565.046" r="5.01193" stroke-width="0.5" stroke="black" fill="green"/>
   </g>
   <g id="cell46">
  <circle cx="518.654" cy="620.308" r="8.40075" stroke-width="0.5" stroke="black" fill="green"/>
  <circle cx="518.654" cy="620.308" r="5.04791" stroke-width="0.5" stroke="black" fill="green"/>
   </g>
   <g id="cell47">
  <circle cx="493.713" cy="513.029" r="8.41271" stroke-width="0.5" stroke="black" fill="green"/>
  <circle cx="493.713" cy="513.029" r="5.05167" stroke-width="0.5" stroke="black" fill="green"/>
   </g>
   <g id="cell48">
  <circle cx="566.68" cy="603.936" r="8.41271" stroke-width="0.5" stroke="black" fill="green"/>
  <circle cx="566.68" cy="603.936" r="5.05167" stroke-width="0.5" stroke="black" fill="green"/>
   </g>
   <g id="cell49">
  <circle cx="439.12" cy="384.841" r="2.51477" stroke-width="0.5" stroke="black" fill="green"/>
  <circle cx="439.12" cy="384.841" r="2.02566" stroke-width="0.5" stroke="black" fill="black"/>
   </g>
   <g id="cell50">
  <circle cx="507.443" cy="488.706" r="7.98485" stroke-width="0.5" stroke="black" fill="cyan"/>
  <circle cx="507.443" cy="488.706" r="4.84893" stroke-width="0.5" stroke="black" fill="cyan"/>
   </g>
   <g id="cell51">
  <circle cx="385.834" cy="603.3" r="8.38801" stroke-width="0.5" stroke="black" fill="cyan"/>
  <circle cx="385.834" cy="603.3" r="5.04322" stroke-width="0.5" stroke="black" fill="cyan"/>
   </g>
   <g id="cell120">
  <circle cx="417.302" cy="610.523" r="8.41108" stroke-width="0.5" stroke="black" fill="cyan"/>
  <circle cx="417.302" cy="610.523" r="5.05125" stroke-width="0.5" stroke="black" fill="cyan"/>
   </g>
   <g id="cell53">
  <circle cx="571.109" cy="436.134" r="8.41271" stroke-width="0.5" stroke="black" fill="cyan"/>
  <circle cx="571.109" cy="436.134" r="5.05167" stroke-width="0.5" stroke="black" fill="cyan"/>
   </g>
   <g id="cell54">
  <circle cx="489.717" cy="424.718" r="8.3926" stroke-width="0.5" stroke="black" fill="cyan"/>
  <circle cx="489.717" cy="424.718" r="5.04482" stroke-width="0.5" stroke="black" fill="cyan"/>
   </g>
   <g id="cell55">
  <circle cx="521.463" cy="485.203" r="7.30216" stroke-width="0.5" stroke="black" fill="cyan"/>
  <circle cx="521.463" cy="485.203" r="4.43696" stroke-width="0.5" stroke="black" fill="cyan"/>
   </g>
   <g id="cell56">
  <circle cx="626.98" cy="520.945" r="8.00159" stroke-width="0.5" stroke="black" fill="cyan"/>
  <circle cx="626.98" cy="520.945" r="4.85965" stroke-width="0.5" stroke="black" fill="cyan"/>
   </g>
   <g id="cell57">
  <circle cx="418.481" cy="626.522" r="8.41108" stroke-width="0.5" stroke="black" fill="cyan"/>
  <circle cx="418.481" cy="626.522" r="5.05125" stroke-width="0.5" stroke="black" fill="cyan"/>
   </g>
   <g id="cell58">
  <circle cx="547.076" cy="485.236" r="8.41271" stroke-width="0.5" stroke="black" fill="cyan"/>
  <circle cx="547.076" cy="485.236" r="5.05167" stroke-width="0.5" stroke="black" fill="cyan"/>
   </g>
   <g id="cell59">
  <circle cx="385.447" cy="439.795" r="8.41271" stroke-width="0.5" stroke="black" fill="cyan"/>
  <circle cx="385.447" cy="439.795" r="5.05167" stroke-width="0.5" stroke="black" fill="cyan"/>
   </g>
   <g id="cell60">
  <circle cx="602.578" cy="466.043" r="8.08505" stroke-width="0.5" stroke="black" fill="cyan"/>
  <circle cx="602.578" cy="466.043" r="4.8953" stroke-width="0.5" stroke="black" fill="cyan"/>
   </g>
   <g id="cell155">
  <circle cx="519.271" cy="591.801" r="8.36629" stroke-width="0.5" stroke="black" fill="magenta"/>
  <circle cx="519.271" cy="591.801" r="5.03509" stroke-width="0.5" stroke="black" fill="magenta"/>
   </g>
   <g id="cell62">
  <circle cx="521.471" cy="435.926" r="8.41271" stroke-width="0.5" stroke="black" fill="cyan"/>
  <circle cx="521.471" cy="435.926" r="5.05167" stroke-width="0.5" stroke="black" fill="cyan"/>
   </g>
   <g id="cell63">
  <circle cx="582.777" cy="558.677" r="8.41254" stroke-width="0.5" stroke="black" fill="cyan"/>
  <circle cx="582.777" cy="558.677" r="5.05163" stroke-width="0.5" stroke="black" fill="cyan"/>
   </g>
   <g id="cell64">
  <circle cx="509.892" cy="633.66" r="8.41055" stroke-width="0.5" stroke="black" fill="cyan"/>
  <circle cx="509.892" cy="633.66" r="5.05109" stroke-width="0.5" stroke="black" fill="cyan"/>
   </g>
   <g id="cell65">
  <circle cx="534.637" cy="442.197" r="7.01393" stroke-width="0.5" stroke="black" fill="cyan"/>
  <circle cx="534.637" cy="442.197" r="4.26151" stroke-width="0.5" stroke="black" fill="cyan"/>
   </g>
   <g id="cell66">
  <circle cx="550.222" cy="521.554" r="8.41116" stroke-width="0.5" stroke="black" fill="cyan"/>
  <circle cx="550.222" cy="521.554" r="5.05127" stroke-width="0.5" stroke="black" fill="cyan"/>
   </g>
   <g id="cell67">
  <circle cx="353.1" cy="495.593" r="8.41271" stroke-width="0.5" stroke="black" fill="cyan"/>
  <circle cx="353.1" cy="495.593" r="5.05167" stroke-width="0.5" stroke="black" fill="cyan"/>
   </g>
   <g id="cell68">
  <circle cx="567.822" cy="555.775" r="7.89373" stroke-width="0.5" stroke="black" fill="cyan"/>
  <circle cx="567.822" cy="555.775" r="4.78957" stroke-width="0.5" stroke="black" fill="cyan"/>
   </g>
   <g id="cell69">
  <circle cx="440.597" cy="439.058" r="8.41268" stroke-width="0.5" stroke="black" fill="cyan"/>
  <circle cx="440.597" cy="439.058" r="5.05166" stroke-width="0.5" stroke="black" fill="cyan"/>
   </g>
   <g id="cell70">
  <circle cx="573.546" cy="469.115" r="8.4065" stroke-width="0.5" stroke="black" fill="cyan"/>
  <circle cx="573.546" cy="469.115" r="5.04982" stroke-width="0.5" stroke="black" fill="cyan"/>
   </g>
   <g id="cell71">
  <circle cx="380.754" cy="528.382" r="2.41616" stroke-width="0.5" stroke="black" fill="cyan"/>
  <circle cx="380.754" cy="528.382" r="2.16824" stroke-width="0.5" stroke="black" fill="black"/>
   </g>
   <g id="cell72">
  <circle cx="536.155" cy="514.155" r="8.41271" stroke-width="0.5" stroke="black" fill="cyan"/>
  <circle cx="536.155" cy="514.155" r="5.05167" stroke-width="0.5" stroke="black" fill="cyan"/>
   </g>
   <g id="cell129">
  <circle cx="411.386" cy="406.717" r="8.40915" stroke-width="0.5" stroke="black" fill="green"/>
  <circle cx="411.386" cy="406.717" r="5.05067" stroke-width="0.5" stroke="black" fill="green"/>
   </g>
   <g id="cell221">
  <circle cx="533.647" cy="480.221" r="6.95901" stroke-width="0.5" stroke="black" fill="magenta"/>
  <circle cx="533.647" cy="480.221" r="4.21341" stroke-width="0.5" stroke="black" fill="magenta"/>
   </g>
   <g id="cell75">
  <circle cx="444.64" cy="483.889" r="8.07269" stroke-width="0.5" stroke="black" fill="cyan"/>
  <circle cx="444.64" cy="483.889" r="4.89836" stroke-width="0.5" stroke="black" fill="cyan"/>
   </g>
   <g id="cell76">
  <circle cx="510.743" cy="378.21" r="8.1749" stroke-width="0.5" stroke="black" fill="magenta"/>
  <circle cx="510.743" cy="378.21" r="4.94234" stroke-width="0.5" stroke="black" fill="magenta"/>
   </g>
   <g id="cell77">
  <circle cx="504.857" cy="428.83" r="8.39863" stroke-width="0.5" stroke="black" fill="magenta"/>
  <circle cx="504.857" cy="428.83" r="5.04712" stroke-width="0.5" stroke="black" fill="magenta"/>
   </g>
   <g id="cell78">
  <circle cx="375.099" cy="459.659" r="7.72054" stroke-width="0.5" stroke="black" fill="magenta"/>
  <circle cx="375.099" cy="459.659" r="4.69002" stroke-width="0.5" stroke="black" fill="magenta"/>
   </g>
   <g id="cell79">
  <circle cx="496.23" cy="528.497" r="8.41267" stroke-width="0.5" stroke="black" fill="magenta"/>
  <circle cx="496.23" cy="528.497" r="5.05166" stroke-width="0.5" stroke="black" fill="magenta"/>
   </g>
   <g id="cell80">
  <circle cx="615.634" cy="486.855" r="7.42476" stroke-width="0.5" stroke="black" fill="green"/>
  <circle cx="615.634" cy="486.855" r="4.52181" stroke-width="0.5" stroke="black" fill="green"/>
   </g>
   <g id="cell81">
  <circle cx="424.883" cy="507.981" r="8.40961" stroke-width="0.5" stroke="black" fill="green"/>
  <circle cx="424.883" cy="507.981" r="5.05083" stroke-width="0.5" stroke="black" fill="green"/>
   </g>
   <g id="cell82">
  <circle cx="543.711" cy="500.387" r="8.41266" stroke-width="0.5" stroke="black" fill="magenta"/>
  <circle cx="543.711" cy="500.387" r="5.05166" stroke-width="0.5" stroke="black" fill="magenta"/>
   </g>
   <g id="cell130">
  <circle cx="573.248" cy="394.438" r="8.40895" stroke-width="0.5" stroke="black" fill="magenta"/>
  <circle cx="573.248" cy="394.438" r="5.05061" stroke-width="0.5" stroke="black" fill="magenta"/>
   </g>
   <g id="cell84">
  <circle cx="403.813" cy="483.511" r="8.41182" stroke-width="0.5" stroke="black" fill="green"/>
  <circle cx="403.813" cy="483.511" r="5.05146" stroke-width="0.5" stroke="black" fill="green"/>
   </g>
   <g id="cell140">
  <circle cx="527.571" cy="579.116" r="8.39469" stroke-width="0.5" stroke="black" fill="magenta"/>
  <circle cx="527.571" cy="579.116" r="5.04596" stroke-width="0.5" stroke="black" fill="magenta"/>
   </g>
   <g id="cell86">
  <circle cx="392.443" cy="567.204" r="8.41188" stroke-width="0.5" stroke="black" fill="magenta"/>
  <circle cx="392.443" cy="567.204" r="5.05147" stroke-width="0.5" stroke="black" fill="magenta"/>
   </g>
   <g id="cell87">
  <circle cx="432.768" cy="522.558" r="8.38537" stroke-width="0.5" stroke="black" fill="green"/>
  <circle cx="432.768" cy="522.558" r="5.04211" stroke-width="0.5" stroke="black" fill="green"/>
   </g>
   <g id="cell88">
  <circle cx="476.227" cy="604.128" r="7.7002" stroke-width="0.5" stroke="black" fill="green"/>
  <circle cx="476.227" cy="604.128" r="4.68761" stroke-width="0.5" stroke="black" fill="green"/>
   </g>
   <g id="cell89">
  <circle cx="430.045" cy="492.459" r="8.41231" stroke-width="0.5" stroke="black" fill="green"/>
  <circle cx="430.045" cy="492.459" r="5.05158" stroke-width="0.5" stroke="black" fill="green"/>
   </g>
   <g id="cell90">
  <circle cx="576.811" cy="512.259" r="8.37929" stroke-width="0.5" stroke="black" fill="magenta"/>
  <circle cx="576.811" cy="512.259" r="5.03959" stroke-width="0.5" stroke="black" fill="magenta"/>
   </g>
   <g id="cell136">
  <circle cx="524.194" cy="539.721" r="8.40537" stroke-width="0.5" stroke="black" fill="magenta"/>
  <circle cx="524.194" cy="539.721" r="5.04944" stroke-width="0.5" stroke="black" fill="magenta"/>
   </g>
   <g id="cell92">
  <circle cx="561.327" cy="589.046" r="8.41178" stroke-width="0.5" stroke="black" fill="green"/>
  <circle cx="561.327" cy="589.046" r="5.05145" stroke-width="0.5" stroke="black" fill="green"/>
   </g>
   <g id="cell93">
  <circle cx="580.438" cy="526.658" r="8.05398" stroke-width="0.5" stroke="black" fill="cyan"/>
  <circle cx="580.438" cy="526.658" r="4.87891" stroke-width="0.5" stroke="black" fill="cyan"/>
   </g>
   <g id="cell94">
  <circle cx="541.834" cy="468.796" r="8.41253" stroke-width="0.5" stroke="black" fill="cyan"/>
  <circle cx="541.834" cy="468.796" r="5.05163" stroke-width="0.5" stroke="black" fill="cyan"/>
   </g>
   <g id="cell95">
  <circle cx="468.259" cy="532.318" r="8.41253" stroke-width="0.5" stroke="black" fill="magenta"/>
  <circle cx="468.259" cy="532.318" r="5.05163" stroke-width="0.5" stroke="black" fill="magenta"/>
   </g>
   <g id="cell96">
  <circle cx="539.773" cy="383.956" r="8.41249" stroke-width="0.5" stroke="black" fill="magenta"/>
  <circle cx="539.773" cy="383.956" r="5.05162" stroke-width="0.5" stroke="black" fill="magenta"/>
   </g>
   <g id="cell97">
  <circle cx="567.566" cy="506.635" r="3.27731" stroke-width="0.5" stroke="black" fill="magenta"/>
  <circle cx="567.566" cy="506.635" r="2.58715" stroke-width="0.5" stroke="black" fill="black"/>
   </g>
   <g id="cell98">
  <circle cx="406.223" cy="574.628" r="8.39246" stroke-width="0.5" stroke="black" fill="green"/>
  <circle cx="406.223" cy="574.628" r="5.04478" stroke-width="0.5" stroke="black" fill="green"/>
   </g>
   <g id="cell99">
  <circle cx="573.569" cy="497.911" r="8.41242" stroke-width="0.5" stroke="black" fill="magenta"/>
  <circle cx="573.569" cy="497.911" r="5.05161" stroke-width="0.5" stroke="black" fill="magenta"/>
   </g>
   <g id="cell100">
  <circle cx="573.659" cy="538.348" r="6.92736" stroke-width="0.5" stroke="black" fill="cyan"/>
  <circle cx="573.659" cy="538.348" r="4.19173" stroke-width="0.5" stroke="black" fill="cyan"/>
   </g>
   <g id="cell101">
  <circle cx="459.092" cy="628.727" r="8.07611" stroke-width="0.5" stroke="black" fill="magenta"/>
  <circle cx="459.092" cy="628.727" r="4.89035" stroke-width="0.5" stroke="black" fill="magenta"/>
   </g>
   <g id="cell102">
  <circle cx="444.991" cy="515.778" r="6.86622" stroke-width="0.5" stroke="black" fill="green"/>
  <circle cx="444.991" cy="515.778" r="4.14876" stroke-width="0.5" stroke="black" fill="green"/>
   </g>
   <g id="cell103">
  <circle cx="558.999" cy="617.728" r="8.31466" stroke-width="0.5" stroke="black" fill="green"/>
  <circle cx="558.999" cy="617.728" r="5.01128" stroke-width="0.5" stroke="black" fill="green"/>
   </g>
   <g id="cell104">
  <circle cx="549.97" cy="537.32" r="8.41228" stroke-width="0.5" stroke="black" fill="green"/>
  <circle cx="549.97" cy="537.32" r="5.05157" stroke-width="0.5" stroke="black" fill="green"/>
   </g>
   <g id="cell105">
  <circle cx="414.687" cy="495.086" r="8.4122" stroke-width="0.5" stroke="black" fill="green"/>
  <circle cx="414.687" cy="495.086" r="5.05155" stroke-width="0.5" stroke="black" fill="green"/>
   </g>
   <g id="cell106">
  <circle cx="650.996" cy="528.942" r="8.27072" stroke-width="0.5" stroke="black" fill="green"/>
  <circle cx="650.996" cy="528.942" r="4.99042" stroke-width="0.5" stroke="black" fill="green"/>
   </g>
   <g id="cell107">
  <circle cx="383.316" cy="510.889" r="8.41209" stroke-width="0.5" stroke="black" fill="cyan"/>
  <circle cx="383.316" cy="510.889" r="5.05152" stroke-width="0.5" stroke="black" fill="cyan"/>
   </g>
   <g id="cell108">
  <circle cx="460.908" cy="643.449" r="8.41192" stroke-width="0.5" stroke="black" fill="magenta"/>
  <circle cx="460.908" cy="643.449" r="5.05148" stroke-width="0.5" stroke="black" fill="magenta"/>
   </g>
   <g id="cell109">
  <circle cx="447.033" cy="637.368" r="8.41192" stroke-width="0.5" stroke="black" fill="magenta"/>
  <circle cx="447.033" cy="637.368" r="5.05148" stroke-width="0.5" stroke="black" fill="magenta"/>
   </g>
   <g id="cell110">
  <circle cx="532.247" cy="565.514" r="6.58224" stroke-width="0.5" stroke="black" fill="green"/>
  <circle cx="532.247" cy="565.514" r="3.98858" stroke-width="0.5" stroke="black" fill="green"/>
   </g>
   <g id="cell111">
  <circle cx="628.213" cy="560.123" r="8.41178" stroke-width="0.5" stroke="black" fill="green"/>
  <circle cx="628.213" cy="560.123" r="5.05145" stroke-width="0.5" stroke="black" fill="green"/>
   </g>
   <g id="cell112">
  <circle cx="378.936" cy="573.729" r="8.41188" stroke-width="0.5" stroke="black" fill="magenta"/>
  <circle cx="378.936" cy="573.729" r="5.05147" stroke-width="0.5" stroke="black" fill="magenta"/>
   </g>
   <g id="cell113">
  <circle cx="418.229" cy="479.091" r="8.41182" stroke-width="0.5" stroke="black" fill="green"/>
  <circle cx="418.229" cy="479.091" r="5.05146" stroke-width="0.5" stroke="black" fill="green"/>
   </g>
   <g id="cell114">
  <circle cx="497.74" cy="454.193" r="8.40752" stroke-width="0.5" stroke="black" fill="magenta"/>
  <circle cx="497.74" cy="454.193" r="5.05019" stroke-width="0.5" stroke="black" fill="magenta"/>
   </g>
   <g id="cell115">
  <circle cx="453.793" cy="526.914" r="8.41157" stroke-width="0.5" stroke="black" fill="green"/>
  <circle cx="453.793" cy="526.914" r="5.05139" stroke-width="0.5" stroke="black" fill="green"/>
   </g>
   <g id="cell116">
  <circle cx="368.405" cy="516.91" r="8.41123" stroke-width="0.5" stroke="black" fill="cyan"/>
  <circle cx="368.405" cy="516.91" r="5.0513" stroke-width="0.5" stroke="black" fill="cyan"/>
   </g>
   <g id="cell173">
  <circle cx="540.073" cy="611.331" r="8.11634" stroke-width="0.5" stroke="black" fill="green"/>
  <circle cx="540.073" cy="611.331" r="4.91734" stroke-width="0.5" stroke="black" fill="green"/>
   </g>
   <g id="cell118">
  <circle cx="522.567" cy="524.372" r="8.31953" stroke-width="0.5" stroke="black" fill="cyan"/>
  <circle cx="522.567" cy="524.372" r="5.01362" stroke-width="0.5" stroke="black" fill="cyan"/>
   </g>
   <g id="cell119">
  <circle cx="523.818" cy="641.546" r="8.39714" stroke-width="0.5" stroke="black" fill="green"/>
  <circle cx="523.818" cy="641.546" r="5.0466" stroke-width="0.5" stroke="black" fill="green"/>
   </g>
   <g id="cell121">
  <circle cx="393.414" cy="553.438" r="7.49338" stroke-width="0.5" stroke="black" fill="magenta"/>
  <circle cx="393.414" cy="553.438" r="4.55514" stroke-width="0.5" stroke="black" fill="magenta"/>
   </g>
   <g id="cell122">
  <circle cx="615.131" cy="456.74" r="8.34962" stroke-width="0.5" stroke="black" fill="cyan"/>
  <circle cx="615.131" cy="456.74" r="5.02718" stroke-width="0.5" stroke="black" fill="cyan"/>
   </g>
   <g id="cell123">
  <circle cx="498.105" cy="644.485" r="8.41055" stroke-width="0.5" stroke="black" fill="cyan"/>
  <circle cx="498.105" cy="644.485" r="5.05109" stroke-width="0.5" stroke="black" fill="cyan"/>
   </g>
   <g id="cell124">
  <circle cx="377.8" cy="589.358" r="8.41049" stroke-width="0.5" stroke="black" fill="green"/>
  <circle cx="377.8" cy="589.358" r="5.05108" stroke-width="0.5" stroke="black" fill="green"/>
   </g>
   <g id="cell125">
  <circle cx="452.726" cy="454.608" r="6.9155" stroke-width="0.5" stroke="black" fill="cyan"/>
  <circle cx="452.726" cy="454.608" r="4.2344" stroke-width="0.5" stroke="black" fill="cyan"/>
   </g>
   <g id="cell126">
  <circle cx="408.55" cy="509.624" r="8.40961" stroke-width="0.5" stroke="black" fill="green"/>
  <circle cx="408.55" cy="509.624" r="5.05083" stroke-width="0.5" stroke="black" fill="green"/>
   </g>
   <g id="cell127">
  <circle cx="413.471" cy="594.995" r="8.40961" stroke-width="0.5" stroke="black" fill="cyan"/>
  <circle cx="413.471" cy="594.995" r="5.05081" stroke-width="0.5" stroke="black" fill="cyan"/>
   </g>
   <g id="cell128">
  <circle cx="348.97" cy="535.254" r="8.24229" stroke-width="0.5" stroke="black" fill="cyan"/>
  <circle cx="348.97" cy="535.254" r="4.97688" stroke-width="0.5" stroke="black" fill="cyan"/>
   </g>
   <g id="cell131">
  <circle cx="586.177" cy="543.904" r="7.8602" stroke-width="0.5" stroke="black" fill="cyan"/>
  <circle cx="586.177" cy="543.904" r="4.77127" stroke-width="0.5" stroke="black" fill="cyan"/>
   </g>
   <g id="cell132">
  <circle cx="508.332" cy="443.647" r="8.40752" stroke-width="0.5" stroke="black" fill="magenta"/>
  <circle cx="508.332" cy="443.647" r="5.05019" stroke-width="0.5" stroke="black" fill="magenta"/>
   </g>
   <g id="cell133">
  <circle cx="534.617" cy="409.835" r="8.4076" stroke-width="0.5" stroke="black" fill="magenta"/>
  <circle cx="534.617" cy="409.835" r="5.05018" stroke-width="0.5" stroke="black" fill="magenta"/>
   </g>
   <g id="cell134">
  <circle cx="512.098" cy="578.628" r="8.39966" stroke-width="0.5" stroke="black" fill="magenta"/>
  <circle cx="512.098" cy="578.628" r="5.04761" stroke-width="0.5" stroke="black" fill="magenta"/>
   </g>
   <g id="cell135">
  <circle cx="562.657" cy="481.914" r="8.4065" stroke-width="0.5" stroke="black" fill="cyan"/>
  <circle cx="562.657" cy="481.914" r="5.04982" stroke-width="0.5" stroke="black" fill="cyan"/>
   </g>
   <g id="cell137">
  <circle cx="375.154" cy="474.343" r="8.40401" stroke-width="0.5" stroke="black" fill="magenta"/>
  <circle cx="375.154" cy="474.343" r="5.04898" stroke-width="0.5" stroke="black" fill="magenta"/>
   </g>
   <g id="cell138">
  <circle cx="534.2" cy="593.095" r="8.36629" stroke-width="0.5" stroke="black" fill="magenta"/>
  <circle cx="534.2" cy="593.095" r="5.03509" stroke-width="0.5" stroke="black" fill="magenta"/>
   </g>
   <g id="cell139">
  <circle cx="500.446" cy="613.838" r="7.561" stroke-width="0.5" stroke="black" fill="green"/>
  <circle cx="500.446" cy="613.838" r="4.5975" stroke-width="0.5" stroke="black" fill="green"/>
   </g>
   <g id="cell142">
  <circle cx="581.87" cy="382.011" r="8.39685" stroke-width="0.5" stroke="black" fill="magenta"/>
  <circle cx="581.87" cy="382.011" r="5.04657" stroke-width="0.5" stroke="black" fill="magenta"/>
   </g>
   <g id="cell143">
  <circle cx="531.616" cy="628.417" r="7.73091" stroke-width="0.5" stroke="black" fill="green"/>
  <circle cx="531.616" cy="628.417" r="4.69828" stroke-width="0.5" stroke="black" fill="green"/>
   </g>
   <g id="cell144">
  <circle cx="373.042" cy="544.965" r="8.39664" stroke-width="0.5" stroke="black" fill="magenta"/>
  <circle cx="373.042" cy="544.965" r="5.04633" stroke-width="0.5" stroke="black" fill="magenta"/>
   </g>
   <g id="cell145">
  <circle cx="457.452" cy="479.327" r="7.29549" stroke-width="0.5" stroke="black" fill="magenta"/>
  <circle cx="457.452" cy="479.327" r="4.45854" stroke-width="0.5" stroke="black" fill="magenta"/>
   </g>
   <g id="cell146">
  <circle cx="462.992" cy="417.031" r="8.3926" stroke-width="0.5" stroke="black" fill="cyan"/>
  <circle cx="462.992" cy="417.031" r="5.04482" stroke-width="0.5" stroke="black" fill="cyan"/>
   </g>
   <g id="cell148">
  <circle cx="401.766" cy="605.947" r="8.38801" stroke-width="0.5" stroke="black" fill="cyan"/>
  <circle cx="401.766" cy="605.947" r="5.04322" stroke-width="0.5" stroke="black" fill="cyan"/>
   </g>
   <g id="cell149">
  <circle cx="441.086" cy="536.941" r="8.38537" stroke-width="0.5" stroke="black" fill="green"/>
  <circle cx="441.086" cy="536.941" r="5.04211" stroke-width="0.5" stroke="black" fill="green"/>
   </g>
   <g id="cell150">
  <circle cx="473.352" cy="634.072" r="8.38448" stroke-width="0.5" stroke="black" fill="green"/>
  <circle cx="473.352" cy="634.072" r="5.04167" stroke-width="0.5" stroke="black" fill="green"/>
   </g>
   <g id="cell151">
  <circle cx="521.082" cy="508.747" r="8.38373" stroke-width="0.5" stroke="black" fill="cyan"/>
  <circle cx="521.082" cy="508.747" r="5.04136" stroke-width="0.5" stroke="black" fill="cyan"/>
   </g>
   <g id="cell152">
  <circle cx="642.842" cy="553.659" r="8.38071" stroke-width="0.5" stroke="black" fill="green"/>
  <circle cx="642.842" cy="553.659" r="5.04022" stroke-width="0.5" stroke="black" fill="green"/>
   </g>
   <g id="cell153">
  <circle cx="395.429" cy="521.371" r="8.37826" stroke-width="0.5" stroke="black" fill="cyan"/>
  <circle cx="395.429" cy="521.371" r="5.03942" stroke-width="0.5" stroke="black" fill="cyan"/>
   </g>
   <g id="cell154">
  <circle cx="588.086" cy="502.448" r="8.19522" stroke-width="0.5" stroke="black" fill="magenta"/>
  <circle cx="588.086" cy="502.448" r="4.95524" stroke-width="0.5" stroke="black" fill="magenta"/>
   </g>
   <g id="cell156">
  <circle cx="405.657" cy="559.102" r="8.32389" stroke-width="0.5" stroke="black" fill="green"/>
  <circle cx="405.657" cy="559.102" r="5.01717" stroke-width="0.5" stroke="black" fill="green"/>
   </g>
   <g id="cell157">
  <circle cx="389.014" cy="480.361" r="8.36282" stroke-width="0.5" stroke="black" fill="magenta"/>
  <circle cx="389.014" cy="480.361" r="5.03322" stroke-width="0.5" stroke="black" fill="magenta"/>
   </g>
   <g id="cell158">
  <circle cx="428.491" cy="465.229" r="7.2828" stroke-width="0.5" stroke="black" fill="green"/>
  <circle cx="428.491" cy="465.229" r="4.43598" stroke-width="0.5" stroke="black" fill="green"/>
   </g>
   <g id="cell159">
  <circle cx="438.733" cy="454.901" r="8.33889" stroke-width="0.5" stroke="black" fill="green"/>
  <circle cx="438.733" cy="454.901" r="5.02368" stroke-width="0.5" stroke="black" fill="green"/>
   </g>
   <g id="cell160">
  <circle cx="420.264" cy="562.346" r="8.33261" stroke-width="0.5" stroke="black" fill="green"/>
  <circle cx="420.264" cy="562.346" r="5.02098" stroke-width="0.5" stroke="black" fill="green"/>
   </g>
   <g id="cell161">
  <circle cx="527.306" cy="461.842" r="8.35559" stroke-width="0.5" stroke="black" fill="cyan"/>
  <circle cx="527.306" cy="461.842" r="5.02963" stroke-width="0.5" stroke="black" fill="cyan"/>
   </g>
   <g id="cell162">
  <circle cx="616.858" cy="472.345" r="8.34962" stroke-width="0.5" stroke="black" fill="cyan"/>
  <circle cx="616.858" cy="472.345" r="5.02718" stroke-width="0.5" stroke="black" fill="cyan"/>
   </g>
   <g id="cell163">
  <circle cx="429.712" cy="549.98" r="8.31017" stroke-width="0.5" stroke="black" fill="green"/>
  <circle cx="429.712" cy="549.98" r="5.01193" stroke-width="0.5" stroke="black" fill="green"/>
   </g>
   <g id="cell164">
  <circle cx="467.502" cy="471.364" r="7.13758" stroke-width="0.5" stroke="black" fill="cyan"/>
  <circle cx="467.502" cy="471.364" r="4.34267" stroke-width="0.5" stroke="black" fill="cyan"/>
   </g>
   <g id="cell165">
  <circle cx="414.23" cy="546.264" r="8.32389" stroke-width="0.5" stroke="black" fill="green"/>
  <circle cx="414.23" cy="546.264" r="5.01717" stroke-width="0.5" stroke="black" fill="green"/>
   </g>
   <g id="cell166">
  <circle cx="604.223" cy="496.065" r="8.34315" stroke-width="0.5" stroke="black" fill="green"/>
  <circle cx="604.223" cy="496.065" r="5.02416" stroke-width="0.5" stroke="black" fill="green"/>
   </g>
   <g id="cell167">
  <circle cx="466.725" cy="387.35" r="8.34317" stroke-width="0.5" stroke="black" fill="green"/>
  <circle cx="466.725" cy="387.35" r="5.02416" stroke-width="0.5" stroke="black" fill="green"/>
   </g>
   <g id="cell168">
  <circle cx="519.884" cy="406.609" r="8.33857" stroke-width="0.5" stroke="black" fill="magenta"/>
  <circle cx="519.884" cy="406.609" r="5.02251" stroke-width="0.5" stroke="black" fill="magenta"/>
   </g>
   <g id="cell169">
  <circle cx="466.116" cy="431.743" r="8.0151" stroke-width="0.5" stroke="black" fill="magenta"/>
  <circle cx="466.116" cy="431.743" r="4.86828" stroke-width="0.5" stroke="black" fill="magenta"/>
   </g>
   <g id="cell170">
  <circle cx="630.249" cy="488.646" r="8.33023" stroke-width="0.5" stroke="black" fill="green"/>
  <circle cx="630.249" cy="488.646" r="5.01836" stroke-width="0.5" stroke="black" fill="green"/>
   </g>
   <g id="cell171">
  <circle cx="536.564" cy="530.341" r="8.31953" stroke-width="0.5" stroke="black" fill="cyan"/>
  <circle cx="536.564" cy="530.341" r="5.01362" stroke-width="0.5" stroke="black" fill="cyan"/>
   </g>
   <g id="cell172">
  <circle cx="508.291" cy="518.79" r="8.3001" stroke-width="0.5" stroke="black" fill="cyan"/>
  <circle cx="508.291" cy="518.79" r="5.00604" stroke-width="0.5" stroke="black" fill="cyan"/>
   </g>
   <g id="cell175">
  <circle cx="639.39" cy="538.714" r="7.78212" stroke-width="0.5" stroke="black" fill="green"/>
  <circle cx="639.39" cy="538.714" r="4.73681" stroke-width="0.5" stroke="black" fill="green"/>
   </g>
   <g id="cell177">
  <circle cx="364.469" cy="532.282" r="8.24229" stroke-width="0.5" stroke="black" fill="cyan"/>
  <circle cx="364.469" cy="532.282" r="4.97688" stroke-width="0.5" stroke="black" fill="cyan"/>
   </g>
   <g id="cell178">
  <circle cx="483.644" cy="450.048" r="8.20143" stroke-width="0.5" stroke="black" fill="magenta"/>
  <circle cx="483.644" cy="450.048" r="4.9605" stroke-width="0.5" stroke="black" fill="magenta"/>
   </g>
   <g id="cell179">
  <circle cx="443.988" cy="498.931" r="8.19089" stroke-width="0.5" stroke="black" fill="cyan"/>
  <circle cx="443.988" cy="498.931" r="4.95437" stroke-width="0.5" stroke="black" fill="cyan"/>
   </g>
   <g id="cell180">
  <circle cx="591.471" cy="488.346" r="8.19522" stroke-width="0.5" stroke="black" fill="magenta"/>
  <circle cx="591.471" cy="488.346" r="4.95524" stroke-width="0.5" stroke="black" fill="magenta"/>
   </g>
   <g id="cell181">
  <circle cx="546.514" cy="584.397" r="8.18783" stroke-width="0.5" stroke="black" fill="green"/>
  <circle cx="546.514" cy="584.397" r="4.94908" stroke-width="0.5" stroke="black" fill="green"/>
   </g>
   <g id="cell182">
  <circle cx="454.729" cy="466.972" r="7.01512" stroke-width="0.5" stroke="black" fill="cyan"/>
  <circle cx="454.729" cy="466.972" r="4.29476" stroke-width="0.5" stroke="black" fill="cyan"/>
   </g>
   <g id="cell183">
  <circle cx="525.109" cy="381.401" r="8.1749" stroke-width="0.5" stroke="black" fill="magenta"/>
  <circle cx="525.109" cy="381.401" r="4.94234" stroke-width="0.5" stroke="black" fill="magenta"/>
   </g>
   <g id="cell184">
  <circle cx="548.882" cy="599.133" r="8.11634" stroke-width="0.5" stroke="black" fill="green"/>
  <circle cx="548.882" cy="599.133" r="4.91734" stroke-width="0.5" stroke="black" fill="green"/>
   </g>
   <g id="cell185">
  <circle cx="417.574" cy="522.016" r="8.00914" stroke-width="0.5" stroke="black" fill="green"/>
  <circle cx="417.574" cy="522.016" r="4.86356" stroke-width="0.5" stroke="black" fill="green"/>
   </g>
   <g id="cell186">
  <circle cx="605.713" cy="523.343" r="7.96678" stroke-width="0.5" stroke="black" fill="cyan"/>
  <circle cx="605.713" cy="523.343" r="4.84129" stroke-width="0.5" stroke="black" fill="cyan"/>
   </g>
   <g id="cell187">
  <circle cx="469.402" cy="485.815" r="8.13689" stroke-width="0.5" stroke="black" fill="magenta"/>
  <circle cx="469.402" cy="485.815" r="4.92418" stroke-width="0.5" stroke="black" fill="magenta"/>
   </g>
   <g id="cell188">
  <circle cx="617.472" cy="532.823" r="8.00159" stroke-width="0.5" stroke="black" fill="cyan"/>
  <circle cx="617.472" cy="532.823" r="4.85965" stroke-width="0.5" stroke="black" fill="cyan"/>
   </g>
   <g id="cell189">
  <circle cx="424.924" cy="535.464" r="8.00914" stroke-width="0.5" stroke="black" fill="green"/>
  <circle cx="424.924" cy="535.464" r="4.86356" stroke-width="0.5" stroke="black" fill="green"/>
   </g>
   <g id="cell190">
  <circle cx="425.745" cy="406.469" r="6.88127" stroke-width="0.5" stroke="black" fill="green"/>
  <circle cx="425.745" cy="406.469" r="4.20108" stroke-width="0.5" stroke="black" fill="green"/>
   </g>
   <g id="cell191">
  <circle cx="479.931" cy="435.975" r="8.0151" stroke-width="0.5" stroke="black" fill="magenta"/>
  <circle cx="479.931" cy="435.975" r="4.86828" stroke-width="0.5" stroke="black" fill="magenta"/>
   </g>
   <g id="cell192">
  <circle cx="615.236" cy="513.774" r="6.74012" stroke-width="0.5" stroke="black" fill="cyan"/>
  <circle cx="615.236" cy="513.774" r="4.12747" stroke-width="0.5" stroke="black" fill="cyan"/>
   </g>
   <g id="cell193">
  <circle cx="589.074" cy="473.499" r="8.08505" stroke-width="0.5" stroke="black" fill="cyan"/>
  <circle cx="589.074" cy="473.499" r="4.8953" stroke-width="0.5" stroke="black" fill="cyan"/>
   </g>
   <g id="cell194">
  <circle cx="445.953" cy="622.561" r="8.07611" stroke-width="0.5" stroke="black" fill="magenta"/>
  <circle cx="445.953" cy="622.561" r="4.89035" stroke-width="0.5" stroke="black" fill="magenta"/>
   </g>
   <g id="cell195">
  <circle cx="565.793" cy="522.781" r="8.05398" stroke-width="0.5" stroke="black" fill="cyan"/>
  <circle cx="565.793" cy="522.781" r="4.87891" stroke-width="0.5" stroke="black" fill="cyan"/>
   </g>
   <g id="cell196">
  <circle cx="506.374" cy="503.704" r="7.98485" stroke-width="0.5" stroke="black" fill="cyan"/>
  <circle cx="506.374" cy="503.704" r="4.84893" stroke-width="0.5" stroke="black" fill="cyan"/>
   </g>
   <g id="cell197">
  <circle cx="455.632" cy="441.638" r="7.92154" stroke-width="0.5" stroke="black" fill="cyan"/>
  <circle cx="455.632" cy="441.638" r="4.8056" stroke-width="0.5" stroke="black" fill="cyan"/>
   </g>
   <g id="cell198">
  <circle cx="559.724" cy="568.109" r="7.89373" stroke-width="0.5" stroke="black" fill="cyan"/>
  <circle cx="559.724" cy="568.109" r="4.78957" stroke-width="0.5" stroke="black" fill="cyan"/>
   </g>
   <g id="cell199">
  <circle cx="626.098" cy="544.968" r="7.78212" stroke-width="0.5" stroke="black" fill="green"/>
  <circle cx="626.098" cy="544.968" r="4.73681" stroke-width="0.5" stroke="black" fill="green"/>
   </g>
   <g id="cell200">
  <circle cx="594.223" cy="531.904" r="7.8602" stroke-width="0.5" stroke="black" fill="cyan"/>
  <circle cx="594.223" cy="531.904" r="4.77127" stroke-width="0.5" stroke="black" fill="cyan"/>
   </g>
   <g id="cell201">
  <circle cx="394.418" cy="494.611" r="7.80146" stroke-width="0.5" stroke="black" fill="magenta"/>
  <circle cx="394.418" cy="494.611" r="4.7425" stroke-width="0.5" stroke="black" fill="magenta"/>
   </g>
   <g id="cell202">
  <circle cx="481.935" cy="592.338" r="3.57603" stroke-width="0.5" stroke="black" fill="green"/>
  <circle cx="481.935" cy="592.338" r="2.63898" stroke-width="0.5" stroke="black" fill="black"/>
   </g>
   <g id="cell203">
  <circle cx="545.803" cy="625.12" r="7.73091" stroke-width="0.5" stroke="black" fill="green"/>
  <circle cx="545.803" cy="625.12" r="4.69828" stroke-width="0.5" stroke="black" fill="green"/>
   </g>
   <g id="cell204">
  <circle cx="362.978" cy="466.595" r="7.72054" stroke-width="0.5" stroke="black" fill="magenta"/>
  <circle cx="362.978" cy="466.595" r="4.69002" stroke-width="0.5" stroke="black" fill="magenta"/>
   </g>
   <g id="cell205">
  <circle cx="510.704" cy="603.733" r="7.561" stroke-width="0.5" stroke="black" fill="green"/>
  <circle cx="510.704" cy="603.733" r="4.5975" stroke-width="0.5" stroke="black" fill="green"/>
   </g>
   <g id="cell206">
  <circle cx="365.767" cy="557.447" r="7.53438" stroke-width="0.5" stroke="black" fill="magenta"/>
  <circle cx="365.767" cy="557.447" r="4.58205" stroke-width="0.5" stroke="black" fill="magenta"/>
   </g>
   <g id="cell207">
  <circle cx="386.557" cy="536.298" r="5.9475" stroke-width="0.5" stroke="black" fill="magenta"/>
  <circle cx="386.557" cy="536.298" r="3.61542" stroke-width="0.5" stroke="black" fill="magenta"/>
   </g>
   <g id="cell208">
  <circle cx="603.381" cy="480.558" r="7.42476" stroke-width="0.5" stroke="black" fill="green"/>
  <circle cx="603.381" cy="480.558" r="4.52181" stroke-width="0.5" stroke="black" fill="green"/>
   </g>
   <g id="cell209">
  <circle cx="456.5" cy="492.033" r="7.29549" stroke-width="0.5" stroke="black" fill="magenta"/>
  <circle cx="456.5" cy="492.033" r="4.45854" stroke-width="0.5" stroke="black" fill="magenta"/>
   </g>
   <g id="cell210">
  <circle cx="432.188" cy="478.062" r="7.2828" stroke-width="0.5" stroke="black" fill="green"/>
  <circle cx="432.188" cy="478.062" r="4.43598" stroke-width="0.5" stroke="black" fill="green"/>
   </g>
   <g id="cell211">
  <circle cx="516.761" cy="472.203" r="7.30216" stroke-width="0.5" stroke="black" fill="cyan"/>
  <circle cx="516.761" cy="472.203" r="4.43696" stroke-width="0.5" stroke="black" fill="cyan"/>
   </g>
   <g id="cell212">
  <circle cx="443.911" cy="391.715" r="6.35847" stroke-width="0.5" stroke="black" fill="green"/>
  <circle cx="443.911" cy="391.715" r="3.91795" stroke-width="0.5" stroke="black" fill="green"/>
   </g>
   <g id="cell213">
  <circle cx="441.85" cy="469.171" r="7.01512" stroke-width="0.5" stroke="black" fill="cyan"/>
  <circle cx="441.85" cy="469.171" r="4.29476" stroke-width="0.5" stroke="black" fill="cyan"/>
   </g>
   <g id="cell214">
  <circle cx="464.926" cy="458.723" r="6.9155" stroke-width="0.5" stroke="black" fill="cyan"/>
  <circle cx="464.926" cy="458.723" r="4.2344" stroke-width="0.5" stroke="black" fill="cyan"/>
   </g>
   <g id="cell215">
  <circle cx="455.241" cy="394.985" r="6.35847" stroke-width="0.5" stroke="black" fill="green"/>
  <circle cx="455.241" cy="394.985" r="3.91795" stroke-width="0.5" stroke="black" fill="green"/>
   </g>
   <g id="cell216">
  <circle cx="479.828" cy="475.696" r="7.13758" stroke-width="0.5" stroke="black" fill="cyan"/>
  <circle cx="479.828" cy="475.696" r="4.34267" stroke-width="0.5" stroke="black" fill="cyan"/>
   </g>
   <g id="cell217">
  <circle cx="432.214" cy="395.452" r="6.88127" stroke-width="0.5" stroke="black" fill="green"/>
  <circle cx="432.214" cy="395.452" r="4.20108" stroke-width="0.5" stroke="black" fill="green"/>
   </g>
   <g id="cell218">
  <circle cx="539.73" cy="454.38" r="7.01393" stroke-width="0.5" stroke="black" fill="cyan"/>
  <circle cx="539.73" cy="454.38" r="4.26151" stroke-width="0.5" stroke="black" fill="cyan"/>
   </g>
   <g id="cell219">
  <circle cx="603.196" cy="509.832" r="6.74012" stroke-width="0.5" stroke="black" fill="cyan"/>
  <circle cx="603.196" cy="509.832" r="4.12747" stroke-width="0.5" stroke="black" fill="cyan"/>
   </g>
   <g id="cell220">
  <circle cx="497.701" cy="600.626" r="6.98667" stroke-width="0.5" stroke="black" fill="magenta"/>
  <circle cx="497.701" cy="600.626" r="4.23372" stroke-width="0.5" stroke="black" fill="magenta"/>
   </g>
   <g id="cell222">
  <circle cx="562.244" cy="543.418" r="6.92736" stroke-width="0.5" stroke="black" fill="cyan"/>
  <circle cx="562.244" cy="543.418" r="4.19173" stroke-width="0.5" stroke="black" fill="cyan"/>
   </g>
   <g id="cell223">
  <circle cx="454.876" cy="507.585" r="6.86622" stroke-width="0.5" stroke="black" fill="green"/>
  <circle cx="454.876" cy="507.585" r="4.14876" stroke-width="0.5" stroke="black" fill="green"/>
   </g>
   <g id="cell224">
  <circle cx="372.276" cy="487.193" r="6.37694" stroke-width="0.5" stroke="black" fill="magenta"/>
  <circle cx="372.276" cy="487.193" r="3.89476" stroke-width="0.5" stroke="black" fill="magenta"/>
   </g>
   <g id="cell225">
  <circle cx="542.8" cy="571.488" r="6.58224" stroke-width="0.5" stroke="black" fill="green"/>
  <circle cx="542.8" cy="571.488" r="3.98858" stroke-width="0.5" stroke="black" fill="green"/>
   </g>
   <g id="cell226">
  <circle cx="385.104" cy="546.316" r="5.9475" stroke-width="0.5" stroke="black" fill="magenta"/>
  <circle cx="385.104" cy="546.316" r="3.61542" stroke-width="0.5" stroke="black" fill="magenta"/>
   </g>
  </g>
 </g>
  <rect x="775" y="1035" width="200" height="10" stroke-width="2" stroke="rgb(255,255,255)" fill="rgb(0,0,0)"/>
  <text x="781.25" y="1028.75"
   font-family="Arial" font-size="25" fill="black" >
   200 &#956;m
  </text>
  <text x="25" y="1045"
   font-family="Arial" font-size="18.75" fill="black" >
   0 days, 0 hours, 0 minutes, and 54.1957 seconds
  </text>
  <rect x="0" y="70" width="1000" height="1000" stroke-width="2" stroke="rgb(0,0,0)" fill="none"/>
</svg>
