<?xml version="1.0" encoding="UTF-8" standalone="no"?>
<!-- Created with PhysiCell (http://PhysiCell.MathCancer.org/) -->
<svg 
 xmlns:dc="http://purl.org/dc/elements/1.1/" 
 xmlns:cc="http://creativecommons.org/ns#" 
 xmlns:rdf="http://www.w3.org/1999/02/22-rdf-syntax-ns#" 
 xmlns:svg="http://www.w3.org/2000/svg" 
 xmlns="http://www.w3.org/2000/svg" 
 version="1.1" 
 width="1000" 
 height="1070" 
 id="svg2">
  <rect x="0" y="0" width="1000" height="1070" stroke-width="2" stroke="white" fill="white"/>
  <text x="12.5" y="30"
   font-family="Arial" font-size="25" fill="black" >
   Current time: 1 days, 1 hours, and 30.00 minutes, z = 0.00 &#956;m
  </text>
  <text x="12.5" y="57.5"
   font-family="Arial" font-size="23.75" fill="black" >
   149 agents
  </text>
 <g id="tissue" 
    transform="translate(0,1070) scale(1,-1)">
  <g id="ECM">
  </g>
  <g id="cells">
   <g id="cell0">
  <circle cx="514.377" cy="529.302" r="8.41078" stroke-width="0.5" stroke="black" fill="magenta"/>
  <circle cx="514.377" cy="529.302" r="5.05116" stroke-width="0.5" stroke="black" fill="magenta"/>
   </g>
   <g id="cell147">
  <circle cx="419.139" cy="570.633" r="7.3221" stroke-width="0.5" stroke="black" fill="green"/>
  <circle cx="419.139" cy="570.633" r="4.45195" stroke-width="0.5" stroke="black" fill="green"/>
   </g>
   <g id="cell2">
  <circle cx="510.951" cy="595.702" r="8.1218" stroke-width="0.5" stroke="black" fill="magenta"/>
  <circle cx="510.951" cy="595.702" r="4.91457" stroke-width="0.5" stroke="black" fill="magenta"/>
   </g>
   <g id="cell3">
  <circle cx="538.498" cy="540.509" r="8.02418" stroke-width="0.5" stroke="black" fill="magenta"/>
  <circle cx="538.498" cy="540.509" r="4.86209" stroke-width="0.5" stroke="black" fill="magenta"/>
   </g>
   <g id="cell4">
  <circle cx="467.296" cy="440.342" r="8.41098" stroke-width="0.5" stroke="black" fill="magenta"/>
  <circle cx="467.296" cy="440.342" r="5.05122" stroke-width="0.5" stroke="black" fill="magenta"/>
   </g>
   <g id="cell5">
  <circle cx="465.782" cy="498.526" r="7.49456" stroke-width="0.5" stroke="black" fill="magenta"/>
  <circle cx="465.782" cy="498.526" r="4.55548" stroke-width="0.5" stroke="black" fill="magenta"/>
   </g>
   <g id="cell6">
  <circle cx="594.361" cy="513.088" r="8.4065" stroke-width="0.5" stroke="black" fill="magenta"/>
  <circle cx="594.361" cy="513.088" r="5.04982" stroke-width="0.5" stroke="black" fill="magenta"/>
   </g>
   <g id="cell7">
  <circle cx="511.712" cy="464.56" r="8.41271" stroke-width="0.5" stroke="black" fill="magenta"/>
  <circle cx="511.712" cy="464.56" r="5.05167" stroke-width="0.5" stroke="black" fill="magenta"/>
   </g>
   <g id="cell8">
  <circle cx="368.746" cy="549.287" r="7.54436" stroke-width="0.5" stroke="black" fill="magenta"/>
  <circle cx="368.746" cy="549.287" r="4.58555" stroke-width="0.5" stroke="black" fill="magenta"/>
   </g>
   <g id="cell9">
  <circle cx="463.924" cy="602.041" r="8.40614" stroke-width="0.5" stroke="black" fill="magenta"/>
  <circle cx="463.924" cy="602.041" r="5.0497" stroke-width="0.5" stroke="black" fill="magenta"/>
   </g>
   <g id="cell10">
  <circle cx="587.61" cy="396.363" r="7.5424" stroke-width="0.5" stroke="black" fill="magenta"/>
  <circle cx="587.61" cy="396.363" r="4.60076" stroke-width="0.5" stroke="black" fill="magenta"/>
   </g>
   <g id="cell11">
  <circle cx="589.748" cy="590.273" r="8.41271" stroke-width="0.5" stroke="black" fill="magenta"/>
  <circle cx="589.748" cy="590.273" r="5.05167" stroke-width="0.5" stroke="black" fill="magenta"/>
   </g>
   <g id="cell12">
  <circle cx="501.092" cy="584.794" r="8.41271" stroke-width="0.5" stroke="black" fill="magenta"/>
  <circle cx="501.092" cy="584.794" r="5.05167" stroke-width="0.5" stroke="black" fill="magenta"/>
   </g>
   <g id="cell13">
  <circle cx="378.896" cy="559.206" r="8.31764" stroke-width="0.5" stroke="black" fill="magenta"/>
  <circle cx="378.896" cy="559.206" r="5.01304" stroke-width="0.5" stroke="black" fill="magenta"/>
   </g>
   <g id="cell14">
  <circle cx="523.322" cy="399.139" r="8.14594" stroke-width="0.5" stroke="black" fill="magenta"/>
  <circle cx="523.322" cy="399.139" r="4.92726" stroke-width="0.5" stroke="black" fill="magenta"/>
   </g>
   <g id="cell15">
  <circle cx="391.946" cy="483.563" r="7.94943" stroke-width="0.5" stroke="black" fill="magenta"/>
  <circle cx="391.946" cy="483.563" r="4.82111" stroke-width="0.5" stroke="black" fill="magenta"/>
   </g>
   <g id="cell16">
  <circle cx="431.264" cy="412.129" r="8.41271" stroke-width="0.5" stroke="black" fill="magenta"/>
  <circle cx="431.264" cy="412.129" r="5.05167" stroke-width="0.5" stroke="black" fill="magenta"/>
   </g>
   <g id="cell17">
  <circle cx="589.278" cy="487.644" r="8.39874" stroke-width="0.5" stroke="black" fill="magenta"/>
  <circle cx="589.278" cy="487.644" r="5.04711" stroke-width="0.5" stroke="black" fill="magenta"/>
   </g>
   <g id="cell18">
  <circle cx="509.837" cy="392.817" r="8.41108" stroke-width="0.5" stroke="black" fill="magenta"/>
  <circle cx="509.837" cy="392.817" r="5.05125" stroke-width="0.5" stroke="black" fill="magenta"/>
   </g>
   <g id="cell19">
  <circle cx="449.659" cy="541.616" r="8.40403" stroke-width="0.5" stroke="black" fill="magenta"/>
  <circle cx="449.659" cy="541.616" r="5.04898" stroke-width="0.5" stroke="black" fill="magenta"/>
   </g>
   <g id="cell20">
  <circle cx="528.504" cy="422.723" r="8.41271" stroke-width="0.5" stroke="black" fill="magenta"/>
  <circle cx="528.504" cy="422.723" r="5.05167" stroke-width="0.5" stroke="black" fill="magenta"/>
   </g>
   <g id="cell141">
  <circle cx="481.667" cy="440.338" r="7.65053" stroke-width="0.5" stroke="black" fill="magenta"/>
  <circle cx="481.667" cy="440.338" r="4.65476" stroke-width="0.5" stroke="black" fill="magenta"/>
   </g>
   <g id="cell22">
  <circle cx="559.269" cy="495.338" r="8.40064" stroke-width="0.5" stroke="black" fill="magenta"/>
  <circle cx="559.269" cy="495.338" r="5.04789" stroke-width="0.5" stroke="black" fill="magenta"/>
   </g>
   <g id="cell23">
  <circle cx="534.712" cy="484.254" r="8.41271" stroke-width="0.5" stroke="black" fill="magenta"/>
  <circle cx="534.712" cy="484.254" r="5.05167" stroke-width="0.5" stroke="black" fill="magenta"/>
   </g>
   <g id="cell24">
  <circle cx="562.367" cy="382.354" r="8.41271" stroke-width="0.5" stroke="black" fill="magenta"/>
  <circle cx="562.367" cy="382.354" r="5.05167" stroke-width="0.5" stroke="black" fill="magenta"/>
   </g>
   <g id="cell25">
  <circle cx="652.738" cy="563.564" r="6.8021" stroke-width="0.5" stroke="black" fill="green"/>
  <circle cx="652.738" cy="563.564" r="4.11488" stroke-width="0.5" stroke="black" fill="green"/>
   </g>
   <g id="cell26">
  <circle cx="548.112" cy="402.296" r="8.41271" stroke-width="0.5" stroke="black" fill="green"/>
  <circle cx="548.112" cy="402.296" r="5.05167" stroke-width="0.5" stroke="black" fill="green"/>
   </g>
   <g id="cell27">
  <circle cx="457.446" cy="388.678" r="8.41271" stroke-width="0.5" stroke="black" fill="green"/>
  <circle cx="457.446" cy="388.678" r="5.05167" stroke-width="0.5" stroke="black" fill="green"/>
   </g>
   <g id="cell28">
  <circle cx="431.882" cy="547.125" r="8.41271" stroke-width="0.5" stroke="black" fill="green"/>
  <circle cx="431.882" cy="547.125" r="5.05167" stroke-width="0.5" stroke="black" fill="green"/>
   </g>
   <g id="cell29">
  <circle cx="466.756" cy="520.566" r="8.356" stroke-width="0.5" stroke="black" fill="green"/>
  <circle cx="466.756" cy="520.566" r="5.03017" stroke-width="0.5" stroke="black" fill="green"/>
   </g>
   <g id="cell30">
  <circle cx="478.732" cy="539.421" r="8.41271" stroke-width="0.5" stroke="black" fill="green"/>
  <circle cx="478.732" cy="539.421" r="5.05167" stroke-width="0.5" stroke="black" fill="green"/>
   </g>
   <g id="cell31">
  <circle cx="412.632" cy="539.281" r="8.41271" stroke-width="0.5" stroke="black" fill="green"/>
  <circle cx="412.632" cy="539.281" r="5.05167" stroke-width="0.5" stroke="black" fill="green"/>
   </g>
   <g id="cell32">
  <circle cx="430.086" cy="465.322" r="8.40788" stroke-width="0.5" stroke="black" fill="green"/>
  <circle cx="430.086" cy="465.322" r="5.05027" stroke-width="0.5" stroke="black" fill="green"/>
   </g>
   <g id="cell33">
  <circle cx="498.862" cy="413.282" r="8.4085" stroke-width="0.5" stroke="black" fill="green"/>
  <circle cx="498.862" cy="413.282" r="5.05047" stroke-width="0.5" stroke="black" fill="green"/>
   </g>
   <g id="cell34">
  <circle cx="392.094" cy="453.619" r="8.40745" stroke-width="0.5" stroke="black" fill="green"/>
  <circle cx="392.094" cy="453.619" r="5.05013" stroke-width="0.5" stroke="black" fill="green"/>
   </g>
   <g id="cell35">
  <circle cx="545.035" cy="554.489" r="8.39144" stroke-width="0.5" stroke="black" fill="green"/>
  <circle cx="545.035" cy="554.489" r="5.04437" stroke-width="0.5" stroke="black" fill="green"/>
   </g>
   <g id="cell36">
  <circle cx="395.498" cy="580.275" r="8.29993" stroke-width="0.5" stroke="black" fill="green"/>
  <circle cx="395.498" cy="580.275" r="5.00433" stroke-width="0.5" stroke="black" fill="green"/>
   </g>
   <g id="cell37">
  <circle cx="634.871" cy="460.618" r="1.84616" stroke-width="0.5" stroke="black" fill="green"/>
  <circle cx="634.871" cy="460.618" r="1.7784" stroke-width="0.5" stroke="black" fill="black"/>
   </g>
   <g id="cell38">
  <circle cx="524.795" cy="604.331" r="8.4045" stroke-width="0.5" stroke="black" fill="green"/>
  <circle cx="524.795" cy="604.331" r="5.04914" stroke-width="0.5" stroke="black" fill="green"/>
   </g>
   <g id="cell39">
  <circle cx="617.686" cy="494.817" r="8.41067" stroke-width="0.5" stroke="black" fill="green"/>
  <circle cx="617.686" cy="494.817" r="5.05113" stroke-width="0.5" stroke="black" fill="green"/>
   </g>
   <g id="cell40">
  <circle cx="486.283" cy="572.539" r="8.41271" stroke-width="0.5" stroke="black" fill="green"/>
  <circle cx="486.283" cy="572.539" r="5.05167" stroke-width="0.5" stroke="black" fill="green"/>
   </g>
   <g id="cell41">
  <circle cx="364.25" cy="479.693" r="8.41271" stroke-width="0.5" stroke="black" fill="green"/>
  <circle cx="364.25" cy="479.693" r="5.05167" stroke-width="0.5" stroke="black" fill="green"/>
   </g>
   <g id="cell42">
  <circle cx="452.781" cy="487.089" r="2.29895" stroke-width="0.5" stroke="black" fill="green"/>
  <circle cx="452.781" cy="487.089" r="2.0989" stroke-width="0.5" stroke="black" fill="black"/>
   </g>
   <g id="cell43">
  <circle cx="558.214" cy="445.634" r="8.41271" stroke-width="0.5" stroke="black" fill="green"/>
  <circle cx="558.214" cy="445.634" r="5.05167" stroke-width="0.5" stroke="black" fill="green"/>
   </g>
   <g id="cell44">
  <circle cx="485.784" cy="628.348" r="6.95483" stroke-width="0.5" stroke="black" fill="green"/>
  <circle cx="485.784" cy="628.348" r="4.2121" stroke-width="0.5" stroke="black" fill="green"/>
   </g>
   <g id="cell45">
  <circle cx="417.379" cy="554.656" r="8.39874" stroke-width="0.5" stroke="black" fill="green"/>
  <circle cx="417.379" cy="554.656" r="5.04711" stroke-width="0.5" stroke="black" fill="green"/>
   </g>
   <g id="cell46">
  <circle cx="519.829" cy="620.822" r="7.76686" stroke-width="0.5" stroke="black" fill="green"/>
  <circle cx="519.829" cy="620.822" r="4.72465" stroke-width="0.5" stroke="black" fill="green"/>
   </g>
   <g id="cell47">
  <circle cx="498.893" cy="507.891" r="8.41271" stroke-width="0.5" stroke="black" fill="green"/>
  <circle cx="498.893" cy="507.891" r="5.05167" stroke-width="0.5" stroke="black" fill="green"/>
   </g>
   <g id="cell48">
  <circle cx="565.675" cy="604.582" r="8.41271" stroke-width="0.5" stroke="black" fill="green"/>
  <circle cx="565.675" cy="604.582" r="5.05167" stroke-width="0.5" stroke="black" fill="green"/>
   </g>
   <g id="cell49">
  <circle cx="434.616" cy="397.071" r="8.22925" stroke-width="0.5" stroke="black" fill="green"/>
  <circle cx="434.616" cy="397.071" r="4.96993" stroke-width="0.5" stroke="black" fill="green"/>
   </g>
   <g id="cell50">
  <circle cx="510.692" cy="515.731" r="6.92764" stroke-width="0.5" stroke="black" fill="cyan"/>
  <circle cx="510.692" cy="515.731" r="4.1918" stroke-width="0.5" stroke="black" fill="cyan"/>
   </g>
   <g id="cell51">
  <circle cx="386.705" cy="604.095" r="7.07231" stroke-width="0.5" stroke="black" fill="cyan"/>
  <circle cx="386.705" cy="604.095" r="4.31151" stroke-width="0.5" stroke="black" fill="cyan"/>
   </g>
   <g id="cell120">
  <circle cx="419.645" cy="610.67" r="8.33026" stroke-width="0.5" stroke="black" fill="cyan"/>
  <circle cx="419.645" cy="610.67" r="5.01837" stroke-width="0.5" stroke="black" fill="cyan"/>
   </g>
   <g id="cell53">
  <circle cx="571.135" cy="436.117" r="8.41271" stroke-width="0.5" stroke="black" fill="cyan"/>
  <circle cx="571.135" cy="436.117" r="5.05167" stroke-width="0.5" stroke="black" fill="cyan"/>
   </g>
   <g id="cell54">
  <circle cx="481.55" cy="426.537" r="7.33129" stroke-width="0.5" stroke="black" fill="cyan"/>
  <circle cx="481.55" cy="426.537" r="4.45516" stroke-width="0.5" stroke="black" fill="cyan"/>
   </g>
   <g id="cell55">
  <circle cx="525.716" cy="471.364" r="8.41271" stroke-width="0.5" stroke="black" fill="cyan"/>
  <circle cx="525.716" cy="471.364" r="5.05167" stroke-width="0.5" stroke="black" fill="cyan"/>
   </g>
   <g id="cell56">
  <circle cx="615.728" cy="522.513" r="8.41271" stroke-width="0.5" stroke="black" fill="cyan"/>
  <circle cx="615.728" cy="522.513" r="5.05167" stroke-width="0.5" stroke="black" fill="cyan"/>
   </g>
   <g id="cell57">
  <circle cx="418.492" cy="626.483" r="8.33026" stroke-width="0.5" stroke="black" fill="cyan"/>
  <circle cx="418.492" cy="626.483" r="5.01837" stroke-width="0.5" stroke="black" fill="cyan"/>
   </g>
   <g id="cell58">
  <circle cx="550.05" cy="482.774" r="8.41271" stroke-width="0.5" stroke="black" fill="cyan"/>
  <circle cx="550.05" cy="482.774" r="5.05167" stroke-width="0.5" stroke="black" fill="cyan"/>
   </g>
   <g id="cell59">
  <circle cx="385.161" cy="439.178" r="8.41271" stroke-width="0.5" stroke="black" fill="cyan"/>
  <circle cx="385.161" cy="439.178" r="5.05167" stroke-width="0.5" stroke="black" fill="cyan"/>
   </g>
   <g id="cell60">
  <circle cx="594.03" cy="473.167" r="8.31209" stroke-width="0.5" stroke="black" fill="cyan"/>
  <circle cx="594.03" cy="473.167" r="5.01002" stroke-width="0.5" stroke="black" fill="cyan"/>
   </g>
   <g id="cell61">
  <circle cx="554.623" cy="614.976" r="1.20653" stroke-width="0.5" stroke="black" fill="cyan"/>
  <circle cx="554.623" cy="614.976" r="1.20179" stroke-width="0.5" stroke="black" fill="black"/>
   </g>
   <g id="cell62">
  <circle cx="526.174" cy="442.083" r="8.41271" stroke-width="0.5" stroke="black" fill="cyan"/>
  <circle cx="526.174" cy="442.083" r="5.05167" stroke-width="0.5" stroke="black" fill="cyan"/>
   </g>
   <g id="cell63">
  <circle cx="582.488" cy="552.421" r="8.4045" stroke-width="0.5" stroke="black" fill="cyan"/>
  <circle cx="582.488" cy="552.421" r="5.04914" stroke-width="0.5" stroke="black" fill="cyan"/>
   </g>
   <g id="cell64">
  <circle cx="512.195" cy="634.141" r="8.3031" stroke-width="0.5" stroke="black" fill="cyan"/>
  <circle cx="512.195" cy="634.141" r="5.00583" stroke-width="0.5" stroke="black" fill="cyan"/>
   </g>
   <g id="cell65">
  <circle cx="532.638" cy="456.74" r="8.40403" stroke-width="0.5" stroke="black" fill="cyan"/>
  <circle cx="532.638" cy="456.74" r="5.04898" stroke-width="0.5" stroke="black" fill="cyan"/>
   </g>
   <g id="cell66">
  <circle cx="545.867" cy="527.356" r="8.33481" stroke-width="0.5" stroke="black" fill="cyan"/>
  <circle cx="545.867" cy="527.356" r="5.02043" stroke-width="0.5" stroke="black" fill="cyan"/>
   </g>
   <g id="cell67">
  <circle cx="354.757" cy="492.585" r="8.41271" stroke-width="0.5" stroke="black" fill="cyan"/>
  <circle cx="354.757" cy="492.585" r="5.05167" stroke-width="0.5" stroke="black" fill="cyan"/>
   </g>
   <g id="cell68">
  <circle cx="561.04" cy="555.694" r="8.41271" stroke-width="0.5" stroke="black" fill="cyan"/>
  <circle cx="561.04" cy="555.694" r="5.05167" stroke-width="0.5" stroke="black" fill="cyan"/>
   </g>
   <g id="cell69">
  <circle cx="436.688" cy="450.75" r="8.41112" stroke-width="0.5" stroke="black" fill="cyan"/>
  <circle cx="436.688" cy="450.75" r="5.05126" stroke-width="0.5" stroke="black" fill="cyan"/>
   </g>
   <g id="cell70">
  <circle cx="579.024" cy="477.037" r="8.08613" stroke-width="0.5" stroke="black" fill="cyan"/>
  <circle cx="579.024" cy="477.037" r="4.8956" stroke-width="0.5" stroke="black" fill="cyan"/>
   </g>
   <g id="cell71">
  <circle cx="379.367" cy="528.639" r="6.65119" stroke-width="0.5" stroke="black" fill="cyan"/>
  <circle cx="379.367" cy="528.639" r="4.03879" stroke-width="0.5" stroke="black" fill="cyan"/>
   </g>
   <g id="cell72">
  <circle cx="536.784" cy="510.344" r="8.41271" stroke-width="0.5" stroke="black" fill="cyan"/>
  <circle cx="536.784" cy="510.344" r="5.05167" stroke-width="0.5" stroke="black" fill="cyan"/>
   </g>
   <g id="cell129">
  <circle cx="419.716" cy="401.901" r="8.22925" stroke-width="0.5" stroke="black" fill="green"/>
  <circle cx="419.716" cy="401.901" r="4.96993" stroke-width="0.5" stroke="black" fill="green"/>
   </g>
   <g id="cell74">
  <circle cx="542.217" cy="443.898" r="8.41271" stroke-width="0.5" stroke="black" fill="cyan"/>
  <circle cx="542.217" cy="443.898" r="5.05167" stroke-width="0.5" stroke="black" fill="cyan"/>
   </g>
   <g id="cell75">
  <circle cx="443.8" cy="473.365" r="8.28903" stroke-width="0.5" stroke="black" fill="cyan"/>
  <circle cx="443.8" cy="473.365" r="4.99934" stroke-width="0.5" stroke="black" fill="cyan"/>
   </g>
   <g id="cell76">
  <circle cx="522.338" cy="384.283" r="8.40218" stroke-width="0.5" stroke="black" fill="magenta"/>
  <circle cx="522.338" cy="384.283" r="5.04841" stroke-width="0.5" stroke="black" fill="magenta"/>
   </g>
   <g id="cell77">
  <circle cx="493.612" cy="433.539" r="7.65053" stroke-width="0.5" stroke="black" fill="magenta"/>
  <circle cx="493.612" cy="433.539" r="4.65476" stroke-width="0.5" stroke="black" fill="magenta"/>
   </g>
   <g id="cell78">
  <circle cx="370.562" cy="465.394" r="8.41088" stroke-width="0.5" stroke="black" fill="magenta"/>
  <circle cx="370.562" cy="465.394" r="5.05119" stroke-width="0.5" stroke="black" fill="magenta"/>
   </g>
   <g id="cell79">
  <circle cx="499.694" cy="524.078" r="8.41078" stroke-width="0.5" stroke="black" fill="magenta"/>
  <circle cx="499.694" cy="524.078" r="5.05116" stroke-width="0.5" stroke="black" fill="magenta"/>
   </g>
   <g id="cell80">
  <circle cx="604.554" cy="485.658" r="8.41067" stroke-width="0.5" stroke="black" fill="green"/>
  <circle cx="604.554" cy="485.658" r="5.05113" stroke-width="0.5" stroke="black" fill="green"/>
   </g>
   <g id="cell81">
  <circle cx="430.184" cy="501.874" r="8.25395" stroke-width="0.5" stroke="black" fill="green"/>
  <circle cx="430.184" cy="501.874" r="4.98401" stroke-width="0.5" stroke="black" fill="green"/>
   </g>
   <g id="cell82">
  <circle cx="543.893" cy="496.654" r="8.4103" stroke-width="0.5" stroke="black" fill="magenta"/>
  <circle cx="543.893" cy="496.654" r="5.05102" stroke-width="0.5" stroke="black" fill="magenta"/>
   </g>
   <g id="cell130">
  <circle cx="574.393" cy="391.243" r="8.21839" stroke-width="0.5" stroke="black" fill="magenta"/>
  <circle cx="574.393" cy="391.243" r="4.96448" stroke-width="0.5" stroke="black" fill="magenta"/>
   </g>
   <g id="cell84">
  <circle cx="406.815" cy="481.341" r="8.36847" stroke-width="0.5" stroke="black" fill="green"/>
  <circle cx="406.815" cy="481.341" r="5.03542" stroke-width="0.5" stroke="black" fill="green"/>
   </g>
   <g id="cell140">
  <circle cx="528.293" cy="579.43" r="7.39377" stroke-width="0.5" stroke="black" fill="magenta"/>
  <circle cx="528.293" cy="579.43" r="4.53199" stroke-width="0.5" stroke="black" fill="magenta"/>
   </g>
   <g id="cell86">
  <circle cx="392.456" cy="565.307" r="8.37166" stroke-width="0.5" stroke="black" fill="magenta"/>
  <circle cx="392.456" cy="565.307" r="5.03676" stroke-width="0.5" stroke="black" fill="magenta"/>
   </g>
   <g id="cell87">
  <circle cx="434.455" cy="521.328" r="6.9721" stroke-width="0.5" stroke="black" fill="green"/>
  <circle cx="434.455" cy="521.328" r="4.23611" stroke-width="0.5" stroke="black" fill="green"/>
   </g>
   <g id="cell88">
  <circle cx="476.458" cy="611.28" r="8.407" stroke-width="0.5" stroke="black" fill="green"/>
  <circle cx="476.458" cy="611.28" r="5.04998" stroke-width="0.5" stroke="black" fill="green"/>
   </g>
   <g id="cell89">
  <circle cx="436.282" cy="487.297" r="8.39312" stroke-width="0.5" stroke="black" fill="green"/>
  <circle cx="436.282" cy="487.297" r="5.0453" stroke-width="0.5" stroke="black" fill="green"/>
   </g>
   <g id="cell90">
  <circle cx="581.064" cy="510.063" r="6.77703" stroke-width="0.5" stroke="black" fill="magenta"/>
  <circle cx="581.064" cy="510.063" r="4.08568" stroke-width="0.5" stroke="black" fill="magenta"/>
   </g>
   <g id="cell136">
  <circle cx="524.026" cy="540.679" r="8.02418" stroke-width="0.5" stroke="black" fill="magenta"/>
  <circle cx="524.026" cy="540.679" r="4.86209" stroke-width="0.5" stroke="black" fill="magenta"/>
   </g>
   <g id="cell92">
  <circle cx="554.369" cy="593.907" r="8.36648" stroke-width="0.5" stroke="black" fill="green"/>
  <circle cx="554.369" cy="593.907" r="5.03522" stroke-width="0.5" stroke="black" fill="green"/>
   </g>
   <g id="cell93">
  <circle cx="572.793" cy="526.722" r="8.17179" stroke-width="0.5" stroke="black" fill="cyan"/>
  <circle cx="572.793" cy="526.722" r="4.94255" stroke-width="0.5" stroke="black" fill="cyan"/>
   </g>
   <g id="cell94">
  <circle cx="541.42" cy="469.872" r="8.40403" stroke-width="0.5" stroke="black" fill="cyan"/>
  <circle cx="541.42" cy="469.872" r="5.04898" stroke-width="0.5" stroke="black" fill="cyan"/>
   </g>
   <g id="cell95">
  <circle cx="463.604" cy="535.746" r="8.40403" stroke-width="0.5" stroke="black" fill="magenta"/>
  <circle cx="463.604" cy="535.746" r="5.04898" stroke-width="0.5" stroke="black" fill="magenta"/>
   </g>
   <g id="cell96">
  <circle cx="535.32" cy="376.522" r="8.40218" stroke-width="0.5" stroke="black" fill="magenta"/>
  <circle cx="535.32" cy="376.522" r="5.04841" stroke-width="0.5" stroke="black" fill="magenta"/>
   </g>
   <g id="cell97">
  <circle cx="568.048" cy="507.274" r="8.40064" stroke-width="0.5" stroke="black" fill="magenta"/>
  <circle cx="568.048" cy="507.274" r="5.04789" stroke-width="0.5" stroke="black" fill="magenta"/>
   </g>
   <g id="cell98">
  <circle cx="406.68" cy="564.994" r="7.3221" stroke-width="0.5" stroke="black" fill="green"/>
  <circle cx="406.68" cy="564.994" r="4.45195" stroke-width="0.5" stroke="black" fill="green"/>
   </g>
   <g id="cell99">
  <circle cx="575.244" cy="493.808" r="8.39874" stroke-width="0.5" stroke="black" fill="magenta"/>
  <circle cx="575.244" cy="493.808" r="5.04711" stroke-width="0.5" stroke="black" fill="magenta"/>
   </g>
   <g id="cell100">
  <circle cx="569.932" cy="542.377" r="8.39382" stroke-width="0.5" stroke="black" fill="cyan"/>
  <circle cx="569.932" cy="542.377" r="5.04554" stroke-width="0.5" stroke="black" fill="cyan"/>
   </g>
   <g id="cell101">
  <circle cx="459.324" cy="628.566" r="8.37353" stroke-width="0.5" stroke="black" fill="magenta"/>
  <circle cx="459.324" cy="628.566" r="5.03781" stroke-width="0.5" stroke="black" fill="magenta"/>
   </g>
   <g id="cell102">
  <circle cx="445.96" cy="500.004" r="8.39312" stroke-width="0.5" stroke="black" fill="green"/>
  <circle cx="445.96" cy="500.004" r="5.0453" stroke-width="0.5" stroke="black" fill="green"/>
   </g>
   <g id="cell103">
  <circle cx="541.303" cy="603.605" r="8.38903" stroke-width="0.5" stroke="black" fill="green"/>
  <circle cx="541.303" cy="603.605" r="5.04376" stroke-width="0.5" stroke="black" fill="green"/>
   </g>
   <g id="cell104">
  <circle cx="553.869" cy="541.263" r="8.39144" stroke-width="0.5" stroke="black" fill="green"/>
  <circle cx="553.869" cy="541.263" r="5.04437" stroke-width="0.5" stroke="black" fill="green"/>
   </g>
   <g id="cell105">
  <circle cx="416.373" cy="494.094" r="8.38776" stroke-width="0.5" stroke="black" fill="green"/>
  <circle cx="416.373" cy="494.094" r="5.04309" stroke-width="0.5" stroke="black" fill="green"/>
   </g>
   <g id="cell106">
  <circle cx="639.13" cy="537.386" r="8.38891" stroke-width="0.5" stroke="black" fill="green"/>
  <circle cx="639.13" cy="537.386" r="5.0434" stroke-width="0.5" stroke="black" fill="green"/>
   </g>
   <g id="cell107">
  <circle cx="384.04" cy="512.723" r="8.38206" stroke-width="0.5" stroke="black" fill="cyan"/>
  <circle cx="384.04" cy="512.723" r="5.04069" stroke-width="0.5" stroke="black" fill="cyan"/>
   </g>
   <g id="cell108">
  <circle cx="459.017" cy="643.632" r="8.37353" stroke-width="0.5" stroke="black" fill="magenta"/>
  <circle cx="459.017" cy="643.632" r="5.03781" stroke-width="0.5" stroke="black" fill="magenta"/>
   </g>
   <g id="cell109">
  <circle cx="446.15" cy="635.743" r="8.37353" stroke-width="0.5" stroke="black" fill="magenta"/>
  <circle cx="446.15" cy="635.743" r="5.03781" stroke-width="0.5" stroke="black" fill="magenta"/>
   </g>
   <g id="cell110">
  <circle cx="541.105" cy="586.726" r="8.36648" stroke-width="0.5" stroke="black" fill="green"/>
  <circle cx="541.105" cy="586.726" r="5.03522" stroke-width="0.5" stroke="black" fill="green"/>
   </g>
   <g id="cell111">
  <circle cx="630.125" cy="550.604" r="8.36642" stroke-width="0.5" stroke="black" fill="green"/>
  <circle cx="630.125" cy="550.604" r="5.03504" stroke-width="0.5" stroke="black" fill="green"/>
   </g>
   <g id="cell112">
  <circle cx="380.805" cy="574.537" r="8.37166" stroke-width="0.5" stroke="black" fill="magenta"/>
  <circle cx="380.805" cy="574.537" r="5.03676" stroke-width="0.5" stroke="black" fill="magenta"/>
   </g>
   <g id="cell113">
  <circle cx="422.511" cy="479.344" r="8.36847" stroke-width="0.5" stroke="black" fill="green"/>
  <circle cx="422.511" cy="479.344" r="5.03542" stroke-width="0.5" stroke="black" fill="green"/>
   </g>
   <g id="cell114">
  <circle cx="493.663" cy="447.803" r="8.14214" stroke-width="0.5" stroke="black" fill="magenta"/>
  <circle cx="493.663" cy="447.803" r="4.92893" stroke-width="0.5" stroke="black" fill="magenta"/>
   </g>
   <g id="cell115">
  <circle cx="451.495" cy="526.063" r="8.356" stroke-width="0.5" stroke="black" fill="green"/>
  <circle cx="451.495" cy="526.063" r="5.03017" stroke-width="0.5" stroke="black" fill="green"/>
   </g>
   <g id="cell116">
  <circle cx="369.212" cy="518.811" r="8.33853" stroke-width="0.5" stroke="black" fill="cyan"/>
  <circle cx="369.212" cy="518.811" r="5.02337" stroke-width="0.5" stroke="black" fill="cyan"/>
   </g>
   <g id="cell117">
  <circle cx="437.658" cy="513.504" r="1.98932" stroke-width="0.5" stroke="black" fill="green"/>
  <circle cx="437.658" cy="513.504" r="1.88479" stroke-width="0.5" stroke="black" fill="black"/>
   </g>
   <g id="cell118">
  <circle cx="530.084" cy="527.024" r="8.33481" stroke-width="0.5" stroke="black" fill="cyan"/>
  <circle cx="530.084" cy="527.024" r="5.02043" stroke-width="0.5" stroke="black" fill="cyan"/>
   </g>
   <g id="cell119">
  <circle cx="527.232" cy="633.23" r="7.56593" stroke-width="0.5" stroke="black" fill="green"/>
  <circle cx="527.232" cy="633.23" r="4.60744" stroke-width="0.5" stroke="black" fill="green"/>
   </g>
   <g id="cell121">
  <circle cx="391.125" cy="550.508" r="8.31764" stroke-width="0.5" stroke="black" fill="magenta"/>
  <circle cx="391.125" cy="550.508" r="5.01304" stroke-width="0.5" stroke="black" fill="magenta"/>
   </g>
   <g id="cell122">
  <circle cx="609.437" cy="470.583" r="8.31209" stroke-width="0.5" stroke="black" fill="cyan"/>
  <circle cx="609.437" cy="470.583" r="5.01002" stroke-width="0.5" stroke="black" fill="cyan"/>
   </g>
   <g id="cell123">
  <circle cx="500.358" cy="644.603" r="8.3031" stroke-width="0.5" stroke="black" fill="cyan"/>
  <circle cx="500.358" cy="644.603" r="5.00583" stroke-width="0.5" stroke="black" fill="cyan"/>
   </g>
   <g id="cell124">
  <circle cx="383.231" cy="589.918" r="8.29993" stroke-width="0.5" stroke="black" fill="green"/>
  <circle cx="383.231" cy="589.918" r="5.00433" stroke-width="0.5" stroke="black" fill="green"/>
   </g>
   <g id="cell125">
  <circle cx="450.274" cy="459.008" r="8.28903" stroke-width="0.5" stroke="black" fill="cyan"/>
  <circle cx="450.274" cy="459.008" r="4.99934" stroke-width="0.5" stroke="black" fill="cyan"/>
   </g>
   <g id="cell126">
  <circle cx="416.716" cy="509.939" r="8.25395" stroke-width="0.5" stroke="black" fill="green"/>
  <circle cx="416.716" cy="509.939" r="4.98401" stroke-width="0.5" stroke="black" fill="green"/>
   </g>
   <g id="cell127">
  <circle cx="412.323" cy="596.687" r="8.25377" stroke-width="0.5" stroke="black" fill="cyan"/>
  <circle cx="412.323" cy="596.687" r="4.98209" stroke-width="0.5" stroke="black" fill="cyan"/>
   </g>
   <g id="cell128">
  <circle cx="366.946" cy="534.805" r="8.20592" stroke-width="0.5" stroke="black" fill="cyan"/>
  <circle cx="366.946" cy="534.805" r="4.96271" stroke-width="0.5" stroke="black" fill="cyan"/>
   </g>
   <g id="cell131">
  <circle cx="584.674" cy="536.804" r="8.17179" stroke-width="0.5" stroke="black" fill="cyan"/>
  <circle cx="584.674" cy="536.804" r="4.94255" stroke-width="0.5" stroke="black" fill="cyan"/>
   </g>
   <g id="cell132">
  <circle cx="506.184" cy="440.239" r="8.14214" stroke-width="0.5" stroke="black" fill="magenta"/>
  <circle cx="506.184" cy="440.239" r="4.92893" stroke-width="0.5" stroke="black" fill="magenta"/>
   </g>
   <g id="cell133">
  <circle cx="534.241" cy="408.913" r="8.14594" stroke-width="0.5" stroke="black" fill="magenta"/>
  <circle cx="534.241" cy="408.913" r="4.92726" stroke-width="0.5" stroke="black" fill="magenta"/>
   </g>
   <g id="cell134">
  <circle cx="514.501" cy="579.813" r="7.69863" stroke-width="0.5" stroke="black" fill="magenta"/>
  <circle cx="514.501" cy="579.813" r="4.69426" stroke-width="0.5" stroke="black" fill="magenta"/>
   </g>
   <g id="cell135">
  <circle cx="565.131" cy="481.634" r="8.08613" stroke-width="0.5" stroke="black" fill="cyan"/>
  <circle cx="565.131" cy="481.634" r="4.8956" stroke-width="0.5" stroke="black" fill="cyan"/>
   </g>
   <g id="cell137">
  <circle cx="379.178" cy="477.283" r="7.94943" stroke-width="0.5" stroke="black" fill="magenta"/>
  <circle cx="379.178" cy="477.283" r="4.82111" stroke-width="0.5" stroke="black" fill="magenta"/>
   </g>
   <g id="cell138">
  <circle cx="530.214" cy="592.318" r="5.88876" stroke-width="0.5" stroke="black" fill="magenta"/>
  <circle cx="530.214" cy="592.318" r="3.61069" stroke-width="0.5" stroke="black" fill="magenta"/>
   </g>
   <g id="cell139">
  <circle cx="510.323" cy="609.972" r="7.76686" stroke-width="0.5" stroke="black" fill="green"/>
  <circle cx="510.323" cy="609.972" r="4.72465" stroke-width="0.5" stroke="black" fill="green"/>
   </g>
   <g id="cell142">
  <circle cx="585.867" cy="382.909" r="7.5424" stroke-width="0.5" stroke="black" fill="magenta"/>
  <circle cx="585.867" cy="382.909" r="4.60076" stroke-width="0.5" stroke="black" fill="magenta"/>
   </g>
   <g id="cell143">
  <circle cx="537.738" cy="623.457" r="7.56593" stroke-width="0.5" stroke="black" fill="green"/>
  <circle cx="537.738" cy="623.457" r="4.60744" stroke-width="0.5" stroke="black" fill="green"/>
   </g>
   <g id="cell144">
  <circle cx="379.938" cy="541.869" r="7.54436" stroke-width="0.5" stroke="black" fill="magenta"/>
  <circle cx="379.938" cy="541.869" r="4.58555" stroke-width="0.5" stroke="black" fill="magenta"/>
   </g>
   <g id="cell145">
  <circle cx="461.673" cy="485.698" r="7.49456" stroke-width="0.5" stroke="black" fill="magenta"/>
  <circle cx="461.673" cy="485.698" r="4.55548" stroke-width="0.5" stroke="black" fill="magenta"/>
   </g>
   <g id="cell146">
  <circle cx="467.629" cy="425.802" r="7.33129" stroke-width="0.5" stroke="black" fill="cyan"/>
  <circle cx="467.629" cy="425.802" r="4.45516" stroke-width="0.5" stroke="black" fill="cyan"/>
   </g>
   <g id="cell148">
  <circle cx="400.06" cy="604.41" r="7.07231" stroke-width="0.5" stroke="black" fill="cyan"/>
  <circle cx="400.06" cy="604.41" r="4.31151" stroke-width="0.5" stroke="black" fill="cyan"/>
   </g>
   <g id="cell149">
  <circle cx="437.976" cy="533.869" r="6.9721" stroke-width="0.5" stroke="black" fill="green"/>
  <circle cx="437.976" cy="533.869" r="4.23611" stroke-width="0.5" stroke="black" fill="green"/>
   </g>
   <g id="cell150">
  <circle cx="473.016" cy="625.404" r="6.95483" stroke-width="0.5" stroke="black" fill="green"/>
  <circle cx="473.016" cy="625.404" r="4.2121" stroke-width="0.5" stroke="black" fill="green"/>
   </g>
   <g id="cell151">
  <circle cx="523.204" cy="514.395" r="6.92764" stroke-width="0.5" stroke="black" fill="cyan"/>
  <circle cx="523.204" cy="514.395" r="4.1918" stroke-width="0.5" stroke="black" fill="cyan"/>
   </g>
   <g id="cell152">
  <circle cx="644.017" cy="554.107" r="6.8021" stroke-width="0.5" stroke="black" fill="green"/>
  <circle cx="644.017" cy="554.107" r="4.11488" stroke-width="0.5" stroke="black" fill="green"/>
   </g>
   <g id="cell153">
  <circle cx="391.566" cy="526.318" r="6.65119" stroke-width="0.5" stroke="black" fill="cyan"/>
  <circle cx="391.566" cy="526.318" r="4.03879" stroke-width="0.5" stroke="black" fill="cyan"/>
   </g>
   <g id="cell154">
  <circle cx="588.293" cy="500.738" r="6.77703" stroke-width="0.5" stroke="black" fill="magenta"/>
  <circle cx="588.293" cy="500.738" r="4.08568" stroke-width="0.5" stroke="black" fill="magenta"/>
   </g>
   <g id="cell155">
  <circle cx="520.984" cy="589.283" r="5.88876" stroke-width="0.5" stroke="black" fill="magenta"/>
  <circle cx="520.984" cy="589.283" r="3.61069" stroke-width="0.5" stroke="black" fill="magenta"/>
   </g>
  </g>
 </g>
  <rect x="775" y="1035" width="200" height="10" stroke-width="2" stroke="rgb(255,255,255)" fill="rgb(0,0,0)"/>
  <text x="781.25" y="1028.75"
   font-family="Arial" font-size="25" fill="black" >
   200 &#956;m
  </text>
  <text x="25" y="1045"
   font-family="Arial" font-size="18.75" fill="black" >
   0 days, 0 hours, 0 minutes, and 33.9351 seconds
  </text>
  <rect x="0" y="70" width="1000" height="1000" stroke-width="2" stroke="rgb(0,0,0)" fill="none"/>
</svg>
