<?xml version="1.0" encoding="UTF-8" standalone="no"?>
<!-- Created with PhysiCell (http://PhysiCell.MathCancer.org/) -->
<svg 
 xmlns:dc="http://purl.org/dc/elements/1.1/" 
 xmlns:cc="http://creativecommons.org/ns#" 
 xmlns:rdf="http://www.w3.org/1999/02/22-rdf-syntax-ns#" 
 xmlns:svg="http://www.w3.org/2000/svg" 
 xmlns="http://www.w3.org/2000/svg" 
 version="1.1" 
 width="1000" 
 height="1070" 
 id="svg2">
  <rect x="0" y="0" width="1000" height="1070" stroke-width="2" stroke="white" fill="white"/>
  <text x="12.5" y="30"
   font-family="Arial" font-size="25" fill="black" >
   Current time: 0 days, 18 hours, and 30.00 minutes, z = 0.00 &#956;m
  </text>
  <text x="12.5" y="57.5"
   font-family="Arial" font-size="23.75" fill="black" >
   131 agents
  </text>
 <g id="tissue" 
    transform="translate(0,1070) scale(1,-1)">
  <g id="ECM">
  </g>
  <g id="cells">
   <g id="cell0">
  <circle cx="518.272" cy="532.377" r="8.39913" stroke-width="0.5" stroke="black" fill="magenta"/>
  <circle cx="518.272" cy="532.377" r="5.04725" stroke-width="0.5" stroke="black" fill="magenta"/>
   </g>
   <g id="cell1">
  <circle cx="600.529" cy="520.699" r="2.22333" stroke-width="0.5" stroke="black" fill="magenta"/>
  <circle cx="600.529" cy="520.699" r="2.05083" stroke-width="0.5" stroke="black" fill="black"/>
   </g>
   <g id="cell2">
  <circle cx="513.095" cy="597.632" r="8.41271" stroke-width="0.5" stroke="black" fill="magenta"/>
  <circle cx="513.095" cy="597.632" r="5.05167" stroke-width="0.5" stroke="black" fill="magenta"/>
   </g>
   <g id="cell3">
  <circle cx="532.013" cy="538.929" r="8.41271" stroke-width="0.5" stroke="black" fill="magenta"/>
  <circle cx="532.013" cy="538.929" r="5.05167" stroke-width="0.5" stroke="black" fill="magenta"/>
   </g>
   <g id="cell4">
  <circle cx="472.413" cy="440.424" r="8.40056" stroke-width="0.5" stroke="black" fill="magenta"/>
  <circle cx="472.413" cy="440.424" r="5.04776" stroke-width="0.5" stroke="black" fill="magenta"/>
   </g>
   <g id="cell5">
  <circle cx="465.65" cy="493.957" r="8.41271" stroke-width="0.5" stroke="black" fill="magenta"/>
  <circle cx="465.65" cy="493.957" r="5.05167" stroke-width="0.5" stroke="black" fill="magenta"/>
   </g>
   <g id="cell6">
  <circle cx="594.32" cy="513.435" r="8.36849" stroke-width="0.5" stroke="black" fill="magenta"/>
  <circle cx="594.32" cy="513.435" r="5.03512" stroke-width="0.5" stroke="black" fill="magenta"/>
   </g>
   <g id="cell7">
  <circle cx="511.968" cy="464.715" r="8.41271" stroke-width="0.5" stroke="black" fill="magenta"/>
  <circle cx="511.968" cy="464.715" r="5.05167" stroke-width="0.5" stroke="black" fill="magenta"/>
   </g>
   <g id="cell8">
  <circle cx="374.685" cy="547.748" r="8.41271" stroke-width="0.5" stroke="black" fill="magenta"/>
  <circle cx="374.685" cy="547.748" r="5.05167" stroke-width="0.5" stroke="black" fill="magenta"/>
   </g>
   <g id="cell9">
  <circle cx="464.05" cy="602.102" r="8.36592" stroke-width="0.5" stroke="black" fill="magenta"/>
  <circle cx="464.05" cy="602.102" r="5.03403" stroke-width="0.5" stroke="black" fill="magenta"/>
   </g>
   <g id="cell10">
  <circle cx="588.234" cy="391.406" r="7.02257" stroke-width="0.5" stroke="black" fill="magenta"/>
  <circle cx="588.234" cy="391.406" r="4.25644" stroke-width="0.5" stroke="black" fill="magenta"/>
   </g>
   <g id="cell11">
  <circle cx="589.748" cy="590.273" r="8.41271" stroke-width="0.5" stroke="black" fill="magenta"/>
  <circle cx="589.748" cy="590.273" r="5.05167" stroke-width="0.5" stroke="black" fill="magenta"/>
   </g>
   <g id="cell12">
  <circle cx="505.776" cy="584.404" r="8.41271" stroke-width="0.5" stroke="black" fill="magenta"/>
  <circle cx="505.776" cy="584.404" r="5.05167" stroke-width="0.5" stroke="black" fill="magenta"/>
   </g>
   <g id="cell13">
  <circle cx="379.007" cy="561.749" r="7.69843" stroke-width="0.5" stroke="black" fill="magenta"/>
  <circle cx="379.007" cy="561.749" r="4.68162" stroke-width="0.5" stroke="black" fill="magenta"/>
   </g>
   <g id="cell14">
  <circle cx="523.18" cy="398.674" r="6.71158" stroke-width="0.5" stroke="black" fill="magenta"/>
  <circle cx="523.18" cy="398.674" r="4.03435" stroke-width="0.5" stroke="black" fill="magenta"/>
   </g>
   <g id="cell15">
  <circle cx="382.289" cy="479.496" r="8.39987" stroke-width="0.5" stroke="black" fill="magenta"/>
  <circle cx="382.289" cy="479.496" r="5.04751" stroke-width="0.5" stroke="black" fill="magenta"/>
   </g>
   <g id="cell16">
  <circle cx="429.69" cy="414.377" r="8.41271" stroke-width="0.5" stroke="black" fill="magenta"/>
  <circle cx="429.69" cy="414.377" r="5.05167" stroke-width="0.5" stroke="black" fill="magenta"/>
   </g>
   <g id="cell17">
  <circle cx="585.562" cy="487.898" r="8.31209" stroke-width="0.5" stroke="black" fill="magenta"/>
  <circle cx="585.562" cy="487.898" r="5.01002" stroke-width="0.5" stroke="black" fill="magenta"/>
   </g>
   <g id="cell18">
  <circle cx="510.655" cy="394.362" r="8.40123" stroke-width="0.5" stroke="black" fill="magenta"/>
  <circle cx="510.655" cy="394.362" r="5.048" stroke-width="0.5" stroke="black" fill="magenta"/>
   </g>
   <g id="cell19">
  <circle cx="447.933" cy="538.71" r="8.35062" stroke-width="0.5" stroke="black" fill="magenta"/>
  <circle cx="447.933" cy="538.71" r="5.02745" stroke-width="0.5" stroke="black" fill="magenta"/>
   </g>
   <g id="cell20">
  <circle cx="528.498" cy="421.309" r="8.41271" stroke-width="0.5" stroke="black" fill="magenta"/>
  <circle cx="528.498" cy="421.309" r="5.05167" stroke-width="0.5" stroke="black" fill="magenta"/>
   </g>
   <g id="cell21">
  <circle cx="465.487" cy="637.149" r="1.56818" stroke-width="0.5" stroke="black" fill="magenta"/>
  <circle cx="465.487" cy="637.149" r="1.52689" stroke-width="0.5" stroke="black" fill="black"/>
   </g>
   <g id="cell22">
  <circle cx="557.814" cy="499.018" r="8.32616" stroke-width="0.5" stroke="black" fill="magenta"/>
  <circle cx="557.814" cy="499.018" r="5.01752" stroke-width="0.5" stroke="black" fill="magenta"/>
   </g>
   <g id="cell23">
  <circle cx="538.04" cy="481.531" r="8.41271" stroke-width="0.5" stroke="black" fill="magenta"/>
  <circle cx="538.04" cy="481.531" r="5.05167" stroke-width="0.5" stroke="black" fill="magenta"/>
   </g>
   <g id="cell24">
  <circle cx="559.415" cy="379.935" r="8.41271" stroke-width="0.5" stroke="black" fill="magenta"/>
  <circle cx="559.415" cy="379.935" r="5.05167" stroke-width="0.5" stroke="black" fill="magenta"/>
   </g>
   <g id="cell25">
  <circle cx="647.733" cy="559.409" r="8.06973" stroke-width="0.5" stroke="black" fill="green"/>
  <circle cx="647.733" cy="559.409" r="4.89461" stroke-width="0.5" stroke="black" fill="green"/>
   </g>
   <g id="cell26">
  <circle cx="550.642" cy="401.23" r="8.41271" stroke-width="0.5" stroke="black" fill="green"/>
  <circle cx="550.642" cy="401.23" r="5.05167" stroke-width="0.5" stroke="black" fill="green"/>
   </g>
   <g id="cell27">
  <circle cx="457.446" cy="388.678" r="8.41271" stroke-width="0.5" stroke="black" fill="green"/>
  <circle cx="457.446" cy="388.678" r="5.05167" stroke-width="0.5" stroke="black" fill="green"/>
   </g>
   <g id="cell28">
  <circle cx="432.553" cy="541.96" r="8.41271" stroke-width="0.5" stroke="black" fill="green"/>
  <circle cx="432.553" cy="541.96" r="5.05167" stroke-width="0.5" stroke="black" fill="green"/>
   </g>
   <g id="cell29">
  <circle cx="467.366" cy="520.973" r="7.99104" stroke-width="0.5" stroke="black" fill="green"/>
  <circle cx="467.366" cy="520.973" r="4.84766" stroke-width="0.5" stroke="black" fill="green"/>
   </g>
   <g id="cell30">
  <circle cx="477.65" cy="539.149" r="8.41271" stroke-width="0.5" stroke="black" fill="green"/>
  <circle cx="477.65" cy="539.149" r="5.05167" stroke-width="0.5" stroke="black" fill="green"/>
   </g>
   <g id="cell31">
  <circle cx="412.368" cy="538.338" r="8.41271" stroke-width="0.5" stroke="black" fill="green"/>
  <circle cx="412.368" cy="538.338" r="5.05167" stroke-width="0.5" stroke="black" fill="green"/>
   </g>
   <g id="cell32">
  <circle cx="430.663" cy="465.939" r="8.3784" stroke-width="0.5" stroke="black" fill="green"/>
  <circle cx="430.663" cy="465.939" r="5.03921" stroke-width="0.5" stroke="black" fill="green"/>
   </g>
   <g id="cell33">
  <circle cx="498.867" cy="413.242" r="8.38291" stroke-width="0.5" stroke="black" fill="green"/>
  <circle cx="498.867" cy="413.242" r="5.04103" stroke-width="0.5" stroke="black" fill="green"/>
   </g>
   <g id="cell34">
  <circle cx="392.09" cy="453.602" r="8.37537" stroke-width="0.5" stroke="black" fill="green"/>
  <circle cx="392.09" cy="453.602" r="5.03798" stroke-width="0.5" stroke="black" fill="green"/>
   </g>
   <g id="cell35">
  <circle cx="542.826" cy="550.135" r="8.25826" stroke-width="0.5" stroke="black" fill="green"/>
  <circle cx="542.826" cy="550.135" r="4.98429" stroke-width="0.5" stroke="black" fill="green"/>
   </g>
   <g id="cell36">
  <circle cx="396.121" cy="579.748" r="7.56839" stroke-width="0.5" stroke="black" fill="green"/>
  <circle cx="396.121" cy="579.748" r="4.59998" stroke-width="0.5" stroke="black" fill="green"/>
   </g>
   <g id="cell37">
  <circle cx="634.871" cy="460.618" r="8.41271" stroke-width="0.5" stroke="black" fill="green"/>
  <circle cx="634.871" cy="460.618" r="5.05167" stroke-width="0.5" stroke="black" fill="green"/>
   </g>
   <g id="cell38">
  <circle cx="528.263" cy="601.023" r="8.35404" stroke-width="0.5" stroke="black" fill="green"/>
  <circle cx="528.263" cy="601.023" r="5.02894" stroke-width="0.5" stroke="black" fill="green"/>
   </g>
   <g id="cell39">
  <circle cx="618.679" cy="495.432" r="8.39834" stroke-width="0.5" stroke="black" fill="green"/>
  <circle cx="618.679" cy="495.432" r="5.04696" stroke-width="0.5" stroke="black" fill="green"/>
   </g>
   <g id="cell40">
  <circle cx="485.348" cy="571.779" r="8.41271" stroke-width="0.5" stroke="black" fill="green"/>
  <circle cx="485.348" cy="571.779" r="5.05167" stroke-width="0.5" stroke="black" fill="green"/>
   </g>
   <g id="cell41">
  <circle cx="366.791" cy="481.169" r="8.41271" stroke-width="0.5" stroke="black" fill="green"/>
  <circle cx="366.791" cy="481.169" r="5.05167" stroke-width="0.5" stroke="black" fill="green"/>
   </g>
   <g id="cell42">
  <circle cx="452.054" cy="486.528" r="8.36281" stroke-width="0.5" stroke="black" fill="green"/>
  <circle cx="452.054" cy="486.528" r="5.03343" stroke-width="0.5" stroke="black" fill="green"/>
   </g>
   <g id="cell43">
  <circle cx="558.607" cy="445.802" r="8.41271" stroke-width="0.5" stroke="black" fill="green"/>
  <circle cx="558.607" cy="445.802" r="5.05167" stroke-width="0.5" stroke="black" fill="green"/>
   </g>
   <g id="cell44">
  <circle cx="477.232" cy="627.429" r="8.37208" stroke-width="0.5" stroke="black" fill="green"/>
  <circle cx="477.232" cy="627.429" r="5.03661" stroke-width="0.5" stroke="black" fill="green"/>
   </g>
   <g id="cell45">
  <circle cx="416.865" cy="553.625" r="8.31209" stroke-width="0.5" stroke="black" fill="green"/>
  <circle cx="416.865" cy="553.625" r="5.01002" stroke-width="0.5" stroke="black" fill="green"/>
   </g>
   <g id="cell46">
  <circle cx="517.504" cy="611.946" r="7.81315" stroke-width="0.5" stroke="black" fill="green"/>
  <circle cx="517.504" cy="611.946" r="4.74367" stroke-width="0.5" stroke="black" fill="green"/>
   </g>
   <g id="cell47">
  <circle cx="502.577" cy="510.35" r="8.41271" stroke-width="0.5" stroke="black" fill="green"/>
  <circle cx="502.577" cy="510.35" r="5.05167" stroke-width="0.5" stroke="black" fill="green"/>
   </g>
   <g id="cell48">
  <circle cx="564.622" cy="603.52" r="8.41271" stroke-width="0.5" stroke="black" fill="green"/>
  <circle cx="564.622" cy="603.52" r="5.05167" stroke-width="0.5" stroke="black" fill="green"/>
   </g>
   <g id="cell49">
  <circle cx="433.566" cy="394.647" r="7.08639" stroke-width="0.5" stroke="black" fill="green"/>
  <circle cx="433.566" cy="394.647" r="4.29876" stroke-width="0.5" stroke="black" fill="green"/>
   </g>
   <g id="cell50">
  <circle cx="517.192" cy="516.693" r="8.41271" stroke-width="0.5" stroke="black" fill="cyan"/>
  <circle cx="517.192" cy="516.693" r="5.05167" stroke-width="0.5" stroke="black" fill="cyan"/>
   </g>
   <g id="cell51">
  <circle cx="394.376" cy="599.932" r="7.24243" stroke-width="0.5" stroke="black" fill="cyan"/>
  <circle cx="394.376" cy="599.932" r="4.39934" stroke-width="0.5" stroke="black" fill="cyan"/>
   </g>
   <g id="cell120">
  <circle cx="418.053" cy="610.335" r="7.79564" stroke-width="0.5" stroke="black" fill="cyan"/>
  <circle cx="418.053" cy="610.335" r="4.73359" stroke-width="0.5" stroke="black" fill="cyan"/>
   </g>
   <g id="cell53">
  <circle cx="571.286" cy="436.002" r="8.41271" stroke-width="0.5" stroke="black" fill="cyan"/>
  <circle cx="571.286" cy="436.002" r="5.05167" stroke-width="0.5" stroke="black" fill="cyan"/>
   </g>
   <g id="cell54">
  <circle cx="476.177" cy="425.292" r="8.41271" stroke-width="0.5" stroke="black" fill="cyan"/>
  <circle cx="476.177" cy="425.292" r="5.05167" stroke-width="0.5" stroke="black" fill="cyan"/>
   </g>
   <g id="cell55">
  <circle cx="525.975" cy="471.609" r="8.41271" stroke-width="0.5" stroke="black" fill="cyan"/>
  <circle cx="525.975" cy="471.609" r="5.05167" stroke-width="0.5" stroke="black" fill="cyan"/>
   </g>
   <g id="cell56">
  <circle cx="615.793" cy="522.539" r="8.41271" stroke-width="0.5" stroke="black" fill="cyan"/>
  <circle cx="615.793" cy="522.539" r="5.05167" stroke-width="0.5" stroke="black" fill="cyan"/>
   </g>
   <g id="cell57">
  <circle cx="418.525" cy="625.052" r="7.79564" stroke-width="0.5" stroke="black" fill="cyan"/>
  <circle cx="418.525" cy="625.052" r="4.73359" stroke-width="0.5" stroke="black" fill="cyan"/>
   </g>
   <g id="cell58">
  <circle cx="553.47" cy="484.106" r="8.41271" stroke-width="0.5" stroke="black" fill="cyan"/>
  <circle cx="553.47" cy="484.106" r="5.05167" stroke-width="0.5" stroke="black" fill="cyan"/>
   </g>
   <g id="cell59">
  <circle cx="385.167" cy="439.192" r="8.41271" stroke-width="0.5" stroke="black" fill="cyan"/>
  <circle cx="385.167" cy="439.192" r="5.05167" stroke-width="0.5" stroke="black" fill="cyan"/>
   </g>
   <g id="cell60">
  <circle cx="587.607" cy="473.264" r="7.65871" stroke-width="0.5" stroke="black" fill="cyan"/>
  <circle cx="587.607" cy="473.264" r="4.6537" stroke-width="0.5" stroke="black" fill="cyan"/>
   </g>
   <g id="cell61">
  <circle cx="554.623" cy="614.976" r="3.9178" stroke-width="0.5" stroke="black" fill="cyan"/>
  <circle cx="554.623" cy="614.976" r="2.85647" stroke-width="0.5" stroke="black" fill="black"/>
   </g>
   <g id="cell62">
  <circle cx="526.638" cy="445.541" r="8.41271" stroke-width="0.5" stroke="black" fill="cyan"/>
  <circle cx="526.638" cy="445.541" r="5.05167" stroke-width="0.5" stroke="black" fill="cyan"/>
   </g>
   <g id="cell63">
  <circle cx="582.303" cy="553.377" r="8.35404" stroke-width="0.5" stroke="black" fill="cyan"/>
  <circle cx="582.303" cy="553.377" r="5.02894" stroke-width="0.5" stroke="black" fill="cyan"/>
   </g>
   <g id="cell64">
  <circle cx="513.751" cy="633.797" r="7.59183" stroke-width="0.5" stroke="black" fill="cyan"/>
  <circle cx="513.751" cy="633.797" r="4.61399" stroke-width="0.5" stroke="black" fill="cyan"/>
   </g>
   <g id="cell65">
  <circle cx="535.513" cy="458.81" r="8.35062" stroke-width="0.5" stroke="black" fill="cyan"/>
  <circle cx="535.513" cy="458.81" r="5.02745" stroke-width="0.5" stroke="black" fill="cyan"/>
   </g>
   <g id="cell66">
  <circle cx="543.925" cy="529.636" r="7.83019" stroke-width="0.5" stroke="black" fill="cyan"/>
  <circle cx="543.925" cy="529.636" r="4.75343" stroke-width="0.5" stroke="black" fill="cyan"/>
   </g>
   <g id="cell67">
  <circle cx="355.152" cy="492.182" r="8.41271" stroke-width="0.5" stroke="black" fill="cyan"/>
  <circle cx="355.152" cy="492.182" r="5.05167" stroke-width="0.5" stroke="black" fill="cyan"/>
   </g>
   <g id="cell68">
  <circle cx="558.091" cy="555.264" r="8.41271" stroke-width="0.5" stroke="black" fill="cyan"/>
  <circle cx="558.091" cy="555.264" r="5.05167" stroke-width="0.5" stroke="black" fill="cyan"/>
   </g>
   <g id="cell69">
  <circle cx="437.447" cy="451.505" r="8.40154" stroke-width="0.5" stroke="black" fill="cyan"/>
  <circle cx="437.447" cy="451.505" r="5.04811" stroke-width="0.5" stroke="black" fill="cyan"/>
   </g>
   <g id="cell70">
  <circle cx="573.289" cy="478.229" r="8.41271" stroke-width="0.5" stroke="black" fill="cyan"/>
  <circle cx="573.289" cy="478.229" r="5.05167" stroke-width="0.5" stroke="black" fill="cyan"/>
   </g>
   <g id="cell71">
  <circle cx="382.897" cy="527.609" r="6.80228" stroke-width="0.5" stroke="black" fill="cyan"/>
  <circle cx="382.897" cy="527.609" r="4.17372" stroke-width="0.5" stroke="black" fill="cyan"/>
   </g>
   <g id="cell72">
  <circle cx="535.425" cy="509.314" r="8.41271" stroke-width="0.5" stroke="black" fill="cyan"/>
  <circle cx="535.425" cy="509.314" r="5.05167" stroke-width="0.5" stroke="black" fill="cyan"/>
   </g>
   <g id="cell129">
  <circle cx="422.373" cy="402.067" r="7.08639" stroke-width="0.5" stroke="black" fill="green"/>
  <circle cx="422.373" cy="402.067" r="4.29876" stroke-width="0.5" stroke="black" fill="green"/>
   </g>
   <g id="cell74">
  <circle cx="542.632" cy="444.524" r="8.41271" stroke-width="0.5" stroke="black" fill="cyan"/>
  <circle cx="542.632" cy="444.524" r="5.05167" stroke-width="0.5" stroke="black" fill="cyan"/>
   </g>
   <g id="cell75">
  <circle cx="442.628" cy="474.934" r="7.48753" stroke-width="0.5" stroke="black" fill="cyan"/>
  <circle cx="442.628" cy="474.934" r="4.55309" stroke-width="0.5" stroke="black" fill="cyan"/>
   </g>
   <g id="cell76">
  <circle cx="523.438" cy="385.52" r="8.33733" stroke-width="0.5" stroke="black" fill="magenta"/>
  <circle cx="523.438" cy="385.52" r="5.02229" stroke-width="0.5" stroke="black" fill="magenta"/>
   </g>
   <g id="cell77">
  <circle cx="486.67" cy="436.358" r="8.04989" stroke-width="0.5" stroke="black" fill="magenta"/>
  <circle cx="486.67" cy="436.358" r="4.87747" stroke-width="0.5" stroke="black" fill="magenta"/>
   </g>
   <g id="cell78">
  <circle cx="373.58" cy="467.136" r="8.39987" stroke-width="0.5" stroke="black" fill="magenta"/>
  <circle cx="373.58" cy="467.136" r="5.04751" stroke-width="0.5" stroke="black" fill="magenta"/>
   </g>
   <g id="cell79">
  <circle cx="504.635" cy="525.831" r="8.39913" stroke-width="0.5" stroke="black" fill="magenta"/>
  <circle cx="504.635" cy="525.831" r="5.04725" stroke-width="0.5" stroke="black" fill="magenta"/>
   </g>
   <g id="cell80">
  <circle cx="605.871" cy="485.81" r="8.39834" stroke-width="0.5" stroke="black" fill="green"/>
  <circle cx="605.871" cy="485.81" r="5.04696" stroke-width="0.5" stroke="black" fill="green"/>
   </g>
   <g id="cell81">
  <circle cx="430.124" cy="500.85" r="7.21238" stroke-width="0.5" stroke="black" fill="green"/>
  <circle cx="430.124" cy="500.85" r="4.40193" stroke-width="0.5" stroke="black" fill="green"/>
   </g>
   <g id="cell82">
  <circle cx="543.124" cy="495.773" r="8.39571" stroke-width="0.5" stroke="black" fill="magenta"/>
  <circle cx="543.124" cy="495.773" r="5.04599" stroke-width="0.5" stroke="black" fill="magenta"/>
   </g>
   <g id="cell130">
  <circle cx="575.703" cy="393.051" r="7.02257" stroke-width="0.5" stroke="black" fill="magenta"/>
  <circle cx="575.703" cy="393.051" r="4.25644" stroke-width="0.5" stroke="black" fill="magenta"/>
   </g>
   <g id="cell84">
  <circle cx="407.942" cy="481.156" r="8.08603" stroke-width="0.5" stroke="black" fill="green"/>
  <circle cx="407.942" cy="481.156" r="4.89859" stroke-width="0.5" stroke="black" fill="green"/>
   </g>
   <g id="cell85">
  <circle cx="405.579" cy="447.367" r="1.63572" stroke-width="0.5" stroke="black" fill="green"/>
  <circle cx="405.579" cy="447.367" r="1.60097" stroke-width="0.5" stroke="black" fill="black"/>
   </g>
   <g id="cell86">
  <circle cx="392.82" cy="565.568" r="8.11013" stroke-width="0.5" stroke="black" fill="magenta"/>
  <circle cx="392.82" cy="565.568" r="4.91153" stroke-width="0.5" stroke="black" fill="magenta"/>
   </g>
   <g id="cell87">
  <circle cx="437.916" cy="527.702" r="7.88622" stroke-width="0.5" stroke="black" fill="green"/>
  <circle cx="437.916" cy="527.702" r="4.78947" stroke-width="0.5" stroke="black" fill="green"/>
   </g>
   <g id="cell88">
  <circle cx="476.403" cy="611.506" r="8.37208" stroke-width="0.5" stroke="black" fill="green"/>
  <circle cx="476.403" cy="611.506" r="5.03661" stroke-width="0.5" stroke="black" fill="green"/>
   </g>
   <g id="cell89">
  <circle cx="436.246" cy="487.98" r="8.27109" stroke-width="0.5" stroke="black" fill="green"/>
  <circle cx="436.246" cy="487.98" r="4.9934" stroke-width="0.5" stroke="black" fill="green"/>
   </g>
   <g id="cell90">
  <circle cx="583.57" cy="502.812" r="8.36849" stroke-width="0.5" stroke="black" fill="magenta"/>
  <circle cx="583.57" cy="502.812" r="5.03512" stroke-width="0.5" stroke="black" fill="magenta"/>
   </g>
   <g id="cell91">
  <circle cx="455.947" cy="598.803" r="1.35138" stroke-width="0.5" stroke="black" fill="magenta"/>
  <circle cx="455.947" cy="598.803" r="1.34038" stroke-width="0.5" stroke="black" fill="black"/>
   </g>
   <g id="cell92">
  <circle cx="553.712" cy="592.302" r="8.07038" stroke-width="0.5" stroke="black" fill="green"/>
  <circle cx="553.712" cy="592.302" r="4.89649" stroke-width="0.5" stroke="black" fill="green"/>
   </g>
   <g id="cell93">
  <circle cx="573.977" cy="526.915" r="6.7339" stroke-width="0.5" stroke="black" fill="cyan"/>
  <circle cx="573.977" cy="526.915" r="4.08482" stroke-width="0.5" stroke="black" fill="cyan"/>
   </g>
   <g id="cell94">
  <circle cx="547.529" cy="469.243" r="8.35062" stroke-width="0.5" stroke="black" fill="cyan"/>
  <circle cx="547.529" cy="469.243" r="5.02745" stroke-width="0.5" stroke="black" fill="cyan"/>
   </g>
   <g id="cell95">
  <circle cx="462.6" cy="535.371" r="8.35062" stroke-width="0.5" stroke="black" fill="magenta"/>
  <circle cx="462.6" cy="535.371" r="5.02745" stroke-width="0.5" stroke="black" fill="magenta"/>
   </g>
   <g id="cell96">
  <circle cx="535.368" cy="376.467" r="8.33733" stroke-width="0.5" stroke="black" fill="magenta"/>
  <circle cx="535.368" cy="376.467" r="5.02229" stroke-width="0.5" stroke="black" fill="magenta"/>
   </g>
   <g id="cell97">
  <circle cx="569.576" cy="508.365" r="8.32616" stroke-width="0.5" stroke="black" fill="magenta"/>
  <circle cx="569.576" cy="508.365" r="5.01752" stroke-width="0.5" stroke="black" fill="magenta"/>
   </g>
   <g id="cell98">
  <circle cx="408.013" cy="566.83" r="8.31209" stroke-width="0.5" stroke="black" fill="green"/>
  <circle cx="408.013" cy="566.83" r="5.01002" stroke-width="0.5" stroke="black" fill="green"/>
   </g>
   <g id="cell99">
  <circle cx="571.72" cy="493.568" r="8.31209" stroke-width="0.5" stroke="black" fill="magenta"/>
  <circle cx="571.72" cy="493.568" r="5.01002" stroke-width="0.5" stroke="black" fill="magenta"/>
   </g>
   <g id="cell100">
  <circle cx="569.689" cy="544.039" r="8.27619" stroke-width="0.5" stroke="black" fill="cyan"/>
  <circle cx="569.689" cy="544.039" r="4.99562" stroke-width="0.5" stroke="black" fill="cyan"/>
   </g>
   <g id="cell101">
  <circle cx="462.057" cy="629.108" r="8.12417" stroke-width="0.5" stroke="black" fill="magenta"/>
  <circle cx="462.057" cy="629.108" r="4.92165" stroke-width="0.5" stroke="black" fill="magenta"/>
   </g>
   <g id="cell102">
  <circle cx="445.292" cy="500.707" r="8.27109" stroke-width="0.5" stroke="black" fill="green"/>
  <circle cx="445.292" cy="500.707" r="4.9934" stroke-width="0.5" stroke="black" fill="green"/>
   </g>
   <g id="cell103">
  <circle cx="543.73" cy="604.199" r="8.24072" stroke-width="0.5" stroke="black" fill="green"/>
  <circle cx="543.73" cy="604.199" r="4.97872" stroke-width="0.5" stroke="black" fill="green"/>
   </g>
   <g id="cell104">
  <circle cx="554.748" cy="539.952" r="8.25826" stroke-width="0.5" stroke="black" fill="green"/>
  <circle cx="554.748" cy="539.952" r="4.98429" stroke-width="0.5" stroke="black" fill="green"/>
   </g>
   <g id="cell105">
  <circle cx="417.005" cy="493.907" r="8.23112" stroke-width="0.5" stroke="black" fill="green"/>
  <circle cx="417.005" cy="493.907" r="4.97222" stroke-width="0.5" stroke="black" fill="green"/>
   </g>
   <g id="cell106">
  <circle cx="639.204" cy="537.264" r="8.23948" stroke-width="0.5" stroke="black" fill="green"/>
  <circle cx="639.204" cy="537.264" r="4.97503" stroke-width="0.5" stroke="black" fill="green"/>
   </g>
   <g id="cell107">
  <circle cx="383.269" cy="513.435" r="8.18833" stroke-width="0.5" stroke="black" fill="cyan"/>
  <circle cx="383.269" cy="513.435" r="4.94921" stroke-width="0.5" stroke="black" fill="cyan"/>
   </g>
   <g id="cell108">
  <circle cx="459.437" cy="643.456" r="8.12417" stroke-width="0.5" stroke="black" fill="magenta"/>
  <circle cx="459.437" cy="643.456" r="4.92165" stroke-width="0.5" stroke="black" fill="magenta"/>
   </g>
   <g id="cell109">
  <circle cx="448.281" cy="633.988" r="8.12417" stroke-width="0.5" stroke="black" fill="magenta"/>
  <circle cx="448.281" cy="633.988" r="4.92165" stroke-width="0.5" stroke="black" fill="magenta"/>
   </g>
   <g id="cell110">
  <circle cx="538.681" cy="589.466" r="8.07038" stroke-width="0.5" stroke="black" fill="green"/>
  <circle cx="538.681" cy="589.466" r="4.89649" stroke-width="0.5" stroke="black" fill="green"/>
   </g>
   <g id="cell111">
  <circle cx="634.306" cy="551.981" r="8.06973" stroke-width="0.5" stroke="black" fill="green"/>
  <circle cx="634.306" cy="551.981" r="4.89461" stroke-width="0.5" stroke="black" fill="green"/>
   </g>
   <g id="cell112">
  <circle cx="382.208" cy="575.518" r="8.11013" stroke-width="0.5" stroke="black" fill="magenta"/>
  <circle cx="382.208" cy="575.518" r="4.91153" stroke-width="0.5" stroke="black" fill="magenta"/>
   </g>
   <g id="cell113">
  <circle cx="423.187" cy="479.686" r="8.08603" stroke-width="0.5" stroke="black" fill="green"/>
  <circle cx="423.187" cy="479.686" r="4.89859" stroke-width="0.5" stroke="black" fill="green"/>
   </g>
   <g id="cell114">
  <circle cx="494.241" cy="446.976" r="6.50323" stroke-width="0.5" stroke="black" fill="magenta"/>
  <circle cx="494.241" cy="446.976" r="3.95324" stroke-width="0.5" stroke="black" fill="magenta"/>
   </g>
   <g id="cell115">
  <circle cx="452.514" cy="524.156" r="7.99104" stroke-width="0.5" stroke="black" fill="green"/>
  <circle cx="452.514" cy="524.156" r="4.84766" stroke-width="0.5" stroke="black" fill="green"/>
   </g>
   <g id="cell116">
  <circle cx="369.179" cy="519.309" r="7.85306" stroke-width="0.5" stroke="black" fill="cyan"/>
  <circle cx="369.179" cy="519.309" r="4.7792" stroke-width="0.5" stroke="black" fill="cyan"/>
   </g>
   <g id="cell117">
  <circle cx="436.786" cy="513.197" r="7.88622" stroke-width="0.5" stroke="black" fill="green"/>
  <circle cx="436.786" cy="513.197" r="4.78947" stroke-width="0.5" stroke="black" fill="green"/>
   </g>
   <g id="cell118">
  <circle cx="530.558" cy="523.923" r="7.83019" stroke-width="0.5" stroke="black" fill="cyan"/>
  <circle cx="530.558" cy="523.923" r="4.75343" stroke-width="0.5" stroke="black" fill="cyan"/>
   </g>
   <g id="cell119">
  <circle cx="525.068" cy="624.645" r="7.81315" stroke-width="0.5" stroke="black" fill="green"/>
  <circle cx="525.068" cy="624.645" r="4.74367" stroke-width="0.5" stroke="black" fill="green"/>
   </g>
   <g id="cell121">
  <circle cx="388.65" cy="551.949" r="7.69843" stroke-width="0.5" stroke="black" fill="magenta"/>
  <circle cx="388.65" cy="551.949" r="4.68162" stroke-width="0.5" stroke="black" fill="magenta"/>
   </g>
   <g id="cell122">
  <circle cx="601.903" cy="471.08" r="7.65871" stroke-width="0.5" stroke="black" fill="cyan"/>
  <circle cx="601.903" cy="471.08" r="4.6537" stroke-width="0.5" stroke="black" fill="cyan"/>
   </g>
   <g id="cell123">
  <circle cx="502.531" cy="642.74" r="7.59183" stroke-width="0.5" stroke="black" fill="cyan"/>
  <circle cx="502.531" cy="642.74" r="4.61399" stroke-width="0.5" stroke="black" fill="cyan"/>
   </g>
   <g id="cell124">
  <circle cx="385.321" cy="589.48" r="7.56839" stroke-width="0.5" stroke="black" fill="green"/>
  <circle cx="385.321" cy="589.48" r="4.59998" stroke-width="0.5" stroke="black" fill="green"/>
   </g>
   <g id="cell125">
  <circle cx="448.04" cy="462.12" r="7.48753" stroke-width="0.5" stroke="black" fill="cyan"/>
  <circle cx="448.04" cy="462.12" r="4.55309" stroke-width="0.5" stroke="black" fill="cyan"/>
   </g>
   <g id="cell126">
  <circle cx="418.964" cy="508.484" r="7.21238" stroke-width="0.5" stroke="black" fill="green"/>
  <circle cx="418.964" cy="508.484" r="4.40193" stroke-width="0.5" stroke="black" fill="green"/>
   </g>
   <g id="cell127">
  <circle cx="407.928" cy="600.485" r="7.24243" stroke-width="0.5" stroke="black" fill="cyan"/>
  <circle cx="407.928" cy="600.485" r="4.39934" stroke-width="0.5" stroke="black" fill="cyan"/>
   </g>
   <g id="cell128">
  <circle cx="371.386" cy="533.385" r="6.80228" stroke-width="0.5" stroke="black" fill="cyan"/>
  <circle cx="371.386" cy="533.385" r="4.17372" stroke-width="0.5" stroke="black" fill="cyan"/>
   </g>
   <g id="cell131">
  <circle cx="582.045" cy="536.886" r="6.7339" stroke-width="0.5" stroke="black" fill="cyan"/>
  <circle cx="582.045" cy="536.886" r="4.08482" stroke-width="0.5" stroke="black" fill="cyan"/>
   </g>
   <g id="cell132">
  <circle cx="504.954" cy="442.377" r="6.50323" stroke-width="0.5" stroke="black" fill="magenta"/>
  <circle cx="504.954" cy="442.377" r="3.95324" stroke-width="0.5" stroke="black" fill="magenta"/>
   </g>
   <g id="cell133">
  <circle cx="529.952" cy="408.104" r="6.71158" stroke-width="0.5" stroke="black" fill="magenta"/>
  <circle cx="529.952" cy="408.104" r="4.03435" stroke-width="0.5" stroke="black" fill="magenta"/>
   </g>
  </g>
 </g>
  <rect x="775" y="1035" width="200" height="10" stroke-width="2" stroke="rgb(255,255,255)" fill="rgb(0,0,0)"/>
  <text x="781.25" y="1028.75"
   font-family="Arial" font-size="25" fill="black" >
   200 &#956;m
  </text>
  <text x="25" y="1045"
   font-family="Arial" font-size="18.75" fill="black" >
   0 days, 0 hours, 0 minutes, and 24.7551 seconds
  </text>
  <rect x="0" y="70" width="1000" height="1000" stroke-width="2" stroke="rgb(0,0,0)" fill="none"/>
</svg>
