<?xml version="1.0" encoding="UTF-8" standalone="no"?>
<!-- Created with PhysiCell (http://PhysiCell.MathCancer.org/) -->
<svg 
 xmlns:dc="http://purl.org/dc/elements/1.1/" 
 xmlns:cc="http://creativecommons.org/ns#" 
 xmlns:rdf="http://www.w3.org/1999/02/22-rdf-syntax-ns#" 
 xmlns:svg="http://www.w3.org/2000/svg" 
 xmlns="http://www.w3.org/2000/svg" 
 version="1.1" 
 width="1000" 
 height="1070" 
 id="svg2">
  <rect x="0" y="0" width="1000" height="1070" stroke-width="2" stroke="white" fill="white"/>
  <text x="12.5" y="30"
   font-family="Arial" font-size="25" fill="black" >
   Current time: 1 days, 8 hours, and 30.00 minutes, z = 0.00 &#956;m
  </text>
  <text x="12.5" y="57.5"
   font-family="Arial" font-size="23.75" fill="black" >
   179 agents
  </text>
 <g id="tissue" 
    transform="translate(0,1070) scale(1,-1)">
  <g id="ECM">
  </g>
  <g id="cells">
   <g id="cell0">
  <circle cx="511.432" cy="532.945" r="8.41243" stroke-width="0.5" stroke="black" fill="magenta"/>
  <circle cx="511.432" cy="532.945" r="5.05161" stroke-width="0.5" stroke="black" fill="magenta"/>
   </g>
   <g id="cell147">
  <circle cx="422.133" cy="574.636" r="8.26583" stroke-width="0.5" stroke="black" fill="green"/>
  <circle cx="422.133" cy="574.636" r="4.98821" stroke-width="0.5" stroke="black" fill="green"/>
   </g>
   <g id="cell2">
  <circle cx="503.974" cy="593.703" r="8.37321" stroke-width="0.5" stroke="black" fill="magenta"/>
  <circle cx="503.974" cy="593.703" r="5.03708" stroke-width="0.5" stroke="black" fill="magenta"/>
   </g>
   <g id="cell3">
  <circle cx="538.963" cy="545.387" r="8.36032" stroke-width="0.5" stroke="black" fill="magenta"/>
  <circle cx="538.963" cy="545.387" r="5.03165" stroke-width="0.5" stroke="black" fill="magenta"/>
   </g>
   <g id="cell4">
  <circle cx="458.025" cy="439.7" r="8.41246" stroke-width="0.5" stroke="black" fill="magenta"/>
  <circle cx="458.025" cy="439.7" r="5.05162" stroke-width="0.5" stroke="black" fill="magenta"/>
   </g>
   <g id="cell5">
  <circle cx="459.354" cy="495.866" r="8.28985" stroke-width="0.5" stroke="black" fill="magenta"/>
  <circle cx="459.354" cy="495.866" r="4.99956" stroke-width="0.5" stroke="black" fill="magenta"/>
   </g>
   <g id="cell6">
  <circle cx="595.804" cy="515.771" r="8.41182" stroke-width="0.5" stroke="black" fill="magenta"/>
  <circle cx="595.804" cy="515.771" r="5.05145" stroke-width="0.5" stroke="black" fill="magenta"/>
   </g>
   <g id="cell7">
  <circle cx="513.492" cy="463.317" r="8.41271" stroke-width="0.5" stroke="black" fill="magenta"/>
  <circle cx="513.492" cy="463.317" r="5.05167" stroke-width="0.5" stroke="black" fill="magenta"/>
   </g>
   <g id="cell8">
  <circle cx="365.432" cy="549.25" r="8.29667" stroke-width="0.5" stroke="black" fill="magenta"/>
  <circle cx="365.432" cy="549.25" r="5.00279" stroke-width="0.5" stroke="black" fill="magenta"/>
   </g>
   <g id="cell9">
  <circle cx="462.869" cy="601.817" r="8.41177" stroke-width="0.5" stroke="black" fill="magenta"/>
  <circle cx="462.869" cy="601.817" r="5.05144" stroke-width="0.5" stroke="black" fill="magenta"/>
   </g>
   <g id="cell10">
  <circle cx="588.128" cy="396.908" r="8.29847" stroke-width="0.5" stroke="black" fill="magenta"/>
  <circle cx="588.128" cy="396.908" r="5.0052" stroke-width="0.5" stroke="black" fill="magenta"/>
   </g>
   <g id="cell11">
  <circle cx="589.748" cy="590.273" r="8.41271" stroke-width="0.5" stroke="black" fill="magenta"/>
  <circle cx="589.748" cy="590.273" r="5.05167" stroke-width="0.5" stroke="black" fill="magenta"/>
   </g>
   <g id="cell12">
  <circle cx="496.56" cy="580.764" r="8.41271" stroke-width="0.5" stroke="black" fill="magenta"/>
  <circle cx="496.56" cy="580.764" r="5.05167" stroke-width="0.5" stroke="black" fill="magenta"/>
   </g>
   <g id="cell13">
  <circle cx="378.033" cy="558.31" r="8.39949" stroke-width="0.5" stroke="black" fill="magenta"/>
  <circle cx="378.033" cy="558.31" r="5.04742" stroke-width="0.5" stroke="black" fill="magenta"/>
   </g>
   <g id="cell14">
  <circle cx="528.569" cy="396.67" r="7.85785" stroke-width="0.5" stroke="black" fill="magenta"/>
  <circle cx="528.569" cy="396.67" r="4.7732" stroke-width="0.5" stroke="black" fill="magenta"/>
   </g>
   <g id="cell15">
  <circle cx="389.842" cy="488.557" r="8.0429" stroke-width="0.5" stroke="black" fill="magenta"/>
  <circle cx="389.842" cy="488.557" r="4.87719" stroke-width="0.5" stroke="black" fill="magenta"/>
   </g>
   <g id="cell16">
  <circle cx="431.343" cy="412.137" r="8.41271" stroke-width="0.5" stroke="black" fill="magenta"/>
  <circle cx="431.343" cy="412.137" r="5.05167" stroke-width="0.5" stroke="black" fill="magenta"/>
   </g>
   <g id="cell17">
  <circle cx="582.094" cy="483.3" r="8.41072" stroke-width="0.5" stroke="black" fill="magenta"/>
  <circle cx="582.094" cy="483.3" r="5.05114" stroke-width="0.5" stroke="black" fill="magenta"/>
   </g>
   <g id="cell18">
  <circle cx="513.78" cy="394.449" r="8.41248" stroke-width="0.5" stroke="black" fill="magenta"/>
  <circle cx="513.78" cy="394.449" r="5.05162" stroke-width="0.5" stroke="black" fill="magenta"/>
   </g>
   <g id="cell19">
  <circle cx="452.402" cy="541.466" r="8.41147" stroke-width="0.5" stroke="black" fill="magenta"/>
  <circle cx="452.402" cy="541.466" r="5.05136" stroke-width="0.5" stroke="black" fill="magenta"/>
   </g>
   <g id="cell20">
  <circle cx="525.651" cy="420.846" r="8.41271" stroke-width="0.5" stroke="black" fill="magenta"/>
  <circle cx="525.651" cy="420.846" r="5.05167" stroke-width="0.5" stroke="black" fill="magenta"/>
   </g>
   <g id="cell141">
  <circle cx="492.534" cy="441.988" r="6.75953" stroke-width="0.5" stroke="black" fill="magenta"/>
  <circle cx="492.534" cy="441.988" r="4.14724" stroke-width="0.5" stroke="black" fill="magenta"/>
   </g>
   <g id="cell22">
  <circle cx="560.402" cy="497.071" r="8.41099" stroke-width="0.5" stroke="black" fill="magenta"/>
  <circle cx="560.402" cy="497.071" r="5.05123" stroke-width="0.5" stroke="black" fill="magenta"/>
   </g>
   <g id="cell23">
  <circle cx="536.265" cy="484.591" r="8.41271" stroke-width="0.5" stroke="black" fill="magenta"/>
  <circle cx="536.265" cy="484.591" r="5.05167" stroke-width="0.5" stroke="black" fill="magenta"/>
   </g>
   <g id="cell24">
  <circle cx="562.594" cy="381.945" r="8.41271" stroke-width="0.5" stroke="black" fill="magenta"/>
  <circle cx="562.594" cy="381.945" r="5.05167" stroke-width="0.5" stroke="black" fill="magenta"/>
   </g>
   <g id="cell25">
  <circle cx="653.39" cy="564.345" r="8.17832" stroke-width="0.5" stroke="black" fill="green"/>
  <circle cx="653.39" cy="564.345" r="4.94483" stroke-width="0.5" stroke="black" fill="green"/>
   </g>
   <g id="cell26">
  <circle cx="548.882" cy="402.02" r="8.41271" stroke-width="0.5" stroke="black" fill="green"/>
  <circle cx="548.882" cy="402.02" r="5.05167" stroke-width="0.5" stroke="black" fill="green"/>
   </g>
   <g id="cell27">
  <circle cx="451.395" cy="389.677" r="7.89373" stroke-width="0.5" stroke="black" fill="green"/>
  <circle cx="451.395" cy="389.677" r="4.78957" stroke-width="0.5" stroke="black" fill="green"/>
   </g>
   <g id="cell28">
  <circle cx="439.883" cy="550.1" r="8.41271" stroke-width="0.5" stroke="black" fill="green"/>
  <circle cx="439.883" cy="550.1" r="5.05167" stroke-width="0.5" stroke="black" fill="green"/>
   </g>
   <g id="cell29">
  <circle cx="466.721" cy="518.957" r="8.40476" stroke-width="0.5" stroke="black" fill="green"/>
  <circle cx="466.721" cy="518.957" r="5.04927" stroke-width="0.5" stroke="black" fill="green"/>
   </g>
   <g id="cell30">
  <circle cx="480.14" cy="539.815" r="8.41271" stroke-width="0.5" stroke="black" fill="green"/>
  <circle cx="480.14" cy="539.815" r="5.05167" stroke-width="0.5" stroke="black" fill="green"/>
   </g>
   <g id="cell31">
  <circle cx="410.292" cy="532.179" r="6.78181" stroke-width="0.5" stroke="black" fill="green"/>
  <circle cx="410.292" cy="532.179" r="4.08714" stroke-width="0.5" stroke="black" fill="green"/>
   </g>
   <g id="cell32">
  <circle cx="424.792" cy="456.156" r="8.05613" stroke-width="0.5" stroke="black" fill="green"/>
  <circle cx="424.792" cy="456.156" r="4.87956" stroke-width="0.5" stroke="black" fill="green"/>
   </g>
   <g id="cell33">
  <circle cx="498.321" cy="414.99" r="8.41211" stroke-width="0.5" stroke="black" fill="green"/>
  <circle cx="498.321" cy="414.99" r="5.05153" stroke-width="0.5" stroke="black" fill="green"/>
   </g>
   <g id="cell34">
  <circle cx="391.993" cy="454.064" r="8.41196" stroke-width="0.5" stroke="black" fill="green"/>
  <circle cx="391.993" cy="454.064" r="5.05149" stroke-width="0.5" stroke="black" fill="green"/>
   </g>
   <g id="cell35">
  <circle cx="546.839" cy="558.564" r="8.4097" stroke-width="0.5" stroke="black" fill="green"/>
  <circle cx="546.839" cy="558.564" r="5.05084" stroke-width="0.5" stroke="black" fill="green"/>
   </g>
   <g id="cell36">
  <circle cx="393.217" cy="580.893" r="8.39708" stroke-width="0.5" stroke="black" fill="green"/>
  <circle cx="393.217" cy="580.893" r="5.0465" stroke-width="0.5" stroke="black" fill="green"/>
   </g>
   <g id="cell174">
  <circle cx="477.852" cy="617.464" r="7.65821" stroke-width="0.5" stroke="black" fill="green"/>
  <circle cx="477.852" cy="617.464" r="4.65356" stroke-width="0.5" stroke="black" fill="green"/>
   </g>
   <g id="cell38">
  <circle cx="526.638" cy="606.336" r="8.41154" stroke-width="0.5" stroke="black" fill="green"/>
  <circle cx="526.638" cy="606.336" r="5.05138" stroke-width="0.5" stroke="black" fill="green"/>
   </g>
   <g id="cell39">
  <circle cx="616.964" cy="498.324" r="7.79547" stroke-width="0.5" stroke="black" fill="green"/>
  <circle cx="616.964" cy="498.324" r="4.73355" stroke-width="0.5" stroke="black" fill="green"/>
   </g>
   <g id="cell40">
  <circle cx="484.6" cy="571.108" r="8.41271" stroke-width="0.5" stroke="black" fill="green"/>
  <circle cx="484.6" cy="571.108" r="5.05167" stroke-width="0.5" stroke="black" fill="green"/>
   </g>
   <g id="cell41">
  <circle cx="363.486" cy="479.526" r="8.41271" stroke-width="0.5" stroke="black" fill="green"/>
  <circle cx="363.486" cy="479.526" r="5.05167" stroke-width="0.5" stroke="black" fill="green"/>
   </g>
   <g id="cell176">
  <circle cx="469.254" cy="447.746" r="6.96051" stroke-width="0.5" stroke="black" fill="magenta"/>
  <circle cx="469.254" cy="447.746" r="4.27125" stroke-width="0.5" stroke="black" fill="magenta"/>
   </g>
   <g id="cell43">
  <circle cx="558.191" cy="445.615" r="8.41271" stroke-width="0.5" stroke="black" fill="green"/>
  <circle cx="558.191" cy="445.615" r="5.05167" stroke-width="0.5" stroke="black" fill="green"/>
   </g>
   <g id="cell44">
  <circle cx="487.229" cy="629.211" r="8.20646" stroke-width="0.5" stroke="black" fill="green"/>
  <circle cx="487.229" cy="629.211" r="4.95856" stroke-width="0.5" stroke="black" fill="green"/>
   </g>
   <g id="cell45">
  <circle cx="431.256" cy="562.339" r="7.6208" stroke-width="0.5" stroke="black" fill="green"/>
  <circle cx="431.256" cy="562.339" r="4.65991" stroke-width="0.5" stroke="black" fill="green"/>
   </g>
   <g id="cell46">
  <circle cx="520.736" cy="620.749" r="8.32688" stroke-width="0.5" stroke="black" fill="green"/>
  <circle cx="520.736" cy="620.749" r="5.01759" stroke-width="0.5" stroke="black" fill="green"/>
   </g>
   <g id="cell47">
  <circle cx="494.242" cy="509.743" r="8.41271" stroke-width="0.5" stroke="black" fill="green"/>
  <circle cx="494.242" cy="509.743" r="5.05167" stroke-width="0.5" stroke="black" fill="green"/>
   </g>
   <g id="cell48">
  <circle cx="565.787" cy="605.126" r="8.41271" stroke-width="0.5" stroke="black" fill="green"/>
  <circle cx="565.787" cy="605.126" r="5.05167" stroke-width="0.5" stroke="black" fill="green"/>
   </g>
   <g id="cell49">
  <circle cx="434.947" cy="396.967" r="8.38753" stroke-width="0.5" stroke="black" fill="green"/>
  <circle cx="434.947" cy="396.967" r="5.04286" stroke-width="0.5" stroke="black" fill="green"/>
   </g>
   <g id="cell50">
  <circle cx="508.555" cy="504.381" r="7.5539" stroke-width="0.5" stroke="black" fill="cyan"/>
  <circle cx="508.555" cy="504.381" r="4.60832" stroke-width="0.5" stroke="black" fill="cyan"/>
   </g>
   <g id="cell51">
  <circle cx="385.118" cy="604.255" r="8.23301" stroke-width="0.5" stroke="black" fill="cyan"/>
  <circle cx="385.118" cy="604.255" r="4.97351" stroke-width="0.5" stroke="black" fill="cyan"/>
   </g>
   <g id="cell120">
  <circle cx="419.542" cy="610.609" r="8.40123" stroke-width="0.5" stroke="black" fill="cyan"/>
  <circle cx="419.542" cy="610.609" r="5.048" stroke-width="0.5" stroke="black" fill="cyan"/>
   </g>
   <g id="cell53">
  <circle cx="571.109" cy="436.134" r="8.41271" stroke-width="0.5" stroke="black" fill="cyan"/>
  <circle cx="571.109" cy="436.134" r="5.05167" stroke-width="0.5" stroke="black" fill="cyan"/>
   </g>
   <g id="cell54">
  <circle cx="483.838" cy="429.471" r="8.26685" stroke-width="0.5" stroke="black" fill="cyan"/>
  <circle cx="483.838" cy="429.471" r="4.98849" stroke-width="0.5" stroke="black" fill="cyan"/>
   </g>
   <g id="cell55">
  <circle cx="521.718" cy="477.807" r="8.41271" stroke-width="0.5" stroke="black" fill="cyan"/>
  <circle cx="521.718" cy="477.807" r="5.05167" stroke-width="0.5" stroke="black" fill="cyan"/>
   </g>
   <g id="cell56">
  <circle cx="620.234" cy="520.935" r="5.36836" stroke-width="0.5" stroke="black" fill="cyan"/>
  <circle cx="620.234" cy="520.935" r="3.23186" stroke-width="0.5" stroke="black" fill="cyan"/>
   </g>
   <g id="cell57">
  <circle cx="418.485" cy="626.576" r="8.40123" stroke-width="0.5" stroke="black" fill="cyan"/>
  <circle cx="418.485" cy="626.576" r="5.048" stroke-width="0.5" stroke="black" fill="cyan"/>
   </g>
   <g id="cell58">
  <circle cx="551.796" cy="483.798" r="8.41271" stroke-width="0.5" stroke="black" fill="cyan"/>
  <circle cx="551.796" cy="483.798" r="5.05167" stroke-width="0.5" stroke="black" fill="cyan"/>
   </g>
   <g id="cell59">
  <circle cx="385.29" cy="439.455" r="8.41271" stroke-width="0.5" stroke="black" fill="cyan"/>
  <circle cx="385.29" cy="439.455" r="5.05167" stroke-width="0.5" stroke="black" fill="cyan"/>
   </g>
   <g id="cell60">
  <circle cx="593.614" cy="472.814" r="8.39874" stroke-width="0.5" stroke="black" fill="cyan"/>
  <circle cx="593.614" cy="472.814" r="5.04711" stroke-width="0.5" stroke="black" fill="cyan"/>
   </g>
   <g id="cell155">
  <circle cx="518.441" cy="593.187" r="8.06918" stroke-width="0.5" stroke="black" fill="magenta"/>
  <circle cx="518.441" cy="593.187" r="4.89538" stroke-width="0.5" stroke="black" fill="magenta"/>
   </g>
   <g id="cell62">
  <circle cx="525.961" cy="435.904" r="8.41271" stroke-width="0.5" stroke="black" fill="cyan"/>
  <circle cx="525.961" cy="435.904" r="5.05167" stroke-width="0.5" stroke="black" fill="cyan"/>
   </g>
   <g id="cell63">
  <circle cx="581.868" cy="551.375" r="8.41154" stroke-width="0.5" stroke="black" fill="cyan"/>
  <circle cx="581.868" cy="551.375" r="5.05138" stroke-width="0.5" stroke="black" fill="cyan"/>
   </g>
   <g id="cell64">
  <circle cx="511.646" cy="633.594" r="8.39752" stroke-width="0.5" stroke="black" fill="cyan"/>
  <circle cx="511.646" cy="633.594" r="5.04666" stroke-width="0.5" stroke="black" fill="cyan"/>
   </g>
   <g id="cell65">
  <circle cx="531.557" cy="449.9" r="7.98823" stroke-width="0.5" stroke="black" fill="cyan"/>
  <circle cx="531.557" cy="449.9" r="4.84254" stroke-width="0.5" stroke="black" fill="cyan"/>
   </g>
   <g id="cell66">
  <circle cx="550.931" cy="524.527" r="8.40185" stroke-width="0.5" stroke="black" fill="cyan"/>
  <circle cx="550.931" cy="524.527" r="5.04822" stroke-width="0.5" stroke="black" fill="cyan"/>
   </g>
   <g id="cell67">
  <circle cx="354.581" cy="492.85" r="8.41271" stroke-width="0.5" stroke="black" fill="cyan"/>
  <circle cx="354.581" cy="492.85" r="5.05167" stroke-width="0.5" stroke="black" fill="cyan"/>
   </g>
   <g id="cell68">
  <circle cx="562.144" cy="554.697" r="8.41271" stroke-width="0.5" stroke="black" fill="cyan"/>
  <circle cx="562.144" cy="554.697" r="5.05167" stroke-width="0.5" stroke="black" fill="cyan"/>
   </g>
   <g id="cell69">
  <circle cx="437.248" cy="446.24" r="8.41248" stroke-width="0.5" stroke="black" fill="cyan"/>
  <circle cx="437.248" cy="446.24" r="5.05162" stroke-width="0.5" stroke="black" fill="cyan"/>
   </g>
   <g id="cell70">
  <circle cx="576.749" cy="469.002" r="8.36849" stroke-width="0.5" stroke="black" fill="cyan"/>
  <circle cx="576.749" cy="469.002" r="5.03512" stroke-width="0.5" stroke="black" fill="cyan"/>
   </g>
   <g id="cell71">
  <circle cx="381.346" cy="528.481" r="8.16002" stroke-width="0.5" stroke="black" fill="cyan"/>
  <circle cx="381.346" cy="528.481" r="4.93721" stroke-width="0.5" stroke="black" fill="cyan"/>
   </g>
   <g id="cell72">
  <circle cx="539.966" cy="512.401" r="8.41271" stroke-width="0.5" stroke="black" fill="cyan"/>
  <circle cx="539.966" cy="512.401" r="5.05167" stroke-width="0.5" stroke="black" fill="cyan"/>
   </g>
   <g id="cell129">
  <circle cx="419.677" cy="401.833" r="8.38753" stroke-width="0.5" stroke="black" fill="green"/>
  <circle cx="419.677" cy="401.833" r="5.04286" stroke-width="0.5" stroke="black" fill="green"/>
   </g>
   <g id="cell74">
  <circle cx="542.702" cy="442.808" r="2.72971" stroke-width="0.5" stroke="black" fill="cyan"/>
  <circle cx="542.702" cy="442.808" r="2.33853" stroke-width="0.5" stroke="black" fill="black"/>
   </g>
   <g id="cell75">
  <circle cx="443.876" cy="480.098" r="5.62439" stroke-width="0.5" stroke="black" fill="cyan"/>
  <circle cx="443.876" cy="480.098" r="3.46161" stroke-width="0.5" stroke="black" fill="cyan"/>
   </g>
   <g id="cell76">
  <circle cx="515.889" cy="375.943" r="6.80766" stroke-width="0.5" stroke="black" fill="magenta"/>
  <circle cx="515.889" cy="375.943" r="4.10679" stroke-width="0.5" stroke="black" fill="magenta"/>
   </g>
   <g id="cell77">
  <circle cx="499.007" cy="430.314" r="8.31139" stroke-width="0.5" stroke="black" fill="magenta"/>
  <circle cx="499.007" cy="430.314" r="5.01027" stroke-width="0.5" stroke="black" fill="magenta"/>
   </g>
   <g id="cell78">
  <circle cx="371.159" cy="465.9" r="8.41245" stroke-width="0.5" stroke="black" fill="magenta"/>
  <circle cx="371.159" cy="465.9" r="5.05161" stroke-width="0.5" stroke="black" fill="magenta"/>
   </g>
   <g id="cell79">
  <circle cx="498.533" cy="524.814" r="8.41243" stroke-width="0.5" stroke="black" fill="magenta"/>
  <circle cx="498.533" cy="524.814" r="5.05161" stroke-width="0.5" stroke="black" fill="magenta"/>
   </g>
   <g id="cell80">
  <circle cx="601.556" cy="486.246" r="7.89357" stroke-width="0.5" stroke="black" fill="green"/>
  <circle cx="601.556" cy="486.246" r="4.78953" stroke-width="0.5" stroke="black" fill="green"/>
   </g>
   <g id="cell81">
  <circle cx="429.434" cy="504.724" r="8.39083" stroke-width="0.5" stroke="black" fill="green"/>
  <circle cx="429.434" cy="504.724" r="5.04432" stroke-width="0.5" stroke="black" fill="green"/>
   </g>
   <g id="cell82">
  <circle cx="544.892" cy="497.47" r="8.41236" stroke-width="0.5" stroke="black" fill="magenta"/>
  <circle cx="544.892" cy="497.47" r="5.05159" stroke-width="0.5" stroke="black" fill="magenta"/>
   </g>
   <g id="cell130">
  <circle cx="574.009" cy="391.823" r="8.38608" stroke-width="0.5" stroke="black" fill="magenta"/>
  <circle cx="574.009" cy="391.823" r="5.04229" stroke-width="0.5" stroke="black" fill="magenta"/>
   </g>
   <g id="cell84">
  <circle cx="404.353" cy="484.562" r="8.40649" stroke-width="0.5" stroke="black" fill="green"/>
  <circle cx="404.353" cy="484.562" r="5.04984" stroke-width="0.5" stroke="black" fill="green"/>
   </g>
   <g id="cell140">
  <circle cx="526.165" cy="579.738" r="8.28276" stroke-width="0.5" stroke="black" fill="magenta"/>
  <circle cx="526.165" cy="579.738" r="4.99971" stroke-width="0.5" stroke="black" fill="magenta"/>
   </g>
   <g id="cell86">
  <circle cx="391.513" cy="565.618" r="8.40693" stroke-width="0.5" stroke="black" fill="magenta"/>
  <circle cx="391.513" cy="565.618" r="5.04999" stroke-width="0.5" stroke="black" fill="magenta"/>
   </g>
   <g id="cell87">
  <circle cx="432.75" cy="520.014" r="8.21324" stroke-width="0.5" stroke="black" fill="green"/>
  <circle cx="432.75" cy="520.014" r="4.96286" stroke-width="0.5" stroke="black" fill="green"/>
   </g>
   <g id="cell88">
  <circle cx="477.692" cy="602.984" r="7.65821" stroke-width="0.5" stroke="black" fill="green"/>
  <circle cx="477.692" cy="602.984" r="4.65356" stroke-width="0.5" stroke="black" fill="green"/>
   </g>
   <g id="cell89">
  <circle cx="432.863" cy="489.378" r="8.40993" stroke-width="0.5" stroke="black" fill="green"/>
  <circle cx="432.863" cy="489.378" r="5.05094" stroke-width="0.5" stroke="black" fill="green"/>
   </g>
   <g id="cell90">
  <circle cx="580.782" cy="513.875" r="8.16759" stroke-width="0.5" stroke="black" fill="magenta"/>
  <circle cx="580.782" cy="513.875" r="4.93865" stroke-width="0.5" stroke="black" fill="magenta"/>
   </g>
   <g id="cell136">
  <circle cx="525.037" cy="539.683" r="8.36032" stroke-width="0.5" stroke="black" fill="magenta"/>
  <circle cx="525.037" cy="539.683" r="5.03165" stroke-width="0.5" stroke="black" fill="magenta"/>
   </g>
   <g id="cell92">
  <circle cx="555.608" cy="593.084" r="8.4062" stroke-width="0.5" stroke="black" fill="green"/>
  <circle cx="555.608" cy="593.084" r="5.04981" stroke-width="0.5" stroke="black" fill="green"/>
   </g>
   <g id="cell93">
  <circle cx="571.687" cy="525.577" r="8.37983" stroke-width="0.5" stroke="black" fill="cyan"/>
  <circle cx="571.687" cy="525.577" r="5.03998" stroke-width="0.5" stroke="black" fill="cyan"/>
   </g>
   <g id="cell94">
  <circle cx="543.243" cy="470.462" r="8.41147" stroke-width="0.5" stroke="black" fill="cyan"/>
  <circle cx="543.243" cy="470.462" r="5.05136" stroke-width="0.5" stroke="black" fill="cyan"/>
   </g>
   <g id="cell95">
  <circle cx="465.573" cy="534.401" r="8.41147" stroke-width="0.5" stroke="black" fill="magenta"/>
  <circle cx="465.573" cy="534.401" r="5.05136" stroke-width="0.5" stroke="black" fill="magenta"/>
   </g>
   <g id="cell96">
  <circle cx="534.958" cy="378.269" r="8.41121" stroke-width="0.5" stroke="black" fill="magenta"/>
  <circle cx="534.958" cy="378.269" r="5.05129" stroke-width="0.5" stroke="black" fill="magenta"/>
   </g>
   <g id="cell97">
  <circle cx="566.692" cy="510.54" r="8.41099" stroke-width="0.5" stroke="black" fill="magenta"/>
  <circle cx="566.692" cy="510.54" r="5.05123" stroke-width="0.5" stroke="black" fill="magenta"/>
   </g>
   <g id="cell98">
  <circle cx="406.342" cy="572.036" r="8.26583" stroke-width="0.5" stroke="black" fill="green"/>
  <circle cx="406.342" cy="572.036" r="4.98821" stroke-width="0.5" stroke="black" fill="green"/>
   </g>
   <g id="cell99">
  <circle cx="576.665" cy="498.352" r="8.41072" stroke-width="0.5" stroke="black" fill="magenta"/>
  <circle cx="576.665" cy="498.352" r="5.05114" stroke-width="0.5" stroke="black" fill="magenta"/>
   </g>
   <g id="cell100">
  <circle cx="569.82" cy="541.02" r="8.41003" stroke-width="0.5" stroke="black" fill="cyan"/>
  <circle cx="569.82" cy="541.02" r="5.05096" stroke-width="0.5" stroke="black" fill="cyan"/>
   </g>
   <g id="cell101">
  <circle cx="456.846" cy="626.913" r="8.40718" stroke-width="0.5" stroke="black" fill="magenta"/>
  <circle cx="456.846" cy="626.913" r="5.0501" stroke-width="0.5" stroke="black" fill="magenta"/>
   </g>
   <g id="cell102">
  <circle cx="445.639" cy="504.604" r="8.40993" stroke-width="0.5" stroke="black" fill="green"/>
  <circle cx="445.639" cy="504.604" r="5.05094" stroke-width="0.5" stroke="black" fill="green"/>
   </g>
   <g id="cell103">
  <circle cx="551.133" cy="616.46" r="7.67786" stroke-width="0.5" stroke="black" fill="green"/>
  <circle cx="551.133" cy="616.46" r="4.66558" stroke-width="0.5" stroke="black" fill="green"/>
   </g>
   <g id="cell104">
  <circle cx="553.825" cy="540.649" r="8.4097" stroke-width="0.5" stroke="black" fill="green"/>
  <circle cx="553.825" cy="540.649" r="5.05084" stroke-width="0.5" stroke="black" fill="green"/>
   </g>
   <g id="cell105">
  <circle cx="415.992" cy="495.7" r="8.40918" stroke-width="0.5" stroke="black" fill="green"/>
  <circle cx="415.992" cy="495.7" r="5.05069" stroke-width="0.5" stroke="black" fill="green"/>
   </g>
   <g id="cell106">
  <circle cx="646.19" cy="532.73" r="7.3577" stroke-width="0.5" stroke="black" fill="green"/>
  <circle cx="646.19" cy="532.73" r="4.47226" stroke-width="0.5" stroke="black" fill="green"/>
   </g>
   <g id="cell107">
  <circle cx="383.648" cy="513.086" r="8.40839" stroke-width="0.5" stroke="black" fill="cyan"/>
  <circle cx="383.648" cy="513.086" r="5.05043" stroke-width="0.5" stroke="black" fill="cyan"/>
   </g>
   <g id="cell108">
  <circle cx="460.354" cy="641.627" r="8.40718" stroke-width="0.5" stroke="black" fill="magenta"/>
  <circle cx="460.354" cy="641.627" r="5.0501" stroke-width="0.5" stroke="black" fill="magenta"/>
   </g>
   <g id="cell109">
  <circle cx="445.846" cy="637.312" r="8.40718" stroke-width="0.5" stroke="black" fill="magenta"/>
  <circle cx="445.846" cy="637.312" r="5.0501" stroke-width="0.5" stroke="black" fill="magenta"/>
   </g>
   <g id="cell110">
  <circle cx="544.003" cy="572.532" r="6.86163" stroke-width="0.5" stroke="black" fill="green"/>
  <circle cx="544.003" cy="572.532" r="4.14737" stroke-width="0.5" stroke="black" fill="green"/>
   </g>
   <g id="cell111">
  <circle cx="627.537" cy="553.677" r="8.40619" stroke-width="0.5" stroke="black" fill="green"/>
  <circle cx="627.537" cy="553.677" r="5.04979" stroke-width="0.5" stroke="black" fill="green"/>
   </g>
   <g id="cell112">
  <circle cx="379.035" cy="573.709" r="8.40693" stroke-width="0.5" stroke="black" fill="magenta"/>
  <circle cx="379.035" cy="573.709" r="5.04999" stroke-width="0.5" stroke="black" fill="magenta"/>
   </g>
   <g id="cell113">
  <circle cx="419.448" cy="480.61" r="8.40649" stroke-width="0.5" stroke="black" fill="green"/>
  <circle cx="419.448" cy="480.61" r="5.04984" stroke-width="0.5" stroke="black" fill="green"/>
   </g>
   <g id="cell114">
  <circle cx="502.527" cy="451.593" r="8.37589" stroke-width="0.5" stroke="black" fill="magenta"/>
  <circle cx="502.527" cy="451.593" r="5.03856" stroke-width="0.5" stroke="black" fill="magenta"/>
   </g>
   <g id="cell115">
  <circle cx="452.323" cy="525.974" r="8.40476" stroke-width="0.5" stroke="black" fill="green"/>
  <circle cx="452.323" cy="525.974" r="5.04927" stroke-width="0.5" stroke="black" fill="green"/>
   </g>
   <g id="cell116">
  <circle cx="368.664" cy="519.439" r="8.40233" stroke-width="0.5" stroke="black" fill="cyan"/>
  <circle cx="368.664" cy="519.439" r="5.04852" stroke-width="0.5" stroke="black" fill="cyan"/>
   </g>
   <g id="cell173">
  <circle cx="539.992" cy="609.634" r="6.21894" stroke-width="0.5" stroke="black" fill="green"/>
  <circle cx="539.992" cy="609.634" r="3.79195" stroke-width="0.5" stroke="black" fill="green"/>
   </g>
   <g id="cell118">
  <circle cx="524.042" cy="524.922" r="7.71412" stroke-width="0.5" stroke="black" fill="cyan"/>
  <circle cx="524.042" cy="524.922" r="4.68787" stroke-width="0.5" stroke="black" fill="cyan"/>
   </g>
   <g id="cell119">
  <circle cx="527.449" cy="635.132" r="8.30046" stroke-width="0.5" stroke="black" fill="green"/>
  <circle cx="527.449" cy="635.132" r="5.00543" stroke-width="0.5" stroke="black" fill="green"/>
   </g>
   <g id="cell121">
  <circle cx="391.11" cy="550.524" r="8.39949" stroke-width="0.5" stroke="black" fill="magenta"/>
  <circle cx="391.11" cy="550.524" r="5.04742" stroke-width="0.5" stroke="black" fill="magenta"/>
   </g>
   <g id="cell122">
  <circle cx="614.964" cy="460.458" r="7.94264" stroke-width="0.5" stroke="black" fill="cyan"/>
  <circle cx="614.964" cy="460.458" r="4.81875" stroke-width="0.5" stroke="black" fill="cyan"/>
   </g>
   <g id="cell123">
  <circle cx="500.274" cy="644.679" r="8.39752" stroke-width="0.5" stroke="black" fill="cyan"/>
  <circle cx="500.274" cy="644.679" r="5.04666" stroke-width="0.5" stroke="black" fill="cyan"/>
   </g>
   <g id="cell124">
  <circle cx="379.849" cy="589.32" r="8.39708" stroke-width="0.5" stroke="black" fill="green"/>
  <circle cx="379.849" cy="589.32" r="5.0465" stroke-width="0.5" stroke="black" fill="green"/>
   </g>
   <g id="cell125">
  <circle cx="452.11" cy="453.893" r="8.3956" stroke-width="0.5" stroke="black" fill="cyan"/>
  <circle cx="452.11" cy="453.893" r="5.04596" stroke-width="0.5" stroke="black" fill="cyan"/>
   </g>
   <g id="cell126">
  <circle cx="414.684" cy="510.944" r="8.39083" stroke-width="0.5" stroke="black" fill="green"/>
  <circle cx="414.684" cy="510.944" r="5.04432" stroke-width="0.5" stroke="black" fill="green"/>
   </g>
   <g id="cell127">
  <circle cx="413.415" cy="595.845" r="8.39083" stroke-width="0.5" stroke="black" fill="cyan"/>
  <circle cx="413.415" cy="595.845" r="5.04414" stroke-width="0.5" stroke="black" fill="cyan"/>
   </g>
   <g id="cell128">
  <circle cx="354.601" cy="534.698" r="7.16152" stroke-width="0.5" stroke="black" fill="cyan"/>
  <circle cx="354.601" cy="534.698" r="4.35317" stroke-width="0.5" stroke="black" fill="cyan"/>
   </g>
   <g id="cell131">
  <circle cx="584.74" cy="535.506" r="8.37983" stroke-width="0.5" stroke="black" fill="cyan"/>
  <circle cx="584.74" cy="535.506" r="5.03998" stroke-width="0.5" stroke="black" fill="cyan"/>
   </g>
   <g id="cell132">
  <circle cx="510.879" cy="439.151" r="8.37589" stroke-width="0.5" stroke="black" fill="magenta"/>
  <circle cx="510.879" cy="439.151" r="5.03856" stroke-width="0.5" stroke="black" fill="magenta"/>
   </g>
   <g id="cell133">
  <circle cx="535.087" cy="409.384" r="8.37641" stroke-width="0.5" stroke="black" fill="magenta"/>
  <circle cx="535.087" cy="409.384" r="5.0384" stroke-width="0.5" stroke="black" fill="magenta"/>
   </g>
   <g id="cell134">
  <circle cx="511.417" cy="580.364" r="8.31905" stroke-width="0.5" stroke="black" fill="magenta"/>
  <circle cx="511.417" cy="580.364" r="5.01493" stroke-width="0.5" stroke="black" fill="magenta"/>
   </g>
   <g id="cell135">
  <circle cx="567.28" cy="483.51" r="8.36849" stroke-width="0.5" stroke="black" fill="cyan"/>
  <circle cx="567.28" cy="483.51" r="5.03512" stroke-width="0.5" stroke="black" fill="cyan"/>
   </g>
   <g id="cell137">
  <circle cx="378.954" cy="478.75" r="8.35049" stroke-width="0.5" stroke="black" fill="magenta"/>
  <circle cx="378.954" cy="478.75" r="5.02742" stroke-width="0.5" stroke="black" fill="magenta"/>
   </g>
   <g id="cell138">
  <circle cx="532.409" cy="592.628" r="8.06918" stroke-width="0.5" stroke="black" fill="magenta"/>
  <circle cx="532.409" cy="592.628" r="4.89538" stroke-width="0.5" stroke="black" fill="magenta"/>
   </g>
   <g id="cell139">
  <circle cx="511.109" cy="607.419" r="8.32688" stroke-width="0.5" stroke="black" fill="green"/>
  <circle cx="511.109" cy="607.419" r="5.01759" stroke-width="0.5" stroke="black" fill="green"/>
   </g>
   <g id="cell142">
  <circle cx="585.506" cy="382.194" r="8.29847" stroke-width="0.5" stroke="black" fill="magenta"/>
  <circle cx="585.506" cy="382.194" r="5.0052" stroke-width="0.5" stroke="black" fill="magenta"/>
   </g>
   <g id="cell143">
  <circle cx="536.699" cy="622.589" r="8.30046" stroke-width="0.5" stroke="black" fill="green"/>
  <circle cx="536.699" cy="622.589" r="5.00543" stroke-width="0.5" stroke="black" fill="green"/>
   </g>
   <g id="cell144">
  <circle cx="378.701" cy="543.225" r="8.29667" stroke-width="0.5" stroke="black" fill="magenta"/>
  <circle cx="378.701" cy="543.225" r="5.00279" stroke-width="0.5" stroke="black" fill="magenta"/>
   </g>
   <g id="cell145">
  <circle cx="455.123" cy="482.513" r="6.61509" stroke-width="0.5" stroke="black" fill="magenta"/>
  <circle cx="455.123" cy="482.513" r="3.99343" stroke-width="0.5" stroke="black" fill="magenta"/>
   </g>
   <g id="cell146">
  <circle cx="461.82" cy="424.7" r="8.26685" stroke-width="0.5" stroke="black" fill="cyan"/>
  <circle cx="461.82" cy="424.7" r="4.98849" stroke-width="0.5" stroke="black" fill="cyan"/>
   </g>
   <g id="cell148">
  <circle cx="400.754" cy="605.314" r="8.23301" stroke-width="0.5" stroke="black" fill="cyan"/>
  <circle cx="400.754" cy="605.314" r="4.97351" stroke-width="0.5" stroke="black" fill="cyan"/>
   </g>
   <g id="cell149">
  <circle cx="438.755" cy="534.304" r="8.21324" stroke-width="0.5" stroke="black" fill="green"/>
  <circle cx="438.755" cy="534.304" r="4.96286" stroke-width="0.5" stroke="black" fill="green"/>
   </g>
   <g id="cell150">
  <circle cx="471.661" cy="631.175" r="8.20646" stroke-width="0.5" stroke="black" fill="green"/>
  <circle cx="471.661" cy="631.175" r="4.95856" stroke-width="0.5" stroke="black" fill="green"/>
   </g>
   <g id="cell151">
  <circle cx="524.084" cy="509.831" r="8.20088" stroke-width="0.5" stroke="black" fill="cyan"/>
  <circle cx="524.084" cy="509.831" r="4.95562" stroke-width="0.5" stroke="black" fill="cyan"/>
   </g>
   <g id="cell152">
  <circle cx="643.312" cy="552.519" r="8.17832" stroke-width="0.5" stroke="black" fill="green"/>
  <circle cx="643.312" cy="552.519" r="4.94483" stroke-width="0.5" stroke="black" fill="green"/>
   </g>
   <g id="cell153">
  <circle cx="395.894" cy="523.379" r="8.16002" stroke-width="0.5" stroke="black" fill="cyan"/>
  <circle cx="395.894" cy="523.379" r="4.93721" stroke-width="0.5" stroke="black" fill="cyan"/>
   </g>
   <g id="cell154">
  <circle cx="589.087" cy="504.404" r="6.81389" stroke-width="0.5" stroke="black" fill="magenta"/>
  <circle cx="589.087" cy="504.404" r="4.15244" stroke-width="0.5" stroke="black" fill="magenta"/>
   </g>
   <g id="cell156">
  <circle cx="403.493" cy="557.552" r="7.73593" stroke-width="0.5" stroke="black" fill="green"/>
  <circle cx="403.493" cy="557.552" r="4.71616" stroke-width="0.5" stroke="black" fill="green"/>
   </g>
   <g id="cell157">
  <circle cx="393.014" cy="474.345" r="8.0429" stroke-width="0.5" stroke="black" fill="magenta"/>
  <circle cx="393.014" cy="474.345" r="4.87719" stroke-width="0.5" stroke="black" fill="magenta"/>
   </g>
   <g id="cell158">
  <circle cx="432.837" cy="474.214" r="7.85477" stroke-width="0.5" stroke="black" fill="green"/>
  <circle cx="432.837" cy="474.214" r="4.7816" stroke-width="0.5" stroke="black" fill="green"/>
   </g>
   <g id="cell159">
  <circle cx="439.004" cy="461.309" r="7.85477" stroke-width="0.5" stroke="black" fill="green"/>
  <circle cx="439.004" cy="461.309" r="4.7816" stroke-width="0.5" stroke="black" fill="green"/>
   </g>
   <g id="cell160">
  <circle cx="417.147" cy="560.486" r="7.80513" stroke-width="0.5" stroke="black" fill="green"/>
  <circle cx="417.147" cy="560.486" r="4.75453" stroke-width="0.5" stroke="black" fill="green"/>
   </g>
   <g id="cell161">
  <circle cx="528.895" cy="464.434" r="7.98823" stroke-width="0.5" stroke="black" fill="cyan"/>
  <circle cx="528.895" cy="464.434" r="4.84254" stroke-width="0.5" stroke="black" fill="cyan"/>
   </g>
   <g id="cell162">
  <circle cx="609.582" cy="474.211" r="7.94264" stroke-width="0.5" stroke="black" fill="cyan"/>
  <circle cx="609.582" cy="474.211" r="4.81875" stroke-width="0.5" stroke="black" fill="cyan"/>
   </g>
   <g id="cell163">
  <circle cx="425.169" cy="548.491" r="7.6208" stroke-width="0.5" stroke="black" fill="green"/>
  <circle cx="425.169" cy="548.491" r="4.65991" stroke-width="0.5" stroke="black" fill="green"/>
   </g>
   <g id="cell164">
  <circle cx="460.948" cy="466.867" r="7.94088" stroke-width="0.5" stroke="black" fill="cyan"/>
  <circle cx="460.948" cy="466.867" r="4.8181" stroke-width="0.5" stroke="black" fill="cyan"/>
   </g>
   <g id="cell165">
  <circle cx="411.2" cy="545.714" r="7.73593" stroke-width="0.5" stroke="black" fill="green"/>
  <circle cx="411.2" cy="545.714" r="4.71616" stroke-width="0.5" stroke="black" fill="green"/>
   </g>
   <g id="cell166">
  <circle cx="602.07" cy="501.248" r="7.89357" stroke-width="0.5" stroke="black" fill="green"/>
  <circle cx="602.07" cy="501.248" r="4.78953" stroke-width="0.5" stroke="black" fill="green"/>
   </g>
   <g id="cell167">
  <circle cx="466.266" cy="387.38" r="7.89373" stroke-width="0.5" stroke="black" fill="green"/>
  <circle cx="466.266" cy="387.38" r="4.78957" stroke-width="0.5" stroke="black" fill="green"/>
   </g>
   <g id="cell168">
  <circle cx="520.049" cy="407.659" r="7.85785" stroke-width="0.5" stroke="black" fill="magenta"/>
  <circle cx="520.049" cy="407.659" r="4.7732" stroke-width="0.5" stroke="black" fill="magenta"/>
   </g>
   <g id="cell169">
  <circle cx="471.012" cy="435.278" r="6.96051" stroke-width="0.5" stroke="black" fill="magenta"/>
  <circle cx="471.012" cy="435.278" r="4.27125" stroke-width="0.5" stroke="black" fill="magenta"/>
   </g>
   <g id="cell170">
  <circle cx="628.489" cy="488.859" r="7.79547" stroke-width="0.5" stroke="black" fill="green"/>
  <circle cx="628.489" cy="488.859" r="4.73355" stroke-width="0.5" stroke="black" fill="green"/>
   </g>
   <g id="cell171">
  <circle cx="537.125" cy="530.802" r="7.71412" stroke-width="0.5" stroke="black" fill="cyan"/>
  <circle cx="537.125" cy="530.802" r="4.68787" stroke-width="0.5" stroke="black" fill="cyan"/>
   </g>
   <g id="cell172">
  <circle cx="511.575" cy="518.176" r="7.5539" stroke-width="0.5" stroke="black" fill="cyan"/>
  <circle cx="511.575" cy="518.176" r="4.60832" stroke-width="0.5" stroke="black" fill="cyan"/>
   </g>
   <g id="cell175">
  <circle cx="634.674" cy="540.559" r="7.3577" stroke-width="0.5" stroke="black" fill="green"/>
  <circle cx="634.674" cy="540.559" r="4.47226" stroke-width="0.5" stroke="black" fill="green"/>
   </g>
   <g id="cell177">
  <circle cx="367.915" cy="534.446" r="7.16152" stroke-width="0.5" stroke="black" fill="cyan"/>
  <circle cx="367.915" cy="534.446" r="4.35317" stroke-width="0.5" stroke="black" fill="cyan"/>
   </g>
   <g id="cell178">
  <circle cx="480.532" cy="442.929" r="6.75953" stroke-width="0.5" stroke="black" fill="magenta"/>
  <circle cx="480.532" cy="442.929" r="4.14724" stroke-width="0.5" stroke="black" fill="magenta"/>
   </g>
   <g id="cell179">
  <circle cx="446.722" cy="490.971" r="6.72204" stroke-width="0.5" stroke="black" fill="cyan"/>
  <circle cx="446.722" cy="490.971" r="4.11195" stroke-width="0.5" stroke="black" fill="cyan"/>
   </g>
   <g id="cell180">
  <circle cx="590.435" cy="493.161" r="6.81389" stroke-width="0.5" stroke="black" fill="magenta"/>
  <circle cx="590.435" cy="493.161" r="4.15244" stroke-width="0.5" stroke="black" fill="magenta"/>
   </g>
   <g id="cell181">
  <circle cx="543.578" cy="585.264" r="6.86163" stroke-width="0.5" stroke="black" fill="green"/>
  <circle cx="543.578" cy="585.264" r="4.14737" stroke-width="0.5" stroke="black" fill="green"/>
   </g>
   <g id="cell182">
  <circle cx="449.105" cy="471.172" r="5.62439" stroke-width="0.5" stroke="black" fill="cyan"/>
  <circle cx="449.105" cy="471.172" r="3.46161" stroke-width="0.5" stroke="black" fill="cyan"/>
   </g>
   <g id="cell183">
  <circle cx="523.452" cy="385.076" r="6.80766" stroke-width="0.5" stroke="black" fill="magenta"/>
  <circle cx="523.452" cy="385.076" r="4.10679" stroke-width="0.5" stroke="black" fill="magenta"/>
   </g>
   <g id="cell184">
  <circle cx="543.481" cy="598.792" r="6.21894" stroke-width="0.5" stroke="black" fill="green"/>
  <circle cx="543.481" cy="598.792" r="3.79195" stroke-width="0.5" stroke="black" fill="green"/>
   </g>
   <g id="cell185">
  <circle cx="418.631" cy="522.809" r="5.40685" stroke-width="0.5" stroke="black" fill="green"/>
  <circle cx="418.631" cy="522.809" r="3.26072" stroke-width="0.5" stroke="black" fill="green"/>
   </g>
   <g id="cell186">
  <circle cx="609.007" cy="519.482" r="6.73287" stroke-width="0.5" stroke="black" fill="cyan"/>
  <circle cx="609.007" cy="519.482" r="4.05039" stroke-width="0.5" stroke="black" fill="cyan"/>
   </g>
   <g id="cell187">
  <circle cx="466.342" cy="479.325" r="6.61509" stroke-width="0.5" stroke="black" fill="magenta"/>
  <circle cx="466.342" cy="479.325" r="3.99343" stroke-width="0.5" stroke="black" fill="magenta"/>
   </g>
   <g id="cell188">
  <circle cx="619.538" cy="531.082" r="5.36836" stroke-width="0.5" stroke="black" fill="cyan"/>
  <circle cx="619.538" cy="531.082" r="3.23186" stroke-width="0.5" stroke="black" fill="cyan"/>
   </g>
   <g id="cell189">
  <circle cx="423.304" cy="531.515" r="5.40685" stroke-width="0.5" stroke="black" fill="green"/>
  <circle cx="423.304" cy="531.515" r="3.26072" stroke-width="0.5" stroke="black" fill="green"/>
   </g>
  </g>
 </g>
  <rect x="775" y="1035" width="200" height="10" stroke-width="2" stroke="rgb(255,255,255)" fill="rgb(0,0,0)"/>
  <text x="781.25" y="1028.75"
   font-family="Arial" font-size="25" fill="black" >
   200 &#956;m
  </text>
  <text x="25" y="1045"
   font-family="Arial" font-size="18.75" fill="black" >
   0 days, 0 hours, 0 minutes, and 43.9291 seconds
  </text>
  <rect x="0" y="70" width="1000" height="1000" stroke-width="2" stroke="rgb(0,0,0)" fill="none"/>
</svg>
