<?xml version="1.0" encoding="UTF-8" standalone="no"?>
<!-- Created with PhysiCell (http://PhysiCell.MathCancer.org/) -->
<svg 
 xmlns:dc="http://purl.org/dc/elements/1.1/" 
 xmlns:cc="http://creativecommons.org/ns#" 
 xmlns:rdf="http://www.w3.org/1999/02/22-rdf-syntax-ns#" 
 xmlns:svg="http://www.w3.org/2000/svg" 
 xmlns="http://www.w3.org/2000/svg" 
 version="1.1" 
 width="1000" 
 height="1070" 
 id="svg2">
  <rect x="0" y="0" width="1000" height="1070" stroke-width="2" stroke="white" fill="white"/>
  <text x="12.5" y="30"
   font-family="Arial" font-size="25" fill="black" >
   Current time: 0 days, 14 hours, and 0.00 minutes, z = 0.00 &#956;m
  </text>
  <text x="12.5" y="57.5"
   font-family="Arial" font-size="23.75" fill="black" >
   119 agents
  </text>
 <g id="tissue" 
    transform="translate(0,1070) scale(1,-1)">
  <g id="ECM">
  </g>
  <g id="cells">
   <g id="cell0">
  <circle cx="520.004" cy="533.027" r="8.36458" stroke-width="0.5" stroke="black" fill="magenta"/>
  <circle cx="520.004" cy="533.027" r="5.03347" stroke-width="0.5" stroke="black" fill="magenta"/>
   </g>
   <g id="cell1">
  <circle cx="602.394" cy="525.907" r="8.41271" stroke-width="0.5" stroke="black" fill="magenta"/>
  <circle cx="602.394" cy="525.907" r="5.05167" stroke-width="0.5" stroke="black" fill="magenta"/>
   </g>
   <g id="cell2">
  <circle cx="513.498" cy="599.902" r="8.41271" stroke-width="0.5" stroke="black" fill="magenta"/>
  <circle cx="513.498" cy="599.902" r="5.05167" stroke-width="0.5" stroke="black" fill="magenta"/>
   </g>
   <g id="cell3">
  <circle cx="531.652" cy="542.508" r="8.41271" stroke-width="0.5" stroke="black" fill="magenta"/>
  <circle cx="531.652" cy="542.508" r="5.05167" stroke-width="0.5" stroke="black" fill="magenta"/>
   </g>
   <g id="cell4">
  <circle cx="473.145" cy="440.738" r="8.36972" stroke-width="0.5" stroke="black" fill="magenta"/>
  <circle cx="473.145" cy="440.738" r="5.03563" stroke-width="0.5" stroke="black" fill="magenta"/>
   </g>
   <g id="cell5">
  <circle cx="464.358" cy="493.096" r="8.41271" stroke-width="0.5" stroke="black" fill="magenta"/>
  <circle cx="464.358" cy="493.096" r="5.05167" stroke-width="0.5" stroke="black" fill="magenta"/>
   </g>
   <g id="cell6">
  <circle cx="595.102" cy="512.742" r="8.25377" stroke-width="0.5" stroke="black" fill="magenta"/>
  <circle cx="595.102" cy="512.742" r="4.98209" stroke-width="0.5" stroke="black" fill="magenta"/>
   </g>
   <g id="cell7">
  <circle cx="511.699" cy="464.592" r="8.41271" stroke-width="0.5" stroke="black" fill="magenta"/>
  <circle cx="511.699" cy="464.592" r="5.05167" stroke-width="0.5" stroke="black" fill="magenta"/>
   </g>
   <g id="cell8">
  <circle cx="373.454" cy="547.705" r="8.41271" stroke-width="0.5" stroke="black" fill="magenta"/>
  <circle cx="373.454" cy="547.705" r="5.05167" stroke-width="0.5" stroke="black" fill="magenta"/>
   </g>
   <g id="cell9">
  <circle cx="464.445" cy="602.167" r="8.24438" stroke-width="0.5" stroke="black" fill="magenta"/>
  <circle cx="464.445" cy="602.167" r="4.97746" stroke-width="0.5" stroke="black" fill="magenta"/>
   </g>
   <g id="cell10">
  <circle cx="583.447" cy="392.105" r="8.41271" stroke-width="0.5" stroke="black" fill="magenta"/>
  <circle cx="583.447" cy="392.105" r="5.05167" stroke-width="0.5" stroke="black" fill="magenta"/>
   </g>
   <g id="cell11">
  <circle cx="589.748" cy="590.273" r="8.41271" stroke-width="0.5" stroke="black" fill="magenta"/>
  <circle cx="589.748" cy="590.273" r="5.05167" stroke-width="0.5" stroke="black" fill="magenta"/>
   </g>
   <g id="cell12">
  <circle cx="506.777" cy="586.308" r="8.41271" stroke-width="0.5" stroke="black" fill="magenta"/>
  <circle cx="506.777" cy="586.308" r="5.05167" stroke-width="0.5" stroke="black" fill="magenta"/>
   </g>
   <g id="cell13">
  <circle cx="382.654" cy="559.591" r="8.27885" stroke-width="0.5" stroke="black" fill="magenta"/>
  <circle cx="382.654" cy="559.591" r="4.99429" stroke-width="0.5" stroke="black" fill="magenta"/>
   </g>
   <g id="cell14">
  <circle cx="525.09" cy="402.138" r="8.41271" stroke-width="0.5" stroke="black" fill="magenta"/>
  <circle cx="525.09" cy="402.138" r="5.05167" stroke-width="0.5" stroke="black" fill="magenta"/>
   </g>
   <g id="cell15">
  <circle cx="382.275" cy="479.465" r="8.36722" stroke-width="0.5" stroke="black" fill="magenta"/>
  <circle cx="382.275" cy="479.465" r="5.03458" stroke-width="0.5" stroke="black" fill="magenta"/>
   </g>
   <g id="cell16">
  <circle cx="428.96" cy="413.217" r="8.41271" stroke-width="0.5" stroke="black" fill="magenta"/>
  <circle cx="428.96" cy="413.217" r="5.05167" stroke-width="0.5" stroke="black" fill="magenta"/>
   </g>
   <g id="cell17">
  <circle cx="584.175" cy="488.094" r="8.04604" stroke-width="0.5" stroke="black" fill="magenta"/>
  <circle cx="584.175" cy="488.094" r="4.87399" stroke-width="0.5" stroke="black" fill="magenta"/>
   </g>
   <g id="cell18">
  <circle cx="511.742" cy="395.049" r="8.37208" stroke-width="0.5" stroke="black" fill="magenta"/>
  <circle cx="511.742" cy="395.049" r="5.03661" stroke-width="0.5" stroke="black" fill="magenta"/>
   </g>
   <g id="cell19">
  <circle cx="447.122" cy="536.815" r="8.18833" stroke-width="0.5" stroke="black" fill="magenta"/>
  <circle cx="447.122" cy="536.815" r="4.94921" stroke-width="0.5" stroke="black" fill="magenta"/>
   </g>
   <g id="cell20">
  <circle cx="528.512" cy="416.89" r="8.41271" stroke-width="0.5" stroke="black" fill="magenta"/>
  <circle cx="528.512" cy="416.89" r="5.05167" stroke-width="0.5" stroke="black" fill="magenta"/>
   </g>
   <g id="cell21">
  <circle cx="467.759" cy="637.425" r="4.03823" stroke-width="0.5" stroke="black" fill="magenta"/>
  <circle cx="467.759" cy="637.425" r="2.81182" stroke-width="0.5" stroke="black" fill="black"/>
   </g>
   <g id="cell22">
  <circle cx="557.43" cy="498.448" r="8.09787" stroke-width="0.5" stroke="black" fill="magenta"/>
  <circle cx="557.43" cy="498.448" r="4.9063" stroke-width="0.5" stroke="black" fill="magenta"/>
   </g>
   <g id="cell23">
  <circle cx="538.151" cy="481.037" r="8.41271" stroke-width="0.5" stroke="black" fill="magenta"/>
  <circle cx="538.151" cy="481.037" r="5.05167" stroke-width="0.5" stroke="black" fill="magenta"/>
   </g>
   <g id="cell24">
  <circle cx="559.288" cy="379.787" r="8.41271" stroke-width="0.5" stroke="black" fill="magenta"/>
  <circle cx="559.288" cy="379.787" r="5.05167" stroke-width="0.5" stroke="black" fill="magenta"/>
   </g>
   <g id="cell25">
  <circle cx="646.829" cy="558.875" r="7.10389" stroke-width="0.5" stroke="black" fill="green"/>
  <circle cx="646.829" cy="558.875" r="4.35303" stroke-width="0.5" stroke="black" fill="green"/>
   </g>
   <g id="cell26">
  <circle cx="550.642" cy="401.23" r="8.41271" stroke-width="0.5" stroke="black" fill="green"/>
  <circle cx="550.642" cy="401.23" r="5.05167" stroke-width="0.5" stroke="black" fill="green"/>
   </g>
   <g id="cell27">
  <circle cx="457.446" cy="388.678" r="8.41271" stroke-width="0.5" stroke="black" fill="green"/>
  <circle cx="457.446" cy="388.678" r="5.05167" stroke-width="0.5" stroke="black" fill="green"/>
   </g>
   <g id="cell28">
  <circle cx="431.289" cy="535.747" r="8.41271" stroke-width="0.5" stroke="black" fill="green"/>
  <circle cx="431.289" cy="535.747" r="5.05167" stroke-width="0.5" stroke="black" fill="green"/>
   </g>
   <g id="cell29">
  <circle cx="464.868" cy="520.296" r="6.92111" stroke-width="0.5" stroke="black" fill="green"/>
  <circle cx="464.868" cy="520.296" r="4.21175" stroke-width="0.5" stroke="black" fill="green"/>
   </g>
   <g id="cell30">
  <circle cx="479.154" cy="539.626" r="8.41271" stroke-width="0.5" stroke="black" fill="green"/>
  <circle cx="479.154" cy="539.626" r="5.05167" stroke-width="0.5" stroke="black" fill="green"/>
   </g>
   <g id="cell31">
  <circle cx="411.989" cy="538.339" r="8.41271" stroke-width="0.5" stroke="black" fill="green"/>
  <circle cx="411.989" cy="538.339" r="5.05167" stroke-width="0.5" stroke="black" fill="green"/>
   </g>
   <g id="cell32">
  <circle cx="429.018" cy="467.783" r="8.28985" stroke-width="0.5" stroke="black" fill="green"/>
  <circle cx="429.018" cy="467.783" r="4.99956" stroke-width="0.5" stroke="black" fill="green"/>
   </g>
   <g id="cell33">
  <circle cx="498.77" cy="413.381" r="8.30618" stroke-width="0.5" stroke="black" fill="green"/>
  <circle cx="498.77" cy="413.381" r="5.00727" stroke-width="0.5" stroke="black" fill="green"/>
   </g>
   <g id="cell34">
  <circle cx="392.071" cy="453.559" r="8.27885" stroke-width="0.5" stroke="black" fill="green"/>
  <circle cx="392.071" cy="453.559" r="4.99429" stroke-width="0.5" stroke="black" fill="green"/>
   </g>
   <g id="cell35">
  <circle cx="544.423" cy="550.25" r="7.84675" stroke-width="0.5" stroke="black" fill="green"/>
  <circle cx="544.423" cy="550.25" r="4.7629" stroke-width="0.5" stroke="black" fill="green"/>
   </g>
   <g id="cell36">
  <circle cx="391.611" cy="585.503" r="8.41271" stroke-width="0.5" stroke="black" fill="green"/>
  <circle cx="391.611" cy="585.503" r="5.05167" stroke-width="0.5" stroke="black" fill="green"/>
   </g>
   <g id="cell37">
  <circle cx="634.871" cy="460.618" r="8.41271" stroke-width="0.5" stroke="black" fill="green"/>
  <circle cx="634.871" cy="460.618" r="5.05167" stroke-width="0.5" stroke="black" fill="green"/>
   </g>
   <g id="cell38">
  <circle cx="528.936" cy="600.937" r="8.20088" stroke-width="0.5" stroke="black" fill="green"/>
  <circle cx="528.936" cy="600.937" r="4.95562" stroke-width="0.5" stroke="black" fill="green"/>
   </g>
   <g id="cell39">
  <circle cx="617.748" cy="494.627" r="8.36178" stroke-width="0.5" stroke="black" fill="green"/>
  <circle cx="617.748" cy="494.627" r="5.03227" stroke-width="0.5" stroke="black" fill="green"/>
   </g>
   <g id="cell40">
  <circle cx="485.348" cy="571.779" r="8.41271" stroke-width="0.5" stroke="black" fill="green"/>
  <circle cx="485.348" cy="571.779" r="5.05167" stroke-width="0.5" stroke="black" fill="green"/>
   </g>
   <g id="cell41">
  <circle cx="366.798" cy="481.162" r="8.41271" stroke-width="0.5" stroke="black" fill="green"/>
  <circle cx="366.798" cy="481.162" r="5.05167" stroke-width="0.5" stroke="black" fill="green"/>
   </g>
   <g id="cell42">
  <circle cx="449.934" cy="487.431" r="8.23315" stroke-width="0.5" stroke="black" fill="green"/>
  <circle cx="449.934" cy="487.431" r="4.975" stroke-width="0.5" stroke="black" fill="green"/>
   </g>
   <g id="cell43">
  <circle cx="558.554" cy="445.769" r="8.41271" stroke-width="0.5" stroke="black" fill="green"/>
  <circle cx="558.554" cy="445.769" r="5.05167" stroke-width="0.5" stroke="black" fill="green"/>
   </g>
   <g id="cell44">
  <circle cx="477.663" cy="627.375" r="8.26685" stroke-width="0.5" stroke="black" fill="green"/>
  <circle cx="477.663" cy="627.375" r="4.98849" stroke-width="0.5" stroke="black" fill="green"/>
   </g>
   <g id="cell45">
  <circle cx="417.099" cy="553.135" r="8.04604" stroke-width="0.5" stroke="black" fill="green"/>
  <circle cx="417.099" cy="553.135" r="4.87399" stroke-width="0.5" stroke="black" fill="green"/>
   </g>
   <g id="cell46">
  <circle cx="520.203" cy="613.995" r="8.41271" stroke-width="0.5" stroke="black" fill="green"/>
  <circle cx="520.203" cy="613.995" r="5.05167" stroke-width="0.5" stroke="black" fill="green"/>
   </g>
   <g id="cell47">
  <circle cx="504.316" cy="510.872" r="8.41271" stroke-width="0.5" stroke="black" fill="green"/>
  <circle cx="504.316" cy="510.872" r="5.05167" stroke-width="0.5" stroke="black" fill="green"/>
   </g>
   <g id="cell48">
  <circle cx="563.761" cy="602.327" r="8.41271" stroke-width="0.5" stroke="black" fill="green"/>
  <circle cx="563.761" cy="602.327" r="5.05167" stroke-width="0.5" stroke="black" fill="green"/>
   </g>
   <g id="cell49">
  <circle cx="429.826" cy="397.641" r="8.41271" stroke-width="0.5" stroke="black" fill="green"/>
  <circle cx="429.826" cy="397.641" r="5.05167" stroke-width="0.5" stroke="black" fill="green"/>
   </g>
   <g id="cell50">
  <circle cx="518.93" cy="516.032" r="8.41271" stroke-width="0.5" stroke="black" fill="cyan"/>
  <circle cx="518.93" cy="516.032" r="5.05167" stroke-width="0.5" stroke="black" fill="cyan"/>
   </g>
   <g id="cell51">
  <circle cx="399.89" cy="599.164" r="8.41271" stroke-width="0.5" stroke="black" fill="cyan"/>
  <circle cx="399.89" cy="599.164" r="5.05167" stroke-width="0.5" stroke="black" fill="cyan"/>
   </g>
   <g id="cell52">
  <circle cx="524.857" cy="424.925" r="1.22129" stroke-width="0.5" stroke="black" fill="cyan"/>
  <circle cx="524.857" cy="424.925" r="1.21615" stroke-width="0.5" stroke="black" fill="black"/>
   </g>
   <g id="cell53">
  <circle cx="571.252" cy="436.029" r="8.41271" stroke-width="0.5" stroke="black" fill="cyan"/>
  <circle cx="571.252" cy="436.029" r="5.05167" stroke-width="0.5" stroke="black" fill="cyan"/>
   </g>
   <g id="cell54">
  <circle cx="477.158" cy="425.653" r="8.41271" stroke-width="0.5" stroke="black" fill="cyan"/>
  <circle cx="477.158" cy="425.653" r="5.05167" stroke-width="0.5" stroke="black" fill="cyan"/>
   </g>
   <g id="cell55">
  <circle cx="525.847" cy="471.284" r="8.41271" stroke-width="0.5" stroke="black" fill="cyan"/>
  <circle cx="525.847" cy="471.284" r="5.05167" stroke-width="0.5" stroke="black" fill="cyan"/>
   </g>
   <g id="cell56">
  <circle cx="617.591" cy="522.337" r="8.41271" stroke-width="0.5" stroke="black" fill="cyan"/>
  <circle cx="617.591" cy="522.337" r="5.05167" stroke-width="0.5" stroke="black" fill="cyan"/>
   </g>
   <g id="cell57">
  <circle cx="416.924" cy="617.466" r="8.41271" stroke-width="0.5" stroke="black" fill="cyan"/>
  <circle cx="416.924" cy="617.466" r="5.05167" stroke-width="0.5" stroke="black" fill="cyan"/>
   </g>
   <g id="cell58">
  <circle cx="553.567" cy="483.77" r="8.41271" stroke-width="0.5" stroke="black" fill="cyan"/>
  <circle cx="553.567" cy="483.77" r="5.05167" stroke-width="0.5" stroke="black" fill="cyan"/>
   </g>
   <g id="cell59">
  <circle cx="385.188" cy="439.235" r="8.41271" stroke-width="0.5" stroke="black" fill="cyan"/>
  <circle cx="385.188" cy="439.235" r="5.05167" stroke-width="0.5" stroke="black" fill="cyan"/>
   </g>
   <g id="cell60">
  <circle cx="592.301" cy="475.351" r="8.41271" stroke-width="0.5" stroke="black" fill="cyan"/>
  <circle cx="592.301" cy="475.351" r="5.05167" stroke-width="0.5" stroke="black" fill="cyan"/>
   </g>
   <g id="cell61">
  <circle cx="554.775" cy="615.58" r="8.41271" stroke-width="0.5" stroke="black" fill="cyan"/>
  <circle cx="554.775" cy="615.58" r="5.05167" stroke-width="0.5" stroke="black" fill="cyan"/>
   </g>
   <g id="cell62">
  <circle cx="526.667" cy="445.515" r="8.41271" stroke-width="0.5" stroke="black" fill="cyan"/>
  <circle cx="526.667" cy="445.515" r="5.05167" stroke-width="0.5" stroke="black" fill="cyan"/>
   </g>
   <g id="cell63">
  <circle cx="581.777" cy="553.196" r="8.20088" stroke-width="0.5" stroke="black" fill="cyan"/>
  <circle cx="581.777" cy="553.196" r="4.95562" stroke-width="0.5" stroke="black" fill="cyan"/>
   </g>
   <g id="cell64">
  <circle cx="509.962" cy="636.825" r="8.41271" stroke-width="0.5" stroke="black" fill="cyan"/>
  <circle cx="509.962" cy="636.825" r="5.05167" stroke-width="0.5" stroke="black" fill="cyan"/>
   </g>
   <g id="cell65">
  <circle cx="535.51" cy="458.762" r="8.18833" stroke-width="0.5" stroke="black" fill="cyan"/>
  <circle cx="535.51" cy="458.762" r="4.94921" stroke-width="0.5" stroke="black" fill="cyan"/>
   </g>
   <g id="cell66">
  <circle cx="539.693" cy="529.124" r="6.67717" stroke-width="0.5" stroke="black" fill="cyan"/>
  <circle cx="539.693" cy="529.124" r="4.00951" stroke-width="0.5" stroke="black" fill="cyan"/>
   </g>
   <g id="cell67">
  <circle cx="355.133" cy="492.2" r="8.41271" stroke-width="0.5" stroke="black" fill="cyan"/>
  <circle cx="355.133" cy="492.2" r="5.05167" stroke-width="0.5" stroke="black" fill="cyan"/>
   </g>
   <g id="cell68">
  <circle cx="558.866" cy="555.397" r="8.41271" stroke-width="0.5" stroke="black" fill="cyan"/>
  <circle cx="558.866" cy="555.397" r="5.05167" stroke-width="0.5" stroke="black" fill="cyan"/>
   </g>
   <g id="cell69">
  <circle cx="439.92" cy="456.739" r="8.37321" stroke-width="0.5" stroke="black" fill="cyan"/>
  <circle cx="439.92" cy="456.739" r="5.03708" stroke-width="0.5" stroke="black" fill="cyan"/>
   </g>
   <g id="cell70">
  <circle cx="575.837" cy="475.592" r="8.41271" stroke-width="0.5" stroke="black" fill="cyan"/>
  <circle cx="575.837" cy="475.592" r="5.05167" stroke-width="0.5" stroke="black" fill="cyan"/>
   </g>
   <g id="cell71">
  <circle cx="377.807" cy="528.561" r="6.32932" stroke-width="0.5" stroke="black" fill="cyan"/>
  <circle cx="377.807" cy="528.561" r="3.87328" stroke-width="0.5" stroke="black" fill="cyan"/>
   </g>
   <g id="cell72">
  <circle cx="535.134" cy="511.358" r="8.41271" stroke-width="0.5" stroke="black" fill="cyan"/>
  <circle cx="535.134" cy="511.358" r="5.05167" stroke-width="0.5" stroke="black" fill="cyan"/>
   </g>
   <g id="cell73">
  <circle cx="364.147" cy="546.255" r="1.84616" stroke-width="0.5" stroke="black" fill="cyan"/>
  <circle cx="364.147" cy="546.255" r="1.7784" stroke-width="0.5" stroke="black" fill="black"/>
   </g>
   <g id="cell74">
  <circle cx="542.614" cy="444.653" r="8.41271" stroke-width="0.5" stroke="black" fill="cyan"/>
  <circle cx="542.614" cy="444.653" r="5.05167" stroke-width="0.5" stroke="black" fill="cyan"/>
   </g>
   <g id="cell75">
  <circle cx="444.281" cy="472.358" r="8.37321" stroke-width="0.5" stroke="black" fill="cyan"/>
  <circle cx="444.281" cy="472.358" r="5.03708" stroke-width="0.5" stroke="black" fill="cyan"/>
   </g>
   <g id="cell76">
  <circle cx="524.386" cy="387.266" r="8.13936" stroke-width="0.5" stroke="black" fill="magenta"/>
  <circle cx="524.386" cy="387.266" r="4.92699" stroke-width="0.5" stroke="black" fill="magenta"/>
   </g>
   <g id="cell77">
  <circle cx="486.419" cy="436.614" r="7.11997" stroke-width="0.5" stroke="black" fill="magenta"/>
  <circle cx="486.419" cy="436.614" r="4.32844" stroke-width="0.5" stroke="black" fill="magenta"/>
   </g>
   <g id="cell78">
  <circle cx="373.605" cy="467.158" r="8.36722" stroke-width="0.5" stroke="black" fill="magenta"/>
  <circle cx="373.605" cy="467.158" r="5.03458" stroke-width="0.5" stroke="black" fill="magenta"/>
   </g>
   <g id="cell79">
  <circle cx="507.051" cy="526.105" r="8.36458" stroke-width="0.5" stroke="black" fill="magenta"/>
  <circle cx="507.051" cy="526.105" r="5.03347" stroke-width="0.5" stroke="black" fill="magenta"/>
   </g>
   <g id="cell80">
  <circle cx="606.091" cy="483.695" r="8.36178" stroke-width="0.5" stroke="black" fill="green"/>
  <circle cx="606.091" cy="483.695" r="5.03227" stroke-width="0.5" stroke="black" fill="green"/>
   </g>
   <g id="cell81">
  <circle cx="428.937" cy="503.271" r="7.74435" stroke-width="0.5" stroke="black" fill="green"/>
  <circle cx="428.937" cy="503.271" r="4.71001" stroke-width="0.5" stroke="black" fill="green"/>
   </g>
   <g id="cell82">
  <circle cx="542.925" cy="495.428" r="8.35236" stroke-width="0.5" stroke="black" fill="magenta"/>
  <circle cx="542.925" cy="495.428" r="5.02821" stroke-width="0.5" stroke="black" fill="magenta"/>
   </g>
   <g id="cell83">
  <circle cx="492.182" cy="430.891" r="1.74054" stroke-width="0.5" stroke="black" fill="green"/>
  <circle cx="492.182" cy="430.891" r="1.68632" stroke-width="0.5" stroke="black" fill="black"/>
   </g>
   <g id="cell84">
  <circle cx="409.847" cy="480.884" r="7.22091" stroke-width="0.5" stroke="black" fill="green"/>
  <circle cx="409.847" cy="480.884" r="4.40156" stroke-width="0.5" stroke="black" fill="green"/>
   </g>
   <g id="cell85">
  <circle cx="405.579" cy="447.367" r="3.85764" stroke-width="0.5" stroke="black" fill="green"/>
  <circle cx="405.579" cy="447.367" r="2.8249" stroke-width="0.5" stroke="black" fill="black"/>
   </g>
   <g id="cell86">
  <circle cx="394.796" cy="566.785" r="7.30155" stroke-width="0.5" stroke="black" fill="magenta"/>
  <circle cx="394.796" cy="566.785" r="4.45233" stroke-width="0.5" stroke="black" fill="magenta"/>
   </g>
   <g id="cell87">
  <circle cx="440.186" cy="525.174" r="6.67284" stroke-width="0.5" stroke="black" fill="green"/>
  <circle cx="440.186" cy="525.174" r="4.03988" stroke-width="0.5" stroke="black" fill="green"/>
   </g>
   <g id="cell88">
  <circle cx="476.655" cy="611.511" r="8.26685" stroke-width="0.5" stroke="black" fill="green"/>
  <circle cx="476.655" cy="611.511" r="4.98849" stroke-width="0.5" stroke="black" fill="green"/>
   </g>
   <g id="cell89">
  <circle cx="434.751" cy="489.809" r="7.89025" stroke-width="0.5" stroke="black" fill="green"/>
  <circle cx="434.751" cy="489.809" r="4.8002" stroke-width="0.5" stroke="black" fill="green"/>
   </g>
   <g id="cell90">
  <circle cx="584.172" cy="502.539" r="8.25377" stroke-width="0.5" stroke="black" fill="magenta"/>
  <circle cx="584.172" cy="502.539" r="4.98209" stroke-width="0.5" stroke="black" fill="magenta"/>
   </g>
   <g id="cell91">
  <circle cx="455.297" cy="598.541" r="2.66123" stroke-width="0.5" stroke="black" fill="magenta"/>
  <circle cx="455.297" cy="598.541" r="2.28871" stroke-width="0.5" stroke="black" fill="black"/>
   </g>
   <g id="cell92">
  <circle cx="552.247" cy="593.118" r="7.1021" stroke-width="0.5" stroke="black" fill="green"/>
  <circle cx="552.247" cy="593.118" r="4.35938" stroke-width="0.5" stroke="black" fill="green"/>
   </g>
   <g id="cell93">
  <circle cx="576.556" cy="530.972" r="7.90903" stroke-width="0.5" stroke="black" fill="cyan"/>
  <circle cx="576.556" cy="530.972" r="4.80963" stroke-width="0.5" stroke="black" fill="cyan"/>
   </g>
   <g id="cell94">
  <circle cx="547.569" cy="468.898" r="8.18833" stroke-width="0.5" stroke="black" fill="cyan"/>
  <circle cx="547.569" cy="468.898" r="4.94921" stroke-width="0.5" stroke="black" fill="cyan"/>
   </g>
   <g id="cell95">
  <circle cx="461.87" cy="534.165" r="8.18833" stroke-width="0.5" stroke="black" fill="magenta"/>
  <circle cx="461.87" cy="534.165" r="4.94921" stroke-width="0.5" stroke="black" fill="magenta"/>
   </g>
   <g id="cell96">
  <circle cx="534.761" cy="376.946" r="8.13936" stroke-width="0.5" stroke="black" fill="magenta"/>
  <circle cx="534.761" cy="376.946" r="4.92699" stroke-width="0.5" stroke="black" fill="magenta"/>
   </g>
   <g id="cell97">
  <circle cx="569.965" cy="505.633" r="8.09787" stroke-width="0.5" stroke="black" fill="magenta"/>
  <circle cx="569.965" cy="505.633" r="4.9063" stroke-width="0.5" stroke="black" fill="magenta"/>
   </g>
   <g id="cell98">
  <circle cx="411.863" cy="567.546" r="8.04604" stroke-width="0.5" stroke="black" fill="green"/>
  <circle cx="411.863" cy="567.546" r="4.87399" stroke-width="0.5" stroke="black" fill="green"/>
   </g>
   <g id="cell99">
  <circle cx="570.075" cy="491.035" r="8.04604" stroke-width="0.5" stroke="black" fill="magenta"/>
  <circle cx="570.075" cy="491.035" r="4.87399" stroke-width="0.5" stroke="black" fill="magenta"/>
   </g>
   <g id="cell100">
  <circle cx="569.437" cy="544.146" r="7.90903" stroke-width="0.5" stroke="black" fill="cyan"/>
  <circle cx="569.437" cy="544.146" r="4.80963" stroke-width="0.5" stroke="black" fill="cyan"/>
   </g>
   <g id="cell101">
  <circle cx="460.46" cy="630.2" r="7.32513" stroke-width="0.5" stroke="black" fill="magenta"/>
  <circle cx="460.46" cy="630.2" r="4.48004" stroke-width="0.5" stroke="black" fill="magenta"/>
   </g>
   <g id="cell102">
  <circle cx="443.9" cy="501.687" r="7.89025" stroke-width="0.5" stroke="black" fill="green"/>
  <circle cx="443.9" cy="501.687" r="4.8002" stroke-width="0.5" stroke="black" fill="green"/>
   </g>
   <g id="cell103">
  <circle cx="543.849" cy="604.438" r="7.77465" stroke-width="0.5" stroke="black" fill="green"/>
  <circle cx="543.849" cy="604.438" r="4.73516" stroke-width="0.5" stroke="black" fill="green"/>
   </g>
   <g id="cell104">
  <circle cx="549.934" cy="536.674" r="7.84675" stroke-width="0.5" stroke="black" fill="green"/>
  <circle cx="549.934" cy="536.674" r="4.7629" stroke-width="0.5" stroke="black" fill="green"/>
   </g>
   <g id="cell105">
  <circle cx="418.354" cy="493.756" r="7.74435" stroke-width="0.5" stroke="black" fill="green"/>
  <circle cx="418.354" cy="493.756" r="4.71001" stroke-width="0.5" stroke="black" fill="green"/>
   </g>
   <g id="cell106">
  <circle cx="638.968" cy="538.064" r="7.77763" stroke-width="0.5" stroke="black" fill="green"/>
  <circle cx="638.968" cy="538.064" r="4.7232" stroke-width="0.5" stroke="black" fill="green"/>
   </g>
   <g id="cell107">
  <circle cx="382.584" cy="513.988" r="7.59183" stroke-width="0.5" stroke="black" fill="cyan"/>
  <circle cx="382.584" cy="513.988" r="4.61399" stroke-width="0.5" stroke="black" fill="cyan"/>
   </g>
   <g id="cell108">
  <circle cx="458.95" cy="643.052" r="7.32513" stroke-width="0.5" stroke="black" fill="magenta"/>
  <circle cx="458.95" cy="643.052" r="4.48004" stroke-width="0.5" stroke="black" fill="magenta"/>
   </g>
   <g id="cell109">
  <circle cx="447.666" cy="633.271" r="7.32513" stroke-width="0.5" stroke="black" fill="magenta"/>
  <circle cx="447.666" cy="633.271" r="4.48004" stroke-width="0.5" stroke="black" fill="magenta"/>
   </g>
   <g id="cell110">
  <circle cx="539.069" cy="590.674" r="7.1021" stroke-width="0.5" stroke="black" fill="green"/>
  <circle cx="539.069" cy="590.674" r="4.35938" stroke-width="0.5" stroke="black" fill="green"/>
   </g>
   <g id="cell111">
  <circle cx="635.447" cy="551.715" r="7.10389" stroke-width="0.5" stroke="black" fill="green"/>
  <circle cx="635.447" cy="551.715" r="4.35303" stroke-width="0.5" stroke="black" fill="green"/>
   </g>
   <g id="cell112">
  <circle cx="383.481" cy="573.52" r="7.30155" stroke-width="0.5" stroke="black" fill="magenta"/>
  <circle cx="383.481" cy="573.52" r="4.45233" stroke-width="0.5" stroke="black" fill="magenta"/>
   </g>
   <g id="cell113">
  <circle cx="423.5" cy="480.969" r="7.22091" stroke-width="0.5" stroke="black" fill="green"/>
  <circle cx="423.5" cy="480.969" r="4.40156" stroke-width="0.5" stroke="black" fill="green"/>
   </g>
   <g id="cell114">
  <circle cx="496.648" cy="444.24" r="7.11997" stroke-width="0.5" stroke="black" fill="magenta"/>
  <circle cx="496.648" cy="444.24" r="4.32844" stroke-width="0.5" stroke="black" fill="magenta"/>
   </g>
   <g id="cell115">
  <circle cx="452.568" cy="523.882" r="6.92111" stroke-width="0.5" stroke="black" fill="green"/>
  <circle cx="452.568" cy="523.882" r="4.21175" stroke-width="0.5" stroke="black" fill="green"/>
   </g>
   <g id="cell116">
  <circle cx="370.442" cy="519.121" r="6.32932" stroke-width="0.5" stroke="black" fill="cyan"/>
  <circle cx="370.442" cy="519.121" r="3.87328" stroke-width="0.5" stroke="black" fill="cyan"/>
   </g>
   <g id="cell117">
  <circle cx="436.975" cy="513.546" r="6.67284" stroke-width="0.5" stroke="black" fill="green"/>
  <circle cx="436.975" cy="513.546" r="4.03988" stroke-width="0.5" stroke="black" fill="green"/>
   </g>
   <g id="cell118">
  <circle cx="529.435" cy="524.03" r="6.67717" stroke-width="0.5" stroke="black" fill="cyan"/>
  <circle cx="529.435" cy="524.03" r="4.00951" stroke-width="0.5" stroke="black" fill="cyan"/>
   </g>
  </g>
 </g>
  <rect x="775" y="1035" width="200" height="10" stroke-width="2" stroke="rgb(255,255,255)" fill="rgb(0,0,0)"/>
  <text x="781.25" y="1028.75"
   font-family="Arial" font-size="25" fill="black" >
   200 &#956;m
  </text>
  <text x="25" y="1045"
   font-family="Arial" font-size="18.75" fill="black" >
   0 days, 0 hours, 0 minutes, and 18.7202 seconds
  </text>
  <rect x="0" y="70" width="1000" height="1000" stroke-width="2" stroke="rgb(0,0,0)" fill="none"/>
</svg>
