<?xml version="1.0" encoding="UTF-8" standalone="no"?>
<!-- Created with PhysiCell (http://PhysiCell.MathCancer.org/) -->
<svg 
 xmlns:dc="http://purl.org/dc/elements/1.1/" 
 xmlns:cc="http://creativecommons.org/ns#" 
 xmlns:rdf="http://www.w3.org/1999/02/22-rdf-syntax-ns#" 
 xmlns:svg="http://www.w3.org/2000/svg" 
 xmlns="http://www.w3.org/2000/svg" 
 version="1.1" 
 width="1000" 
 height="1070" 
 id="svg2">
  <rect x="0" y="0" width="1000" height="1070" stroke-width="2" stroke="white" fill="white"/>
  <text x="12.5" y="30"
   font-family="Arial" font-size="25" fill="black" >
   Current time: 0 days, 11 hours, and 30.00 minutes, z = 0.00 &#956;m
  </text>
  <text x="12.5" y="57.5"
   font-family="Arial" font-size="23.75" fill="black" >
   113 agents
  </text>
 <g id="tissue" 
    transform="translate(0,1070) scale(1,-1)">
  <g id="ECM">
  </g>
  <g id="cells">
   <g id="cell0">
  <circle cx="521.32" cy="532.083" r="8.31491" stroke-width="0.5" stroke="black" fill="magenta"/>
  <circle cx="521.32" cy="532.083" r="5.01133" stroke-width="0.5" stroke="black" fill="magenta"/>
   </g>
   <g id="cell1">
  <circle cx="602.703" cy="526.691" r="8.41271" stroke-width="0.5" stroke="black" fill="magenta"/>
  <circle cx="602.703" cy="526.691" r="5.05167" stroke-width="0.5" stroke="black" fill="magenta"/>
   </g>
   <g id="cell2">
  <circle cx="511.149" cy="600.478" r="8.41271" stroke-width="0.5" stroke="black" fill="magenta"/>
  <circle cx="511.149" cy="600.478" r="5.05167" stroke-width="0.5" stroke="black" fill="magenta"/>
   </g>
   <g id="cell3">
  <circle cx="531.145" cy="543.382" r="8.41271" stroke-width="0.5" stroke="black" fill="magenta"/>
  <circle cx="531.145" cy="543.382" r="5.05167" stroke-width="0.5" stroke="black" fill="magenta"/>
   </g>
   <g id="cell4">
  <circle cx="473.718" cy="441.428" r="8.32543" stroke-width="0.5" stroke="black" fill="magenta"/>
  <circle cx="473.718" cy="441.428" r="5.01617" stroke-width="0.5" stroke="black" fill="magenta"/>
   </g>
   <g id="cell5">
  <circle cx="465.148" cy="493.428" r="8.41271" stroke-width="0.5" stroke="black" fill="magenta"/>
  <circle cx="465.148" cy="493.428" r="5.05167" stroke-width="0.5" stroke="black" fill="magenta"/>
   </g>
   <g id="cell6">
  <circle cx="596.021" cy="513.378" r="8.08613" stroke-width="0.5" stroke="black" fill="magenta"/>
  <circle cx="596.021" cy="513.378" r="4.8956" stroke-width="0.5" stroke="black" fill="magenta"/>
   </g>
   <g id="cell7">
  <circle cx="511.534" cy="464.514" r="8.41271" stroke-width="0.5" stroke="black" fill="magenta"/>
  <circle cx="511.534" cy="464.514" r="5.05167" stroke-width="0.5" stroke="black" fill="magenta"/>
   </g>
   <g id="cell8">
  <circle cx="373.758" cy="547.155" r="8.41271" stroke-width="0.5" stroke="black" fill="magenta"/>
  <circle cx="373.758" cy="547.155" r="5.05167" stroke-width="0.5" stroke="black" fill="magenta"/>
   </g>
   <g id="cell9">
  <circle cx="466.037" cy="602.411" r="8.06667" stroke-width="0.5" stroke="black" fill="magenta"/>
  <circle cx="466.037" cy="602.411" r="4.88515" stroke-width="0.5" stroke="black" fill="magenta"/>
   </g>
   <g id="cell10">
  <circle cx="583.447" cy="392.105" r="8.41271" stroke-width="0.5" stroke="black" fill="magenta"/>
  <circle cx="583.447" cy="392.105" r="5.05167" stroke-width="0.5" stroke="black" fill="magenta"/>
   </g>
   <g id="cell11">
  <circle cx="589.748" cy="590.273" r="8.41271" stroke-width="0.5" stroke="black" fill="magenta"/>
  <circle cx="589.748" cy="590.273" r="5.05167" stroke-width="0.5" stroke="black" fill="magenta"/>
   </g>
   <g id="cell12">
  <circle cx="506.651" cy="586.013" r="8.41271" stroke-width="0.5" stroke="black" fill="magenta"/>
  <circle cx="506.651" cy="586.013" r="5.05167" stroke-width="0.5" stroke="black" fill="magenta"/>
   </g>
   <g id="cell13">
  <circle cx="380.508" cy="560.491" r="8.13813" stroke-width="0.5" stroke="black" fill="magenta"/>
  <circle cx="380.508" cy="560.491" r="4.92317" stroke-width="0.5" stroke="black" fill="magenta"/>
   </g>
   <g id="cell14">
  <circle cx="525.215" cy="401.941" r="8.41271" stroke-width="0.5" stroke="black" fill="magenta"/>
  <circle cx="525.215" cy="401.941" r="5.05167" stroke-width="0.5" stroke="black" fill="magenta"/>
   </g>
   <g id="cell15">
  <circle cx="384.387" cy="478.625" r="8.32032" stroke-width="0.5" stroke="black" fill="magenta"/>
  <circle cx="384.387" cy="478.625" r="5.01383" stroke-width="0.5" stroke="black" fill="magenta"/>
   </g>
   <g id="cell16">
  <circle cx="428.96" cy="413.217" r="8.41271" stroke-width="0.5" stroke="black" fill="magenta"/>
  <circle cx="428.96" cy="413.217" r="5.05167" stroke-width="0.5" stroke="black" fill="magenta"/>
   </g>
   <g id="cell17">
  <circle cx="582.836" cy="487.841" r="7.65871" stroke-width="0.5" stroke="black" fill="magenta"/>
  <circle cx="582.836" cy="487.841" r="4.6537" stroke-width="0.5" stroke="black" fill="magenta"/>
   </g>
   <g id="cell18">
  <circle cx="511.952" cy="394.758" r="8.33026" stroke-width="0.5" stroke="black" fill="magenta"/>
  <circle cx="511.952" cy="394.758" r="5.01837" stroke-width="0.5" stroke="black" fill="magenta"/>
   </g>
   <g id="cell19">
  <circle cx="447.714" cy="533.781" r="7.95045" stroke-width="0.5" stroke="black" fill="magenta"/>
  <circle cx="447.714" cy="533.781" r="4.82139" stroke-width="0.5" stroke="black" fill="magenta"/>
   </g>
   <g id="cell20">
  <circle cx="528.603" cy="416.698" r="8.41271" stroke-width="0.5" stroke="black" fill="magenta"/>
  <circle cx="528.603" cy="416.698" r="5.05167" stroke-width="0.5" stroke="black" fill="magenta"/>
   </g>
   <g id="cell21">
  <circle cx="468.731" cy="636.741" r="6.22043" stroke-width="0.5" stroke="black" fill="magenta"/>
  <circle cx="468.731" cy="636.741" r="3.79965" stroke-width="0.5" stroke="black" fill="magenta"/>
   </g>
   <g id="cell22">
  <circle cx="556.933" cy="497.636" r="7.75967" stroke-width="0.5" stroke="black" fill="magenta"/>
  <circle cx="556.933" cy="497.636" r="4.72307" stroke-width="0.5" stroke="black" fill="magenta"/>
   </g>
   <g id="cell23">
  <circle cx="538.042" cy="480.48" r="8.41271" stroke-width="0.5" stroke="black" fill="magenta"/>
  <circle cx="538.042" cy="480.48" r="5.05167" stroke-width="0.5" stroke="black" fill="magenta"/>
   </g>
   <g id="cell24">
  <circle cx="559.288" cy="379.787" r="8.41271" stroke-width="0.5" stroke="black" fill="magenta"/>
  <circle cx="559.288" cy="379.787" r="5.05167" stroke-width="0.5" stroke="black" fill="magenta"/>
   </g>
   <g id="cell25">
  <circle cx="645.581" cy="558.008" r="5.78361" stroke-width="0.5" stroke="black" fill="green"/>
  <circle cx="645.581" cy="558.008" r="3.52219" stroke-width="0.5" stroke="black" fill="green"/>
   </g>
   <g id="cell26">
  <circle cx="550.641" cy="401.23" r="8.41271" stroke-width="0.5" stroke="black" fill="green"/>
  <circle cx="550.641" cy="401.23" r="5.05167" stroke-width="0.5" stroke="black" fill="green"/>
   </g>
   <g id="cell27">
  <circle cx="457.446" cy="388.678" r="8.41271" stroke-width="0.5" stroke="black" fill="green"/>
  <circle cx="457.446" cy="388.678" r="5.05167" stroke-width="0.5" stroke="black" fill="green"/>
   </g>
   <g id="cell28">
  <circle cx="432.548" cy="533.7" r="8.41271" stroke-width="0.5" stroke="black" fill="green"/>
  <circle cx="432.548" cy="533.7" r="5.05167" stroke-width="0.5" stroke="black" fill="green"/>
   </g>
   <g id="cell29">
  <circle cx="456.464" cy="521.741" r="8.1218" stroke-width="0.5" stroke="black" fill="green"/>
  <circle cx="456.464" cy="521.741" r="4.91457" stroke-width="0.5" stroke="black" fill="green"/>
   </g>
   <g id="cell30">
  <circle cx="481.139" cy="540.178" r="8.41271" stroke-width="0.5" stroke="black" fill="green"/>
  <circle cx="481.139" cy="540.178" r="5.05167" stroke-width="0.5" stroke="black" fill="green"/>
   </g>
   <g id="cell31">
  <circle cx="412.07" cy="538.706" r="8.41271" stroke-width="0.5" stroke="black" fill="green"/>
  <circle cx="412.07" cy="538.706" r="5.05167" stroke-width="0.5" stroke="black" fill="green"/>
   </g>
   <g id="cell32">
  <circle cx="428.344" cy="470.968" r="8.1609" stroke-width="0.5" stroke="black" fill="green"/>
  <circle cx="428.344" cy="470.968" r="4.93506" stroke-width="0.5" stroke="black" fill="green"/>
   </g>
   <g id="cell33">
  <circle cx="498.763" cy="413.39" r="8.1947" stroke-width="0.5" stroke="black" fill="green"/>
  <circle cx="498.763" cy="413.39" r="4.95246" stroke-width="0.5" stroke="black" fill="green"/>
   </g>
   <g id="cell34">
  <circle cx="391.76" cy="453.626" r="8.13813" stroke-width="0.5" stroke="black" fill="green"/>
  <circle cx="391.76" cy="453.626" r="4.92317" stroke-width="0.5" stroke="black" fill="green"/>
   </g>
   <g id="cell35">
  <circle cx="544.389" cy="548.996" r="7.27253" stroke-width="0.5" stroke="black" fill="green"/>
  <circle cx="544.389" cy="548.996" r="4.41835" stroke-width="0.5" stroke="black" fill="green"/>
   </g>
   <g id="cell36">
  <circle cx="390.866" cy="585.209" r="8.41271" stroke-width="0.5" stroke="black" fill="green"/>
  <circle cx="390.866" cy="585.209" r="5.05167" stroke-width="0.5" stroke="black" fill="green"/>
   </g>
   <g id="cell37">
  <circle cx="634.871" cy="460.618" r="8.41271" stroke-width="0.5" stroke="black" fill="green"/>
  <circle cx="634.871" cy="460.618" r="5.05167" stroke-width="0.5" stroke="black" fill="green"/>
   </g>
   <g id="cell38">
  <circle cx="530.985" cy="601.772" r="7.97646" stroke-width="0.5" stroke="black" fill="green"/>
  <circle cx="530.985" cy="601.772" r="4.83584" stroke-width="0.5" stroke="black" fill="green"/>
   </g>
   <g id="cell39">
  <circle cx="617.768" cy="494.646" r="8.30918" stroke-width="0.5" stroke="black" fill="green"/>
  <circle cx="617.768" cy="494.646" r="5.00867" stroke-width="0.5" stroke="black" fill="green"/>
   </g>
   <g id="cell40">
  <circle cx="485.348" cy="571.779" r="8.41271" stroke-width="0.5" stroke="black" fill="green"/>
  <circle cx="485.348" cy="571.779" r="5.05167" stroke-width="0.5" stroke="black" fill="green"/>
   </g>
   <g id="cell41">
  <circle cx="364.968" cy="480.586" r="8.41271" stroke-width="0.5" stroke="black" fill="green"/>
  <circle cx="364.968" cy="480.586" r="5.05167" stroke-width="0.5" stroke="black" fill="green"/>
   </g>
   <g id="cell42">
  <circle cx="451.065" cy="487.407" r="8.04235" stroke-width="0.5" stroke="black" fill="green"/>
  <circle cx="451.065" cy="487.407" r="4.87905" stroke-width="0.5" stroke="black" fill="green"/>
   </g>
   <g id="cell43">
  <circle cx="558.266" cy="445.653" r="8.41271" stroke-width="0.5" stroke="black" fill="green"/>
  <circle cx="558.266" cy="445.653" r="5.05167" stroke-width="0.5" stroke="black" fill="green"/>
   </g>
   <g id="cell44">
  <circle cx="477.993" cy="627.397" r="8.11327" stroke-width="0.5" stroke="black" fill="green"/>
  <circle cx="477.993" cy="627.397" r="4.91006" stroke-width="0.5" stroke="black" fill="green"/>
   </g>
   <g id="cell45">
  <circle cx="416.857" cy="553.175" r="7.65871" stroke-width="0.5" stroke="black" fill="green"/>
  <circle cx="416.857" cy="553.175" r="4.6537" stroke-width="0.5" stroke="black" fill="green"/>
   </g>
   <g id="cell46">
  <circle cx="520.281" cy="613.096" r="8.41271" stroke-width="0.5" stroke="black" fill="green"/>
  <circle cx="520.281" cy="613.096" r="5.05167" stroke-width="0.5" stroke="black" fill="green"/>
   </g>
   <g id="cell47">
  <circle cx="504.328" cy="511.436" r="8.41271" stroke-width="0.5" stroke="black" fill="green"/>
  <circle cx="504.328" cy="511.436" r="5.05167" stroke-width="0.5" stroke="black" fill="green"/>
   </g>
   <g id="cell48">
  <circle cx="564.48" cy="602.821" r="8.41271" stroke-width="0.5" stroke="black" fill="green"/>
  <circle cx="564.48" cy="602.821" r="5.05167" stroke-width="0.5" stroke="black" fill="green"/>
   </g>
   <g id="cell49">
  <circle cx="429.826" cy="397.641" r="8.41271" stroke-width="0.5" stroke="black" fill="green"/>
  <circle cx="429.826" cy="397.641" r="5.05167" stroke-width="0.5" stroke="black" fill="green"/>
   </g>
   <g id="cell50">
  <circle cx="519.475" cy="516.719" r="8.41271" stroke-width="0.5" stroke="black" fill="cyan"/>
  <circle cx="519.475" cy="516.719" r="5.05167" stroke-width="0.5" stroke="black" fill="cyan"/>
   </g>
   <g id="cell51">
  <circle cx="399.593" cy="598.69" r="8.41271" stroke-width="0.5" stroke="black" fill="cyan"/>
  <circle cx="399.593" cy="598.69" r="5.05167" stroke-width="0.5" stroke="black" fill="cyan"/>
   </g>
   <g id="cell52">
  <circle cx="524.767" cy="425.121" r="1.67536" stroke-width="0.5" stroke="black" fill="cyan"/>
  <circle cx="524.767" cy="425.121" r="1.63653" stroke-width="0.5" stroke="black" fill="black"/>
   </g>
   <g id="cell53">
  <circle cx="571.128" cy="436.122" r="8.41271" stroke-width="0.5" stroke="black" fill="cyan"/>
  <circle cx="571.128" cy="436.122" r="5.05167" stroke-width="0.5" stroke="black" fill="cyan"/>
   </g>
   <g id="cell54">
  <circle cx="479.056" cy="426.855" r="8.41271" stroke-width="0.5" stroke="black" fill="cyan"/>
  <circle cx="479.056" cy="426.855" r="5.05167" stroke-width="0.5" stroke="black" fill="cyan"/>
   </g>
   <g id="cell55">
  <circle cx="525.717" cy="470.959" r="8.41271" stroke-width="0.5" stroke="black" fill="cyan"/>
  <circle cx="525.717" cy="470.959" r="5.05167" stroke-width="0.5" stroke="black" fill="cyan"/>
   </g>
   <g id="cell56">
  <circle cx="617.683" cy="522.313" r="8.41271" stroke-width="0.5" stroke="black" fill="cyan"/>
  <circle cx="617.683" cy="522.313" r="5.05167" stroke-width="0.5" stroke="black" fill="cyan"/>
   </g>
   <g id="cell57">
  <circle cx="416.924" cy="617.466" r="8.41271" stroke-width="0.5" stroke="black" fill="cyan"/>
  <circle cx="416.924" cy="617.466" r="5.05167" stroke-width="0.5" stroke="black" fill="cyan"/>
   </g>
   <g id="cell58">
  <circle cx="553.387" cy="483.206" r="8.41271" stroke-width="0.5" stroke="black" fill="cyan"/>
  <circle cx="553.387" cy="483.206" r="5.05167" stroke-width="0.5" stroke="black" fill="cyan"/>
   </g>
   <g id="cell59">
  <circle cx="385.216" cy="439.296" r="8.41271" stroke-width="0.5" stroke="black" fill="cyan"/>
  <circle cx="385.216" cy="439.296" r="5.05167" stroke-width="0.5" stroke="black" fill="cyan"/>
   </g>
   <g id="cell60">
  <circle cx="592.353" cy="476.299" r="8.41271" stroke-width="0.5" stroke="black" fill="cyan"/>
  <circle cx="592.353" cy="476.299" r="5.05167" stroke-width="0.5" stroke="black" fill="cyan"/>
   </g>
   <g id="cell61">
  <circle cx="554.687" cy="615.516" r="8.41271" stroke-width="0.5" stroke="black" fill="cyan"/>
  <circle cx="554.687" cy="615.516" r="5.05167" stroke-width="0.5" stroke="black" fill="cyan"/>
   </g>
   <g id="cell62">
  <circle cx="526.335" cy="444.16" r="8.41271" stroke-width="0.5" stroke="black" fill="cyan"/>
  <circle cx="526.335" cy="444.16" r="5.05167" stroke-width="0.5" stroke="black" fill="cyan"/>
   </g>
   <g id="cell63">
  <circle cx="581.299" cy="552.848" r="7.97646" stroke-width="0.5" stroke="black" fill="cyan"/>
  <circle cx="581.299" cy="552.848" r="4.83584" stroke-width="0.5" stroke="black" fill="cyan"/>
   </g>
   <g id="cell64">
  <circle cx="509.962" cy="636.825" r="8.41271" stroke-width="0.5" stroke="black" fill="cyan"/>
  <circle cx="509.962" cy="636.825" r="5.05167" stroke-width="0.5" stroke="black" fill="cyan"/>
   </g>
   <g id="cell65">
  <circle cx="535.884" cy="459.213" r="7.95045" stroke-width="0.5" stroke="black" fill="cyan"/>
  <circle cx="535.884" cy="459.213" r="4.82139" stroke-width="0.5" stroke="black" fill="cyan"/>
   </g>
   <g id="cell66">
  <circle cx="536.429" cy="528.663" r="8.41271" stroke-width="0.5" stroke="black" fill="cyan"/>
  <circle cx="536.429" cy="528.663" r="5.05167" stroke-width="0.5" stroke="black" fill="cyan"/>
   </g>
   <g id="cell67">
  <circle cx="354.528" cy="492.819" r="8.41271" stroke-width="0.5" stroke="black" fill="cyan"/>
  <circle cx="354.528" cy="492.819" r="5.05167" stroke-width="0.5" stroke="black" fill="cyan"/>
   </g>
   <g id="cell68">
  <circle cx="558.287" cy="553.974" r="8.41271" stroke-width="0.5" stroke="black" fill="cyan"/>
  <circle cx="558.287" cy="553.974" r="5.05167" stroke-width="0.5" stroke="black" fill="cyan"/>
   </g>
   <g id="cell69">
  <circle cx="436.909" cy="457.909" r="8.33257" stroke-width="0.5" stroke="black" fill="cyan"/>
  <circle cx="436.909" cy="457.909" r="5.01941" stroke-width="0.5" stroke="black" fill="cyan"/>
   </g>
   <g id="cell70">
  <circle cx="576.528" cy="474.359" r="8.41271" stroke-width="0.5" stroke="black" fill="cyan"/>
  <circle cx="576.528" cy="474.359" r="5.05167" stroke-width="0.5" stroke="black" fill="cyan"/>
   </g>
   <g id="cell71">
  <circle cx="375.111" cy="524.729" r="6.86652" stroke-width="0.5" stroke="black" fill="cyan"/>
  <circle cx="375.111" cy="524.729" r="4.14883" stroke-width="0.5" stroke="black" fill="cyan"/>
   </g>
   <g id="cell72">
  <circle cx="535.059" cy="512.583" r="8.41271" stroke-width="0.5" stroke="black" fill="cyan"/>
  <circle cx="535.059" cy="512.583" r="5.05167" stroke-width="0.5" stroke="black" fill="cyan"/>
   </g>
   <g id="cell73">
  <circle cx="363.426" cy="546.156" r="2.84772" stroke-width="0.5" stroke="black" fill="cyan"/>
  <circle cx="363.426" cy="546.156" r="2.39601" stroke-width="0.5" stroke="black" fill="black"/>
   </g>
   <g id="cell74">
  <circle cx="542.291" cy="445.082" r="8.41271" stroke-width="0.5" stroke="black" fill="cyan"/>
  <circle cx="542.291" cy="445.082" r="5.05167" stroke-width="0.5" stroke="black" fill="cyan"/>
   </g>
   <g id="cell75">
  <circle cx="443.995" cy="472.306" r="8.33257" stroke-width="0.5" stroke="black" fill="cyan"/>
  <circle cx="443.995" cy="472.306" r="5.01941" stroke-width="0.5" stroke="black" fill="cyan"/>
   </g>
   <g id="cell76">
  <circle cx="524.45" cy="387.346" r="7.84709" stroke-width="0.5" stroke="black" fill="magenta"/>
  <circle cx="524.45" cy="387.346" r="4.77041" stroke-width="0.5" stroke="black" fill="magenta"/>
   </g>
   <g id="cell77">
  <circle cx="488.54" cy="439.113" r="8.32543" stroke-width="0.5" stroke="black" fill="magenta"/>
  <circle cx="488.54" cy="439.113" r="5.01617" stroke-width="0.5" stroke="black" fill="magenta"/>
   </g>
   <g id="cell78">
  <circle cx="373.927" cy="467.954" r="8.32032" stroke-width="0.5" stroke="black" fill="magenta"/>
  <circle cx="373.927" cy="467.954" r="5.01383" stroke-width="0.5" stroke="black" fill="magenta"/>
   </g>
   <g id="cell79">
  <circle cx="507.448" cy="526.598" r="8.31491" stroke-width="0.5" stroke="black" fill="magenta"/>
  <circle cx="507.448" cy="526.598" r="5.01133" stroke-width="0.5" stroke="black" fill="magenta"/>
   </g>
   <g id="cell80">
  <circle cx="606.302" cy="483.815" r="8.30918" stroke-width="0.5" stroke="black" fill="green"/>
  <circle cx="606.302" cy="483.815" r="5.00867" stroke-width="0.5" stroke="black" fill="green"/>
   </g>
   <g id="cell81">
  <circle cx="429.408" cy="504.626" r="7.06958" stroke-width="0.5" stroke="black" fill="green"/>
  <circle cx="429.408" cy="504.626" r="4.30536" stroke-width="0.5" stroke="black" fill="green"/>
   </g>
   <g id="cell82">
  <circle cx="542.808" cy="494.739" r="8.28985" stroke-width="0.5" stroke="black" fill="magenta"/>
  <circle cx="542.808" cy="494.739" r="4.99956" stroke-width="0.5" stroke="black" fill="magenta"/>
   </g>
   <g id="cell83">
  <circle cx="492.971" cy="430.037" r="2.63866" stroke-width="0.5" stroke="black" fill="green"/>
  <circle cx="492.971" cy="430.037" r="2.27063" stroke-width="0.5" stroke="black" fill="black"/>
   </g>
   <g id="cell84">
  <circle cx="416.157" cy="480.473" r="8.1609" stroke-width="0.5" stroke="black" fill="green"/>
  <circle cx="416.157" cy="480.473" r="4.93506" stroke-width="0.5" stroke="black" fill="green"/>
   </g>
   <g id="cell85">
  <circle cx="405.862" cy="447.237" r="8.13813" stroke-width="0.5" stroke="black" fill="green"/>
  <circle cx="405.862" cy="447.237" r="4.92317" stroke-width="0.5" stroke="black" fill="green"/>
   </g>
   <g id="cell86">
  <circle cx="395.567" cy="568.203" r="6.45924" stroke-width="0.5" stroke="black" fill="magenta"/>
  <circle cx="395.567" cy="568.203" r="3.90752" stroke-width="0.5" stroke="black" fill="magenta"/>
   </g>
   <g id="cell87">
  <circle cx="441.055" cy="520.437" r="8.1218" stroke-width="0.5" stroke="black" fill="green"/>
  <circle cx="441.055" cy="520.437" r="4.91457" stroke-width="0.5" stroke="black" fill="green"/>
   </g>
   <g id="cell88">
  <circle cx="477.521" cy="612.119" r="8.11327" stroke-width="0.5" stroke="black" fill="green"/>
  <circle cx="477.521" cy="612.119" r="4.91006" stroke-width="0.5" stroke="black" fill="green"/>
   </g>
   <g id="cell89">
  <circle cx="436.627" cy="490.023" r="7.31733" stroke-width="0.5" stroke="black" fill="green"/>
  <circle cx="436.627" cy="490.023" r="4.47835" stroke-width="0.5" stroke="black" fill="green"/>
   </g>
   <g id="cell90">
  <circle cx="588.448" cy="500.851" r="8.08613" stroke-width="0.5" stroke="black" fill="magenta"/>
  <circle cx="588.448" cy="500.851" r="4.8956" stroke-width="0.5" stroke="black" fill="magenta"/>
   </g>
   <g id="cell91">
  <circle cx="452.828" cy="597.61" r="7.33874" stroke-width="0.5" stroke="black" fill="magenta"/>
  <circle cx="452.828" cy="597.61" r="4.47002" stroke-width="0.5" stroke="black" fill="black"/>
   </g>
   <g id="cell92">
  <circle cx="550.031" cy="593.391" r="5.72949" stroke-width="0.5" stroke="black" fill="green"/>
  <circle cx="550.031" cy="593.391" r="3.51586" stroke-width="0.5" stroke="black" fill="green"/>
   </g>
   <g id="cell93">
  <circle cx="575.992" cy="532.032" r="7.35314" stroke-width="0.5" stroke="black" fill="cyan"/>
  <circle cx="575.992" cy="532.032" r="4.49753" stroke-width="0.5" stroke="black" fill="cyan"/>
   </g>
   <g id="cell94">
  <circle cx="547.636" cy="468.746" r="7.95045" stroke-width="0.5" stroke="black" fill="cyan"/>
  <circle cx="547.636" cy="468.746" r="4.82139" stroke-width="0.5" stroke="black" fill="cyan"/>
   </g>
   <g id="cell95">
  <circle cx="461.925" cy="535.625" r="7.95045" stroke-width="0.5" stroke="black" fill="magenta"/>
  <circle cx="461.925" cy="535.625" r="4.82139" stroke-width="0.5" stroke="black" fill="magenta"/>
   </g>
   <g id="cell96">
  <circle cx="534.368" cy="377.339" r="7.84709" stroke-width="0.5" stroke="black" fill="magenta"/>
  <circle cx="534.368" cy="377.339" r="4.77041" stroke-width="0.5" stroke="black" fill="magenta"/>
   </g>
   <g id="cell97">
  <circle cx="567.854" cy="506.233" r="7.75967" stroke-width="0.5" stroke="black" fill="magenta"/>
  <circle cx="567.854" cy="506.233" r="4.72307" stroke-width="0.5" stroke="black" fill="magenta"/>
   </g>
   <g id="cell98">
  <circle cx="413.021" cy="567.177" r="7.65871" stroke-width="0.5" stroke="black" fill="green"/>
  <circle cx="413.021" cy="567.177" r="4.6537" stroke-width="0.5" stroke="black" fill="green"/>
   </g>
   <g id="cell99">
  <circle cx="569.848" cy="492.472" r="7.65871" stroke-width="0.5" stroke="black" fill="magenta"/>
  <circle cx="569.848" cy="492.472" r="4.6537" stroke-width="0.5" stroke="black" fill="magenta"/>
   </g>
   <g id="cell100">
  <circle cx="569.556" cy="544.311" r="7.35314" stroke-width="0.5" stroke="black" fill="cyan"/>
  <circle cx="569.556" cy="544.311" r="4.49753" stroke-width="0.5" stroke="black" fill="cyan"/>
   </g>
   <g id="cell101">
  <circle cx="458.479" cy="632.415" r="6.22043" stroke-width="0.5" stroke="black" fill="magenta"/>
  <circle cx="458.479" cy="632.415" r="3.79965" stroke-width="0.5" stroke="black" fill="magenta"/>
   </g>
   <g id="cell102">
  <circle cx="442.84" cy="502.439" r="7.31733" stroke-width="0.5" stroke="black" fill="green"/>
  <circle cx="442.84" cy="502.439" r="4.47835" stroke-width="0.5" stroke="black" fill="green"/>
   </g>
   <g id="cell103">
  <circle cx="545.014" cy="604.463" r="7.07884" stroke-width="0.5" stroke="black" fill="green"/>
  <circle cx="545.014" cy="604.463" r="4.33277" stroke-width="0.5" stroke="black" fill="green"/>
   </g>
   <g id="cell104">
  <circle cx="549.308" cy="536.133" r="7.27253" stroke-width="0.5" stroke="black" fill="green"/>
  <circle cx="549.308" cy="536.133" r="4.41835" stroke-width="0.5" stroke="black" fill="green"/>
   </g>
   <g id="cell105">
  <circle cx="422.109" cy="493.535" r="7.06958" stroke-width="0.5" stroke="black" fill="green"/>
  <circle cx="422.109" cy="493.535" r="4.30536" stroke-width="0.5" stroke="black" fill="green"/>
   </g>
   <g id="cell106">
  <circle cx="638.72" cy="539.292" r="7.1497" stroke-width="0.5" stroke="black" fill="green"/>
  <circle cx="638.72" cy="539.292" r="4.34001" stroke-width="0.5" stroke="black" fill="green"/>
   </g>
   <g id="cell107">
  <circle cx="382.551" cy="514.032" r="6.86652" stroke-width="0.5" stroke="black" fill="cyan"/>
  <circle cx="382.551" cy="514.032" r="4.14883" stroke-width="0.5" stroke="black" fill="cyan"/>
   </g>
   <g id="cell108">
  <circle cx="459.895" cy="643.525" r="6.22043" stroke-width="0.5" stroke="black" fill="magenta"/>
  <circle cx="459.895" cy="643.525" r="3.79965" stroke-width="0.5" stroke="black" fill="magenta"/>
   </g>
   <g id="cell109">
  <circle cx="447.41" cy="631.322" r="6.22043" stroke-width="0.5" stroke="black" fill="magenta"/>
  <circle cx="447.41" cy="631.322" r="3.79965" stroke-width="0.5" stroke="black" fill="magenta"/>
   </g>
   <g id="cell110">
  <circle cx="539.835" cy="589.729" r="5.72949" stroke-width="0.5" stroke="black" fill="green"/>
  <circle cx="539.835" cy="589.729" r="3.51586" stroke-width="0.5" stroke="black" fill="green"/>
   </g>
   <g id="cell111">
  <circle cx="636.943" cy="551.354" r="5.78361" stroke-width="0.5" stroke="black" fill="green"/>
  <circle cx="636.943" cy="551.354" r="3.52219" stroke-width="0.5" stroke="black" fill="green"/>
   </g>
   <g id="cell112">
  <circle cx="385.273" cy="572.611" r="6.45924" stroke-width="0.5" stroke="black" fill="magenta"/>
  <circle cx="385.273" cy="572.611" r="3.90752" stroke-width="0.5" stroke="black" fill="magenta"/>
   </g>
  </g>
 </g>
  <rect x="775" y="1035" width="200" height="10" stroke-width="2" stroke="rgb(255,255,255)" fill="rgb(0,0,0)"/>
  <text x="781.25" y="1028.75"
   font-family="Arial" font-size="25" fill="black" >
   200 &#956;m
  </text>
  <text x="25" y="1045"
   font-family="Arial" font-size="18.75" fill="black" >
   0 days, 0 hours, 0 minutes, and 15.3883 seconds
  </text>
  <rect x="0" y="70" width="1000" height="1000" stroke-width="2" stroke="rgb(0,0,0)" fill="none"/>
</svg>
