<?xml version="1.0" encoding="UTF-8" standalone="no"?>
<!-- Created with PhysiCell (http://PhysiCell.MathCancer.org/) -->
<svg 
 xmlns:dc="http://purl.org/dc/elements/1.1/" 
 xmlns:cc="http://creativecommons.org/ns#" 
 xmlns:rdf="http://www.w3.org/1999/02/22-rdf-syntax-ns#" 
 xmlns:svg="http://www.w3.org/2000/svg" 
 xmlns="http://www.w3.org/2000/svg" 
 version="1.1" 
 width="1000" 
 height="1070" 
 id="svg2">
  <rect x="0" y="0" width="1000" height="1070" stroke-width="2" stroke="white" fill="white"/>
  <text x="12.5" y="30"
   font-family="Arial" font-size="25" fill="black" >
   Current time: 0 days, 8 hours, and 0.00 minutes, z = 0.00 &#956;m
  </text>
  <text x="12.5" y="57.5"
   font-family="Arial" font-size="23.75" fill="black" >
   100 agents
  </text>
 <g id="tissue" 
    transform="translate(0,1070) scale(1,-1)">
  <g id="ECM">
  </g>
  <g id="cells">
   <g id="cell0">
  <circle cx="521.393" cy="532.355" r="8.14594" stroke-width="0.5" stroke="black" fill="magenta"/>
  <circle cx="521.393" cy="532.355" r="4.92726" stroke-width="0.5" stroke="black" fill="magenta"/>
   </g>
   <g id="cell1">
  <circle cx="603.14" cy="527.744" r="8.41271" stroke-width="0.5" stroke="black" fill="magenta"/>
  <circle cx="603.14" cy="527.744" r="5.05167" stroke-width="0.5" stroke="black" fill="magenta"/>
   </g>
   <g id="cell2">
  <circle cx="510.774" cy="600.546" r="8.41271" stroke-width="0.5" stroke="black" fill="magenta"/>
  <circle cx="510.774" cy="600.546" r="5.05167" stroke-width="0.5" stroke="black" fill="magenta"/>
   </g>
   <g id="cell3">
  <circle cx="531.35" cy="543.501" r="8.41271" stroke-width="0.5" stroke="black" fill="magenta"/>
  <circle cx="531.35" cy="543.501" r="5.05167" stroke-width="0.5" stroke="black" fill="magenta"/>
   </g>
   <g id="cell4">
  <circle cx="472.886" cy="441.596" r="8.17502" stroke-width="0.5" stroke="black" fill="magenta"/>
  <circle cx="472.886" cy="441.596" r="4.94236" stroke-width="0.5" stroke="black" fill="magenta"/>
   </g>
   <g id="cell5">
  <circle cx="465.294" cy="493.487" r="8.41271" stroke-width="0.5" stroke="black" fill="magenta"/>
  <circle cx="465.294" cy="493.487" r="5.05167" stroke-width="0.5" stroke="black" fill="magenta"/>
   </g>
   <g id="cell6">
  <circle cx="596.958" cy="514.844" r="7.51976" stroke-width="0.5" stroke="black" fill="magenta"/>
  <circle cx="596.958" cy="514.844" r="4.57072" stroke-width="0.5" stroke="black" fill="magenta"/>
   </g>
   <g id="cell7">
  <circle cx="512.524" cy="464.939" r="8.41271" stroke-width="0.5" stroke="black" fill="magenta"/>
  <circle cx="512.524" cy="464.939" r="5.05167" stroke-width="0.5" stroke="black" fill="magenta"/>
   </g>
   <g id="cell8">
  <circle cx="376.321" cy="547.25" r="8.41271" stroke-width="0.5" stroke="black" fill="magenta"/>
  <circle cx="376.321" cy="547.25" r="5.05167" stroke-width="0.5" stroke="black" fill="magenta"/>
   </g>
   <g id="cell9">
  <circle cx="465.085" cy="601.143" r="7.46878" stroke-width="0.5" stroke="black" fill="magenta"/>
  <circle cx="465.085" cy="601.143" r="4.53982" stroke-width="0.5" stroke="black" fill="magenta"/>
   </g>
   <g id="cell10">
  <circle cx="583.447" cy="392.105" r="8.41271" stroke-width="0.5" stroke="black" fill="magenta"/>
  <circle cx="583.447" cy="392.105" r="5.05167" stroke-width="0.5" stroke="black" fill="magenta"/>
   </g>
   <g id="cell11">
  <circle cx="589.748" cy="590.273" r="8.41271" stroke-width="0.5" stroke="black" fill="magenta"/>
  <circle cx="589.748" cy="590.273" r="5.05167" stroke-width="0.5" stroke="black" fill="magenta"/>
   </g>
   <g id="cell12">
  <circle cx="506.641" cy="585.979" r="8.41271" stroke-width="0.5" stroke="black" fill="magenta"/>
  <circle cx="506.641" cy="585.979" r="5.05167" stroke-width="0.5" stroke="black" fill="magenta"/>
   </g>
   <g id="cell13">
  <circle cx="380.847" cy="560.948" r="7.65871" stroke-width="0.5" stroke="black" fill="magenta"/>
  <circle cx="380.847" cy="560.948" r="4.6537" stroke-width="0.5" stroke="black" fill="magenta"/>
   </g>
   <g id="cell14">
  <circle cx="525.631" cy="401.298" r="8.41271" stroke-width="0.5" stroke="black" fill="magenta"/>
  <circle cx="525.631" cy="401.298" r="5.05167" stroke-width="0.5" stroke="black" fill="magenta"/>
   </g>
   <g id="cell15">
  <circle cx="385.174" cy="478.171" r="8.1609" stroke-width="0.5" stroke="black" fill="magenta"/>
  <circle cx="385.174" cy="478.171" r="4.93506" stroke-width="0.5" stroke="black" fill="magenta"/>
   </g>
   <g id="cell16">
  <circle cx="428.96" cy="413.217" r="8.41271" stroke-width="0.5" stroke="black" fill="magenta"/>
  <circle cx="428.96" cy="413.217" r="5.05167" stroke-width="0.5" stroke="black" fill="magenta"/>
   </g>
   <g id="cell17">
  <circle cx="577.303" cy="487.126" r="6.69288" stroke-width="0.5" stroke="black" fill="magenta"/>
  <circle cx="577.303" cy="487.126" r="4.02051" stroke-width="0.5" stroke="black" fill="magenta"/>
   </g>
   <g id="cell18">
  <circle cx="512.631" cy="393.851" r="8.18833" stroke-width="0.5" stroke="black" fill="magenta"/>
  <circle cx="512.631" cy="393.851" r="4.94921" stroke-width="0.5" stroke="black" fill="magenta"/>
   </g>
   <g id="cell19">
  <circle cx="447.869" cy="533.605" r="7.18097" stroke-width="0.5" stroke="black" fill="magenta"/>
  <circle cx="447.869" cy="533.605" r="4.36015" stroke-width="0.5" stroke="black" fill="magenta"/>
   </g>
   <g id="cell20">
  <circle cx="528.879" cy="416.106" r="8.41271" stroke-width="0.5" stroke="black" fill="magenta"/>
  <circle cx="528.879" cy="416.106" r="5.05167" stroke-width="0.5" stroke="black" fill="magenta"/>
   </g>
   <g id="cell21">
  <circle cx="462.619" cy="635.652" r="8.41271" stroke-width="0.5" stroke="black" fill="magenta"/>
  <circle cx="462.619" cy="635.652" r="5.05167" stroke-width="0.5" stroke="black" fill="magenta"/>
   </g>
   <g id="cell22">
  <circle cx="557.04" cy="494.975" r="6.68086" stroke-width="0.5" stroke="black" fill="magenta"/>
  <circle cx="557.04" cy="494.975" r="4.07263" stroke-width="0.5" stroke="black" fill="magenta"/>
   </g>
   <g id="cell23">
  <circle cx="538.491" cy="481.056" r="8.41271" stroke-width="0.5" stroke="black" fill="magenta"/>
  <circle cx="538.491" cy="481.056" r="5.05167" stroke-width="0.5" stroke="black" fill="magenta"/>
   </g>
   <g id="cell24">
  <circle cx="559.288" cy="379.787" r="8.41271" stroke-width="0.5" stroke="black" fill="magenta"/>
  <circle cx="559.288" cy="379.787" r="5.05167" stroke-width="0.5" stroke="black" fill="magenta"/>
   </g>
   <g id="cell25">
  <circle cx="640.943" cy="550.03" r="8.41271" stroke-width="0.5" stroke="black" fill="green"/>
  <circle cx="640.943" cy="550.03" r="5.05167" stroke-width="0.5" stroke="black" fill="green"/>
   </g>
   <g id="cell26">
  <circle cx="550.641" cy="401.23" r="8.41271" stroke-width="0.5" stroke="black" fill="green"/>
  <circle cx="550.641" cy="401.23" r="5.05167" stroke-width="0.5" stroke="black" fill="green"/>
   </g>
   <g id="cell27">
  <circle cx="457.446" cy="388.678" r="8.41271" stroke-width="0.5" stroke="black" fill="green"/>
  <circle cx="457.446" cy="388.678" r="5.05167" stroke-width="0.5" stroke="black" fill="green"/>
   </g>
   <g id="cell28">
  <circle cx="433.471" cy="533.438" r="8.41271" stroke-width="0.5" stroke="black" fill="green"/>
  <circle cx="433.471" cy="533.438" r="5.05167" stroke-width="0.5" stroke="black" fill="green"/>
   </g>
   <g id="cell29">
  <circle cx="455.653" cy="522.419" r="7.61469" stroke-width="0.5" stroke="black" fill="green"/>
  <circle cx="455.653" cy="522.419" r="4.62762" stroke-width="0.5" stroke="black" fill="green"/>
   </g>
   <g id="cell30">
  <circle cx="481.58" cy="540.282" r="8.41271" stroke-width="0.5" stroke="black" fill="green"/>
  <circle cx="481.58" cy="540.282" r="5.05167" stroke-width="0.5" stroke="black" fill="green"/>
   </g>
   <g id="cell31">
  <circle cx="412.475" cy="540.076" r="8.41271" stroke-width="0.5" stroke="black" fill="green"/>
  <circle cx="412.475" cy="540.076" r="5.05167" stroke-width="0.5" stroke="black" fill="green"/>
   </g>
   <g id="cell32">
  <circle cx="428.279" cy="471.105" r="7.72056" stroke-width="0.5" stroke="black" fill="green"/>
  <circle cx="428.279" cy="471.105" r="4.69003" stroke-width="0.5" stroke="black" fill="green"/>
   </g>
   <g id="cell33">
  <circle cx="498.753" cy="413.433" r="7.81315" stroke-width="0.5" stroke="black" fill="green"/>
  <circle cx="498.753" cy="413.433" r="4.74367" stroke-width="0.5" stroke="black" fill="green"/>
   </g>
   <g id="cell34">
  <circle cx="392.088" cy="453.215" r="7.65871" stroke-width="0.5" stroke="black" fill="green"/>
  <circle cx="392.088" cy="453.215" r="4.6537" stroke-width="0.5" stroke="black" fill="green"/>
   </g>
   <g id="cell35">
  <circle cx="546.928" cy="545.003" r="8.41271" stroke-width="0.5" stroke="black" fill="green"/>
  <circle cx="546.928" cy="545.003" r="5.05167" stroke-width="0.5" stroke="black" fill="green"/>
   </g>
   <g id="cell36">
  <circle cx="390.988" cy="584.968" r="8.41271" stroke-width="0.5" stroke="black" fill="green"/>
  <circle cx="390.988" cy="584.968" r="5.05167" stroke-width="0.5" stroke="black" fill="green"/>
   </g>
   <g id="cell37">
  <circle cx="634.871" cy="460.618" r="8.41271" stroke-width="0.5" stroke="black" fill="green"/>
  <circle cx="634.871" cy="460.618" r="5.05167" stroke-width="0.5" stroke="black" fill="green"/>
   </g>
   <g id="cell38">
  <circle cx="532.376" cy="602.793" r="7.24243" stroke-width="0.5" stroke="black" fill="green"/>
  <circle cx="532.376" cy="602.793" r="4.39934" stroke-width="0.5" stroke="black" fill="green"/>
   </g>
   <g id="cell39">
  <circle cx="617.385" cy="494.287" r="8.13008" stroke-width="0.5" stroke="black" fill="green"/>
  <circle cx="617.385" cy="494.287" r="4.91894" stroke-width="0.5" stroke="black" fill="green"/>
   </g>
   <g id="cell40">
  <circle cx="485.348" cy="571.779" r="8.41271" stroke-width="0.5" stroke="black" fill="green"/>
  <circle cx="485.348" cy="571.779" r="5.05167" stroke-width="0.5" stroke="black" fill="green"/>
   </g>
   <g id="cell41">
  <circle cx="364.158" cy="480.273" r="8.41271" stroke-width="0.5" stroke="black" fill="green"/>
  <circle cx="364.158" cy="480.273" r="5.05167" stroke-width="0.5" stroke="black" fill="green"/>
   </g>
   <g id="cell42">
  <circle cx="451.697" cy="488.285" r="7.37477" stroke-width="0.5" stroke="black" fill="green"/>
  <circle cx="451.697" cy="488.285" r="4.50686" stroke-width="0.5" stroke="black" fill="green"/>
   </g>
   <g id="cell43">
  <circle cx="558.009" cy="445.56" r="8.41271" stroke-width="0.5" stroke="black" fill="green"/>
  <circle cx="558.009" cy="445.56" r="5.05167" stroke-width="0.5" stroke="black" fill="green"/>
   </g>
   <g id="cell44">
  <circle cx="475.674" cy="628.697" r="7.59183" stroke-width="0.5" stroke="black" fill="green"/>
  <circle cx="475.674" cy="628.697" r="4.61399" stroke-width="0.5" stroke="black" fill="green"/>
   </g>
   <g id="cell45">
  <circle cx="416.079" cy="553.507" r="6.69288" stroke-width="0.5" stroke="black" fill="green"/>
  <circle cx="416.079" cy="553.507" r="4.02051" stroke-width="0.5" stroke="black" fill="green"/>
   </g>
   <g id="cell46">
  <circle cx="521.017" cy="612.311" r="8.41271" stroke-width="0.5" stroke="black" fill="green"/>
  <circle cx="521.017" cy="612.311" r="5.05167" stroke-width="0.5" stroke="black" fill="green"/>
   </g>
   <g id="cell47">
  <circle cx="504.585" cy="510.07" r="8.41271" stroke-width="0.5" stroke="black" fill="green"/>
  <circle cx="504.585" cy="510.07" r="5.05167" stroke-width="0.5" stroke="black" fill="green"/>
   </g>
   <g id="cell48">
  <circle cx="564.548" cy="602.757" r="8.41271" stroke-width="0.5" stroke="black" fill="green"/>
  <circle cx="564.548" cy="602.757" r="5.05167" stroke-width="0.5" stroke="black" fill="green"/>
   </g>
   <g id="cell49">
  <circle cx="429.826" cy="397.641" r="8.41271" stroke-width="0.5" stroke="black" fill="green"/>
  <circle cx="429.826" cy="397.641" r="5.05167" stroke-width="0.5" stroke="black" fill="green"/>
   </g>
   <g id="cell50">
  <circle cx="518.747" cy="517.243" r="8.41271" stroke-width="0.5" stroke="black" fill="cyan"/>
  <circle cx="518.747" cy="517.243" r="5.05167" stroke-width="0.5" stroke="black" fill="cyan"/>
   </g>
   <g id="cell51">
  <circle cx="399.475" cy="598.506" r="8.41271" stroke-width="0.5" stroke="black" fill="cyan"/>
  <circle cx="399.475" cy="598.506" r="5.05167" stroke-width="0.5" stroke="black" fill="cyan"/>
   </g>
   <g id="cell52">
  <circle cx="524.493" cy="425.725" r="3.04602" stroke-width="0.5" stroke="black" fill="cyan"/>
  <circle cx="524.493" cy="425.725" r="2.48703" stroke-width="0.5" stroke="black" fill="black"/>
   </g>
   <g id="cell53">
  <circle cx="571.001" cy="436.215" r="8.41271" stroke-width="0.5" stroke="black" fill="cyan"/>
  <circle cx="571.001" cy="436.215" r="5.05167" stroke-width="0.5" stroke="black" fill="cyan"/>
   </g>
   <g id="cell54">
  <circle cx="479.22" cy="427.587" r="8.41271" stroke-width="0.5" stroke="black" fill="cyan"/>
  <circle cx="479.22" cy="427.587" r="5.05167" stroke-width="0.5" stroke="black" fill="cyan"/>
   </g>
   <g id="cell55">
  <circle cx="526.894" cy="470.886" r="8.41271" stroke-width="0.5" stroke="black" fill="cyan"/>
  <circle cx="526.894" cy="470.886" r="5.05167" stroke-width="0.5" stroke="black" fill="cyan"/>
   </g>
   <g id="cell56">
  <circle cx="617.753" cy="522.291" r="8.41271" stroke-width="0.5" stroke="black" fill="cyan"/>
  <circle cx="617.753" cy="522.291" r="5.05167" stroke-width="0.5" stroke="black" fill="cyan"/>
   </g>
   <g id="cell57">
  <circle cx="416.924" cy="617.466" r="8.41271" stroke-width="0.5" stroke="black" fill="cyan"/>
  <circle cx="416.924" cy="617.466" r="5.05167" stroke-width="0.5" stroke="black" fill="cyan"/>
   </g>
   <g id="cell58">
  <circle cx="554.177" cy="481.359" r="8.41271" stroke-width="0.5" stroke="black" fill="cyan"/>
  <circle cx="554.177" cy="481.359" r="5.05167" stroke-width="0.5" stroke="black" fill="cyan"/>
   </g>
   <g id="cell59">
  <circle cx="385.321" cy="439.516" r="8.41271" stroke-width="0.5" stroke="black" fill="cyan"/>
  <circle cx="385.321" cy="439.516" r="5.05167" stroke-width="0.5" stroke="black" fill="cyan"/>
   </g>
   <g id="cell60">
  <circle cx="593.566" cy="474.291" r="8.41271" stroke-width="0.5" stroke="black" fill="cyan"/>
  <circle cx="593.566" cy="474.291" r="5.05167" stroke-width="0.5" stroke="black" fill="cyan"/>
   </g>
   <g id="cell61">
  <circle cx="552.736" cy="613.554" r="8.41271" stroke-width="0.5" stroke="black" fill="cyan"/>
  <circle cx="552.736" cy="613.554" r="5.05167" stroke-width="0.5" stroke="black" fill="cyan"/>
   </g>
   <g id="cell62">
  <circle cx="526.213" cy="443.729" r="8.41271" stroke-width="0.5" stroke="black" fill="cyan"/>
  <circle cx="526.213" cy="443.729" r="5.05167" stroke-width="0.5" stroke="black" fill="cyan"/>
   </g>
   <g id="cell63">
  <circle cx="579.067" cy="551.168" r="7.24243" stroke-width="0.5" stroke="black" fill="cyan"/>
  <circle cx="579.067" cy="551.168" r="4.39934" stroke-width="0.5" stroke="black" fill="cyan"/>
   </g>
   <g id="cell64">
  <circle cx="509.962" cy="636.825" r="8.41271" stroke-width="0.5" stroke="black" fill="cyan"/>
  <circle cx="509.962" cy="636.825" r="5.05167" stroke-width="0.5" stroke="black" fill="cyan"/>
   </g>
   <g id="cell65">
  <circle cx="536.648" cy="459.839" r="7.18097" stroke-width="0.5" stroke="black" fill="cyan"/>
  <circle cx="536.648" cy="459.839" r="4.36015" stroke-width="0.5" stroke="black" fill="cyan"/>
   </g>
   <g id="cell66">
  <circle cx="536.378" cy="528.769" r="8.41271" stroke-width="0.5" stroke="black" fill="cyan"/>
  <circle cx="536.378" cy="528.769" r="5.05167" stroke-width="0.5" stroke="black" fill="cyan"/>
   </g>
   <g id="cell67">
  <circle cx="354.395" cy="492.983" r="8.41271" stroke-width="0.5" stroke="black" fill="cyan"/>
  <circle cx="354.395" cy="492.983" r="5.05167" stroke-width="0.5" stroke="black" fill="cyan"/>
   </g>
   <g id="cell68">
  <circle cx="562.277" cy="550.063" r="8.41271" stroke-width="0.5" stroke="black" fill="cyan"/>
  <circle cx="562.277" cy="550.063" r="5.05167" stroke-width="0.5" stroke="black" fill="cyan"/>
   </g>
   <g id="cell69">
  <circle cx="435.916" cy="458.112" r="8.1947" stroke-width="0.5" stroke="black" fill="cyan"/>
  <circle cx="435.916" cy="458.112" r="4.95246" stroke-width="0.5" stroke="black" fill="cyan"/>
   </g>
   <g id="cell70">
  <circle cx="577.645" cy="473.724" r="8.41271" stroke-width="0.5" stroke="black" fill="cyan"/>
  <circle cx="577.645" cy="473.724" r="5.05167" stroke-width="0.5" stroke="black" fill="cyan"/>
   </g>
   <g id="cell71">
  <circle cx="377.712" cy="520.989" r="8.41271" stroke-width="0.5" stroke="black" fill="cyan"/>
  <circle cx="377.712" cy="520.989" r="5.05167" stroke-width="0.5" stroke="black" fill="cyan"/>
   </g>
   <g id="cell72">
  <circle cx="534.037" cy="512.896" r="8.41271" stroke-width="0.5" stroke="black" fill="cyan"/>
  <circle cx="534.037" cy="512.896" r="5.05167" stroke-width="0.5" stroke="black" fill="cyan"/>
   </g>
   <g id="cell73">
  <circle cx="360.789" cy="545.948" r="8.41271" stroke-width="0.5" stroke="black" fill="cyan"/>
  <circle cx="360.789" cy="545.948" r="5.05167" stroke-width="0.5" stroke="black" fill="cyan"/>
   </g>
   <g id="cell74">
  <circle cx="542.047" cy="446.183" r="8.41271" stroke-width="0.5" stroke="black" fill="cyan"/>
  <circle cx="542.047" cy="446.183" r="5.05167" stroke-width="0.5" stroke="black" fill="cyan"/>
   </g>
   <g id="cell75">
  <circle cx="443.362" cy="471.879" r="8.1947" stroke-width="0.5" stroke="black" fill="cyan"/>
  <circle cx="443.362" cy="471.879" r="4.95246" stroke-width="0.5" stroke="black" fill="cyan"/>
   </g>
   <g id="cell76">
  <circle cx="524.608" cy="387.589" r="6.89562" stroke-width="0.5" stroke="black" fill="magenta"/>
  <circle cx="524.608" cy="387.589" r="4.20405" stroke-width="0.5" stroke="black" fill="magenta"/>
   </g>
   <g id="cell77">
  <circle cx="487.54" cy="440.568" r="8.17502" stroke-width="0.5" stroke="black" fill="magenta"/>
  <circle cx="487.54" cy="440.568" r="4.94236" stroke-width="0.5" stroke="black" fill="magenta"/>
   </g>
   <g id="cell78">
  <circle cx="374.084" cy="468.558" r="8.1609" stroke-width="0.5" stroke="black" fill="magenta"/>
  <circle cx="374.084" cy="468.558" r="4.93506" stroke-width="0.5" stroke="black" fill="magenta"/>
   </g>
   <g id="cell79">
  <circle cx="507.457" cy="527.462" r="8.14594" stroke-width="0.5" stroke="black" fill="magenta"/>
  <circle cx="507.457" cy="527.462" r="4.92726" stroke-width="0.5" stroke="black" fill="magenta"/>
   </g>
   <g id="cell80">
  <circle cx="606.071" cy="483.774" r="8.13008" stroke-width="0.5" stroke="black" fill="green"/>
  <circle cx="606.071" cy="483.774" r="4.91894" stroke-width="0.5" stroke="black" fill="green"/>
   </g>
   <g id="cell81">
  <circle cx="425.692" cy="499.828" r="8.09544" stroke-width="0.5" stroke="black" fill="green"/>
  <circle cx="425.692" cy="499.828" r="4.90058" stroke-width="0.5" stroke="black" fill="green"/>
   </g>
   <g id="cell82">
  <circle cx="544.466" cy="494.206" r="8.07654" stroke-width="0.5" stroke="black" fill="magenta"/>
  <circle cx="544.466" cy="494.206" r="4.89046" stroke-width="0.5" stroke="black" fill="magenta"/>
   </g>
   <g id="cell83">
  <circle cx="494.648" cy="427.64" r="7.81315" stroke-width="0.5" stroke="black" fill="green"/>
  <circle cx="494.648" cy="427.64" r="4.74367" stroke-width="0.5" stroke="black" fill="green"/>
   </g>
   <g id="cell84">
  <circle cx="418.217" cy="481.685" r="7.72056" stroke-width="0.5" stroke="black" fill="green"/>
  <circle cx="418.217" cy="481.685" r="4.69003" stroke-width="0.5" stroke="black" fill="green"/>
   </g>
   <g id="cell85">
  <circle cx="405.43" cy="447.429" r="7.65871" stroke-width="0.5" stroke="black" fill="green"/>
  <circle cx="405.43" cy="447.429" r="4.6537" stroke-width="0.5" stroke="black" fill="green"/>
   </g>
   <g id="cell86">
  <circle cx="391.082" cy="570.111" r="7.65871" stroke-width="0.5" stroke="black" fill="magenta"/>
  <circle cx="391.082" cy="570.111" r="4.6537" stroke-width="0.5" stroke="black" fill="magenta"/>
   </g>
   <g id="cell87">
  <circle cx="441.49" cy="520.696" r="7.61469" stroke-width="0.5" stroke="black" fill="green"/>
  <circle cx="441.49" cy="520.696" r="4.62762" stroke-width="0.5" stroke="black" fill="green"/>
   </g>
   <g id="cell88">
  <circle cx="479.04" cy="614.697" r="7.59183" stroke-width="0.5" stroke="black" fill="green"/>
  <circle cx="479.04" cy="614.697" r="4.61399" stroke-width="0.5" stroke="black" fill="green"/>
   </g>
   <g id="cell89">
  <circle cx="439.242" cy="494.416" r="7.37477" stroke-width="0.5" stroke="black" fill="green"/>
  <circle cx="439.242" cy="494.416" r="4.50686" stroke-width="0.5" stroke="black" fill="green"/>
   </g>
   <g id="cell90">
  <circle cx="590.263" cy="503.12" r="7.51976" stroke-width="0.5" stroke="black" fill="magenta"/>
  <circle cx="590.263" cy="503.12" r="4.57072" stroke-width="0.5" stroke="black" fill="magenta"/>
   </g>
   <g id="cell91">
  <circle cx="452.188" cy="597.385" r="7.46878" stroke-width="0.5" stroke="black" fill="magenta"/>
  <circle cx="452.188" cy="597.385" r="4.53982" stroke-width="0.5" stroke="black" fill="magenta"/>
   </g>
   <g id="cell92">
  <circle cx="545.395" cy="598.513" r="7.24243" stroke-width="0.5" stroke="black" fill="green"/>
  <circle cx="545.395" cy="598.513" r="4.39934" stroke-width="0.5" stroke="black" fill="green"/>
   </g>
   <g id="cell93">
  <circle cx="572.415" cy="539.178" r="7.24243" stroke-width="0.5" stroke="black" fill="cyan"/>
  <circle cx="572.415" cy="539.178" r="4.39934" stroke-width="0.5" stroke="black" fill="cyan"/>
   </g>
   <g id="cell94">
  <circle cx="546.359" cy="469.085" r="7.18097" stroke-width="0.5" stroke="black" fill="cyan"/>
  <circle cx="546.359" cy="469.085" r="4.36015" stroke-width="0.5" stroke="black" fill="cyan"/>
   </g>
   <g id="cell95">
  <circle cx="460.777" cy="535.083" r="7.18097" stroke-width="0.5" stroke="black" fill="magenta"/>
  <circle cx="460.777" cy="535.083" r="4.36015" stroke-width="0.5" stroke="black" fill="magenta"/>
   </g>
   <g id="cell96">
  <circle cx="533.113" cy="378.635" r="6.89562" stroke-width="0.5" stroke="black" fill="magenta"/>
  <circle cx="533.113" cy="378.635" r="4.20405" stroke-width="0.5" stroke="black" fill="magenta"/>
   </g>
   <g id="cell97">
  <circle cx="566.852" cy="505.161" r="6.68086" stroke-width="0.5" stroke="black" fill="magenta"/>
  <circle cx="566.852" cy="505.161" r="4.07263" stroke-width="0.5" stroke="black" fill="magenta"/>
   </g>
   <g id="cell98">
  <circle cx="413.434" cy="565.567" r="6.69288" stroke-width="0.5" stroke="black" fill="green"/>
  <circle cx="413.434" cy="565.567" r="4.02051" stroke-width="0.5" stroke="black" fill="green"/>
   </g>
   <g id="cell99">
  <circle cx="568.131" cy="493.623" r="6.69288" stroke-width="0.5" stroke="black" fill="magenta"/>
  <circle cx="568.131" cy="493.623" r="4.02051" stroke-width="0.5" stroke="black" fill="magenta"/>
   </g>
  </g>
 </g>
  <rect x="775" y="1035" width="200" height="10" stroke-width="2" stroke="rgb(255,255,255)" fill="rgb(0,0,0)"/>
  <text x="781.25" y="1028.75"
   font-family="Arial" font-size="25" fill="black" >
   200 &#956;m
  </text>
  <text x="25" y="1045"
   font-family="Arial" font-size="18.75" fill="black" >
   0 days, 0 hours, 0 minutes, and 10.5883 seconds
  </text>
  <rect x="0" y="70" width="1000" height="1000" stroke-width="2" stroke="rgb(0,0,0)" fill="none"/>
</svg>
