<?xml version="1.0" encoding="UTF-8" standalone="no"?>
<!-- Created with PhysiCell (http://PhysiCell.MathCancer.org/) -->
<svg 
 xmlns:dc="http://purl.org/dc/elements/1.1/" 
 xmlns:cc="http://creativecommons.org/ns#" 
 xmlns:rdf="http://www.w3.org/1999/02/22-rdf-syntax-ns#" 
 xmlns:svg="http://www.w3.org/2000/svg" 
 xmlns="http://www.w3.org/2000/svg" 
 version="1.1" 
 width="1000" 
 height="1070" 
 id="svg2">
  <rect x="0" y="0" width="1000" height="1070" stroke-width="2" stroke="white" fill="white"/>
  <text x="12.5" y="30"
   font-family="Arial" font-size="25" fill="black" >
   Current time: 0 days, 3 hours, and 0.00 minutes, z = 0.00 &#956;m
  </text>
  <text x="12.5" y="57.5"
   font-family="Arial" font-size="23.75" fill="black" >
   83 agents
  </text>
 <g id="tissue" 
    transform="translate(0,1070) scale(1,-1)">
  <g id="ECM">
  </g>
  <g id="cells">
   <g id="cell0">
  <circle cx="520.29" cy="530.641" r="7.30216" stroke-width="0.5" stroke="black" fill="magenta"/>
  <circle cx="520.29" cy="530.641" r="4.43696" stroke-width="0.5" stroke="black" fill="magenta"/>
   </g>
   <g id="cell1">
  <circle cx="604.131" cy="529.844" r="8.41271" stroke-width="0.5" stroke="black" fill="magenta"/>
  <circle cx="604.131" cy="529.844" r="5.05167" stroke-width="0.5" stroke="black" fill="magenta"/>
   </g>
   <g id="cell2">
  <circle cx="510.885" cy="600.601" r="8.41271" stroke-width="0.5" stroke="black" fill="magenta"/>
  <circle cx="510.885" cy="600.601" r="5.05167" stroke-width="0.5" stroke="black" fill="magenta"/>
   </g>
   <g id="cell3">
  <circle cx="532.372" cy="545.036" r="8.41271" stroke-width="0.5" stroke="black" fill="magenta"/>
  <circle cx="532.372" cy="545.036" r="5.05167" stroke-width="0.5" stroke="black" fill="magenta"/>
   </g>
   <g id="cell4">
  <circle cx="476.311" cy="440.416" r="7.41548" stroke-width="0.5" stroke="black" fill="magenta"/>
  <circle cx="476.311" cy="440.416" r="4.50723" stroke-width="0.5" stroke="black" fill="magenta"/>
   </g>
   <g id="cell5">
  <circle cx="465.029" cy="493.299" r="8.41271" stroke-width="0.5" stroke="black" fill="magenta"/>
  <circle cx="465.029" cy="493.299" r="5.05167" stroke-width="0.5" stroke="black" fill="magenta"/>
   </g>
   <g id="cell6">
  <circle cx="593.836" cy="509.045" r="8.41271" stroke-width="0.5" stroke="black" fill="magenta"/>
  <circle cx="593.836" cy="509.045" r="5.05167" stroke-width="0.5" stroke="black" fill="magenta"/>
   </g>
   <g id="cell7">
  <circle cx="512.359" cy="464.872" r="8.41271" stroke-width="0.5" stroke="black" fill="magenta"/>
  <circle cx="512.359" cy="464.872" r="5.05167" stroke-width="0.5" stroke="black" fill="magenta"/>
   </g>
   <g id="cell8">
  <circle cx="375.891" cy="544.521" r="8.41271" stroke-width="0.5" stroke="black" fill="magenta"/>
  <circle cx="375.891" cy="544.521" r="5.05167" stroke-width="0.5" stroke="black" fill="magenta"/>
   </g>
   <g id="cell9">
  <circle cx="460.472" cy="599.786" r="8.41271" stroke-width="0.5" stroke="black" fill="magenta"/>
  <circle cx="460.472" cy="599.786" r="5.05167" stroke-width="0.5" stroke="black" fill="magenta"/>
   </g>
   <g id="cell10">
  <circle cx="583.447" cy="392.105" r="8.41271" stroke-width="0.5" stroke="black" fill="magenta"/>
  <circle cx="583.447" cy="392.105" r="5.05167" stroke-width="0.5" stroke="black" fill="magenta"/>
   </g>
   <g id="cell11">
  <circle cx="589.748" cy="590.273" r="8.41271" stroke-width="0.5" stroke="black" fill="magenta"/>
  <circle cx="589.748" cy="590.273" r="5.05167" stroke-width="0.5" stroke="black" fill="magenta"/>
   </g>
   <g id="cell12">
  <circle cx="506.664" cy="586.058" r="8.41271" stroke-width="0.5" stroke="black" fill="magenta"/>
  <circle cx="506.664" cy="586.058" r="5.05167" stroke-width="0.5" stroke="black" fill="magenta"/>
   </g>
   <g id="cell13">
  <circle cx="386.193" cy="568.225" r="8.41271" stroke-width="0.5" stroke="black" fill="magenta"/>
  <circle cx="386.193" cy="568.225" r="5.05167" stroke-width="0.5" stroke="black" fill="magenta"/>
   </g>
   <g id="cell14">
  <circle cx="529.247" cy="400.108" r="8.41271" stroke-width="0.5" stroke="black" fill="magenta"/>
  <circle cx="529.247" cy="400.108" r="5.05167" stroke-width="0.5" stroke="black" fill="magenta"/>
   </g>
   <g id="cell15">
  <circle cx="384.874" cy="477.577" r="7.3599" stroke-width="0.5" stroke="black" fill="magenta"/>
  <circle cx="384.874" cy="477.577" r="4.47294" stroke-width="0.5" stroke="black" fill="magenta"/>
   </g>
   <g id="cell16">
  <circle cx="428.96" cy="413.217" r="8.41271" stroke-width="0.5" stroke="black" fill="magenta"/>
  <circle cx="428.96" cy="413.217" r="5.05167" stroke-width="0.5" stroke="black" fill="magenta"/>
   </g>
   <g id="cell17">
  <circle cx="572.815" cy="489.784" r="8.41271" stroke-width="0.5" stroke="black" fill="magenta"/>
  <circle cx="572.815" cy="489.784" r="5.05167" stroke-width="0.5" stroke="black" fill="magenta"/>
   </g>
   <g id="cell18">
  <circle cx="512.227" cy="389.235" r="7.46878" stroke-width="0.5" stroke="black" fill="magenta"/>
  <circle cx="512.227" cy="389.235" r="4.53982" stroke-width="0.5" stroke="black" fill="magenta"/>
   </g>
   <g id="cell19">
  <circle cx="451.951" cy="536.844" r="8.41271" stroke-width="0.5" stroke="black" fill="magenta"/>
  <circle cx="451.951" cy="536.844" r="5.05167" stroke-width="0.5" stroke="black" fill="magenta"/>
   </g>
   <g id="cell20">
  <circle cx="531.002" cy="415.166" r="8.41271" stroke-width="0.5" stroke="black" fill="magenta"/>
  <circle cx="531.002" cy="415.166" r="5.05167" stroke-width="0.5" stroke="black" fill="magenta"/>
   </g>
   <g id="cell21">
  <circle cx="464.368" cy="634.574" r="8.41271" stroke-width="0.5" stroke="black" fill="magenta"/>
  <circle cx="464.368" cy="634.574" r="5.05167" stroke-width="0.5" stroke="black" fill="magenta"/>
   </g>
   <g id="cell22">
  <circle cx="559.265" cy="492.732" r="7.0545" stroke-width="0.5" stroke="black" fill="magenta"/>
  <circle cx="559.265" cy="492.732" r="4.27772" stroke-width="0.5" stroke="black" fill="magenta"/>
   </g>
   <g id="cell23">
  <circle cx="537.609" cy="481.944" r="8.41271" stroke-width="0.5" stroke="black" fill="magenta"/>
  <circle cx="537.609" cy="481.944" r="5.05167" stroke-width="0.5" stroke="black" fill="magenta"/>
   </g>
   <g id="cell24">
  <circle cx="559.288" cy="379.787" r="8.41271" stroke-width="0.5" stroke="black" fill="magenta"/>
  <circle cx="559.288" cy="379.787" r="5.05167" stroke-width="0.5" stroke="black" fill="magenta"/>
   </g>
   <g id="cell25">
  <circle cx="640.943" cy="550.03" r="8.41271" stroke-width="0.5" stroke="black" fill="green"/>
  <circle cx="640.943" cy="550.03" r="5.05167" stroke-width="0.5" stroke="black" fill="green"/>
   </g>
   <g id="cell26">
  <circle cx="550.745" cy="401.235" r="8.41271" stroke-width="0.5" stroke="black" fill="green"/>
  <circle cx="550.745" cy="401.235" r="5.05167" stroke-width="0.5" stroke="black" fill="green"/>
   </g>
   <g id="cell27">
  <circle cx="457.446" cy="388.678" r="8.41271" stroke-width="0.5" stroke="black" fill="green"/>
  <circle cx="457.446" cy="388.678" r="5.05167" stroke-width="0.5" stroke="black" fill="green"/>
   </g>
   <g id="cell28">
  <circle cx="437.592" cy="530.975" r="8.41271" stroke-width="0.5" stroke="black" fill="green"/>
  <circle cx="437.592" cy="530.975" r="5.05167" stroke-width="0.5" stroke="black" fill="green"/>
   </g>
   <g id="cell29">
  <circle cx="449.866" cy="520.896" r="8.41271" stroke-width="0.5" stroke="black" fill="green"/>
  <circle cx="449.866" cy="520.896" r="5.05167" stroke-width="0.5" stroke="black" fill="green"/>
   </g>
   <g id="cell30">
  <circle cx="481.58" cy="540.282" r="8.41271" stroke-width="0.5" stroke="black" fill="green"/>
  <circle cx="481.58" cy="540.282" r="5.05167" stroke-width="0.5" stroke="black" fill="green"/>
   </g>
   <g id="cell31">
  <circle cx="412.757" cy="541.193" r="8.41271" stroke-width="0.5" stroke="black" fill="green"/>
  <circle cx="412.757" cy="541.193" r="5.05167" stroke-width="0.5" stroke="black" fill="green"/>
   </g>
   <g id="cell32">
  <circle cx="426.346" cy="473.787" r="8.41271" stroke-width="0.5" stroke="black" fill="green"/>
  <circle cx="426.346" cy="473.787" r="5.05167" stroke-width="0.5" stroke="black" fill="green"/>
   </g>
   <g id="cell33">
  <circle cx="494.738" cy="423.099" r="8.41271" stroke-width="0.5" stroke="black" fill="green"/>
  <circle cx="494.738" cy="423.099" r="5.05167" stroke-width="0.5" stroke="black" fill="green"/>
   </g>
   <g id="cell34">
  <circle cx="397.088" cy="450.831" r="8.41271" stroke-width="0.5" stroke="black" fill="green"/>
  <circle cx="397.088" cy="450.831" r="5.05167" stroke-width="0.5" stroke="black" fill="green"/>
   </g>
   <g id="cell35">
  <circle cx="548.107" cy="544.87" r="8.41271" stroke-width="0.5" stroke="black" fill="green"/>
  <circle cx="548.107" cy="544.87" r="5.05167" stroke-width="0.5" stroke="black" fill="green"/>
   </g>
   <g id="cell36">
  <circle cx="391.485" cy="582.902" r="8.41271" stroke-width="0.5" stroke="black" fill="green"/>
  <circle cx="391.485" cy="582.902" r="5.05167" stroke-width="0.5" stroke="black" fill="green"/>
   </g>
   <g id="cell37">
  <circle cx="634.871" cy="460.618" r="8.41271" stroke-width="0.5" stroke="black" fill="green"/>
  <circle cx="634.871" cy="460.618" r="5.05167" stroke-width="0.5" stroke="black" fill="green"/>
   </g>
   <g id="cell38">
  <circle cx="536.147" cy="601.893" r="8.41271" stroke-width="0.5" stroke="black" fill="green"/>
  <circle cx="536.147" cy="601.893" r="5.05167" stroke-width="0.5" stroke="black" fill="green"/>
   </g>
   <g id="cell39">
  <circle cx="617.062" cy="493.988" r="7.24243" stroke-width="0.5" stroke="black" fill="green"/>
  <circle cx="617.062" cy="493.988" r="4.39934" stroke-width="0.5" stroke="black" fill="green"/>
   </g>
   <g id="cell40">
  <circle cx="485.348" cy="571.779" r="8.41271" stroke-width="0.5" stroke="black" fill="green"/>
  <circle cx="485.348" cy="571.779" r="5.05167" stroke-width="0.5" stroke="black" fill="green"/>
   </g>
   <g id="cell41">
  <circle cx="364.086" cy="480.002" r="8.41271" stroke-width="0.5" stroke="black" fill="green"/>
  <circle cx="364.086" cy="480.002" r="5.05167" stroke-width="0.5" stroke="black" fill="green"/>
   </g>
   <g id="cell42">
  <circle cx="444.011" cy="492.028" r="7.11815" stroke-width="0.5" stroke="black" fill="green"/>
  <circle cx="444.011" cy="492.028" r="4.31954" stroke-width="0.5" stroke="black" fill="green"/>
   </g>
   <g id="cell43">
  <circle cx="558.063" cy="445.594" r="8.41271" stroke-width="0.5" stroke="black" fill="green"/>
  <circle cx="558.063" cy="445.594" r="5.05167" stroke-width="0.5" stroke="black" fill="green"/>
   </g>
   <g id="cell44">
  <circle cx="475.857" cy="624.021" r="8.41271" stroke-width="0.5" stroke="black" fill="green"/>
  <circle cx="475.857" cy="624.021" r="5.05167" stroke-width="0.5" stroke="black" fill="green"/>
   </g>
   <g id="cell45">
  <circle cx="414.953" cy="557.066" r="8.41271" stroke-width="0.5" stroke="black" fill="green"/>
  <circle cx="414.953" cy="557.066" r="5.05167" stroke-width="0.5" stroke="black" fill="green"/>
   </g>
   <g id="cell46">
  <circle cx="522.766" cy="610.71" r="8.41271" stroke-width="0.5" stroke="black" fill="green"/>
  <circle cx="522.766" cy="610.71" r="5.05167" stroke-width="0.5" stroke="black" fill="green"/>
   </g>
   <g id="cell47">
  <circle cx="504.109" cy="507.748" r="8.41271" stroke-width="0.5" stroke="black" fill="green"/>
  <circle cx="504.109" cy="507.748" r="5.05167" stroke-width="0.5" stroke="black" fill="green"/>
   </g>
   <g id="cell48">
  <circle cx="564.511" cy="602.792" r="8.41271" stroke-width="0.5" stroke="black" fill="green"/>
  <circle cx="564.511" cy="602.792" r="5.05167" stroke-width="0.5" stroke="black" fill="green"/>
   </g>
   <g id="cell49">
  <circle cx="429.826" cy="397.641" r="8.41271" stroke-width="0.5" stroke="black" fill="green"/>
  <circle cx="429.826" cy="397.641" r="5.05167" stroke-width="0.5" stroke="black" fill="green"/>
   </g>
   <g id="cell50">
  <circle cx="517.746" cy="516.269" r="8.41271" stroke-width="0.5" stroke="black" fill="cyan"/>
  <circle cx="517.746" cy="516.269" r="5.05167" stroke-width="0.5" stroke="black" fill="cyan"/>
   </g>
   <g id="cell51">
  <circle cx="398.722" cy="597.204" r="8.41271" stroke-width="0.5" stroke="black" fill="cyan"/>
  <circle cx="398.722" cy="597.204" r="5.05167" stroke-width="0.5" stroke="black" fill="cyan"/>
   </g>
   <g id="cell52">
  <circle cx="522.796" cy="428.45" r="8.41271" stroke-width="0.5" stroke="black" fill="cyan"/>
  <circle cx="522.796" cy="428.45" r="5.05167" stroke-width="0.5" stroke="black" fill="cyan"/>
   </g>
   <g id="cell53">
  <circle cx="571.06" cy="436.173" r="8.41271" stroke-width="0.5" stroke="black" fill="cyan"/>
  <circle cx="571.06" cy="436.173" r="5.05167" stroke-width="0.5" stroke="black" fill="cyan"/>
   </g>
   <g id="cell54">
  <circle cx="478.95" cy="425.963" r="8.41271" stroke-width="0.5" stroke="black" fill="cyan"/>
  <circle cx="478.95" cy="425.963" r="5.05167" stroke-width="0.5" stroke="black" fill="cyan"/>
   </g>
   <g id="cell55">
  <circle cx="526.941" cy="470.533" r="8.41271" stroke-width="0.5" stroke="black" fill="cyan"/>
  <circle cx="526.941" cy="470.533" r="5.05167" stroke-width="0.5" stroke="black" fill="cyan"/>
   </g>
   <g id="cell56">
  <circle cx="617.775" cy="522.284" r="8.41271" stroke-width="0.5" stroke="black" fill="cyan"/>
  <circle cx="617.775" cy="522.284" r="5.05167" stroke-width="0.5" stroke="black" fill="cyan"/>
   </g>
   <g id="cell57">
  <circle cx="416.924" cy="617.466" r="8.41271" stroke-width="0.5" stroke="black" fill="cyan"/>
  <circle cx="416.924" cy="617.466" r="5.05167" stroke-width="0.5" stroke="black" fill="cyan"/>
   </g>
   <g id="cell58">
  <circle cx="553.113" cy="479.666" r="8.41271" stroke-width="0.5" stroke="black" fill="cyan"/>
  <circle cx="553.113" cy="479.666" r="5.05167" stroke-width="0.5" stroke="black" fill="cyan"/>
   </g>
   <g id="cell59">
  <circle cx="385.463" cy="439.803" r="8.41271" stroke-width="0.5" stroke="black" fill="cyan"/>
  <circle cx="385.463" cy="439.803" r="5.05167" stroke-width="0.5" stroke="black" fill="cyan"/>
   </g>
   <g id="cell60">
  <circle cx="593.279" cy="473.788" r="8.41271" stroke-width="0.5" stroke="black" fill="cyan"/>
  <circle cx="593.279" cy="473.788" r="5.05167" stroke-width="0.5" stroke="black" fill="cyan"/>
   </g>
   <g id="cell61">
  <circle cx="553.001" cy="613.941" r="8.41271" stroke-width="0.5" stroke="black" fill="cyan"/>
  <circle cx="553.001" cy="613.941" r="5.05167" stroke-width="0.5" stroke="black" fill="cyan"/>
   </g>
   <g id="cell62">
  <circle cx="526.104" cy="444.151" r="8.41271" stroke-width="0.5" stroke="black" fill="cyan"/>
  <circle cx="526.104" cy="444.151" r="5.05167" stroke-width="0.5" stroke="black" fill="cyan"/>
   </g>
   <g id="cell63">
  <circle cx="577.841" cy="546.429" r="8.41271" stroke-width="0.5" stroke="black" fill="cyan"/>
  <circle cx="577.841" cy="546.429" r="5.05167" stroke-width="0.5" stroke="black" fill="cyan"/>
   </g>
   <g id="cell64">
  <circle cx="509.962" cy="636.825" r="8.41271" stroke-width="0.5" stroke="black" fill="cyan"/>
  <circle cx="509.962" cy="636.825" r="5.05167" stroke-width="0.5" stroke="black" fill="cyan"/>
   </g>
   <g id="cell65">
  <circle cx="542.719" cy="467.291" r="8.41271" stroke-width="0.5" stroke="black" fill="cyan"/>
  <circle cx="542.719" cy="467.291" r="5.05167" stroke-width="0.5" stroke="black" fill="cyan"/>
   </g>
   <g id="cell66">
  <circle cx="534.706" cy="529.736" r="8.41271" stroke-width="0.5" stroke="black" fill="cyan"/>
  <circle cx="534.706" cy="529.736" r="5.05167" stroke-width="0.5" stroke="black" fill="cyan"/>
   </g>
   <g id="cell67">
  <circle cx="354.519" cy="492.817" r="8.41271" stroke-width="0.5" stroke="black" fill="cyan"/>
  <circle cx="354.519" cy="492.817" r="5.05167" stroke-width="0.5" stroke="black" fill="cyan"/>
   </g>
   <g id="cell68">
  <circle cx="562.69" cy="551.724" r="8.41271" stroke-width="0.5" stroke="black" fill="cyan"/>
  <circle cx="562.69" cy="551.724" r="5.05167" stroke-width="0.5" stroke="black" fill="cyan"/>
   </g>
   <g id="cell69">
  <circle cx="433.758" cy="460.584" r="7.49456" stroke-width="0.5" stroke="black" fill="cyan"/>
  <circle cx="433.758" cy="460.584" r="4.55548" stroke-width="0.5" stroke="black" fill="cyan"/>
   </g>
   <g id="cell70">
  <circle cx="577.263" cy="474.852" r="8.41271" stroke-width="0.5" stroke="black" fill="cyan"/>
  <circle cx="577.263" cy="474.852" r="5.05167" stroke-width="0.5" stroke="black" fill="cyan"/>
   </g>
   <g id="cell71">
  <circle cx="377.712" cy="520.989" r="8.41271" stroke-width="0.5" stroke="black" fill="cyan"/>
  <circle cx="377.712" cy="520.989" r="5.05167" stroke-width="0.5" stroke="black" fill="cyan"/>
   </g>
   <g id="cell72">
  <circle cx="533.912" cy="513.822" r="8.41271" stroke-width="0.5" stroke="black" fill="cyan"/>
  <circle cx="533.912" cy="513.822" r="5.05167" stroke-width="0.5" stroke="black" fill="cyan"/>
   </g>
   <g id="cell73">
  <circle cx="360.355" cy="545.935" r="8.41271" stroke-width="0.5" stroke="black" fill="cyan"/>
  <circle cx="360.355" cy="545.935" r="5.05167" stroke-width="0.5" stroke="black" fill="cyan"/>
   </g>
   <g id="cell74">
  <circle cx="542.011" cy="446.405" r="8.41271" stroke-width="0.5" stroke="black" fill="cyan"/>
  <circle cx="542.011" cy="446.405" r="5.05167" stroke-width="0.5" stroke="black" fill="cyan"/>
   </g>
   <g id="cell75">
  <circle cx="441.438" cy="472.565" r="7.49456" stroke-width="0.5" stroke="black" fill="cyan"/>
  <circle cx="441.438" cy="472.565" r="4.55548" stroke-width="0.5" stroke="black" fill="cyan"/>
   </g>
   <g id="cell76">
  <circle cx="525.31" cy="386.42" r="7.46878" stroke-width="0.5" stroke="black" fill="magenta"/>
  <circle cx="525.31" cy="386.42" r="4.53982" stroke-width="0.5" stroke="black" fill="magenta"/>
   </g>
   <g id="cell77">
  <circle cx="489.079" cy="436.614" r="7.41548" stroke-width="0.5" stroke="black" fill="magenta"/>
  <circle cx="489.079" cy="436.614" r="4.50723" stroke-width="0.5" stroke="black" fill="magenta"/>
   </g>
   <g id="cell78">
  <circle cx="374.332" cy="469.589" r="7.3599" stroke-width="0.5" stroke="black" fill="magenta"/>
  <circle cx="374.332" cy="469.589" r="4.47294" stroke-width="0.5" stroke="black" fill="magenta"/>
   </g>
   <g id="cell79">
  <circle cx="507.416" cy="528.307" r="7.30216" stroke-width="0.5" stroke="black" fill="magenta"/>
  <circle cx="507.416" cy="528.307" r="4.43696" stroke-width="0.5" stroke="black" fill="magenta"/>
   </g>
   <g id="cell80">
  <circle cx="607.02" cy="484.562" r="7.24243" stroke-width="0.5" stroke="black" fill="green"/>
  <circle cx="607.02" cy="484.562" r="4.39934" stroke-width="0.5" stroke="black" fill="green"/>
   </g>
   <g id="cell81">
  <circle cx="431.622" cy="497.4" r="7.11815" stroke-width="0.5" stroke="black" fill="green"/>
  <circle cx="431.622" cy="497.4" r="4.31954" stroke-width="0.5" stroke="black" fill="green"/>
   </g>
   <g id="cell82">
  <circle cx="546.638" cy="492.471" r="7.0545" stroke-width="0.5" stroke="black" fill="magenta"/>
  <circle cx="546.638" cy="492.471" r="4.27772" stroke-width="0.5" stroke="black" fill="magenta"/>
   </g>
  </g>
 </g>
  <rect x="775" y="1035" width="200" height="10" stroke-width="2" stroke="rgb(255,255,255)" fill="rgb(0,0,0)"/>
  <text x="781.25" y="1028.75"
   font-family="Arial" font-size="25" fill="black" >
   200 &#956;m
  </text>
  <text x="25" y="1045"
   font-family="Arial" font-size="18.75" fill="black" >
   0 days, 0 hours, 0 minutes, and 3.9974 seconds
  </text>
  <rect x="0" y="70" width="1000" height="1000" stroke-width="2" stroke="rgb(0,0,0)" fill="none"/>
</svg>
