<?xml version="1.0" encoding="UTF-8" standalone="no"?>
<!-- Created with PhysiCell (http://PhysiCell.MathCancer.org/) -->
<svg 
 xmlns:dc="http://purl.org/dc/elements/1.1/" 
 xmlns:cc="http://creativecommons.org/ns#" 
 xmlns:rdf="http://www.w3.org/1999/02/22-rdf-syntax-ns#" 
 xmlns:svg="http://www.w3.org/2000/svg" 
 xmlns="http://www.w3.org/2000/svg" 
 version="1.1" 
 width="1000" 
 height="1070" 
 id="svg2">
  <rect x="0" y="0" width="1000" height="1070" stroke-width="2" stroke="white" fill="white"/>
  <text x="12.5" y="30"
   font-family="Arial" font-size="25" fill="black" >
   Current time: 0 days, 13 hours, and 0.00 minutes, z = 0.00 &#956;m
  </text>
  <text x="12.5" y="57.5"
   font-family="Arial" font-size="23.75" fill="black" >
   117 agents
  </text>
 <g id="tissue" 
    transform="translate(0,1070) scale(1,-1)">
  <g id="ECM">
  </g>
  <g id="cells">
   <g id="cell0">
  <circle cx="521.143" cy="531.982" r="8.34884" stroke-width="0.5" stroke="black" fill="magenta"/>
  <circle cx="521.143" cy="531.982" r="5.02667" stroke-width="0.5" stroke="black" fill="magenta"/>
   </g>
   <g id="cell1">
  <circle cx="602.61" cy="526.462" r="8.41271" stroke-width="0.5" stroke="black" fill="magenta"/>
  <circle cx="602.61" cy="526.462" r="5.05167" stroke-width="0.5" stroke="black" fill="magenta"/>
   </g>
   <g id="cell2">
  <circle cx="512.151" cy="600.227" r="8.41271" stroke-width="0.5" stroke="black" fill="magenta"/>
  <circle cx="512.151" cy="600.227" r="5.05167" stroke-width="0.5" stroke="black" fill="magenta"/>
   </g>
   <g id="cell3">
  <circle cx="531.247" cy="543.049" r="8.41271" stroke-width="0.5" stroke="black" fill="magenta"/>
  <circle cx="531.247" cy="543.049" r="5.05167" stroke-width="0.5" stroke="black" fill="magenta"/>
   </g>
   <g id="cell4">
  <circle cx="473.416" cy="440.853" r="8.35568" stroke-width="0.5" stroke="black" fill="magenta"/>
  <circle cx="473.416" cy="440.853" r="5.02965" stroke-width="0.5" stroke="black" fill="magenta"/>
   </g>
   <g id="cell5">
  <circle cx="464.635" cy="493.207" r="8.41271" stroke-width="0.5" stroke="black" fill="magenta"/>
  <circle cx="464.635" cy="493.207" r="5.05167" stroke-width="0.5" stroke="black" fill="magenta"/>
   </g>
   <g id="cell6">
  <circle cx="595.706" cy="513.067" r="8.20088" stroke-width="0.5" stroke="black" fill="magenta"/>
  <circle cx="595.706" cy="513.067" r="4.95562" stroke-width="0.5" stroke="black" fill="magenta"/>
   </g>
   <g id="cell7">
  <circle cx="511.522" cy="464.509" r="8.41271" stroke-width="0.5" stroke="black" fill="magenta"/>
  <circle cx="511.522" cy="464.509" r="5.05167" stroke-width="0.5" stroke="black" fill="magenta"/>
   </g>
   <g id="cell8">
  <circle cx="373.605" cy="547.795" r="8.41271" stroke-width="0.5" stroke="black" fill="magenta"/>
  <circle cx="373.605" cy="547.795" r="5.05167" stroke-width="0.5" stroke="black" fill="magenta"/>
   </g>
   <g id="cell9">
  <circle cx="464.638" cy="602.176" r="8.18833" stroke-width="0.5" stroke="black" fill="magenta"/>
  <circle cx="464.638" cy="602.176" r="4.94921" stroke-width="0.5" stroke="black" fill="magenta"/>
   </g>
   <g id="cell10">
  <circle cx="583.447" cy="392.105" r="8.41271" stroke-width="0.5" stroke="black" fill="magenta"/>
  <circle cx="583.447" cy="392.105" r="5.05167" stroke-width="0.5" stroke="black" fill="magenta"/>
   </g>
   <g id="cell11">
  <circle cx="589.748" cy="590.273" r="8.41271" stroke-width="0.5" stroke="black" fill="magenta"/>
  <circle cx="589.748" cy="590.273" r="5.05167" stroke-width="0.5" stroke="black" fill="magenta"/>
   </g>
   <g id="cell12">
  <circle cx="506.676" cy="586.084" r="8.41271" stroke-width="0.5" stroke="black" fill="magenta"/>
  <circle cx="506.676" cy="586.084" r="5.05167" stroke-width="0.5" stroke="black" fill="magenta"/>
   </g>
   <g id="cell13">
  <circle cx="382.412" cy="559.906" r="8.23444" stroke-width="0.5" stroke="black" fill="magenta"/>
  <circle cx="382.412" cy="559.906" r="4.97252" stroke-width="0.5" stroke="black" fill="magenta"/>
   </g>
   <g id="cell14">
  <circle cx="525.129" cy="402.074" r="8.41271" stroke-width="0.5" stroke="black" fill="magenta"/>
  <circle cx="525.129" cy="402.074" r="5.05167" stroke-width="0.5" stroke="black" fill="magenta"/>
   </g>
   <g id="cell15">
  <circle cx="382.809" cy="479.212" r="8.35236" stroke-width="0.5" stroke="black" fill="magenta"/>
  <circle cx="382.809" cy="479.212" r="5.02821" stroke-width="0.5" stroke="black" fill="magenta"/>
   </g>
   <g id="cell16">
  <circle cx="428.96" cy="413.217" r="8.41271" stroke-width="0.5" stroke="black" fill="magenta"/>
  <circle cx="428.96" cy="413.217" r="5.05167" stroke-width="0.5" stroke="black" fill="magenta"/>
   </g>
   <g id="cell17">
  <circle cx="583.457" cy="487.827" r="7.9229" stroke-width="0.5" stroke="black" fill="magenta"/>
  <circle cx="583.457" cy="487.827" r="4.80599" stroke-width="0.5" stroke="black" fill="magenta"/>
   </g>
   <g id="cell18">
  <circle cx="511.809" cy="394.953" r="8.35882" stroke-width="0.5" stroke="black" fill="magenta"/>
  <circle cx="511.809" cy="394.953" r="5.031" stroke-width="0.5" stroke="black" fill="magenta"/>
   </g>
   <g id="cell19">
  <circle cx="447.476" cy="536.445" r="8.11327" stroke-width="0.5" stroke="black" fill="magenta"/>
  <circle cx="447.476" cy="536.445" r="4.91006" stroke-width="0.5" stroke="black" fill="magenta"/>
   </g>
   <g id="cell20">
  <circle cx="528.546" cy="416.826" r="8.41271" stroke-width="0.5" stroke="black" fill="magenta"/>
  <circle cx="528.546" cy="416.826" r="5.05167" stroke-width="0.5" stroke="black" fill="magenta"/>
   </g>
   <g id="cell21">
  <circle cx="469.67" cy="637.622" r="6.95327" stroke-width="0.5" stroke="black" fill="magenta"/>
  <circle cx="469.67" cy="637.622" r="4.25918" stroke-width="0.5" stroke="black" fill="magenta"/>
   </g>
   <g id="cell22">
  <circle cx="557.241" cy="498.401" r="7.99153" stroke-width="0.5" stroke="black" fill="magenta"/>
  <circle cx="557.241" cy="498.401" r="4.85032" stroke-width="0.5" stroke="black" fill="magenta"/>
   </g>
   <g id="cell23">
  <circle cx="538.081" cy="480.682" r="8.41271" stroke-width="0.5" stroke="black" fill="magenta"/>
  <circle cx="538.081" cy="480.682" r="5.05167" stroke-width="0.5" stroke="black" fill="magenta"/>
   </g>
   <g id="cell24">
  <circle cx="559.288" cy="379.787" r="8.41271" stroke-width="0.5" stroke="black" fill="magenta"/>
  <circle cx="559.288" cy="379.787" r="5.05167" stroke-width="0.5" stroke="black" fill="magenta"/>
   </g>
   <g id="cell25">
  <circle cx="646.403" cy="558.598" r="6.65062" stroke-width="0.5" stroke="black" fill="green"/>
  <circle cx="646.403" cy="558.598" r="4.0799" stroke-width="0.5" stroke="black" fill="green"/>
   </g>
   <g id="cell26">
  <circle cx="550.642" cy="401.23" r="8.41271" stroke-width="0.5" stroke="black" fill="green"/>
  <circle cx="550.642" cy="401.23" r="5.05167" stroke-width="0.5" stroke="black" fill="green"/>
   </g>
   <g id="cell27">
  <circle cx="457.446" cy="388.678" r="8.41271" stroke-width="0.5" stroke="black" fill="green"/>
  <circle cx="457.446" cy="388.678" r="5.05167" stroke-width="0.5" stroke="black" fill="green"/>
   </g>
   <g id="cell28">
  <circle cx="432.377" cy="533.799" r="8.41271" stroke-width="0.5" stroke="black" fill="green"/>
  <circle cx="432.377" cy="533.799" r="5.05167" stroke-width="0.5" stroke="black" fill="green"/>
   </g>
   <g id="cell29">
  <circle cx="462.725" cy="520.633" r="6.58557" stroke-width="0.5" stroke="black" fill="green"/>
  <circle cx="462.725" cy="520.633" r="3.98451" stroke-width="0.5" stroke="black" fill="green"/>
   </g>
   <g id="cell30">
  <circle cx="480.071" cy="539.914" r="8.41271" stroke-width="0.5" stroke="black" fill="green"/>
  <circle cx="480.071" cy="539.914" r="5.05167" stroke-width="0.5" stroke="black" fill="green"/>
   </g>
   <g id="cell31">
  <circle cx="411.983" cy="538.449" r="8.41271" stroke-width="0.5" stroke="black" fill="green"/>
  <circle cx="411.983" cy="538.449" r="5.05167" stroke-width="0.5" stroke="black" fill="green"/>
   </g>
   <g id="cell32">
  <circle cx="428.894" cy="468.711" r="8.24914" stroke-width="0.5" stroke="black" fill="green"/>
  <circle cx="428.894" cy="468.711" r="4.97981" stroke-width="0.5" stroke="black" fill="green"/>
   </g>
   <g id="cell33">
  <circle cx="498.764" cy="413.388" r="8.27097" stroke-width="0.5" stroke="black" fill="green"/>
  <circle cx="498.764" cy="413.388" r="4.99048" stroke-width="0.5" stroke="black" fill="green"/>
   </g>
   <g id="cell34">
  <circle cx="391.865" cy="453.63" r="8.23444" stroke-width="0.5" stroke="black" fill="green"/>
  <circle cx="391.865" cy="453.63" r="4.97252" stroke-width="0.5" stroke="black" fill="green"/>
   </g>
   <g id="cell35">
  <circle cx="544.399" cy="549.682" r="7.65871" stroke-width="0.5" stroke="black" fill="green"/>
  <circle cx="544.399" cy="549.682" r="4.6537" stroke-width="0.5" stroke="black" fill="green"/>
   </g>
   <g id="cell36">
  <circle cx="391.336" cy="585.484" r="8.41271" stroke-width="0.5" stroke="black" fill="green"/>
  <circle cx="391.336" cy="585.484" r="5.05167" stroke-width="0.5" stroke="black" fill="green"/>
   </g>
   <g id="cell37">
  <circle cx="634.871" cy="460.618" r="8.41271" stroke-width="0.5" stroke="black" fill="green"/>
  <circle cx="634.871" cy="460.618" r="5.05167" stroke-width="0.5" stroke="black" fill="green"/>
   </g>
   <g id="cell38">
  <circle cx="529.973" cy="601.079" r="8.13008" stroke-width="0.5" stroke="black" fill="green"/>
  <circle cx="529.973" cy="601.079" r="4.91894" stroke-width="0.5" stroke="black" fill="green"/>
   </g>
   <g id="cell39">
  <circle cx="617.82" cy="494.695" r="8.34511" stroke-width="0.5" stroke="black" fill="green"/>
  <circle cx="617.82" cy="494.695" r="5.02502" stroke-width="0.5" stroke="black" fill="green"/>
   </g>
   <g id="cell40">
  <circle cx="485.348" cy="571.779" r="8.41271" stroke-width="0.5" stroke="black" fill="green"/>
  <circle cx="485.348" cy="571.779" r="5.05167" stroke-width="0.5" stroke="black" fill="green"/>
   </g>
   <g id="cell41">
  <circle cx="366.407" cy="480.975" r="8.41271" stroke-width="0.5" stroke="black" fill="green"/>
  <circle cx="366.407" cy="480.975" r="5.05167" stroke-width="0.5" stroke="black" fill="green"/>
   </g>
   <g id="cell42">
  <circle cx="450.398" cy="487.219" r="8.17317" stroke-width="0.5" stroke="black" fill="green"/>
  <circle cx="450.398" cy="487.219" r="4.94573" stroke-width="0.5" stroke="black" fill="green"/>
   </g>
   <g id="cell43">
  <circle cx="558.424" cy="445.713" r="8.41271" stroke-width="0.5" stroke="black" fill="green"/>
  <circle cx="558.424" cy="445.713" r="5.05167" stroke-width="0.5" stroke="black" fill="green"/>
   </g>
   <g id="cell44">
  <circle cx="478.678" cy="626.872" r="8.21839" stroke-width="0.5" stroke="black" fill="green"/>
  <circle cx="478.678" cy="626.872" r="4.96448" stroke-width="0.5" stroke="black" fill="green"/>
   </g>
   <g id="cell45">
  <circle cx="417.034" cy="553.121" r="7.9229" stroke-width="0.5" stroke="black" fill="green"/>
  <circle cx="417.034" cy="553.121" r="4.80599" stroke-width="0.5" stroke="black" fill="green"/>
   </g>
   <g id="cell46">
  <circle cx="520.381" cy="613.413" r="8.41271" stroke-width="0.5" stroke="black" fill="green"/>
  <circle cx="520.381" cy="613.413" r="5.05167" stroke-width="0.5" stroke="black" fill="green"/>
   </g>
   <g id="cell47">
  <circle cx="504.373" cy="511.149" r="8.41271" stroke-width="0.5" stroke="black" fill="green"/>
  <circle cx="504.373" cy="511.149" r="5.05167" stroke-width="0.5" stroke="black" fill="green"/>
   </g>
   <g id="cell48">
  <circle cx="564.234" cy="602.695" r="8.41271" stroke-width="0.5" stroke="black" fill="green"/>
  <circle cx="564.234" cy="602.695" r="5.05167" stroke-width="0.5" stroke="black" fill="green"/>
   </g>
   <g id="cell49">
  <circle cx="429.826" cy="397.641" r="8.41271" stroke-width="0.5" stroke="black" fill="green"/>
  <circle cx="429.826" cy="397.641" r="5.05167" stroke-width="0.5" stroke="black" fill="green"/>
   </g>
   <g id="cell50">
  <circle cx="519.496" cy="516.57" r="8.41271" stroke-width="0.5" stroke="black" fill="cyan"/>
  <circle cx="519.496" cy="516.57" r="5.05167" stroke-width="0.5" stroke="black" fill="cyan"/>
   </g>
   <g id="cell51">
  <circle cx="399.792" cy="599.006" r="8.41271" stroke-width="0.5" stroke="black" fill="cyan"/>
  <circle cx="399.792" cy="599.006" r="5.05167" stroke-width="0.5" stroke="black" fill="cyan"/>
   </g>
   <g id="cell52">
  <circle cx="524.824" cy="424.996" r="1.38109" stroke-width="0.5" stroke="black" fill="cyan"/>
  <circle cx="524.824" cy="424.996" r="1.3695" stroke-width="0.5" stroke="black" fill="black"/>
   </g>
   <g id="cell53">
  <circle cx="571.194" cy="436.073" r="8.41271" stroke-width="0.5" stroke="black" fill="cyan"/>
  <circle cx="571.194" cy="436.073" r="5.05167" stroke-width="0.5" stroke="black" fill="cyan"/>
   </g>
   <g id="cell54">
  <circle cx="477.508" cy="425.784" r="8.41271" stroke-width="0.5" stroke="black" fill="cyan"/>
  <circle cx="477.508" cy="425.784" r="5.05167" stroke-width="0.5" stroke="black" fill="cyan"/>
   </g>
   <g id="cell55">
  <circle cx="525.682" cy="471.112" r="8.41271" stroke-width="0.5" stroke="black" fill="cyan"/>
  <circle cx="525.682" cy="471.112" r="5.05167" stroke-width="0.5" stroke="black" fill="cyan"/>
   </g>
   <g id="cell56">
  <circle cx="617.662" cy="522.319" r="8.41271" stroke-width="0.5" stroke="black" fill="cyan"/>
  <circle cx="617.662" cy="522.319" r="5.05167" stroke-width="0.5" stroke="black" fill="cyan"/>
   </g>
   <g id="cell57">
  <circle cx="416.924" cy="617.466" r="8.41271" stroke-width="0.5" stroke="black" fill="cyan"/>
  <circle cx="416.924" cy="617.466" r="5.05167" stroke-width="0.5" stroke="black" fill="cyan"/>
   </g>
   <g id="cell58">
  <circle cx="553.471" cy="483.616" r="8.41271" stroke-width="0.5" stroke="black" fill="cyan"/>
  <circle cx="553.471" cy="483.616" r="5.05167" stroke-width="0.5" stroke="black" fill="cyan"/>
   </g>
   <g id="cell59">
  <circle cx="385.197" cy="439.253" r="8.41271" stroke-width="0.5" stroke="black" fill="cyan"/>
  <circle cx="385.197" cy="439.253" r="5.05167" stroke-width="0.5" stroke="black" fill="cyan"/>
   </g>
   <g id="cell60">
  <circle cx="592.38" cy="475.724" r="8.41271" stroke-width="0.5" stroke="black" fill="cyan"/>
  <circle cx="592.38" cy="475.724" r="5.05167" stroke-width="0.5" stroke="black" fill="cyan"/>
   </g>
   <g id="cell61">
  <circle cx="554.974" cy="615.777" r="8.41271" stroke-width="0.5" stroke="black" fill="cyan"/>
  <circle cx="554.974" cy="615.777" r="5.05167" stroke-width="0.5" stroke="black" fill="cyan"/>
   </g>
   <g id="cell62">
  <circle cx="526.562" cy="444.96" r="8.41271" stroke-width="0.5" stroke="black" fill="cyan"/>
  <circle cx="526.562" cy="444.96" r="5.05167" stroke-width="0.5" stroke="black" fill="cyan"/>
   </g>
   <g id="cell63">
  <circle cx="581.631" cy="553.09" r="8.13008" stroke-width="0.5" stroke="black" fill="cyan"/>
  <circle cx="581.631" cy="553.09" r="4.91894" stroke-width="0.5" stroke="black" fill="cyan"/>
   </g>
   <g id="cell64">
  <circle cx="509.962" cy="636.825" r="8.41271" stroke-width="0.5" stroke="black" fill="cyan"/>
  <circle cx="509.962" cy="636.825" r="5.05167" stroke-width="0.5" stroke="black" fill="cyan"/>
   </g>
   <g id="cell65">
  <circle cx="535.533" cy="458.838" r="8.11327" stroke-width="0.5" stroke="black" fill="cyan"/>
  <circle cx="535.533" cy="458.838" r="4.91006" stroke-width="0.5" stroke="black" fill="cyan"/>
   </g>
   <g id="cell66">
  <circle cx="536.184" cy="528.202" r="8.41271" stroke-width="0.5" stroke="black" fill="cyan"/>
  <circle cx="536.184" cy="528.202" r="5.05167" stroke-width="0.5" stroke="black" fill="cyan"/>
   </g>
   <g id="cell67">
  <circle cx="354.857" cy="492.466" r="8.41271" stroke-width="0.5" stroke="black" fill="cyan"/>
  <circle cx="354.857" cy="492.466" r="5.05167" stroke-width="0.5" stroke="black" fill="cyan"/>
   </g>
   <g id="cell68">
  <circle cx="558.603" cy="554.896" r="8.41271" stroke-width="0.5" stroke="black" fill="cyan"/>
  <circle cx="558.603" cy="554.896" r="5.05167" stroke-width="0.5" stroke="black" fill="cyan"/>
   </g>
   <g id="cell69">
  <circle cx="438.996" cy="456.913" r="8.36032" stroke-width="0.5" stroke="black" fill="cyan"/>
  <circle cx="438.996" cy="456.913" r="5.03165" stroke-width="0.5" stroke="black" fill="cyan"/>
   </g>
   <g id="cell70">
  <circle cx="576.169" cy="474.669" r="8.41271" stroke-width="0.5" stroke="black" fill="cyan"/>
  <circle cx="576.169" cy="474.669" r="5.05167" stroke-width="0.5" stroke="black" fill="cyan"/>
   </g>
   <g id="cell71">
  <circle cx="377.299" cy="528.161" r="5.81885" stroke-width="0.5" stroke="black" fill="cyan"/>
  <circle cx="377.299" cy="528.161" r="3.53606" stroke-width="0.5" stroke="black" fill="cyan"/>
   </g>
   <g id="cell72">
  <circle cx="535.076" cy="512.056" r="8.41271" stroke-width="0.5" stroke="black" fill="cyan"/>
  <circle cx="535.076" cy="512.056" r="5.05167" stroke-width="0.5" stroke="black" fill="cyan"/>
   </g>
   <g id="cell73">
  <circle cx="364.026" cy="546.236" r="2.15065" stroke-width="0.5" stroke="black" fill="cyan"/>
  <circle cx="364.026" cy="546.236" r="2.00267" stroke-width="0.5" stroke="black" fill="black"/>
   </g>
   <g id="cell74">
  <circle cx="542.492" cy="444.79" r="8.41271" stroke-width="0.5" stroke="black" fill="cyan"/>
  <circle cx="542.492" cy="444.79" r="5.05167" stroke-width="0.5" stroke="black" fill="cyan"/>
   </g>
   <g id="cell75">
  <circle cx="444.308" cy="472.326" r="8.36032" stroke-width="0.5" stroke="black" fill="cyan"/>
  <circle cx="444.308" cy="472.326" r="5.03165" stroke-width="0.5" stroke="black" fill="cyan"/>
   </g>
   <g id="cell76">
  <circle cx="524.407" cy="387.289" r="8.04739" stroke-width="0.5" stroke="black" fill="magenta"/>
  <circle cx="524.407" cy="387.289" r="4.87913" stroke-width="0.5" stroke="black" fill="magenta"/>
   </g>
   <g id="cell77">
  <circle cx="486.361" cy="436.661" r="6.79397" stroke-width="0.5" stroke="black" fill="magenta"/>
  <circle cx="486.361" cy="436.661" r="4.1108" stroke-width="0.5" stroke="black" fill="magenta"/>
   </g>
   <g id="cell78">
  <circle cx="373.738" cy="467.332" r="8.35236" stroke-width="0.5" stroke="black" fill="magenta"/>
  <circle cx="373.738" cy="467.332" r="5.02821" stroke-width="0.5" stroke="black" fill="magenta"/>
   </g>
   <g id="cell79">
  <circle cx="507.292" cy="526.355" r="8.34884" stroke-width="0.5" stroke="black" fill="magenta"/>
  <circle cx="507.292" cy="526.355" r="5.02667" stroke-width="0.5" stroke="black" fill="magenta"/>
   </g>
   <g id="cell80">
  <circle cx="606.25" cy="483.764" r="8.34511" stroke-width="0.5" stroke="black" fill="green"/>
  <circle cx="606.25" cy="483.764" r="5.02502" stroke-width="0.5" stroke="black" fill="green"/>
   </g>
   <g id="cell81">
  <circle cx="430.095" cy="506.173" r="7.52174" stroke-width="0.5" stroke="black" fill="green"/>
  <circle cx="430.095" cy="506.173" r="4.58077" stroke-width="0.5" stroke="black" fill="green"/>
   </g>
   <g id="cell82">
  <circle cx="542.815" cy="495.063" r="8.33257" stroke-width="0.5" stroke="black" fill="magenta"/>
  <circle cx="542.815" cy="495.063" r="5.01941" stroke-width="0.5" stroke="black" fill="magenta"/>
   </g>
   <g id="cell83">
  <circle cx="492.111" cy="430.961" r="2.01796" stroke-width="0.5" stroke="black" fill="green"/>
  <circle cx="492.111" cy="430.961" r="1.89898" stroke-width="0.5" stroke="black" fill="black"/>
   </g>
   <g id="cell84">
  <circle cx="409.93" cy="480.714" r="6.87256" stroke-width="0.5" stroke="black" fill="green"/>
  <circle cx="409.93" cy="480.714" r="4.18219" stroke-width="0.5" stroke="black" fill="green"/>
   </g>
   <g id="cell85">
  <circle cx="405.776" cy="447.277" r="6.85257" stroke-width="0.5" stroke="black" fill="green"/>
  <circle cx="405.776" cy="447.277" r="4.20942" stroke-width="0.5" stroke="black" fill="black"/>
   </g>
   <g id="cell86">
  <circle cx="394.36" cy="566.641" r="6.96122" stroke-width="0.5" stroke="black" fill="magenta"/>
  <circle cx="394.36" cy="566.641" r="4.24212" stroke-width="0.5" stroke="black" fill="magenta"/>
   </g>
   <g id="cell87">
  <circle cx="437.869" cy="518.96" r="8.2239" stroke-width="0.5" stroke="black" fill="green"/>
  <circle cx="437.869" cy="518.96" r="4.96725" stroke-width="0.5" stroke="black" fill="green"/>
   </g>
   <g id="cell88">
  <circle cx="476.812" cy="611.365" r="8.21839" stroke-width="0.5" stroke="black" fill="green"/>
  <circle cx="476.812" cy="611.365" r="4.96448" stroke-width="0.5" stroke="black" fill="green"/>
   </g>
   <g id="cell89">
  <circle cx="435.507" cy="490.095" r="7.71061" stroke-width="0.5" stroke="black" fill="green"/>
  <circle cx="435.507" cy="490.095" r="4.70202" stroke-width="0.5" stroke="black" fill="green"/>
   </g>
   <g id="cell90">
  <circle cx="585.266" cy="502.171" r="8.20088" stroke-width="0.5" stroke="black" fill="magenta"/>
  <circle cx="585.266" cy="502.171" r="4.95562" stroke-width="0.5" stroke="black" fill="magenta"/>
   </g>
   <g id="cell91">
  <circle cx="454.923" cy="598.394" r="3.36207" stroke-width="0.5" stroke="black" fill="magenta"/>
  <circle cx="454.923" cy="598.394" r="2.60427" stroke-width="0.5" stroke="black" fill="black"/>
   </g>
   <g id="cell92">
  <circle cx="551.231" cy="593.022" r="6.64184" stroke-width="0.5" stroke="black" fill="green"/>
  <circle cx="551.231" cy="593.022" r="4.08586" stroke-width="0.5" stroke="black" fill="green"/>
   </g>
   <g id="cell93">
  <circle cx="576.371" cy="531.315" r="7.7354" stroke-width="0.5" stroke="black" fill="cyan"/>
  <circle cx="576.371" cy="531.315" r="4.71484" stroke-width="0.5" stroke="black" fill="cyan"/>
   </g>
   <g id="cell94">
  <circle cx="547.64" cy="468.748" r="8.11327" stroke-width="0.5" stroke="black" fill="cyan"/>
  <circle cx="547.64" cy="468.748" r="4.91006" stroke-width="0.5" stroke="black" fill="cyan"/>
   </g>
   <g id="cell95">
  <circle cx="462.051" cy="534.624" r="8.11327" stroke-width="0.5" stroke="black" fill="magenta"/>
  <circle cx="462.051" cy="534.624" r="4.91006" stroke-width="0.5" stroke="black" fill="magenta"/>
   </g>
   <g id="cell96">
  <circle cx="534.638" cy="377.068" r="8.04739" stroke-width="0.5" stroke="black" fill="magenta"/>
  <circle cx="534.638" cy="377.068" r="4.87913" stroke-width="0.5" stroke="black" fill="magenta"/>
   </g>
   <g id="cell97">
  <circle cx="569.954" cy="505.793" r="7.99153" stroke-width="0.5" stroke="black" fill="magenta"/>
  <circle cx="569.954" cy="505.793" r="4.85032" stroke-width="0.5" stroke="black" fill="magenta"/>
   </g>
   <g id="cell98">
  <circle cx="412.54" cy="567.487" r="7.9229" stroke-width="0.5" stroke="black" fill="green"/>
  <circle cx="412.54" cy="567.487" r="4.80599" stroke-width="0.5" stroke="black" fill="green"/>
   </g>
   <g id="cell99">
  <circle cx="569.845" cy="491.598" r="7.9229" stroke-width="0.5" stroke="black" fill="magenta"/>
  <circle cx="569.845" cy="491.598" r="4.80599" stroke-width="0.5" stroke="black" fill="magenta"/>
   </g>
   <g id="cell100">
  <circle cx="569.475" cy="544.208" r="7.7354" stroke-width="0.5" stroke="black" fill="cyan"/>
  <circle cx="569.475" cy="544.208" r="4.71484" stroke-width="0.5" stroke="black" fill="cyan"/>
   </g>
   <g id="cell101">
  <circle cx="458.876" cy="631.414" r="6.95327" stroke-width="0.5" stroke="black" fill="magenta"/>
  <circle cx="458.876" cy="631.414" r="4.25918" stroke-width="0.5" stroke="black" fill="magenta"/>
   </g>
   <g id="cell102">
  <circle cx="443.942" cy="502.102" r="7.71061" stroke-width="0.5" stroke="black" fill="green"/>
  <circle cx="443.942" cy="502.102" r="4.70202" stroke-width="0.5" stroke="black" fill="green"/>
   </g>
   <g id="cell103">
  <circle cx="544.558" cy="604.678" r="7.55481" stroke-width="0.5" stroke="black" fill="green"/>
  <circle cx="544.558" cy="604.678" r="4.61152" stroke-width="0.5" stroke="black" fill="green"/>
   </g>
   <g id="cell104">
  <circle cx="549.268" cy="536.018" r="7.65871" stroke-width="0.5" stroke="black" fill="green"/>
  <circle cx="549.268" cy="536.018" r="4.6537" stroke-width="0.5" stroke="black" fill="green"/>
   </g>
   <g id="cell105">
  <circle cx="421.747" cy="494.78" r="7.52174" stroke-width="0.5" stroke="black" fill="green"/>
  <circle cx="421.747" cy="494.78" r="4.58077" stroke-width="0.5" stroke="black" fill="green"/>
   </g>
   <g id="cell106">
  <circle cx="638.872" cy="538.462" r="7.56839" stroke-width="0.5" stroke="black" fill="green"/>
  <circle cx="638.872" cy="538.462" r="4.59998" stroke-width="0.5" stroke="black" fill="green"/>
   </g>
   <g id="cell107">
  <circle cx="382.706" cy="513.746" r="7.33129" stroke-width="0.5" stroke="black" fill="cyan"/>
  <circle cx="382.706" cy="513.746" r="4.45516" stroke-width="0.5" stroke="black" fill="cyan"/>
   </g>
   <g id="cell108">
  <circle cx="458.827" cy="643.885" r="6.95327" stroke-width="0.5" stroke="black" fill="magenta"/>
  <circle cx="458.827" cy="643.885" r="4.25918" stroke-width="0.5" stroke="black" fill="magenta"/>
   </g>
   <g id="cell109">
  <circle cx="446.471" cy="631.811" r="6.95327" stroke-width="0.5" stroke="black" fill="magenta"/>
  <circle cx="446.471" cy="631.811" r="4.25918" stroke-width="0.5" stroke="black" fill="magenta"/>
   </g>
   <g id="cell110">
  <circle cx="538.936" cy="590.306" r="6.64184" stroke-width="0.5" stroke="black" fill="green"/>
  <circle cx="538.936" cy="590.306" r="4.08586" stroke-width="0.5" stroke="black" fill="green"/>
   </g>
   <g id="cell111">
  <circle cx="635.968" cy="551.593" r="6.65062" stroke-width="0.5" stroke="black" fill="green"/>
  <circle cx="635.968" cy="551.593" r="4.0799" stroke-width="0.5" stroke="black" fill="green"/>
   </g>
   <g id="cell112">
  <circle cx="383.849" cy="573.449" r="6.96122" stroke-width="0.5" stroke="black" fill="magenta"/>
  <circle cx="383.849" cy="573.449" r="4.24212" stroke-width="0.5" stroke="black" fill="magenta"/>
   </g>
   <g id="cell113">
  <circle cx="422.93" cy="481.443" r="6.87256" stroke-width="0.5" stroke="black" fill="green"/>
  <circle cx="422.93" cy="481.443" r="4.18219" stroke-width="0.5" stroke="black" fill="green"/>
   </g>
   <g id="cell114">
  <circle cx="496.157" cy="443.876" r="6.79397" stroke-width="0.5" stroke="black" fill="magenta"/>
  <circle cx="496.157" cy="443.876" r="4.1108" stroke-width="0.5" stroke="black" fill="magenta"/>
   </g>
   <g id="cell115">
  <circle cx="450.937" cy="523.555" r="6.58557" stroke-width="0.5" stroke="black" fill="green"/>
  <circle cx="450.937" cy="523.555" r="3.98451" stroke-width="0.5" stroke="black" fill="green"/>
   </g>
   <g id="cell116">
  <circle cx="370.834" cy="519.74" r="5.81885" stroke-width="0.5" stroke="black" fill="cyan"/>
  <circle cx="370.834" cy="519.74" r="3.53606" stroke-width="0.5" stroke="black" fill="cyan"/>
   </g>
  </g>
 </g>
  <rect x="775" y="1035" width="200" height="10" stroke-width="2" stroke="rgb(255,255,255)" fill="rgb(0,0,0)"/>
  <text x="781.25" y="1028.75"
   font-family="Arial" font-size="25" fill="black" >
   200 &#956;m
  </text>
  <text x="25" y="1045"
   font-family="Arial" font-size="18.75" fill="black" >
   0 days, 0 hours, 0 minutes, and 17.3642 seconds
  </text>
  <rect x="0" y="70" width="1000" height="1000" stroke-width="2" stroke="rgb(0,0,0)" fill="none"/>
</svg>
