<?xml version="1.0" encoding="UTF-8" standalone="no"?>
<!-- Created with PhysiCell (http://PhysiCell.MathCancer.org/) -->
<svg 
 xmlns:dc="http://purl.org/dc/elements/1.1/" 
 xmlns:cc="http://creativecommons.org/ns#" 
 xmlns:rdf="http://www.w3.org/1999/02/22-rdf-syntax-ns#" 
 xmlns:svg="http://www.w3.org/2000/svg" 
 xmlns="http://www.w3.org/2000/svg" 
 version="1.1" 
 width="1000" 
 height="1070" 
 id="svg2">
  <rect x="0" y="0" width="1000" height="1070" stroke-width="2" stroke="white" fill="white"/>
  <text x="12.5" y="30"
   font-family="Arial" font-size="25" fill="black" >
   Current time: 0 days, 21 hours, and 30.00 minutes, z = 0.00 &#956;m
  </text>
  <text x="12.5" y="57.5"
   font-family="Arial" font-size="23.75" fill="black" >
   136 agents
  </text>
 <g id="tissue" 
    transform="translate(0,1070) scale(1,-1)">
  <g id="ECM">
  </g>
  <g id="cells">
   <g id="cell0">
  <circle cx="515.024" cy="531.44" r="8.40683" stroke-width="0.5" stroke="black" fill="magenta"/>
  <circle cx="515.024" cy="531.44" r="5.04993" stroke-width="0.5" stroke="black" fill="magenta"/>
   </g>
   <g id="cell1">
  <circle cx="600.251" cy="520.375" r="1.45214" stroke-width="0.5" stroke="black" fill="magenta"/>
  <circle cx="600.251" cy="520.375" r="1.43612" stroke-width="0.5" stroke="black" fill="black"/>
   </g>
   <g id="cell2">
  <circle cx="512.029" cy="595.893" r="7.49456" stroke-width="0.5" stroke="black" fill="magenta"/>
  <circle cx="512.029" cy="595.893" r="4.55548" stroke-width="0.5" stroke="black" fill="magenta"/>
   </g>
   <g id="cell3">
  <circle cx="539.482" cy="541.076" r="7.21189" stroke-width="0.5" stroke="black" fill="magenta"/>
  <circle cx="539.482" cy="541.076" r="4.37993" stroke-width="0.5" stroke="black" fill="magenta"/>
   </g>
   <g id="cell4">
  <circle cx="474.207" cy="440.773" r="8.40745" stroke-width="0.5" stroke="black" fill="magenta"/>
  <circle cx="474.207" cy="440.773" r="5.05013" stroke-width="0.5" stroke="black" fill="magenta"/>
   </g>
   <g id="cell5">
  <circle cx="465.695" cy="494.4" r="8.41271" stroke-width="0.5" stroke="black" fill="magenta"/>
  <circle cx="465.695" cy="494.4" r="5.05167" stroke-width="0.5" stroke="black" fill="magenta"/>
   </g>
   <g id="cell6">
  <circle cx="594.494" cy="513.664" r="8.3937" stroke-width="0.5" stroke="black" fill="magenta"/>
  <circle cx="594.494" cy="513.664" r="5.04523" stroke-width="0.5" stroke="black" fill="magenta"/>
   </g>
   <g id="cell7">
  <circle cx="511.411" cy="464.446" r="8.41271" stroke-width="0.5" stroke="black" fill="magenta"/>
  <circle cx="511.411" cy="464.446" r="5.05167" stroke-width="0.5" stroke="black" fill="magenta"/>
   </g>
   <g id="cell8">
  <circle cx="374.509" cy="547.341" r="8.41271" stroke-width="0.5" stroke="black" fill="magenta"/>
  <circle cx="374.509" cy="547.341" r="5.05167" stroke-width="0.5" stroke="black" fill="magenta"/>
   </g>
   <g id="cell9">
  <circle cx="463.971" cy="602.076" r="8.3926" stroke-width="0.5" stroke="black" fill="magenta"/>
  <circle cx="463.971" cy="602.076" r="5.04482" stroke-width="0.5" stroke="black" fill="magenta"/>
   </g>
   <g id="cell10">
  <circle cx="587.631" cy="391.411" r="7.79564" stroke-width="0.5" stroke="black" fill="magenta"/>
  <circle cx="587.631" cy="391.411" r="4.73359" stroke-width="0.5" stroke="black" fill="magenta"/>
   </g>
   <g id="cell11">
  <circle cx="589.748" cy="590.273" r="8.41271" stroke-width="0.5" stroke="black" fill="magenta"/>
  <circle cx="589.748" cy="590.273" r="5.05167" stroke-width="0.5" stroke="black" fill="magenta"/>
   </g>
   <g id="cell12">
  <circle cx="501.729" cy="585.95" r="8.41271" stroke-width="0.5" stroke="black" fill="magenta"/>
  <circle cx="501.729" cy="585.95" r="5.05167" stroke-width="0.5" stroke="black" fill="magenta"/>
   </g>
   <g id="cell13">
  <circle cx="378.565" cy="561.452" r="8.11318" stroke-width="0.5" stroke="black" fill="magenta"/>
  <circle cx="378.565" cy="561.452" r="4.91166" stroke-width="0.5" stroke="black" fill="magenta"/>
   </g>
   <g id="cell14">
  <circle cx="523.103" cy="398.782" r="7.56839" stroke-width="0.5" stroke="black" fill="magenta"/>
  <circle cx="523.103" cy="398.782" r="4.59998" stroke-width="0.5" stroke="black" fill="magenta"/>
   </g>
   <g id="cell15">
  <circle cx="389.797" cy="483.372" r="7.01858" stroke-width="0.5" stroke="black" fill="magenta"/>
  <circle cx="389.797" cy="483.372" r="4.25518" stroke-width="0.5" stroke="black" fill="magenta"/>
   </g>
   <g id="cell16">
  <circle cx="430.146" cy="414.178" r="8.41271" stroke-width="0.5" stroke="black" fill="magenta"/>
  <circle cx="430.146" cy="414.178" r="5.05167" stroke-width="0.5" stroke="black" fill="magenta"/>
   </g>
   <g id="cell17">
  <circle cx="588.193" cy="488.611" r="8.36972" stroke-width="0.5" stroke="black" fill="magenta"/>
  <circle cx="588.193" cy="488.611" r="5.03563" stroke-width="0.5" stroke="black" fill="magenta"/>
   </g>
   <g id="cell18">
  <circle cx="509.978" cy="393.007" r="8.40774" stroke-width="0.5" stroke="black" fill="magenta"/>
  <circle cx="509.978" cy="393.007" r="5.05022" stroke-width="0.5" stroke="black" fill="magenta"/>
   </g>
   <g id="cell19">
  <circle cx="448.013" cy="539.472" r="8.38608" stroke-width="0.5" stroke="black" fill="magenta"/>
  <circle cx="448.013" cy="539.472" r="5.04229" stroke-width="0.5" stroke="black" fill="magenta"/>
   </g>
   <g id="cell20">
  <circle cx="528.239" cy="422.718" r="8.41271" stroke-width="0.5" stroke="black" fill="magenta"/>
  <circle cx="528.239" cy="422.718" r="5.05167" stroke-width="0.5" stroke="black" fill="magenta"/>
   </g>
   <g id="cell21">
  <circle cx="464.855" cy="637.003" r="1.07291" stroke-width="0.5" stroke="black" fill="magenta"/>
  <circle cx="464.855" cy="637.003" r="1.06925" stroke-width="0.5" stroke="black" fill="black"/>
   </g>
   <g id="cell22">
  <circle cx="558.45" cy="497.395" r="8.37565" stroke-width="0.5" stroke="black" fill="magenta"/>
  <circle cx="558.45" cy="497.395" r="5.03847" stroke-width="0.5" stroke="black" fill="magenta"/>
   </g>
   <g id="cell23">
  <circle cx="536.425" cy="482.187" r="8.41271" stroke-width="0.5" stroke="black" fill="magenta"/>
  <circle cx="536.425" cy="482.187" r="5.05167" stroke-width="0.5" stroke="black" fill="magenta"/>
   </g>
   <g id="cell24">
  <circle cx="562.041" cy="382.101" r="8.41271" stroke-width="0.5" stroke="black" fill="magenta"/>
  <circle cx="562.041" cy="382.101" r="5.05167" stroke-width="0.5" stroke="black" fill="magenta"/>
   </g>
   <g id="cell25">
  <circle cx="647.919" cy="559.51" r="8.26859" stroke-width="0.5" stroke="black" fill="green"/>
  <circle cx="647.919" cy="559.51" r="4.99227" stroke-width="0.5" stroke="black" fill="green"/>
   </g>
   <g id="cell26">
  <circle cx="550.512" cy="401.245" r="8.41271" stroke-width="0.5" stroke="black" fill="green"/>
  <circle cx="550.512" cy="401.245" r="5.05167" stroke-width="0.5" stroke="black" fill="green"/>
   </g>
   <g id="cell27">
  <circle cx="457.446" cy="388.678" r="8.41271" stroke-width="0.5" stroke="black" fill="green"/>
  <circle cx="457.446" cy="388.678" r="5.05167" stroke-width="0.5" stroke="black" fill="green"/>
   </g>
   <g id="cell28">
  <circle cx="433.091" cy="544.117" r="8.41271" stroke-width="0.5" stroke="black" fill="green"/>
  <circle cx="433.091" cy="544.117" r="5.05167" stroke-width="0.5" stroke="black" fill="green"/>
   </g>
   <g id="cell29">
  <circle cx="467.281" cy="520.977" r="8.23554" stroke-width="0.5" stroke="black" fill="green"/>
  <circle cx="467.281" cy="520.977" r="4.97447" stroke-width="0.5" stroke="black" fill="green"/>
   </g>
   <g id="cell30">
  <circle cx="477.816" cy="539.189" r="8.41271" stroke-width="0.5" stroke="black" fill="green"/>
  <circle cx="477.816" cy="539.189" r="5.05167" stroke-width="0.5" stroke="black" fill="green"/>
   </g>
   <g id="cell31">
  <circle cx="412.418" cy="538.487" r="8.41271" stroke-width="0.5" stroke="black" fill="green"/>
  <circle cx="412.418" cy="538.487" r="5.05167" stroke-width="0.5" stroke="black" fill="green"/>
   </g>
   <g id="cell32">
  <circle cx="430.164" cy="465.344" r="8.39794" stroke-width="0.5" stroke="black" fill="green"/>
  <circle cx="430.164" cy="465.344" r="5.04681" stroke-width="0.5" stroke="black" fill="green"/>
   </g>
   <g id="cell33">
  <circle cx="498.876" cy="413.227" r="8.39987" stroke-width="0.5" stroke="black" fill="green"/>
  <circle cx="498.876" cy="413.227" r="5.04751" stroke-width="0.5" stroke="black" fill="green"/>
   </g>
   <g id="cell34">
  <circle cx="392.092" cy="453.614" r="8.39664" stroke-width="0.5" stroke="black" fill="green"/>
  <circle cx="392.092" cy="453.614" r="5.04633" stroke-width="0.5" stroke="black" fill="green"/>
   </g>
   <g id="cell35">
  <circle cx="544.083" cy="554.526" r="8.347" stroke-width="0.5" stroke="black" fill="green"/>
  <circle cx="544.083" cy="554.526" r="5.02586" stroke-width="0.5" stroke="black" fill="green"/>
   </g>
   <g id="cell36">
  <circle cx="396.593" cy="579.876" r="8.05651" stroke-width="0.5" stroke="black" fill="green"/>
  <circle cx="396.593" cy="579.876" r="4.87966" stroke-width="0.5" stroke="black" fill="green"/>
   </g>
   <g id="cell37">
  <circle cx="634.871" cy="460.618" r="4.42406" stroke-width="0.5" stroke="black" fill="green"/>
  <circle cx="634.871" cy="460.618" r="3.07758" stroke-width="0.5" stroke="black" fill="black"/>
   </g>
   <g id="cell38">
  <circle cx="526.718" cy="601.378" r="8.38753" stroke-width="0.5" stroke="black" fill="green"/>
  <circle cx="526.718" cy="601.378" r="5.04286" stroke-width="0.5" stroke="black" fill="green"/>
   </g>
   <g id="cell39">
  <circle cx="617.547" cy="494.711" r="8.4065" stroke-width="0.5" stroke="black" fill="green"/>
  <circle cx="617.547" cy="494.711" r="5.04982" stroke-width="0.5" stroke="black" fill="green"/>
   </g>
   <g id="cell40">
  <circle cx="485.374" cy="571.801" r="8.41271" stroke-width="0.5" stroke="black" fill="green"/>
  <circle cx="485.374" cy="571.801" r="5.05167" stroke-width="0.5" stroke="black" fill="green"/>
   </g>
   <g id="cell41">
  <circle cx="364.784" cy="479.959" r="8.41271" stroke-width="0.5" stroke="black" fill="green"/>
  <circle cx="364.784" cy="479.959" r="5.05167" stroke-width="0.5" stroke="black" fill="green"/>
   </g>
   <g id="cell42">
  <circle cx="452.48" cy="486.213" r="8.39125" stroke-width="0.5" stroke="black" fill="green"/>
  <circle cx="452.48" cy="486.213" r="5.04457" stroke-width="0.5" stroke="black" fill="green"/>
   </g>
   <g id="cell43">
  <circle cx="558.56" cy="445.785" r="8.41271" stroke-width="0.5" stroke="black" fill="green"/>
  <circle cx="558.56" cy="445.785" r="5.05167" stroke-width="0.5" stroke="black" fill="green"/>
   </g>
   <g id="cell44">
  <circle cx="477.589" cy="627.416" r="8.39523" stroke-width="0.5" stroke="black" fill="green"/>
  <circle cx="477.589" cy="627.416" r="5.04581" stroke-width="0.5" stroke="black" fill="green"/>
   </g>
   <g id="cell45">
  <circle cx="416.796" cy="553.893" r="8.36972" stroke-width="0.5" stroke="black" fill="green"/>
  <circle cx="416.796" cy="553.893" r="5.03563" stroke-width="0.5" stroke="black" fill="green"/>
   </g>
   <g id="cell46">
  <circle cx="518.1" cy="619.298" r="6.56141" stroke-width="0.5" stroke="black" fill="green"/>
  <circle cx="518.1" cy="619.298" r="3.97775" stroke-width="0.5" stroke="black" fill="green"/>
   </g>
   <g id="cell47">
  <circle cx="501.326" cy="508.525" r="8.41271" stroke-width="0.5" stroke="black" fill="green"/>
  <circle cx="501.326" cy="508.525" r="5.05167" stroke-width="0.5" stroke="black" fill="green"/>
   </g>
   <g id="cell48">
  <circle cx="565.206" cy="604.116" r="8.41271" stroke-width="0.5" stroke="black" fill="green"/>
  <circle cx="565.206" cy="604.116" r="5.05167" stroke-width="0.5" stroke="black" fill="green"/>
   </g>
   <g id="cell49">
  <circle cx="434.22" cy="394.838" r="7.83019" stroke-width="0.5" stroke="black" fill="green"/>
  <circle cx="434.22" cy="394.838" r="4.75343" stroke-width="0.5" stroke="black" fill="green"/>
   </g>
   <g id="cell50">
  <circle cx="515.336" cy="516.032" r="8.41271" stroke-width="0.5" stroke="black" fill="cyan"/>
  <circle cx="515.336" cy="516.032" r="5.05167" stroke-width="0.5" stroke="black" fill="cyan"/>
   </g>
   <g id="cell51">
  <circle cx="394.151" cy="602.189" r="7.90853" stroke-width="0.5" stroke="black" fill="cyan"/>
  <circle cx="394.151" cy="602.189" r="4.79791" stroke-width="0.5" stroke="black" fill="cyan"/>
   </g>
   <g id="cell120">
  <circle cx="419.105" cy="610.498" r="8.15353" stroke-width="0.5" stroke="black" fill="cyan"/>
  <circle cx="419.105" cy="610.498" r="4.93122" stroke-width="0.5" stroke="black" fill="cyan"/>
   </g>
   <g id="cell53">
  <circle cx="571.272" cy="436.014" r="8.41271" stroke-width="0.5" stroke="black" fill="cyan"/>
  <circle cx="571.272" cy="436.014" r="5.05167" stroke-width="0.5" stroke="black" fill="cyan"/>
   </g>
   <g id="cell54">
  <circle cx="477.044" cy="425.438" r="8.41271" stroke-width="0.5" stroke="black" fill="cyan"/>
  <circle cx="477.044" cy="425.438" r="5.05167" stroke-width="0.5" stroke="black" fill="cyan"/>
   </g>
   <g id="cell55">
  <circle cx="525.43" cy="471.209" r="8.41271" stroke-width="0.5" stroke="black" fill="cyan"/>
  <circle cx="525.43" cy="471.209" r="5.05167" stroke-width="0.5" stroke="black" fill="cyan"/>
   </g>
   <g id="cell56">
  <circle cx="615.793" cy="522.539" r="8.41271" stroke-width="0.5" stroke="black" fill="cyan"/>
  <circle cx="615.793" cy="522.539" r="5.05167" stroke-width="0.5" stroke="black" fill="cyan"/>
   </g>
   <g id="cell57">
  <circle cx="418.522" cy="625.966" r="8.15353" stroke-width="0.5" stroke="black" fill="cyan"/>
  <circle cx="418.522" cy="625.966" r="4.93122" stroke-width="0.5" stroke="black" fill="cyan"/>
   </g>
   <g id="cell58">
  <circle cx="551.461" cy="483.826" r="8.41271" stroke-width="0.5" stroke="black" fill="cyan"/>
  <circle cx="551.461" cy="483.826" r="5.05167" stroke-width="0.5" stroke="black" fill="cyan"/>
   </g>
   <g id="cell59">
  <circle cx="385.163" cy="439.182" r="8.41271" stroke-width="0.5" stroke="black" fill="cyan"/>
  <circle cx="385.163" cy="439.182" r="5.05167" stroke-width="0.5" stroke="black" fill="cyan"/>
   </g>
   <g id="cell60">
  <circle cx="591.44" cy="473.438" r="8.09544" stroke-width="0.5" stroke="black" fill="cyan"/>
  <circle cx="591.44" cy="473.438" r="4.90058" stroke-width="0.5" stroke="black" fill="cyan"/>
   </g>
   <g id="cell61">
  <circle cx="554.623" cy="614.976" r="2.04991" stroke-width="0.5" stroke="black" fill="cyan"/>
  <circle cx="554.623" cy="614.976" r="1.93256" stroke-width="0.5" stroke="black" fill="black"/>
   </g>
   <g id="cell62">
  <circle cx="526.481" cy="444.94" r="8.41271" stroke-width="0.5" stroke="black" fill="cyan"/>
  <circle cx="526.481" cy="444.94" r="5.05167" stroke-width="0.5" stroke="black" fill="cyan"/>
   </g>
   <g id="cell63">
  <circle cx="582.76" cy="552.58" r="8.38753" stroke-width="0.5" stroke="black" fill="cyan"/>
  <circle cx="582.76" cy="552.58" r="5.04286" stroke-width="0.5" stroke="black" fill="cyan"/>
   </g>
   <g id="cell64">
  <circle cx="513.994" cy="633.494" r="8.06667" stroke-width="0.5" stroke="black" fill="cyan"/>
  <circle cx="513.994" cy="633.494" r="4.88515" stroke-width="0.5" stroke="black" fill="cyan"/>
   </g>
   <g id="cell65">
  <circle cx="534.877" cy="458.351" r="8.38608" stroke-width="0.5" stroke="black" fill="cyan"/>
  <circle cx="534.877" cy="458.351" r="5.04229" stroke-width="0.5" stroke="black" fill="cyan"/>
   </g>
   <g id="cell66">
  <circle cx="544.398" cy="527.858" r="8.16806" stroke-width="0.5" stroke="black" fill="cyan"/>
  <circle cx="544.398" cy="527.858" r="4.93877" stroke-width="0.5" stroke="black" fill="cyan"/>
   </g>
   <g id="cell67">
  <circle cx="354.787" cy="492.544" r="8.41271" stroke-width="0.5" stroke="black" fill="cyan"/>
  <circle cx="354.787" cy="492.544" r="5.05167" stroke-width="0.5" stroke="black" fill="cyan"/>
   </g>
   <g id="cell68">
  <circle cx="559.763" cy="556.202" r="8.41271" stroke-width="0.5" stroke="black" fill="cyan"/>
  <circle cx="559.763" cy="556.202" r="5.05167" stroke-width="0.5" stroke="black" fill="cyan"/>
   </g>
   <g id="cell69">
  <circle cx="436.898" cy="450.821" r="8.40788" stroke-width="0.5" stroke="black" fill="cyan"/>
  <circle cx="436.898" cy="450.821" r="5.05027" stroke-width="0.5" stroke="black" fill="cyan"/>
   </g>
   <g id="cell70">
  <circle cx="578.215" cy="478.519" r="7.38797" stroke-width="0.5" stroke="black" fill="cyan"/>
  <circle cx="578.215" cy="478.519" r="4.49029" stroke-width="0.5" stroke="black" fill="cyan"/>
   </g>
   <g id="cell71">
  <circle cx="382.564" cy="527.143" r="7.74722" stroke-width="0.5" stroke="black" fill="cyan"/>
  <circle cx="382.564" cy="527.143" r="4.72275" stroke-width="0.5" stroke="black" fill="cyan"/>
   </g>
   <g id="cell72">
  <circle cx="534.458" cy="509.257" r="8.41271" stroke-width="0.5" stroke="black" fill="cyan"/>
  <circle cx="534.458" cy="509.257" r="5.05167" stroke-width="0.5" stroke="black" fill="cyan"/>
   </g>
   <g id="cell129">
  <circle cx="421.261" cy="402.075" r="7.83019" stroke-width="0.5" stroke="black" fill="green"/>
  <circle cx="421.261" cy="402.075" r="4.75343" stroke-width="0.5" stroke="black" fill="green"/>
   </g>
   <g id="cell74">
  <circle cx="542.57" cy="444.368" r="8.41271" stroke-width="0.5" stroke="black" fill="cyan"/>
  <circle cx="542.57" cy="444.368" r="5.05167" stroke-width="0.5" stroke="black" fill="cyan"/>
   </g>
   <g id="cell75">
  <circle cx="443.411" cy="473.558" r="8.02153" stroke-width="0.5" stroke="black" fill="cyan"/>
  <circle cx="443.411" cy="473.558" r="4.86129" stroke-width="0.5" stroke="black" fill="cyan"/>
   </g>
   <g id="cell76">
  <circle cx="522.479" cy="384.474" r="8.3804" stroke-width="0.5" stroke="black" fill="magenta"/>
  <circle cx="522.479" cy="384.474" r="5.0403" stroke-width="0.5" stroke="black" fill="magenta"/>
   </g>
   <g id="cell77">
  <circle cx="488.391" cy="435.977" r="8.25989" stroke-width="0.5" stroke="black" fill="magenta"/>
  <circle cx="488.391" cy="435.977" r="4.98561" stroke-width="0.5" stroke="black" fill="magenta"/>
   </g>
   <g id="cell78">
  <circle cx="371.132" cy="465.636" r="8.40715" stroke-width="0.5" stroke="black" fill="magenta"/>
  <circle cx="371.132" cy="465.636" r="5.05003" stroke-width="0.5" stroke="black" fill="magenta"/>
   </g>
   <g id="cell79">
  <circle cx="501.872" cy="524.094" r="8.40683" stroke-width="0.5" stroke="black" fill="magenta"/>
  <circle cx="501.872" cy="524.094" r="5.04993" stroke-width="0.5" stroke="black" fill="magenta"/>
   </g>
   <g id="cell80">
  <circle cx="603.664" cy="486.355" r="8.4065" stroke-width="0.5" stroke="black" fill="green"/>
  <circle cx="603.664" cy="486.355" r="5.04982" stroke-width="0.5" stroke="black" fill="green"/>
   </g>
   <g id="cell81">
  <circle cx="430.068" cy="501.255" r="7.90743" stroke-width="0.5" stroke="black" fill="green"/>
  <circle cx="430.068" cy="501.255" r="4.80416" stroke-width="0.5" stroke="black" fill="green"/>
   </g>
   <g id="cell82">
  <circle cx="542.945" cy="496.275" r="8.40537" stroke-width="0.5" stroke="black" fill="magenta"/>
  <circle cx="542.945" cy="496.275" r="5.04944" stroke-width="0.5" stroke="black" fill="magenta"/>
   </g>
   <g id="cell130">
  <circle cx="573.63" cy="390.925" r="7.79564" stroke-width="0.5" stroke="black" fill="magenta"/>
  <circle cx="573.63" cy="390.925" r="4.73359" stroke-width="0.5" stroke="black" fill="magenta"/>
   </g>
   <g id="cell84">
  <circle cx="406.998" cy="481.057" r="8.27501" stroke-width="0.5" stroke="black" fill="green"/>
  <circle cx="406.998" cy="481.057" r="4.99358" stroke-width="0.5" stroke="black" fill="green"/>
   </g>
   <g id="cell140">
  <circle cx="529.093" cy="583.549" r="4.98271" stroke-width="0.5" stroke="black" fill="magenta"/>
  <circle cx="529.093" cy="583.549" r="3.05298" stroke-width="0.5" stroke="black" fill="magenta"/>
   </g>
   <g id="cell86">
  <circle cx="392.776" cy="565.28" r="8.28505" stroke-width="0.5" stroke="black" fill="magenta"/>
  <circle cx="392.776" cy="565.28" r="4.99844" stroke-width="0.5" stroke="black" fill="magenta"/>
   </g>
   <g id="cell87">
  <circle cx="436.984" cy="528.737" r="8.19195" stroke-width="0.5" stroke="black" fill="green"/>
  <circle cx="436.984" cy="528.737" r="4.95259" stroke-width="0.5" stroke="black" fill="green"/>
   </g>
   <g id="cell88">
  <circle cx="476.376" cy="611.475" r="8.39523" stroke-width="0.5" stroke="black" fill="green"/>
  <circle cx="476.376" cy="611.475" r="5.04581" stroke-width="0.5" stroke="black" fill="green"/>
   </g>
   <g id="cell89">
  <circle cx="436.556" cy="487.348" r="8.35235" stroke-width="0.5" stroke="black" fill="green"/>
  <circle cx="436.556" cy="487.348" r="5.02928" stroke-width="0.5" stroke="black" fill="green"/>
   </g>
   <g id="cell90">
  <circle cx="583.971" cy="502.925" r="8.3937" stroke-width="0.5" stroke="black" fill="magenta"/>
  <circle cx="583.971" cy="502.925" r="5.04523" stroke-width="0.5" stroke="black" fill="magenta"/>
   </g>
   <g id="cell136">
  <circle cx="527.12" cy="538.091" r="7.21189" stroke-width="0.5" stroke="black" fill="magenta"/>
  <circle cx="527.12" cy="538.091" r="4.37993" stroke-width="0.5" stroke="black" fill="magenta"/>
   </g>
   <g id="cell92">
  <circle cx="554.469" cy="592.862" r="8.26884" stroke-width="0.5" stroke="black" fill="green"/>
  <circle cx="554.469" cy="592.862" r="4.99296" stroke-width="0.5" stroke="black" fill="green"/>
   </g>
   <g id="cell93">
  <circle cx="573.672" cy="526.458" r="7.64504" stroke-width="0.5" stroke="black" fill="cyan"/>
  <circle cx="573.672" cy="526.458" r="4.65282" stroke-width="0.5" stroke="black" fill="cyan"/>
   </g>
   <g id="cell94">
  <circle cx="546.027" cy="469.342" r="8.38608" stroke-width="0.5" stroke="black" fill="cyan"/>
  <circle cx="546.027" cy="469.342" r="5.04229" stroke-width="0.5" stroke="black" fill="cyan"/>
   </g>
   <g id="cell95">
  <circle cx="462.641" cy="535.671" r="8.38608" stroke-width="0.5" stroke="black" fill="magenta"/>
  <circle cx="462.641" cy="535.671" r="5.04229" stroke-width="0.5" stroke="black" fill="magenta"/>
   </g>
   <g id="cell96">
  <circle cx="535.305" cy="376.531" r="8.3804" stroke-width="0.5" stroke="black" fill="magenta"/>
  <circle cx="535.305" cy="376.531" r="5.0403" stroke-width="0.5" stroke="black" fill="magenta"/>
   </g>
   <g id="cell97">
  <circle cx="569.677" cy="507.313" r="8.37565" stroke-width="0.5" stroke="black" fill="magenta"/>
  <circle cx="569.677" cy="507.313" r="5.03847" stroke-width="0.5" stroke="black" fill="magenta"/>
   </g>
   <g id="cell98">
  <circle cx="408.012" cy="567.387" r="8.36972" stroke-width="0.5" stroke="black" fill="green"/>
  <circle cx="408.012" cy="567.387" r="5.03563" stroke-width="0.5" stroke="black" fill="green"/>
   </g>
   <g id="cell99">
  <circle cx="573.1" cy="492.42" r="8.36972" stroke-width="0.5" stroke="black" fill="magenta"/>
  <circle cx="573.1" cy="492.42" r="5.03563" stroke-width="0.5" stroke="black" fill="magenta"/>
   </g>
   <g id="cell100">
  <circle cx="569.458" cy="543.621" r="8.35451" stroke-width="0.5" stroke="black" fill="cyan"/>
  <circle cx="569.458" cy="543.621" r="5.03013" stroke-width="0.5" stroke="black" fill="cyan"/>
   </g>
   <g id="cell101">
  <circle cx="462.213" cy="628.984" r="8.29103" stroke-width="0.5" stroke="black" fill="magenta"/>
  <circle cx="462.213" cy="628.984" r="5.00231" stroke-width="0.5" stroke="black" fill="magenta"/>
   </g>
   <g id="cell102">
  <circle cx="445.464" cy="500.576" r="8.35235" stroke-width="0.5" stroke="black" fill="green"/>
  <circle cx="445.464" cy="500.576" r="5.02928" stroke-width="0.5" stroke="black" fill="green"/>
   </g>
   <g id="cell103">
  <circle cx="542.645" cy="604.699" r="8.3396" stroke-width="0.5" stroke="black" fill="green"/>
  <circle cx="542.645" cy="604.699" r="5.02373" stroke-width="0.5" stroke="black" fill="green"/>
   </g>
   <g id="cell104">
  <circle cx="553.701" cy="541.334" r="8.347" stroke-width="0.5" stroke="black" fill="green"/>
  <circle cx="553.701" cy="541.334" r="5.02586" stroke-width="0.5" stroke="black" fill="green"/>
   </g>
   <g id="cell105">
  <circle cx="416.371" cy="493.861" r="8.33558" stroke-width="0.5" stroke="black" fill="green"/>
  <circle cx="416.371" cy="493.861" r="5.02128" stroke-width="0.5" stroke="black" fill="green"/>
   </g>
   <g id="cell106">
  <circle cx="639.258" cy="537.106" r="8.33911" stroke-width="0.5" stroke="black" fill="green"/>
  <circle cx="639.258" cy="537.106" r="5.02235" stroke-width="0.5" stroke="black" fill="green"/>
   </g>
   <g id="cell107">
  <circle cx="384.08" cy="511.957" r="8.31766" stroke-width="0.5" stroke="black" fill="cyan"/>
  <circle cx="384.08" cy="511.957" r="5.0126" stroke-width="0.5" stroke="black" fill="cyan"/>
   </g>
   <g id="cell108">
  <circle cx="459.655" cy="643.655" r="8.29103" stroke-width="0.5" stroke="black" fill="magenta"/>
  <circle cx="459.655" cy="643.655" r="5.00231" stroke-width="0.5" stroke="black" fill="magenta"/>
   </g>
   <g id="cell109">
  <circle cx="448.192" cy="634.089" r="8.29103" stroke-width="0.5" stroke="black" fill="magenta"/>
  <circle cx="448.192" cy="634.089" r="5.00231" stroke-width="0.5" stroke="black" fill="magenta"/>
   </g>
   <g id="cell110">
  <circle cx="539.569" cy="589.504" r="8.26884" stroke-width="0.5" stroke="black" fill="green"/>
  <circle cx="539.569" cy="589.504" r="4.99296" stroke-width="0.5" stroke="black" fill="green"/>
   </g>
   <g id="cell111">
  <circle cx="634.067" cy="552.037" r="8.26859" stroke-width="0.5" stroke="black" fill="green"/>
  <circle cx="634.067" cy="552.037" r="4.99227" stroke-width="0.5" stroke="black" fill="green"/>
   </g>
   <g id="cell112">
  <circle cx="382.04" cy="575.621" r="8.28505" stroke-width="0.5" stroke="black" fill="magenta"/>
  <circle cx="382.04" cy="575.621" r="4.99844" stroke-width="0.5" stroke="black" fill="magenta"/>
   </g>
   <g id="cell113">
  <circle cx="422.801" cy="479.43" r="8.27501" stroke-width="0.5" stroke="black" fill="green"/>
  <circle cx="422.801" cy="479.43" r="4.99358" stroke-width="0.5" stroke="black" fill="green"/>
   </g>
   <g id="cell114">
  <circle cx="492.678" cy="449.495" r="7.54483" stroke-width="0.5" stroke="black" fill="magenta"/>
  <circle cx="492.678" cy="449.495" r="4.60026" stroke-width="0.5" stroke="black" fill="magenta"/>
   </g>
   <g id="cell115">
  <circle cx="452.003" cy="524.556" r="8.23554" stroke-width="0.5" stroke="black" fill="green"/>
  <circle cx="452.003" cy="524.556" r="4.97447" stroke-width="0.5" stroke="black" fill="green"/>
   </g>
   <g id="cell116">
  <circle cx="369.921" cy="518.585" r="8.17984" stroke-width="0.5" stroke="black" fill="cyan"/>
  <circle cx="369.921" cy="518.585" r="4.94955" stroke-width="0.5" stroke="black" fill="cyan"/>
   </g>
   <g id="cell117">
  <circle cx="437.716" cy="513.636" r="6.27061" stroke-width="0.5" stroke="black" fill="green"/>
  <circle cx="437.716" cy="513.636" r="3.91953" stroke-width="0.5" stroke="black" fill="black"/>
   </g>
   <g id="cell118">
  <circle cx="528.909" cy="524.031" r="8.16806" stroke-width="0.5" stroke="black" fill="cyan"/>
  <circle cx="528.909" cy="524.031" r="4.93877" stroke-width="0.5" stroke="black" fill="cyan"/>
   </g>
   <g id="cell119">
  <circle cx="528.653" cy="627.656" r="8.1609" stroke-width="0.5" stroke="black" fill="green"/>
  <circle cx="528.653" cy="627.656" r="4.93506" stroke-width="0.5" stroke="black" fill="green"/>
   </g>
   <g id="cell121">
  <circle cx="388.882" cy="551.085" r="8.11318" stroke-width="0.5" stroke="black" fill="magenta"/>
  <circle cx="388.882" cy="551.085" r="4.91166" stroke-width="0.5" stroke="black" fill="magenta"/>
   </g>
   <g id="cell122">
  <circle cx="606.255" cy="470.757" r="8.09544" stroke-width="0.5" stroke="black" fill="cyan"/>
  <circle cx="606.255" cy="470.757" r="4.90058" stroke-width="0.5" stroke="black" fill="cyan"/>
   </g>
   <g id="cell123">
  <circle cx="501.904" cy="643.242" r="8.06667" stroke-width="0.5" stroke="black" fill="cyan"/>
  <circle cx="501.904" cy="643.242" r="4.88515" stroke-width="0.5" stroke="black" fill="cyan"/>
   </g>
   <g id="cell124">
  <circle cx="385.048" cy="590.248" r="8.05651" stroke-width="0.5" stroke="black" fill="green"/>
  <circle cx="385.048" cy="590.248" r="4.87966" stroke-width="0.5" stroke="black" fill="green"/>
   </g>
   <g id="cell125">
  <circle cx="449.672" cy="459.796" r="8.02153" stroke-width="0.5" stroke="black" fill="cyan"/>
  <circle cx="449.672" cy="459.796" r="4.86129" stroke-width="0.5" stroke="black" fill="cyan"/>
   </g>
   <g id="cell126">
  <circle cx="417.494" cy="509.3" r="7.90743" stroke-width="0.5" stroke="black" fill="green"/>
  <circle cx="417.494" cy="509.3" r="4.80416" stroke-width="0.5" stroke="black" fill="green"/>
   </g>
   <g id="cell127">
  <circle cx="408.826" cy="599.274" r="7.90853" stroke-width="0.5" stroke="black" fill="cyan"/>
  <circle cx="408.826" cy="599.274" r="4.79791" stroke-width="0.5" stroke="black" fill="cyan"/>
   </g>
   <g id="cell128">
  <circle cx="369.307" cy="533.534" r="7.74722" stroke-width="0.5" stroke="black" fill="cyan"/>
  <circle cx="369.307" cy="533.534" r="4.72275" stroke-width="0.5" stroke="black" fill="cyan"/>
   </g>
   <g id="cell131">
  <circle cx="583.265" cy="537.37" r="7.64504" stroke-width="0.5" stroke="black" fill="cyan"/>
  <circle cx="583.265" cy="537.37" r="4.65282" stroke-width="0.5" stroke="black" fill="cyan"/>
   </g>
   <g id="cell132">
  <circle cx="502.133" cy="439.745" r="7.54483" stroke-width="0.5" stroke="black" fill="magenta"/>
  <circle cx="502.133" cy="439.745" r="4.60026" stroke-width="0.5" stroke="black" fill="magenta"/>
   </g>
   <g id="cell133">
  <circle cx="532.156" cy="408.893" r="7.56839" stroke-width="0.5" stroke="black" fill="magenta"/>
  <circle cx="532.156" cy="408.893" r="4.59998" stroke-width="0.5" stroke="black" fill="magenta"/>
   </g>
   <g id="cell134">
  <circle cx="514.736" cy="584.288" r="6.14808" stroke-width="0.5" stroke="black" fill="magenta"/>
  <circle cx="514.736" cy="584.288" r="3.75649" stroke-width="0.5" stroke="black" fill="magenta"/>
   </g>
   <g id="cell135">
  <circle cx="565.086" cy="480.072" r="7.38797" stroke-width="0.5" stroke="black" fill="cyan"/>
  <circle cx="565.086" cy="480.072" r="4.49029" stroke-width="0.5" stroke="black" fill="cyan"/>
   </g>
   <g id="cell137">
  <circle cx="378.803" cy="477.165" r="7.01858" stroke-width="0.5" stroke="black" fill="magenta"/>
  <circle cx="378.803" cy="477.165" r="4.25518" stroke-width="0.5" stroke="black" fill="magenta"/>
   </g>
   <g id="cell138">
  <circle cx="522.772" cy="589.945" r="4.98271" stroke-width="0.5" stroke="black" fill="magenta"/>
  <circle cx="522.772" cy="589.945" r="3.05298" stroke-width="0.5" stroke="black" fill="magenta"/>
   </g>
   <g id="cell139">
  <circle cx="514.159" cy="608.128" r="6.56141" stroke-width="0.5" stroke="black" fill="green"/>
  <circle cx="514.159" cy="608.128" r="3.97775" stroke-width="0.5" stroke="black" fill="green"/>
   </g>
  </g>
 </g>
  <rect x="775" y="1035" width="200" height="10" stroke-width="2" stroke="rgb(255,255,255)" fill="rgb(0,0,0)"/>
  <text x="781.25" y="1028.75"
   font-family="Arial" font-size="25" fill="black" >
   200 &#956;m
  </text>
  <text x="25" y="1045"
   font-family="Arial" font-size="18.75" fill="black" >
   0 days, 0 hours, 0 minutes, and 28.6868 seconds
  </text>
  <rect x="0" y="70" width="1000" height="1000" stroke-width="2" stroke="rgb(0,0,0)" fill="none"/>
</svg>
