<?xml version="1.0" encoding="UTF-8" standalone="no"?>
<!-- Created with PhysiCell (http://PhysiCell.MathCancer.org/) -->
<svg 
 xmlns:dc="http://purl.org/dc/elements/1.1/" 
 xmlns:cc="http://creativecommons.org/ns#" 
 xmlns:rdf="http://www.w3.org/1999/02/22-rdf-syntax-ns#" 
 xmlns:svg="http://www.w3.org/2000/svg" 
 xmlns="http://www.w3.org/2000/svg" 
 version="1.1" 
 width="1000" 
 height="1070" 
 id="svg2">
  <rect x="0" y="0" width="1000" height="1070" stroke-width="2" stroke="white" fill="white"/>
  <text x="12.5" y="30"
   font-family="Arial" font-size="25" fill="black" >
   Current time: 0 days, 20 hours, and 30.00 minutes, z = 0.00 &#956;m
  </text>
  <text x="12.5" y="57.5"
   font-family="Arial" font-size="23.75" fill="black" >
   134 agents
  </text>
 <g id="tissue" 
    transform="translate(0,1070) scale(1,-1)">
  <g id="ECM">
  </g>
  <g id="cells">
   <g id="cell0">
  <circle cx="514.657" cy="532.076" r="8.40494" stroke-width="0.5" stroke="black" fill="magenta"/>
  <circle cx="514.657" cy="532.076" r="5.04929" stroke-width="0.5" stroke="black" fill="magenta"/>
   </g>
   <g id="cell1">
  <circle cx="600.195" cy="520.31" r="1.65305" stroke-width="0.5" stroke="black" fill="magenta"/>
  <circle cx="600.195" cy="520.31" r="1.61721" stroke-width="0.5" stroke="black" fill="black"/>
   </g>
   <g id="cell2">
  <circle cx="512.165" cy="599.332" r="7.21189" stroke-width="0.5" stroke="black" fill="magenta"/>
  <circle cx="512.165" cy="599.332" r="4.37993" stroke-width="0.5" stroke="black" fill="magenta"/>
   </g>
   <g id="cell3">
  <circle cx="538.879" cy="540.945" r="6.89675" stroke-width="0.5" stroke="black" fill="magenta"/>
  <circle cx="538.879" cy="540.945" r="4.17024" stroke-width="0.5" stroke="black" fill="magenta"/>
   </g>
   <g id="cell4">
  <circle cx="473.121" cy="440.451" r="8.40576" stroke-width="0.5" stroke="black" fill="magenta"/>
  <circle cx="473.121" cy="440.451" r="5.04957" stroke-width="0.5" stroke="black" fill="magenta"/>
   </g>
   <g id="cell5">
  <circle cx="465.749" cy="494.257" r="8.41271" stroke-width="0.5" stroke="black" fill="magenta"/>
  <circle cx="465.749" cy="494.257" r="5.05167" stroke-width="0.5" stroke="black" fill="magenta"/>
   </g>
   <g id="cell6">
  <circle cx="594.297" cy="513.469" r="8.38753" stroke-width="0.5" stroke="black" fill="magenta"/>
  <circle cx="594.297" cy="513.469" r="5.04286" stroke-width="0.5" stroke="black" fill="magenta"/>
   </g>
   <g id="cell7">
  <circle cx="511.617" cy="464.545" r="8.41271" stroke-width="0.5" stroke="black" fill="magenta"/>
  <circle cx="511.617" cy="464.545" r="5.05167" stroke-width="0.5" stroke="black" fill="magenta"/>
   </g>
   <g id="cell8">
  <circle cx="374.599" cy="547.508" r="8.41271" stroke-width="0.5" stroke="black" fill="magenta"/>
  <circle cx="374.599" cy="547.508" r="5.05167" stroke-width="0.5" stroke="black" fill="magenta"/>
   </g>
   <g id="cell9">
  <circle cx="463.979" cy="602.082" r="8.38608" stroke-width="0.5" stroke="black" fill="magenta"/>
  <circle cx="463.979" cy="602.082" r="5.04229" stroke-width="0.5" stroke="black" fill="magenta"/>
   </g>
   <g id="cell10">
  <circle cx="587.716" cy="391.413" r="7.59183" stroke-width="0.5" stroke="black" fill="magenta"/>
  <circle cx="587.716" cy="391.413" r="4.61399" stroke-width="0.5" stroke="black" fill="magenta"/>
   </g>
   <g id="cell11">
  <circle cx="589.748" cy="590.273" r="8.41271" stroke-width="0.5" stroke="black" fill="magenta"/>
  <circle cx="589.748" cy="590.273" r="5.05167" stroke-width="0.5" stroke="black" fill="magenta"/>
   </g>
   <g id="cell12">
  <circle cx="504.972" cy="587.161" r="8.41271" stroke-width="0.5" stroke="black" fill="magenta"/>
  <circle cx="504.972" cy="587.161" r="5.05167" stroke-width="0.5" stroke="black" fill="magenta"/>
   </g>
   <g id="cell13">
  <circle cx="378.688" cy="561.474" r="8.0125" stroke-width="0.5" stroke="black" fill="magenta"/>
  <circle cx="378.688" cy="561.474" r="4.85798" stroke-width="0.5" stroke="black" fill="magenta"/>
   </g>
   <g id="cell14">
  <circle cx="523.138" cy="398.751" r="7.30216" stroke-width="0.5" stroke="black" fill="magenta"/>
  <circle cx="523.138" cy="398.751" r="4.43696" stroke-width="0.5" stroke="black" fill="magenta"/>
   </g>
   <g id="cell15">
  <circle cx="388.621" cy="483.021" r="6.72714" stroke-width="0.5" stroke="black" fill="magenta"/>
  <circle cx="388.621" cy="483.021" r="4.04864" stroke-width="0.5" stroke="black" fill="magenta"/>
   </g>
   <g id="cell16">
  <circle cx="429.97" cy="414.348" r="8.41271" stroke-width="0.5" stroke="black" fill="magenta"/>
  <circle cx="429.97" cy="414.348" r="5.05167" stroke-width="0.5" stroke="black" fill="magenta"/>
   </g>
   <g id="cell17">
  <circle cx="587.968" cy="488.376" r="8.35568" stroke-width="0.5" stroke="black" fill="magenta"/>
  <circle cx="587.968" cy="488.376" r="5.02965" stroke-width="0.5" stroke="black" fill="magenta"/>
   </g>
   <g id="cell18">
  <circle cx="510.167" cy="393.262" r="8.40614" stroke-width="0.5" stroke="black" fill="magenta"/>
  <circle cx="510.167" cy="393.262" r="5.0497" stroke-width="0.5" stroke="black" fill="magenta"/>
   </g>
   <g id="cell19">
  <circle cx="448.054" cy="539.33" r="8.37742" stroke-width="0.5" stroke="black" fill="magenta"/>
  <circle cx="448.054" cy="539.33" r="5.03881" stroke-width="0.5" stroke="black" fill="magenta"/>
   </g>
   <g id="cell20">
  <circle cx="528.302" cy="422.461" r="8.41271" stroke-width="0.5" stroke="black" fill="magenta"/>
  <circle cx="528.302" cy="422.461" r="5.05167" stroke-width="0.5" stroke="black" fill="magenta"/>
   </g>
   <g id="cell21">
  <circle cx="465.045" cy="637.046" r="1.21232" stroke-width="0.5" stroke="black" fill="magenta"/>
  <circle cx="465.045" cy="637.046" r="1.20408" stroke-width="0.5" stroke="black" fill="black"/>
   </g>
   <g id="cell22">
  <circle cx="558.17" cy="497.983" r="8.36358" stroke-width="0.5" stroke="black" fill="magenta"/>
  <circle cx="558.17" cy="497.983" r="5.03357" stroke-width="0.5" stroke="black" fill="magenta"/>
   </g>
   <g id="cell23">
  <circle cx="536.954" cy="481.808" r="8.41271" stroke-width="0.5" stroke="black" fill="magenta"/>
  <circle cx="536.954" cy="481.808" r="5.05167" stroke-width="0.5" stroke="black" fill="magenta"/>
   </g>
   <g id="cell24">
  <circle cx="561.789" cy="381.86" r="8.41271" stroke-width="0.5" stroke="black" fill="magenta"/>
  <circle cx="561.789" cy="381.86" r="5.05167" stroke-width="0.5" stroke="black" fill="magenta"/>
   </g>
   <g id="cell25">
  <circle cx="647.874" cy="559.486" r="8.22066" stroke-width="0.5" stroke="black" fill="green"/>
  <circle cx="647.874" cy="559.486" r="4.96969" stroke-width="0.5" stroke="black" fill="green"/>
   </g>
   <g id="cell26">
  <circle cx="550.628" cy="401.222" r="8.41271" stroke-width="0.5" stroke="black" fill="green"/>
  <circle cx="550.628" cy="401.222" r="5.05167" stroke-width="0.5" stroke="black" fill="green"/>
   </g>
   <g id="cell27">
  <circle cx="457.446" cy="388.678" r="8.41271" stroke-width="0.5" stroke="black" fill="green"/>
  <circle cx="457.446" cy="388.678" r="5.05167" stroke-width="0.5" stroke="black" fill="green"/>
   </g>
   <g id="cell28">
  <circle cx="432.943" cy="543.629" r="8.41271" stroke-width="0.5" stroke="black" fill="green"/>
  <circle cx="432.943" cy="543.629" r="5.05167" stroke-width="0.5" stroke="black" fill="green"/>
   </g>
   <g id="cell29">
  <circle cx="467.377" cy="521.002" r="8.17647" stroke-width="0.5" stroke="black" fill="green"/>
  <circle cx="467.377" cy="521.002" r="4.94506" stroke-width="0.5" stroke="black" fill="green"/>
   </g>
   <g id="cell30">
  <circle cx="477.809" cy="539.187" r="8.41271" stroke-width="0.5" stroke="black" fill="green"/>
  <circle cx="477.809" cy="539.187" r="5.05167" stroke-width="0.5" stroke="black" fill="green"/>
   </g>
   <g id="cell31">
  <circle cx="412.397" cy="538.415" r="8.41271" stroke-width="0.5" stroke="black" fill="green"/>
  <circle cx="412.397" cy="538.415" r="5.05167" stroke-width="0.5" stroke="black" fill="green"/>
   </g>
   <g id="cell32">
  <circle cx="430.332" cy="465.449" r="8.39316" stroke-width="0.5" stroke="black" fill="green"/>
  <circle cx="430.332" cy="465.449" r="5.04503" stroke-width="0.5" stroke="black" fill="green"/>
   </g>
   <g id="cell33">
  <circle cx="498.876" cy="413.228" r="8.39571" stroke-width="0.5" stroke="black" fill="green"/>
  <circle cx="498.876" cy="413.228" r="5.04599" stroke-width="0.5" stroke="black" fill="green"/>
   </g>
   <g id="cell34">
  <circle cx="392.09" cy="453.611" r="8.39144" stroke-width="0.5" stroke="black" fill="green"/>
  <circle cx="392.09" cy="453.611" r="5.04437" stroke-width="0.5" stroke="black" fill="green"/>
   </g>
   <g id="cell35">
  <circle cx="544.015" cy="553.743" r="8.32543" stroke-width="0.5" stroke="black" fill="green"/>
  <circle cx="544.015" cy="553.743" r="5.01617" stroke-width="0.5" stroke="black" fill="green"/>
   </g>
   <g id="cell36">
  <circle cx="396.373" cy="579.799" r="7.93688" stroke-width="0.5" stroke="black" fill="green"/>
  <circle cx="396.373" cy="579.799" r="4.81381" stroke-width="0.5" stroke="black" fill="green"/>
   </g>
   <g id="cell37">
  <circle cx="634.871" cy="460.618" r="8.41271" stroke-width="0.5" stroke="black" fill="green"/>
  <circle cx="634.871" cy="460.618" r="5.05167" stroke-width="0.5" stroke="black" fill="green"/>
   </g>
   <g id="cell38">
  <circle cx="526.831" cy="600.386" r="8.37935" stroke-width="0.5" stroke="black" fill="green"/>
  <circle cx="526.831" cy="600.386" r="5.0396" stroke-width="0.5" stroke="black" fill="green"/>
   </g>
   <g id="cell39">
  <circle cx="618.14" cy="495.069" r="8.4045" stroke-width="0.5" stroke="black" fill="green"/>
  <circle cx="618.14" cy="495.069" r="5.04914" stroke-width="0.5" stroke="black" fill="green"/>
   </g>
   <g id="cell40">
  <circle cx="485.352" cy="571.782" r="8.41271" stroke-width="0.5" stroke="black" fill="green"/>
  <circle cx="485.352" cy="571.782" r="5.05167" stroke-width="0.5" stroke="black" fill="green"/>
   </g>
   <g id="cell41">
  <circle cx="365.131" cy="480.803" r="8.41271" stroke-width="0.5" stroke="black" fill="green"/>
  <circle cx="365.131" cy="480.803" r="5.05167" stroke-width="0.5" stroke="black" fill="green"/>
   </g>
   <g id="cell42">
  <circle cx="452.406" cy="486.302" r="8.38429" stroke-width="0.5" stroke="black" fill="green"/>
  <circle cx="452.406" cy="486.302" r="5.04196" stroke-width="0.5" stroke="black" fill="green"/>
   </g>
   <g id="cell43">
  <circle cx="558.602" cy="445.8" r="8.41271" stroke-width="0.5" stroke="black" fill="green"/>
  <circle cx="558.602" cy="445.8" r="5.05167" stroke-width="0.5" stroke="black" fill="green"/>
   </g>
   <g id="cell44">
  <circle cx="477.493" cy="627.413" r="8.38957" stroke-width="0.5" stroke="black" fill="green"/>
  <circle cx="477.493" cy="627.413" r="5.04365" stroke-width="0.5" stroke="black" fill="green"/>
   </g>
   <g id="cell45">
  <circle cx="416.826" cy="553.782" r="8.35568" stroke-width="0.5" stroke="black" fill="green"/>
  <circle cx="416.826" cy="553.782" r="5.02965" stroke-width="0.5" stroke="black" fill="green"/>
   </g>
   <g id="cell46">
  <circle cx="517.161" cy="612.611" r="8.07654" stroke-width="0.5" stroke="black" fill="green"/>
  <circle cx="517.161" cy="612.611" r="4.89046" stroke-width="0.5" stroke="black" fill="green"/>
   </g>
   <g id="cell47">
  <circle cx="501.75" cy="508.854" r="8.41271" stroke-width="0.5" stroke="black" fill="green"/>
  <circle cx="501.75" cy="508.854" r="5.05167" stroke-width="0.5" stroke="black" fill="green"/>
   </g>
   <g id="cell48">
  <circle cx="564.702" cy="603.602" r="8.41271" stroke-width="0.5" stroke="black" fill="green"/>
  <circle cx="564.702" cy="603.602" r="5.05167" stroke-width="0.5" stroke="black" fill="green"/>
   </g>
   <g id="cell49">
  <circle cx="434.042" cy="394.656" r="7.63698" stroke-width="0.5" stroke="black" fill="green"/>
  <circle cx="434.042" cy="394.656" r="4.64085" stroke-width="0.5" stroke="black" fill="green"/>
   </g>
   <g id="cell50">
  <circle cx="515.561" cy="516.67" r="8.41271" stroke-width="0.5" stroke="black" fill="cyan"/>
  <circle cx="515.561" cy="516.67" r="5.05167" stroke-width="0.5" stroke="black" fill="cyan"/>
   </g>
   <g id="cell51">
  <circle cx="394.123" cy="601.496" r="7.7401" stroke-width="0.5" stroke="black" fill="cyan"/>
  <circle cx="394.123" cy="601.496" r="4.70142" stroke-width="0.5" stroke="black" fill="cyan"/>
   </g>
   <g id="cell120">
  <circle cx="418.867" cy="610.462" r="8.06667" stroke-width="0.5" stroke="black" fill="cyan"/>
  <circle cx="418.867" cy="610.462" r="4.88515" stroke-width="0.5" stroke="black" fill="cyan"/>
   </g>
   <g id="cell53">
  <circle cx="571.285" cy="436.003" r="8.41271" stroke-width="0.5" stroke="black" fill="cyan"/>
  <circle cx="571.285" cy="436.003" r="5.05167" stroke-width="0.5" stroke="black" fill="cyan"/>
   </g>
   <g id="cell54">
  <circle cx="476.421" cy="425.282" r="8.41271" stroke-width="0.5" stroke="black" fill="cyan"/>
  <circle cx="476.421" cy="425.282" r="5.05167" stroke-width="0.5" stroke="black" fill="cyan"/>
   </g>
   <g id="cell55">
  <circle cx="525.606" cy="471.29" r="8.41271" stroke-width="0.5" stroke="black" fill="cyan"/>
  <circle cx="525.606" cy="471.29" r="5.05167" stroke-width="0.5" stroke="black" fill="cyan"/>
   </g>
   <g id="cell56">
  <circle cx="615.793" cy="522.539" r="8.41271" stroke-width="0.5" stroke="black" fill="cyan"/>
  <circle cx="615.793" cy="522.539" r="5.05167" stroke-width="0.5" stroke="black" fill="cyan"/>
   </g>
   <g id="cell57">
  <circle cx="418.528" cy="625.754" r="8.06667" stroke-width="0.5" stroke="black" fill="cyan"/>
  <circle cx="418.528" cy="625.754" r="4.88515" stroke-width="0.5" stroke="black" fill="cyan"/>
   </g>
   <g id="cell58">
  <circle cx="551.981" cy="483.993" r="8.41271" stroke-width="0.5" stroke="black" fill="cyan"/>
  <circle cx="551.981" cy="483.993" r="5.05167" stroke-width="0.5" stroke="black" fill="cyan"/>
   </g>
   <g id="cell59">
  <circle cx="385.164" cy="439.185" r="8.41271" stroke-width="0.5" stroke="black" fill="cyan"/>
  <circle cx="385.164" cy="439.185" r="5.05167" stroke-width="0.5" stroke="black" fill="cyan"/>
   </g>
   <g id="cell60">
  <circle cx="590.186" cy="473.1" r="7.98892" stroke-width="0.5" stroke="black" fill="cyan"/>
  <circle cx="590.186" cy="473.1" r="4.84272" stroke-width="0.5" stroke="black" fill="cyan"/>
   </g>
   <g id="cell61">
  <circle cx="554.623" cy="614.976" r="2.42814" stroke-width="0.5" stroke="black" fill="cyan"/>
  <circle cx="554.623" cy="614.976" r="2.17648" stroke-width="0.5" stroke="black" fill="black"/>
   </g>
   <g id="cell62">
  <circle cx="526.587" cy="445.387" r="8.41271" stroke-width="0.5" stroke="black" fill="cyan"/>
  <circle cx="526.587" cy="445.387" r="5.05167" stroke-width="0.5" stroke="black" fill="cyan"/>
   </g>
   <g id="cell63">
  <circle cx="583.03" cy="552.617" r="8.37935" stroke-width="0.5" stroke="black" fill="cyan"/>
  <circle cx="583.03" cy="552.617" r="5.0396" stroke-width="0.5" stroke="black" fill="cyan"/>
   </g>
   <g id="cell64">
  <circle cx="513.726" cy="633.769" r="7.95045" stroke-width="0.5" stroke="black" fill="cyan"/>
  <circle cx="513.726" cy="633.769" r="4.82139" stroke-width="0.5" stroke="black" fill="cyan"/>
   </g>
   <g id="cell65">
  <circle cx="535.312" cy="458.637" r="8.37742" stroke-width="0.5" stroke="black" fill="cyan"/>
  <circle cx="535.312" cy="458.637" r="5.03881" stroke-width="0.5" stroke="black" fill="cyan"/>
   </g>
   <g id="cell66">
  <circle cx="544.28" cy="528.407" r="8.08613" stroke-width="0.5" stroke="black" fill="cyan"/>
  <circle cx="544.28" cy="528.407" r="4.8956" stroke-width="0.5" stroke="black" fill="cyan"/>
   </g>
   <g id="cell67">
  <circle cx="354.666" cy="492.696" r="8.41271" stroke-width="0.5" stroke="black" fill="cyan"/>
  <circle cx="354.666" cy="492.696" r="5.05167" stroke-width="0.5" stroke="black" fill="cyan"/>
   </g>
   <g id="cell68">
  <circle cx="559.468" cy="556.1" r="8.41271" stroke-width="0.5" stroke="black" fill="cyan"/>
  <circle cx="559.468" cy="556.1" r="5.05167" stroke-width="0.5" stroke="black" fill="cyan"/>
   </g>
   <g id="cell69">
  <circle cx="437.02" cy="450.927" r="8.40632" stroke-width="0.5" stroke="black" fill="cyan"/>
  <circle cx="437.02" cy="450.927" r="5.04976" stroke-width="0.5" stroke="black" fill="cyan"/>
   </g>
   <g id="cell70">
  <circle cx="577.747" cy="478.938" r="7.08639" stroke-width="0.5" stroke="black" fill="cyan"/>
  <circle cx="577.747" cy="478.938" r="4.29876" stroke-width="0.5" stroke="black" fill="cyan"/>
   </g>
   <g id="cell71">
  <circle cx="382.64" cy="527.228" r="7.51721" stroke-width="0.5" stroke="black" fill="cyan"/>
  <circle cx="382.64" cy="527.228" r="4.59399" stroke-width="0.5" stroke="black" fill="cyan"/>
   </g>
   <g id="cell72">
  <circle cx="534.82" cy="508.876" r="8.41271" stroke-width="0.5" stroke="black" fill="cyan"/>
  <circle cx="534.82" cy="508.876" r="5.05167" stroke-width="0.5" stroke="black" fill="cyan"/>
   </g>
   <g id="cell129">
  <circle cx="421.616" cy="402.086" r="7.63698" stroke-width="0.5" stroke="black" fill="green"/>
  <circle cx="421.616" cy="402.086" r="4.64085" stroke-width="0.5" stroke="black" fill="green"/>
   </g>
   <g id="cell74">
  <circle cx="542.625" cy="444.457" r="8.41271" stroke-width="0.5" stroke="black" fill="cyan"/>
  <circle cx="542.625" cy="444.457" r="5.05167" stroke-width="0.5" stroke="black" fill="cyan"/>
   </g>
   <g id="cell75">
  <circle cx="443.242" cy="473.912" r="7.89011" stroke-width="0.5" stroke="black" fill="cyan"/>
  <circle cx="443.242" cy="473.912" r="4.78843" stroke-width="0.5" stroke="black" fill="cyan"/>
   </g>
   <g id="cell76">
  <circle cx="522.647" cy="384.702" r="8.36989" stroke-width="0.5" stroke="black" fill="magenta"/>
  <circle cx="522.647" cy="384.702" r="5.03608" stroke-width="0.5" stroke="black" fill="magenta"/>
   </g>
   <g id="cell77">
  <circle cx="487.593" cy="436.13" r="8.20908" stroke-width="0.5" stroke="black" fill="magenta"/>
  <circle cx="487.593" cy="436.13" r="4.9605" stroke-width="0.5" stroke="black" fill="magenta"/>
   </g>
   <g id="cell78">
  <circle cx="372.085" cy="465.173" r="8.40537" stroke-width="0.5" stroke="black" fill="magenta"/>
  <circle cx="372.085" cy="465.173" r="5.04944" stroke-width="0.5" stroke="black" fill="magenta"/>
   </g>
   <g id="cell79">
  <circle cx="501.795" cy="524.361" r="8.40494" stroke-width="0.5" stroke="black" fill="magenta"/>
  <circle cx="501.795" cy="524.361" r="5.04929" stroke-width="0.5" stroke="black" fill="magenta"/>
   </g>
   <g id="cell80">
  <circle cx="604.208" cy="486.395" r="8.4045" stroke-width="0.5" stroke="black" fill="green"/>
  <circle cx="604.208" cy="486.395" r="5.04914" stroke-width="0.5" stroke="black" fill="green"/>
   </g>
   <g id="cell81">
  <circle cx="429.951" cy="500.891" r="7.73623" stroke-width="0.5" stroke="black" fill="green"/>
  <circle cx="429.951" cy="500.891" r="4.70887" stroke-width="0.5" stroke="black" fill="green"/>
   </g>
   <g id="cell82">
  <circle cx="542.923" cy="495.954" r="8.403" stroke-width="0.5" stroke="black" fill="magenta"/>
  <circle cx="542.923" cy="495.954" r="5.04863" stroke-width="0.5" stroke="black" fill="magenta"/>
   </g>
   <g id="cell130">
  <circle cx="573.817" cy="391.132" r="7.59183" stroke-width="0.5" stroke="black" fill="magenta"/>
  <circle cx="573.817" cy="391.132" r="4.61399" stroke-width="0.5" stroke="black" fill="magenta"/>
   </g>
   <g id="cell84">
  <circle cx="407.411" cy="481.068" r="8.2293" stroke-width="0.5" stroke="black" fill="green"/>
  <circle cx="407.411" cy="481.068" r="4.97154" stroke-width="0.5" stroke="black" fill="green"/>
   </g>
   <g id="cell85">
  <circle cx="405.579" cy="447.367" r="1.2694" stroke-width="0.5" stroke="black" fill="green"/>
  <circle cx="405.579" cy="447.367" r="1.2625" stroke-width="0.5" stroke="black" fill="black"/>
   </g>
   <g id="cell86">
  <circle cx="392.759" cy="565.307" r="8.24273" stroke-width="0.5" stroke="black" fill="magenta"/>
  <circle cx="392.759" cy="565.307" r="4.97827" stroke-width="0.5" stroke="black" fill="magenta"/>
   </g>
   <g id="cell87">
  <circle cx="437.235" cy="528.72" r="8.11805" stroke-width="0.5" stroke="black" fill="green"/>
  <circle cx="437.235" cy="528.72" r="4.91472" stroke-width="0.5" stroke="black" fill="green"/>
   </g>
   <g id="cell88">
  <circle cx="476.373" cy="611.476" r="8.38957" stroke-width="0.5" stroke="black" fill="green"/>
  <circle cx="476.373" cy="611.476" r="5.04365" stroke-width="0.5" stroke="black" fill="green"/>
   </g>
   <g id="cell89">
  <circle cx="436.509" cy="487.449" r="8.33259" stroke-width="0.5" stroke="black" fill="green"/>
  <circle cx="436.509" cy="487.449" r="5.02092" stroke-width="0.5" stroke="black" fill="green"/>
   </g>
   <g id="cell90">
  <circle cx="583.766" cy="502.689" r="8.38753" stroke-width="0.5" stroke="black" fill="magenta"/>
  <circle cx="583.766" cy="502.689" r="5.04286" stroke-width="0.5" stroke="black" fill="magenta"/>
   </g>
   <g id="cell136">
  <circle cx="527.322" cy="536.83" r="6.89675" stroke-width="0.5" stroke="black" fill="magenta"/>
  <circle cx="527.322" cy="536.83" r="4.17024" stroke-width="0.5" stroke="black" fill="magenta"/>
   </g>
   <g id="cell92">
  <circle cx="553.351" cy="592.539" r="8.22101" stroke-width="0.5" stroke="black" fill="green"/>
  <circle cx="553.351" cy="592.539" r="4.97066" stroke-width="0.5" stroke="black" fill="green"/>
   </g>
   <g id="cell93">
  <circle cx="573.902" cy="526.647" r="7.3932" stroke-width="0.5" stroke="black" fill="cyan"/>
  <circle cx="573.902" cy="526.647" r="4.50413" stroke-width="0.5" stroke="black" fill="cyan"/>
   </g>
   <g id="cell94">
  <circle cx="546.806" cy="469.341" r="8.37742" stroke-width="0.5" stroke="black" fill="cyan"/>
  <circle cx="546.806" cy="469.341" r="5.03881" stroke-width="0.5" stroke="black" fill="cyan"/>
   </g>
   <g id="cell95">
  <circle cx="462.667" cy="535.601" r="8.37742" stroke-width="0.5" stroke="black" fill="magenta"/>
  <circle cx="462.667" cy="535.601" r="5.03881" stroke-width="0.5" stroke="black" fill="magenta"/>
   </g>
   <g id="cell96">
  <circle cx="535.306" cy="376.531" r="8.36989" stroke-width="0.5" stroke="black" fill="magenta"/>
  <circle cx="535.306" cy="376.531" r="5.03608" stroke-width="0.5" stroke="black" fill="magenta"/>
   </g>
   <g id="cell97">
  <circle cx="569.655" cy="507.462" r="8.36358" stroke-width="0.5" stroke="black" fill="magenta"/>
  <circle cx="569.655" cy="507.462" r="5.03357" stroke-width="0.5" stroke="black" fill="magenta"/>
   </g>
   <g id="cell98">
  <circle cx="407.978" cy="567.153" r="8.35568" stroke-width="0.5" stroke="black" fill="green"/>
  <circle cx="407.978" cy="567.153" r="5.02965" stroke-width="0.5" stroke="black" fill="green"/>
   </g>
   <g id="cell99">
  <circle cx="572.624" cy="492.404" r="8.35568" stroke-width="0.5" stroke="black" fill="magenta"/>
  <circle cx="572.624" cy="492.404" r="5.02965" stroke-width="0.5" stroke="black" fill="magenta"/>
   </g>
   <g id="cell100">
  <circle cx="569.545" cy="544.037" r="8.33547" stroke-width="0.5" stroke="black" fill="cyan"/>
  <circle cx="569.545" cy="544.037" r="5.02208" stroke-width="0.5" stroke="black" fill="cyan"/>
   </g>
   <g id="cell101">
  <circle cx="462.166" cy="629.013" r="8.25071" stroke-width="0.5" stroke="black" fill="magenta"/>
  <circle cx="462.166" cy="629.013" r="4.98361" stroke-width="0.5" stroke="black" fill="magenta"/>
   </g>
   <g id="cell102">
  <circle cx="445.418" cy="500.481" r="8.33259" stroke-width="0.5" stroke="black" fill="green"/>
  <circle cx="445.418" cy="500.481" r="5.02092" stroke-width="0.5" stroke="black" fill="green"/>
   </g>
   <g id="cell103">
  <circle cx="542.571" cy="604.134" r="8.3156" stroke-width="0.5" stroke="black" fill="green"/>
  <circle cx="542.571" cy="604.134" r="5.01325" stroke-width="0.5" stroke="black" fill="green"/>
   </g>
   <g id="cell104">
  <circle cx="553.657" cy="540.996" r="8.32543" stroke-width="0.5" stroke="black" fill="green"/>
  <circle cx="553.657" cy="540.996" r="5.01617" stroke-width="0.5" stroke="black" fill="green"/>
   </g>
   <g id="cell105">
  <circle cx="416.525" cy="493.852" r="8.31021" stroke-width="0.5" stroke="black" fill="green"/>
  <circle cx="416.525" cy="493.852" r="5.00986" stroke-width="0.5" stroke="black" fill="green"/>
   </g>
   <g id="cell106">
  <circle cx="639.245" cy="537.144" r="8.31491" stroke-width="0.5" stroke="black" fill="green"/>
  <circle cx="639.245" cy="537.144" r="5.01133" stroke-width="0.5" stroke="black" fill="green"/>
   </g>
   <g id="cell107">
  <circle cx="383.788" cy="512.303" r="8.28629" stroke-width="0.5" stroke="black" fill="cyan"/>
  <circle cx="383.788" cy="512.303" r="4.99786" stroke-width="0.5" stroke="black" fill="cyan"/>
   </g>
   <g id="cell108">
  <circle cx="459.59" cy="643.606" r="8.25071" stroke-width="0.5" stroke="black" fill="magenta"/>
  <circle cx="459.59" cy="643.606" r="4.98361" stroke-width="0.5" stroke="black" fill="magenta"/>
   </g>
   <g id="cell109">
  <circle cx="448.203" cy="634.061" r="8.25071" stroke-width="0.5" stroke="black" fill="magenta"/>
  <circle cx="448.203" cy="634.061" r="4.98361" stroke-width="0.5" stroke="black" fill="magenta"/>
   </g>
   <g id="cell110">
  <circle cx="538.009" cy="589.162" r="8.22101" stroke-width="0.5" stroke="black" fill="green"/>
  <circle cx="538.009" cy="589.162" r="4.97066" stroke-width="0.5" stroke="black" fill="green"/>
   </g>
   <g id="cell111">
  <circle cx="634.125" cy="552.024" r="8.22066" stroke-width="0.5" stroke="black" fill="green"/>
  <circle cx="634.125" cy="552.024" r="4.96969" stroke-width="0.5" stroke="black" fill="green"/>
   </g>
   <g id="cell112">
  <circle cx="381.996" cy="575.518" r="8.24273" stroke-width="0.5" stroke="black" fill="magenta"/>
  <circle cx="381.996" cy="575.518" r="4.97827" stroke-width="0.5" stroke="black" fill="magenta"/>
   </g>
   <g id="cell113">
  <circle cx="422.982" cy="479.462" r="8.2293" stroke-width="0.5" stroke="black" fill="green"/>
  <circle cx="422.982" cy="479.462" r="4.97154" stroke-width="0.5" stroke="black" fill="green"/>
   </g>
   <g id="cell114">
  <circle cx="493.469" cy="448.653" r="7.25681" stroke-width="0.5" stroke="black" fill="magenta"/>
  <circle cx="493.469" cy="448.653" r="4.43042" stroke-width="0.5" stroke="black" fill="magenta"/>
   </g>
   <g id="cell115">
  <circle cx="452.147" cy="524.446" r="8.17647" stroke-width="0.5" stroke="black" fill="green"/>
  <circle cx="452.147" cy="524.446" r="4.94506" stroke-width="0.5" stroke="black" fill="green"/>
   </g>
   <g id="cell116">
  <circle cx="369.888" cy="519.157" r="8.10147" stroke-width="0.5" stroke="black" fill="cyan"/>
  <circle cx="369.888" cy="519.157" r="4.91031" stroke-width="0.5" stroke="black" fill="cyan"/>
   </g>
   <g id="cell117">
  <circle cx="437.376" cy="513.674" r="8.11805" stroke-width="0.5" stroke="black" fill="green"/>
  <circle cx="437.376" cy="513.674" r="4.91472" stroke-width="0.5" stroke="black" fill="green"/>
   </g>
   <g id="cell118">
  <circle cx="529.627" cy="523.368" r="8.08613" stroke-width="0.5" stroke="black" fill="cyan"/>
  <circle cx="529.627" cy="523.368" r="4.8956" stroke-width="0.5" stroke="black" fill="cyan"/>
   </g>
   <g id="cell119">
  <circle cx="526.183" cy="625.067" r="8.07654" stroke-width="0.5" stroke="black" fill="green"/>
  <circle cx="526.183" cy="625.067" r="4.89046" stroke-width="0.5" stroke="black" fill="green"/>
   </g>
   <g id="cell121">
  <circle cx="388.882" cy="551.24" r="8.0125" stroke-width="0.5" stroke="black" fill="magenta"/>
  <circle cx="388.882" cy="551.24" r="4.85798" stroke-width="0.5" stroke="black" fill="magenta"/>
   </g>
   <g id="cell122">
  <circle cx="604.835" cy="470.653" r="7.98892" stroke-width="0.5" stroke="black" fill="cyan"/>
  <circle cx="604.835" cy="470.653" r="4.84272" stroke-width="0.5" stroke="black" fill="cyan"/>
   </g>
   <g id="cell123">
  <circle cx="501.962" cy="643.195" r="7.95045" stroke-width="0.5" stroke="black" fill="cyan"/>
  <circle cx="501.962" cy="643.195" r="4.82139" stroke-width="0.5" stroke="black" fill="cyan"/>
   </g>
   <g id="cell124">
  <circle cx="384.991" cy="589.967" r="7.93688" stroke-width="0.5" stroke="black" fill="green"/>
  <circle cx="384.991" cy="589.967" r="4.81381" stroke-width="0.5" stroke="black" fill="green"/>
   </g>
   <g id="cell125">
  <circle cx="449.248" cy="460.391" r="7.89011" stroke-width="0.5" stroke="black" fill="cyan"/>
  <circle cx="449.248" cy="460.391" r="4.78843" stroke-width="0.5" stroke="black" fill="cyan"/>
   </g>
   <g id="cell126">
  <circle cx="417.871" cy="509.111" r="7.73623" stroke-width="0.5" stroke="black" fill="green"/>
  <circle cx="417.871" cy="509.111" r="4.70887" stroke-width="0.5" stroke="black" fill="green"/>
   </g>
   <g id="cell127">
  <circle cx="408.604" cy="599.597" r="7.7401" stroke-width="0.5" stroke="black" fill="cyan"/>
  <circle cx="408.604" cy="599.597" r="4.70142" stroke-width="0.5" stroke="black" fill="cyan"/>
   </g>
   <g id="cell128">
  <circle cx="370.004" cy="533.768" r="7.51721" stroke-width="0.5" stroke="black" fill="cyan"/>
  <circle cx="370.004" cy="533.768" r="4.59399" stroke-width="0.5" stroke="black" fill="cyan"/>
   </g>
   <g id="cell131">
  <circle cx="582.889" cy="537.53" r="7.3932" stroke-width="0.5" stroke="black" fill="cyan"/>
  <circle cx="582.889" cy="537.53" r="4.50413" stroke-width="0.5" stroke="black" fill="cyan"/>
   </g>
   <g id="cell132">
  <circle cx="503.85" cy="440.911" r="7.25681" stroke-width="0.5" stroke="black" fill="magenta"/>
  <circle cx="503.85" cy="440.911" r="4.43042" stroke-width="0.5" stroke="black" fill="magenta"/>
   </g>
   <g id="cell133">
  <circle cx="531.566" cy="408.739" r="7.30216" stroke-width="0.5" stroke="black" fill="magenta"/>
  <circle cx="531.566" cy="408.739" r="4.43696" stroke-width="0.5" stroke="black" fill="magenta"/>
   </g>
   <g id="cell134">
  <circle cx="518.962" cy="588.317" r="7.21189" stroke-width="0.5" stroke="black" fill="magenta"/>
  <circle cx="518.962" cy="588.317" r="4.37993" stroke-width="0.5" stroke="black" fill="magenta"/>
   </g>
   <g id="cell135">
  <circle cx="565.144" cy="479.686" r="7.08639" stroke-width="0.5" stroke="black" fill="cyan"/>
  <circle cx="565.144" cy="479.686" r="4.29876" stroke-width="0.5" stroke="black" fill="cyan"/>
   </g>
   <g id="cell137">
  <circle cx="378.33" cy="477.042" r="6.72714" stroke-width="0.5" stroke="black" fill="magenta"/>
  <circle cx="378.33" cy="477.042" r="4.04864" stroke-width="0.5" stroke="black" fill="magenta"/>
   </g>
  </g>
 </g>
  <rect x="775" y="1035" width="200" height="10" stroke-width="2" stroke="rgb(255,255,255)" fill="rgb(0,0,0)"/>
  <text x="781.25" y="1028.75"
   font-family="Arial" font-size="25" fill="black" >
   200 &#956;m
  </text>
  <text x="25" y="1045"
   font-family="Arial" font-size="18.75" fill="black" >
   0 days, 0 hours, 0 minutes, and 27.4069 seconds
  </text>
  <rect x="0" y="70" width="1000" height="1000" stroke-width="2" stroke="rgb(0,0,0)" fill="none"/>
</svg>
