<?xml version="1.0" encoding="UTF-8" standalone="no"?>
<!-- Created with PhysiCell (http://PhysiCell.MathCancer.org/) -->
<svg 
 xmlns:dc="http://purl.org/dc/elements/1.1/" 
 xmlns:cc="http://creativecommons.org/ns#" 
 xmlns:rdf="http://www.w3.org/1999/02/22-rdf-syntax-ns#" 
 xmlns:svg="http://www.w3.org/2000/svg" 
 xmlns="http://www.w3.org/2000/svg" 
 version="1.1" 
 width="1000" 
 height="1070" 
 id="svg2">
  <rect x="0" y="0" width="1000" height="1070" stroke-width="2" stroke="white" fill="white"/>
  <text x="12.5" y="30"
   font-family="Arial" font-size="25" fill="black" >
   Current time: 1 days, 0 hours, and 30.00 minutes, z = 0.00 &#956;m
  </text>
  <text x="12.5" y="57.5"
   font-family="Arial" font-size="23.75" fill="black" >
   145 agents
  </text>
 <g id="tissue" 
    transform="translate(0,1070) scale(1,-1)">
  <g id="ECM">
  </g>
  <g id="cells">
   <g id="cell0">
  <circle cx="514.177" cy="530.517" r="8.41016" stroke-width="0.5" stroke="black" fill="magenta"/>
  <circle cx="514.177" cy="530.517" r="5.05098" stroke-width="0.5" stroke="black" fill="magenta"/>
   </g>
   <g id="cell147">
  <circle cx="418.107" cy="570.822" r="7.0093" stroke-width="0.5" stroke="black" fill="green"/>
  <circle cx="418.107" cy="570.822" r="4.25173" stroke-width="0.5" stroke="black" fill="green"/>
   </g>
   <g id="cell2">
  <circle cx="512.611" cy="595.181" r="8.02418" stroke-width="0.5" stroke="black" fill="magenta"/>
  <circle cx="512.611" cy="595.181" r="4.86209" stroke-width="0.5" stroke="black" fill="magenta"/>
   </g>
   <g id="cell3">
  <circle cx="539.337" cy="541.14" r="7.89373" stroke-width="0.5" stroke="black" fill="magenta"/>
  <circle cx="539.337" cy="541.14" r="4.78957" stroke-width="0.5" stroke="black" fill="magenta"/>
   </g>
   <g id="cell4">
  <circle cx="467.982" cy="440.279" r="8.41043" stroke-width="0.5" stroke="black" fill="magenta"/>
  <circle cx="467.982" cy="440.279" r="5.05106" stroke-width="0.5" stroke="black" fill="magenta"/>
   </g>
   <g id="cell5">
  <circle cx="465.853" cy="498.261" r="7.21189" stroke-width="0.5" stroke="black" fill="magenta"/>
  <circle cx="465.853" cy="498.261" r="4.37993" stroke-width="0.5" stroke="black" fill="magenta"/>
   </g>
   <g id="cell6">
  <circle cx="595.134" cy="514.237" r="8.4045" stroke-width="0.5" stroke="black" fill="magenta"/>
  <circle cx="595.134" cy="514.237" r="5.04914" stroke-width="0.5" stroke="black" fill="magenta"/>
   </g>
   <g id="cell7">
  <circle cx="511.614" cy="464.529" r="8.41271" stroke-width="0.5" stroke="black" fill="magenta"/>
  <circle cx="511.614" cy="464.529" r="5.05167" stroke-width="0.5" stroke="black" fill="magenta"/>
   </g>
   <g id="cell8">
  <circle cx="369.751" cy="548.893" r="7.27253" stroke-width="0.5" stroke="black" fill="magenta"/>
  <circle cx="369.751" cy="548.893" r="4.41835" stroke-width="0.5" stroke="black" fill="magenta"/>
   </g>
   <g id="cell9">
  <circle cx="463.97" cy="602.075" r="8.40403" stroke-width="0.5" stroke="black" fill="magenta"/>
  <circle cx="463.97" cy="602.075" r="5.04898" stroke-width="0.5" stroke="black" fill="magenta"/>
   </g>
   <g id="cell10">
  <circle cx="587.45" cy="396.106" r="7.25012" stroke-width="0.5" stroke="black" fill="magenta"/>
  <circle cx="587.45" cy="396.106" r="4.42925" stroke-width="0.5" stroke="black" fill="magenta"/>
   </g>
   <g id="cell11">
  <circle cx="589.748" cy="590.273" r="8.41271" stroke-width="0.5" stroke="black" fill="magenta"/>
  <circle cx="589.748" cy="590.273" r="5.05167" stroke-width="0.5" stroke="black" fill="magenta"/>
   </g>
   <g id="cell12">
  <circle cx="501.837" cy="585.005" r="8.41271" stroke-width="0.5" stroke="black" fill="magenta"/>
  <circle cx="501.837" cy="585.005" r="5.05167" stroke-width="0.5" stroke="black" fill="magenta"/>
   </g>
   <g id="cell13">
  <circle cx="378.589" cy="559.728" r="8.28627" stroke-width="0.5" stroke="black" fill="magenta"/>
  <circle cx="378.589" cy="559.728" r="4.99847" stroke-width="0.5" stroke="black" fill="magenta"/>
   </g>
   <g id="cell14">
  <circle cx="523.331" cy="399.097" r="8.05651" stroke-width="0.5" stroke="black" fill="magenta"/>
  <circle cx="523.331" cy="399.097" r="4.87966" stroke-width="0.5" stroke="black" fill="magenta"/>
   </g>
   <g id="cell15">
  <circle cx="391.901" cy="483.222" r="7.79423" stroke-width="0.5" stroke="black" fill="magenta"/>
  <circle cx="391.901" cy="483.222" r="4.73318" stroke-width="0.5" stroke="black" fill="magenta"/>
   </g>
   <g id="cell16">
  <circle cx="431.257" cy="412.113" r="8.41271" stroke-width="0.5" stroke="black" fill="magenta"/>
  <circle cx="431.257" cy="412.113" r="5.05167" stroke-width="0.5" stroke="black" fill="magenta"/>
   </g>
   <g id="cell17">
  <circle cx="588.905" cy="489.417" r="8.39422" stroke-width="0.5" stroke="black" fill="magenta"/>
  <circle cx="588.905" cy="489.417" r="5.04543" stroke-width="0.5" stroke="black" fill="magenta"/>
   </g>
   <g id="cell18">
  <circle cx="509.885" cy="392.865" r="8.41055" stroke-width="0.5" stroke="black" fill="magenta"/>
  <circle cx="509.885" cy="392.865" r="5.05109" stroke-width="0.5" stroke="black" fill="magenta"/>
   </g>
   <g id="cell19">
  <circle cx="449.736" cy="541.268" r="8.40123" stroke-width="0.5" stroke="black" fill="magenta"/>
  <circle cx="449.736" cy="541.268" r="5.048" stroke-width="0.5" stroke="black" fill="magenta"/>
   </g>
   <g id="cell20">
  <circle cx="528.51" cy="422.386" r="8.41271" stroke-width="0.5" stroke="black" fill="magenta"/>
  <circle cx="528.51" cy="422.386" r="5.05167" stroke-width="0.5" stroke="black" fill="magenta"/>
   </g>
   <g id="cell141">
  <circle cx="482.053" cy="439.698" r="7.40096" stroke-width="0.5" stroke="black" fill="magenta"/>
  <circle cx="482.053" cy="439.698" r="4.507" stroke-width="0.5" stroke="black" fill="magenta"/>
   </g>
   <g id="cell22">
  <circle cx="559.053" cy="495.798" r="8.39675" stroke-width="0.5" stroke="black" fill="magenta"/>
  <circle cx="559.053" cy="495.798" r="5.04652" stroke-width="0.5" stroke="black" fill="magenta"/>
   </g>
   <g id="cell23">
  <circle cx="534.856" cy="483.976" r="8.41271" stroke-width="0.5" stroke="black" fill="magenta"/>
  <circle cx="534.856" cy="483.976" r="5.05167" stroke-width="0.5" stroke="black" fill="magenta"/>
   </g>
   <g id="cell24">
  <circle cx="562.455" cy="382.423" r="8.41271" stroke-width="0.5" stroke="black" fill="magenta"/>
  <circle cx="562.455" cy="382.423" r="5.05167" stroke-width="0.5" stroke="black" fill="magenta"/>
   </g>
   <g id="cell25">
  <circle cx="647.996" cy="559.551" r="8.35131" stroke-width="0.5" stroke="black" fill="green"/>
  <circle cx="647.996" cy="559.551" r="5.02886" stroke-width="0.5" stroke="black" fill="green"/>
   </g>
   <g id="cell26">
  <circle cx="548.111" cy="402.297" r="8.41271" stroke-width="0.5" stroke="black" fill="green"/>
  <circle cx="548.111" cy="402.297" r="5.05167" stroke-width="0.5" stroke="black" fill="green"/>
   </g>
   <g id="cell27">
  <circle cx="457.446" cy="388.678" r="8.41271" stroke-width="0.5" stroke="black" fill="green"/>
  <circle cx="457.446" cy="388.678" r="5.05167" stroke-width="0.5" stroke="black" fill="green"/>
   </g>
   <g id="cell28">
  <circle cx="431.789" cy="546.694" r="8.41271" stroke-width="0.5" stroke="black" fill="green"/>
  <circle cx="431.789" cy="546.694" r="5.05167" stroke-width="0.5" stroke="black" fill="green"/>
   </g>
   <g id="cell29">
  <circle cx="467.386" cy="520.665" r="8.33743" stroke-width="0.5" stroke="black" fill="green"/>
  <circle cx="467.386" cy="520.665" r="5.02213" stroke-width="0.5" stroke="black" fill="green"/>
   </g>
   <g id="cell30">
  <circle cx="478.293" cy="539.309" r="8.41271" stroke-width="0.5" stroke="black" fill="green"/>
  <circle cx="478.293" cy="539.309" r="5.05167" stroke-width="0.5" stroke="black" fill="green"/>
   </g>
   <g id="cell31">
  <circle cx="412.574" cy="539.086" r="8.41271" stroke-width="0.5" stroke="black" fill="green"/>
  <circle cx="412.574" cy="539.086" r="5.05167" stroke-width="0.5" stroke="black" fill="green"/>
   </g>
   <g id="cell32">
  <circle cx="430.071" cy="465.38" r="8.40632" stroke-width="0.5" stroke="black" fill="green"/>
  <circle cx="430.071" cy="465.38" r="5.04976" stroke-width="0.5" stroke="black" fill="green"/>
   </g>
   <g id="cell33">
  <circle cx="498.874" cy="413.235" r="8.40715" stroke-width="0.5" stroke="black" fill="green"/>
  <circle cx="498.874" cy="413.235" r="5.05003" stroke-width="0.5" stroke="black" fill="green"/>
   </g>
   <g id="cell34">
  <circle cx="392.093" cy="453.618" r="8.40576" stroke-width="0.5" stroke="black" fill="green"/>
  <circle cx="392.093" cy="453.618" r="5.04957" stroke-width="0.5" stroke="black" fill="green"/>
   </g>
   <g id="cell35">
  <circle cx="545.122" cy="554.998" r="8.38454" stroke-width="0.5" stroke="black" fill="green"/>
  <circle cx="545.122" cy="554.998" r="5.04168" stroke-width="0.5" stroke="black" fill="green"/>
   </g>
   <g id="cell36">
  <circle cx="395.893" cy="580.124" r="8.26262" stroke-width="0.5" stroke="black" fill="green"/>
  <circle cx="395.893" cy="580.124" r="4.98642" stroke-width="0.5" stroke="black" fill="green"/>
   </g>
   <g id="cell37">
  <circle cx="634.871" cy="460.618" r="2.15065" stroke-width="0.5" stroke="black" fill="green"/>
  <circle cx="634.871" cy="460.618" r="2.00267" stroke-width="0.5" stroke="black" fill="black"/>
   </g>
   <g id="cell38">
  <circle cx="525.597" cy="604.444" r="8.40185" stroke-width="0.5" stroke="black" fill="green"/>
  <circle cx="525.597" cy="604.444" r="5.04822" stroke-width="0.5" stroke="black" fill="green"/>
   </g>
   <g id="cell39">
  <circle cx="617.451" cy="494.661" r="8.41002" stroke-width="0.5" stroke="black" fill="green"/>
  <circle cx="617.451" cy="494.661" r="5.05093" stroke-width="0.5" stroke="black" fill="green"/>
   </g>
   <g id="cell40">
  <circle cx="485.862" cy="572.199" r="8.41271" stroke-width="0.5" stroke="black" fill="green"/>
  <circle cx="485.862" cy="572.199" r="5.05167" stroke-width="0.5" stroke="black" fill="green"/>
   </g>
   <g id="cell41">
  <circle cx="364.478" cy="479.81" r="8.41271" stroke-width="0.5" stroke="black" fill="green"/>
  <circle cx="364.478" cy="479.81" r="5.05167" stroke-width="0.5" stroke="black" fill="green"/>
   </g>
   <g id="cell42">
  <circle cx="452.705" cy="487.1" r="2.78446" stroke-width="0.5" stroke="black" fill="green"/>
  <circle cx="452.705" cy="487.1" r="2.36557" stroke-width="0.5" stroke="black" fill="black"/>
   </g>
   <g id="cell43">
  <circle cx="558.331" cy="445.686" r="8.41271" stroke-width="0.5" stroke="black" fill="green"/>
  <circle cx="558.331" cy="445.686" r="5.05167" stroke-width="0.5" stroke="black" fill="green"/>
   </g>
   <g id="cell44">
  <circle cx="484.301" cy="628.025" r="6.68692" stroke-width="0.5" stroke="black" fill="green"/>
  <circle cx="484.301" cy="628.025" r="4.01869" stroke-width="0.5" stroke="black" fill="green"/>
   </g>
   <g id="cell45">
  <circle cx="416.386" cy="554.748" r="8.39422" stroke-width="0.5" stroke="black" fill="green"/>
  <circle cx="416.386" cy="554.748" r="5.04543" stroke-width="0.5" stroke="black" fill="green"/>
   </g>
   <g id="cell46">
  <circle cx="519.26" cy="620.926" r="7.54995" stroke-width="0.5" stroke="black" fill="green"/>
  <circle cx="519.26" cy="620.926" r="4.59999" stroke-width="0.5" stroke="black" fill="green"/>
   </g>
   <g id="cell47">
  <circle cx="500.724" cy="507.169" r="8.41271" stroke-width="0.5" stroke="black" fill="green"/>
  <circle cx="500.724" cy="507.169" r="5.05167" stroke-width="0.5" stroke="black" fill="green"/>
   </g>
   <g id="cell48">
  <circle cx="565.317" cy="604.247" r="8.41271" stroke-width="0.5" stroke="black" fill="green"/>
  <circle cx="565.317" cy="604.247" r="5.05167" stroke-width="0.5" stroke="black" fill="green"/>
   </g>
   <g id="cell49">
  <circle cx="434.558" cy="397.097" r="8.16806" stroke-width="0.5" stroke="black" fill="green"/>
  <circle cx="434.558" cy="397.097" r="4.93877" stroke-width="0.5" stroke="black" fill="green"/>
   </g>
   <g id="cell50">
  <circle cx="511.131" cy="515.581" r="6.67717" stroke-width="0.5" stroke="black" fill="cyan"/>
  <circle cx="511.131" cy="515.581" r="4.00951" stroke-width="0.5" stroke="black" fill="cyan"/>
   </g>
   <g id="cell51">
  <circle cx="387.214" cy="603.788" r="6.70786" stroke-width="0.5" stroke="black" fill="cyan"/>
  <circle cx="387.214" cy="603.788" r="4.07631" stroke-width="0.5" stroke="black" fill="cyan"/>
   </g>
   <g id="cell120">
  <circle cx="419.611" cy="610.676" r="8.3031" stroke-width="0.5" stroke="black" fill="cyan"/>
  <circle cx="419.611" cy="610.676" r="5.00583" stroke-width="0.5" stroke="black" fill="cyan"/>
   </g>
   <g id="cell53">
  <circle cx="571.181" cy="436.082" r="8.41271" stroke-width="0.5" stroke="black" fill="cyan"/>
  <circle cx="571.181" cy="436.082" r="5.05167" stroke-width="0.5" stroke="black" fill="cyan"/>
   </g>
   <g id="cell54">
  <circle cx="480.864" cy="426.56" r="7.02257" stroke-width="0.5" stroke="black" fill="cyan"/>
  <circle cx="480.864" cy="426.56" r="4.25644" stroke-width="0.5" stroke="black" fill="cyan"/>
   </g>
   <g id="cell55">
  <circle cx="525.823" cy="471.22" r="8.41271" stroke-width="0.5" stroke="black" fill="cyan"/>
  <circle cx="525.823" cy="471.22" r="5.05167" stroke-width="0.5" stroke="black" fill="cyan"/>
   </g>
   <g id="cell56">
  <circle cx="615.75" cy="522.522" r="8.41271" stroke-width="0.5" stroke="black" fill="cyan"/>
  <circle cx="615.75" cy="522.522" r="5.05167" stroke-width="0.5" stroke="black" fill="cyan"/>
   </g>
   <g id="cell57">
  <circle cx="418.497" cy="626.423" r="8.3031" stroke-width="0.5" stroke="black" fill="cyan"/>
  <circle cx="418.497" cy="626.423" r="5.00583" stroke-width="0.5" stroke="black" fill="cyan"/>
   </g>
   <g id="cell58">
  <circle cx="550.034" cy="483.264" r="8.41271" stroke-width="0.5" stroke="black" fill="cyan"/>
  <circle cx="550.034" cy="483.264" r="5.05167" stroke-width="0.5" stroke="black" fill="cyan"/>
   </g>
   <g id="cell59">
  <circle cx="385.161" cy="439.178" r="8.41271" stroke-width="0.5" stroke="black" fill="cyan"/>
  <circle cx="385.161" cy="439.178" r="5.05167" stroke-width="0.5" stroke="black" fill="cyan"/>
   </g>
   <g id="cell60">
  <circle cx="593.542" cy="474.405" r="8.27885" stroke-width="0.5" stroke="black" fill="cyan"/>
  <circle cx="593.542" cy="474.405" r="4.99429" stroke-width="0.5" stroke="black" fill="cyan"/>
   </g>
   <g id="cell61">
  <circle cx="554.623" cy="614.976" r="1.36402" stroke-width="0.5" stroke="black" fill="cyan"/>
  <circle cx="554.623" cy="614.976" r="1.35333" stroke-width="0.5" stroke="black" fill="black"/>
   </g>
   <g id="cell62">
  <circle cx="526.207" cy="442.879" r="8.41271" stroke-width="0.5" stroke="black" fill="cyan"/>
  <circle cx="526.207" cy="442.879" r="5.05167" stroke-width="0.5" stroke="black" fill="cyan"/>
   </g>
   <g id="cell63">
  <circle cx="582.619" cy="552.51" r="8.40185" stroke-width="0.5" stroke="black" fill="cyan"/>
  <circle cx="582.619" cy="552.51" r="5.04822" stroke-width="0.5" stroke="black" fill="cyan"/>
   </g>
   <g id="cell64">
  <circle cx="512.278" cy="634.204" r="8.26685" stroke-width="0.5" stroke="black" fill="cyan"/>
  <circle cx="512.278" cy="634.204" r="4.98849" stroke-width="0.5" stroke="black" fill="cyan"/>
   </g>
   <g id="cell65">
  <circle cx="533.215" cy="457.088" r="8.40123" stroke-width="0.5" stroke="black" fill="cyan"/>
  <circle cx="533.215" cy="457.088" r="5.048" stroke-width="0.5" stroke="black" fill="cyan"/>
   </g>
   <g id="cell66">
  <circle cx="544.638" cy="527.21" r="8.30918" stroke-width="0.5" stroke="black" fill="cyan"/>
  <circle cx="544.638" cy="527.21" r="5.00867" stroke-width="0.5" stroke="black" fill="cyan"/>
   </g>
   <g id="cell67">
  <circle cx="354.784" cy="492.549" r="8.41271" stroke-width="0.5" stroke="black" fill="cyan"/>
  <circle cx="354.784" cy="492.549" r="5.05167" stroke-width="0.5" stroke="black" fill="cyan"/>
   </g>
   <g id="cell68">
  <circle cx="561.011" cy="556.017" r="8.41271" stroke-width="0.5" stroke="black" fill="cyan"/>
  <circle cx="561.011" cy="556.017" r="5.05167" stroke-width="0.5" stroke="black" fill="cyan"/>
   </g>
   <g id="cell69">
  <circle cx="436.692" cy="450.807" r="8.41061" stroke-width="0.5" stroke="black" fill="cyan"/>
  <circle cx="436.692" cy="450.807" r="5.05111" stroke-width="0.5" stroke="black" fill="cyan"/>
   </g>
   <g id="cell70">
  <circle cx="578.951" cy="478.182" r="7.97646" stroke-width="0.5" stroke="black" fill="cyan"/>
  <circle cx="578.951" cy="478.182" r="4.83584" stroke-width="0.5" stroke="black" fill="cyan"/>
   </g>
   <g id="cell71">
  <circle cx="382.562" cy="527.743" r="8.1366" stroke-width="0.5" stroke="black" fill="cyan"/>
  <circle cx="382.562" cy="527.743" r="4.92865" stroke-width="0.5" stroke="black" fill="cyan"/>
   </g>
   <g id="cell72">
  <circle cx="534.628" cy="509.619" r="8.41271" stroke-width="0.5" stroke="black" fill="cyan"/>
  <circle cx="534.628" cy="509.619" r="5.05167" stroke-width="0.5" stroke="black" fill="cyan"/>
   </g>
   <g id="cell129">
  <circle cx="419.781" cy="401.891" r="8.16806" stroke-width="0.5" stroke="black" fill="green"/>
  <circle cx="419.781" cy="401.891" r="4.93877" stroke-width="0.5" stroke="black" fill="green"/>
   </g>
   <g id="cell74">
  <circle cx="542.34" cy="444.025" r="8.41271" stroke-width="0.5" stroke="black" fill="cyan"/>
  <circle cx="542.34" cy="444.025" r="5.05167" stroke-width="0.5" stroke="black" fill="cyan"/>
   </g>
   <g id="cell75">
  <circle cx="443.751" cy="473.398" r="8.24805" stroke-width="0.5" stroke="black" fill="cyan"/>
  <circle cx="443.751" cy="473.398" r="4.97951" stroke-width="0.5" stroke="black" fill="cyan"/>
   </g>
   <g id="cell76">
  <circle cx="522.367" cy="384.319" r="8.39878" stroke-width="0.5" stroke="black" fill="magenta"/>
  <circle cx="522.367" cy="384.319" r="5.04722" stroke-width="0.5" stroke="black" fill="magenta"/>
   </g>
   <g id="cell77">
  <circle cx="493.8" cy="433.634" r="7.40096" stroke-width="0.5" stroke="black" fill="magenta"/>
  <circle cx="493.8" cy="433.634" r="4.507" stroke-width="0.5" stroke="black" fill="magenta"/>
   </g>
   <g id="cell78">
  <circle cx="370.802" cy="465.515" r="8.4103" stroke-width="0.5" stroke="black" fill="magenta"/>
  <circle cx="370.802" cy="465.515" r="5.05102" stroke-width="0.5" stroke="black" fill="magenta"/>
   </g>
   <g id="cell79">
  <circle cx="500.729" cy="523.373" r="8.41016" stroke-width="0.5" stroke="black" fill="magenta"/>
  <circle cx="500.729" cy="523.373" r="5.05098" stroke-width="0.5" stroke="black" fill="magenta"/>
   </g>
   <g id="cell80">
  <circle cx="604.108" cy="485.984" r="8.41002" stroke-width="0.5" stroke="black" fill="green"/>
  <circle cx="604.108" cy="485.984" r="5.05093" stroke-width="0.5" stroke="black" fill="green"/>
   </g>
   <g id="cell81">
  <circle cx="430.117" cy="501.753" r="8.20111" stroke-width="0.5" stroke="black" fill="green"/>
  <circle cx="430.117" cy="501.753" r="4.95828" stroke-width="0.5" stroke="black" fill="green"/>
   </g>
   <g id="cell82">
  <circle cx="543.457" cy="496.939" r="8.40953" stroke-width="0.5" stroke="black" fill="magenta"/>
  <circle cx="543.457" cy="496.939" r="5.05079" stroke-width="0.5" stroke="black" fill="magenta"/>
   </g>
   <g id="cell130">
  <circle cx="574.508" cy="391.172" r="8.15353" stroke-width="0.5" stroke="black" fill="magenta"/>
  <circle cx="574.508" cy="391.172" r="4.93122" stroke-width="0.5" stroke="black" fill="magenta"/>
   </g>
   <g id="cell84">
  <circle cx="406.68" cy="481.443" r="8.35403" stroke-width="0.5" stroke="black" fill="green"/>
  <circle cx="406.68" cy="481.443" r="5.02937" stroke-width="0.5" stroke="black" fill="green"/>
   </g>
   <g id="cell140">
  <circle cx="528.46" cy="578.431" r="7.02479" stroke-width="0.5" stroke="black" fill="magenta"/>
  <circle cx="528.46" cy="578.431" r="4.31993" stroke-width="0.5" stroke="black" fill="magenta"/>
   </g>
   <g id="cell86">
  <circle cx="392.293" cy="565.446" r="8.35826" stroke-width="0.5" stroke="black" fill="magenta"/>
  <circle cx="392.293" cy="565.446" r="5.03121" stroke-width="0.5" stroke="black" fill="magenta"/>
   </g>
   <g id="cell87">
  <circle cx="434.676" cy="522.423" r="6.65987" stroke-width="0.5" stroke="black" fill="green"/>
  <circle cx="434.676" cy="522.423" r="4.02084" stroke-width="0.5" stroke="black" fill="green"/>
   </g>
   <g id="cell88">
  <circle cx="476.311" cy="611.652" r="8.40516" stroke-width="0.5" stroke="black" fill="green"/>
  <circle cx="476.311" cy="611.652" r="5.04937" stroke-width="0.5" stroke="black" fill="green"/>
   </g>
   <g id="cell89">
  <circle cx="436.187" cy="487.24" r="8.38678" stroke-width="0.5" stroke="black" fill="green"/>
  <circle cx="436.187" cy="487.24" r="5.04297" stroke-width="0.5" stroke="black" fill="green"/>
   </g>
   <g id="cell90">
  <circle cx="584.173" cy="503.85" r="8.4045" stroke-width="0.5" stroke="black" fill="magenta"/>
  <circle cx="584.173" cy="503.85" r="5.04914" stroke-width="0.5" stroke="black" fill="magenta"/>
   </g>
   <g id="cell136">
  <circle cx="525.397" cy="539.901" r="7.89373" stroke-width="0.5" stroke="black" fill="magenta"/>
  <circle cx="525.397" cy="539.901" r="4.78957" stroke-width="0.5" stroke="black" fill="magenta"/>
   </g>
   <g id="cell92">
  <circle cx="553.724" cy="593.411" r="8.3514" stroke-width="0.5" stroke="black" fill="green"/>
  <circle cx="553.724" cy="593.411" r="5.02911" stroke-width="0.5" stroke="black" fill="green"/>
   </g>
   <g id="cell93">
  <circle cx="572.971" cy="526.611" r="8.09103" stroke-width="0.5" stroke="black" fill="cyan"/>
  <circle cx="572.971" cy="526.611" r="4.9008" stroke-width="0.5" stroke="black" fill="cyan"/>
   </g>
   <g id="cell94">
  <circle cx="542.208" cy="469.889" r="8.40123" stroke-width="0.5" stroke="black" fill="cyan"/>
  <circle cx="542.208" cy="469.889" r="5.048" stroke-width="0.5" stroke="black" fill="cyan"/>
   </g>
   <g id="cell95">
  <circle cx="463.414" cy="535.476" r="8.40123" stroke-width="0.5" stroke="black" fill="magenta"/>
  <circle cx="463.414" cy="535.476" r="5.048" stroke-width="0.5" stroke="black" fill="magenta"/>
   </g>
   <g id="cell96">
  <circle cx="535.317" cy="376.524" r="8.39878" stroke-width="0.5" stroke="black" fill="magenta"/>
  <circle cx="535.317" cy="376.524" r="5.04722" stroke-width="0.5" stroke="black" fill="magenta"/>
   </g>
   <g id="cell97">
  <circle cx="569.319" cy="507.08" r="8.39675" stroke-width="0.5" stroke="black" fill="magenta"/>
  <circle cx="569.319" cy="507.08" r="5.04652" stroke-width="0.5" stroke="black" fill="magenta"/>
   </g>
   <g id="cell98">
  <circle cx="406.232" cy="565.308" r="7.0093" stroke-width="0.5" stroke="black" fill="green"/>
  <circle cx="406.232" cy="565.308" r="4.25173" stroke-width="0.5" stroke="black" fill="green"/>
   </g>
   <g id="cell99">
  <circle cx="574.08" cy="492.759" r="8.39422" stroke-width="0.5" stroke="black" fill="magenta"/>
  <circle cx="574.08" cy="492.759" r="5.04543" stroke-width="0.5" stroke="black" fill="magenta"/>
   </g>
   <g id="cell100">
  <circle cx="569.99" cy="542.643" r="8.3877" stroke-width="0.5" stroke="black" fill="cyan"/>
  <circle cx="569.99" cy="542.643" r="5.04329" stroke-width="0.5" stroke="black" fill="cyan"/>
   </g>
   <g id="cell101">
  <circle cx="460.02" cy="628.856" r="8.36077" stroke-width="0.5" stroke="black" fill="magenta"/>
  <circle cx="460.02" cy="628.856" r="5.03267" stroke-width="0.5" stroke="black" fill="magenta"/>
   </g>
   <g id="cell102">
  <circle cx="445.808" cy="500.003" r="8.38678" stroke-width="0.5" stroke="black" fill="green"/>
  <circle cx="445.808" cy="500.003" r="5.04297" stroke-width="0.5" stroke="black" fill="green"/>
   </g>
   <g id="cell103">
  <circle cx="541.924" cy="604.298" r="8.38136" stroke-width="0.5" stroke="black" fill="green"/>
  <circle cx="541.924" cy="604.298" r="5.04084" stroke-width="0.5" stroke="black" fill="green"/>
   </g>
   <g id="cell104">
  <circle cx="554.201" cy="541.539" r="8.38454" stroke-width="0.5" stroke="black" fill="green"/>
  <circle cx="554.201" cy="541.539" r="5.04168" stroke-width="0.5" stroke="black" fill="green"/>
   </g>
   <g id="cell105">
  <circle cx="416.324" cy="494.085" r="8.37966" stroke-width="0.5" stroke="black" fill="green"/>
  <circle cx="416.324" cy="494.085" r="5.03992" stroke-width="0.5" stroke="black" fill="green"/>
   </g>
   <g id="cell106">
  <circle cx="639.281" cy="537.041" r="8.38118" stroke-width="0.5" stroke="black" fill="green"/>
  <circle cx="639.281" cy="537.041" r="5.04034" stroke-width="0.5" stroke="black" fill="green"/>
   </g>
   <g id="cell107">
  <circle cx="384.135" cy="512.165" r="8.37208" stroke-width="0.5" stroke="black" fill="cyan"/>
  <circle cx="384.135" cy="512.165" r="5.03661" stroke-width="0.5" stroke="black" fill="cyan"/>
   </g>
   <g id="cell108">
  <circle cx="459.469" cy="643.8" r="8.36077" stroke-width="0.5" stroke="black" fill="magenta"/>
  <circle cx="459.469" cy="643.8" r="5.03267" stroke-width="0.5" stroke="black" fill="magenta"/>
   </g>
   <g id="cell109">
  <circle cx="446.991" cy="634.801" r="8.36077" stroke-width="0.5" stroke="black" fill="magenta"/>
  <circle cx="446.991" cy="634.801" r="5.03267" stroke-width="0.5" stroke="black" fill="magenta"/>
   </g>
   <g id="cell110">
  <circle cx="538.812" cy="588.557" r="8.3514" stroke-width="0.5" stroke="black" fill="green"/>
  <circle cx="538.812" cy="588.557" r="5.02911" stroke-width="0.5" stroke="black" fill="green"/>
   </g>
   <g id="cell111">
  <circle cx="633.967" cy="552.061" r="8.35131" stroke-width="0.5" stroke="black" fill="green"/>
  <circle cx="633.967" cy="552.061" r="5.02886" stroke-width="0.5" stroke="black" fill="green"/>
   </g>
   <g id="cell112">
  <circle cx="380.919" cy="574.906" r="8.35826" stroke-width="0.5" stroke="black" fill="magenta"/>
  <circle cx="380.919" cy="574.906" r="5.03121" stroke-width="0.5" stroke="black" fill="magenta"/>
   </g>
   <g id="cell113">
  <circle cx="422.372" cy="479.334" r="8.35403" stroke-width="0.5" stroke="black" fill="green"/>
  <circle cx="422.372" cy="479.334" r="5.02937" stroke-width="0.5" stroke="black" fill="green"/>
   </g>
   <g id="cell114">
  <circle cx="493.274" cy="447.666" r="8.05105" stroke-width="0.5" stroke="black" fill="magenta"/>
  <circle cx="493.274" cy="447.666" r="4.88179" stroke-width="0.5" stroke="black" fill="magenta"/>
   </g>
   <g id="cell115">
  <circle cx="451.842" cy="525.266" r="8.33743" stroke-width="0.5" stroke="black" fill="green"/>
  <circle cx="451.842" cy="525.266" r="5.02213" stroke-width="0.5" stroke="black" fill="green"/>
   </g>
   <g id="cell116">
  <circle cx="369.712" cy="518.937" r="8.31416" stroke-width="0.5" stroke="black" fill="cyan"/>
  <circle cx="369.712" cy="518.937" r="5.01276" stroke-width="0.5" stroke="black" fill="cyan"/>
   </g>
   <g id="cell117">
  <circle cx="437.633" cy="513.547" r="2.34769" stroke-width="0.5" stroke="black" fill="green"/>
  <circle cx="437.633" cy="513.547" r="2.12261" stroke-width="0.5" stroke="black" fill="black"/>
   </g>
   <g id="cell118">
  <circle cx="529.29" cy="525.854" r="8.30918" stroke-width="0.5" stroke="black" fill="cyan"/>
  <circle cx="529.29" cy="525.854" r="5.00867" stroke-width="0.5" stroke="black" fill="cyan"/>
   </g>
   <g id="cell119">
  <circle cx="526.969" cy="632.566" r="7.29054" stroke-width="0.5" stroke="black" fill="green"/>
  <circle cx="526.969" cy="632.566" r="4.44319" stroke-width="0.5" stroke="black" fill="green"/>
   </g>
   <g id="cell121">
  <circle cx="390.745" cy="550.877" r="8.28627" stroke-width="0.5" stroke="black" fill="magenta"/>
  <circle cx="390.745" cy="550.877" r="4.99847" stroke-width="0.5" stroke="black" fill="magenta"/>
   </g>
   <g id="cell122">
  <circle cx="608.713" cy="470.675" r="8.27885" stroke-width="0.5" stroke="black" fill="cyan"/>
  <circle cx="608.713" cy="470.675" r="4.99429" stroke-width="0.5" stroke="black" fill="cyan"/>
   </g>
   <g id="cell123">
  <circle cx="500.469" cy="644.505" r="8.26685" stroke-width="0.5" stroke="black" fill="cyan"/>
  <circle cx="500.469" cy="644.505" r="4.98849" stroke-width="0.5" stroke="black" fill="cyan"/>
   </g>
   <g id="cell124">
  <circle cx="383.982" cy="590.025" r="8.26262" stroke-width="0.5" stroke="black" fill="green"/>
  <circle cx="383.982" cy="590.025" r="4.98642" stroke-width="0.5" stroke="black" fill="green"/>
   </g>
   <g id="cell125">
  <circle cx="450.193" cy="459.122" r="8.24805" stroke-width="0.5" stroke="black" fill="cyan"/>
  <circle cx="450.193" cy="459.122" r="4.97951" stroke-width="0.5" stroke="black" fill="cyan"/>
   </g>
   <g id="cell126">
  <circle cx="416.817" cy="509.86" r="8.20111" stroke-width="0.5" stroke="black" fill="green"/>
  <circle cx="416.817" cy="509.86" r="4.95828" stroke-width="0.5" stroke="black" fill="green"/>
   </g>
   <g id="cell127">
  <circle cx="411.967" cy="596.976" r="8.20088" stroke-width="0.5" stroke="black" fill="cyan"/>
  <circle cx="411.967" cy="596.976" r="4.95562" stroke-width="0.5" stroke="black" fill="cyan"/>
   </g>
   <g id="cell128">
  <circle cx="368.409" cy="534.538" r="8.1366" stroke-width="0.5" stroke="black" fill="cyan"/>
  <circle cx="368.409" cy="534.538" r="4.92865" stroke-width="0.5" stroke="black" fill="cyan"/>
   </g>
   <g id="cell131">
  <circle cx="584.448" cy="536.893" r="8.09103" stroke-width="0.5" stroke="black" fill="cyan"/>
  <circle cx="584.448" cy="536.893" r="4.9008" stroke-width="0.5" stroke="black" fill="cyan"/>
   </g>
   <g id="cell132">
  <circle cx="505.9" cy="440.719" r="8.05105" stroke-width="0.5" stroke="black" fill="magenta"/>
  <circle cx="505.9" cy="440.719" r="4.88179" stroke-width="0.5" stroke="black" fill="magenta"/>
   </g>
   <g id="cell133">
  <circle cx="534.215" cy="408.677" r="8.05651" stroke-width="0.5" stroke="black" fill="magenta"/>
  <circle cx="534.215" cy="408.677" r="4.87966" stroke-width="0.5" stroke="black" fill="magenta"/>
   </g>
   <g id="cell134">
  <circle cx="515.668" cy="581.484" r="7.45059" stroke-width="0.5" stroke="black" fill="magenta"/>
  <circle cx="515.668" cy="581.484" r="4.55366" stroke-width="0.5" stroke="black" fill="magenta"/>
   </g>
   <g id="cell135">
  <circle cx="564.667" cy="481.278" r="7.97646" stroke-width="0.5" stroke="black" fill="cyan"/>
  <circle cx="564.667" cy="481.278" r="4.83584" stroke-width="0.5" stroke="black" fill="cyan"/>
   </g>
   <g id="cell137">
  <circle cx="379.248" cy="477.351" r="7.79423" stroke-width="0.5" stroke="black" fill="magenta"/>
  <circle cx="379.248" cy="477.351" r="4.73318" stroke-width="0.5" stroke="black" fill="magenta"/>
   </g>
   <g id="cell138">
  <circle cx="524.99" cy="590.409" r="7.02479" stroke-width="0.5" stroke="black" fill="magenta"/>
  <circle cx="524.99" cy="590.409" r="4.31993" stroke-width="0.5" stroke="black" fill="magenta"/>
   </g>
   <g id="cell139">
  <circle cx="511.283" cy="609.32" r="7.54995" stroke-width="0.5" stroke="black" fill="green"/>
  <circle cx="511.283" cy="609.32" r="4.59999" stroke-width="0.5" stroke="black" fill="green"/>
   </g>
   <g id="cell142">
  <circle cx="585.824" cy="383.17" r="7.25012" stroke-width="0.5" stroke="black" fill="magenta"/>
  <circle cx="585.824" cy="383.17" r="4.42925" stroke-width="0.5" stroke="black" fill="magenta"/>
   </g>
   <g id="cell143">
  <circle cx="537.539" cy="623.661" r="7.29054" stroke-width="0.5" stroke="black" fill="green"/>
  <circle cx="537.539" cy="623.661" r="4.44319" stroke-width="0.5" stroke="black" fill="green"/>
   </g>
   <g id="cell144">
  <circle cx="380.54" cy="541.794" r="7.27253" stroke-width="0.5" stroke="black" fill="magenta"/>
  <circle cx="380.54" cy="541.794" r="4.41835" stroke-width="0.5" stroke="black" fill="magenta"/>
   </g>
   <g id="cell145">
  <circle cx="461.835" cy="485.936" r="7.21189" stroke-width="0.5" stroke="black" fill="magenta"/>
  <circle cx="461.835" cy="485.936" r="4.37993" stroke-width="0.5" stroke="black" fill="magenta"/>
   </g>
   <g id="cell146">
  <circle cx="467.382" cy="426.057" r="7.02257" stroke-width="0.5" stroke="black" fill="cyan"/>
  <circle cx="467.382" cy="426.057" r="4.25644" stroke-width="0.5" stroke="black" fill="cyan"/>
   </g>
   <g id="cell148">
  <circle cx="399.859" cy="604.159" r="6.70786" stroke-width="0.5" stroke="black" fill="cyan"/>
  <circle cx="399.859" cy="604.159" r="4.07631" stroke-width="0.5" stroke="black" fill="cyan"/>
   </g>
   <g id="cell149">
  <circle cx="438.225" cy="534.192" r="6.65987" stroke-width="0.5" stroke="black" fill="green"/>
  <circle cx="438.225" cy="534.192" r="4.02084" stroke-width="0.5" stroke="black" fill="green"/>
   </g>
   <g id="cell150">
  <circle cx="472.611" cy="625.805" r="6.68692" stroke-width="0.5" stroke="black" fill="green"/>
  <circle cx="472.611" cy="625.805" r="4.01869" stroke-width="0.5" stroke="black" fill="green"/>
   </g>
   <g id="cell151">
  <circle cx="522.316" cy="514.769" r="6.67717" stroke-width="0.5" stroke="black" fill="cyan"/>
  <circle cx="522.316" cy="514.769" r="4.00951" stroke-width="0.5" stroke="black" fill="cyan"/>
   </g>
  </g>
 </g>
  <rect x="775" y="1035" width="200" height="10" stroke-width="2" stroke="rgb(255,255,255)" fill="rgb(0,0,0)"/>
  <text x="781.25" y="1028.75"
   font-family="Arial" font-size="25" fill="black" >
   200 &#956;m
  </text>
  <text x="25" y="1045"
   font-family="Arial" font-size="18.75" fill="black" >
   0 days, 0 hours, 0 minutes, and 32.6310 seconds
  </text>
  <rect x="0" y="70" width="1000" height="1000" stroke-width="2" stroke="rgb(0,0,0)" fill="none"/>
</svg>
