<?xml version="1.0" encoding="UTF-8" standalone="no"?>
<!-- Created with PhysiCell (http://PhysiCell.MathCancer.org/) -->
<svg 
 xmlns:dc="http://purl.org/dc/elements/1.1/" 
 xmlns:cc="http://creativecommons.org/ns#" 
 xmlns:rdf="http://www.w3.org/1999/02/22-rdf-syntax-ns#" 
 xmlns:svg="http://www.w3.org/2000/svg" 
 xmlns="http://www.w3.org/2000/svg" 
 version="1.1" 
 width="1000" 
 height="1070" 
 id="svg2">
  <rect x="0" y="0" width="1000" height="1070" stroke-width="2" stroke="white" fill="white"/>
  <text x="12.5" y="30"
   font-family="Arial" font-size="25" fill="black" >
   Current time: 0 days, 3 hours, and 30.00 minutes, z = 0.00 &#956;m
  </text>
  <text x="12.5" y="57.5"
   font-family="Arial" font-size="23.75" fill="black" >
   83 agents
  </text>
 <g id="tissue" 
    transform="translate(0,1070) scale(1,-1)">
  <g id="ECM">
  </g>
  <g id="cells">
   <g id="cell0">
  <circle cx="520.687" cy="531.375" r="7.44242" stroke-width="0.5" stroke="black" fill="magenta"/>
  <circle cx="520.687" cy="531.375" r="4.52373" stroke-width="0.5" stroke="black" fill="magenta"/>
   </g>
   <g id="cell1">
  <circle cx="604.067" cy="529.722" r="8.41271" stroke-width="0.5" stroke="black" fill="magenta"/>
  <circle cx="604.067" cy="529.722" r="5.05167" stroke-width="0.5" stroke="black" fill="magenta"/>
   </g>
   <g id="cell2">
  <circle cx="510.885" cy="600.601" r="8.41271" stroke-width="0.5" stroke="black" fill="magenta"/>
  <circle cx="510.885" cy="600.601" r="5.05167" stroke-width="0.5" stroke="black" fill="magenta"/>
   </g>
   <g id="cell3">
  <circle cx="532.004" cy="544.6" r="8.41271" stroke-width="0.5" stroke="black" fill="magenta"/>
  <circle cx="532.004" cy="544.6" r="5.05167" stroke-width="0.5" stroke="black" fill="magenta"/>
   </g>
   <g id="cell4">
  <circle cx="476.166" cy="440.476" r="7.54436" stroke-width="0.5" stroke="black" fill="magenta"/>
  <circle cx="476.166" cy="440.476" r="4.58555" stroke-width="0.5" stroke="black" fill="magenta"/>
   </g>
   <g id="cell5">
  <circle cx="465.015" cy="493.298" r="8.41271" stroke-width="0.5" stroke="black" fill="magenta"/>
  <circle cx="465.015" cy="493.298" r="5.05167" stroke-width="0.5" stroke="black" fill="magenta"/>
   </g>
   <g id="cell6">
  <circle cx="593.897" cy="509.169" r="8.41271" stroke-width="0.5" stroke="black" fill="magenta"/>
  <circle cx="593.897" cy="509.169" r="5.05167" stroke-width="0.5" stroke="black" fill="magenta"/>
   </g>
   <g id="cell7">
  <circle cx="512.401" cy="464.888" r="8.41271" stroke-width="0.5" stroke="black" fill="magenta"/>
  <circle cx="512.401" cy="464.888" r="5.05167" stroke-width="0.5" stroke="black" fill="magenta"/>
   </g>
   <g id="cell8">
  <circle cx="375.891" cy="544.521" r="8.41271" stroke-width="0.5" stroke="black" fill="magenta"/>
  <circle cx="375.891" cy="544.521" r="5.05167" stroke-width="0.5" stroke="black" fill="magenta"/>
   </g>
   <g id="cell9">
  <circle cx="460.472" cy="599.786" r="8.41271" stroke-width="0.5" stroke="black" fill="magenta"/>
  <circle cx="460.472" cy="599.786" r="5.05167" stroke-width="0.5" stroke="black" fill="magenta"/>
   </g>
   <g id="cell10">
  <circle cx="583.447" cy="392.105" r="8.41271" stroke-width="0.5" stroke="black" fill="magenta"/>
  <circle cx="583.447" cy="392.105" r="5.05167" stroke-width="0.5" stroke="black" fill="magenta"/>
   </g>
   <g id="cell11">
  <circle cx="589.748" cy="590.273" r="8.41271" stroke-width="0.5" stroke="black" fill="magenta"/>
  <circle cx="589.748" cy="590.273" r="5.05167" stroke-width="0.5" stroke="black" fill="magenta"/>
   </g>
   <g id="cell12">
  <circle cx="506.664" cy="586.058" r="8.41271" stroke-width="0.5" stroke="black" fill="magenta"/>
  <circle cx="506.664" cy="586.058" r="5.05167" stroke-width="0.5" stroke="black" fill="magenta"/>
   </g>
   <g id="cell13">
  <circle cx="386.193" cy="568.227" r="8.41271" stroke-width="0.5" stroke="black" fill="magenta"/>
  <circle cx="386.193" cy="568.227" r="5.05167" stroke-width="0.5" stroke="black" fill="magenta"/>
   </g>
   <g id="cell14">
  <circle cx="528.926" cy="400.092" r="8.41271" stroke-width="0.5" stroke="black" fill="magenta"/>
  <circle cx="528.926" cy="400.092" r="5.05167" stroke-width="0.5" stroke="black" fill="magenta"/>
   </g>
   <g id="cell15">
  <circle cx="384.965" cy="477.66" r="7.49456" stroke-width="0.5" stroke="black" fill="magenta"/>
  <circle cx="384.965" cy="477.66" r="4.55548" stroke-width="0.5" stroke="black" fill="magenta"/>
   </g>
   <g id="cell16">
  <circle cx="428.96" cy="413.217" r="8.41271" stroke-width="0.5" stroke="black" fill="magenta"/>
  <circle cx="428.96" cy="413.217" r="5.05167" stroke-width="0.5" stroke="black" fill="magenta"/>
   </g>
   <g id="cell17">
  <circle cx="573.03" cy="489.771" r="8.41271" stroke-width="0.5" stroke="black" fill="magenta"/>
  <circle cx="573.03" cy="489.771" r="5.05167" stroke-width="0.5" stroke="black" fill="magenta"/>
   </g>
   <g id="cell18">
  <circle cx="512.389" cy="389.585" r="7.59183" stroke-width="0.5" stroke="black" fill="magenta"/>
  <circle cx="512.389" cy="389.585" r="4.61399" stroke-width="0.5" stroke="black" fill="magenta"/>
   </g>
   <g id="cell19">
  <circle cx="451.99" cy="536.596" r="8.41271" stroke-width="0.5" stroke="black" fill="magenta"/>
  <circle cx="451.99" cy="536.596" r="5.05167" stroke-width="0.5" stroke="black" fill="magenta"/>
   </g>
   <g id="cell20">
  <circle cx="530.978" cy="415.128" r="8.41271" stroke-width="0.5" stroke="black" fill="magenta"/>
  <circle cx="530.978" cy="415.128" r="5.05167" stroke-width="0.5" stroke="black" fill="magenta"/>
   </g>
   <g id="cell21">
  <circle cx="464.368" cy="634.574" r="8.41271" stroke-width="0.5" stroke="black" fill="magenta"/>
  <circle cx="464.368" cy="634.574" r="5.05167" stroke-width="0.5" stroke="black" fill="magenta"/>
   </g>
   <g id="cell22">
  <circle cx="559.35" cy="492.726" r="7.21189" stroke-width="0.5" stroke="black" fill="magenta"/>
  <circle cx="559.35" cy="492.726" r="4.37993" stroke-width="0.5" stroke="black" fill="magenta"/>
   </g>
   <g id="cell23">
  <circle cx="537.515" cy="481.902" r="8.41271" stroke-width="0.5" stroke="black" fill="magenta"/>
  <circle cx="537.515" cy="481.902" r="5.05167" stroke-width="0.5" stroke="black" fill="magenta"/>
   </g>
   <g id="cell24">
  <circle cx="559.288" cy="379.787" r="8.41271" stroke-width="0.5" stroke="black" fill="magenta"/>
  <circle cx="559.288" cy="379.787" r="5.05167" stroke-width="0.5" stroke="black" fill="magenta"/>
   </g>
   <g id="cell25">
  <circle cx="640.943" cy="550.03" r="8.41271" stroke-width="0.5" stroke="black" fill="green"/>
  <circle cx="640.943" cy="550.03" r="5.05167" stroke-width="0.5" stroke="black" fill="green"/>
   </g>
   <g id="cell26">
  <circle cx="550.682" cy="401.232" r="8.41271" stroke-width="0.5" stroke="black" fill="green"/>
  <circle cx="550.682" cy="401.232" r="5.05167" stroke-width="0.5" stroke="black" fill="green"/>
   </g>
   <g id="cell27">
  <circle cx="457.446" cy="388.678" r="8.41271" stroke-width="0.5" stroke="black" fill="green"/>
  <circle cx="457.446" cy="388.678" r="5.05167" stroke-width="0.5" stroke="black" fill="green"/>
   </g>
   <g id="cell28">
  <circle cx="437.428" cy="531.015" r="8.41271" stroke-width="0.5" stroke="black" fill="green"/>
  <circle cx="437.428" cy="531.015" r="5.05167" stroke-width="0.5" stroke="black" fill="green"/>
   </g>
   <g id="cell29">
  <circle cx="449.99" cy="521.104" r="8.41271" stroke-width="0.5" stroke="black" fill="green"/>
  <circle cx="449.99" cy="521.104" r="5.05167" stroke-width="0.5" stroke="black" fill="green"/>
   </g>
   <g id="cell30">
  <circle cx="481.58" cy="540.282" r="8.41271" stroke-width="0.5" stroke="black" fill="green"/>
  <circle cx="481.58" cy="540.282" r="5.05167" stroke-width="0.5" stroke="black" fill="green"/>
   </g>
   <g id="cell31">
  <circle cx="412.757" cy="541.193" r="8.41271" stroke-width="0.5" stroke="black" fill="green"/>
  <circle cx="412.757" cy="541.193" r="5.05167" stroke-width="0.5" stroke="black" fill="green"/>
   </g>
   <g id="cell32">
  <circle cx="426.307" cy="473.812" r="8.41271" stroke-width="0.5" stroke="black" fill="green"/>
  <circle cx="426.307" cy="473.812" r="5.05167" stroke-width="0.5" stroke="black" fill="green"/>
   </g>
   <g id="cell33">
  <circle cx="494.752" cy="422.999" r="8.41271" stroke-width="0.5" stroke="black" fill="green"/>
  <circle cx="494.752" cy="422.999" r="5.05167" stroke-width="0.5" stroke="black" fill="green"/>
   </g>
   <g id="cell34">
  <circle cx="397.088" cy="450.831" r="8.41271" stroke-width="0.5" stroke="black" fill="green"/>
  <circle cx="397.088" cy="450.831" r="5.05167" stroke-width="0.5" stroke="black" fill="green"/>
   </g>
   <g id="cell35">
  <circle cx="547.861" cy="544.916" r="8.41271" stroke-width="0.5" stroke="black" fill="green"/>
  <circle cx="547.861" cy="544.916" r="5.05167" stroke-width="0.5" stroke="black" fill="green"/>
   </g>
   <g id="cell36">
  <circle cx="391.486" cy="582.903" r="8.41271" stroke-width="0.5" stroke="black" fill="green"/>
  <circle cx="391.486" cy="582.903" r="5.05167" stroke-width="0.5" stroke="black" fill="green"/>
   </g>
   <g id="cell37">
  <circle cx="634.871" cy="460.618" r="8.41271" stroke-width="0.5" stroke="black" fill="green"/>
  <circle cx="634.871" cy="460.618" r="5.05167" stroke-width="0.5" stroke="black" fill="green"/>
   </g>
   <g id="cell38">
  <circle cx="536.148" cy="601.895" r="8.41271" stroke-width="0.5" stroke="black" fill="green"/>
  <circle cx="536.148" cy="601.895" r="5.05167" stroke-width="0.5" stroke="black" fill="green"/>
   </g>
   <g id="cell39">
  <circle cx="617.106" cy="494.03" r="7.38797" stroke-width="0.5" stroke="black" fill="green"/>
  <circle cx="617.106" cy="494.03" r="4.49029" stroke-width="0.5" stroke="black" fill="green"/>
   </g>
   <g id="cell40">
  <circle cx="485.348" cy="571.779" r="8.41271" stroke-width="0.5" stroke="black" fill="green"/>
  <circle cx="485.348" cy="571.779" r="5.05167" stroke-width="0.5" stroke="black" fill="green"/>
   </g>
   <g id="cell41">
  <circle cx="364.059" cy="480.034" r="8.41271" stroke-width="0.5" stroke="black" fill="green"/>
  <circle cx="364.059" cy="480.034" r="5.05167" stroke-width="0.5" stroke="black" fill="green"/>
   </g>
   <g id="cell42">
  <circle cx="444.156" cy="491.972" r="7.27253" stroke-width="0.5" stroke="black" fill="green"/>
  <circle cx="444.156" cy="491.972" r="4.41835" stroke-width="0.5" stroke="black" fill="green"/>
   </g>
   <g id="cell43">
  <circle cx="558.04" cy="445.581" r="8.41271" stroke-width="0.5" stroke="black" fill="green"/>
  <circle cx="558.04" cy="445.581" r="5.05167" stroke-width="0.5" stroke="black" fill="green"/>
   </g>
   <g id="cell44">
  <circle cx="475.857" cy="624.021" r="8.41271" stroke-width="0.5" stroke="black" fill="green"/>
  <circle cx="475.857" cy="624.021" r="5.05167" stroke-width="0.5" stroke="black" fill="green"/>
   </g>
   <g id="cell45">
  <circle cx="414.953" cy="557.066" r="8.41271" stroke-width="0.5" stroke="black" fill="green"/>
  <circle cx="414.953" cy="557.066" r="5.05167" stroke-width="0.5" stroke="black" fill="green"/>
   </g>
   <g id="cell46">
  <circle cx="522.766" cy="610.71" r="8.41271" stroke-width="0.5" stroke="black" fill="green"/>
  <circle cx="522.766" cy="610.71" r="5.05167" stroke-width="0.5" stroke="black" fill="green"/>
   </g>
   <g id="cell47">
  <circle cx="504.188" cy="507.838" r="8.41271" stroke-width="0.5" stroke="black" fill="green"/>
  <circle cx="504.188" cy="507.838" r="5.05167" stroke-width="0.5" stroke="black" fill="green"/>
   </g>
   <g id="cell48">
  <circle cx="564.511" cy="602.792" r="8.41271" stroke-width="0.5" stroke="black" fill="green"/>
  <circle cx="564.511" cy="602.792" r="5.05167" stroke-width="0.5" stroke="black" fill="green"/>
   </g>
   <g id="cell49">
  <circle cx="429.826" cy="397.641" r="8.41271" stroke-width="0.5" stroke="black" fill="green"/>
  <circle cx="429.826" cy="397.641" r="5.05167" stroke-width="0.5" stroke="black" fill="green"/>
   </g>
   <g id="cell50">
  <circle cx="517.609" cy="516.787" r="8.41271" stroke-width="0.5" stroke="black" fill="cyan"/>
  <circle cx="517.609" cy="516.787" r="5.05167" stroke-width="0.5" stroke="black" fill="cyan"/>
   </g>
   <g id="cell51">
  <circle cx="398.721" cy="597.201" r="8.41271" stroke-width="0.5" stroke="black" fill="cyan"/>
  <circle cx="398.721" cy="597.201" r="5.05167" stroke-width="0.5" stroke="black" fill="cyan"/>
   </g>
   <g id="cell52">
  <circle cx="522.818" cy="428.445" r="8.41271" stroke-width="0.5" stroke="black" fill="cyan"/>
  <circle cx="522.818" cy="428.445" r="5.05167" stroke-width="0.5" stroke="black" fill="cyan"/>
   </g>
   <g id="cell53">
  <circle cx="571.038" cy="436.188" r="8.41271" stroke-width="0.5" stroke="black" fill="cyan"/>
  <circle cx="571.038" cy="436.188" r="5.05167" stroke-width="0.5" stroke="black" fill="cyan"/>
   </g>
   <g id="cell54">
  <circle cx="478.98" cy="425.937" r="8.41271" stroke-width="0.5" stroke="black" fill="cyan"/>
  <circle cx="478.98" cy="425.937" r="5.05167" stroke-width="0.5" stroke="black" fill="cyan"/>
   </g>
   <g id="cell55">
  <circle cx="526.973" cy="470.464" r="8.41271" stroke-width="0.5" stroke="black" fill="cyan"/>
  <circle cx="526.973" cy="470.464" r="5.05167" stroke-width="0.5" stroke="black" fill="cyan"/>
   </g>
   <g id="cell56">
  <circle cx="617.778" cy="522.283" r="8.41271" stroke-width="0.5" stroke="black" fill="cyan"/>
  <circle cx="617.778" cy="522.283" r="5.05167" stroke-width="0.5" stroke="black" fill="cyan"/>
   </g>
   <g id="cell57">
  <circle cx="416.924" cy="617.466" r="8.41271" stroke-width="0.5" stroke="black" fill="cyan"/>
  <circle cx="416.924" cy="617.466" r="5.05167" stroke-width="0.5" stroke="black" fill="cyan"/>
   </g>
   <g id="cell58">
  <circle cx="552.981" cy="479.67" r="8.41271" stroke-width="0.5" stroke="black" fill="cyan"/>
  <circle cx="552.981" cy="479.67" r="5.05167" stroke-width="0.5" stroke="black" fill="cyan"/>
   </g>
   <g id="cell59">
  <circle cx="385.463" cy="439.803" r="8.41271" stroke-width="0.5" stroke="black" fill="cyan"/>
  <circle cx="385.463" cy="439.803" r="5.05167" stroke-width="0.5" stroke="black" fill="cyan"/>
   </g>
   <g id="cell60">
  <circle cx="593.371" cy="473.901" r="8.41271" stroke-width="0.5" stroke="black" fill="cyan"/>
  <circle cx="593.371" cy="473.901" r="5.05167" stroke-width="0.5" stroke="black" fill="cyan"/>
   </g>
   <g id="cell61">
  <circle cx="552.999" cy="613.939" r="8.41271" stroke-width="0.5" stroke="black" fill="cyan"/>
  <circle cx="552.999" cy="613.939" r="5.05167" stroke-width="0.5" stroke="black" fill="cyan"/>
   </g>
   <g id="cell62">
  <circle cx="526.137" cy="444.135" r="8.41271" stroke-width="0.5" stroke="black" fill="cyan"/>
  <circle cx="526.137" cy="444.135" r="5.05167" stroke-width="0.5" stroke="black" fill="cyan"/>
   </g>
   <g id="cell63">
  <circle cx="577.796" cy="546.444" r="8.41271" stroke-width="0.5" stroke="black" fill="cyan"/>
  <circle cx="577.796" cy="546.444" r="5.05167" stroke-width="0.5" stroke="black" fill="cyan"/>
   </g>
   <g id="cell64">
  <circle cx="509.962" cy="636.825" r="8.41271" stroke-width="0.5" stroke="black" fill="cyan"/>
  <circle cx="509.962" cy="636.825" r="5.05167" stroke-width="0.5" stroke="black" fill="cyan"/>
   </g>
   <g id="cell65">
  <circle cx="542.744" cy="467.261" r="8.41271" stroke-width="0.5" stroke="black" fill="cyan"/>
  <circle cx="542.744" cy="467.261" r="5.05167" stroke-width="0.5" stroke="black" fill="cyan"/>
   </g>
   <g id="cell66">
  <circle cx="535.173" cy="529.527" r="8.41271" stroke-width="0.5" stroke="black" fill="cyan"/>
  <circle cx="535.173" cy="529.527" r="5.05167" stroke-width="0.5" stroke="black" fill="cyan"/>
   </g>
   <g id="cell67">
  <circle cx="354.492" cy="492.853" r="8.41271" stroke-width="0.5" stroke="black" fill="cyan"/>
  <circle cx="354.492" cy="492.853" r="5.05167" stroke-width="0.5" stroke="black" fill="cyan"/>
   </g>
   <g id="cell68">
  <circle cx="562.59" cy="551.641" r="8.41271" stroke-width="0.5" stroke="black" fill="cyan"/>
  <circle cx="562.59" cy="551.641" r="5.05167" stroke-width="0.5" stroke="black" fill="cyan"/>
   </g>
   <g id="cell69">
  <circle cx="433.715" cy="460.474" r="7.61469" stroke-width="0.5" stroke="black" fill="cyan"/>
  <circle cx="433.715" cy="460.474" r="4.62762" stroke-width="0.5" stroke="black" fill="cyan"/>
   </g>
   <g id="cell70">
  <circle cx="577.327" cy="474.799" r="8.41271" stroke-width="0.5" stroke="black" fill="cyan"/>
  <circle cx="577.327" cy="474.799" r="5.05167" stroke-width="0.5" stroke="black" fill="cyan"/>
   </g>
   <g id="cell71">
  <circle cx="377.712" cy="520.989" r="8.41271" stroke-width="0.5" stroke="black" fill="cyan"/>
  <circle cx="377.712" cy="520.989" r="5.05167" stroke-width="0.5" stroke="black" fill="cyan"/>
   </g>
   <g id="cell72">
  <circle cx="533.55" cy="513.715" r="8.41271" stroke-width="0.5" stroke="black" fill="cyan"/>
  <circle cx="533.55" cy="513.715" r="5.05167" stroke-width="0.5" stroke="black" fill="cyan"/>
   </g>
   <g id="cell73">
  <circle cx="360.355" cy="545.935" r="8.41271" stroke-width="0.5" stroke="black" fill="cyan"/>
  <circle cx="360.355" cy="545.935" r="5.05167" stroke-width="0.5" stroke="black" fill="cyan"/>
   </g>
   <g id="cell74">
  <circle cx="542.017" cy="446.398" r="8.41271" stroke-width="0.5" stroke="black" fill="cyan"/>
  <circle cx="542.017" cy="446.398" r="5.05167" stroke-width="0.5" stroke="black" fill="cyan"/>
   </g>
   <g id="cell75">
  <circle cx="441.52" cy="472.65" r="7.61469" stroke-width="0.5" stroke="black" fill="cyan"/>
  <circle cx="441.52" cy="472.65" r="4.62762" stroke-width="0.5" stroke="black" fill="cyan"/>
   </g>
   <g id="cell76">
  <circle cx="525.539" cy="386.154" r="7.59183" stroke-width="0.5" stroke="black" fill="magenta"/>
  <circle cx="525.539" cy="386.154" r="4.61399" stroke-width="0.5" stroke="black" fill="magenta"/>
   </g>
   <g id="cell77">
  <circle cx="489.18" cy="436.681" r="7.54436" stroke-width="0.5" stroke="black" fill="magenta"/>
  <circle cx="489.18" cy="436.681" r="4.58555" stroke-width="0.5" stroke="black" fill="magenta"/>
   </g>
   <g id="cell78">
  <circle cx="374.295" cy="469.437" r="7.49456" stroke-width="0.5" stroke="black" fill="magenta"/>
  <circle cx="374.295" cy="469.437" r="4.55548" stroke-width="0.5" stroke="black" fill="magenta"/>
   </g>
   <g id="cell79">
  <circle cx="507.729" cy="527.737" r="7.44242" stroke-width="0.5" stroke="black" fill="magenta"/>
  <circle cx="507.729" cy="527.737" r="4.52373" stroke-width="0.5" stroke="black" fill="magenta"/>
   </g>
   <g id="cell80">
  <circle cx="606.834" cy="484.409" r="7.38797" stroke-width="0.5" stroke="black" fill="green"/>
  <circle cx="606.834" cy="484.409" r="4.49029" stroke-width="0.5" stroke="black" fill="green"/>
   </g>
   <g id="cell81">
  <circle cx="431.491" cy="497.456" r="7.27253" stroke-width="0.5" stroke="black" fill="green"/>
  <circle cx="431.491" cy="497.456" r="4.41835" stroke-width="0.5" stroke="black" fill="green"/>
   </g>
   <g id="cell82">
  <circle cx="546.451" cy="492.66" r="7.21189" stroke-width="0.5" stroke="black" fill="magenta"/>
  <circle cx="546.451" cy="492.66" r="4.37993" stroke-width="0.5" stroke="black" fill="magenta"/>
   </g>
  </g>
 </g>
  <rect x="775" y="1035" width="200" height="10" stroke-width="2" stroke="rgb(255,255,255)" fill="rgb(0,0,0)"/>
  <text x="781.25" y="1028.75"
   font-family="Arial" font-size="25" fill="black" >
   200 &#956;m
  </text>
  <text x="25" y="1045"
   font-family="Arial" font-size="18.75" fill="black" >
   0 days, 0 hours, 0 minutes, and 4.6267 seconds
  </text>
  <rect x="0" y="70" width="1000" height="1000" stroke-width="2" stroke="rgb(0,0,0)" fill="none"/>
</svg>
