<?xml version="1.0" encoding="UTF-8" standalone="no"?>
<!-- Created with PhysiCell (http://PhysiCell.MathCancer.org/) -->
<svg 
 xmlns:dc="http://purl.org/dc/elements/1.1/" 
 xmlns:cc="http://creativecommons.org/ns#" 
 xmlns:rdf="http://www.w3.org/1999/02/22-rdf-syntax-ns#" 
 xmlns:svg="http://www.w3.org/2000/svg" 
 xmlns="http://www.w3.org/2000/svg" 
 version="1.1" 
 width="1000" 
 height="1070" 
 id="svg2">
  <rect x="0" y="0" width="1000" height="1070" stroke-width="2" stroke="white" fill="white"/>
  <text x="12.5" y="30"
   font-family="Arial" font-size="25" fill="black" >
   Current time: 1 days, 9 hours, and 0.00 minutes, z = 0.00 &#956;m
  </text>
  <text x="12.5" y="57.5"
   font-family="Arial" font-size="23.75" fill="black" >
   183 agents
  </text>
 <g id="tissue" 
    transform="translate(0,1070) scale(1,-1)">
  <g id="ECM">
  </g>
  <g id="cells">
   <g id="cell0">
  <circle cx="511.388" cy="532.956" r="8.41247" stroke-width="0.5" stroke="black" fill="magenta"/>
  <circle cx="511.388" cy="532.956" r="5.05162" stroke-width="0.5" stroke="black" fill="magenta"/>
   </g>
   <g id="cell147">
  <circle cx="422.155" cy="574.961" r="8.2854" stroke-width="0.5" stroke="black" fill="green"/>
  <circle cx="422.155" cy="574.961" r="4.99762" stroke-width="0.5" stroke="black" fill="green"/>
   </g>
   <g id="cell2">
  <circle cx="503.603" cy="593.657" r="8.3784" stroke-width="0.5" stroke="black" fill="magenta"/>
  <circle cx="503.603" cy="593.657" r="5.03921" stroke-width="0.5" stroke="black" fill="magenta"/>
   </g>
   <g id="cell3">
  <circle cx="538.882" cy="545.426" r="8.36722" stroke-width="0.5" stroke="black" fill="magenta"/>
  <circle cx="538.882" cy="545.426" r="5.03458" stroke-width="0.5" stroke="black" fill="magenta"/>
   </g>
   <g id="cell4">
  <circle cx="455.534" cy="439.662" r="8.41249" stroke-width="0.5" stroke="black" fill="magenta"/>
  <circle cx="455.534" cy="439.662" r="5.05162" stroke-width="0.5" stroke="black" fill="magenta"/>
   </g>
   <g id="cell5">
  <circle cx="459.746" cy="494.91" r="8.30618" stroke-width="0.5" stroke="black" fill="magenta"/>
  <circle cx="459.746" cy="494.91" r="5.00727" stroke-width="0.5" stroke="black" fill="magenta"/>
   </g>
   <g id="cell6">
  <circle cx="596.132" cy="516.124" r="8.41194" stroke-width="0.5" stroke="black" fill="magenta"/>
  <circle cx="596.132" cy="516.124" r="5.05148" stroke-width="0.5" stroke="black" fill="magenta"/>
   </g>
   <g id="cell7">
  <circle cx="513.466" cy="463.367" r="8.41271" stroke-width="0.5" stroke="black" fill="magenta"/>
  <circle cx="513.466" cy="463.367" r="5.05167" stroke-width="0.5" stroke="black" fill="magenta"/>
   </g>
   <g id="cell8">
  <circle cx="365.281" cy="549.2" r="8.31209" stroke-width="0.5" stroke="black" fill="magenta"/>
  <circle cx="365.281" cy="549.2" r="5.01002" stroke-width="0.5" stroke="black" fill="magenta"/>
   </g>
   <g id="cell9">
  <circle cx="462.816" cy="601.82" r="8.41189" stroke-width="0.5" stroke="black" fill="magenta"/>
  <circle cx="462.816" cy="601.82" r="5.05147" stroke-width="0.5" stroke="black" fill="magenta"/>
   </g>
   <g id="cell10">
  <circle cx="588.155" cy="396.895" r="8.31363" stroke-width="0.5" stroke="black" fill="magenta"/>
  <circle cx="588.155" cy="396.895" r="5.01207" stroke-width="0.5" stroke="black" fill="magenta"/>
   </g>
   <g id="cell11">
  <circle cx="589.748" cy="590.273" r="8.41271" stroke-width="0.5" stroke="black" fill="magenta"/>
  <circle cx="589.748" cy="590.273" r="5.05167" stroke-width="0.5" stroke="black" fill="magenta"/>
   </g>
   <g id="cell12">
  <circle cx="496.102" cy="580.668" r="8.41271" stroke-width="0.5" stroke="black" fill="magenta"/>
  <circle cx="496.102" cy="580.668" r="5.05167" stroke-width="0.5" stroke="black" fill="magenta"/>
   </g>
   <g id="cell13">
  <circle cx="377.885" cy="558.331" r="8.40121" stroke-width="0.5" stroke="black" fill="magenta"/>
  <circle cx="377.885" cy="558.331" r="5.04803" stroke-width="0.5" stroke="black" fill="magenta"/>
   </g>
   <g id="cell14">
  <circle cx="528.875" cy="396.271" r="7.93283" stroke-width="0.5" stroke="black" fill="magenta"/>
  <circle cx="528.875" cy="396.271" r="4.8149" stroke-width="0.5" stroke="black" fill="magenta"/>
   </g>
   <g id="cell15">
  <circle cx="389.636" cy="488.668" r="8.09291" stroke-width="0.5" stroke="black" fill="magenta"/>
  <circle cx="389.636" cy="488.668" r="4.90338" stroke-width="0.5" stroke="black" fill="magenta"/>
   </g>
   <g id="cell16">
  <circle cx="430.848" cy="415.273" r="8.41271" stroke-width="0.5" stroke="black" fill="magenta"/>
  <circle cx="430.848" cy="415.273" r="5.05167" stroke-width="0.5" stroke="black" fill="magenta"/>
   </g>
   <g id="cell17">
  <circle cx="580.99" cy="484.518" r="8.41098" stroke-width="0.5" stroke="black" fill="magenta"/>
  <circle cx="580.99" cy="484.518" r="5.05122" stroke-width="0.5" stroke="black" fill="magenta"/>
   </g>
   <g id="cell18">
  <circle cx="513.95" cy="394.389" r="8.41251" stroke-width="0.5" stroke="black" fill="magenta"/>
  <circle cx="513.95" cy="394.389" r="5.05163" stroke-width="0.5" stroke="black" fill="magenta"/>
   </g>
   <g id="cell19">
  <circle cx="452.66" cy="541.41" r="8.41163" stroke-width="0.5" stroke="black" fill="magenta"/>
  <circle cx="452.66" cy="541.41" r="5.0514" stroke-width="0.5" stroke="black" fill="magenta"/>
   </g>
   <g id="cell20">
  <circle cx="525.54" cy="420.997" r="8.41271" stroke-width="0.5" stroke="black" fill="magenta"/>
  <circle cx="525.54" cy="420.997" r="5.05167" stroke-width="0.5" stroke="black" fill="magenta"/>
   </g>
   <g id="cell141">
  <circle cx="493.461" cy="441.795" r="6.98224" stroke-width="0.5" stroke="black" fill="magenta"/>
  <circle cx="493.461" cy="441.795" r="4.28149" stroke-width="0.5" stroke="black" fill="magenta"/>
   </g>
   <g id="cell22">
  <circle cx="560.464" cy="496.912" r="8.41121" stroke-width="0.5" stroke="black" fill="magenta"/>
  <circle cx="560.464" cy="496.912" r="5.05129" stroke-width="0.5" stroke="black" fill="magenta"/>
   </g>
   <g id="cell23">
  <circle cx="536.104" cy="484.724" r="8.41271" stroke-width="0.5" stroke="black" fill="magenta"/>
  <circle cx="536.104" cy="484.724" r="5.05167" stroke-width="0.5" stroke="black" fill="magenta"/>
   </g>
   <g id="cell24">
  <circle cx="562.688" cy="381.895" r="8.41271" stroke-width="0.5" stroke="black" fill="magenta"/>
  <circle cx="562.688" cy="381.895" r="5.05167" stroke-width="0.5" stroke="black" fill="magenta"/>
   </g>
   <g id="cell25">
  <circle cx="653.434" cy="564.396" r="8.20975" stroke-width="0.5" stroke="black" fill="green"/>
  <circle cx="653.434" cy="564.396" r="4.96076" stroke-width="0.5" stroke="black" fill="green"/>
   </g>
   <g id="cell26">
  <circle cx="548.742" cy="402.039" r="8.41271" stroke-width="0.5" stroke="black" fill="green"/>
  <circle cx="548.742" cy="402.039" r="5.05167" stroke-width="0.5" stroke="black" fill="green"/>
   </g>
   <g id="cell27">
  <circle cx="451.961" cy="389.578" r="7.96365" stroke-width="0.5" stroke="black" fill="green"/>
  <circle cx="451.961" cy="389.578" r="4.82873" stroke-width="0.5" stroke="black" fill="green"/>
   </g>
   <g id="cell28">
  <circle cx="440.286" cy="550.292" r="8.41271" stroke-width="0.5" stroke="black" fill="green"/>
  <circle cx="440.286" cy="550.292" r="5.05167" stroke-width="0.5" stroke="black" fill="green"/>
   </g>
   <g id="cell29">
  <circle cx="466.722" cy="518.727" r="8.40579" stroke-width="0.5" stroke="black" fill="green"/>
  <circle cx="466.722" cy="518.727" r="5.04961" stroke-width="0.5" stroke="black" fill="green"/>
   </g>
   <g id="cell30">
  <circle cx="480.25" cy="539.857" r="8.41271" stroke-width="0.5" stroke="black" fill="green"/>
  <circle cx="480.25" cy="539.857" r="5.05167" stroke-width="0.5" stroke="black" fill="green"/>
   </g>
   <g id="cell31">
  <circle cx="410.513" cy="531.566" r="6.92764" stroke-width="0.5" stroke="black" fill="green"/>
  <circle cx="410.513" cy="531.566" r="4.1918" stroke-width="0.5" stroke="black" fill="green"/>
   </g>
   <g id="cell32">
  <circle cx="424.96" cy="455.942" r="8.10416" stroke-width="0.5" stroke="black" fill="green"/>
  <circle cx="424.96" cy="455.942" r="4.90531" stroke-width="0.5" stroke="black" fill="green"/>
   </g>
   <g id="cell33">
  <circle cx="498.122" cy="414.841" r="8.41219" stroke-width="0.5" stroke="black" fill="green"/>
  <circle cx="498.122" cy="414.841" r="5.05155" stroke-width="0.5" stroke="black" fill="green"/>
   </g>
   <g id="cell34">
  <circle cx="391.972" cy="454.16" r="8.41206" stroke-width="0.5" stroke="black" fill="green"/>
  <circle cx="391.972" cy="454.16" r="5.05151" stroke-width="0.5" stroke="black" fill="green"/>
   </g>
   <g id="cell35">
  <circle cx="546.857" cy="558.448" r="8.41009" stroke-width="0.5" stroke="black" fill="green"/>
  <circle cx="546.857" cy="558.448" r="5.05096" stroke-width="0.5" stroke="black" fill="green"/>
   </g>
   <g id="cell36">
  <circle cx="392.99" cy="580.977" r="8.39913" stroke-width="0.5" stroke="black" fill="green"/>
  <circle cx="392.99" cy="580.977" r="5.04725" stroke-width="0.5" stroke="black" fill="green"/>
   </g>
   <g id="cell174">
  <circle cx="477.831" cy="617.437" r="7.75871" stroke-width="0.5" stroke="black" fill="green"/>
  <circle cx="477.831" cy="617.437" r="4.71237" stroke-width="0.5" stroke="black" fill="green"/>
   </g>
   <g id="cell38">
  <circle cx="526.527" cy="606.356" r="8.41169" stroke-width="0.5" stroke="black" fill="green"/>
  <circle cx="526.527" cy="606.356" r="5.05142" stroke-width="0.5" stroke="black" fill="green"/>
   </g>
   <g id="cell39">
  <circle cx="616.87" cy="498.345" r="7.87837" stroke-width="0.5" stroke="black" fill="green"/>
  <circle cx="616.87" cy="498.345" r="4.78092" stroke-width="0.5" stroke="black" fill="green"/>
   </g>
   <g id="cell40">
  <circle cx="484.231" cy="570.807" r="8.41271" stroke-width="0.5" stroke="black" fill="green"/>
  <circle cx="484.231" cy="570.807" r="5.05167" stroke-width="0.5" stroke="black" fill="green"/>
   </g>
   <g id="cell41">
  <circle cx="363.382" cy="479.459" r="8.41271" stroke-width="0.5" stroke="black" fill="green"/>
  <circle cx="363.382" cy="479.459" r="5.05167" stroke-width="0.5" stroke="black" fill="green"/>
   </g>
   <g id="cell176">
  <circle cx="468.362" cy="447.124" r="7.16163" stroke-width="0.5" stroke="black" fill="magenta"/>
  <circle cx="468.362" cy="447.124" r="4.39009" stroke-width="0.5" stroke="black" fill="magenta"/>
   </g>
   <g id="cell43">
  <circle cx="558.191" cy="445.615" r="8.41271" stroke-width="0.5" stroke="black" fill="green"/>
  <circle cx="558.191" cy="445.615" r="5.05167" stroke-width="0.5" stroke="black" fill="green"/>
   </g>
   <g id="cell44">
  <circle cx="487.262" cy="629.323" r="8.23407" stroke-width="0.5" stroke="black" fill="green"/>
  <circle cx="487.262" cy="629.323" r="4.97243" stroke-width="0.5" stroke="black" fill="green"/>
   </g>
   <g id="cell45">
  <circle cx="431.607" cy="562.664" r="7.73196" stroke-width="0.5" stroke="black" fill="green"/>
  <circle cx="431.607" cy="562.664" r="4.72064" stroke-width="0.5" stroke="black" fill="green"/>
   </g>
   <g id="cell46">
  <circle cx="520.719" cy="620.847" r="8.33823" stroke-width="0.5" stroke="black" fill="green"/>
  <circle cx="520.719" cy="620.847" r="5.02261" stroke-width="0.5" stroke="black" fill="green"/>
   </g>
   <g id="cell47">
  <circle cx="494.412" cy="509.86" r="8.41271" stroke-width="0.5" stroke="black" fill="green"/>
  <circle cx="494.412" cy="509.86" r="5.05167" stroke-width="0.5" stroke="black" fill="green"/>
   </g>
   <g id="cell48">
  <circle cx="565.94" cy="605.448" r="8.41271" stroke-width="0.5" stroke="black" fill="green"/>
  <circle cx="565.94" cy="605.448" r="5.05167" stroke-width="0.5" stroke="black" fill="green"/>
   </g>
   <g id="cell49">
  <circle cx="438.451" cy="391.294" r="6.73944" stroke-width="0.5" stroke="black" fill="green"/>
  <circle cx="438.451" cy="391.294" r="4.06224" stroke-width="0.5" stroke="black" fill="green"/>
   </g>
   <g id="cell50">
  <circle cx="508.666" cy="503.984" r="7.67118" stroke-width="0.5" stroke="black" fill="cyan"/>
  <circle cx="508.666" cy="503.984" r="4.67519" stroke-width="0.5" stroke="black" fill="cyan"/>
   </g>
   <g id="cell51">
  <circle cx="385.101" cy="604.249" r="8.25702" stroke-width="0.5" stroke="black" fill="cyan"/>
  <circle cx="385.101" cy="604.249" r="4.98513" stroke-width="0.5" stroke="black" fill="cyan"/>
   </g>
   <g id="cell120">
  <circle cx="419.499" cy="610.606" r="8.40272" stroke-width="0.5" stroke="black" fill="cyan"/>
  <circle cx="419.499" cy="610.606" r="5.04853" stroke-width="0.5" stroke="black" fill="cyan"/>
   </g>
   <g id="cell53">
  <circle cx="571.109" cy="436.134" r="8.41271" stroke-width="0.5" stroke="black" fill="cyan"/>
  <circle cx="571.109" cy="436.134" r="5.05167" stroke-width="0.5" stroke="black" fill="cyan"/>
   </g>
   <g id="cell54">
  <circle cx="486.249" cy="426.564" r="8.28629" stroke-width="0.5" stroke="black" fill="cyan"/>
  <circle cx="486.249" cy="426.564" r="4.99786" stroke-width="0.5" stroke="black" fill="cyan"/>
   </g>
   <g id="cell55">
  <circle cx="521.491" cy="477.926" r="8.41271" stroke-width="0.5" stroke="black" fill="cyan"/>
  <circle cx="521.491" cy="477.926" r="5.05167" stroke-width="0.5" stroke="black" fill="cyan"/>
   </g>
   <g id="cell56">
  <circle cx="620.36" cy="520.642" r="5.64445" stroke-width="0.5" stroke="black" fill="cyan"/>
  <circle cx="620.36" cy="520.642" r="3.4332" stroke-width="0.5" stroke="black" fill="cyan"/>
   </g>
   <g id="cell57">
  <circle cx="418.485" cy="626.578" r="8.40272" stroke-width="0.5" stroke="black" fill="cyan"/>
  <circle cx="418.485" cy="626.578" r="5.04853" stroke-width="0.5" stroke="black" fill="cyan"/>
   </g>
   <g id="cell58">
  <circle cx="551.581" cy="483.792" r="8.41271" stroke-width="0.5" stroke="black" fill="cyan"/>
  <circle cx="551.581" cy="483.792" r="5.05167" stroke-width="0.5" stroke="black" fill="cyan"/>
   </g>
   <g id="cell59">
  <circle cx="385.321" cy="439.521" r="8.41271" stroke-width="0.5" stroke="black" fill="cyan"/>
  <circle cx="385.321" cy="439.521" r="5.05167" stroke-width="0.5" stroke="black" fill="cyan"/>
   </g>
   <g id="cell60">
  <circle cx="598.118" cy="471.663" r="6.66753" stroke-width="0.5" stroke="black" fill="cyan"/>
  <circle cx="598.118" cy="471.663" r="4.00641" stroke-width="0.5" stroke="black" fill="cyan"/>
   </g>
   <g id="cell155">
  <circle cx="518.286" cy="593.267" r="8.11572" stroke-width="0.5" stroke="black" fill="magenta"/>
  <circle cx="518.286" cy="593.267" r="4.9189" stroke-width="0.5" stroke="black" fill="magenta"/>
   </g>
   <g id="cell62">
  <circle cx="526.024" cy="436.135" r="8.41271" stroke-width="0.5" stroke="black" fill="cyan"/>
  <circle cx="526.024" cy="436.135" r="5.05167" stroke-width="0.5" stroke="black" fill="cyan"/>
   </g>
   <g id="cell63">
  <circle cx="582.027" cy="551.309" r="8.41169" stroke-width="0.5" stroke="black" fill="cyan"/>
  <circle cx="582.027" cy="551.309" r="5.05142" stroke-width="0.5" stroke="black" fill="cyan"/>
   </g>
   <g id="cell64">
  <circle cx="511.519" cy="633.684" r="8.3995" stroke-width="0.5" stroke="black" fill="cyan"/>
  <circle cx="511.519" cy="633.684" r="5.04738" stroke-width="0.5" stroke="black" fill="cyan"/>
   </g>
   <g id="cell65">
  <circle cx="532.168" cy="450.012" r="8.04545" stroke-width="0.5" stroke="black" fill="cyan"/>
  <circle cx="532.168" cy="450.012" r="4.87384" stroke-width="0.5" stroke="black" fill="cyan"/>
   </g>
   <g id="cell66">
  <circle cx="551.152" cy="524.432" r="8.40327" stroke-width="0.5" stroke="black" fill="cyan"/>
  <circle cx="551.152" cy="524.432" r="5.04872" stroke-width="0.5" stroke="black" fill="cyan"/>
   </g>
   <g id="cell67">
  <circle cx="354.582" cy="492.849" r="8.41271" stroke-width="0.5" stroke="black" fill="cyan"/>
  <circle cx="354.582" cy="492.849" r="5.05167" stroke-width="0.5" stroke="black" fill="cyan"/>
   </g>
   <g id="cell68">
  <circle cx="562.133" cy="554.825" r="8.41271" stroke-width="0.5" stroke="black" fill="cyan"/>
  <circle cx="562.133" cy="554.825" r="5.05167" stroke-width="0.5" stroke="black" fill="cyan"/>
   </g>
   <g id="cell69">
  <circle cx="437.58" cy="446.008" r="8.41251" stroke-width="0.5" stroke="black" fill="cyan"/>
  <circle cx="437.58" cy="446.008" r="5.05163" stroke-width="0.5" stroke="black" fill="cyan"/>
   </g>
   <g id="cell70">
  <circle cx="575.23" cy="468.304" r="8.37431" stroke-width="0.5" stroke="black" fill="cyan"/>
  <circle cx="575.23" cy="468.304" r="5.03754" stroke-width="0.5" stroke="black" fill="cyan"/>
   </g>
   <g id="cell71">
  <circle cx="381.368" cy="528.448" r="8.19396" stroke-width="0.5" stroke="black" fill="cyan"/>
  <circle cx="381.368" cy="528.448" r="4.9543" stroke-width="0.5" stroke="black" fill="cyan"/>
   </g>
   <g id="cell72">
  <circle cx="539.965" cy="512.455" r="8.41271" stroke-width="0.5" stroke="black" fill="cyan"/>
  <circle cx="539.965" cy="512.455" r="5.05167" stroke-width="0.5" stroke="black" fill="cyan"/>
   </g>
   <g id="cell129">
  <circle cx="417.377" cy="402.382" r="8.39083" stroke-width="0.5" stroke="black" fill="green"/>
  <circle cx="417.377" cy="402.382" r="5.04414" stroke-width="0.5" stroke="black" fill="green"/>
   </g>
   <g id="cell74">
  <circle cx="542.698" cy="442.81" r="2.47369" stroke-width="0.5" stroke="black" fill="cyan"/>
  <circle cx="542.698" cy="442.81" r="2.20257" stroke-width="0.5" stroke="black" fill="black"/>
   </g>
   <g id="cell75">
  <circle cx="443.336" cy="480.25" r="5.99582" stroke-width="0.5" stroke="black" fill="cyan"/>
  <circle cx="443.336" cy="480.25" r="3.69642" stroke-width="0.5" stroke="black" fill="cyan"/>
   </g>
   <g id="cell76">
  <circle cx="515.165" cy="375.392" r="6.95805" stroke-width="0.5" stroke="black" fill="magenta"/>
  <circle cx="515.165" cy="375.392" r="4.21315" stroke-width="0.5" stroke="black" fill="magenta"/>
   </g>
   <g id="cell77">
  <circle cx="500.594" cy="430.017" r="8.32483" stroke-width="0.5" stroke="black" fill="magenta"/>
  <circle cx="500.594" cy="430.017" r="5.01638" stroke-width="0.5" stroke="black" fill="magenta"/>
   </g>
   <g id="cell78">
  <circle cx="371.066" cy="465.834" r="8.41248" stroke-width="0.5" stroke="black" fill="magenta"/>
  <circle cx="371.066" cy="465.834" r="5.05162" stroke-width="0.5" stroke="black" fill="magenta"/>
   </g>
   <g id="cell79">
  <circle cx="498.374" cy="525.021" r="8.41247" stroke-width="0.5" stroke="black" fill="magenta"/>
  <circle cx="498.374" cy="525.021" r="5.05162" stroke-width="0.5" stroke="black" fill="magenta"/>
   </g>
   <g id="cell80">
  <circle cx="602.131" cy="486.179" r="7.9635" stroke-width="0.5" stroke="black" fill="green"/>
  <circle cx="602.131" cy="486.179" r="4.8287" stroke-width="0.5" stroke="black" fill="green"/>
   </g>
   <g id="cell81">
  <circle cx="429.398" cy="504.835" r="8.39369" stroke-width="0.5" stroke="black" fill="green"/>
  <circle cx="429.398" cy="504.835" r="5.04539" stroke-width="0.5" stroke="black" fill="green"/>
   </g>
   <g id="cell82">
  <circle cx="544.928" cy="497.53" r="8.41241" stroke-width="0.5" stroke="black" fill="magenta"/>
  <circle cx="544.928" cy="497.53" r="5.0516" stroke-width="0.5" stroke="black" fill="magenta"/>
   </g>
   <g id="cell130">
  <circle cx="573.985" cy="391.907" r="8.38957" stroke-width="0.5" stroke="black" fill="magenta"/>
  <circle cx="573.985" cy="391.907" r="5.04365" stroke-width="0.5" stroke="black" fill="magenta"/>
   </g>
   <g id="cell84">
  <circle cx="404.187" cy="484.76" r="8.4073" stroke-width="0.5" stroke="black" fill="green"/>
  <circle cx="404.187" cy="484.76" r="5.05011" stroke-width="0.5" stroke="black" fill="green"/>
   </g>
   <g id="cell140">
  <circle cx="525.77" cy="579.93" r="8.30004" stroke-width="0.5" stroke="black" fill="magenta"/>
  <circle cx="525.77" cy="579.93" r="5.00739" stroke-width="0.5" stroke="black" fill="magenta"/>
   </g>
   <g id="cell86">
  <circle cx="391.408" cy="565.681" r="8.40768" stroke-width="0.5" stroke="black" fill="magenta"/>
  <circle cx="391.408" cy="565.681" r="5.05023" stroke-width="0.5" stroke="black" fill="magenta"/>
   </g>
   <g id="cell87">
  <circle cx="432.199" cy="520.321" r="8.23993" stroke-width="0.5" stroke="black" fill="green"/>
  <circle cx="432.199" cy="520.321" r="4.97608" stroke-width="0.5" stroke="black" fill="green"/>
   </g>
   <g id="cell88">
  <circle cx="477.751" cy="602.769" r="7.75871" stroke-width="0.5" stroke="black" fill="green"/>
  <circle cx="477.751" cy="602.769" r="4.71237" stroke-width="0.5" stroke="black" fill="green"/>
   </g>
   <g id="cell89">
  <circle cx="432.219" cy="489.237" r="8.41029" stroke-width="0.5" stroke="black" fill="green"/>
  <circle cx="432.219" cy="489.237" r="5.05104" stroke-width="0.5" stroke="black" fill="green"/>
   </g>
   <g id="cell90">
  <circle cx="580.734" cy="514.358" r="8.20048" stroke-width="0.5" stroke="black" fill="magenta"/>
  <circle cx="580.734" cy="514.358" r="4.95551" stroke-width="0.5" stroke="black" fill="magenta"/>
   </g>
   <g id="cell136">
  <circle cx="525.005" cy="539.673" r="8.36722" stroke-width="0.5" stroke="black" fill="magenta"/>
  <circle cx="525.005" cy="539.673" r="5.03458" stroke-width="0.5" stroke="black" fill="magenta"/>
   </g>
   <g id="cell92">
  <circle cx="556.734" cy="592.565" r="8.40704" stroke-width="0.5" stroke="black" fill="green"/>
  <circle cx="556.734" cy="592.565" r="5.05008" stroke-width="0.5" stroke="black" fill="green"/>
   </g>
   <g id="cell93">
  <circle cx="571.07" cy="525.665" r="8.38414" stroke-width="0.5" stroke="black" fill="cyan"/>
  <circle cx="571.07" cy="525.665" r="5.04168" stroke-width="0.5" stroke="black" fill="cyan"/>
   </g>
   <g id="cell94">
  <circle cx="543.036" cy="470.54" r="8.41163" stroke-width="0.5" stroke="black" fill="cyan"/>
  <circle cx="543.036" cy="470.54" r="5.0514" stroke-width="0.5" stroke="black" fill="cyan"/>
   </g>
   <g id="cell95">
  <circle cx="465.767" cy="534.189" r="8.41163" stroke-width="0.5" stroke="black" fill="magenta"/>
  <circle cx="465.767" cy="534.189" r="5.0514" stroke-width="0.5" stroke="black" fill="magenta"/>
   </g>
   <g id="cell96">
  <circle cx="535.371" cy="378.458" r="8.4114" stroke-width="0.5" stroke="black" fill="magenta"/>
  <circle cx="535.371" cy="378.458" r="5.05134" stroke-width="0.5" stroke="black" fill="magenta"/>
   </g>
   <g id="cell97">
  <circle cx="566.62" cy="510.501" r="8.41121" stroke-width="0.5" stroke="black" fill="magenta"/>
  <circle cx="566.62" cy="510.501" r="5.05129" stroke-width="0.5" stroke="black" fill="magenta"/>
   </g>
   <g id="cell98">
  <circle cx="406.247" cy="572.215" r="8.2854" stroke-width="0.5" stroke="black" fill="green"/>
  <circle cx="406.247" cy="572.215" r="4.99762" stroke-width="0.5" stroke="black" fill="green"/>
   </g>
   <g id="cell99">
  <circle cx="576.514" cy="498.689" r="8.41098" stroke-width="0.5" stroke="black" fill="magenta"/>
  <circle cx="576.514" cy="498.689" r="5.05122" stroke-width="0.5" stroke="black" fill="magenta"/>
   </g>
   <g id="cell100">
  <circle cx="569.766" cy="541.181" r="8.41037" stroke-width="0.5" stroke="black" fill="cyan"/>
  <circle cx="569.766" cy="541.181" r="5.05106" stroke-width="0.5" stroke="black" fill="cyan"/>
   </g>
   <g id="cell101">
  <circle cx="456.86" cy="626.926" r="8.4079" stroke-width="0.5" stroke="black" fill="magenta"/>
  <circle cx="456.86" cy="626.926" r="5.05032" stroke-width="0.5" stroke="black" fill="magenta"/>
   </g>
   <g id="cell102">
  <circle cx="445.994" cy="505.543" r="8.41029" stroke-width="0.5" stroke="black" fill="green"/>
  <circle cx="445.994" cy="505.543" r="5.05104" stroke-width="0.5" stroke="black" fill="green"/>
   </g>
   <g id="cell103">
  <circle cx="551.203" cy="616.827" r="7.77592" stroke-width="0.5" stroke="black" fill="green"/>
  <circle cx="551.203" cy="616.827" r="4.72271" stroke-width="0.5" stroke="black" fill="green"/>
   </g>
   <g id="cell104">
  <circle cx="553.762" cy="540.684" r="8.41009" stroke-width="0.5" stroke="black" fill="green"/>
  <circle cx="553.762" cy="540.684" r="5.05096" stroke-width="0.5" stroke="black" fill="green"/>
   </g>
   <g id="cell105">
  <circle cx="416.306" cy="495.428" r="8.40964" stroke-width="0.5" stroke="black" fill="green"/>
  <circle cx="416.306" cy="495.428" r="5.05083" stroke-width="0.5" stroke="black" fill="green"/>
   </g>
   <g id="cell106">
  <circle cx="646.35" cy="532.623" r="7.49272" stroke-width="0.5" stroke="black" fill="green"/>
  <circle cx="646.35" cy="532.623" r="4.55492" stroke-width="0.5" stroke="black" fill="green"/>
   </g>
   <g id="cell107">
  <circle cx="383.63" cy="513.009" r="8.40895" stroke-width="0.5" stroke="black" fill="cyan"/>
  <circle cx="383.63" cy="513.009" r="5.05061" stroke-width="0.5" stroke="black" fill="cyan"/>
   </g>
   <g id="cell108">
  <circle cx="460.324" cy="641.665" r="8.4079" stroke-width="0.5" stroke="black" fill="magenta"/>
  <circle cx="460.324" cy="641.665" r="5.05032" stroke-width="0.5" stroke="black" fill="magenta"/>
   </g>
   <g id="cell109">
  <circle cx="445.84" cy="637.303" r="8.4079" stroke-width="0.5" stroke="black" fill="magenta"/>
  <circle cx="445.84" cy="637.303" r="5.05032" stroke-width="0.5" stroke="black" fill="magenta"/>
   </g>
   <g id="cell110">
  <circle cx="543.77" cy="572.453" r="7.0185" stroke-width="0.5" stroke="black" fill="green"/>
  <circle cx="543.77" cy="572.453" r="4.2552" stroke-width="0.5" stroke="black" fill="green"/>
   </g>
   <g id="cell111">
  <circle cx="627.497" cy="553.8" r="8.40704" stroke-width="0.5" stroke="black" fill="green"/>
  <circle cx="627.497" cy="553.8" r="5.05006" stroke-width="0.5" stroke="black" fill="green"/>
   </g>
   <g id="cell112">
  <circle cx="378.853" cy="573.724" r="8.40768" stroke-width="0.5" stroke="black" fill="magenta"/>
  <circle cx="378.853" cy="573.724" r="5.05023" stroke-width="0.5" stroke="black" fill="magenta"/>
   </g>
   <g id="cell113">
  <circle cx="418.992" cy="480.114" r="8.4073" stroke-width="0.5" stroke="black" fill="green"/>
  <circle cx="418.992" cy="480.114" r="5.05011" stroke-width="0.5" stroke="black" fill="green"/>
   </g>
   <g id="cell114">
  <circle cx="502.731" cy="452.264" r="8.38072" stroke-width="0.5" stroke="black" fill="magenta"/>
  <circle cx="502.731" cy="452.264" r="5.04047" stroke-width="0.5" stroke="black" fill="magenta"/>
   </g>
   <g id="cell115">
  <circle cx="452.403" cy="525.931" r="8.40579" stroke-width="0.5" stroke="black" fill="green"/>
  <circle cx="452.403" cy="525.931" r="5.04961" stroke-width="0.5" stroke="black" fill="green"/>
   </g>
   <g id="cell116">
  <circle cx="368.667" cy="519.331" r="8.40368" stroke-width="0.5" stroke="black" fill="cyan"/>
  <circle cx="368.667" cy="519.331" r="5.04897" stroke-width="0.5" stroke="black" fill="cyan"/>
   </g>
   <g id="cell173">
  <circle cx="539.98" cy="609.617" r="6.46218" stroke-width="0.5" stroke="black" fill="green"/>
  <circle cx="539.98" cy="609.617" r="3.95107" stroke-width="0.5" stroke="black" fill="green"/>
   </g>
   <g id="cell118">
  <circle cx="524.038" cy="524.838" r="7.80768" stroke-width="0.5" stroke="black" fill="cyan"/>
  <circle cx="524.038" cy="524.838" r="4.74187" stroke-width="0.5" stroke="black" fill="cyan"/>
   </g>
   <g id="cell119">
  <circle cx="527.271" cy="635.373" r="8.31536" stroke-width="0.5" stroke="black" fill="green"/>
  <circle cx="527.271" cy="635.373" r="5.01227" stroke-width="0.5" stroke="black" fill="green"/>
   </g>
   <g id="cell121">
  <circle cx="390.999" cy="550.618" r="8.40121" stroke-width="0.5" stroke="black" fill="magenta"/>
  <circle cx="390.999" cy="550.618" r="5.04803" stroke-width="0.5" stroke="black" fill="magenta"/>
   </g>
   <g id="cell122">
  <circle cx="615.213" cy="459.813" r="8.00608" stroke-width="0.5" stroke="black" fill="cyan"/>
  <circle cx="615.213" cy="459.813" r="4.85362" stroke-width="0.5" stroke="black" fill="cyan"/>
   </g>
   <g id="cell123">
  <circle cx="500.147" cy="644.79" r="8.3995" stroke-width="0.5" stroke="black" fill="cyan"/>
  <circle cx="500.147" cy="644.79" r="5.04738" stroke-width="0.5" stroke="black" fill="cyan"/>
   </g>
   <g id="cell124">
  <circle cx="379.581" cy="589.361" r="8.39913" stroke-width="0.5" stroke="black" fill="green"/>
  <circle cx="379.581" cy="589.361" r="5.04725" stroke-width="0.5" stroke="black" fill="green"/>
   </g>
   <g id="cell125">
  <circle cx="452.629" cy="454.462" r="8.39784" stroke-width="0.5" stroke="black" fill="cyan"/>
  <circle cx="452.629" cy="454.462" r="5.04679" stroke-width="0.5" stroke="black" fill="cyan"/>
   </g>
   <g id="cell126">
  <circle cx="414.332" cy="510.829" r="8.39369" stroke-width="0.5" stroke="black" fill="green"/>
  <circle cx="414.332" cy="510.829" r="5.04539" stroke-width="0.5" stroke="black" fill="green"/>
   </g>
   <g id="cell127">
  <circle cx="413.437" cy="595.813" r="8.3937" stroke-width="0.5" stroke="black" fill="cyan"/>
  <circle cx="413.437" cy="595.813" r="5.04523" stroke-width="0.5" stroke="black" fill="cyan"/>
   </g>
   <g id="cell128">
  <circle cx="354.092" cy="535.023" r="7.31508" stroke-width="0.5" stroke="black" fill="cyan"/>
  <circle cx="354.092" cy="535.023" r="4.44941" stroke-width="0.5" stroke="black" fill="cyan"/>
   </g>
   <g id="cell131">
  <circle cx="584.502" cy="535.324" r="8.38414" stroke-width="0.5" stroke="black" fill="cyan"/>
  <circle cx="584.502" cy="535.324" r="5.04168" stroke-width="0.5" stroke="black" fill="cyan"/>
   </g>
   <g id="cell132">
  <circle cx="511.173" cy="440.024" r="8.38072" stroke-width="0.5" stroke="black" fill="magenta"/>
  <circle cx="511.173" cy="440.024" r="5.04047" stroke-width="0.5" stroke="black" fill="magenta"/>
   </g>
   <g id="cell133">
  <circle cx="535.038" cy="409.439" r="8.38118" stroke-width="0.5" stroke="black" fill="magenta"/>
  <circle cx="535.038" cy="409.439" r="5.04034" stroke-width="0.5" stroke="black" fill="magenta"/>
   </g>
   <g id="cell134">
  <circle cx="511.004" cy="580.465" r="8.33145" stroke-width="0.5" stroke="black" fill="magenta"/>
  <circle cx="511.004" cy="580.465" r="5.02034" stroke-width="0.5" stroke="black" fill="magenta"/>
   </g>
   <g id="cell135">
  <circle cx="566.764" cy="483.041" r="8.37431" stroke-width="0.5" stroke="black" fill="cyan"/>
  <circle cx="566.764" cy="483.041" r="5.03754" stroke-width="0.5" stroke="black" fill="cyan"/>
   </g>
   <g id="cell137">
  <circle cx="378.844" cy="478.697" r="8.3587" stroke-width="0.5" stroke="black" fill="magenta"/>
  <circle cx="378.844" cy="478.697" r="5.03098" stroke-width="0.5" stroke="black" fill="magenta"/>
   </g>
   <g id="cell138">
  <circle cx="532.541" cy="592.702" r="8.11572" stroke-width="0.5" stroke="black" fill="magenta"/>
  <circle cx="532.541" cy="592.702" r="4.9189" stroke-width="0.5" stroke="black" fill="magenta"/>
   </g>
   <g id="cell139">
  <circle cx="511.046" cy="607.178" r="8.33823" stroke-width="0.5" stroke="black" fill="green"/>
  <circle cx="511.046" cy="607.178" r="5.02261" stroke-width="0.5" stroke="black" fill="green"/>
   </g>
   <g id="cell142">
  <circle cx="585.41" cy="382.173" r="8.31363" stroke-width="0.5" stroke="black" fill="magenta"/>
  <circle cx="585.41" cy="382.173" r="5.01207" stroke-width="0.5" stroke="black" fill="magenta"/>
   </g>
   <g id="cell143">
  <circle cx="536.742" cy="622.944" r="8.31536" stroke-width="0.5" stroke="black" fill="green"/>
  <circle cx="536.742" cy="622.944" r="5.01227" stroke-width="0.5" stroke="black" fill="green"/>
   </g>
   <g id="cell144">
  <circle cx="378.621" cy="543.228" r="8.31209" stroke-width="0.5" stroke="black" fill="magenta"/>
  <circle cx="378.621" cy="543.228" r="5.01002" stroke-width="0.5" stroke="black" fill="magenta"/>
   </g>
   <g id="cell145">
  <circle cx="454.89" cy="481.973" r="6.75656" stroke-width="0.5" stroke="black" fill="magenta"/>
  <circle cx="454.89" cy="481.973" r="4.09377" stroke-width="0.5" stroke="black" fill="magenta"/>
   </g>
   <g id="cell146">
  <circle cx="461.255" cy="424.643" r="8.28629" stroke-width="0.5" stroke="black" fill="cyan"/>
  <circle cx="461.255" cy="424.643" r="4.99786" stroke-width="0.5" stroke="black" fill="cyan"/>
   </g>
   <g id="cell148">
  <circle cx="400.789" cy="605.348" r="8.25702" stroke-width="0.5" stroke="black" fill="cyan"/>
  <circle cx="400.789" cy="605.348" r="4.98513" stroke-width="0.5" stroke="black" fill="cyan"/>
   </g>
   <g id="cell149">
  <circle cx="438.855" cy="534.436" r="8.23993" stroke-width="0.5" stroke="black" fill="green"/>
  <circle cx="438.855" cy="534.436" r="4.97608" stroke-width="0.5" stroke="black" fill="green"/>
   </g>
   <g id="cell150">
  <circle cx="471.672" cy="631.265" r="8.23407" stroke-width="0.5" stroke="black" fill="green"/>
  <circle cx="471.672" cy="631.265" r="4.97243" stroke-width="0.5" stroke="black" fill="green"/>
   </g>
   <g id="cell151">
  <circle cx="524.039" cy="509.653" r="8.22925" stroke-width="0.5" stroke="black" fill="cyan"/>
  <circle cx="524.039" cy="509.653" r="4.96993" stroke-width="0.5" stroke="black" fill="cyan"/>
   </g>
   <g id="cell152">
  <circle cx="643.292" cy="552.541" r="8.20975" stroke-width="0.5" stroke="black" fill="green"/>
  <circle cx="643.292" cy="552.541" r="4.96076" stroke-width="0.5" stroke="black" fill="green"/>
   </g>
   <g id="cell153">
  <circle cx="395.98" cy="523.221" r="8.19396" stroke-width="0.5" stroke="black" fill="cyan"/>
  <circle cx="395.98" cy="523.221" r="4.9543" stroke-width="0.5" stroke="black" fill="cyan"/>
   </g>
   <g id="cell154">
  <circle cx="589.048" cy="504.687" r="7.00349" stroke-width="0.5" stroke="black" fill="magenta"/>
  <circle cx="589.048" cy="504.687" r="4.27257" stroke-width="0.5" stroke="black" fill="magenta"/>
   </g>
   <g id="cell156">
  <circle cx="403.553" cy="557.538" r="7.82949" stroke-width="0.5" stroke="black" fill="green"/>
  <circle cx="403.553" cy="557.538" r="4.76746" stroke-width="0.5" stroke="black" fill="green"/>
   </g>
   <g id="cell157">
  <circle cx="392.969" cy="474.376" r="8.09291" stroke-width="0.5" stroke="black" fill="magenta"/>
  <circle cx="392.969" cy="474.376" r="4.90338" stroke-width="0.5" stroke="black" fill="magenta"/>
   </g>
   <g id="cell158">
  <circle cx="432.392" cy="473.867" r="7.93157" stroke-width="0.5" stroke="black" fill="green"/>
  <circle cx="432.392" cy="473.867" r="4.82278" stroke-width="0.5" stroke="black" fill="green"/>
   </g>
   <g id="cell159">
  <circle cx="439.232" cy="461.21" r="7.93157" stroke-width="0.5" stroke="black" fill="green"/>
  <circle cx="439.232" cy="461.21" r="4.82278" stroke-width="0.5" stroke="black" fill="green"/>
   </g>
   <g id="cell160">
  <circle cx="417.326" cy="560.697" r="7.88894" stroke-width="0.5" stroke="black" fill="green"/>
  <circle cx="417.326" cy="560.697" r="4.7999" stroke-width="0.5" stroke="black" fill="green"/>
   </g>
   <g id="cell161">
  <circle cx="528.718" cy="464.504" r="8.04545" stroke-width="0.5" stroke="black" fill="cyan"/>
  <circle cx="528.718" cy="464.504" r="4.87384" stroke-width="0.5" stroke="black" fill="cyan"/>
   </g>
   <g id="cell162">
  <circle cx="610.657" cy="473.965" r="8.00608" stroke-width="0.5" stroke="black" fill="cyan"/>
  <circle cx="610.657" cy="473.965" r="4.85362" stroke-width="0.5" stroke="black" fill="cyan"/>
   </g>
   <g id="cell163">
  <circle cx="425.435" cy="548.539" r="7.73196" stroke-width="0.5" stroke="black" fill="green"/>
  <circle cx="425.435" cy="548.539" r="4.72064" stroke-width="0.5" stroke="black" fill="green"/>
   </g>
   <g id="cell164">
  <circle cx="461.63" cy="467.114" r="8.00457" stroke-width="0.5" stroke="black" fill="cyan"/>
  <circle cx="461.63" cy="467.114" r="4.85308" stroke-width="0.5" stroke="black" fill="cyan"/>
   </g>
   <g id="cell165">
  <circle cx="411.266" cy="545.354" r="7.82949" stroke-width="0.5" stroke="black" fill="green"/>
  <circle cx="411.266" cy="545.354" r="4.76746" stroke-width="0.5" stroke="black" fill="green"/>
   </g>
   <g id="cell166">
  <circle cx="602.163" cy="501.473" r="7.9635" stroke-width="0.5" stroke="black" fill="green"/>
  <circle cx="602.163" cy="501.473" r="4.8287" stroke-width="0.5" stroke="black" fill="green"/>
   </g>
   <g id="cell167">
  <circle cx="466.664" cy="387.319" r="7.96365" stroke-width="0.5" stroke="black" fill="green"/>
  <circle cx="466.664" cy="387.319" r="4.82873" stroke-width="0.5" stroke="black" fill="green"/>
   </g>
   <g id="cell168">
  <circle cx="520.283" cy="407.541" r="7.93283" stroke-width="0.5" stroke="black" fill="magenta"/>
  <circle cx="520.283" cy="407.541" r="4.8149" stroke-width="0.5" stroke="black" fill="magenta"/>
   </g>
   <g id="cell169">
  <circle cx="467.082" cy="435.874" r="5.76066" stroke-width="0.5" stroke="black" fill="magenta"/>
  <circle cx="467.082" cy="435.874" r="3.53704" stroke-width="0.5" stroke="black" fill="magenta"/>
   </g>
   <g id="cell170">
  <circle cx="628.478" cy="488.868" r="7.87837" stroke-width="0.5" stroke="black" fill="green"/>
  <circle cx="628.478" cy="488.868" r="4.78092" stroke-width="0.5" stroke="black" fill="green"/>
   </g>
   <g id="cell171">
  <circle cx="537.267" cy="530.767" r="7.80768" stroke-width="0.5" stroke="black" fill="cyan"/>
  <circle cx="537.267" cy="530.767" r="4.74187" stroke-width="0.5" stroke="black" fill="cyan"/>
   </g>
   <g id="cell172">
  <circle cx="511.371" cy="518.063" r="7.67118" stroke-width="0.5" stroke="black" fill="cyan"/>
  <circle cx="511.371" cy="518.063" r="4.67519" stroke-width="0.5" stroke="black" fill="cyan"/>
   </g>
   <g id="cell175">
  <circle cx="634.529" cy="540.47" r="7.49272" stroke-width="0.5" stroke="black" fill="green"/>
  <circle cx="634.529" cy="540.47" r="4.55492" stroke-width="0.5" stroke="black" fill="green"/>
   </g>
   <g id="cell177">
  <circle cx="367.692" cy="534.378" r="7.31508" stroke-width="0.5" stroke="black" fill="cyan"/>
  <circle cx="367.692" cy="534.378" r="4.44941" stroke-width="0.5" stroke="black" fill="cyan"/>
   </g>
   <g id="cell178">
  <circle cx="481.121" cy="444.892" r="6.98224" stroke-width="0.5" stroke="black" fill="magenta"/>
  <circle cx="481.121" cy="444.892" r="4.28149" stroke-width="0.5" stroke="black" fill="magenta"/>
   </g>
   <g id="cell179">
  <circle cx="446.44" cy="491.496" r="6.93713" stroke-width="0.5" stroke="black" fill="cyan"/>
  <circle cx="446.44" cy="491.496" r="4.24484" stroke-width="0.5" stroke="black" fill="cyan"/>
   </g>
   <g id="cell180">
  <circle cx="590.688" cy="493.127" r="7.00349" stroke-width="0.5" stroke="black" fill="magenta"/>
  <circle cx="590.688" cy="493.127" r="4.27257" stroke-width="0.5" stroke="black" fill="magenta"/>
   </g>
   <g id="cell181">
  <circle cx="544.117" cy="585.487" r="7.0185" stroke-width="0.5" stroke="black" fill="green"/>
  <circle cx="544.117" cy="585.487" r="4.2552" stroke-width="0.5" stroke="black" fill="green"/>
   </g>
   <g id="cell182">
  <circle cx="449.197" cy="470.908" r="5.99582" stroke-width="0.5" stroke="black" fill="cyan"/>
  <circle cx="449.197" cy="470.908" r="3.69642" stroke-width="0.5" stroke="black" fill="cyan"/>
   </g>
   <g id="cell183">
  <circle cx="523.276" cy="384.515" r="6.95805" stroke-width="0.5" stroke="black" fill="magenta"/>
  <circle cx="523.276" cy="384.515" r="4.21315" stroke-width="0.5" stroke="black" fill="magenta"/>
   </g>
   <g id="cell184">
  <circle cx="544.3" cy="598.482" r="6.46218" stroke-width="0.5" stroke="black" fill="green"/>
  <circle cx="544.3" cy="598.482" r="3.95107" stroke-width="0.5" stroke="black" fill="green"/>
   </g>
   <g id="cell185">
  <circle cx="418.807" cy="523.026" r="5.68972" stroke-width="0.5" stroke="black" fill="green"/>
  <circle cx="418.807" cy="523.026" r="3.46428" stroke-width="0.5" stroke="black" fill="green"/>
   </g>
   <g id="cell186">
  <circle cx="607.211" cy="522.56" r="5.50139" stroke-width="0.5" stroke="black" fill="cyan"/>
  <circle cx="607.211" cy="522.56" r="3.32941" stroke-width="0.5" stroke="black" fill="cyan"/>
   </g>
   <g id="cell187">
  <circle cx="466.699" cy="479.922" r="6.75656" stroke-width="0.5" stroke="black" fill="magenta"/>
  <circle cx="466.699" cy="479.922" r="4.09377" stroke-width="0.5" stroke="black" fill="magenta"/>
   </g>
   <g id="cell188">
  <circle cx="619.52" cy="531.303" r="5.64445" stroke-width="0.5" stroke="black" fill="cyan"/>
  <circle cx="619.52" cy="531.303" r="3.4332" stroke-width="0.5" stroke="black" fill="cyan"/>
   </g>
   <g id="cell189">
  <circle cx="423.829" cy="532.311" r="5.68972" stroke-width="0.5" stroke="black" fill="green"/>
  <circle cx="423.829" cy="532.311" r="3.46428" stroke-width="0.5" stroke="black" fill="green"/>
   </g>
   <g id="cell190">
  <circle cx="431.434" cy="401.531" r="6.73944" stroke-width="0.5" stroke="black" fill="green"/>
  <circle cx="431.434" cy="401.531" r="4.06224" stroke-width="0.5" stroke="black" fill="green"/>
   </g>
   <g id="cell191">
  <circle cx="476.773" cy="434.627" r="5.76066" stroke-width="0.5" stroke="black" fill="magenta"/>
  <circle cx="476.773" cy="434.627" r="3.53704" stroke-width="0.5" stroke="black" fill="magenta"/>
   </g>
   <g id="cell192">
  <circle cx="612.406" cy="513.569" r="5.50139" stroke-width="0.5" stroke="black" fill="cyan"/>
  <circle cx="612.406" cy="513.569" r="3.32941" stroke-width="0.5" stroke="black" fill="cyan"/>
   </g>
   <g id="cell193">
  <circle cx="587.138" cy="473.501" r="6.66753" stroke-width="0.5" stroke="black" fill="cyan"/>
  <circle cx="587.138" cy="473.501" r="4.00641" stroke-width="0.5" stroke="black" fill="cyan"/>
   </g>
  </g>
 </g>
  <rect x="775" y="1035" width="200" height="10" stroke-width="2" stroke="rgb(255,255,255)" fill="rgb(0,0,0)"/>
  <text x="781.25" y="1028.75"
   font-family="Arial" font-size="25" fill="black" >
   200 &#956;m
  </text>
  <text x="25" y="1045"
   font-family="Arial" font-size="18.75" fill="black" >
   0 days, 0 hours, 0 minutes, and 44.5874 seconds
  </text>
  <rect x="0" y="70" width="1000" height="1000" stroke-width="2" stroke="rgb(0,0,0)" fill="none"/>
</svg>
