<?xml version="1.0" encoding="UTF-8" standalone="no"?>
<!-- Created with PhysiCell (http://PhysiCell.MathCancer.org/) -->
<svg 
 xmlns:dc="http://purl.org/dc/elements/1.1/" 
 xmlns:cc="http://creativecommons.org/ns#" 
 xmlns:rdf="http://www.w3.org/1999/02/22-rdf-syntax-ns#" 
 xmlns:svg="http://www.w3.org/2000/svg" 
 xmlns="http://www.w3.org/2000/svg" 
 version="1.1" 
 width="1000" 
 height="1070" 
 id="svg2">
  <rect x="0" y="0" width="1000" height="1070" stroke-width="2" stroke="white" fill="white"/>
  <text x="12.5" y="30"
   font-family="Arial" font-size="25" fill="black" >
   Current time: 1 days, 2 hours, and 0.00 minutes, z = 0.00 &#956;m
  </text>
  <text x="12.5" y="57.5"
   font-family="Arial" font-size="23.75" fill="black" >
   148 agents
  </text>
 <g id="tissue" 
    transform="translate(0,1070) scale(1,-1)">
  <g id="ECM">
  </g>
  <g id="cells">
   <g id="cell0">
  <circle cx="514.569" cy="529.021" r="8.41103" stroke-width="0.5" stroke="black" fill="magenta"/>
  <circle cx="514.569" cy="529.021" r="5.05123" stroke-width="0.5" stroke="black" fill="magenta"/>
   </g>
   <g id="cell147">
  <circle cx="419.627" cy="570.435" r="7.46108" stroke-width="0.5" stroke="black" fill="green"/>
  <circle cx="419.627" cy="570.435" r="4.53718" stroke-width="0.5" stroke="black" fill="green"/>
   </g>
   <g id="cell2">
  <circle cx="510.089" cy="595.395" r="8.1609" stroke-width="0.5" stroke="black" fill="magenta"/>
  <circle cx="510.089" cy="595.395" r="4.93506" stroke-width="0.5" stroke="black" fill="magenta"/>
   </g>
   <g id="cell3">
  <circle cx="538.382" cy="540.383" r="8.07654" stroke-width="0.5" stroke="black" fill="magenta"/>
  <circle cx="538.382" cy="540.383" r="4.89046" stroke-width="0.5" stroke="black" fill="magenta"/>
   </g>
   <g id="cell4">
  <circle cx="467.131" cy="440.368" r="8.41121" stroke-width="0.5" stroke="black" fill="magenta"/>
  <circle cx="467.131" cy="440.368" r="5.05128" stroke-width="0.5" stroke="black" fill="magenta"/>
   </g>
   <g id="cell5">
  <circle cx="465.686" cy="498.654" r="7.61469" stroke-width="0.5" stroke="black" fill="magenta"/>
  <circle cx="465.686" cy="498.654" r="4.62762" stroke-width="0.5" stroke="black" fill="magenta"/>
   </g>
   <g id="cell6">
  <circle cx="594.399" cy="512.938" r="8.40731" stroke-width="0.5" stroke="black" fill="magenta"/>
  <circle cx="594.399" cy="512.938" r="5.05008" stroke-width="0.5" stroke="black" fill="magenta"/>
   </g>
   <g id="cell7">
  <circle cx="511.672" cy="464.521" r="8.41271" stroke-width="0.5" stroke="black" fill="magenta"/>
  <circle cx="511.672" cy="464.521" r="5.05167" stroke-width="0.5" stroke="black" fill="magenta"/>
   </g>
   <g id="cell8">
  <circle cx="368.058" cy="549.502" r="7.65871" stroke-width="0.5" stroke="black" fill="magenta"/>
  <circle cx="368.058" cy="549.502" r="4.6537" stroke-width="0.5" stroke="black" fill="magenta"/>
   </g>
   <g id="cell9">
  <circle cx="463.896" cy="602.021" r="8.407" stroke-width="0.5" stroke="black" fill="magenta"/>
  <circle cx="463.896" cy="602.021" r="5.04998" stroke-width="0.5" stroke="black" fill="magenta"/>
   </g>
   <g id="cell10">
  <circle cx="587.676" cy="396.467" r="7.66091" stroke-width="0.5" stroke="black" fill="magenta"/>
  <circle cx="587.676" cy="396.467" r="4.66859" stroke-width="0.5" stroke="black" fill="magenta"/>
   </g>
   <g id="cell11">
  <circle cx="589.748" cy="590.273" r="8.41271" stroke-width="0.5" stroke="black" fill="magenta"/>
  <circle cx="589.748" cy="590.273" r="5.05167" stroke-width="0.5" stroke="black" fill="magenta"/>
   </g>
   <g id="cell12">
  <circle cx="500.19" cy="584.289" r="8.41271" stroke-width="0.5" stroke="black" fill="magenta"/>
  <circle cx="500.19" cy="584.289" r="5.05167" stroke-width="0.5" stroke="black" fill="magenta"/>
   </g>
   <g id="cell13">
  <circle cx="378.996" cy="558.76" r="8.33024" stroke-width="0.5" stroke="black" fill="magenta"/>
  <circle cx="378.996" cy="558.76" r="5.01873" stroke-width="0.5" stroke="black" fill="magenta"/>
   </g>
   <g id="cell14">
  <circle cx="523.331" cy="399.163" r="8.18177" stroke-width="0.5" stroke="black" fill="magenta"/>
  <circle cx="523.331" cy="399.163" r="4.94584" stroke-width="0.5" stroke="black" fill="magenta"/>
   </g>
   <g id="cell15">
  <circle cx="391.951" cy="483.725" r="8.01189" stroke-width="0.5" stroke="black" fill="magenta"/>
  <circle cx="391.951" cy="483.725" r="4.8556" stroke-width="0.5" stroke="black" fill="magenta"/>
   </g>
   <g id="cell16">
  <circle cx="431.267" cy="412.137" r="8.41271" stroke-width="0.5" stroke="black" fill="magenta"/>
  <circle cx="431.267" cy="412.137" r="5.05167" stroke-width="0.5" stroke="black" fill="magenta"/>
   </g>
   <g id="cell17">
  <circle cx="589.159" cy="487.499" r="8.40056" stroke-width="0.5" stroke="black" fill="magenta"/>
  <circle cx="589.159" cy="487.499" r="5.04776" stroke-width="0.5" stroke="black" fill="magenta"/>
   </g>
   <g id="cell18">
  <circle cx="509.823" cy="392.8" r="8.41129" stroke-width="0.5" stroke="black" fill="magenta"/>
  <circle cx="509.823" cy="392.8" r="5.05131" stroke-width="0.5" stroke="black" fill="magenta"/>
   </g>
   <g id="cell19">
  <circle cx="449.668" cy="541.912" r="8.40516" stroke-width="0.5" stroke="black" fill="magenta"/>
  <circle cx="449.668" cy="541.912" r="5.04937" stroke-width="0.5" stroke="black" fill="magenta"/>
   </g>
   <g id="cell20">
  <circle cx="528.519" cy="422.972" r="8.41271" stroke-width="0.5" stroke="black" fill="magenta"/>
  <circle cx="528.519" cy="422.972" r="5.05167" stroke-width="0.5" stroke="black" fill="magenta"/>
   </g>
   <g id="cell141">
  <circle cx="481.627" cy="440.46" r="7.75278" stroke-width="0.5" stroke="black" fill="magenta"/>
  <circle cx="481.627" cy="440.46" r="4.71372" stroke-width="0.5" stroke="black" fill="magenta"/>
   </g>
   <g id="cell22">
  <circle cx="559.312" cy="495.403" r="8.40221" stroke-width="0.5" stroke="black" fill="magenta"/>
  <circle cx="559.312" cy="495.403" r="5.04844" stroke-width="0.5" stroke="black" fill="magenta"/>
   </g>
   <g id="cell23">
  <circle cx="534.836" cy="484.215" r="8.41271" stroke-width="0.5" stroke="black" fill="magenta"/>
  <circle cx="534.836" cy="484.215" r="5.05167" stroke-width="0.5" stroke="black" fill="magenta"/>
   </g>
   <g id="cell24">
  <circle cx="562.336" cy="382.324" r="8.41271" stroke-width="0.5" stroke="black" fill="magenta"/>
  <circle cx="562.336" cy="382.324" r="5.05167" stroke-width="0.5" stroke="black" fill="magenta"/>
   </g>
   <g id="cell25">
  <circle cx="652.867" cy="563.706" r="6.9616" stroke-width="0.5" stroke="black" fill="green"/>
  <circle cx="652.867" cy="563.706" r="4.22427" stroke-width="0.5" stroke="black" fill="green"/>
   </g>
   <g id="cell26">
  <circle cx="548.078" cy="402.313" r="8.41271" stroke-width="0.5" stroke="black" fill="green"/>
  <circle cx="548.078" cy="402.313" r="5.05167" stroke-width="0.5" stroke="black" fill="green"/>
   </g>
   <g id="cell27">
  <circle cx="457.446" cy="388.678" r="8.41271" stroke-width="0.5" stroke="black" fill="green"/>
  <circle cx="457.446" cy="388.678" r="5.05167" stroke-width="0.5" stroke="black" fill="green"/>
   </g>
   <g id="cell28">
  <circle cx="432.156" cy="547.213" r="8.41271" stroke-width="0.5" stroke="black" fill="green"/>
  <circle cx="432.156" cy="547.213" r="5.05167" stroke-width="0.5" stroke="black" fill="green"/>
   </g>
   <g id="cell29">
  <circle cx="466.455" cy="520.611" r="8.36348" stroke-width="0.5" stroke="black" fill="green"/>
  <circle cx="466.455" cy="520.611" r="5.03332" stroke-width="0.5" stroke="black" fill="green"/>
   </g>
   <g id="cell30">
  <circle cx="478.749" cy="539.425" r="8.41271" stroke-width="0.5" stroke="black" fill="green"/>
  <circle cx="478.749" cy="539.425" r="5.05167" stroke-width="0.5" stroke="black" fill="green"/>
   </g>
   <g id="cell31">
  <circle cx="412.672" cy="539.403" r="8.41271" stroke-width="0.5" stroke="black" fill="green"/>
  <circle cx="412.672" cy="539.403" r="5.05167" stroke-width="0.5" stroke="black" fill="green"/>
   </g>
   <g id="cell32">
  <circle cx="430.097" cy="465.293" r="8.4085" stroke-width="0.5" stroke="black" fill="green"/>
  <circle cx="430.097" cy="465.293" r="5.05047" stroke-width="0.5" stroke="black" fill="green"/>
   </g>
   <g id="cell33">
  <circle cx="498.851" cy="413.324" r="8.40905" stroke-width="0.5" stroke="black" fill="green"/>
  <circle cx="498.851" cy="413.324" r="5.05064" stroke-width="0.5" stroke="black" fill="green"/>
   </g>
   <g id="cell34">
  <circle cx="392.094" cy="453.619" r="8.40814" stroke-width="0.5" stroke="black" fill="green"/>
  <circle cx="392.094" cy="453.619" r="5.05035" stroke-width="0.5" stroke="black" fill="green"/>
   </g>
   <g id="cell35">
  <circle cx="544.892" cy="554.326" r="8.39422" stroke-width="0.5" stroke="black" fill="green"/>
  <circle cx="544.892" cy="554.326" r="5.04543" stroke-width="0.5" stroke="black" fill="green"/>
   </g>
   <g id="cell36">
  <circle cx="395.313" cy="580.247" r="8.31491" stroke-width="0.5" stroke="black" fill="green"/>
  <circle cx="395.313" cy="580.247" r="5.01133" stroke-width="0.5" stroke="black" fill="green"/>
   </g>
   <g id="cell37">
  <circle cx="634.871" cy="460.618" r="1.72142" stroke-width="0.5" stroke="black" fill="green"/>
  <circle cx="634.871" cy="460.618" r="1.67587" stroke-width="0.5" stroke="black" fill="black"/>
   </g>
   <g id="cell38">
  <circle cx="523.846" cy="603.684" r="8.40557" stroke-width="0.5" stroke="black" fill="green"/>
  <circle cx="523.846" cy="603.684" r="5.04951" stroke-width="0.5" stroke="black" fill="green"/>
   </g>
   <g id="cell39">
  <circle cx="617.665" cy="494.802" r="8.41093" stroke-width="0.5" stroke="black" fill="green"/>
  <circle cx="617.665" cy="494.802" r="5.0512" stroke-width="0.5" stroke="black" fill="green"/>
   </g>
   <g id="cell40">
  <circle cx="486.765" cy="572.945" r="8.41271" stroke-width="0.5" stroke="black" fill="green"/>
  <circle cx="486.765" cy="572.945" r="5.05167" stroke-width="0.5" stroke="black" fill="green"/>
   </g>
   <g id="cell41">
  <circle cx="364.152" cy="479.64" r="8.41271" stroke-width="0.5" stroke="black" fill="green"/>
  <circle cx="364.152" cy="479.64" r="5.05167" stroke-width="0.5" stroke="black" fill="green"/>
   </g>
   <g id="cell42">
  <circle cx="452.799" cy="487.086" r="2.11429" stroke-width="0.5" stroke="black" fill="green"/>
  <circle cx="452.799" cy="487.086" r="1.97783" stroke-width="0.5" stroke="black" fill="black"/>
   </g>
   <g id="cell43">
  <circle cx="558.149" cy="445.604" r="8.41271" stroke-width="0.5" stroke="black" fill="green"/>
  <circle cx="558.149" cy="445.604" r="5.05167" stroke-width="0.5" stroke="black" fill="green"/>
   </g>
   <g id="cell44">
  <circle cx="486.097" cy="628.42" r="7.11468" stroke-width="0.5" stroke="black" fill="green"/>
  <circle cx="486.097" cy="628.42" r="4.31845" stroke-width="0.5" stroke="black" fill="green"/>
   </g>
   <g id="cell45">
  <circle cx="417.793" cy="554.694" r="8.40056" stroke-width="0.5" stroke="black" fill="green"/>
  <circle cx="417.793" cy="554.694" r="5.04776" stroke-width="0.5" stroke="black" fill="green"/>
   </g>
   <g id="cell46">
  <circle cx="520.155" cy="620.806" r="7.85437" stroke-width="0.5" stroke="black" fill="green"/>
  <circle cx="520.155" cy="620.806" r="4.7737" stroke-width="0.5" stroke="black" fill="green"/>
   </g>
   <g id="cell47">
  <circle cx="498.156" cy="508.254" r="8.41271" stroke-width="0.5" stroke="black" fill="green"/>
  <circle cx="498.156" cy="508.254" r="5.05167" stroke-width="0.5" stroke="black" fill="green"/>
   </g>
   <g id="cell48">
  <circle cx="566.166" cy="605.044" r="8.41271" stroke-width="0.5" stroke="black" fill="green"/>
  <circle cx="566.166" cy="605.044" r="5.05167" stroke-width="0.5" stroke="black" fill="green"/>
   </g>
   <g id="cell49">
  <circle cx="434.638" cy="397.06" r="8.25377" stroke-width="0.5" stroke="black" fill="green"/>
  <circle cx="434.638" cy="397.06" r="4.98209" stroke-width="0.5" stroke="black" fill="green"/>
   </g>
   <g id="cell50">
  <circle cx="510.624" cy="515.342" r="7.08639" stroke-width="0.5" stroke="black" fill="cyan"/>
  <circle cx="510.624" cy="515.342" r="4.29876" stroke-width="0.5" stroke="black" fill="cyan"/>
   </g>
   <g id="cell51">
  <circle cx="386.463" cy="604.152" r="7.24097" stroke-width="0.5" stroke="black" fill="cyan"/>
  <circle cx="386.463" cy="604.152" r="4.41533" stroke-width="0.5" stroke="black" fill="cyan"/>
   </g>
   <g id="cell120">
  <circle cx="419.653" cy="610.666" r="8.34117" stroke-width="0.5" stroke="black" fill="cyan"/>
  <circle cx="419.653" cy="610.666" r="5.02327" stroke-width="0.5" stroke="black" fill="cyan"/>
   </g>
   <g id="cell53">
  <circle cx="571.108" cy="436.137" r="8.41271" stroke-width="0.5" stroke="black" fill="cyan"/>
  <circle cx="571.108" cy="436.137" r="5.05167" stroke-width="0.5" stroke="black" fill="cyan"/>
   </g>
   <g id="cell54">
  <circle cx="481.599" cy="426.401" r="7.46878" stroke-width="0.5" stroke="black" fill="cyan"/>
  <circle cx="481.599" cy="426.401" r="4.53982" stroke-width="0.5" stroke="black" fill="cyan"/>
   </g>
   <g id="cell55">
  <circle cx="525.628" cy="471.438" r="8.41271" stroke-width="0.5" stroke="black" fill="cyan"/>
  <circle cx="525.628" cy="471.438" r="5.05167" stroke-width="0.5" stroke="black" fill="cyan"/>
   </g>
   <g id="cell56">
  <circle cx="615.728" cy="522.513" r="8.41271" stroke-width="0.5" stroke="black" fill="cyan"/>
  <circle cx="615.728" cy="522.513" r="5.05167" stroke-width="0.5" stroke="black" fill="cyan"/>
   </g>
   <g id="cell57">
  <circle cx="418.491" cy="626.502" r="8.34117" stroke-width="0.5" stroke="black" fill="cyan"/>
  <circle cx="418.491" cy="626.502" r="5.02327" stroke-width="0.5" stroke="black" fill="cyan"/>
   </g>
   <g id="cell58">
  <circle cx="550.246" cy="482.664" r="8.41271" stroke-width="0.5" stroke="black" fill="cyan"/>
  <circle cx="550.246" cy="482.664" r="5.05167" stroke-width="0.5" stroke="black" fill="cyan"/>
   </g>
   <g id="cell59">
  <circle cx="385.16" cy="439.177" r="8.41271" stroke-width="0.5" stroke="black" fill="cyan"/>
  <circle cx="385.16" cy="439.177" r="5.05167" stroke-width="0.5" stroke="black" fill="cyan"/>
   </g>
   <g id="cell60">
  <circle cx="594.361" cy="473" r="8.32543" stroke-width="0.5" stroke="black" fill="cyan"/>
  <circle cx="594.361" cy="473" r="5.01617" stroke-width="0.5" stroke="black" fill="cyan"/>
   </g>
   <g id="cell155">
  <circle cx="521.183" cy="590.078" r="6.14577" stroke-width="0.5" stroke="black" fill="magenta"/>
  <circle cx="521.183" cy="590.078" r="3.7741" stroke-width="0.5" stroke="black" fill="magenta"/>
   </g>
   <g id="cell62">
  <circle cx="526.172" cy="441.733" r="8.41271" stroke-width="0.5" stroke="black" fill="cyan"/>
  <circle cx="526.172" cy="441.733" r="5.05167" stroke-width="0.5" stroke="black" fill="cyan"/>
   </g>
   <g id="cell63">
  <circle cx="582.391" cy="552.378" r="8.40557" stroke-width="0.5" stroke="black" fill="cyan"/>
  <circle cx="582.391" cy="552.378" r="5.04951" stroke-width="0.5" stroke="black" fill="cyan"/>
   </g>
   <g id="cell64">
  <circle cx="512.174" cy="634.069" r="8.31766" stroke-width="0.5" stroke="black" fill="cyan"/>
  <circle cx="512.174" cy="634.069" r="5.0126" stroke-width="0.5" stroke="black" fill="cyan"/>
   </g>
   <g id="cell65">
  <circle cx="532.362" cy="456.653" r="8.40516" stroke-width="0.5" stroke="black" fill="cyan"/>
  <circle cx="532.362" cy="456.653" r="5.04937" stroke-width="0.5" stroke="black" fill="cyan"/>
   </g>
   <g id="cell66">
  <circle cx="546.051" cy="527.219" r="8.34511" stroke-width="0.5" stroke="black" fill="cyan"/>
  <circle cx="546.051" cy="527.219" r="5.02502" stroke-width="0.5" stroke="black" fill="cyan"/>
   </g>
   <g id="cell67">
  <circle cx="354.746" cy="492.6" r="8.41271" stroke-width="0.5" stroke="black" fill="cyan"/>
  <circle cx="354.746" cy="492.6" r="5.05167" stroke-width="0.5" stroke="black" fill="cyan"/>
   </g>
   <g id="cell68">
  <circle cx="560.916" cy="555.568" r="8.41271" stroke-width="0.5" stroke="black" fill="cyan"/>
  <circle cx="560.916" cy="555.568" r="5.05167" stroke-width="0.5" stroke="black" fill="cyan"/>
   </g>
   <g id="cell69">
  <circle cx="436.692" cy="450.717" r="8.41133" stroke-width="0.5" stroke="black" fill="cyan"/>
  <circle cx="436.692" cy="450.717" r="5.05132" stroke-width="0.5" stroke="black" fill="cyan"/>
   </g>
   <g id="cell70">
  <circle cx="579.285" cy="476.292" r="8.13008" stroke-width="0.5" stroke="black" fill="cyan"/>
  <circle cx="579.285" cy="476.292" r="4.91894" stroke-width="0.5" stroke="black" fill="cyan"/>
   </g>
   <g id="cell71">
  <circle cx="379.521" cy="528.76" r="6.82849" stroke-width="0.5" stroke="black" fill="cyan"/>
  <circle cx="379.521" cy="528.76" r="4.15714" stroke-width="0.5" stroke="black" fill="cyan"/>
   </g>
   <g id="cell72">
  <circle cx="537.406" cy="510.67" r="8.41271" stroke-width="0.5" stroke="black" fill="cyan"/>
  <circle cx="537.406" cy="510.67" r="5.05167" stroke-width="0.5" stroke="black" fill="cyan"/>
   </g>
   <g id="cell129">
  <circle cx="419.692" cy="401.904" r="8.25377" stroke-width="0.5" stroke="black" fill="green"/>
  <circle cx="419.692" cy="401.904" r="4.98209" stroke-width="0.5" stroke="black" fill="green"/>
   </g>
   <g id="cell74">
  <circle cx="542.145" cy="443.919" r="8.41271" stroke-width="0.5" stroke="black" fill="cyan"/>
  <circle cx="542.145" cy="443.919" r="5.05167" stroke-width="0.5" stroke="black" fill="cyan"/>
   </g>
   <g id="cell75">
  <circle cx="443.822" cy="473.349" r="8.30547" stroke-width="0.5" stroke="black" fill="cyan"/>
  <circle cx="443.822" cy="473.349" r="5.00709" stroke-width="0.5" stroke="black" fill="cyan"/>
   </g>
   <g id="cell76">
  <circle cx="522.328" cy="384.271" r="8.40355" stroke-width="0.5" stroke="black" fill="magenta"/>
  <circle cx="522.328" cy="384.271" r="5.04888" stroke-width="0.5" stroke="black" fill="magenta"/>
   </g>
   <g id="cell77">
  <circle cx="493.74" cy="433.537" r="7.75278" stroke-width="0.5" stroke="black" fill="magenta"/>
  <circle cx="493.74" cy="433.537" r="4.71372" stroke-width="0.5" stroke="black" fill="magenta"/>
   </g>
   <g id="cell78">
  <circle cx="370.454" cy="465.341" r="8.41112" stroke-width="0.5" stroke="black" fill="magenta"/>
  <circle cx="370.454" cy="465.341" r="5.05126" stroke-width="0.5" stroke="black" fill="magenta"/>
   </g>
   <g id="cell79">
  <circle cx="499.794" cy="524.232" r="8.41103" stroke-width="0.5" stroke="black" fill="magenta"/>
  <circle cx="499.794" cy="524.232" r="5.05123" stroke-width="0.5" stroke="black" fill="magenta"/>
   </g>
   <g id="cell80">
  <circle cx="604.588" cy="485.469" r="8.41093" stroke-width="0.5" stroke="black" fill="green"/>
  <circle cx="604.588" cy="485.469" r="5.0512" stroke-width="0.5" stroke="black" fill="green"/>
   </g>
   <g id="cell81">
  <circle cx="430.232" cy="501.922" r="8.27513" stroke-width="0.5" stroke="black" fill="green"/>
  <circle cx="430.232" cy="501.922" r="4.99405" stroke-width="0.5" stroke="black" fill="green"/>
   </g>
   <g id="cell82">
  <circle cx="543.968" cy="496.602" r="8.41061" stroke-width="0.5" stroke="black" fill="magenta"/>
  <circle cx="543.968" cy="496.602" r="5.05111" stroke-width="0.5" stroke="black" fill="magenta"/>
   </g>
   <g id="cell130">
  <circle cx="574.346" cy="391.275" r="8.24438" stroke-width="0.5" stroke="black" fill="magenta"/>
  <circle cx="574.346" cy="391.275" r="4.97746" stroke-width="0.5" stroke="black" fill="magenta"/>
   </g>
   <g id="cell84">
  <circle cx="406.861" cy="481.306" r="8.37429" stroke-width="0.5" stroke="black" fill="green"/>
  <circle cx="406.861" cy="481.306" r="5.03779" stroke-width="0.5" stroke="black" fill="green"/>
   </g>
   <g id="cell140">
  <circle cx="528.254" cy="580.322" r="7.53815" stroke-width="0.5" stroke="black" fill="magenta"/>
  <circle cx="528.254" cy="580.322" r="4.61309" stroke-width="0.5" stroke="black" fill="magenta"/>
   </g>
   <g id="cell86">
  <circle cx="392.469" cy="565.197" r="8.37705" stroke-width="0.5" stroke="black" fill="magenta"/>
  <circle cx="392.469" cy="565.197" r="5.03893" stroke-width="0.5" stroke="black" fill="magenta"/>
   </g>
   <g id="cell87">
  <circle cx="434.251" cy="520.985" r="7.13909" stroke-width="0.5" stroke="black" fill="green"/>
  <circle cx="434.251" cy="520.985" r="4.34344" stroke-width="0.5" stroke="black" fill="green"/>
   </g>
   <g id="cell88">
  <circle cx="476.526" cy="611.137" r="8.40774" stroke-width="0.5" stroke="black" fill="green"/>
  <circle cx="476.526" cy="611.137" r="5.05022" stroke-width="0.5" stroke="black" fill="green"/>
   </g>
   <g id="cell89">
  <circle cx="436.341" cy="487.325" r="8.39568" stroke-width="0.5" stroke="black" fill="green"/>
  <circle cx="436.341" cy="487.325" r="5.04622" stroke-width="0.5" stroke="black" fill="green"/>
   </g>
   <g id="cell90">
  <circle cx="580.797" cy="510.752" r="6.92366" stroke-width="0.5" stroke="black" fill="magenta"/>
  <circle cx="580.797" cy="510.752" r="4.19056" stroke-width="0.5" stroke="black" fill="magenta"/>
   </g>
   <g id="cell136">
  <circle cx="523.746" cy="540.875" r="8.07654" stroke-width="0.5" stroke="black" fill="magenta"/>
  <circle cx="523.746" cy="540.875" r="4.89046" stroke-width="0.5" stroke="black" fill="magenta"/>
   </g>
   <g id="cell92">
  <circle cx="554.675" cy="594.328" r="8.37255" stroke-width="0.5" stroke="black" fill="green"/>
  <circle cx="554.675" cy="594.328" r="5.03762" stroke-width="0.5" stroke="black" fill="green"/>
   </g>
   <g id="cell93">
  <circle cx="572.809" cy="526.502" r="8.20412" stroke-width="0.5" stroke="black" fill="cyan"/>
  <circle cx="572.809" cy="526.502" r="4.95883" stroke-width="0.5" stroke="black" fill="cyan"/>
   </g>
   <g id="cell94">
  <circle cx="541.32" cy="469.802" r="8.40516" stroke-width="0.5" stroke="black" fill="cyan"/>
  <circle cx="541.32" cy="469.802" r="5.04937" stroke-width="0.5" stroke="black" fill="cyan"/>
   </g>
   <g id="cell95">
  <circle cx="463.565" cy="535.857" r="8.40516" stroke-width="0.5" stroke="black" fill="magenta"/>
  <circle cx="463.565" cy="535.857" r="5.04937" stroke-width="0.5" stroke="black" fill="magenta"/>
   </g>
   <g id="cell96">
  <circle cx="535.32" cy="376.523" r="8.40355" stroke-width="0.5" stroke="black" fill="magenta"/>
  <circle cx="535.32" cy="376.523" r="5.04888" stroke-width="0.5" stroke="black" fill="magenta"/>
   </g>
   <g id="cell97">
  <circle cx="567.696" cy="507.65" r="8.40221" stroke-width="0.5" stroke="black" fill="magenta"/>
  <circle cx="567.696" cy="507.65" r="5.04844" stroke-width="0.5" stroke="black" fill="magenta"/>
   </g>
   <g id="cell98">
  <circle cx="406.834" cy="564.889" r="7.46108" stroke-width="0.5" stroke="black" fill="green"/>
  <circle cx="406.834" cy="564.889" r="4.53718" stroke-width="0.5" stroke="black" fill="green"/>
   </g>
   <g id="cell99">
  <circle cx="575.213" cy="494.348" r="8.40056" stroke-width="0.5" stroke="black" fill="magenta"/>
  <circle cx="575.213" cy="494.348" r="5.04776" stroke-width="0.5" stroke="black" fill="magenta"/>
   </g>
   <g id="cell100">
  <circle cx="569.871" cy="542.259" r="8.39628" stroke-width="0.5" stroke="black" fill="cyan"/>
  <circle cx="569.871" cy="542.259" r="5.04643" stroke-width="0.5" stroke="black" fill="cyan"/>
   </g>
   <g id="cell101">
  <circle cx="459.14" cy="628.54" r="8.37868" stroke-width="0.5" stroke="black" fill="magenta"/>
  <circle cx="459.14" cy="628.54" r="5.03983" stroke-width="0.5" stroke="black" fill="magenta"/>
   </g>
   <g id="cell102">
  <circle cx="446.055" cy="500.011" r="8.39568" stroke-width="0.5" stroke="black" fill="green"/>
  <circle cx="446.055" cy="500.011" r="5.04622" stroke-width="0.5" stroke="black" fill="green"/>
   </g>
   <g id="cell103">
  <circle cx="540.666" cy="602.568" r="8.39213" stroke-width="0.5" stroke="black" fill="green"/>
  <circle cx="540.666" cy="602.568" r="5.0449" stroke-width="0.5" stroke="black" fill="green"/>
   </g>
   <g id="cell104">
  <circle cx="553.796" cy="541.168" r="8.39422" stroke-width="0.5" stroke="black" fill="green"/>
  <circle cx="553.796" cy="541.168" r="5.04543" stroke-width="0.5" stroke="black" fill="green"/>
   </g>
   <g id="cell105">
  <circle cx="416.405" cy="494.093" r="8.39103" stroke-width="0.5" stroke="black" fill="green"/>
  <circle cx="416.405" cy="494.093" r="5.04433" stroke-width="0.5" stroke="black" fill="green"/>
   </g>
   <g id="cell106">
  <circle cx="639.152" cy="537.507" r="8.39203" stroke-width="0.5" stroke="black" fill="green"/>
  <circle cx="639.152" cy="537.507" r="5.0446" stroke-width="0.5" stroke="black" fill="green"/>
   </g>
   <g id="cell107">
  <circle cx="384.083" cy="513.352" r="8.38608" stroke-width="0.5" stroke="black" fill="cyan"/>
  <circle cx="384.083" cy="513.352" r="5.04229" stroke-width="0.5" stroke="black" fill="cyan"/>
   </g>
   <g id="cell108">
  <circle cx="458.974" cy="643.618" r="8.37868" stroke-width="0.5" stroke="black" fill="magenta"/>
  <circle cx="458.974" cy="643.618" r="5.03983" stroke-width="0.5" stroke="black" fill="magenta"/>
   </g>
   <g id="cell109">
  <circle cx="446.021" cy="635.863" r="8.37868" stroke-width="0.5" stroke="black" fill="magenta"/>
  <circle cx="446.021" cy="635.863" r="5.03983" stroke-width="0.5" stroke="black" fill="magenta"/>
   </g>
   <g id="cell110">
  <circle cx="542.119" cy="585.247" r="8.37255" stroke-width="0.5" stroke="black" fill="green"/>
  <circle cx="542.119" cy="585.247" r="5.03762" stroke-width="0.5" stroke="black" fill="green"/>
   </g>
   <g id="cell111">
  <circle cx="629.928" cy="550.539" r="8.3725" stroke-width="0.5" stroke="black" fill="green"/>
  <circle cx="629.928" cy="550.539" r="5.03747" stroke-width="0.5" stroke="black" fill="green"/>
   </g>
   <g id="cell112">
  <circle cx="380.703" cy="574.267" r="8.37705" stroke-width="0.5" stroke="black" fill="magenta"/>
  <circle cx="380.703" cy="574.267" r="5.03893" stroke-width="0.5" stroke="black" fill="magenta"/>
   </g>
   <g id="cell113">
  <circle cx="422.575" cy="479.349" r="8.37429" stroke-width="0.5" stroke="black" fill="green"/>
  <circle cx="422.575" cy="479.349" r="5.03779" stroke-width="0.5" stroke="black" fill="green"/>
   </g>
   <g id="cell114">
  <circle cx="493.84" cy="447.886" r="8.17854" stroke-width="0.5" stroke="black" fill="magenta"/>
  <circle cx="493.84" cy="447.886" r="4.94728" stroke-width="0.5" stroke="black" fill="magenta"/>
   </g>
   <g id="cell115">
  <circle cx="451.282" cy="526.345" r="8.36348" stroke-width="0.5" stroke="black" fill="green"/>
  <circle cx="451.282" cy="526.345" r="5.03332" stroke-width="0.5" stroke="black" fill="green"/>
   </g>
   <g id="cell116">
  <circle cx="369.079" cy="518.927" r="8.34832" stroke-width="0.5" stroke="black" fill="cyan"/>
  <circle cx="369.079" cy="518.927" r="5.02752" stroke-width="0.5" stroke="black" fill="cyan"/>
   </g>
   <g id="cell117">
  <circle cx="437.759" cy="513.269" r="1.84671" stroke-width="0.5" stroke="black" fill="green"/>
  <circle cx="437.759" cy="513.269" r="1.77612" stroke-width="0.5" stroke="black" fill="black"/>
   </g>
   <g id="cell118">
  <circle cx="530.255" cy="527.331" r="8.34511" stroke-width="0.5" stroke="black" fill="cyan"/>
  <circle cx="530.255" cy="527.331" r="5.02502" stroke-width="0.5" stroke="black" fill="cyan"/>
   </g>
   <g id="cell119">
  <circle cx="527.37" cy="633.579" r="7.6794" stroke-width="0.5" stroke="black" fill="green"/>
  <circle cx="527.37" cy="633.579" r="4.67332" stroke-width="0.5" stroke="black" fill="green"/>
   </g>
   <g id="cell121">
  <circle cx="391.436" cy="550.359" r="8.33024" stroke-width="0.5" stroke="black" fill="magenta"/>
  <circle cx="391.436" cy="550.359" r="5.01873" stroke-width="0.5" stroke="black" fill="magenta"/>
   </g>
   <g id="cell122">
  <circle cx="609.807" cy="470.436" r="8.32543" stroke-width="0.5" stroke="black" fill="cyan"/>
  <circle cx="609.807" cy="470.436" r="5.01617" stroke-width="0.5" stroke="black" fill="cyan"/>
   </g>
   <g id="cell123">
  <circle cx="500.345" cy="644.614" r="8.31766" stroke-width="0.5" stroke="black" fill="cyan"/>
  <circle cx="500.345" cy="644.614" r="5.0126" stroke-width="0.5" stroke="black" fill="cyan"/>
   </g>
   <g id="cell124">
  <circle cx="382.907" cy="589.771" r="8.31491" stroke-width="0.5" stroke="black" fill="green"/>
  <circle cx="382.907" cy="589.771" r="5.01133" stroke-width="0.5" stroke="black" fill="green"/>
   </g>
   <g id="cell125">
  <circle cx="450.308" cy="458.958" r="8.30547" stroke-width="0.5" stroke="black" fill="cyan"/>
  <circle cx="450.308" cy="458.958" r="5.00709" stroke-width="0.5" stroke="black" fill="cyan"/>
   </g>
   <g id="cell126">
  <circle cx="416.689" cy="509.961" r="8.27513" stroke-width="0.5" stroke="black" fill="green"/>
  <circle cx="416.689" cy="509.961" r="4.99405" stroke-width="0.5" stroke="black" fill="green"/>
   </g>
   <g id="cell127">
  <circle cx="412.485" cy="596.565" r="8.27497" stroke-width="0.5" stroke="black" fill="cyan"/>
  <circle cx="412.485" cy="596.565" r="4.99242" stroke-width="0.5" stroke="black" fill="cyan"/>
   </g>
   <g id="cell128">
  <circle cx="366.793" cy="534.816" r="8.23364" stroke-width="0.5" stroke="black" fill="cyan"/>
  <circle cx="366.793" cy="534.816" r="4.97597" stroke-width="0.5" stroke="black" fill="cyan"/>
   </g>
   <g id="cell131">
  <circle cx="584.672" cy="536.742" r="8.20412" stroke-width="0.5" stroke="black" fill="cyan"/>
  <circle cx="584.672" cy="536.742" r="4.95883" stroke-width="0.5" stroke="black" fill="cyan"/>
   </g>
   <g id="cell132">
  <circle cx="506.428" cy="440.233" r="8.17854" stroke-width="0.5" stroke="black" fill="magenta"/>
  <circle cx="506.428" cy="440.233" r="4.94728" stroke-width="0.5" stroke="black" fill="magenta"/>
   </g>
   <g id="cell133">
  <circle cx="534.223" cy="409.082" r="8.18177" stroke-width="0.5" stroke="black" fill="magenta"/>
  <circle cx="534.223" cy="409.082" r="4.94584" stroke-width="0.5" stroke="black" fill="magenta"/>
   </g>
   <g id="cell134">
  <circle cx="514.125" cy="580.045" r="7.79717" stroke-width="0.5" stroke="black" fill="magenta"/>
  <circle cx="514.125" cy="580.045" r="4.74878" stroke-width="0.5" stroke="black" fill="magenta"/>
   </g>
   <g id="cell135">
  <circle cx="565.555" cy="481.854" r="8.13008" stroke-width="0.5" stroke="black" fill="cyan"/>
  <circle cx="565.555" cy="481.854" r="4.91894" stroke-width="0.5" stroke="black" fill="cyan"/>
   </g>
   <g id="cell137">
  <circle cx="379.146" cy="477.249" r="8.01189" stroke-width="0.5" stroke="black" fill="magenta"/>
  <circle cx="379.146" cy="477.249" r="4.8556" stroke-width="0.5" stroke="black" fill="magenta"/>
   </g>
   <g id="cell138">
  <circle cx="531.47" cy="592.699" r="6.14577" stroke-width="0.5" stroke="black" fill="magenta"/>
  <circle cx="531.47" cy="592.699" r="3.7741" stroke-width="0.5" stroke="black" fill="magenta"/>
   </g>
   <g id="cell139">
  <circle cx="509.888" cy="610.18" r="7.85437" stroke-width="0.5" stroke="black" fill="green"/>
  <circle cx="509.888" cy="610.18" r="4.7737" stroke-width="0.5" stroke="black" fill="green"/>
   </g>
   <g id="cell142">
  <circle cx="585.88" cy="382.803" r="7.66091" stroke-width="0.5" stroke="black" fill="magenta"/>
  <circle cx="585.88" cy="382.803" r="4.66859" stroke-width="0.5" stroke="black" fill="magenta"/>
   </g>
   <g id="cell143">
  <circle cx="537.765" cy="623.362" r="7.6794" stroke-width="0.5" stroke="black" fill="green"/>
  <circle cx="537.765" cy="623.362" r="4.67332" stroke-width="0.5" stroke="black" fill="green"/>
   </g>
   <g id="cell144">
  <circle cx="379.654" cy="542.377" r="7.65871" stroke-width="0.5" stroke="black" fill="magenta"/>
  <circle cx="379.654" cy="542.377" r="4.6537" stroke-width="0.5" stroke="black" fill="magenta"/>
   </g>
   <g id="cell145">
  <circle cx="461.608" cy="485.59" r="7.61469" stroke-width="0.5" stroke="black" fill="magenta"/>
  <circle cx="461.608" cy="485.59" r="4.62762" stroke-width="0.5" stroke="black" fill="magenta"/>
   </g>
   <g id="cell146">
  <circle cx="467.482" cy="425.695" r="7.46878" stroke-width="0.5" stroke="black" fill="cyan"/>
  <circle cx="467.482" cy="425.695" r="4.53982" stroke-width="0.5" stroke="black" fill="cyan"/>
   </g>
   <g id="cell148">
  <circle cx="400.148" cy="604.524" r="7.24097" stroke-width="0.5" stroke="black" fill="cyan"/>
  <circle cx="400.148" cy="604.524" r="4.41533" stroke-width="0.5" stroke="black" fill="cyan"/>
   </g>
   <g id="cell149">
  <circle cx="438.087" cy="533.746" r="7.13909" stroke-width="0.5" stroke="black" fill="green"/>
  <circle cx="438.087" cy="533.746" r="4.34344" stroke-width="0.5" stroke="black" fill="green"/>
   </g>
   <g id="cell150">
  <circle cx="473.019" cy="625.414" r="7.11468" stroke-width="0.5" stroke="black" fill="green"/>
  <circle cx="473.019" cy="625.414" r="4.31845" stroke-width="0.5" stroke="black" fill="green"/>
   </g>
   <g id="cell151">
  <circle cx="523.523" cy="514.609" r="7.08639" stroke-width="0.5" stroke="black" fill="cyan"/>
  <circle cx="523.523" cy="514.609" r="4.29876" stroke-width="0.5" stroke="black" fill="cyan"/>
   </g>
   <g id="cell152">
  <circle cx="644.032" cy="553.901" r="6.9616" stroke-width="0.5" stroke="black" fill="green"/>
  <circle cx="644.032" cy="553.901" r="4.22427" stroke-width="0.5" stroke="black" fill="green"/>
   </g>
   <g id="cell153">
  <circle cx="391.948" cy="525.824" r="6.82849" stroke-width="0.5" stroke="black" fill="cyan"/>
  <circle cx="391.948" cy="525.824" r="4.15714" stroke-width="0.5" stroke="black" fill="cyan"/>
   </g>
   <g id="cell154">
  <circle cx="587.771" cy="500.809" r="6.92366" stroke-width="0.5" stroke="black" fill="magenta"/>
  <circle cx="587.771" cy="500.809" r="4.19056" stroke-width="0.5" stroke="black" fill="magenta"/>
   </g>
  </g>
 </g>
  <rect x="775" y="1035" width="200" height="10" stroke-width="2" stroke="rgb(255,255,255)" fill="rgb(0,0,0)"/>
  <text x="781.25" y="1028.75"
   font-family="Arial" font-size="25" fill="black" >
   200 &#956;m
  </text>
  <text x="25" y="1045"
   font-family="Arial" font-size="18.75" fill="black" >
   0 days, 0 hours, 0 minutes, and 34.5805 seconds
  </text>
  <rect x="0" y="70" width="1000" height="1000" stroke-width="2" stroke="rgb(0,0,0)" fill="none"/>
</svg>
