<?xml version="1.0" encoding="UTF-8" standalone="no"?>
<!-- Created with PhysiCell (http://PhysiCell.MathCancer.org/) -->
<svg 
 xmlns:dc="http://purl.org/dc/elements/1.1/" 
 xmlns:cc="http://creativecommons.org/ns#" 
 xmlns:rdf="http://www.w3.org/1999/02/22-rdf-syntax-ns#" 
 xmlns:svg="http://www.w3.org/2000/svg" 
 xmlns="http://www.w3.org/2000/svg" 
 version="1.1" 
 width="1000" 
 height="1070" 
 id="svg2">
  <rect x="0" y="0" width="1000" height="1070" stroke-width="2" stroke="white" fill="white"/>
  <text x="12.5" y="30"
   font-family="Arial" font-size="25" fill="black" >
   Current time: 0 days, 5 hours, and 0.00 minutes, z = 0.00 &#956;m
  </text>
  <text x="12.5" y="57.5"
   font-family="Arial" font-size="23.75" fill="black" >
   91 agents
  </text>
 <g id="tissue" 
    transform="translate(0,1070) scale(1,-1)">
  <g id="ECM">
  </g>
  <g id="cells">
   <g id="cell0">
  <circle cx="521.507" cy="532.25" r="7.77763" stroke-width="0.5" stroke="black" fill="magenta"/>
  <circle cx="521.507" cy="532.25" r="4.7232" stroke-width="0.5" stroke="black" fill="magenta"/>
   </g>
   <g id="cell1">
  <circle cx="603.661" cy="528.908" r="8.41271" stroke-width="0.5" stroke="black" fill="magenta"/>
  <circle cx="603.661" cy="528.908" r="5.05167" stroke-width="0.5" stroke="black" fill="magenta"/>
   </g>
   <g id="cell2">
  <circle cx="510.885" cy="600.601" r="8.41271" stroke-width="0.5" stroke="black" fill="magenta"/>
  <circle cx="510.885" cy="600.601" r="5.05167" stroke-width="0.5" stroke="black" fill="magenta"/>
   </g>
   <g id="cell3">
  <circle cx="531.076" cy="543.415" r="8.41271" stroke-width="0.5" stroke="black" fill="magenta"/>
  <circle cx="531.076" cy="543.415" r="5.05167" stroke-width="0.5" stroke="black" fill="magenta"/>
   </g>
   <g id="cell4">
  <circle cx="473.857" cy="441.277" r="7.84675" stroke-width="0.5" stroke="black" fill="magenta"/>
  <circle cx="473.857" cy="441.277" r="4.7629" stroke-width="0.5" stroke="black" fill="magenta"/>
   </g>
   <g id="cell5">
  <circle cx="464.463" cy="493.193" r="8.41271" stroke-width="0.5" stroke="black" fill="magenta"/>
  <circle cx="464.463" cy="493.193" r="5.05167" stroke-width="0.5" stroke="black" fill="magenta"/>
   </g>
   <g id="cell6">
  <circle cx="596.382" cy="513.652" r="6.67717" stroke-width="0.5" stroke="black" fill="magenta"/>
  <circle cx="596.382" cy="513.652" r="4.00951" stroke-width="0.5" stroke="black" fill="magenta"/>
   </g>
   <g id="cell7">
  <circle cx="512.301" cy="464.851" r="8.41271" stroke-width="0.5" stroke="black" fill="magenta"/>
  <circle cx="512.301" cy="464.851" r="5.05167" stroke-width="0.5" stroke="black" fill="magenta"/>
   </g>
   <g id="cell8">
  <circle cx="375.982" cy="544.941" r="8.41271" stroke-width="0.5" stroke="black" fill="magenta"/>
  <circle cx="375.982" cy="544.941" r="5.05167" stroke-width="0.5" stroke="black" fill="magenta"/>
   </g>
   <g id="cell9">
  <circle cx="460.472" cy="599.786" r="8.41271" stroke-width="0.5" stroke="black" fill="magenta"/>
  <circle cx="460.472" cy="599.786" r="5.05167" stroke-width="0.5" stroke="black" fill="magenta"/>
   </g>
   <g id="cell10">
  <circle cx="583.447" cy="392.105" r="8.41271" stroke-width="0.5" stroke="black" fill="magenta"/>
  <circle cx="583.447" cy="392.105" r="5.05167" stroke-width="0.5" stroke="black" fill="magenta"/>
   </g>
   <g id="cell11">
  <circle cx="589.748" cy="590.273" r="8.41271" stroke-width="0.5" stroke="black" fill="magenta"/>
  <circle cx="589.748" cy="590.273" r="5.05167" stroke-width="0.5" stroke="black" fill="magenta"/>
   </g>
   <g id="cell12">
  <circle cx="506.664" cy="586.058" r="8.41271" stroke-width="0.5" stroke="black" fill="magenta"/>
  <circle cx="506.664" cy="586.058" r="5.05167" stroke-width="0.5" stroke="black" fill="magenta"/>
   </g>
   <g id="cell13">
  <circle cx="381.462" cy="563.187" r="6.80881" stroke-width="0.5" stroke="black" fill="magenta"/>
  <circle cx="381.462" cy="563.187" r="4.10709" stroke-width="0.5" stroke="black" fill="magenta"/>
   </g>
   <g id="cell14">
  <circle cx="526.455" cy="399.833" r="8.41271" stroke-width="0.5" stroke="black" fill="magenta"/>
  <circle cx="526.455" cy="399.833" r="5.05167" stroke-width="0.5" stroke="black" fill="magenta"/>
   </g>
   <g id="cell15">
  <circle cx="385.15" cy="477.868" r="7.81315" stroke-width="0.5" stroke="black" fill="magenta"/>
  <circle cx="385.15" cy="477.868" r="4.74367" stroke-width="0.5" stroke="black" fill="magenta"/>
   </g>
   <g id="cell16">
  <circle cx="428.96" cy="413.217" r="8.41271" stroke-width="0.5" stroke="black" fill="magenta"/>
  <circle cx="428.96" cy="413.217" r="5.05167" stroke-width="0.5" stroke="black" fill="magenta"/>
   </g>
   <g id="cell17">
  <circle cx="573.707" cy="489.731" r="8.41271" stroke-width="0.5" stroke="black" fill="magenta"/>
  <circle cx="573.707" cy="489.731" r="5.05167" stroke-width="0.5" stroke="black" fill="magenta"/>
   </g>
   <g id="cell18">
  <circle cx="514.1" cy="391.827" r="7.87851" stroke-width="0.5" stroke="black" fill="magenta"/>
  <circle cx="514.1" cy="391.827" r="4.78096" stroke-width="0.5" stroke="black" fill="magenta"/>
   </g>
   <g id="cell19">
  <circle cx="451.968" cy="535.554" r="8.41271" stroke-width="0.5" stroke="black" fill="magenta"/>
  <circle cx="451.968" cy="535.554" r="5.05167" stroke-width="0.5" stroke="black" fill="magenta"/>
   </g>
   <g id="cell20">
  <circle cx="530.565" cy="414.492" r="8.41271" stroke-width="0.5" stroke="black" fill="magenta"/>
  <circle cx="530.565" cy="414.492" r="5.05167" stroke-width="0.5" stroke="black" fill="magenta"/>
   </g>
   <g id="cell21">
  <circle cx="463.347" cy="635.237" r="8.41271" stroke-width="0.5" stroke="black" fill="magenta"/>
  <circle cx="463.347" cy="635.237" r="5.05167" stroke-width="0.5" stroke="black" fill="magenta"/>
   </g>
   <g id="cell22">
  <circle cx="559.689" cy="492.902" r="7.61469" stroke-width="0.5" stroke="black" fill="magenta"/>
  <circle cx="559.689" cy="492.902" r="4.62762" stroke-width="0.5" stroke="black" fill="magenta"/>
   </g>
   <g id="cell23">
  <circle cx="537.25" cy="481.772" r="8.41271" stroke-width="0.5" stroke="black" fill="magenta"/>
  <circle cx="537.25" cy="481.772" r="5.05167" stroke-width="0.5" stroke="black" fill="magenta"/>
   </g>
   <g id="cell24">
  <circle cx="559.288" cy="379.787" r="8.41271" stroke-width="0.5" stroke="black" fill="magenta"/>
  <circle cx="559.288" cy="379.787" r="5.05167" stroke-width="0.5" stroke="black" fill="magenta"/>
   </g>
   <g id="cell25">
  <circle cx="640.943" cy="550.03" r="8.41271" stroke-width="0.5" stroke="black" fill="green"/>
  <circle cx="640.943" cy="550.03" r="5.05167" stroke-width="0.5" stroke="black" fill="green"/>
   </g>
   <g id="cell26">
  <circle cx="550.641" cy="401.23" r="8.41271" stroke-width="0.5" stroke="black" fill="green"/>
  <circle cx="550.641" cy="401.23" r="5.05167" stroke-width="0.5" stroke="black" fill="green"/>
   </g>
   <g id="cell27">
  <circle cx="457.446" cy="388.678" r="8.41271" stroke-width="0.5" stroke="black" fill="green"/>
  <circle cx="457.446" cy="388.678" r="5.05167" stroke-width="0.5" stroke="black" fill="green"/>
   </g>
   <g id="cell28">
  <circle cx="436.576" cy="533.07" r="8.41271" stroke-width="0.5" stroke="black" fill="green"/>
  <circle cx="436.576" cy="533.07" r="5.05167" stroke-width="0.5" stroke="black" fill="green"/>
   </g>
   <g id="cell29">
  <circle cx="454.681" cy="521.697" r="6.75639" stroke-width="0.5" stroke="black" fill="green"/>
  <circle cx="454.681" cy="521.697" r="4.06813" stroke-width="0.5" stroke="black" fill="green"/>
   </g>
   <g id="cell30">
  <circle cx="481.58" cy="540.282" r="8.41271" stroke-width="0.5" stroke="black" fill="green"/>
  <circle cx="481.58" cy="540.282" r="5.05167" stroke-width="0.5" stroke="black" fill="green"/>
   </g>
   <g id="cell31">
  <circle cx="412.757" cy="541.193" r="8.41271" stroke-width="0.5" stroke="black" fill="green"/>
  <circle cx="412.757" cy="541.193" r="5.05167" stroke-width="0.5" stroke="black" fill="green"/>
   </g>
   <g id="cell32">
  <circle cx="428.648" cy="471.269" r="6.89675" stroke-width="0.5" stroke="black" fill="green"/>
  <circle cx="428.648" cy="471.269" r="4.17024" stroke-width="0.5" stroke="black" fill="green"/>
   </g>
   <g id="cell33">
  <circle cx="498.25" cy="415.013" r="7.0545" stroke-width="0.5" stroke="black" fill="green"/>
  <circle cx="498.25" cy="415.013" r="4.27772" stroke-width="0.5" stroke="black" fill="green"/>
   </g>
   <g id="cell34">
  <circle cx="392.648" cy="452.504" r="6.80881" stroke-width="0.5" stroke="black" fill="green"/>
  <circle cx="392.648" cy="452.504" r="4.10709" stroke-width="0.5" stroke="black" fill="green"/>
   </g>
   <g id="cell35">
  <circle cx="546.779" cy="545.058" r="8.41271" stroke-width="0.5" stroke="black" fill="green"/>
  <circle cx="546.779" cy="545.058" r="5.05167" stroke-width="0.5" stroke="black" fill="green"/>
   </g>
   <g id="cell36">
  <circle cx="391.106" cy="584.712" r="8.41271" stroke-width="0.5" stroke="black" fill="green"/>
  <circle cx="391.106" cy="584.712" r="5.05167" stroke-width="0.5" stroke="black" fill="green"/>
   </g>
   <g id="cell37">
  <circle cx="634.871" cy="460.618" r="8.41271" stroke-width="0.5" stroke="black" fill="green"/>
  <circle cx="634.871" cy="460.618" r="5.05167" stroke-width="0.5" stroke="black" fill="green"/>
   </g>
   <g id="cell38">
  <circle cx="536.154" cy="601.901" r="8.41271" stroke-width="0.5" stroke="black" fill="green"/>
  <circle cx="536.154" cy="601.901" r="5.05167" stroke-width="0.5" stroke="black" fill="green"/>
   </g>
   <g id="cell39">
  <circle cx="616.994" cy="493.925" r="7.7401" stroke-width="0.5" stroke="black" fill="green"/>
  <circle cx="616.994" cy="493.925" r="4.70142" stroke-width="0.5" stroke="black" fill="green"/>
   </g>
   <g id="cell40">
  <circle cx="485.348" cy="571.779" r="8.41271" stroke-width="0.5" stroke="black" fill="green"/>
  <circle cx="485.348" cy="571.779" r="5.05167" stroke-width="0.5" stroke="black" fill="green"/>
   </g>
   <g id="cell41">
  <circle cx="364.024" cy="480.12" r="8.41271" stroke-width="0.5" stroke="black" fill="green"/>
  <circle cx="364.024" cy="480.12" r="5.05167" stroke-width="0.5" stroke="black" fill="green"/>
   </g>
   <g id="cell42">
  <circle cx="450.089" cy="489.685" r="6.12017" stroke-width="0.5" stroke="black" fill="green"/>
  <circle cx="450.089" cy="489.685" r="3.72262" stroke-width="0.5" stroke="black" fill="green"/>
   </g>
   <g id="cell43">
  <circle cx="558.021" cy="445.571" r="8.41271" stroke-width="0.5" stroke="black" fill="green"/>
  <circle cx="558.021" cy="445.571" r="5.05167" stroke-width="0.5" stroke="black" fill="green"/>
   </g>
   <g id="cell44">
  <circle cx="475.24" cy="628.007" r="6.73287" stroke-width="0.5" stroke="black" fill="green"/>
  <circle cx="475.24" cy="628.007" r="4.05039" stroke-width="0.5" stroke="black" fill="green"/>
   </g>
   <g id="cell45">
  <circle cx="414.953" cy="557.066" r="8.41271" stroke-width="0.5" stroke="black" fill="green"/>
  <circle cx="414.953" cy="557.066" r="5.05167" stroke-width="0.5" stroke="black" fill="green"/>
   </g>
   <g id="cell46">
  <circle cx="522.767" cy="610.709" r="8.41271" stroke-width="0.5" stroke="black" fill="green"/>
  <circle cx="522.767" cy="610.709" r="5.05167" stroke-width="0.5" stroke="black" fill="green"/>
   </g>
   <g id="cell47">
  <circle cx="504.761" cy="508.462" r="8.41271" stroke-width="0.5" stroke="black" fill="green"/>
  <circle cx="504.761" cy="508.462" r="5.05167" stroke-width="0.5" stroke="black" fill="green"/>
   </g>
   <g id="cell48">
  <circle cx="564.51" cy="602.793" r="8.41271" stroke-width="0.5" stroke="black" fill="green"/>
  <circle cx="564.51" cy="602.793" r="5.05167" stroke-width="0.5" stroke="black" fill="green"/>
   </g>
   <g id="cell49">
  <circle cx="429.826" cy="397.641" r="8.41271" stroke-width="0.5" stroke="black" fill="green"/>
  <circle cx="429.826" cy="397.641" r="5.05167" stroke-width="0.5" stroke="black" fill="green"/>
   </g>
   <g id="cell50">
  <circle cx="518.105" cy="517.482" r="8.41271" stroke-width="0.5" stroke="black" fill="cyan"/>
  <circle cx="518.105" cy="517.482" r="5.05167" stroke-width="0.5" stroke="black" fill="cyan"/>
   </g>
   <g id="cell51">
  <circle cx="399.355" cy="598.311" r="8.41271" stroke-width="0.5" stroke="black" fill="cyan"/>
  <circle cx="399.355" cy="598.311" r="5.05167" stroke-width="0.5" stroke="black" fill="cyan"/>
   </g>
   <g id="cell52">
  <circle cx="523.034" cy="428.24" r="8.41271" stroke-width="0.5" stroke="black" fill="cyan"/>
  <circle cx="523.034" cy="428.24" r="5.05167" stroke-width="0.5" stroke="black" fill="cyan"/>
   </g>
   <g id="cell53">
  <circle cx="571.022" cy="436.2" r="8.41271" stroke-width="0.5" stroke="black" fill="cyan"/>
  <circle cx="571.022" cy="436.2" r="5.05167" stroke-width="0.5" stroke="black" fill="cyan"/>
   </g>
   <g id="cell54">
  <circle cx="479.234" cy="427.229" r="8.41271" stroke-width="0.5" stroke="black" fill="cyan"/>
  <circle cx="479.234" cy="427.229" r="5.05167" stroke-width="0.5" stroke="black" fill="cyan"/>
   </g>
   <g id="cell55">
  <circle cx="526.956" cy="470.137" r="8.41271" stroke-width="0.5" stroke="black" fill="cyan"/>
  <circle cx="526.956" cy="470.137" r="5.05167" stroke-width="0.5" stroke="black" fill="cyan"/>
   </g>
   <g id="cell56">
  <circle cx="617.783" cy="522.28" r="8.41271" stroke-width="0.5" stroke="black" fill="cyan"/>
  <circle cx="617.783" cy="522.28" r="5.05167" stroke-width="0.5" stroke="black" fill="cyan"/>
   </g>
   <g id="cell57">
  <circle cx="416.924" cy="617.466" r="8.41271" stroke-width="0.5" stroke="black" fill="cyan"/>
  <circle cx="416.924" cy="617.466" r="5.05167" stroke-width="0.5" stroke="black" fill="cyan"/>
   </g>
   <g id="cell58">
  <circle cx="552.719" cy="479.763" r="8.41271" stroke-width="0.5" stroke="black" fill="cyan"/>
  <circle cx="552.719" cy="479.763" r="5.05167" stroke-width="0.5" stroke="black" fill="cyan"/>
   </g>
   <g id="cell59">
  <circle cx="385.528" cy="439.908" r="8.41271" stroke-width="0.5" stroke="black" fill="cyan"/>
  <circle cx="385.528" cy="439.908" r="5.05167" stroke-width="0.5" stroke="black" fill="cyan"/>
   </g>
   <g id="cell60">
  <circle cx="593.815" cy="474.531" r="8.41271" stroke-width="0.5" stroke="black" fill="cyan"/>
  <circle cx="593.815" cy="474.531" r="5.05167" stroke-width="0.5" stroke="black" fill="cyan"/>
   </g>
   <g id="cell61">
  <circle cx="552.992" cy="613.934" r="8.41271" stroke-width="0.5" stroke="black" fill="cyan"/>
  <circle cx="552.992" cy="613.934" r="5.05167" stroke-width="0.5" stroke="black" fill="cyan"/>
   </g>
   <g id="cell62">
  <circle cx="526.153" cy="444.015" r="8.41271" stroke-width="0.5" stroke="black" fill="cyan"/>
  <circle cx="526.153" cy="444.015" r="5.05167" stroke-width="0.5" stroke="black" fill="cyan"/>
   </g>
   <g id="cell63">
  <circle cx="577.439" cy="546.557" r="8.41271" stroke-width="0.5" stroke="black" fill="cyan"/>
  <circle cx="577.439" cy="546.557" r="5.05167" stroke-width="0.5" stroke="black" fill="cyan"/>
   </g>
   <g id="cell64">
  <circle cx="509.962" cy="636.825" r="8.41271" stroke-width="0.5" stroke="black" fill="cyan"/>
  <circle cx="509.962" cy="636.825" r="5.05167" stroke-width="0.5" stroke="black" fill="cyan"/>
   </g>
   <g id="cell65">
  <circle cx="542.738" cy="467.194" r="8.41271" stroke-width="0.5" stroke="black" fill="cyan"/>
  <circle cx="542.738" cy="467.194" r="5.05167" stroke-width="0.5" stroke="black" fill="cyan"/>
   </g>
   <g id="cell66">
  <circle cx="536.12" cy="528.761" r="8.41271" stroke-width="0.5" stroke="black" fill="cyan"/>
  <circle cx="536.12" cy="528.761" r="5.05167" stroke-width="0.5" stroke="black" fill="cyan"/>
   </g>
   <g id="cell67">
  <circle cx="354.431" cy="492.935" r="8.41271" stroke-width="0.5" stroke="black" fill="cyan"/>
  <circle cx="354.431" cy="492.935" r="5.05167" stroke-width="0.5" stroke="black" fill="cyan"/>
   </g>
   <g id="cell68">
  <circle cx="561.956" cy="551.109" r="8.41271" stroke-width="0.5" stroke="black" fill="cyan"/>
  <circle cx="561.956" cy="551.109" r="5.05167" stroke-width="0.5" stroke="black" fill="cyan"/>
   </g>
   <g id="cell69">
  <circle cx="435.072" cy="458.917" r="7.89373" stroke-width="0.5" stroke="black" fill="cyan"/>
  <circle cx="435.072" cy="458.917" r="4.78957" stroke-width="0.5" stroke="black" fill="cyan"/>
   </g>
   <g id="cell70">
  <circle cx="577.719" cy="474.67" r="8.41271" stroke-width="0.5" stroke="black" fill="cyan"/>
  <circle cx="577.719" cy="474.67" r="5.05167" stroke-width="0.5" stroke="black" fill="cyan"/>
   </g>
   <g id="cell71">
  <circle cx="377.712" cy="520.989" r="8.41271" stroke-width="0.5" stroke="black" fill="cyan"/>
  <circle cx="377.712" cy="520.989" r="5.05167" stroke-width="0.5" stroke="black" fill="cyan"/>
   </g>
   <g id="cell72">
  <circle cx="533.463" cy="513.026" r="8.41271" stroke-width="0.5" stroke="black" fill="cyan"/>
  <circle cx="533.463" cy="513.026" r="5.05167" stroke-width="0.5" stroke="black" fill="cyan"/>
   </g>
   <g id="cell73">
  <circle cx="360.39" cy="545.933" r="8.41271" stroke-width="0.5" stroke="black" fill="cyan"/>
  <circle cx="360.39" cy="545.933" r="5.05167" stroke-width="0.5" stroke="black" fill="cyan"/>
   </g>
   <g id="cell74">
  <circle cx="542.011" cy="446.394" r="8.41271" stroke-width="0.5" stroke="black" fill="cyan"/>
  <circle cx="542.011" cy="446.394" r="5.05167" stroke-width="0.5" stroke="black" fill="cyan"/>
   </g>
   <g id="cell75">
  <circle cx="442.58" cy="472.155" r="7.89373" stroke-width="0.5" stroke="black" fill="cyan"/>
  <circle cx="442.58" cy="472.155" r="4.78957" stroke-width="0.5" stroke="black" fill="cyan"/>
   </g>
   <g id="cell76">
  <circle cx="526.561" cy="385.141" r="7.87851" stroke-width="0.5" stroke="black" fill="magenta"/>
  <circle cx="526.561" cy="385.141" r="4.78096" stroke-width="0.5" stroke="black" fill="magenta"/>
   </g>
   <g id="cell77">
  <circle cx="487.839" cy="439.782" r="7.84675" stroke-width="0.5" stroke="black" fill="magenta"/>
  <circle cx="487.839" cy="439.782" r="4.7629" stroke-width="0.5" stroke="black" fill="magenta"/>
   </g>
   <g id="cell78">
  <circle cx="374.205" cy="469.062" r="7.81315" stroke-width="0.5" stroke="black" fill="magenta"/>
  <circle cx="374.205" cy="469.062" r="4.74367" stroke-width="0.5" stroke="black" fill="magenta"/>
   </g>
   <g id="cell79">
  <circle cx="507.984" cy="528.461" r="7.77763" stroke-width="0.5" stroke="black" fill="magenta"/>
  <circle cx="507.984" cy="528.461" r="4.7232" stroke-width="0.5" stroke="black" fill="magenta"/>
   </g>
   <g id="cell80">
  <circle cx="606.143" cy="483.895" r="7.7401" stroke-width="0.5" stroke="black" fill="green"/>
  <circle cx="606.143" cy="483.895" r="4.70142" stroke-width="0.5" stroke="black" fill="green"/>
   </g>
   <g id="cell81">
  <circle cx="427.787" cy="498.981" r="7.65871" stroke-width="0.5" stroke="black" fill="green"/>
  <circle cx="427.787" cy="498.981" r="4.6537" stroke-width="0.5" stroke="black" fill="green"/>
   </g>
   <g id="cell82">
  <circle cx="546.055" cy="493.111" r="7.61469" stroke-width="0.5" stroke="black" fill="magenta"/>
  <circle cx="546.055" cy="493.111" r="4.62762" stroke-width="0.5" stroke="black" fill="magenta"/>
   </g>
   <g id="cell83">
  <circle cx="493.869" cy="427.524" r="7.0545" stroke-width="0.5" stroke="black" fill="green"/>
  <circle cx="493.869" cy="427.524" r="4.27772" stroke-width="0.5" stroke="black" fill="green"/>
   </g>
   <g id="cell84">
  <circle cx="419.461" cy="480.412" r="6.89675" stroke-width="0.5" stroke="black" fill="green"/>
  <circle cx="419.461" cy="480.412" r="4.17024" stroke-width="0.5" stroke="black" fill="green"/>
   </g>
   <g id="cell85">
  <circle cx="404.662" cy="447.748" r="6.80881" stroke-width="0.5" stroke="black" fill="green"/>
  <circle cx="404.662" cy="447.748" r="4.10709" stroke-width="0.5" stroke="black" fill="green"/>
   </g>
   <g id="cell86">
  <circle cx="391.208" cy="570.646" r="6.80881" stroke-width="0.5" stroke="black" fill="magenta"/>
  <circle cx="391.208" cy="570.646" r="4.10709" stroke-width="0.5" stroke="black" fill="magenta"/>
   </g>
   <g id="cell87">
  <circle cx="442.056" cy="519.821" r="6.75639" stroke-width="0.5" stroke="black" fill="green"/>
  <circle cx="442.056" cy="519.821" r="4.06813" stroke-width="0.5" stroke="black" fill="green"/>
   </g>
   <g id="cell88">
  <circle cx="478.775" cy="615.831" r="6.73287" stroke-width="0.5" stroke="black" fill="green"/>
  <circle cx="478.775" cy="615.831" r="4.05039" stroke-width="0.5" stroke="black" fill="green"/>
   </g>
   <g id="cell89">
  <circle cx="439.599" cy="494.185" r="6.12017" stroke-width="0.5" stroke="black" fill="green"/>
  <circle cx="439.599" cy="494.185" r="3.72262" stroke-width="0.5" stroke="black" fill="green"/>
   </g>
   <g id="cell90">
  <circle cx="590.556" cy="503.376" r="6.67717" stroke-width="0.5" stroke="black" fill="magenta"/>
  <circle cx="590.556" cy="503.376" r="4.00951" stroke-width="0.5" stroke="black" fill="magenta"/>
   </g>
  </g>
 </g>
  <rect x="775" y="1035" width="200" height="10" stroke-width="2" stroke="rgb(255,255,255)" fill="rgb(0,0,0)"/>
  <text x="781.25" y="1028.75"
   font-family="Arial" font-size="25" fill="black" >
   200 &#956;m
  </text>
  <text x="25" y="1045"
   font-family="Arial" font-size="18.75" fill="black" >
   0 days, 0 hours, 0 minutes, and 6.5595 seconds
  </text>
  <rect x="0" y="70" width="1000" height="1000" stroke-width="2" stroke="rgb(0,0,0)" fill="none"/>
</svg>
