<?xml version="1.0" encoding="UTF-8" standalone="no"?>
<!-- Created with PhysiCell (http://PhysiCell.MathCancer.org/) -->
<svg 
 xmlns:dc="http://purl.org/dc/elements/1.1/" 
 xmlns:cc="http://creativecommons.org/ns#" 
 xmlns:rdf="http://www.w3.org/1999/02/22-rdf-syntax-ns#" 
 xmlns:svg="http://www.w3.org/2000/svg" 
 xmlns="http://www.w3.org/2000/svg" 
 version="1.1" 
 width="1000" 
 height="1070" 
 id="svg2">
  <rect x="0" y="0" width="1000" height="1070" stroke-width="2" stroke="white" fill="white"/>
  <text x="12.5" y="30"
   font-family="Arial" font-size="25" fill="black" >
   Current time: 0 days, 12 hours, and 30.00 minutes, z = 0.00 &#956;m
  </text>
  <text x="12.5" y="57.5"
   font-family="Arial" font-size="23.75" fill="black" >
   115 agents
  </text>
 <g id="tissue" 
    transform="translate(0,1070) scale(1,-1)">
  <g id="ECM">
  </g>
  <g id="cells">
   <g id="cell0">
  <circle cx="521.197" cy="532.01" r="8.33911" stroke-width="0.5" stroke="black" fill="magenta"/>
  <circle cx="521.197" cy="532.01" r="5.02235" stroke-width="0.5" stroke="black" fill="magenta"/>
   </g>
   <g id="cell1">
  <circle cx="602.676" cy="526.617" r="8.41271" stroke-width="0.5" stroke="black" fill="magenta"/>
  <circle cx="602.676" cy="526.617" r="5.05167" stroke-width="0.5" stroke="black" fill="magenta"/>
   </g>
   <g id="cell2">
  <circle cx="511.67" cy="600.343" r="8.41271" stroke-width="0.5" stroke="black" fill="magenta"/>
  <circle cx="511.67" cy="600.343" r="5.05167" stroke-width="0.5" stroke="black" fill="magenta"/>
   </g>
   <g id="cell3">
  <circle cx="531.172" cy="543.178" r="8.41271" stroke-width="0.5" stroke="black" fill="magenta"/>
  <circle cx="531.172" cy="543.178" r="5.05167" stroke-width="0.5" stroke="black" fill="magenta"/>
   </g>
   <g id="cell4">
  <circle cx="473.294" cy="441.188" r="8.347" stroke-width="0.5" stroke="black" fill="magenta"/>
  <circle cx="473.294" cy="441.188" r="5.02586" stroke-width="0.5" stroke="black" fill="magenta"/>
   </g>
   <g id="cell5">
  <circle cx="464.789" cy="493.273" r="8.41271" stroke-width="0.5" stroke="black" fill="magenta"/>
  <circle cx="464.789" cy="493.273" r="5.05167" stroke-width="0.5" stroke="black" fill="magenta"/>
   </g>
   <g id="cell6">
  <circle cx="595.941" cy="513.274" r="8.16806" stroke-width="0.5" stroke="black" fill="magenta"/>
  <circle cx="595.941" cy="513.274" r="4.93877" stroke-width="0.5" stroke="black" fill="magenta"/>
   </g>
   <g id="cell7">
  <circle cx="511.497" cy="464.497" r="8.41271" stroke-width="0.5" stroke="black" fill="magenta"/>
  <circle cx="511.497" cy="464.497" r="5.05167" stroke-width="0.5" stroke="black" fill="magenta"/>
   </g>
   <g id="cell8">
  <circle cx="373.697" cy="547.753" r="8.41271" stroke-width="0.5" stroke="black" fill="magenta"/>
  <circle cx="373.697" cy="547.753" r="5.05167" stroke-width="0.5" stroke="black" fill="magenta"/>
   </g>
   <g id="cell9">
  <circle cx="464.835" cy="602.208" r="8.15353" stroke-width="0.5" stroke="black" fill="magenta"/>
  <circle cx="464.835" cy="602.208" r="4.93122" stroke-width="0.5" stroke="black" fill="magenta"/>
   </g>
   <g id="cell10">
  <circle cx="583.447" cy="392.105" r="8.41271" stroke-width="0.5" stroke="black" fill="magenta"/>
  <circle cx="583.447" cy="392.105" r="5.05167" stroke-width="0.5" stroke="black" fill="magenta"/>
   </g>
   <g id="cell11">
  <circle cx="589.748" cy="590.273" r="8.41271" stroke-width="0.5" stroke="black" fill="magenta"/>
  <circle cx="589.748" cy="590.273" r="5.05167" stroke-width="0.5" stroke="black" fill="magenta"/>
   </g>
   <g id="cell12">
  <circle cx="506.662" cy="586.045" r="8.41271" stroke-width="0.5" stroke="black" fill="magenta"/>
  <circle cx="506.662" cy="586.045" r="5.05167" stroke-width="0.5" stroke="black" fill="magenta"/>
   </g>
   <g id="cell13">
  <circle cx="382.315" cy="560.114" r="8.20689" stroke-width="0.5" stroke="black" fill="magenta"/>
  <circle cx="382.315" cy="560.114" r="4.95867" stroke-width="0.5" stroke="black" fill="magenta"/>
   </g>
   <g id="cell14">
  <circle cx="525.154" cy="402.035" r="8.41271" stroke-width="0.5" stroke="black" fill="magenta"/>
  <circle cx="525.154" cy="402.035" r="5.05167" stroke-width="0.5" stroke="black" fill="magenta"/>
   </g>
   <g id="cell15">
  <circle cx="383.591" cy="478.937" r="8.34317" stroke-width="0.5" stroke="black" fill="magenta"/>
  <circle cx="383.591" cy="478.937" r="5.02416" stroke-width="0.5" stroke="black" fill="magenta"/>
   </g>
   <g id="cell16">
  <circle cx="428.96" cy="413.217" r="8.41271" stroke-width="0.5" stroke="black" fill="magenta"/>
  <circle cx="428.96" cy="413.217" r="5.05167" stroke-width="0.5" stroke="black" fill="magenta"/>
   </g>
   <g id="cell17">
  <circle cx="583.16" cy="487.748" r="7.84675" stroke-width="0.5" stroke="black" fill="magenta"/>
  <circle cx="583.16" cy="487.748" r="4.7629" stroke-width="0.5" stroke="black" fill="magenta"/>
   </g>
   <g id="cell18">
  <circle cx="511.849" cy="394.897" r="8.35062" stroke-width="0.5" stroke="black" fill="magenta"/>
  <circle cx="511.849" cy="394.897" r="5.02745" stroke-width="0.5" stroke="black" fill="magenta"/>
   </g>
   <g id="cell19">
  <circle cx="447.826" cy="533.883" r="8.06667" stroke-width="0.5" stroke="black" fill="magenta"/>
  <circle cx="447.826" cy="533.883" r="4.88515" stroke-width="0.5" stroke="black" fill="magenta"/>
   </g>
   <g id="cell20">
  <circle cx="528.564" cy="416.789" r="8.41271" stroke-width="0.5" stroke="black" fill="magenta"/>
  <circle cx="528.564" cy="416.789" r="5.05167" stroke-width="0.5" stroke="black" fill="magenta"/>
   </g>
   <g id="cell21">
  <circle cx="469.4" cy="637.333" r="6.72881" stroke-width="0.5" stroke="black" fill="magenta"/>
  <circle cx="469.4" cy="637.333" r="4.12228" stroke-width="0.5" stroke="black" fill="magenta"/>
   </g>
   <g id="cell22">
  <circle cx="557.009" cy="498.12" r="7.92531" stroke-width="0.5" stroke="black" fill="magenta"/>
  <circle cx="557.009" cy="498.12" r="4.81463" stroke-width="0.5" stroke="black" fill="magenta"/>
   </g>
   <g id="cell23">
  <circle cx="538.051" cy="480.56" r="8.41271" stroke-width="0.5" stroke="black" fill="magenta"/>
  <circle cx="538.051" cy="480.56" r="5.05167" stroke-width="0.5" stroke="black" fill="magenta"/>
   </g>
   <g id="cell24">
  <circle cx="559.288" cy="379.787" r="8.41271" stroke-width="0.5" stroke="black" fill="magenta"/>
  <circle cx="559.288" cy="379.787" r="5.05167" stroke-width="0.5" stroke="black" fill="magenta"/>
   </g>
   <g id="cell25">
  <circle cx="646.147" cy="558.423" r="6.37834" stroke-width="0.5" stroke="black" fill="green"/>
  <circle cx="646.147" cy="558.423" r="3.91094" stroke-width="0.5" stroke="black" fill="green"/>
   </g>
   <g id="cell26">
  <circle cx="550.642" cy="401.23" r="8.41271" stroke-width="0.5" stroke="black" fill="green"/>
  <circle cx="550.642" cy="401.23" r="5.05167" stroke-width="0.5" stroke="black" fill="green"/>
   </g>
   <g id="cell27">
  <circle cx="457.446" cy="388.678" r="8.41271" stroke-width="0.5" stroke="black" fill="green"/>
  <circle cx="457.446" cy="388.678" r="5.05167" stroke-width="0.5" stroke="black" fill="green"/>
   </g>
   <g id="cell28">
  <circle cx="432.528" cy="533.689" r="8.41271" stroke-width="0.5" stroke="black" fill="green"/>
  <circle cx="432.528" cy="533.689" r="5.05167" stroke-width="0.5" stroke="black" fill="green"/>
   </g>
   <g id="cell29">
  <circle cx="456.614" cy="521.678" r="8.1947" stroke-width="0.5" stroke="black" fill="green"/>
  <circle cx="456.614" cy="521.678" r="4.95246" stroke-width="0.5" stroke="black" fill="green"/>
   </g>
   <g id="cell30">
  <circle cx="480.52" cy="540.03" r="8.41271" stroke-width="0.5" stroke="black" fill="green"/>
  <circle cx="480.52" cy="540.03" r="5.05167" stroke-width="0.5" stroke="black" fill="green"/>
   </g>
   <g id="cell31">
  <circle cx="412.008" cy="538.521" r="8.41271" stroke-width="0.5" stroke="black" fill="green"/>
  <circle cx="412.008" cy="538.521" r="5.05167" stroke-width="0.5" stroke="black" fill="green"/>
   </g>
   <g id="cell32">
  <circle cx="428.897" cy="469.039" r="8.2239" stroke-width="0.5" stroke="black" fill="green"/>
  <circle cx="428.897" cy="469.039" r="4.96725" stroke-width="0.5" stroke="black" fill="green"/>
   </g>
   <g id="cell33">
  <circle cx="498.763" cy="413.39" r="8.24914" stroke-width="0.5" stroke="black" fill="green"/>
  <circle cx="498.763" cy="413.39" r="4.97981" stroke-width="0.5" stroke="black" fill="green"/>
   </g>
   <g id="cell34">
  <circle cx="391.712" cy="453.685" r="8.20689" stroke-width="0.5" stroke="black" fill="green"/>
  <circle cx="391.712" cy="453.685" r="4.95867" stroke-width="0.5" stroke="black" fill="green"/>
   </g>
   <g id="cell35">
  <circle cx="544.381" cy="549.447" r="7.54436" stroke-width="0.5" stroke="black" fill="green"/>
  <circle cx="544.381" cy="549.447" r="4.58555" stroke-width="0.5" stroke="black" fill="green"/>
   </g>
   <g id="cell36">
  <circle cx="391.224" cy="585.433" r="8.41271" stroke-width="0.5" stroke="black" fill="green"/>
  <circle cx="391.224" cy="585.433" r="5.05167" stroke-width="0.5" stroke="black" fill="green"/>
   </g>
   <g id="cell37">
  <circle cx="634.871" cy="460.618" r="8.41271" stroke-width="0.5" stroke="black" fill="green"/>
  <circle cx="634.871" cy="460.618" r="5.05167" stroke-width="0.5" stroke="black" fill="green"/>
   </g>
   <g id="cell38">
  <circle cx="530.476" cy="601.158" r="8.08613" stroke-width="0.5" stroke="black" fill="green"/>
  <circle cx="530.476" cy="601.158" r="4.8956" stroke-width="0.5" stroke="black" fill="green"/>
   </g>
   <g id="cell39">
  <circle cx="617.831" cy="494.705" r="8.33481" stroke-width="0.5" stroke="black" fill="green"/>
  <circle cx="617.831" cy="494.705" r="5.02043" stroke-width="0.5" stroke="black" fill="green"/>
   </g>
   <g id="cell40">
  <circle cx="485.348" cy="571.779" r="8.41271" stroke-width="0.5" stroke="black" fill="green"/>
  <circle cx="485.348" cy="571.779" r="5.05167" stroke-width="0.5" stroke="black" fill="green"/>
   </g>
   <g id="cell41">
  <circle cx="365.705" cy="480.802" r="8.41271" stroke-width="0.5" stroke="black" fill="green"/>
  <circle cx="365.705" cy="480.802" r="5.05167" stroke-width="0.5" stroke="black" fill="green"/>
   </g>
   <g id="cell42">
  <circle cx="450.613" cy="487.172" r="8.13585" stroke-width="0.5" stroke="black" fill="green"/>
  <circle cx="450.613" cy="487.172" r="4.92706" stroke-width="0.5" stroke="black" fill="green"/>
   </g>
   <g id="cell43">
  <circle cx="558.361" cy="445.689" r="8.41271" stroke-width="0.5" stroke="black" fill="green"/>
  <circle cx="558.361" cy="445.689" r="5.05167" stroke-width="0.5" stroke="black" fill="green"/>
   </g>
   <g id="cell44">
  <circle cx="478.516" cy="627.007" r="8.18833" stroke-width="0.5" stroke="black" fill="green"/>
  <circle cx="478.516" cy="627.007" r="4.94921" stroke-width="0.5" stroke="black" fill="green"/>
   </g>
   <g id="cell45">
  <circle cx="416.982" cy="553.137" r="7.84675" stroke-width="0.5" stroke="black" fill="green"/>
  <circle cx="416.982" cy="553.137" r="4.7629" stroke-width="0.5" stroke="black" fill="green"/>
   </g>
   <g id="cell46">
  <circle cx="520.391" cy="613.215" r="8.41271" stroke-width="0.5" stroke="black" fill="green"/>
  <circle cx="520.391" cy="613.215" r="5.05167" stroke-width="0.5" stroke="black" fill="green"/>
   </g>
   <g id="cell47">
  <circle cx="504.35" cy="511.257" r="8.41271" stroke-width="0.5" stroke="black" fill="green"/>
  <circle cx="504.35" cy="511.257" r="5.05167" stroke-width="0.5" stroke="black" fill="green"/>
   </g>
   <g id="cell48">
  <circle cx="564.377" cy="602.787" r="8.41271" stroke-width="0.5" stroke="black" fill="green"/>
  <circle cx="564.377" cy="602.787" r="5.05167" stroke-width="0.5" stroke="black" fill="green"/>
   </g>
   <g id="cell49">
  <circle cx="429.826" cy="397.641" r="8.41271" stroke-width="0.5" stroke="black" fill="green"/>
  <circle cx="429.826" cy="397.641" r="5.05167" stroke-width="0.5" stroke="black" fill="green"/>
   </g>
   <g id="cell50">
  <circle cx="519.484" cy="516.617" r="8.41271" stroke-width="0.5" stroke="black" fill="cyan"/>
  <circle cx="519.484" cy="516.617" r="5.05167" stroke-width="0.5" stroke="black" fill="cyan"/>
   </g>
   <g id="cell51">
  <circle cx="399.712" cy="598.879" r="8.41271" stroke-width="0.5" stroke="black" fill="cyan"/>
  <circle cx="399.712" cy="598.879" r="5.05167" stroke-width="0.5" stroke="black" fill="cyan"/>
   </g>
   <g id="cell52">
  <circle cx="524.806" cy="425.035" r="1.47065" stroke-width="0.5" stroke="black" fill="cyan"/>
  <circle cx="524.806" cy="425.035" r="1.45328" stroke-width="0.5" stroke="black" fill="black"/>
   </g>
   <g id="cell53">
  <circle cx="571.169" cy="436.092" r="8.41271" stroke-width="0.5" stroke="black" fill="cyan"/>
  <circle cx="571.169" cy="436.092" r="5.05167" stroke-width="0.5" stroke="black" fill="cyan"/>
   </g>
   <g id="cell54">
  <circle cx="477.955" cy="425.908" r="8.41271" stroke-width="0.5" stroke="black" fill="cyan"/>
  <circle cx="477.955" cy="425.908" r="5.05167" stroke-width="0.5" stroke="black" fill="cyan"/>
   </g>
   <g id="cell55">
  <circle cx="525.656" cy="471.056" r="8.41271" stroke-width="0.5" stroke="black" fill="cyan"/>
  <circle cx="525.656" cy="471.056" r="5.05167" stroke-width="0.5" stroke="black" fill="cyan"/>
   </g>
   <g id="cell56">
  <circle cx="617.674" cy="522.316" r="8.41271" stroke-width="0.5" stroke="black" fill="cyan"/>
  <circle cx="617.674" cy="522.316" r="5.05167" stroke-width="0.5" stroke="black" fill="cyan"/>
   </g>
   <g id="cell57">
  <circle cx="416.924" cy="617.466" r="8.41271" stroke-width="0.5" stroke="black" fill="cyan"/>
  <circle cx="416.924" cy="617.466" r="5.05167" stroke-width="0.5" stroke="black" fill="cyan"/>
   </g>
   <g id="cell58">
  <circle cx="553.413" cy="483.445" r="8.41271" stroke-width="0.5" stroke="black" fill="cyan"/>
  <circle cx="553.413" cy="483.445" r="5.05167" stroke-width="0.5" stroke="black" fill="cyan"/>
   </g>
   <g id="cell59">
  <circle cx="385.202" cy="439.265" r="8.41271" stroke-width="0.5" stroke="black" fill="cyan"/>
  <circle cx="385.202" cy="439.265" r="5.05167" stroke-width="0.5" stroke="black" fill="cyan"/>
   </g>
   <g id="cell60">
  <circle cx="592.37" cy="475.958" r="8.41271" stroke-width="0.5" stroke="black" fill="cyan"/>
  <circle cx="592.37" cy="475.958" r="5.05167" stroke-width="0.5" stroke="black" fill="cyan"/>
   </g>
   <g id="cell61">
  <circle cx="554.927" cy="615.74" r="8.41271" stroke-width="0.5" stroke="black" fill="cyan"/>
  <circle cx="554.927" cy="615.74" r="5.05167" stroke-width="0.5" stroke="black" fill="cyan"/>
   </g>
   <g id="cell62">
  <circle cx="526.461" cy="444.611" r="8.41271" stroke-width="0.5" stroke="black" fill="cyan"/>
  <circle cx="526.461" cy="444.611" r="5.05167" stroke-width="0.5" stroke="black" fill="cyan"/>
   </g>
   <g id="cell63">
  <circle cx="581.538" cy="553.021" r="8.08613" stroke-width="0.5" stroke="black" fill="cyan"/>
  <circle cx="581.538" cy="553.021" r="4.8956" stroke-width="0.5" stroke="black" fill="cyan"/>
   </g>
   <g id="cell64">
  <circle cx="509.962" cy="636.825" r="8.41271" stroke-width="0.5" stroke="black" fill="cyan"/>
  <circle cx="509.962" cy="636.825" r="5.05167" stroke-width="0.5" stroke="black" fill="cyan"/>
   </g>
   <g id="cell65">
  <circle cx="535.647" cy="458.978" r="8.06667" stroke-width="0.5" stroke="black" fill="cyan"/>
  <circle cx="535.647" cy="458.978" r="4.88515" stroke-width="0.5" stroke="black" fill="cyan"/>
   </g>
   <g id="cell66">
  <circle cx="536.264" cy="528.379" r="8.41271" stroke-width="0.5" stroke="black" fill="cyan"/>
  <circle cx="536.264" cy="528.379" r="5.05167" stroke-width="0.5" stroke="black" fill="cyan"/>
   </g>
   <g id="cell67">
  <circle cx="354.691" cy="492.638" r="8.41271" stroke-width="0.5" stroke="black" fill="cyan"/>
  <circle cx="354.691" cy="492.638" r="5.05167" stroke-width="0.5" stroke="black" fill="cyan"/>
   </g>
   <g id="cell68">
  <circle cx="558.481" cy="554.608" r="8.41271" stroke-width="0.5" stroke="black" fill="cyan"/>
  <circle cx="558.481" cy="554.608" r="5.05167" stroke-width="0.5" stroke="black" fill="cyan"/>
   </g>
   <g id="cell69">
  <circle cx="438.464" cy="456.957" r="8.35236" stroke-width="0.5" stroke="black" fill="cyan"/>
  <circle cx="438.464" cy="456.957" r="5.02821" stroke-width="0.5" stroke="black" fill="cyan"/>
   </g>
   <g id="cell70">
  <circle cx="576.245" cy="474.498" r="8.41271" stroke-width="0.5" stroke="black" fill="cyan"/>
  <circle cx="576.245" cy="474.498" r="5.05167" stroke-width="0.5" stroke="black" fill="cyan"/>
   </g>
   <g id="cell71">
  <circle cx="374.942" cy="524.972" r="7.18097" stroke-width="0.5" stroke="black" fill="cyan"/>
  <circle cx="374.942" cy="524.972" r="4.36015" stroke-width="0.5" stroke="black" fill="cyan"/>
   </g>
   <g id="cell72">
  <circle cx="535.075" cy="512.258" r="8.41271" stroke-width="0.5" stroke="black" fill="cyan"/>
  <circle cx="535.075" cy="512.258" r="5.05167" stroke-width="0.5" stroke="black" fill="cyan"/>
   </g>
   <g id="cell73">
  <circle cx="363.889" cy="546.214" r="2.34188" stroke-width="0.5" stroke="black" fill="cyan"/>
  <circle cx="363.889" cy="546.214" r="2.12529" stroke-width="0.5" stroke="black" fill="black"/>
   </g>
   <g id="cell74">
  <circle cx="542.411" cy="444.885" r="8.41271" stroke-width="0.5" stroke="black" fill="cyan"/>
  <circle cx="542.411" cy="444.885" r="5.05167" stroke-width="0.5" stroke="black" fill="cyan"/>
   </g>
   <g id="cell75">
  <circle cx="444.312" cy="472.396" r="8.35236" stroke-width="0.5" stroke="black" fill="cyan"/>
  <circle cx="444.312" cy="472.396" r="5.02821" stroke-width="0.5" stroke="black" fill="cyan"/>
   </g>
   <g id="cell76">
  <circle cx="524.42" cy="387.304" r="7.99017" stroke-width="0.5" stroke="black" fill="magenta"/>
  <circle cx="524.42" cy="387.304" r="4.84863" stroke-width="0.5" stroke="black" fill="magenta"/>
   </g>
   <g id="cell77">
  <circle cx="486.081" cy="436.859" r="6.65997" stroke-width="0.5" stroke="black" fill="magenta"/>
  <circle cx="486.081" cy="436.859" r="4.01407" stroke-width="0.5" stroke="black" fill="magenta"/>
   </g>
   <g id="cell78">
  <circle cx="373.824" cy="467.608" r="8.34317" stroke-width="0.5" stroke="black" fill="magenta"/>
  <circle cx="373.824" cy="467.608" r="5.02416" stroke-width="0.5" stroke="black" fill="magenta"/>
   </g>
   <g id="cell79">
  <circle cx="507.338" cy="526.445" r="8.33911" stroke-width="0.5" stroke="black" fill="magenta"/>
  <circle cx="507.338" cy="526.445" r="5.02235" stroke-width="0.5" stroke="black" fill="magenta"/>
   </g>
   <g id="cell80">
  <circle cx="606.302" cy="483.789" r="8.33481" stroke-width="0.5" stroke="black" fill="green"/>
  <circle cx="606.302" cy="483.789" r="5.02043" stroke-width="0.5" stroke="black" fill="green"/>
   </g>
   <g id="cell81">
  <circle cx="429.835" cy="505.663" r="7.38682" stroke-width="0.5" stroke="black" fill="green"/>
  <circle cx="429.835" cy="505.663" r="4.50042" stroke-width="0.5" stroke="black" fill="green"/>
   </g>
   <g id="cell82">
  <circle cx="542.733" cy="494.904" r="8.32032" stroke-width="0.5" stroke="black" fill="magenta"/>
  <circle cx="542.733" cy="494.904" r="5.01383" stroke-width="0.5" stroke="black" fill="magenta"/>
   </g>
   <g id="cell83">
  <circle cx="492.477" cy="430.602" r="2.18999" stroke-width="0.5" stroke="black" fill="green"/>
  <circle cx="492.477" cy="430.602" r="2.0152" stroke-width="0.5" stroke="black" fill="black"/>
   </g>
   <g id="cell84">
  <circle cx="410.183" cy="480.727" r="6.69442" stroke-width="0.5" stroke="black" fill="green"/>
  <circle cx="410.183" cy="480.727" r="4.06347" stroke-width="0.5" stroke="black" fill="green"/>
   </g>
   <g id="cell85">
  <circle cx="405.924" cy="447.209" r="8.20689" stroke-width="0.5" stroke="black" fill="green"/>
  <circle cx="405.924" cy="447.209" r="4.95867" stroke-width="0.5" stroke="black" fill="green"/>
   </g>
   <g id="cell86">
  <circle cx="394.276" cy="566.715" r="6.77628" stroke-width="0.5" stroke="black" fill="magenta"/>
  <circle cx="394.276" cy="566.715" r="4.12261" stroke-width="0.5" stroke="black" fill="magenta"/>
   </g>
   <g id="cell87">
  <circle cx="441.058" cy="520.365" r="8.1947" stroke-width="0.5" stroke="black" fill="green"/>
  <circle cx="441.058" cy="520.365" r="4.95246" stroke-width="0.5" stroke="black" fill="green"/>
   </g>
   <g id="cell88">
  <circle cx="476.936" cy="611.504" r="8.18833" stroke-width="0.5" stroke="black" fill="green"/>
  <circle cx="476.936" cy="611.504" r="4.94921" stroke-width="0.5" stroke="black" fill="green"/>
   </g>
   <g id="cell89">
  <circle cx="435.811" cy="490.139" r="7.59838" stroke-width="0.5" stroke="black" fill="green"/>
  <circle cx="435.811" cy="490.139" r="4.63927" stroke-width="0.5" stroke="black" fill="green"/>
   </g>
   <g id="cell90">
  <circle cx="587.009" cy="501.504" r="8.16806" stroke-width="0.5" stroke="black" fill="magenta"/>
  <circle cx="587.009" cy="501.504" r="4.93877" stroke-width="0.5" stroke="black" fill="magenta"/>
   </g>
   <g id="cell91">
  <circle cx="454.608" cy="598.272" r="3.94318" stroke-width="0.5" stroke="black" fill="magenta"/>
  <circle cx="454.608" cy="598.272" r="2.85129" stroke-width="0.5" stroke="black" fill="black"/>
   </g>
   <g id="cell92">
  <circle cx="550.776" cy="593.096" r="6.36171" stroke-width="0.5" stroke="black" fill="green"/>
  <circle cx="550.776" cy="593.096" r="3.91522" stroke-width="0.5" stroke="black" fill="green"/>
   </g>
   <g id="cell93">
  <circle cx="576.259" cy="531.525" r="7.62668" stroke-width="0.5" stroke="black" fill="cyan"/>
  <circle cx="576.259" cy="531.525" r="4.65408" stroke-width="0.5" stroke="black" fill="cyan"/>
   </g>
   <g id="cell94">
  <circle cx="547.661" cy="468.716" r="8.06667" stroke-width="0.5" stroke="black" fill="cyan"/>
  <circle cx="547.661" cy="468.716" r="4.88515" stroke-width="0.5" stroke="black" fill="cyan"/>
   </g>
   <g id="cell95">
  <circle cx="462.308" cy="535.678" r="8.06667" stroke-width="0.5" stroke="black" fill="magenta"/>
  <circle cx="462.308" cy="535.678" r="4.88515" stroke-width="0.5" stroke="black" fill="magenta"/>
   </g>
   <g id="cell96">
  <circle cx="534.561" cy="377.145" r="7.99017" stroke-width="0.5" stroke="black" fill="magenta"/>
  <circle cx="534.561" cy="377.145" r="4.84863" stroke-width="0.5" stroke="black" fill="magenta"/>
   </g>
   <g id="cell97">
  <circle cx="568.892" cy="506.152" r="7.92531" stroke-width="0.5" stroke="black" fill="magenta"/>
  <circle cx="568.892" cy="506.152" r="4.81463" stroke-width="0.5" stroke="black" fill="magenta"/>
   </g>
   <g id="cell98">
  <circle cx="412.695" cy="567.404" r="7.84675" stroke-width="0.5" stroke="black" fill="green"/>
  <circle cx="412.695" cy="567.404" r="4.7629" stroke-width="0.5" stroke="black" fill="green"/>
   </g>
   <g id="cell99">
  <circle cx="569.814" cy="492.025" r="7.84675" stroke-width="0.5" stroke="black" fill="magenta"/>
  <circle cx="569.814" cy="492.025" r="4.7629" stroke-width="0.5" stroke="black" fill="magenta"/>
   </g>
   <g id="cell100">
  <circle cx="569.497" cy="544.242" r="7.62668" stroke-width="0.5" stroke="black" fill="cyan"/>
  <circle cx="569.497" cy="544.242" r="4.65408" stroke-width="0.5" stroke="black" fill="cyan"/>
   </g>
   <g id="cell101">
  <circle cx="458.691" cy="631.815" r="6.72881" stroke-width="0.5" stroke="black" fill="magenta"/>
  <circle cx="458.691" cy="631.815" r="4.12228" stroke-width="0.5" stroke="black" fill="magenta"/>
   </g>
   <g id="cell102">
  <circle cx="443.594" cy="502.304" r="7.59838" stroke-width="0.5" stroke="black" fill="green"/>
  <circle cx="443.594" cy="502.304" r="4.63927" stroke-width="0.5" stroke="black" fill="green"/>
   </g>
   <g id="cell103">
  <circle cx="544.792" cy="604.66" r="7.41798" stroke-width="0.5" stroke="black" fill="green"/>
  <circle cx="544.792" cy="604.66" r="4.53278" stroke-width="0.5" stroke="black" fill="green"/>
   </g>
   <g id="cell104">
  <circle cx="549.316" cy="536.037" r="7.54436" stroke-width="0.5" stroke="black" fill="green"/>
  <circle cx="549.316" cy="536.037" r="4.58555" stroke-width="0.5" stroke="black" fill="green"/>
   </g>
   <g id="cell105">
  <circle cx="422.003" cy="494.346" r="7.38682" stroke-width="0.5" stroke="black" fill="green"/>
  <circle cx="422.003" cy="494.346" r="4.50042" stroke-width="0.5" stroke="black" fill="green"/>
   </g>
   <g id="cell106">
  <circle cx="638.82" cy="538.71" r="7.44242" stroke-width="0.5" stroke="black" fill="green"/>
  <circle cx="638.82" cy="538.71" r="4.52373" stroke-width="0.5" stroke="black" fill="green"/>
   </g>
   <g id="cell107">
  <circle cx="382.72" cy="513.789" r="7.18097" stroke-width="0.5" stroke="black" fill="cyan"/>
  <circle cx="382.72" cy="513.789" r="4.36015" stroke-width="0.5" stroke="black" fill="cyan"/>
   </g>
   <g id="cell108">
  <circle cx="459.236" cy="643.89" r="6.72881" stroke-width="0.5" stroke="black" fill="magenta"/>
  <circle cx="459.236" cy="643.89" r="4.12228" stroke-width="0.5" stroke="black" fill="magenta"/>
   </g>
   <g id="cell109">
  <circle cx="446.674" cy="631.511" r="6.72881" stroke-width="0.5" stroke="black" fill="magenta"/>
  <circle cx="446.674" cy="631.511" r="4.12228" stroke-width="0.5" stroke="black" fill="magenta"/>
   </g>
   <g id="cell110">
  <circle cx="539.043" cy="590.237" r="6.36171" stroke-width="0.5" stroke="black" fill="green"/>
  <circle cx="539.043" cy="590.237" r="3.91522" stroke-width="0.5" stroke="black" fill="green"/>
   </g>
   <g id="cell111">
  <circle cx="636.276" cy="551.521" r="6.37834" stroke-width="0.5" stroke="black" fill="green"/>
  <circle cx="636.276" cy="551.521" r="3.91094" stroke-width="0.5" stroke="black" fill="green"/>
   </g>
   <g id="cell112">
  <circle cx="384.138" cy="573.403" r="6.77628" stroke-width="0.5" stroke="black" fill="magenta"/>
  <circle cx="384.138" cy="573.403" r="4.12261" stroke-width="0.5" stroke="black" fill="magenta"/>
   </g>
   <g id="cell113">
  <circle cx="422.791" cy="481.371" r="6.69442" stroke-width="0.5" stroke="black" fill="green"/>
  <circle cx="422.791" cy="481.371" r="4.06347" stroke-width="0.5" stroke="black" fill="green"/>
   </g>
   <g id="cell114">
  <circle cx="495.746" cy="443.578" r="6.65997" stroke-width="0.5" stroke="black" fill="magenta"/>
  <circle cx="495.746" cy="443.578" r="4.01407" stroke-width="0.5" stroke="black" fill="magenta"/>
   </g>
  </g>
 </g>
  <rect x="775" y="1035" width="200" height="10" stroke-width="2" stroke="rgb(255,255,255)" fill="rgb(0,0,0)"/>
  <text x="781.25" y="1028.75"
   font-family="Arial" font-size="25" fill="black" >
   200 &#956;m
  </text>
  <text x="25" y="1045"
   font-family="Arial" font-size="18.75" fill="black" >
   0 days, 0 hours, 0 minutes, and 16.7282 seconds
  </text>
  <rect x="0" y="70" width="1000" height="1000" stroke-width="2" stroke="rgb(0,0,0)" fill="none"/>
</svg>
