<?xml version="1.0" encoding="UTF-8" standalone="no"?>
<!-- Created with PhysiCell (http://PhysiCell.MathCancer.org/) -->
<svg 
 xmlns:dc="http://purl.org/dc/elements/1.1/" 
 xmlns:cc="http://creativecommons.org/ns#" 
 xmlns:rdf="http://www.w3.org/1999/02/22-rdf-syntax-ns#" 
 xmlns:svg="http://www.w3.org/2000/svg" 
 xmlns="http://www.w3.org/2000/svg" 
 version="1.1" 
 width="1000" 
 height="1070" 
 id="svg2">
  <rect x="0" y="0" width="1000" height="1070" stroke-width="2" stroke="white" fill="white"/>
  <text x="12.5" y="30"
   font-family="Arial" font-size="25" fill="black" >
   Current time: 0 days, 16 hours, and 30.00 minutes, z = 0.00 &#956;m
  </text>
  <text x="12.5" y="57.5"
   font-family="Arial" font-size="23.75" fill="black" >
   127 agents
  </text>
 <g id="tissue" 
    transform="translate(0,1070) scale(1,-1)">
  <g id="ECM">
  </g>
  <g id="cells">
   <g id="cell0">
  <circle cx="518.923" cy="532.155" r="8.38891" stroke-width="0.5" stroke="black" fill="magenta"/>
  <circle cx="518.923" cy="532.155" r="5.0434" stroke-width="0.5" stroke="black" fill="magenta"/>
   </g>
   <g id="cell1">
  <circle cx="601.33" cy="521.672" r="3.3642" stroke-width="0.5" stroke="black" fill="magenta"/>
  <circle cx="601.33" cy="521.672" r="2.62376" stroke-width="0.5" stroke="black" fill="black"/>
   </g>
   <g id="cell2">
  <circle cx="513.176" cy="598.047" r="8.41271" stroke-width="0.5" stroke="black" fill="magenta"/>
  <circle cx="513.176" cy="598.047" r="5.05167" stroke-width="0.5" stroke="black" fill="magenta"/>
   </g>
   <g id="cell3">
  <circle cx="531.831" cy="539.997" r="8.41271" stroke-width="0.5" stroke="black" fill="magenta"/>
  <circle cx="531.831" cy="539.997" r="5.05167" stroke-width="0.5" stroke="black" fill="magenta"/>
   </g>
   <g id="cell4">
  <circle cx="472.565" cy="440.529" r="8.39144" stroke-width="0.5" stroke="black" fill="magenta"/>
  <circle cx="472.565" cy="440.529" r="5.04437" stroke-width="0.5" stroke="black" fill="magenta"/>
   </g>
   <g id="cell5">
  <circle cx="465.482" cy="493.653" r="8.41271" stroke-width="0.5" stroke="black" fill="magenta"/>
  <circle cx="465.482" cy="493.653" r="5.05167" stroke-width="0.5" stroke="black" fill="magenta"/>
   </g>
   <g id="cell6">
  <circle cx="594.509" cy="513.459" r="8.33481" stroke-width="0.5" stroke="black" fill="magenta"/>
  <circle cx="594.509" cy="513.459" r="5.02043" stroke-width="0.5" stroke="black" fill="magenta"/>
   </g>
   <g id="cell7">
  <circle cx="511.86" cy="464.669" r="8.41271" stroke-width="0.5" stroke="black" fill="magenta"/>
  <circle cx="511.86" cy="464.669" r="5.05167" stroke-width="0.5" stroke="black" fill="magenta"/>
   </g>
   <g id="cell8">
  <circle cx="374.251" cy="549.461" r="8.41271" stroke-width="0.5" stroke="black" fill="magenta"/>
  <circle cx="374.251" cy="549.461" r="5.05167" stroke-width="0.5" stroke="black" fill="magenta"/>
   </g>
   <g id="cell9">
  <circle cx="464.187" cy="602.143" r="8.33026" stroke-width="0.5" stroke="black" fill="magenta"/>
  <circle cx="464.187" cy="602.143" r="5.01837" stroke-width="0.5" stroke="black" fill="magenta"/>
   </g>
   <g id="cell10">
  <circle cx="583.447" cy="392.105" r="8.41271" stroke-width="0.5" stroke="black" fill="magenta"/>
  <circle cx="583.447" cy="392.105" r="5.05167" stroke-width="0.5" stroke="black" fill="magenta"/>
   </g>
   <g id="cell11">
  <circle cx="589.748" cy="590.273" r="8.41271" stroke-width="0.5" stroke="black" fill="magenta"/>
  <circle cx="589.748" cy="590.273" r="5.05167" stroke-width="0.5" stroke="black" fill="magenta"/>
   </g>
   <g id="cell12">
  <circle cx="505.974" cy="584.766" r="8.41271" stroke-width="0.5" stroke="black" fill="magenta"/>
  <circle cx="505.974" cy="584.766" r="5.05167" stroke-width="0.5" stroke="black" fill="magenta"/>
   </g>
   <g id="cell13">
  <circle cx="380.004" cy="562.186" r="7.16726" stroke-width="0.5" stroke="black" fill="magenta"/>
  <circle cx="380.004" cy="562.186" r="4.36174" stroke-width="0.5" stroke="black" fill="magenta"/>
   </g>
   <g id="cell14">
  <circle cx="525.036" cy="402.217" r="8.41271" stroke-width="0.5" stroke="black" fill="magenta"/>
  <circle cx="525.036" cy="402.217" r="5.05167" stroke-width="0.5" stroke="black" fill="magenta"/>
   </g>
   <g id="cell15">
  <circle cx="382.282" cy="479.49" r="8.39021" stroke-width="0.5" stroke="black" fill="magenta"/>
  <circle cx="382.282" cy="479.49" r="5.0439" stroke-width="0.5" stroke="black" fill="magenta"/>
   </g>
   <g id="cell16">
  <circle cx="428.96" cy="413.217" r="8.41271" stroke-width="0.5" stroke="black" fill="magenta"/>
  <circle cx="428.96" cy="413.217" r="5.05167" stroke-width="0.5" stroke="black" fill="magenta"/>
   </g>
   <g id="cell17">
  <circle cx="585.47" cy="487.857" r="8.23444" stroke-width="0.5" stroke="black" fill="magenta"/>
  <circle cx="585.47" cy="487.857" r="4.97252" stroke-width="0.5" stroke="black" fill="magenta"/>
   </g>
   <g id="cell18">
  <circle cx="511.632" cy="395.207" r="8.3926" stroke-width="0.5" stroke="black" fill="magenta"/>
  <circle cx="511.632" cy="395.207" r="5.04482" stroke-width="0.5" stroke="black" fill="magenta"/>
   </g>
   <g id="cell19">
  <circle cx="447.778" cy="538.071" r="8.3031" stroke-width="0.5" stroke="black" fill="magenta"/>
  <circle cx="447.778" cy="538.071" r="5.00583" stroke-width="0.5" stroke="black" fill="magenta"/>
   </g>
   <g id="cell20">
  <circle cx="528.509" cy="416.954" r="8.41271" stroke-width="0.5" stroke="black" fill="magenta"/>
  <circle cx="528.509" cy="416.954" r="5.05167" stroke-width="0.5" stroke="black" fill="magenta"/>
   </g>
   <g id="cell21">
  <circle cx="466.096" cy="637.302" r="2.13277" stroke-width="0.5" stroke="black" fill="magenta"/>
  <circle cx="466.096" cy="637.302" r="1.93636" stroke-width="0.5" stroke="black" fill="black"/>
   </g>
   <g id="cell22">
  <circle cx="557.855" cy="498.616" r="8.25959" stroke-width="0.5" stroke="black" fill="magenta"/>
  <circle cx="557.855" cy="498.616" r="4.98689" stroke-width="0.5" stroke="black" fill="magenta"/>
   </g>
   <g id="cell23">
  <circle cx="537.968" cy="481.399" r="8.41271" stroke-width="0.5" stroke="black" fill="magenta"/>
  <circle cx="537.968" cy="481.399" r="5.05167" stroke-width="0.5" stroke="black" fill="magenta"/>
   </g>
   <g id="cell24">
  <circle cx="559.267" cy="379.784" r="8.41271" stroke-width="0.5" stroke="black" fill="magenta"/>
  <circle cx="559.267" cy="379.784" r="5.05167" stroke-width="0.5" stroke="black" fill="magenta"/>
   </g>
   <g id="cell25">
  <circle cx="647.476" cy="559.264" r="7.79431" stroke-width="0.5" stroke="black" fill="green"/>
  <circle cx="647.476" cy="559.264" r="4.74813" stroke-width="0.5" stroke="black" fill="green"/>
   </g>
   <g id="cell26">
  <circle cx="550.642" cy="401.23" r="8.41271" stroke-width="0.5" stroke="black" fill="green"/>
  <circle cx="550.642" cy="401.23" r="5.05167" stroke-width="0.5" stroke="black" fill="green"/>
   </g>
   <g id="cell27">
  <circle cx="457.446" cy="388.678" r="8.41271" stroke-width="0.5" stroke="black" fill="green"/>
  <circle cx="457.446" cy="388.678" r="5.05167" stroke-width="0.5" stroke="black" fill="green"/>
   </g>
   <g id="cell28">
  <circle cx="432.118" cy="539.868" r="8.41271" stroke-width="0.5" stroke="black" fill="green"/>
  <circle cx="432.118" cy="539.868" r="5.05167" stroke-width="0.5" stroke="black" fill="green"/>
   </g>
   <g id="cell29">
  <circle cx="466.895" cy="520.827" r="7.65911" stroke-width="0.5" stroke="black" fill="green"/>
  <circle cx="466.895" cy="520.827" r="4.66147" stroke-width="0.5" stroke="black" fill="green"/>
   </g>
   <g id="cell30">
  <circle cx="477.378" cy="539.078" r="8.41271" stroke-width="0.5" stroke="black" fill="green"/>
  <circle cx="477.378" cy="539.078" r="5.05167" stroke-width="0.5" stroke="black" fill="green"/>
   </g>
   <g id="cell31">
  <circle cx="412.291" cy="538.347" r="8.41271" stroke-width="0.5" stroke="black" fill="green"/>
  <circle cx="412.291" cy="538.347" r="5.05167" stroke-width="0.5" stroke="black" fill="green"/>
   </g>
   <g id="cell32">
  <circle cx="430.324" cy="466.452" r="8.35236" stroke-width="0.5" stroke="black" fill="green"/>
  <circle cx="430.324" cy="466.452" r="5.02821" stroke-width="0.5" stroke="black" fill="green"/>
   </g>
   <g id="cell33">
  <circle cx="498.808" cy="413.327" r="8.36032" stroke-width="0.5" stroke="black" fill="green"/>
  <circle cx="498.808" cy="413.327" r="5.03165" stroke-width="0.5" stroke="black" fill="green"/>
   </g>
   <g id="cell34">
  <circle cx="392.085" cy="453.589" r="8.347" stroke-width="0.5" stroke="black" fill="green"/>
  <circle cx="392.085" cy="453.589" r="5.02586" stroke-width="0.5" stroke="black" fill="green"/>
   </g>
   <g id="cell35">
  <circle cx="543.265" cy="550.445" r="8.13813" stroke-width="0.5" stroke="black" fill="green"/>
  <circle cx="543.265" cy="550.445" r="4.92317" stroke-width="0.5" stroke="black" fill="green"/>
   </g>
   <g id="cell36">
  <circle cx="395.581" cy="581.047" r="6.99069" stroke-width="0.5" stroke="black" fill="green"/>
  <circle cx="395.581" cy="581.047" r="4.23498" stroke-width="0.5" stroke="black" fill="green"/>
   </g>
   <g id="cell37">
  <circle cx="634.871" cy="460.618" r="8.41271" stroke-width="0.5" stroke="black" fill="green"/>
  <circle cx="634.871" cy="460.618" r="5.05167" stroke-width="0.5" stroke="black" fill="green"/>
   </g>
   <g id="cell38">
  <circle cx="528.389" cy="600.945" r="8.30918" stroke-width="0.5" stroke="black" fill="green"/>
  <circle cx="528.389" cy="600.945" r="5.00867" stroke-width="0.5" stroke="black" fill="green"/>
   </g>
   <g id="cell39">
  <circle cx="618.668" cy="495.422" r="8.38753" stroke-width="0.5" stroke="black" fill="green"/>
  <circle cx="618.668" cy="495.422" r="5.04286" stroke-width="0.5" stroke="black" fill="green"/>
   </g>
   <g id="cell40">
  <circle cx="485.348" cy="571.779" r="8.41271" stroke-width="0.5" stroke="black" fill="green"/>
  <circle cx="485.348" cy="571.779" r="5.05167" stroke-width="0.5" stroke="black" fill="green"/>
   </g>
   <g id="cell41">
  <circle cx="366.793" cy="481.168" r="8.41271" stroke-width="0.5" stroke="black" fill="green"/>
  <circle cx="366.793" cy="481.168" r="5.05167" stroke-width="0.5" stroke="black" fill="green"/>
   </g>
   <g id="cell42">
  <circle cx="451.483" cy="487.053" r="8.3248" stroke-width="0.5" stroke="black" fill="green"/>
  <circle cx="451.483" cy="487.053" r="5.01726" stroke-width="0.5" stroke="black" fill="green"/>
   </g>
   <g id="cell43">
  <circle cx="558.617" cy="445.806" r="8.41271" stroke-width="0.5" stroke="black" fill="green"/>
  <circle cx="558.617" cy="445.806" r="5.05167" stroke-width="0.5" stroke="black" fill="green"/>
   </g>
   <g id="cell44">
  <circle cx="476.797" cy="627.447" r="8.34117" stroke-width="0.5" stroke="black" fill="green"/>
  <circle cx="476.797" cy="627.447" r="5.02327" stroke-width="0.5" stroke="black" fill="green"/>
   </g>
   <g id="cell45">
  <circle cx="416.867" cy="553.542" r="8.23444" stroke-width="0.5" stroke="black" fill="green"/>
  <circle cx="416.867" cy="553.542" r="4.97252" stroke-width="0.5" stroke="black" fill="green"/>
   </g>
   <g id="cell46">
  <circle cx="518.199" cy="611.686" r="7.3599" stroke-width="0.5" stroke="black" fill="green"/>
  <circle cx="518.199" cy="611.686" r="4.47294" stroke-width="0.5" stroke="black" fill="green"/>
   </g>
   <g id="cell47">
  <circle cx="502.777" cy="510.531" r="8.41271" stroke-width="0.5" stroke="black" fill="green"/>
  <circle cx="502.777" cy="510.531" r="5.05167" stroke-width="0.5" stroke="black" fill="green"/>
   </g>
   <g id="cell48">
  <circle cx="564.553" cy="602.93" r="8.41271" stroke-width="0.5" stroke="black" fill="green"/>
  <circle cx="564.553" cy="602.93" r="5.05167" stroke-width="0.5" stroke="black" fill="green"/>
   </g>
   <g id="cell49">
  <circle cx="429.826" cy="397.641" r="8.41271" stroke-width="0.5" stroke="black" fill="green"/>
  <circle cx="429.826" cy="397.641" r="5.05167" stroke-width="0.5" stroke="black" fill="green"/>
   </g>
   <g id="cell50">
  <circle cx="517.614" cy="516.499" r="8.41271" stroke-width="0.5" stroke="black" fill="cyan"/>
  <circle cx="517.614" cy="516.499" r="5.05167" stroke-width="0.5" stroke="black" fill="cyan"/>
   </g>
   <g id="cell51">
  <circle cx="396.108" cy="598.432" r="6.67717" stroke-width="0.5" stroke="black" fill="cyan"/>
  <circle cx="396.108" cy="598.432" r="4.00951" stroke-width="0.5" stroke="black" fill="cyan"/>
   </g>
   <g id="cell120">
  <circle cx="415.524" cy="609.923" r="7.33129" stroke-width="0.5" stroke="black" fill="cyan"/>
  <circle cx="415.524" cy="609.923" r="4.45516" stroke-width="0.5" stroke="black" fill="cyan"/>
   </g>
   <g id="cell53">
  <circle cx="571.29" cy="435.999" r="8.41271" stroke-width="0.5" stroke="black" fill="cyan"/>
  <circle cx="571.29" cy="435.999" r="5.05167" stroke-width="0.5" stroke="black" fill="cyan"/>
   </g>
   <g id="cell54">
  <circle cx="476.484" cy="425.421" r="8.41271" stroke-width="0.5" stroke="black" fill="cyan"/>
  <circle cx="476.484" cy="425.421" r="5.05167" stroke-width="0.5" stroke="black" fill="cyan"/>
   </g>
   <g id="cell55">
  <circle cx="525.912" cy="471.462" r="8.41271" stroke-width="0.5" stroke="black" fill="cyan"/>
  <circle cx="525.912" cy="471.462" r="5.05167" stroke-width="0.5" stroke="black" fill="cyan"/>
   </g>
   <g id="cell56">
  <circle cx="615.814" cy="522.541" r="8.41271" stroke-width="0.5" stroke="black" fill="cyan"/>
  <circle cx="615.814" cy="522.541" r="5.05167" stroke-width="0.5" stroke="black" fill="cyan"/>
   </g>
   <g id="cell57">
  <circle cx="418.278" cy="622.931" r="7.33129" stroke-width="0.5" stroke="black" fill="cyan"/>
  <circle cx="418.278" cy="622.931" r="4.45516" stroke-width="0.5" stroke="black" fill="cyan"/>
   </g>
   <g id="cell58">
  <circle cx="553.375" cy="483.878" r="8.41271" stroke-width="0.5" stroke="black" fill="cyan"/>
  <circle cx="553.375" cy="483.878" r="5.05167" stroke-width="0.5" stroke="black" fill="cyan"/>
   </g>
   <g id="cell59">
  <circle cx="385.173" cy="439.204" r="8.41271" stroke-width="0.5" stroke="black" fill="cyan"/>
  <circle cx="385.173" cy="439.204" r="5.05167" stroke-width="0.5" stroke="black" fill="cyan"/>
   </g>
   <g id="cell60">
  <circle cx="587.641" cy="473.856" r="7.11815" stroke-width="0.5" stroke="black" fill="cyan"/>
  <circle cx="587.641" cy="473.856" r="4.31954" stroke-width="0.5" stroke="black" fill="cyan"/>
   </g>
   <g id="cell61">
  <circle cx="554.595" cy="615.481" r="8.41271" stroke-width="0.5" stroke="black" fill="cyan"/>
  <circle cx="554.595" cy="615.481" r="5.05167" stroke-width="0.5" stroke="black" fill="cyan"/>
   </g>
   <g id="cell62">
  <circle cx="526.641" cy="445.612" r="8.41271" stroke-width="0.5" stroke="black" fill="cyan"/>
  <circle cx="526.641" cy="445.612" r="5.05167" stroke-width="0.5" stroke="black" fill="cyan"/>
   </g>
   <g id="cell63">
  <circle cx="581.694" cy="553.136" r="8.30918" stroke-width="0.5" stroke="black" fill="cyan"/>
  <circle cx="581.694" cy="553.136" r="5.00867" stroke-width="0.5" stroke="black" fill="cyan"/>
   </g>
   <g id="cell64">
  <circle cx="513.765" cy="633.724" r="7.02257" stroke-width="0.5" stroke="black" fill="cyan"/>
  <circle cx="513.765" cy="633.724" r="4.25644" stroke-width="0.5" stroke="black" fill="cyan"/>
   </g>
   <g id="cell65">
  <circle cx="535.531" cy="458.792" r="8.3031" stroke-width="0.5" stroke="black" fill="cyan"/>
  <circle cx="535.531" cy="458.792" r="5.00583" stroke-width="0.5" stroke="black" fill="cyan"/>
   </g>
   <g id="cell66">
  <circle cx="542.713" cy="530.362" r="7.38797" stroke-width="0.5" stroke="black" fill="cyan"/>
  <circle cx="542.713" cy="530.362" r="4.49029" stroke-width="0.5" stroke="black" fill="cyan"/>
   </g>
   <g id="cell67">
  <circle cx="355.154" cy="492.18" r="8.41271" stroke-width="0.5" stroke="black" fill="cyan"/>
  <circle cx="355.154" cy="492.18" r="5.05167" stroke-width="0.5" stroke="black" fill="cyan"/>
   </g>
   <g id="cell68">
  <circle cx="558.262" cy="555.246" r="8.41271" stroke-width="0.5" stroke="black" fill="cyan"/>
  <circle cx="558.262" cy="555.246" r="5.05167" stroke-width="0.5" stroke="black" fill="cyan"/>
   </g>
   <g id="cell69">
  <circle cx="438.445" cy="452.555" r="8.39316" stroke-width="0.5" stroke="black" fill="cyan"/>
  <circle cx="438.445" cy="452.555" r="5.04503" stroke-width="0.5" stroke="black" fill="cyan"/>
   </g>
   <g id="cell70">
  <circle cx="573.539" cy="477.901" r="8.41271" stroke-width="0.5" stroke="black" fill="cyan"/>
  <circle cx="573.539" cy="477.901" r="5.05167" stroke-width="0.5" stroke="black" fill="cyan"/>
   </g>
   <g id="cell71">
  <circle cx="378.79" cy="528.602" r="7.39829" stroke-width="0.5" stroke="black" fill="cyan"/>
  <circle cx="378.79" cy="528.602" r="4.52327" stroke-width="0.5" stroke="black" fill="cyan"/>
   </g>
   <g id="cell72">
  <circle cx="535.506" cy="509.335" r="8.41271" stroke-width="0.5" stroke="black" fill="cyan"/>
  <circle cx="535.506" cy="509.335" r="5.05167" stroke-width="0.5" stroke="black" fill="cyan"/>
   </g>
   <g id="cell73">
  <circle cx="365.72" cy="546.745" r="1.33065" stroke-width="0.5" stroke="black" fill="cyan"/>
  <circle cx="365.72" cy="546.745" r="1.32157" stroke-width="0.5" stroke="black" fill="black"/>
   </g>
   <g id="cell74">
  <circle cx="542.64" cy="444.56" r="8.41271" stroke-width="0.5" stroke="black" fill="cyan"/>
  <circle cx="542.64" cy="444.56" r="5.05167" stroke-width="0.5" stroke="black" fill="cyan"/>
   </g>
   <g id="cell75">
  <circle cx="442.087" cy="476.139" r="6.88221" stroke-width="0.5" stroke="black" fill="cyan"/>
  <circle cx="442.087" cy="476.139" r="4.16512" stroke-width="0.5" stroke="black" fill="cyan"/>
   </g>
   <g id="cell76">
  <circle cx="524.33" cy="387.216" r="8.27951" stroke-width="0.5" stroke="black" fill="magenta"/>
  <circle cx="524.33" cy="387.216" r="4.99601" stroke-width="0.5" stroke="black" fill="magenta"/>
   </g>
   <g id="cell77">
  <circle cx="486.518" cy="436.524" r="7.7652" stroke-width="0.5" stroke="black" fill="magenta"/>
  <circle cx="486.518" cy="436.524" r="4.71876" stroke-width="0.5" stroke="black" fill="magenta"/>
   </g>
   <g id="cell78">
  <circle cx="373.582" cy="467.146" r="8.39021" stroke-width="0.5" stroke="black" fill="magenta"/>
  <circle cx="373.582" cy="467.146" r="5.0439" stroke-width="0.5" stroke="black" fill="magenta"/>
   </g>
   <g id="cell79">
  <circle cx="505.235" cy="525.913" r="8.38891" stroke-width="0.5" stroke="black" fill="magenta"/>
  <circle cx="505.235" cy="525.913" r="5.0434" stroke-width="0.5" stroke="black" fill="magenta"/>
   </g>
   <g id="cell80">
  <circle cx="606.309" cy="485.339" r="8.38753" stroke-width="0.5" stroke="black" fill="green"/>
  <circle cx="606.309" cy="485.339" r="5.04286" stroke-width="0.5" stroke="black" fill="green"/>
   </g>
   <g id="cell81">
  <circle cx="431.629" cy="500.998" r="6.48068" stroke-width="0.5" stroke="black" fill="green"/>
  <circle cx="431.629" cy="500.998" r="3.93209" stroke-width="0.5" stroke="black" fill="green"/>
   </g>
   <g id="cell82">
  <circle cx="543.122" cy="495.646" r="8.38291" stroke-width="0.5" stroke="black" fill="magenta"/>
  <circle cx="543.122" cy="495.646" r="5.04103" stroke-width="0.5" stroke="black" fill="magenta"/>
   </g>
   <g id="cell83">
  <circle cx="492.377" cy="430.697" r="1.26038" stroke-width="0.5" stroke="black" fill="green"/>
  <circle cx="492.377" cy="430.697" r="1.25315" stroke-width="0.5" stroke="black" fill="black"/>
   </g>
   <g id="cell84">
  <circle cx="408.227" cy="480.894" r="7.82841" stroke-width="0.5" stroke="black" fill="green"/>
  <circle cx="408.227" cy="480.894" r="4.75839" stroke-width="0.5" stroke="black" fill="green"/>
   </g>
   <g id="cell85">
  <circle cx="405.579" cy="447.367" r="2.19767" stroke-width="0.5" stroke="black" fill="green"/>
  <circle cx="405.579" cy="447.367" r="2.03022" stroke-width="0.5" stroke="black" fill="black"/>
   </g>
   <g id="cell86">
  <circle cx="393.301" cy="564.974" r="7.87147" stroke-width="0.5" stroke="black" fill="magenta"/>
  <circle cx="393.301" cy="564.974" r="4.78308" stroke-width="0.5" stroke="black" fill="magenta"/>
   </g>
   <g id="cell87">
  <circle cx="438.853" cy="526.681" r="7.47635" stroke-width="0.5" stroke="black" fill="green"/>
  <circle cx="438.853" cy="526.681" r="4.55299" stroke-width="0.5" stroke="black" fill="green"/>
   </g>
   <g id="cell88">
  <circle cx="476.445" cy="611.57" r="8.34117" stroke-width="0.5" stroke="black" fill="green"/>
  <circle cx="476.445" cy="611.57" r="5.02327" stroke-width="0.5" stroke="black" fill="green"/>
   </g>
   <g id="cell89">
  <circle cx="435.78" cy="488.332" r="8.16093" stroke-width="0.5" stroke="black" fill="green"/>
  <circle cx="435.78" cy="488.332" r="4.94057" stroke-width="0.5" stroke="black" fill="green"/>
   </g>
   <g id="cell90">
  <circle cx="583.606" cy="502.702" r="8.33481" stroke-width="0.5" stroke="black" fill="magenta"/>
  <circle cx="583.606" cy="502.702" r="5.02043" stroke-width="0.5" stroke="black" fill="magenta"/>
   </g>
   <g id="cell91">
  <circle cx="455.771" cy="598.731" r="1.75463" stroke-width="0.5" stroke="black" fill="magenta"/>
  <circle cx="455.771" cy="598.731" r="1.69973" stroke-width="0.5" stroke="black" fill="black"/>
   </g>
   <g id="cell92">
  <circle cx="553.238" cy="592.551" r="7.79524" stroke-width="0.5" stroke="black" fill="green"/>
  <circle cx="553.238" cy="592.551" r="4.75166" stroke-width="0.5" stroke="black" fill="green"/>
   </g>
   <g id="cell93">
  <circle cx="576.828" cy="530.483" r="8.17004" stroke-width="0.5" stroke="black" fill="cyan"/>
  <circle cx="576.828" cy="530.483" r="4.9448" stroke-width="0.5" stroke="black" fill="cyan"/>
   </g>
   <g id="cell94">
  <circle cx="547.457" cy="469.13" r="8.3031" stroke-width="0.5" stroke="black" fill="cyan"/>
  <circle cx="547.457" cy="469.13" r="5.00583" stroke-width="0.5" stroke="black" fill="cyan"/>
   </g>
   <g id="cell95">
  <circle cx="462.459" cy="535.003" r="8.3031" stroke-width="0.5" stroke="black" fill="magenta"/>
  <circle cx="462.459" cy="535.003" r="5.00583" stroke-width="0.5" stroke="black" fill="magenta"/>
   </g>
   <g id="cell96">
  <circle cx="534.956" cy="376.776" r="8.27951" stroke-width="0.5" stroke="black" fill="magenta"/>
  <circle cx="534.956" cy="376.776" r="4.99601" stroke-width="0.5" stroke="black" fill="magenta"/>
   </g>
   <g id="cell97">
  <circle cx="569.542" cy="507.835" r="8.25959" stroke-width="0.5" stroke="black" fill="magenta"/>
  <circle cx="569.542" cy="507.835" r="4.98689" stroke-width="0.5" stroke="black" fill="magenta"/>
   </g>
   <g id="cell98">
  <circle cx="408.259" cy="566.728" r="8.23444" stroke-width="0.5" stroke="black" fill="green"/>
  <circle cx="408.259" cy="566.728" r="4.97252" stroke-width="0.5" stroke="black" fill="green"/>
   </g>
   <g id="cell99">
  <circle cx="571.748" cy="493.249" r="8.23444" stroke-width="0.5" stroke="black" fill="magenta"/>
  <circle cx="571.748" cy="493.249" r="4.97252" stroke-width="0.5" stroke="black" fill="magenta"/>
   </g>
   <g id="cell100">
  <circle cx="569.02" cy="543.858" r="8.17004" stroke-width="0.5" stroke="black" fill="cyan"/>
  <circle cx="569.02" cy="543.858" r="4.9448" stroke-width="0.5" stroke="black" fill="cyan"/>
   </g>
   <g id="cell101">
  <circle cx="461.903" cy="629.283" r="7.89465" stroke-width="0.5" stroke="black" fill="magenta"/>
  <circle cx="461.903" cy="629.283" r="4.80139" stroke-width="0.5" stroke="black" fill="magenta"/>
   </g>
   <g id="cell102">
  <circle cx="445.317" cy="501.127" r="8.16093" stroke-width="0.5" stroke="black" fill="green"/>
  <circle cx="445.317" cy="501.127" r="4.94057" stroke-width="0.5" stroke="black" fill="green"/>
   </g>
   <g id="cell103">
  <circle cx="543.623" cy="604.227" r="8.1062" stroke-width="0.5" stroke="black" fill="green"/>
  <circle cx="543.623" cy="604.227" r="4.91222" stroke-width="0.5" stroke="black" fill="green"/>
   </g>
   <g id="cell104">
  <circle cx="554.164" cy="539.523" r="8.13813" stroke-width="0.5" stroke="black" fill="green"/>
  <circle cx="554.164" cy="539.523" r="4.92317" stroke-width="0.5" stroke="black" fill="green"/>
   </g>
   <g id="cell105">
  <circle cx="416.287" cy="493.792" r="8.08933" stroke-width="0.5" stroke="black" fill="green"/>
  <circle cx="416.287" cy="493.792" r="4.89993" stroke-width="0.5" stroke="black" fill="green"/>
   </g>
   <g id="cell106">
  <circle cx="639.133" cy="537.486" r="8.10448" stroke-width="0.5" stroke="black" fill="green"/>
  <circle cx="639.133" cy="537.486" r="4.90539" stroke-width="0.5" stroke="black" fill="green"/>
   </g>
   <g id="cell107">
  <circle cx="383.065" cy="514.579" r="8.01277" stroke-width="0.5" stroke="black" fill="cyan"/>
  <circle cx="383.065" cy="514.579" r="4.85584" stroke-width="0.5" stroke="black" fill="cyan"/>
   </g>
   <g id="cell108">
  <circle cx="459.225" cy="643.188" r="7.89465" stroke-width="0.5" stroke="black" fill="magenta"/>
  <circle cx="459.225" cy="643.188" r="4.80139" stroke-width="0.5" stroke="black" fill="magenta"/>
   </g>
   <g id="cell109">
  <circle cx="448.472" cy="633.877" r="7.89465" stroke-width="0.5" stroke="black" fill="magenta"/>
  <circle cx="448.472" cy="633.877" r="4.80139" stroke-width="0.5" stroke="black" fill="magenta"/>
   </g>
   <g id="cell110">
  <circle cx="538.76" cy="589.823" r="7.79524" stroke-width="0.5" stroke="black" fill="green"/>
  <circle cx="538.76" cy="589.823" r="4.75166" stroke-width="0.5" stroke="black" fill="green"/>
   </g>
   <g id="cell111">
  <circle cx="634.635" cy="551.904" r="7.79431" stroke-width="0.5" stroke="black" fill="green"/>
  <circle cx="634.635" cy="551.904" r="4.74813" stroke-width="0.5" stroke="black" fill="green"/>
   </g>
   <g id="cell112">
  <circle cx="383.356" cy="575.184" r="7.87147" stroke-width="0.5" stroke="black" fill="magenta"/>
  <circle cx="383.356" cy="575.184" r="4.78308" stroke-width="0.5" stroke="black" fill="magenta"/>
   </g>
   <g id="cell113">
  <circle cx="423.029" cy="480.119" r="7.82841" stroke-width="0.5" stroke="black" fill="green"/>
  <circle cx="423.029" cy="480.119" r="4.75839" stroke-width="0.5" stroke="black" fill="green"/>
   </g>
   <g id="cell114">
  <circle cx="497.61" cy="444.964" r="7.7652" stroke-width="0.5" stroke="black" fill="magenta"/>
  <circle cx="497.61" cy="444.964" r="4.71876" stroke-width="0.5" stroke="black" fill="magenta"/>
   </g>
   <g id="cell115">
  <circle cx="452.77" cy="523.991" r="7.65911" stroke-width="0.5" stroke="black" fill="green"/>
  <circle cx="452.77" cy="523.991" r="4.66147" stroke-width="0.5" stroke="black" fill="green"/>
   </g>
   <g id="cell116">
  <circle cx="368.96" cy="518.566" r="7.39829" stroke-width="0.5" stroke="black" fill="cyan"/>
  <circle cx="368.96" cy="518.566" r="4.52327" stroke-width="0.5" stroke="black" fill="cyan"/>
   </g>
   <g id="cell117">
  <circle cx="436.671" cy="513.007" r="7.47635" stroke-width="0.5" stroke="black" fill="green"/>
  <circle cx="436.671" cy="513.007" r="4.55299" stroke-width="0.5" stroke="black" fill="green"/>
   </g>
   <g id="cell118">
  <circle cx="530.656" cy="523.719" r="7.38797" stroke-width="0.5" stroke="black" fill="cyan"/>
  <circle cx="530.656" cy="523.719" r="4.49029" stroke-width="0.5" stroke="black" fill="cyan"/>
   </g>
   <g id="cell119">
  <circle cx="523.672" cy="624.437" r="7.3599" stroke-width="0.5" stroke="black" fill="green"/>
  <circle cx="523.672" cy="624.437" r="4.47294" stroke-width="0.5" stroke="black" fill="green"/>
   </g>
   <g id="cell121">
  <circle cx="388.104" cy="552.288" r="7.16726" stroke-width="0.5" stroke="black" fill="magenta"/>
  <circle cx="388.104" cy="552.288" r="4.36174" stroke-width="0.5" stroke="black" fill="magenta"/>
   </g>
   <g id="cell122">
  <circle cx="600.891" cy="471.68" r="7.11815" stroke-width="0.5" stroke="black" fill="cyan"/>
  <circle cx="600.891" cy="471.68" r="4.31954" stroke-width="0.5" stroke="black" fill="cyan"/>
   </g>
   <g id="cell123">
  <circle cx="503.413" cy="642.036" r="7.02257" stroke-width="0.5" stroke="black" fill="cyan"/>
  <circle cx="503.413" cy="642.036" r="4.25644" stroke-width="0.5" stroke="black" fill="cyan"/>
   </g>
   <g id="cell124">
  <circle cx="386.937" cy="591.235" r="6.99069" stroke-width="0.5" stroke="black" fill="green"/>
  <circle cx="386.937" cy="591.235" r="4.23498" stroke-width="0.5" stroke="black" fill="green"/>
   </g>
   <g id="cell125">
  <circle cx="446.508" cy="464.318" r="6.88221" stroke-width="0.5" stroke="black" fill="cyan"/>
  <circle cx="446.508" cy="464.318" r="4.16512" stroke-width="0.5" stroke="black" fill="cyan"/>
   </g>
   <g id="cell126">
  <circle cx="421.242" cy="506.871" r="6.48068" stroke-width="0.5" stroke="black" fill="green"/>
  <circle cx="421.242" cy="506.871" r="3.93209" stroke-width="0.5" stroke="black" fill="green"/>
   </g>
   <g id="cell127">
  <circle cx="406.544" cy="602.124" r="6.67717" stroke-width="0.5" stroke="black" fill="cyan"/>
  <circle cx="406.544" cy="602.124" r="4.00951" stroke-width="0.5" stroke="black" fill="cyan"/>
   </g>
  </g>
 </g>
  <rect x="775" y="1035" width="200" height="10" stroke-width="2" stroke="rgb(255,255,255)" fill="rgb(0,0,0)"/>
  <text x="781.25" y="1028.75"
   font-family="Arial" font-size="25" fill="black" >
   200 &#956;m
  </text>
  <text x="25" y="1045"
   font-family="Arial" font-size="18.75" fill="black" >
   0 days, 0 hours, 0 minutes, and 22.0980 seconds
  </text>
  <rect x="0" y="70" width="1000" height="1000" stroke-width="2" stroke="rgb(0,0,0)" fill="none"/>
</svg>
