<?xml version="1.0" encoding="UTF-8" standalone="no"?>
<!-- Created with PhysiCell (http://PhysiCell.MathCancer.org/) -->
<svg 
 xmlns:dc="http://purl.org/dc/elements/1.1/" 
 xmlns:cc="http://creativecommons.org/ns#" 
 xmlns:rdf="http://www.w3.org/1999/02/22-rdf-syntax-ns#" 
 xmlns:svg="http://www.w3.org/2000/svg" 
 xmlns="http://www.w3.org/2000/svg" 
 version="1.1" 
 width="1000" 
 height="1070" 
 id="svg2">
  <rect x="0" y="0" width="1000" height="1070" stroke-width="2" stroke="white" fill="white"/>
  <text x="12.5" y="30"
   font-family="Arial" font-size="25" fill="black" >
   Current time: 0 days, 18 hours, and 0.00 minutes, z = 0.00 &#956;m
  </text>
  <text x="12.5" y="57.5"
   font-family="Arial" font-size="23.75" fill="black" >
   130 agents
  </text>
 <g id="tissue" 
    transform="translate(0,1070) scale(1,-1)">
  <g id="ECM">
  </g>
  <g id="cells">
   <g id="cell0">
  <circle cx="518.34" cy="532.359" r="8.39708" stroke-width="0.5" stroke="black" fill="magenta"/>
  <circle cx="518.34" cy="532.359" r="5.0465" stroke-width="0.5" stroke="black" fill="magenta"/>
   </g>
   <g id="cell1">
  <circle cx="600.646" cy="520.836" r="2.42814" stroke-width="0.5" stroke="black" fill="magenta"/>
  <circle cx="600.646" cy="520.836" r="2.17648" stroke-width="0.5" stroke="black" fill="black"/>
   </g>
   <g id="cell2">
  <circle cx="513.1" cy="597.719" r="8.41271" stroke-width="0.5" stroke="black" fill="magenta"/>
  <circle cx="513.1" cy="597.719" r="5.05167" stroke-width="0.5" stroke="black" fill="magenta"/>
   </g>
   <g id="cell3">
  <circle cx="531.99" cy="539" r="8.41271" stroke-width="0.5" stroke="black" fill="magenta"/>
  <circle cx="531.99" cy="539" r="5.05167" stroke-width="0.5" stroke="black" fill="magenta"/>
   </g>
   <g id="cell4">
  <circle cx="472.384" cy="440.451" r="8.39874" stroke-width="0.5" stroke="black" fill="magenta"/>
  <circle cx="472.384" cy="440.451" r="5.04711" stroke-width="0.5" stroke="black" fill="magenta"/>
   </g>
   <g id="cell5">
  <circle cx="465.584" cy="493.866" r="8.41271" stroke-width="0.5" stroke="black" fill="magenta"/>
  <circle cx="465.584" cy="493.866" r="5.05167" stroke-width="0.5" stroke="black" fill="magenta"/>
   </g>
   <g id="cell6">
  <circle cx="594.327" cy="513.421" r="8.36178" stroke-width="0.5" stroke="black" fill="magenta"/>
  <circle cx="594.327" cy="513.421" r="5.03227" stroke-width="0.5" stroke="black" fill="magenta"/>
   </g>
   <g id="cell7">
  <circle cx="511.943" cy="464.703" r="8.41271" stroke-width="0.5" stroke="black" fill="magenta"/>
  <circle cx="511.943" cy="464.703" r="5.05167" stroke-width="0.5" stroke="black" fill="magenta"/>
   </g>
   <g id="cell8">
  <circle cx="374.602" cy="548.446" r="8.41271" stroke-width="0.5" stroke="black" fill="magenta"/>
  <circle cx="374.602" cy="548.446" r="5.05167" stroke-width="0.5" stroke="black" fill="magenta"/>
   </g>
   <g id="cell9">
  <circle cx="464.08" cy="602.11" r="8.35882" stroke-width="0.5" stroke="black" fill="magenta"/>
  <circle cx="464.08" cy="602.11" r="5.031" stroke-width="0.5" stroke="black" fill="magenta"/>
   </g>
   <g id="cell10">
  <circle cx="588.14" cy="391.419" r="6.86652" stroke-width="0.5" stroke="black" fill="magenta"/>
  <circle cx="588.14" cy="391.419" r="4.14883" stroke-width="0.5" stroke="black" fill="magenta"/>
   </g>
   <g id="cell11">
  <circle cx="589.748" cy="590.273" r="8.41271" stroke-width="0.5" stroke="black" fill="magenta"/>
  <circle cx="589.748" cy="590.273" r="5.05167" stroke-width="0.5" stroke="black" fill="magenta"/>
   </g>
   <g id="cell12">
  <circle cx="505.816" cy="584.476" r="8.41271" stroke-width="0.5" stroke="black" fill="magenta"/>
  <circle cx="505.816" cy="584.476" r="5.05167" stroke-width="0.5" stroke="black" fill="magenta"/>
   </g>
   <g id="cell13">
  <circle cx="379.241" cy="562.099" r="7.5885" stroke-width="0.5" stroke="black" fill="magenta"/>
  <circle cx="379.241" cy="562.099" r="4.61748" stroke-width="0.5" stroke="black" fill="magenta"/>
   </g>
   <g id="cell14">
  <circle cx="525.024" cy="402.242" r="8.41271" stroke-width="0.5" stroke="black" fill="magenta"/>
  <circle cx="525.024" cy="402.242" r="5.05167" stroke-width="0.5" stroke="black" fill="magenta"/>
   </g>
   <g id="cell15">
  <circle cx="382.288" cy="479.495" r="8.39794" stroke-width="0.5" stroke="black" fill="magenta"/>
  <circle cx="382.288" cy="479.495" r="5.04681" stroke-width="0.5" stroke="black" fill="magenta"/>
   </g>
   <g id="cell16">
  <circle cx="429.628" cy="414.346" r="8.41271" stroke-width="0.5" stroke="black" fill="magenta"/>
  <circle cx="429.628" cy="414.346" r="5.05167" stroke-width="0.5" stroke="black" fill="magenta"/>
   </g>
   <g id="cell17">
  <circle cx="585.573" cy="487.903" r="8.29667" stroke-width="0.5" stroke="black" fill="magenta"/>
  <circle cx="585.573" cy="487.903" r="5.00279" stroke-width="0.5" stroke="black" fill="magenta"/>
   </g>
   <g id="cell18">
  <circle cx="511.591" cy="395.277" r="8.3995" stroke-width="0.5" stroke="black" fill="magenta"/>
  <circle cx="511.591" cy="395.277" r="5.04738" stroke-width="0.5" stroke="black" fill="magenta"/>
   </g>
   <g id="cell19">
  <circle cx="447.895" cy="538.548" r="8.34117" stroke-width="0.5" stroke="black" fill="magenta"/>
  <circle cx="447.895" cy="538.548" r="5.02327" stroke-width="0.5" stroke="black" fill="magenta"/>
   </g>
   <g id="cell20">
  <circle cx="528.514" cy="416.975" r="8.41271" stroke-width="0.5" stroke="black" fill="magenta"/>
  <circle cx="528.514" cy="416.975" r="5.05167" stroke-width="0.5" stroke="black" fill="magenta"/>
   </g>
   <g id="cell21">
  <circle cx="465.617" cy="637.18" r="1.68174" stroke-width="0.5" stroke="black" fill="magenta"/>
  <circle cx="465.617" cy="637.18" r="1.6203" stroke-width="0.5" stroke="black" fill="black"/>
   </g>
   <g id="cell22">
  <circle cx="557.836" cy="498.918" r="8.31294" stroke-width="0.5" stroke="black" fill="magenta"/>
  <circle cx="557.836" cy="498.918" r="5.01162" stroke-width="0.5" stroke="black" fill="magenta"/>
   </g>
   <g id="cell23">
  <circle cx="538.022" cy="481.523" r="8.41271" stroke-width="0.5" stroke="black" fill="magenta"/>
  <circle cx="538.022" cy="481.523" r="5.05167" stroke-width="0.5" stroke="black" fill="magenta"/>
   </g>
   <g id="cell24">
  <circle cx="559.322" cy="379.85" r="8.41271" stroke-width="0.5" stroke="black" fill="magenta"/>
  <circle cx="559.322" cy="379.85" r="5.05167" stroke-width="0.5" stroke="black" fill="magenta"/>
   </g>
   <g id="cell25">
  <circle cx="647.683" cy="559.381" r="8.01566" stroke-width="0.5" stroke="black" fill="green"/>
  <circle cx="647.683" cy="559.381" r="4.86665" stroke-width="0.5" stroke="black" fill="green"/>
   </g>
   <g id="cell26">
  <circle cx="550.642" cy="401.23" r="8.41271" stroke-width="0.5" stroke="black" fill="green"/>
  <circle cx="550.642" cy="401.23" r="5.05167" stroke-width="0.5" stroke="black" fill="green"/>
   </g>
   <g id="cell27">
  <circle cx="457.446" cy="388.678" r="8.41271" stroke-width="0.5" stroke="black" fill="green"/>
  <circle cx="457.446" cy="388.678" r="5.05167" stroke-width="0.5" stroke="black" fill="green"/>
   </g>
   <g id="cell28">
  <circle cx="432.443" cy="541.483" r="8.41271" stroke-width="0.5" stroke="black" fill="green"/>
  <circle cx="432.443" cy="541.483" r="5.05167" stroke-width="0.5" stroke="black" fill="green"/>
   </g>
   <g id="cell29">
  <circle cx="467.3" cy="520.951" r="7.92504" stroke-width="0.5" stroke="black" fill="green"/>
  <circle cx="467.3" cy="520.951" r="4.81165" stroke-width="0.5" stroke="black" fill="green"/>
   </g>
   <g id="cell30">
  <circle cx="477.588" cy="539.133" r="8.41271" stroke-width="0.5" stroke="black" fill="green"/>
  <circle cx="477.588" cy="539.133" r="5.05167" stroke-width="0.5" stroke="black" fill="green"/>
   </g>
   <g id="cell31">
  <circle cx="412.357" cy="538.335" r="8.41271" stroke-width="0.5" stroke="black" fill="green"/>
  <circle cx="412.357" cy="538.335" r="5.05167" stroke-width="0.5" stroke="black" fill="green"/>
   </g>
   <g id="cell32">
  <circle cx="430.737" cy="466.134" r="8.37321" stroke-width="0.5" stroke="black" fill="green"/>
  <circle cx="430.737" cy="466.134" r="5.03708" stroke-width="0.5" stroke="black" fill="green"/>
   </g>
   <g id="cell33">
  <circle cx="498.851" cy="413.267" r="8.3784" stroke-width="0.5" stroke="black" fill="green"/>
  <circle cx="498.851" cy="413.267" r="5.03921" stroke-width="0.5" stroke="black" fill="green"/>
   </g>
   <g id="cell34">
  <circle cx="392.089" cy="453.6" r="8.36972" stroke-width="0.5" stroke="black" fill="green"/>
  <circle cx="392.089" cy="453.6" r="5.03563" stroke-width="0.5" stroke="black" fill="green"/>
   </g>
   <g id="cell35">
  <circle cx="542.795" cy="550.176" r="8.23444" stroke-width="0.5" stroke="black" fill="green"/>
  <circle cx="542.795" cy="550.176" r="4.97252" stroke-width="0.5" stroke="black" fill="green"/>
   </g>
   <g id="cell36">
  <circle cx="396.125" cy="579.78" r="7.44242" stroke-width="0.5" stroke="black" fill="green"/>
  <circle cx="396.125" cy="579.78" r="4.52373" stroke-width="0.5" stroke="black" fill="green"/>
   </g>
   <g id="cell37">
  <circle cx="634.871" cy="460.618" r="8.41271" stroke-width="0.5" stroke="black" fill="green"/>
  <circle cx="634.871" cy="460.618" r="5.05167" stroke-width="0.5" stroke="black" fill="green"/>
   </g>
   <g id="cell38">
  <circle cx="528.296" cy="600.999" r="8.34511" stroke-width="0.5" stroke="black" fill="green"/>
  <circle cx="528.296" cy="600.999" r="5.02502" stroke-width="0.5" stroke="black" fill="green"/>
   </g>
   <g id="cell39">
  <circle cx="618.696" cy="495.445" r="8.39618" stroke-width="0.5" stroke="black" fill="green"/>
  <circle cx="618.696" cy="495.445" r="5.04616" stroke-width="0.5" stroke="black" fill="green"/>
   </g>
   <g id="cell40">
  <circle cx="485.348" cy="571.779" r="8.41271" stroke-width="0.5" stroke="black" fill="green"/>
  <circle cx="485.348" cy="571.779" r="5.05167" stroke-width="0.5" stroke="black" fill="green"/>
   </g>
   <g id="cell41">
  <circle cx="366.792" cy="481.169" r="8.41271" stroke-width="0.5" stroke="black" fill="green"/>
  <circle cx="366.792" cy="481.169" r="5.05167" stroke-width="0.5" stroke="black" fill="green"/>
   </g>
   <g id="cell42">
  <circle cx="451.933" cy="486.568" r="8.35524" stroke-width="0.5" stroke="black" fill="green"/>
  <circle cx="451.933" cy="486.568" r="5.03031" stroke-width="0.5" stroke="black" fill="green"/>
   </g>
   <g id="cell43">
  <circle cx="558.609" cy="445.803" r="8.41271" stroke-width="0.5" stroke="black" fill="green"/>
  <circle cx="558.609" cy="445.803" r="5.05167" stroke-width="0.5" stroke="black" fill="green"/>
   </g>
   <g id="cell44">
  <circle cx="477.145" cy="627.434" r="8.36592" stroke-width="0.5" stroke="black" fill="green"/>
  <circle cx="477.145" cy="627.434" r="5.03403" stroke-width="0.5" stroke="black" fill="green"/>
   </g>
   <g id="cell45">
  <circle cx="416.87" cy="553.595" r="8.29667" stroke-width="0.5" stroke="black" fill="green"/>
  <circle cx="416.87" cy="553.595" r="5.00279" stroke-width="0.5" stroke="black" fill="green"/>
   </g>
   <g id="cell46">
  <circle cx="517.652" cy="611.883" r="7.72056" stroke-width="0.5" stroke="black" fill="green"/>
  <circle cx="517.652" cy="611.883" r="4.69003" stroke-width="0.5" stroke="black" fill="green"/>
   </g>
   <g id="cell47">
  <circle cx="502.684" cy="510.36" r="8.41271" stroke-width="0.5" stroke="black" fill="green"/>
  <circle cx="502.684" cy="510.36" r="5.05167" stroke-width="0.5" stroke="black" fill="green"/>
   </g>
   <g id="cell48">
  <circle cx="564.572" cy="603.438" r="8.41271" stroke-width="0.5" stroke="black" fill="green"/>
  <circle cx="564.572" cy="603.438" r="5.05167" stroke-width="0.5" stroke="black" fill="green"/>
   </g>
   <g id="cell49">
  <circle cx="433.434" cy="394.686" r="6.92764" stroke-width="0.5" stroke="black" fill="green"/>
  <circle cx="433.434" cy="394.686" r="4.1918" stroke-width="0.5" stroke="black" fill="green"/>
   </g>
   <g id="cell50">
  <circle cx="517.333" cy="516.694" r="8.41271" stroke-width="0.5" stroke="black" fill="cyan"/>
  <circle cx="517.333" cy="516.694" r="5.05167" stroke-width="0.5" stroke="black" fill="cyan"/>
   </g>
   <g id="cell51">
  <circle cx="394.502" cy="599.47" r="7.08639" stroke-width="0.5" stroke="black" fill="cyan"/>
  <circle cx="394.502" cy="599.47" r="4.29876" stroke-width="0.5" stroke="black" fill="cyan"/>
   </g>
   <g id="cell120">
  <circle cx="417.745" cy="610.286" r="7.70049" stroke-width="0.5" stroke="black" fill="cyan"/>
  <circle cx="417.745" cy="610.286" r="4.67828" stroke-width="0.5" stroke="black" fill="cyan"/>
   </g>
   <g id="cell53">
  <circle cx="571.287" cy="436.002" r="8.41271" stroke-width="0.5" stroke="black" fill="cyan"/>
  <circle cx="571.287" cy="436.002" r="5.05167" stroke-width="0.5" stroke="black" fill="cyan"/>
   </g>
   <g id="cell54">
  <circle cx="476.24" cy="425.333" r="8.41271" stroke-width="0.5" stroke="black" fill="cyan"/>
  <circle cx="476.24" cy="425.333" r="5.05167" stroke-width="0.5" stroke="black" fill="cyan"/>
   </g>
   <g id="cell55">
  <circle cx="525.962" cy="471.582" r="8.41271" stroke-width="0.5" stroke="black" fill="cyan"/>
  <circle cx="525.962" cy="471.582" r="5.05167" stroke-width="0.5" stroke="black" fill="cyan"/>
   </g>
   <g id="cell56">
  <circle cx="615.793" cy="522.539" r="8.41271" stroke-width="0.5" stroke="black" fill="cyan"/>
  <circle cx="615.793" cy="522.539" r="5.05167" stroke-width="0.5" stroke="black" fill="cyan"/>
   </g>
   <g id="cell57">
  <circle cx="418.514" cy="624.796" r="7.70049" stroke-width="0.5" stroke="black" fill="cyan"/>
  <circle cx="418.514" cy="624.796" r="4.67828" stroke-width="0.5" stroke="black" fill="cyan"/>
   </g>
   <g id="cell58">
  <circle cx="553.439" cy="484.057" r="8.41271" stroke-width="0.5" stroke="black" fill="cyan"/>
  <circle cx="553.439" cy="484.057" r="5.05167" stroke-width="0.5" stroke="black" fill="cyan"/>
   </g>
   <g id="cell59">
  <circle cx="385.168" cy="439.194" r="8.41271" stroke-width="0.5" stroke="black" fill="cyan"/>
  <circle cx="385.168" cy="439.194" r="5.05167" stroke-width="0.5" stroke="black" fill="cyan"/>
   </g>
   <g id="cell60">
  <circle cx="587.597" cy="473.395" r="7.54436" stroke-width="0.5" stroke="black" fill="cyan"/>
  <circle cx="587.597" cy="473.395" r="4.58555" stroke-width="0.5" stroke="black" fill="cyan"/>
   </g>
   <g id="cell61">
  <circle cx="554.615" cy="614.999" r="4.90029" stroke-width="0.5" stroke="black" fill="cyan"/>
  <circle cx="554.615" cy="614.999" r="3.29037" stroke-width="0.5" stroke="black" fill="black"/>
   </g>
   <g id="cell62">
  <circle cx="526.636" cy="445.547" r="8.41271" stroke-width="0.5" stroke="black" fill="cyan"/>
  <circle cx="526.636" cy="445.547" r="5.05167" stroke-width="0.5" stroke="black" fill="cyan"/>
   </g>
   <g id="cell63">
  <circle cx="582.116" cy="553.393" r="8.34511" stroke-width="0.5" stroke="black" fill="cyan"/>
  <circle cx="582.116" cy="553.393" r="5.02502" stroke-width="0.5" stroke="black" fill="cyan"/>
   </g>
   <g id="cell64">
  <circle cx="513.751" cy="633.793" r="7.46878" stroke-width="0.5" stroke="black" fill="cyan"/>
  <circle cx="513.751" cy="633.793" r="4.53982" stroke-width="0.5" stroke="black" fill="cyan"/>
   </g>
   <g id="cell65">
  <circle cx="535.508" cy="458.801" r="8.34117" stroke-width="0.5" stroke="black" fill="cyan"/>
  <circle cx="535.508" cy="458.801" r="5.02327" stroke-width="0.5" stroke="black" fill="cyan"/>
   </g>
   <g id="cell66">
  <circle cx="543.795" cy="529.77" r="7.7401" stroke-width="0.5" stroke="black" fill="cyan"/>
  <circle cx="543.795" cy="529.77" r="4.70142" stroke-width="0.5" stroke="black" fill="cyan"/>
   </g>
   <g id="cell67">
  <circle cx="355.152" cy="492.182" r="8.41271" stroke-width="0.5" stroke="black" fill="cyan"/>
  <circle cx="355.152" cy="492.182" r="5.05167" stroke-width="0.5" stroke="black" fill="cyan"/>
   </g>
   <g id="cell68">
  <circle cx="558.027" cy="555.241" r="8.41271" stroke-width="0.5" stroke="black" fill="cyan"/>
  <circle cx="558.027" cy="555.241" r="5.05167" stroke-width="0.5" stroke="black" fill="cyan"/>
   </g>
   <g id="cell69">
  <circle cx="437.621" cy="451.739" r="8.39987" stroke-width="0.5" stroke="black" fill="cyan"/>
  <circle cx="437.621" cy="451.739" r="5.04751" stroke-width="0.5" stroke="black" fill="cyan"/>
   </g>
   <g id="cell70">
  <circle cx="573.344" cy="478.195" r="8.41271" stroke-width="0.5" stroke="black" fill="cyan"/>
  <circle cx="573.344" cy="478.195" r="5.05167" stroke-width="0.5" stroke="black" fill="cyan"/>
   </g>
   <g id="cell71">
  <circle cx="382.813" cy="527.577" r="6.56239" stroke-width="0.5" stroke="black" fill="cyan"/>
  <circle cx="382.813" cy="527.577" r="4.02678" stroke-width="0.5" stroke="black" fill="cyan"/>
   </g>
   <g id="cell72">
  <circle cx="535.435" cy="509.392" r="8.41271" stroke-width="0.5" stroke="black" fill="cyan"/>
  <circle cx="535.435" cy="509.392" r="5.05167" stroke-width="0.5" stroke="black" fill="cyan"/>
   </g>
   <g id="cell129">
  <circle cx="422.566" cy="402.058" r="6.92764" stroke-width="0.5" stroke="black" fill="green"/>
  <circle cx="422.566" cy="402.058" r="4.1918" stroke-width="0.5" stroke="black" fill="green"/>
   </g>
   <g id="cell74">
  <circle cx="542.633" cy="444.529" r="8.41271" stroke-width="0.5" stroke="black" fill="cyan"/>
  <circle cx="542.633" cy="444.529" r="5.05167" stroke-width="0.5" stroke="black" fill="cyan"/>
   </g>
   <g id="cell75">
  <circle cx="442.434" cy="475.23" r="7.35152" stroke-width="0.5" stroke="black" fill="cyan"/>
  <circle cx="442.434" cy="475.23" r="4.47004" stroke-width="0.5" stroke="black" fill="cyan"/>
   </g>
   <g id="cell76">
  <circle cx="524.296" cy="387.199" r="8.32584" stroke-width="0.5" stroke="black" fill="magenta"/>
  <circle cx="524.296" cy="387.199" r="5.01722" stroke-width="0.5" stroke="black" fill="magenta"/>
   </g>
   <g id="cell77">
  <circle cx="486.583" cy="436.442" r="7.9933" stroke-width="0.5" stroke="black" fill="magenta"/>
  <circle cx="486.583" cy="436.442" r="4.84679" stroke-width="0.5" stroke="black" fill="magenta"/>
   </g>
   <g id="cell78">
  <circle cx="373.581" cy="467.138" r="8.39794" stroke-width="0.5" stroke="black" fill="magenta"/>
  <circle cx="373.581" cy="467.138" r="5.04681" stroke-width="0.5" stroke="black" fill="magenta"/>
   </g>
   <g id="cell79">
  <circle cx="504.734" cy="525.816" r="8.39708" stroke-width="0.5" stroke="black" fill="magenta"/>
  <circle cx="504.734" cy="525.816" r="5.0465" stroke-width="0.5" stroke="black" fill="magenta"/>
   </g>
   <g id="cell80">
  <circle cx="606.003" cy="485.698" r="8.39618" stroke-width="0.5" stroke="black" fill="green"/>
  <circle cx="606.003" cy="485.698" r="5.04616" stroke-width="0.5" stroke="black" fill="green"/>
   </g>
   <g id="cell81">
  <circle cx="430.438" cy="500.936" r="7.0378" stroke-width="0.5" stroke="black" fill="green"/>
  <circle cx="430.438" cy="500.936" r="4.29509" stroke-width="0.5" stroke="black" fill="green"/>
   </g>
   <g id="cell82">
  <circle cx="543.124" cy="495.779" r="8.39316" stroke-width="0.5" stroke="black" fill="magenta"/>
  <circle cx="543.124" cy="495.779" r="5.04503" stroke-width="0.5" stroke="black" fill="magenta"/>
   </g>
   <g id="cell130">
  <circle cx="575.905" cy="393.125" r="6.86652" stroke-width="0.5" stroke="black" fill="magenta"/>
  <circle cx="575.905" cy="393.125" r="4.14883" stroke-width="0.5" stroke="black" fill="magenta"/>
   </g>
   <g id="cell84">
  <circle cx="407.992" cy="481.02" r="8.03501" stroke-width="0.5" stroke="black" fill="green"/>
  <circle cx="407.992" cy="481.02" r="4.87159" stroke-width="0.5" stroke="black" fill="green"/>
   </g>
   <g id="cell85">
  <circle cx="405.579" cy="447.367" r="1.75072" stroke-width="0.5" stroke="black" fill="green"/>
  <circle cx="405.579" cy="447.367" r="1.69891" stroke-width="0.5" stroke="black" fill="black"/>
   </g>
   <g id="cell86">
  <circle cx="392.94" cy="565.707" r="8.06291" stroke-width="0.5" stroke="black" fill="magenta"/>
  <circle cx="392.94" cy="565.707" r="4.88681" stroke-width="0.5" stroke="black" fill="magenta"/>
   </g>
   <g id="cell87">
  <circle cx="438.119" cy="527.458" r="7.80399" stroke-width="0.5" stroke="black" fill="green"/>
  <circle cx="438.119" cy="527.458" r="4.74333" stroke-width="0.5" stroke="black" fill="green"/>
   </g>
   <g id="cell88">
  <circle cx="476.413" cy="611.519" r="8.36592" stroke-width="0.5" stroke="black" fill="green"/>
  <circle cx="476.413" cy="611.519" r="5.03403" stroke-width="0.5" stroke="black" fill="green"/>
   </g>
   <g id="cell89">
  <circle cx="436.168" cy="488.135" r="8.24928" stroke-width="0.5" stroke="black" fill="green"/>
  <circle cx="436.168" cy="488.135" r="4.98325" stroke-width="0.5" stroke="black" fill="green"/>
   </g>
   <g id="cell90">
  <circle cx="583.57" cy="502.796" r="8.36178" stroke-width="0.5" stroke="black" fill="magenta"/>
  <circle cx="583.57" cy="502.796" r="5.03227" stroke-width="0.5" stroke="black" fill="magenta"/>
   </g>
   <g id="cell91">
  <circle cx="455.908" cy="598.787" r="1.43886" stroke-width="0.5" stroke="black" fill="magenta"/>
  <circle cx="455.908" cy="598.787" r="1.42238" stroke-width="0.5" stroke="black" fill="black"/>
   </g>
   <g id="cell92">
  <circle cx="553.615" cy="592.35" r="8.0164" stroke-width="0.5" stroke="black" fill="green"/>
  <circle cx="553.615" cy="592.35" r="4.86886" stroke-width="0.5" stroke="black" fill="green"/>
   </g>
   <g id="cell93">
  <circle cx="574.071" cy="527.039" r="6.58786" stroke-width="0.5" stroke="black" fill="cyan"/>
  <circle cx="574.071" cy="527.039" r="3.98267" stroke-width="0.5" stroke="black" fill="cyan"/>
   </g>
   <g id="cell94">
  <circle cx="547.498" cy="469.221" r="8.34117" stroke-width="0.5" stroke="black" fill="cyan"/>
  <circle cx="547.498" cy="469.221" r="5.02327" stroke-width="0.5" stroke="black" fill="cyan"/>
   </g>
   <g id="cell95">
  <circle cx="462.566" cy="535.292" r="8.34117" stroke-width="0.5" stroke="black" fill="magenta"/>
  <circle cx="462.566" cy="535.292" r="5.02327" stroke-width="0.5" stroke="black" fill="magenta"/>
   </g>
   <g id="cell96">
  <circle cx="535.029" cy="376.742" r="8.32584" stroke-width="0.5" stroke="black" fill="magenta"/>
  <circle cx="535.029" cy="376.742" r="5.01722" stroke-width="0.5" stroke="black" fill="magenta"/>
   </g>
   <g id="cell97">
  <circle cx="569.561" cy="508.265" r="8.31294" stroke-width="0.5" stroke="black" fill="magenta"/>
  <circle cx="569.561" cy="508.265" r="5.01162" stroke-width="0.5" stroke="black" fill="magenta"/>
   </g>
   <g id="cell98">
  <circle cx="408.088" cy="566.784" r="8.29667" stroke-width="0.5" stroke="black" fill="green"/>
  <circle cx="408.088" cy="566.784" r="5.00279" stroke-width="0.5" stroke="black" fill="green"/>
   </g>
   <g id="cell99">
  <circle cx="571.748" cy="493.518" r="8.29667" stroke-width="0.5" stroke="black" fill="magenta"/>
  <circle cx="571.748" cy="493.518" r="5.00279" stroke-width="0.5" stroke="black" fill="magenta"/>
   </g>
   <g id="cell100">
  <circle cx="569.624" cy="543.956" r="8.25518" stroke-width="0.5" stroke="black" fill="cyan"/>
  <circle cx="569.624" cy="543.956" r="4.98585" stroke-width="0.5" stroke="black" fill="cyan"/>
   </g>
   <g id="cell101">
  <circle cx="462.025" cy="629.142" r="8.07898" stroke-width="0.5" stroke="black" fill="magenta"/>
  <circle cx="462.025" cy="629.142" r="4.89863" stroke-width="0.5" stroke="black" fill="magenta"/>
   </g>
   <g id="cell102">
  <circle cx="445.34" cy="500.781" r="8.24928" stroke-width="0.5" stroke="black" fill="green"/>
  <circle cx="445.34" cy="500.781" r="4.98325" stroke-width="0.5" stroke="black" fill="green"/>
   </g>
   <g id="cell103">
  <circle cx="543.744" cy="604.243" r="8.21412" stroke-width="0.5" stroke="black" fill="green"/>
  <circle cx="543.744" cy="604.243" r="4.96595" stroke-width="0.5" stroke="black" fill="green"/>
   </g>
   <g id="cell104">
  <circle cx="554.634" cy="539.953" r="8.23444" stroke-width="0.5" stroke="black" fill="green"/>
  <circle cx="554.634" cy="539.953" r="4.97252" stroke-width="0.5" stroke="black" fill="green"/>
   </g>
   <g id="cell105">
  <circle cx="416.78" cy="493.864" r="8.20304" stroke-width="0.5" stroke="black" fill="green"/>
  <circle cx="416.78" cy="493.864" r="4.95831" stroke-width="0.5" stroke="black" fill="green"/>
   </g>
   <g id="cell106">
  <circle cx="639.19" cy="537.307" r="8.21273" stroke-width="0.5" stroke="black" fill="green"/>
  <circle cx="639.19" cy="537.307" r="4.96162" stroke-width="0.5" stroke="black" fill="green"/>
   </g>
   <g id="cell107">
  <circle cx="383.225" cy="513.658" r="8.15353" stroke-width="0.5" stroke="black" fill="cyan"/>
  <circle cx="383.225" cy="513.658" r="4.93122" stroke-width="0.5" stroke="black" fill="cyan"/>
   </g>
   <g id="cell108">
  <circle cx="459.392" cy="643.404" r="8.07898" stroke-width="0.5" stroke="black" fill="magenta"/>
  <circle cx="459.392" cy="643.404" r="4.89863" stroke-width="0.5" stroke="black" fill="magenta"/>
   </g>
   <g id="cell109">
  <circle cx="448.316" cy="633.965" r="8.07898" stroke-width="0.5" stroke="black" fill="magenta"/>
  <circle cx="448.316" cy="633.965" r="4.89863" stroke-width="0.5" stroke="black" fill="magenta"/>
   </g>
   <g id="cell110">
  <circle cx="538.704" cy="589.55" r="8.0164" stroke-width="0.5" stroke="black" fill="green"/>
  <circle cx="538.704" cy="589.55" r="4.86886" stroke-width="0.5" stroke="black" fill="green"/>
   </g>
   <g id="cell111">
  <circle cx="634.371" cy="551.966" r="8.01566" stroke-width="0.5" stroke="black" fill="green"/>
  <circle cx="634.371" cy="551.966" r="4.86665" stroke-width="0.5" stroke="black" fill="green"/>
   </g>
   <g id="cell112">
  <circle cx="382.401" cy="575.645" r="8.06291" stroke-width="0.5" stroke="black" fill="magenta"/>
  <circle cx="382.401" cy="575.645" r="4.88681" stroke-width="0.5" stroke="black" fill="magenta"/>
   </g>
   <g id="cell113">
  <circle cx="423.183" cy="479.815" r="8.03501" stroke-width="0.5" stroke="black" fill="green"/>
  <circle cx="423.183" cy="479.815" r="4.87159" stroke-width="0.5" stroke="black" fill="green"/>
   </g>
   <g id="cell114">
  <circle cx="494.356" cy="446.639" r="6.34428" stroke-width="0.5" stroke="black" fill="magenta"/>
  <circle cx="494.356" cy="446.639" r="3.8469" stroke-width="0.5" stroke="black" fill="magenta"/>
   </g>
   <g id="cell115">
  <circle cx="452.585" cy="524.091" r="7.92504" stroke-width="0.5" stroke="black" fill="green"/>
  <circle cx="452.585" cy="524.091" r="4.81165" stroke-width="0.5" stroke="black" fill="green"/>
   </g>
   <g id="cell116">
  <circle cx="369.055" cy="518.986" r="7.76372" stroke-width="0.5" stroke="black" fill="cyan"/>
  <circle cx="369.055" cy="518.986" r="4.73024" stroke-width="0.5" stroke="black" fill="cyan"/>
   </g>
   <g id="cell117">
  <circle cx="436.807" cy="513.148" r="7.80399" stroke-width="0.5" stroke="black" fill="green"/>
  <circle cx="436.807" cy="513.148" r="4.74333" stroke-width="0.5" stroke="black" fill="green"/>
   </g>
   <g id="cell118">
  <circle cx="530.606" cy="524.011" r="7.7401" stroke-width="0.5" stroke="black" fill="cyan"/>
  <circle cx="530.606" cy="524.011" r="4.70142" stroke-width="0.5" stroke="black" fill="cyan"/>
   </g>
   <g id="cell119">
  <circle cx="524.764" cy="624.617" r="7.72056" stroke-width="0.5" stroke="black" fill="green"/>
  <circle cx="524.764" cy="624.617" r="4.69003" stroke-width="0.5" stroke="black" fill="green"/>
   </g>
   <g id="cell121">
  <circle cx="388.573" cy="552.272" r="7.5885" stroke-width="0.5" stroke="black" fill="magenta"/>
  <circle cx="388.573" cy="552.272" r="4.61748" stroke-width="0.5" stroke="black" fill="magenta"/>
   </g>
   <g id="cell122">
  <circle cx="601.662" cy="471.201" r="7.54436" stroke-width="0.5" stroke="black" fill="cyan"/>
  <circle cx="601.662" cy="471.201" r="4.58555" stroke-width="0.5" stroke="black" fill="cyan"/>
   </g>
   <g id="cell123">
  <circle cx="502.726" cy="642.585" r="7.46878" stroke-width="0.5" stroke="black" fill="cyan"/>
  <circle cx="502.726" cy="642.585" r="4.53982" stroke-width="0.5" stroke="black" fill="cyan"/>
   </g>
   <g id="cell124">
  <circle cx="385.47" cy="589.4" r="7.44242" stroke-width="0.5" stroke="black" fill="green"/>
  <circle cx="385.47" cy="589.4" r="4.52373" stroke-width="0.5" stroke="black" fill="green"/>
   </g>
   <g id="cell125">
  <circle cx="447.679" cy="462.65" r="7.35152" stroke-width="0.5" stroke="black" fill="cyan"/>
  <circle cx="447.679" cy="462.65" r="4.47004" stroke-width="0.5" stroke="black" fill="cyan"/>
   </g>
   <g id="cell126">
  <circle cx="419.411" cy="508.104" r="7.0378" stroke-width="0.5" stroke="black" fill="green"/>
  <circle cx="419.411" cy="508.104" r="4.29509" stroke-width="0.5" stroke="black" fill="green"/>
   </g>
   <g id="cell127">
  <circle cx="407.679" cy="600.751" r="7.08639" stroke-width="0.5" stroke="black" fill="cyan"/>
  <circle cx="407.679" cy="600.751" r="4.29876" stroke-width="0.5" stroke="black" fill="cyan"/>
   </g>
   <g id="cell128">
  <circle cx="371.427" cy="532.534" r="6.56239" stroke-width="0.5" stroke="black" fill="cyan"/>
  <circle cx="371.427" cy="532.534" r="4.02678" stroke-width="0.5" stroke="black" fill="cyan"/>
   </g>
   <g id="cell131">
  <circle cx="582.091" cy="536.591" r="6.58786" stroke-width="0.5" stroke="black" fill="cyan"/>
  <circle cx="582.091" cy="536.591" r="3.98267" stroke-width="0.5" stroke="black" fill="cyan"/>
   </g>
   <g id="cell132">
  <circle cx="504.891" cy="442.563" r="6.34428" stroke-width="0.5" stroke="black" fill="magenta"/>
  <circle cx="504.891" cy="442.563" r="3.8469" stroke-width="0.5" stroke="black" fill="magenta"/>
   </g>
  </g>
 </g>
  <rect x="775" y="1035" width="200" height="10" stroke-width="2" stroke="rgb(255,255,255)" fill="rgb(0,0,0)"/>
  <text x="781.25" y="1028.75"
   font-family="Arial" font-size="25" fill="black" >
   200 &#956;m
  </text>
  <text x="25" y="1045"
   font-family="Arial" font-size="18.75" fill="black" >
   0 days, 0 hours, 0 minutes, and 24.0176 seconds
  </text>
  <rect x="0" y="70" width="1000" height="1000" stroke-width="2" stroke="rgb(0,0,0)" fill="none"/>
</svg>
