<?xml version="1.0" encoding="UTF-8" standalone="no"?>
<!-- Created with PhysiCell (http://PhysiCell.MathCancer.org/) -->
<svg 
 xmlns:dc="http://purl.org/dc/elements/1.1/" 
 xmlns:cc="http://creativecommons.org/ns#" 
 xmlns:rdf="http://www.w3.org/1999/02/22-rdf-syntax-ns#" 
 xmlns:svg="http://www.w3.org/2000/svg" 
 xmlns="http://www.w3.org/2000/svg" 
 version="1.1" 
 width="1000" 
 height="1070" 
 id="svg2">
  <rect x="0" y="0" width="1000" height="1070" stroke-width="2" stroke="white" fill="white"/>
  <text x="12.5" y="30"
   font-family="Arial" font-size="25" fill="black" >
   Current time: 1 days, 10 hours, and 30.00 minutes, z = 0.00 &#956;m
  </text>
  <text x="12.5" y="57.5"
   font-family="Arial" font-size="23.75" fill="black" >
   187 agents
  </text>
 <g id="tissue" 
    transform="translate(0,1070) scale(1,-1)">
  <g id="ECM">
  </g>
  <g id="cells">
   <g id="cell0">
  <circle cx="511.097" cy="534.217" r="8.41255" stroke-width="0.5" stroke="black" fill="magenta"/>
  <circle cx="511.097" cy="534.217" r="5.05164" stroke-width="0.5" stroke="black" fill="magenta"/>
   </g>
   <g id="cell147">
  <circle cx="422.13" cy="575.727" r="8.32967" stroke-width="0.5" stroke="black" fill="green"/>
  <circle cx="422.13" cy="575.727" r="5.01822" stroke-width="0.5" stroke="black" fill="green"/>
   </g>
   <g id="cell2">
  <circle cx="503.126" cy="593.51" r="8.39021" stroke-width="0.5" stroke="black" fill="magenta"/>
  <circle cx="503.126" cy="593.51" r="5.0439" stroke-width="0.5" stroke="black" fill="magenta"/>
   </g>
   <g id="cell3">
  <circle cx="538.876" cy="546.135" r="8.38291" stroke-width="0.5" stroke="black" fill="magenta"/>
  <circle cx="538.876" cy="546.135" r="5.04103" stroke-width="0.5" stroke="black" fill="magenta"/>
   </g>
   <g id="cell4">
  <circle cx="453.661" cy="436.636" r="8.41257" stroke-width="0.5" stroke="black" fill="magenta"/>
  <circle cx="453.661" cy="436.636" r="5.05164" stroke-width="0.5" stroke="black" fill="magenta"/>
   </g>
   <g id="cell5">
  <circle cx="461.224" cy="494.085" r="8.34317" stroke-width="0.5" stroke="black" fill="magenta"/>
  <circle cx="461.224" cy="494.085" r="5.02416" stroke-width="0.5" stroke="black" fill="magenta"/>
   </g>
   <g id="cell6">
  <circle cx="596.403" cy="516.006" r="8.4122" stroke-width="0.5" stroke="black" fill="magenta"/>
  <circle cx="596.403" cy="516.006" r="5.05155" stroke-width="0.5" stroke="black" fill="magenta"/>
   </g>
   <g id="cell7">
  <circle cx="513.1" cy="464.317" r="8.41271" stroke-width="0.5" stroke="black" fill="magenta"/>
  <circle cx="513.1" cy="464.317" r="5.05167" stroke-width="0.5" stroke="black" fill="magenta"/>
   </g>
   <g id="cell8">
  <circle cx="364.887" cy="549.186" r="8.347" stroke-width="0.5" stroke="black" fill="magenta"/>
  <circle cx="364.887" cy="549.186" r="5.02586" stroke-width="0.5" stroke="black" fill="magenta"/>
   </g>
   <g id="cell9">
  <circle cx="462.708" cy="601.841" r="8.41217" stroke-width="0.5" stroke="black" fill="magenta"/>
  <circle cx="462.708" cy="601.841" r="5.05154" stroke-width="0.5" stroke="black" fill="magenta"/>
   </g>
   <g id="cell10">
  <circle cx="588.247" cy="396.796" r="8.34798" stroke-width="0.5" stroke="black" fill="magenta"/>
  <circle cx="588.247" cy="396.796" r="5.0271" stroke-width="0.5" stroke="black" fill="magenta"/>
   </g>
   <g id="cell11">
  <circle cx="589.748" cy="590.273" r="8.41271" stroke-width="0.5" stroke="black" fill="magenta"/>
  <circle cx="589.748" cy="590.273" r="5.05167" stroke-width="0.5" stroke="black" fill="magenta"/>
   </g>
   <g id="cell12">
  <circle cx="495.447" cy="580.553" r="8.41271" stroke-width="0.5" stroke="black" fill="magenta"/>
  <circle cx="495.447" cy="580.553" r="5.05167" stroke-width="0.5" stroke="black" fill="magenta"/>
   </g>
   <g id="cell13">
  <circle cx="377.591" cy="558.354" r="8.40515" stroke-width="0.5" stroke="black" fill="magenta"/>
  <circle cx="377.591" cy="558.354" r="5.04939" stroke-width="0.5" stroke="black" fill="magenta"/>
   </g>
   <g id="cell14">
  <circle cx="529.39" cy="395.211" r="8.10216" stroke-width="0.5" stroke="black" fill="magenta"/>
  <circle cx="529.39" cy="395.211" r="4.90619" stroke-width="0.5" stroke="black" fill="magenta"/>
   </g>
   <g id="cell15">
  <circle cx="388.866" cy="489.009" r="8.20543" stroke-width="0.5" stroke="black" fill="magenta"/>
  <circle cx="388.866" cy="489.009" r="4.96047" stroke-width="0.5" stroke="black" fill="magenta"/>
   </g>
   <g id="cell16">
  <circle cx="428.981" cy="415.264" r="8.41271" stroke-width="0.5" stroke="black" fill="magenta"/>
  <circle cx="428.981" cy="415.264" r="5.05167" stroke-width="0.5" stroke="black" fill="magenta"/>
   </g>
   <g id="cell17">
  <circle cx="580.109" cy="484.134" r="8.41157" stroke-width="0.5" stroke="black" fill="magenta"/>
  <circle cx="580.109" cy="484.134" r="5.05138" stroke-width="0.5" stroke="black" fill="magenta"/>
   </g>
   <g id="cell18">
  <circle cx="514.191" cy="393.796" r="8.41257" stroke-width="0.5" stroke="black" fill="magenta"/>
  <circle cx="514.191" cy="393.796" r="5.05164" stroke-width="0.5" stroke="black" fill="magenta"/>
   </g>
   <g id="cell19">
  <circle cx="453.331" cy="541.411" r="8.412" stroke-width="0.5" stroke="black" fill="magenta"/>
  <circle cx="453.331" cy="541.411" r="5.0515" stroke-width="0.5" stroke="black" fill="magenta"/>
   </g>
   <g id="cell20">
  <circle cx="525.676" cy="420.982" r="8.41271" stroke-width="0.5" stroke="black" fill="magenta"/>
  <circle cx="525.676" cy="420.982" r="5.05167" stroke-width="0.5" stroke="black" fill="magenta"/>
   </g>
   <g id="cell141">
  <circle cx="494.212" cy="441.824" r="7.49579" stroke-width="0.5" stroke="black" fill="magenta"/>
  <circle cx="494.212" cy="441.824" r="4.58153" stroke-width="0.5" stroke="black" fill="magenta"/>
   </g>
   <g id="cell22">
  <circle cx="560.192" cy="496.747" r="8.41172" stroke-width="0.5" stroke="black" fill="magenta"/>
  <circle cx="560.192" cy="496.747" r="5.05143" stroke-width="0.5" stroke="black" fill="magenta"/>
   </g>
   <g id="cell23">
  <circle cx="535.329" cy="485.319" r="8.41271" stroke-width="0.5" stroke="black" fill="magenta"/>
  <circle cx="535.329" cy="485.319" r="5.05167" stroke-width="0.5" stroke="black" fill="magenta"/>
   </g>
   <g id="cell24">
  <circle cx="563.154" cy="381.683" r="8.41271" stroke-width="0.5" stroke="black" fill="magenta"/>
  <circle cx="563.154" cy="381.683" r="5.05167" stroke-width="0.5" stroke="black" fill="magenta"/>
   </g>
   <g id="cell25">
  <circle cx="653.532" cy="564.511" r="8.2807" stroke-width="0.5" stroke="black" fill="green"/>
  <circle cx="653.532" cy="564.511" r="4.99557" stroke-width="0.5" stroke="black" fill="green"/>
   </g>
   <g id="cell26">
  <circle cx="548.713" cy="401.746" r="8.41271" stroke-width="0.5" stroke="black" fill="green"/>
  <circle cx="548.713" cy="401.746" r="5.05167" stroke-width="0.5" stroke="black" fill="green"/>
   </g>
   <g id="cell27">
  <circle cx="452.168" cy="389.549" r="4.48715" stroke-width="0.5" stroke="black" fill="green"/>
  <circle cx="452.168" cy="389.549" r="3.09179" stroke-width="0.5" stroke="black" fill="black"/>
   </g>
   <g id="cell28">
  <circle cx="441.18" cy="550.821" r="8.41271" stroke-width="0.5" stroke="black" fill="green"/>
  <circle cx="441.18" cy="550.821" r="5.05167" stroke-width="0.5" stroke="black" fill="green"/>
   </g>
   <g id="cell29">
  <circle cx="466.621" cy="518.162" r="8.40816" stroke-width="0.5" stroke="black" fill="green"/>
  <circle cx="466.621" cy="518.162" r="5.05038" stroke-width="0.5" stroke="black" fill="green"/>
   </g>
   <g id="cell30">
  <circle cx="480.44" cy="539.904" r="8.41271" stroke-width="0.5" stroke="black" fill="green"/>
  <circle cx="480.44" cy="539.904" r="5.05167" stroke-width="0.5" stroke="black" fill="green"/>
   </g>
   <g id="cell31">
  <circle cx="408.586" cy="530.857" r="7.38797" stroke-width="0.5" stroke="black" fill="green"/>
  <circle cx="408.586" cy="530.857" r="4.49029" stroke-width="0.5" stroke="black" fill="green"/>
   </g>
   <g id="cell32">
  <circle cx="425.222" cy="455.162" r="8.21252" stroke-width="0.5" stroke="black" fill="green"/>
  <circle cx="425.222" cy="455.162" r="4.96157" stroke-width="0.5" stroke="black" fill="green"/>
   </g>
   <g id="cell33">
  <circle cx="498.312" cy="414.074" r="8.41236" stroke-width="0.5" stroke="black" fill="green"/>
  <circle cx="498.312" cy="414.074" r="5.05159" stroke-width="0.5" stroke="black" fill="green"/>
   </g>
   <g id="cell34">
  <circle cx="391.895" cy="454.485" r="8.41228" stroke-width="0.5" stroke="black" fill="green"/>
  <circle cx="391.895" cy="454.485" r="5.05157" stroke-width="0.5" stroke="black" fill="green"/>
   </g>
   <g id="cell35">
  <circle cx="547.863" cy="558.369" r="8.41098" stroke-width="0.5" stroke="black" fill="green"/>
  <circle cx="547.863" cy="558.369" r="5.05122" stroke-width="0.5" stroke="black" fill="green"/>
   </g>
   <g id="cell36">
  <circle cx="392.498" cy="581.135" r="8.40378" stroke-width="0.5" stroke="black" fill="green"/>
  <circle cx="392.498" cy="581.135" r="5.0489" stroke-width="0.5" stroke="black" fill="green"/>
   </g>
   <g id="cell174">
  <circle cx="477.929" cy="617.554" r="7.98865" stroke-width="0.5" stroke="black" fill="green"/>
  <circle cx="477.929" cy="617.554" r="4.84266" stroke-width="0.5" stroke="black" fill="green"/>
   </g>
   <g id="cell38">
  <circle cx="525.963" cy="606.41" r="8.41204" stroke-width="0.5" stroke="black" fill="green"/>
  <circle cx="525.963" cy="606.41" r="5.05151" stroke-width="0.5" stroke="black" fill="green"/>
   </g>
   <g id="cell39">
  <circle cx="617.554" cy="498.824" r="8.06658" stroke-width="0.5" stroke="black" fill="green"/>
  <circle cx="617.554" cy="498.824" r="4.88512" stroke-width="0.5" stroke="black" fill="green"/>
   </g>
   <g id="cell40">
  <circle cx="483.708" cy="570.361" r="8.41271" stroke-width="0.5" stroke="black" fill="green"/>
  <circle cx="483.708" cy="570.361" r="5.05167" stroke-width="0.5" stroke="black" fill="green"/>
   </g>
   <g id="cell41">
  <circle cx="363.01" cy="479.219" r="8.41271" stroke-width="0.5" stroke="black" fill="green"/>
  <circle cx="363.01" cy="479.219" r="5.05167" stroke-width="0.5" stroke="black" fill="green"/>
   </g>
   <g id="cell176">
  <circle cx="467.947" cy="446.8" r="7.61454" stroke-width="0.5" stroke="black" fill="magenta"/>
  <circle cx="467.947" cy="446.8" r="4.65001" stroke-width="0.5" stroke="black" fill="magenta"/>
   </g>
   <g id="cell43">
  <circle cx="558.191" cy="445.615" r="8.41271" stroke-width="0.5" stroke="black" fill="green"/>
  <circle cx="558.191" cy="445.615" r="5.05167" stroke-width="0.5" stroke="black" fill="green"/>
   </g>
   <g id="cell44">
  <circle cx="488.104" cy="629.223" r="8.29643" stroke-width="0.5" stroke="black" fill="green"/>
  <circle cx="488.104" cy="629.223" r="5.00274" stroke-width="0.5" stroke="black" fill="green"/>
   </g>
   <g id="cell45">
  <circle cx="432.499" cy="563.639" r="7.97749" stroke-width="0.5" stroke="black" fill="green"/>
  <circle cx="432.499" cy="563.639" r="4.85079" stroke-width="0.5" stroke="black" fill="green"/>
   </g>
   <g id="cell46">
  <circle cx="520.9" cy="621.293" r="8.36399" stroke-width="0.5" stroke="black" fill="green"/>
  <circle cx="520.9" cy="621.293" r="5.03361" stroke-width="0.5" stroke="black" fill="green"/>
   </g>
   <g id="cell47">
  <circle cx="494.745" cy="510.978" r="8.41271" stroke-width="0.5" stroke="black" fill="green"/>
  <circle cx="494.745" cy="510.978" r="5.05167" stroke-width="0.5" stroke="black" fill="green"/>
   </g>
   <g id="cell48">
  <circle cx="565.973" cy="605.993" r="8.41271" stroke-width="0.5" stroke="black" fill="green"/>
  <circle cx="565.973" cy="605.993" r="5.05167" stroke-width="0.5" stroke="black" fill="green"/>
   </g>
   <g id="cell49">
  <circle cx="439.055" cy="389.727" r="7.20212" stroke-width="0.5" stroke="black" fill="green"/>
  <circle cx="439.055" cy="389.727" r="4.37652" stroke-width="0.5" stroke="black" fill="green"/>
   </g>
   <g id="cell50">
  <circle cx="508.144" cy="494.156" r="6.6127" stroke-width="0.5" stroke="black" fill="cyan"/>
  <circle cx="508.144" cy="494.156" r="4.04498" stroke-width="0.5" stroke="black" fill="cyan"/>
   </g>
   <g id="cell51">
  <circle cx="385.09" cy="604.13" r="8.31127" stroke-width="0.5" stroke="black" fill="cyan"/>
  <circle cx="385.09" cy="604.13" r="5.01053" stroke-width="0.5" stroke="black" fill="cyan"/>
   </g>
   <g id="cell120">
  <circle cx="419.323" cy="610.597" r="8.40614" stroke-width="0.5" stroke="black" fill="cyan"/>
  <circle cx="419.323" cy="610.597" r="5.0497" stroke-width="0.5" stroke="black" fill="cyan"/>
   </g>
   <g id="cell53">
  <circle cx="571.109" cy="436.134" r="8.41271" stroke-width="0.5" stroke="black" fill="cyan"/>
  <circle cx="571.109" cy="436.134" r="5.05167" stroke-width="0.5" stroke="black" fill="cyan"/>
   </g>
   <g id="cell54">
  <circle cx="486.492" cy="424.62" r="8.33026" stroke-width="0.5" stroke="black" fill="cyan"/>
  <circle cx="486.492" cy="424.62" r="5.01837" stroke-width="0.5" stroke="black" fill="cyan"/>
   </g>
   <g id="cell55">
  <circle cx="521.196" cy="478.056" r="8.41271" stroke-width="0.5" stroke="black" fill="cyan"/>
  <circle cx="521.196" cy="478.056" r="5.05167" stroke-width="0.5" stroke="black" fill="cyan"/>
   </g>
   <g id="cell56">
  <circle cx="620.025" cy="519.973" r="6.57285" stroke-width="0.5" stroke="black" fill="cyan"/>
  <circle cx="620.025" cy="519.973" r="4.03443" stroke-width="0.5" stroke="black" fill="cyan"/>
   </g>
   <g id="cell57">
  <circle cx="418.485" cy="626.585" r="8.40614" stroke-width="0.5" stroke="black" fill="cyan"/>
  <circle cx="418.485" cy="626.585" r="5.0497" stroke-width="0.5" stroke="black" fill="cyan"/>
   </g>
   <g id="cell58">
  <circle cx="550.573" cy="484.079" r="8.41271" stroke-width="0.5" stroke="black" fill="cyan"/>
  <circle cx="550.573" cy="484.079" r="5.05167" stroke-width="0.5" stroke="black" fill="cyan"/>
   </g>
   <g id="cell59">
  <circle cx="385.424" cy="439.753" r="8.41271" stroke-width="0.5" stroke="black" fill="cyan"/>
  <circle cx="385.424" cy="439.753" r="5.05167" stroke-width="0.5" stroke="black" fill="cyan"/>
   </g>
   <g id="cell60">
  <circle cx="600.522" cy="471.56" r="7.08077" stroke-width="0.5" stroke="black" fill="cyan"/>
  <circle cx="600.522" cy="471.56" r="4.29691" stroke-width="0.5" stroke="black" fill="cyan"/>
   </g>
   <g id="cell155">
  <circle cx="518.084" cy="593.258" r="8.22024" stroke-width="0.5" stroke="black" fill="magenta"/>
  <circle cx="518.084" cy="593.258" r="4.97002" stroke-width="0.5" stroke="black" fill="magenta"/>
   </g>
   <g id="cell62">
  <circle cx="525.115" cy="436.548" r="8.41271" stroke-width="0.5" stroke="black" fill="cyan"/>
  <circle cx="525.115" cy="436.548" r="5.05167" stroke-width="0.5" stroke="black" fill="cyan"/>
   </g>
   <g id="cell63">
  <circle cx="581.352" cy="552.024" r="8.41204" stroke-width="0.5" stroke="black" fill="cyan"/>
  <circle cx="581.352" cy="552.024" r="5.05151" stroke-width="0.5" stroke="black" fill="cyan"/>
   </g>
   <g id="cell64">
  <circle cx="511.136" cy="633.811" r="8.40403" stroke-width="0.5" stroke="black" fill="cyan"/>
  <circle cx="511.136" cy="633.811" r="5.04898" stroke-width="0.5" stroke="black" fill="cyan"/>
   </g>
   <g id="cell65">
  <circle cx="533.642" cy="449.736" r="8.17464" stroke-width="0.5" stroke="black" fill="cyan"/>
  <circle cx="533.642" cy="449.736" r="4.94227" stroke-width="0.5" stroke="black" fill="cyan"/>
   </g>
   <g id="cell66">
  <circle cx="550.082" cy="523.298" r="8.4065" stroke-width="0.5" stroke="black" fill="cyan"/>
  <circle cx="550.082" cy="523.298" r="5.04982" stroke-width="0.5" stroke="black" fill="cyan"/>
   </g>
   <g id="cell67">
  <circle cx="354.581" cy="492.85" r="8.41271" stroke-width="0.5" stroke="black" fill="cyan"/>
  <circle cx="354.581" cy="492.85" r="5.05167" stroke-width="0.5" stroke="black" fill="cyan"/>
   </g>
   <g id="cell68">
  <circle cx="563.01" cy="554.352" r="8.41271" stroke-width="0.5" stroke="black" fill="cyan"/>
  <circle cx="563.01" cy="554.352" r="5.05167" stroke-width="0.5" stroke="black" fill="cyan"/>
   </g>
   <g id="cell69">
  <circle cx="439.452" cy="444.294" r="8.41258" stroke-width="0.5" stroke="black" fill="cyan"/>
  <circle cx="439.452" cy="444.294" r="5.05164" stroke-width="0.5" stroke="black" fill="cyan"/>
   </g>
   <g id="cell70">
  <circle cx="573.432" cy="468.912" r="8.38753" stroke-width="0.5" stroke="black" fill="cyan"/>
  <circle cx="573.432" cy="468.912" r="5.04286" stroke-width="0.5" stroke="black" fill="cyan"/>
   </g>
   <g id="cell71">
  <circle cx="381.37" cy="528.331" r="8.2705" stroke-width="0.5" stroke="black" fill="cyan"/>
  <circle cx="381.37" cy="528.331" r="4.99161" stroke-width="0.5" stroke="black" fill="cyan"/>
   </g>
   <g id="cell72">
  <circle cx="538.803" cy="512.259" r="8.41271" stroke-width="0.5" stroke="black" fill="cyan"/>
  <circle cx="538.803" cy="512.259" r="5.05167" stroke-width="0.5" stroke="black" fill="cyan"/>
   </g>
   <g id="cell129">
  <circle cx="417.667" cy="404.177" r="8.39834" stroke-width="0.5" stroke="black" fill="green"/>
  <circle cx="417.667" cy="404.177" r="5.04696" stroke-width="0.5" stroke="black" fill="green"/>
   </g>
   <g id="cell74">
  <circle cx="542.555" cy="442.918" r="1.92875" stroke-width="0.5" stroke="black" fill="cyan"/>
  <circle cx="542.555" cy="442.918" r="1.8429" stroke-width="0.5" stroke="black" fill="black"/>
   </g>
   <g id="cell75">
  <circle cx="442.205" cy="480.43" r="6.88306" stroke-width="0.5" stroke="black" fill="cyan"/>
  <circle cx="442.205" cy="480.43" r="4.23412" stroke-width="0.5" stroke="black" fill="cyan"/>
   </g>
   <g id="cell76">
  <circle cx="512.784" cy="374.803" r="7.41492" stroke-width="0.5" stroke="black" fill="magenta"/>
  <circle cx="512.784" cy="374.803" r="4.50708" stroke-width="0.5" stroke="black" fill="magenta"/>
   </g>
   <g id="cell77">
  <circle cx="501.042" cy="429.297" r="8.35527" stroke-width="0.5" stroke="black" fill="magenta"/>
  <circle cx="501.042" cy="429.297" r="5.02977" stroke-width="0.5" stroke="black" fill="magenta"/>
   </g>
   <g id="cell78">
  <circle cx="370.69" cy="465.587" r="8.41256" stroke-width="0.5" stroke="black" fill="magenta"/>
  <circle cx="370.69" cy="465.587" r="5.05164" stroke-width="0.5" stroke="black" fill="magenta"/>
   </g>
   <g id="cell79">
  <circle cx="497.756" cy="526.471" r="8.41255" stroke-width="0.5" stroke="black" fill="magenta"/>
  <circle cx="497.756" cy="526.471" r="5.05164" stroke-width="0.5" stroke="black" fill="magenta"/>
   </g>
   <g id="cell80">
  <circle cx="604.407" cy="485.667" r="8.12171" stroke-width="0.5" stroke="black" fill="green"/>
  <circle cx="604.407" cy="485.667" r="4.91455" stroke-width="0.5" stroke="black" fill="green"/>
   </g>
   <g id="cell81">
  <circle cx="429.318" cy="504.985" r="8.40021" stroke-width="0.5" stroke="black" fill="green"/>
  <circle cx="429.318" cy="504.985" r="5.04773" stroke-width="0.5" stroke="black" fill="green"/>
   </g>
   <g id="cell82">
  <circle cx="544.652" cy="497.907" r="8.41251" stroke-width="0.5" stroke="black" fill="magenta"/>
  <circle cx="544.652" cy="497.907" r="5.05163" stroke-width="0.5" stroke="black" fill="magenta"/>
   </g>
   <g id="cell130">
  <circle cx="573.886" cy="392.281" r="8.39752" stroke-width="0.5" stroke="black" fill="magenta"/>
  <circle cx="573.886" cy="392.281" r="5.04666" stroke-width="0.5" stroke="black" fill="magenta"/>
   </g>
   <g id="cell84">
  <circle cx="403.669" cy="485.685" r="8.40914" stroke-width="0.5" stroke="black" fill="green"/>
  <circle cx="403.669" cy="485.685" r="5.05068" stroke-width="0.5" stroke="black" fill="green"/>
   </g>
   <g id="cell140">
  <circle cx="525.524" cy="580.132" r="8.33913" stroke-width="0.5" stroke="black" fill="magenta"/>
  <circle cx="525.524" cy="580.132" r="5.02421" stroke-width="0.5" stroke="black" fill="magenta"/>
   </g>
   <g id="cell86">
  <circle cx="391.183" cy="565.774" r="8.4094" stroke-width="0.5" stroke="black" fill="magenta"/>
  <circle cx="391.183" cy="565.774" r="5.05076" stroke-width="0.5" stroke="black" fill="magenta"/>
   </g>
   <g id="cell87">
  <circle cx="432.782" cy="520.606" r="8.30021" stroke-width="0.5" stroke="black" fill="green"/>
  <circle cx="432.782" cy="520.606" r="5.00498" stroke-width="0.5" stroke="black" fill="green"/>
   </g>
   <g id="cell88">
  <circle cx="477.885" cy="602.42" r="7.98865" stroke-width="0.5" stroke="black" fill="green"/>
  <circle cx="477.885" cy="602.42" r="4.84266" stroke-width="0.5" stroke="black" fill="green"/>
   </g>
   <g id="cell89">
  <circle cx="431.224" cy="489.002" r="8.41111" stroke-width="0.5" stroke="black" fill="green"/>
  <circle cx="431.224" cy="489.002" r="5.05127" stroke-width="0.5" stroke="black" fill="green"/>
   </g>
   <g id="cell90">
  <circle cx="580.311" cy="514.364" r="8.2747" stroke-width="0.5" stroke="black" fill="magenta"/>
  <circle cx="580.311" cy="514.364" r="4.99236" stroke-width="0.5" stroke="black" fill="magenta"/>
   </g>
   <g id="cell136">
  <circle cx="524.934" cy="540.45" r="8.38291" stroke-width="0.5" stroke="black" fill="magenta"/>
  <circle cx="524.934" cy="540.45" r="5.04103" stroke-width="0.5" stroke="black" fill="magenta"/>
   </g>
   <g id="cell92">
  <circle cx="558.8" cy="591.692" r="8.40898" stroke-width="0.5" stroke="black" fill="green"/>
  <circle cx="558.8" cy="591.692" r="5.05066" stroke-width="0.5" stroke="black" fill="green"/>
   </g>
   <g id="cell93">
  <circle cx="576.487" cy="527.501" r="6.97712" stroke-width="0.5" stroke="black" fill="cyan"/>
  <circle cx="576.487" cy="527.501" r="4.23024" stroke-width="0.5" stroke="black" fill="cyan"/>
   </g>
   <g id="cell94">
  <circle cx="542.307" cy="470.909" r="8.412" stroke-width="0.5" stroke="black" fill="cyan"/>
  <circle cx="542.307" cy="470.909" r="5.0515" stroke-width="0.5" stroke="black" fill="cyan"/>
   </g>
   <g id="cell95">
  <circle cx="466.17" cy="533.665" r="8.412" stroke-width="0.5" stroke="black" fill="magenta"/>
  <circle cx="466.17" cy="533.665" r="5.0515" stroke-width="0.5" stroke="black" fill="magenta"/>
   </g>
   <g id="cell96">
  <circle cx="536.806" cy="381.45" r="8.41185" stroke-width="0.5" stroke="black" fill="magenta"/>
  <circle cx="536.806" cy="381.45" r="5.05146" stroke-width="0.5" stroke="black" fill="magenta"/>
   </g>
   <g id="cell97">
  <circle cx="565.846" cy="510.73" r="8.41172" stroke-width="0.5" stroke="black" fill="magenta"/>
  <circle cx="565.846" cy="510.73" r="5.05143" stroke-width="0.5" stroke="black" fill="magenta"/>
   </g>
   <g id="cell98">
  <circle cx="405.985" cy="572.579" r="8.32967" stroke-width="0.5" stroke="black" fill="green"/>
  <circle cx="405.985" cy="572.579" r="5.01822" stroke-width="0.5" stroke="black" fill="green"/>
   </g>
   <g id="cell99">
  <circle cx="575.738" cy="499.084" r="8.41157" stroke-width="0.5" stroke="black" fill="magenta"/>
  <circle cx="575.738" cy="499.084" r="5.05138" stroke-width="0.5" stroke="black" fill="magenta"/>
   </g>
   <g id="cell100">
  <circle cx="570.218" cy="540.379" r="8.41117" stroke-width="0.5" stroke="black" fill="cyan"/>
  <circle cx="570.218" cy="540.379" r="5.05129" stroke-width="0.5" stroke="black" fill="cyan"/>
   </g>
   <g id="cell101">
  <circle cx="458.509" cy="628.993" r="7.05225" stroke-width="0.5" stroke="black" fill="magenta"/>
  <circle cx="458.509" cy="628.993" r="4.27705" stroke-width="0.5" stroke="black" fill="magenta"/>
   </g>
   <g id="cell102">
  <circle cx="445.391" cy="507.264" r="8.41111" stroke-width="0.5" stroke="black" fill="green"/>
  <circle cx="445.391" cy="507.264" r="5.05127" stroke-width="0.5" stroke="black" fill="green"/>
   </g>
   <g id="cell103">
  <circle cx="551.597" cy="617.938" r="7.99995" stroke-width="0.5" stroke="black" fill="green"/>
  <circle cx="551.597" cy="617.938" r="4.8491" stroke-width="0.5" stroke="black" fill="green"/>
   </g>
   <g id="cell104">
  <circle cx="553.785" cy="540.968" r="8.41098" stroke-width="0.5" stroke="black" fill="green"/>
  <circle cx="553.785" cy="540.968" r="5.05122" stroke-width="0.5" stroke="black" fill="green"/>
   </g>
   <g id="cell105">
  <circle cx="416.68" cy="495.005" r="8.41068" stroke-width="0.5" stroke="black" fill="green"/>
  <circle cx="416.68" cy="495.005" r="5.05114" stroke-width="0.5" stroke="black" fill="green"/>
   </g>
   <g id="cell106">
  <circle cx="646.726" cy="532.38" r="7.81203" stroke-width="0.5" stroke="black" fill="green"/>
  <circle cx="646.726" cy="532.38" r="4.74335" stroke-width="0.5" stroke="black" fill="green"/>
   </g>
   <g id="cell107">
  <circle cx="383.773" cy="512.798" r="8.41023" stroke-width="0.5" stroke="black" fill="cyan"/>
  <circle cx="383.773" cy="512.798" r="5.051" stroke-width="0.5" stroke="black" fill="cyan"/>
   </g>
   <g id="cell108">
  <circle cx="461.245" cy="642.603" r="8.40954" stroke-width="0.5" stroke="black" fill="magenta"/>
  <circle cx="461.245" cy="642.603" r="5.05082" stroke-width="0.5" stroke="black" fill="magenta"/>
   </g>
   <g id="cell109">
  <circle cx="447.157" cy="637.146" r="8.40954" stroke-width="0.5" stroke="black" fill="magenta"/>
  <circle cx="447.157" cy="637.146" r="5.05082" stroke-width="0.5" stroke="black" fill="magenta"/>
   </g>
   <g id="cell110">
  <circle cx="541.982" cy="571.865" r="7.46641" stroke-width="0.5" stroke="black" fill="green"/>
  <circle cx="541.982" cy="571.865" r="4.53912" stroke-width="0.5" stroke="black" fill="green"/>
   </g>
   <g id="cell111">
  <circle cx="627.408" cy="554.09" r="8.40897" stroke-width="0.5" stroke="black" fill="green"/>
  <circle cx="627.408" cy="554.09" r="5.05066" stroke-width="0.5" stroke="black" fill="green"/>
   </g>
   <g id="cell112">
  <circle cx="378.508" cy="573.723" r="8.4094" stroke-width="0.5" stroke="black" fill="magenta"/>
  <circle cx="378.508" cy="573.723" r="5.05076" stroke-width="0.5" stroke="black" fill="magenta"/>
   </g>
   <g id="cell113">
  <circle cx="417.969" cy="479.417" r="8.40914" stroke-width="0.5" stroke="black" fill="green"/>
  <circle cx="417.969" cy="479.417" r="5.05068" stroke-width="0.5" stroke="black" fill="green"/>
   </g>
   <g id="cell114">
  <circle cx="502.054" cy="453.84" r="8.39172" stroke-width="0.5" stroke="black" fill="magenta"/>
  <circle cx="502.054" cy="453.84" r="5.04467" stroke-width="0.5" stroke="black" fill="magenta"/>
   </g>
   <g id="cell115">
  <circle cx="452.555" cy="525.869" r="8.40816" stroke-width="0.5" stroke="black" fill="green"/>
  <circle cx="452.555" cy="525.869" r="5.05038" stroke-width="0.5" stroke="black" fill="green"/>
   </g>
   <g id="cell116">
  <circle cx="368.785" cy="518.82" r="8.40677" stroke-width="0.5" stroke="black" fill="cyan"/>
  <circle cx="368.785" cy="518.82" r="5.04997" stroke-width="0.5" stroke="black" fill="cyan"/>
   </g>
   <g id="cell173">
  <circle cx="539.833" cy="610.033" r="7.12396" stroke-width="0.5" stroke="black" fill="green"/>
  <circle cx="539.833" cy="610.033" r="4.3596" stroke-width="0.5" stroke="black" fill="green"/>
   </g>
   <g id="cell118">
  <circle cx="523.899" cy="525.44" r="8.02077" stroke-width="0.5" stroke="black" fill="cyan"/>
  <circle cx="523.899" cy="525.44" r="4.86103" stroke-width="0.5" stroke="black" fill="cyan"/>
   </g>
   <g id="cell119">
  <circle cx="526.853" cy="636.088" r="8.34912" stroke-width="0.5" stroke="black" fill="green"/>
  <circle cx="526.853" cy="636.088" r="5.02723" stroke-width="0.5" stroke="black" fill="green"/>
   </g>
   <g id="cell121">
  <circle cx="390.749" cy="550.735" r="8.40515" stroke-width="0.5" stroke="black" fill="magenta"/>
  <circle cx="390.749" cy="550.735" r="5.04939" stroke-width="0.5" stroke="black" fill="magenta"/>
   </g>
   <g id="cell122">
  <circle cx="615.366" cy="458.921" r="8.14928" stroke-width="0.5" stroke="black" fill="cyan"/>
  <circle cx="615.366" cy="458.921" r="4.92989" stroke-width="0.5" stroke="black" fill="cyan"/>
   </g>
   <g id="cell123">
  <circle cx="499.796" cy="645.002" r="8.40403" stroke-width="0.5" stroke="black" fill="cyan"/>
  <circle cx="499.796" cy="645.002" r="5.04898" stroke-width="0.5" stroke="black" fill="cyan"/>
   </g>
   <g id="cell124">
  <circle cx="378.954" cy="589.392" r="8.40378" stroke-width="0.5" stroke="black" fill="green"/>
  <circle cx="378.954" cy="589.392" r="5.0489" stroke-width="0.5" stroke="black" fill="green"/>
   </g>
   <g id="cell125">
  <circle cx="454.089" cy="460.165" r="6.68516" stroke-width="0.5" stroke="black" fill="cyan"/>
  <circle cx="454.089" cy="460.165" r="4.01809" stroke-width="0.5" stroke="black" fill="cyan"/>
   </g>
   <g id="cell126">
  <circle cx="413.781" cy="510.227" r="8.40021" stroke-width="0.5" stroke="black" fill="green"/>
  <circle cx="413.781" cy="510.227" r="5.04773" stroke-width="0.5" stroke="black" fill="green"/>
   </g>
   <g id="cell127">
  <circle cx="413.473" cy="595.716" r="8.40022" stroke-width="0.5" stroke="black" fill="cyan"/>
  <circle cx="413.473" cy="595.716" r="5.04764" stroke-width="0.5" stroke="black" fill="cyan"/>
   </g>
   <g id="cell128">
  <circle cx="353.025" cy="536.422" r="7.69083" stroke-width="0.5" stroke="black" fill="cyan"/>
  <circle cx="353.025" cy="536.422" r="4.67504" stroke-width="0.5" stroke="black" fill="cyan"/>
   </g>
   <g id="cell131">
  <circle cx="586.785" cy="537.196" r="8.39396" stroke-width="0.5" stroke="black" fill="cyan"/>
  <circle cx="586.785" cy="537.196" r="5.04543" stroke-width="0.5" stroke="black" fill="cyan"/>
   </g>
   <g id="cell132">
  <circle cx="509.922" cy="441.156" r="8.39172" stroke-width="0.5" stroke="black" fill="magenta"/>
  <circle cx="509.922" cy="441.156" r="5.04467" stroke-width="0.5" stroke="black" fill="magenta"/>
   </g>
   <g id="cell133">
  <circle cx="535.084" cy="409.093" r="8.39203" stroke-width="0.5" stroke="black" fill="magenta"/>
  <circle cx="535.084" cy="409.093" r="5.0446" stroke-width="0.5" stroke="black" fill="magenta"/>
   </g>
   <g id="cell134">
  <circle cx="510.524" cy="580.395" r="8.35957" stroke-width="0.5" stroke="black" fill="magenta"/>
  <circle cx="510.524" cy="580.395" r="5.0322" stroke-width="0.5" stroke="black" fill="magenta"/>
   </g>
   <g id="cell135">
  <circle cx="565.477" cy="482.265" r="8.38753" stroke-width="0.5" stroke="black" fill="cyan"/>
  <circle cx="565.477" cy="482.265" r="5.04286" stroke-width="0.5" stroke="black" fill="cyan"/>
   </g>
   <g id="cell137">
  <circle cx="378.488" cy="478.452" r="8.37734" stroke-width="0.5" stroke="black" fill="magenta"/>
  <circle cx="378.488" cy="478.452" r="5.0388" stroke-width="0.5" stroke="black" fill="magenta"/>
   </g>
   <g id="cell138">
  <circle cx="532.953" cy="592.937" r="8.22024" stroke-width="0.5" stroke="black" fill="magenta"/>
  <circle cx="532.953" cy="592.937" r="4.97002" stroke-width="0.5" stroke="black" fill="magenta"/>
   </g>
   <g id="cell139">
  <circle cx="510.442" cy="607.052" r="8.36399" stroke-width="0.5" stroke="black" fill="green"/>
  <circle cx="510.442" cy="607.052" r="5.03361" stroke-width="0.5" stroke="black" fill="green"/>
   </g>
   <g id="cell142">
  <circle cx="584.95" cy="382.109" r="8.34798" stroke-width="0.5" stroke="black" fill="magenta"/>
  <circle cx="584.95" cy="382.109" r="5.0271" stroke-width="0.5" stroke="black" fill="magenta"/>
   </g>
   <g id="cell143">
  <circle cx="536.875" cy="624.03" r="8.34912" stroke-width="0.5" stroke="black" fill="green"/>
  <circle cx="536.875" cy="624.03" r="5.02723" stroke-width="0.5" stroke="black" fill="green"/>
   </g>
   <g id="cell144">
  <circle cx="378.344" cy="543.216" r="8.347" stroke-width="0.5" stroke="black" fill="magenta"/>
  <circle cx="378.344" cy="543.216" r="5.02586" stroke-width="0.5" stroke="black" fill="magenta"/>
   </g>
   <g id="cell145">
  <circle cx="455.357" cy="481.442" r="7.2561" stroke-width="0.5" stroke="black" fill="magenta"/>
  <circle cx="455.357" cy="481.442" r="4.41807" stroke-width="0.5" stroke="black" fill="magenta"/>
   </g>
   <g id="cell146">
  <circle cx="458.915" cy="422.932" r="8.33026" stroke-width="0.5" stroke="black" fill="cyan"/>
  <circle cx="458.915" cy="422.932" r="5.01837" stroke-width="0.5" stroke="black" fill="cyan"/>
   </g>
   <g id="cell148">
  <circle cx="400.891" cy="605.444" r="8.31127" stroke-width="0.5" stroke="black" fill="cyan"/>
  <circle cx="400.891" cy="605.444" r="5.01053" stroke-width="0.5" stroke="black" fill="cyan"/>
   </g>
   <g id="cell149">
  <circle cx="439.393" cy="534.916" r="8.30021" stroke-width="0.5" stroke="black" fill="green"/>
  <circle cx="439.393" cy="534.916" r="5.00498" stroke-width="0.5" stroke="black" fill="green"/>
   </g>
   <g id="cell150">
  <circle cx="472.483" cy="631.986" r="8.29643" stroke-width="0.5" stroke="black" fill="green"/>
  <circle cx="472.483" cy="631.986" r="5.00274" stroke-width="0.5" stroke="black" fill="green"/>
   </g>
   <g id="cell151">
  <circle cx="523.042" cy="509.902" r="8.29331" stroke-width="0.5" stroke="black" fill="cyan"/>
  <circle cx="523.042" cy="509.902" r="5.0012" stroke-width="0.5" stroke="black" fill="cyan"/>
   </g>
   <g id="cell152">
  <circle cx="643.243" cy="552.582" r="8.2807" stroke-width="0.5" stroke="black" fill="green"/>
  <circle cx="643.243" cy="552.582" r="4.99557" stroke-width="0.5" stroke="black" fill="green"/>
   </g>
   <g id="cell153">
  <circle cx="396.1" cy="522.966" r="8.2705" stroke-width="0.5" stroke="black" fill="cyan"/>
  <circle cx="396.1" cy="522.966" r="4.99161" stroke-width="0.5" stroke="black" fill="cyan"/>
   </g>
   <g id="cell154">
  <circle cx="588.948" cy="504.161" r="7.48357" stroke-width="0.5" stroke="black" fill="magenta"/>
  <circle cx="588.948" cy="504.161" r="4.56275" stroke-width="0.5" stroke="black" fill="magenta"/>
   </g>
   <g id="cell156">
  <circle cx="403.659" cy="557.563" r="8.03796" stroke-width="0.5" stroke="black" fill="green"/>
  <circle cx="403.659" cy="557.563" r="4.87832" stroke-width="0.5" stroke="black" fill="green"/>
   </g>
   <g id="cell157">
  <circle cx="392.894" cy="474.676" r="8.20543" stroke-width="0.5" stroke="black" fill="magenta"/>
  <circle cx="392.894" cy="474.676" r="4.96047" stroke-width="0.5" stroke="black" fill="magenta"/>
   </g>
   <g id="cell158">
  <circle cx="431.194" cy="472.112" r="8.10288" stroke-width="0.5" stroke="black" fill="green"/>
  <circle cx="431.194" cy="472.112" r="4.91181" stroke-width="0.5" stroke="black" fill="green"/>
   </g>
   <g id="cell159">
  <circle cx="439.927" cy="459.768" r="8.10288" stroke-width="0.5" stroke="black" fill="green"/>
  <circle cx="439.927" cy="459.768" r="4.91181" stroke-width="0.5" stroke="black" fill="green"/>
   </g>
   <g id="cell160">
  <circle cx="417.85" cy="561.023" r="8.07577" stroke-width="0.5" stroke="black" fill="green"/>
  <circle cx="417.85" cy="561.023" r="4.89796" stroke-width="0.5" stroke="black" fill="green"/>
   </g>
   <g id="cell161">
  <circle cx="528.354" cy="464.192" r="8.17464" stroke-width="0.5" stroke="black" fill="cyan"/>
  <circle cx="528.354" cy="464.192" r="4.94227" stroke-width="0.5" stroke="black" fill="cyan"/>
   </g>
   <g id="cell162">
  <circle cx="614.54" cy="474.299" r="8.14928" stroke-width="0.5" stroke="black" fill="cyan"/>
  <circle cx="614.54" cy="474.299" r="4.92989" stroke-width="0.5" stroke="black" fill="cyan"/>
   </g>
   <g id="cell163">
  <circle cx="426.108" cy="548.275" r="7.97749" stroke-width="0.5" stroke="black" fill="green"/>
  <circle cx="426.108" cy="548.275" r="4.85079" stroke-width="0.5" stroke="black" fill="green"/>
   </g>
   <g id="cell164">
  <circle cx="463.612" cy="469.285" r="8.14833" stroke-width="0.5" stroke="black" fill="cyan"/>
  <circle cx="463.612" cy="469.285" r="4.92956" stroke-width="0.5" stroke="black" fill="cyan"/>
   </g>
   <g id="cell165">
  <circle cx="411.534" cy="544.945" r="8.03796" stroke-width="0.5" stroke="black" fill="green"/>
  <circle cx="411.534" cy="544.945" r="4.87832" stroke-width="0.5" stroke="black" fill="green"/>
   </g>
   <g id="cell166">
  <circle cx="602.614" cy="501.298" r="8.12171" stroke-width="0.5" stroke="black" fill="green"/>
  <circle cx="602.614" cy="501.298" r="4.91455" stroke-width="0.5" stroke="black" fill="green"/>
   </g>
   <g id="cell167">
  <circle cx="466.87" cy="387.288" r="8.1218" stroke-width="0.5" stroke="black" fill="green"/>
  <circle cx="466.87" cy="387.288" r="4.91457" stroke-width="0.5" stroke="black" fill="green"/>
   </g>
   <g id="cell168">
  <circle cx="520.534" cy="407.063" r="8.10216" stroke-width="0.5" stroke="black" fill="magenta"/>
  <circle cx="520.534" cy="407.063" r="4.90619" stroke-width="0.5" stroke="black" fill="magenta"/>
   </g>
   <g id="cell169">
  <circle cx="466.899" cy="434.269" r="6.64448" stroke-width="0.5" stroke="black" fill="magenta"/>
  <circle cx="466.899" cy="434.269" r="4.08804" stroke-width="0.5" stroke="black" fill="magenta"/>
   </g>
   <g id="cell170">
  <circle cx="628.875" cy="488.528" r="8.06658" stroke-width="0.5" stroke="black" fill="green"/>
  <circle cx="628.875" cy="488.528" r="4.88512" stroke-width="0.5" stroke="black" fill="green"/>
   </g>
   <g id="cell171">
  <circle cx="537.322" cy="531.429" r="8.02077" stroke-width="0.5" stroke="black" fill="cyan"/>
  <circle cx="537.322" cy="531.429" r="4.86103" stroke-width="0.5" stroke="black" fill="cyan"/>
   </g>
   <g id="cell172">
  <circle cx="510.734" cy="519.324" r="7.93541" stroke-width="0.5" stroke="black" fill="cyan"/>
  <circle cx="510.734" cy="519.324" r="4.82139" stroke-width="0.5" stroke="black" fill="cyan"/>
   </g>
   <g id="cell175">
  <circle cx="634.162" cy="540.25" r="7.81203" stroke-width="0.5" stroke="black" fill="green"/>
  <circle cx="634.162" cy="540.25" r="4.74335" stroke-width="0.5" stroke="black" fill="green"/>
   </g>
   <g id="cell177">
  <circle cx="367.149" cy="534.064" r="7.69083" stroke-width="0.5" stroke="black" fill="cyan"/>
  <circle cx="367.149" cy="534.064" r="4.67504" stroke-width="0.5" stroke="black" fill="cyan"/>
   </g>
   <g id="cell178">
  <circle cx="481.708" cy="447.793" r="7.49579" stroke-width="0.5" stroke="black" fill="magenta"/>
  <circle cx="481.708" cy="447.793" r="4.58153" stroke-width="0.5" stroke="black" fill="magenta"/>
   </g>
   <g id="cell179">
  <circle cx="446.853" cy="492.503" r="7.45504" stroke-width="0.5" stroke="black" fill="cyan"/>
  <circle cx="446.853" cy="492.503" r="4.55297" stroke-width="0.5" stroke="black" fill="cyan"/>
   </g>
   <g id="cell180">
  <circle cx="591.67" cy="491.654" r="7.48357" stroke-width="0.5" stroke="black" fill="magenta"/>
  <circle cx="591.67" cy="491.654" r="4.56275" stroke-width="0.5" stroke="black" fill="magenta"/>
   </g>
   <g id="cell181">
  <circle cx="545.177" cy="585.211" r="7.46641" stroke-width="0.5" stroke="black" fill="green"/>
  <circle cx="545.177" cy="585.211" r="4.53912" stroke-width="0.5" stroke="black" fill="green"/>
   </g>
   <g id="cell182">
  <circle cx="448.978" cy="470.494" r="6.88306" stroke-width="0.5" stroke="black" fill="cyan"/>
  <circle cx="448.978" cy="470.494" r="4.23412" stroke-width="0.5" stroke="black" fill="cyan"/>
   </g>
   <g id="cell183">
  <circle cx="522.989" cy="382.973" r="7.41492" stroke-width="0.5" stroke="black" fill="magenta"/>
  <circle cx="522.989" cy="382.973" r="4.50708" stroke-width="0.5" stroke="black" fill="magenta"/>
   </g>
   <g id="cell184">
  <circle cx="545.989" cy="598.593" r="7.12396" stroke-width="0.5" stroke="black" fill="green"/>
  <circle cx="545.989" cy="598.593" r="4.3596" stroke-width="0.5" stroke="black" fill="green"/>
   </g>
   <g id="cell185">
  <circle cx="419.034" cy="523.036" r="6.60819" stroke-width="0.5" stroke="black" fill="green"/>
  <circle cx="419.034" cy="523.036" r="4.05593" stroke-width="0.5" stroke="black" fill="green"/>
   </g>
   <g id="cell186">
  <circle cx="607.856" cy="523.781" r="6.42156" stroke-width="0.5" stroke="black" fill="cyan"/>
  <circle cx="607.856" cy="523.781" r="3.94035" stroke-width="0.5" stroke="black" fill="cyan"/>
   </g>
   <g id="cell187">
  <circle cx="468.397" cy="482.165" r="7.2561" stroke-width="0.5" stroke="black" fill="magenta"/>
  <circle cx="468.397" cy="482.165" r="4.41807" stroke-width="0.5" stroke="black" fill="magenta"/>
   </g>
   <g id="cell188">
  <circle cx="619.381" cy="532.312" r="6.57285" stroke-width="0.5" stroke="black" fill="cyan"/>
  <circle cx="619.381" cy="532.312" r="4.03443" stroke-width="0.5" stroke="black" fill="cyan"/>
   </g>
   <g id="cell189">
  <circle cx="425.507" cy="533.515" r="6.60819" stroke-width="0.5" stroke="black" fill="green"/>
  <circle cx="425.507" cy="533.515" r="4.05593" stroke-width="0.5" stroke="black" fill="green"/>
   </g>
   <g id="cell190">
  <circle cx="432.051" cy="401.281" r="7.20212" stroke-width="0.5" stroke="black" fill="green"/>
  <circle cx="432.051" cy="401.281" r="4.37652" stroke-width="0.5" stroke="black" fill="green"/>
   </g>
   <g id="cell191">
  <circle cx="478.535" cy="435.8" r="6.64448" stroke-width="0.5" stroke="black" fill="magenta"/>
  <circle cx="478.535" cy="435.8" r="4.08804" stroke-width="0.5" stroke="black" fill="magenta"/>
   </g>
   <g id="cell192">
  <circle cx="610.627" cy="512.117" r="6.42156" stroke-width="0.5" stroke="black" fill="cyan"/>
  <circle cx="610.627" cy="512.117" r="3.94035" stroke-width="0.5" stroke="black" fill="cyan"/>
   </g>
   <g id="cell193">
  <circle cx="587.412" cy="471.979" r="7.08077" stroke-width="0.5" stroke="black" fill="cyan"/>
  <circle cx="587.412" cy="471.979" r="4.29691" stroke-width="0.5" stroke="black" fill="cyan"/>
   </g>
   <g id="cell194">
  <circle cx="447.207" cy="623.264" r="7.05225" stroke-width="0.5" stroke="black" fill="magenta"/>
  <circle cx="447.207" cy="623.264" r="4.27705" stroke-width="0.5" stroke="black" fill="magenta"/>
   </g>
   <g id="cell195">
  <circle cx="564.034" cy="524.831" r="6.97712" stroke-width="0.5" stroke="black" fill="cyan"/>
  <circle cx="564.034" cy="524.831" r="4.23024" stroke-width="0.5" stroke="black" fill="cyan"/>
   </g>
   <g id="cell196">
  <circle cx="508.286" cy="506.36" r="6.6127" stroke-width="0.5" stroke="black" fill="cyan"/>
  <circle cx="508.286" cy="506.36" r="4.04498" stroke-width="0.5" stroke="black" fill="cyan"/>
   </g>
   <g id="cell197">
  <circle cx="455.076" cy="449.099" r="6.68516" stroke-width="0.5" stroke="black" fill="cyan"/>
  <circle cx="455.076" cy="449.099" r="4.01809" stroke-width="0.5" stroke="black" fill="cyan"/>
   </g>
  </g>
 </g>
  <rect x="775" y="1035" width="200" height="10" stroke-width="2" stroke="rgb(255,255,255)" fill="rgb(0,0,0)"/>
  <text x="781.25" y="1028.75"
   font-family="Arial" font-size="25" fill="black" >
   200 &#956;m
  </text>
  <text x="25" y="1045"
   font-family="Arial" font-size="18.75" fill="black" >
   0 days, 0 hours, 0 minutes, and 46.7352 seconds
  </text>
  <rect x="0" y="70" width="1000" height="1000" stroke-width="2" stroke="rgb(0,0,0)" fill="none"/>
</svg>
