<?xml version="1.0" encoding="UTF-8" standalone="no"?>
<!-- Created with PhysiCell (http://PhysiCell.MathCancer.org/) -->
<svg 
 xmlns:dc="http://purl.org/dc/elements/1.1/" 
 xmlns:cc="http://creativecommons.org/ns#" 
 xmlns:rdf="http://www.w3.org/1999/02/22-rdf-syntax-ns#" 
 xmlns:svg="http://www.w3.org/2000/svg" 
 xmlns="http://www.w3.org/2000/svg" 
 version="1.1" 
 width="1000" 
 height="1070" 
 id="svg2">
  <rect x="0" y="0" width="1000" height="1070" stroke-width="2" stroke="white" fill="white"/>
  <text x="12.5" y="30"
   font-family="Arial" font-size="25" fill="black" >
   Current time: 0 days, 20 hours, and 0.00 minutes, z = 0.00 &#956;m
  </text>
  <text x="12.5" y="57.5"
   font-family="Arial" font-size="23.75" fill="black" >
   133 agents
  </text>
 <g id="tissue" 
    transform="translate(0,1070) scale(1,-1)">
  <g id="ECM">
  </g>
  <g id="cells">
   <g id="cell0">
  <circle cx="514.722" cy="532.12" r="8.40378" stroke-width="0.5" stroke="black" fill="magenta"/>
  <circle cx="514.722" cy="532.12" r="5.0489" stroke-width="0.5" stroke="black" fill="magenta"/>
   </g>
   <g id="cell1">
  <circle cx="600.232" cy="520.353" r="1.76957" stroke-width="0.5" stroke="black" fill="magenta"/>
  <circle cx="600.232" cy="520.353" r="1.71615" stroke-width="0.5" stroke="black" fill="black"/>
   </g>
   <g id="cell2">
  <circle cx="511.826" cy="599.413" r="7.0545" stroke-width="0.5" stroke="black" fill="magenta"/>
  <circle cx="511.826" cy="599.413" r="4.27772" stroke-width="0.5" stroke="black" fill="magenta"/>
   </g>
   <g id="cell3">
  <circle cx="537.739" cy="540.989" r="6.75639" stroke-width="0.5" stroke="black" fill="magenta"/>
  <circle cx="537.739" cy="540.989" r="4.06813" stroke-width="0.5" stroke="black" fill="magenta"/>
   </g>
   <g id="cell4">
  <circle cx="472.784" cy="440.409" r="8.40472" stroke-width="0.5" stroke="black" fill="magenta"/>
  <circle cx="472.784" cy="440.409" r="5.04922" stroke-width="0.5" stroke="black" fill="magenta"/>
   </g>
   <g id="cell5">
  <circle cx="465.75" cy="494.186" r="8.41271" stroke-width="0.5" stroke="black" fill="magenta"/>
  <circle cx="465.75" cy="494.186" r="5.05167" stroke-width="0.5" stroke="black" fill="magenta"/>
   </g>
   <g id="cell6">
  <circle cx="594.255" cy="513.422" r="8.38373" stroke-width="0.5" stroke="black" fill="magenta"/>
  <circle cx="594.255" cy="513.422" r="5.04136" stroke-width="0.5" stroke="black" fill="magenta"/>
   </g>
   <g id="cell7">
  <circle cx="511.772" cy="464.62" r="8.41271" stroke-width="0.5" stroke="black" fill="magenta"/>
  <circle cx="511.772" cy="464.62" r="5.05167" stroke-width="0.5" stroke="black" fill="magenta"/>
   </g>
   <g id="cell8">
  <circle cx="374.658" cy="547.55" r="8.41271" stroke-width="0.5" stroke="black" fill="magenta"/>
  <circle cx="374.658" cy="547.55" r="5.05167" stroke-width="0.5" stroke="black" fill="magenta"/>
   </g>
   <g id="cell9">
  <circle cx="463.981" cy="602.084" r="8.38206" stroke-width="0.5" stroke="black" fill="magenta"/>
  <circle cx="463.981" cy="602.084" r="5.04069" stroke-width="0.5" stroke="black" fill="magenta"/>
   </g>
   <g id="cell10">
  <circle cx="588.166" cy="391.407" r="7.46878" stroke-width="0.5" stroke="black" fill="magenta"/>
  <circle cx="588.166" cy="391.407" r="4.53982" stroke-width="0.5" stroke="black" fill="magenta"/>
   </g>
   <g id="cell11">
  <circle cx="589.748" cy="590.273" r="8.41271" stroke-width="0.5" stroke="black" fill="magenta"/>
  <circle cx="589.748" cy="590.273" r="5.05167" stroke-width="0.5" stroke="black" fill="magenta"/>
   </g>
   <g id="cell12">
  <circle cx="504.984" cy="586.637" r="8.41271" stroke-width="0.5" stroke="black" fill="magenta"/>
  <circle cx="504.984" cy="586.637" r="5.05167" stroke-width="0.5" stroke="black" fill="magenta"/>
   </g>
   <g id="cell13">
  <circle cx="378.75" cy="561.47" r="7.95" stroke-width="0.5" stroke="black" fill="magenta"/>
  <circle cx="378.75" cy="561.47" r="4.82385" stroke-width="0.5" stroke="black" fill="magenta"/>
   </g>
   <g id="cell14">
  <circle cx="523.162" cy="398.745" r="7.1497" stroke-width="0.5" stroke="black" fill="magenta"/>
  <circle cx="523.162" cy="398.745" r="4.34001" stroke-width="0.5" stroke="black" fill="magenta"/>
   </g>
   <g id="cell15">
  <circle cx="382.293" cy="479.499" r="8.40427" stroke-width="0.5" stroke="black" fill="magenta"/>
  <circle cx="382.293" cy="479.499" r="5.04906" stroke-width="0.5" stroke="black" fill="magenta"/>
   </g>
   <g id="cell16">
  <circle cx="429.895" cy="414.387" r="8.41271" stroke-width="0.5" stroke="black" fill="magenta"/>
  <circle cx="429.895" cy="414.387" r="5.05167" stroke-width="0.5" stroke="black" fill="magenta"/>
   </g>
   <g id="cell17">
  <circle cx="587.397" cy="488.286" r="8.347" stroke-width="0.5" stroke="black" fill="magenta"/>
  <circle cx="587.397" cy="488.286" r="5.02586" stroke-width="0.5" stroke="black" fill="magenta"/>
   </g>
   <g id="cell18">
  <circle cx="510.28" cy="393.412" r="8.40516" stroke-width="0.5" stroke="black" fill="magenta"/>
  <circle cx="510.28" cy="393.412" r="5.04937" stroke-width="0.5" stroke="black" fill="magenta"/>
   </g>
   <g id="cell19">
  <circle cx="448.035" cy="539.191" r="8.37208" stroke-width="0.5" stroke="black" fill="magenta"/>
  <circle cx="448.035" cy="539.191" r="5.03661" stroke-width="0.5" stroke="black" fill="magenta"/>
   </g>
   <g id="cell20">
  <circle cx="528.342" cy="422.285" r="8.41271" stroke-width="0.5" stroke="black" fill="magenta"/>
  <circle cx="528.342" cy="422.285" r="5.05167" stroke-width="0.5" stroke="black" fill="magenta"/>
   </g>
   <g id="cell21">
  <circle cx="465.147" cy="637.069" r="1.2901" stroke-width="0.5" stroke="black" fill="magenta"/>
  <circle cx="465.147" cy="637.069" r="1.27774" stroke-width="0.5" stroke="black" fill="black"/>
   </g>
   <g id="cell22">
  <circle cx="558.005" cy="498.385" r="8.35613" stroke-width="0.5" stroke="black" fill="magenta"/>
  <circle cx="558.005" cy="498.385" r="5.03047" stroke-width="0.5" stroke="black" fill="magenta"/>
   </g>
   <g id="cell23">
  <circle cx="537.218" cy="481.718" r="8.41271" stroke-width="0.5" stroke="black" fill="magenta"/>
  <circle cx="537.218" cy="481.718" r="5.05167" stroke-width="0.5" stroke="black" fill="magenta"/>
   </g>
   <g id="cell24">
  <circle cx="560.512" cy="380.843" r="8.41271" stroke-width="0.5" stroke="black" fill="magenta"/>
  <circle cx="560.512" cy="380.843" r="5.05167" stroke-width="0.5" stroke="black" fill="magenta"/>
   </g>
   <g id="cell25">
  <circle cx="647.846" cy="559.471" r="8.19087" stroke-width="0.5" stroke="black" fill="green"/>
  <circle cx="647.846" cy="559.471" r="4.95529" stroke-width="0.5" stroke="black" fill="green"/>
   </g>
   <g id="cell26">
  <circle cx="550.641" cy="401.225" r="8.41271" stroke-width="0.5" stroke="black" fill="green"/>
  <circle cx="550.641" cy="401.225" r="5.05167" stroke-width="0.5" stroke="black" fill="green"/>
   </g>
   <g id="cell27">
  <circle cx="457.446" cy="388.678" r="8.41271" stroke-width="0.5" stroke="black" fill="green"/>
  <circle cx="457.446" cy="388.678" r="5.05167" stroke-width="0.5" stroke="black" fill="green"/>
   </g>
   <g id="cell28">
  <circle cx="432.853" cy="543.254" r="8.41271" stroke-width="0.5" stroke="black" fill="green"/>
  <circle cx="432.853" cy="543.254" r="5.05167" stroke-width="0.5" stroke="black" fill="green"/>
   </g>
   <g id="cell29">
  <circle cx="467.41" cy="521.004" r="8.13977" stroke-width="0.5" stroke="black" fill="green"/>
  <circle cx="467.41" cy="521.004" r="4.92632" stroke-width="0.5" stroke="black" fill="green"/>
   </g>
   <g id="cell30">
  <circle cx="477.785" cy="539.182" r="8.41271" stroke-width="0.5" stroke="black" fill="green"/>
  <circle cx="477.785" cy="539.182" r="5.05167" stroke-width="0.5" stroke="black" fill="green"/>
   </g>
   <g id="cell31">
  <circle cx="412.39" cy="538.39" r="8.41271" stroke-width="0.5" stroke="black" fill="green"/>
  <circle cx="412.39" cy="538.39" r="5.05167" stroke-width="0.5" stroke="black" fill="green"/>
   </g>
   <g id="cell32">
  <circle cx="430.417" cy="465.53" r="8.39021" stroke-width="0.5" stroke="black" fill="green"/>
  <circle cx="430.417" cy="465.53" r="5.0439" stroke-width="0.5" stroke="black" fill="green"/>
   </g>
   <g id="cell33">
  <circle cx="498.875" cy="413.229" r="8.39316" stroke-width="0.5" stroke="black" fill="green"/>
  <circle cx="498.875" cy="413.229" r="5.04503" stroke-width="0.5" stroke="black" fill="green"/>
   </g>
   <g id="cell34">
  <circle cx="392.091" cy="453.609" r="8.38823" stroke-width="0.5" stroke="black" fill="green"/>
  <circle cx="392.091" cy="453.609" r="5.04313" stroke-width="0.5" stroke="black" fill="green"/>
   </g>
   <g id="cell35">
  <circle cx="543.986" cy="552.835" r="8.31209" stroke-width="0.5" stroke="black" fill="green"/>
  <circle cx="543.986" cy="552.835" r="5.01002" stroke-width="0.5" stroke="black" fill="green"/>
   </g>
   <g id="cell36">
  <circle cx="396.267" cy="579.737" r="7.86286" stroke-width="0.5" stroke="black" fill="green"/>
  <circle cx="396.267" cy="579.737" r="4.77207" stroke-width="0.5" stroke="black" fill="green"/>
   </g>
   <g id="cell37">
  <circle cx="634.871" cy="460.618" r="8.41271" stroke-width="0.5" stroke="black" fill="green"/>
  <circle cx="634.871" cy="460.618" r="5.05167" stroke-width="0.5" stroke="black" fill="green"/>
   </g>
   <g id="cell38">
  <circle cx="526.757" cy="600.328" r="8.37431" stroke-width="0.5" stroke="black" fill="green"/>
  <circle cx="526.757" cy="600.328" r="5.03754" stroke-width="0.5" stroke="black" fill="green"/>
   </g>
   <g id="cell39">
  <circle cx="618.42" cy="495.25" r="8.40327" stroke-width="0.5" stroke="black" fill="green"/>
  <circle cx="618.42" cy="495.25" r="5.04872" stroke-width="0.5" stroke="black" fill="green"/>
   </g>
   <g id="cell40">
  <circle cx="485.352" cy="571.782" r="8.41271" stroke-width="0.5" stroke="black" fill="green"/>
  <circle cx="485.352" cy="571.782" r="5.05167" stroke-width="0.5" stroke="black" fill="green"/>
   </g>
   <g id="cell41">
  <circle cx="366.79" cy="481.169" r="8.41271" stroke-width="0.5" stroke="black" fill="green"/>
  <circle cx="366.79" cy="481.169" r="5.05167" stroke-width="0.5" stroke="black" fill="green"/>
   </g>
   <g id="cell42">
  <circle cx="452.328" cy="486.379" r="8.38001" stroke-width="0.5" stroke="black" fill="green"/>
  <circle cx="452.328" cy="486.379" r="5.0403" stroke-width="0.5" stroke="black" fill="green"/>
   </g>
   <g id="cell43">
  <circle cx="558.607" cy="445.802" r="8.41271" stroke-width="0.5" stroke="black" fill="green"/>
  <circle cx="558.607" cy="445.802" r="5.05167" stroke-width="0.5" stroke="black" fill="green"/>
   </g>
   <g id="cell44">
  <circle cx="477.438" cy="627.414" r="8.38608" stroke-width="0.5" stroke="black" fill="green"/>
  <circle cx="477.438" cy="627.414" r="5.04229" stroke-width="0.5" stroke="black" fill="green"/>
   </g>
   <g id="cell45">
  <circle cx="416.833" cy="553.739" r="8.347" stroke-width="0.5" stroke="black" fill="green"/>
  <circle cx="416.833" cy="553.739" r="5.02586" stroke-width="0.5" stroke="black" fill="green"/>
   </g>
   <g id="cell46">
  <circle cx="517.345" cy="612.57" r="8.02418" stroke-width="0.5" stroke="black" fill="green"/>
  <circle cx="517.345" cy="612.57" r="4.86209" stroke-width="0.5" stroke="black" fill="green"/>
   </g>
   <g id="cell47">
  <circle cx="501.994" cy="509.383" r="8.41271" stroke-width="0.5" stroke="black" fill="green"/>
  <circle cx="501.994" cy="509.383" r="5.05167" stroke-width="0.5" stroke="black" fill="green"/>
   </g>
   <g id="cell48">
  <circle cx="564.704" cy="603.604" r="8.41271" stroke-width="0.5" stroke="black" fill="green"/>
  <circle cx="564.704" cy="603.604" r="5.05167" stroke-width="0.5" stroke="black" fill="green"/>
   </g>
   <g id="cell49">
  <circle cx="433.938" cy="394.618" r="7.51976" stroke-width="0.5" stroke="black" fill="green"/>
  <circle cx="433.938" cy="394.618" r="4.57072" stroke-width="0.5" stroke="black" fill="green"/>
   </g>
   <g id="cell50">
  <circle cx="516.029" cy="516.715" r="8.41271" stroke-width="0.5" stroke="black" fill="cyan"/>
  <circle cx="516.029" cy="516.715" r="5.05167" stroke-width="0.5" stroke="black" fill="cyan"/>
   </g>
   <g id="cell51">
  <circle cx="394.136" cy="601.116" r="7.63698" stroke-width="0.5" stroke="black" fill="cyan"/>
  <circle cx="394.136" cy="601.116" r="4.64085" stroke-width="0.5" stroke="black" fill="cyan"/>
   </g>
   <g id="cell120">
  <circle cx="418.713" cy="610.438" r="8.01277" stroke-width="0.5" stroke="black" fill="cyan"/>
  <circle cx="418.713" cy="610.438" r="4.85584" stroke-width="0.5" stroke="black" fill="cyan"/>
   </g>
   <g id="cell53">
  <circle cx="571.286" cy="436.003" r="8.41271" stroke-width="0.5" stroke="black" fill="cyan"/>
  <circle cx="571.286" cy="436.003" r="5.05167" stroke-width="0.5" stroke="black" fill="cyan"/>
   </g>
   <g id="cell54">
  <circle cx="476.24" cy="425.244" r="8.41271" stroke-width="0.5" stroke="black" fill="cyan"/>
  <circle cx="476.24" cy="425.244" r="5.05167" stroke-width="0.5" stroke="black" fill="cyan"/>
   </g>
   <g id="cell55">
  <circle cx="525.735" cy="471.395" r="8.41271" stroke-width="0.5" stroke="black" fill="cyan"/>
  <circle cx="525.735" cy="471.395" r="5.05167" stroke-width="0.5" stroke="black" fill="cyan"/>
   </g>
   <g id="cell56">
  <circle cx="615.793" cy="522.539" r="8.41271" stroke-width="0.5" stroke="black" fill="cyan"/>
  <circle cx="615.793" cy="522.539" r="5.05167" stroke-width="0.5" stroke="black" fill="cyan"/>
   </g>
   <g id="cell57">
  <circle cx="418.53" cy="625.618" r="8.01277" stroke-width="0.5" stroke="black" fill="cyan"/>
  <circle cx="418.53" cy="625.618" r="4.85584" stroke-width="0.5" stroke="black" fill="cyan"/>
   </g>
   <g id="cell58">
  <circle cx="552.229" cy="484.185" r="8.41271" stroke-width="0.5" stroke="black" fill="cyan"/>
  <circle cx="552.229" cy="484.185" r="5.05167" stroke-width="0.5" stroke="black" fill="cyan"/>
   </g>
   <g id="cell59">
  <circle cx="385.165" cy="439.186" r="8.41271" stroke-width="0.5" stroke="black" fill="cyan"/>
  <circle cx="385.165" cy="439.186" r="5.05167" stroke-width="0.5" stroke="black" fill="cyan"/>
   </g>
   <g id="cell60">
  <circle cx="589.59" cy="473.066" r="7.9229" stroke-width="0.5" stroke="black" fill="cyan"/>
  <circle cx="589.59" cy="473.066" r="4.80599" stroke-width="0.5" stroke="black" fill="cyan"/>
   </g>
   <g id="cell61">
  <circle cx="554.623" cy="614.976" r="2.67434" stroke-width="0.5" stroke="black" fill="cyan"/>
  <circle cx="554.623" cy="614.976" r="2.31053" stroke-width="0.5" stroke="black" fill="black"/>
   </g>
   <g id="cell62">
  <circle cx="526.63" cy="445.512" r="8.41271" stroke-width="0.5" stroke="black" fill="cyan"/>
  <circle cx="526.63" cy="445.512" r="5.05167" stroke-width="0.5" stroke="black" fill="cyan"/>
   </g>
   <g id="cell63">
  <circle cx="582.98" cy="552.853" r="8.37431" stroke-width="0.5" stroke="black" fill="cyan"/>
  <circle cx="582.98" cy="552.853" r="5.03754" stroke-width="0.5" stroke="black" fill="cyan"/>
   </g>
   <g id="cell64">
  <circle cx="513.726" cy="633.78" r="7.87851" stroke-width="0.5" stroke="black" fill="cyan"/>
  <circle cx="513.726" cy="633.78" r="4.78096" stroke-width="0.5" stroke="black" fill="cyan"/>
   </g>
   <g id="cell65">
  <circle cx="535.472" cy="458.758" r="8.37208" stroke-width="0.5" stroke="black" fill="cyan"/>
  <circle cx="535.472" cy="458.758" r="5.03661" stroke-width="0.5" stroke="black" fill="cyan"/>
   </g>
   <g id="cell66">
  <circle cx="544.044" cy="529.106" r="8.03527" stroke-width="0.5" stroke="black" fill="cyan"/>
  <circle cx="544.044" cy="529.106" r="4.86813" stroke-width="0.5" stroke="black" fill="cyan"/>
   </g>
   <g id="cell67">
  <circle cx="355.151" cy="492.183" r="8.41271" stroke-width="0.5" stroke="black" fill="cyan"/>
  <circle cx="355.151" cy="492.183" r="5.05167" stroke-width="0.5" stroke="black" fill="cyan"/>
   </g>
   <g id="cell68">
  <circle cx="559.094" cy="555.859" r="8.41271" stroke-width="0.5" stroke="black" fill="cyan"/>
  <circle cx="559.094" cy="555.859" r="5.05167" stroke-width="0.5" stroke="black" fill="cyan"/>
   </g>
   <g id="cell69">
  <circle cx="437.1" cy="451.017" r="8.40537" stroke-width="0.5" stroke="black" fill="cyan"/>
  <circle cx="437.1" cy="451.017" r="5.04944" stroke-width="0.5" stroke="black" fill="cyan"/>
   </g>
   <g id="cell70">
  <circle cx="577.365" cy="478.966" r="6.92764" stroke-width="0.5" stroke="black" fill="cyan"/>
  <circle cx="577.365" cy="478.966" r="4.1918" stroke-width="0.5" stroke="black" fill="cyan"/>
   </g>
   <g id="cell71">
  <circle cx="382.744" cy="527.338" r="7.37386" stroke-width="0.5" stroke="black" fill="cyan"/>
  <circle cx="382.744" cy="527.338" r="4.51193" stroke-width="0.5" stroke="black" fill="cyan"/>
   </g>
   <g id="cell72">
  <circle cx="535.113" cy="508.766" r="8.41271" stroke-width="0.5" stroke="black" fill="cyan"/>
  <circle cx="535.113" cy="508.766" r="5.05167" stroke-width="0.5" stroke="black" fill="cyan"/>
   </g>
   <g id="cell129">
  <circle cx="421.796" cy="402.085" r="7.51976" stroke-width="0.5" stroke="black" fill="green"/>
  <circle cx="421.796" cy="402.085" r="4.57072" stroke-width="0.5" stroke="black" fill="green"/>
   </g>
   <g id="cell74">
  <circle cx="542.636" cy="444.494" r="8.41271" stroke-width="0.5" stroke="black" fill="cyan"/>
  <circle cx="542.636" cy="444.494" r="5.05167" stroke-width="0.5" stroke="black" fill="cyan"/>
   </g>
   <g id="cell75">
  <circle cx="443.119" cy="474.136" r="7.8089" stroke-width="0.5" stroke="black" fill="cyan"/>
  <circle cx="443.119" cy="474.136" r="4.7423" stroke-width="0.5" stroke="black" fill="cyan"/>
   </g>
   <g id="cell76">
  <circle cx="522.75" cy="384.841" r="8.36341" stroke-width="0.5" stroke="black" fill="magenta"/>
  <circle cx="522.75" cy="384.841" r="5.03342" stroke-width="0.5" stroke="black" fill="magenta"/>
   </g>
   <g id="cell77">
  <circle cx="487.183" cy="436.161" r="8.17755" stroke-width="0.5" stroke="black" fill="magenta"/>
  <circle cx="487.183" cy="436.161" r="4.94452" stroke-width="0.5" stroke="black" fill="magenta"/>
   </g>
   <g id="cell78">
  <circle cx="373.58" cy="467.132" r="8.40427" stroke-width="0.5" stroke="black" fill="magenta"/>
  <circle cx="373.58" cy="467.132" r="5.04906" stroke-width="0.5" stroke="black" fill="magenta"/>
   </g>
   <g id="cell79">
  <circle cx="502.058" cy="524.704" r="8.40378" stroke-width="0.5" stroke="black" fill="magenta"/>
  <circle cx="502.058" cy="524.704" r="5.0489" stroke-width="0.5" stroke="black" fill="magenta"/>
   </g>
   <g id="cell80">
  <circle cx="604.94" cy="486.228" r="8.40327" stroke-width="0.5" stroke="black" fill="green"/>
  <circle cx="604.94" cy="486.228" r="5.04872" stroke-width="0.5" stroke="black" fill="green"/>
   </g>
   <g id="cell81">
  <circle cx="429.965" cy="500.866" r="7.6303" stroke-width="0.5" stroke="black" fill="green"/>
  <circle cx="429.965" cy="500.866" r="4.64851" stroke-width="0.5" stroke="black" fill="green"/>
   </g>
   <g id="cell82">
  <circle cx="542.917" cy="495.873" r="8.40154" stroke-width="0.5" stroke="black" fill="magenta"/>
  <circle cx="542.917" cy="495.873" r="5.04811" stroke-width="0.5" stroke="black" fill="magenta"/>
   </g>
   <g id="cell130">
  <circle cx="574.649" cy="392.145" r="7.46878" stroke-width="0.5" stroke="black" fill="magenta"/>
  <circle cx="574.649" cy="392.145" r="4.53982" stroke-width="0.5" stroke="black" fill="magenta"/>
   </g>
   <g id="cell84">
  <circle cx="407.555" cy="481.137" r="8.20094" stroke-width="0.5" stroke="black" fill="green"/>
  <circle cx="407.555" cy="481.137" r="4.95751" stroke-width="0.5" stroke="black" fill="green"/>
   </g>
   <g id="cell85">
  <circle cx="405.579" cy="447.367" r="1.35009" stroke-width="0.5" stroke="black" fill="green"/>
  <circle cx="405.579" cy="447.367" r="1.33973" stroke-width="0.5" stroke="black" fill="black"/>
   </g>
   <g id="cell86">
  <circle cx="392.743" cy="565.318" r="8.21647" stroke-width="0.5" stroke="black" fill="magenta"/>
  <circle cx="392.743" cy="565.318" r="4.96543" stroke-width="0.5" stroke="black" fill="magenta"/>
   </g>
   <g id="cell87">
  <circle cx="437.394" cy="528.489" r="8.07213" stroke-width="0.5" stroke="black" fill="green"/>
  <circle cx="437.394" cy="528.489" r="4.8906" stroke-width="0.5" stroke="black" fill="green"/>
   </g>
   <g id="cell88">
  <circle cx="476.372" cy="611.477" r="8.38608" stroke-width="0.5" stroke="black" fill="green"/>
  <circle cx="476.372" cy="611.477" r="5.04229" stroke-width="0.5" stroke="black" fill="green"/>
   </g>
   <g id="cell89">
  <circle cx="436.452" cy="487.561" r="8.32037" stroke-width="0.5" stroke="black" fill="green"/>
  <circle cx="436.452" cy="487.561" r="5.01561" stroke-width="0.5" stroke="black" fill="green"/>
   </g>
   <g id="cell90">
  <circle cx="583.628" cy="502.671" r="8.38373" stroke-width="0.5" stroke="black" fill="magenta"/>
  <circle cx="583.628" cy="502.671" r="5.04136" stroke-width="0.5" stroke="black" fill="magenta"/>
   </g>
   <g id="cell136">
  <circle cx="527.209" cy="535.969" r="6.75639" stroke-width="0.5" stroke="black" fill="magenta"/>
  <circle cx="527.209" cy="535.969" r="4.06813" stroke-width="0.5" stroke="black" fill="magenta"/>
   </g>
   <g id="cell92">
  <circle cx="553.491" cy="592.453" r="8.19128" stroke-width="0.5" stroke="black" fill="green"/>
  <circle cx="553.491" cy="592.453" r="4.95644" stroke-width="0.5" stroke="black" fill="green"/>
   </g>
   <g id="cell93">
  <circle cx="573.901" cy="526.654" r="7.24323" stroke-width="0.5" stroke="black" fill="cyan"/>
  <circle cx="573.901" cy="526.654" r="4.4131" stroke-width="0.5" stroke="black" fill="cyan"/>
   </g>
   <g id="cell94">
  <circle cx="547.133" cy="469.408" r="8.37208" stroke-width="0.5" stroke="black" fill="cyan"/>
  <circle cx="547.133" cy="469.408" r="5.03661" stroke-width="0.5" stroke="black" fill="cyan"/>
   </g>
   <g id="cell95">
  <circle cx="462.664" cy="535.557" r="8.37208" stroke-width="0.5" stroke="black" fill="magenta"/>
  <circle cx="462.664" cy="535.557" r="5.03661" stroke-width="0.5" stroke="black" fill="magenta"/>
   </g>
   <g id="cell96">
  <circle cx="535.304" cy="376.532" r="8.36341" stroke-width="0.5" stroke="black" fill="magenta"/>
  <circle cx="535.304" cy="376.532" r="5.03342" stroke-width="0.5" stroke="black" fill="magenta"/>
   </g>
   <g id="cell97">
  <circle cx="569.632" cy="507.622" r="8.35613" stroke-width="0.5" stroke="black" fill="magenta"/>
  <circle cx="569.632" cy="507.622" r="5.03047" stroke-width="0.5" stroke="black" fill="magenta"/>
   </g>
   <g id="cell98">
  <circle cx="407.948" cy="567.047" r="8.347" stroke-width="0.5" stroke="black" fill="green"/>
  <circle cx="407.948" cy="567.047" r="5.02586" stroke-width="0.5" stroke="black" fill="green"/>
   </g>
   <g id="cell99">
  <circle cx="572.281" cy="492.438" r="8.347" stroke-width="0.5" stroke="black" fill="magenta"/>
  <circle cx="572.281" cy="492.438" r="5.02586" stroke-width="0.5" stroke="black" fill="magenta"/>
   </g>
   <g id="cell100">
  <circle cx="569.717" cy="544.333" r="8.32369" stroke-width="0.5" stroke="black" fill="cyan"/>
  <circle cx="569.717" cy="544.333" r="5.01698" stroke-width="0.5" stroke="black" fill="cyan"/>
   </g>
   <g id="cell101">
  <circle cx="462.141" cy="629.032" r="8.22568" stroke-width="0.5" stroke="black" fill="magenta"/>
  <circle cx="462.141" cy="629.032" r="4.97171" stroke-width="0.5" stroke="black" fill="magenta"/>
   </g>
   <g id="cell102">
  <circle cx="445.355" cy="500.548" r="8.32037" stroke-width="0.5" stroke="black" fill="green"/>
  <circle cx="445.355" cy="500.548" r="5.01561" stroke-width="0.5" stroke="black" fill="green"/>
   </g>
   <g id="cell103">
  <circle cx="542.836" cy="604.138" r="8.30074" stroke-width="0.5" stroke="black" fill="green"/>
  <circle cx="542.836" cy="604.138" r="5.0066" stroke-width="0.5" stroke="black" fill="green"/>
   </g>
   <g id="cell104">
  <circle cx="554.454" cy="540.476" r="8.31209" stroke-width="0.5" stroke="black" fill="green"/>
  <circle cx="554.454" cy="540.476" r="5.01002" stroke-width="0.5" stroke="black" fill="green"/>
   </g>
   <g id="cell105">
  <circle cx="416.662" cy="493.866" r="8.29451" stroke-width="0.5" stroke="black" fill="green"/>
  <circle cx="416.662" cy="493.866" r="5.0026" stroke-width="0.5" stroke="black" fill="green"/>
   </g>
   <g id="cell106">
  <circle cx="639.237" cy="537.167" r="8.29993" stroke-width="0.5" stroke="black" fill="green"/>
  <circle cx="639.237" cy="537.167" r="5.00433" stroke-width="0.5" stroke="black" fill="green"/>
   </g>
   <g id="cell107">
  <circle cx="383.594" cy="512.584" r="8.26685" stroke-width="0.5" stroke="black" fill="cyan"/>
  <circle cx="383.594" cy="512.584" r="4.98849" stroke-width="0.5" stroke="black" fill="cyan"/>
   </g>
   <g id="cell108">
  <circle cx="459.555" cy="643.576" r="8.22568" stroke-width="0.5" stroke="black" fill="magenta"/>
  <circle cx="459.555" cy="643.576" r="4.97171" stroke-width="0.5" stroke="black" fill="magenta"/>
   </g>
   <g id="cell109">
  <circle cx="448.215" cy="634.045" r="8.22568" stroke-width="0.5" stroke="black" fill="magenta"/>
  <circle cx="448.215" cy="634.045" r="4.97171" stroke-width="0.5" stroke="black" fill="magenta"/>
   </g>
   <g id="cell110">
  <circle cx="538.176" cy="589.28" r="8.19128" stroke-width="0.5" stroke="black" fill="green"/>
  <circle cx="538.176" cy="589.28" r="4.95644" stroke-width="0.5" stroke="black" fill="green"/>
   </g>
   <g id="cell111">
  <circle cx="634.161" cy="552.015" r="8.19087" stroke-width="0.5" stroke="black" fill="green"/>
  <circle cx="634.161" cy="552.015" r="4.95529" stroke-width="0.5" stroke="black" fill="green"/>
   </g>
   <g id="cell112">
  <circle cx="381.983" cy="575.456" r="8.21647" stroke-width="0.5" stroke="black" fill="magenta"/>
  <circle cx="381.983" cy="575.456" r="4.96543" stroke-width="0.5" stroke="black" fill="magenta"/>
   </g>
   <g id="cell113">
  <circle cx="423.042" cy="479.487" r="8.20094" stroke-width="0.5" stroke="black" fill="green"/>
  <circle cx="423.042" cy="479.487" r="4.95751" stroke-width="0.5" stroke="black" fill="green"/>
   </g>
   <g id="cell114">
  <circle cx="493.743" cy="448.148" r="7.08476" stroke-width="0.5" stroke="black" fill="magenta"/>
  <circle cx="493.743" cy="448.148" r="4.3262" stroke-width="0.5" stroke="black" fill="magenta"/>
   </g>
   <g id="cell115">
  <circle cx="452.252" cy="524.376" r="8.13977" stroke-width="0.5" stroke="black" fill="green"/>
  <circle cx="452.252" cy="524.376" r="4.92632" stroke-width="0.5" stroke="black" fill="green"/>
   </g>
   <g id="cell116">
  <circle cx="369.776" cy="519.424" r="8.05261" stroke-width="0.5" stroke="black" fill="cyan"/>
  <circle cx="369.776" cy="519.424" r="4.88523" stroke-width="0.5" stroke="black" fill="cyan"/>
   </g>
   <g id="cell117">
  <circle cx="437.16" cy="513.565" r="8.07213" stroke-width="0.5" stroke="black" fill="green"/>
  <circle cx="437.16" cy="513.565" r="4.8906" stroke-width="0.5" stroke="black" fill="green"/>
   </g>
   <g id="cell118">
  <circle cx="530.164" cy="522.991" r="8.03527" stroke-width="0.5" stroke="black" fill="cyan"/>
  <circle cx="530.164" cy="522.991" r="4.86813" stroke-width="0.5" stroke="black" fill="cyan"/>
   </g>
   <g id="cell119">
  <circle cx="526.115" cy="625.202" r="8.02418" stroke-width="0.5" stroke="black" fill="green"/>
  <circle cx="526.115" cy="625.202" r="4.86209" stroke-width="0.5" stroke="black" fill="green"/>
   </g>
   <g id="cell121">
  <circle cx="388.871" cy="551.332" r="7.95" stroke-width="0.5" stroke="black" fill="magenta"/>
  <circle cx="388.871" cy="551.332" r="4.82385" stroke-width="0.5" stroke="black" fill="magenta"/>
   </g>
   <g id="cell122">
  <circle cx="604.156" cy="470.643" r="7.9229" stroke-width="0.5" stroke="black" fill="cyan"/>
  <circle cx="604.156" cy="470.643" r="4.80599" stroke-width="0.5" stroke="black" fill="cyan"/>
   </g>
   <g id="cell123">
  <circle cx="502.071" cy="643.108" r="7.87851" stroke-width="0.5" stroke="black" fill="cyan"/>
  <circle cx="502.071" cy="643.108" r="4.78096" stroke-width="0.5" stroke="black" fill="cyan"/>
   </g>
   <g id="cell124">
  <circle cx="385.014" cy="589.805" r="7.86286" stroke-width="0.5" stroke="black" fill="green"/>
  <circle cx="385.014" cy="589.805" r="4.77207" stroke-width="0.5" stroke="black" fill="green"/>
   </g>
   <g id="cell125">
  <circle cx="448.989" cy="460.756" r="7.8089" stroke-width="0.5" stroke="black" fill="cyan"/>
  <circle cx="448.989" cy="460.756" r="4.7423" stroke-width="0.5" stroke="black" fill="cyan"/>
   </g>
   <g id="cell126">
  <circle cx="418.09" cy="509.004" r="7.6303" stroke-width="0.5" stroke="black" fill="green"/>
  <circle cx="418.09" cy="509.004" r="4.64851" stroke-width="0.5" stroke="black" fill="green"/>
   </g>
   <g id="cell127">
  <circle cx="408.465" cy="599.789" r="7.63698" stroke-width="0.5" stroke="black" fill="cyan"/>
  <circle cx="408.465" cy="599.789" r="4.64085" stroke-width="0.5" stroke="black" fill="cyan"/>
   </g>
   <g id="cell128">
  <circle cx="370.435" cy="533.827" r="7.37386" stroke-width="0.5" stroke="black" fill="cyan"/>
  <circle cx="370.435" cy="533.827" r="4.51193" stroke-width="0.5" stroke="black" fill="cyan"/>
   </g>
   <g id="cell131">
  <circle cx="582.614" cy="537.484" r="7.24323" stroke-width="0.5" stroke="black" fill="cyan"/>
  <circle cx="582.614" cy="537.484" r="4.4131" stroke-width="0.5" stroke="black" fill="cyan"/>
   </g>
   <g id="cell132">
  <circle cx="504.503" cy="441.465" r="7.08476" stroke-width="0.5" stroke="black" fill="magenta"/>
  <circle cx="504.503" cy="441.465" r="4.3262" stroke-width="0.5" stroke="black" fill="magenta"/>
   </g>
   <g id="cell133">
  <circle cx="531.27" cy="408.635" r="7.1497" stroke-width="0.5" stroke="black" fill="magenta"/>
  <circle cx="531.27" cy="408.635" r="4.34001" stroke-width="0.5" stroke="black" fill="magenta"/>
   </g>
   <g id="cell134">
  <circle cx="518.564" cy="588.765" r="7.0545" stroke-width="0.5" stroke="black" fill="magenta"/>
  <circle cx="518.564" cy="588.765" r="4.27772" stroke-width="0.5" stroke="black" fill="magenta"/>
   </g>
   <g id="cell135">
  <circle cx="565.072" cy="479.476" r="6.92764" stroke-width="0.5" stroke="black" fill="cyan"/>
  <circle cx="565.072" cy="479.476" r="4.1918" stroke-width="0.5" stroke="black" fill="cyan"/>
   </g>
  </g>
 </g>
  <rect x="775" y="1035" width="200" height="10" stroke-width="2" stroke="rgb(255,255,255)" fill="rgb(0,0,0)"/>
  <text x="781.25" y="1028.75"
   font-family="Arial" font-size="25" fill="black" >
   200 &#956;m
  </text>
  <text x="25" y="1045"
   font-family="Arial" font-size="18.75" fill="black" >
   0 days, 0 hours, 0 minutes, and 26.7448 seconds
  </text>
  <rect x="0" y="70" width="1000" height="1000" stroke-width="2" stroke="rgb(0,0,0)" fill="none"/>
</svg>
