<?xml version="1.0" encoding="UTF-8" standalone="no"?>
<!-- Created with PhysiCell (http://PhysiCell.MathCancer.org/) -->
<svg 
 xmlns:dc="http://purl.org/dc/elements/1.1/" 
 xmlns:cc="http://creativecommons.org/ns#" 
 xmlns:rdf="http://www.w3.org/1999/02/22-rdf-syntax-ns#" 
 xmlns:svg="http://www.w3.org/2000/svg" 
 xmlns="http://www.w3.org/2000/svg" 
 version="1.1" 
 width="1000" 
 height="1070" 
 id="svg2">
  <rect x="0" y="0" width="1000" height="1070" stroke-width="2" stroke="white" fill="white"/>
  <text x="12.5" y="30"
   font-family="Arial" font-size="25" fill="black" >
   Current time: 1 days, 11 hours, and 30.00 minutes, z = 0.00 &#956;m
  </text>
  <text x="12.5" y="57.5"
   font-family="Arial" font-size="23.75" fill="black" >
   193 agents
  </text>
 <g id="tissue" 
    transform="translate(0,1070) scale(1,-1)">
  <g id="ECM">
  </g>
  <g id="cells">
   <g id="cell0">
  <circle cx="510.758" cy="534.204" r="8.41259" stroke-width="0.5" stroke="black" fill="magenta"/>
  <circle cx="510.758" cy="534.204" r="5.05165" stroke-width="0.5" stroke="black" fill="magenta"/>
   </g>
   <g id="cell147">
  <circle cx="421.995" cy="575.909" r="8.35018" stroke-width="0.5" stroke="black" fill="green"/>
  <circle cx="421.995" cy="575.909" r="5.02734" stroke-width="0.5" stroke="black" fill="green"/>
   </g>
   <g id="cell2">
  <circle cx="503.137" cy="593.237" r="8.39571" stroke-width="0.5" stroke="black" fill="magenta"/>
  <circle cx="503.137" cy="593.237" r="5.04599" stroke-width="0.5" stroke="black" fill="magenta"/>
   </g>
   <g id="cell3">
  <circle cx="538.567" cy="545.579" r="8.39021" stroke-width="0.5" stroke="black" fill="magenta"/>
  <circle cx="538.567" cy="545.579" r="5.0439" stroke-width="0.5" stroke="black" fill="magenta"/>
   </g>
   <g id="cell4">
  <circle cx="452.322" cy="433.804" r="8.4126" stroke-width="0.5" stroke="black" fill="magenta"/>
  <circle cx="452.322" cy="433.804" r="5.05165" stroke-width="0.5" stroke="black" fill="magenta"/>
   </g>
   <g id="cell5">
  <circle cx="461.813" cy="495.438" r="8.36032" stroke-width="0.5" stroke="black" fill="magenta"/>
  <circle cx="461.813" cy="495.438" r="5.03165" stroke-width="0.5" stroke="black" fill="magenta"/>
   </g>
   <g id="cell6">
  <circle cx="596.216" cy="515.522" r="8.41232" stroke-width="0.5" stroke="black" fill="magenta"/>
  <circle cx="596.216" cy="515.522" r="5.05158" stroke-width="0.5" stroke="black" fill="magenta"/>
   </g>
   <g id="cell7">
  <circle cx="512.604" cy="464.52" r="8.41271" stroke-width="0.5" stroke="black" fill="magenta"/>
  <circle cx="512.604" cy="464.52" r="5.05167" stroke-width="0.5" stroke="black" fill="magenta"/>
   </g>
   <g id="cell8">
  <circle cx="364.585" cy="549.016" r="8.3632" stroke-width="0.5" stroke="black" fill="magenta"/>
  <circle cx="364.585" cy="549.016" r="5.03288" stroke-width="0.5" stroke="black" fill="magenta"/>
   </g>
   <g id="cell9">
  <circle cx="462.853" cy="601.886" r="8.4123" stroke-width="0.5" stroke="black" fill="magenta"/>
  <circle cx="462.853" cy="601.886" r="5.05158" stroke-width="0.5" stroke="black" fill="magenta"/>
   </g>
   <g id="cell10">
  <circle cx="588.322" cy="396.628" r="8.36392" stroke-width="0.5" stroke="black" fill="magenta"/>
  <circle cx="588.322" cy="396.628" r="5.03377" stroke-width="0.5" stroke="black" fill="magenta"/>
   </g>
   <g id="cell11">
  <circle cx="589.748" cy="590.273" r="8.41271" stroke-width="0.5" stroke="black" fill="magenta"/>
  <circle cx="589.748" cy="590.273" r="5.05167" stroke-width="0.5" stroke="black" fill="magenta"/>
   </g>
   <g id="cell12">
  <circle cx="495.537" cy="580.262" r="8.41271" stroke-width="0.5" stroke="black" fill="magenta"/>
  <circle cx="495.537" cy="580.262" r="5.05167" stroke-width="0.5" stroke="black" fill="magenta"/>
   </g>
   <g id="cell13">
  <circle cx="377.4" cy="558.303" r="8.40699" stroke-width="0.5" stroke="black" fill="magenta"/>
  <circle cx="377.4" cy="558.303" r="5.04999" stroke-width="0.5" stroke="black" fill="magenta"/>
   </g>
   <g id="cell14">
  <circle cx="529.242" cy="395.21" r="8.18009" stroke-width="0.5" stroke="black" fill="magenta"/>
  <circle cx="529.242" cy="395.21" r="4.94644" stroke-width="0.5" stroke="black" fill="magenta"/>
   </g>
   <g id="cell15">
  <circle cx="384.636" cy="488.032" r="6.66225" stroke-width="0.5" stroke="black" fill="magenta"/>
  <circle cx="384.636" cy="488.032" r="4.03608" stroke-width="0.5" stroke="black" fill="magenta"/>
   </g>
   <g id="cell16">
  <circle cx="428.622" cy="415.498" r="8.41271" stroke-width="0.5" stroke="black" fill="magenta"/>
  <circle cx="428.622" cy="415.498" r="5.05167" stroke-width="0.5" stroke="black" fill="magenta"/>
   </g>
   <g id="cell17">
  <circle cx="579.785" cy="483.937" r="8.41185" stroke-width="0.5" stroke="black" fill="magenta"/>
  <circle cx="579.785" cy="483.937" r="5.05146" stroke-width="0.5" stroke="black" fill="magenta"/>
   </g>
   <g id="cell18">
  <circle cx="514.27" cy="393.12" r="8.41261" stroke-width="0.5" stroke="black" fill="magenta"/>
  <circle cx="514.27" cy="393.12" r="5.05165" stroke-width="0.5" stroke="black" fill="magenta"/>
   </g>
   <g id="cell19">
  <circle cx="453.892" cy="541.515" r="8.41217" stroke-width="0.5" stroke="black" fill="magenta"/>
  <circle cx="453.892" cy="541.515" r="5.05154" stroke-width="0.5" stroke="black" fill="magenta"/>
   </g>
   <g id="cell20">
  <circle cx="525.744" cy="420.945" r="8.41271" stroke-width="0.5" stroke="black" fill="magenta"/>
  <circle cx="525.744" cy="420.945" r="5.05167" stroke-width="0.5" stroke="black" fill="magenta"/>
   </g>
   <g id="cell141">
  <circle cx="494.345" cy="441.307" r="7.7318" stroke-width="0.5" stroke="black" fill="magenta"/>
  <circle cx="494.345" cy="441.307" r="4.71406" stroke-width="0.5" stroke="black" fill="magenta"/>
   </g>
   <g id="cell22">
  <circle cx="559.681" cy="496.729" r="8.41196" stroke-width="0.5" stroke="black" fill="magenta"/>
  <circle cx="559.681" cy="496.729" r="5.05149" stroke-width="0.5" stroke="black" fill="magenta"/>
   </g>
   <g id="cell23">
  <circle cx="534.947" cy="485.664" r="8.41271" stroke-width="0.5" stroke="black" fill="magenta"/>
  <circle cx="534.947" cy="485.664" r="5.05167" stroke-width="0.5" stroke="black" fill="magenta"/>
   </g>
   <g id="cell24">
  <circle cx="563.823" cy="381.441" r="8.41271" stroke-width="0.5" stroke="black" fill="magenta"/>
  <circle cx="563.823" cy="381.441" r="5.05167" stroke-width="0.5" stroke="black" fill="magenta"/>
   </g>
   <g id="cell25">
  <circle cx="653.533" cy="564.512" r="8.31346" stroke-width="0.5" stroke="black" fill="green"/>
  <circle cx="653.533" cy="564.512" r="5.01095" stroke-width="0.5" stroke="black" fill="green"/>
   </g>
   <g id="cell26">
  <circle cx="548.676" cy="401.469" r="8.41271" stroke-width="0.5" stroke="black" fill="green"/>
  <circle cx="548.676" cy="401.469" r="5.05167" stroke-width="0.5" stroke="black" fill="green"/>
   </g>
   <g id="cell27">
  <circle cx="452.046" cy="389.547" r="3.18664" stroke-width="0.5" stroke="black" fill="green"/>
  <circle cx="452.046" cy="389.547" r="2.5292" stroke-width="0.5" stroke="black" fill="black"/>
   </g>
   <g id="cell28">
  <circle cx="441.797" cy="551.132" r="8.41271" stroke-width="0.5" stroke="black" fill="green"/>
  <circle cx="441.797" cy="551.132" r="5.05167" stroke-width="0.5" stroke="black" fill="green"/>
   </g>
   <g id="cell29">
  <circle cx="466.614" cy="517.845" r="8.40926" stroke-width="0.5" stroke="black" fill="green"/>
  <circle cx="466.614" cy="517.845" r="5.05072" stroke-width="0.5" stroke="black" fill="green"/>
   </g>
   <g id="cell30">
  <circle cx="480.707" cy="539.826" r="8.41271" stroke-width="0.5" stroke="black" fill="green"/>
  <circle cx="480.707" cy="539.826" r="5.05167" stroke-width="0.5" stroke="black" fill="green"/>
   </g>
   <g id="cell31">
  <circle cx="408.041" cy="530.838" r="7.63698" stroke-width="0.5" stroke="black" fill="green"/>
  <circle cx="408.041" cy="530.838" r="4.64085" stroke-width="0.5" stroke="black" fill="green"/>
   </g>
   <g id="cell32">
  <circle cx="425.36" cy="455.393" r="8.26246" stroke-width="0.5" stroke="black" fill="green"/>
  <circle cx="425.36" cy="455.393" r="4.98639" stroke-width="0.5" stroke="black" fill="green"/>
   </g>
   <g id="cell33">
  <circle cx="498.074" cy="413.62" r="8.41245" stroke-width="0.5" stroke="black" fill="green"/>
  <circle cx="498.074" cy="413.62" r="5.05161" stroke-width="0.5" stroke="black" fill="green"/>
   </g>
   <g id="cell34">
  <circle cx="391.848" cy="454.613" r="8.41238" stroke-width="0.5" stroke="black" fill="green"/>
  <circle cx="391.848" cy="454.613" r="5.0516" stroke-width="0.5" stroke="black" fill="green"/>
   </g>
   <g id="cell35">
  <circle cx="545.549" cy="559.013" r="8.4114" stroke-width="0.5" stroke="black" fill="green"/>
  <circle cx="545.549" cy="559.013" r="5.05134" stroke-width="0.5" stroke="black" fill="green"/>
   </g>
   <g id="cell36">
  <circle cx="392.194" cy="581.208" r="8.40596" stroke-width="0.5" stroke="black" fill="green"/>
  <circle cx="392.194" cy="581.208" r="5.04964" stroke-width="0.5" stroke="black" fill="green"/>
   </g>
   <g id="cell174">
  <circle cx="478.037" cy="618.334" r="8.09525" stroke-width="0.5" stroke="black" fill="green"/>
  <circle cx="478.037" cy="618.334" r="4.90053" stroke-width="0.5" stroke="black" fill="green"/>
   </g>
   <g id="cell38">
  <circle cx="525.463" cy="606.436" r="8.4122" stroke-width="0.5" stroke="black" fill="green"/>
  <circle cx="525.463" cy="606.436" r="5.05155" stroke-width="0.5" stroke="black" fill="green"/>
   </g>
   <g id="cell39">
  <circle cx="617.934" cy="499.383" r="8.15346" stroke-width="0.5" stroke="black" fill="green"/>
  <circle cx="617.934" cy="499.383" r="4.93121" stroke-width="0.5" stroke="black" fill="green"/>
   </g>
   <g id="cell40">
  <circle cx="483.592" cy="570.261" r="8.41271" stroke-width="0.5" stroke="black" fill="green"/>
  <circle cx="483.592" cy="570.261" r="5.05167" stroke-width="0.5" stroke="black" fill="green"/>
   </g>
   <g id="cell41">
  <circle cx="362.249" cy="478.751" r="8.41271" stroke-width="0.5" stroke="black" fill="green"/>
  <circle cx="362.249" cy="478.751" r="5.05167" stroke-width="0.5" stroke="black" fill="green"/>
   </g>
   <g id="cell176">
  <circle cx="469.469" cy="446.163" r="7.82014" stroke-width="0.5" stroke="black" fill="magenta"/>
  <circle cx="469.469" cy="446.163" r="4.76344" stroke-width="0.5" stroke="black" fill="magenta"/>
   </g>
   <g id="cell43">
  <circle cx="558.191" cy="445.615" r="8.41271" stroke-width="0.5" stroke="black" fill="green"/>
  <circle cx="558.191" cy="445.615" r="5.05167" stroke-width="0.5" stroke="black" fill="green"/>
   </g>
   <g id="cell44">
  <circle cx="488.362" cy="629.555" r="8.32525" stroke-width="0.5" stroke="black" fill="green"/>
  <circle cx="488.362" cy="629.555" r="5.01613" stroke-width="0.5" stroke="black" fill="green"/>
   </g>
   <g id="cell45">
  <circle cx="433.01" cy="564.167" r="8.08829" stroke-width="0.5" stroke="black" fill="green"/>
  <circle cx="433.01" cy="564.167" r="4.90709" stroke-width="0.5" stroke="black" fill="green"/>
   </g>
   <g id="cell46">
  <circle cx="521.031" cy="621.617" r="8.37596" stroke-width="0.5" stroke="black" fill="green"/>
  <circle cx="521.031" cy="621.617" r="5.0385" stroke-width="0.5" stroke="black" fill="green"/>
   </g>
   <g id="cell47">
  <circle cx="495.376" cy="511.813" r="8.41271" stroke-width="0.5" stroke="black" fill="green"/>
  <circle cx="495.376" cy="511.813" r="5.05167" stroke-width="0.5" stroke="black" fill="green"/>
   </g>
   <g id="cell48">
  <circle cx="565.803" cy="606.191" r="8.41271" stroke-width="0.5" stroke="black" fill="green"/>
  <circle cx="565.803" cy="606.191" r="5.05167" stroke-width="0.5" stroke="black" fill="green"/>
   </g>
   <g id="cell49">
  <circle cx="439.522" cy="389.166" r="7.48772" stroke-width="0.5" stroke="black" fill="green"/>
  <circle cx="439.522" cy="389.166" r="4.55316" stroke-width="0.5" stroke="black" fill="green"/>
   </g>
   <g id="cell50">
  <circle cx="508.098" cy="492.249" r="7.03647" stroke-width="0.5" stroke="black" fill="cyan"/>
  <circle cx="508.098" cy="492.249" r="4.30658" stroke-width="0.5" stroke="black" fill="cyan"/>
   </g>
   <g id="cell51">
  <circle cx="385.119" cy="604.002" r="8.33637" stroke-width="0.5" stroke="black" fill="cyan"/>
  <circle cx="385.119" cy="604.002" r="5.02176" stroke-width="0.5" stroke="black" fill="cyan"/>
   </g>
   <g id="cell120">
  <circle cx="419.153" cy="610.591" r="8.40774" stroke-width="0.5" stroke="black" fill="cyan"/>
  <circle cx="419.153" cy="610.591" r="5.05022" stroke-width="0.5" stroke="black" fill="cyan"/>
   </g>
   <g id="cell53">
  <circle cx="571.109" cy="436.134" r="8.41271" stroke-width="0.5" stroke="black" fill="cyan"/>
  <circle cx="571.109" cy="436.134" r="5.05167" stroke-width="0.5" stroke="black" fill="cyan"/>
   </g>
   <g id="cell54">
  <circle cx="486.466" cy="424.639" r="8.35062" stroke-width="0.5" stroke="black" fill="cyan"/>
  <circle cx="486.466" cy="424.639" r="5.02745" stroke-width="0.5" stroke="black" fill="cyan"/>
   </g>
   <g id="cell55">
  <circle cx="521.219" cy="477.879" r="8.41271" stroke-width="0.5" stroke="black" fill="cyan"/>
  <circle cx="521.219" cy="477.879" r="5.05167" stroke-width="0.5" stroke="black" fill="cyan"/>
   </g>
   <g id="cell56">
  <circle cx="620.688" cy="519.688" r="7.05057" stroke-width="0.5" stroke="black" fill="cyan"/>
  <circle cx="620.688" cy="519.688" r="4.32279" stroke-width="0.5" stroke="black" fill="cyan"/>
   </g>
   <g id="cell57">
  <circle cx="418.485" cy="626.59" r="8.40774" stroke-width="0.5" stroke="black" fill="cyan"/>
  <circle cx="418.485" cy="626.59" r="5.05022" stroke-width="0.5" stroke="black" fill="cyan"/>
   </g>
   <g id="cell58">
  <circle cx="550.136" cy="484.188" r="8.41271" stroke-width="0.5" stroke="black" fill="cyan"/>
  <circle cx="550.136" cy="484.188" r="5.05167" stroke-width="0.5" stroke="black" fill="cyan"/>
   </g>
   <g id="cell59">
  <circle cx="385.483" cy="439.888" r="8.41271" stroke-width="0.5" stroke="black" fill="cyan"/>
  <circle cx="385.483" cy="439.888" r="5.05167" stroke-width="0.5" stroke="black" fill="cyan"/>
   </g>
   <g id="cell60">
  <circle cx="601.516" cy="471.394" r="7.38405" stroke-width="0.5" stroke="black" fill="cyan"/>
  <circle cx="601.516" cy="471.394" r="4.48903" stroke-width="0.5" stroke="black" fill="cyan"/>
   </g>
   <g id="cell155">
  <circle cx="518.176" cy="593.134" r="8.26825" stroke-width="0.5" stroke="black" fill="magenta"/>
  <circle cx="518.176" cy="593.134" r="4.9925" stroke-width="0.5" stroke="black" fill="magenta"/>
   </g>
   <g id="cell62">
  <circle cx="524.184" cy="436.604" r="8.41271" stroke-width="0.5" stroke="black" fill="cyan"/>
  <circle cx="524.184" cy="436.604" r="5.05167" stroke-width="0.5" stroke="black" fill="cyan"/>
   </g>
   <g id="cell63">
  <circle cx="581.579" cy="553.262" r="8.4122" stroke-width="0.5" stroke="black" fill="cyan"/>
  <circle cx="581.579" cy="553.262" r="5.05155" stroke-width="0.5" stroke="black" fill="cyan"/>
   </g>
   <g id="cell64">
  <circle cx="510.817" cy="633.787" r="8.40614" stroke-width="0.5" stroke="black" fill="cyan"/>
  <circle cx="510.817" cy="633.787" r="5.0497" stroke-width="0.5" stroke="black" fill="cyan"/>
   </g>
   <g id="cell65">
  <circle cx="534.11" cy="449.118" r="8.23416" stroke-width="0.5" stroke="black" fill="cyan"/>
  <circle cx="534.11" cy="449.118" r="4.97245" stroke-width="0.5" stroke="black" fill="cyan"/>
   </g>
   <g id="cell66">
  <circle cx="550.352" cy="522.512" r="8.40801" stroke-width="0.5" stroke="black" fill="cyan"/>
  <circle cx="550.352" cy="522.512" r="5.05031" stroke-width="0.5" stroke="black" fill="cyan"/>
   </g>
   <g id="cell67">
  <circle cx="354.585" cy="492.843" r="8.41271" stroke-width="0.5" stroke="black" fill="cyan"/>
  <circle cx="354.585" cy="492.843" r="5.05167" stroke-width="0.5" stroke="black" fill="cyan"/>
   </g>
   <g id="cell68">
  <circle cx="567.197" cy="553.056" r="6.89675" stroke-width="0.5" stroke="black" fill="cyan"/>
  <circle cx="567.197" cy="553.056" r="4.17024" stroke-width="0.5" stroke="black" fill="cyan"/>
   </g>
   <g id="cell69">
  <circle cx="440.029" cy="443.41" r="8.41261" stroke-width="0.5" stroke="black" fill="cyan"/>
  <circle cx="440.029" cy="443.41" r="5.05165" stroke-width="0.5" stroke="black" fill="cyan"/>
   </g>
   <g id="cell70">
  <circle cx="573.392" cy="469.111" r="8.3937" stroke-width="0.5" stroke="black" fill="cyan"/>
  <circle cx="573.392" cy="469.111" r="5.04523" stroke-width="0.5" stroke="black" fill="cyan"/>
   </g>
   <g id="cell71">
  <circle cx="381.218" cy="528.154" r="8.30582" stroke-width="0.5" stroke="black" fill="cyan"/>
  <circle cx="381.218" cy="528.154" r="5.00808" stroke-width="0.5" stroke="black" fill="cyan"/>
   </g>
   <g id="cell72">
  <circle cx="538.105" cy="512.423" r="8.41271" stroke-width="0.5" stroke="black" fill="cyan"/>
  <circle cx="538.105" cy="512.423" r="5.05167" stroke-width="0.5" stroke="black" fill="cyan"/>
   </g>
   <g id="cell129">
  <circle cx="417.514" cy="404.503" r="8.40185" stroke-width="0.5" stroke="black" fill="green"/>
  <circle cx="417.514" cy="404.503" r="5.04822" stroke-width="0.5" stroke="black" fill="green"/>
   </g>
   <g id="cell74">
  <circle cx="542.114" cy="443.248" r="1.67536" stroke-width="0.5" stroke="black" fill="cyan"/>
  <circle cx="542.114" cy="443.248" r="1.63653" stroke-width="0.5" stroke="black" fill="black"/>
   </g>
   <g id="cell75">
  <circle cx="441.93" cy="481.278" r="7.28814" stroke-width="0.5" stroke="black" fill="cyan"/>
  <circle cx="441.93" cy="481.278" r="4.46997" stroke-width="0.5" stroke="black" fill="cyan"/>
   </g>
   <g id="cell76">
  <circle cx="511.559" cy="375.767" r="7.65831" stroke-width="0.5" stroke="black" fill="magenta"/>
  <circle cx="511.559" cy="375.767" r="4.65359" stroke-width="0.5" stroke="black" fill="magenta"/>
   </g>
   <g id="cell77">
  <circle cx="501.328" cy="428.727" r="8.36941" stroke-width="0.5" stroke="black" fill="magenta"/>
  <circle cx="501.328" cy="428.727" r="5.03571" stroke-width="0.5" stroke="black" fill="magenta"/>
   </g>
   <g id="cell78">
  <circle cx="369.373" cy="464.53" r="8.4126" stroke-width="0.5" stroke="black" fill="magenta"/>
  <circle cx="369.373" cy="464.53" r="5.05165" stroke-width="0.5" stroke="black" fill="magenta"/>
   </g>
   <g id="cell79">
  <circle cx="497.078" cy="527.398" r="8.41259" stroke-width="0.5" stroke="black" fill="magenta"/>
  <circle cx="497.078" cy="527.398" r="5.05165" stroke-width="0.5" stroke="black" fill="magenta"/>
   </g>
   <g id="cell80">
  <circle cx="605.871" cy="485.536" r="8.19463" stroke-width="0.5" stroke="black" fill="green"/>
  <circle cx="605.871" cy="485.536" r="4.95245" stroke-width="0.5" stroke="black" fill="green"/>
   </g>
   <g id="cell81">
  <circle cx="428.672" cy="505.467" r="8.40326" stroke-width="0.5" stroke="black" fill="green"/>
  <circle cx="428.672" cy="505.467" r="5.04878" stroke-width="0.5" stroke="black" fill="green"/>
   </g>
   <g id="cell82">
  <circle cx="544.273" cy="498.141" r="8.41256" stroke-width="0.5" stroke="black" fill="magenta"/>
  <circle cx="544.273" cy="498.141" r="5.05164" stroke-width="0.5" stroke="black" fill="magenta"/>
   </g>
   <g id="cell130">
  <circle cx="573.77" cy="392.743" r="8.40123" stroke-width="0.5" stroke="black" fill="magenta"/>
  <circle cx="573.77" cy="392.743" r="5.048" stroke-width="0.5" stroke="black" fill="magenta"/>
   </g>
   <g id="cell84">
  <circle cx="404.694" cy="484.353" r="8.41001" stroke-width="0.5" stroke="black" fill="green"/>
  <circle cx="404.694" cy="484.353" r="5.05094" stroke-width="0.5" stroke="black" fill="green"/>
   </g>
   <g id="cell140">
  <circle cx="525.865" cy="580.143" r="8.35726" stroke-width="0.5" stroke="black" fill="magenta"/>
  <circle cx="525.865" cy="580.143" r="5.03166" stroke-width="0.5" stroke="black" fill="magenta"/>
   </g>
   <g id="cell86">
  <circle cx="391.025" cy="565.805" r="8.4102" stroke-width="0.5" stroke="black" fill="magenta"/>
  <circle cx="391.025" cy="565.805" r="5.051" stroke-width="0.5" stroke="black" fill="magenta"/>
   </g>
   <g id="cell87">
  <circle cx="433.606" cy="520.604" r="8.32808" stroke-width="0.5" stroke="black" fill="green"/>
  <circle cx="433.606" cy="520.604" r="5.01775" stroke-width="0.5" stroke="black" fill="green"/>
   </g>
   <g id="cell88">
  <circle cx="476.047" cy="605.33" r="6.44216" stroke-width="0.5" stroke="black" fill="green"/>
  <circle cx="476.047" cy="605.33" r="3.90123" stroke-width="0.5" stroke="black" fill="green"/>
   </g>
   <g id="cell89">
  <circle cx="430.707" cy="489.873" r="8.4115" stroke-width="0.5" stroke="black" fill="green"/>
  <circle cx="430.707" cy="489.873" r="5.05138" stroke-width="0.5" stroke="black" fill="green"/>
   </g>
   <g id="cell90">
  <circle cx="580.092" cy="513.721" r="8.30898" stroke-width="0.5" stroke="black" fill="magenta"/>
  <circle cx="580.092" cy="513.721" r="5.00862" stroke-width="0.5" stroke="black" fill="magenta"/>
   </g>
   <g id="cell136">
  <circle cx="524.675" cy="540.165" r="8.39021" stroke-width="0.5" stroke="black" fill="magenta"/>
  <circle cx="524.675" cy="540.165" r="5.0439" stroke-width="0.5" stroke="black" fill="magenta"/>
   </g>
   <g id="cell92">
  <circle cx="559.703" cy="591.332" r="8.40988" stroke-width="0.5" stroke="black" fill="green"/>
  <circle cx="559.703" cy="591.332" r="5.05093" stroke-width="0.5" stroke="black" fill="green"/>
   </g>
   <g id="cell93">
  <circle cx="578.03" cy="527.511" r="7.29276" stroke-width="0.5" stroke="black" fill="cyan"/>
  <circle cx="578.03" cy="527.511" r="4.43372" stroke-width="0.5" stroke="black" fill="cyan"/>
   </g>
   <g id="cell94">
  <circle cx="541.639" cy="471.142" r="8.41217" stroke-width="0.5" stroke="black" fill="cyan"/>
  <circle cx="541.639" cy="471.142" r="5.05154" stroke-width="0.5" stroke="black" fill="cyan"/>
   </g>
   <g id="cell95">
  <circle cx="466.521" cy="533.38" r="8.41217" stroke-width="0.5" stroke="black" fill="magenta"/>
  <circle cx="466.521" cy="533.38" r="5.05154" stroke-width="0.5" stroke="black" fill="magenta"/>
   </g>
   <g id="cell96">
  <circle cx="537.763" cy="382.792" r="8.41206" stroke-width="0.5" stroke="black" fill="magenta"/>
  <circle cx="537.763" cy="382.792" r="5.05152" stroke-width="0.5" stroke="black" fill="magenta"/>
   </g>
   <g id="cell97">
  <circle cx="565.464" cy="510.587" r="8.41196" stroke-width="0.5" stroke="black" fill="magenta"/>
  <circle cx="565.464" cy="510.587" r="5.05149" stroke-width="0.5" stroke="black" fill="magenta"/>
   </g>
   <g id="cell98">
  <circle cx="405.753" cy="572.832" r="8.35018" stroke-width="0.5" stroke="black" fill="green"/>
  <circle cx="405.753" cy="572.832" r="5.02734" stroke-width="0.5" stroke="black" fill="green"/>
   </g>
   <g id="cell99">
  <circle cx="575.094" cy="498.744" r="8.41185" stroke-width="0.5" stroke="black" fill="magenta"/>
  <circle cx="575.094" cy="498.744" r="5.05146" stroke-width="0.5" stroke="black" fill="magenta"/>
   </g>
   <g id="cell100">
  <circle cx="569.136" cy="539.05" r="8.41154" stroke-width="0.5" stroke="black" fill="cyan"/>
  <circle cx="569.136" cy="539.05" r="5.05139" stroke-width="0.5" stroke="black" fill="cyan"/>
   </g>
   <g id="cell101">
  <circle cx="458.618" cy="628.884" r="7.35833" stroke-width="0.5" stroke="black" fill="magenta"/>
  <circle cx="458.618" cy="628.884" r="4.47248" stroke-width="0.5" stroke="black" fill="magenta"/>
   </g>
   <g id="cell102">
  <circle cx="444.532" cy="508.815" r="8.4115" stroke-width="0.5" stroke="black" fill="green"/>
  <circle cx="444.532" cy="508.815" r="5.05138" stroke-width="0.5" stroke="black" fill="green"/>
   </g>
   <g id="cell103">
  <circle cx="554.608" cy="617.981" r="8.1037" stroke-width="0.5" stroke="black" fill="green"/>
  <circle cx="554.608" cy="617.981" r="4.90519" stroke-width="0.5" stroke="black" fill="green"/>
   </g>
   <g id="cell104">
  <circle cx="553.314" cy="540.785" r="8.4114" stroke-width="0.5" stroke="black" fill="green"/>
  <circle cx="553.314" cy="540.785" r="5.05134" stroke-width="0.5" stroke="black" fill="green"/>
   </g>
   <g id="cell105">
  <circle cx="416.15" cy="494.955" r="8.41118" stroke-width="0.5" stroke="black" fill="green"/>
  <circle cx="416.15" cy="494.955" r="5.05128" stroke-width="0.5" stroke="black" fill="green"/>
   </g>
   <g id="cell106">
  <circle cx="648.568" cy="530.975" r="7.96283" stroke-width="0.5" stroke="black" fill="green"/>
  <circle cx="648.568" cy="530.975" r="4.82851" stroke-width="0.5" stroke="black" fill="green"/>
   </g>
   <g id="cell107">
  <circle cx="383.526" cy="512.439" r="8.41083" stroke-width="0.5" stroke="black" fill="cyan"/>
  <circle cx="383.526" cy="512.439" r="5.05118" stroke-width="0.5" stroke="black" fill="cyan"/>
   </g>
   <g id="cell108">
  <circle cx="461.22" cy="642.832" r="8.41031" stroke-width="0.5" stroke="black" fill="magenta"/>
  <circle cx="461.22" cy="642.832" r="5.05104" stroke-width="0.5" stroke="black" fill="magenta"/>
   </g>
   <g id="cell109">
  <circle cx="447.155" cy="637.225" r="8.41031" stroke-width="0.5" stroke="black" fill="magenta"/>
  <circle cx="447.155" cy="637.225" r="5.05104" stroke-width="0.5" stroke="black" fill="magenta"/>
   </g>
   <g id="cell110">
  <circle cx="538.782" cy="572.461" r="7.6988" stroke-width="0.5" stroke="black" fill="green"/>
  <circle cx="538.782" cy="572.461" r="4.6778" stroke-width="0.5" stroke="black" fill="green"/>
   </g>
   <g id="cell111">
  <circle cx="627.555" cy="556.079" r="8.40988" stroke-width="0.5" stroke="black" fill="green"/>
  <circle cx="627.555" cy="556.079" r="5.05092" stroke-width="0.5" stroke="black" fill="green"/>
   </g>
   <g id="cell112">
  <circle cx="378.295" cy="573.683" r="8.4102" stroke-width="0.5" stroke="black" fill="magenta"/>
  <circle cx="378.295" cy="573.683" r="5.051" stroke-width="0.5" stroke="black" fill="magenta"/>
   </g>
   <g id="cell113">
  <circle cx="418.985" cy="479.154" r="8.41001" stroke-width="0.5" stroke="black" fill="green"/>
  <circle cx="418.985" cy="479.154" r="5.05094" stroke-width="0.5" stroke="black" fill="green"/>
   </g>
   <g id="cell114">
  <circle cx="501.103" cy="454.292" r="8.39685" stroke-width="0.5" stroke="black" fill="magenta"/>
  <circle cx="501.103" cy="454.292" r="5.04655" stroke-width="0.5" stroke="black" fill="magenta"/>
   </g>
   <g id="cell115">
  <circle cx="452.776" cy="525.902" r="8.40926" stroke-width="0.5" stroke="black" fill="green"/>
  <circle cx="452.776" cy="525.902" r="5.05072" stroke-width="0.5" stroke="black" fill="green"/>
   </g>
   <g id="cell116">
  <circle cx="368.688" cy="518.47" r="8.40821" stroke-width="0.5" stroke="black" fill="cyan"/>
  <circle cx="368.688" cy="518.47" r="5.05042" stroke-width="0.5" stroke="black" fill="cyan"/>
   </g>
   <g id="cell173">
  <circle cx="539.265" cy="609.118" r="7.45184" stroke-width="0.5" stroke="black" fill="green"/>
  <circle cx="539.265" cy="609.118" r="4.55228" stroke-width="0.5" stroke="black" fill="green"/>
   </g>
   <g id="cell118">
  <circle cx="523.256" cy="525.155" r="8.11928" stroke-width="0.5" stroke="black" fill="cyan"/>
  <circle cx="523.256" cy="525.155" r="4.91382" stroke-width="0.5" stroke="black" fill="cyan"/>
   </g>
   <g id="cell119">
  <circle cx="525.827" cy="637.648" r="8.36478" stroke-width="0.5" stroke="black" fill="green"/>
  <circle cx="525.827" cy="637.648" r="5.03387" stroke-width="0.5" stroke="black" fill="green"/>
   </g>
   <g id="cell121">
  <circle cx="390.626" cy="550.774" r="8.40699" stroke-width="0.5" stroke="black" fill="magenta"/>
  <circle cx="390.626" cy="550.774" r="5.04999" stroke-width="0.5" stroke="black" fill="magenta"/>
   </g>
   <g id="cell122">
  <circle cx="615.365" cy="458.535" r="8.21523" stroke-width="0.5" stroke="black" fill="cyan"/>
  <circle cx="615.365" cy="458.535" r="4.96352" stroke-width="0.5" stroke="black" fill="cyan"/>
   </g>
   <g id="cell123">
  <circle cx="499.59" cy="645.056" r="8.40614" stroke-width="0.5" stroke="black" fill="cyan"/>
  <circle cx="499.59" cy="645.056" r="5.0497" stroke-width="0.5" stroke="black" fill="cyan"/>
   </g>
   <g id="cell124">
  <circle cx="378.603" cy="589.378" r="8.40596" stroke-width="0.5" stroke="black" fill="green"/>
  <circle cx="378.603" cy="589.378" r="5.04964" stroke-width="0.5" stroke="black" fill="green"/>
   </g>
   <g id="cell125">
  <circle cx="454.928" cy="459.271" r="6.9536" stroke-width="0.5" stroke="black" fill="cyan"/>
  <circle cx="454.928" cy="459.271" r="4.21168" stroke-width="0.5" stroke="black" fill="cyan"/>
   </g>
   <g id="cell126">
  <circle cx="413.091" cy="510.1" r="8.40326" stroke-width="0.5" stroke="black" fill="green"/>
  <circle cx="413.091" cy="510.1" r="5.04878" stroke-width="0.5" stroke="black" fill="green"/>
   </g>
   <g id="cell127">
  <circle cx="413.479" cy="595.643" r="8.40327" stroke-width="0.5" stroke="black" fill="cyan"/>
  <circle cx="413.479" cy="595.643" r="5.04872" stroke-width="0.5" stroke="black" fill="cyan"/>
   </g>
   <g id="cell128">
  <circle cx="352.871" cy="538.012" r="7.87154" stroke-width="0.5" stroke="black" fill="cyan"/>
  <circle cx="352.871" cy="538.012" r="4.77871" stroke-width="0.5" stroke="black" fill="cyan"/>
   </g>
   <g id="cell131">
  <circle cx="583.704" cy="539.222" r="6.8264" stroke-width="0.5" stroke="black" fill="cyan"/>
  <circle cx="583.704" cy="539.222" r="4.12417" stroke-width="0.5" stroke="black" fill="cyan"/>
   </g>
   <g id="cell132">
  <circle cx="509.163" cy="441.525" r="8.39685" stroke-width="0.5" stroke="black" fill="magenta"/>
  <circle cx="509.163" cy="441.525" r="5.04655" stroke-width="0.5" stroke="black" fill="magenta"/>
   </g>
   <g id="cell133">
  <circle cx="535.067" cy="408.996" r="8.39708" stroke-width="0.5" stroke="black" fill="magenta"/>
  <circle cx="535.067" cy="408.996" r="5.0465" stroke-width="0.5" stroke="black" fill="magenta"/>
   </g>
   <g id="cell134">
  <circle cx="510.711" cy="580.199" r="8.37263" stroke-width="0.5" stroke="black" fill="magenta"/>
  <circle cx="510.711" cy="580.199" r="5.03747" stroke-width="0.5" stroke="black" fill="magenta"/>
   </g>
   <g id="cell135">
  <circle cx="565.088" cy="482.311" r="8.3937" stroke-width="0.5" stroke="black" fill="cyan"/>
  <circle cx="565.088" cy="482.311" r="5.04523" stroke-width="0.5" stroke="black" fill="cyan"/>
   </g>
   <g id="cell137">
  <circle cx="377.378" cy="476.99" r="8.38602" stroke-width="0.5" stroke="black" fill="magenta"/>
  <circle cx="377.378" cy="476.99" r="5.04228" stroke-width="0.5" stroke="black" fill="magenta"/>
   </g>
   <g id="cell138">
  <circle cx="533.275" cy="593.175" r="8.26825" stroke-width="0.5" stroke="black" fill="magenta"/>
  <circle cx="533.275" cy="593.175" r="4.9925" stroke-width="0.5" stroke="black" fill="magenta"/>
   </g>
   <g id="cell139">
  <circle cx="510.11" cy="606.893" r="8.37596" stroke-width="0.5" stroke="black" fill="green"/>
  <circle cx="510.11" cy="606.893" r="5.0385" stroke-width="0.5" stroke="black" fill="green"/>
   </g>
   <g id="cell142">
  <circle cx="584.323" cy="382.059" r="8.36392" stroke-width="0.5" stroke="black" fill="magenta"/>
  <circle cx="584.323" cy="382.059" r="5.03377" stroke-width="0.5" stroke="black" fill="magenta"/>
   </g>
   <g id="cell143">
  <circle cx="533.607" cy="627.424" r="6.63913" stroke-width="0.5" stroke="black" fill="green"/>
  <circle cx="533.607" cy="627.424" r="3.99539" stroke-width="0.5" stroke="black" fill="green"/>
   </g>
   <g id="cell144">
  <circle cx="378.185" cy="543.157" r="8.3632" stroke-width="0.5" stroke="black" fill="magenta"/>
  <circle cx="378.185" cy="543.157" r="5.03288" stroke-width="0.5" stroke="black" fill="magenta"/>
   </g>
   <g id="cell145">
  <circle cx="455.732" cy="482.493" r="7.53608" stroke-width="0.5" stroke="black" fill="magenta"/>
  <circle cx="455.732" cy="482.493" r="4.58719" stroke-width="0.5" stroke="black" fill="magenta"/>
   </g>
   <g id="cell146">
  <circle cx="459.632" cy="420.449" r="8.35062" stroke-width="0.5" stroke="black" fill="cyan"/>
  <circle cx="459.632" cy="420.449" r="5.02745" stroke-width="0.5" stroke="black" fill="cyan"/>
   </g>
   <g id="cell148">
  <circle cx="400.969" cy="605.511" r="8.33637" stroke-width="0.5" stroke="black" fill="cyan"/>
  <circle cx="400.969" cy="605.511" r="5.02176" stroke-width="0.5" stroke="black" fill="cyan"/>
   </g>
   <g id="cell149">
  <circle cx="439.889" cy="535.179" r="8.32808" stroke-width="0.5" stroke="black" fill="green"/>
  <circle cx="439.889" cy="535.179" r="5.01775" stroke-width="0.5" stroke="black" fill="green"/>
   </g>
   <g id="cell150">
  <circle cx="472.655" cy="632.505" r="8.32525" stroke-width="0.5" stroke="black" fill="green"/>
  <circle cx="472.655" cy="632.505" r="5.01613" stroke-width="0.5" stroke="black" fill="green"/>
   </g>
   <g id="cell151">
  <circle cx="522.397" cy="509.696" r="8.32291" stroke-width="0.5" stroke="black" fill="cyan"/>
  <circle cx="522.397" cy="509.696" r="5.01502" stroke-width="0.5" stroke="black" fill="cyan"/>
   </g>
   <g id="cell152">
  <circle cx="643.134" cy="552.663" r="8.31346" stroke-width="0.5" stroke="black" fill="green"/>
  <circle cx="643.134" cy="552.663" r="5.01095" stroke-width="0.5" stroke="black" fill="green"/>
   </g>
   <g id="cell153">
  <circle cx="395.793" cy="522.379" r="8.30582" stroke-width="0.5" stroke="black" fill="cyan"/>
  <circle cx="395.793" cy="522.379" r="5.00808" stroke-width="0.5" stroke="black" fill="cyan"/>
   </g>
   <g id="cell154">
  <circle cx="588.762" cy="503.185" r="7.71723" stroke-width="0.5" stroke="black" fill="magenta"/>
  <circle cx="588.762" cy="503.185" r="4.69766" stroke-width="0.5" stroke="black" fill="magenta"/>
   </g>
   <g id="cell156">
  <circle cx="403.702" cy="557.656" r="8.13278" stroke-width="0.5" stroke="black" fill="green"/>
  <circle cx="403.702" cy="557.656" r="4.92663" stroke-width="0.5" stroke="black" fill="green"/>
   </g>
   <g id="cell157">
  <circle cx="391.994" cy="476.595" r="8.25718" stroke-width="0.5" stroke="black" fill="magenta"/>
  <circle cx="391.994" cy="476.595" r="4.9856" stroke-width="0.5" stroke="black" fill="magenta"/>
   </g>
   <g id="cell158">
  <circle cx="431.706" cy="470.985" r="8.18096" stroke-width="0.5" stroke="black" fill="green"/>
  <circle cx="431.706" cy="470.985" r="4.95066" stroke-width="0.5" stroke="black" fill="green"/>
   </g>
   <g id="cell159">
  <circle cx="440.589" cy="458.846" r="8.18096" stroke-width="0.5" stroke="black" fill="green"/>
  <circle cx="440.589" cy="458.846" r="4.95066" stroke-width="0.5" stroke="black" fill="green"/>
   </g>
   <g id="cell160">
  <circle cx="418.191" cy="560.96" r="8.16083" stroke-width="0.5" stroke="black" fill="green"/>
  <circle cx="418.191" cy="560.96" r="4.94072" stroke-width="0.5" stroke="black" fill="green"/>
   </g>
   <g id="cell161">
  <circle cx="527.974" cy="463.603" r="8.23416" stroke-width="0.5" stroke="black" fill="cyan"/>
  <circle cx="527.974" cy="463.603" r="4.97245" stroke-width="0.5" stroke="black" fill="cyan"/>
   </g>
   <g id="cell162">
  <circle cx="615.99" cy="474.05" r="8.21523" stroke-width="0.5" stroke="black" fill="cyan"/>
  <circle cx="615.99" cy="474.05" r="4.96352" stroke-width="0.5" stroke="black" fill="cyan"/>
   </g>
   <g id="cell163">
  <circle cx="426.696" cy="548.385" r="8.08829" stroke-width="0.5" stroke="black" fill="green"/>
  <circle cx="426.696" cy="548.385" r="4.90709" stroke-width="0.5" stroke="black" fill="green"/>
   </g>
   <g id="cell164">
  <circle cx="463.856" cy="470.136" r="8.21452" stroke-width="0.5" stroke="black" fill="cyan"/>
  <circle cx="463.856" cy="470.136" r="4.96329" stroke-width="0.5" stroke="black" fill="cyan"/>
   </g>
   <g id="cell165">
  <circle cx="411.903" cy="545.007" r="8.13278" stroke-width="0.5" stroke="black" fill="green"/>
  <circle cx="411.903" cy="545.007" r="4.92663" stroke-width="0.5" stroke="black" fill="green"/>
   </g>
   <g id="cell166">
  <circle cx="602.672" cy="500.59" r="8.19463" stroke-width="0.5" stroke="black" fill="green"/>
  <circle cx="602.672" cy="500.59" r="4.95245" stroke-width="0.5" stroke="black" fill="green"/>
   </g>
   <g id="cell167">
  <circle cx="466.864" cy="387.289" r="8.1947" stroke-width="0.5" stroke="black" fill="green"/>
  <circle cx="466.864" cy="387.289" r="4.95246" stroke-width="0.5" stroke="black" fill="green"/>
   </g>
   <g id="cell168">
  <circle cx="520.321" cy="406.928" r="8.18009" stroke-width="0.5" stroke="black" fill="magenta"/>
  <circle cx="520.321" cy="406.928" r="4.94644" stroke-width="0.5" stroke="black" fill="magenta"/>
   </g>
   <g id="cell169">
  <circle cx="466.408" cy="433.159" r="7.10091" stroke-width="0.5" stroke="black" fill="magenta"/>
  <circle cx="466.408" cy="433.159" r="4.35911" stroke-width="0.5" stroke="black" fill="magenta"/>
   </g>
   <g id="cell170">
  <circle cx="628.937" cy="488.432" r="8.15346" stroke-width="0.5" stroke="black" fill="green"/>
  <circle cx="628.937" cy="488.432" r="4.93121" stroke-width="0.5" stroke="black" fill="green"/>
   </g>
   <g id="cell171">
  <circle cx="537.18" cy="530.691" r="8.11928" stroke-width="0.5" stroke="black" fill="cyan"/>
  <circle cx="537.18" cy="530.691" r="4.91382" stroke-width="0.5" stroke="black" fill="cyan"/>
   </g>
   <g id="cell172">
  <circle cx="509.616" cy="519.093" r="8.05633" stroke-width="0.5" stroke="black" fill="cyan"/>
  <circle cx="509.616" cy="519.093" r="4.88558" stroke-width="0.5" stroke="black" fill="cyan"/>
   </g>
   <g id="cell175">
  <circle cx="638.118" cy="539.62" r="6.4979" stroke-width="0.5" stroke="black" fill="green"/>
  <circle cx="638.118" cy="539.62" r="3.95918" stroke-width="0.5" stroke="black" fill="green"/>
   </g>
   <g id="cell177">
  <circle cx="366.868" cy="533.811" r="7.87154" stroke-width="0.5" stroke="black" fill="cyan"/>
  <circle cx="366.868" cy="533.811" r="4.77871" stroke-width="0.5" stroke="black" fill="cyan"/>
   </g>
   <g id="cell178">
  <circle cx="483.157" cy="449.337" r="7.7318" stroke-width="0.5" stroke="black" fill="magenta"/>
  <circle cx="483.157" cy="449.337" r="4.71406" stroke-width="0.5" stroke="black" fill="magenta"/>
   </g>
   <g id="cell179">
  <circle cx="447.177" cy="493.93" r="7.6993" stroke-width="0.5" stroke="black" fill="cyan"/>
  <circle cx="447.177" cy="493.93" r="4.69233" stroke-width="0.5" stroke="black" fill="cyan"/>
   </g>
   <g id="cell180">
  <circle cx="592.266" cy="490.269" r="7.71723" stroke-width="0.5" stroke="black" fill="magenta"/>
  <circle cx="592.266" cy="490.269" r="4.69766" stroke-width="0.5" stroke="black" fill="magenta"/>
   </g>
   <g id="cell181">
  <circle cx="545.689" cy="584.904" r="7.6988" stroke-width="0.5" stroke="black" fill="green"/>
  <circle cx="545.689" cy="584.904" r="4.6778" stroke-width="0.5" stroke="black" fill="green"/>
   </g>
   <g id="cell182">
  <circle cx="449.183" cy="470.582" r="7.28814" stroke-width="0.5" stroke="black" fill="cyan"/>
  <circle cx="449.183" cy="470.582" r="4.46997" stroke-width="0.5" stroke="black" fill="cyan"/>
   </g>
   <g id="cell183">
  <circle cx="523.498" cy="382.222" r="7.65831" stroke-width="0.5" stroke="black" fill="magenta"/>
  <circle cx="523.498" cy="382.222" r="4.65359" stroke-width="0.5" stroke="black" fill="magenta"/>
   </g>
   <g id="cell184">
  <circle cx="546.969" cy="598.608" r="7.45184" stroke-width="0.5" stroke="black" fill="green"/>
  <circle cx="546.969" cy="598.608" r="4.55228" stroke-width="0.5" stroke="black" fill="green"/>
   </g>
   <g id="cell185">
  <circle cx="419.272" cy="522.88" r="7.0768" stroke-width="0.5" stroke="black" fill="green"/>
  <circle cx="419.272" cy="522.88" r="4.33822" stroke-width="0.5" stroke="black" fill="green"/>
   </g>
   <g id="cell186">
  <circle cx="607.624" cy="524.56" r="6.93348" stroke-width="0.5" stroke="black" fill="cyan"/>
  <circle cx="607.624" cy="524.56" r="4.25272" stroke-width="0.5" stroke="black" fill="cyan"/>
   </g>
   <g id="cell187">
  <circle cx="469.331" cy="483.391" r="7.53608" stroke-width="0.5" stroke="black" fill="magenta"/>
  <circle cx="469.331" cy="483.391" r="4.58719" stroke-width="0.5" stroke="black" fill="magenta"/>
   </g>
   <g id="cell188">
  <circle cx="618.146" cy="532.558" r="7.05057" stroke-width="0.5" stroke="black" fill="cyan"/>
  <circle cx="618.146" cy="532.558" r="4.32279" stroke-width="0.5" stroke="black" fill="cyan"/>
   </g>
   <g id="cell189">
  <circle cx="425.567" cy="534.256" r="7.0768" stroke-width="0.5" stroke="black" fill="green"/>
  <circle cx="425.567" cy="534.256" r="4.33822" stroke-width="0.5" stroke="black" fill="green"/>
   </g>
   <g id="cell190">
  <circle cx="432.223" cy="401.282" r="7.48772" stroke-width="0.5" stroke="black" fill="green"/>
  <circle cx="432.223" cy="401.282" r="4.55316" stroke-width="0.5" stroke="black" fill="green"/>
   </g>
   <g id="cell191">
  <circle cx="478.942" cy="436.695" r="7.10091" stroke-width="0.5" stroke="black" fill="magenta"/>
  <circle cx="478.942" cy="436.695" r="4.35911" stroke-width="0.5" stroke="black" fill="magenta"/>
   </g>
   <g id="cell192">
  <circle cx="610.305" cy="511.967" r="6.93348" stroke-width="0.5" stroke="black" fill="cyan"/>
  <circle cx="610.305" cy="511.967" r="4.25272" stroke-width="0.5" stroke="black" fill="cyan"/>
   </g>
   <g id="cell193">
  <circle cx="587.792" cy="471.815" r="7.38405" stroke-width="0.5" stroke="black" fill="cyan"/>
  <circle cx="587.792" cy="471.815" r="4.48903" stroke-width="0.5" stroke="black" fill="cyan"/>
   </g>
   <g id="cell194">
  <circle cx="446.796" cy="623.021" r="7.35833" stroke-width="0.5" stroke="black" fill="magenta"/>
  <circle cx="446.796" cy="623.021" r="4.47248" stroke-width="0.5" stroke="black" fill="magenta"/>
   </g>
   <g id="cell195">
  <circle cx="564.689" cy="524.963" r="7.29276" stroke-width="0.5" stroke="black" fill="cyan"/>
  <circle cx="564.689" cy="524.963" r="4.43372" stroke-width="0.5" stroke="black" fill="cyan"/>
   </g>
   <g id="cell196">
  <circle cx="508.494" cy="505.293" r="7.03647" stroke-width="0.5" stroke="black" fill="cyan"/>
  <circle cx="508.494" cy="505.293" r="4.30658" stroke-width="0.5" stroke="black" fill="cyan"/>
   </g>
   <g id="cell197">
  <circle cx="455.99" cy="446.918" r="6.9536" stroke-width="0.5" stroke="black" fill="cyan"/>
  <circle cx="455.99" cy="446.918" r="4.21168" stroke-width="0.5" stroke="black" fill="cyan"/>
   </g>
   <g id="cell198">
  <circle cx="559.192" cy="563.032" r="6.89675" stroke-width="0.5" stroke="black" fill="cyan"/>
  <circle cx="559.192" cy="563.032" r="4.17024" stroke-width="0.5" stroke="black" fill="cyan"/>
   </g>
   <g id="cell199">
  <circle cx="626.255" cy="542.169" r="6.4979" stroke-width="0.5" stroke="black" fill="green"/>
  <circle cx="626.255" cy="542.169" r="3.95918" stroke-width="0.5" stroke="black" fill="green"/>
   </g>
   <g id="cell200">
  <circle cx="595.197" cy="533.284" r="6.8264" stroke-width="0.5" stroke="black" fill="cyan"/>
  <circle cx="595.197" cy="533.284" r="4.12417" stroke-width="0.5" stroke="black" fill="cyan"/>
   </g>
   <g id="cell201">
  <circle cx="394.869" cy="493.721" r="6.66225" stroke-width="0.5" stroke="black" fill="magenta"/>
  <circle cx="394.869" cy="493.721" r="4.03608" stroke-width="0.5" stroke="black" fill="magenta"/>
   </g>
   <g id="cell202">
  <circle cx="480.623" cy="594.458" r="6.44216" stroke-width="0.5" stroke="black" fill="green"/>
  <circle cx="480.623" cy="594.458" r="3.90123" stroke-width="0.5" stroke="black" fill="green"/>
   </g>
   <g id="cell203">
  <circle cx="542.402" cy="620.843" r="6.63913" stroke-width="0.5" stroke="black" fill="green"/>
  <circle cx="542.402" cy="620.843" r="3.99539" stroke-width="0.5" stroke="black" fill="green"/>
   </g>
  </g>
 </g>
  <rect x="775" y="1035" width="200" height="10" stroke-width="2" stroke="rgb(255,255,255)" fill="rgb(0,0,0)"/>
  <text x="781.25" y="1028.75"
   font-family="Arial" font-size="25" fill="black" >
   200 &#956;m
  </text>
  <text x="25" y="1045"
   font-family="Arial" font-size="18.75" fill="black" >
   0 days, 0 hours, 0 minutes, and 48.1143 seconds
  </text>
  <rect x="0" y="70" width="1000" height="1000" stroke-width="2" stroke="rgb(0,0,0)" fill="none"/>
</svg>
