<?xml version="1.0" encoding="UTF-8" standalone="no"?>
<!-- Created with PhysiCell (http://PhysiCell.MathCancer.org/) -->
<svg 
 xmlns:dc="http://purl.org/dc/elements/1.1/" 
 xmlns:cc="http://creativecommons.org/ns#" 
 xmlns:rdf="http://www.w3.org/1999/02/22-rdf-syntax-ns#" 
 xmlns:svg="http://www.w3.org/2000/svg" 
 xmlns="http://www.w3.org/2000/svg" 
 version="1.1" 
 width="1000" 
 height="1070" 
 id="svg2">
  <rect x="0" y="0" width="1000" height="1070" stroke-width="2" stroke="white" fill="white"/>
  <text x="12.5" y="30"
   font-family="Arial" font-size="25" fill="black" >
   Current time: 1 days, 6 hours, and 0.00 minutes, z = 0.00 &#956;m
  </text>
  <text x="12.5" y="57.5"
   font-family="Arial" font-size="23.75" fill="black" >
   165 agents
  </text>
 <g id="tissue" 
    transform="translate(0,1070) scale(1,-1)">
  <g id="ECM">
  </g>
  <g id="cells">
   <g id="cell0">
  <circle cx="512.226" cy="532.002" r="8.41216" stroke-width="0.5" stroke="black" fill="magenta"/>
  <circle cx="512.226" cy="532.002" r="5.05154" stroke-width="0.5" stroke="black" fill="magenta"/>
   </g>
   <g id="cell147">
  <circle cx="421.758" cy="572.68" r="8.11113" stroke-width="0.5" stroke="black" fill="green"/>
  <circle cx="421.758" cy="572.68" r="4.90943" stroke-width="0.5" stroke="black" fill="green"/>
   </g>
   <g id="cell2">
  <circle cx="506.331" cy="594.223" r="8.33257" stroke-width="0.5" stroke="black" fill="magenta"/>
  <circle cx="506.331" cy="594.223" r="5.01941" stroke-width="0.5" stroke="black" fill="magenta"/>
   </g>
   <g id="cell3">
  <circle cx="538.983" cy="544.655" r="8.30618" stroke-width="0.5" stroke="black" fill="magenta"/>
  <circle cx="538.983" cy="544.655" r="5.00727" stroke-width="0.5" stroke="black" fill="magenta"/>
   </g>
   <g id="cell4">
  <circle cx="459.684" cy="441.161" r="8.41221" stroke-width="0.5" stroke="black" fill="magenta"/>
  <circle cx="459.684" cy="441.161" r="5.05155" stroke-width="0.5" stroke="black" fill="magenta"/>
   </g>
   <g id="cell5">
  <circle cx="461.989" cy="498.087" r="8.1609" stroke-width="0.5" stroke="black" fill="magenta"/>
  <circle cx="461.989" cy="498.087" r="4.93506" stroke-width="0.5" stroke="black" fill="magenta"/>
   </g>
   <g id="cell6">
  <circle cx="595.989" cy="512.713" r="8.41093" stroke-width="0.5" stroke="black" fill="magenta"/>
  <circle cx="595.989" cy="512.713" r="5.0512" stroke-width="0.5" stroke="black" fill="magenta"/>
   </g>
   <g id="cell7">
  <circle cx="512.673" cy="464.435" r="8.41271" stroke-width="0.5" stroke="black" fill="magenta"/>
  <circle cx="512.673" cy="464.435" r="5.05167" stroke-width="0.5" stroke="black" fill="magenta"/>
   </g>
   <g id="cell8">
  <circle cx="365.552" cy="550.514" r="8.17502" stroke-width="0.5" stroke="black" fill="magenta"/>
  <circle cx="365.552" cy="550.514" r="4.94236" stroke-width="0.5" stroke="black" fill="magenta"/>
   </g>
   <g id="cell9">
  <circle cx="463.277" cy="601.856" r="8.41083" stroke-width="0.5" stroke="black" fill="magenta"/>
  <circle cx="463.277" cy="601.856" r="5.05118" stroke-width="0.5" stroke="black" fill="magenta"/>
   </g>
   <g id="cell10">
  <circle cx="587.998" cy="396.882" r="8.17866" stroke-width="0.5" stroke="black" fill="magenta"/>
  <circle cx="587.998" cy="396.882" r="4.94777" stroke-width="0.5" stroke="black" fill="magenta"/>
   </g>
   <g id="cell11">
  <circle cx="589.748" cy="590.273" r="8.41271" stroke-width="0.5" stroke="black" fill="magenta"/>
  <circle cx="589.748" cy="590.273" r="5.05167" stroke-width="0.5" stroke="black" fill="magenta"/>
   </g>
   <g id="cell12">
  <circle cx="497.449" cy="582.285" r="8.41271" stroke-width="0.5" stroke="black" fill="magenta"/>
  <circle cx="497.449" cy="582.285" r="5.05167" stroke-width="0.5" stroke="black" fill="magenta"/>
   </g>
   <g id="cell13">
  <circle cx="378.603" cy="558.042" r="8.38606" stroke-width="0.5" stroke="black" fill="magenta"/>
  <circle cx="378.603" cy="558.042" r="5.04238" stroke-width="0.5" stroke="black" fill="magenta"/>
   </g>
   <g id="cell14">
  <circle cx="526.551" cy="396.196" r="7.28294" stroke-width="0.5" stroke="black" fill="magenta"/>
  <circle cx="526.551" cy="396.196" r="4.43521" stroke-width="0.5" stroke="black" fill="magenta"/>
   </g>
   <g id="cell15">
  <circle cx="390.478" cy="487.735" r="7.64575" stroke-width="0.5" stroke="black" fill="magenta"/>
  <circle cx="390.478" cy="487.735" r="4.65763" stroke-width="0.5" stroke="black" fill="magenta"/>
   </g>
   <g id="cell16">
  <circle cx="431.28" cy="412.171" r="8.41271" stroke-width="0.5" stroke="black" fill="magenta"/>
  <circle cx="431.28" cy="412.171" r="5.05167" stroke-width="0.5" stroke="black" fill="magenta"/>
   </g>
   <g id="cell17">
  <circle cx="584.366" cy="485.841" r="8.40873" stroke-width="0.5" stroke="black" fill="magenta"/>
  <circle cx="584.366" cy="485.841" r="5.05054" stroke-width="0.5" stroke="black" fill="magenta"/>
   </g>
   <g id="cell18">
  <circle cx="512.482" cy="395.565" r="8.41224" stroke-width="0.5" stroke="black" fill="magenta"/>
  <circle cx="512.482" cy="395.565" r="5.05156" stroke-width="0.5" stroke="black" fill="magenta"/>
   </g>
   <g id="cell19">
  <circle cx="450.795" cy="541.682" r="8.41023" stroke-width="0.5" stroke="black" fill="magenta"/>
  <circle cx="450.795" cy="541.682" r="5.051" stroke-width="0.5" stroke="black" fill="magenta"/>
   </g>
   <g id="cell20">
  <circle cx="525.866" cy="420.36" r="8.41271" stroke-width="0.5" stroke="black" fill="magenta"/>
  <circle cx="525.866" cy="420.36" r="5.05167" stroke-width="0.5" stroke="black" fill="magenta"/>
   </g>
   <g id="cell141">
  <circle cx="485.728" cy="441.138" r="7.13466" stroke-width="0.5" stroke="black" fill="magenta"/>
  <circle cx="485.728" cy="441.138" r="4.35558" stroke-width="0.5" stroke="black" fill="magenta"/>
   </g>
   <g id="cell22">
  <circle cx="559.831" cy="497.198" r="8.40927" stroke-width="0.5" stroke="black" fill="magenta"/>
  <circle cx="559.831" cy="497.198" r="5.05073" stroke-width="0.5" stroke="black" fill="magenta"/>
   </g>
   <g id="cell23">
  <circle cx="536.593" cy="484.19" r="8.41271" stroke-width="0.5" stroke="black" fill="magenta"/>
  <circle cx="536.593" cy="484.19" r="5.05167" stroke-width="0.5" stroke="black" fill="magenta"/>
   </g>
   <g id="cell24">
  <circle cx="562.337" cy="382.12" r="8.41271" stroke-width="0.5" stroke="black" fill="magenta"/>
  <circle cx="562.337" cy="382.12" r="5.05167" stroke-width="0.5" stroke="black" fill="magenta"/>
   </g>
   <g id="cell25">
  <circle cx="653.545" cy="564.536" r="7.92952" stroke-width="0.5" stroke="black" fill="green"/>
  <circle cx="653.545" cy="564.536" r="4.81144" stroke-width="0.5" stroke="black" fill="green"/>
   </g>
   <g id="cell26">
  <circle cx="548.5" cy="402.188" r="8.41271" stroke-width="0.5" stroke="black" fill="green"/>
  <circle cx="548.5" cy="402.188" r="5.05167" stroke-width="0.5" stroke="black" fill="green"/>
   </g>
   <g id="cell27">
  <circle cx="452.1" cy="389.467" r="7.3599" stroke-width="0.5" stroke="black" fill="green"/>
  <circle cx="452.1" cy="389.467" r="4.47294" stroke-width="0.5" stroke="black" fill="green"/>
   </g>
   <g id="cell28">
  <circle cx="437.573" cy="549.233" r="8.41271" stroke-width="0.5" stroke="black" fill="green"/>
  <circle cx="437.573" cy="549.233" r="5.05167" stroke-width="0.5" stroke="black" fill="green"/>
   </g>
   <g id="cell29">
  <circle cx="466.629" cy="520.182" r="8.39672" stroke-width="0.5" stroke="black" fill="green"/>
  <circle cx="466.629" cy="520.182" r="5.04645" stroke-width="0.5" stroke="black" fill="green"/>
   </g>
   <g id="cell30">
  <circle cx="479.399" cy="539.58" r="8.41271" stroke-width="0.5" stroke="black" fill="green"/>
  <circle cx="479.399" cy="539.58" r="5.05167" stroke-width="0.5" stroke="black" fill="green"/>
   </g>
   <g id="cell31">
  <circle cx="413.785" cy="532.386" r="8.41271" stroke-width="0.5" stroke="black" fill="green"/>
  <circle cx="413.785" cy="532.386" r="5.05167" stroke-width="0.5" stroke="black" fill="green"/>
   </g>
   <g id="cell32">
  <circle cx="424.245" cy="457.157" r="7.67904" stroke-width="0.5" stroke="black" fill="green"/>
  <circle cx="424.245" cy="457.157" r="4.66594" stroke-width="0.5" stroke="black" fill="green"/>
   </g>
   <g id="cell33">
  <circle cx="498.424" cy="416.319" r="8.41151" stroke-width="0.5" stroke="black" fill="green"/>
  <circle cx="498.424" cy="416.319" r="5.05137" stroke-width="0.5" stroke="black" fill="green"/>
   </g>
   <g id="cell34">
  <circle cx="392.075" cy="453.713" r="8.41121" stroke-width="0.5" stroke="black" fill="green"/>
  <circle cx="392.075" cy="453.713" r="5.05128" stroke-width="0.5" stroke="black" fill="green"/>
   </g>
   <g id="cell35">
  <circle cx="546.537" cy="557.988" r="8.40667" stroke-width="0.5" stroke="black" fill="green"/>
  <circle cx="546.537" cy="557.988" r="5.04987" stroke-width="0.5" stroke="black" fill="green"/>
   </g>
   <g id="cell36">
  <circle cx="394.246" cy="579.878" r="8.38118" stroke-width="0.5" stroke="black" fill="green"/>
  <circle cx="394.246" cy="579.878" r="5.04034" stroke-width="0.5" stroke="black" fill="green"/>
   </g>
   <g id="cell174">
  <circle cx="478.718" cy="616.98" r="6.95781" stroke-width="0.5" stroke="black" fill="green"/>
  <circle cx="478.718" cy="616.98" r="4.21308" stroke-width="0.5" stroke="black" fill="green"/>
   </g>
   <g id="cell38">
  <circle cx="525.954" cy="605.13" r="8.41036" stroke-width="0.5" stroke="black" fill="green"/>
  <circle cx="525.954" cy="605.13" r="5.05104" stroke-width="0.5" stroke="black" fill="green"/>
   </g>
   <g id="cell39">
  <circle cx="616.839" cy="497.785" r="7.18057" stroke-width="0.5" stroke="black" fill="green"/>
  <circle cx="616.839" cy="497.785" r="4.36004" stroke-width="0.5" stroke="black" fill="green"/>
   </g>
   <g id="cell40">
  <circle cx="485.813" cy="572.116" r="8.41271" stroke-width="0.5" stroke="black" fill="green"/>
  <circle cx="485.813" cy="572.116" r="5.05167" stroke-width="0.5" stroke="black" fill="green"/>
   </g>
   <g id="cell41">
  <circle cx="363.795" cy="479.764" r="8.41271" stroke-width="0.5" stroke="black" fill="green"/>
  <circle cx="363.795" cy="479.764" r="5.05167" stroke-width="0.5" stroke="black" fill="green"/>
   </g>
   <g id="cell42">
  <circle cx="451.897" cy="486.695" r="1.23549" stroke-width="0.5" stroke="black" fill="green"/>
  <circle cx="451.897" cy="486.695" r="1.22993" stroke-width="0.5" stroke="black" fill="black"/>
   </g>
   <g id="cell43">
  <circle cx="558.33" cy="445.713" r="8.41271" stroke-width="0.5" stroke="black" fill="green"/>
  <circle cx="558.33" cy="445.713" r="5.05167" stroke-width="0.5" stroke="black" fill="green"/>
   </g>
   <g id="cell44">
  <circle cx="487.397" cy="628.208" r="7.98801" stroke-width="0.5" stroke="black" fill="green"/>
  <circle cx="487.397" cy="628.208" r="4.84247" stroke-width="0.5" stroke="black" fill="green"/>
   </g>
   <g id="cell45">
  <circle cx="429.045" cy="560.696" r="6.6923" stroke-width="0.5" stroke="black" fill="green"/>
  <circle cx="429.045" cy="560.696" r="4.12658" stroke-width="0.5" stroke="black" fill="green"/>
   </g>
   <g id="cell46">
  <circle cx="521.275" cy="620.383" r="8.23746" stroke-width="0.5" stroke="black" fill="green"/>
  <circle cx="521.275" cy="620.383" r="4.97574" stroke-width="0.5" stroke="black" fill="green"/>
   </g>
   <g id="cell47">
  <circle cx="494.183" cy="509.731" r="8.41271" stroke-width="0.5" stroke="black" fill="green"/>
  <circle cx="494.183" cy="509.731" r="5.05167" stroke-width="0.5" stroke="black" fill="green"/>
   </g>
   <g id="cell48">
  <circle cx="565.75" cy="604.721" r="8.41271" stroke-width="0.5" stroke="black" fill="green"/>
  <circle cx="565.75" cy="604.721" r="5.05167" stroke-width="0.5" stroke="black" fill="green"/>
   </g>
   <g id="cell49">
  <circle cx="434.74" cy="397.008" r="8.36178" stroke-width="0.5" stroke="black" fill="green"/>
  <circle cx="434.74" cy="397.008" r="5.03227" stroke-width="0.5" stroke="black" fill="green"/>
   </g>
   <g id="cell50">
  <circle cx="508.088" cy="506.159" r="6.67704" stroke-width="0.5" stroke="black" fill="cyan"/>
  <circle cx="508.088" cy="506.159" r="4.07888" stroke-width="0.5" stroke="black" fill="cyan"/>
   </g>
   <g id="cell51">
  <circle cx="385.299" cy="603.799" r="8.04268" stroke-width="0.5" stroke="black" fill="cyan"/>
  <circle cx="385.299" cy="603.799" r="4.87603" stroke-width="0.5" stroke="black" fill="cyan"/>
   </g>
   <g id="cell120">
  <circle cx="419.658" cy="610.63" r="8.38957" stroke-width="0.5" stroke="black" fill="cyan"/>
  <circle cx="419.658" cy="610.63" r="5.04365" stroke-width="0.5" stroke="black" fill="cyan"/>
   </g>
   <g id="cell53">
  <circle cx="571.186" cy="436.078" r="8.41271" stroke-width="0.5" stroke="black" fill="cyan"/>
  <circle cx="571.186" cy="436.078" r="5.05167" stroke-width="0.5" stroke="black" fill="cyan"/>
   </g>
   <g id="cell54">
  <circle cx="482.015" cy="427.574" r="8.11327" stroke-width="0.5" stroke="black" fill="cyan"/>
  <circle cx="482.015" cy="427.574" r="4.91006" stroke-width="0.5" stroke="black" fill="cyan"/>
   </g>
   <g id="cell55">
  <circle cx="522.767" cy="476.496" r="8.41271" stroke-width="0.5" stroke="black" fill="cyan"/>
  <circle cx="522.767" cy="476.496" r="5.05167" stroke-width="0.5" stroke="black" fill="cyan"/>
   </g>
   <g id="cell56">
  <circle cx="615.634" cy="522.469" r="8.41271" stroke-width="0.5" stroke="black" fill="cyan"/>
  <circle cx="615.634" cy="522.469" r="5.05167" stroke-width="0.5" stroke="black" fill="cyan"/>
   </g>
   <g id="cell57">
  <circle cx="418.486" cy="626.565" r="8.38957" stroke-width="0.5" stroke="black" fill="cyan"/>
  <circle cx="418.486" cy="626.565" r="5.04365" stroke-width="0.5" stroke="black" fill="cyan"/>
   </g>
   <g id="cell58">
  <circle cx="552.271" cy="483.748" r="8.41271" stroke-width="0.5" stroke="black" fill="cyan"/>
  <circle cx="552.271" cy="483.748" r="5.05167" stroke-width="0.5" stroke="black" fill="cyan"/>
   </g>
   <g id="cell59">
  <circle cx="385.183" cy="439.224" r="8.41271" stroke-width="0.5" stroke="black" fill="cyan"/>
  <circle cx="385.183" cy="439.224" r="5.05167" stroke-width="0.5" stroke="black" fill="cyan"/>
   </g>
   <g id="cell60">
  <circle cx="593.723" cy="473.071" r="8.38454" stroke-width="0.5" stroke="black" fill="cyan"/>
  <circle cx="593.723" cy="473.071" r="5.04168" stroke-width="0.5" stroke="black" fill="cyan"/>
   </g>
   <g id="cell155">
  <circle cx="520.197" cy="591.586" r="7.69525" stroke-width="0.5" stroke="black" fill="magenta"/>
  <circle cx="520.197" cy="591.586" r="4.69597" stroke-width="0.5" stroke="black" fill="magenta"/>
   </g>
   <g id="cell62">
  <circle cx="524.521" cy="435.668" r="8.41271" stroke-width="0.5" stroke="black" fill="cyan"/>
  <circle cx="524.521" cy="435.668" r="5.05167" stroke-width="0.5" stroke="black" fill="cyan"/>
   </g>
   <g id="cell63">
  <circle cx="581.932" cy="551.495" r="8.41036" stroke-width="0.5" stroke="black" fill="cyan"/>
  <circle cx="581.932" cy="551.495" r="5.05104" stroke-width="0.5" stroke="black" fill="cyan"/>
   </g>
   <g id="cell64">
  <circle cx="511.95" cy="633.216" r="8.38206" stroke-width="0.5" stroke="black" fill="cyan"/>
  <circle cx="511.95" cy="633.216" r="5.04069" stroke-width="0.5" stroke="black" fill="cyan"/>
   </g>
   <g id="cell65">
  <circle cx="529.626" cy="449.626" r="7.54282" stroke-width="0.5" stroke="black" fill="cyan"/>
  <circle cx="529.626" cy="449.626" r="4.5851" stroke-width="0.5" stroke="black" fill="cyan"/>
   </g>
   <g id="cell66">
  <circle cx="549.97" cy="525.24" r="8.39083" stroke-width="0.5" stroke="black" fill="cyan"/>
  <circle cx="549.97" cy="525.24" r="5.04414" stroke-width="0.5" stroke="black" fill="cyan"/>
   </g>
   <g id="cell67">
  <circle cx="354.569" cy="492.868" r="8.41271" stroke-width="0.5" stroke="black" fill="cyan"/>
  <circle cx="354.569" cy="492.868" r="5.05167" stroke-width="0.5" stroke="black" fill="cyan"/>
   </g>
   <g id="cell68">
  <circle cx="562.175" cy="554.998" r="8.41271" stroke-width="0.5" stroke="black" fill="cyan"/>
  <circle cx="562.175" cy="554.998" r="5.05167" stroke-width="0.5" stroke="black" fill="cyan"/>
   </g>
   <g id="cell69">
  <circle cx="436.822" cy="447.921" r="8.41225" stroke-width="0.5" stroke="black" fill="cyan"/>
  <circle cx="436.822" cy="447.921" r="5.05156" stroke-width="0.5" stroke="black" fill="cyan"/>
   </g>
   <g id="cell70">
  <circle cx="578.052" cy="471.744" r="8.32291" stroke-width="0.5" stroke="black" fill="cyan"/>
  <circle cx="578.052" cy="471.744" r="5.01502" stroke-width="0.5" stroke="black" fill="cyan"/>
   </g>
   <g id="cell71">
  <circle cx="379.693" cy="528.697" r="7.89067" stroke-width="0.5" stroke="black" fill="cyan"/>
  <circle cx="379.693" cy="528.697" r="4.79384" stroke-width="0.5" stroke="black" fill="cyan"/>
   </g>
   <g id="cell72">
  <circle cx="539.517" cy="512.286" r="8.41271" stroke-width="0.5" stroke="black" fill="cyan"/>
  <circle cx="539.517" cy="512.286" r="5.05167" stroke-width="0.5" stroke="black" fill="cyan"/>
   </g>
   <g id="cell129">
  <circle cx="419.588" cy="401.917" r="8.36178" stroke-width="0.5" stroke="black" fill="green"/>
  <circle cx="419.588" cy="401.917" r="5.03227" stroke-width="0.5" stroke="black" fill="green"/>
   </g>
   <g id="cell74">
  <circle cx="542.773" cy="442.613" r="7.65539" stroke-width="0.5" stroke="black" fill="cyan"/>
  <circle cx="542.773" cy="442.613" r="4.62266" stroke-width="0.5" stroke="black" fill="black"/>
   </g>
   <g id="cell75">
  <circle cx="446.242" cy="480.246" r="7.4469" stroke-width="0.5" stroke="black" fill="cyan"/>
  <circle cx="446.242" cy="480.246" r="4.53152" stroke-width="0.5" stroke="black" fill="cyan"/>
   </g>
   <g id="cell76">
  <circle cx="521.33" cy="383.187" r="8.4097" stroke-width="0.5" stroke="black" fill="magenta"/>
  <circle cx="521.33" cy="383.187" r="5.05086" stroke-width="0.5" stroke="black" fill="magenta"/>
   </g>
   <g id="cell77">
  <circle cx="496.508" cy="432.638" r="8.20547" stroke-width="0.5" stroke="black" fill="magenta"/>
  <circle cx="496.508" cy="432.638" r="4.95924" stroke-width="0.5" stroke="black" fill="magenta"/>
   </g>
   <g id="cell78">
  <circle cx="371.43" cy="466.133" r="8.41219" stroke-width="0.5" stroke="black" fill="magenta"/>
  <circle cx="371.43" cy="466.133" r="5.05155" stroke-width="0.5" stroke="black" fill="magenta"/>
   </g>
   <g id="cell79">
  <circle cx="499.261" cy="524.404" r="8.41216" stroke-width="0.5" stroke="black" fill="magenta"/>
  <circle cx="499.261" cy="524.404" r="5.05154" stroke-width="0.5" stroke="black" fill="magenta"/>
   </g>
   <g id="cell80">
  <circle cx="599.104" cy="486.909" r="7.35952" stroke-width="0.5" stroke="black" fill="green"/>
  <circle cx="599.104" cy="486.909" r="4.47283" stroke-width="0.5" stroke="black" fill="green"/>
   </g>
   <g id="cell81">
  <circle cx="429.802" cy="504.282" r="8.3685" stroke-width="0.5" stroke="black" fill="green"/>
  <circle cx="429.802" cy="504.282" r="5.03554" stroke-width="0.5" stroke="black" fill="green"/>
   </g>
   <g id="cell82">
  <circle cx="544.522" cy="497.289" r="8.41202" stroke-width="0.5" stroke="black" fill="magenta"/>
  <circle cx="544.522" cy="497.289" r="5.0515" stroke-width="0.5" stroke="black" fill="magenta"/>
   </g>
   <g id="cell130">
  <circle cx="574.113" cy="391.541" r="8.35882" stroke-width="0.5" stroke="black" fill="magenta"/>
  <circle cx="574.113" cy="391.541" r="5.031" stroke-width="0.5" stroke="black" fill="magenta"/>
   </g>
   <g id="cell84">
  <circle cx="404.59" cy="483.302" r="8.40021" stroke-width="0.5" stroke="black" fill="green"/>
  <circle cx="404.59" cy="483.302" r="5.04771" stroke-width="0.5" stroke="black" fill="green"/>
   </g>
   <g id="cell140">
  <circle cx="527.285" cy="579.162" r="8.14579" stroke-width="0.5" stroke="black" fill="magenta"/>
  <circle cx="527.285" cy="579.162" r="4.93518" stroke-width="0.5" stroke="black" fill="magenta"/>
   </g>
   <g id="cell86">
  <circle cx="392.146" cy="564.624" r="8.4011" stroke-width="0.5" stroke="black" fill="magenta"/>
  <circle cx="392.146" cy="564.624" r="5.04803" stroke-width="0.5" stroke="black" fill="magenta"/>
   </g>
   <g id="cell87">
  <circle cx="432.755" cy="519.362" r="8.00186" stroke-width="0.5" stroke="black" fill="green"/>
  <circle cx="432.755" cy="519.362" r="4.85208" stroke-width="0.5" stroke="black" fill="green"/>
   </g>
   <g id="cell88">
  <circle cx="477.334" cy="603.871" r="6.95781" stroke-width="0.5" stroke="black" fill="green"/>
  <circle cx="477.334" cy="603.871" r="4.21308" stroke-width="0.5" stroke="black" fill="green"/>
   </g>
   <g id="cell89">
  <circle cx="434.502" cy="489.504" r="8.40713" stroke-width="0.5" stroke="black" fill="green"/>
  <circle cx="434.502" cy="489.504" r="5.05009" stroke-width="0.5" stroke="black" fill="green"/>
   </g>
   <g id="cell90">
  <circle cx="581.361" cy="511.266" r="7.90752" stroke-width="0.5" stroke="black" fill="magenta"/>
  <circle cx="581.361" cy="511.266" r="4.79763" stroke-width="0.5" stroke="black" fill="magenta"/>
   </g>
   <g id="cell136">
  <circle cx="525.212" cy="539.248" r="8.30618" stroke-width="0.5" stroke="black" fill="magenta"/>
  <circle cx="525.212" cy="539.248" r="5.00727" stroke-width="0.5" stroke="black" fill="magenta"/>
   </g>
   <g id="cell92">
  <circle cx="552.923" cy="594.605" r="8.39963" stroke-width="0.5" stroke="black" fill="green"/>
  <circle cx="552.923" cy="594.605" r="5.04764" stroke-width="0.5" stroke="black" fill="green"/>
   </g>
   <g id="cell93">
  <circle cx="573.72" cy="524.466" r="8.34611" stroke-width="0.5" stroke="black" fill="cyan"/>
  <circle cx="573.72" cy="524.466" r="5.02589" stroke-width="0.5" stroke="black" fill="cyan"/>
   </g>
   <g id="cell94">
  <circle cx="543.905" cy="470.319" r="8.41023" stroke-width="0.5" stroke="black" fill="cyan"/>
  <circle cx="543.905" cy="470.319" r="5.051" stroke-width="0.5" stroke="black" fill="cyan"/>
   </g>
   <g id="cell95">
  <circle cx="464.414" cy="535.515" r="8.41023" stroke-width="0.5" stroke="black" fill="magenta"/>
  <circle cx="464.414" cy="535.515" r="5.051" stroke-width="0.5" stroke="black" fill="magenta"/>
   </g>
   <g id="cell96">
  <circle cx="535.075" cy="376.814" r="8.4097" stroke-width="0.5" stroke="black" fill="magenta"/>
  <circle cx="535.075" cy="376.814" r="5.05086" stroke-width="0.5" stroke="black" fill="magenta"/>
   </g>
   <g id="cell97">
  <circle cx="566.701" cy="510.626" r="8.40927" stroke-width="0.5" stroke="black" fill="magenta"/>
  <circle cx="566.701" cy="510.626" r="5.05073" stroke-width="0.5" stroke="black" fill="magenta"/>
   </g>
   <g id="cell98">
  <circle cx="406.489" cy="570.298" r="8.11113" stroke-width="0.5" stroke="black" fill="green"/>
  <circle cx="406.489" cy="570.298" r="4.90943" stroke-width="0.5" stroke="black" fill="green"/>
   </g>
   <g id="cell99">
  <circle cx="575.044" cy="497.991" r="8.40873" stroke-width="0.5" stroke="black" fill="magenta"/>
  <circle cx="575.044" cy="497.991" r="5.05054" stroke-width="0.5" stroke="black" fill="magenta"/>
   </g>
   <g id="cell100">
  <circle cx="569.856" cy="540.898" r="8.40733" stroke-width="0.5" stroke="black" fill="cyan"/>
  <circle cx="569.856" cy="540.898" r="5.05015" stroke-width="0.5" stroke="black" fill="cyan"/>
   </g>
   <g id="cell101">
  <circle cx="457.272" cy="627.999" r="8.40161" stroke-width="0.5" stroke="black" fill="magenta"/>
  <circle cx="457.272" cy="627.999" r="5.04827" stroke-width="0.5" stroke="black" fill="magenta"/>
   </g>
   <g id="cell102">
  <circle cx="446.672" cy="499.954" r="8.40713" stroke-width="0.5" stroke="black" fill="green"/>
  <circle cx="446.672" cy="499.954" r="5.05009" stroke-width="0.5" stroke="black" fill="green"/>
   </g>
   <g id="cell103">
  <circle cx="548.134" cy="613.504" r="6.98582" stroke-width="0.5" stroke="black" fill="green"/>
  <circle cx="548.134" cy="613.504" r="4.23347" stroke-width="0.5" stroke="black" fill="green"/>
   </g>
   <g id="cell104">
  <circle cx="553.944" cy="541.121" r="8.40667" stroke-width="0.5" stroke="black" fill="green"/>
  <circle cx="553.944" cy="541.121" r="5.04987" stroke-width="0.5" stroke="black" fill="green"/>
   </g>
   <g id="cell105">
  <circle cx="415.924" cy="495.685" r="8.40563" stroke-width="0.5" stroke="black" fill="green"/>
  <circle cx="415.924" cy="495.685" r="5.04956" stroke-width="0.5" stroke="black" fill="green"/>
   </g>
   <g id="cell106">
  <circle cx="639.268" cy="538.059" r="8.40596" stroke-width="0.5" stroke="black" fill="green"/>
  <circle cx="639.268" cy="538.059" r="5.04964" stroke-width="0.5" stroke="black" fill="green"/>
   </g>
   <g id="cell107">
  <circle cx="383.429" cy="513.849" r="8.40403" stroke-width="0.5" stroke="black" fill="cyan"/>
  <circle cx="383.429" cy="513.849" r="5.04898" stroke-width="0.5" stroke="black" fill="cyan"/>
   </g>
   <g id="cell108">
  <circle cx="458.982" cy="642.993" r="8.40161" stroke-width="0.5" stroke="black" fill="magenta"/>
  <circle cx="458.982" cy="642.993" r="5.04827" stroke-width="0.5" stroke="black" fill="magenta"/>
   </g>
   <g id="cell109">
  <circle cx="445.093" cy="636.905" r="8.40161" stroke-width="0.5" stroke="black" fill="magenta"/>
  <circle cx="445.093" cy="636.905" r="5.04827" stroke-width="0.5" stroke="black" fill="magenta"/>
   </g>
   <g id="cell110">
  <circle cx="543.342" cy="580.936" r="8.39963" stroke-width="0.5" stroke="black" fill="green"/>
  <circle cx="543.342" cy="580.936" r="5.04764" stroke-width="0.5" stroke="black" fill="green"/>
   </g>
   <g id="cell111">
  <circle cx="628.926" cy="550.319" r="8.39961" stroke-width="0.5" stroke="black" fill="green"/>
  <circle cx="628.926" cy="550.319" r="5.04761" stroke-width="0.5" stroke="black" fill="green"/>
   </g>
   <g id="cell112">
  <circle cx="379.964" cy="573.241" r="8.4011" stroke-width="0.5" stroke="black" fill="magenta"/>
  <circle cx="379.964" cy="573.241" r="5.04803" stroke-width="0.5" stroke="black" fill="magenta"/>
   </g>
   <g id="cell113">
  <circle cx="420.086" cy="480.444" r="8.40021" stroke-width="0.5" stroke="black" fill="green"/>
  <circle cx="420.086" cy="480.444" r="5.04771" stroke-width="0.5" stroke="black" fill="green"/>
   </g>
   <g id="cell114">
  <circle cx="497.53" cy="447.993" r="8.33809" stroke-width="0.5" stroke="black" fill="magenta"/>
  <circle cx="497.53" cy="447.993" r="5.02274" stroke-width="0.5" stroke="black" fill="magenta"/>
   </g>
   <g id="cell115">
  <circle cx="451.81" cy="526.209" r="8.39672" stroke-width="0.5" stroke="black" fill="green"/>
  <circle cx="451.81" cy="526.209" r="5.04645" stroke-width="0.5" stroke="black" fill="green"/>
   </g>
   <g id="cell116">
  <circle cx="367.978" cy="518.908" r="8.39183" stroke-width="0.5" stroke="black" fill="cyan"/>
  <circle cx="367.978" cy="518.908" r="5.04481" stroke-width="0.5" stroke="black" fill="cyan"/>
   </g>
   <g id="cell173">
  <circle cx="540.514" cy="603.06" r="6.98582" stroke-width="0.5" stroke="black" fill="green"/>
  <circle cx="540.514" cy="603.06" r="4.23347" stroke-width="0.5" stroke="black" fill="green"/>
   </g>
   <g id="cell118">
  <circle cx="524.636" cy="525.016" r="7.03895" stroke-width="0.5" stroke="black" fill="cyan"/>
  <circle cx="524.636" cy="525.016" r="4.27209" stroke-width="0.5" stroke="black" fill="cyan"/>
   </g>
   <g id="cell119">
  <circle cx="527.603" cy="634.739" r="8.18285" stroke-width="0.5" stroke="black" fill="green"/>
  <circle cx="527.603" cy="634.739" r="4.94832" stroke-width="0.5" stroke="black" fill="green"/>
   </g>
   <g id="cell121">
  <circle cx="391.256" cy="549.559" r="8.38606" stroke-width="0.5" stroke="black" fill="magenta"/>
  <circle cx="391.256" cy="549.559" r="5.04238" stroke-width="0.5" stroke="black" fill="magenta"/>
   </g>
   <g id="cell122">
  <circle cx="614.07" cy="462.752" r="7.45093" stroke-width="0.5" stroke="black" fill="cyan"/>
  <circle cx="614.07" cy="462.752" r="4.53317" stroke-width="0.5" stroke="black" fill="cyan"/>
   </g>
   <g id="cell123">
  <circle cx="500.561" cy="644.409" r="8.38206" stroke-width="0.5" stroke="black" fill="cyan"/>
  <circle cx="500.561" cy="644.409" r="5.04069" stroke-width="0.5" stroke="black" fill="cyan"/>
   </g>
   <g id="cell124">
  <circle cx="381.222" cy="588.752" r="8.38118" stroke-width="0.5" stroke="black" fill="green"/>
  <circle cx="381.222" cy="588.752" r="5.04034" stroke-width="0.5" stroke="black" fill="green"/>
   </g>
   <g id="cell125">
  <circle cx="451.639" cy="454.754" r="8.37817" stroke-width="0.5" stroke="black" fill="cyan"/>
  <circle cx="451.639" cy="454.754" r="5.03916" stroke-width="0.5" stroke="black" fill="cyan"/>
   </g>
   <g id="cell126">
  <circle cx="415.839" cy="511.656" r="8.3685" stroke-width="0.5" stroke="black" fill="green"/>
  <circle cx="415.839" cy="511.656" r="5.03554" stroke-width="0.5" stroke="black" fill="green"/>
   </g>
   <g id="cell127">
  <circle cx="413.206" cy="596.033" r="8.36849" stroke-width="0.5" stroke="black" fill="cyan"/>
  <circle cx="413.206" cy="596.033" r="5.03512" stroke-width="0.5" stroke="black" fill="cyan"/>
   </g>
   <g id="cell128">
  <circle cx="365.389" cy="534.909" r="8.35537" stroke-width="0.5" stroke="black" fill="cyan"/>
  <circle cx="365.389" cy="534.909" r="5.03056" stroke-width="0.5" stroke="black" fill="cyan"/>
   </g>
   <g id="cell131">
  <circle cx="584.835" cy="535.786" r="8.34611" stroke-width="0.5" stroke="black" fill="cyan"/>
  <circle cx="584.835" cy="535.786" r="5.02589" stroke-width="0.5" stroke="black" fill="cyan"/>
   </g>
   <g id="cell132">
  <circle cx="509.686" cy="439.593" r="8.33809" stroke-width="0.5" stroke="black" fill="magenta"/>
  <circle cx="509.686" cy="439.593" r="5.02274" stroke-width="0.5" stroke="black" fill="magenta"/>
   </g>
   <g id="cell133">
  <circle cx="534.132" cy="407.907" r="8.33911" stroke-width="0.5" stroke="black" fill="magenta"/>
  <circle cx="534.132" cy="407.907" r="5.02235" stroke-width="0.5" stroke="black" fill="magenta"/>
   </g>
   <g id="cell134">
  <circle cx="512.23" cy="580.077" r="8.22126" stroke-width="0.5" stroke="black" fill="magenta"/>
  <circle cx="512.23" cy="580.077" r="4.96973" stroke-width="0.5" stroke="black" fill="magenta"/>
   </g>
   <g id="cell135">
  <circle cx="568.464" cy="484.181" r="8.32291" stroke-width="0.5" stroke="black" fill="cyan"/>
  <circle cx="568.464" cy="484.181" r="5.01502" stroke-width="0.5" stroke="black" fill="cyan"/>
   </g>
   <g id="cell137">
  <circle cx="379.227" cy="478.937" r="8.28602" stroke-width="0.5" stroke="black" fill="magenta"/>
  <circle cx="379.227" cy="478.937" r="4.99779" stroke-width="0.5" stroke="black" fill="magenta"/>
   </g>
   <g id="cell138">
  <circle cx="533.633" cy="591.867" r="7.69525" stroke-width="0.5" stroke="black" fill="magenta"/>
  <circle cx="533.633" cy="591.867" r="4.69597" stroke-width="0.5" stroke="black" fill="magenta"/>
   </g>
   <g id="cell139">
  <circle cx="510.398" cy="609.105" r="8.23746" stroke-width="0.5" stroke="black" fill="green"/>
  <circle cx="510.398" cy="609.105" r="4.97574" stroke-width="0.5" stroke="black" fill="green"/>
   </g>
   <g id="cell142">
  <circle cx="585.788" cy="382.326" r="8.17866" stroke-width="0.5" stroke="black" fill="magenta"/>
  <circle cx="585.788" cy="382.326" r="4.94777" stroke-width="0.5" stroke="black" fill="magenta"/>
   </g>
   <g id="cell143">
  <circle cx="536.749" cy="622.226" r="8.18285" stroke-width="0.5" stroke="black" fill="green"/>
  <circle cx="536.749" cy="622.226" r="4.94832" stroke-width="0.5" stroke="black" fill="green"/>
   </g>
   <g id="cell144">
  <circle cx="378.099" cy="543.205" r="8.17502" stroke-width="0.5" stroke="black" fill="magenta"/>
  <circle cx="378.099" cy="543.205" r="4.94236" stroke-width="0.5" stroke="black" fill="magenta"/>
   </g>
   <g id="cell145">
  <circle cx="460.014" cy="483.554" r="8.1609" stroke-width="0.5" stroke="black" fill="magenta"/>
  <circle cx="460.014" cy="483.554" r="4.93506" stroke-width="0.5" stroke="black" fill="magenta"/>
   </g>
   <g id="cell146">
  <circle cx="466.23" cy="426.952" r="8.11327" stroke-width="0.5" stroke="black" fill="cyan"/>
  <circle cx="466.23" cy="426.952" r="4.91006" stroke-width="0.5" stroke="black" fill="cyan"/>
   </g>
   <g id="cell148">
  <circle cx="400.517" cy="605.092" r="8.04268" stroke-width="0.5" stroke="black" fill="cyan"/>
  <circle cx="400.517" cy="605.092" r="4.87603" stroke-width="0.5" stroke="black" fill="cyan"/>
   </g>
   <g id="cell149">
  <circle cx="437.955" cy="533.559" r="8.00186" stroke-width="0.5" stroke="black" fill="green"/>
  <circle cx="437.955" cy="533.559" r="4.85208" stroke-width="0.5" stroke="black" fill="green"/>
   </g>
   <g id="cell150">
  <circle cx="472.272" cy="629.682" r="7.98801" stroke-width="0.5" stroke="black" fill="green"/>
  <circle cx="472.272" cy="629.682" r="4.84247" stroke-width="0.5" stroke="black" fill="green"/>
   </g>
   <g id="cell151">
  <circle cx="523.735" cy="510.88" r="7.97646" stroke-width="0.5" stroke="black" fill="cyan"/>
  <circle cx="523.735" cy="510.88" r="4.83584" stroke-width="0.5" stroke="black" fill="cyan"/>
   </g>
   <g id="cell152">
  <circle cx="644.241" cy="552.739" r="7.92952" stroke-width="0.5" stroke="black" fill="green"/>
  <circle cx="644.241" cy="552.739" r="4.81144" stroke-width="0.5" stroke="black" fill="green"/>
   </g>
   <g id="cell153">
  <circle cx="394.193" cy="525.217" r="7.89067" stroke-width="0.5" stroke="black" fill="cyan"/>
  <circle cx="394.193" cy="525.217" r="4.79384" stroke-width="0.5" stroke="black" fill="cyan"/>
   </g>
   <g id="cell154">
  <circle cx="589.561" cy="499.498" r="7.90752" stroke-width="0.5" stroke="black" fill="magenta"/>
  <circle cx="589.561" cy="499.498" r="4.79763" stroke-width="0.5" stroke="black" fill="magenta"/>
   </g>
   <g id="cell156">
  <circle cx="403.329" cy="556.494" r="6.97927" stroke-width="0.5" stroke="black" fill="green"/>
  <circle cx="403.329" cy="556.494" r="4.27928" stroke-width="0.5" stroke="black" fill="green"/>
   </g>
   <g id="cell157">
  <circle cx="392.744" cy="474.144" r="7.64575" stroke-width="0.5" stroke="black" fill="magenta"/>
  <circle cx="392.744" cy="474.144" r="4.65763" stroke-width="0.5" stroke="black" fill="magenta"/>
   </g>
   <g id="cell158">
  <circle cx="433.499" cy="475.061" r="7.23001" stroke-width="0.5" stroke="black" fill="green"/>
  <circle cx="433.499" cy="475.061" r="4.4286" stroke-width="0.5" stroke="black" fill="green"/>
   </g>
   <g id="cell159">
  <circle cx="437.472" cy="462.378" r="7.23001" stroke-width="0.5" stroke="black" fill="green"/>
  <circle cx="437.472" cy="462.378" r="4.4286" stroke-width="0.5" stroke="black" fill="green"/>
   </g>
   <g id="cell160">
  <circle cx="416.035" cy="559.493" r="7.12428" stroke-width="0.5" stroke="black" fill="green"/>
  <circle cx="416.035" cy="559.493" r="4.36626" stroke-width="0.5" stroke="black" fill="green"/>
   </g>
   <g id="cell161">
  <circle cx="530.367" cy="463.67" r="7.54282" stroke-width="0.5" stroke="black" fill="cyan"/>
  <circle cx="530.367" cy="463.67" r="4.5851" stroke-width="0.5" stroke="black" fill="cyan"/>
   </g>
   <g id="cell162">
  <circle cx="608.48" cy="475.845" r="7.45093" stroke-width="0.5" stroke="black" fill="cyan"/>
  <circle cx="608.48" cy="475.845" r="4.53317" stroke-width="0.5" stroke="black" fill="cyan"/>
   </g>
   <g id="cell163">
  <circle cx="423.704" cy="549.161" r="6.6923" stroke-width="0.5" stroke="black" fill="green"/>
  <circle cx="423.704" cy="549.161" r="4.12658" stroke-width="0.5" stroke="black" fill="green"/>
   </g>
   <g id="cell164">
  <circle cx="455.573" cy="469.619" r="7.4469" stroke-width="0.5" stroke="black" fill="cyan"/>
  <circle cx="455.573" cy="469.619" r="4.53152" stroke-width="0.5" stroke="black" fill="cyan"/>
   </g>
   <g id="cell165">
  <circle cx="411.372" cy="546.565" r="6.97927" stroke-width="0.5" stroke="black" fill="green"/>
  <circle cx="411.372" cy="546.565" r="4.27928" stroke-width="0.5" stroke="black" fill="green"/>
   </g>
   <g id="cell166">
  <circle cx="603.45" cy="500.152" r="7.35952" stroke-width="0.5" stroke="black" fill="green"/>
  <circle cx="603.45" cy="500.152" r="4.47283" stroke-width="0.5" stroke="black" fill="green"/>
   </g>
   <g id="cell167">
  <circle cx="465.919" cy="387.432" r="7.3599" stroke-width="0.5" stroke="black" fill="green"/>
  <circle cx="465.919" cy="387.432" r="4.47294" stroke-width="0.5" stroke="black" fill="green"/>
   </g>
   <g id="cell168">
  <circle cx="520.019" cy="407.547" r="7.28294" stroke-width="0.5" stroke="black" fill="magenta"/>
  <circle cx="520.019" cy="407.547" r="4.43521" stroke-width="0.5" stroke="black" fill="magenta"/>
   </g>
   <g id="cell169">
  <circle cx="473.365" cy="438.889" r="7.13466" stroke-width="0.5" stroke="black" fill="magenta"/>
  <circle cx="473.365" cy="438.889" r="4.35558" stroke-width="0.5" stroke="black" fill="magenta"/>
   </g>
   <g id="cell170">
  <circle cx="627.598" cy="489.59" r="7.18057" stroke-width="0.5" stroke="black" fill="green"/>
  <circle cx="627.598" cy="489.59" r="4.36004" stroke-width="0.5" stroke="black" fill="green"/>
   </g>
   <g id="cell171">
  <circle cx="536.568" cy="530.757" r="7.03895" stroke-width="0.5" stroke="black" fill="cyan"/>
  <circle cx="536.568" cy="530.757" r="4.27209" stroke-width="0.5" stroke="black" fill="cyan"/>
   </g>
   <g id="cell172">
  <circle cx="511.836" cy="518.174" r="6.67704" stroke-width="0.5" stroke="black" fill="cyan"/>
  <circle cx="511.836" cy="518.174" r="4.07888" stroke-width="0.5" stroke="black" fill="cyan"/>
   </g>
  </g>
 </g>
  <rect x="775" y="1035" width="200" height="10" stroke-width="2" stroke="rgb(255,255,255)" fill="rgb(0,0,0)"/>
  <text x="781.25" y="1028.75"
   font-family="Arial" font-size="25" fill="black" >
   200 &#956;m
  </text>
  <text x="25" y="1045"
   font-family="Arial" font-size="18.75" fill="black" >
   0 days, 0 hours, 0 minutes, and 40.2282 seconds
  </text>
  <rect x="0" y="70" width="1000" height="1000" stroke-width="2" stroke="rgb(0,0,0)" fill="none"/>
</svg>
