<?xml version="1.0" encoding="UTF-8" standalone="no"?>
<!-- Created with PhysiCell (http://PhysiCell.MathCancer.org/) -->
<svg 
 xmlns:dc="http://purl.org/dc/elements/1.1/" 
 xmlns:cc="http://creativecommons.org/ns#" 
 xmlns:rdf="http://www.w3.org/1999/02/22-rdf-syntax-ns#" 
 xmlns:svg="http://www.w3.org/2000/svg" 
 xmlns="http://www.w3.org/2000/svg" 
 version="1.1" 
 width="1000" 
 height="1070" 
 id="svg2">
  <rect x="0" y="0" width="1000" height="1070" stroke-width="2" stroke="white" fill="white"/>
  <text x="12.5" y="30"
   font-family="Arial" font-size="25" fill="black" >
   Current time: 1 days, 7 hours, and 0.00 minutes, z = 0.00 &#956;m
  </text>
  <text x="12.5" y="57.5"
   font-family="Arial" font-size="23.75" fill="black" >
   168 agents
  </text>
 <g id="tissue" 
    transform="translate(0,1070) scale(1,-1)">
  <g id="ECM">
  </g>
  <g id="cells">
   <g id="cell0">
  <circle cx="511.668" cy="532.7" r="8.41229" stroke-width="0.5" stroke="black" fill="magenta"/>
  <circle cx="511.668" cy="532.7" r="5.05157" stroke-width="0.5" stroke="black" fill="magenta"/>
   </g>
   <g id="cell147">
  <circle cx="421.826" cy="573.417" r="8.18674" stroke-width="0.5" stroke="black" fill="green"/>
  <circle cx="421.826" cy="573.417" r="4.94876" stroke-width="0.5" stroke="black" fill="green"/>
   </g>
   <g id="cell2">
  <circle cx="505.849" cy="593.923" r="8.35236" stroke-width="0.5" stroke="black" fill="magenta"/>
  <circle cx="505.849" cy="593.923" r="5.02821" stroke-width="0.5" stroke="black" fill="magenta"/>
   </g>
   <g id="cell3">
  <circle cx="539.005" cy="544.884" r="8.33257" stroke-width="0.5" stroke="black" fill="magenta"/>
  <circle cx="539.005" cy="544.884" r="5.01941" stroke-width="0.5" stroke="black" fill="magenta"/>
   </g>
   <g id="cell4">
  <circle cx="459.91" cy="441.67" r="8.41233" stroke-width="0.5" stroke="black" fill="magenta"/>
  <circle cx="459.91" cy="441.67" r="5.05159" stroke-width="0.5" stroke="black" fill="magenta"/>
   </g>
   <g id="cell5">
  <circle cx="461.65" cy="498.203" r="8.2239" stroke-width="0.5" stroke="black" fill="magenta"/>
  <circle cx="461.65" cy="498.203" r="4.96725" stroke-width="0.5" stroke="black" fill="magenta"/>
   </g>
   <g id="cell6">
  <circle cx="595.916" cy="512.895" r="8.41136" stroke-width="0.5" stroke="black" fill="magenta"/>
  <circle cx="595.916" cy="512.895" r="5.05133" stroke-width="0.5" stroke="black" fill="magenta"/>
   </g>
   <g id="cell7">
  <circle cx="514.149" cy="464.231" r="8.41271" stroke-width="0.5" stroke="black" fill="magenta"/>
  <circle cx="514.149" cy="464.231" r="5.05167" stroke-width="0.5" stroke="black" fill="magenta"/>
   </g>
   <g id="cell8">
  <circle cx="365.725" cy="550.138" r="8.23444" stroke-width="0.5" stroke="black" fill="magenta"/>
  <circle cx="365.725" cy="550.138" r="4.97252" stroke-width="0.5" stroke="black" fill="magenta"/>
   </g>
   <g id="cell9">
  <circle cx="463.083" cy="601.831" r="8.41129" stroke-width="0.5" stroke="black" fill="magenta"/>
  <circle cx="463.083" cy="601.831" r="5.05131" stroke-width="0.5" stroke="black" fill="magenta"/>
   </g>
   <g id="cell10">
  <circle cx="588.051" cy="396.91" r="8.23722" stroke-width="0.5" stroke="black" fill="magenta"/>
  <circle cx="588.051" cy="396.91" r="4.97645" stroke-width="0.5" stroke="black" fill="magenta"/>
   </g>
   <g id="cell11">
  <circle cx="589.748" cy="590.273" r="8.41271" stroke-width="0.5" stroke="black" fill="magenta"/>
  <circle cx="589.748" cy="590.273" r="5.05167" stroke-width="0.5" stroke="black" fill="magenta"/>
   </g>
   <g id="cell12">
  <circle cx="497.213" cy="581.746" r="8.41271" stroke-width="0.5" stroke="black" fill="magenta"/>
  <circle cx="497.213" cy="581.746" r="5.05167" stroke-width="0.5" stroke="black" fill="magenta"/>
   </g>
   <g id="cell13">
  <circle cx="378.403" cy="558.609" r="8.39258" stroke-width="0.5" stroke="black" fill="magenta"/>
  <circle cx="378.403" cy="558.609" r="5.04488" stroke-width="0.5" stroke="black" fill="magenta"/>
   </g>
   <g id="cell14">
  <circle cx="526.879" cy="395.589" r="7.55786" stroke-width="0.5" stroke="black" fill="magenta"/>
  <circle cx="526.879" cy="395.589" r="4.60048" stroke-width="0.5" stroke="black" fill="magenta"/>
   </g>
   <g id="cell15">
  <circle cx="390.319" cy="488.096" r="7.83988" stroke-width="0.5" stroke="black" fill="magenta"/>
  <circle cx="390.319" cy="488.096" r="4.76711" stroke-width="0.5" stroke="black" fill="magenta"/>
   </g>
   <g id="cell16">
  <circle cx="431.291" cy="412.167" r="8.41271" stroke-width="0.5" stroke="black" fill="magenta"/>
  <circle cx="431.291" cy="412.167" r="5.05167" stroke-width="0.5" stroke="black" fill="magenta"/>
   </g>
   <g id="cell17">
  <circle cx="583.746" cy="485.675" r="8.4097" stroke-width="0.5" stroke="black" fill="magenta"/>
  <circle cx="583.746" cy="485.675" r="5.05084" stroke-width="0.5" stroke="black" fill="magenta"/>
   </g>
   <g id="cell18">
  <circle cx="512.433" cy="395.192" r="8.41235" stroke-width="0.5" stroke="black" fill="magenta"/>
  <circle cx="512.433" cy="395.192" r="5.05159" stroke-width="0.5" stroke="black" fill="magenta"/>
   </g>
   <g id="cell19">
  <circle cx="451.453" cy="541.595" r="8.41083" stroke-width="0.5" stroke="black" fill="magenta"/>
  <circle cx="451.453" cy="541.595" r="5.05118" stroke-width="0.5" stroke="black" fill="magenta"/>
   </g>
   <g id="cell20">
  <circle cx="525.912" cy="420.226" r="8.41271" stroke-width="0.5" stroke="black" fill="magenta"/>
  <circle cx="525.912" cy="420.226" r="5.05167" stroke-width="0.5" stroke="black" fill="magenta"/>
   </g>
   <g id="cell141">
  <circle cx="490.193" cy="441.124" r="5.98247" stroke-width="0.5" stroke="black" fill="magenta"/>
  <circle cx="490.193" cy="441.124" r="3.65547" stroke-width="0.5" stroke="black" fill="magenta"/>
   </g>
   <g id="cell22">
  <circle cx="559.802" cy="497.234" r="8.4101" stroke-width="0.5" stroke="black" fill="magenta"/>
  <circle cx="559.802" cy="497.234" r="5.05098" stroke-width="0.5" stroke="black" fill="magenta"/>
   </g>
   <g id="cell23">
  <circle cx="536.698" cy="484.28" r="8.41271" stroke-width="0.5" stroke="black" fill="magenta"/>
  <circle cx="536.698" cy="484.28" r="5.05167" stroke-width="0.5" stroke="black" fill="magenta"/>
   </g>
   <g id="cell24">
  <circle cx="562.408" cy="382.061" r="8.41271" stroke-width="0.5" stroke="black" fill="magenta"/>
  <circle cx="562.408" cy="382.061" r="5.05167" stroke-width="0.5" stroke="black" fill="magenta"/>
   </g>
   <g id="cell25">
  <circle cx="653.316" cy="564.258" r="8.05111" stroke-width="0.5" stroke="black" fill="green"/>
  <circle cx="653.316" cy="564.258" r="4.87798" stroke-width="0.5" stroke="black" fill="green"/>
   </g>
   <g id="cell26">
  <circle cx="548.727" cy="402.097" r="8.41271" stroke-width="0.5" stroke="black" fill="green"/>
  <circle cx="548.727" cy="402.097" r="5.05167" stroke-width="0.5" stroke="black" fill="green"/>
   </g>
   <g id="cell27">
  <circle cx="451.819" cy="389.528" r="7.61469" stroke-width="0.5" stroke="black" fill="green"/>
  <circle cx="451.819" cy="389.528" r="4.62762" stroke-width="0.5" stroke="black" fill="green"/>
   </g>
   <g id="cell28">
  <circle cx="438.578" cy="549.616" r="8.41271" stroke-width="0.5" stroke="black" fill="green"/>
  <circle cx="438.578" cy="549.616" r="5.05167" stroke-width="0.5" stroke="black" fill="green"/>
   </g>
   <g id="cell29">
  <circle cx="466.668" cy="519.714" r="8.40062" stroke-width="0.5" stroke="black" fill="green"/>
  <circle cx="466.668" cy="519.714" r="5.04785" stroke-width="0.5" stroke="black" fill="green"/>
   </g>
   <g id="cell30">
  <circle cx="479.718" cy="539.672" r="8.41271" stroke-width="0.5" stroke="black" fill="green"/>
  <circle cx="479.718" cy="539.672" r="5.05167" stroke-width="0.5" stroke="black" fill="green"/>
   </g>
   <g id="cell31">
  <circle cx="413.978" cy="531.297" r="8.41271" stroke-width="0.5" stroke="black" fill="green"/>
  <circle cx="413.978" cy="531.297" r="5.05167" stroke-width="0.5" stroke="black" fill="green"/>
   </g>
   <g id="cell32">
  <circle cx="424.722" cy="456.86" r="7.86226" stroke-width="0.5" stroke="black" fill="green"/>
  <circle cx="424.722" cy="456.86" r="4.77191" stroke-width="0.5" stroke="black" fill="green"/>
   </g>
   <g id="cell33">
  <circle cx="498.357" cy="416.402" r="8.4118" stroke-width="0.5" stroke="black" fill="green"/>
  <circle cx="498.357" cy="416.402" r="5.05145" stroke-width="0.5" stroke="black" fill="green"/>
   </g>
   <g id="cell34">
  <circle cx="392.048" cy="453.827" r="8.41157" stroke-width="0.5" stroke="black" fill="green"/>
  <circle cx="392.048" cy="453.827" r="5.05138" stroke-width="0.5" stroke="black" fill="green"/>
   </g>
   <g id="cell35">
  <circle cx="546.78" cy="558.217" r="8.40814" stroke-width="0.5" stroke="black" fill="green"/>
  <circle cx="546.78" cy="558.217" r="5.05035" stroke-width="0.5" stroke="black" fill="green"/>
   </g>
   <g id="cell36">
  <circle cx="393.853" cy="580.433" r="8.38891" stroke-width="0.5" stroke="black" fill="green"/>
  <circle cx="393.853" cy="580.433" r="5.0434" stroke-width="0.5" stroke="black" fill="green"/>
   </g>
   <g id="cell174">
  <circle cx="478.441" cy="617.197" r="7.2717" stroke-width="0.5" stroke="black" fill="green"/>
  <circle cx="478.441" cy="617.197" r="4.41812" stroke-width="0.5" stroke="black" fill="green"/>
   </g>
   <g id="cell38">
  <circle cx="526.406" cy="605.45" r="8.41093" stroke-width="0.5" stroke="black" fill="green"/>
  <circle cx="526.406" cy="605.45" r="5.0512" stroke-width="0.5" stroke="black" fill="green"/>
   </g>
   <g id="cell39">
  <circle cx="617.657" cy="498.083" r="7.4685" stroke-width="0.5" stroke="black" fill="green"/>
  <circle cx="617.657" cy="498.083" r="4.53974" stroke-width="0.5" stroke="black" fill="green"/>
   </g>
   <g id="cell40">
  <circle cx="485.38" cy="571.742" r="8.41271" stroke-width="0.5" stroke="black" fill="green"/>
  <circle cx="485.38" cy="571.742" r="5.05167" stroke-width="0.5" stroke="black" fill="green"/>
   </g>
   <g id="cell41">
  <circle cx="363.689" cy="479.677" r="8.41271" stroke-width="0.5" stroke="black" fill="green"/>
  <circle cx="363.689" cy="479.677" r="5.05167" stroke-width="0.5" stroke="black" fill="green"/>
   </g>
   <g id="cell176">
  <circle cx="471.949" cy="447.398" r="6.188" stroke-width="0.5" stroke="black" fill="magenta"/>
  <circle cx="471.949" cy="447.398" r="3.79673" stroke-width="0.5" stroke="black" fill="magenta"/>
   </g>
   <g id="cell43">
  <circle cx="558.189" cy="445.616" r="8.41271" stroke-width="0.5" stroke="black" fill="green"/>
  <circle cx="558.189" cy="445.616" r="5.05167" stroke-width="0.5" stroke="black" fill="green"/>
   </g>
   <g id="cell44">
  <circle cx="487.446" cy="628.564" r="8.09477" stroke-width="0.5" stroke="black" fill="green"/>
  <circle cx="487.446" cy="628.564" r="4.9004" stroke-width="0.5" stroke="black" fill="green"/>
   </g>
   <g id="cell45">
  <circle cx="429.893" cy="561.23" r="7.15649" stroke-width="0.5" stroke="black" fill="green"/>
  <circle cx="429.893" cy="561.23" r="4.39796" stroke-width="0.5" stroke="black" fill="green"/>
   </g>
   <g id="cell46">
  <circle cx="521.193" cy="620.419" r="8.28111" stroke-width="0.5" stroke="black" fill="green"/>
  <circle cx="521.193" cy="620.419" r="4.99661" stroke-width="0.5" stroke="black" fill="green"/>
   </g>
   <g id="cell47">
  <circle cx="494.051" cy="509.557" r="8.41271" stroke-width="0.5" stroke="black" fill="green"/>
  <circle cx="494.051" cy="509.557" r="5.05167" stroke-width="0.5" stroke="black" fill="green"/>
   </g>
   <g id="cell48">
  <circle cx="565.163" cy="604.274" r="8.41271" stroke-width="0.5" stroke="black" fill="green"/>
  <circle cx="565.163" cy="604.274" r="5.05167" stroke-width="0.5" stroke="black" fill="green"/>
   </g>
   <g id="cell49">
  <circle cx="434.788" cy="396.996" r="8.37431" stroke-width="0.5" stroke="black" fill="green"/>
  <circle cx="434.788" cy="396.996" r="5.03754" stroke-width="0.5" stroke="black" fill="green"/>
   </g>
   <g id="cell50">
  <circle cx="508.305" cy="505.679" r="7.08748" stroke-width="0.5" stroke="black" fill="cyan"/>
  <circle cx="508.305" cy="505.679" r="4.3331" stroke-width="0.5" stroke="black" fill="cyan"/>
   </g>
   <g id="cell51">
  <circle cx="385.208" cy="604.03" r="8.13581" stroke-width="0.5" stroke="black" fill="cyan"/>
  <circle cx="385.208" cy="604.03" r="4.92473" stroke-width="0.5" stroke="black" fill="cyan"/>
   </g>
   <g id="cell120">
  <circle cx="419.63" cy="610.622" r="8.39523" stroke-width="0.5" stroke="black" fill="cyan"/>
  <circle cx="419.63" cy="610.622" r="5.04581" stroke-width="0.5" stroke="black" fill="cyan"/>
   </g>
   <g id="cell53">
  <circle cx="571.111" cy="436.134" r="8.41271" stroke-width="0.5" stroke="black" fill="cyan"/>
  <circle cx="571.111" cy="436.134" r="5.05167" stroke-width="0.5" stroke="black" fill="cyan"/>
   </g>
   <g id="cell54">
  <circle cx="482.252" cy="427.799" r="8.18833" stroke-width="0.5" stroke="black" fill="cyan"/>
  <circle cx="482.252" cy="427.799" r="4.94921" stroke-width="0.5" stroke="black" fill="cyan"/>
   </g>
   <g id="cell55">
  <circle cx="522.54" cy="477.528" r="8.41271" stroke-width="0.5" stroke="black" fill="cyan"/>
  <circle cx="522.54" cy="477.528" r="5.05167" stroke-width="0.5" stroke="black" fill="cyan"/>
   </g>
   <g id="cell56">
  <circle cx="615.556" cy="522.431" r="8.41271" stroke-width="0.5" stroke="black" fill="cyan"/>
  <circle cx="615.556" cy="522.431" r="5.05167" stroke-width="0.5" stroke="black" fill="cyan"/>
   </g>
   <g id="cell57">
  <circle cx="418.486" cy="626.57" r="8.39523" stroke-width="0.5" stroke="black" fill="cyan"/>
  <circle cx="418.486" cy="626.57" r="5.04581" stroke-width="0.5" stroke="black" fill="cyan"/>
   </g>
   <g id="cell58">
  <circle cx="552.27" cy="483.649" r="8.41271" stroke-width="0.5" stroke="black" fill="cyan"/>
  <circle cx="552.27" cy="483.649" r="5.05167" stroke-width="0.5" stroke="black" fill="cyan"/>
   </g>
   <g id="cell59">
  <circle cx="385.217" cy="439.296" r="8.41271" stroke-width="0.5" stroke="black" fill="cyan"/>
  <circle cx="385.217" cy="439.296" r="5.05167" stroke-width="0.5" stroke="black" fill="cyan"/>
   </g>
   <g id="cell60">
  <circle cx="593.343" cy="473.222" r="8.39144" stroke-width="0.5" stroke="black" fill="cyan"/>
  <circle cx="593.343" cy="473.222" r="5.04437" stroke-width="0.5" stroke="black" fill="cyan"/>
   </g>
   <g id="cell155">
  <circle cx="520.092" cy="591.975" r="7.87921" stroke-width="0.5" stroke="black" fill="magenta"/>
  <circle cx="520.092" cy="591.975" r="4.79602" stroke-width="0.5" stroke="black" fill="magenta"/>
   </g>
   <g id="cell62">
  <circle cx="525.328" cy="435.477" r="8.41271" stroke-width="0.5" stroke="black" fill="cyan"/>
  <circle cx="525.328" cy="435.477" r="5.05167" stroke-width="0.5" stroke="black" fill="cyan"/>
   </g>
   <g id="cell63">
  <circle cx="581.732" cy="551.364" r="8.41093" stroke-width="0.5" stroke="black" fill="cyan"/>
  <circle cx="581.732" cy="551.364" r="5.0512" stroke-width="0.5" stroke="black" fill="cyan"/>
   </g>
   <g id="cell64">
  <circle cx="511.831" cy="633.189" r="8.38957" stroke-width="0.5" stroke="black" fill="cyan"/>
  <circle cx="511.831" cy="633.189" r="5.04365" stroke-width="0.5" stroke="black" fill="cyan"/>
   </g>
   <g id="cell65">
  <circle cx="530.425" cy="449.594" r="7.75802" stroke-width="0.5" stroke="black" fill="cyan"/>
  <circle cx="530.425" cy="449.594" r="4.71216" stroke-width="0.5" stroke="black" fill="cyan"/>
   </g>
   <g id="cell66">
  <circle cx="550.276" cy="524.935" r="8.39618" stroke-width="0.5" stroke="black" fill="cyan"/>
  <circle cx="550.276" cy="524.935" r="5.04616" stroke-width="0.5" stroke="black" fill="cyan"/>
   </g>
   <g id="cell67">
  <circle cx="354.574" cy="492.861" r="8.41271" stroke-width="0.5" stroke="black" fill="cyan"/>
  <circle cx="354.574" cy="492.861" r="5.05167" stroke-width="0.5" stroke="black" fill="cyan"/>
   </g>
   <g id="cell68">
  <circle cx="562.352" cy="554.575" r="8.41271" stroke-width="0.5" stroke="black" fill="cyan"/>
  <circle cx="562.352" cy="554.575" r="5.05167" stroke-width="0.5" stroke="black" fill="cyan"/>
   </g>
   <g id="cell69">
  <circle cx="436.892" cy="446.947" r="8.41236" stroke-width="0.5" stroke="black" fill="cyan"/>
  <circle cx="436.892" cy="446.947" r="5.05159" stroke-width="0.5" stroke="black" fill="cyan"/>
   </g>
   <g id="cell70">
  <circle cx="577.65" cy="471.372" r="8.34511" stroke-width="0.5" stroke="black" fill="cyan"/>
  <circle cx="577.65" cy="471.372" r="5.02502" stroke-width="0.5" stroke="black" fill="cyan"/>
   </g>
   <g id="cell71">
  <circle cx="381.113" cy="528.181" r="8.02246" stroke-width="0.5" stroke="black" fill="cyan"/>
  <circle cx="381.113" cy="528.181" r="4.86543" stroke-width="0.5" stroke="black" fill="cyan"/>
   </g>
   <g id="cell72">
  <circle cx="539.815" cy="512.296" r="8.41271" stroke-width="0.5" stroke="black" fill="cyan"/>
  <circle cx="539.815" cy="512.296" r="5.05167" stroke-width="0.5" stroke="black" fill="cyan"/>
   </g>
   <g id="cell129">
  <circle cx="419.596" cy="401.904" r="8.37431" stroke-width="0.5" stroke="black" fill="green"/>
  <circle cx="419.596" cy="401.904" r="5.03754" stroke-width="0.5" stroke="black" fill="green"/>
   </g>
   <g id="cell74">
  <circle cx="542.715" cy="442.8" r="4.0657" stroke-width="0.5" stroke="black" fill="cyan"/>
  <circle cx="542.715" cy="442.8" r="2.92016" stroke-width="0.5" stroke="black" fill="black"/>
   </g>
   <g id="cell75">
  <circle cx="446.351" cy="480.514" r="7.68495" stroke-width="0.5" stroke="black" fill="cyan"/>
  <circle cx="446.351" cy="480.514" r="4.67261" stroke-width="0.5" stroke="black" fill="cyan"/>
   </g>
   <g id="cell76">
  <circle cx="520.838" cy="382.645" r="8.41043" stroke-width="0.5" stroke="black" fill="magenta"/>
  <circle cx="520.838" cy="382.645" r="5.05107" stroke-width="0.5" stroke="black" fill="magenta"/>
   </g>
   <g id="cell77">
  <circle cx="497.735" cy="431.578" r="8.2572" stroke-width="0.5" stroke="black" fill="magenta"/>
  <circle cx="497.735" cy="431.578" r="4.9847" stroke-width="0.5" stroke="black" fill="magenta"/>
   </g>
   <g id="cell78">
  <circle cx="371.347" cy="466.055" r="8.41231" stroke-width="0.5" stroke="black" fill="magenta"/>
  <circle cx="371.347" cy="466.055" r="5.05158" stroke-width="0.5" stroke="black" fill="magenta"/>
   </g>
   <g id="cell79">
  <circle cx="499.08" cy="524.308" r="8.41229" stroke-width="0.5" stroke="black" fill="magenta"/>
  <circle cx="499.08" cy="524.308" r="5.05157" stroke-width="0.5" stroke="black" fill="magenta"/>
   </g>
   <g id="cell80">
  <circle cx="598.421" cy="487.445" r="7.61442" stroke-width="0.5" stroke="black" fill="green"/>
  <circle cx="598.421" cy="487.445" r="4.62755" stroke-width="0.5" stroke="black" fill="green"/>
   </g>
   <g id="cell81">
  <circle cx="429.667" cy="504.39" r="8.37936" stroke-width="0.5" stroke="black" fill="green"/>
  <circle cx="429.667" cy="504.39" r="5.0399" stroke-width="0.5" stroke="black" fill="green"/>
   </g>
   <g id="cell82">
  <circle cx="544.608" cy="497.289" r="8.41219" stroke-width="0.5" stroke="black" fill="magenta"/>
  <circle cx="544.608" cy="497.289" r="5.05155" stroke-width="0.5" stroke="black" fill="magenta"/>
   </g>
   <g id="cell130">
  <circle cx="574.073" cy="391.634" r="8.37208" stroke-width="0.5" stroke="black" fill="magenta"/>
  <circle cx="574.073" cy="391.634" r="5.03661" stroke-width="0.5" stroke="black" fill="magenta"/>
   </g>
   <g id="cell84">
  <circle cx="404.643" cy="483.795" r="8.40325" stroke-width="0.5" stroke="black" fill="green"/>
  <circle cx="404.643" cy="483.795" r="5.04877" stroke-width="0.5" stroke="black" fill="green"/>
   </g>
   <g id="cell140">
  <circle cx="527.239" cy="579.352" r="8.21285" stroke-width="0.5" stroke="black" fill="magenta"/>
  <circle cx="527.239" cy="579.352" r="4.96746" stroke-width="0.5" stroke="black" fill="magenta"/>
   </g>
   <g id="cell86">
  <circle cx="391.941" cy="565.254" r="8.40393" stroke-width="0.5" stroke="black" fill="magenta"/>
  <circle cx="391.941" cy="565.254" r="5.049" stroke-width="0.5" stroke="black" fill="magenta"/>
   </g>
   <g id="cell87">
  <circle cx="432.554" cy="519.623" r="8.10522" stroke-width="0.5" stroke="black" fill="green"/>
  <circle cx="432.554" cy="519.623" r="4.90739" stroke-width="0.5" stroke="black" fill="green"/>
   </g>
   <g id="cell88">
  <circle cx="477.488" cy="603.461" r="7.2717" stroke-width="0.5" stroke="black" fill="green"/>
  <circle cx="477.488" cy="603.461" r="4.41812" stroke-width="0.5" stroke="black" fill="green"/>
   </g>
   <g id="cell89">
  <circle cx="433.97" cy="489.395" r="8.40849" stroke-width="0.5" stroke="black" fill="green"/>
  <circle cx="433.97" cy="489.395" r="5.05051" stroke-width="0.5" stroke="black" fill="green"/>
   </g>
   <g id="cell90">
  <circle cx="581.328" cy="511.311" r="8.03453" stroke-width="0.5" stroke="black" fill="magenta"/>
  <circle cx="581.328" cy="511.311" r="4.86794" stroke-width="0.5" stroke="black" fill="magenta"/>
   </g>
   <g id="cell136">
  <circle cx="525.083" cy="539.437" r="8.33257" stroke-width="0.5" stroke="black" fill="magenta"/>
  <circle cx="525.083" cy="539.437" r="5.01941" stroke-width="0.5" stroke="black" fill="magenta"/>
   </g>
   <g id="cell92">
  <circle cx="552.292" cy="594.139" r="8.40281" stroke-width="0.5" stroke="black" fill="green"/>
  <circle cx="552.292" cy="594.139" r="5.04872" stroke-width="0.5" stroke="black" fill="green"/>
   </g>
   <g id="cell93">
  <circle cx="573.76" cy="524.619" r="8.36252" stroke-width="0.5" stroke="black" fill="cyan"/>
  <circle cx="573.76" cy="524.619" r="5.0329" stroke-width="0.5" stroke="black" fill="cyan"/>
   </g>
   <g id="cell94">
  <circle cx="543.54" cy="470.224" r="8.41083" stroke-width="0.5" stroke="black" fill="cyan"/>
  <circle cx="543.54" cy="470.224" r="5.05118" stroke-width="0.5" stroke="black" fill="cyan"/>
   </g>
   <g id="cell95">
  <circle cx="464.885" cy="535.09" r="8.41083" stroke-width="0.5" stroke="black" fill="magenta"/>
  <circle cx="464.885" cy="535.09" r="5.05118" stroke-width="0.5" stroke="black" fill="magenta"/>
   </g>
   <g id="cell96">
  <circle cx="534.961" cy="377.38" r="8.41043" stroke-width="0.5" stroke="black" fill="magenta"/>
  <circle cx="534.961" cy="377.38" r="5.05107" stroke-width="0.5" stroke="black" fill="magenta"/>
   </g>
   <g id="cell97">
  <circle cx="566.599" cy="510.752" r="8.4101" stroke-width="0.5" stroke="black" fill="magenta"/>
  <circle cx="566.599" cy="510.752" r="5.05098" stroke-width="0.5" stroke="black" fill="magenta"/>
   </g>
   <g id="cell98">
  <circle cx="406.43" cy="571.039" r="8.18674" stroke-width="0.5" stroke="black" fill="green"/>
  <circle cx="406.43" cy="571.039" r="4.94876" stroke-width="0.5" stroke="black" fill="green"/>
   </g>
   <g id="cell99">
  <circle cx="574.91" cy="498.036" r="8.4097" stroke-width="0.5" stroke="black" fill="magenta"/>
  <circle cx="574.91" cy="498.036" r="5.05084" stroke-width="0.5" stroke="black" fill="magenta"/>
   </g>
   <g id="cell100">
  <circle cx="569.958" cy="540.415" r="8.40864" stroke-width="0.5" stroke="black" fill="cyan"/>
  <circle cx="569.958" cy="540.415" r="5.05055" stroke-width="0.5" stroke="black" fill="cyan"/>
   </g>
   <g id="cell101">
  <circle cx="457.001" cy="627.523" r="8.40432" stroke-width="0.5" stroke="black" fill="magenta"/>
  <circle cx="457.001" cy="627.523" r="5.04918" stroke-width="0.5" stroke="black" fill="magenta"/>
   </g>
   <g id="cell102">
  <circle cx="446.21" cy="499.862" r="8.40849" stroke-width="0.5" stroke="black" fill="green"/>
  <circle cx="446.21" cy="499.862" r="5.05051" stroke-width="0.5" stroke="black" fill="green"/>
   </g>
   <g id="cell103">
  <circle cx="549.424" cy="614.633" r="7.29878" stroke-width="0.5" stroke="black" fill="green"/>
  <circle cx="549.424" cy="614.633" r="4.43591" stroke-width="0.5" stroke="black" fill="green"/>
   </g>
   <g id="cell104">
  <circle cx="553.957" cy="540.83" r="8.40814" stroke-width="0.5" stroke="black" fill="green"/>
  <circle cx="553.957" cy="540.83" r="5.05035" stroke-width="0.5" stroke="black" fill="green"/>
   </g>
   <g id="cell105">
  <circle cx="415.76" cy="495.99" r="8.40735" stroke-width="0.5" stroke="black" fill="green"/>
  <circle cx="415.76" cy="495.99" r="5.05012" stroke-width="0.5" stroke="black" fill="green"/>
   </g>
   <g id="cell106">
  <circle cx="645.596" cy="533.151" r="6.89295" stroke-width="0.5" stroke="black" fill="green"/>
  <circle cx="645.596" cy="533.151" r="4.16907" stroke-width="0.5" stroke="black" fill="green"/>
   </g>
   <g id="cell107">
  <circle cx="383.465" cy="512.956" r="8.40614" stroke-width="0.5" stroke="black" fill="cyan"/>
  <circle cx="383.465" cy="512.956" r="5.0497" stroke-width="0.5" stroke="black" fill="cyan"/>
   </g>
   <g id="cell108">
  <circle cx="459.61" cy="642.335" r="8.40432" stroke-width="0.5" stroke="black" fill="magenta"/>
  <circle cx="459.61" cy="642.335" r="5.04918" stroke-width="0.5" stroke="black" fill="magenta"/>
   </g>
   <g id="cell109">
  <circle cx="445.317" cy="637.112" r="8.40432" stroke-width="0.5" stroke="black" fill="magenta"/>
  <circle cx="445.317" cy="637.112" r="5.04918" stroke-width="0.5" stroke="black" fill="magenta"/>
   </g>
   <g id="cell110">
  <circle cx="543.062" cy="580.37" r="8.40281" stroke-width="0.5" stroke="black" fill="green"/>
  <circle cx="543.062" cy="580.37" r="5.04872" stroke-width="0.5" stroke="black" fill="green"/>
   </g>
   <g id="cell111">
  <circle cx="627.68" cy="553.175" r="8.40281" stroke-width="0.5" stroke="black" fill="green"/>
  <circle cx="627.68" cy="553.175" r="5.04869" stroke-width="0.5" stroke="black" fill="green"/>
   </g>
   <g id="cell112">
  <circle cx="379.597" cy="573.714" r="8.40393" stroke-width="0.5" stroke="black" fill="magenta"/>
  <circle cx="379.597" cy="573.714" r="5.049" stroke-width="0.5" stroke="black" fill="magenta"/>
   </g>
   <g id="cell113">
  <circle cx="420.096" cy="480.815" r="8.40325" stroke-width="0.5" stroke="black" fill="green"/>
  <circle cx="420.096" cy="480.815" r="5.04877" stroke-width="0.5" stroke="black" fill="green"/>
   </g>
   <g id="cell114">
  <circle cx="499.718" cy="448.989" r="8.35649" stroke-width="0.5" stroke="black" fill="magenta"/>
  <circle cx="499.718" cy="448.989" r="5.03061" stroke-width="0.5" stroke="black" fill="magenta"/>
   </g>
   <g id="cell115">
  <circle cx="452" cy="526.123" r="8.40062" stroke-width="0.5" stroke="black" fill="green"/>
  <circle cx="452" cy="526.123" r="5.04785" stroke-width="0.5" stroke="black" fill="green"/>
   </g>
   <g id="cell116">
  <circle cx="368.264" cy="518.952" r="8.39693" stroke-width="0.5" stroke="black" fill="cyan"/>
  <circle cx="368.264" cy="518.952" r="5.04665" stroke-width="0.5" stroke="black" fill="cyan"/>
   </g>
   <g id="cell173">
  <circle cx="541.108" cy="603.904" r="7.29878" stroke-width="0.5" stroke="black" fill="green"/>
  <circle cx="541.108" cy="603.904" r="4.43591" stroke-width="0.5" stroke="black" fill="green"/>
   </g>
   <g id="cell118">
  <circle cx="524.037" cy="524.956" r="7.34911" stroke-width="0.5" stroke="black" fill="cyan"/>
  <circle cx="524.037" cy="524.956" r="4.46911" stroke-width="0.5" stroke="black" fill="cyan"/>
   </g>
   <g id="cell119">
  <circle cx="527.551" cy="634.845" r="8.24031" stroke-width="0.5" stroke="black" fill="green"/>
  <circle cx="527.551" cy="634.845" r="4.97683" stroke-width="0.5" stroke="black" fill="green"/>
   </g>
   <g id="cell121">
  <circle cx="391.514" cy="550.299" r="8.39258" stroke-width="0.5" stroke="black" fill="magenta"/>
  <circle cx="391.514" cy="550.299" r="5.04488" stroke-width="0.5" stroke="black" fill="magenta"/>
   </g>
   <g id="cell122">
  <circle cx="614.015" cy="462.879" r="7.6878" stroke-width="0.5" stroke="black" fill="cyan"/>
  <circle cx="614.015" cy="462.879" r="4.67373" stroke-width="0.5" stroke="black" fill="cyan"/>
   </g>
   <g id="cell123">
  <circle cx="500.528" cy="644.441" r="8.38957" stroke-width="0.5" stroke="black" fill="cyan"/>
  <circle cx="500.528" cy="644.441" r="5.04365" stroke-width="0.5" stroke="black" fill="cyan"/>
   </g>
   <g id="cell124">
  <circle cx="380.642" cy="589.116" r="8.38891" stroke-width="0.5" stroke="black" fill="green"/>
  <circle cx="380.642" cy="589.116" r="5.0434" stroke-width="0.5" stroke="black" fill="green"/>
   </g>
   <g id="cell125">
  <circle cx="451.456" cy="454.486" r="8.38664" stroke-width="0.5" stroke="black" fill="cyan"/>
  <circle cx="451.456" cy="454.486" r="5.04254" stroke-width="0.5" stroke="black" fill="cyan"/>
   </g>
   <g id="cell126">
  <circle cx="415.715" cy="511.977" r="8.37936" stroke-width="0.5" stroke="black" fill="green"/>
  <circle cx="415.715" cy="511.977" r="5.0399" stroke-width="0.5" stroke="black" fill="green"/>
   </g>
   <g id="cell127">
  <circle cx="413.303" cy="595.955" r="8.37935" stroke-width="0.5" stroke="black" fill="cyan"/>
  <circle cx="413.303" cy="595.955" r="5.0396" stroke-width="0.5" stroke="black" fill="cyan"/>
   </g>
   <g id="cell128">
  <circle cx="357.656" cy="534.093" r="6.69912" stroke-width="0.5" stroke="black" fill="cyan"/>
  <circle cx="357.656" cy="534.093" r="4.03833" stroke-width="0.5" stroke="black" fill="cyan"/>
   </g>
   <g id="cell131">
  <circle cx="585.163" cy="535.753" r="8.36252" stroke-width="0.5" stroke="black" fill="cyan"/>
  <circle cx="585.163" cy="535.753" r="5.0329" stroke-width="0.5" stroke="black" fill="cyan"/>
   </g>
   <g id="cell132">
  <circle cx="510.526" cy="438.981" r="8.35649" stroke-width="0.5" stroke="black" fill="magenta"/>
  <circle cx="510.526" cy="438.981" r="5.03061" stroke-width="0.5" stroke="black" fill="magenta"/>
   </g>
   <g id="cell133">
  <circle cx="534.315" cy="407.806" r="8.35727" stroke-width="0.5" stroke="black" fill="magenta"/>
  <circle cx="534.315" cy="407.806" r="5.03034" stroke-width="0.5" stroke="black" fill="magenta"/>
   </g>
   <g id="cell134">
  <circle cx="512.148" cy="580.063" r="8.26904" stroke-width="0.5" stroke="black" fill="magenta"/>
  <circle cx="512.148" cy="580.063" r="4.99229" stroke-width="0.5" stroke="black" fill="magenta"/>
   </g>
   <g id="cell135">
  <circle cx="568.235" cy="484.115" r="8.34511" stroke-width="0.5" stroke="black" fill="cyan"/>
  <circle cx="568.235" cy="484.115" r="5.02502" stroke-width="0.5" stroke="black" fill="cyan"/>
   </g>
   <g id="cell137">
  <circle cx="379.15" cy="478.884" r="8.31745" stroke-width="0.5" stroke="black" fill="magenta"/>
  <circle cx="379.15" cy="478.884" r="5.01256" stroke-width="0.5" stroke="black" fill="magenta"/>
   </g>
   <g id="cell138">
  <circle cx="534.032" cy="592.143" r="7.87921" stroke-width="0.5" stroke="black" fill="magenta"/>
  <circle cx="534.032" cy="592.143" r="4.79602" stroke-width="0.5" stroke="black" fill="magenta"/>
   </g>
   <g id="cell139">
  <circle cx="510.804" cy="608.53" r="8.28111" stroke-width="0.5" stroke="black" fill="green"/>
  <circle cx="510.804" cy="608.53" r="4.99661" stroke-width="0.5" stroke="black" fill="green"/>
   </g>
   <g id="cell142">
  <circle cx="585.705" cy="382.266" r="8.23722" stroke-width="0.5" stroke="black" fill="magenta"/>
  <circle cx="585.705" cy="382.266" r="4.97645" stroke-width="0.5" stroke="black" fill="magenta"/>
   </g>
   <g id="cell143">
  <circle cx="536.778" cy="622.209" r="8.24031" stroke-width="0.5" stroke="black" fill="green"/>
  <circle cx="536.778" cy="622.209" r="4.97683" stroke-width="0.5" stroke="black" fill="green"/>
   </g>
   <g id="cell144">
  <circle cx="378.978" cy="543.828" r="8.23444" stroke-width="0.5" stroke="black" fill="magenta"/>
  <circle cx="378.978" cy="543.828" r="4.97252" stroke-width="0.5" stroke="black" fill="magenta"/>
   </g>
   <g id="cell145">
  <circle cx="460.646" cy="483.412" r="8.2239" stroke-width="0.5" stroke="black" fill="magenta"/>
  <circle cx="460.646" cy="483.412" r="4.96725" stroke-width="0.5" stroke="black" fill="magenta"/>
   </g>
   <g id="cell146">
  <circle cx="464.122" cy="425.208" r="8.18833" stroke-width="0.5" stroke="black" fill="cyan"/>
  <circle cx="464.122" cy="425.208" r="4.94921" stroke-width="0.5" stroke="black" fill="cyan"/>
   </g>
   <g id="cell148">
  <circle cx="400.612" cy="605.186" r="8.13581" stroke-width="0.5" stroke="black" fill="cyan"/>
  <circle cx="400.612" cy="605.186" r="4.92473" stroke-width="0.5" stroke="black" fill="cyan"/>
   </g>
   <g id="cell149">
  <circle cx="438.228" cy="533.875" r="8.10522" stroke-width="0.5" stroke="black" fill="green"/>
  <circle cx="438.228" cy="533.875" r="4.90739" stroke-width="0.5" stroke="black" fill="green"/>
   </g>
   <g id="cell150">
  <circle cx="471.957" cy="630.472" r="8.09477" stroke-width="0.5" stroke="black" fill="green"/>
  <circle cx="471.957" cy="630.472" r="4.9004" stroke-width="0.5" stroke="black" fill="green"/>
   </g>
   <g id="cell151">
  <circle cx="524.032" cy="510.3" r="8.08613" stroke-width="0.5" stroke="black" fill="cyan"/>
  <circle cx="524.032" cy="510.3" r="4.8956" stroke-width="0.5" stroke="black" fill="cyan"/>
   </g>
   <g id="cell152">
  <circle cx="643.418" cy="552.433" r="8.05111" stroke-width="0.5" stroke="black" fill="green"/>
  <circle cx="643.418" cy="552.433" r="4.87798" stroke-width="0.5" stroke="black" fill="green"/>
   </g>
   <g id="cell153">
  <circle cx="395.468" cy="524.439" r="8.02246" stroke-width="0.5" stroke="black" fill="cyan"/>
  <circle cx="395.468" cy="524.439" r="4.86543" stroke-width="0.5" stroke="black" fill="cyan"/>
   </g>
   <g id="cell154">
  <circle cx="589.612" cy="499.324" r="8.03453" stroke-width="0.5" stroke="black" fill="magenta"/>
  <circle cx="589.612" cy="499.324" r="4.86794" stroke-width="0.5" stroke="black" fill="magenta"/>
   </g>
   <g id="cell156">
  <circle cx="403.529" cy="557.001" r="7.35146" stroke-width="0.5" stroke="black" fill="green"/>
  <circle cx="403.529" cy="557.001" r="4.4983" stroke-width="0.5" stroke="black" fill="green"/>
   </g>
   <g id="cell157">
  <circle cx="392.917" cy="474.195" r="7.83988" stroke-width="0.5" stroke="black" fill="magenta"/>
  <circle cx="392.917" cy="474.195" r="4.76711" stroke-width="0.5" stroke="black" fill="magenta"/>
   </g>
   <g id="cell158">
  <circle cx="433.407" cy="474.553" r="7.5387" stroke-width="0.5" stroke="black" fill="green"/>
  <circle cx="433.407" cy="474.553" r="4.60635" stroke-width="0.5" stroke="black" fill="green"/>
   </g>
   <g id="cell159">
  <circle cx="438.508" cy="461.709" r="7.5387" stroke-width="0.5" stroke="black" fill="green"/>
  <circle cx="438.508" cy="461.709" r="4.60635" stroke-width="0.5" stroke="black" fill="green"/>
   </g>
   <g id="cell160">
  <circle cx="416.51" cy="559.745" r="7.46026" stroke-width="0.5" stroke="black" fill="green"/>
  <circle cx="416.51" cy="559.745" r="4.56151" stroke-width="0.5" stroke="black" fill="green"/>
   </g>
   <g id="cell161">
  <circle cx="529.335" cy="464.023" r="7.75802" stroke-width="0.5" stroke="black" fill="cyan"/>
  <circle cx="529.335" cy="464.023" r="4.71216" stroke-width="0.5" stroke="black" fill="cyan"/>
   </g>
   <g id="cell162">
  <circle cx="608.261" cy="476.398" r="7.6878" stroke-width="0.5" stroke="black" fill="cyan"/>
  <circle cx="608.261" cy="476.398" r="4.67373" stroke-width="0.5" stroke="black" fill="cyan"/>
   </g>
   <g id="cell163">
  <circle cx="424.26" cy="548.533" r="7.15649" stroke-width="0.5" stroke="black" fill="green"/>
  <circle cx="424.26" cy="548.533" r="4.39796" stroke-width="0.5" stroke="black" fill="green"/>
   </g>
   <g id="cell164">
  <circle cx="455.745" cy="469.37" r="7.68495" stroke-width="0.5" stroke="black" fill="cyan"/>
  <circle cx="455.745" cy="469.37" r="4.67261" stroke-width="0.5" stroke="black" fill="cyan"/>
   </g>
   <g id="cell165">
  <circle cx="411.071" cy="545.797" r="7.35146" stroke-width="0.5" stroke="black" fill="green"/>
  <circle cx="411.071" cy="545.797" r="4.4983" stroke-width="0.5" stroke="black" fill="green"/>
   </g>
   <g id="cell166">
  <circle cx="603.888" cy="500.623" r="7.61442" stroke-width="0.5" stroke="black" fill="green"/>
  <circle cx="603.888" cy="500.623" r="4.62755" stroke-width="0.5" stroke="black" fill="green"/>
   </g>
   <g id="cell167">
  <circle cx="466.134" cy="387.4" r="7.61469" stroke-width="0.5" stroke="black" fill="green"/>
  <circle cx="466.134" cy="387.4" r="4.62762" stroke-width="0.5" stroke="black" fill="green"/>
   </g>
   <g id="cell168">
  <circle cx="519.975" cy="407.308" r="7.55786" stroke-width="0.5" stroke="black" fill="magenta"/>
  <circle cx="519.975" cy="407.308" r="4.60048" stroke-width="0.5" stroke="black" fill="magenta"/>
   </g>
   <g id="cell169">
  <circle cx="471.174" cy="435.92" r="6.188" stroke-width="0.5" stroke="black" fill="magenta"/>
  <circle cx="471.174" cy="435.92" r="3.79673" stroke-width="0.5" stroke="black" fill="magenta"/>
   </g>
   <g id="cell170">
  <circle cx="628.319" cy="489.01" r="7.4685" stroke-width="0.5" stroke="black" fill="green"/>
  <circle cx="628.319" cy="489.01" r="4.53974" stroke-width="0.5" stroke="black" fill="green"/>
   </g>
   <g id="cell171">
  <circle cx="536.608" cy="530.64" r="7.34911" stroke-width="0.5" stroke="black" fill="cyan"/>
  <circle cx="536.608" cy="530.64" r="4.46911" stroke-width="0.5" stroke="black" fill="cyan"/>
   </g>
   <g id="cell172">
  <circle cx="512.119" cy="518.434" r="7.08748" stroke-width="0.5" stroke="black" fill="cyan"/>
  <circle cx="512.119" cy="518.434" r="4.3331" stroke-width="0.5" stroke="black" fill="cyan"/>
   </g>
   <g id="cell175">
  <circle cx="635.091" cy="540.813" r="6.89295" stroke-width="0.5" stroke="black" fill="green"/>
  <circle cx="635.091" cy="540.813" r="4.16907" stroke-width="0.5" stroke="black" fill="green"/>
   </g>
   <g id="cell177">
  <circle cx="369.589" cy="534.921" r="6.69912" stroke-width="0.5" stroke="black" fill="cyan"/>
  <circle cx="369.589" cy="534.921" r="4.03833" stroke-width="0.5" stroke="black" fill="cyan"/>
   </g>
   <g id="cell178">
  <circle cx="480.231" cy="440.697" r="5.98247" stroke-width="0.5" stroke="black" fill="magenta"/>
  <circle cx="480.231" cy="440.697" r="3.65547" stroke-width="0.5" stroke="black" fill="magenta"/>
   </g>
  </g>
 </g>
  <rect x="775" y="1035" width="200" height="10" stroke-width="2" stroke="rgb(255,255,255)" fill="rgb(0,0,0)"/>
  <text x="781.25" y="1028.75"
   font-family="Arial" font-size="25" fill="black" >
   200 &#956;m
  </text>
  <text x="25" y="1045"
   font-family="Arial" font-size="18.75" fill="black" >
   0 days, 0 hours, 0 minutes, and 41.6316 seconds
  </text>
  <rect x="0" y="70" width="1000" height="1000" stroke-width="2" stroke="rgb(0,0,0)" fill="none"/>
</svg>
