<?xml version="1.0" encoding="UTF-8" standalone="no"?>
<!-- Created with PhysiCell (http://PhysiCell.MathCancer.org/) -->
<svg 
 xmlns:dc="http://purl.org/dc/elements/1.1/" 
 xmlns:cc="http://creativecommons.org/ns#" 
 xmlns:rdf="http://www.w3.org/1999/02/22-rdf-syntax-ns#" 
 xmlns:svg="http://www.w3.org/2000/svg" 
 xmlns="http://www.w3.org/2000/svg" 
 version="1.1" 
 width="1000" 
 height="1070" 
 id="svg2">
  <rect x="0" y="0" width="1000" height="1070" stroke-width="2" stroke="white" fill="white"/>
  <text x="12.5" y="30"
   font-family="Arial" font-size="25" fill="black" >
   Current time: 0 days, 17 hours, and 0.00 minutes, z = 0.00 &#956;m
  </text>
  <text x="12.5" y="57.5"
   font-family="Arial" font-size="23.75" fill="black" >
   129 agents
  </text>
 <g id="tissue" 
    transform="translate(0,1070) scale(1,-1)">
  <g id="ECM">
  </g>
  <g id="cells">
   <g id="cell0">
  <circle cx="518.625" cy="532.23" r="8.39203" stroke-width="0.5" stroke="black" fill="magenta"/>
  <circle cx="518.625" cy="532.23" r="5.0446" stroke-width="0.5" stroke="black" fill="magenta"/>
   </g>
   <g id="cell1">
  <circle cx="601.011" cy="521.267" r="2.97674" stroke-width="0.5" stroke="black" fill="magenta"/>
  <circle cx="601.011" cy="521.267" r="2.45592" stroke-width="0.5" stroke="black" fill="black"/>
   </g>
   <g id="cell2">
  <circle cx="513.126" cy="597.934" r="8.41271" stroke-width="0.5" stroke="black" fill="magenta"/>
  <circle cx="513.126" cy="597.934" r="5.05167" stroke-width="0.5" stroke="black" fill="magenta"/>
   </g>
   <g id="cell3">
  <circle cx="531.874" cy="539.409" r="8.41271" stroke-width="0.5" stroke="black" fill="magenta"/>
  <circle cx="531.874" cy="539.409" r="5.05167" stroke-width="0.5" stroke="black" fill="magenta"/>
   </g>
   <g id="cell4">
  <circle cx="472.489" cy="440.5" r="8.39422" stroke-width="0.5" stroke="black" fill="magenta"/>
  <circle cx="472.489" cy="440.5" r="5.04543" stroke-width="0.5" stroke="black" fill="magenta"/>
   </g>
   <g id="cell5">
  <circle cx="465.479" cy="493.699" r="8.41271" stroke-width="0.5" stroke="black" fill="magenta"/>
  <circle cx="465.479" cy="493.699" r="5.05167" stroke-width="0.5" stroke="black" fill="magenta"/>
   </g>
   <g id="cell6">
  <circle cx="594.396" cy="513.419" r="8.34511" stroke-width="0.5" stroke="black" fill="magenta"/>
  <circle cx="594.396" cy="513.419" r="5.02502" stroke-width="0.5" stroke="black" fill="magenta"/>
   </g>
   <g id="cell7">
  <circle cx="511.882" cy="464.679" r="8.41271" stroke-width="0.5" stroke="black" fill="magenta"/>
  <circle cx="511.882" cy="464.679" r="5.05167" stroke-width="0.5" stroke="black" fill="magenta"/>
   </g>
   <g id="cell8">
  <circle cx="374.361" cy="549.286" r="8.41271" stroke-width="0.5" stroke="black" fill="magenta"/>
  <circle cx="374.361" cy="549.286" r="5.05167" stroke-width="0.5" stroke="black" fill="magenta"/>
   </g>
   <g id="cell9">
  <circle cx="464.147" cy="602.13" r="8.34117" stroke-width="0.5" stroke="black" fill="magenta"/>
  <circle cx="464.147" cy="602.13" r="5.02327" stroke-width="0.5" stroke="black" fill="magenta"/>
   </g>
   <g id="cell10">
  <circle cx="583.447" cy="392.105" r="8.41271" stroke-width="0.5" stroke="black" fill="magenta"/>
  <circle cx="583.447" cy="392.105" r="5.05167" stroke-width="0.5" stroke="black" fill="magenta"/>
   </g>
   <g id="cell11">
  <circle cx="589.748" cy="590.273" r="8.41271" stroke-width="0.5" stroke="black" fill="magenta"/>
  <circle cx="589.748" cy="590.273" r="5.05167" stroke-width="0.5" stroke="black" fill="magenta"/>
   </g>
   <g id="cell12">
  <circle cx="505.918" cy="584.662" r="8.41271" stroke-width="0.5" stroke="black" fill="magenta"/>
  <circle cx="505.918" cy="584.662" r="5.05167" stroke-width="0.5" stroke="black" fill="magenta"/>
   </g>
   <g id="cell13">
  <circle cx="379.763" cy="562.392" r="7.32271" stroke-width="0.5" stroke="black" fill="magenta"/>
  <circle cx="379.763" cy="562.392" r="4.45801" stroke-width="0.5" stroke="black" fill="magenta"/>
   </g>
   <g id="cell14">
  <circle cx="525.031" cy="402.227" r="8.41271" stroke-width="0.5" stroke="black" fill="magenta"/>
  <circle cx="525.031" cy="402.227" r="5.05167" stroke-width="0.5" stroke="black" fill="magenta"/>
   </g>
   <g id="cell15">
  <circle cx="382.284" cy="479.492" r="8.39316" stroke-width="0.5" stroke="black" fill="magenta"/>
  <circle cx="382.284" cy="479.492" r="5.04503" stroke-width="0.5" stroke="black" fill="magenta"/>
   </g>
   <g id="cell16">
  <circle cx="429.405" cy="414.066" r="8.41271" stroke-width="0.5" stroke="black" fill="magenta"/>
  <circle cx="429.405" cy="414.066" r="5.05167" stroke-width="0.5" stroke="black" fill="magenta"/>
   </g>
   <g id="cell17">
  <circle cx="585.556" cy="487.892" r="8.25826" stroke-width="0.5" stroke="black" fill="magenta"/>
  <circle cx="585.556" cy="487.892" r="4.98429" stroke-width="0.5" stroke="black" fill="magenta"/>
   </g>
   <g id="cell18">
  <circle cx="511.617" cy="395.231" r="8.39523" stroke-width="0.5" stroke="black" fill="magenta"/>
  <circle cx="511.617" cy="395.231" r="5.04581" stroke-width="0.5" stroke="black" fill="magenta"/>
   </g>
   <g id="cell19">
  <circle cx="447.805" cy="538.197" r="8.31766" stroke-width="0.5" stroke="black" fill="magenta"/>
  <circle cx="447.805" cy="538.197" r="5.0126" stroke-width="0.5" stroke="black" fill="magenta"/>
   </g>
   <g id="cell20">
  <circle cx="528.511" cy="416.962" r="8.41271" stroke-width="0.5" stroke="black" fill="magenta"/>
  <circle cx="528.511" cy="416.962" r="5.05167" stroke-width="0.5" stroke="black" fill="magenta"/>
   </g>
   <g id="cell21">
  <circle cx="465.918" cy="637.256" r="1.95882" stroke-width="0.5" stroke="black" fill="magenta"/>
  <circle cx="465.918" cy="637.256" r="1.82464" stroke-width="0.5" stroke="black" fill="black"/>
   </g>
   <g id="cell22">
  <circle cx="557.881" cy="498.707" r="8.28" stroke-width="0.5" stroke="black" fill="magenta"/>
  <circle cx="557.881" cy="498.707" r="4.9965" stroke-width="0.5" stroke="black" fill="magenta"/>
   </g>
   <g id="cell23">
  <circle cx="537.994" cy="481.446" r="8.41271" stroke-width="0.5" stroke="black" fill="magenta"/>
  <circle cx="537.994" cy="481.446" r="5.05167" stroke-width="0.5" stroke="black" fill="magenta"/>
   </g>
   <g id="cell24">
  <circle cx="559.257" cy="379.783" r="8.41271" stroke-width="0.5" stroke="black" fill="magenta"/>
  <circle cx="559.257" cy="379.783" r="5.05167" stroke-width="0.5" stroke="black" fill="magenta"/>
   </g>
   <g id="cell25">
  <circle cx="647.556" cy="559.309" r="7.87958" stroke-width="0.5" stroke="black" fill="green"/>
  <circle cx="647.556" cy="559.309" r="4.79445" stroke-width="0.5" stroke="black" fill="green"/>
   </g>
   <g id="cell26">
  <circle cx="550.642" cy="401.23" r="8.41271" stroke-width="0.5" stroke="black" fill="green"/>
  <circle cx="550.642" cy="401.23" r="5.05167" stroke-width="0.5" stroke="black" fill="green"/>
   </g>
   <g id="cell27">
  <circle cx="457.446" cy="388.678" r="8.41271" stroke-width="0.5" stroke="black" fill="green"/>
  <circle cx="457.446" cy="388.678" r="5.05167" stroke-width="0.5" stroke="black" fill="green"/>
   </g>
   <g id="cell28">
  <circle cx="432.232" cy="540.422" r="8.41271" stroke-width="0.5" stroke="black" fill="green"/>
  <circle cx="432.232" cy="540.422" r="5.05167" stroke-width="0.5" stroke="black" fill="green"/>
   </g>
   <g id="cell29">
  <circle cx="467.064" cy="520.885" r="7.76059" stroke-width="0.5" stroke="black" fill="green"/>
  <circle cx="467.064" cy="520.885" r="4.71963" stroke-width="0.5" stroke="black" fill="green"/>
   </g>
   <g id="cell30">
  <circle cx="477.45" cy="539.097" r="8.41271" stroke-width="0.5" stroke="black" fill="green"/>
  <circle cx="477.45" cy="539.097" r="5.05167" stroke-width="0.5" stroke="black" fill="green"/>
   </g>
   <g id="cell31">
  <circle cx="412.323" cy="538.352" r="8.41271" stroke-width="0.5" stroke="black" fill="green"/>
  <circle cx="412.323" cy="538.352" r="5.05167" stroke-width="0.5" stroke="black" fill="green"/>
   </g>
   <g id="cell32">
  <circle cx="430.757" cy="466.501" r="8.36032" stroke-width="0.5" stroke="black" fill="green"/>
  <circle cx="430.757" cy="466.501" r="5.03165" stroke-width="0.5" stroke="black" fill="green"/>
   </g>
   <g id="cell33">
  <circle cx="498.82" cy="413.31" r="8.36722" stroke-width="0.5" stroke="black" fill="green"/>
  <circle cx="498.82" cy="413.31" r="5.03458" stroke-width="0.5" stroke="black" fill="green"/>
   </g>
   <g id="cell34">
  <circle cx="392.087" cy="453.593" r="8.35568" stroke-width="0.5" stroke="black" fill="green"/>
  <circle cx="392.087" cy="453.593" r="5.02965" stroke-width="0.5" stroke="black" fill="green"/>
   </g>
   <g id="cell35">
  <circle cx="542.962" cy="550.317" r="8.17502" stroke-width="0.5" stroke="black" fill="green"/>
  <circle cx="542.962" cy="550.317" r="4.94236" stroke-width="0.5" stroke="black" fill="green"/>
   </g>
   <g id="cell36">
  <circle cx="396.034" cy="580.473" r="7.1497" stroke-width="0.5" stroke="black" fill="green"/>
  <circle cx="396.034" cy="580.473" r="4.34001" stroke-width="0.5" stroke="black" fill="green"/>
   </g>
   <g id="cell37">
  <circle cx="634.871" cy="460.618" r="8.41271" stroke-width="0.5" stroke="black" fill="green"/>
  <circle cx="634.871" cy="460.618" r="5.05167" stroke-width="0.5" stroke="black" fill="green"/>
   </g>
   <g id="cell38">
  <circle cx="528.336" cy="600.941" r="8.32291" stroke-width="0.5" stroke="black" fill="green"/>
  <circle cx="528.336" cy="600.941" r="5.01502" stroke-width="0.5" stroke="black" fill="green"/>
   </g>
   <g id="cell39">
  <circle cx="618.691" cy="495.441" r="8.39083" stroke-width="0.5" stroke="black" fill="green"/>
  <circle cx="618.691" cy="495.441" r="5.04414" stroke-width="0.5" stroke="black" fill="green"/>
   </g>
   <g id="cell40">
  <circle cx="485.348" cy="571.779" r="8.41271" stroke-width="0.5" stroke="black" fill="green"/>
  <circle cx="485.348" cy="571.779" r="5.05167" stroke-width="0.5" stroke="black" fill="green"/>
   </g>
   <g id="cell41">
  <circle cx="366.793" cy="481.168" r="8.41271" stroke-width="0.5" stroke="black" fill="green"/>
  <circle cx="366.793" cy="481.168" r="5.05167" stroke-width="0.5" stroke="black" fill="green"/>
   </g>
   <g id="cell42">
  <circle cx="451.635" cy="486.731" r="8.33643" stroke-width="0.5" stroke="black" fill="green"/>
  <circle cx="451.635" cy="486.731" r="5.02233" stroke-width="0.5" stroke="black" fill="green"/>
   </g>
   <g id="cell43">
  <circle cx="558.615" cy="445.805" r="8.41271" stroke-width="0.5" stroke="black" fill="green"/>
  <circle cx="558.615" cy="445.805" r="5.05167" stroke-width="0.5" stroke="black" fill="green"/>
   </g>
   <g id="cell44">
  <circle cx="476.93" cy="627.443" r="8.35062" stroke-width="0.5" stroke="black" fill="green"/>
  <circle cx="476.93" cy="627.443" r="5.02745" stroke-width="0.5" stroke="black" fill="green"/>
   </g>
   <g id="cell45">
  <circle cx="416.851" cy="553.565" r="8.25826" stroke-width="0.5" stroke="black" fill="green"/>
  <circle cx="416.851" cy="553.565" r="4.98429" stroke-width="0.5" stroke="black" fill="green"/>
   </g>
   <g id="cell46">
  <circle cx="517.997" cy="611.752" r="7.49456" stroke-width="0.5" stroke="black" fill="green"/>
  <circle cx="517.997" cy="611.752" r="4.55548" stroke-width="0.5" stroke="black" fill="green"/>
   </g>
   <g id="cell47">
  <circle cx="502.757" cy="510.482" r="8.41271" stroke-width="0.5" stroke="black" fill="green"/>
  <circle cx="502.757" cy="510.482" r="5.05167" stroke-width="0.5" stroke="black" fill="green"/>
   </g>
   <g id="cell48">
  <circle cx="564.653" cy="603.018" r="8.41271" stroke-width="0.5" stroke="black" fill="green"/>
  <circle cx="564.653" cy="603.018" r="5.05167" stroke-width="0.5" stroke="black" fill="green"/>
   </g>
   <g id="cell49">
  <circle cx="433.076" cy="394.855" r="6.67717" stroke-width="0.5" stroke="black" fill="green"/>
  <circle cx="433.076" cy="394.855" r="4.00951" stroke-width="0.5" stroke="black" fill="green"/>
   </g>
   <g id="cell50">
  <circle cx="517.577" cy="516.6" r="8.41271" stroke-width="0.5" stroke="black" fill="cyan"/>
  <circle cx="517.577" cy="516.6" r="5.05167" stroke-width="0.5" stroke="black" fill="cyan"/>
   </g>
   <g id="cell51">
  <circle cx="394.903" cy="598.748" r="6.78181" stroke-width="0.5" stroke="black" fill="cyan"/>
  <circle cx="394.903" cy="598.748" r="4.08714" stroke-width="0.5" stroke="black" fill="cyan"/>
   </g>
   <g id="cell120">
  <circle cx="416.989" cy="610.223" r="7.46878" stroke-width="0.5" stroke="black" fill="cyan"/>
  <circle cx="416.989" cy="610.223" r="4.53982" stroke-width="0.5" stroke="black" fill="cyan"/>
   </g>
   <g id="cell53">
  <circle cx="571.29" cy="436" r="8.41271" stroke-width="0.5" stroke="black" fill="cyan"/>
  <circle cx="571.29" cy="436" r="5.05167" stroke-width="0.5" stroke="black" fill="cyan"/>
   </g>
   <g id="cell54">
  <circle cx="476.391" cy="425.389" r="8.41271" stroke-width="0.5" stroke="black" fill="cyan"/>
  <circle cx="476.391" cy="425.389" r="5.05167" stroke-width="0.5" stroke="black" fill="cyan"/>
   </g>
   <g id="cell55">
  <circle cx="525.927" cy="471.504" r="8.41271" stroke-width="0.5" stroke="black" fill="cyan"/>
  <circle cx="525.927" cy="471.504" r="5.05167" stroke-width="0.5" stroke="black" fill="cyan"/>
   </g>
   <g id="cell56">
  <circle cx="615.793" cy="522.539" r="8.41271" stroke-width="0.5" stroke="black" fill="cyan"/>
  <circle cx="615.793" cy="522.539" r="5.05167" stroke-width="0.5" stroke="black" fill="cyan"/>
   </g>
   <g id="cell57">
  <circle cx="418.459" cy="624.108" r="7.46878" stroke-width="0.5" stroke="black" fill="cyan"/>
  <circle cx="418.459" cy="624.108" r="4.53982" stroke-width="0.5" stroke="black" fill="cyan"/>
   </g>
   <g id="cell58">
  <circle cx="553.408" cy="483.926" r="8.41271" stroke-width="0.5" stroke="black" fill="cyan"/>
  <circle cx="553.408" cy="483.926" r="5.05167" stroke-width="0.5" stroke="black" fill="cyan"/>
   </g>
   <g id="cell59">
  <circle cx="385.171" cy="439.2" r="8.41271" stroke-width="0.5" stroke="black" fill="cyan"/>
  <circle cx="385.171" cy="439.2" r="5.05167" stroke-width="0.5" stroke="black" fill="cyan"/>
   </g>
   <g id="cell60">
  <circle cx="587.605" cy="473.693" r="7.27253" stroke-width="0.5" stroke="black" fill="cyan"/>
  <circle cx="587.605" cy="473.693" r="4.41835" stroke-width="0.5" stroke="black" fill="cyan"/>
   </g>
   <g id="cell61">
  <circle cx="554.612" cy="615.503" r="8.41271" stroke-width="0.5" stroke="black" fill="cyan"/>
  <circle cx="554.612" cy="615.503" r="5.05167" stroke-width="0.5" stroke="black" fill="cyan"/>
   </g>
   <g id="cell62">
  <circle cx="526.637" cy="445.584" r="8.41271" stroke-width="0.5" stroke="black" fill="cyan"/>
  <circle cx="526.637" cy="445.584" r="5.05167" stroke-width="0.5" stroke="black" fill="cyan"/>
   </g>
   <g id="cell63">
  <circle cx="581.773" cy="553.195" r="8.32291" stroke-width="0.5" stroke="black" fill="cyan"/>
  <circle cx="581.773" cy="553.195" r="5.01502" stroke-width="0.5" stroke="black" fill="cyan"/>
   </g>
   <g id="cell64">
  <circle cx="513.758" cy="633.757" r="7.18097" stroke-width="0.5" stroke="black" fill="cyan"/>
  <circle cx="513.758" cy="633.757" r="4.36015" stroke-width="0.5" stroke="black" fill="cyan"/>
   </g>
   <g id="cell65">
  <circle cx="535.516" cy="458.79" r="8.31766" stroke-width="0.5" stroke="black" fill="cyan"/>
  <circle cx="535.516" cy="458.79" r="5.0126" stroke-width="0.5" stroke="black" fill="cyan"/>
   </g>
   <g id="cell66">
  <circle cx="543.272" cy="530.225" r="7.51976" stroke-width="0.5" stroke="black" fill="cyan"/>
  <circle cx="543.272" cy="530.225" r="4.57072" stroke-width="0.5" stroke="black" fill="cyan"/>
   </g>
   <g id="cell67">
  <circle cx="355.153" cy="492.181" r="8.41271" stroke-width="0.5" stroke="black" fill="cyan"/>
  <circle cx="355.153" cy="492.181" r="5.05167" stroke-width="0.5" stroke="black" fill="cyan"/>
   </g>
   <g id="cell68">
  <circle cx="558.097" cy="555.139" r="8.41271" stroke-width="0.5" stroke="black" fill="cyan"/>
  <circle cx="558.097" cy="555.139" r="5.05167" stroke-width="0.5" stroke="black" fill="cyan"/>
   </g>
   <g id="cell69">
  <circle cx="438.09" cy="452.268" r="8.39571" stroke-width="0.5" stroke="black" fill="cyan"/>
  <circle cx="438.09" cy="452.268" r="5.04599" stroke-width="0.5" stroke="black" fill="cyan"/>
   </g>
   <g id="cell70">
  <circle cx="573.474" cy="478.065" r="8.41271" stroke-width="0.5" stroke="black" fill="cyan"/>
  <circle cx="573.474" cy="478.065" r="5.05167" stroke-width="0.5" stroke="black" fill="cyan"/>
   </g>
   <g id="cell71">
  <circle cx="382.453" cy="527.437" r="6.0527" stroke-width="0.5" stroke="black" fill="cyan"/>
  <circle cx="382.453" cy="527.437" r="3.70234" stroke-width="0.5" stroke="black" fill="cyan"/>
   </g>
   <g id="cell72">
  <circle cx="535.462" cy="509.401" r="8.41271" stroke-width="0.5" stroke="black" fill="cyan"/>
  <circle cx="535.462" cy="509.401" r="5.05167" stroke-width="0.5" stroke="black" fill="cyan"/>
   </g>
   <g id="cell73">
  <circle cx="365.842" cy="546.782" r="1.25143" stroke-width="0.5" stroke="black" fill="cyan"/>
  <circle cx="365.842" cy="546.782" r="1.24538" stroke-width="0.5" stroke="black" fill="black"/>
   </g>
   <g id="cell74">
  <circle cx="542.637" cy="444.546" r="8.41271" stroke-width="0.5" stroke="black" fill="cyan"/>
  <circle cx="542.637" cy="444.546" r="5.05167" stroke-width="0.5" stroke="black" fill="cyan"/>
   </g>
   <g id="cell75">
  <circle cx="442.031" cy="475.781" r="7.04242" stroke-width="0.5" stroke="black" fill="cyan"/>
  <circle cx="442.031" cy="475.781" r="4.27345" stroke-width="0.5" stroke="black" fill="cyan"/>
   </g>
   <g id="cell76">
  <circle cx="524.319" cy="387.209" r="8.29723" stroke-width="0.5" stroke="black" fill="magenta"/>
  <circle cx="524.319" cy="387.209" r="5.00425" stroke-width="0.5" stroke="black" fill="magenta"/>
   </g>
   <g id="cell77">
  <circle cx="486.533" cy="436.508" r="7.85228" stroke-width="0.5" stroke="black" fill="magenta"/>
  <circle cx="486.533" cy="436.508" r="4.76837" stroke-width="0.5" stroke="black" fill="magenta"/>
   </g>
   <g id="cell78">
  <circle cx="373.582" cy="467.143" r="8.39316" stroke-width="0.5" stroke="black" fill="magenta"/>
  <circle cx="373.582" cy="467.143" r="5.04503" stroke-width="0.5" stroke="black" fill="magenta"/>
   </g>
   <g id="cell79">
  <circle cx="505.025" cy="525.861" r="8.39203" stroke-width="0.5" stroke="black" fill="magenta"/>
  <circle cx="505.025" cy="525.861" r="5.0446" stroke-width="0.5" stroke="black" fill="magenta"/>
   </g>
   <g id="cell80">
  <circle cx="606.223" cy="485.461" r="8.39083" stroke-width="0.5" stroke="black" fill="green"/>
  <circle cx="606.223" cy="485.461" r="5.04414" stroke-width="0.5" stroke="black" fill="green"/>
   </g>
   <g id="cell81">
  <circle cx="431.233" cy="501.093" r="6.6571" stroke-width="0.5" stroke="black" fill="green"/>
  <circle cx="431.233" cy="501.093" r="4.05157" stroke-width="0.5" stroke="black" fill="green"/>
   </g>
   <g id="cell82">
  <circle cx="543.147" cy="495.703" r="8.38682" stroke-width="0.5" stroke="black" fill="magenta"/>
  <circle cx="543.147" cy="495.703" r="5.04258" stroke-width="0.5" stroke="black" fill="magenta"/>
   </g>
   <g id="cell83">
  <circle cx="492.4" cy="430.674" r="1.18572" stroke-width="0.5" stroke="black" fill="green"/>
  <circle cx="492.4" cy="430.674" r="1.1809" stroke-width="0.5" stroke="black" fill="black"/>
   </g>
   <g id="cell84">
  <circle cx="408.122" cy="480.927" r="7.90752" stroke-width="0.5" stroke="black" fill="green"/>
  <circle cx="408.122" cy="480.927" r="4.80237" stroke-width="0.5" stroke="black" fill="green"/>
   </g>
   <g id="cell85">
  <circle cx="405.579" cy="447.367" r="2.02701" stroke-width="0.5" stroke="black" fill="green"/>
  <circle cx="405.579" cy="447.367" r="1.91314" stroke-width="0.5" stroke="black" fill="black"/>
   </g>
   <g id="cell86">
  <circle cx="393.174" cy="565.494" r="7.94483" stroke-width="0.5" stroke="black" fill="magenta"/>
  <circle cx="393.174" cy="565.494" r="4.82342" stroke-width="0.5" stroke="black" fill="magenta"/>
   </g>
   <g id="cell87">
  <circle cx="438.57" cy="526.922" r="7.60045" stroke-width="0.5" stroke="black" fill="green"/>
  <circle cx="438.57" cy="526.922" r="4.6262" stroke-width="0.5" stroke="black" fill="green"/>
   </g>
   <g id="cell88">
  <circle cx="476.434" cy="611.55" r="8.35062" stroke-width="0.5" stroke="black" fill="green"/>
  <circle cx="476.434" cy="611.55" r="5.02745" stroke-width="0.5" stroke="black" fill="green"/>
   </g>
   <g id="cell89">
  <circle cx="435.966" cy="488.378" r="8.1948" stroke-width="0.5" stroke="black" fill="green"/>
  <circle cx="435.966" cy="488.378" r="4.95719" stroke-width="0.5" stroke="black" fill="green"/>
   </g>
   <g id="cell90">
  <circle cx="583.59" cy="502.749" r="8.34511" stroke-width="0.5" stroke="black" fill="magenta"/>
  <circle cx="583.59" cy="502.749" r="5.02502" stroke-width="0.5" stroke="black" fill="magenta"/>
   </g>
   <g id="cell91">
  <circle cx="455.821" cy="598.751" r="1.63859" stroke-width="0.5" stroke="black" fill="magenta"/>
  <circle cx="455.821" cy="598.751" r="1.60174" stroke-width="0.5" stroke="black" fill="black"/>
   </g>
   <g id="cell92">
  <circle cx="553.373" cy="592.465" r="7.88047" stroke-width="0.5" stroke="black" fill="green"/>
  <circle cx="553.373" cy="592.465" r="4.79749" stroke-width="0.5" stroke="black" fill="green"/>
   </g>
   <g id="cell93">
  <circle cx="576.894" cy="530.368" r="8.20268" stroke-width="0.5" stroke="black" fill="cyan"/>
  <circle cx="576.894" cy="530.368" r="4.96079" stroke-width="0.5" stroke="black" fill="cyan"/>
   </g>
   <g id="cell94">
  <circle cx="547.468" cy="469.152" r="8.31766" stroke-width="0.5" stroke="black" fill="cyan"/>
  <circle cx="547.468" cy="469.152" r="5.0126" stroke-width="0.5" stroke="black" fill="cyan"/>
   </g>
   <g id="cell95">
  <circle cx="462.488" cy="535.112" r="8.31766" stroke-width="0.5" stroke="black" fill="magenta"/>
  <circle cx="462.488" cy="535.112" r="5.0126" stroke-width="0.5" stroke="black" fill="magenta"/>
   </g>
   <g id="cell96">
  <circle cx="534.984" cy="376.76" r="8.29723" stroke-width="0.5" stroke="black" fill="magenta"/>
  <circle cx="534.984" cy="376.76" r="5.00425" stroke-width="0.5" stroke="black" fill="magenta"/>
   </g>
   <g id="cell97">
  <circle cx="569.549" cy="508.023" r="8.28" stroke-width="0.5" stroke="black" fill="magenta"/>
  <circle cx="569.549" cy="508.023" r="4.9965" stroke-width="0.5" stroke="black" fill="magenta"/>
   </g>
   <g id="cell98">
  <circle cx="408.168" cy="566.693" r="8.25826" stroke-width="0.5" stroke="black" fill="green"/>
  <circle cx="408.168" cy="566.693" r="4.98429" stroke-width="0.5" stroke="black" fill="green"/>
   </g>
   <g id="cell99">
  <circle cx="571.791" cy="493.382" r="8.25826" stroke-width="0.5" stroke="black" fill="magenta"/>
  <circle cx="571.791" cy="493.382" r="4.98429" stroke-width="0.5" stroke="black" fill="magenta"/>
   </g>
   <g id="cell100">
  <circle cx="569.208" cy="543.892" r="8.20268" stroke-width="0.5" stroke="black" fill="cyan"/>
  <circle cx="569.208" cy="543.892" r="4.96079" stroke-width="0.5" stroke="black" fill="cyan"/>
   </g>
   <g id="cell101">
  <circle cx="461.948" cy="629.229" r="7.96554" stroke-width="0.5" stroke="black" fill="magenta"/>
  <circle cx="461.948" cy="629.229" r="4.83934" stroke-width="0.5" stroke="black" fill="magenta"/>
   </g>
   <g id="cell102">
  <circle cx="445.403" cy="500.998" r="8.1948" stroke-width="0.5" stroke="black" fill="green"/>
  <circle cx="445.403" cy="500.998" r="4.95719" stroke-width="0.5" stroke="black" fill="green"/>
   </g>
   <g id="cell103">
  <circle cx="543.634" cy="604.197" r="8.14761" stroke-width="0.5" stroke="black" fill="green"/>
  <circle cx="543.634" cy="604.197" r="4.93315" stroke-width="0.5" stroke="black" fill="green"/>
   </g>
   <g id="cell104">
  <circle cx="554.364" cy="539.812" r="8.17502" stroke-width="0.5" stroke="black" fill="green"/>
  <circle cx="554.364" cy="539.812" r="4.94236" stroke-width="0.5" stroke="black" fill="green"/>
   </g>
   <g id="cell105">
  <circle cx="416.393" cy="493.794" r="8.13291" stroke-width="0.5" stroke="black" fill="green"/>
  <circle cx="416.393" cy="493.794" r="4.92265" stroke-width="0.5" stroke="black" fill="green"/>
   </g>
   <g id="cell106">
  <circle cx="639.154" cy="537.416" r="8.14594" stroke-width="0.5" stroke="black" fill="green"/>
  <circle cx="639.154" cy="537.416" r="4.92726" stroke-width="0.5" stroke="black" fill="green"/>
   </g>
   <g id="cell107">
  <circle cx="383.112" cy="514.115" r="8.06667" stroke-width="0.5" stroke="black" fill="cyan"/>
  <circle cx="383.112" cy="514.115" r="4.88515" stroke-width="0.5" stroke="black" fill="cyan"/>
   </g>
   <g id="cell108">
  <circle cx="459.287" cy="643.271" r="7.96554" stroke-width="0.5" stroke="black" fill="magenta"/>
  <circle cx="459.287" cy="643.271" r="4.83934" stroke-width="0.5" stroke="black" fill="magenta"/>
   </g>
   <g id="cell109">
  <circle cx="448.41" cy="633.91" r="7.96554" stroke-width="0.5" stroke="black" fill="magenta"/>
  <circle cx="448.41" cy="633.91" r="4.83934" stroke-width="0.5" stroke="black" fill="magenta"/>
   </g>
   <g id="cell110">
  <circle cx="538.726" cy="589.688" r="7.88047" stroke-width="0.5" stroke="black" fill="green"/>
  <circle cx="538.726" cy="589.688" r="4.79749" stroke-width="0.5" stroke="black" fill="green"/>
   </g>
   <g id="cell111">
  <circle cx="634.533" cy="551.928" r="7.87958" stroke-width="0.5" stroke="black" fill="green"/>
  <circle cx="634.533" cy="551.928" r="4.79445" stroke-width="0.5" stroke="black" fill="green"/>
   </g>
   <g id="cell112">
  <circle cx="383.098" cy="575.675" r="7.94483" stroke-width="0.5" stroke="black" fill="magenta"/>
  <circle cx="383.098" cy="575.675" r="4.82342" stroke-width="0.5" stroke="black" fill="magenta"/>
   </g>
   <g id="cell113">
  <circle cx="423.117" cy="480.054" r="7.90752" stroke-width="0.5" stroke="black" fill="green"/>
  <circle cx="423.117" cy="480.054" r="4.80237" stroke-width="0.5" stroke="black" fill="green"/>
   </g>
   <g id="cell114">
  <circle cx="497.74" cy="445.064" r="7.85228" stroke-width="0.5" stroke="black" fill="magenta"/>
  <circle cx="497.74" cy="445.064" r="4.76837" stroke-width="0.5" stroke="black" fill="magenta"/>
   </g>
   <g id="cell115">
  <circle cx="452.709" cy="523.997" r="7.76059" stroke-width="0.5" stroke="black" fill="green"/>
  <circle cx="452.709" cy="523.997" r="4.71963" stroke-width="0.5" stroke="black" fill="green"/>
   </g>
   <g id="cell116">
  <circle cx="369.02" cy="518.838" r="7.53881" stroke-width="0.5" stroke="black" fill="cyan"/>
  <circle cx="369.02" cy="518.838" r="4.60398" stroke-width="0.5" stroke="black" fill="cyan"/>
   </g>
   <g id="cell117">
  <circle cx="436.692" cy="513.065" r="7.60045" stroke-width="0.5" stroke="black" fill="green"/>
  <circle cx="436.692" cy="513.065" r="4.6262" stroke-width="0.5" stroke="black" fill="green"/>
   </g>
   <g id="cell118">
  <circle cx="530.706" cy="524.076" r="7.51976" stroke-width="0.5" stroke="black" fill="cyan"/>
  <circle cx="530.706" cy="524.076" r="4.57072" stroke-width="0.5" stroke="black" fill="cyan"/>
   </g>
   <g id="cell119">
  <circle cx="524.04" cy="624.517" r="7.49456" stroke-width="0.5" stroke="black" fill="green"/>
  <circle cx="524.04" cy="624.517" r="4.55548" stroke-width="0.5" stroke="black" fill="green"/>
   </g>
   <g id="cell121">
  <circle cx="388.267" cy="552.435" r="7.32271" stroke-width="0.5" stroke="black" fill="magenta"/>
  <circle cx="388.267" cy="552.435" r="4.45801" stroke-width="0.5" stroke="black" fill="magenta"/>
   </g>
   <g id="cell122">
  <circle cx="601.144" cy="471.504" r="7.27253" stroke-width="0.5" stroke="black" fill="cyan"/>
  <circle cx="601.144" cy="471.504" r="4.41835" stroke-width="0.5" stroke="black" fill="cyan"/>
   </g>
   <g id="cell123">
  <circle cx="503.185" cy="642.219" r="7.18097" stroke-width="0.5" stroke="black" fill="cyan"/>
  <circle cx="503.185" cy="642.219" r="4.36015" stroke-width="0.5" stroke="black" fill="cyan"/>
   </g>
   <g id="cell124">
  <circle cx="385.68" cy="589.473" r="7.1497" stroke-width="0.5" stroke="black" fill="green"/>
  <circle cx="385.68" cy="589.473" r="4.34001" stroke-width="0.5" stroke="black" fill="green"/>
   </g>
   <g id="cell125">
  <circle cx="446.951" cy="463.728" r="7.04242" stroke-width="0.5" stroke="black" fill="cyan"/>
  <circle cx="446.951" cy="463.728" r="4.27345" stroke-width="0.5" stroke="black" fill="cyan"/>
   </g>
   <g id="cell126">
  <circle cx="420.491" cy="507.272" r="6.6571" stroke-width="0.5" stroke="black" fill="green"/>
  <circle cx="420.491" cy="507.272" r="4.05157" stroke-width="0.5" stroke="black" fill="green"/>
   </g>
   <g id="cell127">
  <circle cx="407.233" cy="601.307" r="6.78181" stroke-width="0.5" stroke="black" fill="cyan"/>
  <circle cx="407.233" cy="601.307" r="4.08714" stroke-width="0.5" stroke="black" fill="cyan"/>
   </g>
   <g id="cell128">
  <circle cx="371.793" cy="531.565" r="6.0527" stroke-width="0.5" stroke="black" fill="cyan"/>
  <circle cx="371.793" cy="531.565" r="3.70234" stroke-width="0.5" stroke="black" fill="cyan"/>
   </g>
   <g id="cell129">
  <circle cx="423.148" cy="402.17" r="6.67717" stroke-width="0.5" stroke="black" fill="green"/>
  <circle cx="423.148" cy="402.17" r="4.00951" stroke-width="0.5" stroke="black" fill="green"/>
   </g>
  </g>
 </g>
  <rect x="775" y="1035" width="200" height="10" stroke-width="2" stroke="rgb(255,255,255)" fill="rgb(0,0,0)"/>
  <text x="781.25" y="1028.75"
   font-family="Arial" font-size="25" fill="black" >
   200 &#956;m
  </text>
  <text x="25" y="1045"
   font-family="Arial" font-size="18.75" fill="black" >
   0 days, 0 hours, 0 minutes, and 22.7378 seconds
  </text>
  <rect x="0" y="70" width="1000" height="1000" stroke-width="2" stroke="rgb(0,0,0)" fill="none"/>
</svg>
