<?xml version="1.0" encoding="UTF-8" standalone="no"?>
<!-- Created with PhysiCell (http://PhysiCell.MathCancer.org/) -->
<svg 
 xmlns:dc="http://purl.org/dc/elements/1.1/" 
 xmlns:cc="http://creativecommons.org/ns#" 
 xmlns:rdf="http://www.w3.org/1999/02/22-rdf-syntax-ns#" 
 xmlns:svg="http://www.w3.org/2000/svg" 
 xmlns="http://www.w3.org/2000/svg" 
 version="1.1" 
 width="1000" 
 height="1070" 
 id="svg2">
  <rect x="0" y="0" width="1000" height="1070" stroke-width="2" stroke="white" fill="white"/>
  <text x="12.5" y="30"
   font-family="Arial" font-size="25" fill="black" >
   Current time: 0 days, 11 hours, and 0.00 minutes, z = 0.00 &#956;m
  </text>
  <text x="12.5" y="57.5"
   font-family="Arial" font-size="23.75" fill="black" >
   110 agents
  </text>
 <g id="tissue" 
    transform="translate(0,1070) scale(1,-1)">
  <g id="ECM">
  </g>
  <g id="cells">
   <g id="cell0">
  <circle cx="521.359" cy="532.131" r="8.29993" stroke-width="0.5" stroke="black" fill="magenta"/>
  <circle cx="521.359" cy="532.131" r="5.00433" stroke-width="0.5" stroke="black" fill="magenta"/>
   </g>
   <g id="cell1">
  <circle cx="602.785" cy="526.91" r="8.41271" stroke-width="0.5" stroke="black" fill="magenta"/>
  <circle cx="602.785" cy="526.91" r="5.05167" stroke-width="0.5" stroke="black" fill="magenta"/>
   </g>
   <g id="cell2">
  <circle cx="510.993" cy="600.511" r="8.41271" stroke-width="0.5" stroke="black" fill="magenta"/>
  <circle cx="510.993" cy="600.511" r="5.05167" stroke-width="0.5" stroke="black" fill="magenta"/>
   </g>
   <g id="cell3">
  <circle cx="531.173" cy="543.469" r="8.41271" stroke-width="0.5" stroke="black" fill="magenta"/>
  <circle cx="531.173" cy="543.469" r="5.05167" stroke-width="0.5" stroke="black" fill="magenta"/>
   </g>
   <g id="cell4">
  <circle cx="473.666" cy="441.433" r="8.31209" stroke-width="0.5" stroke="black" fill="magenta"/>
  <circle cx="473.666" cy="441.433" r="5.01002" stroke-width="0.5" stroke="black" fill="magenta"/>
   </g>
   <g id="cell5">
  <circle cx="465.231" cy="493.463" r="8.41271" stroke-width="0.5" stroke="black" fill="magenta"/>
  <circle cx="465.231" cy="493.463" r="5.05167" stroke-width="0.5" stroke="black" fill="magenta"/>
   </g>
   <g id="cell6">
  <circle cx="596.134" cy="513.538" r="8.03527" stroke-width="0.5" stroke="black" fill="magenta"/>
  <circle cx="596.134" cy="513.538" r="4.86813" stroke-width="0.5" stroke="black" fill="magenta"/>
   </g>
   <g id="cell7">
  <circle cx="511.59" cy="464.539" r="8.41271" stroke-width="0.5" stroke="black" fill="magenta"/>
  <circle cx="511.59" cy="464.539" r="5.05167" stroke-width="0.5" stroke="black" fill="magenta"/>
   </g>
   <g id="cell8">
  <circle cx="373.918" cy="547.148" r="8.41271" stroke-width="0.5" stroke="black" fill="magenta"/>
  <circle cx="373.918" cy="547.148" r="5.05167" stroke-width="0.5" stroke="black" fill="magenta"/>
   </g>
   <g id="cell9">
  <circle cx="466.271" cy="602.584" r="8.01277" stroke-width="0.5" stroke="black" fill="magenta"/>
  <circle cx="466.271" cy="602.584" r="4.85584" stroke-width="0.5" stroke="black" fill="magenta"/>
   </g>
   <g id="cell10">
  <circle cx="583.447" cy="392.105" r="8.41271" stroke-width="0.5" stroke="black" fill="magenta"/>
  <circle cx="583.447" cy="392.105" r="5.05167" stroke-width="0.5" stroke="black" fill="magenta"/>
   </g>
   <g id="cell11">
  <circle cx="589.748" cy="590.273" r="8.41271" stroke-width="0.5" stroke="black" fill="magenta"/>
  <circle cx="589.748" cy="590.273" r="5.05167" stroke-width="0.5" stroke="black" fill="magenta"/>
   </g>
   <g id="cell12">
  <circle cx="506.647" cy="586" r="8.41271" stroke-width="0.5" stroke="black" fill="magenta"/>
  <circle cx="506.647" cy="586" r="5.05167" stroke-width="0.5" stroke="black" fill="magenta"/>
   </g>
   <g id="cell13">
  <circle cx="380.4" cy="560.523" r="8.09544" stroke-width="0.5" stroke="black" fill="magenta"/>
  <circle cx="380.4" cy="560.523" r="4.90058" stroke-width="0.5" stroke="black" fill="magenta"/>
   </g>
   <g id="cell14">
  <circle cx="525.254" cy="401.883" r="8.41271" stroke-width="0.5" stroke="black" fill="magenta"/>
  <circle cx="525.254" cy="401.883" r="5.05167" stroke-width="0.5" stroke="black" fill="magenta"/>
   </g>
   <g id="cell15">
  <circle cx="384.613" cy="478.526" r="8.30618" stroke-width="0.5" stroke="black" fill="magenta"/>
  <circle cx="384.613" cy="478.526" r="5.00727" stroke-width="0.5" stroke="black" fill="magenta"/>
   </g>
   <g id="cell16">
  <circle cx="428.96" cy="413.217" r="8.41271" stroke-width="0.5" stroke="black" fill="magenta"/>
  <circle cx="428.96" cy="413.217" r="5.05167" stroke-width="0.5" stroke="black" fill="magenta"/>
   </g>
   <g id="cell17">
  <circle cx="582.632" cy="487.936" r="7.54436" stroke-width="0.5" stroke="black" fill="magenta"/>
  <circle cx="582.632" cy="487.936" r="4.58555" stroke-width="0.5" stroke="black" fill="magenta"/>
   </g>
   <g id="cell18">
  <circle cx="512.015" cy="394.673" r="8.31766" stroke-width="0.5" stroke="black" fill="magenta"/>
  <circle cx="512.015" cy="394.673" r="5.0126" stroke-width="0.5" stroke="black" fill="magenta"/>
   </g>
   <g id="cell19">
  <circle cx="447.69" cy="533.72" r="7.87851" stroke-width="0.5" stroke="black" fill="magenta"/>
  <circle cx="447.69" cy="533.72" r="4.78096" stroke-width="0.5" stroke="black" fill="magenta"/>
   </g>
   <g id="cell20">
  <circle cx="528.624" cy="416.644" r="8.41271" stroke-width="0.5" stroke="black" fill="magenta"/>
  <circle cx="528.624" cy="416.644" r="5.05167" stroke-width="0.5" stroke="black" fill="magenta"/>
   </g>
   <g id="cell21">
  <circle cx="468.472" cy="636.431" r="5.97154" stroke-width="0.5" stroke="black" fill="magenta"/>
  <circle cx="468.472" cy="636.431" r="3.63368" stroke-width="0.5" stroke="black" fill="magenta"/>
   </g>
   <g id="cell22">
  <circle cx="556.846" cy="497.482" r="7.65689" stroke-width="0.5" stroke="black" fill="magenta"/>
  <circle cx="556.846" cy="497.482" r="4.66492" stroke-width="0.5" stroke="black" fill="magenta"/>
   </g>
   <g id="cell23">
  <circle cx="538.053" cy="480.476" r="8.41271" stroke-width="0.5" stroke="black" fill="magenta"/>
  <circle cx="538.053" cy="480.476" r="5.05167" stroke-width="0.5" stroke="black" fill="magenta"/>
   </g>
   <g id="cell24">
  <circle cx="559.288" cy="379.787" r="8.41271" stroke-width="0.5" stroke="black" fill="magenta"/>
  <circle cx="559.288" cy="379.787" r="5.05167" stroke-width="0.5" stroke="black" fill="magenta"/>
   </g>
   <g id="cell25">
  <circle cx="642.219" cy="554.482" r="6.99069" stroke-width="0.5" stroke="black" fill="green"/>
  <circle cx="642.219" cy="554.482" r="4.23498" stroke-width="0.5" stroke="black" fill="green"/>
   </g>
   <g id="cell26">
  <circle cx="550.641" cy="401.23" r="8.41271" stroke-width="0.5" stroke="black" fill="green"/>
  <circle cx="550.641" cy="401.23" r="5.05167" stroke-width="0.5" stroke="black" fill="green"/>
   </g>
   <g id="cell27">
  <circle cx="457.446" cy="388.678" r="8.41271" stroke-width="0.5" stroke="black" fill="green"/>
  <circle cx="457.446" cy="388.678" r="5.05167" stroke-width="0.5" stroke="black" fill="green"/>
   </g>
   <g id="cell28">
  <circle cx="432.598" cy="533.708" r="8.41271" stroke-width="0.5" stroke="black" fill="green"/>
  <circle cx="432.598" cy="533.708" r="5.05167" stroke-width="0.5" stroke="black" fill="green"/>
   </g>
   <g id="cell29">
  <circle cx="456.405" cy="521.782" r="8.07654" stroke-width="0.5" stroke="black" fill="green"/>
  <circle cx="456.405" cy="521.782" r="4.89046" stroke-width="0.5" stroke="black" fill="green"/>
   </g>
   <g id="cell30">
  <circle cx="481.317" cy="540.22" r="8.41271" stroke-width="0.5" stroke="black" fill="green"/>
  <circle cx="481.317" cy="540.22" r="5.05167" stroke-width="0.5" stroke="black" fill="green"/>
   </g>
   <g id="cell31">
  <circle cx="412.109" cy="538.827" r="8.41271" stroke-width="0.5" stroke="black" fill="green"/>
  <circle cx="412.109" cy="538.827" r="5.05167" stroke-width="0.5" stroke="black" fill="green"/>
   </g>
   <g id="cell32">
  <circle cx="428.317" cy="470.946" r="8.1218" stroke-width="0.5" stroke="black" fill="green"/>
  <circle cx="428.317" cy="470.946" r="4.91457" stroke-width="0.5" stroke="black" fill="green"/>
   </g>
   <g id="cell33">
  <circle cx="498.763" cy="413.39" r="8.1609" stroke-width="0.5" stroke="black" fill="green"/>
  <circle cx="498.763" cy="413.39" r="4.93506" stroke-width="0.5" stroke="black" fill="green"/>
   </g>
   <g id="cell34">
  <circle cx="391.789" cy="453.589" r="8.09544" stroke-width="0.5" stroke="black" fill="green"/>
  <circle cx="391.789" cy="453.589" r="4.90058" stroke-width="0.5" stroke="black" fill="green"/>
   </g>
   <g id="cell35">
  <circle cx="544.425" cy="548.791" r="7.11815" stroke-width="0.5" stroke="black" fill="green"/>
  <circle cx="544.425" cy="548.791" r="4.31954" stroke-width="0.5" stroke="black" fill="green"/>
   </g>
   <g id="cell36">
  <circle cx="390.862" cy="585.259" r="8.41271" stroke-width="0.5" stroke="black" fill="green"/>
  <circle cx="390.862" cy="585.259" r="5.05167" stroke-width="0.5" stroke="black" fill="green"/>
   </g>
   <g id="cell37">
  <circle cx="634.871" cy="460.618" r="8.41271" stroke-width="0.5" stroke="black" fill="green"/>
  <circle cx="634.871" cy="460.618" r="5.05167" stroke-width="0.5" stroke="black" fill="green"/>
   </g>
   <g id="cell38">
  <circle cx="531.173" cy="601.991" r="7.90853" stroke-width="0.5" stroke="black" fill="green"/>
  <circle cx="531.173" cy="601.991" r="4.79791" stroke-width="0.5" stroke="black" fill="green"/>
   </g>
   <g id="cell39">
  <circle cx="617.696" cy="494.578" r="8.29331" stroke-width="0.5" stroke="black" fill="green"/>
  <circle cx="617.696" cy="494.578" r="5.0012" stroke-width="0.5" stroke="black" fill="green"/>
   </g>
   <g id="cell40">
  <circle cx="485.348" cy="571.779" r="8.41271" stroke-width="0.5" stroke="black" fill="green"/>
  <circle cx="485.348" cy="571.779" r="5.05167" stroke-width="0.5" stroke="black" fill="green"/>
   </g>
   <g id="cell41">
  <circle cx="364.752" cy="480.514" r="8.41271" stroke-width="0.5" stroke="black" fill="green"/>
  <circle cx="364.752" cy="480.514" r="5.05167" stroke-width="0.5" stroke="black" fill="green"/>
   </g>
   <g id="cell42">
  <circle cx="451.181" cy="487.597" r="7.98403" stroke-width="0.5" stroke="black" fill="green"/>
  <circle cx="451.181" cy="487.597" r="4.84838" stroke-width="0.5" stroke="black" fill="green"/>
   </g>
   <g id="cell43">
  <circle cx="558.228" cy="445.639" r="8.41271" stroke-width="0.5" stroke="black" fill="green"/>
  <circle cx="558.228" cy="445.639" r="5.05167" stroke-width="0.5" stroke="black" fill="green"/>
   </g>
   <g id="cell44">
  <circle cx="477.49" cy="627.445" r="8.06667" stroke-width="0.5" stroke="black" fill="green"/>
  <circle cx="477.49" cy="627.445" r="4.88515" stroke-width="0.5" stroke="black" fill="green"/>
   </g>
   <g id="cell45">
  <circle cx="416.774" cy="553.214" r="7.54436" stroke-width="0.5" stroke="black" fill="green"/>
  <circle cx="416.774" cy="553.214" r="4.58555" stroke-width="0.5" stroke="black" fill="green"/>
   </g>
   <g id="cell46">
  <circle cx="520.319" cy="612.999" r="8.41271" stroke-width="0.5" stroke="black" fill="green"/>
  <circle cx="520.319" cy="612.999" r="5.05167" stroke-width="0.5" stroke="black" fill="green"/>
   </g>
   <g id="cell47">
  <circle cx="504.316" cy="511.475" r="8.41271" stroke-width="0.5" stroke="black" fill="green"/>
  <circle cx="504.316" cy="511.475" r="5.05167" stroke-width="0.5" stroke="black" fill="green"/>
   </g>
   <g id="cell48">
  <circle cx="564.493" cy="602.808" r="8.41271" stroke-width="0.5" stroke="black" fill="green"/>
  <circle cx="564.493" cy="602.808" r="5.05167" stroke-width="0.5" stroke="black" fill="green"/>
   </g>
   <g id="cell49">
  <circle cx="429.826" cy="397.641" r="8.41271" stroke-width="0.5" stroke="black" fill="green"/>
  <circle cx="429.826" cy="397.641" r="5.05167" stroke-width="0.5" stroke="black" fill="green"/>
   </g>
   <g id="cell50">
  <circle cx="519.455" cy="516.774" r="8.41271" stroke-width="0.5" stroke="black" fill="cyan"/>
  <circle cx="519.455" cy="516.774" r="5.05167" stroke-width="0.5" stroke="black" fill="cyan"/>
   </g>
   <g id="cell51">
  <circle cx="399.589" cy="598.685" r="8.41271" stroke-width="0.5" stroke="black" fill="cyan"/>
  <circle cx="399.589" cy="598.685" r="5.05167" stroke-width="0.5" stroke="black" fill="cyan"/>
   </g>
   <g id="cell52">
  <circle cx="524.744" cy="425.171" r="1.79449" stroke-width="0.5" stroke="black" fill="cyan"/>
  <circle cx="524.744" cy="425.171" r="1.73665" stroke-width="0.5" stroke="black" fill="black"/>
   </g>
   <g id="cell53">
  <circle cx="571.112" cy="436.134" r="8.41271" stroke-width="0.5" stroke="black" fill="cyan"/>
  <circle cx="571.112" cy="436.134" r="5.05167" stroke-width="0.5" stroke="black" fill="cyan"/>
   </g>
   <g id="cell54">
  <circle cx="479.091" cy="426.905" r="8.41271" stroke-width="0.5" stroke="black" fill="cyan"/>
  <circle cx="479.091" cy="426.905" r="5.05167" stroke-width="0.5" stroke="black" fill="cyan"/>
   </g>
   <g id="cell55">
  <circle cx="525.79" cy="470.914" r="8.41271" stroke-width="0.5" stroke="black" fill="cyan"/>
  <circle cx="525.79" cy="470.914" r="5.05167" stroke-width="0.5" stroke="black" fill="cyan"/>
   </g>
   <g id="cell56">
  <circle cx="617.707" cy="522.306" r="8.41271" stroke-width="0.5" stroke="black" fill="cyan"/>
  <circle cx="617.707" cy="522.306" r="5.05167" stroke-width="0.5" stroke="black" fill="cyan"/>
   </g>
   <g id="cell57">
  <circle cx="416.924" cy="617.466" r="8.41271" stroke-width="0.5" stroke="black" fill="cyan"/>
  <circle cx="416.924" cy="617.466" r="5.05167" stroke-width="0.5" stroke="black" fill="cyan"/>
   </g>
   <g id="cell58">
  <circle cx="553.4" cy="483.144" r="8.41271" stroke-width="0.5" stroke="black" fill="cyan"/>
  <circle cx="553.4" cy="483.144" r="5.05167" stroke-width="0.5" stroke="black" fill="cyan"/>
   </g>
   <g id="cell59">
  <circle cx="385.225" cy="439.316" r="8.41271" stroke-width="0.5" stroke="black" fill="cyan"/>
  <circle cx="385.225" cy="439.316" r="5.05167" stroke-width="0.5" stroke="black" fill="cyan"/>
   </g>
   <g id="cell60">
  <circle cx="592.525" cy="475.958" r="8.41271" stroke-width="0.5" stroke="black" fill="cyan"/>
  <circle cx="592.525" cy="475.958" r="5.05167" stroke-width="0.5" stroke="black" fill="cyan"/>
   </g>
   <g id="cell61">
  <circle cx="554.577" cy="615.418" r="8.41271" stroke-width="0.5" stroke="black" fill="cyan"/>
  <circle cx="554.577" cy="615.418" r="5.05167" stroke-width="0.5" stroke="black" fill="cyan"/>
   </g>
   <g id="cell62">
  <circle cx="526.294" cy="444.018" r="8.41271" stroke-width="0.5" stroke="black" fill="cyan"/>
  <circle cx="526.294" cy="444.018" r="5.05167" stroke-width="0.5" stroke="black" fill="cyan"/>
   </g>
   <g id="cell63">
  <circle cx="581.155" cy="552.743" r="7.90853" stroke-width="0.5" stroke="black" fill="cyan"/>
  <circle cx="581.155" cy="552.743" r="4.79791" stroke-width="0.5" stroke="black" fill="cyan"/>
   </g>
   <g id="cell64">
  <circle cx="509.962" cy="636.825" r="8.41271" stroke-width="0.5" stroke="black" fill="cyan"/>
  <circle cx="509.962" cy="636.825" r="5.05167" stroke-width="0.5" stroke="black" fill="cyan"/>
   </g>
   <g id="cell65">
  <circle cx="536.002" cy="459.314" r="7.87851" stroke-width="0.5" stroke="black" fill="cyan"/>
  <circle cx="536.002" cy="459.314" r="4.78096" stroke-width="0.5" stroke="black" fill="cyan"/>
   </g>
   <g id="cell66">
  <circle cx="536.515" cy="528.791" r="8.41271" stroke-width="0.5" stroke="black" fill="cyan"/>
  <circle cx="536.515" cy="528.791" r="5.05167" stroke-width="0.5" stroke="black" fill="cyan"/>
   </g>
   <g id="cell67">
  <circle cx="354.485" cy="492.871" r="8.41271" stroke-width="0.5" stroke="black" fill="cyan"/>
  <circle cx="354.485" cy="492.871" r="5.05167" stroke-width="0.5" stroke="black" fill="cyan"/>
   </g>
   <g id="cell68">
  <circle cx="558.249" cy="553.664" r="8.41271" stroke-width="0.5" stroke="black" fill="cyan"/>
  <circle cx="558.249" cy="553.664" r="5.05167" stroke-width="0.5" stroke="black" fill="cyan"/>
   </g>
   <g id="cell69">
  <circle cx="436.736" cy="457.857" r="8.32032" stroke-width="0.5" stroke="black" fill="cyan"/>
  <circle cx="436.736" cy="457.857" r="5.01383" stroke-width="0.5" stroke="black" fill="cyan"/>
   </g>
   <g id="cell70">
  <circle cx="576.862" cy="474.183" r="8.41271" stroke-width="0.5" stroke="black" fill="cyan"/>
  <circle cx="576.862" cy="474.183" r="5.05167" stroke-width="0.5" stroke="black" fill="cyan"/>
   </g>
   <g id="cell71">
  <circle cx="375.186" cy="524.621" r="6.73287" stroke-width="0.5" stroke="black" fill="cyan"/>
  <circle cx="375.186" cy="524.621" r="4.05039" stroke-width="0.5" stroke="black" fill="cyan"/>
   </g>
   <g id="cell72">
  <circle cx="535.023" cy="512.702" r="8.41271" stroke-width="0.5" stroke="black" fill="cyan"/>
  <circle cx="535.023" cy="512.702" r="5.05167" stroke-width="0.5" stroke="black" fill="cyan"/>
   </g>
   <g id="cell73">
  <circle cx="363.254" cy="546.14" r="3.19585" stroke-width="0.5" stroke="black" fill="cyan"/>
  <circle cx="363.254" cy="546.14" r="2.55241" stroke-width="0.5" stroke="black" fill="black"/>
   </g>
   <g id="cell74">
  <circle cx="542.245" cy="445.188" r="8.41271" stroke-width="0.5" stroke="black" fill="cyan"/>
  <circle cx="542.245" cy="445.188" r="5.05167" stroke-width="0.5" stroke="black" fill="cyan"/>
   </g>
   <g id="cell75">
  <circle cx="443.911" cy="472.153" r="8.32032" stroke-width="0.5" stroke="black" fill="cyan"/>
  <circle cx="443.911" cy="472.153" r="5.01383" stroke-width="0.5" stroke="black" fill="cyan"/>
   </g>
   <g id="cell76">
  <circle cx="524.469" cy="387.372" r="7.75829" stroke-width="0.5" stroke="black" fill="magenta"/>
  <circle cx="524.469" cy="387.372" r="4.7207" stroke-width="0.5" stroke="black" fill="magenta"/>
   </g>
   <g id="cell77">
  <circle cx="488.483" cy="439.21" r="8.31209" stroke-width="0.5" stroke="black" fill="magenta"/>
  <circle cx="488.483" cy="439.21" r="5.01002" stroke-width="0.5" stroke="black" fill="magenta"/>
   </g>
   <g id="cell78">
  <circle cx="373.961" cy="468.074" r="8.30618" stroke-width="0.5" stroke="black" fill="magenta"/>
  <circle cx="373.961" cy="468.074" r="5.00727" stroke-width="0.5" stroke="black" fill="magenta"/>
   </g>
   <g id="cell79">
  <circle cx="507.477" cy="526.639" r="8.29993" stroke-width="0.5" stroke="black" fill="magenta"/>
  <circle cx="507.477" cy="526.639" r="5.00433" stroke-width="0.5" stroke="black" fill="magenta"/>
   </g>
   <g id="cell80">
  <circle cx="606.233" cy="483.806" r="8.29331" stroke-width="0.5" stroke="black" fill="green"/>
  <circle cx="606.233" cy="483.806" r="5.0012" stroke-width="0.5" stroke="black" fill="green"/>
   </g>
   <g id="cell81">
  <circle cx="429.353" cy="504.312" r="6.89397" stroke-width="0.5" stroke="black" fill="green"/>
  <circle cx="429.353" cy="504.312" r="4.1927" stroke-width="0.5" stroke="black" fill="green"/>
   </g>
   <g id="cell82">
  <circle cx="542.83" cy="494.69" r="8.27097" stroke-width="0.5" stroke="black" fill="magenta"/>
  <circle cx="542.83" cy="494.69" r="4.99048" stroke-width="0.5" stroke="black" fill="magenta"/>
   </g>
   <g id="cell83">
  <circle cx="493.045" cy="429.885" r="2.94089" stroke-width="0.5" stroke="black" fill="green"/>
  <circle cx="493.045" cy="429.885" r="2.41442" stroke-width="0.5" stroke="black" fill="black"/>
   </g>
   <g id="cell84">
  <circle cx="416.417" cy="480.66" r="8.1218" stroke-width="0.5" stroke="black" fill="green"/>
  <circle cx="416.417" cy="480.66" r="4.91457" stroke-width="0.5" stroke="black" fill="green"/>
   </g>
   <g id="cell85">
  <circle cx="405.824" cy="447.255" r="8.09544" stroke-width="0.5" stroke="black" fill="green"/>
  <circle cx="405.824" cy="447.255" r="4.90058" stroke-width="0.5" stroke="black" fill="green"/>
   </g>
   <g id="cell86">
  <circle cx="391.48" cy="569.975" r="8.09544" stroke-width="0.5" stroke="black" fill="magenta"/>
  <circle cx="391.48" cy="569.975" r="4.90058" stroke-width="0.5" stroke="black" fill="magenta"/>
   </g>
   <g id="cell87">
  <circle cx="441.084" cy="520.482" r="8.07654" stroke-width="0.5" stroke="black" fill="green"/>
  <circle cx="441.084" cy="520.482" r="4.89046" stroke-width="0.5" stroke="black" fill="green"/>
   </g>
   <g id="cell88">
  <circle cx="477.356" cy="612.413" r="8.06667" stroke-width="0.5" stroke="black" fill="green"/>
  <circle cx="477.356" cy="612.413" r="4.88515" stroke-width="0.5" stroke="black" fill="green"/>
   </g>
   <g id="cell89">
  <circle cx="436.998" cy="490.02" r="7.14359" stroke-width="0.5" stroke="black" fill="green"/>
  <circle cx="436.998" cy="490.02" r="4.3766" stroke-width="0.5" stroke="black" fill="green"/>
   </g>
   <g id="cell90">
  <circle cx="588.752" cy="500.813" r="8.03527" stroke-width="0.5" stroke="black" fill="magenta"/>
  <circle cx="588.752" cy="500.813" r="4.86813" stroke-width="0.5" stroke="black" fill="magenta"/>
   </g>
   <g id="cell91">
  <circle cx="452.769" cy="597.589" r="8.01277" stroke-width="0.5" stroke="black" fill="magenta"/>
  <circle cx="452.769" cy="597.589" r="4.85584" stroke-width="0.5" stroke="black" fill="magenta"/>
   </g>
   <g id="cell92">
  <circle cx="546.457" cy="591.89" r="6.87337" stroke-width="0.5" stroke="black" fill="green"/>
  <circle cx="546.457" cy="591.89" r="4.20846" stroke-width="0.5" stroke="black" fill="green"/>
   </g>
   <g id="cell93">
  <circle cx="575.842" cy="532.319" r="7.18279" stroke-width="0.5" stroke="black" fill="cyan"/>
  <circle cx="575.842" cy="532.319" r="4.39779" stroke-width="0.5" stroke="black" fill="cyan"/>
   </g>
   <g id="cell94">
  <circle cx="547.591" cy="468.795" r="7.87851" stroke-width="0.5" stroke="black" fill="cyan"/>
  <circle cx="547.591" cy="468.795" r="4.78096" stroke-width="0.5" stroke="black" fill="cyan"/>
   </g>
   <g id="cell95">
  <circle cx="461.749" cy="535.589" r="7.87851" stroke-width="0.5" stroke="black" fill="magenta"/>
  <circle cx="461.749" cy="535.589" r="4.78096" stroke-width="0.5" stroke="black" fill="magenta"/>
   </g>
   <g id="cell96">
  <circle cx="534.248" cy="377.46" r="7.75829" stroke-width="0.5" stroke="black" fill="magenta"/>
  <circle cx="534.248" cy="377.46" r="4.7207" stroke-width="0.5" stroke="black" fill="magenta"/>
   </g>
   <g id="cell97">
  <circle cx="567.429" cy="506.148" r="7.65689" stroke-width="0.5" stroke="black" fill="magenta"/>
  <circle cx="567.429" cy="506.148" r="4.66492" stroke-width="0.5" stroke="black" fill="magenta"/>
   </g>
   <g id="cell98">
  <circle cx="413.08" cy="567.017" r="7.54436" stroke-width="0.5" stroke="black" fill="green"/>
  <circle cx="413.08" cy="567.017" r="4.58555" stroke-width="0.5" stroke="black" fill="green"/>
   </g>
   <g id="cell99">
  <circle cx="569.696" cy="492.594" r="7.54436" stroke-width="0.5" stroke="black" fill="magenta"/>
  <circle cx="569.696" cy="492.594" r="4.58555" stroke-width="0.5" stroke="black" fill="magenta"/>
   </g>
   <g id="cell100">
  <circle cx="569.602" cy="544.337" r="7.18279" stroke-width="0.5" stroke="black" fill="cyan"/>
  <circle cx="569.602" cy="544.337" r="4.39779" stroke-width="0.5" stroke="black" fill="cyan"/>
   </g>
   <g id="cell101">
  <circle cx="458.444" cy="632.563" r="5.97154" stroke-width="0.5" stroke="black" fill="magenta"/>
  <circle cx="458.444" cy="632.563" r="3.63368" stroke-width="0.5" stroke="black" fill="magenta"/>
   </g>
   <g id="cell102">
  <circle cx="442.488" cy="502.404" r="7.14359" stroke-width="0.5" stroke="black" fill="green"/>
  <circle cx="442.488" cy="502.404" r="4.3766" stroke-width="0.5" stroke="black" fill="green"/>
   </g>
   <g id="cell103">
  <circle cx="544.87" cy="604.769" r="6.87337" stroke-width="0.5" stroke="black" fill="green"/>
  <circle cx="544.87" cy="604.769" r="4.20846" stroke-width="0.5" stroke="black" fill="green"/>
   </g>
   <g id="cell104">
  <circle cx="549.313" cy="536.223" r="7.11815" stroke-width="0.5" stroke="black" fill="green"/>
  <circle cx="549.313" cy="536.223" r="4.31954" stroke-width="0.5" stroke="black" fill="green"/>
   </g>
   <g id="cell105">
  <circle cx="421.975" cy="493.663" r="6.89397" stroke-width="0.5" stroke="black" fill="green"/>
  <circle cx="421.975" cy="493.663" r="4.1927" stroke-width="0.5" stroke="black" fill="green"/>
   </g>
   <g id="cell106">
  <circle cx="638.565" cy="541.735" r="6.99069" stroke-width="0.5" stroke="black" fill="green"/>
  <circle cx="638.565" cy="541.735" r="4.23498" stroke-width="0.5" stroke="black" fill="green"/>
   </g>
   <g id="cell107">
  <circle cx="382.476" cy="514.14" r="6.73287" stroke-width="0.5" stroke="black" fill="cyan"/>
  <circle cx="382.476" cy="514.14" r="4.05039" stroke-width="0.5" stroke="black" fill="cyan"/>
   </g>
   <g id="cell108">
  <circle cx="460.332" cy="643.191" r="5.97154" stroke-width="0.5" stroke="black" fill="magenta"/>
  <circle cx="460.332" cy="643.191" r="3.63368" stroke-width="0.5" stroke="black" fill="magenta"/>
   </g>
   <g id="cell109">
  <circle cx="447.762" cy="631.325" r="5.97154" stroke-width="0.5" stroke="black" fill="magenta"/>
  <circle cx="447.762" cy="631.325" r="3.63368" stroke-width="0.5" stroke="black" fill="magenta"/>
   </g>
  </g>
 </g>
  <rect x="775" y="1035" width="200" height="10" stroke-width="2" stroke="rgb(255,255,255)" fill="rgb(0,0,0)"/>
  <text x="781.25" y="1028.75"
   font-family="Arial" font-size="25" fill="black" >
   200 &#956;m
  </text>
  <text x="25" y="1045"
   font-family="Arial" font-size="18.75" fill="black" >
   0 days, 0 hours, 0 minutes, and 14.7219 seconds
  </text>
  <rect x="0" y="70" width="1000" height="1000" stroke-width="2" stroke="rgb(0,0,0)" fill="none"/>
</svg>
