<?xml version="1.0" encoding="UTF-8" standalone="no"?>
<!-- Created with PhysiCell (http://PhysiCell.MathCancer.org/) -->
<svg 
 xmlns:dc="http://purl.org/dc/elements/1.1/" 
 xmlns:cc="http://creativecommons.org/ns#" 
 xmlns:rdf="http://www.w3.org/1999/02/22-rdf-syntax-ns#" 
 xmlns:svg="http://www.w3.org/2000/svg" 
 xmlns="http://www.w3.org/2000/svg" 
 version="1.1" 
 width="1000" 
 height="1070" 
 id="svg2">
  <rect x="0" y="0" width="1000" height="1070" stroke-width="2" stroke="white" fill="white"/>
  <text x="12.5" y="30"
   font-family="Arial" font-size="25" fill="black" >
   Current time: 0 days, 2 hours, and 30.00 minutes, z = 0.00 &#956;m
  </text>
  <text x="12.5" y="57.5"
   font-family="Arial" font-size="23.75" fill="black" >
   83 agents
  </text>
 <g id="tissue" 
    transform="translate(0,1070) scale(1,-1)">
  <g id="ECM">
  </g>
  <g id="cells">
   <g id="cell0">
  <circle cx="519.97" cy="530.128" r="7.1497" stroke-width="0.5" stroke="black" fill="magenta"/>
  <circle cx="519.97" cy="530.128" r="4.34001" stroke-width="0.5" stroke="black" fill="magenta"/>
   </g>
   <g id="cell1">
  <circle cx="604.181" cy="529.94" r="8.41271" stroke-width="0.5" stroke="black" fill="magenta"/>
  <circle cx="604.181" cy="529.94" r="5.05167" stroke-width="0.5" stroke="black" fill="magenta"/>
   </g>
   <g id="cell2">
  <circle cx="510.884" cy="600.601" r="8.41271" stroke-width="0.5" stroke="black" fill="magenta"/>
  <circle cx="510.884" cy="600.601" r="5.05167" stroke-width="0.5" stroke="black" fill="magenta"/>
   </g>
   <g id="cell3">
  <circle cx="532.574" cy="545.272" r="8.41271" stroke-width="0.5" stroke="black" fill="magenta"/>
  <circle cx="532.574" cy="545.272" r="5.05167" stroke-width="0.5" stroke="black" fill="magenta"/>
   </g>
   <g id="cell4">
  <circle cx="476.473" cy="440.347" r="7.27253" stroke-width="0.5" stroke="black" fill="magenta"/>
  <circle cx="476.473" cy="440.347" r="4.41835" stroke-width="0.5" stroke="black" fill="magenta"/>
   </g>
   <g id="cell5">
  <circle cx="465.032" cy="493.3" r="8.41271" stroke-width="0.5" stroke="black" fill="magenta"/>
  <circle cx="465.032" cy="493.3" r="5.05167" stroke-width="0.5" stroke="black" fill="magenta"/>
   </g>
   <g id="cell6">
  <circle cx="593.788" cy="508.948" r="8.41271" stroke-width="0.5" stroke="black" fill="magenta"/>
  <circle cx="593.788" cy="508.948" r="5.05167" stroke-width="0.5" stroke="black" fill="magenta"/>
   </g>
   <g id="cell7">
  <circle cx="512.228" cy="464.821" r="8.41271" stroke-width="0.5" stroke="black" fill="magenta"/>
  <circle cx="512.228" cy="464.821" r="5.05167" stroke-width="0.5" stroke="black" fill="magenta"/>
   </g>
   <g id="cell8">
  <circle cx="375.891" cy="544.521" r="8.41271" stroke-width="0.5" stroke="black" fill="magenta"/>
  <circle cx="375.891" cy="544.521" r="5.05167" stroke-width="0.5" stroke="black" fill="magenta"/>
   </g>
   <g id="cell9">
  <circle cx="460.472" cy="599.786" r="8.41271" stroke-width="0.5" stroke="black" fill="magenta"/>
  <circle cx="460.472" cy="599.786" r="5.05167" stroke-width="0.5" stroke="black" fill="magenta"/>
   </g>
   <g id="cell10">
  <circle cx="583.447" cy="392.105" r="8.41271" stroke-width="0.5" stroke="black" fill="magenta"/>
  <circle cx="583.447" cy="392.105" r="5.05167" stroke-width="0.5" stroke="black" fill="magenta"/>
   </g>
   <g id="cell11">
  <circle cx="589.748" cy="590.273" r="8.41271" stroke-width="0.5" stroke="black" fill="magenta"/>
  <circle cx="589.748" cy="590.273" r="5.05167" stroke-width="0.5" stroke="black" fill="magenta"/>
   </g>
   <g id="cell12">
  <circle cx="506.664" cy="586.058" r="8.41271" stroke-width="0.5" stroke="black" fill="magenta"/>
  <circle cx="506.664" cy="586.058" r="5.05167" stroke-width="0.5" stroke="black" fill="magenta"/>
   </g>
   <g id="cell13">
  <circle cx="386.188" cy="568.214" r="8.41271" stroke-width="0.5" stroke="black" fill="magenta"/>
  <circle cx="386.188" cy="568.214" r="5.05167" stroke-width="0.5" stroke="black" fill="magenta"/>
   </g>
   <g id="cell14">
  <circle cx="529.429" cy="400.095" r="8.41271" stroke-width="0.5" stroke="black" fill="magenta"/>
  <circle cx="529.429" cy="400.095" r="5.05167" stroke-width="0.5" stroke="black" fill="magenta"/>
   </g>
   <g id="cell15">
  <circle cx="384.77" cy="477.489" r="7.21189" stroke-width="0.5" stroke="black" fill="magenta"/>
  <circle cx="384.77" cy="477.489" r="4.37993" stroke-width="0.5" stroke="black" fill="magenta"/>
   </g>
   <g id="cell16">
  <circle cx="428.96" cy="413.217" r="8.41271" stroke-width="0.5" stroke="black" fill="magenta"/>
  <circle cx="428.96" cy="413.217" r="5.05167" stroke-width="0.5" stroke="black" fill="magenta"/>
   </g>
   <g id="cell17">
  <circle cx="572.698" cy="489.811" r="8.41271" stroke-width="0.5" stroke="black" fill="magenta"/>
  <circle cx="572.698" cy="489.811" r="5.05167" stroke-width="0.5" stroke="black" fill="magenta"/>
   </g>
   <g id="cell18">
  <circle cx="512.169" cy="388.981" r="7.33129" stroke-width="0.5" stroke="black" fill="magenta"/>
  <circle cx="512.169" cy="388.981" r="4.45516" stroke-width="0.5" stroke="black" fill="magenta"/>
   </g>
   <g id="cell19">
  <circle cx="451.89" cy="537.733" r="8.41271" stroke-width="0.5" stroke="black" fill="magenta"/>
  <circle cx="451.89" cy="537.733" r="5.05167" stroke-width="0.5" stroke="black" fill="magenta"/>
   </g>
   <g id="cell20">
  <circle cx="531.03" cy="415.171" r="8.41271" stroke-width="0.5" stroke="black" fill="magenta"/>
  <circle cx="531.03" cy="415.171" r="5.05167" stroke-width="0.5" stroke="black" fill="magenta"/>
   </g>
   <g id="cell21">
  <circle cx="464.368" cy="634.574" r="8.41271" stroke-width="0.5" stroke="black" fill="magenta"/>
  <circle cx="464.368" cy="634.574" r="5.05167" stroke-width="0.5" stroke="black" fill="magenta"/>
   </g>
   <g id="cell22">
  <circle cx="559.316" cy="493.09" r="6.89675" stroke-width="0.5" stroke="black" fill="magenta"/>
  <circle cx="559.316" cy="493.09" r="4.17024" stroke-width="0.5" stroke="black" fill="magenta"/>
   </g>
   <g id="cell23">
  <circle cx="537.639" cy="482.005" r="8.41271" stroke-width="0.5" stroke="black" fill="magenta"/>
  <circle cx="537.639" cy="482.005" r="5.05167" stroke-width="0.5" stroke="black" fill="magenta"/>
   </g>
   <g id="cell24">
  <circle cx="559.288" cy="379.786" r="8.41271" stroke-width="0.5" stroke="black" fill="magenta"/>
  <circle cx="559.288" cy="379.786" r="5.05167" stroke-width="0.5" stroke="black" fill="magenta"/>
   </g>
   <g id="cell25">
  <circle cx="640.943" cy="550.03" r="8.41271" stroke-width="0.5" stroke="black" fill="green"/>
  <circle cx="640.943" cy="550.03" r="5.05167" stroke-width="0.5" stroke="black" fill="green"/>
   </g>
   <g id="cell26">
  <circle cx="550.823" cy="401.24" r="8.41271" stroke-width="0.5" stroke="black" fill="green"/>
  <circle cx="550.823" cy="401.24" r="5.05167" stroke-width="0.5" stroke="black" fill="green"/>
   </g>
   <g id="cell27">
  <circle cx="457.446" cy="388.678" r="8.41271" stroke-width="0.5" stroke="black" fill="green"/>
  <circle cx="457.446" cy="388.678" r="5.05167" stroke-width="0.5" stroke="black" fill="green"/>
   </g>
   <g id="cell28">
  <circle cx="437.943" cy="530.917" r="8.41271" stroke-width="0.5" stroke="black" fill="green"/>
  <circle cx="437.943" cy="530.917" r="5.05167" stroke-width="0.5" stroke="black" fill="green"/>
   </g>
   <g id="cell29">
  <circle cx="449.576" cy="520.065" r="8.41271" stroke-width="0.5" stroke="black" fill="green"/>
  <circle cx="449.576" cy="520.065" r="5.05167" stroke-width="0.5" stroke="black" fill="green"/>
   </g>
   <g id="cell30">
  <circle cx="481.58" cy="540.282" r="8.41271" stroke-width="0.5" stroke="black" fill="green"/>
  <circle cx="481.58" cy="540.282" r="5.05167" stroke-width="0.5" stroke="black" fill="green"/>
   </g>
   <g id="cell31">
  <circle cx="412.757" cy="541.193" r="8.41271" stroke-width="0.5" stroke="black" fill="green"/>
  <circle cx="412.757" cy="541.193" r="5.05167" stroke-width="0.5" stroke="black" fill="green"/>
   </g>
   <g id="cell32">
  <circle cx="426.389" cy="473.759" r="8.41271" stroke-width="0.5" stroke="black" fill="green"/>
  <circle cx="426.389" cy="473.759" r="5.05167" stroke-width="0.5" stroke="black" fill="green"/>
   </g>
   <g id="cell33">
  <circle cx="494.718" cy="423.211" r="8.41271" stroke-width="0.5" stroke="black" fill="green"/>
  <circle cx="494.718" cy="423.211" r="5.05167" stroke-width="0.5" stroke="black" fill="green"/>
   </g>
   <g id="cell34">
  <circle cx="397.088" cy="450.831" r="8.41271" stroke-width="0.5" stroke="black" fill="green"/>
  <circle cx="397.088" cy="450.831" r="5.05167" stroke-width="0.5" stroke="black" fill="green"/>
   </g>
   <g id="cell35">
  <circle cx="548.246" cy="544.836" r="8.41271" stroke-width="0.5" stroke="black" fill="green"/>
  <circle cx="548.246" cy="544.836" r="5.05167" stroke-width="0.5" stroke="black" fill="green"/>
   </g>
   <g id="cell36">
  <circle cx="391.483" cy="582.9" r="8.41271" stroke-width="0.5" stroke="black" fill="green"/>
  <circle cx="391.483" cy="582.9" r="5.05167" stroke-width="0.5" stroke="black" fill="green"/>
   </g>
   <g id="cell37">
  <circle cx="634.871" cy="460.618" r="8.41271" stroke-width="0.5" stroke="black" fill="green"/>
  <circle cx="634.871" cy="460.618" r="5.05167" stroke-width="0.5" stroke="black" fill="green"/>
   </g>
   <g id="cell38">
  <circle cx="536.145" cy="601.891" r="8.41271" stroke-width="0.5" stroke="black" fill="green"/>
  <circle cx="536.145" cy="601.891" r="5.05167" stroke-width="0.5" stroke="black" fill="green"/>
   </g>
   <g id="cell39">
  <circle cx="616.989" cy="493.919" r="7.08639" stroke-width="0.5" stroke="black" fill="green"/>
  <circle cx="616.989" cy="493.919" r="4.29876" stroke-width="0.5" stroke="black" fill="green"/>
   </g>
   <g id="cell40">
  <circle cx="485.348" cy="571.779" r="8.41271" stroke-width="0.5" stroke="black" fill="green"/>
  <circle cx="485.348" cy="571.779" r="5.05167" stroke-width="0.5" stroke="black" fill="green"/>
   </g>
   <g id="cell41">
  <circle cx="364.12" cy="479.966" r="8.41271" stroke-width="0.5" stroke="black" fill="green"/>
  <circle cx="364.12" cy="479.966" r="5.05167" stroke-width="0.5" stroke="black" fill="green"/>
   </g>
   <g id="cell42">
  <circle cx="443.871" cy="492.087" r="6.95901" stroke-width="0.5" stroke="black" fill="green"/>
  <circle cx="443.871" cy="492.087" r="4.21341" stroke-width="0.5" stroke="black" fill="green"/>
   </g>
   <g id="cell43">
  <circle cx="558.12" cy="445.623" r="8.41271" stroke-width="0.5" stroke="black" fill="green"/>
  <circle cx="558.12" cy="445.623" r="5.05167" stroke-width="0.5" stroke="black" fill="green"/>
   </g>
   <g id="cell44">
  <circle cx="475.857" cy="624.021" r="8.41271" stroke-width="0.5" stroke="black" fill="green"/>
  <circle cx="475.857" cy="624.021" r="5.05167" stroke-width="0.5" stroke="black" fill="green"/>
   </g>
   <g id="cell45">
  <circle cx="414.953" cy="557.066" r="8.41271" stroke-width="0.5" stroke="black" fill="green"/>
  <circle cx="414.953" cy="557.066" r="5.05167" stroke-width="0.5" stroke="black" fill="green"/>
   </g>
   <g id="cell46">
  <circle cx="522.766" cy="610.711" r="8.41271" stroke-width="0.5" stroke="black" fill="green"/>
  <circle cx="522.766" cy="610.711" r="5.05167" stroke-width="0.5" stroke="black" fill="green"/>
   </g>
   <g id="cell47">
  <circle cx="503.989" cy="507.674" r="8.41271" stroke-width="0.5" stroke="black" fill="green"/>
  <circle cx="503.989" cy="507.674" r="5.05167" stroke-width="0.5" stroke="black" fill="green"/>
   </g>
   <g id="cell48">
  <circle cx="564.511" cy="602.792" r="8.41271" stroke-width="0.5" stroke="black" fill="green"/>
  <circle cx="564.511" cy="602.792" r="5.05167" stroke-width="0.5" stroke="black" fill="green"/>
   </g>
   <g id="cell49">
  <circle cx="429.826" cy="397.641" r="8.41271" stroke-width="0.5" stroke="black" fill="green"/>
  <circle cx="429.826" cy="397.641" r="5.05167" stroke-width="0.5" stroke="black" fill="green"/>
   </g>
   <g id="cell50">
  <circle cx="518.04" cy="515.784" r="8.41271" stroke-width="0.5" stroke="black" fill="cyan"/>
  <circle cx="518.04" cy="515.784" r="5.05167" stroke-width="0.5" stroke="black" fill="cyan"/>
   </g>
   <g id="cell51">
  <circle cx="398.729" cy="597.217" r="8.41271" stroke-width="0.5" stroke="black" fill="cyan"/>
  <circle cx="398.729" cy="597.217" r="5.05167" stroke-width="0.5" stroke="black" fill="cyan"/>
   </g>
   <g id="cell52">
  <circle cx="522.763" cy="428.436" r="8.41271" stroke-width="0.5" stroke="black" fill="cyan"/>
  <circle cx="522.763" cy="428.436" r="5.05167" stroke-width="0.5" stroke="black" fill="cyan"/>
   </g>
   <g id="cell53">
  <circle cx="571.107" cy="436.138" r="8.41271" stroke-width="0.5" stroke="black" fill="cyan"/>
  <circle cx="571.107" cy="436.138" r="5.05167" stroke-width="0.5" stroke="black" fill="cyan"/>
   </g>
   <g id="cell54">
  <circle cx="478.918" cy="425.993" r="8.41271" stroke-width="0.5" stroke="black" fill="cyan"/>
  <circle cx="478.918" cy="425.993" r="5.05167" stroke-width="0.5" stroke="black" fill="cyan"/>
   </g>
   <g id="cell55">
  <circle cx="526.87" cy="470.463" r="8.41271" stroke-width="0.5" stroke="black" fill="cyan"/>
  <circle cx="526.87" cy="470.463" r="5.05167" stroke-width="0.5" stroke="black" fill="cyan"/>
   </g>
   <g id="cell56">
  <circle cx="617.773" cy="522.285" r="8.41271" stroke-width="0.5" stroke="black" fill="cyan"/>
  <circle cx="617.773" cy="522.285" r="5.05167" stroke-width="0.5" stroke="black" fill="cyan"/>
   </g>
   <g id="cell57">
  <circle cx="416.924" cy="617.466" r="8.41271" stroke-width="0.5" stroke="black" fill="cyan"/>
  <circle cx="416.924" cy="617.466" r="5.05167" stroke-width="0.5" stroke="black" fill="cyan"/>
   </g>
   <g id="cell58">
  <circle cx="553.176" cy="479.604" r="8.41271" stroke-width="0.5" stroke="black" fill="cyan"/>
  <circle cx="553.176" cy="479.604" r="5.05167" stroke-width="0.5" stroke="black" fill="cyan"/>
   </g>
   <g id="cell59">
  <circle cx="385.463" cy="439.803" r="8.41271" stroke-width="0.5" stroke="black" fill="cyan"/>
  <circle cx="385.463" cy="439.803" r="5.05167" stroke-width="0.5" stroke="black" fill="cyan"/>
   </g>
   <g id="cell60">
  <circle cx="593.225" cy="473.716" r="8.41271" stroke-width="0.5" stroke="black" fill="cyan"/>
  <circle cx="593.225" cy="473.716" r="5.05167" stroke-width="0.5" stroke="black" fill="cyan"/>
   </g>
   <g id="cell61">
  <circle cx="553.003" cy="613.943" r="8.41271" stroke-width="0.5" stroke="black" fill="cyan"/>
  <circle cx="553.003" cy="613.943" r="5.05167" stroke-width="0.5" stroke="black" fill="cyan"/>
   </g>
   <g id="cell62">
  <circle cx="526.021" cy="444.188" r="8.41271" stroke-width="0.5" stroke="black" fill="cyan"/>
  <circle cx="526.021" cy="444.188" r="5.05167" stroke-width="0.5" stroke="black" fill="cyan"/>
   </g>
   <g id="cell63">
  <circle cx="577.867" cy="546.42" r="8.41271" stroke-width="0.5" stroke="black" fill="cyan"/>
  <circle cx="577.867" cy="546.42" r="5.05167" stroke-width="0.5" stroke="black" fill="cyan"/>
   </g>
   <g id="cell64">
  <circle cx="509.962" cy="636.825" r="8.41271" stroke-width="0.5" stroke="black" fill="cyan"/>
  <circle cx="509.962" cy="636.825" r="5.05167" stroke-width="0.5" stroke="black" fill="cyan"/>
   </g>
   <g id="cell65">
  <circle cx="542.572" cy="467.261" r="8.41271" stroke-width="0.5" stroke="black" fill="cyan"/>
  <circle cx="542.572" cy="467.261" r="5.05167" stroke-width="0.5" stroke="black" fill="cyan"/>
   </g>
   <g id="cell66">
  <circle cx="534.294" cy="529.852" r="8.41271" stroke-width="0.5" stroke="black" fill="cyan"/>
  <circle cx="534.294" cy="529.852" r="5.05167" stroke-width="0.5" stroke="black" fill="cyan"/>
   </g>
   <g id="cell67">
  <circle cx="354.548" cy="492.778" r="8.41271" stroke-width="0.5" stroke="black" fill="cyan"/>
  <circle cx="354.548" cy="492.778" r="5.05167" stroke-width="0.5" stroke="black" fill="cyan"/>
   </g>
   <g id="cell68">
  <circle cx="562.748" cy="551.772" r="8.41271" stroke-width="0.5" stroke="black" fill="cyan"/>
  <circle cx="562.748" cy="551.772" r="5.05167" stroke-width="0.5" stroke="black" fill="cyan"/>
   </g>
   <g id="cell69">
  <circle cx="433.807" cy="460.707" r="7.3599" stroke-width="0.5" stroke="black" fill="cyan"/>
  <circle cx="433.807" cy="460.707" r="4.47294" stroke-width="0.5" stroke="black" fill="cyan"/>
   </g>
   <g id="cell70">
  <circle cx="577.222" cy="474.877" r="8.41271" stroke-width="0.5" stroke="black" fill="cyan"/>
  <circle cx="577.222" cy="474.877" r="5.05167" stroke-width="0.5" stroke="black" fill="cyan"/>
   </g>
   <g id="cell71">
  <circle cx="377.712" cy="520.989" r="8.41271" stroke-width="0.5" stroke="black" fill="cyan"/>
  <circle cx="377.712" cy="520.989" r="5.05167" stroke-width="0.5" stroke="black" fill="cyan"/>
   </g>
   <g id="cell72">
  <circle cx="534.241" cy="513.898" r="8.41271" stroke-width="0.5" stroke="black" fill="cyan"/>
  <circle cx="534.241" cy="513.898" r="5.05167" stroke-width="0.5" stroke="black" fill="cyan"/>
   </g>
   <g id="cell73">
  <circle cx="360.355" cy="545.935" r="8.41271" stroke-width="0.5" stroke="black" fill="cyan"/>
  <circle cx="360.355" cy="545.935" r="5.05167" stroke-width="0.5" stroke="black" fill="cyan"/>
   </g>
   <g id="cell74">
  <circle cx="542" cy="446.423" r="8.41271" stroke-width="0.5" stroke="black" fill="cyan"/>
  <circle cx="542" cy="446.423" r="5.05167" stroke-width="0.5" stroke="black" fill="cyan"/>
   </g>
   <g id="cell75">
  <circle cx="441.346" cy="472.47" r="7.3599" stroke-width="0.5" stroke="black" fill="cyan"/>
  <circle cx="441.346" cy="472.47" r="4.47294" stroke-width="0.5" stroke="black" fill="cyan"/>
   </g>
   <g id="cell76">
  <circle cx="525.103" cy="386.642" r="7.33129" stroke-width="0.5" stroke="black" fill="magenta"/>
  <circle cx="525.103" cy="386.642" r="4.45516" stroke-width="0.5" stroke="black" fill="magenta"/>
   </g>
   <g id="cell77">
  <circle cx="488.969" cy="436.543" r="7.27253" stroke-width="0.5" stroke="black" fill="magenta"/>
  <circle cx="488.969" cy="436.543" r="4.41835" stroke-width="0.5" stroke="black" fill="magenta"/>
   </g>
   <g id="cell78">
  <circle cx="374.373" cy="469.751" r="7.21189" stroke-width="0.5" stroke="black" fill="magenta"/>
  <circle cx="374.373" cy="469.751" r="4.37993" stroke-width="0.5" stroke="black" fill="magenta"/>
   </g>
   <g id="cell79">
  <circle cx="507.219" cy="528.946" r="7.1497" stroke-width="0.5" stroke="black" fill="magenta"/>
  <circle cx="507.219" cy="528.946" r="4.34001" stroke-width="0.5" stroke="black" fill="magenta"/>
   </g>
   <g id="cell80">
  <circle cx="607.181" cy="484.7" r="7.08639" stroke-width="0.5" stroke="black" fill="green"/>
  <circle cx="607.181" cy="484.7" r="4.29876" stroke-width="0.5" stroke="black" fill="green"/>
   </g>
   <g id="cell81">
  <circle cx="431.759" cy="497.34" r="6.95901" stroke-width="0.5" stroke="black" fill="green"/>
  <circle cx="431.759" cy="497.34" r="4.21341" stroke-width="0.5" stroke="black" fill="green"/>
   </g>
   <g id="cell82">
  <circle cx="546.967" cy="492.217" r="6.89675" stroke-width="0.5" stroke="black" fill="magenta"/>
  <circle cx="546.967" cy="492.217" r="4.17024" stroke-width="0.5" stroke="black" fill="magenta"/>
   </g>
  </g>
 </g>
  <rect x="775" y="1035" width="200" height="10" stroke-width="2" stroke="rgb(255,255,255)" fill="rgb(0,0,0)"/>
  <text x="781.25" y="1028.75"
   font-family="Arial" font-size="25" fill="black" >
   200 &#956;m
  </text>
  <text x="25" y="1045"
   font-family="Arial" font-size="18.75" fill="black" >
   0 days, 0 hours, 0 minutes, and 3.3607 seconds
  </text>
  <rect x="0" y="70" width="1000" height="1000" stroke-width="2" stroke="rgb(0,0,0)" fill="none"/>
</svg>
