<?xml version="1.0" encoding="UTF-8" standalone="no"?>
<!-- Created with PhysiCell (http://PhysiCell.MathCancer.org/) -->
<svg 
 xmlns:dc="http://purl.org/dc/elements/1.1/" 
 xmlns:cc="http://creativecommons.org/ns#" 
 xmlns:rdf="http://www.w3.org/1999/02/22-rdf-syntax-ns#" 
 xmlns:svg="http://www.w3.org/2000/svg" 
 xmlns="http://www.w3.org/2000/svg" 
 version="1.1" 
 width="1000" 
 height="1070" 
 id="svg2">
  <rect x="0" y="0" width="1000" height="1070" stroke-width="2" stroke="white" fill="white"/>
  <text x="12.5" y="30"
   font-family="Arial" font-size="25" fill="black" >
   Current time: 1 days, 5 hours, and 30.00 minutes, z = 0.00 &#956;m
  </text>
  <text x="12.5" y="57.5"
   font-family="Arial" font-size="23.75" fill="black" >
   166 agents
  </text>
 <g id="tissue" 
    transform="translate(0,1070) scale(1,-1)">
  <g id="ECM">
  </g>
  <g id="cells">
   <g id="cell0">
  <circle cx="512.613" cy="531.602" r="8.41207" stroke-width="0.5" stroke="black" fill="magenta"/>
  <circle cx="512.613" cy="531.602" r="5.05152" stroke-width="0.5" stroke="black" fill="magenta"/>
   </g>
   <g id="cell147">
  <circle cx="421.705" cy="572.162" r="8.06418" stroke-width="0.5" stroke="black" fill="green"/>
  <circle cx="421.705" cy="572.162" r="4.8844" stroke-width="0.5" stroke="black" fill="green"/>
   </g>
   <g id="cell2">
  <circle cx="506.614" cy="594.41" r="8.32032" stroke-width="0.5" stroke="black" fill="magenta"/>
  <circle cx="506.614" cy="594.41" r="5.01383" stroke-width="0.5" stroke="black" fill="magenta"/>
   </g>
   <g id="cell3">
  <circle cx="538.915" cy="544.441" r="8.28985" stroke-width="0.5" stroke="black" fill="magenta"/>
  <circle cx="538.915" cy="544.441" r="4.99956" stroke-width="0.5" stroke="black" fill="magenta"/>
   </g>
   <g id="cell4">
  <circle cx="460.114" cy="441.25" r="8.41214" stroke-width="0.5" stroke="black" fill="magenta"/>
  <circle cx="460.114" cy="441.25" r="5.05154" stroke-width="0.5" stroke="black" fill="magenta"/>
   </g>
   <g id="cell5">
  <circle cx="462.105" cy="497.996" r="8.1218" stroke-width="0.5" stroke="black" fill="magenta"/>
  <circle cx="462.105" cy="497.996" r="4.91457" stroke-width="0.5" stroke="black" fill="magenta"/>
   </g>
   <g id="cell6">
  <circle cx="595.818" cy="512.939" r="8.41067" stroke-width="0.5" stroke="black" fill="magenta"/>
  <circle cx="595.818" cy="512.939" r="5.05113" stroke-width="0.5" stroke="black" fill="magenta"/>
   </g>
   <g id="cell7">
  <circle cx="512.182" cy="464.407" r="8.41271" stroke-width="0.5" stroke="black" fill="magenta"/>
  <circle cx="512.182" cy="464.407" r="5.05167" stroke-width="0.5" stroke="black" fill="magenta"/>
   </g>
   <g id="cell8">
  <circle cx="365.718" cy="550.479" r="8.13813" stroke-width="0.5" stroke="black" fill="magenta"/>
  <circle cx="365.718" cy="550.479" r="4.92317" stroke-width="0.5" stroke="black" fill="magenta"/>
   </g>
   <g id="cell9">
  <circle cx="463.364" cy="601.869" r="8.41055" stroke-width="0.5" stroke="black" fill="magenta"/>
  <circle cx="463.364" cy="601.869" r="5.05109" stroke-width="0.5" stroke="black" fill="magenta"/>
   </g>
   <g id="cell10">
  <circle cx="587.97" cy="396.859" r="8.14225" stroke-width="0.5" stroke="black" fill="magenta"/>
  <circle cx="587.97" cy="396.859" r="4.92948" stroke-width="0.5" stroke="black" fill="magenta"/>
   </g>
   <g id="cell11">
  <circle cx="589.748" cy="590.273" r="8.41271" stroke-width="0.5" stroke="black" fill="magenta"/>
  <circle cx="589.748" cy="590.273" r="5.05167" stroke-width="0.5" stroke="black" fill="magenta"/>
   </g>
   <g id="cell12">
  <circle cx="497.725" cy="582.497" r="8.41271" stroke-width="0.5" stroke="black" fill="magenta"/>
  <circle cx="497.725" cy="582.497" r="5.05167" stroke-width="0.5" stroke="black" fill="magenta"/>
   </g>
   <g id="cell13">
  <circle cx="378.75" cy="557.949" r="8.38204" stroke-width="0.5" stroke="black" fill="magenta"/>
  <circle cx="378.75" cy="557.949" r="5.0408" stroke-width="0.5" stroke="black" fill="magenta"/>
   </g>
   <g id="cell14">
  <circle cx="526.276" cy="396.38" r="7.12287" stroke-width="0.5" stroke="black" fill="magenta"/>
  <circle cx="526.276" cy="396.38" r="4.33584" stroke-width="0.5" stroke="black" fill="magenta"/>
   </g>
   <g id="cell15">
  <circle cx="390.544" cy="487.537" r="7.526" stroke-width="0.5" stroke="black" fill="magenta"/>
  <circle cx="390.544" cy="487.537" r="4.58849" stroke-width="0.5" stroke="black" fill="magenta"/>
   </g>
   <g id="cell16">
  <circle cx="431.278" cy="412.17" r="8.41271" stroke-width="0.5" stroke="black" fill="magenta"/>
  <circle cx="431.278" cy="412.17" r="5.05167" stroke-width="0.5" stroke="black" fill="magenta"/>
   </g>
   <g id="cell17">
  <circle cx="585.007" cy="486.063" r="8.40814" stroke-width="0.5" stroke="black" fill="magenta"/>
  <circle cx="585.007" cy="486.063" r="5.05035" stroke-width="0.5" stroke="black" fill="magenta"/>
   </g>
   <g id="cell18">
  <circle cx="512.48" cy="395.621" r="8.41217" stroke-width="0.5" stroke="black" fill="magenta"/>
  <circle cx="512.48" cy="395.621" r="5.05154" stroke-width="0.5" stroke="black" fill="magenta"/>
   </g>
   <g id="cell19">
  <circle cx="450.49" cy="541.711" r="8.40986" stroke-width="0.5" stroke="black" fill="magenta"/>
  <circle cx="450.49" cy="541.711" r="5.05089" stroke-width="0.5" stroke="black" fill="magenta"/>
   </g>
   <g id="cell20">
  <circle cx="526.148" cy="420.475" r="8.41271" stroke-width="0.5" stroke="black" fill="magenta"/>
  <circle cx="526.148" cy="420.475" r="5.05167" stroke-width="0.5" stroke="black" fill="magenta"/>
   </g>
   <g id="cell141">
  <circle cx="485.652" cy="440.972" r="6.95185" stroke-width="0.5" stroke="black" fill="magenta"/>
  <circle cx="485.652" cy="440.972" r="4.24273" stroke-width="0.5" stroke="black" fill="magenta"/>
   </g>
   <g id="cell22">
  <circle cx="559.771" cy="497.166" r="8.40875" stroke-width="0.5" stroke="black" fill="magenta"/>
  <circle cx="559.771" cy="497.166" r="5.05057" stroke-width="0.5" stroke="black" fill="magenta"/>
   </g>
   <g id="cell23">
  <circle cx="536.46" cy="484.167" r="8.41271" stroke-width="0.5" stroke="black" fill="magenta"/>
  <circle cx="536.46" cy="484.167" r="5.05167" stroke-width="0.5" stroke="black" fill="magenta"/>
   </g>
   <g id="cell24">
  <circle cx="562.314" cy="382.147" r="8.41271" stroke-width="0.5" stroke="black" fill="magenta"/>
  <circle cx="562.314" cy="382.147" r="5.05167" stroke-width="0.5" stroke="black" fill="magenta"/>
   </g>
   <g id="cell25">
  <circle cx="653.446" cy="564.411" r="7.85424" stroke-width="0.5" stroke="black" fill="green"/>
  <circle cx="653.446" cy="564.411" r="4.76923" stroke-width="0.5" stroke="black" fill="green"/>
   </g>
   <g id="cell26">
  <circle cx="548.269" cy="402.279" r="8.41271" stroke-width="0.5" stroke="black" fill="green"/>
  <circle cx="548.269" cy="402.279" r="5.05167" stroke-width="0.5" stroke="black" fill="green"/>
   </g>
   <g id="cell27">
  <circle cx="452.247" cy="389.443" r="7.21189" stroke-width="0.5" stroke="black" fill="green"/>
  <circle cx="452.247" cy="389.443" r="4.37993" stroke-width="0.5" stroke="black" fill="green"/>
   </g>
   <g id="cell28">
  <circle cx="437.036" cy="548.941" r="8.41271" stroke-width="0.5" stroke="black" fill="green"/>
  <circle cx="437.036" cy="548.941" r="5.05167" stroke-width="0.5" stroke="black" fill="green"/>
   </g>
   <g id="cell29">
  <circle cx="466.6" cy="520.366" r="8.39431" stroke-width="0.5" stroke="black" fill="green"/>
  <circle cx="466.6" cy="520.366" r="5.04557" stroke-width="0.5" stroke="black" fill="green"/>
   </g>
   <g id="cell30">
  <circle cx="479.255" cy="539.542" r="8.41271" stroke-width="0.5" stroke="black" fill="green"/>
  <circle cx="479.255" cy="539.542" r="5.05167" stroke-width="0.5" stroke="black" fill="green"/>
   </g>
   <g id="cell31">
  <circle cx="413.696" cy="532.95" r="8.41271" stroke-width="0.5" stroke="black" fill="green"/>
  <circle cx="413.696" cy="532.95" r="5.05167" stroke-width="0.5" stroke="black" fill="green"/>
   </g>
   <g id="cell32">
  <circle cx="424.04" cy="457.383" r="7.5674" stroke-width="0.5" stroke="black" fill="green"/>
  <circle cx="424.04" cy="457.383" r="4.5997" stroke-width="0.5" stroke="black" fill="green"/>
   </g>
   <g id="cell33">
  <circle cx="498.542" cy="415.365" r="8.41133" stroke-width="0.5" stroke="black" fill="green"/>
  <circle cx="498.542" cy="415.365" r="5.05132" stroke-width="0.5" stroke="black" fill="green"/>
   </g>
   <g id="cell34">
  <circle cx="392.085" cy="453.672" r="8.41098" stroke-width="0.5" stroke="black" fill="green"/>
  <circle cx="392.085" cy="453.672" r="5.05122" stroke-width="0.5" stroke="black" fill="green"/>
   </g>
   <g id="cell35">
  <circle cx="546.384" cy="557.65" r="8.40576" stroke-width="0.5" stroke="black" fill="green"/>
  <circle cx="546.384" cy="557.65" r="5.04957" stroke-width="0.5" stroke="black" fill="green"/>
   </g>
   <g id="cell36">
  <circle cx="394.458" cy="579.679" r="8.37641" stroke-width="0.5" stroke="black" fill="green"/>
  <circle cx="394.458" cy="579.679" r="5.0384" stroke-width="0.5" stroke="black" fill="green"/>
   </g>
   <g id="cell174">
  <circle cx="478.598" cy="616.849" r="6.80738" stroke-width="0.5" stroke="black" fill="green"/>
  <circle cx="478.598" cy="616.849" r="4.1067" stroke-width="0.5" stroke="black" fill="green"/>
   </g>
   <g id="cell38">
  <circle cx="525.612" cy="605.057" r="8.41002" stroke-width="0.5" stroke="black" fill="green"/>
  <circle cx="525.612" cy="605.057" r="5.05093" stroke-width="0.5" stroke="black" fill="green"/>
   </g>
   <g id="cell39">
  <circle cx="616.728" cy="497.695" r="7.02208" stroke-width="0.5" stroke="black" fill="green"/>
  <circle cx="616.728" cy="497.695" r="4.25631" stroke-width="0.5" stroke="black" fill="green"/>
   </g>
   <g id="cell40">
  <circle cx="486.104" cy="572.371" r="8.41271" stroke-width="0.5" stroke="black" fill="green"/>
  <circle cx="486.104" cy="572.371" r="5.05167" stroke-width="0.5" stroke="black" fill="green"/>
   </g>
   <g id="cell41">
  <circle cx="363.839" cy="479.799" r="8.41271" stroke-width="0.5" stroke="black" fill="green"/>
  <circle cx="363.839" cy="479.799" r="5.05167" stroke-width="0.5" stroke="black" fill="green"/>
   </g>
   <g id="cell42">
  <circle cx="451.835" cy="487.129" r="1.31352" stroke-width="0.5" stroke="black" fill="green"/>
  <circle cx="451.835" cy="487.129" r="1.30518" stroke-width="0.5" stroke="black" fill="black"/>
   </g>
   <g id="cell43">
  <circle cx="558.385" cy="445.712" r="8.41271" stroke-width="0.5" stroke="black" fill="green"/>
  <circle cx="558.385" cy="445.712" r="5.05167" stroke-width="0.5" stroke="black" fill="green"/>
   </g>
   <g id="cell44">
  <circle cx="487.306" cy="628.302" r="7.92185" stroke-width="0.5" stroke="black" fill="green"/>
  <circle cx="487.306" cy="628.302" r="4.80569" stroke-width="0.5" stroke="black" fill="green"/>
   </g>
   <g id="cell45">
  <circle cx="428.998" cy="560.575" r="6.39589" stroke-width="0.5" stroke="black" fill="green"/>
  <circle cx="428.998" cy="560.575" r="3.94963" stroke-width="0.5" stroke="black" fill="green"/>
   </g>
   <g id="cell46">
  <circle cx="521.297" cy="620.417" r="8.21037" stroke-width="0.5" stroke="black" fill="green"/>
  <circle cx="521.297" cy="620.417" r="4.96245" stroke-width="0.5" stroke="black" fill="green"/>
   </g>
   <g id="cell47">
  <circle cx="494.317" cy="509.915" r="8.41271" stroke-width="0.5" stroke="black" fill="green"/>
  <circle cx="494.317" cy="509.915" r="5.05167" stroke-width="0.5" stroke="black" fill="green"/>
   </g>
   <g id="cell48">
  <circle cx="565.998" cy="604.921" r="8.41271" stroke-width="0.5" stroke="black" fill="green"/>
  <circle cx="565.998" cy="604.921" r="5.05167" stroke-width="0.5" stroke="black" fill="green"/>
   </g>
   <g id="cell49">
  <circle cx="434.728" cy="397.013" r="8.35404" stroke-width="0.5" stroke="black" fill="green"/>
  <circle cx="434.728" cy="397.013" r="5.02894" stroke-width="0.5" stroke="black" fill="green"/>
   </g>
   <g id="cell50">
  <circle cx="508.037" cy="506.523" r="6.45715" stroke-width="0.5" stroke="black" fill="cyan"/>
  <circle cx="508.037" cy="506.523" r="3.93631" stroke-width="0.5" stroke="black" fill="cyan"/>
   </g>
   <g id="cell51">
  <circle cx="385.37" cy="603.734" r="7.98477" stroke-width="0.5" stroke="black" fill="cyan"/>
  <circle cx="385.37" cy="603.734" r="4.845" stroke-width="0.5" stroke="black" fill="cyan"/>
   </g>
   <g id="cell120">
  <circle cx="419.665" cy="610.634" r="8.38608" stroke-width="0.5" stroke="black" fill="cyan"/>
  <circle cx="419.665" cy="610.634" r="5.04229" stroke-width="0.5" stroke="black" fill="cyan"/>
   </g>
   <g id="cell53">
  <circle cx="571.173" cy="436.088" r="8.41271" stroke-width="0.5" stroke="black" fill="cyan"/>
  <circle cx="571.173" cy="436.088" r="5.05167" stroke-width="0.5" stroke="black" fill="cyan"/>
   </g>
   <g id="cell54">
  <circle cx="482.135" cy="427.555" r="8.06667" stroke-width="0.5" stroke="black" fill="cyan"/>
  <circle cx="482.135" cy="427.555" r="4.88515" stroke-width="0.5" stroke="black" fill="cyan"/>
   </g>
   <g id="cell55">
  <circle cx="522.839" cy="476.033" r="8.41271" stroke-width="0.5" stroke="black" fill="cyan"/>
  <circle cx="522.839" cy="476.033" r="5.05167" stroke-width="0.5" stroke="black" fill="cyan"/>
   </g>
   <g id="cell56">
  <circle cx="615.668" cy="522.486" r="8.41271" stroke-width="0.5" stroke="black" fill="cyan"/>
  <circle cx="615.668" cy="522.486" r="5.05167" stroke-width="0.5" stroke="black" fill="cyan"/>
   </g>
   <g id="cell57">
  <circle cx="418.486" cy="626.561" r="8.38608" stroke-width="0.5" stroke="black" fill="cyan"/>
  <circle cx="418.486" cy="626.561" r="5.04229" stroke-width="0.5" stroke="black" fill="cyan"/>
   </g>
   <g id="cell58">
  <circle cx="552.123" cy="483.799" r="8.41271" stroke-width="0.5" stroke="black" fill="cyan"/>
  <circle cx="552.123" cy="483.799" r="5.05167" stroke-width="0.5" stroke="black" fill="cyan"/>
   </g>
   <g id="cell59">
  <circle cx="385.171" cy="439.2" r="8.41271" stroke-width="0.5" stroke="black" fill="cyan"/>
  <circle cx="385.171" cy="439.2" r="5.05167" stroke-width="0.5" stroke="black" fill="cyan"/>
   </g>
   <g id="cell60">
  <circle cx="593.926" cy="472.878" r="8.38028" stroke-width="0.5" stroke="black" fill="cyan"/>
  <circle cx="593.926" cy="472.878" r="5.03997" stroke-width="0.5" stroke="black" fill="cyan"/>
   </g>
   <g id="cell155">
  <circle cx="520.273" cy="591.479" r="7.58013" stroke-width="0.5" stroke="black" fill="magenta"/>
  <circle cx="520.273" cy="591.479" r="4.63192" stroke-width="0.5" stroke="black" fill="magenta"/>
   </g>
   <g id="cell62">
  <circle cx="524.327" cy="435.901" r="8.41271" stroke-width="0.5" stroke="black" fill="cyan"/>
  <circle cx="524.327" cy="435.901" r="5.05167" stroke-width="0.5" stroke="black" fill="cyan"/>
   </g>
   <g id="cell63">
  <circle cx="581.99" cy="551.555" r="8.41002" stroke-width="0.5" stroke="black" fill="cyan"/>
  <circle cx="581.99" cy="551.555" r="5.05093" stroke-width="0.5" stroke="black" fill="cyan"/>
   </g>
   <g id="cell64">
  <circle cx="511.991" cy="633.265" r="8.37742" stroke-width="0.5" stroke="black" fill="cyan"/>
  <circle cx="511.991" cy="633.265" r="5.03881" stroke-width="0.5" stroke="black" fill="cyan"/>
   </g>
   <g id="cell65">
  <circle cx="529.558" cy="449.772" r="7.41365" stroke-width="0.5" stroke="black" fill="cyan"/>
  <circle cx="529.558" cy="449.772" r="4.50667" stroke-width="0.5" stroke="black" fill="cyan"/>
   </g>
   <g id="cell66">
  <circle cx="549.773" cy="525.404" r="8.38753" stroke-width="0.5" stroke="black" fill="cyan"/>
  <circle cx="549.773" cy="525.404" r="5.04286" stroke-width="0.5" stroke="black" fill="cyan"/>
   </g>
   <g id="cell67">
  <circle cx="354.569" cy="492.868" r="8.41271" stroke-width="0.5" stroke="black" fill="cyan"/>
  <circle cx="354.569" cy="492.868" r="5.05167" stroke-width="0.5" stroke="black" fill="cyan"/>
   </g>
   <g id="cell68">
  <circle cx="562.021" cy="555.179" r="8.41271" stroke-width="0.5" stroke="black" fill="cyan"/>
  <circle cx="562.021" cy="555.179" r="5.05167" stroke-width="0.5" stroke="black" fill="cyan"/>
   </g>
   <g id="cell69">
  <circle cx="436.765" cy="448.49" r="8.41219" stroke-width="0.5" stroke="black" fill="cyan"/>
  <circle cx="436.765" cy="448.49" r="5.05155" stroke-width="0.5" stroke="black" fill="cyan"/>
   </g>
   <g id="cell70">
  <circle cx="578.266" cy="472.198" r="8.30918" stroke-width="0.5" stroke="black" fill="cyan"/>
  <circle cx="578.266" cy="472.198" r="5.00867" stroke-width="0.5" stroke="black" fill="cyan"/>
   </g>
   <g id="cell71">
  <circle cx="379.72" cy="528.757" r="7.80891" stroke-width="0.5" stroke="black" fill="cyan"/>
  <circle cx="379.72" cy="528.757" r="4.74835" stroke-width="0.5" stroke="black" fill="cyan"/>
   </g>
   <g id="cell72">
  <circle cx="539.368" cy="512.325" r="8.41271" stroke-width="0.5" stroke="black" fill="cyan"/>
  <circle cx="539.368" cy="512.325" r="5.05167" stroke-width="0.5" stroke="black" fill="cyan"/>
   </g>
   <g id="cell129">
  <circle cx="419.593" cy="401.918" r="8.35404" stroke-width="0.5" stroke="black" fill="green"/>
  <circle cx="419.593" cy="401.918" r="5.02894" stroke-width="0.5" stroke="black" fill="green"/>
   </g>
   <g id="cell74">
  <circle cx="542.705" cy="442.661" r="8.41271" stroke-width="0.5" stroke="black" fill="cyan"/>
  <circle cx="542.705" cy="442.661" r="5.05167" stroke-width="0.5" stroke="black" fill="cyan"/>
   </g>
   <g id="cell75">
  <circle cx="446.151" cy="480.016" r="7.30514" stroke-width="0.5" stroke="black" fill="cyan"/>
  <circle cx="446.151" cy="480.016" r="4.44507" stroke-width="0.5" stroke="black" fill="cyan"/>
   </g>
   <g id="cell76">
  <circle cx="521.577" cy="383.307" r="8.40926" stroke-width="0.5" stroke="black" fill="magenta"/>
  <circle cx="521.577" cy="383.307" r="5.05072" stroke-width="0.5" stroke="black" fill="magenta"/>
   </g>
   <g id="cell77">
  <circle cx="496.427" cy="432.82" r="8.17336" stroke-width="0.5" stroke="black" fill="magenta"/>
  <circle cx="496.427" cy="432.82" r="4.94303" stroke-width="0.5" stroke="black" fill="magenta"/>
   </g>
   <g id="cell78">
  <circle cx="371.455" cy="466.167" r="8.41211" stroke-width="0.5" stroke="black" fill="magenta"/>
  <circle cx="371.455" cy="466.167" r="5.05153" stroke-width="0.5" stroke="black" fill="magenta"/>
   </g>
   <g id="cell79">
  <circle cx="499.446" cy="524.527" r="8.41207" stroke-width="0.5" stroke="black" fill="magenta"/>
  <circle cx="499.446" cy="524.527" r="5.05152" stroke-width="0.5" stroke="black" fill="magenta"/>
   </g>
   <g id="cell80">
  <circle cx="599.692" cy="486.353" r="7.21144" stroke-width="0.5" stroke="black" fill="green"/>
  <circle cx="599.692" cy="486.353" r="4.37981" stroke-width="0.5" stroke="black" fill="green"/>
   </g>
   <g id="cell81">
  <circle cx="429.964" cy="504.211" r="8.3618" stroke-width="0.5" stroke="black" fill="green"/>
  <circle cx="429.964" cy="504.211" r="5.03278" stroke-width="0.5" stroke="black" fill="green"/>
   </g>
   <g id="cell82">
  <circle cx="544.405" cy="497.315" r="8.41192" stroke-width="0.5" stroke="black" fill="magenta"/>
  <circle cx="544.405" cy="497.315" r="5.05148" stroke-width="0.5" stroke="black" fill="magenta"/>
   </g>
   <g id="cell130">
  <circle cx="574.134" cy="391.501" r="8.35062" stroke-width="0.5" stroke="black" fill="magenta"/>
  <circle cx="574.134" cy="391.501" r="5.02745" stroke-width="0.5" stroke="black" fill="magenta"/>
   </g>
   <g id="cell84">
  <circle cx="404.559" cy="483.054" r="8.39833" stroke-width="0.5" stroke="black" fill="green"/>
  <circle cx="404.559" cy="483.054" r="5.04704" stroke-width="0.5" stroke="black" fill="green"/>
   </g>
   <g id="cell140">
  <circle cx="527.273" cy="579.079" r="8.10397" stroke-width="0.5" stroke="black" fill="magenta"/>
  <circle cx="527.273" cy="579.079" r="4.91454" stroke-width="0.5" stroke="black" fill="magenta"/>
   </g>
   <g id="cell86">
  <circle cx="392.314" cy="564.406" r="8.39935" stroke-width="0.5" stroke="black" fill="magenta"/>
  <circle cx="392.314" cy="564.406" r="5.04741" stroke-width="0.5" stroke="black" fill="magenta"/>
   </g>
   <g id="cell87">
  <circle cx="432.818" cy="519.237" r="7.93771" stroke-width="0.5" stroke="black" fill="green"/>
  <circle cx="432.818" cy="519.237" r="4.81692" stroke-width="0.5" stroke="black" fill="green"/>
   </g>
   <g id="cell88">
  <circle cx="477.261" cy="603.994" r="6.80738" stroke-width="0.5" stroke="black" fill="green"/>
  <circle cx="477.261" cy="603.994" r="4.1067" stroke-width="0.5" stroke="black" fill="green"/>
   </g>
   <g id="cell89">
  <circle cx="434.721" cy="489.476" r="8.4063" stroke-width="0.5" stroke="black" fill="green"/>
  <circle cx="434.721" cy="489.476" r="5.04983" stroke-width="0.5" stroke="black" fill="green"/>
   </g>
   <g id="cell90">
  <circle cx="581.214" cy="511.206" r="7.82901" stroke-width="0.5" stroke="black" fill="magenta"/>
  <circle cx="581.214" cy="511.206" r="4.7531" stroke-width="0.5" stroke="black" fill="magenta"/>
   </g>
   <g id="cell136">
  <circle cx="525.246" cy="539.178" r="8.28985" stroke-width="0.5" stroke="black" fill="magenta"/>
  <circle cx="525.246" cy="539.178" r="4.99956" stroke-width="0.5" stroke="black" fill="magenta"/>
   </g>
   <g id="cell92">
  <circle cx="553.46" cy="594.586" r="8.39766" stroke-width="0.5" stroke="black" fill="green"/>
  <circle cx="553.46" cy="594.586" r="5.04697" stroke-width="0.5" stroke="black" fill="green"/>
   </g>
   <g id="cell93">
  <circle cx="573.666" cy="524.317" r="8.33596" stroke-width="0.5" stroke="black" fill="cyan"/>
  <circle cx="573.666" cy="524.317" r="5.02145" stroke-width="0.5" stroke="black" fill="cyan"/>
   </g>
   <g id="cell94">
  <circle cx="543.953" cy="470.346" r="8.40986" stroke-width="0.5" stroke="black" fill="cyan"/>
  <circle cx="543.953" cy="470.346" r="5.05089" stroke-width="0.5" stroke="black" fill="cyan"/>
   </g>
   <g id="cell95">
  <circle cx="464.204" cy="535.688" r="8.40986" stroke-width="0.5" stroke="black" fill="magenta"/>
  <circle cx="464.204" cy="535.688" r="5.05089" stroke-width="0.5" stroke="black" fill="magenta"/>
   </g>
   <g id="cell96">
  <circle cx="535.23" cy="376.639" r="8.40926" stroke-width="0.5" stroke="black" fill="magenta"/>
  <circle cx="535.23" cy="376.639" r="5.05072" stroke-width="0.5" stroke="black" fill="magenta"/>
   </g>
   <g id="cell97">
  <circle cx="566.676" cy="510.487" r="8.40875" stroke-width="0.5" stroke="black" fill="magenta"/>
  <circle cx="566.676" cy="510.487" r="5.05057" stroke-width="0.5" stroke="black" fill="magenta"/>
   </g>
   <g id="cell98">
  <circle cx="406.498" cy="569.966" r="8.06418" stroke-width="0.5" stroke="black" fill="green"/>
  <circle cx="406.498" cy="569.966" r="4.8844" stroke-width="0.5" stroke="black" fill="green"/>
   </g>
   <g id="cell99">
  <circle cx="575.117" cy="497.849" r="8.40814" stroke-width="0.5" stroke="black" fill="magenta"/>
  <circle cx="575.117" cy="497.849" r="5.05035" stroke-width="0.5" stroke="black" fill="magenta"/>
   </g>
   <g id="cell100">
  <circle cx="569.743" cy="541.178" r="8.40653" stroke-width="0.5" stroke="black" fill="cyan"/>
  <circle cx="569.743" cy="541.178" r="5.0499" stroke-width="0.5" stroke="black" fill="cyan"/>
   </g>
   <g id="cell101">
  <circle cx="457.474" cy="628.175" r="8.39995" stroke-width="0.5" stroke="black" fill="magenta"/>
  <circle cx="457.474" cy="628.175" r="5.0477" stroke-width="0.5" stroke="black" fill="magenta"/>
   </g>
   <g id="cell102">
  <circle cx="446.833" cy="499.96" r="8.4063" stroke-width="0.5" stroke="black" fill="green"/>
  <circle cx="446.833" cy="499.96" r="5.04983" stroke-width="0.5" stroke="black" fill="green"/>
   </g>
   <g id="cell103">
  <circle cx="547.341" cy="612.781" r="6.83127" stroke-width="0.5" stroke="black" fill="green"/>
  <circle cx="547.341" cy="612.781" r="4.12594" stroke-width="0.5" stroke="black" fill="green"/>
   </g>
   <g id="cell104">
  <circle cx="553.865" cy="541.256" r="8.40576" stroke-width="0.5" stroke="black" fill="green"/>
  <circle cx="553.865" cy="541.256" r="5.04957" stroke-width="0.5" stroke="black" fill="green"/>
   </g>
   <g id="cell105">
  <circle cx="415.924" cy="495.532" r="8.40457" stroke-width="0.5" stroke="black" fill="green"/>
  <circle cx="415.924" cy="495.532" r="5.0492" stroke-width="0.5" stroke="black" fill="green"/>
   </g>
   <g id="cell106">
  <circle cx="639.336" cy="538.123" r="8.40494" stroke-width="0.5" stroke="black" fill="green"/>
  <circle cx="639.336" cy="538.123" r="5.04929" stroke-width="0.5" stroke="black" fill="green"/>
   </g>
   <g id="cell107">
  <circle cx="383.502" cy="513.991" r="8.40272" stroke-width="0.5" stroke="black" fill="cyan"/>
  <circle cx="383.502" cy="513.991" r="5.04853" stroke-width="0.5" stroke="black" fill="cyan"/>
   </g>
   <g id="cell108">
  <circle cx="458.83" cy="643.23" r="8.39995" stroke-width="0.5" stroke="black" fill="magenta"/>
  <circle cx="458.83" cy="643.23" r="5.0477" stroke-width="0.5" stroke="black" fill="magenta"/>
   </g>
   <g id="cell109">
  <circle cx="445.12" cy="636.771" r="8.39995" stroke-width="0.5" stroke="black" fill="magenta"/>
  <circle cx="445.12" cy="636.771" r="5.0477" stroke-width="0.5" stroke="black" fill="magenta"/>
   </g>
   <g id="cell110">
  <circle cx="543.589" cy="581.303" r="8.39766" stroke-width="0.5" stroke="black" fill="green"/>
  <circle cx="543.589" cy="581.303" r="5.04697" stroke-width="0.5" stroke="black" fill="green"/>
   </g>
   <g id="cell111">
  <circle cx="628.978" cy="550.372" r="8.39765" stroke-width="0.5" stroke="black" fill="green"/>
  <circle cx="628.978" cy="550.372" r="5.04692" stroke-width="0.5" stroke="black" fill="green"/>
   </g>
   <g id="cell112">
  <circle cx="380.185" cy="573.138" r="8.39935" stroke-width="0.5" stroke="black" fill="magenta"/>
  <circle cx="380.185" cy="573.138" r="5.04741" stroke-width="0.5" stroke="black" fill="magenta"/>
   </g>
   <g id="cell113">
  <circle cx="420.128" cy="480.285" r="8.39833" stroke-width="0.5" stroke="black" fill="green"/>
  <circle cx="420.128" cy="480.285" r="5.04704" stroke-width="0.5" stroke="black" fill="green"/>
   </g>
   <g id="cell114">
  <circle cx="497.158" cy="448.059" r="8.32671" stroke-width="0.5" stroke="black" fill="magenta"/>
  <circle cx="497.158" cy="448.059" r="5.01775" stroke-width="0.5" stroke="black" fill="magenta"/>
   </g>
   <g id="cell115">
  <circle cx="451.735" cy="526.24" r="8.39431" stroke-width="0.5" stroke="black" fill="green"/>
  <circle cx="451.735" cy="526.24" r="5.04557" stroke-width="0.5" stroke="black" fill="green"/>
   </g>
   <g id="cell116">
  <circle cx="368.077" cy="518.993" r="8.38868" stroke-width="0.5" stroke="black" fill="cyan"/>
  <circle cx="368.077" cy="518.993" r="5.04365" stroke-width="0.5" stroke="black" fill="cyan"/>
   </g>
   <g id="cell117">
  <circle cx="438.188" cy="512.373" r="1.17629" stroke-width="0.5" stroke="black" fill="green"/>
  <circle cx="438.188" cy="512.373" r="1.17208" stroke-width="0.5" stroke="black" fill="black"/>
   </g>
   <g id="cell118">
  <circle cx="525.078" cy="525.05" r="6.87803" stroke-width="0.5" stroke="black" fill="cyan"/>
  <circle cx="525.078" cy="525.05" r="4.16347" stroke-width="0.5" stroke="black" fill="cyan"/>
   </g>
   <g id="cell119">
  <circle cx="527.638" cy="634.66" r="8.14716" stroke-width="0.5" stroke="black" fill="green"/>
  <circle cx="527.638" cy="634.66" r="4.93017" stroke-width="0.5" stroke="black" fill="green"/>
   </g>
   <g id="cell121">
  <circle cx="391.406" cy="549.402" r="8.38204" stroke-width="0.5" stroke="black" fill="magenta"/>
  <circle cx="391.406" cy="549.402" r="5.0408" stroke-width="0.5" stroke="black" fill="magenta"/>
   </g>
   <g id="cell122">
  <circle cx="614.061" cy="462.772" r="7.30996" stroke-width="0.5" stroke="black" fill="cyan"/>
  <circle cx="614.061" cy="462.772" r="4.44708" stroke-width="0.5" stroke="black" fill="cyan"/>
   </g>
   <g id="cell123">
  <circle cx="500.548" cy="644.421" r="8.37742" stroke-width="0.5" stroke="black" fill="cyan"/>
  <circle cx="500.548" cy="644.421" r="5.03881" stroke-width="0.5" stroke="black" fill="cyan"/>
   </g>
   <g id="cell124">
  <circle cx="381.522" cy="588.668" r="8.37641" stroke-width="0.5" stroke="black" fill="green"/>
  <circle cx="381.522" cy="588.668" r="5.0384" stroke-width="0.5" stroke="black" fill="green"/>
   </g>
   <g id="cell125">
  <circle cx="451.876" cy="454.821" r="8.37294" stroke-width="0.5" stroke="black" fill="cyan"/>
  <circle cx="451.876" cy="454.821" r="5.03702" stroke-width="0.5" stroke="black" fill="cyan"/>
   </g>
   <g id="cell126">
  <circle cx="415.971" cy="511.482" r="8.3618" stroke-width="0.5" stroke="black" fill="green"/>
  <circle cx="415.971" cy="511.482" r="5.03278" stroke-width="0.5" stroke="black" fill="green"/>
   </g>
   <g id="cell127">
  <circle cx="413.151" cy="596.075" r="8.36178" stroke-width="0.5" stroke="black" fill="cyan"/>
  <circle cx="413.151" cy="596.075" r="5.03227" stroke-width="0.5" stroke="black" fill="cyan"/>
   </g>
   <g id="cell128">
  <circle cx="365.5" cy="534.942" r="8.34666" stroke-width="0.5" stroke="black" fill="cyan"/>
  <circle cx="365.5" cy="534.942" r="5.02694" stroke-width="0.5" stroke="black" fill="cyan"/>
   </g>
   <g id="cell131">
  <circle cx="584.599" cy="535.799" r="8.33596" stroke-width="0.5" stroke="black" fill="cyan"/>
  <circle cx="584.599" cy="535.799" r="5.02145" stroke-width="0.5" stroke="black" fill="cyan"/>
   </g>
   <g id="cell132">
  <circle cx="509.478" cy="439.872" r="8.32671" stroke-width="0.5" stroke="black" fill="magenta"/>
  <circle cx="509.478" cy="439.872" r="5.01775" stroke-width="0.5" stroke="black" fill="magenta"/>
   </g>
   <g id="cell133">
  <circle cx="533.926" cy="407.786" r="8.32788" stroke-width="0.5" stroke="black" fill="magenta"/>
  <circle cx="533.926" cy="407.786" r="5.01729" stroke-width="0.5" stroke="black" fill="magenta"/>
   </g>
   <g id="cell134">
  <circle cx="512.377" cy="580.155" r="8.19158" stroke-width="0.5" stroke="black" fill="magenta"/>
  <circle cx="512.377" cy="580.155" r="4.95534" stroke-width="0.5" stroke="black" fill="magenta"/>
   </g>
   <g id="cell135">
  <circle cx="568.255" cy="484.165" r="8.30918" stroke-width="0.5" stroke="black" fill="cyan"/>
  <circle cx="568.255" cy="484.165" r="5.00867" stroke-width="0.5" stroke="black" fill="cyan"/>
   </g>
   <g id="cell137">
  <circle cx="379.263" cy="478.955" r="8.26654" stroke-width="0.5" stroke="black" fill="magenta"/>
  <circle cx="379.263" cy="478.955" r="4.98841" stroke-width="0.5" stroke="black" fill="magenta"/>
   </g>
   <g id="cell138">
  <circle cx="533.414" cy="591.645" r="7.58013" stroke-width="0.5" stroke="black" fill="magenta"/>
  <circle cx="533.414" cy="591.645" r="4.63192" stroke-width="0.5" stroke="black" fill="magenta"/>
   </g>
   <g id="cell139">
  <circle cx="510.193" cy="609.41" r="8.21037" stroke-width="0.5" stroke="black" fill="green"/>
  <circle cx="510.193" cy="609.41" r="4.96245" stroke-width="0.5" stroke="black" fill="green"/>
   </g>
   <g id="cell142">
  <circle cx="585.819" cy="382.362" r="8.14225" stroke-width="0.5" stroke="black" fill="magenta"/>
  <circle cx="585.819" cy="382.362" r="4.92948" stroke-width="0.5" stroke="black" fill="magenta"/>
   </g>
   <g id="cell143">
  <circle cx="536.765" cy="622.203" r="8.14716" stroke-width="0.5" stroke="black" fill="green"/>
  <circle cx="536.765" cy="622.203" r="4.93017" stroke-width="0.5" stroke="black" fill="green"/>
   </g>
   <g id="cell144">
  <circle cx="378.206" cy="543.17" r="8.13813" stroke-width="0.5" stroke="black" fill="magenta"/>
  <circle cx="378.206" cy="543.17" r="4.92317" stroke-width="0.5" stroke="black" fill="magenta"/>
   </g>
   <g id="cell145">
  <circle cx="459.773" cy="483.572" r="8.1218" stroke-width="0.5" stroke="black" fill="magenta"/>
  <circle cx="459.773" cy="483.572" r="4.91457" stroke-width="0.5" stroke="black" fill="magenta"/>
   </g>
   <g id="cell146">
  <circle cx="466.519" cy="426.974" r="8.06667" stroke-width="0.5" stroke="black" fill="cyan"/>
  <circle cx="466.519" cy="426.974" r="4.88515" stroke-width="0.5" stroke="black" fill="cyan"/>
   </g>
   <g id="cell148">
  <circle cx="400.475" cy="605.042" r="7.98477" stroke-width="0.5" stroke="black" fill="cyan"/>
  <circle cx="400.475" cy="605.042" r="4.845" stroke-width="0.5" stroke="black" fill="cyan"/>
   </g>
   <g id="cell149">
  <circle cx="437.865" cy="533.364" r="7.93771" stroke-width="0.5" stroke="black" fill="green"/>
  <circle cx="437.865" cy="533.364" r="4.81692" stroke-width="0.5" stroke="black" fill="green"/>
   </g>
   <g id="cell150">
  <circle cx="472.391" cy="629.306" r="7.92185" stroke-width="0.5" stroke="black" fill="green"/>
  <circle cx="472.391" cy="629.306" r="4.80569" stroke-width="0.5" stroke="black" fill="green"/>
   </g>
   <g id="cell151">
  <circle cx="523.588" cy="511.18" r="7.90853" stroke-width="0.5" stroke="black" fill="cyan"/>
  <circle cx="523.588" cy="511.18" r="4.79791" stroke-width="0.5" stroke="black" fill="cyan"/>
   </g>
   <g id="cell152">
  <circle cx="644.219" cy="552.747" r="7.85424" stroke-width="0.5" stroke="black" fill="green"/>
  <circle cx="644.219" cy="552.747" r="4.76923" stroke-width="0.5" stroke="black" fill="green"/>
   </g>
   <g id="cell153">
  <circle cx="394.092" cy="525.385" r="7.80891" stroke-width="0.5" stroke="black" fill="cyan"/>
  <circle cx="394.092" cy="525.385" r="4.74835" stroke-width="0.5" stroke="black" fill="cyan"/>
   </g>
   <g id="cell154">
  <circle cx="589.563" cy="499.846" r="7.82901" stroke-width="0.5" stroke="black" fill="magenta"/>
  <circle cx="589.563" cy="499.846" r="4.7531" stroke-width="0.5" stroke="black" fill="magenta"/>
   </g>
   <g id="cell156">
  <circle cx="403.37" cy="556.285" r="6.74939" stroke-width="0.5" stroke="black" fill="green"/>
  <circle cx="403.37" cy="556.285" r="4.14072" stroke-width="0.5" stroke="black" fill="green"/>
   </g>
   <g id="cell157">
  <circle cx="392.649" cy="474.155" r="7.526" stroke-width="0.5" stroke="black" fill="magenta"/>
  <circle cx="392.649" cy="474.155" r="4.58849" stroke-width="0.5" stroke="black" fill="magenta"/>
   </g>
   <g id="cell158">
  <circle cx="433.542" cy="475.272" r="7.03643" stroke-width="0.5" stroke="black" fill="green"/>
  <circle cx="433.542" cy="475.272" r="4.31459" stroke-width="0.5" stroke="black" fill="green"/>
   </g>
   <g id="cell159">
  <circle cx="436.802" cy="462.784" r="7.03643" stroke-width="0.5" stroke="black" fill="green"/>
  <circle cx="436.802" cy="462.784" r="4.31459" stroke-width="0.5" stroke="black" fill="green"/>
   </g>
   <g id="cell160">
  <circle cx="415.776" cy="559.426" r="6.91456" stroke-width="0.5" stroke="black" fill="green"/>
  <circle cx="415.776" cy="559.426" r="4.24156" stroke-width="0.5" stroke="black" fill="green"/>
   </g>
   <g id="cell161">
  <circle cx="530.75" cy="463.519" r="7.41365" stroke-width="0.5" stroke="black" fill="cyan"/>
  <circle cx="530.75" cy="463.519" r="4.50667" stroke-width="0.5" stroke="black" fill="cyan"/>
   </g>
   <g id="cell162">
  <circle cx="608.605" cy="475.557" r="7.30996" stroke-width="0.5" stroke="black" fill="cyan"/>
  <circle cx="608.605" cy="475.557" r="4.44708" stroke-width="0.5" stroke="black" fill="cyan"/>
   </g>
   <g id="cell163">
  <circle cx="423.477" cy="549.835" r="6.39589" stroke-width="0.5" stroke="black" fill="green"/>
  <circle cx="423.477" cy="549.835" r="3.94963" stroke-width="0.5" stroke="black" fill="green"/>
   </g>
   <g id="cell164">
  <circle cx="455.481" cy="469.768" r="7.30514" stroke-width="0.5" stroke="black" fill="cyan"/>
  <circle cx="455.481" cy="469.768" r="4.44507" stroke-width="0.5" stroke="black" fill="cyan"/>
   </g>
   <g id="cell165">
  <circle cx="411.654" cy="546.98" r="6.74939" stroke-width="0.5" stroke="black" fill="green"/>
  <circle cx="411.654" cy="546.98" r="4.14072" stroke-width="0.5" stroke="black" fill="green"/>
   </g>
   <g id="cell166">
  <circle cx="603.316" cy="499.642" r="7.21144" stroke-width="0.5" stroke="black" fill="green"/>
  <circle cx="603.316" cy="499.642" r="4.37981" stroke-width="0.5" stroke="black" fill="green"/>
   </g>
   <g id="cell167">
  <circle cx="465.782" cy="387.452" r="7.21189" stroke-width="0.5" stroke="black" fill="green"/>
  <circle cx="465.782" cy="387.452" r="4.37993" stroke-width="0.5" stroke="black" fill="green"/>
   </g>
   <g id="cell168">
  <circle cx="520.012" cy="407.653" r="7.12287" stroke-width="0.5" stroke="black" fill="magenta"/>
  <circle cx="520.012" cy="407.653" r="4.33584" stroke-width="0.5" stroke="black" fill="magenta"/>
   </g>
   <g id="cell169">
  <circle cx="473.604" cy="438.697" r="6.95185" stroke-width="0.5" stroke="black" fill="magenta"/>
  <circle cx="473.604" cy="438.697" r="4.24273" stroke-width="0.5" stroke="black" fill="magenta"/>
   </g>
   <g id="cell170">
  <circle cx="627.41" cy="489.732" r="7.02208" stroke-width="0.5" stroke="black" fill="green"/>
  <circle cx="627.41" cy="489.732" r="4.25631" stroke-width="0.5" stroke="black" fill="green"/>
   </g>
   <g id="cell171">
  <circle cx="536.532" cy="530.797" r="6.87803" stroke-width="0.5" stroke="black" fill="cyan"/>
  <circle cx="536.532" cy="530.797" r="4.16347" stroke-width="0.5" stroke="black" fill="cyan"/>
   </g>
   <g id="cell172">
  <circle cx="511.708" cy="518.059" r="6.45715" stroke-width="0.5" stroke="black" fill="cyan"/>
  <circle cx="511.708" cy="518.059" r="3.93631" stroke-width="0.5" stroke="black" fill="cyan"/>
   </g>
   <g id="cell173">
  <circle cx="539.88" cy="602.688" r="6.83127" stroke-width="0.5" stroke="black" fill="green"/>
  <circle cx="539.88" cy="602.688" r="4.12594" stroke-width="0.5" stroke="black" fill="green"/>
   </g>
  </g>
 </g>
  <rect x="775" y="1035" width="200" height="10" stroke-width="2" stroke="rgb(255,255,255)" fill="rgb(0,0,0)"/>
  <text x="781.25" y="1028.75"
   font-family="Arial" font-size="25" fill="black" >
   200 &#956;m
  </text>
  <text x="25" y="1045"
   font-family="Arial" font-size="18.75" fill="black" >
   0 days, 0 hours, 0 minutes, and 39.5612 seconds
  </text>
  <rect x="0" y="70" width="1000" height="1000" stroke-width="2" stroke="rgb(0,0,0)" fill="none"/>
</svg>
