<?xml version="1.0" encoding="UTF-8" standalone="no"?>
<!-- Created with PhysiCell (http://PhysiCell.MathCancer.org/) -->
<svg 
 xmlns:dc="http://purl.org/dc/elements/1.1/" 
 xmlns:cc="http://creativecommons.org/ns#" 
 xmlns:rdf="http://www.w3.org/1999/02/22-rdf-syntax-ns#" 
 xmlns:svg="http://www.w3.org/2000/svg" 
 xmlns="http://www.w3.org/2000/svg" 
 version="1.1" 
 width="1000" 
 height="1070" 
 id="svg2">
  <rect x="0" y="0" width="1000" height="1070" stroke-width="2" stroke="white" fill="white"/>
  <text x="12.5" y="30"
   font-family="Arial" font-size="25" fill="black" >
   Current time: 0 days, 9 hours, and 0.00 minutes, z = 0.00 &#956;m
  </text>
  <text x="12.5" y="57.5"
   font-family="Arial" font-size="23.75" fill="black" >
   103 agents
  </text>
 <g id="tissue" 
    transform="translate(0,1070) scale(1,-1)">
  <g id="ECM">
  </g>
  <g id="cells">
   <g id="cell0">
  <circle cx="521.068" cy="532.213" r="8.21273" stroke-width="0.5" stroke="black" fill="magenta"/>
  <circle cx="521.068" cy="532.213" r="4.96162" stroke-width="0.5" stroke="black" fill="magenta"/>
   </g>
   <g id="cell1">
  <circle cx="603.21" cy="527.91" r="8.41271" stroke-width="0.5" stroke="black" fill="magenta"/>
  <circle cx="603.21" cy="527.91" r="5.05167" stroke-width="0.5" stroke="black" fill="magenta"/>
   </g>
   <g id="cell2">
  <circle cx="510.776" cy="600.545" r="8.41271" stroke-width="0.5" stroke="black" fill="magenta"/>
  <circle cx="510.776" cy="600.545" r="5.05167" stroke-width="0.5" stroke="black" fill="magenta"/>
   </g>
   <g id="cell3">
  <circle cx="530.848" cy="543.524" r="8.41271" stroke-width="0.5" stroke="black" fill="magenta"/>
  <circle cx="530.848" cy="543.524" r="5.05167" stroke-width="0.5" stroke="black" fill="magenta"/>
   </g>
   <g id="cell4">
  <circle cx="472.736" cy="441.636" r="8.23444" stroke-width="0.5" stroke="black" fill="magenta"/>
  <circle cx="472.736" cy="441.636" r="4.97252" stroke-width="0.5" stroke="black" fill="magenta"/>
   </g>
   <g id="cell5">
  <circle cx="465.27" cy="493.478" r="8.41271" stroke-width="0.5" stroke="black" fill="magenta"/>
  <circle cx="465.27" cy="493.478" r="5.05167" stroke-width="0.5" stroke="black" fill="magenta"/>
   </g>
   <g id="cell6">
  <circle cx="596.941" cy="514.788" r="7.7401" stroke-width="0.5" stroke="black" fill="magenta"/>
  <circle cx="596.941" cy="514.788" r="4.70142" stroke-width="0.5" stroke="black" fill="magenta"/>
   </g>
   <g id="cell7">
  <circle cx="512.089" cy="464.757" r="8.41271" stroke-width="0.5" stroke="black" fill="magenta"/>
  <circle cx="512.089" cy="464.757" r="5.05167" stroke-width="0.5" stroke="black" fill="magenta"/>
   </g>
   <g id="cell8">
  <circle cx="376.293" cy="547.008" r="8.41271" stroke-width="0.5" stroke="black" fill="magenta"/>
  <circle cx="376.293" cy="547.008" r="5.05167" stroke-width="0.5" stroke="black" fill="magenta"/>
   </g>
   <g id="cell9">
  <circle cx="465.379" cy="601.359" r="7.70049" stroke-width="0.5" stroke="black" fill="magenta"/>
  <circle cx="465.379" cy="601.359" r="4.67828" stroke-width="0.5" stroke="black" fill="magenta"/>
   </g>
   <g id="cell10">
  <circle cx="583.447" cy="392.105" r="8.41271" stroke-width="0.5" stroke="black" fill="magenta"/>
  <circle cx="583.447" cy="392.105" r="5.05167" stroke-width="0.5" stroke="black" fill="magenta"/>
   </g>
   <g id="cell11">
  <circle cx="589.748" cy="590.273" r="8.41271" stroke-width="0.5" stroke="black" fill="magenta"/>
  <circle cx="589.748" cy="590.273" r="5.05167" stroke-width="0.5" stroke="black" fill="magenta"/>
   </g>
   <g id="cell12">
  <circle cx="506.641" cy="585.978" r="8.41271" stroke-width="0.5" stroke="black" fill="magenta"/>
  <circle cx="506.641" cy="585.978" r="5.05167" stroke-width="0.5" stroke="black" fill="magenta"/>
   </g>
   <g id="cell13">
  <circle cx="380.648" cy="560.95" r="7.84675" stroke-width="0.5" stroke="black" fill="magenta"/>
  <circle cx="380.648" cy="560.95" r="4.7629" stroke-width="0.5" stroke="black" fill="magenta"/>
   </g>
   <g id="cell14">
  <circle cx="525.476" cy="401.549" r="8.41271" stroke-width="0.5" stroke="black" fill="magenta"/>
  <circle cx="525.476" cy="401.549" r="5.05167" stroke-width="0.5" stroke="black" fill="magenta"/>
   </g>
   <g id="cell15">
  <circle cx="385.078" cy="478.267" r="8.2239" stroke-width="0.5" stroke="black" fill="magenta"/>
  <circle cx="385.078" cy="478.267" r="4.96725" stroke-width="0.5" stroke="black" fill="magenta"/>
   </g>
   <g id="cell16">
  <circle cx="428.96" cy="413.217" r="8.41271" stroke-width="0.5" stroke="black" fill="magenta"/>
  <circle cx="428.96" cy="413.217" r="5.05167" stroke-width="0.5" stroke="black" fill="magenta"/>
   </g>
   <g id="cell17">
  <circle cx="579.762" cy="486.912" r="6.95901" stroke-width="0.5" stroke="black" fill="magenta"/>
  <circle cx="579.762" cy="486.912" r="4.21341" stroke-width="0.5" stroke="black" fill="magenta"/>
   </g>
   <g id="cell18">
  <circle cx="512.379" cy="394.191" r="8.24438" stroke-width="0.5" stroke="black" fill="magenta"/>
  <circle cx="512.379" cy="394.191" r="4.97746" stroke-width="0.5" stroke="black" fill="magenta"/>
   </g>
   <g id="cell19">
  <circle cx="447.713" cy="533.406" r="7.46878" stroke-width="0.5" stroke="black" fill="magenta"/>
  <circle cx="447.713" cy="533.406" r="4.53982" stroke-width="0.5" stroke="black" fill="magenta"/>
   </g>
   <g id="cell20">
  <circle cx="528.749" cy="416.335" r="8.41271" stroke-width="0.5" stroke="black" fill="magenta"/>
  <circle cx="528.749" cy="416.335" r="5.05167" stroke-width="0.5" stroke="black" fill="magenta"/>
   </g>
   <g id="cell21">
  <circle cx="466.131" cy="637.889" r="6.86652" stroke-width="0.5" stroke="black" fill="magenta"/>
  <circle cx="466.131" cy="637.889" r="4.14883" stroke-width="0.5" stroke="black" fill="magenta"/>
   </g>
   <g id="cell22">
  <circle cx="556.938" cy="496.526" r="7.07368" stroke-width="0.5" stroke="black" fill="magenta"/>
  <circle cx="556.938" cy="496.526" r="4.31994" stroke-width="0.5" stroke="black" fill="magenta"/>
   </g>
   <g id="cell23">
  <circle cx="538.253" cy="480.702" r="8.41271" stroke-width="0.5" stroke="black" fill="magenta"/>
  <circle cx="538.253" cy="480.702" r="5.05167" stroke-width="0.5" stroke="black" fill="magenta"/>
   </g>
   <g id="cell24">
  <circle cx="559.288" cy="379.787" r="8.41271" stroke-width="0.5" stroke="black" fill="magenta"/>
  <circle cx="559.288" cy="379.787" r="5.05167" stroke-width="0.5" stroke="black" fill="magenta"/>
   </g>
   <g id="cell25">
  <circle cx="640.943" cy="550.03" r="8.41271" stroke-width="0.5" stroke="black" fill="green"/>
  <circle cx="640.943" cy="550.03" r="5.05167" stroke-width="0.5" stroke="black" fill="green"/>
   </g>
   <g id="cell26">
  <circle cx="550.641" cy="401.23" r="8.41271" stroke-width="0.5" stroke="black" fill="green"/>
  <circle cx="550.641" cy="401.23" r="5.05167" stroke-width="0.5" stroke="black" fill="green"/>
   </g>
   <g id="cell27">
  <circle cx="457.446" cy="388.678" r="8.41271" stroke-width="0.5" stroke="black" fill="green"/>
  <circle cx="457.446" cy="388.678" r="5.05167" stroke-width="0.5" stroke="black" fill="green"/>
   </g>
   <g id="cell28">
  <circle cx="433.017" cy="533.72" r="8.41271" stroke-width="0.5" stroke="black" fill="green"/>
  <circle cx="433.017" cy="533.72" r="5.05167" stroke-width="0.5" stroke="black" fill="green"/>
   </g>
   <g id="cell29">
  <circle cx="456.167" cy="522.031" r="7.81315" stroke-width="0.5" stroke="black" fill="green"/>
  <circle cx="456.167" cy="522.031" r="4.74367" stroke-width="0.5" stroke="black" fill="green"/>
   </g>
   <g id="cell30">
  <circle cx="481.576" cy="540.281" r="8.41271" stroke-width="0.5" stroke="black" fill="green"/>
  <circle cx="481.576" cy="540.281" r="5.05167" stroke-width="0.5" stroke="black" fill="green"/>
   </g>
   <g id="cell31">
  <circle cx="412.298" cy="539.441" r="8.41271" stroke-width="0.5" stroke="black" fill="green"/>
  <circle cx="412.298" cy="539.441" r="5.05167" stroke-width="0.5" stroke="black" fill="green"/>
   </g>
   <g id="cell32">
  <circle cx="428.216" cy="471.075" r="7.89373" stroke-width="0.5" stroke="black" fill="green"/>
  <circle cx="428.216" cy="471.075" r="4.78957" stroke-width="0.5" stroke="black" fill="green"/>
   </g>
   <g id="cell33">
  <circle cx="498.805" cy="413.25" r="7.96365" stroke-width="0.5" stroke="black" fill="green"/>
  <circle cx="498.805" cy="413.25" r="4.82873" stroke-width="0.5" stroke="black" fill="green"/>
   </g>
   <g id="cell34">
  <circle cx="391.96" cy="453.376" r="7.84675" stroke-width="0.5" stroke="black" fill="green"/>
  <circle cx="391.96" cy="453.376" r="4.7629" stroke-width="0.5" stroke="black" fill="green"/>
   </g>
   <g id="cell35">
  <circle cx="546.383" cy="544.293" r="8.41271" stroke-width="0.5" stroke="black" fill="green"/>
  <circle cx="546.383" cy="544.293" r="5.05167" stroke-width="0.5" stroke="black" fill="green"/>
   </g>
   <g id="cell36">
  <circle cx="390.921" cy="585.131" r="8.41271" stroke-width="0.5" stroke="black" fill="green"/>
  <circle cx="390.921" cy="585.131" r="5.05167" stroke-width="0.5" stroke="black" fill="green"/>
   </g>
   <g id="cell37">
  <circle cx="634.871" cy="460.618" r="8.41271" stroke-width="0.5" stroke="black" fill="green"/>
  <circle cx="634.871" cy="460.618" r="5.05167" stroke-width="0.5" stroke="black" fill="green"/>
   </g>
   <g id="cell38">
  <circle cx="532.267" cy="602.696" r="7.51976" stroke-width="0.5" stroke="black" fill="green"/>
  <circle cx="532.267" cy="602.696" r="4.57072" stroke-width="0.5" stroke="black" fill="green"/>
   </g>
   <g id="cell39">
  <circle cx="617.489" cy="494.384" r="8.20088" stroke-width="0.5" stroke="black" fill="green"/>
  <circle cx="617.489" cy="494.384" r="4.95562" stroke-width="0.5" stroke="black" fill="green"/>
   </g>
   <g id="cell40">
  <circle cx="485.348" cy="571.779" r="8.41271" stroke-width="0.5" stroke="black" fill="green"/>
  <circle cx="485.348" cy="571.779" r="5.05167" stroke-width="0.5" stroke="black" fill="green"/>
   </g>
   <g id="cell41">
  <circle cx="364.277" cy="480.333" r="8.41271" stroke-width="0.5" stroke="black" fill="green"/>
  <circle cx="364.277" cy="480.333" r="5.05167" stroke-width="0.5" stroke="black" fill="green"/>
   </g>
   <g id="cell42">
  <circle cx="451.321" cy="488.179" r="7.64006" stroke-width="0.5" stroke="black" fill="green"/>
  <circle cx="451.321" cy="488.179" r="4.65935" stroke-width="0.5" stroke="black" fill="green"/>
   </g>
   <g id="cell43">
  <circle cx="558.096" cy="445.59" r="8.41271" stroke-width="0.5" stroke="black" fill="green"/>
  <circle cx="558.096" cy="445.59" r="5.05167" stroke-width="0.5" stroke="black" fill="green"/>
   </g>
   <g id="cell44">
  <circle cx="476.054" cy="628.652" r="7.79564" stroke-width="0.5" stroke="black" fill="green"/>
  <circle cx="476.054" cy="628.652" r="4.73359" stroke-width="0.5" stroke="black" fill="green"/>
   </g>
   <g id="cell45">
  <circle cx="416.378" cy="553.41" r="6.95901" stroke-width="0.5" stroke="black" fill="green"/>
  <circle cx="416.378" cy="553.41" r="4.21341" stroke-width="0.5" stroke="black" fill="green"/>
   </g>
   <g id="cell46">
  <circle cx="520.786" cy="612.51" r="8.41271" stroke-width="0.5" stroke="black" fill="green"/>
  <circle cx="520.786" cy="612.51" r="5.05167" stroke-width="0.5" stroke="black" fill="green"/>
   </g>
   <g id="cell47">
  <circle cx="504.345" cy="511.366" r="8.41271" stroke-width="0.5" stroke="black" fill="green"/>
  <circle cx="504.345" cy="511.366" r="5.05167" stroke-width="0.5" stroke="black" fill="green"/>
   </g>
   <g id="cell48">
  <circle cx="564.601" cy="602.687" r="8.41271" stroke-width="0.5" stroke="black" fill="green"/>
  <circle cx="564.601" cy="602.687" r="5.05167" stroke-width="0.5" stroke="black" fill="green"/>
   </g>
   <g id="cell49">
  <circle cx="429.826" cy="397.641" r="8.41271" stroke-width="0.5" stroke="black" fill="green"/>
  <circle cx="429.826" cy="397.641" r="5.05167" stroke-width="0.5" stroke="black" fill="green"/>
   </g>
   <g id="cell50">
  <circle cx="519.254" cy="516.946" r="8.41271" stroke-width="0.5" stroke="black" fill="cyan"/>
  <circle cx="519.254" cy="516.946" r="5.05167" stroke-width="0.5" stroke="black" fill="cyan"/>
   </g>
   <g id="cell51">
  <circle cx="399.537" cy="598.604" r="8.41271" stroke-width="0.5" stroke="black" fill="cyan"/>
  <circle cx="399.537" cy="598.604" r="5.05167" stroke-width="0.5" stroke="black" fill="cyan"/>
   </g>
   <g id="cell52">
  <circle cx="524.615" cy="425.457" r="2.47369" stroke-width="0.5" stroke="black" fill="cyan"/>
  <circle cx="524.615" cy="425.457" r="2.20257" stroke-width="0.5" stroke="black" fill="black"/>
   </g>
   <g id="cell53">
  <circle cx="571.047" cy="436.182" r="8.41271" stroke-width="0.5" stroke="black" fill="cyan"/>
  <circle cx="571.047" cy="436.182" r="5.05167" stroke-width="0.5" stroke="black" fill="cyan"/>
   </g>
   <g id="cell54">
  <circle cx="479.304" cy="427.638" r="8.41271" stroke-width="0.5" stroke="black" fill="cyan"/>
  <circle cx="479.304" cy="427.638" r="5.05167" stroke-width="0.5" stroke="black" fill="cyan"/>
   </g>
   <g id="cell55">
  <circle cx="526.365" cy="470.823" r="8.41271" stroke-width="0.5" stroke="black" fill="cyan"/>
  <circle cx="526.365" cy="470.823" r="5.05167" stroke-width="0.5" stroke="black" fill="cyan"/>
   </g>
   <g id="cell56">
  <circle cx="617.761" cy="522.288" r="8.41271" stroke-width="0.5" stroke="black" fill="cyan"/>
  <circle cx="617.761" cy="522.288" r="5.05167" stroke-width="0.5" stroke="black" fill="cyan"/>
   </g>
   <g id="cell57">
  <circle cx="416.924" cy="617.466" r="8.41271" stroke-width="0.5" stroke="black" fill="cyan"/>
  <circle cx="416.924" cy="617.466" r="5.05167" stroke-width="0.5" stroke="black" fill="cyan"/>
   </g>
   <g id="cell58">
  <circle cx="553.697" cy="482.615" r="8.41271" stroke-width="0.5" stroke="black" fill="cyan"/>
  <circle cx="553.697" cy="482.615" r="5.05167" stroke-width="0.5" stroke="black" fill="cyan"/>
   </g>
   <g id="cell59">
  <circle cx="385.278" cy="439.429" r="8.41271" stroke-width="0.5" stroke="black" fill="cyan"/>
  <circle cx="385.278" cy="439.429" r="5.05167" stroke-width="0.5" stroke="black" fill="cyan"/>
   </g>
   <g id="cell60">
  <circle cx="593.419" cy="474.325" r="8.41271" stroke-width="0.5" stroke="black" fill="cyan"/>
  <circle cx="593.419" cy="474.325" r="5.05167" stroke-width="0.5" stroke="black" fill="cyan"/>
   </g>
   <g id="cell61">
  <circle cx="552.36" cy="612.977" r="8.41271" stroke-width="0.5" stroke="black" fill="cyan"/>
  <circle cx="552.36" cy="612.977" r="5.05167" stroke-width="0.5" stroke="black" fill="cyan"/>
   </g>
   <g id="cell62">
  <circle cx="526.217" cy="443.757" r="8.41271" stroke-width="0.5" stroke="black" fill="cyan"/>
  <circle cx="526.217" cy="443.757" r="5.05167" stroke-width="0.5" stroke="black" fill="cyan"/>
   </g>
   <g id="cell63">
  <circle cx="580.428" cy="552.198" r="7.51976" stroke-width="0.5" stroke="black" fill="cyan"/>
  <circle cx="580.428" cy="552.198" r="4.57072" stroke-width="0.5" stroke="black" fill="cyan"/>
   </g>
   <g id="cell64">
  <circle cx="509.962" cy="636.825" r="8.41271" stroke-width="0.5" stroke="black" fill="cyan"/>
  <circle cx="509.962" cy="636.825" r="5.05167" stroke-width="0.5" stroke="black" fill="cyan"/>
   </g>
   <g id="cell65">
  <circle cx="536.388" cy="459.632" r="7.46878" stroke-width="0.5" stroke="black" fill="cyan"/>
  <circle cx="536.388" cy="459.632" r="4.53982" stroke-width="0.5" stroke="black" fill="cyan"/>
   </g>
   <g id="cell66">
  <circle cx="536.189" cy="528.866" r="8.41271" stroke-width="0.5" stroke="black" fill="cyan"/>
  <circle cx="536.189" cy="528.866" r="5.05167" stroke-width="0.5" stroke="black" fill="cyan"/>
   </g>
   <g id="cell67">
  <circle cx="354.406" cy="492.969" r="8.41271" stroke-width="0.5" stroke="black" fill="cyan"/>
  <circle cx="354.406" cy="492.969" r="5.05167" stroke-width="0.5" stroke="black" fill="cyan"/>
   </g>
   <g id="cell68">
  <circle cx="559.675" cy="553.173" r="8.41271" stroke-width="0.5" stroke="black" fill="cyan"/>
  <circle cx="559.675" cy="553.173" r="5.05167" stroke-width="0.5" stroke="black" fill="cyan"/>
   </g>
   <g id="cell69">
  <circle cx="436.124" cy="457.978" r="8.24914" stroke-width="0.5" stroke="black" fill="cyan"/>
  <circle cx="436.124" cy="457.978" r="4.97981" stroke-width="0.5" stroke="black" fill="cyan"/>
   </g>
   <g id="cell70">
  <circle cx="577.513" cy="472.809" r="8.41271" stroke-width="0.5" stroke="black" fill="cyan"/>
  <circle cx="577.513" cy="472.809" r="5.05167" stroke-width="0.5" stroke="black" fill="cyan"/>
   </g>
   <g id="cell71">
  <circle cx="377.712" cy="520.989" r="8.41271" stroke-width="0.5" stroke="black" fill="cyan"/>
  <circle cx="377.712" cy="520.989" r="5.05167" stroke-width="0.5" stroke="black" fill="cyan"/>
   </g>
   <g id="cell72">
  <circle cx="534.619" cy="512.794" r="8.41271" stroke-width="0.5" stroke="black" fill="cyan"/>
  <circle cx="534.619" cy="512.794" r="5.05167" stroke-width="0.5" stroke="black" fill="cyan"/>
   </g>
   <g id="cell73">
  <circle cx="360.738" cy="545.944" r="8.41271" stroke-width="0.5" stroke="black" fill="cyan"/>
  <circle cx="360.738" cy="545.944" r="5.05167" stroke-width="0.5" stroke="black" fill="cyan"/>
   </g>
   <g id="cell74">
  <circle cx="542.11" cy="445.74" r="8.41271" stroke-width="0.5" stroke="black" fill="cyan"/>
  <circle cx="542.11" cy="445.74" r="5.05167" stroke-width="0.5" stroke="black" fill="cyan"/>
   </g>
   <g id="cell75">
  <circle cx="443.533" cy="471.9" r="8.24914" stroke-width="0.5" stroke="black" fill="cyan"/>
  <circle cx="443.533" cy="471.9" r="4.97981" stroke-width="0.5" stroke="black" fill="cyan"/>
   </g>
   <g id="cell76">
  <circle cx="524.565" cy="387.517" r="7.25051" stroke-width="0.5" stroke="black" fill="magenta"/>
  <circle cx="524.565" cy="387.517" r="4.42366" stroke-width="0.5" stroke="black" fill="magenta"/>
   </g>
   <g id="cell77">
  <circle cx="487.568" cy="440.58" r="8.23444" stroke-width="0.5" stroke="black" fill="magenta"/>
  <circle cx="487.568" cy="440.58" r="4.97252" stroke-width="0.5" stroke="black" fill="magenta"/>
   </g>
   <g id="cell78">
  <circle cx="374.049" cy="468.416" r="8.2239" stroke-width="0.5" stroke="black" fill="magenta"/>
  <circle cx="374.049" cy="468.416" r="4.96725" stroke-width="0.5" stroke="black" fill="magenta"/>
   </g>
   <g id="cell79">
  <circle cx="507.321" cy="526.599" r="8.21273" stroke-width="0.5" stroke="black" fill="magenta"/>
  <circle cx="507.321" cy="526.599" r="4.96162" stroke-width="0.5" stroke="black" fill="magenta"/>
   </g>
   <g id="cell80">
  <circle cx="606.079" cy="483.762" r="8.20088" stroke-width="0.5" stroke="black" fill="green"/>
  <circle cx="606.079" cy="483.762" r="4.95562" stroke-width="0.5" stroke="black" fill="green"/>
   </g>
   <g id="cell81">
  <circle cx="426.007" cy="499.726" r="8.17502" stroke-width="0.5" stroke="black" fill="green"/>
  <circle cx="426.007" cy="499.726" r="4.94236" stroke-width="0.5" stroke="black" fill="green"/>
   </g>
   <g id="cell82">
  <circle cx="543.563" cy="494.498" r="8.1609" stroke-width="0.5" stroke="black" fill="magenta"/>
  <circle cx="543.563" cy="494.498" r="4.93506" stroke-width="0.5" stroke="black" fill="magenta"/>
   </g>
   <g id="cell83">
  <circle cx="494.635" cy="427.721" r="7.24438" stroke-width="0.5" stroke="black" fill="green"/>
  <circle cx="494.635" cy="427.721" r="4.41828" stroke-width="0.5" stroke="black" fill="black"/>
   </g>
   <g id="cell84">
  <circle cx="417.968" cy="481.962" r="7.89373" stroke-width="0.5" stroke="black" fill="green"/>
  <circle cx="417.968" cy="481.962" r="4.78957" stroke-width="0.5" stroke="black" fill="green"/>
   </g>
   <g id="cell85">
  <circle cx="405.6" cy="447.355" r="7.84675" stroke-width="0.5" stroke="black" fill="green"/>
  <circle cx="405.6" cy="447.355" r="4.7629" stroke-width="0.5" stroke="black" fill="green"/>
   </g>
   <g id="cell86">
  <circle cx="391.366" cy="570.093" r="7.84675" stroke-width="0.5" stroke="black" fill="magenta"/>
  <circle cx="391.366" cy="570.093" r="4.7629" stroke-width="0.5" stroke="black" fill="magenta"/>
   </g>
   <g id="cell87">
  <circle cx="441.383" cy="520.739" r="7.81315" stroke-width="0.5" stroke="black" fill="green"/>
  <circle cx="441.383" cy="520.739" r="4.74367" stroke-width="0.5" stroke="black" fill="green"/>
   </g>
   <g id="cell88">
  <circle cx="478.925" cy="614.137" r="7.79564" stroke-width="0.5" stroke="black" fill="green"/>
  <circle cx="478.925" cy="614.137" r="4.73359" stroke-width="0.5" stroke="black" fill="green"/>
   </g>
   <g id="cell89">
  <circle cx="438.195" cy="490.458" r="6.22251" stroke-width="0.5" stroke="black" fill="green"/>
  <circle cx="438.195" cy="490.458" r="3.80927" stroke-width="0.5" stroke="black" fill="green"/>
   </g>
   <g id="cell90">
  <circle cx="589.972" cy="502.676" r="7.7401" stroke-width="0.5" stroke="black" fill="magenta"/>
  <circle cx="589.972" cy="502.676" r="4.70142" stroke-width="0.5" stroke="black" fill="magenta"/>
   </g>
   <g id="cell91">
  <circle cx="452.091" cy="597.356" r="7.70049" stroke-width="0.5" stroke="black" fill="magenta"/>
  <circle cx="452.091" cy="597.356" r="4.67828" stroke-width="0.5" stroke="black" fill="magenta"/>
   </g>
   <g id="cell92">
  <circle cx="546.056" cy="599.058" r="7.51976" stroke-width="0.5" stroke="black" fill="green"/>
  <circle cx="546.056" cy="599.058" r="4.57072" stroke-width="0.5" stroke="black" fill="green"/>
   </g>
   <g id="cell93">
  <circle cx="575.18" cy="533.652" r="6.23987" stroke-width="0.5" stroke="black" fill="cyan"/>
  <circle cx="575.18" cy="533.652" r="3.81736" stroke-width="0.5" stroke="black" fill="cyan"/>
   </g>
   <g id="cell94">
  <circle cx="547.039" cy="468.987" r="7.46878" stroke-width="0.5" stroke="black" fill="cyan"/>
  <circle cx="547.039" cy="468.987" r="4.53982" stroke-width="0.5" stroke="black" fill="cyan"/>
   </g>
   <g id="cell95">
  <circle cx="460.985" cy="535.346" r="7.46878" stroke-width="0.5" stroke="black" fill="magenta"/>
  <circle cx="460.985" cy="535.346" r="4.53982" stroke-width="0.5" stroke="black" fill="magenta"/>
   </g>
   <g id="cell96">
  <circle cx="533.571" cy="378.156" r="7.25051" stroke-width="0.5" stroke="black" fill="magenta"/>
  <circle cx="533.571" cy="378.156" r="4.42366" stroke-width="0.5" stroke="black" fill="magenta"/>
   </g>
   <g id="cell97">
  <circle cx="565.935" cy="505.416" r="7.07368" stroke-width="0.5" stroke="black" fill="magenta"/>
  <circle cx="565.935" cy="505.416" r="4.31994" stroke-width="0.5" stroke="black" fill="magenta"/>
   </g>
   <g id="cell98">
  <circle cx="413.286" cy="566.206" r="6.95901" stroke-width="0.5" stroke="black" fill="green"/>
  <circle cx="413.286" cy="566.206" r="4.21341" stroke-width="0.5" stroke="black" fill="green"/>
   </g>
   <g id="cell99">
  <circle cx="568.955" cy="493.125" r="6.95901" stroke-width="0.5" stroke="black" fill="magenta"/>
  <circle cx="568.955" cy="493.125" r="4.21341" stroke-width="0.5" stroke="black" fill="magenta"/>
   </g>
   <g id="cell100">
  <circle cx="570.157" cy="544.243" r="6.23987" stroke-width="0.5" stroke="black" fill="cyan"/>
  <circle cx="570.157" cy="544.243" r="3.81736" stroke-width="0.5" stroke="black" fill="cyan"/>
   </g>
   <g id="cell101">
  <circle cx="455.153" cy="632.26" r="6.86652" stroke-width="0.5" stroke="black" fill="magenta"/>
  <circle cx="455.153" cy="632.26" r="4.14883" stroke-width="0.5" stroke="black" fill="magenta"/>
   </g>
   <g id="cell102">
  <circle cx="441.324" cy="501.774" r="6.22251" stroke-width="0.5" stroke="black" fill="green"/>
  <circle cx="441.324" cy="501.774" r="3.80927" stroke-width="0.5" stroke="black" fill="green"/>
   </g>
  </g>
 </g>
  <rect x="775" y="1035" width="200" height="10" stroke-width="2" stroke="rgb(255,255,255)" fill="rgb(0,0,0)"/>
  <text x="781.25" y="1028.75"
   font-family="Arial" font-size="25" fill="black" >
   200 &#956;m
  </text>
  <text x="25" y="1045"
   font-family="Arial" font-size="18.75" fill="black" >
   0 days, 0 hours, 0 minutes, and 11.9396 seconds
  </text>
  <rect x="0" y="70" width="1000" height="1000" stroke-width="2" stroke="rgb(0,0,0)" fill="none"/>
</svg>
