<?xml version="1.0" encoding="UTF-8" standalone="no"?>
<!-- Created with PhysiCell (http://PhysiCell.MathCancer.org/) -->
<svg 
 xmlns:dc="http://purl.org/dc/elements/1.1/" 
 xmlns:cc="http://creativecommons.org/ns#" 
 xmlns:rdf="http://www.w3.org/1999/02/22-rdf-syntax-ns#" 
 xmlns:svg="http://www.w3.org/2000/svg" 
 xmlns="http://www.w3.org/2000/svg" 
 version="1.1" 
 width="1000" 
 height="1070" 
 id="svg2">
  <rect x="0" y="0" width="1000" height="1070" stroke-width="2" stroke="white" fill="white"/>
  <text x="12.5" y="30"
   font-family="Arial" font-size="25" fill="black" >
   Current time: 0 days, 23 hours, and 0.00 minutes, z = 0.00 &#956;m
  </text>
  <text x="12.5" y="57.5"
   font-family="Arial" font-size="23.75" fill="black" >
   140 agents
  </text>
 <g id="tissue" 
    transform="translate(0,1070) scale(1,-1)">
  <g id="ECM">
  </g>
  <g id="cells">
   <g id="cell0">
  <circle cx="514.583" cy="531.059" r="8.40884" stroke-width="0.5" stroke="black" fill="magenta"/>
  <circle cx="514.583" cy="531.059" r="5.05057" stroke-width="0.5" stroke="black" fill="magenta"/>
   </g>
   <g id="cell1">
  <circle cx="600.39" cy="520.538" r="1.20653" stroke-width="0.5" stroke="black" fill="magenta"/>
  <circle cx="600.39" cy="520.538" r="1.20179" stroke-width="0.5" stroke="black" fill="black"/>
   </g>
   <g id="cell2">
  <circle cx="512.856" cy="595.271" r="7.81315" stroke-width="0.5" stroke="black" fill="magenta"/>
  <circle cx="512.856" cy="595.271" r="4.74367" stroke-width="0.5" stroke="black" fill="magenta"/>
   </g>
   <g id="cell3">
  <circle cx="539.483" cy="541.196" r="7.61469" stroke-width="0.5" stroke="black" fill="magenta"/>
  <circle cx="539.483" cy="541.196" r="4.62762" stroke-width="0.5" stroke="black" fill="magenta"/>
   </g>
   <g id="cell4">
  <circle cx="469.155" cy="440.888" r="8.40925" stroke-width="0.5" stroke="black" fill="magenta"/>
  <circle cx="469.155" cy="440.888" r="5.0507" stroke-width="0.5" stroke="black" fill="magenta"/>
   </g>
   <g id="cell5">
  <circle cx="465.812" cy="497.91" r="6.75639" stroke-width="0.5" stroke="black" fill="magenta"/>
  <circle cx="465.812" cy="497.91" r="4.06813" stroke-width="0.5" stroke="black" fill="magenta"/>
   </g>
   <g id="cell6">
  <circle cx="594.812" cy="513.954" r="8.40022" stroke-width="0.5" stroke="black" fill="magenta"/>
  <circle cx="594.812" cy="513.954" r="5.04764" stroke-width="0.5" stroke="black" fill="magenta"/>
   </g>
   <g id="cell7">
  <circle cx="511.328" cy="464.405" r="8.41271" stroke-width="0.5" stroke="black" fill="magenta"/>
  <circle cx="511.328" cy="464.405" r="5.05167" stroke-width="0.5" stroke="black" fill="magenta"/>
   </g>
   <g id="cell8">
  <circle cx="370.679" cy="549.048" r="6.80881" stroke-width="0.5" stroke="black" fill="magenta"/>
  <circle cx="370.679" cy="549.048" r="4.10709" stroke-width="0.5" stroke="black" fill="magenta"/>
   </g>
   <g id="cell9">
  <circle cx="463.961" cy="602.068" r="8.3995" stroke-width="0.5" stroke="black" fill="magenta"/>
  <circle cx="463.961" cy="602.068" r="5.04738" stroke-width="0.5" stroke="black" fill="magenta"/>
   </g>
   <g id="cell10">
  <circle cx="587.127" cy="395.593" r="6.66848" stroke-width="0.5" stroke="black" fill="magenta"/>
  <circle cx="587.127" cy="395.593" r="4.07028" stroke-width="0.5" stroke="black" fill="magenta"/>
   </g>
   <g id="cell11">
  <circle cx="589.748" cy="590.273" r="8.41271" stroke-width="0.5" stroke="black" fill="magenta"/>
  <circle cx="589.748" cy="590.273" r="5.05167" stroke-width="0.5" stroke="black" fill="magenta"/>
   </g>
   <g id="cell12">
  <circle cx="502.194" cy="585.337" r="8.41271" stroke-width="0.5" stroke="black" fill="magenta"/>
  <circle cx="502.194" cy="585.337" r="5.05167" stroke-width="0.5" stroke="black" fill="magenta"/>
   </g>
   <g id="cell13">
  <circle cx="378.8" cy="560.186" r="8.21838" stroke-width="0.5" stroke="black" fill="magenta"/>
  <circle cx="378.8" cy="560.186" r="4.96548" stroke-width="0.5" stroke="black" fill="magenta"/>
   </g>
   <g id="cell14">
  <circle cx="523.137" cy="398.895" r="7.86286" stroke-width="0.5" stroke="black" fill="magenta"/>
  <circle cx="523.137" cy="398.895" r="4.77207" stroke-width="0.5" stroke="black" fill="magenta"/>
   </g>
   <g id="cell15">
  <circle cx="391.531" cy="482.943" r="7.46646" stroke-width="0.5" stroke="black" fill="magenta"/>
  <circle cx="391.531" cy="482.943" r="4.5391" stroke-width="0.5" stroke="black" fill="magenta"/>
   </g>
   <g id="cell16">
  <circle cx="430.594" cy="413.438" r="8.41271" stroke-width="0.5" stroke="black" fill="magenta"/>
  <circle cx="430.594" cy="413.438" r="5.05167" stroke-width="0.5" stroke="black" fill="magenta"/>
   </g>
   <g id="cell17">
  <circle cx="588.441" cy="489.129" r="8.38454" stroke-width="0.5" stroke="black" fill="magenta"/>
  <circle cx="588.441" cy="489.129" r="5.04168" stroke-width="0.5" stroke="black" fill="magenta"/>
   </g>
   <g id="cell18">
  <circle cx="509.829" cy="392.795" r="8.40944" stroke-width="0.5" stroke="black" fill="magenta"/>
  <circle cx="509.829" cy="392.795" r="5.05076" stroke-width="0.5" stroke="black" fill="magenta"/>
   </g>
   <g id="cell19">
  <circle cx="447.943" cy="539.443" r="8.39523" stroke-width="0.5" stroke="black" fill="magenta"/>
  <circle cx="447.943" cy="539.443" r="5.04581" stroke-width="0.5" stroke="black" fill="magenta"/>
   </g>
   <g id="cell20">
  <circle cx="528.256" cy="422.795" r="8.41271" stroke-width="0.5" stroke="black" fill="magenta"/>
  <circle cx="528.256" cy="422.795" r="5.05167" stroke-width="0.5" stroke="black" fill="magenta"/>
   </g>
   <g id="cell141">
  <circle cx="482.598" cy="438.677" r="6.91871" stroke-width="0.5" stroke="black" fill="magenta"/>
  <circle cx="482.598" cy="438.677" r="4.20474" stroke-width="0.5" stroke="black" fill="magenta"/>
   </g>
   <g id="cell22">
  <circle cx="558.724" cy="496.651" r="8.3884" stroke-width="0.5" stroke="black" fill="magenta"/>
  <circle cx="558.724" cy="496.651" r="5.04343" stroke-width="0.5" stroke="black" fill="magenta"/>
   </g>
   <g id="cell23">
  <circle cx="535.638" cy="482.955" r="8.41271" stroke-width="0.5" stroke="black" fill="magenta"/>
  <circle cx="535.638" cy="482.955" r="5.05167" stroke-width="0.5" stroke="black" fill="magenta"/>
   </g>
   <g id="cell24">
  <circle cx="562.649" cy="382.561" r="8.41271" stroke-width="0.5" stroke="black" fill="magenta"/>
  <circle cx="562.649" cy="382.561" r="5.05167" stroke-width="0.5" stroke="black" fill="magenta"/>
   </g>
   <g id="cell25">
  <circle cx="647.965" cy="559.535" r="8.31877" stroke-width="0.5" stroke="black" fill="green"/>
  <circle cx="647.965" cy="559.535" r="5.01492" stroke-width="0.5" stroke="black" fill="green"/>
   </g>
   <g id="cell26">
  <circle cx="549.762" cy="401.552" r="8.41271" stroke-width="0.5" stroke="black" fill="green"/>
  <circle cx="549.762" cy="401.552" r="5.05167" stroke-width="0.5" stroke="black" fill="green"/>
   </g>
   <g id="cell27">
  <circle cx="457.446" cy="388.678" r="8.41271" stroke-width="0.5" stroke="black" fill="green"/>
  <circle cx="457.446" cy="388.678" r="5.05167" stroke-width="0.5" stroke="black" fill="green"/>
   </g>
   <g id="cell28">
  <circle cx="433.057" cy="544.165" r="8.41271" stroke-width="0.5" stroke="black" fill="green"/>
  <circle cx="433.057" cy="544.165" r="5.05167" stroke-width="0.5" stroke="black" fill="green"/>
   </g>
   <g id="cell29">
  <circle cx="467.375" cy="521.003" r="8.29737" stroke-width="0.5" stroke="black" fill="green"/>
  <circle cx="467.375" cy="521.003" r="5.00399" stroke-width="0.5" stroke="black" fill="green"/>
   </g>
   <g id="cell30">
  <circle cx="477.808" cy="539.187" r="8.41271" stroke-width="0.5" stroke="black" fill="green"/>
  <circle cx="477.808" cy="539.187" r="5.05167" stroke-width="0.5" stroke="black" fill="green"/>
   </g>
   <g id="cell31">
  <circle cx="412.463" cy="538.652" r="8.41271" stroke-width="0.5" stroke="black" fill="green"/>
  <circle cx="412.463" cy="538.652" r="5.05167" stroke-width="0.5" stroke="black" fill="green"/>
   </g>
   <g id="cell32">
  <circle cx="430.102" cy="465.398" r="8.403" stroke-width="0.5" stroke="black" fill="green"/>
  <circle cx="430.102" cy="465.398" r="5.04863" stroke-width="0.5" stroke="black" fill="green"/>
   </g>
   <g id="cell33">
  <circle cx="498.876" cy="413.227" r="8.40427" stroke-width="0.5" stroke="black" fill="green"/>
  <circle cx="498.876" cy="413.227" r="5.04906" stroke-width="0.5" stroke="black" fill="green"/>
   </g>
   <g id="cell34">
  <circle cx="392.093" cy="453.616" r="8.40215" stroke-width="0.5" stroke="black" fill="green"/>
  <circle cx="392.093" cy="453.616" r="5.04833" stroke-width="0.5" stroke="black" fill="green"/>
   </g>
   <g id="cell35">
  <circle cx="544.605" cy="554.926" r="8.36972" stroke-width="0.5" stroke="black" fill="green"/>
  <circle cx="544.605" cy="554.926" r="5.03563" stroke-width="0.5" stroke="black" fill="green"/>
   </g>
   <g id="cell36">
  <circle cx="396.656" cy="580.102" r="8.18177" stroke-width="0.5" stroke="black" fill="green"/>
  <circle cx="396.656" cy="580.102" r="4.94584" stroke-width="0.5" stroke="black" fill="green"/>
   </g>
   <g id="cell37">
  <circle cx="634.871" cy="460.618" r="2.84772" stroke-width="0.5" stroke="black" fill="green"/>
  <circle cx="634.871" cy="460.618" r="2.39601" stroke-width="0.5" stroke="black" fill="black"/>
   </g>
   <g id="cell38">
  <circle cx="526.667" cy="603.303" r="8.39618" stroke-width="0.5" stroke="black" fill="green"/>
  <circle cx="526.667" cy="603.303" r="5.04616" stroke-width="0.5" stroke="black" fill="green"/>
   </g>
   <g id="cell39">
  <circle cx="617.14" cy="494.46" r="8.40862" stroke-width="0.5" stroke="black" fill="green"/>
  <circle cx="617.14" cy="494.46" r="5.0505" stroke-width="0.5" stroke="black" fill="green"/>
   </g>
   <g id="cell40">
  <circle cx="485.548" cy="571.948" r="8.41271" stroke-width="0.5" stroke="black" fill="green"/>
  <circle cx="485.548" cy="571.948" r="5.05167" stroke-width="0.5" stroke="black" fill="green"/>
   </g>
   <g id="cell41">
  <circle cx="364.736" cy="479.923" r="8.41271" stroke-width="0.5" stroke="black" fill="green"/>
  <circle cx="364.736" cy="479.923" r="5.05167" stroke-width="0.5" stroke="black" fill="green"/>
   </g>
   <g id="cell42">
  <circle cx="452.244" cy="487.126" r="4.2264" stroke-width="0.5" stroke="black" fill="green"/>
  <circle cx="452.244" cy="487.126" r="2.99087" stroke-width="0.5" stroke="black" fill="black"/>
   </g>
   <g id="cell43">
  <circle cx="558.46" cy="445.742" r="8.41271" stroke-width="0.5" stroke="black" fill="green"/>
  <circle cx="558.46" cy="445.742" r="5.05167" stroke-width="0.5" stroke="black" fill="green"/>
   </g>
   <g id="cell44">
  <circle cx="477.661" cy="627.427" r="8.40123" stroke-width="0.5" stroke="black" fill="green"/>
  <circle cx="477.661" cy="627.427" r="5.048" stroke-width="0.5" stroke="black" fill="green"/>
   </g>
   <g id="cell45">
  <circle cx="416.635" cy="554.144" r="8.38454" stroke-width="0.5" stroke="black" fill="green"/>
  <circle cx="416.635" cy="554.144" r="5.04168" stroke-width="0.5" stroke="black" fill="green"/>
   </g>
   <g id="cell46">
  <circle cx="518.408" cy="620.76" r="7.10106" stroke-width="0.5" stroke="black" fill="green"/>
  <circle cx="518.408" cy="620.76" r="4.33015" stroke-width="0.5" stroke="black" fill="green"/>
   </g>
   <g id="cell47">
  <circle cx="501.149" cy="508.021" r="8.41271" stroke-width="0.5" stroke="black" fill="green"/>
  <circle cx="501.149" cy="508.021" r="5.05167" stroke-width="0.5" stroke="black" fill="green"/>
   </g>
   <g id="cell48">
  <circle cx="565.402" cy="604.326" r="8.41271" stroke-width="0.5" stroke="black" fill="green"/>
  <circle cx="565.402" cy="604.326" r="5.05167" stroke-width="0.5" stroke="black" fill="green"/>
   </g>
   <g id="cell49">
  <circle cx="434.42" cy="395.649" r="8.03527" stroke-width="0.5" stroke="black" fill="green"/>
  <circle cx="434.42" cy="395.649" r="4.86813" stroke-width="0.5" stroke="black" fill="green"/>
   </g>
   <g id="cell50">
  <circle cx="515.27" cy="515.636" r="8.41271" stroke-width="0.5" stroke="black" fill="cyan"/>
  <circle cx="515.27" cy="515.636" r="5.05167" stroke-width="0.5" stroke="black" fill="cyan"/>
   </g>
   <g id="cell51">
  <circle cx="394.157" cy="602.837" r="8.08613" stroke-width="0.5" stroke="black" fill="cyan"/>
  <circle cx="394.157" cy="602.837" r="4.8956" stroke-width="0.5" stroke="black" fill="cyan"/>
   </g>
   <g id="cell120">
  <circle cx="419.33" cy="610.526" r="8.24438" stroke-width="0.5" stroke="black" fill="cyan"/>
  <circle cx="419.33" cy="610.526" r="4.97746" stroke-width="0.5" stroke="black" fill="cyan"/>
   </g>
   <g id="cell53">
  <circle cx="571.232" cy="436.044" r="8.41271" stroke-width="0.5" stroke="black" fill="cyan"/>
  <circle cx="571.232" cy="436.044" r="5.05167" stroke-width="0.5" stroke="black" fill="cyan"/>
   </g>
   <g id="cell54">
  <circle cx="475.707" cy="426.43" r="8.41271" stroke-width="0.5" stroke="black" fill="cyan"/>
  <circle cx="475.707" cy="426.43" r="5.05167" stroke-width="0.5" stroke="black" fill="cyan"/>
   </g>
   <g id="cell55">
  <circle cx="525.374" cy="471.216" r="8.41271" stroke-width="0.5" stroke="black" fill="cyan"/>
  <circle cx="525.374" cy="471.216" r="5.05167" stroke-width="0.5" stroke="black" fill="cyan"/>
   </g>
   <g id="cell56">
  <circle cx="615.787" cy="522.537" r="8.41271" stroke-width="0.5" stroke="black" fill="cyan"/>
  <circle cx="615.787" cy="522.537" r="5.05167" stroke-width="0.5" stroke="black" fill="cyan"/>
   </g>
   <g id="cell57">
  <circle cx="418.512" cy="626.177" r="8.24438" stroke-width="0.5" stroke="black" fill="cyan"/>
  <circle cx="418.512" cy="626.177" r="4.97746" stroke-width="0.5" stroke="black" fill="cyan"/>
   </g>
   <g id="cell58">
  <circle cx="550.756" cy="483.614" r="8.41271" stroke-width="0.5" stroke="black" fill="cyan"/>
  <circle cx="550.756" cy="483.614" r="5.05167" stroke-width="0.5" stroke="black" fill="cyan"/>
   </g>
   <g id="cell59">
  <circle cx="385.162" cy="439.18" r="8.41271" stroke-width="0.5" stroke="black" fill="cyan"/>
  <circle cx="385.162" cy="439.18" r="5.05167" stroke-width="0.5" stroke="black" fill="cyan"/>
   </g>
   <g id="cell60">
  <circle cx="592.995" cy="474.281" r="8.20689" stroke-width="0.5" stroke="black" fill="cyan"/>
  <circle cx="592.995" cy="474.281" r="4.95867" stroke-width="0.5" stroke="black" fill="cyan"/>
   </g>
   <g id="cell61">
  <circle cx="554.623" cy="614.976" r="1.65305" stroke-width="0.5" stroke="black" fill="cyan"/>
  <circle cx="554.623" cy="614.976" r="1.61721" stroke-width="0.5" stroke="black" fill="black"/>
   </g>
   <g id="cell62">
  <circle cx="526.36" cy="444.015" r="8.41271" stroke-width="0.5" stroke="black" fill="cyan"/>
  <circle cx="526.36" cy="444.015" r="5.05167" stroke-width="0.5" stroke="black" fill="cyan"/>
   </g>
   <g id="cell63">
  <circle cx="582.65" cy="552.611" r="8.39618" stroke-width="0.5" stroke="black" fill="cyan"/>
  <circle cx="582.65" cy="552.611" r="5.04616" stroke-width="0.5" stroke="black" fill="cyan"/>
   </g>
   <g id="cell64">
  <circle cx="512.462" cy="633.821" r="8.18833" stroke-width="0.5" stroke="black" fill="cyan"/>
  <circle cx="512.462" cy="633.821" r="4.94921" stroke-width="0.5" stroke="black" fill="cyan"/>
   </g>
   <g id="cell65">
  <circle cx="534.091" cy="457.826" r="8.39523" stroke-width="0.5" stroke="black" fill="cyan"/>
  <circle cx="534.091" cy="457.826" r="5.04581" stroke-width="0.5" stroke="black" fill="cyan"/>
   </g>
   <g id="cell66">
  <circle cx="544.494" cy="527.515" r="8.25377" stroke-width="0.5" stroke="black" fill="cyan"/>
  <circle cx="544.494" cy="527.515" r="4.98209" stroke-width="0.5" stroke="black" fill="cyan"/>
   </g>
   <g id="cell67">
  <circle cx="354.816" cy="492.508" r="8.41271" stroke-width="0.5" stroke="black" fill="cyan"/>
  <circle cx="354.816" cy="492.508" r="5.05167" stroke-width="0.5" stroke="black" fill="cyan"/>
   </g>
   <g id="cell68">
  <circle cx="560.392" cy="556.197" r="8.41271" stroke-width="0.5" stroke="black" fill="cyan"/>
  <circle cx="560.392" cy="556.197" r="5.05167" stroke-width="0.5" stroke="black" fill="cyan"/>
   </g>
   <g id="cell69">
  <circle cx="436.767" cy="450.811" r="8.40953" stroke-width="0.5" stroke="black" fill="cyan"/>
  <circle cx="436.767" cy="450.811" r="5.05079" stroke-width="0.5" stroke="black" fill="cyan"/>
   </g>
   <g id="cell70">
  <circle cx="578.748" cy="478.158" r="7.7401" stroke-width="0.5" stroke="black" fill="cyan"/>
  <circle cx="578.748" cy="478.158" r="4.70142" stroke-width="0.5" stroke="black" fill="cyan"/>
   </g>
   <g id="cell71">
  <circle cx="382.577" cy="527.77" r="7.98507" stroke-width="0.5" stroke="black" fill="cyan"/>
  <circle cx="382.577" cy="527.77" r="4.85091" stroke-width="0.5" stroke="black" fill="cyan"/>
   </g>
   <g id="cell72">
  <circle cx="534.247" cy="509.536" r="8.41271" stroke-width="0.5" stroke="black" fill="cyan"/>
  <circle cx="534.247" cy="509.536" r="5.05167" stroke-width="0.5" stroke="black" fill="cyan"/>
   </g>
   <g id="cell129">
  <circle cx="420.615" cy="402.003" r="8.03527" stroke-width="0.5" stroke="black" fill="green"/>
  <circle cx="420.615" cy="402.003" r="4.86813" stroke-width="0.5" stroke="black" fill="green"/>
   </g>
   <g id="cell74">
  <circle cx="542.47" cy="444.235" r="8.41271" stroke-width="0.5" stroke="black" fill="cyan"/>
  <circle cx="542.47" cy="444.235" r="5.05167" stroke-width="0.5" stroke="black" fill="cyan"/>
   </g>
   <g id="cell75">
  <circle cx="443.647" cy="473.47" r="8.15921" stroke-width="0.5" stroke="black" fill="cyan"/>
  <circle cx="443.647" cy="473.47" r="4.93458" stroke-width="0.5" stroke="black" fill="cyan"/>
   </g>
   <g id="cell76">
  <circle cx="522.341" cy="384.293" r="8.39151" stroke-width="0.5" stroke="black" fill="magenta"/>
  <circle cx="522.341" cy="384.293" r="5.04457" stroke-width="0.5" stroke="black" fill="magenta"/>
   </g>
   <g id="cell77">
  <circle cx="493.991" cy="433.964" r="6.91871" stroke-width="0.5" stroke="black" fill="magenta"/>
  <circle cx="493.991" cy="433.964" r="4.20474" stroke-width="0.5" stroke="black" fill="magenta"/>
   </g>
   <g id="cell78">
  <circle cx="371.063" cy="465.671" r="8.40905" stroke-width="0.5" stroke="black" fill="magenta"/>
  <circle cx="371.063" cy="465.671" r="5.05064" stroke-width="0.5" stroke="black" fill="magenta"/>
   </g>
   <g id="cell79">
  <circle cx="501.624" cy="523.522" r="8.40884" stroke-width="0.5" stroke="black" fill="magenta"/>
  <circle cx="501.624" cy="523.522" r="5.05057" stroke-width="0.5" stroke="black" fill="magenta"/>
   </g>
   <g id="cell80">
  <circle cx="603.646" cy="485.859" r="8.40862" stroke-width="0.5" stroke="black" fill="green"/>
  <circle cx="603.646" cy="485.859" r="5.0505" stroke-width="0.5" stroke="black" fill="green"/>
   </g>
   <g id="cell81">
  <circle cx="430.121" cy="501.532" r="8.08622" stroke-width="0.5" stroke="black" fill="green"/>
  <circle cx="430.121" cy="501.532" r="4.89981" stroke-width="0.5" stroke="black" fill="green"/>
   </g>
   <g id="cell82">
  <circle cx="543.083" cy="496.656" r="8.40788" stroke-width="0.5" stroke="black" fill="magenta"/>
  <circle cx="543.083" cy="496.656" r="5.05027" stroke-width="0.5" stroke="black" fill="magenta"/>
   </g>
   <g id="cell130">
  <circle cx="574.741" cy="391.03" r="8.01277" stroke-width="0.5" stroke="black" fill="magenta"/>
  <circle cx="574.741" cy="391.03" r="4.85584" stroke-width="0.5" stroke="black" fill="magenta"/>
   </g>
   <g id="cell84">
  <circle cx="406.262" cy="481.542" r="8.32293" stroke-width="0.5" stroke="black" fill="green"/>
  <circle cx="406.262" cy="481.542" r="5.01573" stroke-width="0.5" stroke="black" fill="green"/>
   </g>
   <g id="cell140">
  <circle cx="527.595" cy="580.054" r="6.19427" stroke-width="0.5" stroke="black" fill="magenta"/>
  <circle cx="527.595" cy="580.054" r="3.82427" stroke-width="0.5" stroke="black" fill="magenta"/>
   </g>
   <g id="cell86">
  <circle cx="392.811" cy="565.5" r="8.32943" stroke-width="0.5" stroke="black" fill="magenta"/>
  <circle cx="392.811" cy="565.5" r="5.01871" stroke-width="0.5" stroke="black" fill="magenta"/>
   </g>
   <g id="cell87">
  <circle cx="436.813" cy="528.731" r="8.2692" stroke-width="0.5" stroke="black" fill="green"/>
  <circle cx="436.813" cy="528.731" r="4.99056" stroke-width="0.5" stroke="black" fill="green"/>
   </g>
   <g id="cell88">
  <circle cx="476.371" cy="611.48" r="8.40123" stroke-width="0.5" stroke="black" fill="green"/>
  <circle cx="476.371" cy="611.48" r="5.048" stroke-width="0.5" stroke="black" fill="green"/>
   </g>
   <g id="cell89">
  <circle cx="436.329" cy="487.271" r="8.37318" stroke-width="0.5" stroke="black" fill="green"/>
  <circle cx="436.329" cy="487.271" r="5.03773" stroke-width="0.5" stroke="black" fill="green"/>
   </g>
   <g id="cell90">
  <circle cx="584.017" cy="503.459" r="8.40022" stroke-width="0.5" stroke="black" fill="magenta"/>
  <circle cx="584.017" cy="503.459" r="5.04764" stroke-width="0.5" stroke="black" fill="magenta"/>
   </g>
   <g id="cell136">
  <circle cx="526.233" cy="539.083" r="7.61469" stroke-width="0.5" stroke="black" fill="magenta"/>
  <circle cx="526.233" cy="539.083" r="4.62762" stroke-width="0.5" stroke="black" fill="magenta"/>
   </g>
   <g id="cell92">
  <circle cx="553.717" cy="593.284" r="8.31892" stroke-width="0.5" stroke="black" fill="green"/>
  <circle cx="553.717" cy="593.284" r="5.01534" stroke-width="0.5" stroke="black" fill="green"/>
   </g>
   <g id="cell93">
  <circle cx="573.32" cy="526.287" r="7.9155" stroke-width="0.5" stroke="black" fill="cyan"/>
  <circle cx="573.32" cy="526.287" r="4.80609" stroke-width="0.5" stroke="black" fill="cyan"/>
   </g>
   <g id="cell94">
  <circle cx="544.465" cy="469.53" r="8.39523" stroke-width="0.5" stroke="black" fill="cyan"/>
  <circle cx="544.465" cy="469.53" r="5.04581" stroke-width="0.5" stroke="black" fill="cyan"/>
   </g>
   <g id="cell95">
  <circle cx="462.608" cy="535.736" r="8.39523" stroke-width="0.5" stroke="black" fill="magenta"/>
  <circle cx="462.608" cy="535.736" r="5.04581" stroke-width="0.5" stroke="black" fill="magenta"/>
   </g>
   <g id="cell96">
  <circle cx="535.302" cy="376.534" r="8.39151" stroke-width="0.5" stroke="black" fill="magenta"/>
  <circle cx="535.302" cy="376.534" r="5.04457" stroke-width="0.5" stroke="black" fill="magenta"/>
   </g>
   <g id="cell97">
  <circle cx="569.472" cy="507.257" r="8.3884" stroke-width="0.5" stroke="black" fill="magenta"/>
  <circle cx="569.472" cy="507.257" r="5.04343" stroke-width="0.5" stroke="black" fill="magenta"/>
   </g>
   <g id="cell98">
  <circle cx="408.05" cy="567.835" r="8.38454" stroke-width="0.5" stroke="black" fill="green"/>
  <circle cx="408.05" cy="567.835" r="5.04168" stroke-width="0.5" stroke="black" fill="green"/>
   </g>
   <g id="cell99">
  <circle cx="573.549" cy="492.584" r="8.38454" stroke-width="0.5" stroke="black" fill="magenta"/>
  <circle cx="573.549" cy="492.584" r="5.04168" stroke-width="0.5" stroke="black" fill="magenta"/>
   </g>
   <g id="cell100">
  <circle cx="569.73" cy="543.217" r="8.37459" stroke-width="0.5" stroke="black" fill="cyan"/>
  <circle cx="569.73" cy="543.217" r="5.03826" stroke-width="0.5" stroke="black" fill="cyan"/>
   </g>
   <g id="cell101">
  <circle cx="462.222" cy="628.922" r="8.3333" stroke-width="0.5" stroke="black" fill="magenta"/>
  <circle cx="462.222" cy="628.922" r="5.02109" stroke-width="0.5" stroke="black" fill="magenta"/>
   </g>
   <g id="cell102">
  <circle cx="445.791" cy="500.138" r="8.37318" stroke-width="0.5" stroke="black" fill="green"/>
  <circle cx="445.791" cy="500.138" r="5.03773" stroke-width="0.5" stroke="black" fill="green"/>
   </g>
   <g id="cell103">
  <circle cx="542.652" cy="604.613" r="8.36487" stroke-width="0.5" stroke="black" fill="green"/>
  <circle cx="542.652" cy="604.613" r="5.0343" stroke-width="0.5" stroke="black" fill="green"/>
   </g>
   <g id="cell104">
  <circle cx="554.024" cy="541.503" r="8.36972" stroke-width="0.5" stroke="black" fill="green"/>
  <circle cx="554.024" cy="541.503" r="5.03563" stroke-width="0.5" stroke="black" fill="green"/>
   </g>
   <g id="cell105">
  <circle cx="416.291" cy="493.967" r="8.36227" stroke-width="0.5" stroke="black" fill="green"/>
  <circle cx="416.291" cy="493.967" r="5.03279" stroke-width="0.5" stroke="black" fill="green"/>
   </g>
   <g id="cell106">
  <circle cx="639.272" cy="537.067" r="8.36458" stroke-width="0.5" stroke="black" fill="green"/>
  <circle cx="639.272" cy="537.067" r="5.03347" stroke-width="0.5" stroke="black" fill="green"/>
   </g>
   <g id="cell107">
  <circle cx="384.262" cy="512.001" r="8.35062" stroke-width="0.5" stroke="black" fill="cyan"/>
  <circle cx="384.262" cy="512.001" r="5.02745" stroke-width="0.5" stroke="black" fill="cyan"/>
   </g>
   <g id="cell108">
  <circle cx="459.669" cy="643.704" r="8.3333" stroke-width="0.5" stroke="black" fill="magenta"/>
  <circle cx="459.669" cy="643.704" r="5.02109" stroke-width="0.5" stroke="black" fill="magenta"/>
   </g>
   <g id="cell109">
  <circle cx="448.147" cy="634.101" r="8.3333" stroke-width="0.5" stroke="black" fill="magenta"/>
  <circle cx="448.147" cy="634.101" r="5.02109" stroke-width="0.5" stroke="black" fill="magenta"/>
   </g>
   <g id="cell110">
  <circle cx="537.68" cy="589.485" r="8.31892" stroke-width="0.5" stroke="black" fill="green"/>
  <circle cx="537.68" cy="589.485" r="5.01534" stroke-width="0.5" stroke="black" fill="green"/>
   </g>
   <g id="cell111">
  <circle cx="634.007" cy="552.052" r="8.31877" stroke-width="0.5" stroke="black" fill="green"/>
  <circle cx="634.007" cy="552.052" r="5.01492" stroke-width="0.5" stroke="black" fill="green"/>
   </g>
   <g id="cell112">
  <circle cx="381.706" cy="575.253" r="8.32943" stroke-width="0.5" stroke="black" fill="magenta"/>
  <circle cx="381.706" cy="575.253" r="5.01871" stroke-width="0.5" stroke="black" fill="magenta"/>
   </g>
   <g id="cell113">
  <circle cx="422.36" cy="479.377" r="8.32293" stroke-width="0.5" stroke="black" fill="green"/>
  <circle cx="422.36" cy="479.377" r="5.01573" stroke-width="0.5" stroke="black" fill="green"/>
   </g>
   <g id="cell114">
  <circle cx="492.517" cy="447.297" r="7.85246" stroke-width="0.5" stroke="black" fill="magenta"/>
  <circle cx="492.517" cy="447.297" r="4.77456" stroke-width="0.5" stroke="black" fill="magenta"/>
   </g>
   <g id="cell115">
  <circle cx="451.983" cy="524.498" r="8.29737" stroke-width="0.5" stroke="black" fill="green"/>
  <circle cx="451.983" cy="524.498" r="5.00399" stroke-width="0.5" stroke="black" fill="green"/>
   </g>
   <g id="cell116">
  <circle cx="369.949" cy="518.761" r="8.26148" stroke-width="0.5" stroke="black" fill="cyan"/>
  <circle cx="369.949" cy="518.761" r="4.98875" stroke-width="0.5" stroke="black" fill="cyan"/>
   </g>
   <g id="cell117">
  <circle cx="437.667" cy="513.437" r="3.21947" stroke-width="0.5" stroke="black" fill="green"/>
  <circle cx="437.667" cy="513.437" r="2.55265" stroke-width="0.5" stroke="black" fill="black"/>
   </g>
   <g id="cell118">
  <circle cx="528.725" cy="524.508" r="8.25377" stroke-width="0.5" stroke="black" fill="cyan"/>
  <circle cx="528.725" cy="524.508" r="4.98209" stroke-width="0.5" stroke="black" fill="cyan"/>
   </g>
   <g id="cell119">
  <circle cx="526.342" cy="631.068" r="6.77529" stroke-width="0.5" stroke="black" fill="green"/>
  <circle cx="526.342" cy="631.068" r="4.11622" stroke-width="0.5" stroke="black" fill="green"/>
   </g>
   <g id="cell121">
  <circle cx="390.465" cy="551.042" r="8.21838" stroke-width="0.5" stroke="black" fill="magenta"/>
  <circle cx="390.465" cy="551.042" r="4.96548" stroke-width="0.5" stroke="black" fill="magenta"/>
   </g>
   <g id="cell122">
  <circle cx="607.943" cy="470.556" r="8.20689" stroke-width="0.5" stroke="black" fill="cyan"/>
  <circle cx="607.943" cy="470.556" r="4.95867" stroke-width="0.5" stroke="black" fill="cyan"/>
   </g>
   <g id="cell123">
  <circle cx="500.968" cy="644.065" r="8.18833" stroke-width="0.5" stroke="black" fill="cyan"/>
  <circle cx="500.968" cy="644.065" r="4.94921" stroke-width="0.5" stroke="black" fill="cyan"/>
   </g>
   <g id="cell124">
  <circle cx="385.018" cy="590.31" r="8.18177" stroke-width="0.5" stroke="black" fill="green"/>
  <circle cx="385.018" cy="590.31" r="4.94584" stroke-width="0.5" stroke="black" fill="green"/>
   </g>
   <g id="cell125">
  <circle cx="449.995" cy="459.38" r="8.15921" stroke-width="0.5" stroke="black" fill="cyan"/>
  <circle cx="449.995" cy="459.38" r="4.93458" stroke-width="0.5" stroke="black" fill="cyan"/>
   </g>
   <g id="cell126">
  <circle cx="417.07" cy="509.589" r="8.08622" stroke-width="0.5" stroke="black" fill="green"/>
  <circle cx="417.07" cy="509.589" r="4.89981" stroke-width="0.5" stroke="black" fill="green"/>
   </g>
   <g id="cell127">
  <circle cx="409.018" cy="598.941" r="8.08613" stroke-width="0.5" stroke="black" fill="cyan"/>
  <circle cx="409.018" cy="598.941" r="4.8956" stroke-width="0.5" stroke="black" fill="cyan"/>
   </g>
   <g id="cell128">
  <circle cx="369.167" cy="534.761" r="7.98507" stroke-width="0.5" stroke="black" fill="cyan"/>
  <circle cx="369.167" cy="534.761" r="4.85091" stroke-width="0.5" stroke="black" fill="cyan"/>
   </g>
   <g id="cell131">
  <circle cx="583.85" cy="537.107" r="7.9155" stroke-width="0.5" stroke="black" fill="cyan"/>
  <circle cx="583.85" cy="537.107" r="4.80609" stroke-width="0.5" stroke="black" fill="cyan"/>
   </g>
   <g id="cell132">
  <circle cx="505.148" cy="441.08" r="7.85246" stroke-width="0.5" stroke="black" fill="magenta"/>
  <circle cx="505.148" cy="441.08" r="4.77456" stroke-width="0.5" stroke="black" fill="magenta"/>
   </g>
   <g id="cell133">
  <circle cx="533.149" cy="408.922" r="7.86286" stroke-width="0.5" stroke="black" fill="magenta"/>
  <circle cx="533.149" cy="408.922" r="4.77207" stroke-width="0.5" stroke="black" fill="magenta"/>
   </g>
   <g id="cell134">
  <circle cx="515.769" cy="582.306" r="6.91141" stroke-width="0.5" stroke="black" fill="magenta"/>
  <circle cx="515.769" cy="582.306" r="4.23543" stroke-width="0.5" stroke="black" fill="magenta"/>
   </g>
   <g id="cell135">
  <circle cx="564.926" cy="480.581" r="7.7401" stroke-width="0.5" stroke="black" fill="cyan"/>
  <circle cx="564.926" cy="480.581" r="4.70142" stroke-width="0.5" stroke="black" fill="cyan"/>
   </g>
   <g id="cell137">
  <circle cx="379.261" cy="477.379" r="7.46646" stroke-width="0.5" stroke="black" fill="magenta"/>
  <circle cx="379.261" cy="477.379" r="4.5391" stroke-width="0.5" stroke="black" fill="magenta"/>
   </g>
   <g id="cell138">
  <circle cx="524.243" cy="590.394" r="6.19427" stroke-width="0.5" stroke="black" fill="magenta"/>
  <circle cx="524.243" cy="590.394" r="3.82427" stroke-width="0.5" stroke="black" fill="magenta"/>
   </g>
   <g id="cell139">
  <circle cx="513.075" cy="608.766" r="7.10106" stroke-width="0.5" stroke="black" fill="green"/>
  <circle cx="513.075" cy="608.766" r="4.33015" stroke-width="0.5" stroke="black" fill="green"/>
   </g>
   <g id="cell142">
  <circle cx="585.719" cy="383.686" r="6.66848" stroke-width="0.5" stroke="black" fill="magenta"/>
  <circle cx="585.719" cy="383.686" r="4.07028" stroke-width="0.5" stroke="black" fill="magenta"/>
   </g>
   <g id="cell143">
  <circle cx="537.022" cy="624.045" r="6.77529" stroke-width="0.5" stroke="black" fill="green"/>
  <circle cx="537.022" cy="624.045" r="4.11622" stroke-width="0.5" stroke="black" fill="green"/>
   </g>
   <g id="cell144">
  <circle cx="380.628" cy="542.013" r="6.80881" stroke-width="0.5" stroke="black" fill="magenta"/>
  <circle cx="380.628" cy="542.013" r="4.10709" stroke-width="0.5" stroke="black" fill="magenta"/>
   </g>
   <g id="cell145">
  <circle cx="462.417" cy="486.234" r="6.75639" stroke-width="0.5" stroke="black" fill="magenta"/>
  <circle cx="462.417" cy="486.234" r="4.06813" stroke-width="0.5" stroke="black" fill="magenta"/>
   </g>
  </g>
 </g>
  <rect x="775" y="1035" width="200" height="10" stroke-width="2" stroke="rgb(255,255,255)" fill="rgb(0,0,0)"/>
  <text x="781.25" y="1028.75"
   font-family="Arial" font-size="25" fill="black" >
   200 &#956;m
  </text>
  <text x="25" y="1045"
   font-family="Arial" font-size="18.75" fill="black" >
   0 days, 0 hours, 0 minutes, and 30.6225 seconds
  </text>
  <rect x="0" y="70" width="1000" height="1000" stroke-width="2" stroke="rgb(0,0,0)" fill="none"/>
</svg>
