<?xml version="1.0" encoding="UTF-8" standalone="no"?>
<!-- Created with PhysiCell (http://PhysiCell.MathCancer.org/) -->
<svg 
 xmlns:dc="http://purl.org/dc/elements/1.1/" 
 xmlns:cc="http://creativecommons.org/ns#" 
 xmlns:rdf="http://www.w3.org/1999/02/22-rdf-syntax-ns#" 
 xmlns:svg="http://www.w3.org/2000/svg" 
 xmlns="http://www.w3.org/2000/svg" 
 version="1.1" 
 width="1000" 
 height="1070" 
 id="svg2">
  <rect x="0" y="0" width="1000" height="1070" stroke-width="2" stroke="white" fill="white"/>
  <text x="12.5" y="30"
   font-family="Arial" font-size="25" fill="black" >
   Current time: 1 days, 2 hours, and 30.00 minutes, z = 0.00 &#956;m
  </text>
  <text x="12.5" y="57.5"
   font-family="Arial" font-size="23.75" fill="black" >
   152 agents
  </text>
 <g id="tissue" 
    transform="translate(0,1070) scale(1,-1)">
  <g id="ECM">
  </g>
  <g id="cells">
   <g id="cell0">
  <circle cx="514.764" cy="528.725" r="8.41125" stroke-width="0.5" stroke="black" fill="magenta"/>
  <circle cx="514.764" cy="528.725" r="5.05129" stroke-width="0.5" stroke="black" fill="magenta"/>
   </g>
   <g id="cell147">
  <circle cx="420.194" cy="570.424" r="7.58535" stroke-width="0.5" stroke="black" fill="green"/>
  <circle cx="420.194" cy="570.424" r="4.61181" stroke-width="0.5" stroke="black" fill="green"/>
   </g>
   <g id="cell2">
  <circle cx="509.352" cy="595.047" r="8.1947" stroke-width="0.5" stroke="black" fill="magenta"/>
  <circle cx="509.352" cy="595.047" r="4.95246" stroke-width="0.5" stroke="black" fill="magenta"/>
   </g>
   <g id="cell3">
  <circle cx="538.362" cy="540.403" r="8.1218" stroke-width="0.5" stroke="black" fill="magenta"/>
  <circle cx="538.362" cy="540.403" r="4.91457" stroke-width="0.5" stroke="black" fill="magenta"/>
   </g>
   <g id="cell4">
  <circle cx="467.046" cy="440.389" r="8.4114" stroke-width="0.5" stroke="black" fill="magenta"/>
  <circle cx="467.046" cy="440.389" r="5.05134" stroke-width="0.5" stroke="black" fill="magenta"/>
   </g>
   <g id="cell5">
  <circle cx="465.527" cy="498.765" r="7.72056" stroke-width="0.5" stroke="black" fill="magenta"/>
  <circle cx="465.527" cy="498.765" r="4.69003" stroke-width="0.5" stroke="black" fill="magenta"/>
   </g>
   <g id="cell6">
  <circle cx="594.5" cy="513.016" r="8.40801" stroke-width="0.5" stroke="black" fill="magenta"/>
  <circle cx="594.5" cy="513.016" r="5.05031" stroke-width="0.5" stroke="black" fill="magenta"/>
   </g>
   <g id="cell7">
  <circle cx="511.66" cy="464.483" r="8.41271" stroke-width="0.5" stroke="black" fill="magenta"/>
  <circle cx="511.66" cy="464.483" r="5.05167" stroke-width="0.5" stroke="black" fill="magenta"/>
   </g>
   <g id="cell8">
  <circle cx="367.386" cy="549.777" r="7.75912" stroke-width="0.5" stroke="black" fill="magenta"/>
  <circle cx="367.386" cy="549.777" r="4.71248" stroke-width="0.5" stroke="black" fill="magenta"/>
   </g>
   <g id="cell9">
  <circle cx="463.872" cy="602.004" r="8.40774" stroke-width="0.5" stroke="black" fill="magenta"/>
  <circle cx="463.872" cy="602.004" r="5.05022" stroke-width="0.5" stroke="black" fill="magenta"/>
   </g>
   <g id="cell10">
  <circle cx="587.734" cy="396.556" r="7.76349" stroke-width="0.5" stroke="black" fill="magenta"/>
  <circle cx="587.734" cy="396.556" r="4.72637" stroke-width="0.5" stroke="black" fill="magenta"/>
   </g>
   <g id="cell11">
  <circle cx="589.748" cy="590.273" r="8.41271" stroke-width="0.5" stroke="black" fill="magenta"/>
  <circle cx="589.748" cy="590.273" r="5.05167" stroke-width="0.5" stroke="black" fill="magenta"/>
   </g>
   <g id="cell12">
  <circle cx="499.476" cy="583.781" r="8.41271" stroke-width="0.5" stroke="black" fill="magenta"/>
  <circle cx="499.476" cy="583.781" r="5.05167" stroke-width="0.5" stroke="black" fill="magenta"/>
   </g>
   <g id="cell13">
  <circle cx="379.171" cy="558.212" r="8.34115" stroke-width="0.5" stroke="black" fill="magenta"/>
  <circle cx="379.171" cy="558.212" r="5.02358" stroke-width="0.5" stroke="black" fill="magenta"/>
   </g>
   <g id="cell14">
  <circle cx="523.353" cy="399.191" r="8.21273" stroke-width="0.5" stroke="black" fill="magenta"/>
  <circle cx="523.353" cy="399.191" r="4.96162" stroke-width="0.5" stroke="black" fill="magenta"/>
   </g>
   <g id="cell15">
  <circle cx="393.904" cy="487.541" r="6.48797" stroke-width="0.5" stroke="black" fill="magenta"/>
  <circle cx="393.904" cy="487.541" r="3.93906" stroke-width="0.5" stroke="black" fill="magenta"/>
   </g>
   <g id="cell16">
  <circle cx="431.269" cy="412.144" r="8.41271" stroke-width="0.5" stroke="black" fill="magenta"/>
  <circle cx="431.269" cy="412.144" r="5.05167" stroke-width="0.5" stroke="black" fill="magenta"/>
   </g>
   <g id="cell17">
  <circle cx="588.867" cy="487.37" r="8.40215" stroke-width="0.5" stroke="black" fill="magenta"/>
  <circle cx="588.867" cy="487.37" r="5.04833" stroke-width="0.5" stroke="black" fill="magenta"/>
   </g>
   <g id="cell18">
  <circle cx="509.822" cy="392.795" r="8.41147" stroke-width="0.5" stroke="black" fill="magenta"/>
  <circle cx="509.822" cy="392.795" r="5.05136" stroke-width="0.5" stroke="black" fill="magenta"/>
   </g>
   <g id="cell19">
  <circle cx="449.591" cy="542.156" r="8.40614" stroke-width="0.5" stroke="black" fill="magenta"/>
  <circle cx="449.591" cy="542.156" r="5.0497" stroke-width="0.5" stroke="black" fill="magenta"/>
   </g>
   <g id="cell20">
  <circle cx="528.55" cy="423.282" r="8.41271" stroke-width="0.5" stroke="black" fill="magenta"/>
  <circle cx="528.55" cy="423.282" r="5.05167" stroke-width="0.5" stroke="black" fill="magenta"/>
   </g>
   <g id="cell141">
  <circle cx="481.64" cy="440.538" r="7.84174" stroke-width="0.5" stroke="black" fill="magenta"/>
  <circle cx="481.64" cy="440.538" r="4.76417" stroke-width="0.5" stroke="black" fill="magenta"/>
   </g>
   <g id="cell22">
  <circle cx="559.301" cy="495.488" r="8.40358" stroke-width="0.5" stroke="black" fill="magenta"/>
  <circle cx="559.301" cy="495.488" r="5.0489" stroke-width="0.5" stroke="black" fill="magenta"/>
   </g>
   <g id="cell23">
  <circle cx="534.96" cy="484.155" r="8.41271" stroke-width="0.5" stroke="black" fill="magenta"/>
  <circle cx="534.96" cy="484.155" r="5.05167" stroke-width="0.5" stroke="black" fill="magenta"/>
   </g>
   <g id="cell24">
  <circle cx="562.312" cy="382.297" r="8.41271" stroke-width="0.5" stroke="black" fill="magenta"/>
  <circle cx="562.312" cy="382.297" r="5.05167" stroke-width="0.5" stroke="black" fill="magenta"/>
   </g>
   <g id="cell25">
  <circle cx="652.972" cy="563.823" r="7.12554" stroke-width="0.5" stroke="black" fill="green"/>
  <circle cx="652.972" cy="563.823" r="4.33116" stroke-width="0.5" stroke="black" fill="green"/>
   </g>
   <g id="cell26">
  <circle cx="548.004" cy="402.35" r="8.41271" stroke-width="0.5" stroke="black" fill="green"/>
  <circle cx="548.004" cy="402.35" r="5.05167" stroke-width="0.5" stroke="black" fill="green"/>
   </g>
   <g id="cell27">
  <circle cx="457.446" cy="388.678" r="8.41271" stroke-width="0.5" stroke="black" fill="green"/>
  <circle cx="457.446" cy="388.678" r="5.05167" stroke-width="0.5" stroke="black" fill="green"/>
   </g>
   <g id="cell28">
  <circle cx="432.765" cy="547.322" r="8.41271" stroke-width="0.5" stroke="black" fill="green"/>
  <circle cx="432.765" cy="547.322" r="5.05167" stroke-width="0.5" stroke="black" fill="green"/>
   </g>
   <g id="cell29">
  <circle cx="466.214" cy="520.675" r="8.36996" stroke-width="0.5" stroke="black" fill="green"/>
  <circle cx="466.214" cy="520.675" r="5.036" stroke-width="0.5" stroke="black" fill="green"/>
   </g>
   <g id="cell30">
  <circle cx="478.728" cy="539.42" r="8.41271" stroke-width="0.5" stroke="black" fill="green"/>
  <circle cx="478.728" cy="539.42" r="5.05167" stroke-width="0.5" stroke="black" fill="green"/>
   </g>
   <g id="cell31">
  <circle cx="412.925" cy="538.079" r="8.41271" stroke-width="0.5" stroke="black" fill="green"/>
  <circle cx="412.925" cy="538.079" r="5.05167" stroke-width="0.5" stroke="black" fill="green"/>
   </g>
   <g id="cell32">
  <circle cx="425.644" cy="458.644" r="6.70871" stroke-width="0.5" stroke="black" fill="green"/>
  <circle cx="425.644" cy="458.644" r="4.03353" stroke-width="0.5" stroke="black" fill="green"/>
   </g>
   <g id="cell33">
  <circle cx="498.836" cy="413.385" r="8.40953" stroke-width="0.5" stroke="black" fill="green"/>
  <circle cx="498.836" cy="413.385" r="5.05079" stroke-width="0.5" stroke="black" fill="green"/>
   </g>
   <g id="cell34">
  <circle cx="392.094" cy="453.619" r="8.40873" stroke-width="0.5" stroke="black" fill="green"/>
  <circle cx="392.094" cy="453.619" r="5.05054" stroke-width="0.5" stroke="black" fill="green"/>
   </g>
   <g id="cell35">
  <circle cx="544.847" cy="554.315" r="8.39664" stroke-width="0.5" stroke="black" fill="green"/>
  <circle cx="544.847" cy="554.315" r="5.04633" stroke-width="0.5" stroke="black" fill="green"/>
   </g>
   <g id="cell36">
  <circle cx="395.104" cy="580.156" r="8.32788" stroke-width="0.5" stroke="black" fill="green"/>
  <circle cx="395.104" cy="580.156" r="5.01729" stroke-width="0.5" stroke="black" fill="green"/>
   </g>
   <g id="cell37">
  <circle cx="634.871" cy="460.618" r="1.60978" stroke-width="0.5" stroke="black" fill="green"/>
  <circle cx="634.871" cy="460.618" r="1.57926" stroke-width="0.5" stroke="black" fill="black"/>
   </g>
   <g id="cell38">
  <circle cx="523.572" cy="603.701" r="8.4065" stroke-width="0.5" stroke="black" fill="green"/>
  <circle cx="523.572" cy="603.701" r="5.04982" stroke-width="0.5" stroke="black" fill="green"/>
   </g>
   <g id="cell39">
  <circle cx="617.598" cy="494.754" r="8.41116" stroke-width="0.5" stroke="black" fill="green"/>
  <circle cx="617.598" cy="494.754" r="5.05127" stroke-width="0.5" stroke="black" fill="green"/>
   </g>
   <g id="cell40">
  <circle cx="487.454" cy="573.529" r="8.41271" stroke-width="0.5" stroke="black" fill="green"/>
  <circle cx="487.454" cy="573.529" r="5.05167" stroke-width="0.5" stroke="black" fill="green"/>
   </g>
   <g id="cell41">
  <circle cx="363.05" cy="479.284" r="8.41271" stroke-width="0.5" stroke="black" fill="green"/>
  <circle cx="363.05" cy="479.284" r="5.05167" stroke-width="0.5" stroke="black" fill="green"/>
   </g>
   <g id="cell42">
  <circle cx="452.793" cy="487.088" r="1.95627" stroke-width="0.5" stroke="black" fill="green"/>
  <circle cx="452.793" cy="487.088" r="1.86379" stroke-width="0.5" stroke="black" fill="black"/>
   </g>
   <g id="cell43">
  <circle cx="558.086" cy="445.575" r="8.41271" stroke-width="0.5" stroke="black" fill="green"/>
  <circle cx="558.086" cy="445.575" r="5.05167" stroke-width="0.5" stroke="black" fill="green"/>
   </g>
   <g id="cell44">
  <circle cx="486.387" cy="628.486" r="7.26964" stroke-width="0.5" stroke="black" fill="green"/>
  <circle cx="486.387" cy="628.486" r="4.41744" stroke-width="0.5" stroke="black" fill="green"/>
   </g>
   <g id="cell45">
  <circle cx="421.765" cy="556.82" r="6.74821" stroke-width="0.5" stroke="black" fill="green"/>
  <circle cx="421.765" cy="556.82" r="4.06551" stroke-width="0.5" stroke="black" fill="green"/>
   </g>
   <g id="cell46">
  <circle cx="520.296" cy="620.675" r="7.93007" stroke-width="0.5" stroke="black" fill="green"/>
  <circle cx="520.296" cy="620.675" r="4.81545" stroke-width="0.5" stroke="black" fill="green"/>
   </g>
   <g id="cell47">
  <circle cx="497.477" cy="508.578" r="8.41271" stroke-width="0.5" stroke="black" fill="green"/>
  <circle cx="497.477" cy="508.578" r="5.05167" stroke-width="0.5" stroke="black" fill="green"/>
   </g>
   <g id="cell48">
  <circle cx="566.405" cy="605.265" r="8.41271" stroke-width="0.5" stroke="black" fill="green"/>
  <circle cx="566.405" cy="605.265" r="5.05167" stroke-width="0.5" stroke="black" fill="green"/>
   </g>
   <g id="cell49">
  <circle cx="434.657" cy="397.05" r="8.27497" stroke-width="0.5" stroke="black" fill="green"/>
  <circle cx="434.657" cy="397.05" r="4.99242" stroke-width="0.5" stroke="black" fill="green"/>
   </g>
   <g id="cell50">
  <circle cx="510.511" cy="514.951" r="7.24243" stroke-width="0.5" stroke="black" fill="cyan"/>
  <circle cx="510.511" cy="514.951" r="4.39934" stroke-width="0.5" stroke="black" fill="cyan"/>
   </g>
   <g id="cell51">
  <circle cx="386.237" cy="604.125" r="7.39335" stroke-width="0.5" stroke="black" fill="cyan"/>
  <circle cx="386.237" cy="604.125" r="4.50712" stroke-width="0.5" stroke="black" fill="cyan"/>
   </g>
   <g id="cell120">
  <circle cx="419.659" cy="610.661" r="8.35062" stroke-width="0.5" stroke="black" fill="cyan"/>
  <circle cx="419.659" cy="610.661" r="5.02745" stroke-width="0.5" stroke="black" fill="cyan"/>
   </g>
   <g id="cell53">
  <circle cx="571.08" cy="436.157" r="8.41271" stroke-width="0.5" stroke="black" fill="cyan"/>
  <circle cx="571.08" cy="436.157" r="5.05167" stroke-width="0.5" stroke="black" fill="cyan"/>
   </g>
   <g id="cell54">
  <circle cx="481.616" cy="426.269" r="7.59183" stroke-width="0.5" stroke="black" fill="cyan"/>
  <circle cx="481.616" cy="426.269" r="4.61399" stroke-width="0.5" stroke="black" fill="cyan"/>
   </g>
   <g id="cell55">
  <circle cx="525.586" cy="471.487" r="8.41271" stroke-width="0.5" stroke="black" fill="cyan"/>
  <circle cx="525.586" cy="471.487" r="5.05167" stroke-width="0.5" stroke="black" fill="cyan"/>
   </g>
   <g id="cell56">
  <circle cx="615.728" cy="522.513" r="8.41271" stroke-width="0.5" stroke="black" fill="cyan"/>
  <circle cx="615.728" cy="522.513" r="5.05167" stroke-width="0.5" stroke="black" fill="cyan"/>
   </g>
   <g id="cell57">
  <circle cx="418.49" cy="626.516" r="8.35062" stroke-width="0.5" stroke="black" fill="cyan"/>
  <circle cx="418.49" cy="626.516" r="5.02745" stroke-width="0.5" stroke="black" fill="cyan"/>
   </g>
   <g id="cell58">
  <circle cx="550.403" cy="482.602" r="8.41271" stroke-width="0.5" stroke="black" fill="cyan"/>
  <circle cx="550.403" cy="482.602" r="5.05167" stroke-width="0.5" stroke="black" fill="cyan"/>
   </g>
   <g id="cell59">
  <circle cx="385.16" cy="439.177" r="8.41271" stroke-width="0.5" stroke="black" fill="cyan"/>
  <circle cx="385.16" cy="439.177" r="5.05167" stroke-width="0.5" stroke="black" fill="cyan"/>
   </g>
   <g id="cell60">
  <circle cx="594.612" cy="472.937" r="8.33699" stroke-width="0.5" stroke="black" fill="cyan"/>
  <circle cx="594.612" cy="472.937" r="5.02141" stroke-width="0.5" stroke="black" fill="cyan"/>
   </g>
   <g id="cell155">
  <circle cx="521.175" cy="590.49" r="6.41624" stroke-width="0.5" stroke="black" fill="magenta"/>
  <circle cx="521.175" cy="590.49" r="3.94385" stroke-width="0.5" stroke="black" fill="magenta"/>
   </g>
   <g id="cell62">
  <circle cx="526.174" cy="441.394" r="8.41271" stroke-width="0.5" stroke="black" fill="cyan"/>
  <circle cx="526.174" cy="441.394" r="5.05167" stroke-width="0.5" stroke="black" fill="cyan"/>
   </g>
   <g id="cell63">
  <circle cx="582.28" cy="552.312" r="8.4065" stroke-width="0.5" stroke="black" fill="cyan"/>
  <circle cx="582.28" cy="552.312" r="5.04982" stroke-width="0.5" stroke="black" fill="cyan"/>
   </g>
   <g id="cell64">
  <circle cx="512.148" cy="633.976" r="8.33026" stroke-width="0.5" stroke="black" fill="cyan"/>
  <circle cx="512.148" cy="633.976" r="5.01837" stroke-width="0.5" stroke="black" fill="cyan"/>
   </g>
   <g id="cell65">
  <circle cx="532.123" cy="456.583" r="8.40614" stroke-width="0.5" stroke="black" fill="cyan"/>
  <circle cx="532.123" cy="456.583" r="5.0497" stroke-width="0.5" stroke="black" fill="cyan"/>
   </g>
   <g id="cell66">
  <circle cx="546.122" cy="527.132" r="8.35404" stroke-width="0.5" stroke="black" fill="cyan"/>
  <circle cx="546.122" cy="527.132" r="5.02894" stroke-width="0.5" stroke="black" fill="cyan"/>
   </g>
   <g id="cell67">
  <circle cx="354.6" cy="492.822" r="8.41271" stroke-width="0.5" stroke="black" fill="cyan"/>
  <circle cx="354.6" cy="492.822" r="5.05167" stroke-width="0.5" stroke="black" fill="cyan"/>
   </g>
   <g id="cell68">
  <circle cx="560.865" cy="555.461" r="8.41271" stroke-width="0.5" stroke="black" fill="cyan"/>
  <circle cx="560.865" cy="555.461" r="5.05167" stroke-width="0.5" stroke="black" fill="cyan"/>
   </g>
   <g id="cell69">
  <circle cx="437.113" cy="450.199" r="8.41151" stroke-width="0.5" stroke="black" fill="cyan"/>
  <circle cx="437.113" cy="450.199" r="5.05137" stroke-width="0.5" stroke="black" fill="cyan"/>
   </g>
   <g id="cell70">
  <circle cx="579.417" cy="475.595" r="8.16806" stroke-width="0.5" stroke="black" fill="cyan"/>
  <circle cx="579.417" cy="475.595" r="4.93877" stroke-width="0.5" stroke="black" fill="cyan"/>
   </g>
   <g id="cell71">
  <circle cx="379.693" cy="529.005" r="7.01016" stroke-width="0.5" stroke="black" fill="cyan"/>
  <circle cx="379.693" cy="529.005" r="4.2734" stroke-width="0.5" stroke="black" fill="cyan"/>
   </g>
   <g id="cell72">
  <circle cx="537.924" cy="510.946" r="8.41271" stroke-width="0.5" stroke="black" fill="cyan"/>
  <circle cx="537.924" cy="510.946" r="5.05167" stroke-width="0.5" stroke="black" fill="cyan"/>
   </g>
   <g id="cell129">
  <circle cx="419.671" cy="401.907" r="8.27497" stroke-width="0.5" stroke="black" fill="green"/>
  <circle cx="419.671" cy="401.907" r="4.99242" stroke-width="0.5" stroke="black" fill="green"/>
   </g>
   <g id="cell74">
  <circle cx="542.076" cy="443.964" r="8.41271" stroke-width="0.5" stroke="black" fill="cyan"/>
  <circle cx="542.076" cy="443.964" r="5.05167" stroke-width="0.5" stroke="black" fill="cyan"/>
   </g>
   <g id="cell75">
  <circle cx="445.7" cy="473.823" r="8.31971" stroke-width="0.5" stroke="black" fill="cyan"/>
  <circle cx="445.7" cy="473.823" r="5.01367" stroke-width="0.5" stroke="black" fill="cyan"/>
   </g>
   <g id="cell76">
  <circle cx="522.324" cy="384.268" r="8.40474" stroke-width="0.5" stroke="black" fill="magenta"/>
  <circle cx="522.324" cy="384.268" r="5.04928" stroke-width="0.5" stroke="black" fill="magenta"/>
   </g>
   <g id="cell77">
  <circle cx="493.896" cy="433.515" r="7.84174" stroke-width="0.5" stroke="black" fill="magenta"/>
  <circle cx="493.896" cy="433.515" r="4.76417" stroke-width="0.5" stroke="black" fill="magenta"/>
   </g>
   <g id="cell78">
  <circle cx="370.064" cy="465.3" r="8.41133" stroke-width="0.5" stroke="black" fill="magenta"/>
  <circle cx="370.064" cy="465.3" r="5.05132" stroke-width="0.5" stroke="black" fill="magenta"/>
   </g>
   <g id="cell79">
  <circle cx="499.905" cy="524.382" r="8.41125" stroke-width="0.5" stroke="black" fill="magenta"/>
  <circle cx="499.905" cy="524.382" r="5.05129" stroke-width="0.5" stroke="black" fill="magenta"/>
   </g>
   <g id="cell80">
  <circle cx="604.482" cy="485.43" r="8.41116" stroke-width="0.5" stroke="black" fill="green"/>
  <circle cx="604.482" cy="485.43" r="5.05127" stroke-width="0.5" stroke="black" fill="green"/>
   </g>
   <g id="cell81">
  <circle cx="430.234" cy="502.028" r="8.29344" stroke-width="0.5" stroke="black" fill="green"/>
  <circle cx="430.234" cy="502.028" r="5.00259" stroke-width="0.5" stroke="black" fill="green"/>
   </g>
   <g id="cell82">
  <circle cx="543.993" cy="496.573" r="8.41088" stroke-width="0.5" stroke="black" fill="magenta"/>
  <circle cx="543.993" cy="496.573" r="5.05119" stroke-width="0.5" stroke="black" fill="magenta"/>
   </g>
   <g id="cell130">
  <circle cx="574.304" cy="391.306" r="8.26685" stroke-width="0.5" stroke="black" fill="magenta"/>
  <circle cx="574.304" cy="391.306" r="4.98849" stroke-width="0.5" stroke="black" fill="magenta"/>
   </g>
   <g id="cell84">
  <circle cx="406.098" cy="481.396" r="8.37934" stroke-width="0.5" stroke="black" fill="green"/>
  <circle cx="406.098" cy="481.396" r="5.03982" stroke-width="0.5" stroke="black" fill="green"/>
   </g>
   <g id="cell140">
  <circle cx="528.194" cy="580.268" r="7.66121" stroke-width="0.5" stroke="black" fill="magenta"/>
  <circle cx="528.194" cy="580.268" r="4.68117" stroke-width="0.5" stroke="black" fill="magenta"/>
   </g>
   <g id="cell86">
  <circle cx="392.501" cy="565.037" r="8.38173" stroke-width="0.5" stroke="black" fill="magenta"/>
  <circle cx="392.501" cy="565.037" r="5.04079" stroke-width="0.5" stroke="black" fill="magenta"/>
   </g>
   <g id="cell87">
  <circle cx="434.009" cy="520.61" r="7.29641" stroke-width="0.5" stroke="black" fill="green"/>
  <circle cx="434.009" cy="520.61" r="4.44143" stroke-width="0.5" stroke="black" fill="green"/>
   </g>
   <g id="cell88">
  <circle cx="476.587" cy="611.006" r="8.40839" stroke-width="0.5" stroke="black" fill="green"/>
  <circle cx="476.587" cy="611.006" r="5.05043" stroke-width="0.5" stroke="black" fill="green"/>
   </g>
   <g id="cell89">
  <circle cx="436.552" cy="487.797" r="8.3979" stroke-width="0.5" stroke="black" fill="green"/>
  <circle cx="436.552" cy="487.797" r="5.04701" stroke-width="0.5" stroke="black" fill="green"/>
   </g>
   <g id="cell90">
  <circle cx="580.656" cy="511.341" r="7.08308" stroke-width="0.5" stroke="black" fill="magenta"/>
  <circle cx="580.656" cy="511.341" r="4.29772" stroke-width="0.5" stroke="black" fill="magenta"/>
   </g>
   <g id="cell136">
  <circle cx="523.605" cy="540.927" r="8.1218" stroke-width="0.5" stroke="black" fill="magenta"/>
  <circle cx="523.605" cy="540.927" r="4.91457" stroke-width="0.5" stroke="black" fill="magenta"/>
   </g>
   <g id="cell92">
  <circle cx="554.705" cy="594.547" r="8.37782" stroke-width="0.5" stroke="black" fill="green"/>
  <circle cx="554.705" cy="594.547" r="5.03966" stroke-width="0.5" stroke="black" fill="green"/>
   </g>
   <g id="cell93">
  <circle cx="572.915" cy="526.119" r="8.23205" stroke-width="0.5" stroke="black" fill="cyan"/>
  <circle cx="572.915" cy="526.119" r="4.97266" stroke-width="0.5" stroke="black" fill="cyan"/>
   </g>
   <g id="cell94">
  <circle cx="541.288" cy="469.724" r="8.40614" stroke-width="0.5" stroke="black" fill="cyan"/>
  <circle cx="541.288" cy="469.724" r="5.0497" stroke-width="0.5" stroke="black" fill="cyan"/>
   </g>
   <g id="cell95">
  <circle cx="463.499" cy="535.999" r="8.40614" stroke-width="0.5" stroke="black" fill="magenta"/>
  <circle cx="463.499" cy="535.999" r="5.0497" stroke-width="0.5" stroke="black" fill="magenta"/>
   </g>
   <g id="cell96">
  <circle cx="535.32" cy="376.523" r="8.40474" stroke-width="0.5" stroke="black" fill="magenta"/>
  <circle cx="535.32" cy="376.523" r="5.04928" stroke-width="0.5" stroke="black" fill="magenta"/>
   </g>
   <g id="cell97">
  <circle cx="567.439" cy="507.974" r="8.40358" stroke-width="0.5" stroke="black" fill="magenta"/>
  <circle cx="567.439" cy="507.974" r="5.0489" stroke-width="0.5" stroke="black" fill="magenta"/>
   </g>
   <g id="cell98">
  <circle cx="407.031" cy="565.145" r="7.58535" stroke-width="0.5" stroke="black" fill="green"/>
  <circle cx="407.031" cy="565.145" r="4.61181" stroke-width="0.5" stroke="black" fill="green"/>
   </g>
   <g id="cell99">
  <circle cx="575.03" cy="494.695" r="8.40215" stroke-width="0.5" stroke="black" fill="magenta"/>
  <circle cx="575.03" cy="494.695" r="5.04833" stroke-width="0.5" stroke="black" fill="magenta"/>
   </g>
   <g id="cell100">
  <circle cx="569.82" cy="542.084" r="8.39843" stroke-width="0.5" stroke="black" fill="cyan"/>
  <circle cx="569.82" cy="542.084" r="5.04718" stroke-width="0.5" stroke="black" fill="cyan"/>
   </g>
   <g id="cell101">
  <circle cx="458.968" cy="628.518" r="8.38314" stroke-width="0.5" stroke="black" fill="magenta"/>
  <circle cx="458.968" cy="628.518" r="5.04155" stroke-width="0.5" stroke="black" fill="magenta"/>
   </g>
   <g id="cell102">
  <circle cx="446.219" cy="500.098" r="8.3979" stroke-width="0.5" stroke="black" fill="green"/>
  <circle cx="446.219" cy="500.098" r="5.04701" stroke-width="0.5" stroke="black" fill="green"/>
   </g>
   <g id="cell103">
  <circle cx="540.926" cy="602.762" r="8.39482" stroke-width="0.5" stroke="black" fill="green"/>
  <circle cx="540.926" cy="602.762" r="5.04588" stroke-width="0.5" stroke="black" fill="green"/>
   </g>
   <g id="cell104">
  <circle cx="553.766" cy="541.109" r="8.39664" stroke-width="0.5" stroke="black" fill="green"/>
  <circle cx="553.766" cy="541.109" r="5.04633" stroke-width="0.5" stroke="black" fill="green"/>
   </g>
   <g id="cell105">
  <circle cx="416.148" cy="494.371" r="8.39387" stroke-width="0.5" stroke="black" fill="green"/>
  <circle cx="416.148" cy="494.371" r="5.0454" stroke-width="0.5" stroke="black" fill="green"/>
   </g>
   <g id="cell106">
  <circle cx="639.214" cy="537.675" r="8.39473" stroke-width="0.5" stroke="black" fill="green"/>
  <circle cx="639.214" cy="537.675" r="5.04562" stroke-width="0.5" stroke="black" fill="green"/>
   </g>
   <g id="cell107">
  <circle cx="383.977" cy="513.726" r="8.38957" stroke-width="0.5" stroke="black" fill="cyan"/>
  <circle cx="383.977" cy="513.726" r="5.04365" stroke-width="0.5" stroke="black" fill="cyan"/>
   </g>
   <g id="cell108">
  <circle cx="458.938" cy="643.606" r="8.38314" stroke-width="0.5" stroke="black" fill="magenta"/>
  <circle cx="458.938" cy="643.606" r="5.04155" stroke-width="0.5" stroke="black" fill="magenta"/>
   </g>
   <g id="cell109">
  <circle cx="445.907" cy="635.969" r="8.38314" stroke-width="0.5" stroke="black" fill="magenta"/>
  <circle cx="445.907" cy="635.969" r="5.04155" stroke-width="0.5" stroke="black" fill="magenta"/>
   </g>
   <g id="cell110">
  <circle cx="542.644" cy="584.358" r="8.37782" stroke-width="0.5" stroke="black" fill="green"/>
  <circle cx="542.644" cy="584.358" r="5.03966" stroke-width="0.5" stroke="black" fill="green"/>
   </g>
   <g id="cell111">
  <circle cx="629.732" cy="550.507" r="8.37778" stroke-width="0.5" stroke="black" fill="green"/>
  <circle cx="629.732" cy="550.507" r="5.03954" stroke-width="0.5" stroke="black" fill="green"/>
   </g>
   <g id="cell112">
  <circle cx="380.572" cy="573.896" r="8.38173" stroke-width="0.5" stroke="black" fill="magenta"/>
  <circle cx="380.572" cy="573.896" r="5.04079" stroke-width="0.5" stroke="black" fill="magenta"/>
   </g>
   <g id="cell113">
  <circle cx="421.57" cy="479.835" r="8.37934" stroke-width="0.5" stroke="black" fill="green"/>
  <circle cx="421.57" cy="479.835" r="5.03982" stroke-width="0.5" stroke="black" fill="green"/>
   </g>
   <g id="cell114">
  <circle cx="494.009" cy="447.956" r="8.20997" stroke-width="0.5" stroke="black" fill="magenta"/>
  <circle cx="494.009" cy="447.956" r="4.96286" stroke-width="0.5" stroke="black" fill="magenta"/>
   </g>
   <g id="cell115">
  <circle cx="451.232" cy="526.531" r="8.36996" stroke-width="0.5" stroke="black" fill="green"/>
  <circle cx="451.232" cy="526.531" r="5.036" stroke-width="0.5" stroke="black" fill="green"/>
   </g>
   <g id="cell116">
  <circle cx="368.969" cy="519.085" r="8.35681" stroke-width="0.5" stroke="black" fill="cyan"/>
  <circle cx="368.969" cy="519.085" r="5.03106" stroke-width="0.5" stroke="black" fill="cyan"/>
   </g>
   <g id="cell117">
  <circle cx="437.873" cy="513.033" r="1.7212" stroke-width="0.5" stroke="black" fill="green"/>
  <circle cx="437.873" cy="513.033" r="1.67373" stroke-width="0.5" stroke="black" fill="black"/>
   </g>
   <g id="cell118">
  <circle cx="530.377" cy="527.448" r="8.35404" stroke-width="0.5" stroke="black" fill="cyan"/>
  <circle cx="530.377" cy="527.448" r="5.02894" stroke-width="0.5" stroke="black" fill="cyan"/>
   </g>
   <g id="cell119">
  <circle cx="527.433" cy="633.795" r="7.77826" stroke-width="0.5" stroke="black" fill="green"/>
  <circle cx="527.433" cy="633.795" r="4.72978" stroke-width="0.5" stroke="black" fill="green"/>
   </g>
   <g id="cell121">
  <circle cx="391.932" cy="550.16" r="8.34115" stroke-width="0.5" stroke="black" fill="magenta"/>
  <circle cx="391.932" cy="550.16" r="5.02358" stroke-width="0.5" stroke="black" fill="magenta"/>
   </g>
   <g id="cell122">
  <circle cx="610.109" cy="470.418" r="8.33699" stroke-width="0.5" stroke="black" fill="cyan"/>
  <circle cx="610.109" cy="470.418" r="5.02141" stroke-width="0.5" stroke="black" fill="cyan"/>
   </g>
   <g id="cell123">
  <circle cx="500.352" cy="644.608" r="8.33026" stroke-width="0.5" stroke="black" fill="cyan"/>
  <circle cx="500.352" cy="644.608" r="5.01837" stroke-width="0.5" stroke="black" fill="cyan"/>
   </g>
   <g id="cell124">
  <circle cx="382.579" cy="589.544" r="8.32788" stroke-width="0.5" stroke="black" fill="green"/>
  <circle cx="382.579" cy="589.544" r="5.01729" stroke-width="0.5" stroke="black" fill="green"/>
   </g>
   <g id="cell125">
  <circle cx="450.423" cy="458.807" r="8.31971" stroke-width="0.5" stroke="black" fill="cyan"/>
  <circle cx="450.423" cy="458.807" r="5.01367" stroke-width="0.5" stroke="black" fill="cyan"/>
   </g>
   <g id="cell126">
  <circle cx="416.678" cy="510.078" r="8.29344" stroke-width="0.5" stroke="black" fill="green"/>
  <circle cx="416.678" cy="510.078" r="5.00259" stroke-width="0.5" stroke="black" fill="green"/>
   </g>
   <g id="cell127">
  <circle cx="412.628" cy="596.458" r="8.29331" stroke-width="0.5" stroke="black" fill="cyan"/>
  <circle cx="412.628" cy="596.458" r="5.0012" stroke-width="0.5" stroke="black" fill="cyan"/>
   </g>
   <g id="cell128">
  <circle cx="366.699" cy="534.943" r="8.25757" stroke-width="0.5" stroke="black" fill="cyan"/>
  <circle cx="366.699" cy="534.943" r="4.98722" stroke-width="0.5" stroke="black" fill="cyan"/>
   </g>
   <g id="cell131">
  <circle cx="584.652" cy="536.65" r="8.23205" stroke-width="0.5" stroke="black" fill="cyan"/>
  <circle cx="584.652" cy="536.65" r="4.97266" stroke-width="0.5" stroke="black" fill="cyan"/>
   </g>
   <g id="cell132">
  <circle cx="506.673" cy="440.282" r="8.20997" stroke-width="0.5" stroke="black" fill="magenta"/>
  <circle cx="506.673" cy="440.282" r="4.96286" stroke-width="0.5" stroke="black" fill="magenta"/>
   </g>
   <g id="cell133">
  <circle cx="534.176" cy="409.29" r="8.21273" stroke-width="0.5" stroke="black" fill="magenta"/>
  <circle cx="534.176" cy="409.29" r="4.96162" stroke-width="0.5" stroke="black" fill="magenta"/>
   </g>
   <g id="cell134">
  <circle cx="513.745" cy="580.511" r="7.88183" stroke-width="0.5" stroke="black" fill="magenta"/>
  <circle cx="513.745" cy="580.511" r="4.79489" stroke-width="0.5" stroke="black" fill="magenta"/>
   </g>
   <g id="cell135">
  <circle cx="565.857" cy="481.991" r="8.16806" stroke-width="0.5" stroke="black" fill="cyan"/>
  <circle cx="565.857" cy="481.991" r="4.93877" stroke-width="0.5" stroke="black" fill="cyan"/>
   </g>
   <g id="cell137">
  <circle cx="378.162" cy="477.77" r="8.06592" stroke-width="0.5" stroke="black" fill="magenta"/>
  <circle cx="378.162" cy="477.77" r="4.88494" stroke-width="0.5" stroke="black" fill="magenta"/>
   </g>
   <g id="cell138">
  <circle cx="532.065" cy="592.603" r="6.41624" stroke-width="0.5" stroke="black" fill="magenta"/>
  <circle cx="532.065" cy="592.603" r="3.94385" stroke-width="0.5" stroke="black" fill="magenta"/>
   </g>
   <g id="cell139">
  <circle cx="509.551" cy="610.081" r="7.93007" stroke-width="0.5" stroke="black" fill="green"/>
  <circle cx="509.551" cy="610.081" r="4.81545" stroke-width="0.5" stroke="black" fill="green"/>
   </g>
   <g id="cell142">
  <circle cx="585.887" cy="382.711" r="7.76349" stroke-width="0.5" stroke="black" fill="magenta"/>
  <circle cx="585.887" cy="382.711" r="4.72637" stroke-width="0.5" stroke="black" fill="magenta"/>
   </g>
   <g id="cell143">
  <circle cx="537.748" cy="623.258" r="7.77826" stroke-width="0.5" stroke="black" fill="green"/>
  <circle cx="537.748" cy="623.258" r="4.72978" stroke-width="0.5" stroke="black" fill="green"/>
   </g>
   <g id="cell144">
  <circle cx="379.432" cy="543.006" r="7.75912" stroke-width="0.5" stroke="black" fill="magenta"/>
  <circle cx="379.432" cy="543.006" r="4.71248" stroke-width="0.5" stroke="black" fill="magenta"/>
   </g>
   <g id="cell145">
  <circle cx="461.513" cy="485.465" r="7.72056" stroke-width="0.5" stroke="black" fill="magenta"/>
  <circle cx="461.513" cy="485.465" r="4.69003" stroke-width="0.5" stroke="black" fill="magenta"/>
   </g>
   <g id="cell146">
  <circle cx="467.276" cy="425.596" r="7.59183" stroke-width="0.5" stroke="black" fill="cyan"/>
  <circle cx="467.276" cy="425.596" r="4.61399" stroke-width="0.5" stroke="black" fill="cyan"/>
   </g>
   <g id="cell148">
  <circle cx="400.221" cy="604.627" r="7.39335" stroke-width="0.5" stroke="black" fill="cyan"/>
  <circle cx="400.221" cy="604.627" r="4.50712" stroke-width="0.5" stroke="black" fill="cyan"/>
   </g>
   <g id="cell149">
  <circle cx="438.09" cy="533.591" r="7.29641" stroke-width="0.5" stroke="black" fill="green"/>
  <circle cx="438.09" cy="533.591" r="4.44143" stroke-width="0.5" stroke="black" fill="green"/>
   </g>
   <g id="cell150">
  <circle cx="473.014" cy="625.425" r="7.26964" stroke-width="0.5" stroke="black" fill="green"/>
  <circle cx="473.014" cy="625.425" r="4.41744" stroke-width="0.5" stroke="black" fill="green"/>
   </g>
   <g id="cell151">
  <circle cx="523.733" cy="514.636" r="7.24243" stroke-width="0.5" stroke="black" fill="cyan"/>
  <circle cx="523.733" cy="514.636" r="4.39934" stroke-width="0.5" stroke="black" fill="cyan"/>
   </g>
   <g id="cell152">
  <circle cx="644.062" cy="553.647" r="7.12554" stroke-width="0.5" stroke="black" fill="green"/>
  <circle cx="644.062" cy="553.647" r="4.33116" stroke-width="0.5" stroke="black" fill="green"/>
   </g>
   <g id="cell153">
  <circle cx="392.424" cy="525.663" r="7.01016" stroke-width="0.5" stroke="black" fill="cyan"/>
  <circle cx="392.424" cy="525.663" r="4.2734" stroke-width="0.5" stroke="black" fill="cyan"/>
   </g>
   <g id="cell154">
  <circle cx="587.623" cy="500.935" r="7.08308" stroke-width="0.5" stroke="black" fill="magenta"/>
  <circle cx="587.623" cy="500.935" r="4.29772" stroke-width="0.5" stroke="black" fill="magenta"/>
   </g>
   <g id="cell156">
  <circle cx="409.824" cy="552.001" r="6.74821" stroke-width="0.5" stroke="black" fill="green"/>
  <circle cx="409.824" cy="552.001" r="4.06551" stroke-width="0.5" stroke="black" fill="green"/>
   </g>
   <g id="cell157">
  <circle cx="391.135" cy="476.29" r="6.48797" stroke-width="0.5" stroke="black" fill="magenta"/>
  <circle cx="391.135" cy="476.29" r="3.93906" stroke-width="0.5" stroke="black" fill="magenta"/>
   </g>
   <g id="cell158">
  <circle cx="433.305" cy="475.934" r="5.34935" stroke-width="0.5" stroke="black" fill="green"/>
  <circle cx="433.305" cy="475.934" r="3.21862" stroke-width="0.5" stroke="black" fill="green"/>
   </g>
   <g id="cell159">
  <circle cx="433.465" cy="466.39" r="5.34935" stroke-width="0.5" stroke="black" fill="green"/>
  <circle cx="433.465" cy="466.39" r="3.21862" stroke-width="0.5" stroke="black" fill="green"/>
   </g>
  </g>
 </g>
  <rect x="775" y="1035" width="200" height="10" stroke-width="2" stroke="rgb(255,255,255)" fill="rgb(0,0,0)"/>
  <text x="781.25" y="1028.75"
   font-family="Arial" font-size="25" fill="black" >
   200 &#956;m
  </text>
  <text x="25" y="1045"
   font-family="Arial" font-size="18.75" fill="black" >
   0 days, 0 hours, 0 minutes, and 35.2341 seconds
  </text>
  <rect x="0" y="70" width="1000" height="1000" stroke-width="2" stroke="rgb(0,0,0)" fill="none"/>
</svg>
