<?xml version="1.0" encoding="UTF-8" standalone="no"?>
<!-- Created with PhysiCell (http://PhysiCell.MathCancer.org/) -->
<svg 
 xmlns:dc="http://purl.org/dc/elements/1.1/" 
 xmlns:cc="http://creativecommons.org/ns#" 
 xmlns:rdf="http://www.w3.org/1999/02/22-rdf-syntax-ns#" 
 xmlns:svg="http://www.w3.org/2000/svg" 
 xmlns="http://www.w3.org/2000/svg" 
 version="1.1" 
 width="1000" 
 height="1070" 
 id="svg2">
  <rect x="0" y="0" width="1000" height="1070" stroke-width="2" stroke="white" fill="white"/>
  <text x="12.5" y="30"
   font-family="Arial" font-size="25" fill="black" >
   Current time: 1 days, 0 hours, and 0.00 minutes, z = 0.00 &#956;m
  </text>
  <text x="12.5" y="57.5"
   font-family="Arial" font-size="23.75" fill="black" >
   142 agents
  </text>
 <g id="tissue" 
    transform="translate(0,1070) scale(1,-1)">
  <g id="ECM">
  </g>
  <g id="cells">
   <g id="cell0">
  <circle cx="514.259" cy="530.929" r="8.40978" stroke-width="0.5" stroke="black" fill="magenta"/>
  <circle cx="514.259" cy="530.929" r="5.05086" stroke-width="0.5" stroke="black" fill="magenta"/>
   </g>
   <g id="cell147">
  <circle cx="417.529" cy="570.834" r="6.85055" stroke-width="0.5" stroke="black" fill="green"/>
  <circle cx="417.529" cy="570.834" r="4.1432" stroke-width="0.5" stroke="black" fill="green"/>
   </g>
   <g id="cell2">
  <circle cx="512.728" cy="595.191" r="7.96365" stroke-width="0.5" stroke="black" fill="magenta"/>
  <circle cx="512.728" cy="595.191" r="4.82873" stroke-width="0.5" stroke="black" fill="magenta"/>
   </g>
   <g id="cell3">
  <circle cx="539.403" cy="541.185" r="7.81315" stroke-width="0.5" stroke="black" fill="magenta"/>
  <circle cx="539.403" cy="541.185" r="4.74367" stroke-width="0.5" stroke="black" fill="magenta"/>
   </g>
   <g id="cell4">
  <circle cx="468.353" cy="440.268" r="8.41009" stroke-width="0.5" stroke="black" fill="magenta"/>
  <circle cx="468.353" cy="440.268" r="5.05096" stroke-width="0.5" stroke="black" fill="magenta"/>
   </g>
   <g id="cell5">
  <circle cx="465.847" cy="498.127" r="7.0545" stroke-width="0.5" stroke="black" fill="magenta"/>
  <circle cx="465.847" cy="498.127" r="4.27772" stroke-width="0.5" stroke="black" fill="magenta"/>
   </g>
   <g id="cell6">
  <circle cx="595.035" cy="514.152" r="8.40327" stroke-width="0.5" stroke="black" fill="magenta"/>
  <circle cx="595.035" cy="514.152" r="5.04872" stroke-width="0.5" stroke="black" fill="magenta"/>
   </g>
   <g id="cell7">
  <circle cx="511.453" cy="464.456" r="8.41271" stroke-width="0.5" stroke="black" fill="magenta"/>
  <circle cx="511.453" cy="464.456" r="5.05167" stroke-width="0.5" stroke="black" fill="magenta"/>
   </g>
   <g id="cell8">
  <circle cx="370.232" cy="548.804" r="7.11815" stroke-width="0.5" stroke="black" fill="magenta"/>
  <circle cx="370.232" cy="548.804" r="4.31954" stroke-width="0.5" stroke="black" fill="magenta"/>
   </g>
   <g id="cell9">
  <circle cx="463.955" cy="602.064" r="8.40272" stroke-width="0.5" stroke="black" fill="magenta"/>
  <circle cx="463.955" cy="602.064" r="5.04853" stroke-width="0.5" stroke="black" fill="magenta"/>
   </g>
   <g id="cell10">
  <circle cx="587.353" cy="395.95" r="7.07385" stroke-width="0.5" stroke="black" fill="magenta"/>
  <circle cx="587.353" cy="395.95" r="4.32311" stroke-width="0.5" stroke="black" fill="magenta"/>
   </g>
   <g id="cell11">
  <circle cx="589.748" cy="590.273" r="8.41271" stroke-width="0.5" stroke="black" fill="magenta"/>
  <circle cx="589.748" cy="590.273" r="5.05167" stroke-width="0.5" stroke="black" fill="magenta"/>
   </g>
   <g id="cell12">
  <circle cx="501.998" cy="585.084" r="8.41271" stroke-width="0.5" stroke="black" fill="magenta"/>
  <circle cx="501.998" cy="585.084" r="5.05167" stroke-width="0.5" stroke="black" fill="magenta"/>
   </g>
   <g id="cell13">
  <circle cx="378.393" cy="559.953" r="8.26684" stroke-width="0.5" stroke="black" fill="magenta"/>
  <circle cx="378.393" cy="559.953" r="4.9892" stroke-width="0.5" stroke="black" fill="magenta"/>
   </g>
   <g id="cell14">
  <circle cx="523.306" cy="399.061" r="8.00101" stroke-width="0.5" stroke="black" fill="magenta"/>
  <circle cx="523.306" cy="399.061" r="4.84939" stroke-width="0.5" stroke="black" fill="magenta"/>
   </g>
   <g id="cell15">
  <circle cx="391.838" cy="483.071" r="7.69883" stroke-width="0.5" stroke="black" fill="magenta"/>
  <circle cx="391.838" cy="483.071" r="4.67779" stroke-width="0.5" stroke="black" fill="magenta"/>
   </g>
   <g id="cell16">
  <circle cx="431.215" cy="412.165" r="8.41271" stroke-width="0.5" stroke="black" fill="magenta"/>
  <circle cx="431.215" cy="412.165" r="5.05167" stroke-width="0.5" stroke="black" fill="magenta"/>
   </g>
   <g id="cell17">
  <circle cx="588.765" cy="489.33" r="8.39144" stroke-width="0.5" stroke="black" fill="magenta"/>
  <circle cx="588.765" cy="489.33" r="5.04437" stroke-width="0.5" stroke="black" fill="magenta"/>
   </g>
   <g id="cell18">
  <circle cx="509.873" cy="392.833" r="8.41023" stroke-width="0.5" stroke="black" fill="magenta"/>
  <circle cx="509.873" cy="392.833" r="5.051" stroke-width="0.5" stroke="black" fill="magenta"/>
   </g>
   <g id="cell19">
  <circle cx="447.912" cy="539.448" r="8.3995" stroke-width="0.5" stroke="black" fill="magenta"/>
  <circle cx="447.912" cy="539.448" r="5.04738" stroke-width="0.5" stroke="black" fill="magenta"/>
   </g>
   <g id="cell20">
  <circle cx="528.466" cy="422.414" r="8.41271" stroke-width="0.5" stroke="black" fill="magenta"/>
  <circle cx="528.466" cy="422.414" r="5.05167" stroke-width="0.5" stroke="black" fill="magenta"/>
   </g>
   <g id="cell141">
  <circle cx="482.266" cy="439.314" r="7.25254" stroke-width="0.5" stroke="black" fill="magenta"/>
  <circle cx="482.266" cy="439.314" r="4.41659" stroke-width="0.5" stroke="black" fill="magenta"/>
   </g>
   <g id="cell22">
  <circle cx="558.992" cy="495.976" r="8.39435" stroke-width="0.5" stroke="black" fill="magenta"/>
  <circle cx="558.992" cy="495.976" r="5.04565" stroke-width="0.5" stroke="black" fill="magenta"/>
   </g>
   <g id="cell23">
  <circle cx="535.112" cy="483.588" r="8.41271" stroke-width="0.5" stroke="black" fill="magenta"/>
  <circle cx="535.112" cy="483.588" r="5.05167" stroke-width="0.5" stroke="black" fill="magenta"/>
   </g>
   <g id="cell24">
  <circle cx="562.512" cy="382.464" r="8.41271" stroke-width="0.5" stroke="black" fill="magenta"/>
  <circle cx="562.512" cy="382.464" r="5.05167" stroke-width="0.5" stroke="black" fill="magenta"/>
   </g>
   <g id="cell25">
  <circle cx="647.987" cy="559.546" r="8.34198" stroke-width="0.5" stroke="black" fill="green"/>
  <circle cx="647.987" cy="559.546" r="5.02494" stroke-width="0.5" stroke="black" fill="green"/>
   </g>
   <g id="cell26">
  <circle cx="548.283" cy="402.218" r="8.41271" stroke-width="0.5" stroke="black" fill="green"/>
  <circle cx="548.283" cy="402.218" r="5.05167" stroke-width="0.5" stroke="black" fill="green"/>
   </g>
   <g id="cell27">
  <circle cx="457.446" cy="388.678" r="8.41271" stroke-width="0.5" stroke="black" fill="green"/>
  <circle cx="457.446" cy="388.678" r="5.05167" stroke-width="0.5" stroke="black" fill="green"/>
   </g>
   <g id="cell28">
  <circle cx="433.047" cy="544.217" r="8.41271" stroke-width="0.5" stroke="black" fill="green"/>
  <circle cx="433.047" cy="544.217" r="5.05167" stroke-width="0.5" stroke="black" fill="green"/>
   </g>
   <g id="cell29">
  <circle cx="467.425" cy="521.02" r="8.32595" stroke-width="0.5" stroke="black" fill="green"/>
  <circle cx="467.425" cy="521.02" r="5.01703" stroke-width="0.5" stroke="black" fill="green"/>
   </g>
   <g id="cell30">
  <circle cx="477.796" cy="539.185" r="8.41271" stroke-width="0.5" stroke="black" fill="green"/>
  <circle cx="477.796" cy="539.185" r="5.05167" stroke-width="0.5" stroke="black" fill="green"/>
   </g>
   <g id="cell31">
  <circle cx="412.526" cy="538.893" r="8.41271" stroke-width="0.5" stroke="black" fill="green"/>
  <circle cx="412.526" cy="538.893" r="5.05167" stroke-width="0.5" stroke="black" fill="green"/>
   </g>
   <g id="cell32">
  <circle cx="430.07" cy="465.401" r="8.40537" stroke-width="0.5" stroke="black" fill="green"/>
  <circle cx="430.07" cy="465.401" r="5.04944" stroke-width="0.5" stroke="black" fill="green"/>
   </g>
   <g id="cell33">
  <circle cx="498.876" cy="413.228" r="8.40632" stroke-width="0.5" stroke="black" fill="green"/>
  <circle cx="498.876" cy="413.228" r="5.04976" stroke-width="0.5" stroke="black" fill="green"/>
   </g>
   <g id="cell34">
  <circle cx="392.093" cy="453.617" r="8.40472" stroke-width="0.5" stroke="black" fill="green"/>
  <circle cx="392.093" cy="453.617" r="5.04922" stroke-width="0.5" stroke="black" fill="green"/>
   </g>
   <g id="cell35">
  <circle cx="544.959" cy="554.999" r="8.38028" stroke-width="0.5" stroke="black" fill="green"/>
  <circle cx="544.959" cy="554.999" r="5.03997" stroke-width="0.5" stroke="black" fill="green"/>
   </g>
   <g id="cell36">
  <circle cx="396.094" cy="579.95" r="8.23948" stroke-width="0.5" stroke="black" fill="green"/>
  <circle cx="396.094" cy="579.95" r="4.97503" stroke-width="0.5" stroke="black" fill="green"/>
   </g>
   <g id="cell37">
  <circle cx="634.871" cy="460.618" r="2.34188" stroke-width="0.5" stroke="black" fill="green"/>
  <circle cx="634.871" cy="460.618" r="2.12529" stroke-width="0.5" stroke="black" fill="black"/>
   </g>
   <g id="cell38">
  <circle cx="525.977" cy="604.112" r="8.40022" stroke-width="0.5" stroke="black" fill="green"/>
  <circle cx="525.977" cy="604.112" r="5.04764" stroke-width="0.5" stroke="black" fill="green"/>
   </g>
   <g id="cell39">
  <circle cx="617.32" cy="494.576" r="8.40961" stroke-width="0.5" stroke="black" fill="green"/>
  <circle cx="617.32" cy="494.576" r="5.05081" stroke-width="0.5" stroke="black" fill="green"/>
   </g>
   <g id="cell40">
  <circle cx="485.727" cy="572.091" r="8.41271" stroke-width="0.5" stroke="black" fill="green"/>
  <circle cx="485.727" cy="572.091" r="5.05167" stroke-width="0.5" stroke="black" fill="green"/>
   </g>
   <g id="cell41">
  <circle cx="364.593" cy="479.866" r="8.41271" stroke-width="0.5" stroke="black" fill="green"/>
  <circle cx="364.593" cy="479.866" r="5.05167" stroke-width="0.5" stroke="black" fill="green"/>
   </g>
   <g id="cell42">
  <circle cx="452.633" cy="487.109" r="3.11521" stroke-width="0.5" stroke="black" fill="green"/>
  <circle cx="452.633" cy="487.109" r="2.51758" stroke-width="0.5" stroke="black" fill="black"/>
   </g>
   <g id="cell43">
  <circle cx="558.38" cy="445.707" r="8.41271" stroke-width="0.5" stroke="black" fill="green"/>
  <circle cx="558.38" cy="445.707" r="5.05167" stroke-width="0.5" stroke="black" fill="green"/>
   </g>
   <g id="cell44">
  <circle cx="477.689" cy="627.436" r="8.40403" stroke-width="0.5" stroke="black" fill="green"/>
  <circle cx="477.689" cy="627.436" r="5.04898" stroke-width="0.5" stroke="black" fill="green"/>
   </g>
   <g id="cell45">
  <circle cx="416.37" cy="554.588" r="8.39144" stroke-width="0.5" stroke="black" fill="green"/>
  <circle cx="416.37" cy="554.588" r="5.04437" stroke-width="0.5" stroke="black" fill="green"/>
   </g>
   <g id="cell46">
  <circle cx="518.982" cy="620.931" r="7.41749" stroke-width="0.5" stroke="black" fill="green"/>
  <circle cx="518.982" cy="620.931" r="4.52199" stroke-width="0.5" stroke="black" fill="green"/>
   </g>
   <g id="cell47">
  <circle cx="501.229" cy="507.647" r="8.41271" stroke-width="0.5" stroke="black" fill="green"/>
  <circle cx="501.229" cy="507.647" r="5.05167" stroke-width="0.5" stroke="black" fill="green"/>
   </g>
   <g id="cell48">
  <circle cx="565.241" cy="604.176" r="8.41271" stroke-width="0.5" stroke="black" fill="green"/>
  <circle cx="565.241" cy="604.176" r="5.05167" stroke-width="0.5" stroke="black" fill="green"/>
   </g>
   <g id="cell49">
  <circle cx="434.492" cy="397.05" r="8.13008" stroke-width="0.5" stroke="black" fill="green"/>
  <circle cx="434.492" cy="397.05" r="4.91894" stroke-width="0.5" stroke="black" fill="green"/>
   </g>
   <g id="cell50">
  <circle cx="515.243" cy="515.522" r="8.41271" stroke-width="0.5" stroke="black" fill="cyan"/>
  <circle cx="515.243" cy="515.522" r="5.05167" stroke-width="0.5" stroke="black" fill="cyan"/>
   </g>
   <g id="cell51">
  <circle cx="387.56" cy="603.486" r="6.54204" stroke-width="0.5" stroke="black" fill="cyan"/>
  <circle cx="387.56" cy="603.486" r="3.96233" stroke-width="0.5" stroke="black" fill="cyan"/>
   </g>
   <g id="cell120">
  <circle cx="419.561" cy="610.676" r="8.28629" stroke-width="0.5" stroke="black" fill="cyan"/>
  <circle cx="419.561" cy="610.676" r="4.99786" stroke-width="0.5" stroke="black" fill="cyan"/>
   </g>
   <g id="cell53">
  <circle cx="571.2" cy="436.068" r="8.41271" stroke-width="0.5" stroke="black" fill="cyan"/>
  <circle cx="571.2" cy="436.068" r="5.05167" stroke-width="0.5" stroke="black" fill="cyan"/>
   </g>
   <g id="cell54">
  <circle cx="480.431" cy="426.522" r="6.86652" stroke-width="0.5" stroke="black" fill="cyan"/>
  <circle cx="480.431" cy="426.522" r="4.14883" stroke-width="0.5" stroke="black" fill="cyan"/>
   </g>
   <g id="cell55">
  <circle cx="525.579" cy="471.223" r="8.41271" stroke-width="0.5" stroke="black" fill="cyan"/>
  <circle cx="525.579" cy="471.223" r="5.05167" stroke-width="0.5" stroke="black" fill="cyan"/>
   </g>
   <g id="cell56">
  <circle cx="615.768" cy="522.529" r="8.41271" stroke-width="0.5" stroke="black" fill="cyan"/>
  <circle cx="615.768" cy="522.529" r="5.05167" stroke-width="0.5" stroke="black" fill="cyan"/>
   </g>
   <g id="cell57">
  <circle cx="418.502" cy="626.344" r="8.28629" stroke-width="0.5" stroke="black" fill="cyan"/>
  <circle cx="418.502" cy="626.344" r="4.99786" stroke-width="0.5" stroke="black" fill="cyan"/>
   </g>
   <g id="cell58">
  <circle cx="550.251" cy="483.38" r="8.41271" stroke-width="0.5" stroke="black" fill="cyan"/>
  <circle cx="550.251" cy="483.38" r="5.05167" stroke-width="0.5" stroke="black" fill="cyan"/>
   </g>
   <g id="cell59">
  <circle cx="385.161" cy="439.179" r="8.41271" stroke-width="0.5" stroke="black" fill="cyan"/>
  <circle cx="385.161" cy="439.179" r="5.05167" stroke-width="0.5" stroke="black" fill="cyan"/>
   </g>
   <g id="cell60">
  <circle cx="593.388" cy="474.356" r="8.25826" stroke-width="0.5" stroke="black" fill="cyan"/>
  <circle cx="593.388" cy="474.356" r="4.98429" stroke-width="0.5" stroke="black" fill="cyan"/>
   </g>
   <g id="cell61">
  <circle cx="554.623" cy="614.976" r="1.45214" stroke-width="0.5" stroke="black" fill="cyan"/>
  <circle cx="554.623" cy="614.976" r="1.43612" stroke-width="0.5" stroke="black" fill="black"/>
   </g>
   <g id="cell62">
  <circle cx="526.263" cy="443.28" r="8.41271" stroke-width="0.5" stroke="black" fill="cyan"/>
  <circle cx="526.263" cy="443.28" r="5.05167" stroke-width="0.5" stroke="black" fill="cyan"/>
   </g>
   <g id="cell63">
  <circle cx="582.643" cy="552.555" r="8.40022" stroke-width="0.5" stroke="black" fill="cyan"/>
  <circle cx="582.643" cy="552.555" r="5.04764" stroke-width="0.5" stroke="black" fill="cyan"/>
   </g>
   <g id="cell64">
  <circle cx="512.322" cy="634.138" r="8.24438" stroke-width="0.5" stroke="black" fill="cyan"/>
  <circle cx="512.322" cy="634.138" r="4.97746" stroke-width="0.5" stroke="black" fill="cyan"/>
   </g>
   <g id="cell65">
  <circle cx="533.505" cy="457.363" r="8.3995" stroke-width="0.5" stroke="black" fill="cyan"/>
  <circle cx="533.505" cy="457.363" r="5.04738" stroke-width="0.5" stroke="black" fill="cyan"/>
   </g>
   <g id="cell66">
  <circle cx="544.502" cy="527.296" r="8.29331" stroke-width="0.5" stroke="black" fill="cyan"/>
  <circle cx="544.502" cy="527.296" r="5.0012" stroke-width="0.5" stroke="black" fill="cyan"/>
   </g>
   <g id="cell67">
  <circle cx="354.799" cy="492.53" r="8.41271" stroke-width="0.5" stroke="black" fill="cyan"/>
  <circle cx="354.799" cy="492.53" r="5.05167" stroke-width="0.5" stroke="black" fill="cyan"/>
   </g>
   <g id="cell68">
  <circle cx="560.811" cy="556.108" r="8.41271" stroke-width="0.5" stroke="black" fill="cyan"/>
  <circle cx="560.811" cy="556.108" r="5.05167" stroke-width="0.5" stroke="black" fill="cyan"/>
   </g>
   <g id="cell69">
  <circle cx="436.705" cy="450.823" r="8.4103" stroke-width="0.5" stroke="black" fill="cyan"/>
  <circle cx="436.705" cy="450.823" r="5.05102" stroke-width="0.5" stroke="black" fill="cyan"/>
   </g>
   <g id="cell70">
  <circle cx="578.888" cy="478.171" r="7.90853" stroke-width="0.5" stroke="black" fill="cyan"/>
  <circle cx="578.888" cy="478.171" r="4.79791" stroke-width="0.5" stroke="black" fill="cyan"/>
   </g>
   <g id="cell71">
  <circle cx="382.613" cy="527.792" r="8.09342" stroke-width="0.5" stroke="black" fill="cyan"/>
  <circle cx="382.613" cy="527.792" r="4.9069" stroke-width="0.5" stroke="black" fill="cyan"/>
   </g>
   <g id="cell72">
  <circle cx="534.214" cy="509.67" r="8.41271" stroke-width="0.5" stroke="black" fill="cyan"/>
  <circle cx="534.214" cy="509.67" r="5.05167" stroke-width="0.5" stroke="black" fill="cyan"/>
   </g>
   <g id="cell129">
  <circle cx="419.89" cy="401.887" r="8.13008" stroke-width="0.5" stroke="black" fill="green"/>
  <circle cx="419.89" cy="401.887" r="4.91894" stroke-width="0.5" stroke="black" fill="green"/>
   </g>
   <g id="cell74">
  <circle cx="542.389" cy="444.115" r="8.41271" stroke-width="0.5" stroke="black" fill="cyan"/>
  <circle cx="542.389" cy="444.115" r="5.05167" stroke-width="0.5" stroke="black" fill="cyan"/>
   </g>
   <g id="cell75">
  <circle cx="443.723" cy="473.416" r="8.22264" stroke-width="0.5" stroke="black" fill="cyan"/>
  <circle cx="443.723" cy="473.416" r="4.9669" stroke-width="0.5" stroke="black" fill="cyan"/>
   </g>
   <g id="cell76">
  <circle cx="522.353" cy="384.311" r="8.39669" stroke-width="0.5" stroke="black" fill="magenta"/>
  <circle cx="522.353" cy="384.311" r="5.04647" stroke-width="0.5" stroke="black" fill="magenta"/>
   </g>
   <g id="cell77">
  <circle cx="493.97" cy="433.766" r="7.25254" stroke-width="0.5" stroke="black" fill="magenta"/>
  <circle cx="493.97" cy="433.766" r="4.41659" stroke-width="0.5" stroke="black" fill="magenta"/>
   </g>
   <g id="cell78">
  <circle cx="370.92" cy="465.578" r="8.40994" stroke-width="0.5" stroke="black" fill="magenta"/>
  <circle cx="370.92" cy="465.578" r="5.05091" stroke-width="0.5" stroke="black" fill="magenta"/>
   </g>
   <g id="cell79">
  <circle cx="501.441" cy="523.147" r="8.40978" stroke-width="0.5" stroke="black" fill="magenta"/>
  <circle cx="501.441" cy="523.147" r="5.05086" stroke-width="0.5" stroke="black" fill="magenta"/>
   </g>
   <g id="cell80">
  <circle cx="603.957" cy="485.924" r="8.40961" stroke-width="0.5" stroke="black" fill="green"/>
  <circle cx="603.957" cy="485.924" r="5.05081" stroke-width="0.5" stroke="black" fill="green"/>
   </g>
   <g id="cell81">
  <circle cx="430.1" cy="501.679" r="8.16829" stroke-width="0.5" stroke="black" fill="green"/>
  <circle cx="430.1" cy="501.679" r="4.94188" stroke-width="0.5" stroke="black" fill="green"/>
   </g>
   <g id="cell82">
  <circle cx="543.307" cy="496.868" r="8.40905" stroke-width="0.5" stroke="black" fill="magenta"/>
  <circle cx="543.307" cy="496.868" r="5.05064" stroke-width="0.5" stroke="black" fill="magenta"/>
   </g>
   <g id="cell130">
  <circle cx="574.578" cy="391.13" r="8.11327" stroke-width="0.5" stroke="black" fill="magenta"/>
  <circle cx="574.578" cy="391.13" r="4.91006" stroke-width="0.5" stroke="black" fill="magenta"/>
   </g>
   <g id="cell84">
  <circle cx="406.578" cy="481.5" r="8.34511" stroke-width="0.5" stroke="black" fill="green"/>
  <circle cx="406.578" cy="481.5" r="5.02553" stroke-width="0.5" stroke="black" fill="green"/>
   </g>
   <g id="cell140">
  <circle cx="528.242" cy="578.866" r="6.79041" stroke-width="0.5" stroke="black" fill="magenta"/>
  <circle cx="528.242" cy="578.866" r="4.18233" stroke-width="0.5" stroke="black" fill="magenta"/>
   </g>
   <g id="cell86">
  <circle cx="392.112" cy="565.43" r="8.34999" stroke-width="0.5" stroke="black" fill="magenta"/>
  <circle cx="392.112" cy="565.43" r="5.02769" stroke-width="0.5" stroke="black" fill="magenta"/>
   </g>
   <g id="cell87">
  <circle cx="436.731" cy="528.733" r="8.30485" stroke-width="0.5" stroke="black" fill="green"/>
  <circle cx="436.731" cy="528.733" r="5.00732" stroke-width="0.5" stroke="black" fill="green"/>
   </g>
   <g id="cell88">
  <circle cx="476.364" cy="611.488" r="8.40403" stroke-width="0.5" stroke="black" fill="green"/>
  <circle cx="476.364" cy="611.488" r="5.04898" stroke-width="0.5" stroke="black" fill="green"/>
   </g>
   <g id="cell89">
  <circle cx="436.175" cy="487.222" r="8.38287" stroke-width="0.5" stroke="black" fill="green"/>
  <circle cx="436.175" cy="487.222" r="5.04149" stroke-width="0.5" stroke="black" fill="green"/>
   </g>
   <g id="cell90">
  <circle cx="584.121" cy="503.742" r="8.40327" stroke-width="0.5" stroke="black" fill="magenta"/>
  <circle cx="584.121" cy="503.742" r="5.04872" stroke-width="0.5" stroke="black" fill="magenta"/>
   </g>
   <g id="cell136">
  <circle cx="525.714" cy="539.546" r="7.81315" stroke-width="0.5" stroke="black" fill="magenta"/>
  <circle cx="525.714" cy="539.546" r="4.74367" stroke-width="0.5" stroke="black" fill="magenta"/>
   </g>
   <g id="cell92">
  <circle cx="553.592" cy="593.311" r="8.34209" stroke-width="0.5" stroke="black" fill="green"/>
  <circle cx="553.592" cy="593.311" r="5.02523" stroke-width="0.5" stroke="black" fill="green"/>
   </g>
   <g id="cell93">
  <circle cx="573.105" cy="526.411" r="8.04084" stroke-width="0.5" stroke="black" fill="cyan"/>
  <circle cx="573.105" cy="526.411" r="4.87421" stroke-width="0.5" stroke="black" fill="cyan"/>
   </g>
   <g id="cell94">
  <circle cx="543.076" cy="469.72" r="8.3995" stroke-width="0.5" stroke="black" fill="cyan"/>
  <circle cx="543.076" cy="469.72" r="5.04738" stroke-width="0.5" stroke="black" fill="cyan"/>
   </g>
   <g id="cell95">
  <circle cx="462.587" cy="535.76" r="8.3995" stroke-width="0.5" stroke="black" fill="magenta"/>
  <circle cx="462.587" cy="535.76" r="5.04738" stroke-width="0.5" stroke="black" fill="magenta"/>
   </g>
   <g id="cell96">
  <circle cx="535.307" cy="376.53" r="8.39669" stroke-width="0.5" stroke="black" fill="magenta"/>
  <circle cx="535.307" cy="376.53" r="5.04647" stroke-width="0.5" stroke="black" fill="magenta"/>
   </g>
   <g id="cell97">
  <circle cx="569.35" cy="507.141" r="8.39435" stroke-width="0.5" stroke="black" fill="magenta"/>
  <circle cx="569.35" cy="507.141" r="5.04565" stroke-width="0.5" stroke="black" fill="magenta"/>
   </g>
   <g id="cell98">
  <circle cx="405.861" cy="565.707" r="6.85055" stroke-width="0.5" stroke="black" fill="green"/>
  <circle cx="405.861" cy="565.707" r="4.1432" stroke-width="0.5" stroke="black" fill="green"/>
   </g>
   <g id="cell99">
  <circle cx="573.945" cy="492.724" r="8.39144" stroke-width="0.5" stroke="black" fill="magenta"/>
  <circle cx="573.945" cy="492.724" r="5.04437" stroke-width="0.5" stroke="black" fill="magenta"/>
   </g>
   <g id="cell100">
  <circle cx="569.907" cy="542.872" r="8.38394" stroke-width="0.5" stroke="black" fill="cyan"/>
  <circle cx="569.907" cy="542.872" r="5.04187" stroke-width="0.5" stroke="black" fill="cyan"/>
   </g>
   <g id="cell101">
  <circle cx="462.225" cy="628.898" r="8.35289" stroke-width="0.5" stroke="black" fill="magenta"/>
  <circle cx="462.225" cy="628.898" r="5.02941" stroke-width="0.5" stroke="black" fill="magenta"/>
   </g>
   <g id="cell102">
  <circle cx="445.761" cy="500.029" r="8.38287" stroke-width="0.5" stroke="black" fill="green"/>
  <circle cx="445.761" cy="500.029" r="5.04149" stroke-width="0.5" stroke="black" fill="green"/>
   </g>
   <g id="cell103">
  <circle cx="542.198" cy="604.511" r="8.37662" stroke-width="0.5" stroke="black" fill="green"/>
  <circle cx="542.198" cy="604.511" r="5.039" stroke-width="0.5" stroke="black" fill="green"/>
   </g>
   <g id="cell104">
  <circle cx="554.153" cy="541.555" r="8.38028" stroke-width="0.5" stroke="black" fill="green"/>
  <circle cx="554.153" cy="541.555" r="5.03997" stroke-width="0.5" stroke="black" fill="green"/>
   </g>
   <g id="cell105">
  <circle cx="416.308" cy="494.065" r="8.37467" stroke-width="0.5" stroke="black" fill="green"/>
  <circle cx="416.308" cy="494.065" r="5.03791" stroke-width="0.5" stroke="black" fill="green"/>
   </g>
   <g id="cell106">
  <circle cx="639.278" cy="537.049" r="8.37641" stroke-width="0.5" stroke="black" fill="green"/>
  <circle cx="639.278" cy="537.049" r="5.0384" stroke-width="0.5" stroke="black" fill="green"/>
   </g>
   <g id="cell107">
  <circle cx="384.178" cy="512.262" r="8.36592" stroke-width="0.5" stroke="black" fill="cyan"/>
  <circle cx="384.178" cy="512.262" r="5.03403" stroke-width="0.5" stroke="black" fill="cyan"/>
   </g>
   <g id="cell108">
  <circle cx="459.677" cy="643.716" r="8.35289" stroke-width="0.5" stroke="black" fill="magenta"/>
  <circle cx="459.677" cy="643.716" r="5.02941" stroke-width="0.5" stroke="black" fill="magenta"/>
   </g>
   <g id="cell109">
  <circle cx="448.12" cy="634.1" r="8.35289" stroke-width="0.5" stroke="black" fill="magenta"/>
  <circle cx="448.12" cy="634.1" r="5.02941" stroke-width="0.5" stroke="black" fill="magenta"/>
   </g>
   <g id="cell110">
  <circle cx="538.443" cy="588.943" r="8.34209" stroke-width="0.5" stroke="black" fill="green"/>
  <circle cx="538.443" cy="588.943" r="5.02523" stroke-width="0.5" stroke="black" fill="green"/>
   </g>
   <g id="cell111">
  <circle cx="633.979" cy="552.058" r="8.34198" stroke-width="0.5" stroke="black" fill="green"/>
  <circle cx="633.979" cy="552.058" r="5.02494" stroke-width="0.5" stroke="black" fill="green"/>
   </g>
   <g id="cell112">
  <circle cx="380.948" cy="575.069" r="8.34999" stroke-width="0.5" stroke="black" fill="magenta"/>
  <circle cx="380.948" cy="575.069" r="5.02769" stroke-width="0.5" stroke="black" fill="magenta"/>
   </g>
   <g id="cell113">
  <circle cx="422.311" cy="479.333" r="8.34511" stroke-width="0.5" stroke="black" fill="green"/>
  <circle cx="422.311" cy="479.333" r="5.02553" stroke-width="0.5" stroke="black" fill="green"/>
   </g>
   <g id="cell114">
  <circle cx="493.047" cy="447.575" r="7.99436" stroke-width="0.5" stroke="black" fill="magenta"/>
  <circle cx="493.047" cy="447.575" r="4.85172" stroke-width="0.5" stroke="black" fill="magenta"/>
   </g>
   <g id="cell115">
  <circle cx="451.964" cy="524.475" r="8.32595" stroke-width="0.5" stroke="black" fill="green"/>
  <circle cx="451.964" cy="524.475" r="5.01703" stroke-width="0.5" stroke="black" fill="green"/>
   </g>
   <g id="cell116">
  <circle cx="369.79" cy="519.07" r="8.29908" stroke-width="0.5" stroke="black" fill="cyan"/>
  <circle cx="369.79" cy="519.07" r="5.00601" stroke-width="0.5" stroke="black" fill="cyan"/>
   </g>
   <g id="cell117">
  <circle cx="437.667" cy="513.437" r="2.57934" stroke-width="0.5" stroke="black" fill="green"/>
  <circle cx="437.667" cy="513.437" r="2.25309" stroke-width="0.5" stroke="black" fill="black"/>
   </g>
   <g id="cell118">
  <circle cx="528.6" cy="524.764" r="8.29331" stroke-width="0.5" stroke="black" fill="cyan"/>
  <circle cx="528.6" cy="524.764" r="5.0012" stroke-width="0.5" stroke="black" fill="cyan"/>
   </g>
   <g id="cell119">
  <circle cx="526.791" cy="632.122" r="7.12856" stroke-width="0.5" stroke="black" fill="green"/>
  <circle cx="526.791" cy="632.122" r="4.34364" stroke-width="0.5" stroke="black" fill="green"/>
   </g>
   <g id="cell121">
  <circle cx="390.43" cy="550.928" r="8.26684" stroke-width="0.5" stroke="black" fill="magenta"/>
  <circle cx="390.43" cy="550.928" r="4.9892" stroke-width="0.5" stroke="black" fill="magenta"/>
   </g>
   <g id="cell122">
  <circle cx="608.505" cy="470.62" r="8.25826" stroke-width="0.5" stroke="black" fill="cyan"/>
  <circle cx="608.505" cy="470.62" r="4.98429" stroke-width="0.5" stroke="black" fill="cyan"/>
   </g>
   <g id="cell123">
  <circle cx="500.585" cy="644.404" r="8.24438" stroke-width="0.5" stroke="black" fill="cyan"/>
  <circle cx="500.585" cy="644.404" r="4.97746" stroke-width="0.5" stroke="black" fill="cyan"/>
   </g>
   <g id="cell124">
  <circle cx="384.393" cy="590" r="8.23948" stroke-width="0.5" stroke="black" fill="green"/>
  <circle cx="384.393" cy="590" r="4.97503" stroke-width="0.5" stroke="black" fill="green"/>
   </g>
   <g id="cell125">
  <circle cx="450.141" cy="459.192" r="8.22264" stroke-width="0.5" stroke="black" fill="cyan"/>
  <circle cx="450.141" cy="459.192" r="4.9669" stroke-width="0.5" stroke="black" fill="cyan"/>
   </g>
   <g id="cell126">
  <circle cx="416.89" cy="509.792" r="8.16829" stroke-width="0.5" stroke="black" fill="green"/>
  <circle cx="416.89" cy="509.792" r="4.94188" stroke-width="0.5" stroke="black" fill="green"/>
   </g>
   <g id="cell127">
  <circle cx="411.704" cy="597.233" r="8.16806" stroke-width="0.5" stroke="black" fill="cyan"/>
  <circle cx="411.704" cy="597.233" r="4.93877" stroke-width="0.5" stroke="black" fill="cyan"/>
   </g>
   <g id="cell128">
  <circle cx="368.586" cy="534.65" r="8.09342" stroke-width="0.5" stroke="black" fill="cyan"/>
  <circle cx="368.586" cy="534.65" r="4.9069" stroke-width="0.5" stroke="black" fill="cyan"/>
   </g>
   <g id="cell131">
  <circle cx="584.238" cy="536.954" r="8.04084" stroke-width="0.5" stroke="black" fill="cyan"/>
  <circle cx="584.238" cy="536.954" r="4.87421" stroke-width="0.5" stroke="black" fill="cyan"/>
   </g>
   <g id="cell132">
  <circle cx="505.737" cy="440.935" r="7.99436" stroke-width="0.5" stroke="black" fill="magenta"/>
  <circle cx="505.737" cy="440.935" r="4.85172" stroke-width="0.5" stroke="black" fill="magenta"/>
   </g>
   <g id="cell133">
  <circle cx="534.164" cy="408.649" r="8.00101" stroke-width="0.5" stroke="black" fill="magenta"/>
  <circle cx="534.164" cy="408.649" r="4.84939" stroke-width="0.5" stroke="black" fill="magenta"/>
   </g>
   <g id="cell134">
  <circle cx="515.729" cy="581.686" r="7.29581" stroke-width="0.5" stroke="black" fill="magenta"/>
  <circle cx="515.729" cy="581.686" r="4.46391" stroke-width="0.5" stroke="black" fill="magenta"/>
   </g>
   <g id="cell135">
  <circle cx="564.736" cy="481.174" r="7.90853" stroke-width="0.5" stroke="black" fill="cyan"/>
  <circle cx="564.736" cy="481.174" r="4.79791" stroke-width="0.5" stroke="black" fill="cyan"/>
   </g>
   <g id="cell137">
  <circle cx="379.278" cy="477.378" r="7.69883" stroke-width="0.5" stroke="black" fill="magenta"/>
  <circle cx="379.278" cy="477.378" r="4.67779" stroke-width="0.5" stroke="black" fill="magenta"/>
   </g>
   <g id="cell138">
  <circle cx="524.785" cy="590.373" r="6.79041" stroke-width="0.5" stroke="black" fill="magenta"/>
  <circle cx="524.785" cy="590.373" r="4.18233" stroke-width="0.5" stroke="black" fill="magenta"/>
   </g>
   <g id="cell139">
  <circle cx="511.857" cy="609.139" r="7.41749" stroke-width="0.5" stroke="black" fill="green"/>
  <circle cx="511.857" cy="609.139" r="4.52199" stroke-width="0.5" stroke="black" fill="green"/>
   </g>
   <g id="cell142">
  <circle cx="585.794" cy="383.326" r="7.07385" stroke-width="0.5" stroke="black" fill="magenta"/>
  <circle cx="585.794" cy="383.326" r="4.32311" stroke-width="0.5" stroke="black" fill="magenta"/>
   </g>
   <g id="cell143">
  <circle cx="537.404" cy="623.771" r="7.12856" stroke-width="0.5" stroke="black" fill="green"/>
  <circle cx="537.404" cy="623.771" r="4.34364" stroke-width="0.5" stroke="black" fill="green"/>
   </g>
   <g id="cell144">
  <circle cx="380.647" cy="541.633" r="7.11815" stroke-width="0.5" stroke="black" fill="magenta"/>
  <circle cx="380.647" cy="541.633" r="4.31954" stroke-width="0.5" stroke="black" fill="magenta"/>
   </g>
   <g id="cell145">
  <circle cx="461.95" cy="486.059" r="7.0545" stroke-width="0.5" stroke="black" fill="magenta"/>
  <circle cx="461.95" cy="486.059" r="4.27772" stroke-width="0.5" stroke="black" fill="magenta"/>
   </g>
   <g id="cell146">
  <circle cx="467.327" cy="426.223" r="6.86652" stroke-width="0.5" stroke="black" fill="cyan"/>
  <circle cx="467.327" cy="426.223" r="4.14883" stroke-width="0.5" stroke="black" fill="cyan"/>
   </g>
   <g id="cell148">
  <circle cx="399.747" cy="603.967" r="6.54204" stroke-width="0.5" stroke="black" fill="cyan"/>
  <circle cx="399.747" cy="603.967" r="3.96233" stroke-width="0.5" stroke="black" fill="cyan"/>
   </g>
  </g>
 </g>
  <rect x="775" y="1035" width="200" height="10" stroke-width="2" stroke="rgb(255,255,255)" fill="rgb(0,0,0)"/>
  <text x="781.25" y="1028.75"
   font-family="Arial" font-size="25" fill="black" >
   200 &#956;m
  </text>
  <text x="25" y="1045"
   font-family="Arial" font-size="18.75" fill="black" >
   0 days, 0 hours, 0 minutes, and 31.9858 seconds
  </text>
  <rect x="0" y="70" width="1000" height="1000" stroke-width="2" stroke="rgb(0,0,0)" fill="none"/>
</svg>
