<?xml version="1.0" encoding="UTF-8" standalone="no"?>
<!-- Created with PhysiCell (http://PhysiCell.MathCancer.org/) -->
<svg 
 xmlns:dc="http://purl.org/dc/elements/1.1/" 
 xmlns:cc="http://creativecommons.org/ns#" 
 xmlns:rdf="http://www.w3.org/1999/02/22-rdf-syntax-ns#" 
 xmlns:svg="http://www.w3.org/2000/svg" 
 xmlns="http://www.w3.org/2000/svg" 
 version="1.1" 
 width="1000" 
 height="1070" 
 id="svg2">
  <rect x="0" y="0" width="1000" height="1070" stroke-width="2" stroke="white" fill="white"/>
  <text x="12.5" y="30"
   font-family="Arial" font-size="25" fill="black" >
   Current time: 1 days, 12 hours, and 30.00 minutes, z = 0.00 &#956;m
  </text>
  <text x="12.5" y="57.5"
   font-family="Arial" font-size="23.75" fill="black" >
   196 agents
  </text>
 <g id="tissue" 
    transform="translate(0,1070) scale(1,-1)">
  <g id="ECM">
  </g>
  <g id="cells">
   <g id="cell0">
  <circle cx="510.681" cy="534.235" r="8.41262" stroke-width="0.5" stroke="black" fill="magenta"/>
  <circle cx="510.681" cy="534.235" r="5.05165" stroke-width="0.5" stroke="black" fill="magenta"/>
   </g>
   <g id="cell147">
  <circle cx="421.957" cy="576.182" r="8.36559" stroke-width="0.5" stroke="black" fill="green"/>
  <circle cx="421.957" cy="576.182" r="5.03395" stroke-width="0.5" stroke="black" fill="green"/>
   </g>
   <g id="cell2">
  <circle cx="503.695" cy="592.976" r="8.39987" stroke-width="0.5" stroke="black" fill="magenta"/>
  <circle cx="503.695" cy="592.976" r="5.04751" stroke-width="0.5" stroke="black" fill="magenta"/>
   </g>
   <g id="cell3">
  <circle cx="538.585" cy="545.691" r="8.39571" stroke-width="0.5" stroke="black" fill="magenta"/>
  <circle cx="538.585" cy="545.691" r="5.04599" stroke-width="0.5" stroke="black" fill="magenta"/>
   </g>
   <g id="cell4">
  <circle cx="452.025" cy="431.959" r="8.41263" stroke-width="0.5" stroke="black" fill="magenta"/>
  <circle cx="452.025" cy="431.959" r="5.05165" stroke-width="0.5" stroke="black" fill="magenta"/>
   </g>
   <g id="cell5">
  <circle cx="462.098" cy="496.103" r="8.37321" stroke-width="0.5" stroke="black" fill="magenta"/>
  <circle cx="462.098" cy="496.103" r="5.03708" stroke-width="0.5" stroke="black" fill="magenta"/>
   </g>
   <g id="cell6">
  <circle cx="595.543" cy="514.693" r="8.41242" stroke-width="0.5" stroke="black" fill="magenta"/>
  <circle cx="595.543" cy="514.693" r="5.05161" stroke-width="0.5" stroke="black" fill="magenta"/>
   </g>
   <g id="cell7">
  <circle cx="511.771" cy="463.86" r="8.41271" stroke-width="0.5" stroke="black" fill="magenta"/>
  <circle cx="511.771" cy="463.86" r="5.05167" stroke-width="0.5" stroke="black" fill="magenta"/>
   </g>
   <g id="cell8">
  <circle cx="360.986" cy="545.802" r="6.66339" stroke-width="0.5" stroke="black" fill="magenta"/>
  <circle cx="360.986" cy="545.802" r="4.0097" stroke-width="0.5" stroke="black" fill="magenta"/>
   </g>
   <g id="cell9">
  <circle cx="462.256" cy="601.707" r="8.4124" stroke-width="0.5" stroke="black" fill="magenta"/>
  <circle cx="462.256" cy="601.707" r="5.0516" stroke-width="0.5" stroke="black" fill="magenta"/>
   </g>
   <g id="cell10">
  <circle cx="588.367" cy="396.16" r="8.37591" stroke-width="0.5" stroke="black" fill="magenta"/>
  <circle cx="588.367" cy="396.16" r="5.03862" stroke-width="0.5" stroke="black" fill="magenta"/>
   </g>
   <g id="cell11">
  <circle cx="589.748" cy="590.273" r="8.41271" stroke-width="0.5" stroke="black" fill="magenta"/>
  <circle cx="589.748" cy="590.273" r="5.05167" stroke-width="0.5" stroke="black" fill="magenta"/>
   </g>
   <g id="cell12">
  <circle cx="495.602" cy="580.107" r="8.41271" stroke-width="0.5" stroke="black" fill="magenta"/>
  <circle cx="495.602" cy="580.107" r="5.05167" stroke-width="0.5" stroke="black" fill="magenta"/>
   </g>
   <g id="cell13">
  <circle cx="379.463" cy="559.339" r="8.40838" stroke-width="0.5" stroke="black" fill="magenta"/>
  <circle cx="379.463" cy="559.339" r="5.05044" stroke-width="0.5" stroke="black" fill="magenta"/>
   </g>
   <g id="cell14">
  <circle cx="529.34" cy="395.115" r="8.23824" stroke-width="0.5" stroke="black" fill="magenta"/>
  <circle cx="529.34" cy="395.115" r="4.97547" stroke-width="0.5" stroke="black" fill="magenta"/>
   </g>
   <g id="cell15">
  <circle cx="384.141" cy="488.768" r="7.00424" stroke-width="0.5" stroke="black" fill="magenta"/>
  <circle cx="384.141" cy="488.768" r="4.26409" stroke-width="0.5" stroke="black" fill="magenta"/>
   </g>
   <g id="cell16">
  <circle cx="428.44" cy="415.694" r="8.41271" stroke-width="0.5" stroke="black" fill="magenta"/>
  <circle cx="428.44" cy="415.694" r="5.05167" stroke-width="0.5" stroke="black" fill="magenta"/>
   </g>
   <g id="cell17">
  <circle cx="579.638" cy="484.24" r="8.41206" stroke-width="0.5" stroke="black" fill="magenta"/>
  <circle cx="579.638" cy="484.24" r="5.05151" stroke-width="0.5" stroke="black" fill="magenta"/>
   </g>
   <g id="cell18">
  <circle cx="514.526" cy="392.452" r="8.41263" stroke-width="0.5" stroke="black" fill="magenta"/>
  <circle cx="514.526" cy="392.452" r="5.05166" stroke-width="0.5" stroke="black" fill="magenta"/>
   </g>
   <g id="cell19">
  <circle cx="454.47" cy="541.558" r="8.4123" stroke-width="0.5" stroke="black" fill="magenta"/>
  <circle cx="454.47" cy="541.558" r="5.05158" stroke-width="0.5" stroke="black" fill="magenta"/>
   </g>
   <g id="cell20">
  <circle cx="525.346" cy="420.801" r="8.41271" stroke-width="0.5" stroke="black" fill="magenta"/>
  <circle cx="525.346" cy="420.801" r="5.05167" stroke-width="0.5" stroke="black" fill="magenta"/>
   </g>
   <g id="cell141">
  <circle cx="493.697" cy="440.157" r="7.9062" stroke-width="0.5" stroke="black" fill="magenta"/>
  <circle cx="493.697" cy="440.157" r="4.80898" stroke-width="0.5" stroke="black" fill="magenta"/>
   </g>
   <g id="cell22">
  <circle cx="558.991" cy="496.717" r="8.41214" stroke-width="0.5" stroke="black" fill="magenta"/>
  <circle cx="558.991" cy="496.717" r="5.05154" stroke-width="0.5" stroke="black" fill="magenta"/>
   </g>
   <g id="cell23">
  <circle cx="534.402" cy="485.85" r="8.41271" stroke-width="0.5" stroke="black" fill="magenta"/>
  <circle cx="534.402" cy="485.85" r="5.05167" stroke-width="0.5" stroke="black" fill="magenta"/>
   </g>
   <g id="cell24">
  <circle cx="565.611" cy="381" r="8.41271" stroke-width="0.5" stroke="black" fill="magenta"/>
  <circle cx="565.611" cy="381" r="5.05167" stroke-width="0.5" stroke="black" fill="magenta"/>
   </g>
   <g id="cell25">
  <circle cx="653.715" cy="564.715" r="8.33802" stroke-width="0.5" stroke="black" fill="green"/>
  <circle cx="653.715" cy="564.715" r="5.02207" stroke-width="0.5" stroke="black" fill="green"/>
   </g>
   <g id="cell26">
  <circle cx="548.204" cy="401.026" r="8.41271" stroke-width="0.5" stroke="black" fill="green"/>
  <circle cx="548.204" cy="401.026" r="5.05167" stroke-width="0.5" stroke="black" fill="green"/>
   </g>
   <g id="cell27">
  <circle cx="451.978" cy="389.544" r="2.55424" stroke-width="0.5" stroke="black" fill="green"/>
  <circle cx="451.978" cy="389.544" r="2.23267" stroke-width="0.5" stroke="black" fill="black"/>
   </g>
   <g id="cell28">
  <circle cx="442.667" cy="551.563" r="8.41271" stroke-width="0.5" stroke="black" fill="green"/>
  <circle cx="442.667" cy="551.563" r="5.05167" stroke-width="0.5" stroke="black" fill="green"/>
   </g>
   <g id="cell29">
  <circle cx="466.599" cy="517.566" r="8.4101" stroke-width="0.5" stroke="black" fill="green"/>
  <circle cx="466.599" cy="517.566" r="5.05097" stroke-width="0.5" stroke="black" fill="green"/>
   </g>
   <g id="cell30">
  <circle cx="481.16" cy="539.481" r="8.41271" stroke-width="0.5" stroke="black" fill="green"/>
  <circle cx="481.16" cy="539.481" r="5.05167" stroke-width="0.5" stroke="black" fill="green"/>
   </g>
   <g id="cell31">
  <circle cx="407.712" cy="530.98" r="7.83019" stroke-width="0.5" stroke="black" fill="green"/>
  <circle cx="407.712" cy="530.98" r="4.75343" stroke-width="0.5" stroke="black" fill="green"/>
   </g>
   <g id="cell32">
  <circle cx="425.606" cy="455.86" r="8.29981" stroke-width="0.5" stroke="black" fill="green"/>
  <circle cx="425.606" cy="455.86" r="5.00431" stroke-width="0.5" stroke="black" fill="green"/>
   </g>
   <g id="cell33">
  <circle cx="498.022" cy="413.252" r="8.41251" stroke-width="0.5" stroke="black" fill="green"/>
  <circle cx="498.022" cy="413.252" r="5.05163" stroke-width="0.5" stroke="black" fill="green"/>
   </g>
   <g id="cell34">
  <circle cx="391.838" cy="454.621" r="8.41246" stroke-width="0.5" stroke="black" fill="green"/>
  <circle cx="391.838" cy="454.621" r="5.05162" stroke-width="0.5" stroke="black" fill="green"/>
   </g>
   <g id="cell35">
  <circle cx="546.071" cy="558.919" r="8.41172" stroke-width="0.5" stroke="black" fill="green"/>
  <circle cx="546.071" cy="558.919" r="5.05142" stroke-width="0.5" stroke="black" fill="green"/>
   </g>
   <g id="cell36">
  <circle cx="392.01" cy="581.498" r="8.4076" stroke-width="0.5" stroke="black" fill="green"/>
  <circle cx="392.01" cy="581.498" r="5.05018" stroke-width="0.5" stroke="black" fill="green"/>
   </g>
   <g id="cell174">
  <circle cx="478.267" cy="618.65" r="8.17487" stroke-width="0.5" stroke="black" fill="green"/>
  <circle cx="478.267" cy="618.65" r="4.94233" stroke-width="0.5" stroke="black" fill="green"/>
   </g>
   <g id="cell38">
  <circle cx="525.934" cy="606.701" r="8.41232" stroke-width="0.5" stroke="black" fill="green"/>
  <circle cx="525.934" cy="606.701" r="5.05158" stroke-width="0.5" stroke="black" fill="green"/>
   </g>
   <g id="cell39">
  <circle cx="618.141" cy="499.507" r="8.21834" stroke-width="0.5" stroke="black" fill="green"/>
  <circle cx="618.141" cy="499.507" r="4.96447" stroke-width="0.5" stroke="black" fill="green"/>
   </g>
   <g id="cell40">
  <circle cx="483.492" cy="570.18" r="8.41271" stroke-width="0.5" stroke="black" fill="green"/>
  <circle cx="483.492" cy="570.18" r="5.05167" stroke-width="0.5" stroke="black" fill="green"/>
   </g>
   <g id="cell41">
  <circle cx="361.4" cy="481.515" r="8.41271" stroke-width="0.5" stroke="black" fill="green"/>
  <circle cx="361.4" cy="481.515" r="5.05167" stroke-width="0.5" stroke="black" fill="green"/>
   </g>
   <g id="cell176">
  <circle cx="470.177" cy="447.083" r="7.97168" stroke-width="0.5" stroke="black" fill="magenta"/>
  <circle cx="470.177" cy="447.083" r="4.84443" stroke-width="0.5" stroke="black" fill="magenta"/>
   </g>
   <g id="cell43">
  <circle cx="558.191" cy="445.615" r="8.41271" stroke-width="0.5" stroke="black" fill="green"/>
  <circle cx="558.191" cy="445.615" r="5.05167" stroke-width="0.5" stroke="black" fill="green"/>
   </g>
   <g id="cell44">
  <circle cx="488.672" cy="630.346" r="8.34687" stroke-width="0.5" stroke="black" fill="green"/>
  <circle cx="488.672" cy="630.346" r="5.02583" stroke-width="0.5" stroke="black" fill="green"/>
   </g>
   <g id="cell45">
  <circle cx="433.209" cy="564.261" r="8.1702" stroke-width="0.5" stroke="black" fill="green"/>
  <circle cx="433.209" cy="564.261" r="4.94732" stroke-width="0.5" stroke="black" fill="green"/>
   </g>
   <g id="cell46">
  <circle cx="519.941" cy="621.455" r="8.38497" stroke-width="0.5" stroke="black" fill="green"/>
  <circle cx="519.941" cy="621.455" r="5.04206" stroke-width="0.5" stroke="black" fill="green"/>
   </g>
   <g id="cell47">
  <circle cx="495.143" cy="512.283" r="8.41271" stroke-width="0.5" stroke="black" fill="green"/>
  <circle cx="495.143" cy="512.283" r="5.05167" stroke-width="0.5" stroke="black" fill="green"/>
   </g>
   <g id="cell48">
  <circle cx="566.393" cy="605.253" r="8.41271" stroke-width="0.5" stroke="black" fill="green"/>
  <circle cx="566.393" cy="605.253" r="5.05167" stroke-width="0.5" stroke="black" fill="green"/>
   </g>
   <g id="cell49">
  <circle cx="439.818" cy="388.79" r="7.71569" stroke-width="0.5" stroke="black" fill="green"/>
  <circle cx="439.818" cy="388.79" r="4.68844" stroke-width="0.5" stroke="black" fill="green"/>
   </g>
   <g id="cell50">
  <circle cx="508.086" cy="490.826" r="7.3803" stroke-width="0.5" stroke="black" fill="cyan"/>
  <circle cx="508.086" cy="490.826" r="4.51048" stroke-width="0.5" stroke="black" fill="cyan"/>
   </g>
   <g id="cell51">
  <circle cx="385.187" cy="603.85" r="8.3552" stroke-width="0.5" stroke="black" fill="cyan"/>
  <circle cx="385.187" cy="603.85" r="5.0299" stroke-width="0.5" stroke="black" fill="cyan"/>
   </g>
   <g id="cell120">
  <circle cx="418.917" cy="610.584" r="8.40895" stroke-width="0.5" stroke="black" fill="cyan"/>
  <circle cx="418.917" cy="610.584" r="5.05061" stroke-width="0.5" stroke="black" fill="cyan"/>
   </g>
   <g id="cell53">
  <circle cx="571.109" cy="436.134" r="8.41271" stroke-width="0.5" stroke="black" fill="cyan"/>
  <circle cx="571.109" cy="436.134" r="5.05167" stroke-width="0.5" stroke="black" fill="cyan"/>
   </g>
   <g id="cell54">
  <circle cx="487.016" cy="424.839" r="8.36592" stroke-width="0.5" stroke="black" fill="cyan"/>
  <circle cx="487.016" cy="424.839" r="5.03403" stroke-width="0.5" stroke="black" fill="cyan"/>
   </g>
   <g id="cell55">
  <circle cx="520.974" cy="477.327" r="8.41271" stroke-width="0.5" stroke="black" fill="cyan"/>
  <circle cx="520.974" cy="477.327" r="5.05167" stroke-width="0.5" stroke="black" fill="cyan"/>
   </g>
   <g id="cell56">
  <circle cx="621.798" cy="519.673" r="7.4066" stroke-width="0.5" stroke="black" fill="cyan"/>
  <circle cx="621.798" cy="519.673" r="4.53083" stroke-width="0.5" stroke="black" fill="cyan"/>
   </g>
   <g id="cell57">
  <circle cx="418.484" cy="626.594" r="8.40895" stroke-width="0.5" stroke="black" fill="cyan"/>
  <circle cx="418.484" cy="626.594" r="5.05061" stroke-width="0.5" stroke="black" fill="cyan"/>
   </g>
   <g id="cell58">
  <circle cx="549.654" cy="484.175" r="8.41271" stroke-width="0.5" stroke="black" fill="cyan"/>
  <circle cx="549.654" cy="484.175" r="5.05167" stroke-width="0.5" stroke="black" fill="cyan"/>
   </g>
   <g id="cell59">
  <circle cx="385.491" cy="439.905" r="8.41271" stroke-width="0.5" stroke="black" fill="cyan"/>
  <circle cx="385.491" cy="439.905" r="5.05167" stroke-width="0.5" stroke="black" fill="cyan"/>
   </g>
   <g id="cell60">
  <circle cx="602.446" cy="471.154" r="7.63421" stroke-width="0.5" stroke="black" fill="cyan"/>
  <circle cx="602.446" cy="471.154" r="4.63999" stroke-width="0.5" stroke="black" fill="cyan"/>
   </g>
   <g id="cell155">
  <circle cx="518.925" cy="591.885" r="8.30413" stroke-width="0.5" stroke="black" fill="magenta"/>
  <circle cx="518.925" cy="591.885" r="5.00871" stroke-width="0.5" stroke="black" fill="magenta"/>
   </g>
   <g id="cell62">
  <circle cx="523.54" cy="436.521" r="8.41271" stroke-width="0.5" stroke="black" fill="cyan"/>
  <circle cx="523.54" cy="436.521" r="5.05167" stroke-width="0.5" stroke="black" fill="cyan"/>
   </g>
   <g id="cell63">
  <circle cx="581.906" cy="554.327" r="8.41232" stroke-width="0.5" stroke="black" fill="cyan"/>
  <circle cx="581.906" cy="554.327" r="5.05158" stroke-width="0.5" stroke="black" fill="cyan"/>
   </g>
   <g id="cell64">
  <circle cx="510.025" cy="633.728" r="8.40774" stroke-width="0.5" stroke="black" fill="cyan"/>
  <circle cx="510.025" cy="633.728" r="5.05022" stroke-width="0.5" stroke="black" fill="cyan"/>
   </g>
   <g id="cell65">
  <circle cx="534.099" cy="448.677" r="8.27864" stroke-width="0.5" stroke="black" fill="cyan"/>
  <circle cx="534.099" cy="448.677" r="4.99424" stroke-width="0.5" stroke="black" fill="cyan"/>
   </g>
   <g id="cell66">
  <circle cx="550.466" cy="522.007" r="8.40915" stroke-width="0.5" stroke="black" fill="cyan"/>
  <circle cx="550.466" cy="522.007" r="5.05067" stroke-width="0.5" stroke="black" fill="cyan"/>
   </g>
   <g id="cell67">
  <circle cx="353.342" cy="495.193" r="8.41271" stroke-width="0.5" stroke="black" fill="cyan"/>
  <circle cx="353.342" cy="495.193" r="5.05167" stroke-width="0.5" stroke="black" fill="cyan"/>
   </g>
   <g id="cell68">
  <circle cx="567.185" cy="553.566" r="7.21189" stroke-width="0.5" stroke="black" fill="cyan"/>
  <circle cx="567.185" cy="553.566" r="4.37993" stroke-width="0.5" stroke="black" fill="cyan"/>
   </g>
   <g id="cell69">
  <circle cx="440.521" cy="442.425" r="8.41263" stroke-width="0.5" stroke="black" fill="cyan"/>
  <circle cx="440.521" cy="442.425" r="5.05166" stroke-width="0.5" stroke="black" fill="cyan"/>
   </g>
   <g id="cell70">
  <circle cx="573.493" cy="469.374" r="8.39834" stroke-width="0.5" stroke="black" fill="cyan"/>
  <circle cx="573.493" cy="469.374" r="5.04696" stroke-width="0.5" stroke="black" fill="cyan"/>
   </g>
   <g id="cell71">
  <circle cx="380.902" cy="528.085" r="6.93462" stroke-width="0.5" stroke="black" fill="cyan"/>
  <circle cx="380.902" cy="528.085" r="4.24945" stroke-width="0.5" stroke="black" fill="black"/>
   </g>
   <g id="cell72">
  <circle cx="537.688" cy="512.633" r="8.41271" stroke-width="0.5" stroke="black" fill="cyan"/>
  <circle cx="537.688" cy="512.633" r="5.05167" stroke-width="0.5" stroke="black" fill="cyan"/>
   </g>
   <g id="cell129">
  <circle cx="417.383" cy="404.658" r="8.4045" stroke-width="0.5" stroke="black" fill="green"/>
  <circle cx="417.383" cy="404.658" r="5.04914" stroke-width="0.5" stroke="black" fill="green"/>
   </g>
   <g id="cell74">
  <circle cx="541.806" cy="443.469" r="1.47065" stroke-width="0.5" stroke="black" fill="cyan"/>
  <circle cx="541.806" cy="443.469" r="1.45328" stroke-width="0.5" stroke="black" fill="black"/>
   </g>
   <g id="cell75">
  <circle cx="441.822" cy="481.396" r="7.58335" stroke-width="0.5" stroke="black" fill="cyan"/>
  <circle cx="441.822" cy="481.396" r="4.63682" stroke-width="0.5" stroke="black" fill="cyan"/>
   </g>
   <g id="cell76">
  <circle cx="510.717" cy="378.123" r="7.84647" stroke-width="0.5" stroke="black" fill="magenta"/>
  <circle cx="510.717" cy="378.123" r="4.76283" stroke-width="0.5" stroke="black" fill="magenta"/>
   </g>
   <g id="cell77">
  <circle cx="502.041" cy="428.24" r="8.38004" stroke-width="0.5" stroke="black" fill="magenta"/>
  <circle cx="502.041" cy="428.24" r="5.04003" stroke-width="0.5" stroke="black" fill="magenta"/>
   </g>
   <g id="cell78">
  <circle cx="371.611" cy="457.237" r="6.89669" stroke-width="0.5" stroke="black" fill="magenta"/>
  <circle cx="371.611" cy="457.237" r="4.17022" stroke-width="0.5" stroke="black" fill="magenta"/>
   </g>
   <g id="cell79">
  <circle cx="496.764" cy="527.935" r="8.41262" stroke-width="0.5" stroke="black" fill="magenta"/>
  <circle cx="496.764" cy="527.935" r="5.05165" stroke-width="0.5" stroke="black" fill="magenta"/>
   </g>
   <g id="cell80">
  <circle cx="607.375" cy="485.492" r="8.24909" stroke-width="0.5" stroke="black" fill="green"/>
  <circle cx="607.375" cy="485.492" r="4.9798" stroke-width="0.5" stroke="black" fill="green"/>
   </g>
   <g id="cell81">
  <circle cx="427.981" cy="506.371" r="8.40556" stroke-width="0.5" stroke="black" fill="green"/>
  <circle cx="427.981" cy="506.371" r="5.04955" stroke-width="0.5" stroke="black" fill="green"/>
   </g>
   <g id="cell82">
  <circle cx="543.726" cy="498.24" r="8.4126" stroke-width="0.5" stroke="black" fill="magenta"/>
  <circle cx="543.726" cy="498.24" r="5.05165" stroke-width="0.5" stroke="black" fill="magenta"/>
   </g>
   <g id="cell130">
  <circle cx="573.513" cy="393.728" r="8.40403" stroke-width="0.5" stroke="black" fill="magenta"/>
  <circle cx="573.513" cy="393.728" r="5.04898" stroke-width="0.5" stroke="black" fill="magenta"/>
   </g>
   <g id="cell84">
  <circle cx="404.767" cy="484.116" r="8.41066" stroke-width="0.5" stroke="black" fill="green"/>
  <circle cx="404.767" cy="484.116" r="5.05114" stroke-width="0.5" stroke="black" fill="green"/>
   </g>
   <g id="cell140">
  <circle cx="526.191" cy="579.641" r="8.37088" stroke-width="0.5" stroke="black" fill="magenta"/>
  <circle cx="526.191" cy="579.641" r="5.03708" stroke-width="0.5" stroke="black" fill="magenta"/>
   </g>
   <g id="cell86">
  <circle cx="391.798" cy="566.304" r="8.41081" stroke-width="0.5" stroke="black" fill="magenta"/>
  <circle cx="391.798" cy="566.304" r="5.05118" stroke-width="0.5" stroke="black" fill="magenta"/>
   </g>
   <g id="cell87">
  <circle cx="433.824" cy="521.311" r="8.34898" stroke-width="0.5" stroke="black" fill="green"/>
  <circle cx="433.824" cy="521.311" r="5.027" stroke-width="0.5" stroke="black" fill="green"/>
   </g>
   <g id="cell88">
  <circle cx="475.877" cy="604.87" r="6.78581" stroke-width="0.5" stroke="black" fill="green"/>
  <circle cx="475.877" cy="604.87" r="4.13286" stroke-width="0.5" stroke="black" fill="green"/>
   </g>
   <g id="cell89">
  <circle cx="430.912" cy="490.89" r="8.41179" stroke-width="0.5" stroke="black" fill="green"/>
  <circle cx="430.912" cy="490.89" r="5.05145" stroke-width="0.5" stroke="black" fill="green"/>
   </g>
   <g id="cell90">
  <circle cx="579.793" cy="513.13" r="8.33466" stroke-width="0.5" stroke="black" fill="magenta"/>
  <circle cx="579.793" cy="513.13" r="5.02039" stroke-width="0.5" stroke="black" fill="magenta"/>
   </g>
   <g id="cell136">
  <circle cx="524.703" cy="540.076" r="8.39571" stroke-width="0.5" stroke="black" fill="magenta"/>
  <circle cx="524.703" cy="540.076" r="5.04599" stroke-width="0.5" stroke="black" fill="magenta"/>
   </g>
   <g id="cell92">
  <circle cx="560.595" cy="590.222" r="8.41057" stroke-width="0.5" stroke="black" fill="green"/>
  <circle cx="560.595" cy="590.222" r="5.05112" stroke-width="0.5" stroke="black" fill="green"/>
   </g>
   <g id="cell93">
  <circle cx="578.891" cy="527.514" r="7.56177" stroke-width="0.5" stroke="black" fill="cyan"/>
  <circle cx="578.891" cy="527.514" r="4.59777" stroke-width="0.5" stroke="black" fill="cyan"/>
   </g>
   <g id="cell94">
  <circle cx="540.771" cy="471.292" r="8.4123" stroke-width="0.5" stroke="black" fill="cyan"/>
  <circle cx="540.771" cy="471.292" r="5.05158" stroke-width="0.5" stroke="black" fill="cyan"/>
   </g>
   <g id="cell95">
  <circle cx="466.897" cy="533.108" r="8.4123" stroke-width="0.5" stroke="black" fill="magenta"/>
  <circle cx="466.897" cy="533.108" r="5.05158" stroke-width="0.5" stroke="black" fill="magenta"/>
   </g>
   <g id="cell96">
  <circle cx="538.758" cy="383.466" r="8.41221" stroke-width="0.5" stroke="black" fill="magenta"/>
  <circle cx="538.758" cy="383.466" r="5.05156" stroke-width="0.5" stroke="black" fill="magenta"/>
   </g>
   <g id="cell97">
  <circle cx="564.934" cy="510.499" r="8.41214" stroke-width="0.5" stroke="black" fill="magenta"/>
  <circle cx="564.934" cy="510.499" r="5.05154" stroke-width="0.5" stroke="black" fill="magenta"/>
   </g>
   <g id="cell98">
  <circle cx="405.733" cy="573.024" r="8.36559" stroke-width="0.5" stroke="black" fill="green"/>
  <circle cx="405.733" cy="573.024" r="5.03395" stroke-width="0.5" stroke="black" fill="green"/>
   </g>
   <g id="cell99">
  <circle cx="574.196" cy="498.539" r="8.41206" stroke-width="0.5" stroke="black" fill="magenta"/>
  <circle cx="574.196" cy="498.539" r="5.05151" stroke-width="0.5" stroke="black" fill="magenta"/>
   </g>
   <g id="cell100">
  <circle cx="569.394" cy="539.231" r="8.41182" stroke-width="0.5" stroke="black" fill="cyan"/>
  <circle cx="569.394" cy="539.231" r="5.05146" stroke-width="0.5" stroke="black" fill="cyan"/>
   </g>
   <g id="cell101">
  <circle cx="458.81" cy="628.894" r="7.61358" stroke-width="0.5" stroke="black" fill="magenta"/>
  <circle cx="458.81" cy="628.894" r="4.62731" stroke-width="0.5" stroke="black" fill="magenta"/>
   </g>
   <g id="cell102">
  <circle cx="444.16" cy="509.48" r="8.41179" stroke-width="0.5" stroke="black" fill="green"/>
  <circle cx="444.16" cy="509.48" r="5.05145" stroke-width="0.5" stroke="black" fill="green"/>
   </g>
   <g id="cell103">
  <circle cx="557.229" cy="617.867" r="8.18118" stroke-width="0.5" stroke="black" fill="green"/>
  <circle cx="557.229" cy="617.867" r="4.94569" stroke-width="0.5" stroke="black" fill="green"/>
   </g>
   <g id="cell104">
  <circle cx="553.262" cy="540.377" r="8.41172" stroke-width="0.5" stroke="black" fill="green"/>
  <circle cx="553.262" cy="540.377" r="5.05142" stroke-width="0.5" stroke="black" fill="green"/>
   </g>
   <g id="cell105">
  <circle cx="416.031" cy="495.015" r="8.41155" stroke-width="0.5" stroke="black" fill="green"/>
  <circle cx="416.031" cy="495.015" r="5.05138" stroke-width="0.5" stroke="black" fill="green"/>
   </g>
   <g id="cell106">
  <circle cx="649.3" cy="530.366" r="8.07594" stroke-width="0.5" stroke="black" fill="green"/>
  <circle cx="649.3" cy="530.366" r="4.8903" stroke-width="0.5" stroke="black" fill="green"/>
   </g>
   <g id="cell107">
  <circle cx="383.24" cy="512.198" r="8.41129" stroke-width="0.5" stroke="black" fill="cyan"/>
  <circle cx="383.24" cy="512.198" r="5.05131" stroke-width="0.5" stroke="black" fill="cyan"/>
   </g>
   <g id="cell108">
  <circle cx="461.016" cy="643.139" r="8.41089" stroke-width="0.5" stroke="black" fill="magenta"/>
  <circle cx="461.016" cy="643.139" r="5.05121" stroke-width="0.5" stroke="black" fill="magenta"/>
   </g>
   <g id="cell109">
  <circle cx="447.066" cy="637.269" r="8.41089" stroke-width="0.5" stroke="black" fill="magenta"/>
  <circle cx="447.066" cy="637.269" r="5.05121" stroke-width="0.5" stroke="black" fill="magenta"/>
   </g>
   <g id="cell110">
  <circle cx="538.247" cy="571.624" r="7.87729" stroke-width="0.5" stroke="black" fill="green"/>
  <circle cx="538.247" cy="571.624" r="4.78062" stroke-width="0.5" stroke="black" fill="green"/>
   </g>
   <g id="cell111">
  <circle cx="627.696" cy="557.128" r="8.41057" stroke-width="0.5" stroke="black" fill="green"/>
  <circle cx="627.696" cy="557.128" r="5.05112" stroke-width="0.5" stroke="black" fill="green"/>
   </g>
   <g id="cell112">
  <circle cx="378.318" cy="574.063" r="8.41081" stroke-width="0.5" stroke="black" fill="magenta"/>
  <circle cx="378.318" cy="574.063" r="5.05118" stroke-width="0.5" stroke="black" fill="magenta"/>
   </g>
   <g id="cell113">
  <circle cx="419.612" cy="479.448" r="8.41066" stroke-width="0.5" stroke="black" fill="green"/>
  <circle cx="419.612" cy="479.448" r="5.05114" stroke-width="0.5" stroke="black" fill="green"/>
   </g>
   <g id="cell114">
  <circle cx="499.386" cy="453.949" r="8.40072" stroke-width="0.5" stroke="black" fill="magenta"/>
  <circle cx="499.386" cy="453.949" r="5.04792" stroke-width="0.5" stroke="black" fill="magenta"/>
   </g>
   <g id="cell115">
  <circle cx="452.938" cy="525.971" r="8.4101" stroke-width="0.5" stroke="black" fill="green"/>
  <circle cx="452.938" cy="525.971" r="5.05097" stroke-width="0.5" stroke="black" fill="green"/>
   </g>
   <g id="cell116">
  <circle cx="368.609" cy="518.29" r="8.4093" stroke-width="0.5" stroke="black" fill="cyan"/>
  <circle cx="368.609" cy="518.29" r="5.05075" stroke-width="0.5" stroke="black" fill="cyan"/>
   </g>
   <g id="cell173">
  <circle cx="540.091" cy="609.529" r="7.69798" stroke-width="0.5" stroke="black" fill="green"/>
  <circle cx="540.091" cy="609.529" r="4.69241" stroke-width="0.5" stroke="black" fill="green"/>
   </g>
   <g id="cell118">
  <circle cx="523.125" cy="525.015" r="8.19282" stroke-width="0.5" stroke="black" fill="cyan"/>
  <circle cx="523.125" cy="525.015" r="4.95192" stroke-width="0.5" stroke="black" fill="cyan"/>
   </g>
   <g id="cell119">
  <circle cx="524.693" cy="639.914" r="8.37656" stroke-width="0.5" stroke="black" fill="green"/>
  <circle cx="524.693" cy="639.914" r="5.03869" stroke-width="0.5" stroke="black" fill="green"/>
   </g>
   <g id="cell121">
  <circle cx="390.926" cy="550.472" r="8.40838" stroke-width="0.5" stroke="black" fill="magenta"/>
  <circle cx="390.926" cy="550.472" r="5.05044" stroke-width="0.5" stroke="black" fill="magenta"/>
   </g>
   <g id="cell122">
  <circle cx="615.269" cy="458.204" r="8.26449" stroke-width="0.5" stroke="black" fill="cyan"/>
  <circle cx="615.269" cy="458.204" r="4.98779" stroke-width="0.5" stroke="black" fill="cyan"/>
   </g>
   <g id="cell123">
  <circle cx="499.055" cy="645.178" r="8.40774" stroke-width="0.5" stroke="black" fill="cyan"/>
  <circle cx="499.055" cy="645.178" r="5.05022" stroke-width="0.5" stroke="black" fill="cyan"/>
   </g>
   <g id="cell124">
  <circle cx="378.259" cy="589.494" r="8.4076" stroke-width="0.5" stroke="black" fill="green"/>
  <circle cx="378.259" cy="589.494" r="5.05018" stroke-width="0.5" stroke="black" fill="green"/>
   </g>
   <g id="cell125">
  <circle cx="456.19" cy="458.486" r="7.26879" stroke-width="0.5" stroke="black" fill="cyan"/>
  <circle cx="456.19" cy="458.486" r="4.41715" stroke-width="0.5" stroke="black" fill="cyan"/>
   </g>
   <g id="cell126">
  <circle cx="411.961" cy="509.915" r="8.40556" stroke-width="0.5" stroke="black" fill="green"/>
  <circle cx="411.961" cy="509.915" r="5.04955" stroke-width="0.5" stroke="black" fill="green"/>
   </g>
   <g id="cell127">
  <circle cx="413.473" cy="595.556" r="8.40557" stroke-width="0.5" stroke="black" fill="cyan"/>
  <circle cx="413.473" cy="595.556" r="5.04951" stroke-width="0.5" stroke="black" fill="cyan"/>
   </g>
   <g id="cell128">
  <circle cx="351.145" cy="537.791" r="8.00766" stroke-width="0.5" stroke="black" fill="cyan"/>
  <circle cx="351.145" cy="537.791" r="4.85426" stroke-width="0.5" stroke="black" fill="cyan"/>
   </g>
   <g id="cell131">
  <circle cx="584.254" cy="540.021" r="7.14229" stroke-width="0.5" stroke="black" fill="cyan"/>
  <circle cx="584.254" cy="540.021" r="4.33753" stroke-width="0.5" stroke="black" fill="cyan"/>
   </g>
   <g id="cell132">
  <circle cx="508.545" cy="441.839" r="8.40072" stroke-width="0.5" stroke="black" fill="magenta"/>
  <circle cx="508.545" cy="441.839" r="5.04792" stroke-width="0.5" stroke="black" fill="magenta"/>
   </g>
   <g id="cell133">
  <circle cx="534.836" cy="409.012" r="8.4009" stroke-width="0.5" stroke="black" fill="magenta"/>
  <circle cx="534.836" cy="409.012" r="5.04788" stroke-width="0.5" stroke="black" fill="magenta"/>
   </g>
   <g id="cell134">
  <circle cx="510.748" cy="579.495" r="8.38246" stroke-width="0.5" stroke="black" fill="magenta"/>
  <circle cx="510.748" cy="579.495" r="5.0413" stroke-width="0.5" stroke="black" fill="magenta"/>
   </g>
   <g id="cell135">
  <circle cx="564.82" cy="482.45" r="8.39834" stroke-width="0.5" stroke="black" fill="cyan"/>
  <circle cx="564.82" cy="482.45" r="5.04696" stroke-width="0.5" stroke="black" fill="cyan"/>
   </g>
   <g id="cell137">
  <circle cx="376.437" cy="477.388" r="8.39256" stroke-width="0.5" stroke="black" fill="magenta"/>
  <circle cx="376.437" cy="477.388" r="5.04481" stroke-width="0.5" stroke="black" fill="magenta"/>
   </g>
   <g id="cell138">
  <circle cx="533.747" cy="593.321" r="8.30413" stroke-width="0.5" stroke="black" fill="magenta"/>
  <circle cx="533.747" cy="593.321" r="5.00871" stroke-width="0.5" stroke="black" fill="magenta"/>
   </g>
   <g id="cell139">
  <circle cx="503.894" cy="610.955" r="6.68979" stroke-width="0.5" stroke="black" fill="green"/>
  <circle cx="503.894" cy="610.955" r="4.02679" stroke-width="0.5" stroke="black" fill="green"/>
   </g>
   <g id="cell142">
  <circle cx="582.746" cy="381.982" r="8.37591" stroke-width="0.5" stroke="black" fill="magenta"/>
  <circle cx="582.746" cy="381.982" r="5.03862" stroke-width="0.5" stroke="black" fill="magenta"/>
   </g>
   <g id="cell143">
  <circle cx="532.638" cy="628.085" r="6.901" stroke-width="0.5" stroke="black" fill="green"/>
  <circle cx="532.638" cy="628.085" r="4.18191" stroke-width="0.5" stroke="black" fill="green"/>
   </g>
   <g id="cell144">
  <circle cx="377.843" cy="543.274" r="8.37537" stroke-width="0.5" stroke="black" fill="magenta"/>
  <circle cx="377.843" cy="543.274" r="5.03798" stroke-width="0.5" stroke="black" fill="magenta"/>
   </g>
   <g id="cell145">
  <circle cx="456.014" cy="482.883" r="7.75456" stroke-width="0.5" stroke="black" fill="magenta"/>
  <circle cx="456.014" cy="482.883" r="4.71441" stroke-width="0.5" stroke="black" fill="magenta"/>
   </g>
   <g id="cell146">
  <circle cx="460.94" cy="419.653" r="8.36592" stroke-width="0.5" stroke="black" fill="cyan"/>
  <circle cx="460.94" cy="419.653" r="5.03403" stroke-width="0.5" stroke="black" fill="cyan"/>
   </g>
   <g id="cell148">
  <circle cx="401.065" cy="605.585" r="8.3552" stroke-width="0.5" stroke="black" fill="cyan"/>
  <circle cx="401.065" cy="605.585" r="5.0299" stroke-width="0.5" stroke="black" fill="cyan"/>
   </g>
   <g id="cell149">
  <circle cx="440.267" cy="535.69" r="8.34898" stroke-width="0.5" stroke="black" fill="green"/>
  <circle cx="440.267" cy="535.69" r="5.027" stroke-width="0.5" stroke="black" fill="green"/>
   </g>
   <g id="cell150">
  <circle cx="472.956" cy="633.259" r="8.34687" stroke-width="0.5" stroke="black" fill="green"/>
  <circle cx="472.956" cy="633.259" r="5.02583" stroke-width="0.5" stroke="black" fill="green"/>
   </g>
   <g id="cell151">
  <circle cx="522.101" cy="509.516" r="8.34511" stroke-width="0.5" stroke="black" fill="cyan"/>
  <circle cx="522.101" cy="509.516" r="5.02502" stroke-width="0.5" stroke="black" fill="cyan"/>
   </g>
   <g id="cell152">
  <circle cx="643.115" cy="553.003" r="8.33802" stroke-width="0.5" stroke="black" fill="green"/>
  <circle cx="643.115" cy="553.003" r="5.02207" stroke-width="0.5" stroke="black" fill="green"/>
   </g>
   <g id="cell153">
  <circle cx="395.487" cy="522.021" r="8.33228" stroke-width="0.5" stroke="black" fill="cyan"/>
  <circle cx="395.487" cy="522.021" r="5.01999" stroke-width="0.5" stroke="black" fill="cyan"/>
   </g>
   <g id="cell154">
  <circle cx="588.276" cy="501.862" r="7.8932" stroke-width="0.5" stroke="black" fill="magenta"/>
  <circle cx="588.276" cy="501.862" r="4.79603" stroke-width="0.5" stroke="black" fill="magenta"/>
   </g>
   <g id="cell156">
  <circle cx="403.847" cy="557.563" r="8.20314" stroke-width="0.5" stroke="black" fill="green"/>
  <circle cx="403.847" cy="557.563" r="4.96129" stroke-width="0.5" stroke="black" fill="green"/>
   </g>
   <g id="cell157">
  <circle cx="391.366" cy="477.123" r="8.29586" stroke-width="0.5" stroke="black" fill="magenta"/>
  <circle cx="391.366" cy="477.123" r="5.00373" stroke-width="0.5" stroke="black" fill="magenta"/>
   </g>
   <g id="cell158">
  <circle cx="432.017" cy="470.224" r="8.23901" stroke-width="0.5" stroke="black" fill="green"/>
  <circle cx="432.017" cy="470.224" r="4.97857" stroke-width="0.5" stroke="black" fill="green"/>
   </g>
   <g id="cell159">
  <circle cx="441.273" cy="457.959" r="8.23901" stroke-width="0.5" stroke="black" fill="green"/>
  <circle cx="441.273" cy="457.959" r="4.97857" stroke-width="0.5" stroke="black" fill="green"/>
   </g>
   <g id="cell160">
  <circle cx="418.247" cy="561.183" r="8.22401" stroke-width="0.5" stroke="black" fill="green"/>
  <circle cx="418.247" cy="561.183" r="4.97142" stroke-width="0.5" stroke="black" fill="green"/>
   </g>
   <g id="cell161">
  <circle cx="527.371" cy="462.945" r="8.27864" stroke-width="0.5" stroke="black" fill="cyan"/>
  <circle cx="527.371" cy="462.945" r="4.99424" stroke-width="0.5" stroke="black" fill="cyan"/>
   </g>
   <g id="cell162">
  <circle cx="617.291" cy="473.703" r="8.26449" stroke-width="0.5" stroke="black" fill="cyan"/>
  <circle cx="617.291" cy="473.703" r="4.98779" stroke-width="0.5" stroke="black" fill="cyan"/>
   </g>
   <g id="cell163">
  <circle cx="427.479" cy="549.059" r="8.1702" stroke-width="0.5" stroke="black" fill="green"/>
  <circle cx="427.479" cy="549.059" r="4.94732" stroke-width="0.5" stroke="black" fill="green"/>
   </g>
   <g id="cell164">
  <circle cx="464.436" cy="470.468" r="8.26396" stroke-width="0.5" stroke="black" fill="cyan"/>
  <circle cx="464.436" cy="470.468" r="4.98762" stroke-width="0.5" stroke="black" fill="cyan"/>
   </g>
   <g id="cell165">
  <circle cx="412.641" cy="545.142" r="8.20314" stroke-width="0.5" stroke="black" fill="green"/>
  <circle cx="412.641" cy="545.142" r="4.96129" stroke-width="0.5" stroke="black" fill="green"/>
   </g>
   <g id="cell166">
  <circle cx="602.63" cy="500.245" r="8.24909" stroke-width="0.5" stroke="black" fill="green"/>
  <circle cx="602.63" cy="500.245" r="4.9798" stroke-width="0.5" stroke="black" fill="green"/>
   </g>
   <g id="cell167">
  <circle cx="466.864" cy="387.289" r="8.24914" stroke-width="0.5" stroke="black" fill="green"/>
  <circle cx="466.864" cy="387.289" r="4.97981" stroke-width="0.5" stroke="black" fill="green"/>
   </g>
   <g id="cell168">
  <circle cx="520.027" cy="406.614" r="8.23824" stroke-width="0.5" stroke="black" fill="magenta"/>
  <circle cx="520.027" cy="406.614" r="4.97547" stroke-width="0.5" stroke="black" fill="magenta"/>
   </g>
   <g id="cell169">
  <circle cx="466.488" cy="433.615" r="7.44229" stroke-width="0.5" stroke="black" fill="magenta"/>
  <circle cx="466.488" cy="433.615" r="4.55581" stroke-width="0.5" stroke="black" fill="magenta"/>
   </g>
   <g id="cell170">
  <circle cx="628.928" cy="488.241" r="8.21834" stroke-width="0.5" stroke="black" fill="green"/>
  <circle cx="628.928" cy="488.241" r="4.96447" stroke-width="0.5" stroke="black" fill="green"/>
   </g>
   <g id="cell171">
  <circle cx="537.291" cy="530.629" r="8.19282" stroke-width="0.5" stroke="black" fill="cyan"/>
  <circle cx="537.291" cy="530.629" r="4.95192" stroke-width="0.5" stroke="black" fill="cyan"/>
   </g>
   <g id="cell172">
  <circle cx="509.218" cy="519.044" r="8.14617" stroke-width="0.5" stroke="black" fill="cyan"/>
  <circle cx="509.218" cy="519.044" r="4.93171" stroke-width="0.5" stroke="black" fill="cyan"/>
   </g>
   <g id="cell175">
  <circle cx="638.503" cy="539.367" r="6.91838" stroke-width="0.5" stroke="black" fill="green"/>
  <circle cx="638.503" cy="539.367" r="4.22788" stroke-width="0.5" stroke="black" fill="green"/>
   </g>
   <g id="cell177">
  <circle cx="366.407" cy="533.56" r="8.00766" stroke-width="0.5" stroke="black" fill="cyan"/>
  <circle cx="366.407" cy="533.56" r="4.85426" stroke-width="0.5" stroke="black" fill="cyan"/>
   </g>
   <g id="cell178">
  <circle cx="484.313" cy="450.633" r="7.9062" stroke-width="0.5" stroke="black" fill="magenta"/>
  <circle cx="484.313" cy="450.633" r="4.80898" stroke-width="0.5" stroke="black" fill="magenta"/>
   </g>
   <g id="cell179">
  <circle cx="447.231" cy="494.563" r="7.88125" stroke-width="0.5" stroke="black" fill="cyan"/>
  <circle cx="447.231" cy="494.563" r="4.79292" stroke-width="0.5" stroke="black" fill="cyan"/>
   </g>
   <g id="cell180">
  <circle cx="593.116" cy="488.785" r="7.8932" stroke-width="0.5" stroke="black" fill="magenta"/>
  <circle cx="593.116" cy="488.785" r="4.79603" stroke-width="0.5" stroke="black" fill="magenta"/>
   </g>
   <g id="cell181">
  <circle cx="545.745" cy="584.164" r="7.87729" stroke-width="0.5" stroke="black" fill="green"/>
  <circle cx="545.745" cy="584.164" r="4.78062" stroke-width="0.5" stroke="black" fill="green"/>
   </g>
   <g id="cell182">
  <circle cx="449.561" cy="470.238" r="7.58335" stroke-width="0.5" stroke="black" fill="cyan"/>
  <circle cx="449.561" cy="470.238" r="4.63682" stroke-width="0.5" stroke="black" fill="cyan"/>
   </g>
   <g id="cell183">
  <circle cx="524.301" cy="381.588" r="7.84647" stroke-width="0.5" stroke="black" fill="magenta"/>
  <circle cx="524.301" cy="381.588" r="4.76283" stroke-width="0.5" stroke="black" fill="magenta"/>
   </g>
   <g id="cell184">
  <circle cx="548.008" cy="598.213" r="7.69798" stroke-width="0.5" stroke="black" fill="green"/>
  <circle cx="548.008" cy="598.213" r="4.69241" stroke-width="0.5" stroke="black" fill="green"/>
   </g>
   <g id="cell185">
  <circle cx="419.189" cy="522.488" r="7.42577" stroke-width="0.5" stroke="black" fill="green"/>
  <circle cx="419.189" cy="522.488" r="4.54177" stroke-width="0.5" stroke="black" fill="green"/>
   </g>
   <g id="cell186">
  <circle cx="606.281" cy="524.888" r="7.31949" stroke-width="0.5" stroke="black" fill="cyan"/>
  <circle cx="606.281" cy="524.888" r="4.48032" stroke-width="0.5" stroke="black" fill="cyan"/>
   </g>
   <g id="cell187">
  <circle cx="469.975" cy="484.02" r="7.75456" stroke-width="0.5" stroke="black" fill="magenta"/>
  <circle cx="469.975" cy="484.02" r="4.71441" stroke-width="0.5" stroke="black" fill="magenta"/>
   </g>
   <g id="cell188">
  <circle cx="617.419" cy="532.873" r="7.4066" stroke-width="0.5" stroke="black" fill="cyan"/>
  <circle cx="617.419" cy="532.873" r="4.53083" stroke-width="0.5" stroke="black" fill="cyan"/>
   </g>
   <g id="cell189">
  <circle cx="425.547" cy="534.598" r="7.42577" stroke-width="0.5" stroke="black" fill="green"/>
  <circle cx="425.547" cy="534.598" r="4.54177" stroke-width="0.5" stroke="black" fill="green"/>
   </g>
   <g id="cell190">
  <circle cx="432.308" cy="401.31" r="7.71569" stroke-width="0.5" stroke="black" fill="green"/>
  <circle cx="432.308" cy="401.31" r="4.68844" stroke-width="0.5" stroke="black" fill="green"/>
   </g>
   <g id="cell191">
  <circle cx="479.849" cy="437.404" r="7.44229" stroke-width="0.5" stroke="black" fill="magenta"/>
  <circle cx="479.849" cy="437.404" r="4.55581" stroke-width="0.5" stroke="black" fill="magenta"/>
   </g>
   <g id="cell192">
  <circle cx="610.313" cy="512.107" r="7.31949" stroke-width="0.5" stroke="black" fill="cyan"/>
  <circle cx="610.313" cy="512.107" r="4.48032" stroke-width="0.5" stroke="black" fill="cyan"/>
   </g>
   <g id="cell193">
  <circle cx="588.219" cy="472.25" r="7.63421" stroke-width="0.5" stroke="black" fill="cyan"/>
  <circle cx="588.219" cy="472.25" r="4.63999" stroke-width="0.5" stroke="black" fill="cyan"/>
   </g>
   <g id="cell194">
  <circle cx="446.53" cy="622.857" r="7.61358" stroke-width="0.5" stroke="black" fill="magenta"/>
  <circle cx="446.53" cy="622.857" r="4.62731" stroke-width="0.5" stroke="black" fill="magenta"/>
   </g>
   <g id="cell195">
  <circle cx="564.999" cy="525.01" r="7.56177" stroke-width="0.5" stroke="black" fill="cyan"/>
  <circle cx="564.999" cy="525.01" r="4.59777" stroke-width="0.5" stroke="black" fill="cyan"/>
   </g>
   <g id="cell196">
  <circle cx="508.09" cy="504.635" r="7.3803" stroke-width="0.5" stroke="black" fill="cyan"/>
  <circle cx="508.09" cy="504.635" r="4.51048" stroke-width="0.5" stroke="black" fill="cyan"/>
   </g>
   <g id="cell197">
  <circle cx="456.286" cy="445.272" r="7.26879" stroke-width="0.5" stroke="black" fill="cyan"/>
  <circle cx="456.286" cy="445.272" r="4.41715" stroke-width="0.5" stroke="black" fill="cyan"/>
   </g>
   <g id="cell198">
  <circle cx="559.49" cy="564.606" r="7.21189" stroke-width="0.5" stroke="black" fill="cyan"/>
  <circle cx="559.49" cy="564.606" r="4.37993" stroke-width="0.5" stroke="black" fill="cyan"/>
   </g>
   <g id="cell199">
  <circle cx="626.083" cy="542.888" r="6.91838" stroke-width="0.5" stroke="black" fill="green"/>
  <circle cx="626.083" cy="542.888" r="4.22788" stroke-width="0.5" stroke="black" fill="green"/>
   </g>
   <g id="cell200">
  <circle cx="595.204" cy="532.33" r="7.14229" stroke-width="0.5" stroke="black" fill="cyan"/>
  <circle cx="595.204" cy="532.33" r="4.33753" stroke-width="0.5" stroke="black" fill="cyan"/>
   </g>
   <g id="cell201">
  <circle cx="395.214" cy="494.43" r="7.00424" stroke-width="0.5" stroke="black" fill="magenta"/>
  <circle cx="395.214" cy="494.43" r="4.26409" stroke-width="0.5" stroke="black" fill="magenta"/>
   </g>
   <g id="cell202">
  <circle cx="481.138" cy="593.251" r="6.78581" stroke-width="0.5" stroke="black" fill="green"/>
  <circle cx="481.138" cy="593.251" r="4.13286" stroke-width="0.5" stroke="black" fill="green"/>
   </g>
   <g id="cell203">
  <circle cx="543.978" cy="622.343" r="6.901" stroke-width="0.5" stroke="black" fill="green"/>
  <circle cx="543.978" cy="622.343" r="4.18191" stroke-width="0.5" stroke="black" fill="green"/>
   </g>
   <g id="cell204">
  <circle cx="366.26" cy="468.315" r="6.89669" stroke-width="0.5" stroke="black" fill="magenta"/>
  <circle cx="366.26" cy="468.315" r="4.17022" stroke-width="0.5" stroke="black" fill="magenta"/>
   </g>
   <g id="cell205">
  <circle cx="512.898" cy="603.28" r="6.68979" stroke-width="0.5" stroke="black" fill="green"/>
  <circle cx="512.898" cy="603.28" r="4.02679" stroke-width="0.5" stroke="black" fill="green"/>
   </g>
   <g id="cell206">
  <circle cx="368.829" cy="553.35" r="6.66339" stroke-width="0.5" stroke="black" fill="magenta"/>
  <circle cx="368.829" cy="553.35" r="4.0097" stroke-width="0.5" stroke="black" fill="magenta"/>
   </g>
  </g>
 </g>
  <rect x="775" y="1035" width="200" height="10" stroke-width="2" stroke="rgb(255,255,255)" fill="rgb(0,0,0)"/>
  <text x="781.25" y="1028.75"
   font-family="Arial" font-size="25" fill="black" >
   200 &#956;m
  </text>
  <text x="25" y="1045"
   font-family="Arial" font-size="18.75" fill="black" >
   0 days, 0 hours, 0 minutes, and 49.5108 seconds
  </text>
  <rect x="0" y="70" width="1000" height="1000" stroke-width="2" stroke="rgb(0,0,0)" fill="none"/>
</svg>
