<?xml version="1.0" encoding="UTF-8" standalone="no"?>
<!-- Created with PhysiCell (http://PhysiCell.MathCancer.org/) -->
<svg 
 xmlns:dc="http://purl.org/dc/elements/1.1/" 
 xmlns:cc="http://creativecommons.org/ns#" 
 xmlns:rdf="http://www.w3.org/1999/02/22-rdf-syntax-ns#" 
 xmlns:svg="http://www.w3.org/2000/svg" 
 xmlns="http://www.w3.org/2000/svg" 
 version="1.1" 
 width="1000" 
 height="1070" 
 id="svg2">
  <rect x="0" y="0" width="1000" height="1070" stroke-width="2" stroke="white" fill="white"/>
  <text x="12.5" y="30"
   font-family="Arial" font-size="25" fill="black" >
   Current time: 0 days, 6 hours, and 0.00 minutes, z = 0.00 &#956;m
  </text>
  <text x="12.5" y="57.5"
   font-family="Arial" font-size="23.75" fill="black" >
   94 agents
  </text>
 <g id="tissue" 
    transform="translate(0,1070) scale(1,-1)">
  <g id="ECM">
  </g>
  <g id="cells">
   <g id="cell0">
  <circle cx="521.565" cy="532.276" r="7.93688" stroke-width="0.5" stroke="black" fill="magenta"/>
  <circle cx="521.565" cy="532.276" r="4.81381" stroke-width="0.5" stroke="black" fill="magenta"/>
   </g>
   <g id="cell1">
  <circle cx="602.905" cy="527.18" r="8.41271" stroke-width="0.5" stroke="black" fill="magenta"/>
  <circle cx="602.905" cy="527.18" r="5.05167" stroke-width="0.5" stroke="black" fill="magenta"/>
   </g>
   <g id="cell2">
  <circle cx="510.858" cy="600.581" r="8.41271" stroke-width="0.5" stroke="black" fill="magenta"/>
  <circle cx="510.858" cy="600.581" r="5.05167" stroke-width="0.5" stroke="black" fill="magenta"/>
   </g>
   <g id="cell3">
  <circle cx="531.181" cy="543.433" r="8.41271" stroke-width="0.5" stroke="black" fill="magenta"/>
  <circle cx="531.181" cy="543.433" r="5.05167" stroke-width="0.5" stroke="black" fill="magenta"/>
   </g>
   <g id="cell4">
  <circle cx="473.431" cy="441.434" r="7.98892" stroke-width="0.5" stroke="black" fill="magenta"/>
  <circle cx="473.431" cy="441.434" r="4.84272" stroke-width="0.5" stroke="black" fill="magenta"/>
   </g>
   <g id="cell5">
  <circle cx="464.269" cy="493.151" r="8.41271" stroke-width="0.5" stroke="black" fill="magenta"/>
  <circle cx="464.269" cy="493.151" r="5.05167" stroke-width="0.5" stroke="black" fill="magenta"/>
   </g>
   <g id="cell6">
  <circle cx="596.879" cy="514.785" r="6.92764" stroke-width="0.5" stroke="black" fill="magenta"/>
  <circle cx="596.879" cy="514.785" r="4.1918" stroke-width="0.5" stroke="black" fill="magenta"/>
   </g>
   <g id="cell7">
  <circle cx="512.221" cy="464.823" r="8.41271" stroke-width="0.5" stroke="black" fill="magenta"/>
  <circle cx="512.221" cy="464.823" r="5.05167" stroke-width="0.5" stroke="black" fill="magenta"/>
   </g>
   <g id="cell8">
  <circle cx="376.396" cy="547.144" r="8.41271" stroke-width="0.5" stroke="black" fill="magenta"/>
  <circle cx="376.396" cy="547.144" r="5.05167" stroke-width="0.5" stroke="black" fill="magenta"/>
   </g>
   <g id="cell9">
  <circle cx="464.55" cy="600.968" r="6.86652" stroke-width="0.5" stroke="black" fill="magenta"/>
  <circle cx="464.55" cy="600.968" r="4.14883" stroke-width="0.5" stroke="black" fill="magenta"/>
   </g>
   <g id="cell10">
  <circle cx="583.447" cy="392.105" r="8.41271" stroke-width="0.5" stroke="black" fill="magenta"/>
  <circle cx="583.447" cy="392.105" r="5.05167" stroke-width="0.5" stroke="black" fill="magenta"/>
   </g>
   <g id="cell11">
  <circle cx="589.748" cy="590.273" r="8.41271" stroke-width="0.5" stroke="black" fill="magenta"/>
  <circle cx="589.748" cy="590.273" r="5.05167" stroke-width="0.5" stroke="black" fill="magenta"/>
   </g>
   <g id="cell12">
  <circle cx="506.662" cy="586.053" r="8.41271" stroke-width="0.5" stroke="black" fill="magenta"/>
  <circle cx="506.662" cy="586.053" r="5.05167" stroke-width="0.5" stroke="black" fill="magenta"/>
   </g>
   <g id="cell13">
  <circle cx="381.184" cy="561.339" r="7.11815" stroke-width="0.5" stroke="black" fill="magenta"/>
  <circle cx="381.184" cy="561.339" r="4.31954" stroke-width="0.5" stroke="black" fill="magenta"/>
   </g>
   <g id="cell14">
  <circle cx="526.457" cy="399.905" r="8.41271" stroke-width="0.5" stroke="black" fill="magenta"/>
  <circle cx="526.457" cy="399.905" r="5.05167" stroke-width="0.5" stroke="black" fill="magenta"/>
   </g>
   <g id="cell15">
  <circle cx="385.206" cy="477.98" r="7.96365" stroke-width="0.5" stroke="black" fill="magenta"/>
  <circle cx="385.206" cy="477.98" r="4.82873" stroke-width="0.5" stroke="black" fill="magenta"/>
   </g>
   <g id="cell16">
  <circle cx="428.96" cy="413.217" r="8.41271" stroke-width="0.5" stroke="black" fill="magenta"/>
  <circle cx="428.96" cy="413.217" r="5.05167" stroke-width="0.5" stroke="black" fill="magenta"/>
   </g>
   <g id="cell17">
  <circle cx="574.078" cy="489.756" r="8.41271" stroke-width="0.5" stroke="black" fill="magenta"/>
  <circle cx="574.078" cy="489.756" r="5.05167" stroke-width="0.5" stroke="black" fill="magenta"/>
   </g>
   <g id="cell18">
  <circle cx="513.999" cy="391.924" r="8.01277" stroke-width="0.5" stroke="black" fill="magenta"/>
  <circle cx="513.999" cy="391.924" r="4.85584" stroke-width="0.5" stroke="black" fill="magenta"/>
   </g>
   <g id="cell19">
  <circle cx="451.756" cy="535.365" r="8.41271" stroke-width="0.5" stroke="black" fill="magenta"/>
  <circle cx="451.756" cy="535.365" r="5.05167" stroke-width="0.5" stroke="black" fill="magenta"/>
   </g>
   <g id="cell20">
  <circle cx="530.39" cy="414.613" r="8.41271" stroke-width="0.5" stroke="black" fill="magenta"/>
  <circle cx="530.39" cy="414.613" r="5.05167" stroke-width="0.5" stroke="black" fill="magenta"/>
   </g>
   <g id="cell21">
  <circle cx="463.075" cy="635.398" r="8.41271" stroke-width="0.5" stroke="black" fill="magenta"/>
  <circle cx="463.075" cy="635.398" r="5.05167" stroke-width="0.5" stroke="black" fill="magenta"/>
   </g>
   <g id="cell22">
  <circle cx="559.88" cy="492.999" r="7.81315" stroke-width="0.5" stroke="black" fill="magenta"/>
  <circle cx="559.88" cy="492.999" r="4.74367" stroke-width="0.5" stroke="black" fill="magenta"/>
   </g>
   <g id="cell23">
  <circle cx="537.12" cy="481.706" r="8.41271" stroke-width="0.5" stroke="black" fill="magenta"/>
  <circle cx="537.12" cy="481.706" r="5.05167" stroke-width="0.5" stroke="black" fill="magenta"/>
   </g>
   <g id="cell24">
  <circle cx="559.288" cy="379.787" r="8.41271" stroke-width="0.5" stroke="black" fill="magenta"/>
  <circle cx="559.288" cy="379.787" r="5.05167" stroke-width="0.5" stroke="black" fill="magenta"/>
   </g>
   <g id="cell25">
  <circle cx="640.943" cy="550.03" r="8.41271" stroke-width="0.5" stroke="black" fill="green"/>
  <circle cx="640.943" cy="550.03" r="5.05167" stroke-width="0.5" stroke="black" fill="green"/>
   </g>
   <g id="cell26">
  <circle cx="550.641" cy="401.23" r="8.41271" stroke-width="0.5" stroke="black" fill="green"/>
  <circle cx="550.641" cy="401.23" r="5.05167" stroke-width="0.5" stroke="black" fill="green"/>
   </g>
   <g id="cell27">
  <circle cx="457.446" cy="388.678" r="8.41271" stroke-width="0.5" stroke="black" fill="green"/>
  <circle cx="457.446" cy="388.678" r="5.05167" stroke-width="0.5" stroke="black" fill="green"/>
   </g>
   <g id="cell28">
  <circle cx="436.322" cy="533.371" r="8.41271" stroke-width="0.5" stroke="black" fill="green"/>
  <circle cx="436.322" cy="533.371" r="5.05167" stroke-width="0.5" stroke="black" fill="green"/>
   </g>
   <g id="cell29">
  <circle cx="455.213" cy="521.528" r="7.0545" stroke-width="0.5" stroke="black" fill="green"/>
  <circle cx="455.213" cy="521.528" r="4.27772" stroke-width="0.5" stroke="black" fill="green"/>
   </g>
   <g id="cell30">
  <circle cx="481.58" cy="540.282" r="8.41271" stroke-width="0.5" stroke="black" fill="green"/>
  <circle cx="481.58" cy="540.282" r="5.05167" stroke-width="0.5" stroke="black" fill="green"/>
   </g>
   <g id="cell31">
  <circle cx="412.757" cy="541.193" r="8.41271" stroke-width="0.5" stroke="black" fill="green"/>
  <circle cx="412.757" cy="541.193" r="5.05167" stroke-width="0.5" stroke="black" fill="green"/>
   </g>
   <g id="cell32">
  <circle cx="428.485" cy="471.219" r="7.21189" stroke-width="0.5" stroke="black" fill="green"/>
  <circle cx="428.485" cy="471.219" r="4.37993" stroke-width="0.5" stroke="black" fill="green"/>
   </g>
   <g id="cell33">
  <circle cx="498.473" cy="414.35" r="7.3599" stroke-width="0.5" stroke="black" fill="green"/>
  <circle cx="498.473" cy="414.35" r="4.47294" stroke-width="0.5" stroke="black" fill="green"/>
   </g>
   <g id="cell34">
  <circle cx="392.448" cy="452.756" r="7.11815" stroke-width="0.5" stroke="black" fill="green"/>
  <circle cx="392.448" cy="452.756" r="4.31954" stroke-width="0.5" stroke="black" fill="green"/>
   </g>
   <g id="cell35">
  <circle cx="546.729" cy="545.062" r="8.41271" stroke-width="0.5" stroke="black" fill="green"/>
  <circle cx="546.729" cy="545.062" r="5.05167" stroke-width="0.5" stroke="black" fill="green"/>
   </g>
   <g id="cell36">
  <circle cx="391.051" cy="584.704" r="8.41271" stroke-width="0.5" stroke="black" fill="green"/>
  <circle cx="391.051" cy="584.704" r="5.05167" stroke-width="0.5" stroke="black" fill="green"/>
   </g>
   <g id="cell37">
  <circle cx="634.871" cy="460.618" r="8.41271" stroke-width="0.5" stroke="black" fill="green"/>
  <circle cx="634.871" cy="460.618" r="5.05167" stroke-width="0.5" stroke="black" fill="green"/>
   </g>
   <g id="cell38">
  <circle cx="532.702" cy="603.147" r="6.67717" stroke-width="0.5" stroke="black" fill="green"/>
  <circle cx="532.702" cy="603.147" r="4.00951" stroke-width="0.5" stroke="black" fill="green"/>
   </g>
   <g id="cell39">
  <circle cx="617.103" cy="494.026" r="7.90853" stroke-width="0.5" stroke="black" fill="green"/>
  <circle cx="617.103" cy="494.026" r="4.79791" stroke-width="0.5" stroke="black" fill="green"/>
   </g>
   <g id="cell40">
  <circle cx="485.348" cy="571.779" r="8.41271" stroke-width="0.5" stroke="black" fill="green"/>
  <circle cx="485.348" cy="571.779" r="5.05167" stroke-width="0.5" stroke="black" fill="green"/>
   </g>
   <g id="cell41">
  <circle cx="364.038" cy="480.171" r="8.41271" stroke-width="0.5" stroke="black" fill="green"/>
  <circle cx="364.038" cy="480.171" r="5.05167" stroke-width="0.5" stroke="black" fill="green"/>
   </g>
   <g id="cell42">
  <circle cx="451.004" cy="489.432" r="6.58471" stroke-width="0.5" stroke="black" fill="green"/>
  <circle cx="451.004" cy="489.432" r="4.02718" stroke-width="0.5" stroke="black" fill="green"/>
   </g>
   <g id="cell43">
  <circle cx="558.01" cy="445.568" r="8.41271" stroke-width="0.5" stroke="black" fill="green"/>
  <circle cx="558.01" cy="445.568" r="5.05167" stroke-width="0.5" stroke="black" fill="green"/>
   </g>
   <g id="cell44">
  <circle cx="475.397" cy="628.253" r="7.02257" stroke-width="0.5" stroke="black" fill="green"/>
  <circle cx="475.397" cy="628.253" r="4.25644" stroke-width="0.5" stroke="black" fill="green"/>
   </g>
   <g id="cell45">
  <circle cx="414.953" cy="557.066" r="8.41271" stroke-width="0.5" stroke="black" fill="green"/>
  <circle cx="414.953" cy="557.066" r="5.05167" stroke-width="0.5" stroke="black" fill="green"/>
   </g>
   <g id="cell46">
  <circle cx="522.045" cy="611.296" r="8.41271" stroke-width="0.5" stroke="black" fill="green"/>
  <circle cx="522.045" cy="611.296" r="5.05167" stroke-width="0.5" stroke="black" fill="green"/>
   </g>
   <g id="cell47">
  <circle cx="504.827" cy="508.777" r="8.41271" stroke-width="0.5" stroke="black" fill="green"/>
  <circle cx="504.827" cy="508.777" r="5.05167" stroke-width="0.5" stroke="black" fill="green"/>
   </g>
   <g id="cell48">
  <circle cx="564.51" cy="602.793" r="8.41271" stroke-width="0.5" stroke="black" fill="green"/>
  <circle cx="564.51" cy="602.793" r="5.05167" stroke-width="0.5" stroke="black" fill="green"/>
   </g>
   <g id="cell49">
  <circle cx="429.826" cy="397.641" r="8.41271" stroke-width="0.5" stroke="black" fill="green"/>
  <circle cx="429.826" cy="397.641" r="5.05167" stroke-width="0.5" stroke="black" fill="green"/>
   </g>
   <g id="cell50">
  <circle cx="518.238" cy="517.473" r="8.41271" stroke-width="0.5" stroke="black" fill="cyan"/>
  <circle cx="518.238" cy="517.473" r="5.05167" stroke-width="0.5" stroke="black" fill="cyan"/>
   </g>
   <g id="cell51">
  <circle cx="399.408" cy="598.399" r="8.41271" stroke-width="0.5" stroke="black" fill="cyan"/>
  <circle cx="399.408" cy="598.399" r="5.05167" stroke-width="0.5" stroke="black" fill="cyan"/>
   </g>
   <g id="cell52">
  <circle cx="523.203" cy="428.148" r="7.65539" stroke-width="0.5" stroke="black" fill="cyan"/>
  <circle cx="523.203" cy="428.148" r="4.62266" stroke-width="0.5" stroke="black" fill="black"/>
   </g>
   <g id="cell53">
  <circle cx="571.016" cy="436.204" r="8.41271" stroke-width="0.5" stroke="black" fill="cyan"/>
  <circle cx="571.016" cy="436.204" r="5.05167" stroke-width="0.5" stroke="black" fill="cyan"/>
   </g>
   <g id="cell54">
  <circle cx="479.231" cy="427.386" r="8.41271" stroke-width="0.5" stroke="black" fill="cyan"/>
  <circle cx="479.231" cy="427.386" r="5.05167" stroke-width="0.5" stroke="black" fill="cyan"/>
   </g>
   <g id="cell55">
  <circle cx="526.935" cy="469.957" r="8.41271" stroke-width="0.5" stroke="black" fill="cyan"/>
  <circle cx="526.935" cy="469.957" r="5.05167" stroke-width="0.5" stroke="black" fill="cyan"/>
   </g>
   <g id="cell56">
  <circle cx="617.722" cy="522.302" r="8.41271" stroke-width="0.5" stroke="black" fill="cyan"/>
  <circle cx="617.722" cy="522.302" r="5.05167" stroke-width="0.5" stroke="black" fill="cyan"/>
   </g>
   <g id="cell57">
  <circle cx="416.924" cy="617.466" r="8.41271" stroke-width="0.5" stroke="black" fill="cyan"/>
  <circle cx="416.924" cy="617.466" r="5.05167" stroke-width="0.5" stroke="black" fill="cyan"/>
   </g>
   <g id="cell58">
  <circle cx="552.603" cy="479.821" r="8.41271" stroke-width="0.5" stroke="black" fill="cyan"/>
  <circle cx="552.603" cy="479.821" r="5.05167" stroke-width="0.5" stroke="black" fill="cyan"/>
   </g>
   <g id="cell59">
  <circle cx="385.451" cy="439.768" r="8.41271" stroke-width="0.5" stroke="black" fill="cyan"/>
  <circle cx="385.451" cy="439.768" r="5.05167" stroke-width="0.5" stroke="black" fill="cyan"/>
   </g>
   <g id="cell60">
  <circle cx="593.745" cy="474.489" r="8.41271" stroke-width="0.5" stroke="black" fill="cyan"/>
  <circle cx="593.745" cy="474.489" r="5.05167" stroke-width="0.5" stroke="black" fill="cyan"/>
   </g>
   <g id="cell61">
  <circle cx="552.985" cy="613.925" r="8.41271" stroke-width="0.5" stroke="black" fill="cyan"/>
  <circle cx="552.985" cy="613.925" r="5.05167" stroke-width="0.5" stroke="black" fill="cyan"/>
   </g>
   <g id="cell62">
  <circle cx="526.149" cy="443.855" r="8.41271" stroke-width="0.5" stroke="black" fill="cyan"/>
  <circle cx="526.149" cy="443.855" r="5.05167" stroke-width="0.5" stroke="black" fill="cyan"/>
   </g>
   <g id="cell63">
  <circle cx="579.193" cy="550.376" r="6.67717" stroke-width="0.5" stroke="black" fill="cyan"/>
  <circle cx="579.193" cy="550.376" r="4.00951" stroke-width="0.5" stroke="black" fill="cyan"/>
   </g>
   <g id="cell64">
  <circle cx="509.962" cy="636.825" r="8.41271" stroke-width="0.5" stroke="black" fill="cyan"/>
  <circle cx="509.962" cy="636.825" r="5.05167" stroke-width="0.5" stroke="black" fill="cyan"/>
   </g>
   <g id="cell65">
  <circle cx="542.737" cy="467.17" r="8.41271" stroke-width="0.5" stroke="black" fill="cyan"/>
  <circle cx="542.737" cy="467.17" r="5.05167" stroke-width="0.5" stroke="black" fill="cyan"/>
   </g>
   <g id="cell66">
  <circle cx="536.311" cy="528.721" r="8.41271" stroke-width="0.5" stroke="black" fill="cyan"/>
  <circle cx="536.311" cy="528.721" r="5.05167" stroke-width="0.5" stroke="black" fill="cyan"/>
   </g>
   <g id="cell67">
  <circle cx="354.408" cy="492.966" r="8.41271" stroke-width="0.5" stroke="black" fill="cyan"/>
  <circle cx="354.408" cy="492.966" r="5.05167" stroke-width="0.5" stroke="black" fill="cyan"/>
   </g>
   <g id="cell68">
  <circle cx="561.778" cy="550.862" r="8.41271" stroke-width="0.5" stroke="black" fill="cyan"/>
  <circle cx="561.778" cy="550.862" r="5.05167" stroke-width="0.5" stroke="black" fill="cyan"/>
   </g>
   <g id="cell69">
  <circle cx="435.428" cy="458.61" r="8.02418" stroke-width="0.5" stroke="black" fill="cyan"/>
  <circle cx="435.428" cy="458.61" r="4.86209" stroke-width="0.5" stroke="black" fill="cyan"/>
   </g>
   <g id="cell70">
  <circle cx="577.749" cy="474.608" r="8.41271" stroke-width="0.5" stroke="black" fill="cyan"/>
  <circle cx="577.749" cy="474.608" r="5.05167" stroke-width="0.5" stroke="black" fill="cyan"/>
   </g>
   <g id="cell71">
  <circle cx="377.712" cy="520.989" r="8.41271" stroke-width="0.5" stroke="black" fill="cyan"/>
  <circle cx="377.712" cy="520.989" r="5.05167" stroke-width="0.5" stroke="black" fill="cyan"/>
   </g>
   <g id="cell72">
  <circle cx="533.557" cy="512.928" r="8.41271" stroke-width="0.5" stroke="black" fill="cyan"/>
  <circle cx="533.557" cy="512.928" r="5.05167" stroke-width="0.5" stroke="black" fill="cyan"/>
   </g>
   <g id="cell73">
  <circle cx="360.673" cy="545.936" r="8.41271" stroke-width="0.5" stroke="black" fill="cyan"/>
  <circle cx="360.673" cy="545.936" r="5.05167" stroke-width="0.5" stroke="black" fill="cyan"/>
   </g>
   <g id="cell74">
  <circle cx="542" cy="446.391" r="8.41271" stroke-width="0.5" stroke="black" fill="cyan"/>
  <circle cx="542" cy="446.391" r="5.05167" stroke-width="0.5" stroke="black" fill="cyan"/>
   </g>
   <g id="cell75">
  <circle cx="442.89" cy="472.005" r="8.02418" stroke-width="0.5" stroke="black" fill="cyan"/>
  <circle cx="442.89" cy="472.005" r="4.86209" stroke-width="0.5" stroke="black" fill="cyan"/>
   </g>
   <g id="cell76">
  <circle cx="526.698" cy="385.107" r="8.01277" stroke-width="0.5" stroke="black" fill="magenta"/>
  <circle cx="526.698" cy="385.107" r="4.85584" stroke-width="0.5" stroke="black" fill="magenta"/>
   </g>
   <g id="cell77">
  <circle cx="487.707" cy="440.094" r="7.98892" stroke-width="0.5" stroke="black" fill="magenta"/>
  <circle cx="487.707" cy="440.094" r="4.84272" stroke-width="0.5" stroke="black" fill="magenta"/>
   </g>
   <g id="cell78">
  <circle cx="374.159" cy="468.868" r="7.96365" stroke-width="0.5" stroke="black" fill="magenta"/>
  <circle cx="374.159" cy="468.868" r="4.82873" stroke-width="0.5" stroke="black" fill="magenta"/>
   </g>
   <g id="cell79">
  <circle cx="507.797" cy="528.408" r="7.93688" stroke-width="0.5" stroke="black" fill="magenta"/>
  <circle cx="507.797" cy="528.408" r="4.81381" stroke-width="0.5" stroke="black" fill="magenta"/>
   </g>
   <g id="cell80">
  <circle cx="606.09" cy="483.836" r="7.90853" stroke-width="0.5" stroke="black" fill="green"/>
  <circle cx="606.09" cy="483.836" r="4.79791" stroke-width="0.5" stroke="black" fill="green"/>
   </g>
   <g id="cell81">
  <circle cx="427.05" cy="499.281" r="7.84675" stroke-width="0.5" stroke="black" fill="green"/>
  <circle cx="427.05" cy="499.281" r="4.7629" stroke-width="0.5" stroke="black" fill="green"/>
   </g>
   <g id="cell82">
  <circle cx="545.875" cy="493.329" r="7.81315" stroke-width="0.5" stroke="black" fill="magenta"/>
  <circle cx="545.875" cy="493.329" r="4.74367" stroke-width="0.5" stroke="black" fill="magenta"/>
   </g>
   <g id="cell83">
  <circle cx="494.206" cy="427.559" r="7.3599" stroke-width="0.5" stroke="black" fill="green"/>
  <circle cx="494.206" cy="427.559" r="4.47294" stroke-width="0.5" stroke="black" fill="green"/>
   </g>
   <g id="cell84">
  <circle cx="418.958" cy="480.918" r="7.21189" stroke-width="0.5" stroke="black" fill="green"/>
  <circle cx="418.958" cy="480.918" r="4.37993" stroke-width="0.5" stroke="black" fill="green"/>
   </g>
   <g id="cell85">
  <circle cx="404.939" cy="447.636" r="7.11815" stroke-width="0.5" stroke="black" fill="green"/>
  <circle cx="404.939" cy="447.636" r="4.31954" stroke-width="0.5" stroke="black" fill="green"/>
   </g>
   <g id="cell86">
  <circle cx="390.79" cy="570.208" r="7.11815" stroke-width="0.5" stroke="black" fill="magenta"/>
  <circle cx="390.79" cy="570.208" r="4.31954" stroke-width="0.5" stroke="black" fill="magenta"/>
   </g>
   <g id="cell87">
  <circle cx="441.99" cy="519.878" r="7.0545" stroke-width="0.5" stroke="black" fill="green"/>
  <circle cx="441.99" cy="519.878" r="4.27772" stroke-width="0.5" stroke="black" fill="green"/>
   </g>
   <g id="cell88">
  <circle cx="478.89" cy="615.424" r="7.02257" stroke-width="0.5" stroke="black" fill="green"/>
  <circle cx="478.89" cy="615.424" r="4.25644" stroke-width="0.5" stroke="black" fill="green"/>
   </g>
   <g id="cell89">
  <circle cx="439.616" cy="494.18" r="6.58471" stroke-width="0.5" stroke="black" fill="green"/>
  <circle cx="439.616" cy="494.18" r="4.02718" stroke-width="0.5" stroke="black" fill="green"/>
   </g>
   <g id="cell90">
  <circle cx="590.827" cy="503.908" r="6.92764" stroke-width="0.5" stroke="black" fill="magenta"/>
  <circle cx="590.827" cy="503.908" r="4.1918" stroke-width="0.5" stroke="black" fill="magenta"/>
   </g>
   <g id="cell91">
  <circle cx="452.694" cy="597.531" r="6.86652" stroke-width="0.5" stroke="black" fill="magenta"/>
  <circle cx="452.694" cy="597.531" r="4.14883" stroke-width="0.5" stroke="black" fill="magenta"/>
   </g>
   <g id="cell92">
  <circle cx="543.725" cy="598.657" r="6.67717" stroke-width="0.5" stroke="black" fill="green"/>
  <circle cx="543.725" cy="598.657" r="4.00951" stroke-width="0.5" stroke="black" fill="green"/>
   </g>
   <g id="cell93">
  <circle cx="573.451" cy="539.4" r="6.67717" stroke-width="0.5" stroke="black" fill="cyan"/>
  <circle cx="573.451" cy="539.4" r="4.00951" stroke-width="0.5" stroke="black" fill="cyan"/>
   </g>
  </g>
 </g>
  <rect x="775" y="1035" width="200" height="10" stroke-width="2" stroke="rgb(255,255,255)" fill="rgb(0,0,0)"/>
  <text x="781.25" y="1028.75"
   font-family="Arial" font-size="25" fill="black" >
   200 &#956;m
  </text>
  <text x="25" y="1045"
   font-family="Arial" font-size="18.75" fill="black" >
   0 days, 0 hours, 0 minutes, and 7.8540 seconds
  </text>
  <rect x="0" y="70" width="1000" height="1000" stroke-width="2" stroke="rgb(0,0,0)" fill="none"/>
</svg>
