<?xml version="1.0" encoding="UTF-8" standalone="no"?>
<!-- Created with PhysiCell (http://PhysiCell.MathCancer.org/) -->
<svg 
 xmlns:dc="http://purl.org/dc/elements/1.1/" 
 xmlns:cc="http://creativecommons.org/ns#" 
 xmlns:rdf="http://www.w3.org/1999/02/22-rdf-syntax-ns#" 
 xmlns:svg="http://www.w3.org/2000/svg" 
 xmlns="http://www.w3.org/2000/svg" 
 version="1.1" 
 width="1000" 
 height="1070" 
 id="svg2">
  <rect x="0" y="0" width="1000" height="1070" stroke-width="2" stroke="white" fill="white"/>
  <text x="12.5" y="30"
   font-family="Arial" font-size="25" fill="black" >
   Current time: 1 days, 4 hours, and 30.00 minutes, z = 0.00 &#956;m
  </text>
  <text x="12.5" y="57.5"
   font-family="Arial" font-size="23.75" fill="black" >
   163 agents
  </text>
 <g id="tissue" 
    transform="translate(0,1070) scale(1,-1)">
  <g id="ECM">
  </g>
  <g id="cells">
   <g id="cell0">
  <circle cx="515.475" cy="527.272" r="8.41187" stroke-width="0.5" stroke="black" fill="magenta"/>
  <circle cx="515.475" cy="527.272" r="5.05147" stroke-width="0.5" stroke="black" fill="magenta"/>
   </g>
   <g id="cell147">
  <circle cx="421.253" cy="571.201" r="7.94707" stroke-width="0.5" stroke="black" fill="green"/>
  <circle cx="421.253" cy="571.201" r="4.82034" stroke-width="0.5" stroke="black" fill="green"/>
   </g>
   <g id="cell2">
  <circle cx="507.579" cy="594.679" r="8.28985" stroke-width="0.5" stroke="black" fill="magenta"/>
  <circle cx="507.579" cy="594.679" r="4.99956" stroke-width="0.5" stroke="black" fill="magenta"/>
   </g>
   <g id="cell3">
  <circle cx="538.346" cy="540.48" r="8.24914" stroke-width="0.5" stroke="black" fill="magenta"/>
  <circle cx="538.346" cy="540.48" r="4.97981" stroke-width="0.5" stroke="black" fill="magenta"/>
   </g>
   <g id="cell4">
  <circle cx="461.378" cy="440.569" r="8.41196" stroke-width="0.5" stroke="black" fill="magenta"/>
  <circle cx="461.378" cy="440.569" r="5.05149" stroke-width="0.5" stroke="black" fill="magenta"/>
   </g>
   <g id="cell5">
  <circle cx="463.417" cy="498.358" r="8.02418" stroke-width="0.5" stroke="black" fill="magenta"/>
  <circle cx="463.417" cy="498.358" r="4.86209" stroke-width="0.5" stroke="black" fill="magenta"/>
   </g>
   <g id="cell6">
  <circle cx="595.02" cy="513.721" r="8.41002" stroke-width="0.5" stroke="black" fill="magenta"/>
  <circle cx="595.02" cy="513.721" r="5.05093" stroke-width="0.5" stroke="black" fill="magenta"/>
   </g>
   <g id="cell7">
  <circle cx="511.617" cy="464.309" r="8.41271" stroke-width="0.5" stroke="black" fill="magenta"/>
  <circle cx="511.617" cy="464.309" r="5.05167" stroke-width="0.5" stroke="black" fill="magenta"/>
   </g>
   <g id="cell8">
  <circle cx="366.028" cy="550.39" r="8.04604" stroke-width="0.5" stroke="black" fill="magenta"/>
  <circle cx="366.028" cy="550.39" r="4.87399" stroke-width="0.5" stroke="black" fill="magenta"/>
   </g>
   <g id="cell9">
  <circle cx="463.799" cy="601.954" r="8.40986" stroke-width="0.5" stroke="black" fill="magenta"/>
  <circle cx="463.799" cy="601.954" r="5.05089" stroke-width="0.5" stroke="black" fill="magenta"/>
   </g>
   <g id="cell10">
  <circle cx="587.906" cy="396.794" r="8.05111" stroke-width="0.5" stroke="black" fill="magenta"/>
  <circle cx="587.906" cy="396.794" r="4.88251" stroke-width="0.5" stroke="black" fill="magenta"/>
   </g>
   <g id="cell11">
  <circle cx="589.748" cy="590.273" r="8.41271" stroke-width="0.5" stroke="black" fill="magenta"/>
  <circle cx="589.748" cy="590.273" r="5.05167" stroke-width="0.5" stroke="black" fill="magenta"/>
   </g>
   <g id="cell12">
  <circle cx="498.529" cy="582.938" r="8.41271" stroke-width="0.5" stroke="black" fill="magenta"/>
  <circle cx="498.529" cy="582.938" r="5.05167" stroke-width="0.5" stroke="black" fill="magenta"/>
   </g>
   <g id="cell13">
  <circle cx="378.874" cy="557.92" r="8.37206" stroke-width="0.5" stroke="black" fill="magenta"/>
  <circle cx="378.874" cy="557.92" r="5.03677" stroke-width="0.5" stroke="black" fill="magenta"/>
   </g>
   <g id="cell14">
  <circle cx="525.867" cy="396.342" r="6.78197" stroke-width="0.5" stroke="black" fill="magenta"/>
  <circle cx="525.867" cy="396.342" r="4.11287" stroke-width="0.5" stroke="black" fill="magenta"/>
   </g>
   <g id="cell15">
  <circle cx="390.64" cy="487.195" r="7.23345" stroke-width="0.5" stroke="black" fill="magenta"/>
  <circle cx="390.64" cy="487.195" r="4.41514" stroke-width="0.5" stroke="black" fill="magenta"/>
   </g>
   <g id="cell16">
  <circle cx="431.276" cy="412.164" r="8.41271" stroke-width="0.5" stroke="black" fill="magenta"/>
  <circle cx="431.276" cy="412.164" r="5.05167" stroke-width="0.5" stroke="black" fill="magenta"/>
   </g>
   <g id="cell17">
  <circle cx="586.202" cy="486.537" r="8.40667" stroke-width="0.5" stroke="black" fill="magenta"/>
  <circle cx="586.202" cy="486.537" r="5.04987" stroke-width="0.5" stroke="black" fill="magenta"/>
   </g>
   <g id="cell18">
  <circle cx="512.322" cy="395.002" r="8.412" stroke-width="0.5" stroke="black" fill="magenta"/>
  <circle cx="512.322" cy="395.002" r="5.0515" stroke-width="0.5" stroke="black" fill="magenta"/>
   </g>
   <g id="cell19">
  <circle cx="450.078" cy="541.728" r="8.40895" stroke-width="0.5" stroke="black" fill="magenta"/>
  <circle cx="450.078" cy="541.728" r="5.05061" stroke-width="0.5" stroke="black" fill="magenta"/>
   </g>
   <g id="cell20">
  <circle cx="528.106" cy="422.013" r="8.41271" stroke-width="0.5" stroke="black" fill="magenta"/>
  <circle cx="528.106" cy="422.013" r="5.05167" stroke-width="0.5" stroke="black" fill="magenta"/>
   </g>
   <g id="cell141">
  <circle cx="485.977" cy="440.594" r="6.56544" stroke-width="0.5" stroke="black" fill="magenta"/>
  <circle cx="485.977" cy="440.594" r="3.99234" stroke-width="0.5" stroke="black" fill="magenta"/>
   </g>
   <g id="cell22">
  <circle cx="559.562" cy="497.023" r="8.40748" stroke-width="0.5" stroke="black" fill="magenta"/>
  <circle cx="559.562" cy="497.023" r="5.05018" stroke-width="0.5" stroke="black" fill="magenta"/>
   </g>
   <g id="cell23">
  <circle cx="536.154" cy="484.095" r="8.41271" stroke-width="0.5" stroke="black" fill="magenta"/>
  <circle cx="536.154" cy="484.095" r="5.05167" stroke-width="0.5" stroke="black" fill="magenta"/>
   </g>
   <g id="cell24">
  <circle cx="562.287" cy="382.198" r="8.41271" stroke-width="0.5" stroke="black" fill="magenta"/>
  <circle cx="562.287" cy="382.198" r="5.05167" stroke-width="0.5" stroke="black" fill="magenta"/>
   </g>
   <g id="cell25">
  <circle cx="653.213" cy="564.117" r="7.66793" stroke-width="0.5" stroke="black" fill="green"/>
  <circle cx="653.213" cy="564.117" r="4.66208" stroke-width="0.5" stroke="black" fill="green"/>
   </g>
   <g id="cell26">
  <circle cx="547.586" cy="402.533" r="8.41271" stroke-width="0.5" stroke="black" fill="green"/>
  <circle cx="547.586" cy="402.533" r="5.05167" stroke-width="0.5" stroke="black" fill="green"/>
   </g>
   <g id="cell27">
  <circle cx="452.542" cy="389.399" r="6.89675" stroke-width="0.5" stroke="black" fill="green"/>
  <circle cx="452.542" cy="389.399" r="4.17024" stroke-width="0.5" stroke="black" fill="green"/>
   </g>
   <g id="cell28">
  <circle cx="436.294" cy="548.265" r="8.41271" stroke-width="0.5" stroke="black" fill="green"/>
  <circle cx="436.294" cy="548.265" r="5.05167" stroke-width="0.5" stroke="black" fill="green"/>
   </g>
   <g id="cell29">
  <circle cx="466.456" cy="520.664" r="8.38836" stroke-width="0.5" stroke="black" fill="green"/>
  <circle cx="466.456" cy="520.664" r="5.04332" stroke-width="0.5" stroke="black" fill="green"/>
   </g>
   <g id="cell30">
  <circle cx="479.01" cy="539.482" r="8.41271" stroke-width="0.5" stroke="black" fill="green"/>
  <circle cx="479.01" cy="539.482" r="5.05167" stroke-width="0.5" stroke="black" fill="green"/>
   </g>
   <g id="cell31">
  <circle cx="413.574" cy="533.948" r="8.41271" stroke-width="0.5" stroke="black" fill="green"/>
  <circle cx="413.574" cy="533.948" r="5.05167" stroke-width="0.5" stroke="black" fill="green"/>
   </g>
   <g id="cell32">
  <circle cx="423.912" cy="457.884" r="7.30077" stroke-width="0.5" stroke="black" fill="green"/>
  <circle cx="423.912" cy="457.884" r="4.43655" stroke-width="0.5" stroke="black" fill="green"/>
   </g>
   <g id="cell33">
  <circle cx="498.688" cy="414.202" r="8.41088" stroke-width="0.5" stroke="black" fill="green"/>
  <circle cx="498.688" cy="414.202" r="5.05119" stroke-width="0.5" stroke="black" fill="green"/>
   </g>
   <g id="cell34">
  <circle cx="392.094" cy="453.624" r="8.41043" stroke-width="0.5" stroke="black" fill="green"/>
  <circle cx="392.094" cy="453.624" r="5.05106" stroke-width="0.5" stroke="black" fill="green"/>
   </g>
   <g id="cell35">
  <circle cx="544.99" cy="554.444" r="8.40353" stroke-width="0.5" stroke="black" fill="green"/>
  <circle cx="544.99" cy="554.444" r="5.04881" stroke-width="0.5" stroke="black" fill="green"/>
   </g>
   <g id="cell36">
  <circle cx="394.823" cy="579.389" r="8.36458" stroke-width="0.5" stroke="black" fill="green"/>
  <circle cx="394.823" cy="579.389" r="5.03347" stroke-width="0.5" stroke="black" fill="green"/>
   </g>
   <g id="cell37">
  <circle cx="634.871" cy="460.618" r="1.25143" stroke-width="0.5" stroke="black" fill="green"/>
  <circle cx="634.871" cy="460.618" r="1.24538" stroke-width="0.5" stroke="black" fill="black"/>
   </g>
   <g id="cell38">
  <circle cx="525.183" cy="605.263" r="8.40915" stroke-width="0.5" stroke="black" fill="green"/>
  <circle cx="525.183" cy="605.263" r="5.05067" stroke-width="0.5" stroke="black" fill="green"/>
   </g>
   <g id="cell39">
  <circle cx="617.152" cy="497.547" r="6.73218" stroke-width="0.5" stroke="black" fill="green"/>
  <circle cx="617.152" cy="497.547" r="4.05022" stroke-width="0.5" stroke="black" fill="green"/>
   </g>
   <g id="cell40">
  <circle cx="486.756" cy="572.927" r="8.41271" stroke-width="0.5" stroke="black" fill="green"/>
  <circle cx="486.756" cy="572.927" r="5.05167" stroke-width="0.5" stroke="black" fill="green"/>
   </g>
   <g id="cell41">
  <circle cx="363.826" cy="479.78" r="8.41271" stroke-width="0.5" stroke="black" fill="green"/>
  <circle cx="363.826" cy="479.78" r="5.05167" stroke-width="0.5" stroke="black" fill="green"/>
   </g>
   <g id="cell42">
  <circle cx="452.251" cy="487.247" r="1.48851" stroke-width="0.5" stroke="black" fill="green"/>
  <circle cx="452.251" cy="487.247" r="1.46976" stroke-width="0.5" stroke="black" fill="black"/>
   </g>
   <g id="cell43">
  <circle cx="558.259" cy="445.639" r="8.41271" stroke-width="0.5" stroke="black" fill="green"/>
  <circle cx="558.259" cy="445.639" r="5.05167" stroke-width="0.5" stroke="black" fill="green"/>
   </g>
   <g id="cell44">
  <circle cx="487.318" cy="628.698" r="7.75767" stroke-width="0.5" stroke="black" fill="green"/>
  <circle cx="487.318" cy="628.698" r="4.71205" stroke-width="0.5" stroke="black" fill="green"/>
   </g>
   <g id="cell45">
  <circle cx="428.853" cy="560.839" r="5.64223" stroke-width="0.5" stroke="black" fill="green"/>
  <circle cx="428.853" cy="560.839" r="3.48859" stroke-width="0.5" stroke="black" fill="green"/>
   </g>
   <g id="cell46">
  <circle cx="521.083" cy="620.423" r="8.14271" stroke-width="0.5" stroke="black" fill="green"/>
  <circle cx="521.083" cy="620.423" r="4.92837" stroke-width="0.5" stroke="black" fill="green"/>
   </g>
   <g id="cell47">
  <circle cx="495.132" cy="509.805" r="8.41271" stroke-width="0.5" stroke="black" fill="green"/>
  <circle cx="495.132" cy="509.805" r="5.05167" stroke-width="0.5" stroke="black" fill="green"/>
   </g>
   <g id="cell48">
  <circle cx="566.304" cy="605.178" r="8.41271" stroke-width="0.5" stroke="black" fill="green"/>
  <circle cx="566.304" cy="605.178" r="5.05167" stroke-width="0.5" stroke="black" fill="green"/>
   </g>
   <g id="cell49">
  <circle cx="434.709" cy="397.022" r="8.33481" stroke-width="0.5" stroke="black" fill="green"/>
  <circle cx="434.709" cy="397.022" r="5.02043" stroke-width="0.5" stroke="black" fill="green"/>
   </g>
   <g id="cell50">
  <circle cx="509.725" cy="513.44" r="7.7401" stroke-width="0.5" stroke="black" fill="cyan"/>
  <circle cx="509.725" cy="513.44" r="4.70142" stroke-width="0.5" stroke="black" fill="cyan"/>
   </g>
   <g id="cell51">
  <circle cx="385.566" cy="603.764" r="7.8401" stroke-width="0.5" stroke="black" fill="cyan"/>
  <circle cx="385.566" cy="603.764" r="4.76551" stroke-width="0.5" stroke="black" fill="cyan"/>
   </g>
   <g id="cell120">
  <circle cx="419.67" cy="610.642" r="8.37742" stroke-width="0.5" stroke="black" fill="cyan"/>
  <circle cx="419.67" cy="610.642" r="5.03881" stroke-width="0.5" stroke="black" fill="cyan"/>
   </g>
   <g id="cell53">
  <circle cx="571.12" cy="436.127" r="8.41271" stroke-width="0.5" stroke="black" fill="cyan"/>
  <circle cx="571.12" cy="436.127" r="5.05167" stroke-width="0.5" stroke="black" fill="cyan"/>
   </g>
   <g id="cell54">
  <circle cx="482.054" cy="427.727" r="7.95045" stroke-width="0.5" stroke="black" fill="cyan"/>
  <circle cx="482.054" cy="427.727" r="4.82139" stroke-width="0.5" stroke="black" fill="cyan"/>
   </g>
   <g id="cell55">
  <circle cx="523.067" cy="475.173" r="8.41271" stroke-width="0.5" stroke="black" fill="cyan"/>
  <circle cx="523.067" cy="475.173" r="5.05167" stroke-width="0.5" stroke="black" fill="cyan"/>
   </g>
   <g id="cell56">
  <circle cx="615.708" cy="522.505" r="8.41271" stroke-width="0.5" stroke="black" fill="cyan"/>
  <circle cx="615.708" cy="522.505" r="5.05167" stroke-width="0.5" stroke="black" fill="cyan"/>
   </g>
   <g id="cell57">
  <circle cx="418.487" cy="626.552" r="8.37742" stroke-width="0.5" stroke="black" fill="cyan"/>
  <circle cx="418.487" cy="626.552" r="5.03881" stroke-width="0.5" stroke="black" fill="cyan"/>
   </g>
   <g id="cell58">
  <circle cx="551.696" cy="483.839" r="8.41271" stroke-width="0.5" stroke="black" fill="cyan"/>
  <circle cx="551.696" cy="483.839" r="5.05167" stroke-width="0.5" stroke="black" fill="cyan"/>
   </g>
   <g id="cell59">
  <circle cx="385.16" cy="439.177" r="8.41271" stroke-width="0.5" stroke="black" fill="cyan"/>
  <circle cx="385.16" cy="439.177" r="5.05167" stroke-width="0.5" stroke="black" fill="cyan"/>
   </g>
   <g id="cell60">
  <circle cx="594.292" cy="472.627" r="8.36972" stroke-width="0.5" stroke="black" fill="cyan"/>
  <circle cx="594.292" cy="472.627" r="5.03563" stroke-width="0.5" stroke="black" fill="cyan"/>
   </g>
   <g id="cell155">
  <circle cx="520.893" cy="591.659" r="7.29108" stroke-width="0.5" stroke="black" fill="magenta"/>
  <circle cx="520.893" cy="591.659" r="4.46731" stroke-width="0.5" stroke="black" fill="magenta"/>
   </g>
   <g id="cell62">
  <circle cx="523.665" cy="436.973" r="8.41271" stroke-width="0.5" stroke="black" fill="cyan"/>
  <circle cx="523.665" cy="436.973" r="5.05167" stroke-width="0.5" stroke="black" fill="cyan"/>
   </g>
   <g id="cell63">
  <circle cx="582.038" cy="551.739" r="8.40915" stroke-width="0.5" stroke="black" fill="cyan"/>
  <circle cx="582.038" cy="551.739" r="5.05067" stroke-width="0.5" stroke="black" fill="cyan"/>
   </g>
   <g id="cell64">
  <circle cx="511.968" cy="633.377" r="8.36592" stroke-width="0.5" stroke="black" fill="cyan"/>
  <circle cx="511.968" cy="633.377" r="5.03403" stroke-width="0.5" stroke="black" fill="cyan"/>
   </g>
   <g id="cell65">
  <circle cx="529.769" cy="450.151" r="7.11553" stroke-width="0.5" stroke="black" fill="cyan"/>
  <circle cx="529.769" cy="450.151" r="4.31873" stroke-width="0.5" stroke="black" fill="cyan"/>
   </g>
   <g id="cell66">
  <circle cx="546.542" cy="527" r="8.37935" stroke-width="0.5" stroke="black" fill="cyan"/>
  <circle cx="546.542" cy="527" r="5.0396" stroke-width="0.5" stroke="black" fill="cyan"/>
   </g>
   <g id="cell67">
  <circle cx="354.584" cy="492.847" r="8.41271" stroke-width="0.5" stroke="black" fill="cyan"/>
  <circle cx="354.584" cy="492.847" r="5.05167" stroke-width="0.5" stroke="black" fill="cyan"/>
   </g>
   <g id="cell68">
  <circle cx="561.039" cy="555.257" r="8.41271" stroke-width="0.5" stroke="black" fill="cyan"/>
  <circle cx="561.039" cy="555.257" r="5.05167" stroke-width="0.5" stroke="black" fill="cyan"/>
   </g>
   <g id="cell69">
  <circle cx="436.55" cy="449.569" r="8.41202" stroke-width="0.5" stroke="black" fill="cyan"/>
  <circle cx="436.55" cy="449.569" r="5.0515" stroke-width="0.5" stroke="black" fill="cyan"/>
   </g>
   <g id="cell70">
  <circle cx="578.712" cy="473.124" r="8.27497" stroke-width="0.5" stroke="black" fill="cyan"/>
  <circle cx="578.712" cy="473.124" r="4.99242" stroke-width="0.5" stroke="black" fill="cyan"/>
   </g>
   <g id="cell71">
  <circle cx="379.817" cy="528.921" r="7.60599" stroke-width="0.5" stroke="black" fill="cyan"/>
  <circle cx="379.817" cy="528.921" r="4.63263" stroke-width="0.5" stroke="black" fill="cyan"/>
   </g>
   <g id="cell72">
  <circle cx="539.177" cy="512.497" r="8.41271" stroke-width="0.5" stroke="black" fill="cyan"/>
  <circle cx="539.177" cy="512.497" r="5.05167" stroke-width="0.5" stroke="black" fill="cyan"/>
   </g>
   <g id="cell129">
  <circle cx="419.612" cy="401.916" r="8.33481" stroke-width="0.5" stroke="black" fill="green"/>
  <circle cx="419.612" cy="401.916" r="5.02043" stroke-width="0.5" stroke="black" fill="green"/>
   </g>
   <g id="cell74">
  <circle cx="542.531" cy="442.976" r="8.41271" stroke-width="0.5" stroke="black" fill="cyan"/>
  <circle cx="542.531" cy="442.976" r="5.05167" stroke-width="0.5" stroke="black" fill="cyan"/>
   </g>
   <g id="cell75">
  <circle cx="445.507" cy="479.291" r="6.98475" stroke-width="0.5" stroke="black" fill="cyan"/>
  <circle cx="445.507" cy="479.291" r="4.24152" stroke-width="0.5" stroke="black" fill="cyan"/>
   </g>
   <g id="cell76">
  <circle cx="521.942" cy="383.241" r="8.40815" stroke-width="0.5" stroke="black" fill="magenta"/>
  <circle cx="521.942" cy="383.241" r="5.05038" stroke-width="0.5" stroke="black" fill="magenta"/>
   </g>
   <g id="cell77">
  <circle cx="496.221" cy="432.679" r="8.09315" stroke-width="0.5" stroke="black" fill="magenta"/>
  <circle cx="496.221" cy="432.679" r="4.90146" stroke-width="0.5" stroke="black" fill="magenta"/>
   </g>
   <g id="cell78">
  <circle cx="371.361" cy="466.194" r="8.41192" stroke-width="0.5" stroke="black" fill="magenta"/>
  <circle cx="371.361" cy="466.194" r="5.05148" stroke-width="0.5" stroke="black" fill="magenta"/>
   </g>
   <g id="cell79">
  <circle cx="500.307" cy="524.794" r="8.41187" stroke-width="0.5" stroke="black" fill="magenta"/>
  <circle cx="500.307" cy="524.794" r="5.05147" stroke-width="0.5" stroke="black" fill="magenta"/>
   </g>
   <g id="cell80">
  <circle cx="600.431" cy="485.388" r="6.89609" stroke-width="0.5" stroke="black" fill="green"/>
  <circle cx="600.431" cy="485.388" r="4.17006" stroke-width="0.5" stroke="black" fill="green"/>
   </g>
   <g id="cell81">
  <circle cx="430.298" cy="504.062" r="8.34516" stroke-width="0.5" stroke="black" fill="green"/>
  <circle cx="430.298" cy="504.062" r="5.02574" stroke-width="0.5" stroke="black" fill="green"/>
   </g>
   <g id="cell82">
  <circle cx="544.107" cy="497.352" r="8.41166" stroke-width="0.5" stroke="black" fill="magenta"/>
  <circle cx="544.107" cy="497.352" r="5.05141" stroke-width="0.5" stroke="black" fill="magenta"/>
   </g>
   <g id="cell130">
  <circle cx="574.181" cy="391.43" r="8.33026" stroke-width="0.5" stroke="black" fill="magenta"/>
  <circle cx="574.181" cy="391.43" r="5.01837" stroke-width="0.5" stroke="black" fill="magenta"/>
   </g>
   <g id="cell84">
  <circle cx="404.481" cy="482.539" r="8.39368" stroke-width="0.5" stroke="black" fill="green"/>
  <circle cx="404.481" cy="482.539" r="5.04534" stroke-width="0.5" stroke="black" fill="green"/>
   </g>
   <g id="cell140">
  <circle cx="528.111" cy="580.148" r="7.99881" stroke-width="0.5" stroke="black" fill="magenta"/>
  <circle cx="528.111" cy="580.148" r="4.86128" stroke-width="0.5" stroke="black" fill="magenta"/>
   </g>
   <g id="cell86">
  <circle cx="392.503" cy="564.101" r="8.39504" stroke-width="0.5" stroke="black" fill="magenta"/>
  <circle cx="392.503" cy="564.101" r="5.04586" stroke-width="0.5" stroke="black" fill="magenta"/>
   </g>
   <g id="cell87">
  <circle cx="432.884" cy="519.071" r="7.77808" stroke-width="0.5" stroke="black" fill="green"/>
  <circle cx="432.884" cy="519.071" r="4.72718" stroke-width="0.5" stroke="black" fill="green"/>
   </g>
   <g id="cell88">
  <circle cx="476.777" cy="610.588" r="8.41023" stroke-width="0.5" stroke="black" fill="green"/>
  <circle cx="476.777" cy="610.588" r="5.051" stroke-width="0.5" stroke="black" fill="green"/>
   </g>
   <g id="cell89">
  <circle cx="434.761" cy="489.131" r="8.40424" stroke-width="0.5" stroke="black" fill="green"/>
  <circle cx="434.761" cy="489.131" r="5.04916" stroke-width="0.5" stroke="black" fill="green"/>
   </g>
   <g id="cell90">
  <circle cx="580.772" cy="511.113" r="7.63535" stroke-width="0.5" stroke="black" fill="magenta"/>
  <circle cx="580.772" cy="511.113" r="4.64036" stroke-width="0.5" stroke="black" fill="magenta"/>
   </g>
   <g id="cell136">
  <circle cx="523.304" cy="540.36" r="8.24914" stroke-width="0.5" stroke="black" fill="magenta"/>
  <circle cx="523.304" cy="540.36" r="4.97981" stroke-width="0.5" stroke="black" fill="magenta"/>
   </g>
   <g id="cell92">
  <circle cx="554.103" cy="594.655" r="8.39281" stroke-width="0.5" stroke="black" fill="green"/>
  <circle cx="554.103" cy="594.655" r="5.04525" stroke-width="0.5" stroke="black" fill="green"/>
   </g>
   <g id="cell93">
  <circle cx="573.401" cy="524.186" r="8.31073" stroke-width="0.5" stroke="black" fill="cyan"/>
  <circle cx="573.401" cy="524.186" r="5.01009" stroke-width="0.5" stroke="black" fill="cyan"/>
   </g>
   <g id="cell94">
  <circle cx="543.983" cy="470.309" r="8.40895" stroke-width="0.5" stroke="black" fill="cyan"/>
  <circle cx="543.983" cy="470.309" r="5.05061" stroke-width="0.5" stroke="black" fill="cyan"/>
   </g>
   <g id="cell95">
  <circle cx="463.895" cy="535.964" r="8.40895" stroke-width="0.5" stroke="black" fill="magenta"/>
  <circle cx="463.895" cy="535.964" r="5.05061" stroke-width="0.5" stroke="black" fill="magenta"/>
   </g>
   <g id="cell96">
  <circle cx="535.49" cy="376.444" r="8.40815" stroke-width="0.5" stroke="black" fill="magenta"/>
  <circle cx="535.49" cy="376.444" r="5.05038" stroke-width="0.5" stroke="black" fill="magenta"/>
   </g>
   <g id="cell97">
  <circle cx="566.572" cy="510.201" r="8.40748" stroke-width="0.5" stroke="black" fill="magenta"/>
  <circle cx="566.572" cy="510.201" r="5.05018" stroke-width="0.5" stroke="black" fill="magenta"/>
   </g>
   <g id="cell98">
  <circle cx="406.525" cy="568.693" r="7.94707" stroke-width="0.5" stroke="black" fill="green"/>
  <circle cx="406.525" cy="568.693" r="4.82034" stroke-width="0.5" stroke="black" fill="green"/>
   </g>
   <g id="cell99">
  <circle cx="575.111" cy="497.485" r="8.40667" stroke-width="0.5" stroke="black" fill="magenta"/>
  <circle cx="575.111" cy="497.485" r="5.04987" stroke-width="0.5" stroke="black" fill="magenta"/>
   </g>
   <g id="cell100">
  <circle cx="569.619" cy="541.626" r="8.40454" stroke-width="0.5" stroke="black" fill="cyan"/>
  <circle cx="569.619" cy="541.626" r="5.04926" stroke-width="0.5" stroke="black" fill="cyan"/>
   </g>
   <g id="cell101">
  <circle cx="458.41" cy="628.446" r="8.39583" stroke-width="0.5" stroke="black" fill="magenta"/>
  <circle cx="458.41" cy="628.446" r="5.04626" stroke-width="0.5" stroke="black" fill="magenta"/>
   </g>
   <g id="cell102">
  <circle cx="446.528" cy="500.274" r="8.40424" stroke-width="0.5" stroke="black" fill="green"/>
  <circle cx="446.528" cy="500.274" r="5.04916" stroke-width="0.5" stroke="black" fill="green"/>
   </g>
   <g id="cell103">
  <circle cx="541.57" cy="604.921" r="8.40248" stroke-width="0.5" stroke="black" fill="green"/>
  <circle cx="541.57" cy="604.921" r="5.04856" stroke-width="0.5" stroke="black" fill="green"/>
   </g>
   <g id="cell104">
  <circle cx="553.737" cy="541.095" r="8.40353" stroke-width="0.5" stroke="black" fill="green"/>
  <circle cx="553.737" cy="541.095" r="5.04881" stroke-width="0.5" stroke="black" fill="green"/>
   </g>
   <g id="cell105">
  <circle cx="415.832" cy="495.243" r="8.40194" stroke-width="0.5" stroke="black" fill="green"/>
  <circle cx="415.832" cy="495.243" r="5.04831" stroke-width="0.5" stroke="black" fill="green"/>
   </g>
   <g id="cell106">
  <circle cx="639.49" cy="538.273" r="8.40244" stroke-width="0.5" stroke="black" fill="green"/>
  <circle cx="639.49" cy="538.273" r="5.04843" stroke-width="0.5" stroke="black" fill="green"/>
   </g>
   <g id="cell107">
  <circle cx="383.619" cy="514.259" r="8.3995" stroke-width="0.5" stroke="black" fill="cyan"/>
  <circle cx="383.619" cy="514.259" r="5.04738" stroke-width="0.5" stroke="black" fill="cyan"/>
   </g>
   <g id="cell108">
  <circle cx="458.824" cy="643.553" r="8.39583" stroke-width="0.5" stroke="black" fill="magenta"/>
  <circle cx="458.824" cy="643.553" r="5.04626" stroke-width="0.5" stroke="black" fill="magenta"/>
   </g>
   <g id="cell109">
  <circle cx="445.548" cy="636.314" r="8.39583" stroke-width="0.5" stroke="black" fill="magenta"/>
  <circle cx="445.548" cy="636.314" r="5.04626" stroke-width="0.5" stroke="black" fill="magenta"/>
   </g>
   <g id="cell110">
  <circle cx="543.381" cy="582.523" r="8.39281" stroke-width="0.5" stroke="black" fill="green"/>
  <circle cx="543.381" cy="582.523" r="5.04525" stroke-width="0.5" stroke="black" fill="green"/>
   </g>
   <g id="cell111">
  <circle cx="629.106" cy="550.492" r="8.39279" stroke-width="0.5" stroke="black" fill="green"/>
  <circle cx="629.106" cy="550.492" r="5.04519" stroke-width="0.5" stroke="black" fill="green"/>
   </g>
   <g id="cell112">
  <circle cx="380.478" cy="573.133" r="8.39504" stroke-width="0.5" stroke="black" fill="magenta"/>
  <circle cx="380.478" cy="573.133" r="5.04586" stroke-width="0.5" stroke="black" fill="magenta"/>
   </g>
   <g id="cell113">
  <circle cx="420.213" cy="480.096" r="8.39368" stroke-width="0.5" stroke="black" fill="green"/>
  <circle cx="420.213" cy="480.096" r="5.04534" stroke-width="0.5" stroke="black" fill="green"/>
   </g>
   <g id="cell114">
  <circle cx="496.584" cy="448.263" r="8.2984" stroke-width="0.5" stroke="black" fill="magenta"/>
  <circle cx="496.584" cy="448.263" r="5.00498" stroke-width="0.5" stroke="black" fill="magenta"/>
   </g>
   <g id="cell115">
  <circle cx="451.599" cy="526.318" r="8.38836" stroke-width="0.5" stroke="black" fill="green"/>
  <circle cx="451.599" cy="526.318" r="5.04332" stroke-width="0.5" stroke="black" fill="green"/>
   </g>
   <g id="cell116">
  <circle cx="368.319" cy="519.194" r="8.38089" stroke-width="0.5" stroke="black" fill="cyan"/>
  <circle cx="368.319" cy="519.194" r="5.0407" stroke-width="0.5" stroke="black" fill="cyan"/>
   </g>
   <g id="cell117">
  <circle cx="438.307" cy="512.289" r="1.32936" stroke-width="0.5" stroke="black" fill="green"/>
  <circle cx="438.307" cy="512.289" r="1.31988" stroke-width="0.5" stroke="black" fill="black"/>
   </g>
   <g id="cell118">
  <circle cx="530.986" cy="527.195" r="8.37935" stroke-width="0.5" stroke="black" fill="cyan"/>
  <circle cx="530.986" cy="527.195" r="5.0396" stroke-width="0.5" stroke="black" fill="cyan"/>
   </g>
   <g id="cell119">
  <circle cx="527.548" cy="634.327" r="8.05796" stroke-width="0.5" stroke="black" fill="green"/>
  <circle cx="527.548" cy="634.327" r="4.8836" stroke-width="0.5" stroke="black" fill="green"/>
   </g>
   <g id="cell121">
  <circle cx="391.513" cy="549.274" r="8.37206" stroke-width="0.5" stroke="black" fill="magenta"/>
  <circle cx="391.513" cy="549.274" r="5.03677" stroke-width="0.5" stroke="black" fill="magenta"/>
   </g>
   <g id="cell122">
  <circle cx="613.905" cy="463.14" r="6.99174" stroke-width="0.5" stroke="black" fill="cyan"/>
  <circle cx="613.905" cy="463.14" r="4.2445" stroke-width="0.5" stroke="black" fill="cyan"/>
   </g>
   <g id="cell123">
  <circle cx="500.486" cy="644.482" r="8.36592" stroke-width="0.5" stroke="black" fill="cyan"/>
  <circle cx="500.486" cy="644.482" r="5.03403" stroke-width="0.5" stroke="black" fill="cyan"/>
   </g>
   <g id="cell124">
  <circle cx="381.851" cy="588.721" r="8.36458" stroke-width="0.5" stroke="black" fill="green"/>
  <circle cx="381.851" cy="588.721" r="5.03347" stroke-width="0.5" stroke="black" fill="green"/>
   </g>
   <g id="cell125">
  <circle cx="451.526" cy="455.662" r="8.35997" stroke-width="0.5" stroke="black" fill="cyan"/>
  <circle cx="451.526" cy="455.662" r="5.03156" stroke-width="0.5" stroke="black" fill="cyan"/>
   </g>
   <g id="cell126">
  <circle cx="416.108" cy="511.117" r="8.34516" stroke-width="0.5" stroke="black" fill="green"/>
  <circle cx="416.108" cy="511.117" r="5.02574" stroke-width="0.5" stroke="black" fill="green"/>
   </g>
   <g id="cell127">
  <circle cx="413.024" cy="596.168" r="8.34511" stroke-width="0.5" stroke="black" fill="cyan"/>
  <circle cx="413.024" cy="596.168" r="5.02502" stroke-width="0.5" stroke="black" fill="cyan"/>
   </g>
   <g id="cell128">
  <circle cx="365.797" cy="535.007" r="8.32502" stroke-width="0.5" stroke="black" fill="cyan"/>
  <circle cx="365.797" cy="535.007" r="5.01769" stroke-width="0.5" stroke="black" fill="cyan"/>
   </g>
   <g id="cell131">
  <circle cx="584.331" cy="535.881" r="8.31073" stroke-width="0.5" stroke="black" fill="cyan"/>
  <circle cx="584.331" cy="535.881" r="5.01009" stroke-width="0.5" stroke="black" fill="cyan"/>
   </g>
   <g id="cell132">
  <circle cx="508.77" cy="440.122" r="8.2984" stroke-width="0.5" stroke="black" fill="magenta"/>
  <circle cx="508.77" cy="440.122" r="5.00498" stroke-width="0.5" stroke="black" fill="magenta"/>
   </g>
   <g id="cell133">
  <circle cx="533.036" cy="407.865" r="8.29993" stroke-width="0.5" stroke="black" fill="magenta"/>
  <circle cx="533.036" cy="407.865" r="5.00433" stroke-width="0.5" stroke="black" fill="magenta"/>
   </g>
   <g id="cell134">
  <circle cx="513.204" cy="580.518" r="8.11726" stroke-width="0.5" stroke="black" fill="magenta"/>
  <circle cx="513.204" cy="580.518" r="4.91837" stroke-width="0.5" stroke="black" fill="magenta"/>
   </g>
   <g id="cell135">
  <circle cx="567.53" cy="483.88" r="8.27497" stroke-width="0.5" stroke="black" fill="cyan"/>
  <circle cx="567.53" cy="483.88" r="4.99242" stroke-width="0.5" stroke="black" fill="cyan"/>
   </g>
   <g id="cell137">
  <circle cx="379.301" cy="478.961" r="8.21798" stroke-width="0.5" stroke="black" fill="magenta"/>
  <circle cx="379.301" cy="478.961" r="4.96438" stroke-width="0.5" stroke="black" fill="magenta"/>
   </g>
   <g id="cell138">
  <circle cx="533.578" cy="592.988" r="7.29108" stroke-width="0.5" stroke="black" fill="magenta"/>
  <circle cx="533.578" cy="592.988" r="4.46731" stroke-width="0.5" stroke="black" fill="magenta"/>
   </g>
   <g id="cell139">
  <circle cx="509.759" cy="609.789" r="8.14271" stroke-width="0.5" stroke="black" fill="green"/>
  <circle cx="509.759" cy="609.789" r="4.92837" stroke-width="0.5" stroke="black" fill="green"/>
   </g>
   <g id="cell142">
  <circle cx="585.863" cy="382.449" r="8.05111" stroke-width="0.5" stroke="black" fill="magenta"/>
  <circle cx="585.863" cy="382.449" r="4.88251" stroke-width="0.5" stroke="black" fill="magenta"/>
   </g>
   <g id="cell143">
  <circle cx="537.207" cy="622.462" r="8.05796" stroke-width="0.5" stroke="black" fill="green"/>
  <circle cx="537.207" cy="622.462" r="4.8836" stroke-width="0.5" stroke="black" fill="green"/>
   </g>
   <g id="cell144">
  <circle cx="378.39" cy="543.164" r="8.04604" stroke-width="0.5" stroke="black" fill="magenta"/>
  <circle cx="378.39" cy="543.164" r="4.87399" stroke-width="0.5" stroke="black" fill="magenta"/>
   </g>
   <g id="cell145">
  <circle cx="460.254" cy="484.011" r="8.02418" stroke-width="0.5" stroke="black" fill="magenta"/>
  <circle cx="460.254" cy="484.011" r="4.86209" stroke-width="0.5" stroke="black" fill="magenta"/>
   </g>
   <g id="cell146">
  <circle cx="467.016" cy="426.366" r="7.95045" stroke-width="0.5" stroke="black" fill="cyan"/>
  <circle cx="467.016" cy="426.366" r="4.82139" stroke-width="0.5" stroke="black" fill="cyan"/>
   </g>
   <g id="cell148">
  <circle cx="400.404" cy="604.934" r="7.8401" stroke-width="0.5" stroke="black" fill="cyan"/>
  <circle cx="400.404" cy="604.934" r="4.76551" stroke-width="0.5" stroke="black" fill="cyan"/>
   </g>
   <g id="cell149">
  <circle cx="437.804" cy="532.973" r="7.77808" stroke-width="0.5" stroke="black" fill="green"/>
  <circle cx="437.804" cy="532.973" r="4.72718" stroke-width="0.5" stroke="black" fill="green"/>
   </g>
   <g id="cell150">
  <circle cx="472.997" cy="625.462" r="7.75767" stroke-width="0.5" stroke="black" fill="green"/>
  <circle cx="472.997" cy="625.462" r="4.71205" stroke-width="0.5" stroke="black" fill="green"/>
   </g>
   <g id="cell151">
  <circle cx="523.919" cy="514.222" r="7.7401" stroke-width="0.5" stroke="black" fill="cyan"/>
  <circle cx="523.919" cy="514.222" r="4.70142" stroke-width="0.5" stroke="black" fill="cyan"/>
   </g>
   <g id="cell152">
  <circle cx="644.171" cy="552.771" r="7.66793" stroke-width="0.5" stroke="black" fill="green"/>
  <circle cx="644.171" cy="552.771" r="4.66208" stroke-width="0.5" stroke="black" fill="green"/>
   </g>
   <g id="cell153">
  <circle cx="393.834" cy="525.622" r="7.60599" stroke-width="0.5" stroke="black" fill="cyan"/>
  <circle cx="393.834" cy="525.622" r="4.63263" stroke-width="0.5" stroke="black" fill="cyan"/>
   </g>
   <g id="cell154">
  <circle cx="589.407" cy="500.493" r="7.63535" stroke-width="0.5" stroke="black" fill="magenta"/>
  <circle cx="589.407" cy="500.493" r="4.64036" stroke-width="0.5" stroke="black" fill="magenta"/>
   </g>
   <g id="cell156">
  <circle cx="403.305" cy="555.608" r="6.19998" stroke-width="0.5" stroke="black" fill="green"/>
  <circle cx="403.305" cy="555.608" r="3.79859" stroke-width="0.5" stroke="black" fill="green"/>
   </g>
   <g id="cell157">
  <circle cx="392.438" cy="474.364" r="7.23345" stroke-width="0.5" stroke="black" fill="magenta"/>
  <circle cx="392.438" cy="474.364" r="4.41514" stroke-width="0.5" stroke="black" fill="magenta"/>
   </g>
   <g id="cell158">
  <circle cx="433.275" cy="475.308" r="6.55389" stroke-width="0.5" stroke="black" fill="green"/>
  <circle cx="433.275" cy="475.308" r="4.02307" stroke-width="0.5" stroke="black" fill="green"/>
   </g>
   <g id="cell159">
  <circle cx="435.761" cy="463.48" r="6.55389" stroke-width="0.5" stroke="black" fill="green"/>
  <circle cx="435.761" cy="463.48" r="4.02307" stroke-width="0.5" stroke="black" fill="green"/>
   </g>
   <g id="cell160">
  <circle cx="415.482" cy="558.853" r="6.39867" stroke-width="0.5" stroke="black" fill="green"/>
  <circle cx="415.482" cy="558.853" r="3.92629" stroke-width="0.5" stroke="black" fill="green"/>
   </g>
   <g id="cell161">
  <circle cx="531.39" cy="463.249" r="7.11553" stroke-width="0.5" stroke="black" fill="cyan"/>
  <circle cx="531.39" cy="463.249" r="4.31873" stroke-width="0.5" stroke="black" fill="cyan"/>
   </g>
   <g id="cell162">
  <circle cx="608.785" cy="475.294" r="6.99174" stroke-width="0.5" stroke="black" fill="cyan"/>
  <circle cx="608.785" cy="475.294" r="4.2445" stroke-width="0.5" stroke="black" fill="cyan"/>
   </g>
   <g id="cell163">
  <circle cx="423.739" cy="551.421" r="5.64223" stroke-width="0.5" stroke="black" fill="green"/>
  <circle cx="423.739" cy="551.421" r="3.48859" stroke-width="0.5" stroke="black" fill="green"/>
   </g>
   <g id="cell164">
  <circle cx="454.941" cy="470.286" r="6.98475" stroke-width="0.5" stroke="black" fill="cyan"/>
  <circle cx="454.941" cy="470.286" r="4.24152" stroke-width="0.5" stroke="black" fill="cyan"/>
   </g>
   <g id="cell165">
  <circle cx="411.976" cy="547.597" r="6.19998" stroke-width="0.5" stroke="black" fill="green"/>
  <circle cx="411.976" cy="547.597" r="3.79859" stroke-width="0.5" stroke="black" fill="green"/>
   </g>
   <g id="cell166">
  <circle cx="604.222" cy="497.663" r="6.89609" stroke-width="0.5" stroke="black" fill="green"/>
  <circle cx="604.222" cy="497.663" r="4.17006" stroke-width="0.5" stroke="black" fill="green"/>
   </g>
   <g id="cell167">
  <circle cx="465.489" cy="387.495" r="6.89675" stroke-width="0.5" stroke="black" fill="green"/>
  <circle cx="465.489" cy="387.495" r="4.17024" stroke-width="0.5" stroke="black" fill="green"/>
   </g>
   <g id="cell168">
  <circle cx="519.542" cy="406.818" r="6.78197" stroke-width="0.5" stroke="black" fill="magenta"/>
  <circle cx="519.542" cy="406.818" r="4.11287" stroke-width="0.5" stroke="black" fill="magenta"/>
   </g>
   <g id="cell169">
  <circle cx="474.539" cy="438.858" r="6.56544" stroke-width="0.5" stroke="black" fill="magenta"/>
  <circle cx="474.539" cy="438.858" r="3.99234" stroke-width="0.5" stroke="black" fill="magenta"/>
   </g>
   <g id="cell170">
  <circle cx="627.235" cy="489.863" r="6.73218" stroke-width="0.5" stroke="black" fill="green"/>
  <circle cx="627.235" cy="489.863" r="4.05022" stroke-width="0.5" stroke="black" fill="green"/>
   </g>
  </g>
 </g>
  <rect x="775" y="1035" width="200" height="10" stroke-width="2" stroke="rgb(255,255,255)" fill="rgb(0,0,0)"/>
  <text x="781.25" y="1028.75"
   font-family="Arial" font-size="25" fill="black" >
   200 &#956;m
  </text>
  <text x="25" y="1045"
   font-family="Arial" font-size="18.75" fill="black" >
   0 days, 0 hours, 0 minutes, and 38.2249 seconds
  </text>
  <rect x="0" y="70" width="1000" height="1000" stroke-width="2" stroke="rgb(0,0,0)" fill="none"/>
</svg>
