<?xml version="1.0" encoding="UTF-8" standalone="no"?>
<!-- Created with PhysiCell (http://PhysiCell.MathCancer.org/) -->
<svg 
 xmlns:dc="http://purl.org/dc/elements/1.1/" 
 xmlns:cc="http://creativecommons.org/ns#" 
 xmlns:rdf="http://www.w3.org/1999/02/22-rdf-syntax-ns#" 
 xmlns:svg="http://www.w3.org/2000/svg" 
 xmlns="http://www.w3.org/2000/svg" 
 version="1.1" 
 width="1000" 
 height="1070" 
 id="svg2">
  <rect x="0" y="0" width="1000" height="1070" stroke-width="2" stroke="white" fill="white"/>
  <text x="12.5" y="30"
   font-family="Arial" font-size="25" fill="black" >
   Current time: 1 days, 12 hours, and 0.00 minutes, z = 0.00 &#956;m
  </text>
  <text x="12.5" y="57.5"
   font-family="Arial" font-size="23.75" fill="black" >
   194 agents
  </text>
 <g id="tissue" 
    transform="translate(0,1070) scale(1,-1)">
  <g id="ECM">
  </g>
  <g id="cells">
   <g id="cell0">
  <circle cx="510.694" cy="534.218" r="8.4126" stroke-width="0.5" stroke="black" fill="magenta"/>
  <circle cx="510.694" cy="534.218" r="5.05165" stroke-width="0.5" stroke="black" fill="magenta"/>
   </g>
   <g id="cell147">
  <circle cx="421.961" cy="576.042" r="8.35843" stroke-width="0.5" stroke="black" fill="green"/>
  <circle cx="421.961" cy="576.042" r="5.03091" stroke-width="0.5" stroke="black" fill="green"/>
   </g>
   <g id="cell2">
  <circle cx="503.049" cy="593.029" r="8.39794" stroke-width="0.5" stroke="black" fill="magenta"/>
  <circle cx="503.049" cy="593.029" r="5.04681" stroke-width="0.5" stroke="black" fill="magenta"/>
   </g>
   <g id="cell3">
  <circle cx="538.558" cy="545.685" r="8.39316" stroke-width="0.5" stroke="black" fill="magenta"/>
  <circle cx="538.558" cy="545.685" r="5.04503" stroke-width="0.5" stroke="black" fill="magenta"/>
   </g>
   <g id="cell4">
  <circle cx="452.181" cy="432.756" r="8.41262" stroke-width="0.5" stroke="black" fill="magenta"/>
  <circle cx="452.181" cy="432.756" r="5.05165" stroke-width="0.5" stroke="black" fill="magenta"/>
   </g>
   <g id="cell5">
  <circle cx="461.993" cy="495.815" r="8.36722" stroke-width="0.5" stroke="black" fill="magenta"/>
  <circle cx="461.993" cy="495.815" r="5.03458" stroke-width="0.5" stroke="black" fill="magenta"/>
   </g>
   <g id="cell6">
  <circle cx="595.859" cy="515.148" r="8.41237" stroke-width="0.5" stroke="black" fill="magenta"/>
  <circle cx="595.859" cy="515.148" r="5.05159" stroke-width="0.5" stroke="black" fill="magenta"/>
   </g>
   <g id="cell7">
  <circle cx="512.232" cy="464.289" r="8.41271" stroke-width="0.5" stroke="black" fill="magenta"/>
  <circle cx="512.232" cy="464.289" r="5.05167" stroke-width="0.5" stroke="black" fill="magenta"/>
   </g>
   <g id="cell8">
  <circle cx="364.549" cy="549.027" r="8.36972" stroke-width="0.5" stroke="black" fill="magenta"/>
  <circle cx="364.549" cy="549.027" r="5.03563" stroke-width="0.5" stroke="black" fill="magenta"/>
   </g>
   <g id="cell9">
  <circle cx="462.517" cy="601.777" r="8.41235" stroke-width="0.5" stroke="black" fill="magenta"/>
  <circle cx="462.517" cy="601.777" r="5.05159" stroke-width="0.5" stroke="black" fill="magenta"/>
   </g>
   <g id="cell10">
  <circle cx="588.358" cy="396.463" r="8.37034" stroke-width="0.5" stroke="black" fill="magenta"/>
  <circle cx="588.358" cy="396.463" r="5.03639" stroke-width="0.5" stroke="black" fill="magenta"/>
   </g>
   <g id="cell11">
  <circle cx="589.748" cy="590.273" r="8.41271" stroke-width="0.5" stroke="black" fill="magenta"/>
  <circle cx="589.748" cy="590.273" r="5.05167" stroke-width="0.5" stroke="black" fill="magenta"/>
   </g>
   <g id="cell12">
  <circle cx="495.572" cy="580.023" r="8.41271" stroke-width="0.5" stroke="black" fill="magenta"/>
  <circle cx="495.572" cy="580.023" r="5.05167" stroke-width="0.5" stroke="black" fill="magenta"/>
   </g>
   <g id="cell13">
  <circle cx="377.313" cy="558.267" r="8.40773" stroke-width="0.5" stroke="black" fill="magenta"/>
  <circle cx="377.313" cy="558.267" r="5.05023" stroke-width="0.5" stroke="black" fill="magenta"/>
   </g>
   <g id="cell14">
  <circle cx="529.245" cy="395.163" r="8.21128" stroke-width="0.5" stroke="black" fill="magenta"/>
  <circle cx="529.245" cy="395.163" r="4.96213" stroke-width="0.5" stroke="black" fill="magenta"/>
   </g>
   <g id="cell15">
  <circle cx="384.65" cy="488.509" r="6.82843" stroke-width="0.5" stroke="black" fill="magenta"/>
  <circle cx="384.65" cy="488.509" r="4.1496" stroke-width="0.5" stroke="black" fill="magenta"/>
   </g>
   <g id="cell16">
  <circle cx="428.525" cy="415.602" r="8.41271" stroke-width="0.5" stroke="black" fill="magenta"/>
  <circle cx="428.525" cy="415.602" r="5.05167" stroke-width="0.5" stroke="black" fill="magenta"/>
   </g>
   <g id="cell17">
  <circle cx="579.689" cy="484.023" r="8.41196" stroke-width="0.5" stroke="black" fill="magenta"/>
  <circle cx="579.689" cy="484.023" r="5.05149" stroke-width="0.5" stroke="black" fill="magenta"/>
   </g>
   <g id="cell18">
  <circle cx="514.321" cy="392.539" r="8.41262" stroke-width="0.5" stroke="black" fill="magenta"/>
  <circle cx="514.321" cy="392.539" r="5.05165" stroke-width="0.5" stroke="black" fill="magenta"/>
   </g>
   <g id="cell19">
  <circle cx="454.175" cy="541.531" r="8.41224" stroke-width="0.5" stroke="black" fill="magenta"/>
  <circle cx="454.175" cy="541.531" r="5.05156" stroke-width="0.5" stroke="black" fill="magenta"/>
   </g>
   <g id="cell20">
  <circle cx="525.594" cy="420.873" r="8.41271" stroke-width="0.5" stroke="black" fill="magenta"/>
  <circle cx="525.594" cy="420.873" r="5.05167" stroke-width="0.5" stroke="black" fill="magenta"/>
   </g>
   <g id="cell141">
  <circle cx="493.876" cy="440.727" r="7.82559" stroke-width="0.5" stroke="black" fill="magenta"/>
  <circle cx="493.876" cy="440.727" r="4.76548" stroke-width="0.5" stroke="black" fill="magenta"/>
   </g>
   <g id="cell22">
  <circle cx="559.365" cy="496.707" r="8.41206" stroke-width="0.5" stroke="black" fill="magenta"/>
  <circle cx="559.365" cy="496.707" r="5.05152" stroke-width="0.5" stroke="black" fill="magenta"/>
   </g>
   <g id="cell23">
  <circle cx="534.699" cy="485.792" r="8.41271" stroke-width="0.5" stroke="black" fill="magenta"/>
  <circle cx="534.699" cy="485.792" r="5.05167" stroke-width="0.5" stroke="black" fill="magenta"/>
   </g>
   <g id="cell24">
  <circle cx="564.453" cy="381.256" r="8.41271" stroke-width="0.5" stroke="black" fill="magenta"/>
  <circle cx="564.453" cy="381.256" r="5.05167" stroke-width="0.5" stroke="black" fill="magenta"/>
   </g>
   <g id="cell25">
  <circle cx="653.621" cy="564.611" r="8.32662" stroke-width="0.5" stroke="black" fill="green"/>
  <circle cx="653.621" cy="564.611" r="5.01696" stroke-width="0.5" stroke="black" fill="green"/>
   </g>
   <g id="cell26">
  <circle cx="548.502" cy="401.299" r="8.41271" stroke-width="0.5" stroke="black" fill="green"/>
  <circle cx="548.502" cy="401.299" r="5.05167" stroke-width="0.5" stroke="black" fill="green"/>
   </g>
   <g id="cell27">
  <circle cx="452.009" cy="389.546" r="2.83369" stroke-width="0.5" stroke="black" fill="green"/>
  <circle cx="452.009" cy="389.546" r="2.372" stroke-width="0.5" stroke="black" fill="black"/>
   </g>
   <g id="cell28">
  <circle cx="442.212" cy="551.332" r="8.41271" stroke-width="0.5" stroke="black" fill="green"/>
  <circle cx="442.212" cy="551.332" r="5.05167" stroke-width="0.5" stroke="black" fill="green"/>
   </g>
   <g id="cell29">
  <circle cx="466.618" cy="517.705" r="8.40971" stroke-width="0.5" stroke="black" fill="green"/>
  <circle cx="466.618" cy="517.705" r="5.05085" stroke-width="0.5" stroke="black" fill="green"/>
   </g>
   <g id="cell30">
  <circle cx="480.913" cy="539.692" r="8.41271" stroke-width="0.5" stroke="black" fill="green"/>
  <circle cx="480.913" cy="539.692" r="5.05167" stroke-width="0.5" stroke="black" fill="green"/>
   </g>
   <g id="cell31">
  <circle cx="407.897" cy="530.881" r="7.7401" stroke-width="0.5" stroke="black" fill="green"/>
  <circle cx="407.897" cy="530.881" r="4.70142" stroke-width="0.5" stroke="black" fill="green"/>
   </g>
   <g id="cell32">
  <circle cx="425.52" cy="455.745" r="8.28249" stroke-width="0.5" stroke="black" fill="green"/>
  <circle cx="425.52" cy="455.745" r="4.99607" stroke-width="0.5" stroke="black" fill="green"/>
   </g>
   <g id="cell33">
  <circle cx="498.038" cy="413.415" r="8.41248" stroke-width="0.5" stroke="black" fill="green"/>
  <circle cx="498.038" cy="413.415" r="5.05162" stroke-width="0.5" stroke="black" fill="green"/>
   </g>
   <g id="cell34">
  <circle cx="391.842" cy="454.617" r="8.41242" stroke-width="0.5" stroke="black" fill="green"/>
  <circle cx="391.842" cy="454.617" r="5.05161" stroke-width="0.5" stroke="black" fill="green"/>
   </g>
   <g id="cell35">
  <circle cx="545.704" cy="559.126" r="8.41157" stroke-width="0.5" stroke="black" fill="green"/>
  <circle cx="545.704" cy="559.126" r="5.05138" stroke-width="0.5" stroke="black" fill="green"/>
   </g>
   <g id="cell36">
  <circle cx="392.037" cy="581.224" r="8.40683" stroke-width="0.5" stroke="black" fill="green"/>
  <circle cx="392.037" cy="581.224" r="5.04993" stroke-width="0.5" stroke="black" fill="green"/>
   </g>
   <g id="cell174">
  <circle cx="478.151" cy="618.508" r="8.13796" stroke-width="0.5" stroke="black" fill="green"/>
  <circle cx="478.151" cy="618.508" r="4.92313" stroke-width="0.5" stroke="black" fill="green"/>
   </g>
   <g id="cell38">
  <circle cx="524.984" cy="606.519" r="8.41227" stroke-width="0.5" stroke="black" fill="green"/>
  <circle cx="524.984" cy="606.519" r="5.05157" stroke-width="0.5" stroke="black" fill="green"/>
   </g>
   <g id="cell39">
  <circle cx="618.076" cy="499.508" r="8.18827" stroke-width="0.5" stroke="black" fill="green"/>
  <circle cx="618.076" cy="499.508" r="4.94919" stroke-width="0.5" stroke="black" fill="green"/>
   </g>
   <g id="cell40">
  <circle cx="483.523" cy="570.204" r="8.41271" stroke-width="0.5" stroke="black" fill="green"/>
  <circle cx="483.523" cy="570.204" r="5.05167" stroke-width="0.5" stroke="black" fill="green"/>
   </g>
   <g id="cell41">
  <circle cx="361.17" cy="481.203" r="8.41271" stroke-width="0.5" stroke="black" fill="green"/>
  <circle cx="361.17" cy="481.203" r="5.05167" stroke-width="0.5" stroke="black" fill="green"/>
   </g>
   <g id="cell176">
  <circle cx="469.818" cy="446.507" r="7.90166" stroke-width="0.5" stroke="black" fill="magenta"/>
  <circle cx="469.818" cy="446.507" r="4.80733" stroke-width="0.5" stroke="black" fill="magenta"/>
   </g>
   <g id="cell43">
  <circle cx="558.191" cy="445.615" r="8.41271" stroke-width="0.5" stroke="black" fill="green"/>
  <circle cx="558.191" cy="445.615" r="5.05167" stroke-width="0.5" stroke="black" fill="green"/>
   </g>
   <g id="cell44">
  <circle cx="488.565" cy="630.025" r="8.33683" stroke-width="0.5" stroke="black" fill="green"/>
  <circle cx="488.565" cy="630.025" r="5.02137" stroke-width="0.5" stroke="black" fill="green"/>
   </g>
   <g id="cell45">
  <circle cx="433.133" cy="564.263" r="8.13231" stroke-width="0.5" stroke="black" fill="green"/>
  <circle cx="433.133" cy="564.263" r="4.92888" stroke-width="0.5" stroke="black" fill="green"/>
   </g>
   <g id="cell46">
  <circle cx="520.293" cy="621.501" r="8.38079" stroke-width="0.5" stroke="black" fill="green"/>
  <circle cx="520.293" cy="621.501" r="5.04042" stroke-width="0.5" stroke="black" fill="green"/>
   </g>
   <g id="cell47">
  <circle cx="495.35" cy="512.092" r="8.41271" stroke-width="0.5" stroke="black" fill="green"/>
  <circle cx="495.35" cy="512.092" r="5.05167" stroke-width="0.5" stroke="black" fill="green"/>
   </g>
   <g id="cell48">
  <circle cx="566.13" cy="605.71" r="8.41271" stroke-width="0.5" stroke="black" fill="green"/>
  <circle cx="566.13" cy="605.71" r="5.05167" stroke-width="0.5" stroke="black" fill="green"/>
   </g>
   <g id="cell49">
  <circle cx="439.68" cy="388.966" r="7.60893" stroke-width="0.5" stroke="black" fill="green"/>
  <circle cx="439.68" cy="388.966" r="4.6257" stroke-width="0.5" stroke="black" fill="green"/>
   </g>
   <g id="cell50">
  <circle cx="508.078" cy="491.458" r="7.21921" stroke-width="0.5" stroke="black" fill="cyan"/>
  <circle cx="508.078" cy="491.458" r="4.41582" stroke-width="0.5" stroke="black" fill="cyan"/>
   </g>
   <g id="cell51">
  <circle cx="385.144" cy="603.92" r="8.34646" stroke-width="0.5" stroke="black" fill="cyan"/>
  <circle cx="385.144" cy="603.92" r="5.02616" stroke-width="0.5" stroke="black" fill="cyan"/>
   </g>
   <g id="cell120">
  <circle cx="419.045" cy="610.588" r="8.40839" stroke-width="0.5" stroke="black" fill="cyan"/>
  <circle cx="419.045" cy="610.588" r="5.05043" stroke-width="0.5" stroke="black" fill="cyan"/>
   </g>
   <g id="cell53">
  <circle cx="571.109" cy="436.134" r="8.41271" stroke-width="0.5" stroke="black" fill="cyan"/>
  <circle cx="571.109" cy="436.134" r="5.05167" stroke-width="0.5" stroke="black" fill="cyan"/>
   </g>
   <g id="cell54">
  <circle cx="486.714" cy="424.637" r="8.35882" stroke-width="0.5" stroke="black" fill="cyan"/>
  <circle cx="486.714" cy="424.637" r="5.031" stroke-width="0.5" stroke="black" fill="cyan"/>
   </g>
   <g id="cell55">
  <circle cx="521.154" cy="477.623" r="8.41271" stroke-width="0.5" stroke="black" fill="cyan"/>
  <circle cx="521.154" cy="477.623" r="5.05167" stroke-width="0.5" stroke="black" fill="cyan"/>
   </g>
   <g id="cell56">
  <circle cx="621.233" cy="519.695" r="7.24212" stroke-width="0.5" stroke="black" fill="cyan"/>
  <circle cx="621.233" cy="519.695" r="4.43552" stroke-width="0.5" stroke="black" fill="cyan"/>
   </g>
   <g id="cell57">
  <circle cx="418.484" cy="626.592" r="8.40839" stroke-width="0.5" stroke="black" fill="cyan"/>
  <circle cx="418.484" cy="626.592" r="5.05043" stroke-width="0.5" stroke="black" fill="cyan"/>
   </g>
   <g id="cell58">
  <circle cx="549.901" cy="484.201" r="8.41271" stroke-width="0.5" stroke="black" fill="cyan"/>
  <circle cx="549.901" cy="484.201" r="5.05167" stroke-width="0.5" stroke="black" fill="cyan"/>
   </g>
   <g id="cell59">
  <circle cx="385.489" cy="439.901" r="8.41271" stroke-width="0.5" stroke="black" fill="cyan"/>
  <circle cx="385.489" cy="439.901" r="5.05167" stroke-width="0.5" stroke="black" fill="cyan"/>
   </g>
   <g id="cell60">
  <circle cx="601.986" cy="471.238" r="7.51647" stroke-width="0.5" stroke="black" fill="cyan"/>
  <circle cx="601.986" cy="471.238" r="4.56968" stroke-width="0.5" stroke="black" fill="cyan"/>
   </g>
   <g id="cell155">
  <circle cx="518.069" cy="593.15" r="8.28749" stroke-width="0.5" stroke="black" fill="magenta"/>
  <circle cx="518.069" cy="593.15" r="5.00126" stroke-width="0.5" stroke="black" fill="magenta"/>
   </g>
   <g id="cell62">
  <circle cx="523.893" cy="436.575" r="8.41271" stroke-width="0.5" stroke="black" fill="cyan"/>
  <circle cx="523.893" cy="436.575" r="5.05167" stroke-width="0.5" stroke="black" fill="cyan"/>
   </g>
   <g id="cell63">
  <circle cx="581.76" cy="553.798" r="8.41227" stroke-width="0.5" stroke="black" fill="cyan"/>
  <circle cx="581.76" cy="553.798" r="5.05157" stroke-width="0.5" stroke="black" fill="cyan"/>
   </g>
   <g id="cell64">
  <circle cx="510.257" cy="633.649" r="8.407" stroke-width="0.5" stroke="black" fill="cyan"/>
  <circle cx="510.257" cy="633.649" r="5.04998" stroke-width="0.5" stroke="black" fill="cyan"/>
   </g>
   <g id="cell65">
  <circle cx="534.204" cy="448.875" r="8.25801" stroke-width="0.5" stroke="black" fill="cyan"/>
  <circle cx="534.204" cy="448.875" r="4.98423" stroke-width="0.5" stroke="black" fill="cyan"/>
   </g>
   <g id="cell66">
  <circle cx="550.399" cy="522.251" r="8.40862" stroke-width="0.5" stroke="black" fill="cyan"/>
  <circle cx="550.399" cy="522.251" r="5.0505" stroke-width="0.5" stroke="black" fill="cyan"/>
   </g>
   <g id="cell67">
  <circle cx="353.532" cy="494.864" r="8.41271" stroke-width="0.5" stroke="black" fill="cyan"/>
  <circle cx="353.532" cy="494.864" r="5.05167" stroke-width="0.5" stroke="black" fill="cyan"/>
   </g>
   <g id="cell68">
  <circle cx="567.198" cy="553.323" r="7.0545" stroke-width="0.5" stroke="black" fill="cyan"/>
  <circle cx="567.198" cy="553.323" r="4.27772" stroke-width="0.5" stroke="black" fill="cyan"/>
   </g>
   <g id="cell69">
  <circle cx="440.234" cy="442.878" r="8.41262" stroke-width="0.5" stroke="black" fill="cyan"/>
  <circle cx="440.234" cy="442.878" r="5.05165" stroke-width="0.5" stroke="black" fill="cyan"/>
   </g>
   <g id="cell70">
  <circle cx="573.408" cy="469.203" r="8.39618" stroke-width="0.5" stroke="black" fill="cyan"/>
  <circle cx="573.408" cy="469.203" r="5.04616" stroke-width="0.5" stroke="black" fill="cyan"/>
   </g>
   <g id="cell71">
  <circle cx="381.147" cy="528.028" r="8.32" stroke-width="0.5" stroke="black" fill="cyan"/>
  <circle cx="381.147" cy="528.028" r="5.01451" stroke-width="0.5" stroke="black" fill="cyan"/>
   </g>
   <g id="cell72">
  <circle cx="537.878" cy="512.532" r="8.41271" stroke-width="0.5" stroke="black" fill="cyan"/>
  <circle cx="537.878" cy="512.532" r="5.05167" stroke-width="0.5" stroke="black" fill="cyan"/>
   </g>
   <g id="cell129">
  <circle cx="417.444" cy="404.586" r="8.40327" stroke-width="0.5" stroke="black" fill="green"/>
  <circle cx="417.444" cy="404.586" r="5.04872" stroke-width="0.5" stroke="black" fill="green"/>
   </g>
   <g id="cell74">
  <circle cx="541.866" cy="443.428" r="1.56818" stroke-width="0.5" stroke="black" fill="cyan"/>
  <circle cx="541.866" cy="443.428" r="1.54219" stroke-width="0.5" stroke="black" fill="black"/>
   </g>
   <g id="cell75">
  <circle cx="441.879" cy="481.377" r="7.44741" stroke-width="0.5" stroke="black" fill="cyan"/>
  <circle cx="441.879" cy="481.377" r="4.56061" stroke-width="0.5" stroke="black" fill="cyan"/>
   </g>
   <g id="cell76">
  <circle cx="511.087" cy="377.155" r="7.75879" stroke-width="0.5" stroke="black" fill="magenta"/>
  <circle cx="511.087" cy="377.155" r="4.71239" stroke-width="0.5" stroke="black" fill="magenta"/>
   </g>
   <g id="cell77">
  <circle cx="501.636" cy="428.485" r="8.3751" stroke-width="0.5" stroke="black" fill="magenta"/>
  <circle cx="501.636" cy="428.485" r="5.03804" stroke-width="0.5" stroke="black" fill="magenta"/>
   </g>
   <g id="cell78">
  <circle cx="371.255" cy="457.776" r="6.75632" stroke-width="0.5" stroke="black" fill="magenta"/>
  <circle cx="371.255" cy="457.776" r="4.06811" stroke-width="0.5" stroke="black" fill="magenta"/>
   </g>
   <g id="cell79">
  <circle cx="496.872" cy="527.73" r="8.4126" stroke-width="0.5" stroke="black" fill="magenta"/>
  <circle cx="496.872" cy="527.73" r="5.05165" stroke-width="0.5" stroke="black" fill="magenta"/>
   </g>
   <g id="cell80">
  <circle cx="606.612" cy="485.477" r="8.22384" stroke-width="0.5" stroke="black" fill="green"/>
  <circle cx="606.612" cy="485.477" r="4.96724" stroke-width="0.5" stroke="black" fill="green"/>
   </g>
   <g id="cell81">
  <circle cx="428.326" cy="505.901" r="8.40449" stroke-width="0.5" stroke="black" fill="green"/>
  <circle cx="428.326" cy="505.901" r="5.0492" stroke-width="0.5" stroke="black" fill="green"/>
   </g>
   <g id="cell82">
  <circle cx="544.031" cy="498.218" r="8.41258" stroke-width="0.5" stroke="black" fill="magenta"/>
  <circle cx="544.031" cy="498.218" r="5.05164" stroke-width="0.5" stroke="black" fill="magenta"/>
   </g>
   <g id="cell130">
  <circle cx="573.673" cy="393.124" r="8.40272" stroke-width="0.5" stroke="black" fill="magenta"/>
  <circle cx="573.673" cy="393.124" r="5.04853" stroke-width="0.5" stroke="black" fill="magenta"/>
   </g>
   <g id="cell84">
  <circle cx="404.796" cy="484.363" r="8.41036" stroke-width="0.5" stroke="black" fill="green"/>
  <circle cx="404.796" cy="484.363" r="5.05105" stroke-width="0.5" stroke="black" fill="green"/>
   </g>
   <g id="cell140">
  <circle cx="525.838" cy="580.45" r="8.36455" stroke-width="0.5" stroke="black" fill="magenta"/>
  <circle cx="525.838" cy="580.45" r="5.03459" stroke-width="0.5" stroke="black" fill="magenta"/>
   </g>
   <g id="cell86">
  <circle cx="390.933" cy="565.804" r="8.41053" stroke-width="0.5" stroke="black" fill="magenta"/>
  <circle cx="390.933" cy="565.804" r="5.0511" stroke-width="0.5" stroke="black" fill="magenta"/>
   </g>
   <g id="cell87">
  <circle cx="433.757" cy="520.926" r="8.33928" stroke-width="0.5" stroke="black" fill="green"/>
  <circle cx="433.757" cy="520.926" r="5.02274" stroke-width="0.5" stroke="black" fill="green"/>
   </g>
   <g id="cell88">
  <circle cx="475.915" cy="605.014" r="6.5995" stroke-width="0.5" stroke="black" fill="green"/>
  <circle cx="475.915" cy="605.014" r="4.00885" stroke-width="0.5" stroke="black" fill="green"/>
   </g>
   <g id="cell89">
  <circle cx="430.793" cy="490.374" r="8.41166" stroke-width="0.5" stroke="black" fill="green"/>
  <circle cx="430.793" cy="490.374" r="5.05142" stroke-width="0.5" stroke="black" fill="green"/>
   </g>
   <g id="cell90">
  <circle cx="579.951" cy="513.446" r="8.32274" stroke-width="0.5" stroke="black" fill="magenta"/>
  <circle cx="579.951" cy="513.446" r="5.01498" stroke-width="0.5" stroke="black" fill="magenta"/>
   </g>
   <g id="cell136">
  <circle cx="524.676" cy="540.107" r="8.39316" stroke-width="0.5" stroke="black" fill="magenta"/>
  <circle cx="524.676" cy="540.107" r="5.04503" stroke-width="0.5" stroke="black" fill="magenta"/>
   </g>
   <g id="cell92">
  <circle cx="560.296" cy="590.755" r="8.41025" stroke-width="0.5" stroke="black" fill="green"/>
  <circle cx="560.296" cy="590.755" r="5.05103" stroke-width="0.5" stroke="black" fill="green"/>
   </g>
   <g id="cell93">
  <circle cx="578.469" cy="527.542" r="7.43455" stroke-width="0.5" stroke="black" fill="cyan"/>
  <circle cx="578.469" cy="527.542" r="4.52106" stroke-width="0.5" stroke="black" fill="cyan"/>
   </g>
   <g id="cell94">
  <circle cx="541.223" cy="471.238" r="8.41224" stroke-width="0.5" stroke="black" fill="cyan"/>
  <circle cx="541.223" cy="471.238" r="5.05156" stroke-width="0.5" stroke="black" fill="cyan"/>
   </g>
   <g id="cell95">
  <circle cx="466.707" cy="533.245" r="8.41224" stroke-width="0.5" stroke="black" fill="magenta"/>
  <circle cx="466.707" cy="533.245" r="5.05156" stroke-width="0.5" stroke="black" fill="magenta"/>
   </g>
   <g id="cell96">
  <circle cx="538.283" cy="383.148" r="8.41214" stroke-width="0.5" stroke="black" fill="magenta"/>
  <circle cx="538.283" cy="383.148" r="5.05154" stroke-width="0.5" stroke="black" fill="magenta"/>
   </g>
   <g id="cell97">
  <circle cx="565.225" cy="510.515" r="8.41206" stroke-width="0.5" stroke="black" fill="magenta"/>
  <circle cx="565.225" cy="510.515" r="5.05152" stroke-width="0.5" stroke="black" fill="magenta"/>
   </g>
   <g id="cell98">
  <circle cx="405.633" cy="572.903" r="8.35843" stroke-width="0.5" stroke="black" fill="green"/>
  <circle cx="405.633" cy="572.903" r="5.03091" stroke-width="0.5" stroke="black" fill="green"/>
   </g>
   <g id="cell99">
  <circle cx="574.678" cy="498.62" r="8.41196" stroke-width="0.5" stroke="black" fill="magenta"/>
  <circle cx="574.678" cy="498.62" r="5.05149" stroke-width="0.5" stroke="black" fill="magenta"/>
   </g>
   <g id="cell100">
  <circle cx="569.251" cy="539.14" r="8.41169" stroke-width="0.5" stroke="black" fill="cyan"/>
  <circle cx="569.251" cy="539.14" r="5.05143" stroke-width="0.5" stroke="black" fill="cyan"/>
   </g>
   <g id="cell101">
  <circle cx="458.725" cy="628.894" r="7.49325" stroke-width="0.5" stroke="black" fill="magenta"/>
  <circle cx="458.725" cy="628.894" r="4.55511" stroke-width="0.5" stroke="black" fill="magenta"/>
   </g>
   <g id="cell102">
  <circle cx="444.319" cy="509.214" r="8.41166" stroke-width="0.5" stroke="black" fill="green"/>
  <circle cx="444.319" cy="509.214" r="5.05142" stroke-width="0.5" stroke="black" fill="green"/>
   </g>
   <g id="cell103">
  <circle cx="556.543" cy="617.784" r="8.14527" stroke-width="0.5" stroke="black" fill="green"/>
  <circle cx="556.543" cy="617.784" r="4.92709" stroke-width="0.5" stroke="black" fill="green"/>
   </g>
   <g id="cell104">
  <circle cx="553.257" cy="540.58" r="8.41157" stroke-width="0.5" stroke="black" fill="green"/>
  <circle cx="553.257" cy="540.58" r="5.05138" stroke-width="0.5" stroke="black" fill="green"/>
   </g>
   <g id="cell105">
  <circle cx="416.131" cy="495.017" r="8.41137" stroke-width="0.5" stroke="black" fill="green"/>
  <circle cx="416.131" cy="495.017" r="5.05133" stroke-width="0.5" stroke="black" fill="green"/>
   </g>
   <g id="cell106">
  <circle cx="648.932" cy="530.673" r="8.02348" stroke-width="0.5" stroke="black" fill="green"/>
  <circle cx="648.932" cy="530.673" r="4.8619" stroke-width="0.5" stroke="black" fill="green"/>
   </g>
   <g id="cell107">
  <circle cx="383.385" cy="512.255" r="8.41108" stroke-width="0.5" stroke="black" fill="cyan"/>
  <circle cx="383.385" cy="512.255" r="5.05125" stroke-width="0.5" stroke="black" fill="cyan"/>
   </g>
   <g id="cell108">
  <circle cx="461.08" cy="643.013" r="8.41062" stroke-width="0.5" stroke="black" fill="magenta"/>
  <circle cx="461.08" cy="643.013" r="5.05113" stroke-width="0.5" stroke="black" fill="magenta"/>
   </g>
   <g id="cell109">
  <circle cx="447.097" cy="637.245" r="8.41062" stroke-width="0.5" stroke="black" fill="magenta"/>
  <circle cx="447.097" cy="637.245" r="5.05113" stroke-width="0.5" stroke="black" fill="magenta"/>
   </g>
   <g id="cell110">
  <circle cx="538.121" cy="572.161" r="7.7942" stroke-width="0.5" stroke="black" fill="green"/>
  <circle cx="538.121" cy="572.161" r="4.73319" stroke-width="0.5" stroke="black" fill="green"/>
   </g>
   <g id="cell111">
  <circle cx="627.625" cy="556.59" r="8.41025" stroke-width="0.5" stroke="black" fill="green"/>
  <circle cx="627.625" cy="556.59" r="5.05103" stroke-width="0.5" stroke="black" fill="green"/>
   </g>
   <g id="cell112">
  <circle cx="378.174" cy="573.651" r="8.41053" stroke-width="0.5" stroke="black" fill="magenta"/>
  <circle cx="378.174" cy="573.651" r="5.0511" stroke-width="0.5" stroke="black" fill="magenta"/>
   </g>
   <g id="cell113">
  <circle cx="419.321" cy="479.271" r="8.41036" stroke-width="0.5" stroke="black" fill="green"/>
  <circle cx="419.321" cy="479.271" r="5.05105" stroke-width="0.5" stroke="black" fill="green"/>
   </g>
   <g id="cell114">
  <circle cx="500.327" cy="454.134" r="8.39892" stroke-width="0.5" stroke="black" fill="magenta"/>
  <circle cx="500.327" cy="454.134" r="5.04729" stroke-width="0.5" stroke="black" fill="magenta"/>
   </g>
   <g id="cell115">
  <circle cx="452.865" cy="525.921" r="8.40971" stroke-width="0.5" stroke="black" fill="green"/>
  <circle cx="452.865" cy="525.921" r="5.05085" stroke-width="0.5" stroke="black" fill="green"/>
   </g>
   <g id="cell116">
  <circle cx="368.593" cy="518.302" r="8.4088" stroke-width="0.5" stroke="black" fill="cyan"/>
  <circle cx="368.593" cy="518.302" r="5.0506" stroke-width="0.5" stroke="black" fill="cyan"/>
   </g>
   <g id="cell173">
  <circle cx="539.139" cy="609.071" r="7.58397" stroke-width="0.5" stroke="black" fill="green"/>
  <circle cx="539.139" cy="609.071" r="4.62804" stroke-width="0.5" stroke="black" fill="green"/>
   </g>
   <g id="cell118">
  <circle cx="523.148" cy="525.074" r="8.15873" stroke-width="0.5" stroke="black" fill="cyan"/>
  <circle cx="523.148" cy="525.074" r="4.93442" stroke-width="0.5" stroke="black" fill="cyan"/>
   </g>
   <g id="cell119">
  <circle cx="525.015" cy="639.342" r="8.37109" stroke-width="0.5" stroke="black" fill="green"/>
  <circle cx="525.015" cy="639.342" r="5.03647" stroke-width="0.5" stroke="black" fill="green"/>
   </g>
   <g id="cell121">
  <circle cx="390.541" cy="550.772" r="8.40773" stroke-width="0.5" stroke="black" fill="magenta"/>
  <circle cx="390.541" cy="550.772" r="5.05023" stroke-width="0.5" stroke="black" fill="magenta"/>
   </g>
   <g id="cell122">
  <circle cx="615.334" cy="458.352" r="8.24165" stroke-width="0.5" stroke="black" fill="cyan"/>
  <circle cx="615.334" cy="458.352" r="4.97664" stroke-width="0.5" stroke="black" fill="cyan"/>
   </g>
   <g id="cell123">
  <circle cx="499.343" cy="645.14" r="8.407" stroke-width="0.5" stroke="black" fill="cyan"/>
  <circle cx="499.343" cy="645.14" r="5.04998" stroke-width="0.5" stroke="black" fill="cyan"/>
   </g>
   <g id="cell124">
  <circle cx="378.427" cy="589.36" r="8.40683" stroke-width="0.5" stroke="black" fill="green"/>
  <circle cx="378.427" cy="589.36" r="5.04993" stroke-width="0.5" stroke="black" fill="green"/>
   </g>
   <g id="cell125">
  <circle cx="455.569" cy="458.877" r="7.11366" stroke-width="0.5" stroke="black" fill="cyan"/>
  <circle cx="455.569" cy="458.877" r="4.31809" stroke-width="0.5" stroke="black" fill="cyan"/>
   </g>
   <g id="cell126">
  <circle cx="412.535" cy="510.014" r="8.40449" stroke-width="0.5" stroke="black" fill="green"/>
  <circle cx="412.535" cy="510.014" r="5.0492" stroke-width="0.5" stroke="black" fill="green"/>
   </g>
   <g id="cell127">
  <circle cx="413.478" cy="595.602" r="8.4045" stroke-width="0.5" stroke="black" fill="cyan"/>
  <circle cx="413.478" cy="595.602" r="5.04914" stroke-width="0.5" stroke="black" fill="cyan"/>
   </g>
   <g id="cell128">
  <circle cx="352.859" cy="538.878" r="7.9445" stroke-width="0.5" stroke="black" fill="cyan"/>
  <circle cx="352.859" cy="538.878" r="4.81951" stroke-width="0.5" stroke="black" fill="cyan"/>
   </g>
   <g id="cell131">
  <circle cx="584.081" cy="539.601" r="6.98177" stroke-width="0.5" stroke="black" fill="cyan"/>
  <circle cx="584.081" cy="539.601" r="4.23199" stroke-width="0.5" stroke="black" fill="cyan"/>
   </g>
   <g id="cell132">
  <circle cx="508.853" cy="441.654" r="8.39892" stroke-width="0.5" stroke="black" fill="magenta"/>
  <circle cx="508.853" cy="441.654" r="5.04729" stroke-width="0.5" stroke="black" fill="magenta"/>
   </g>
   <g id="cell133">
  <circle cx="534.961" cy="408.989" r="8.39913" stroke-width="0.5" stroke="black" fill="magenta"/>
  <circle cx="534.961" cy="408.989" r="5.04725" stroke-width="0.5" stroke="black" fill="magenta"/>
   </g>
   <g id="cell134">
  <circle cx="510.731" cy="580.065" r="8.37789" stroke-width="0.5" stroke="black" fill="magenta"/>
  <circle cx="510.731" cy="580.065" r="5.03954" stroke-width="0.5" stroke="black" fill="magenta"/>
   </g>
   <g id="cell135">
  <circle cx="564.939" cy="482.349" r="8.39618" stroke-width="0.5" stroke="black" fill="cyan"/>
  <circle cx="564.939" cy="482.349" r="5.04616" stroke-width="0.5" stroke="black" fill="cyan"/>
   </g>
   <g id="cell137">
  <circle cx="376.886" cy="477.498" r="8.38952" stroke-width="0.5" stroke="black" fill="magenta"/>
  <circle cx="376.886" cy="477.498" r="5.04364" stroke-width="0.5" stroke="black" fill="magenta"/>
   </g>
   <g id="cell138">
  <circle cx="533.418" cy="593.522" r="8.28749" stroke-width="0.5" stroke="black" fill="magenta"/>
  <circle cx="533.418" cy="593.522" r="5.00126" stroke-width="0.5" stroke="black" fill="magenta"/>
   </g>
   <g id="cell139">
  <circle cx="509.597" cy="606.849" r="8.38079" stroke-width="0.5" stroke="black" fill="green"/>
  <circle cx="509.597" cy="606.849" r="5.04042" stroke-width="0.5" stroke="black" fill="green"/>
   </g>
   <g id="cell142">
  <circle cx="583.754" cy="382.026" r="8.37034" stroke-width="0.5" stroke="black" fill="magenta"/>
  <circle cx="583.754" cy="382.026" r="5.03639" stroke-width="0.5" stroke="black" fill="magenta"/>
   </g>
   <g id="cell143">
  <circle cx="532.917" cy="627.856" r="6.74979" stroke-width="0.5" stroke="black" fill="green"/>
  <circle cx="532.917" cy="627.856" r="4.07532" stroke-width="0.5" stroke="black" fill="green"/>
   </g>
   <g id="cell144">
  <circle cx="378.116" cy="543.085" r="8.36972" stroke-width="0.5" stroke="black" fill="magenta"/>
  <circle cx="378.116" cy="543.085" r="5.03563" stroke-width="0.5" stroke="black" fill="magenta"/>
   </g>
   <g id="cell145">
  <circle cx="455.875" cy="482.736" r="7.65263" stroke-width="0.5" stroke="black" fill="magenta"/>
  <circle cx="455.875" cy="482.736" r="4.65559" stroke-width="0.5" stroke="black" fill="magenta"/>
   </g>
   <g id="cell146">
  <circle cx="460.189" cy="419.936" r="8.35882" stroke-width="0.5" stroke="black" fill="cyan"/>
  <circle cx="460.189" cy="419.936" r="5.031" stroke-width="0.5" stroke="black" fill="cyan"/>
   </g>
   <g id="cell148">
  <circle cx="401.014" cy="605.546" r="8.34646" stroke-width="0.5" stroke="black" fill="cyan"/>
  <circle cx="401.014" cy="605.546" r="5.02616" stroke-width="0.5" stroke="black" fill="cyan"/>
   </g>
   <g id="cell149">
  <circle cx="440.088" cy="535.402" r="8.33928" stroke-width="0.5" stroke="black" fill="green"/>
  <circle cx="440.088" cy="535.402" r="5.02274" stroke-width="0.5" stroke="black" fill="green"/>
   </g>
   <g id="cell150">
  <circle cx="472.837" cy="632.982" r="8.33683" stroke-width="0.5" stroke="black" fill="green"/>
  <circle cx="472.837" cy="632.982" r="5.02137" stroke-width="0.5" stroke="black" fill="green"/>
   </g>
   <g id="cell151">
  <circle cx="522.252" cy="509.607" r="8.33481" stroke-width="0.5" stroke="black" fill="cyan"/>
  <circle cx="522.252" cy="509.607" r="5.02043" stroke-width="0.5" stroke="black" fill="cyan"/>
   </g>
   <g id="cell152">
  <circle cx="643.128" cy="552.837" r="8.32662" stroke-width="0.5" stroke="black" fill="green"/>
  <circle cx="643.128" cy="552.837" r="5.01696" stroke-width="0.5" stroke="black" fill="green"/>
   </g>
   <g id="cell153">
  <circle cx="395.715" cy="522.114" r="8.32" stroke-width="0.5" stroke="black" fill="cyan"/>
  <circle cx="395.715" cy="522.114" r="5.01451" stroke-width="0.5" stroke="black" fill="cyan"/>
   </g>
   <g id="cell154">
  <circle cx="588.544" cy="502.566" r="7.81158" stroke-width="0.5" stroke="black" fill="magenta"/>
  <circle cx="588.544" cy="502.566" r="4.75079" stroke-width="0.5" stroke="black" fill="magenta"/>
   </g>
   <g id="cell156">
  <circle cx="403.676" cy="557.645" r="8.17056" stroke-width="0.5" stroke="black" fill="green"/>
  <circle cx="403.676" cy="557.645" r="4.94539" stroke-width="0.5" stroke="black" fill="green"/>
   </g>
   <g id="cell157">
  <circle cx="391.776" cy="476.93" r="8.27792" stroke-width="0.5" stroke="black" fill="magenta"/>
  <circle cx="391.776" cy="476.93" r="4.9954" stroke-width="0.5" stroke="black" fill="magenta"/>
   </g>
   <g id="cell158">
  <circle cx="431.868" cy="470.503" r="8.21212" stroke-width="0.5" stroke="black" fill="green"/>
  <circle cx="431.868" cy="470.503" r="4.96577" stroke-width="0.5" stroke="black" fill="green"/>
   </g>
   <g id="cell159">
  <circle cx="440.979" cy="458.355" r="8.21212" stroke-width="0.5" stroke="black" fill="green"/>
  <circle cx="440.979" cy="458.355" r="4.96577" stroke-width="0.5" stroke="black" fill="green"/>
   </g>
   <g id="cell160">
  <circle cx="418.211" cy="561.064" r="8.19475" stroke-width="0.5" stroke="black" fill="green"/>
  <circle cx="418.211" cy="561.064" r="4.95734" stroke-width="0.5" stroke="black" fill="green"/>
   </g>
   <g id="cell161">
  <circle cx="527.712" cy="463.254" r="8.25801" stroke-width="0.5" stroke="black" fill="cyan"/>
  <circle cx="527.712" cy="463.254" r="4.98423" stroke-width="0.5" stroke="black" fill="cyan"/>
   </g>
   <g id="cell162">
  <circle cx="616.659" cy="473.873" r="8.24165" stroke-width="0.5" stroke="black" fill="cyan"/>
  <circle cx="616.659" cy="473.873" r="4.97664" stroke-width="0.5" stroke="black" fill="cyan"/>
   </g>
   <g id="cell163">
  <circle cx="427.069" cy="548.72" r="8.13231" stroke-width="0.5" stroke="black" fill="green"/>
  <circle cx="427.069" cy="548.72" r="4.92888" stroke-width="0.5" stroke="black" fill="green"/>
   </g>
   <g id="cell164">
  <circle cx="464.127" cy="470.334" r="8.24104" stroke-width="0.5" stroke="black" fill="cyan"/>
  <circle cx="464.127" cy="470.334" r="4.97644" stroke-width="0.5" stroke="black" fill="cyan"/>
   </g>
   <g id="cell165">
  <circle cx="412.234" cy="545.085" r="8.17056" stroke-width="0.5" stroke="black" fill="green"/>
  <circle cx="412.234" cy="545.085" r="4.94539" stroke-width="0.5" stroke="black" fill="green"/>
   </g>
   <g id="cell166">
  <circle cx="602.677" cy="500.402" r="8.22384" stroke-width="0.5" stroke="black" fill="green"/>
  <circle cx="602.677" cy="500.402" r="4.96724" stroke-width="0.5" stroke="black" fill="green"/>
   </g>
   <g id="cell167">
  <circle cx="466.864" cy="387.289" r="8.2239" stroke-width="0.5" stroke="black" fill="green"/>
  <circle cx="466.864" cy="387.289" r="4.96725" stroke-width="0.5" stroke="black" fill="green"/>
   </g>
   <g id="cell168">
  <circle cx="520.144" cy="406.736" r="8.21128" stroke-width="0.5" stroke="black" fill="magenta"/>
  <circle cx="520.144" cy="406.736" r="4.96213" stroke-width="0.5" stroke="black" fill="magenta"/>
   </g>
   <g id="cell169">
  <circle cx="466.542" cy="433.293" r="7.28446" stroke-width="0.5" stroke="black" fill="magenta"/>
  <circle cx="466.542" cy="433.293" r="4.46559" stroke-width="0.5" stroke="black" fill="magenta"/>
   </g>
   <g id="cell170">
  <circle cx="628.935" cy="488.361" r="8.18827" stroke-width="0.5" stroke="black" fill="green"/>
  <circle cx="628.935" cy="488.361" r="4.94919" stroke-width="0.5" stroke="black" fill="green"/>
   </g>
   <g id="cell171">
  <circle cx="537.213" cy="530.672" r="8.15873" stroke-width="0.5" stroke="black" fill="cyan"/>
  <circle cx="537.213" cy="530.672" r="4.93442" stroke-width="0.5" stroke="black" fill="cyan"/>
   </g>
   <g id="cell172">
  <circle cx="509.362" cy="519.063" r="8.10457" stroke-width="0.5" stroke="black" fill="cyan"/>
  <circle cx="509.362" cy="519.063" r="4.91055" stroke-width="0.5" stroke="black" fill="cyan"/>
   </g>
   <g id="cell175">
  <circle cx="638.31" cy="539.501" r="6.71062" stroke-width="0.5" stroke="black" fill="green"/>
  <circle cx="638.31" cy="539.501" r="4.09743" stroke-width="0.5" stroke="black" fill="green"/>
   </g>
   <g id="cell177">
  <circle cx="366.714" cy="533.694" r="7.9445" stroke-width="0.5" stroke="black" fill="cyan"/>
  <circle cx="366.714" cy="533.694" r="4.81951" stroke-width="0.5" stroke="black" fill="cyan"/>
   </g>
   <g id="cell178">
  <circle cx="483.656" cy="450.101" r="7.82559" stroke-width="0.5" stroke="black" fill="magenta"/>
  <circle cx="483.656" cy="450.101" r="4.76548" stroke-width="0.5" stroke="black" fill="magenta"/>
   </g>
   <g id="cell179">
  <circle cx="447.229" cy="494.327" r="7.79704" stroke-width="0.5" stroke="black" fill="cyan"/>
  <circle cx="447.229" cy="494.327" r="4.74676" stroke-width="0.5" stroke="black" fill="cyan"/>
   </g>
   <g id="cell180">
  <circle cx="592.672" cy="489.548" r="7.81158" stroke-width="0.5" stroke="black" fill="magenta"/>
  <circle cx="592.672" cy="489.548" r="4.75079" stroke-width="0.5" stroke="black" fill="magenta"/>
   </g>
   <g id="cell181">
  <circle cx="545.725" cy="584.468" r="7.7942" stroke-width="0.5" stroke="black" fill="green"/>
  <circle cx="545.725" cy="584.468" r="4.73319" stroke-width="0.5" stroke="black" fill="green"/>
   </g>
   <g id="cell182">
  <circle cx="449.356" cy="470.422" r="7.44741" stroke-width="0.5" stroke="black" fill="cyan"/>
  <circle cx="449.356" cy="470.422" r="4.56061" stroke-width="0.5" stroke="black" fill="cyan"/>
   </g>
   <g id="cell183">
  <circle cx="523.968" cy="381.87" r="7.75879" stroke-width="0.5" stroke="black" fill="magenta"/>
  <circle cx="523.968" cy="381.87" r="4.71239" stroke-width="0.5" stroke="black" fill="magenta"/>
   </g>
   <g id="cell184">
  <circle cx="547.58" cy="598.375" r="7.58397" stroke-width="0.5" stroke="black" fill="green"/>
  <circle cx="547.58" cy="598.375" r="4.62804" stroke-width="0.5" stroke="black" fill="green"/>
   </g>
   <g id="cell185">
  <circle cx="419.278" cy="522.673" r="7.26457" stroke-width="0.5" stroke="black" fill="green"/>
  <circle cx="419.278" cy="522.673" r="4.44852" stroke-width="0.5" stroke="black" fill="green"/>
   </g>
   <g id="cell186">
  <circle cx="606.767" cy="524.86" r="7.1409" stroke-width="0.5" stroke="black" fill="cyan"/>
  <circle cx="606.767" cy="524.86" r="4.37591" stroke-width="0.5" stroke="black" fill="cyan"/>
   </g>
   <g id="cell187">
  <circle cx="469.669" cy="483.73" r="7.65263" stroke-width="0.5" stroke="black" fill="magenta"/>
  <circle cx="469.669" cy="483.73" r="4.65559" stroke-width="0.5" stroke="black" fill="magenta"/>
   </g>
   <g id="cell188">
  <circle cx="617.71" cy="532.76" r="7.24212" stroke-width="0.5" stroke="black" fill="cyan"/>
  <circle cx="617.71" cy="532.76" r="4.43552" stroke-width="0.5" stroke="black" fill="cyan"/>
   </g>
   <g id="cell189">
  <circle cx="425.562" cy="534.438" r="7.26457" stroke-width="0.5" stroke="black" fill="green"/>
  <circle cx="425.562" cy="534.438" r="4.44852" stroke-width="0.5" stroke="black" fill="green"/>
   </g>
   <g id="cell190">
  <circle cx="432.268" cy="401.296" r="7.60893" stroke-width="0.5" stroke="black" fill="green"/>
  <circle cx="432.268" cy="401.296" r="4.6257" stroke-width="0.5" stroke="black" fill="green"/>
   </g>
   <g id="cell191">
  <circle cx="479.63" cy="437.084" r="7.28446" stroke-width="0.5" stroke="black" fill="magenta"/>
  <circle cx="479.63" cy="437.084" r="4.46559" stroke-width="0.5" stroke="black" fill="magenta"/>
   </g>
   <g id="cell192">
  <circle cx="610.286" cy="512.065" r="7.1409" stroke-width="0.5" stroke="black" fill="cyan"/>
  <circle cx="610.286" cy="512.065" r="4.37591" stroke-width="0.5" stroke="black" fill="cyan"/>
   </g>
   <g id="cell193">
  <circle cx="587.983" cy="471.938" r="7.51647" stroke-width="0.5" stroke="black" fill="cyan"/>
  <circle cx="587.983" cy="471.938" r="4.56968" stroke-width="0.5" stroke="black" fill="cyan"/>
   </g>
   <g id="cell194">
  <circle cx="446.644" cy="622.94" r="7.49325" stroke-width="0.5" stroke="black" fill="magenta"/>
  <circle cx="446.644" cy="622.94" r="4.55511" stroke-width="0.5" stroke="black" fill="magenta"/>
   </g>
   <g id="cell195">
  <circle cx="564.854" cy="524.964" r="7.43455" stroke-width="0.5" stroke="black" fill="cyan"/>
  <circle cx="564.854" cy="524.964" r="4.52106" stroke-width="0.5" stroke="black" fill="cyan"/>
   </g>
   <g id="cell196">
  <circle cx="508.347" cy="504.908" r="7.21921" stroke-width="0.5" stroke="black" fill="cyan"/>
  <circle cx="508.347" cy="504.908" r="4.41582" stroke-width="0.5" stroke="black" fill="cyan"/>
   </g>
   <g id="cell197">
  <circle cx="456.036" cy="446.063" r="7.11366" stroke-width="0.5" stroke="black" fill="cyan"/>
  <circle cx="456.036" cy="446.063" r="4.31809" stroke-width="0.5" stroke="black" fill="cyan"/>
   </g>
   <g id="cell198">
  <circle cx="559.341" cy="563.848" r="7.0545" stroke-width="0.5" stroke="black" fill="cyan"/>
  <circle cx="559.341" cy="563.848" r="4.27772" stroke-width="0.5" stroke="black" fill="cyan"/>
   </g>
   <g id="cell199">
  <circle cx="626.162" cy="542.523" r="6.71062" stroke-width="0.5" stroke="black" fill="green"/>
  <circle cx="626.162" cy="542.523" r="4.09743" stroke-width="0.5" stroke="black" fill="green"/>
   </g>
   <g id="cell200">
  <circle cx="595.518" cy="532.641" r="6.98177" stroke-width="0.5" stroke="black" fill="cyan"/>
  <circle cx="595.518" cy="532.641" r="4.23199" stroke-width="0.5" stroke="black" fill="cyan"/>
   </g>
   <g id="cell201">
  <circle cx="395.216" cy="494.333" r="6.82843" stroke-width="0.5" stroke="black" fill="magenta"/>
  <circle cx="395.216" cy="494.333" r="4.1496" stroke-width="0.5" stroke="black" fill="magenta"/>
   </g>
   <g id="cell202">
  <circle cx="480.914" cy="593.726" r="6.5995" stroke-width="0.5" stroke="black" fill="green"/>
  <circle cx="480.914" cy="593.726" r="4.00885" stroke-width="0.5" stroke="black" fill="green"/>
   </g>
   <g id="cell203">
  <circle cx="543.439" cy="621.546" r="6.74979" stroke-width="0.5" stroke="black" fill="green"/>
  <circle cx="543.439" cy="621.546" r="4.07532" stroke-width="0.5" stroke="black" fill="green"/>
   </g>
   <g id="cell204">
  <circle cx="366.783" cy="468.787" r="6.75632" stroke-width="0.5" stroke="black" fill="magenta"/>
  <circle cx="366.783" cy="468.787" r="4.06811" stroke-width="0.5" stroke="black" fill="magenta"/>
   </g>
  </g>
 </g>
  <rect x="775" y="1035" width="200" height="10" stroke-width="2" stroke="rgb(255,255,255)" fill="rgb(0,0,0)"/>
  <text x="781.25" y="1028.75"
   font-family="Arial" font-size="25" fill="black" >
   200 &#956;m
  </text>
  <text x="25" y="1045"
   font-family="Arial" font-size="18.75" fill="black" >
   0 days, 0 hours, 0 minutes, and 48.8252 seconds
  </text>
  <rect x="0" y="70" width="1000" height="1000" stroke-width="2" stroke="rgb(0,0,0)" fill="none"/>
</svg>
