<?xml version="1.0" encoding="UTF-8" standalone="no"?>
<!-- Created with PhysiCell (http://PhysiCell.MathCancer.org/) -->
<svg 
 xmlns:dc="http://purl.org/dc/elements/1.1/" 
 xmlns:cc="http://creativecommons.org/ns#" 
 xmlns:rdf="http://www.w3.org/1999/02/22-rdf-syntax-ns#" 
 xmlns:svg="http://www.w3.org/2000/svg" 
 xmlns="http://www.w3.org/2000/svg" 
 version="1.1" 
 width="1000" 
 height="1070" 
 id="svg2">
  <rect x="0" y="0" width="1000" height="1070" stroke-width="2" stroke="white" fill="white"/>
  <text x="12.5" y="30"
   font-family="Arial" font-size="25" fill="black" >
   Current time: 0 days, 12 hours, and 0.00 minutes, z = 0.00 &#956;m
  </text>
  <text x="12.5" y="57.5"
   font-family="Arial" font-size="23.75" fill="black" >
   114 agents
  </text>
 <g id="tissue" 
    transform="translate(0,1070) scale(1,-1)">
  <g id="ECM">
  </g>
  <g id="cells">
   <g id="cell0">
  <circle cx="521.258" cy="532.043" r="8.32788" stroke-width="0.5" stroke="black" fill="magenta"/>
  <circle cx="521.258" cy="532.043" r="5.01729" stroke-width="0.5" stroke="black" fill="magenta"/>
   </g>
   <g id="cell1">
  <circle cx="602.685" cy="526.638" r="8.41271" stroke-width="0.5" stroke="black" fill="magenta"/>
  <circle cx="602.685" cy="526.638" r="5.05167" stroke-width="0.5" stroke="black" fill="magenta"/>
   </g>
   <g id="cell2">
  <circle cx="511.365" cy="600.425" r="8.41271" stroke-width="0.5" stroke="black" fill="magenta"/>
  <circle cx="511.365" cy="600.425" r="5.05167" stroke-width="0.5" stroke="black" fill="magenta"/>
   </g>
   <g id="cell3">
  <circle cx="531.14" cy="543.286" r="8.41271" stroke-width="0.5" stroke="black" fill="magenta"/>
  <circle cx="531.14" cy="543.286" r="5.05167" stroke-width="0.5" stroke="black" fill="magenta"/>
   </g>
   <g id="cell4">
  <circle cx="473.758" cy="441.425" r="8.33699" stroke-width="0.5" stroke="black" fill="magenta"/>
  <circle cx="473.758" cy="441.425" r="5.02141" stroke-width="0.5" stroke="black" fill="magenta"/>
   </g>
   <g id="cell5">
  <circle cx="464.983" cy="493.357" r="8.41271" stroke-width="0.5" stroke="black" fill="magenta"/>
  <circle cx="464.983" cy="493.357" r="5.05167" stroke-width="0.5" stroke="black" fill="magenta"/>
   </g>
   <g id="cell6">
  <circle cx="595.987" cy="513.332" r="8.13008" stroke-width="0.5" stroke="black" fill="magenta"/>
  <circle cx="595.987" cy="513.332" r="4.91894" stroke-width="0.5" stroke="black" fill="magenta"/>
   </g>
   <g id="cell7">
  <circle cx="511.503" cy="464.5" r="8.41271" stroke-width="0.5" stroke="black" fill="magenta"/>
  <circle cx="511.503" cy="464.5" r="5.05167" stroke-width="0.5" stroke="black" fill="magenta"/>
   </g>
   <g id="cell8">
  <circle cx="373.688" cy="547.363" r="8.41271" stroke-width="0.5" stroke="black" fill="magenta"/>
  <circle cx="373.688" cy="547.363" r="5.05167" stroke-width="0.5" stroke="black" fill="magenta"/>
   </g>
   <g id="cell9">
  <circle cx="465.205" cy="602.24" r="8.11327" stroke-width="0.5" stroke="black" fill="magenta"/>
  <circle cx="465.205" cy="602.24" r="4.91006" stroke-width="0.5" stroke="black" fill="magenta"/>
   </g>
   <g id="cell10">
  <circle cx="583.447" cy="392.105" r="8.41271" stroke-width="0.5" stroke="black" fill="magenta"/>
  <circle cx="583.447" cy="392.105" r="5.05167" stroke-width="0.5" stroke="black" fill="magenta"/>
   </g>
   <g id="cell11">
  <circle cx="589.748" cy="590.273" r="8.41271" stroke-width="0.5" stroke="black" fill="magenta"/>
  <circle cx="589.748" cy="590.273" r="5.05167" stroke-width="0.5" stroke="black" fill="magenta"/>
   </g>
   <g id="cell12">
  <circle cx="506.656" cy="586.027" r="8.41271" stroke-width="0.5" stroke="black" fill="magenta"/>
  <circle cx="506.656" cy="586.027" r="5.05167" stroke-width="0.5" stroke="black" fill="magenta"/>
   </g>
   <g id="cell13">
  <circle cx="381.337" cy="560.347" r="8.17502" stroke-width="0.5" stroke="black" fill="magenta"/>
  <circle cx="381.337" cy="560.347" r="4.94236" stroke-width="0.5" stroke="black" fill="magenta"/>
   </g>
   <g id="cell14">
  <circle cx="525.182" cy="401.991" r="8.41271" stroke-width="0.5" stroke="black" fill="magenta"/>
  <circle cx="525.182" cy="401.991" r="5.05167" stroke-width="0.5" stroke="black" fill="magenta"/>
   </g>
   <g id="cell15">
  <circle cx="384.068" cy="478.756" r="8.33257" stroke-width="0.5" stroke="black" fill="magenta"/>
  <circle cx="384.068" cy="478.756" r="5.01941" stroke-width="0.5" stroke="black" fill="magenta"/>
   </g>
   <g id="cell16">
  <circle cx="428.96" cy="413.217" r="8.41271" stroke-width="0.5" stroke="black" fill="magenta"/>
  <circle cx="428.96" cy="413.217" r="5.05167" stroke-width="0.5" stroke="black" fill="magenta"/>
   </g>
   <g id="cell17">
  <circle cx="582.968" cy="487.788" r="7.75912" stroke-width="0.5" stroke="black" fill="magenta"/>
  <circle cx="582.968" cy="487.788" r="4.71248" stroke-width="0.5" stroke="black" fill="magenta"/>
   </g>
   <g id="cell18">
  <circle cx="511.897" cy="394.832" r="8.34117" stroke-width="0.5" stroke="black" fill="magenta"/>
  <circle cx="511.897" cy="394.832" r="5.02327" stroke-width="0.5" stroke="black" fill="magenta"/>
   </g>
   <g id="cell19">
  <circle cx="447.758" cy="533.835" r="8.01277" stroke-width="0.5" stroke="black" fill="magenta"/>
  <circle cx="447.758" cy="533.835" r="4.85584" stroke-width="0.5" stroke="black" fill="magenta"/>
   </g>
   <g id="cell20">
  <circle cx="528.583" cy="416.746" r="8.41271" stroke-width="0.5" stroke="black" fill="magenta"/>
  <circle cx="528.583" cy="416.746" r="5.05167" stroke-width="0.5" stroke="black" fill="magenta"/>
   </g>
   <g id="cell21">
  <circle cx="469.073" cy="637.049" r="6.48116" stroke-width="0.5" stroke="black" fill="magenta"/>
  <circle cx="469.073" cy="637.049" r="3.96769" stroke-width="0.5" stroke="black" fill="magenta"/>
   </g>
   <g id="cell22">
  <circle cx="556.952" cy="497.864" r="7.84856" stroke-width="0.5" stroke="black" fill="magenta"/>
  <circle cx="556.952" cy="497.864" r="4.77257" stroke-width="0.5" stroke="black" fill="magenta"/>
   </g>
   <g id="cell23">
  <circle cx="538.042" cy="480.503" r="8.41271" stroke-width="0.5" stroke="black" fill="magenta"/>
  <circle cx="538.042" cy="480.503" r="5.05167" stroke-width="0.5" stroke="black" fill="magenta"/>
   </g>
   <g id="cell24">
  <circle cx="559.288" cy="379.787" r="8.41271" stroke-width="0.5" stroke="black" fill="magenta"/>
  <circle cx="559.288" cy="379.787" r="5.05167" stroke-width="0.5" stroke="black" fill="magenta"/>
   </g>
   <g id="cell25">
  <circle cx="645.869" cy="558.224" r="6.08245" stroke-width="0.5" stroke="black" fill="green"/>
  <circle cx="645.869" cy="558.224" r="3.72181" stroke-width="0.5" stroke="black" fill="green"/>
   </g>
   <g id="cell26">
  <circle cx="550.641" cy="401.23" r="8.41271" stroke-width="0.5" stroke="black" fill="green"/>
  <circle cx="550.641" cy="401.23" r="5.05167" stroke-width="0.5" stroke="black" fill="green"/>
   </g>
   <g id="cell27">
  <circle cx="457.446" cy="388.678" r="8.41271" stroke-width="0.5" stroke="black" fill="green"/>
  <circle cx="457.446" cy="388.678" r="5.05167" stroke-width="0.5" stroke="black" fill="green"/>
   </g>
   <g id="cell28">
  <circle cx="432.524" cy="533.693" r="8.41271" stroke-width="0.5" stroke="black" fill="green"/>
  <circle cx="432.524" cy="533.693" r="5.05167" stroke-width="0.5" stroke="black" fill="green"/>
   </g>
   <g id="cell29">
  <circle cx="456.533" cy="521.707" r="8.1609" stroke-width="0.5" stroke="black" fill="green"/>
  <circle cx="456.533" cy="521.707" r="4.93506" stroke-width="0.5" stroke="black" fill="green"/>
   </g>
   <g id="cell30">
  <circle cx="480.884" cy="540.117" r="8.41271" stroke-width="0.5" stroke="black" fill="green"/>
  <circle cx="480.884" cy="540.117" r="5.05167" stroke-width="0.5" stroke="black" fill="green"/>
   </g>
   <g id="cell31">
  <circle cx="412.036" cy="538.605" r="8.41271" stroke-width="0.5" stroke="black" fill="green"/>
  <circle cx="412.036" cy="538.605" r="5.05167" stroke-width="0.5" stroke="black" fill="green"/>
   </g>
   <g id="cell32">
  <circle cx="428.901" cy="469.529" r="8.1947" stroke-width="0.5" stroke="black" fill="green"/>
  <circle cx="428.901" cy="469.529" r="4.95246" stroke-width="0.5" stroke="black" fill="green"/>
   </g>
   <g id="cell33">
  <circle cx="498.763" cy="413.39" r="8.2239" stroke-width="0.5" stroke="black" fill="green"/>
  <circle cx="498.763" cy="413.39" r="4.96725" stroke-width="0.5" stroke="black" fill="green"/>
   </g>
   <g id="cell34">
  <circle cx="391.734" cy="453.657" r="8.17502" stroke-width="0.5" stroke="black" fill="green"/>
  <circle cx="391.734" cy="453.657" r="4.94236" stroke-width="0.5" stroke="black" fill="green"/>
   </g>
   <g id="cell35">
  <circle cx="544.376" cy="549.218" r="7.41548" stroke-width="0.5" stroke="black" fill="green"/>
  <circle cx="544.376" cy="549.218" r="4.50723" stroke-width="0.5" stroke="black" fill="green"/>
   </g>
   <g id="cell36">
  <circle cx="391.05" cy="585.281" r="8.41271" stroke-width="0.5" stroke="black" fill="green"/>
  <circle cx="391.05" cy="585.281" r="5.05167" stroke-width="0.5" stroke="black" fill="green"/>
   </g>
   <g id="cell37">
  <circle cx="634.871" cy="460.618" r="8.41271" stroke-width="0.5" stroke="black" fill="green"/>
  <circle cx="634.871" cy="460.618" r="5.05167" stroke-width="0.5" stroke="black" fill="green"/>
   </g>
   <g id="cell38">
  <circle cx="530.765" cy="601.48" r="8.03527" stroke-width="0.5" stroke="black" fill="green"/>
  <circle cx="530.765" cy="601.48" r="4.86813" stroke-width="0.5" stroke="black" fill="green"/>
   </g>
   <g id="cell39">
  <circle cx="617.815" cy="494.69" r="8.32291" stroke-width="0.5" stroke="black" fill="green"/>
  <circle cx="617.815" cy="494.69" r="5.01502" stroke-width="0.5" stroke="black" fill="green"/>
   </g>
   <g id="cell40">
  <circle cx="485.348" cy="571.779" r="8.41271" stroke-width="0.5" stroke="black" fill="green"/>
  <circle cx="485.348" cy="571.779" r="5.05167" stroke-width="0.5" stroke="black" fill="green"/>
   </g>
   <g id="cell41">
  <circle cx="365.267" cy="480.679" r="8.41271" stroke-width="0.5" stroke="black" fill="green"/>
  <circle cx="365.267" cy="480.679" r="5.05167" stroke-width="0.5" stroke="black" fill="green"/>
   </g>
   <g id="cell42">
  <circle cx="450.85" cy="487.224" r="8.09257" stroke-width="0.5" stroke="black" fill="green"/>
  <circle cx="450.85" cy="487.224" r="4.90504" stroke-width="0.5" stroke="black" fill="green"/>
   </g>
   <g id="cell43">
  <circle cx="558.31" cy="445.669" r="8.41271" stroke-width="0.5" stroke="black" fill="green"/>
  <circle cx="558.31" cy="445.669" r="5.05167" stroke-width="0.5" stroke="black" fill="green"/>
   </g>
   <g id="cell44">
  <circle cx="478.306" cy="627.215" r="8.15353" stroke-width="0.5" stroke="black" fill="green"/>
  <circle cx="478.306" cy="627.215" r="4.93122" stroke-width="0.5" stroke="black" fill="green"/>
   </g>
   <g id="cell45">
  <circle cx="416.924" cy="553.155" r="7.75912" stroke-width="0.5" stroke="black" fill="green"/>
  <circle cx="416.924" cy="553.155" r="4.71248" stroke-width="0.5" stroke="black" fill="green"/>
   </g>
   <g id="cell46">
  <circle cx="520.306" cy="613.164" r="8.41271" stroke-width="0.5" stroke="black" fill="green"/>
  <circle cx="520.306" cy="613.164" r="5.05167" stroke-width="0.5" stroke="black" fill="green"/>
   </g>
   <g id="cell47">
  <circle cx="504.337" cy="511.357" r="8.41271" stroke-width="0.5" stroke="black" fill="green"/>
  <circle cx="504.337" cy="511.357" r="5.05167" stroke-width="0.5" stroke="black" fill="green"/>
   </g>
   <g id="cell48">
  <circle cx="564.45" cy="602.819" r="8.41271" stroke-width="0.5" stroke="black" fill="green"/>
  <circle cx="564.45" cy="602.819" r="5.05167" stroke-width="0.5" stroke="black" fill="green"/>
   </g>
   <g id="cell49">
  <circle cx="429.826" cy="397.641" r="8.41271" stroke-width="0.5" stroke="black" fill="green"/>
  <circle cx="429.826" cy="397.641" r="5.05167" stroke-width="0.5" stroke="black" fill="green"/>
   </g>
   <g id="cell50">
  <circle cx="519.48" cy="516.667" r="8.41271" stroke-width="0.5" stroke="black" fill="cyan"/>
  <circle cx="519.48" cy="516.667" r="5.05167" stroke-width="0.5" stroke="black" fill="cyan"/>
   </g>
   <g id="cell51">
  <circle cx="399.615" cy="598.725" r="8.41271" stroke-width="0.5" stroke="black" fill="cyan"/>
  <circle cx="399.615" cy="598.725" r="5.05167" stroke-width="0.5" stroke="black" fill="cyan"/>
   </g>
   <g id="cell52">
  <circle cx="524.787" cy="425.076" r="1.56818" stroke-width="0.5" stroke="black" fill="cyan"/>
  <circle cx="524.787" cy="425.076" r="1.54219" stroke-width="0.5" stroke="black" fill="black"/>
   </g>
   <g id="cell53">
  <circle cx="571.147" cy="436.108" r="8.41271" stroke-width="0.5" stroke="black" fill="cyan"/>
  <circle cx="571.147" cy="436.108" r="5.05167" stroke-width="0.5" stroke="black" fill="cyan"/>
   </g>
   <g id="cell54">
  <circle cx="479.028" cy="426.815" r="8.41271" stroke-width="0.5" stroke="black" fill="cyan"/>
  <circle cx="479.028" cy="426.815" r="5.05167" stroke-width="0.5" stroke="black" fill="cyan"/>
   </g>
   <g id="cell55">
  <circle cx="525.672" cy="471.007" r="8.41271" stroke-width="0.5" stroke="black" fill="cyan"/>
  <circle cx="525.672" cy="471.007" r="5.05167" stroke-width="0.5" stroke="black" fill="cyan"/>
   </g>
   <g id="cell56">
  <circle cx="617.676" cy="522.316" r="8.41271" stroke-width="0.5" stroke="black" fill="cyan"/>
  <circle cx="617.676" cy="522.316" r="5.05167" stroke-width="0.5" stroke="black" fill="cyan"/>
   </g>
   <g id="cell57">
  <circle cx="416.924" cy="617.466" r="8.41271" stroke-width="0.5" stroke="black" fill="cyan"/>
  <circle cx="416.924" cy="617.466" r="5.05167" stroke-width="0.5" stroke="black" fill="cyan"/>
   </g>
   <g id="cell58">
  <circle cx="553.394" cy="483.306" r="8.41271" stroke-width="0.5" stroke="black" fill="cyan"/>
  <circle cx="553.394" cy="483.306" r="5.05167" stroke-width="0.5" stroke="black" fill="cyan"/>
   </g>
   <g id="cell59">
  <circle cx="385.209" cy="439.28" r="8.41271" stroke-width="0.5" stroke="black" fill="cyan"/>
  <circle cx="385.209" cy="439.28" r="5.05167" stroke-width="0.5" stroke="black" fill="cyan"/>
   </g>
   <g id="cell60">
  <circle cx="592.35" cy="476.185" r="8.41271" stroke-width="0.5" stroke="black" fill="cyan"/>
  <circle cx="592.35" cy="476.185" r="5.05167" stroke-width="0.5" stroke="black" fill="cyan"/>
   </g>
   <g id="cell61">
  <circle cx="554.811" cy="615.634" r="8.41271" stroke-width="0.5" stroke="black" fill="cyan"/>
  <circle cx="554.811" cy="615.634" r="5.05167" stroke-width="0.5" stroke="black" fill="cyan"/>
   </g>
   <g id="cell62">
  <circle cx="526.389" cy="444.352" r="8.41271" stroke-width="0.5" stroke="black" fill="cyan"/>
  <circle cx="526.389" cy="444.352" r="5.05167" stroke-width="0.5" stroke="black" fill="cyan"/>
   </g>
   <g id="cell63">
  <circle cx="581.427" cy="552.941" r="8.03527" stroke-width="0.5" stroke="black" fill="cyan"/>
  <circle cx="581.427" cy="552.941" r="4.86813" stroke-width="0.5" stroke="black" fill="cyan"/>
   </g>
   <g id="cell64">
  <circle cx="509.962" cy="636.825" r="8.41271" stroke-width="0.5" stroke="black" fill="cyan"/>
  <circle cx="509.962" cy="636.825" r="5.05167" stroke-width="0.5" stroke="black" fill="cyan"/>
   </g>
   <g id="cell65">
  <circle cx="535.762" cy="459.1" r="8.01277" stroke-width="0.5" stroke="black" fill="cyan"/>
  <circle cx="535.762" cy="459.1" r="4.85584" stroke-width="0.5" stroke="black" fill="cyan"/>
   </g>
   <g id="cell66">
  <circle cx="536.346" cy="528.529" r="8.41271" stroke-width="0.5" stroke="black" fill="cyan"/>
  <circle cx="536.346" cy="528.529" r="5.05167" stroke-width="0.5" stroke="black" fill="cyan"/>
   </g>
   <g id="cell67">
  <circle cx="354.592" cy="492.746" r="8.41271" stroke-width="0.5" stroke="black" fill="cyan"/>
  <circle cx="354.592" cy="492.746" r="5.05167" stroke-width="0.5" stroke="black" fill="cyan"/>
   </g>
   <g id="cell68">
  <circle cx="558.372" cy="554.298" r="8.41271" stroke-width="0.5" stroke="black" fill="cyan"/>
  <circle cx="558.372" cy="554.298" r="5.05167" stroke-width="0.5" stroke="black" fill="cyan"/>
   </g>
   <g id="cell69">
  <circle cx="437.711" cy="457.259" r="8.34317" stroke-width="0.5" stroke="black" fill="cyan"/>
  <circle cx="437.711" cy="457.259" r="5.02416" stroke-width="0.5" stroke="black" fill="cyan"/>
   </g>
   <g id="cell70">
  <circle cx="576.352" cy="474.44" r="8.41271" stroke-width="0.5" stroke="black" fill="cyan"/>
  <circle cx="576.352" cy="474.44" r="5.05167" stroke-width="0.5" stroke="black" fill="cyan"/>
   </g>
   <g id="cell71">
  <circle cx="375.028" cy="524.849" r="7.02257" stroke-width="0.5" stroke="black" fill="cyan"/>
  <circle cx="375.028" cy="524.849" r="4.25644" stroke-width="0.5" stroke="black" fill="cyan"/>
   </g>
   <g id="cell72">
  <circle cx="535.073" cy="512.432" r="8.41271" stroke-width="0.5" stroke="black" fill="cyan"/>
  <circle cx="535.073" cy="512.432" r="5.05167" stroke-width="0.5" stroke="black" fill="cyan"/>
   </g>
   <g id="cell73">
  <circle cx="363.622" cy="546.177" r="2.5701" stroke-width="0.5" stroke="black" fill="cyan"/>
  <circle cx="363.622" cy="546.177" r="2.25579" stroke-width="0.5" stroke="black" fill="black"/>
   </g>
   <g id="cell74">
  <circle cx="542.346" cy="444.981" r="8.41271" stroke-width="0.5" stroke="black" fill="cyan"/>
  <circle cx="542.346" cy="444.981" r="5.05167" stroke-width="0.5" stroke="black" fill="cyan"/>
   </g>
   <g id="cell75">
  <circle cx="444.272" cy="472.459" r="8.34317" stroke-width="0.5" stroke="black" fill="cyan"/>
  <circle cx="444.272" cy="472.459" r="5.02416" stroke-width="0.5" stroke="black" fill="cyan"/>
   </g>
   <g id="cell76">
  <circle cx="524.434" cy="387.323" r="7.92387" stroke-width="0.5" stroke="black" fill="magenta"/>
  <circle cx="524.434" cy="387.323" r="4.8127" stroke-width="0.5" stroke="black" fill="magenta"/>
   </g>
   <g id="cell77">
  <circle cx="488.586" cy="439.035" r="8.33699" stroke-width="0.5" stroke="black" fill="magenta"/>
  <circle cx="488.586" cy="439.035" r="5.02141" stroke-width="0.5" stroke="black" fill="magenta"/>
   </g>
   <g id="cell78">
  <circle cx="373.884" cy="467.804" r="8.33257" stroke-width="0.5" stroke="black" fill="magenta"/>
  <circle cx="373.884" cy="467.804" r="5.01941" stroke-width="0.5" stroke="black" fill="magenta"/>
   </g>
   <g id="cell79">
  <circle cx="507.393" cy="526.529" r="8.32788" stroke-width="0.5" stroke="black" fill="magenta"/>
  <circle cx="507.393" cy="526.529" r="5.01729" stroke-width="0.5" stroke="black" fill="magenta"/>
   </g>
   <g id="cell80">
  <circle cx="606.324" cy="483.808" r="8.32291" stroke-width="0.5" stroke="black" fill="green"/>
  <circle cx="606.324" cy="483.808" r="5.01502" stroke-width="0.5" stroke="black" fill="green"/>
   </g>
   <g id="cell81">
  <circle cx="429.562" cy="505.039" r="7.23557" stroke-width="0.5" stroke="black" fill="green"/>
  <circle cx="429.562" cy="505.039" r="4.40856" stroke-width="0.5" stroke="black" fill="green"/>
   </g>
   <g id="cell82">
  <circle cx="542.761" cy="494.804" r="8.30618" stroke-width="0.5" stroke="black" fill="magenta"/>
  <circle cx="542.761" cy="494.804" r="5.00727" stroke-width="0.5" stroke="black" fill="magenta"/>
   </g>
   <g id="cell83">
  <circle cx="492.912" cy="430.159" r="2.39352" stroke-width="0.5" stroke="black" fill="green"/>
  <circle cx="492.912" cy="430.159" r="2.13871" stroke-width="0.5" stroke="black" fill="black"/>
   </g>
   <g id="cell84">
  <circle cx="410.637" cy="480.75" r="6.54038" stroke-width="0.5" stroke="black" fill="green"/>
  <circle cx="410.637" cy="480.75" r="3.95649" stroke-width="0.5" stroke="black" fill="green"/>
   </g>
   <g id="cell85">
  <circle cx="405.895" cy="447.222" r="8.17502" stroke-width="0.5" stroke="black" fill="green"/>
  <circle cx="405.895" cy="447.222" r="4.94236" stroke-width="0.5" stroke="black" fill="green"/>
   </g>
   <g id="cell86">
  <circle cx="395.123" cy="567.567" r="6.59917" stroke-width="0.5" stroke="black" fill="magenta"/>
  <circle cx="395.123" cy="567.567" r="4.00294" stroke-width="0.5" stroke="black" fill="magenta"/>
   </g>
   <g id="cell87">
  <circle cx="441.047" cy="520.398" r="8.1609" stroke-width="0.5" stroke="black" fill="green"/>
  <circle cx="441.047" cy="520.398" r="4.93506" stroke-width="0.5" stroke="black" fill="green"/>
   </g>
   <g id="cell88">
  <circle cx="477.209" cy="611.737" r="8.15353" stroke-width="0.5" stroke="black" fill="green"/>
  <circle cx="477.209" cy="611.737" r="4.93122" stroke-width="0.5" stroke="black" fill="green"/>
   </g>
   <g id="cell89">
  <circle cx="436.165" cy="490.099" r="7.46812" stroke-width="0.5" stroke="black" fill="green"/>
  <circle cx="436.165" cy="490.099" r="4.5653" stroke-width="0.5" stroke="black" fill="green"/>
   </g>
   <g id="cell90">
  <circle cx="587.931" cy="501.085" r="8.13008" stroke-width="0.5" stroke="black" fill="magenta"/>
  <circle cx="587.931" cy="501.085" r="4.91894" stroke-width="0.5" stroke="black" fill="magenta"/>
   </g>
   <g id="cell91">
  <circle cx="453.966" cy="598.029" r="5.016" stroke-width="0.5" stroke="black" fill="magenta"/>
  <circle cx="453.966" cy="598.029" r="3.33094" stroke-width="0.5" stroke="black" fill="black"/>
   </g>
   <g id="cell92">
  <circle cx="550.407" cy="593.252" r="6.0521" stroke-width="0.5" stroke="black" fill="green"/>
  <circle cx="550.407" cy="593.252" r="3.72245" stroke-width="0.5" stroke="black" fill="green"/>
   </g>
   <g id="cell93">
  <circle cx="576.132" cy="531.765" r="7.50016" stroke-width="0.5" stroke="black" fill="cyan"/>
  <circle cx="576.132" cy="531.765" r="4.58228" stroke-width="0.5" stroke="black" fill="cyan"/>
   </g>
   <g id="cell94">
  <circle cx="547.656" cy="468.717" r="8.01277" stroke-width="0.5" stroke="black" fill="cyan"/>
  <circle cx="547.656" cy="468.717" r="4.85584" stroke-width="0.5" stroke="black" fill="cyan"/>
   </g>
   <g id="cell95">
  <circle cx="462.107" cy="535.654" r="8.01277" stroke-width="0.5" stroke="black" fill="magenta"/>
  <circle cx="462.107" cy="535.654" r="4.85584" stroke-width="0.5" stroke="black" fill="magenta"/>
   </g>
   <g id="cell96">
  <circle cx="534.472" cy="377.235" r="7.92387" stroke-width="0.5" stroke="black" fill="magenta"/>
  <circle cx="534.472" cy="377.235" r="4.8127" stroke-width="0.5" stroke="black" fill="magenta"/>
   </g>
   <g id="cell97">
  <circle cx="568.297" cy="506.26" r="7.84856" stroke-width="0.5" stroke="black" fill="magenta"/>
  <circle cx="568.297" cy="506.26" r="4.77257" stroke-width="0.5" stroke="black" fill="magenta"/>
   </g>
   <g id="cell98">
  <circle cx="412.833" cy="567.304" r="7.75912" stroke-width="0.5" stroke="black" fill="green"/>
  <circle cx="412.833" cy="567.304" r="4.71248" stroke-width="0.5" stroke="black" fill="green"/>
   </g>
   <g id="cell99">
  <circle cx="569.837" cy="492.297" r="7.75912" stroke-width="0.5" stroke="black" fill="magenta"/>
  <circle cx="569.837" cy="492.297" r="4.71248" stroke-width="0.5" stroke="black" fill="magenta"/>
   </g>
   <g id="cell100">
  <circle cx="569.524" cy="544.277" r="7.50016" stroke-width="0.5" stroke="black" fill="cyan"/>
  <circle cx="569.524" cy="544.277" r="4.58228" stroke-width="0.5" stroke="black" fill="cyan"/>
   </g>
   <g id="cell101">
  <circle cx="458.562" cy="632.145" r="6.48116" stroke-width="0.5" stroke="black" fill="magenta"/>
  <circle cx="458.562" cy="632.145" r="3.96769" stroke-width="0.5" stroke="black" fill="magenta"/>
   </g>
   <g id="cell102">
  <circle cx="443.193" cy="502.424" r="7.46812" stroke-width="0.5" stroke="black" fill="green"/>
  <circle cx="443.193" cy="502.424" r="4.5653" stroke-width="0.5" stroke="black" fill="green"/>
   </g>
   <g id="cell103">
  <circle cx="544.927" cy="604.574" r="7.26002" stroke-width="0.5" stroke="black" fill="green"/>
  <circle cx="544.927" cy="604.574" r="4.44044" stroke-width="0.5" stroke="black" fill="green"/>
   </g>
   <g id="cell104">
  <circle cx="549.323" cy="536.074" r="7.41548" stroke-width="0.5" stroke="black" fill="green"/>
  <circle cx="549.323" cy="536.074" r="4.50723" stroke-width="0.5" stroke="black" fill="green"/>
   </g>
   <g id="cell105">
  <circle cx="422.235" cy="493.842" r="7.23557" stroke-width="0.5" stroke="black" fill="green"/>
  <circle cx="422.235" cy="493.842" r="4.40856" stroke-width="0.5" stroke="black" fill="green"/>
   </g>
   <g id="cell106">
  <circle cx="638.769" cy="538.987" r="7.30216" stroke-width="0.5" stroke="black" fill="green"/>
  <circle cx="638.769" cy="538.987" r="4.43696" stroke-width="0.5" stroke="black" fill="green"/>
   </g>
   <g id="cell107">
  <circle cx="382.634" cy="513.912" r="7.02257" stroke-width="0.5" stroke="black" fill="cyan"/>
  <circle cx="382.634" cy="513.912" r="4.25644" stroke-width="0.5" stroke="black" fill="cyan"/>
   </g>
   <g id="cell108">
  <circle cx="459.569" cy="643.758" r="6.48116" stroke-width="0.5" stroke="black" fill="magenta"/>
  <circle cx="459.569" cy="643.758" r="3.96769" stroke-width="0.5" stroke="black" fill="magenta"/>
   </g>
   <g id="cell109">
  <circle cx="447.005" cy="631.369" r="6.48116" stroke-width="0.5" stroke="black" fill="magenta"/>
  <circle cx="447.005" cy="631.369" r="3.96769" stroke-width="0.5" stroke="black" fill="magenta"/>
   </g>
   <g id="cell110">
  <circle cx="539.427" cy="589.903" r="6.0521" stroke-width="0.5" stroke="black" fill="green"/>
  <circle cx="539.427" cy="589.903" r="3.72245" stroke-width="0.5" stroke="black" fill="green"/>
   </g>
   <g id="cell111">
  <circle cx="636.605" cy="551.442" r="6.08245" stroke-width="0.5" stroke="black" fill="green"/>
  <circle cx="636.605" cy="551.442" r="3.72181" stroke-width="0.5" stroke="black" fill="green"/>
   </g>
   <g id="cell112">
  <circle cx="384.709" cy="573.048" r="6.59917" stroke-width="0.5" stroke="black" fill="magenta"/>
  <circle cx="384.709" cy="573.048" r="4.00294" stroke-width="0.5" stroke="black" fill="magenta"/>
   </g>
   <g id="cell113">
  <circle cx="422.784" cy="481.327" r="6.54038" stroke-width="0.5" stroke="black" fill="green"/>
  <circle cx="422.784" cy="481.327" r="3.95649" stroke-width="0.5" stroke="black" fill="green"/>
   </g>
  </g>
 </g>
  <rect x="775" y="1035" width="200" height="10" stroke-width="2" stroke="rgb(255,255,255)" fill="rgb(0,0,0)"/>
  <text x="781.25" y="1028.75"
   font-family="Arial" font-size="25" fill="black" >
   200 &#956;m
  </text>
  <text x="25" y="1045"
   font-family="Arial" font-size="18.75" fill="black" >
   0 days, 0 hours, 0 minutes, and 16.0390 seconds
  </text>
  <rect x="0" y="70" width="1000" height="1000" stroke-width="2" stroke="rgb(0,0,0)" fill="none"/>
</svg>
