<?xml version="1.0" encoding="UTF-8" standalone="no"?>
<!-- Created with PhysiCell (http://PhysiCell.MathCancer.org/) -->
<svg 
 xmlns:dc="http://purl.org/dc/elements/1.1/" 
 xmlns:cc="http://creativecommons.org/ns#" 
 xmlns:rdf="http://www.w3.org/1999/02/22-rdf-syntax-ns#" 
 xmlns:svg="http://www.w3.org/2000/svg" 
 xmlns="http://www.w3.org/2000/svg" 
 version="1.1" 
 width="1000" 
 height="1070" 
 id="svg2">
  <rect x="0" y="0" width="1000" height="1070" stroke-width="2" stroke="white" fill="white"/>
  <text x="12.5" y="30"
   font-family="Arial" font-size="25" fill="black" >
   Current time: 1 days, 13 hours, and 0.00 minutes, z = 0.00 &#956;m
  </text>
  <text x="12.5" y="57.5"
   font-family="Arial" font-size="23.75" fill="black" >
   199 agents
  </text>
 <g id="tissue" 
    transform="translate(0,1070) scale(1,-1)">
  <g id="ECM">
  </g>
  <g id="cells">
   <g id="cell0">
  <circle cx="510.679" cy="534.234" r="8.41263" stroke-width="0.5" stroke="black" fill="magenta"/>
  <circle cx="510.679" cy="534.234" r="5.05165" stroke-width="0.5" stroke="black" fill="magenta"/>
   </g>
   <g id="cell147">
  <circle cx="422.163" cy="576.666" r="8.37179" stroke-width="0.5" stroke="black" fill="green"/>
  <circle cx="422.163" cy="576.666" r="5.03655" stroke-width="0.5" stroke="black" fill="green"/>
   </g>
   <g id="cell2">
  <circle cx="503.801" cy="592.753" r="8.40154" stroke-width="0.5" stroke="black" fill="magenta"/>
  <circle cx="503.801" cy="592.753" r="5.04811" stroke-width="0.5" stroke="black" fill="magenta"/>
   </g>
   <g id="cell3">
  <circle cx="538.611" cy="545.621" r="8.39794" stroke-width="0.5" stroke="black" fill="magenta"/>
  <circle cx="538.611" cy="545.621" r="5.04681" stroke-width="0.5" stroke="black" fill="magenta"/>
   </g>
   <g id="cell4">
  <circle cx="451.761" cy="431.112" r="8.41264" stroke-width="0.5" stroke="black" fill="magenta"/>
  <circle cx="451.761" cy="431.112" r="5.05166" stroke-width="0.5" stroke="black" fill="magenta"/>
   </g>
   <g id="cell5">
  <circle cx="462.495" cy="496.652" r="8.3784" stroke-width="0.5" stroke="black" fill="magenta"/>
  <circle cx="462.495" cy="496.652" r="5.03921" stroke-width="0.5" stroke="black" fill="magenta"/>
   </g>
   <g id="cell6">
  <circle cx="595.408" cy="514.835" r="8.41245" stroke-width="0.5" stroke="black" fill="magenta"/>
  <circle cx="595.408" cy="514.835" r="5.05161" stroke-width="0.5" stroke="black" fill="magenta"/>
   </g>
   <g id="cell7">
  <circle cx="511.48" cy="463.515" r="8.41271" stroke-width="0.5" stroke="black" fill="magenta"/>
  <circle cx="511.48" cy="463.515" r="5.05167" stroke-width="0.5" stroke="black" fill="magenta"/>
   </g>
   <g id="cell8">
  <circle cx="360.829" cy="545.311" r="6.78406" stroke-width="0.5" stroke="black" fill="magenta"/>
  <circle cx="360.829" cy="545.311" r="4.09802" stroke-width="0.5" stroke="black" fill="magenta"/>
   </g>
   <g id="cell9">
  <circle cx="462.034" cy="601.654" r="8.41244" stroke-width="0.5" stroke="black" fill="magenta"/>
  <circle cx="462.034" cy="601.654" r="5.05161" stroke-width="0.5" stroke="black" fill="magenta"/>
   </g>
   <g id="cell10">
  <circle cx="588.317" cy="395.735" r="8.38074" stroke-width="0.5" stroke="black" fill="magenta"/>
  <circle cx="588.317" cy="395.735" r="5.04052" stroke-width="0.5" stroke="black" fill="magenta"/>
   </g>
   <g id="cell11">
  <circle cx="589.748" cy="590.273" r="8.41271" stroke-width="0.5" stroke="black" fill="magenta"/>
  <circle cx="589.748" cy="590.273" r="5.05167" stroke-width="0.5" stroke="black" fill="magenta"/>
   </g>
   <g id="cell12">
  <circle cx="495.732" cy="580.038" r="8.41271" stroke-width="0.5" stroke="black" fill="magenta"/>
  <circle cx="495.732" cy="580.038" r="5.05167" stroke-width="0.5" stroke="black" fill="magenta"/>
   </g>
   <g id="cell13">
  <circle cx="380.235" cy="558.046" r="8.40894" stroke-width="0.5" stroke="black" fill="magenta"/>
  <circle cx="380.235" cy="558.046" r="5.05061" stroke-width="0.5" stroke="black" fill="magenta"/>
   </g>
   <g id="cell14">
  <circle cx="529.494" cy="395.203" r="8.26154" stroke-width="0.5" stroke="black" fill="magenta"/>
  <circle cx="529.494" cy="395.203" r="4.98679" stroke-width="0.5" stroke="black" fill="magenta"/>
   </g>
   <g id="cell15">
  <circle cx="383.514" cy="489.03" r="7.17425" stroke-width="0.5" stroke="black" fill="magenta"/>
  <circle cx="383.514" cy="489.03" r="4.37091" stroke-width="0.5" stroke="black" fill="magenta"/>
   </g>
   <g id="cell16">
  <circle cx="428.365" cy="415.774" r="8.41271" stroke-width="0.5" stroke="black" fill="magenta"/>
  <circle cx="428.365" cy="415.774" r="5.05167" stroke-width="0.5" stroke="black" fill="magenta"/>
   </g>
   <g id="cell17">
  <circle cx="578.79" cy="483.98" r="8.41214" stroke-width="0.5" stroke="black" fill="magenta"/>
  <circle cx="578.79" cy="483.98" r="5.05154" stroke-width="0.5" stroke="black" fill="magenta"/>
   </g>
   <g id="cell18">
  <circle cx="514.691" cy="392.536" r="8.41264" stroke-width="0.5" stroke="black" fill="magenta"/>
  <circle cx="514.691" cy="392.536" r="5.05166" stroke-width="0.5" stroke="black" fill="magenta"/>
   </g>
   <g id="cell19">
  <circle cx="454.777" cy="541.546" r="8.41235" stroke-width="0.5" stroke="black" fill="magenta"/>
  <circle cx="454.777" cy="541.546" r="5.05159" stroke-width="0.5" stroke="black" fill="magenta"/>
   </g>
   <g id="cell20">
  <circle cx="525.151" cy="420.847" r="8.41271" stroke-width="0.5" stroke="black" fill="magenta"/>
  <circle cx="525.151" cy="420.847" r="5.05167" stroke-width="0.5" stroke="black" fill="magenta"/>
   </g>
   <g id="cell141">
  <circle cx="493.676" cy="439.802" r="7.97549" stroke-width="0.5" stroke="black" fill="magenta"/>
  <circle cx="493.676" cy="439.802" r="4.84577" stroke-width="0.5" stroke="black" fill="magenta"/>
   </g>
   <g id="cell22">
  <circle cx="558.642" cy="496.666" r="8.41222" stroke-width="0.5" stroke="black" fill="magenta"/>
  <circle cx="558.642" cy="496.666" r="5.05156" stroke-width="0.5" stroke="black" fill="magenta"/>
   </g>
   <g id="cell23">
  <circle cx="534.006" cy="485.872" r="8.41271" stroke-width="0.5" stroke="black" fill="magenta"/>
  <circle cx="534.006" cy="485.872" r="5.05167" stroke-width="0.5" stroke="black" fill="magenta"/>
   </g>
   <g id="cell24">
  <circle cx="566.731" cy="380.768" r="8.41271" stroke-width="0.5" stroke="black" fill="magenta"/>
  <circle cx="566.731" cy="380.768" r="5.05167" stroke-width="0.5" stroke="black" fill="magenta"/>
   </g>
   <g id="cell25">
  <circle cx="653.801" cy="564.809" r="8.34789" stroke-width="0.5" stroke="black" fill="green"/>
  <circle cx="653.801" cy="564.809" r="5.02642" stroke-width="0.5" stroke="black" fill="green"/>
   </g>
   <g id="cell26">
  <circle cx="547.746" cy="400.56" r="8.41271" stroke-width="0.5" stroke="black" fill="green"/>
  <circle cx="547.746" cy="400.56" r="5.05167" stroke-width="0.5" stroke="black" fill="green"/>
   </g>
   <g id="cell27">
  <circle cx="451.95" cy="389.542" r="2.3252" stroke-width="0.5" stroke="black" fill="green"/>
  <circle cx="451.95" cy="389.542" r="2.10339" stroke-width="0.5" stroke="black" fill="black"/>
   </g>
   <g id="cell28">
  <circle cx="443.229" cy="551.774" r="8.41271" stroke-width="0.5" stroke="black" fill="green"/>
  <circle cx="443.229" cy="551.774" r="5.05167" stroke-width="0.5" stroke="black" fill="green"/>
   </g>
   <g id="cell29">
  <circle cx="466.545" cy="517.409" r="8.41044" stroke-width="0.5" stroke="black" fill="green"/>
  <circle cx="466.545" cy="517.409" r="5.05107" stroke-width="0.5" stroke="black" fill="green"/>
   </g>
   <g id="cell30">
  <circle cx="481.448" cy="539.181" r="8.41271" stroke-width="0.5" stroke="black" fill="green"/>
  <circle cx="481.448" cy="539.181" r="5.05167" stroke-width="0.5" stroke="black" fill="green"/>
   </g>
   <g id="cell31">
  <circle cx="407.498" cy="531.107" r="7.90853" stroke-width="0.5" stroke="black" fill="green"/>
  <circle cx="407.498" cy="531.107" r="4.79791" stroke-width="0.5" stroke="black" fill="green"/>
   </g>
   <g id="cell32">
  <circle cx="425.691" cy="455.809" r="8.31481" stroke-width="0.5" stroke="black" fill="green"/>
  <circle cx="425.691" cy="455.809" r="5.01131" stroke-width="0.5" stroke="black" fill="green"/>
   </g>
   <g id="cell33">
  <circle cx="497.997" cy="413.201" r="8.41254" stroke-width="0.5" stroke="black" fill="green"/>
  <circle cx="497.997" cy="413.201" r="5.05163" stroke-width="0.5" stroke="black" fill="green"/>
   </g>
   <g id="cell34">
  <circle cx="391.817" cy="454.626" r="8.41249" stroke-width="0.5" stroke="black" fill="green"/>
  <circle cx="391.817" cy="454.626" r="5.05162" stroke-width="0.5" stroke="black" fill="green"/>
   </g>
   <g id="cell35">
  <circle cx="546.641" cy="558.548" r="8.41185" stroke-width="0.5" stroke="black" fill="green"/>
  <circle cx="546.641" cy="558.548" r="5.05146" stroke-width="0.5" stroke="black" fill="green"/>
   </g>
   <g id="cell36">
  <circle cx="392.196" cy="582.308" r="8.40826" stroke-width="0.5" stroke="black" fill="green"/>
  <circle cx="392.196" cy="582.308" r="5.05039" stroke-width="0.5" stroke="black" fill="green"/>
   </g>
   <g id="cell174">
  <circle cx="478.394" cy="618.802" r="8.20677" stroke-width="0.5" stroke="black" fill="green"/>
  <circle cx="478.394" cy="618.802" r="4.95864" stroke-width="0.5" stroke="black" fill="green"/>
   </g>
   <g id="cell38">
  <circle cx="525.789" cy="606.217" r="8.41237" stroke-width="0.5" stroke="black" fill="green"/>
  <circle cx="525.789" cy="606.217" r="5.05159" stroke-width="0.5" stroke="black" fill="green"/>
   </g>
   <g id="cell39">
  <circle cx="618.295" cy="499.64" r="8.24434" stroke-width="0.5" stroke="black" fill="green"/>
  <circle cx="618.295" cy="499.64" r="4.97745" stroke-width="0.5" stroke="black" fill="green"/>
   </g>
   <g id="cell40">
  <circle cx="483.564" cy="570.238" r="8.41271" stroke-width="0.5" stroke="black" fill="green"/>
  <circle cx="483.564" cy="570.238" r="5.05167" stroke-width="0.5" stroke="black" fill="green"/>
   </g>
   <g id="cell41">
  <circle cx="361.361" cy="481.662" r="8.41271" stroke-width="0.5" stroke="black" fill="green"/>
  <circle cx="361.361" cy="481.662" r="5.05167" stroke-width="0.5" stroke="black" fill="green"/>
   </g>
   <g id="cell176">
  <circle cx="470.254" cy="447.756" r="8.03187" stroke-width="0.5" stroke="black" fill="magenta"/>
  <circle cx="470.254" cy="447.756" r="4.8758" stroke-width="0.5" stroke="black" fill="magenta"/>
   </g>
   <g id="cell43">
  <circle cx="558.191" cy="445.615" r="8.41271" stroke-width="0.5" stroke="black" fill="green"/>
  <circle cx="558.191" cy="445.615" r="5.05167" stroke-width="0.5" stroke="black" fill="green"/>
   </g>
   <g id="cell44">
  <circle cx="488.782" cy="630.644" r="8.35556" stroke-width="0.5" stroke="black" fill="green"/>
  <circle cx="488.782" cy="630.644" r="5.02962" stroke-width="0.5" stroke="black" fill="green"/>
   </g>
   <g id="cell45">
  <circle cx="433.981" cy="564.459" r="8.20285" stroke-width="0.5" stroke="black" fill="green"/>
  <circle cx="433.981" cy="564.459" r="4.96294" stroke-width="0.5" stroke="black" fill="green"/>
   </g>
   <g id="cell46">
  <circle cx="519.74" cy="621.115" r="8.38861" stroke-width="0.5" stroke="black" fill="green"/>
  <circle cx="519.74" cy="621.115" r="5.04345" stroke-width="0.5" stroke="black" fill="green"/>
   </g>
   <g id="cell47">
  <circle cx="494.913" cy="512.455" r="8.41271" stroke-width="0.5" stroke="black" fill="green"/>
  <circle cx="494.913" cy="512.455" r="5.05167" stroke-width="0.5" stroke="black" fill="green"/>
   </g>
   <g id="cell48">
  <circle cx="566.511" cy="604.88" r="8.41271" stroke-width="0.5" stroke="black" fill="green"/>
  <circle cx="566.511" cy="604.88" r="5.05167" stroke-width="0.5" stroke="black" fill="green"/>
   </g>
   <g id="cell49">
  <circle cx="439.939" cy="388.636" r="7.80901" stroke-width="0.5" stroke="black" fill="green"/>
  <circle cx="439.939" cy="388.636" r="4.74235" stroke-width="0.5" stroke="black" fill="green"/>
   </g>
   <g id="cell50">
  <circle cx="508.132" cy="490.295" r="7.52086" stroke-width="0.5" stroke="black" fill="cyan"/>
  <circle cx="508.132" cy="490.295" r="4.59175" stroke-width="0.5" stroke="black" fill="cyan"/>
   </g>
   <g id="cell51">
  <circle cx="385.24" cy="603.808" r="8.36278" stroke-width="0.5" stroke="black" fill="cyan"/>
  <circle cx="385.24" cy="603.808" r="5.03309" stroke-width="0.5" stroke="black" fill="cyan"/>
   </g>
   <g id="cell120">
  <circle cx="418.763" cy="610.58" r="8.40944" stroke-width="0.5" stroke="black" fill="cyan"/>
  <circle cx="418.763" cy="610.58" r="5.05076" stroke-width="0.5" stroke="black" fill="cyan"/>
   </g>
   <g id="cell53">
  <circle cx="571.109" cy="436.134" r="8.41271" stroke-width="0.5" stroke="black" fill="cyan"/>
  <circle cx="571.109" cy="436.134" r="5.05167" stroke-width="0.5" stroke="black" fill="cyan"/>
   </g>
   <g id="cell54">
  <circle cx="487.441" cy="425.221" r="8.37208" stroke-width="0.5" stroke="black" fill="cyan"/>
  <circle cx="487.441" cy="425.221" r="5.03661" stroke-width="0.5" stroke="black" fill="cyan"/>
   </g>
   <g id="cell55">
  <circle cx="520.732" cy="477.063" r="8.41271" stroke-width="0.5" stroke="black" fill="cyan"/>
  <circle cx="520.732" cy="477.063" r="5.05167" stroke-width="0.5" stroke="black" fill="cyan"/>
   </g>
   <g id="cell56">
  <circle cx="622.176" cy="519.601" r="7.54755" stroke-width="0.5" stroke="black" fill="cyan"/>
  <circle cx="622.176" cy="519.601" r="4.61126" stroke-width="0.5" stroke="black" fill="cyan"/>
   </g>
   <g id="cell57">
  <circle cx="418.484" cy="626.595" r="8.40944" stroke-width="0.5" stroke="black" fill="cyan"/>
  <circle cx="418.484" cy="626.595" r="5.05076" stroke-width="0.5" stroke="black" fill="cyan"/>
   </g>
   <g id="cell58">
  <circle cx="549.204" cy="484.173" r="8.41271" stroke-width="0.5" stroke="black" fill="cyan"/>
  <circle cx="549.204" cy="484.173" r="5.05167" stroke-width="0.5" stroke="black" fill="cyan"/>
   </g>
   <g id="cell59">
  <circle cx="385.491" cy="439.906" r="8.41271" stroke-width="0.5" stroke="black" fill="cyan"/>
  <circle cx="385.491" cy="439.906" r="5.05167" stroke-width="0.5" stroke="black" fill="cyan"/>
   </g>
   <g id="cell60">
  <circle cx="602.941" cy="469.426" r="7.73775" stroke-width="0.5" stroke="black" fill="cyan"/>
  <circle cx="602.941" cy="469.426" r="4.70071" stroke-width="0.5" stroke="black" fill="cyan"/>
   </g>
   <g id="cell155">
  <circle cx="518.905" cy="592.292" r="8.31853" stroke-width="0.5" stroke="black" fill="magenta"/>
  <circle cx="518.905" cy="592.292" r="5.01505" stroke-width="0.5" stroke="black" fill="magenta"/>
   </g>
   <g id="cell62">
  <circle cx="523.262" cy="436.487" r="8.41271" stroke-width="0.5" stroke="black" fill="cyan"/>
  <circle cx="523.262" cy="436.487" r="5.05167" stroke-width="0.5" stroke="black" fill="cyan"/>
   </g>
   <g id="cell63">
  <circle cx="582.01" cy="555.042" r="8.41237" stroke-width="0.5" stroke="black" fill="cyan"/>
  <circle cx="582.01" cy="555.042" r="5.05159" stroke-width="0.5" stroke="black" fill="cyan"/>
   </g>
   <g id="cell64">
  <circle cx="509.955" cy="633.711" r="8.40839" stroke-width="0.5" stroke="black" fill="cyan"/>
  <circle cx="509.955" cy="633.711" r="5.05043" stroke-width="0.5" stroke="black" fill="cyan"/>
   </g>
   <g id="cell65">
  <circle cx="533.989" cy="448.464" r="8.29648" stroke-width="0.5" stroke="black" fill="cyan"/>
  <circle cx="533.989" cy="448.464" r="5.00275" stroke-width="0.5" stroke="black" fill="cyan"/>
   </g>
   <g id="cell66">
  <circle cx="550.589" cy="521.721" r="8.40961" stroke-width="0.5" stroke="black" fill="cyan"/>
  <circle cx="550.589" cy="521.721" r="5.05081" stroke-width="0.5" stroke="black" fill="cyan"/>
   </g>
   <g id="cell67">
  <circle cx="353.244" cy="495.359" r="8.41271" stroke-width="0.5" stroke="black" fill="cyan"/>
  <circle cx="353.244" cy="495.359" r="5.05167" stroke-width="0.5" stroke="black" fill="cyan"/>
   </g>
   <g id="cell68">
  <circle cx="567.159" cy="553.804" r="7.3599" stroke-width="0.5" stroke="black" fill="cyan"/>
  <circle cx="567.159" cy="553.804" r="4.47294" stroke-width="0.5" stroke="black" fill="cyan"/>
   </g>
   <g id="cell69">
  <circle cx="440.793" cy="442.079" r="8.41264" stroke-width="0.5" stroke="black" fill="cyan"/>
  <circle cx="440.793" cy="442.079" r="5.05166" stroke-width="0.5" stroke="black" fill="cyan"/>
   </g>
   <g id="cell70">
  <circle cx="573.498" cy="469.321" r="8.40022" stroke-width="0.5" stroke="black" fill="cyan"/>
  <circle cx="573.498" cy="469.321" r="5.04764" stroke-width="0.5" stroke="black" fill="cyan"/>
   </g>
   <g id="cell71">
  <circle cx="380.728" cy="528.303" r="4.86092" stroke-width="0.5" stroke="black" fill="cyan"/>
  <circle cx="380.728" cy="528.303" r="3.27376" stroke-width="0.5" stroke="black" fill="black"/>
   </g>
   <g id="cell72">
  <circle cx="537.505" cy="512.746" r="8.41271" stroke-width="0.5" stroke="black" fill="cyan"/>
  <circle cx="537.505" cy="512.746" r="5.05167" stroke-width="0.5" stroke="black" fill="cyan"/>
   </g>
   <g id="cell129">
  <circle cx="417.33" cy="404.721" r="8.40557" stroke-width="0.5" stroke="black" fill="green"/>
  <circle cx="417.33" cy="404.721" r="5.04951" stroke-width="0.5" stroke="black" fill="green"/>
   </g>
   <g id="cell74">
  <circle cx="541.766" cy="443.496" r="1.38109" stroke-width="0.5" stroke="black" fill="cyan"/>
  <circle cx="541.766" cy="443.496" r="1.3695" stroke-width="0.5" stroke="black" fill="black"/>
   </g>
   <g id="cell75">
  <circle cx="441.96" cy="481.751" r="7.69945" stroke-width="0.5" stroke="black" fill="cyan"/>
  <circle cx="441.96" cy="481.751" r="4.70092" stroke-width="0.5" stroke="black" fill="cyan"/>
   </g>
   <g id="cell76">
  <circle cx="510.581" cy="378.362" r="7.92266" stroke-width="0.5" stroke="black" fill="magenta"/>
  <circle cx="510.581" cy="378.362" r="4.80593" stroke-width="0.5" stroke="black" fill="magenta"/>
   </g>
   <g id="cell77">
  <circle cx="502.552" cy="428.091" r="8.38433" stroke-width="0.5" stroke="black" fill="magenta"/>
  <circle cx="502.552" cy="428.091" r="5.04173" stroke-width="0.5" stroke="black" fill="magenta"/>
   </g>
   <g id="cell78">
  <circle cx="371.878" cy="457.042" r="7.05445" stroke-width="0.5" stroke="black" fill="magenta"/>
  <circle cx="371.878" cy="457.042" r="4.2777" stroke-width="0.5" stroke="black" fill="magenta"/>
   </g>
   <g id="cell79">
  <circle cx="496.674" cy="528.108" r="8.41263" stroke-width="0.5" stroke="black" fill="magenta"/>
  <circle cx="496.674" cy="528.108" r="5.05165" stroke-width="0.5" stroke="black" fill="magenta"/>
   </g>
   <g id="cell80">
  <circle cx="613.557" cy="486.761" r="6.62224" stroke-width="0.5" stroke="black" fill="green"/>
  <circle cx="613.557" cy="486.761" r="4.0026" stroke-width="0.5" stroke="black" fill="green"/>
   </g>
   <g id="cell81">
  <circle cx="427.624" cy="506.821" r="8.40649" stroke-width="0.5" stroke="black" fill="green"/>
  <circle cx="427.624" cy="506.821" r="5.04986" stroke-width="0.5" stroke="black" fill="green"/>
   </g>
   <g id="cell82">
  <circle cx="543.365" cy="498.259" r="8.41261" stroke-width="0.5" stroke="black" fill="magenta"/>
  <circle cx="543.365" cy="498.259" r="5.05165" stroke-width="0.5" stroke="black" fill="magenta"/>
   </g>
   <g id="cell130">
  <circle cx="573.297" cy="394.366" r="8.40516" stroke-width="0.5" stroke="black" fill="magenta"/>
  <circle cx="573.297" cy="394.366" r="5.04937" stroke-width="0.5" stroke="black" fill="magenta"/>
   </g>
   <g id="cell84">
  <circle cx="404.908" cy="483.842" r="8.41093" stroke-width="0.5" stroke="black" fill="green"/>
  <circle cx="404.908" cy="483.842" r="5.05121" stroke-width="0.5" stroke="black" fill="green"/>
   </g>
   <g id="cell140">
  <circle cx="526.235" cy="579.667" r="8.37637" stroke-width="0.5" stroke="black" fill="magenta"/>
  <circle cx="526.235" cy="579.667" r="5.0392" stroke-width="0.5" stroke="black" fill="magenta"/>
   </g>
   <g id="cell86">
  <circle cx="392.345" cy="567.073" r="8.41106" stroke-width="0.5" stroke="black" fill="magenta"/>
  <circle cx="392.345" cy="567.073" r="5.05125" stroke-width="0.5" stroke="black" fill="magenta"/>
   </g>
   <g id="cell87">
  <circle cx="433.549" cy="521.949" r="8.35739" stroke-width="0.5" stroke="black" fill="green"/>
  <circle cx="433.549" cy="521.949" r="5.03062" stroke-width="0.5" stroke="black" fill="green"/>
   </g>
   <g id="cell88">
  <circle cx="475.862" cy="604.777" r="6.97495" stroke-width="0.5" stroke="black" fill="green"/>
  <circle cx="475.862" cy="604.777" r="4.25369" stroke-width="0.5" stroke="black" fill="green"/>
   </g>
   <g id="cell89">
  <circle cx="430.597" cy="491.146" r="8.41191" stroke-width="0.5" stroke="black" fill="green"/>
  <circle cx="430.597" cy="491.146" r="5.05148" stroke-width="0.5" stroke="black" fill="green"/>
   </g>
   <g id="cell90">
  <circle cx="579.201" cy="513.367" r="8.34498" stroke-width="0.5" stroke="black" fill="magenta"/>
  <circle cx="579.201" cy="513.367" r="5.025" stroke-width="0.5" stroke="black" fill="magenta"/>
   </g>
   <g id="cell136">
  <circle cx="524.732" cy="540.011" r="8.39794" stroke-width="0.5" stroke="black" fill="magenta"/>
  <circle cx="524.732" cy="540.011" r="5.04681" stroke-width="0.5" stroke="black" fill="magenta"/>
   </g>
   <g id="cell92">
  <circle cx="560.826" cy="589.805" r="8.41084" stroke-width="0.5" stroke="black" fill="green"/>
  <circle cx="560.826" cy="589.805" r="5.0512" stroke-width="0.5" stroke="black" fill="green"/>
   </g>
   <g id="cell93">
  <circle cx="579.331" cy="527.759" r="7.67428" stroke-width="0.5" stroke="black" fill="cyan"/>
  <circle cx="579.331" cy="527.759" r="4.66435" stroke-width="0.5" stroke="black" fill="cyan"/>
   </g>
   <g id="cell94">
  <circle cx="540.305" cy="471.298" r="8.41235" stroke-width="0.5" stroke="black" fill="cyan"/>
  <circle cx="540.305" cy="471.298" r="5.05159" stroke-width="0.5" stroke="black" fill="cyan"/>
   </g>
   <g id="cell95">
  <circle cx="467.082" cy="532.946" r="8.41235" stroke-width="0.5" stroke="black" fill="magenta"/>
  <circle cx="467.082" cy="532.946" r="5.05159" stroke-width="0.5" stroke="black" fill="magenta"/>
   </g>
   <g id="cell96">
  <circle cx="539.041" cy="383.711" r="8.41228" stroke-width="0.5" stroke="black" fill="magenta"/>
  <circle cx="539.041" cy="383.711" r="5.05157" stroke-width="0.5" stroke="black" fill="magenta"/>
   </g>
   <g id="cell97">
  <circle cx="564.482" cy="510.437" r="8.41222" stroke-width="0.5" stroke="black" fill="magenta"/>
  <circle cx="564.482" cy="510.437" r="5.05156" stroke-width="0.5" stroke="black" fill="magenta"/>
   </g>
   <g id="cell98">
  <circle cx="406.29" cy="573.875" r="8.37179" stroke-width="0.5" stroke="black" fill="green"/>
  <circle cx="406.29" cy="573.875" r="5.03655" stroke-width="0.5" stroke="black" fill="green"/>
   </g>
   <g id="cell99">
  <circle cx="573.925" cy="498.517" r="8.41214" stroke-width="0.5" stroke="black" fill="magenta"/>
  <circle cx="573.925" cy="498.517" r="5.05154" stroke-width="0.5" stroke="black" fill="magenta"/>
   </g>
   <g id="cell100">
  <circle cx="569.39" cy="539.326" r="8.41194" stroke-width="0.5" stroke="black" fill="cyan"/>
  <circle cx="569.39" cy="539.326" r="5.05149" stroke-width="0.5" stroke="black" fill="cyan"/>
   </g>
   <g id="cell101">
  <circle cx="458.881" cy="628.876" r="7.71962" stroke-width="0.5" stroke="black" fill="magenta"/>
  <circle cx="458.881" cy="628.876" r="4.68977" stroke-width="0.5" stroke="black" fill="magenta"/>
   </g>
   <g id="cell102">
  <circle cx="444.526" cy="511.344" r="8.41191" stroke-width="0.5" stroke="black" fill="green"/>
  <circle cx="444.526" cy="511.344" r="5.05148" stroke-width="0.5" stroke="black" fill="green"/>
   </g>
   <g id="cell103">
  <circle cx="557.717" cy="617.858" r="8.21222" stroke-width="0.5" stroke="black" fill="green"/>
  <circle cx="557.717" cy="617.858" r="4.9615" stroke-width="0.5" stroke="black" fill="green"/>
   </g>
   <g id="cell104">
  <circle cx="553.256" cy="540.205" r="8.41185" stroke-width="0.5" stroke="black" fill="green"/>
  <circle cx="553.256" cy="540.205" r="5.05146" stroke-width="0.5" stroke="black" fill="green"/>
   </g>
   <g id="cell105">
  <circle cx="415.816" cy="495.058" r="8.4117" stroke-width="0.5" stroke="black" fill="green"/>
  <circle cx="415.816" cy="495.058" r="5.05142" stroke-width="0.5" stroke="black" fill="green"/>
   </g>
   <g id="cell106">
  <circle cx="649.656" cy="530.069" r="8.12128" stroke-width="0.5" stroke="black" fill="green"/>
  <circle cx="649.656" cy="530.069" r="4.91444" stroke-width="0.5" stroke="black" fill="green"/>
   </g>
   <g id="cell107">
  <circle cx="383.311" cy="511.854" r="8.41147" stroke-width="0.5" stroke="black" fill="cyan"/>
  <circle cx="383.311" cy="511.854" r="5.05136" stroke-width="0.5" stroke="black" fill="cyan"/>
   </g>
   <g id="cell108">
  <circle cx="460.976" cy="643.233" r="8.41113" stroke-width="0.5" stroke="black" fill="magenta"/>
  <circle cx="460.976" cy="643.233" r="5.05127" stroke-width="0.5" stroke="black" fill="magenta"/>
   </g>
   <g id="cell109">
  <circle cx="447.051" cy="637.292" r="8.41113" stroke-width="0.5" stroke="black" fill="magenta"/>
  <circle cx="447.051" cy="637.292" r="5.05127" stroke-width="0.5" stroke="black" fill="magenta"/>
   </g>
   <g id="cell110">
  <circle cx="538.323" cy="571.19" r="7.94941" stroke-width="0.5" stroke="black" fill="green"/>
  <circle cx="538.323" cy="571.19" r="4.82111" stroke-width="0.5" stroke="black" fill="green"/>
   </g>
   <g id="cell111">
  <circle cx="627.776" cy="557.686" r="8.41084" stroke-width="0.5" stroke="black" fill="green"/>
  <circle cx="627.776" cy="557.686" r="5.0512" stroke-width="0.5" stroke="black" fill="green"/>
   </g>
   <g id="cell112">
  <circle cx="378.818" cy="573.548" r="8.41106" stroke-width="0.5" stroke="black" fill="magenta"/>
  <circle cx="378.818" cy="573.548" r="5.05125" stroke-width="0.5" stroke="black" fill="magenta"/>
   </g>
   <g id="cell113">
  <circle cx="419.867" cy="479.52" r="8.41093" stroke-width="0.5" stroke="black" fill="green"/>
  <circle cx="419.867" cy="479.52" r="5.05121" stroke-width="0.5" stroke="black" fill="green"/>
   </g>
   <g id="cell114">
  <circle cx="499.164" cy="453.847" r="8.40228" stroke-width="0.5" stroke="black" fill="magenta"/>
  <circle cx="499.164" cy="453.847" r="5.04846" stroke-width="0.5" stroke="black" fill="magenta"/>
   </g>
   <g id="cell115">
  <circle cx="452.955" cy="525.979" r="8.41044" stroke-width="0.5" stroke="black" fill="green"/>
  <circle cx="452.955" cy="525.979" r="5.05107" stroke-width="0.5" stroke="black" fill="green"/>
   </g>
   <g id="cell116">
  <circle cx="368.541" cy="517.447" r="8.40975" stroke-width="0.5" stroke="black" fill="cyan"/>
  <circle cx="368.541" cy="517.447" r="5.05088" stroke-width="0.5" stroke="black" fill="cyan"/>
   </g>
   <g id="cell173">
  <circle cx="540.17" cy="609.933" r="7.79619" stroke-width="0.5" stroke="black" fill="green"/>
  <circle cx="540.17" cy="609.933" r="4.74698" stroke-width="0.5" stroke="black" fill="green"/>
   </g>
   <g id="cell118">
  <circle cx="523.111" cy="524.934" r="8.22228" stroke-width="0.5" stroke="black" fill="cyan"/>
  <circle cx="523.111" cy="524.934" r="4.96679" stroke-width="0.5" stroke="black" fill="cyan"/>
   </g>
   <g id="cell119">
  <circle cx="524.457" cy="640.335" r="8.3813" stroke-width="0.5" stroke="black" fill="green"/>
  <circle cx="524.457" cy="640.335" r="5.04058" stroke-width="0.5" stroke="black" fill="green"/>
   </g>
   <g id="cell121">
  <circle cx="392.687" cy="553.663" r="6.75347" stroke-width="0.5" stroke="black" fill="magenta"/>
  <circle cx="392.687" cy="553.663" r="4.0673" stroke-width="0.5" stroke="black" fill="magenta"/>
   </g>
   <g id="cell122">
  <circle cx="615.092" cy="458.083" r="8.28424" stroke-width="0.5" stroke="black" fill="cyan"/>
  <circle cx="615.092" cy="458.083" r="4.99727" stroke-width="0.5" stroke="black" fill="cyan"/>
   </g>
   <g id="cell123">
  <circle cx="498.782" cy="645.087" r="8.40839" stroke-width="0.5" stroke="black" fill="cyan"/>
  <circle cx="498.782" cy="645.087" r="5.05043" stroke-width="0.5" stroke="black" fill="cyan"/>
   </g>
   <g id="cell124">
  <circle cx="378.05" cy="589.383" r="8.40826" stroke-width="0.5" stroke="black" fill="green"/>
  <circle cx="378.05" cy="589.383" r="5.05039" stroke-width="0.5" stroke="black" fill="green"/>
   </g>
   <g id="cell125">
  <circle cx="456.622" cy="457.965" r="7.41235" stroke-width="0.5" stroke="black" fill="cyan"/>
  <circle cx="456.622" cy="457.965" r="4.50624" stroke-width="0.5" stroke="black" fill="cyan"/>
   </g>
   <g id="cell126">
  <circle cx="411.387" cy="509.829" r="8.40649" stroke-width="0.5" stroke="black" fill="green"/>
  <circle cx="411.387" cy="509.829" r="5.04986" stroke-width="0.5" stroke="black" fill="green"/>
   </g>
   <g id="cell127">
  <circle cx="413.471" cy="595.5" r="8.4065" stroke-width="0.5" stroke="black" fill="cyan"/>
  <circle cx="413.471" cy="595.5" r="5.04982" stroke-width="0.5" stroke="black" fill="cyan"/>
   </g>
   <g id="cell128">
  <circle cx="350.166" cy="536.909" r="8.06229" stroke-width="0.5" stroke="black" fill="cyan"/>
  <circle cx="350.166" cy="536.909" r="4.88382" stroke-width="0.5" stroke="black" fill="cyan"/>
   </g>
   <g id="cell131">
  <circle cx="584.216" cy="540.653" r="7.29598" stroke-width="0.5" stroke="black" fill="cyan"/>
  <circle cx="584.216" cy="540.653" r="4.43491" stroke-width="0.5" stroke="black" fill="cyan"/>
   </g>
   <g id="cell132">
  <circle cx="508.456" cy="441.972" r="8.40228" stroke-width="0.5" stroke="black" fill="magenta"/>
  <circle cx="508.456" cy="441.972" r="5.04846" stroke-width="0.5" stroke="black" fill="magenta"/>
   </g>
   <g id="cell133">
  <circle cx="534.796" cy="409.178" r="8.40244" stroke-width="0.5" stroke="black" fill="magenta"/>
  <circle cx="534.796" cy="409.178" r="5.04843" stroke-width="0.5" stroke="black" fill="magenta"/>
   </g>
   <g id="cell134">
  <circle cx="510.984" cy="579.483" r="8.38642" stroke-width="0.5" stroke="black" fill="magenta"/>
  <circle cx="510.984" cy="579.483" r="5.04281" stroke-width="0.5" stroke="black" fill="magenta"/>
   </g>
   <g id="cell135">
  <circle cx="564.212" cy="482.264" r="8.40022" stroke-width="0.5" stroke="black" fill="cyan"/>
  <circle cx="564.212" cy="482.264" r="5.04764" stroke-width="0.5" stroke="black" fill="cyan"/>
   </g>
   <g id="cell137">
  <circle cx="376.254" cy="477.145" r="8.39519" stroke-width="0.5" stroke="black" fill="magenta"/>
  <circle cx="376.254" cy="477.145" r="5.0458" stroke-width="0.5" stroke="black" fill="magenta"/>
   </g>
   <g id="cell138">
  <circle cx="533.941" cy="592.953" r="8.31853" stroke-width="0.5" stroke="black" fill="magenta"/>
  <circle cx="533.941" cy="592.953" r="5.01505" stroke-width="0.5" stroke="black" fill="magenta"/>
   </g>
   <g id="cell139">
  <circle cx="502.401" cy="612.046" r="6.81889" stroke-width="0.5" stroke="black" fill="green"/>
  <circle cx="502.401" cy="612.046" r="4.12136" stroke-width="0.5" stroke="black" fill="green"/>
   </g>
   <g id="cell142">
  <circle cx="581.892" cy="382.001" r="8.38074" stroke-width="0.5" stroke="black" fill="magenta"/>
  <circle cx="581.892" cy="382.001" r="5.04052" stroke-width="0.5" stroke="black" fill="magenta"/>
   </g>
   <g id="cell143">
  <circle cx="532.411" cy="628.24" r="7.06428" stroke-width="0.5" stroke="black" fill="green"/>
  <circle cx="532.411" cy="628.24" r="4.29057" stroke-width="0.5" stroke="black" fill="green"/>
   </g>
   <g id="cell144">
  <circle cx="374.305" cy="543.992" r="8.38028" stroke-width="0.5" stroke="black" fill="magenta"/>
  <circle cx="374.305" cy="543.992" r="5.03997" stroke-width="0.5" stroke="black" fill="magenta"/>
   </g>
   <g id="cell145">
  <circle cx="458.752" cy="478.687" r="6.28915" stroke-width="0.5" stroke="black" fill="magenta"/>
  <circle cx="458.752" cy="478.687" r="3.82707" stroke-width="0.5" stroke="black" fill="magenta"/>
   </g>
   <g id="cell146">
  <circle cx="461.724" cy="419.605" r="8.37208" stroke-width="0.5" stroke="black" fill="cyan"/>
  <circle cx="461.724" cy="419.605" r="5.03661" stroke-width="0.5" stroke="black" fill="cyan"/>
   </g>
   <g id="cell148">
  <circle cx="401.144" cy="605.635" r="8.36278" stroke-width="0.5" stroke="black" fill="cyan"/>
  <circle cx="401.144" cy="605.635" r="5.03309" stroke-width="0.5" stroke="black" fill="cyan"/>
   </g>
   <g id="cell149">
  <circle cx="440.398" cy="536.039" r="8.35739" stroke-width="0.5" stroke="black" fill="green"/>
  <circle cx="440.398" cy="536.039" r="5.03062" stroke-width="0.5" stroke="black" fill="green"/>
   </g>
   <g id="cell150">
  <circle cx="473.053" cy="633.482" r="8.35556" stroke-width="0.5" stroke="black" fill="green"/>
  <circle cx="473.053" cy="633.482" r="5.02962" stroke-width="0.5" stroke="black" fill="green"/>
   </g>
   <g id="cell151">
  <circle cx="521.942" cy="509.411" r="8.35404" stroke-width="0.5" stroke="black" fill="cyan"/>
  <circle cx="521.942" cy="509.411" r="5.02894" stroke-width="0.5" stroke="black" fill="cyan"/>
   </g>
   <g id="cell152">
  <circle cx="643.094" cy="553.155" r="8.34789" stroke-width="0.5" stroke="black" fill="green"/>
  <circle cx="643.094" cy="553.155" r="5.02642" stroke-width="0.5" stroke="black" fill="green"/>
   </g>
   <g id="cell153">
  <circle cx="395.316" cy="522.02" r="8.34291" stroke-width="0.5" stroke="black" fill="cyan"/>
  <circle cx="395.316" cy="522.02" r="5.02465" stroke-width="0.5" stroke="black" fill="cyan"/>
   </g>
   <g id="cell154">
  <circle cx="587.931" cy="502.511" r="7.9637" stroke-width="0.5" stroke="black" fill="magenta"/>
  <circle cx="587.931" cy="502.511" r="4.83448" stroke-width="0.5" stroke="black" fill="magenta"/>
   </g>
   <g id="cell156">
  <circle cx="404.911" cy="558.313" r="8.23125" stroke-width="0.5" stroke="black" fill="green"/>
  <circle cx="404.911" cy="558.313" r="4.97478" stroke-width="0.5" stroke="black" fill="green"/>
   </g>
   <g id="cell157">
  <circle cx="391.192" cy="477.516" r="8.31138" stroke-width="0.5" stroke="black" fill="magenta"/>
  <circle cx="391.192" cy="477.516" r="5.01082" stroke-width="0.5" stroke="black" fill="magenta"/>
   </g>
   <g id="cell158">
  <circle cx="432.286" cy="470.132" r="8.26223" stroke-width="0.5" stroke="black" fill="green"/>
  <circle cx="432.286" cy="470.132" r="4.98944" stroke-width="0.5" stroke="black" fill="green"/>
   </g>
   <g id="cell159">
  <circle cx="441.436" cy="457.63" r="8.26223" stroke-width="0.5" stroke="black" fill="green"/>
  <circle cx="441.436" cy="457.63" r="4.98944" stroke-width="0.5" stroke="black" fill="green"/>
   </g>
   <g id="cell160">
  <circle cx="419.194" cy="561.542" r="8.24928" stroke-width="0.5" stroke="black" fill="green"/>
  <circle cx="419.194" cy="561.542" r="4.98338" stroke-width="0.5" stroke="black" fill="green"/>
   </g>
   <g id="cell161">
  <circle cx="527.062" cy="462.646" r="8.29648" stroke-width="0.5" stroke="black" fill="cyan"/>
  <circle cx="527.062" cy="462.646" r="5.00275" stroke-width="0.5" stroke="black" fill="cyan"/>
   </g>
   <g id="cell162">
  <circle cx="617.726" cy="473.472" r="8.28424" stroke-width="0.5" stroke="black" fill="cyan"/>
  <circle cx="617.726" cy="473.472" r="4.99727" stroke-width="0.5" stroke="black" fill="cyan"/>
   </g>
   <g id="cell163">
  <circle cx="428.037" cy="549.197" r="8.20285" stroke-width="0.5" stroke="black" fill="green"/>
  <circle cx="428.037" cy="549.197" r="4.96294" stroke-width="0.5" stroke="black" fill="green"/>
   </g>
   <g id="cell164">
  <circle cx="466.82" cy="468.643" r="8.28378" stroke-width="0.5" stroke="black" fill="cyan"/>
  <circle cx="466.82" cy="468.643" r="4.99712" stroke-width="0.5" stroke="black" fill="cyan"/>
   </g>
   <g id="cell165">
  <circle cx="413.116" cy="545.131" r="8.23125" stroke-width="0.5" stroke="black" fill="green"/>
  <circle cx="413.116" cy="545.131" r="4.97478" stroke-width="0.5" stroke="black" fill="green"/>
   </g>
   <g id="cell166">
  <circle cx="602.422" cy="499.837" r="8.27093" stroke-width="0.5" stroke="black" fill="green"/>
  <circle cx="602.422" cy="499.837" r="4.99047" stroke-width="0.5" stroke="black" fill="green"/>
   </g>
   <g id="cell167">
  <circle cx="466.864" cy="387.289" r="8.27097" stroke-width="0.5" stroke="black" fill="green"/>
  <circle cx="466.864" cy="387.289" r="4.99048" stroke-width="0.5" stroke="black" fill="green"/>
   </g>
   <g id="cell168">
  <circle cx="520.011" cy="406.651" r="8.26154" stroke-width="0.5" stroke="black" fill="magenta"/>
  <circle cx="520.011" cy="406.651" r="4.98679" stroke-width="0.5" stroke="black" fill="magenta"/>
   </g>
   <g id="cell169">
  <circle cx="466.12" cy="434.132" r="7.57773" stroke-width="0.5" stroke="black" fill="magenta"/>
  <circle cx="466.12" cy="434.132" r="4.63207" stroke-width="0.5" stroke="black" fill="magenta"/>
   </g>
   <g id="cell170">
  <circle cx="628.763" cy="488.025" r="8.24434" stroke-width="0.5" stroke="black" fill="green"/>
  <circle cx="628.763" cy="488.025" r="4.97745" stroke-width="0.5" stroke="black" fill="green"/>
   </g>
   <g id="cell171">
  <circle cx="537.38" cy="530.506" r="8.22228" stroke-width="0.5" stroke="black" fill="cyan"/>
  <circle cx="537.38" cy="530.506" r="4.96679" stroke-width="0.5" stroke="black" fill="cyan"/>
   </g>
   <g id="cell172">
  <circle cx="509.086" cy="519.022" r="8.18205" stroke-width="0.5" stroke="black" fill="cyan"/>
  <circle cx="509.086" cy="519.022" r="4.94966" stroke-width="0.5" stroke="black" fill="cyan"/>
   </g>
   <g id="cell175">
  <circle cx="638.694" cy="539.233" r="7.11038" stroke-width="0.5" stroke="black" fill="green"/>
  <circle cx="638.694" cy="539.233" r="4.34539" stroke-width="0.5" stroke="black" fill="green"/>
   </g>
   <g id="cell177">
  <circle cx="364.8" cy="532.296" r="8.06229" stroke-width="0.5" stroke="black" fill="cyan"/>
  <circle cx="364.8" cy="532.296" r="4.88382" stroke-width="0.5" stroke="black" fill="cyan"/>
   </g>
   <g id="cell178">
  <circle cx="484.495" cy="450.751" r="7.97549" stroke-width="0.5" stroke="black" fill="magenta"/>
  <circle cx="484.495" cy="450.751" r="4.84577" stroke-width="0.5" stroke="black" fill="magenta"/>
   </g>
   <g id="cell179">
  <circle cx="444.568" cy="496.591" r="7.95379" stroke-width="0.5" stroke="black" fill="cyan"/>
  <circle cx="444.568" cy="496.591" r="4.83204" stroke-width="0.5" stroke="black" fill="cyan"/>
   </g>
   <g id="cell180">
  <circle cx="591.582" cy="489.476" r="7.9637" stroke-width="0.5" stroke="black" fill="magenta"/>
  <circle cx="591.582" cy="489.476" r="4.83448" stroke-width="0.5" stroke="black" fill="magenta"/>
   </g>
   <g id="cell181">
  <circle cx="546.068" cy="583.817" r="7.94941" stroke-width="0.5" stroke="black" fill="green"/>
  <circle cx="546.068" cy="583.817" r="4.82111" stroke-width="0.5" stroke="black" fill="green"/>
   </g>
   <g id="cell182">
  <circle cx="449.664" cy="469.958" r="7.69945" stroke-width="0.5" stroke="black" fill="cyan"/>
  <circle cx="449.664" cy="469.958" r="4.70092" stroke-width="0.5" stroke="black" fill="cyan"/>
   </g>
   <g id="cell183">
  <circle cx="524.462" cy="381.54" r="7.92266" stroke-width="0.5" stroke="black" fill="magenta"/>
  <circle cx="524.462" cy="381.54" r="4.80593" stroke-width="0.5" stroke="black" fill="magenta"/>
   </g>
   <g id="cell184">
  <circle cx="548.19" cy="598.167" r="7.79619" stroke-width="0.5" stroke="black" fill="green"/>
  <circle cx="548.19" cy="598.167" r="4.74698" stroke-width="0.5" stroke="black" fill="green"/>
   </g>
   <g id="cell185">
  <circle cx="418.943" cy="522.335" r="7.56393" stroke-width="0.5" stroke="black" fill="green"/>
  <circle cx="418.943" cy="522.335" r="4.62046" stroke-width="0.5" stroke="black" fill="green"/>
   </g>
   <g id="cell186">
  <circle cx="606.124" cy="524.896" r="7.47276" stroke-width="0.5" stroke="black" fill="cyan"/>
  <circle cx="606.124" cy="524.896" r="4.56856" stroke-width="0.5" stroke="black" fill="cyan"/>
   </g>
   <g id="cell187">
  <circle cx="469.969" cy="483.978" r="7.84325" stroke-width="0.5" stroke="black" fill="magenta"/>
  <circle cx="469.969" cy="483.978" r="4.76475" stroke-width="0.5" stroke="black" fill="magenta"/>
   </g>
   <g id="cell188">
  <circle cx="617.349" cy="532.974" r="7.54755" stroke-width="0.5" stroke="black" fill="cyan"/>
  <circle cx="617.349" cy="532.974" r="4.61126" stroke-width="0.5" stroke="black" fill="cyan"/>
   </g>
   <g id="cell189">
  <circle cx="425.402" cy="534.78" r="7.56393" stroke-width="0.5" stroke="black" fill="green"/>
  <circle cx="425.402" cy="534.78" r="4.62046" stroke-width="0.5" stroke="black" fill="green"/>
   </g>
   <g id="cell190">
  <circle cx="432.342" cy="401.323" r="7.80901" stroke-width="0.5" stroke="black" fill="green"/>
  <circle cx="432.342" cy="401.323" r="4.74235" stroke-width="0.5" stroke="black" fill="green"/>
   </g>
   <g id="cell191">
  <circle cx="479.662" cy="437.54" r="7.57773" stroke-width="0.5" stroke="black" fill="magenta"/>
  <circle cx="479.662" cy="437.54" r="4.63207" stroke-width="0.5" stroke="black" fill="magenta"/>
   </g>
   <g id="cell192">
  <circle cx="610.279" cy="511.938" r="7.47276" stroke-width="0.5" stroke="black" fill="cyan"/>
  <circle cx="610.279" cy="511.938" r="4.56856" stroke-width="0.5" stroke="black" fill="cyan"/>
   </g>
   <g id="cell193">
  <circle cx="588.514" cy="472.709" r="7.73775" stroke-width="0.5" stroke="black" fill="cyan"/>
  <circle cx="588.514" cy="472.709" r="4.70071" stroke-width="0.5" stroke="black" fill="cyan"/>
   </g>
   <g id="cell194">
  <circle cx="446.417" cy="622.786" r="7.71962" stroke-width="0.5" stroke="black" fill="magenta"/>
  <circle cx="446.417" cy="622.786" r="4.68977" stroke-width="0.5" stroke="black" fill="magenta"/>
   </g>
   <g id="cell195">
  <circle cx="565.221" cy="524.991" r="7.67428" stroke-width="0.5" stroke="black" fill="cyan"/>
  <circle cx="565.221" cy="524.991" r="4.66435" stroke-width="0.5" stroke="black" fill="cyan"/>
   </g>
   <g id="cell196">
  <circle cx="507.806" cy="504.411" r="7.52086" stroke-width="0.5" stroke="black" fill="cyan"/>
  <circle cx="507.806" cy="504.411" r="4.59175" stroke-width="0.5" stroke="black" fill="cyan"/>
   </g>
   <g id="cell197">
  <circle cx="456.524" cy="444.435" r="7.41235" stroke-width="0.5" stroke="black" fill="cyan"/>
  <circle cx="456.524" cy="444.435" r="4.50624" stroke-width="0.5" stroke="black" fill="cyan"/>
   </g>
   <g id="cell198">
  <circle cx="559.7" cy="565.366" r="7.3599" stroke-width="0.5" stroke="black" fill="cyan"/>
  <circle cx="559.7" cy="565.366" r="4.47294" stroke-width="0.5" stroke="black" fill="cyan"/>
   </g>
   <g id="cell199">
  <circle cx="626.06" cy="543.296" r="7.11038" stroke-width="0.5" stroke="black" fill="green"/>
  <circle cx="626.06" cy="543.296" r="4.34539" stroke-width="0.5" stroke="black" fill="green"/>
   </g>
   <g id="cell200">
  <circle cx="594.6" cy="531.969" r="7.29598" stroke-width="0.5" stroke="black" fill="cyan"/>
  <circle cx="594.6" cy="531.969" r="4.43491" stroke-width="0.5" stroke="black" fill="cyan"/>
   </g>
   <g id="cell201">
  <circle cx="395.162" cy="494.182" r="7.17425" stroke-width="0.5" stroke="black" fill="magenta"/>
  <circle cx="395.162" cy="494.182" r="4.37091" stroke-width="0.5" stroke="black" fill="magenta"/>
   </g>
   <g id="cell202">
  <circle cx="481.377" cy="592.835" r="6.97495" stroke-width="0.5" stroke="black" fill="green"/>
  <circle cx="481.377" cy="592.835" r="4.25369" stroke-width="0.5" stroke="black" fill="green"/>
   </g>
   <g id="cell203">
  <circle cx="544.462" cy="623.079" r="7.06428" stroke-width="0.5" stroke="black" fill="green"/>
  <circle cx="544.462" cy="623.079" r="4.29057" stroke-width="0.5" stroke="black" fill="green"/>
   </g>
   <g id="cell204">
  <circle cx="365.831" cy="468.111" r="7.05445" stroke-width="0.5" stroke="black" fill="magenta"/>
  <circle cx="365.831" cy="468.111" r="4.2777" stroke-width="0.5" stroke="black" fill="magenta"/>
   </g>
   <g id="cell205">
  <circle cx="511.975" cy="604.001" r="6.81889" stroke-width="0.5" stroke="black" fill="green"/>
  <circle cx="511.975" cy="604.001" r="4.12136" stroke-width="0.5" stroke="black" fill="green"/>
   </g>
   <g id="cell206">
  <circle cx="367.107" cy="555.54" r="6.78406" stroke-width="0.5" stroke="black" fill="magenta"/>
  <circle cx="367.107" cy="555.54" r="4.09802" stroke-width="0.5" stroke="black" fill="magenta"/>
   </g>
   <g id="cell207">
  <circle cx="387.511" cy="543.233" r="6.75347" stroke-width="0.5" stroke="black" fill="magenta"/>
  <circle cx="387.511" cy="543.233" r="4.0673" stroke-width="0.5" stroke="black" fill="magenta"/>
   </g>
   <g id="cell208">
  <circle cx="602.228" cy="482.57" r="6.62224" stroke-width="0.5" stroke="black" fill="green"/>
  <circle cx="602.228" cy="482.57" r="4.0026" stroke-width="0.5" stroke="black" fill="green"/>
   </g>
   <g id="cell209">
  <circle cx="453.254" cy="487.751" r="6.28915" stroke-width="0.5" stroke="black" fill="magenta"/>
  <circle cx="453.254" cy="487.751" r="3.82707" stroke-width="0.5" stroke="black" fill="magenta"/>
   </g>
  </g>
 </g>
  <rect x="775" y="1035" width="200" height="10" stroke-width="2" stroke="rgb(255,255,255)" fill="rgb(0,0,0)"/>
  <text x="781.25" y="1028.75"
   font-family="Arial" font-size="25" fill="black" >
   200 &#956;m
  </text>
  <text x="25" y="1045"
   font-family="Arial" font-size="18.75" fill="black" >
   0 days, 0 hours, 0 minutes, and 50.2294 seconds
  </text>
  <rect x="0" y="70" width="1000" height="1000" stroke-width="2" stroke="rgb(0,0,0)" fill="none"/>
</svg>
