<?xml version="1.0" encoding="UTF-8" standalone="no"?>
<!-- Created with PhysiCell (http://PhysiCell.MathCancer.org/) -->
<svg 
 xmlns:dc="http://purl.org/dc/elements/1.1/" 
 xmlns:cc="http://creativecommons.org/ns#" 
 xmlns:rdf="http://www.w3.org/1999/02/22-rdf-syntax-ns#" 
 xmlns:svg="http://www.w3.org/2000/svg" 
 xmlns="http://www.w3.org/2000/svg" 
 version="1.1" 
 width="1000" 
 height="1070" 
 id="svg2">
  <rect x="0" y="0" width="1000" height="1070" stroke-width="2" stroke="white" fill="white"/>
  <text x="12.5" y="30"
   font-family="Arial" font-size="25" fill="black" >
   Current time: 0 days, 4 hours, and 30.00 minutes, z = 0.00 &#956;m
  </text>
  <text x="12.5" y="57.5"
   font-family="Arial" font-size="23.75" fill="black" >
   87 agents
  </text>
 <g id="tissue" 
    transform="translate(0,1070) scale(1,-1)">
  <g id="ECM">
  </g>
  <g id="cells">
   <g id="cell0">
  <circle cx="521.391" cy="532.262" r="7.67987" stroke-width="0.5" stroke="black" fill="magenta"/>
  <circle cx="521.391" cy="532.262" r="4.66617" stroke-width="0.5" stroke="black" fill="magenta"/>
   </g>
   <g id="cell1">
  <circle cx="603.872" cy="529.339" r="8.41271" stroke-width="0.5" stroke="black" fill="magenta"/>
  <circle cx="603.872" cy="529.339" r="5.05167" stroke-width="0.5" stroke="black" fill="magenta"/>
   </g>
   <g id="cell2">
  <circle cx="510.885" cy="600.601" r="8.41271" stroke-width="0.5" stroke="black" fill="magenta"/>
  <circle cx="510.885" cy="600.601" r="5.05167" stroke-width="0.5" stroke="black" fill="magenta"/>
   </g>
   <g id="cell3">
  <circle cx="531.049" cy="543.479" r="8.41271" stroke-width="0.5" stroke="black" fill="magenta"/>
  <circle cx="531.049" cy="543.479" r="5.05167" stroke-width="0.5" stroke="black" fill="magenta"/>
   </g>
   <g id="cell4">
  <circle cx="474.243" cy="441.066" r="7.75912" stroke-width="0.5" stroke="black" fill="magenta"/>
  <circle cx="474.243" cy="441.066" r="4.71248" stroke-width="0.5" stroke="black" fill="magenta"/>
   </g>
   <g id="cell5">
  <circle cx="464.925" cy="493.292" r="8.41271" stroke-width="0.5" stroke="black" fill="magenta"/>
  <circle cx="464.925" cy="493.292" r="5.05167" stroke-width="0.5" stroke="black" fill="magenta"/>
   </g>
   <g id="cell6">
  <circle cx="594.087" cy="509.554" r="8.41271" stroke-width="0.5" stroke="black" fill="magenta"/>
  <circle cx="594.087" cy="509.554" r="5.05167" stroke-width="0.5" stroke="black" fill="magenta"/>
   </g>
   <g id="cell7">
  <circle cx="512.346" cy="464.867" r="8.41271" stroke-width="0.5" stroke="black" fill="magenta"/>
  <circle cx="512.346" cy="464.867" r="5.05167" stroke-width="0.5" stroke="black" fill="magenta"/>
   </g>
   <g id="cell8">
  <circle cx="375.905" cy="544.575" r="8.41271" stroke-width="0.5" stroke="black" fill="magenta"/>
  <circle cx="375.905" cy="544.575" r="5.05167" stroke-width="0.5" stroke="black" fill="magenta"/>
   </g>
   <g id="cell9">
  <circle cx="460.472" cy="599.786" r="8.41271" stroke-width="0.5" stroke="black" fill="magenta"/>
  <circle cx="460.472" cy="599.786" r="5.05167" stroke-width="0.5" stroke="black" fill="magenta"/>
   </g>
   <g id="cell10">
  <circle cx="583.447" cy="392.105" r="8.41271" stroke-width="0.5" stroke="black" fill="magenta"/>
  <circle cx="583.447" cy="392.105" r="5.05167" stroke-width="0.5" stroke="black" fill="magenta"/>
   </g>
   <g id="cell11">
  <circle cx="589.748" cy="590.273" r="8.41271" stroke-width="0.5" stroke="black" fill="magenta"/>
  <circle cx="589.748" cy="590.273" r="5.05167" stroke-width="0.5" stroke="black" fill="magenta"/>
   </g>
   <g id="cell12">
  <circle cx="506.664" cy="586.058" r="8.41271" stroke-width="0.5" stroke="black" fill="magenta"/>
  <circle cx="506.664" cy="586.058" r="5.05167" stroke-width="0.5" stroke="black" fill="magenta"/>
   </g>
   <g id="cell13">
  <circle cx="381.829" cy="563.753" r="6.69288" stroke-width="0.5" stroke="black" fill="magenta"/>
  <circle cx="381.829" cy="563.753" r="4.02051" stroke-width="0.5" stroke="black" fill="magenta"/>
   </g>
   <g id="cell14">
  <circle cx="527.225" cy="399.862" r="8.41271" stroke-width="0.5" stroke="black" fill="magenta"/>
  <circle cx="527.225" cy="399.862" r="5.05167" stroke-width="0.5" stroke="black" fill="magenta"/>
   </g>
   <g id="cell15">
  <circle cx="385.103" cy="477.805" r="7.72056" stroke-width="0.5" stroke="black" fill="magenta"/>
  <circle cx="385.103" cy="477.805" r="4.69003" stroke-width="0.5" stroke="black" fill="magenta"/>
   </g>
   <g id="cell16">
  <circle cx="428.96" cy="413.217" r="8.41271" stroke-width="0.5" stroke="black" fill="magenta"/>
  <circle cx="428.96" cy="413.217" r="5.05167" stroke-width="0.5" stroke="black" fill="magenta"/>
   </g>
   <g id="cell17">
  <circle cx="573.496" cy="489.747" r="8.41271" stroke-width="0.5" stroke="black" fill="magenta"/>
  <circle cx="573.496" cy="489.747" r="5.05167" stroke-width="0.5" stroke="black" fill="magenta"/>
   </g>
   <g id="cell18">
  <circle cx="513.549" cy="391.07" r="7.79564" stroke-width="0.5" stroke="black" fill="magenta"/>
  <circle cx="513.549" cy="391.07" r="4.73359" stroke-width="0.5" stroke="black" fill="magenta"/>
   </g>
   <g id="cell19">
  <circle cx="451.991" cy="536.582" r="8.41271" stroke-width="0.5" stroke="black" fill="magenta"/>
  <circle cx="451.991" cy="536.582" r="5.05167" stroke-width="0.5" stroke="black" fill="magenta"/>
   </g>
   <g id="cell20">
  <circle cx="530.794" cy="414.786" r="8.41271" stroke-width="0.5" stroke="black" fill="magenta"/>
  <circle cx="530.794" cy="414.786" r="5.05167" stroke-width="0.5" stroke="black" fill="magenta"/>
   </g>
   <g id="cell21">
  <circle cx="464.368" cy="634.574" r="8.41271" stroke-width="0.5" stroke="black" fill="magenta"/>
  <circle cx="464.368" cy="634.574" r="5.05167" stroke-width="0.5" stroke="black" fill="magenta"/>
   </g>
   <g id="cell22">
  <circle cx="559.581" cy="492.841" r="7.49456" stroke-width="0.5" stroke="black" fill="magenta"/>
  <circle cx="559.581" cy="492.841" r="4.55548" stroke-width="0.5" stroke="black" fill="magenta"/>
   </g>
   <g id="cell23">
  <circle cx="537.33" cy="481.813" r="8.41271" stroke-width="0.5" stroke="black" fill="magenta"/>
  <circle cx="537.33" cy="481.813" r="5.05167" stroke-width="0.5" stroke="black" fill="magenta"/>
   </g>
   <g id="cell24">
  <circle cx="559.288" cy="379.787" r="8.41271" stroke-width="0.5" stroke="black" fill="magenta"/>
  <circle cx="559.288" cy="379.787" r="5.05167" stroke-width="0.5" stroke="black" fill="magenta"/>
   </g>
   <g id="cell25">
  <circle cx="640.943" cy="550.03" r="8.41271" stroke-width="0.5" stroke="black" fill="green"/>
  <circle cx="640.943" cy="550.03" r="5.05167" stroke-width="0.5" stroke="black" fill="green"/>
   </g>
   <g id="cell26">
  <circle cx="550.641" cy="401.23" r="8.41271" stroke-width="0.5" stroke="black" fill="green"/>
  <circle cx="550.641" cy="401.23" r="5.05167" stroke-width="0.5" stroke="black" fill="green"/>
   </g>
   <g id="cell27">
  <circle cx="457.446" cy="388.678" r="8.41271" stroke-width="0.5" stroke="black" fill="green"/>
  <circle cx="457.446" cy="388.678" r="5.05167" stroke-width="0.5" stroke="black" fill="green"/>
   </g>
   <g id="cell28">
  <circle cx="437.415" cy="531.024" r="8.41271" stroke-width="0.5" stroke="black" fill="green"/>
  <circle cx="437.415" cy="531.024" r="5.05167" stroke-width="0.5" stroke="black" fill="green"/>
   </g>
   <g id="cell29">
  <circle cx="450.003" cy="521.109" r="8.41271" stroke-width="0.5" stroke="black" fill="green"/>
  <circle cx="450.003" cy="521.109" r="5.05167" stroke-width="0.5" stroke="black" fill="green"/>
   </g>
   <g id="cell30">
  <circle cx="481.58" cy="540.282" r="8.41271" stroke-width="0.5" stroke="black" fill="green"/>
  <circle cx="481.58" cy="540.282" r="5.05167" stroke-width="0.5" stroke="black" fill="green"/>
   </g>
   <g id="cell31">
  <circle cx="412.757" cy="541.193" r="8.41271" stroke-width="0.5" stroke="black" fill="green"/>
  <circle cx="412.757" cy="541.193" r="5.05167" stroke-width="0.5" stroke="black" fill="green"/>
   </g>
   <g id="cell32">
  <circle cx="428.792" cy="471.276" r="6.75639" stroke-width="0.5" stroke="black" fill="green"/>
  <circle cx="428.792" cy="471.276" r="4.06813" stroke-width="0.5" stroke="black" fill="green"/>
   </g>
   <g id="cell33">
  <circle cx="498.081" cy="415.478" r="6.89675" stroke-width="0.5" stroke="black" fill="green"/>
  <circle cx="498.081" cy="415.478" r="4.17024" stroke-width="0.5" stroke="black" fill="green"/>
   </g>
   <g id="cell34">
  <circle cx="392.828" cy="452.432" r="6.69288" stroke-width="0.5" stroke="black" fill="green"/>
  <circle cx="392.828" cy="452.432" r="4.02051" stroke-width="0.5" stroke="black" fill="green"/>
   </g>
   <g id="cell35">
  <circle cx="546.959" cy="545.014" r="8.41271" stroke-width="0.5" stroke="black" fill="green"/>
  <circle cx="546.959" cy="545.014" r="5.05167" stroke-width="0.5" stroke="black" fill="green"/>
   </g>
   <g id="cell36">
  <circle cx="391.407" cy="584.53" r="8.41271" stroke-width="0.5" stroke="black" fill="green"/>
  <circle cx="391.407" cy="584.53" r="5.05167" stroke-width="0.5" stroke="black" fill="green"/>
   </g>
   <g id="cell37">
  <circle cx="634.871" cy="460.618" r="8.41271" stroke-width="0.5" stroke="black" fill="green"/>
  <circle cx="634.871" cy="460.618" r="5.05167" stroke-width="0.5" stroke="black" fill="green"/>
   </g>
   <g id="cell38">
  <circle cx="536.152" cy="601.899" r="8.41271" stroke-width="0.5" stroke="black" fill="green"/>
  <circle cx="536.152" cy="601.899" r="5.05167" stroke-width="0.5" stroke="black" fill="green"/>
   </g>
   <g id="cell39">
  <circle cx="617.06" cy="493.987" r="7.63698" stroke-width="0.5" stroke="black" fill="green"/>
  <circle cx="617.06" cy="493.987" r="4.64085" stroke-width="0.5" stroke="black" fill="green"/>
   </g>
   <g id="cell40">
  <circle cx="485.348" cy="571.779" r="8.41271" stroke-width="0.5" stroke="black" fill="green"/>
  <circle cx="485.348" cy="571.779" r="5.05167" stroke-width="0.5" stroke="black" fill="green"/>
   </g>
   <g id="cell41">
  <circle cx="364.028" cy="480.093" r="8.41271" stroke-width="0.5" stroke="black" fill="green"/>
  <circle cx="364.028" cy="480.093" r="5.05167" stroke-width="0.5" stroke="black" fill="green"/>
   </g>
   <g id="cell42">
  <circle cx="444.455" cy="491.888" r="7.54436" stroke-width="0.5" stroke="black" fill="green"/>
  <circle cx="444.455" cy="491.888" r="4.58555" stroke-width="0.5" stroke="black" fill="green"/>
   </g>
   <g id="cell43">
  <circle cx="558.026" cy="445.573" r="8.41271" stroke-width="0.5" stroke="black" fill="green"/>
  <circle cx="558.026" cy="445.573" r="5.05167" stroke-width="0.5" stroke="black" fill="green"/>
   </g>
   <g id="cell44">
  <circle cx="475.857" cy="624.021" r="8.41271" stroke-width="0.5" stroke="black" fill="green"/>
  <circle cx="475.857" cy="624.021" r="5.05167" stroke-width="0.5" stroke="black" fill="green"/>
   </g>
   <g id="cell45">
  <circle cx="414.953" cy="557.066" r="8.41271" stroke-width="0.5" stroke="black" fill="green"/>
  <circle cx="414.953" cy="557.066" r="5.05167" stroke-width="0.5" stroke="black" fill="green"/>
   </g>
   <g id="cell46">
  <circle cx="522.767" cy="610.709" r="8.41271" stroke-width="0.5" stroke="black" fill="green"/>
  <circle cx="522.767" cy="610.709" r="5.05167" stroke-width="0.5" stroke="black" fill="green"/>
   </g>
   <g id="cell47">
  <circle cx="504.596" cy="508.261" r="8.41271" stroke-width="0.5" stroke="black" fill="green"/>
  <circle cx="504.596" cy="508.261" r="5.05167" stroke-width="0.5" stroke="black" fill="green"/>
   </g>
   <g id="cell48">
  <circle cx="564.51" cy="602.792" r="8.41271" stroke-width="0.5" stroke="black" fill="green"/>
  <circle cx="564.51" cy="602.792" r="5.05167" stroke-width="0.5" stroke="black" fill="green"/>
   </g>
   <g id="cell49">
  <circle cx="429.826" cy="397.641" r="8.41271" stroke-width="0.5" stroke="black" fill="green"/>
  <circle cx="429.826" cy="397.641" r="5.05167" stroke-width="0.5" stroke="black" fill="green"/>
   </g>
   <g id="cell50">
  <circle cx="518.013" cy="517.383" r="8.41271" stroke-width="0.5" stroke="black" fill="cyan"/>
  <circle cx="518.013" cy="517.383" r="5.05167" stroke-width="0.5" stroke="black" fill="cyan"/>
   </g>
   <g id="cell51">
  <circle cx="399.045" cy="597.787" r="8.41271" stroke-width="0.5" stroke="black" fill="cyan"/>
  <circle cx="399.045" cy="597.787" r="5.05167" stroke-width="0.5" stroke="black" fill="cyan"/>
   </g>
   <g id="cell52">
  <circle cx="522.918" cy="428.351" r="8.41271" stroke-width="0.5" stroke="black" fill="cyan"/>
  <circle cx="522.918" cy="428.351" r="5.05167" stroke-width="0.5" stroke="black" fill="cyan"/>
   </g>
   <g id="cell53">
  <circle cx="571.025" cy="436.198" r="8.41271" stroke-width="0.5" stroke="black" fill="cyan"/>
  <circle cx="571.025" cy="436.198" r="5.05167" stroke-width="0.5" stroke="black" fill="cyan"/>
   </g>
   <g id="cell54">
  <circle cx="479.158" cy="427.011" r="8.41271" stroke-width="0.5" stroke="black" fill="cyan"/>
  <circle cx="479.158" cy="427.011" r="5.05167" stroke-width="0.5" stroke="black" fill="cyan"/>
   </g>
   <g id="cell55">
  <circle cx="526.968" cy="470.243" r="8.41271" stroke-width="0.5" stroke="black" fill="cyan"/>
  <circle cx="526.968" cy="470.243" r="5.05167" stroke-width="0.5" stroke="black" fill="cyan"/>
   </g>
   <g id="cell56">
  <circle cx="617.783" cy="522.28" r="8.41271" stroke-width="0.5" stroke="black" fill="cyan"/>
  <circle cx="617.783" cy="522.28" r="5.05167" stroke-width="0.5" stroke="black" fill="cyan"/>
   </g>
   <g id="cell57">
  <circle cx="416.924" cy="617.466" r="8.41271" stroke-width="0.5" stroke="black" fill="cyan"/>
  <circle cx="416.924" cy="617.466" r="5.05167" stroke-width="0.5" stroke="black" fill="cyan"/>
   </g>
   <g id="cell58">
  <circle cx="552.792" cy="479.729" r="8.41271" stroke-width="0.5" stroke="black" fill="cyan"/>
  <circle cx="552.792" cy="479.729" r="5.05167" stroke-width="0.5" stroke="black" fill="cyan"/>
   </g>
   <g id="cell59">
  <circle cx="385.528" cy="439.908" r="8.41271" stroke-width="0.5" stroke="black" fill="cyan"/>
  <circle cx="385.528" cy="439.908" r="5.05167" stroke-width="0.5" stroke="black" fill="cyan"/>
   </g>
   <g id="cell60">
  <circle cx="593.71" cy="474.337" r="8.41271" stroke-width="0.5" stroke="black" fill="cyan"/>
  <circle cx="593.71" cy="474.337" r="5.05167" stroke-width="0.5" stroke="black" fill="cyan"/>
   </g>
   <g id="cell61">
  <circle cx="552.994" cy="613.936" r="8.41271" stroke-width="0.5" stroke="black" fill="cyan"/>
  <circle cx="552.994" cy="613.936" r="5.05167" stroke-width="0.5" stroke="black" fill="cyan"/>
   </g>
   <g id="cell62">
  <circle cx="526.153" cy="444.084" r="8.41271" stroke-width="0.5" stroke="black" fill="cyan"/>
  <circle cx="526.153" cy="444.084" r="5.05167" stroke-width="0.5" stroke="black" fill="cyan"/>
   </g>
   <g id="cell63">
  <circle cx="577.588" cy="546.512" r="8.41271" stroke-width="0.5" stroke="black" fill="cyan"/>
  <circle cx="577.588" cy="546.512" r="5.05167" stroke-width="0.5" stroke="black" fill="cyan"/>
   </g>
   <g id="cell64">
  <circle cx="509.962" cy="636.825" r="8.41271" stroke-width="0.5" stroke="black" fill="cyan"/>
  <circle cx="509.962" cy="636.825" r="5.05167" stroke-width="0.5" stroke="black" fill="cyan"/>
   </g>
   <g id="cell65">
  <circle cx="542.74" cy="467.211" r="8.41271" stroke-width="0.5" stroke="black" fill="cyan"/>
  <circle cx="542.74" cy="467.211" r="5.05167" stroke-width="0.5" stroke="black" fill="cyan"/>
   </g>
   <g id="cell66">
  <circle cx="535.942" cy="528.877" r="8.41271" stroke-width="0.5" stroke="black" fill="cyan"/>
  <circle cx="535.942" cy="528.877" r="5.05167" stroke-width="0.5" stroke="black" fill="cyan"/>
   </g>
   <g id="cell67">
  <circle cx="354.448" cy="492.912" r="8.41271" stroke-width="0.5" stroke="black" fill="cyan"/>
  <circle cx="354.448" cy="492.912" r="5.05167" stroke-width="0.5" stroke="black" fill="cyan"/>
   </g>
   <g id="cell68">
  <circle cx="562.173" cy="551.303" r="8.41271" stroke-width="0.5" stroke="black" fill="cyan"/>
  <circle cx="562.173" cy="551.303" r="5.05167" stroke-width="0.5" stroke="black" fill="cyan"/>
   </g>
   <g id="cell69">
  <circle cx="434.693" cy="458.952" r="7.81315" stroke-width="0.5" stroke="black" fill="cyan"/>
  <circle cx="434.693" cy="458.952" r="4.74367" stroke-width="0.5" stroke="black" fill="cyan"/>
   </g>
   <g id="cell70">
  <circle cx="577.565" cy="474.702" r="8.41271" stroke-width="0.5" stroke="black" fill="cyan"/>
  <circle cx="577.565" cy="474.702" r="5.05167" stroke-width="0.5" stroke="black" fill="cyan"/>
   </g>
   <g id="cell71">
  <circle cx="377.712" cy="520.989" r="8.41271" stroke-width="0.5" stroke="black" fill="cyan"/>
  <circle cx="377.712" cy="520.989" r="5.05167" stroke-width="0.5" stroke="black" fill="cyan"/>
   </g>
   <g id="cell72">
  <circle cx="533.435" cy="513.195" r="8.41271" stroke-width="0.5" stroke="black" fill="cyan"/>
  <circle cx="533.435" cy="513.195" r="5.05167" stroke-width="0.5" stroke="black" fill="cyan"/>
   </g>
   <g id="cell73">
  <circle cx="360.357" cy="545.935" r="8.41271" stroke-width="0.5" stroke="black" fill="cyan"/>
  <circle cx="360.357" cy="545.935" r="5.05167" stroke-width="0.5" stroke="black" fill="cyan"/>
   </g>
   <g id="cell74">
  <circle cx="542.018" cy="446.395" r="8.41271" stroke-width="0.5" stroke="black" fill="cyan"/>
  <circle cx="542.018" cy="446.395" r="5.05167" stroke-width="0.5" stroke="black" fill="cyan"/>
   </g>
   <g id="cell75">
  <circle cx="442.455" cy="472.469" r="7.81315" stroke-width="0.5" stroke="black" fill="cyan"/>
  <circle cx="442.455" cy="472.469" r="4.74367" stroke-width="0.5" stroke="black" fill="cyan"/>
   </g>
   <g id="cell76">
  <circle cx="526.215" cy="385.393" r="7.79564" stroke-width="0.5" stroke="black" fill="magenta"/>
  <circle cx="526.215" cy="385.393" r="4.73359" stroke-width="0.5" stroke="black" fill="magenta"/>
   </g>
   <g id="cell77">
  <circle cx="488.031" cy="439.719" r="7.75912" stroke-width="0.5" stroke="black" fill="magenta"/>
  <circle cx="488.031" cy="439.719" r="4.71248" stroke-width="0.5" stroke="black" fill="magenta"/>
   </g>
   <g id="cell78">
  <circle cx="374.232" cy="469.174" r="7.72056" stroke-width="0.5" stroke="black" fill="magenta"/>
  <circle cx="374.232" cy="469.174" r="4.69003" stroke-width="0.5" stroke="black" fill="magenta"/>
   </g>
   <g id="cell79">
  <circle cx="508.043" cy="528.295" r="7.67987" stroke-width="0.5" stroke="black" fill="magenta"/>
  <circle cx="508.043" cy="528.295" r="4.66617" stroke-width="0.5" stroke="black" fill="magenta"/>
   </g>
   <g id="cell80">
  <circle cx="606.328" cy="484.025" r="7.63698" stroke-width="0.5" stroke="black" fill="green"/>
  <circle cx="606.328" cy="484.025" r="4.64085" stroke-width="0.5" stroke="black" fill="green"/>
   </g>
   <g id="cell81">
  <circle cx="431.282" cy="497.547" r="7.54436" stroke-width="0.5" stroke="black" fill="green"/>
  <circle cx="431.282" cy="497.547" r="4.58555" stroke-width="0.5" stroke="black" fill="green"/>
   </g>
   <g id="cell82">
  <circle cx="546.169" cy="492.978" r="7.49456" stroke-width="0.5" stroke="black" fill="magenta"/>
  <circle cx="546.169" cy="492.978" r="4.55548" stroke-width="0.5" stroke="black" fill="magenta"/>
   </g>
   <g id="cell83">
  <circle cx="493.535" cy="427.55" r="6.89675" stroke-width="0.5" stroke="black" fill="green"/>
  <circle cx="493.535" cy="427.55" r="4.17024" stroke-width="0.5" stroke="black" fill="green"/>
   </g>
   <g id="cell84">
  <circle cx="419.82" cy="480.057" r="6.75639" stroke-width="0.5" stroke="black" fill="green"/>
  <circle cx="419.82" cy="480.057" r="4.06813" stroke-width="0.5" stroke="black" fill="green"/>
   </g>
   <g id="cell85">
  <circle cx="404.482" cy="447.819" r="6.69288" stroke-width="0.5" stroke="black" fill="green"/>
  <circle cx="404.482" cy="447.819" r="4.02051" stroke-width="0.5" stroke="black" fill="green"/>
   </g>
   <g id="cell86">
  <circle cx="390.959" cy="571.149" r="6.69288" stroke-width="0.5" stroke="black" fill="magenta"/>
  <circle cx="390.959" cy="571.149" r="4.02051" stroke-width="0.5" stroke="black" fill="magenta"/>
   </g>
  </g>
 </g>
  <rect x="775" y="1035" width="200" height="10" stroke-width="2" stroke="rgb(255,255,255)" fill="rgb(0,0,0)"/>
  <text x="781.25" y="1028.75"
   font-family="Arial" font-size="25" fill="black" >
   200 &#956;m
  </text>
  <text x="25" y="1045"
   font-family="Arial" font-size="18.75" fill="black" >
   0 days, 0 hours, 0 minutes, and 5.9198 seconds
  </text>
  <rect x="0" y="70" width="1000" height="1000" stroke-width="2" stroke="rgb(0,0,0)" fill="none"/>
</svg>
