<?xml version="1.0" encoding="UTF-8" standalone="no"?>
<!-- Created with PhysiCell (http://PhysiCell.MathCancer.org/) -->
<svg 
 xmlns:dc="http://purl.org/dc/elements/1.1/" 
 xmlns:cc="http://creativecommons.org/ns#" 
 xmlns:rdf="http://www.w3.org/1999/02/22-rdf-syntax-ns#" 
 xmlns:svg="http://www.w3.org/2000/svg" 
 xmlns="http://www.w3.org/2000/svg" 
 version="1.1" 
 width="1000" 
 height="1070" 
 id="svg2">
  <rect x="0" y="0" width="1000" height="1070" stroke-width="2" stroke="white" fill="white"/>
  <text x="12.5" y="30"
   font-family="Arial" font-size="25" fill="black" >
   Current time: 0 days, 5 hours, and 30.00 minutes, z = 0.00 &#956;m
  </text>
  <text x="12.5" y="57.5"
   font-family="Arial" font-size="23.75" fill="black" >
   92 agents
  </text>
 <g id="tissue" 
    transform="translate(0,1070) scale(1,-1)">
  <g id="ECM">
  </g>
  <g id="cells">
   <g id="cell0">
  <circle cx="521.556" cy="532.26" r="7.86286" stroke-width="0.5" stroke="black" fill="magenta"/>
  <circle cx="521.556" cy="532.26" r="4.77207" stroke-width="0.5" stroke="black" fill="magenta"/>
   </g>
   <g id="cell1">
  <circle cx="602.966" cy="527.378" r="8.41271" stroke-width="0.5" stroke="black" fill="magenta"/>
  <circle cx="602.966" cy="527.378" r="5.05167" stroke-width="0.5" stroke="black" fill="magenta"/>
   </g>
   <g id="cell2">
  <circle cx="510.885" cy="600.601" r="8.41271" stroke-width="0.5" stroke="black" fill="magenta"/>
  <circle cx="510.885" cy="600.601" r="5.05167" stroke-width="0.5" stroke="black" fill="magenta"/>
   </g>
   <g id="cell3">
  <circle cx="531.134" cy="543.413" r="8.41271" stroke-width="0.5" stroke="black" fill="magenta"/>
  <circle cx="531.134" cy="543.413" r="5.05167" stroke-width="0.5" stroke="black" fill="magenta"/>
   </g>
   <g id="cell4">
  <circle cx="473.62" cy="441.371" r="7.9229" stroke-width="0.5" stroke="black" fill="magenta"/>
  <circle cx="473.62" cy="441.371" r="4.80599" stroke-width="0.5" stroke="black" fill="magenta"/>
   </g>
   <g id="cell5">
  <circle cx="463.994" cy="493.077" r="8.41271" stroke-width="0.5" stroke="black" fill="magenta"/>
  <circle cx="463.994" cy="493.077" r="5.05167" stroke-width="0.5" stroke="black" fill="magenta"/>
   </g>
   <g id="cell6">
  <circle cx="596.842" cy="514.694" r="6.78181" stroke-width="0.5" stroke="black" fill="magenta"/>
  <circle cx="596.842" cy="514.694" r="4.08714" stroke-width="0.5" stroke="black" fill="magenta"/>
   </g>
   <g id="cell7">
  <circle cx="512.259" cy="464.836" r="8.41271" stroke-width="0.5" stroke="black" fill="magenta"/>
  <circle cx="512.259" cy="464.836" r="5.05167" stroke-width="0.5" stroke="black" fill="magenta"/>
   </g>
   <g id="cell8">
  <circle cx="376.12" cy="545.651" r="8.41271" stroke-width="0.5" stroke="black" fill="magenta"/>
  <circle cx="376.12" cy="545.651" r="5.05167" stroke-width="0.5" stroke="black" fill="magenta"/>
   </g>
   <g id="cell9">
  <circle cx="464.437" cy="600.935" r="6.73287" stroke-width="0.5" stroke="black" fill="magenta"/>
  <circle cx="464.437" cy="600.935" r="4.05039" stroke-width="0.5" stroke="black" fill="magenta"/>
   </g>
   <g id="cell10">
  <circle cx="583.447" cy="392.105" r="8.41271" stroke-width="0.5" stroke="black" fill="magenta"/>
  <circle cx="583.447" cy="392.105" r="5.05167" stroke-width="0.5" stroke="black" fill="magenta"/>
   </g>
   <g id="cell11">
  <circle cx="589.748" cy="590.273" r="8.41271" stroke-width="0.5" stroke="black" fill="magenta"/>
  <circle cx="589.748" cy="590.273" r="5.05167" stroke-width="0.5" stroke="black" fill="magenta"/>
   </g>
   <g id="cell12">
  <circle cx="506.664" cy="586.058" r="8.41271" stroke-width="0.5" stroke="black" fill="magenta"/>
  <circle cx="506.664" cy="586.058" r="5.05167" stroke-width="0.5" stroke="black" fill="magenta"/>
   </g>
   <g id="cell13">
  <circle cx="381.324" cy="562.541" r="6.95901" stroke-width="0.5" stroke="black" fill="magenta"/>
  <circle cx="381.324" cy="562.541" r="4.21341" stroke-width="0.5" stroke="black" fill="magenta"/>
   </g>
   <g id="cell14">
  <circle cx="526.444" cy="399.866" r="8.41271" stroke-width="0.5" stroke="black" fill="magenta"/>
  <circle cx="526.444" cy="399.866" r="5.05167" stroke-width="0.5" stroke="black" fill="magenta"/>
   </g>
   <g id="cell15">
  <circle cx="385.184" cy="477.926" r="7.89373" stroke-width="0.5" stroke="black" fill="magenta"/>
  <circle cx="385.184" cy="477.926" r="4.78957" stroke-width="0.5" stroke="black" fill="magenta"/>
   </g>
   <g id="cell16">
  <circle cx="428.96" cy="413.217" r="8.41271" stroke-width="0.5" stroke="black" fill="magenta"/>
  <circle cx="428.96" cy="413.217" r="5.05167" stroke-width="0.5" stroke="black" fill="magenta"/>
   </g>
   <g id="cell17">
  <circle cx="573.906" cy="489.741" r="8.41271" stroke-width="0.5" stroke="black" fill="magenta"/>
  <circle cx="573.906" cy="489.741" r="5.05167" stroke-width="0.5" stroke="black" fill="magenta"/>
   </g>
   <g id="cell18">
  <circle cx="514.052" cy="391.9" r="7.95045" stroke-width="0.5" stroke="black" fill="magenta"/>
  <circle cx="514.052" cy="391.9" r="4.82139" stroke-width="0.5" stroke="black" fill="magenta"/>
   </g>
   <g id="cell19">
  <circle cx="451.874" cy="535.441" r="8.41271" stroke-width="0.5" stroke="black" fill="magenta"/>
  <circle cx="451.874" cy="535.441" r="5.05167" stroke-width="0.5" stroke="black" fill="magenta"/>
   </g>
   <g id="cell20">
  <circle cx="530.496" cy="414.468" r="8.41271" stroke-width="0.5" stroke="black" fill="magenta"/>
  <circle cx="530.496" cy="414.468" r="5.05167" stroke-width="0.5" stroke="black" fill="magenta"/>
   </g>
   <g id="cell21">
  <circle cx="463.199" cy="635.326" r="8.41271" stroke-width="0.5" stroke="black" fill="magenta"/>
  <circle cx="463.199" cy="635.326" r="5.05167" stroke-width="0.5" stroke="black" fill="magenta"/>
   </g>
   <g id="cell22">
  <circle cx="559.792" cy="492.953" r="7.72056" stroke-width="0.5" stroke="black" fill="magenta"/>
  <circle cx="559.792" cy="492.953" r="4.69003" stroke-width="0.5" stroke="black" fill="magenta"/>
   </g>
   <g id="cell23">
  <circle cx="537.181" cy="481.737" r="8.41271" stroke-width="0.5" stroke="black" fill="magenta"/>
  <circle cx="537.181" cy="481.737" r="5.05167" stroke-width="0.5" stroke="black" fill="magenta"/>
   </g>
   <g id="cell24">
  <circle cx="559.288" cy="379.787" r="8.41271" stroke-width="0.5" stroke="black" fill="magenta"/>
  <circle cx="559.288" cy="379.787" r="5.05167" stroke-width="0.5" stroke="black" fill="magenta"/>
   </g>
   <g id="cell25">
  <circle cx="640.943" cy="550.03" r="8.41271" stroke-width="0.5" stroke="black" fill="green"/>
  <circle cx="640.943" cy="550.03" r="5.05167" stroke-width="0.5" stroke="black" fill="green"/>
   </g>
   <g id="cell26">
  <circle cx="550.641" cy="401.23" r="8.41271" stroke-width="0.5" stroke="black" fill="green"/>
  <circle cx="550.641" cy="401.23" r="5.05167" stroke-width="0.5" stroke="black" fill="green"/>
   </g>
   <g id="cell27">
  <circle cx="457.446" cy="388.678" r="8.41271" stroke-width="0.5" stroke="black" fill="green"/>
  <circle cx="457.446" cy="388.678" r="5.05167" stroke-width="0.5" stroke="black" fill="green"/>
   </g>
   <g id="cell28">
  <circle cx="436.463" cy="533.22" r="8.41271" stroke-width="0.5" stroke="black" fill="green"/>
  <circle cx="436.463" cy="533.22" r="5.05167" stroke-width="0.5" stroke="black" fill="green"/>
   </g>
   <g id="cell29">
  <circle cx="454.927" cy="521.653" r="6.89675" stroke-width="0.5" stroke="black" fill="green"/>
  <circle cx="454.927" cy="521.653" r="4.17024" stroke-width="0.5" stroke="black" fill="green"/>
   </g>
   <g id="cell30">
  <circle cx="481.58" cy="540.282" r="8.41271" stroke-width="0.5" stroke="black" fill="green"/>
  <circle cx="481.58" cy="540.282" r="5.05167" stroke-width="0.5" stroke="black" fill="green"/>
   </g>
   <g id="cell31">
  <circle cx="412.757" cy="541.193" r="8.41271" stroke-width="0.5" stroke="black" fill="green"/>
  <circle cx="412.757" cy="541.193" r="5.05167" stroke-width="0.5" stroke="black" fill="green"/>
   </g>
   <g id="cell32">
  <circle cx="428.552" cy="471.249" r="7.0545" stroke-width="0.5" stroke="black" fill="green"/>
  <circle cx="428.552" cy="471.249" r="4.27772" stroke-width="0.5" stroke="black" fill="green"/>
   </g>
   <g id="cell33">
  <circle cx="498.372" cy="414.656" r="7.21189" stroke-width="0.5" stroke="black" fill="green"/>
  <circle cx="498.372" cy="414.656" r="4.37993" stroke-width="0.5" stroke="black" fill="green"/>
   </g>
   <g id="cell34">
  <circle cx="392.551" cy="452.624" r="6.95901" stroke-width="0.5" stroke="black" fill="green"/>
  <circle cx="392.551" cy="452.624" r="4.21341" stroke-width="0.5" stroke="black" fill="green"/>
   </g>
   <g id="cell35">
  <circle cx="546.734" cy="545.075" r="8.41271" stroke-width="0.5" stroke="black" fill="green"/>
  <circle cx="546.734" cy="545.075" r="5.05167" stroke-width="0.5" stroke="black" fill="green"/>
   </g>
   <g id="cell36">
  <circle cx="391.056" cy="584.744" r="8.41271" stroke-width="0.5" stroke="black" fill="green"/>
  <circle cx="391.056" cy="584.744" r="5.05167" stroke-width="0.5" stroke="black" fill="green"/>
   </g>
   <g id="cell37">
  <circle cx="634.871" cy="460.618" r="8.41271" stroke-width="0.5" stroke="black" fill="green"/>
  <circle cx="634.871" cy="460.618" r="5.05167" stroke-width="0.5" stroke="black" fill="green"/>
   </g>
   <g id="cell38">
  <circle cx="536.156" cy="601.903" r="8.41271" stroke-width="0.5" stroke="black" fill="green"/>
  <circle cx="536.156" cy="601.903" r="5.05167" stroke-width="0.5" stroke="black" fill="green"/>
   </g>
   <g id="cell39">
  <circle cx="617.024" cy="493.953" r="7.83019" stroke-width="0.5" stroke="black" fill="green"/>
  <circle cx="617.024" cy="493.953" r="4.75343" stroke-width="0.5" stroke="black" fill="green"/>
   </g>
   <g id="cell40">
  <circle cx="485.348" cy="571.779" r="8.41271" stroke-width="0.5" stroke="black" fill="green"/>
  <circle cx="485.348" cy="571.779" r="5.05167" stroke-width="0.5" stroke="black" fill="green"/>
   </g>
   <g id="cell41">
  <circle cx="364.028" cy="480.146" r="8.41271" stroke-width="0.5" stroke="black" fill="green"/>
  <circle cx="364.028" cy="480.146" r="5.05167" stroke-width="0.5" stroke="black" fill="green"/>
   </g>
   <g id="cell42">
  <circle cx="450.823" cy="489.693" r="6.34527" stroke-width="0.5" stroke="black" fill="green"/>
  <circle cx="450.823" cy="489.693" r="3.87265" stroke-width="0.5" stroke="black" fill="green"/>
   </g>
   <g id="cell43">
  <circle cx="558.015" cy="445.569" r="8.41271" stroke-width="0.5" stroke="black" fill="green"/>
  <circle cx="558.015" cy="445.569" r="5.05167" stroke-width="0.5" stroke="black" fill="green"/>
   </g>
   <g id="cell44">
  <circle cx="475.326" cy="628.135" r="6.86652" stroke-width="0.5" stroke="black" fill="green"/>
  <circle cx="475.326" cy="628.135" r="4.14883" stroke-width="0.5" stroke="black" fill="green"/>
   </g>
   <g id="cell45">
  <circle cx="414.953" cy="557.066" r="8.41271" stroke-width="0.5" stroke="black" fill="green"/>
  <circle cx="414.953" cy="557.066" r="5.05167" stroke-width="0.5" stroke="black" fill="green"/>
   </g>
   <g id="cell46">
  <circle cx="522.768" cy="610.708" r="8.41271" stroke-width="0.5" stroke="black" fill="green"/>
  <circle cx="522.768" cy="610.708" r="5.05167" stroke-width="0.5" stroke="black" fill="green"/>
   </g>
   <g id="cell47">
  <circle cx="504.826" cy="508.622" r="8.41271" stroke-width="0.5" stroke="black" fill="green"/>
  <circle cx="504.826" cy="508.622" r="5.05167" stroke-width="0.5" stroke="black" fill="green"/>
   </g>
   <g id="cell48">
  <circle cx="564.51" cy="602.793" r="8.41271" stroke-width="0.5" stroke="black" fill="green"/>
  <circle cx="564.51" cy="602.793" r="5.05167" stroke-width="0.5" stroke="black" fill="green"/>
   </g>
   <g id="cell49">
  <circle cx="429.826" cy="397.641" r="8.41271" stroke-width="0.5" stroke="black" fill="green"/>
  <circle cx="429.826" cy="397.641" r="5.05167" stroke-width="0.5" stroke="black" fill="green"/>
   </g>
   <g id="cell50">
  <circle cx="518.173" cy="517.497" r="8.41271" stroke-width="0.5" stroke="black" fill="cyan"/>
  <circle cx="518.173" cy="517.497" r="5.05167" stroke-width="0.5" stroke="black" fill="cyan"/>
   </g>
   <g id="cell51">
  <circle cx="399.403" cy="598.391" r="8.41271" stroke-width="0.5" stroke="black" fill="cyan"/>
  <circle cx="399.403" cy="598.391" r="5.05167" stroke-width="0.5" stroke="black" fill="cyan"/>
   </g>
   <g id="cell52">
  <circle cx="523.086" cy="428.216" r="8.41271" stroke-width="0.5" stroke="black" fill="cyan"/>
  <circle cx="523.086" cy="428.216" r="5.05167" stroke-width="0.5" stroke="black" fill="cyan"/>
   </g>
   <g id="cell53">
  <circle cx="571.019" cy="436.202" r="8.41271" stroke-width="0.5" stroke="black" fill="cyan"/>
  <circle cx="571.019" cy="436.202" r="5.05167" stroke-width="0.5" stroke="black" fill="cyan"/>
   </g>
   <g id="cell54">
  <circle cx="479.236" cy="427.319" r="8.41271" stroke-width="0.5" stroke="black" fill="cyan"/>
  <circle cx="479.236" cy="427.319" r="5.05167" stroke-width="0.5" stroke="black" fill="cyan"/>
   </g>
   <g id="cell55">
  <circle cx="526.945" cy="470.041" r="8.41271" stroke-width="0.5" stroke="black" fill="cyan"/>
  <circle cx="526.945" cy="470.041" r="5.05167" stroke-width="0.5" stroke="black" fill="cyan"/>
   </g>
   <g id="cell56">
  <circle cx="617.751" cy="522.292" r="8.41271" stroke-width="0.5" stroke="black" fill="cyan"/>
  <circle cx="617.751" cy="522.292" r="5.05167" stroke-width="0.5" stroke="black" fill="cyan"/>
   </g>
   <g id="cell57">
  <circle cx="416.924" cy="617.466" r="8.41271" stroke-width="0.5" stroke="black" fill="cyan"/>
  <circle cx="416.924" cy="617.466" r="5.05167" stroke-width="0.5" stroke="black" fill="cyan"/>
   </g>
   <g id="cell58">
  <circle cx="552.657" cy="479.794" r="8.41271" stroke-width="0.5" stroke="black" fill="cyan"/>
  <circle cx="552.657" cy="479.794" r="5.05167" stroke-width="0.5" stroke="black" fill="cyan"/>
   </g>
   <g id="cell59">
  <circle cx="385.491" cy="439.841" r="8.41271" stroke-width="0.5" stroke="black" fill="cyan"/>
  <circle cx="385.491" cy="439.841" r="5.05167" stroke-width="0.5" stroke="black" fill="cyan"/>
   </g>
   <g id="cell60">
  <circle cx="593.788" cy="474.541" r="8.41271" stroke-width="0.5" stroke="black" fill="cyan"/>
  <circle cx="593.788" cy="474.541" r="5.05167" stroke-width="0.5" stroke="black" fill="cyan"/>
   </g>
   <g id="cell61">
  <circle cx="552.99" cy="613.932" r="8.41271" stroke-width="0.5" stroke="black" fill="cyan"/>
  <circle cx="552.99" cy="613.932" r="5.05167" stroke-width="0.5" stroke="black" fill="cyan"/>
   </g>
   <g id="cell62">
  <circle cx="526.158" cy="443.965" r="8.41271" stroke-width="0.5" stroke="black" fill="cyan"/>
  <circle cx="526.158" cy="443.965" r="5.05167" stroke-width="0.5" stroke="black" fill="cyan"/>
   </g>
   <g id="cell63">
  <circle cx="577.315" cy="546.593" r="8.41271" stroke-width="0.5" stroke="black" fill="cyan"/>
  <circle cx="577.315" cy="546.593" r="5.05167" stroke-width="0.5" stroke="black" fill="cyan"/>
   </g>
   <g id="cell64">
  <circle cx="509.962" cy="636.825" r="8.41271" stroke-width="0.5" stroke="black" fill="cyan"/>
  <circle cx="509.962" cy="636.825" r="5.05167" stroke-width="0.5" stroke="black" fill="cyan"/>
   </g>
   <g id="cell65">
  <circle cx="542.737" cy="467.181" r="8.41271" stroke-width="0.5" stroke="black" fill="cyan"/>
  <circle cx="542.737" cy="467.181" r="5.05167" stroke-width="0.5" stroke="black" fill="cyan"/>
   </g>
   <g id="cell66">
  <circle cx="536.235" cy="528.721" r="8.41271" stroke-width="0.5" stroke="black" fill="cyan"/>
  <circle cx="536.235" cy="528.721" r="5.05167" stroke-width="0.5" stroke="black" fill="cyan"/>
   </g>
   <g id="cell67">
  <circle cx="354.418" cy="492.952" r="8.41271" stroke-width="0.5" stroke="black" fill="cyan"/>
  <circle cx="354.418" cy="492.952" r="5.05167" stroke-width="0.5" stroke="black" fill="cyan"/>
   </g>
   <g id="cell68">
  <circle cx="561.819" cy="550.97" r="8.41271" stroke-width="0.5" stroke="black" fill="cyan"/>
  <circle cx="561.819" cy="550.97" r="5.05167" stroke-width="0.5" stroke="black" fill="cyan"/>
   </g>
   <g id="cell69">
  <circle cx="435.277" cy="458.771" r="7.96365" stroke-width="0.5" stroke="black" fill="cyan"/>
  <circle cx="435.277" cy="458.771" r="4.82873" stroke-width="0.5" stroke="black" fill="cyan"/>
   </g>
   <g id="cell70">
  <circle cx="577.766" cy="474.641" r="8.41271" stroke-width="0.5" stroke="black" fill="cyan"/>
  <circle cx="577.766" cy="474.641" r="5.05167" stroke-width="0.5" stroke="black" fill="cyan"/>
   </g>
   <g id="cell71">
  <circle cx="377.712" cy="520.989" r="8.41271" stroke-width="0.5" stroke="black" fill="cyan"/>
  <circle cx="377.712" cy="520.989" r="5.05167" stroke-width="0.5" stroke="black" fill="cyan"/>
   </g>
   <g id="cell72">
  <circle cx="533.501" cy="512.952" r="8.41271" stroke-width="0.5" stroke="black" fill="cyan"/>
  <circle cx="533.501" cy="512.952" r="5.05167" stroke-width="0.5" stroke="black" fill="cyan"/>
   </g>
   <g id="cell73">
  <circle cx="360.467" cy="545.93" r="8.41271" stroke-width="0.5" stroke="black" fill="cyan"/>
  <circle cx="360.467" cy="545.93" r="5.05167" stroke-width="0.5" stroke="black" fill="cyan"/>
   </g>
   <g id="cell74">
  <circle cx="542.006" cy="446.392" r="8.41271" stroke-width="0.5" stroke="black" fill="cyan"/>
  <circle cx="542.006" cy="446.392" r="5.05167" stroke-width="0.5" stroke="black" fill="cyan"/>
   </g>
   <g id="cell75">
  <circle cx="442.739" cy="472.053" r="7.96365" stroke-width="0.5" stroke="black" fill="cyan"/>
  <circle cx="442.739" cy="472.053" r="4.82873" stroke-width="0.5" stroke="black" fill="cyan"/>
   </g>
   <g id="cell76">
  <circle cx="526.648" cy="385.134" r="7.95045" stroke-width="0.5" stroke="black" fill="magenta"/>
  <circle cx="526.648" cy="385.134" r="4.82139" stroke-width="0.5" stroke="black" fill="magenta"/>
   </g>
   <g id="cell77">
  <circle cx="487.762" cy="439.939" r="7.9229" stroke-width="0.5" stroke="black" fill="magenta"/>
  <circle cx="487.762" cy="439.939" r="4.80599" stroke-width="0.5" stroke="black" fill="magenta"/>
   </g>
   <g id="cell78">
  <circle cx="374.181" cy="468.96" r="7.89373" stroke-width="0.5" stroke="black" fill="magenta"/>
  <circle cx="374.181" cy="468.96" r="4.78957" stroke-width="0.5" stroke="black" fill="magenta"/>
   </g>
   <g id="cell79">
  <circle cx="507.896" cy="528.478" r="7.86286" stroke-width="0.5" stroke="black" fill="magenta"/>
  <circle cx="507.896" cy="528.478" r="4.77207" stroke-width="0.5" stroke="black" fill="magenta"/>
   </g>
   <g id="cell80">
  <circle cx="606.101" cy="483.857" r="7.83019" stroke-width="0.5" stroke="black" fill="green"/>
  <circle cx="606.101" cy="483.857" r="4.75343" stroke-width="0.5" stroke="black" fill="green"/>
   </g>
   <g id="cell81">
  <circle cx="427.398" cy="499.139" r="7.75912" stroke-width="0.5" stroke="black" fill="green"/>
  <circle cx="427.398" cy="499.139" r="4.71248" stroke-width="0.5" stroke="black" fill="green"/>
   </g>
   <g id="cell82">
  <circle cx="545.959" cy="493.227" r="7.72056" stroke-width="0.5" stroke="black" fill="magenta"/>
  <circle cx="545.959" cy="493.227" r="4.69003" stroke-width="0.5" stroke="black" fill="magenta"/>
   </g>
   <g id="cell83">
  <circle cx="494.058" cy="427.538" r="7.21189" stroke-width="0.5" stroke="black" fill="green"/>
  <circle cx="494.058" cy="427.538" r="4.37993" stroke-width="0.5" stroke="black" fill="green"/>
   </g>
   <g id="cell84">
  <circle cx="419.193" cy="480.68" r="7.0545" stroke-width="0.5" stroke="black" fill="green"/>
  <circle cx="419.193" cy="480.68" r="4.27772" stroke-width="0.5" stroke="black" fill="green"/>
   </g>
   <g id="cell85">
  <circle cx="404.796" cy="447.694" r="6.95901" stroke-width="0.5" stroke="black" fill="green"/>
  <circle cx="404.796" cy="447.694" r="4.21341" stroke-width="0.5" stroke="black" fill="green"/>
   </g>
   <g id="cell86">
  <circle cx="391.132" cy="570.473" r="6.95901" stroke-width="0.5" stroke="black" fill="magenta"/>
  <circle cx="391.132" cy="570.473" r="4.21341" stroke-width="0.5" stroke="black" fill="magenta"/>
   </g>
   <g id="cell87">
  <circle cx="442.017" cy="519.829" r="6.89675" stroke-width="0.5" stroke="black" fill="green"/>
  <circle cx="442.017" cy="519.829" r="4.17024" stroke-width="0.5" stroke="black" fill="green"/>
   </g>
   <g id="cell88">
  <circle cx="478.837" cy="615.614" r="6.86652" stroke-width="0.5" stroke="black" fill="green"/>
  <circle cx="478.837" cy="615.614" r="4.14883" stroke-width="0.5" stroke="black" fill="green"/>
   </g>
   <g id="cell89">
  <circle cx="439.724" cy="494.135" r="6.34527" stroke-width="0.5" stroke="black" fill="green"/>
  <circle cx="439.724" cy="494.135" r="3.87265" stroke-width="0.5" stroke="black" fill="green"/>
   </g>
   <g id="cell90">
  <circle cx="590.795" cy="503.83" r="6.78181" stroke-width="0.5" stroke="black" fill="magenta"/>
  <circle cx="590.795" cy="503.83" r="4.08714" stroke-width="0.5" stroke="black" fill="magenta"/>
   </g>
   <g id="cell91">
  <circle cx="452.807" cy="597.564" r="6.73287" stroke-width="0.5" stroke="black" fill="magenta"/>
  <circle cx="452.807" cy="597.564" r="4.05039" stroke-width="0.5" stroke="black" fill="magenta"/>
   </g>
  </g>
 </g>
  <rect x="775" y="1035" width="200" height="10" stroke-width="2" stroke="rgb(255,255,255)" fill="rgb(0,0,0)"/>
  <text x="781.25" y="1028.75"
   font-family="Arial" font-size="25" fill="black" >
   200 &#956;m
  </text>
  <text x="25" y="1045"
   font-family="Arial" font-size="18.75" fill="black" >
   0 days, 0 hours, 0 minutes, and 7.2135 seconds
  </text>
  <rect x="0" y="70" width="1000" height="1000" stroke-width="2" stroke="rgb(0,0,0)" fill="none"/>
</svg>
