<?xml version="1.0" encoding="UTF-8" standalone="no"?>
<!-- Created with PhysiCell (http://PhysiCell.MathCancer.org/) -->
<svg 
 xmlns:dc="http://purl.org/dc/elements/1.1/" 
 xmlns:cc="http://creativecommons.org/ns#" 
 xmlns:rdf="http://www.w3.org/1999/02/22-rdf-syntax-ns#" 
 xmlns:svg="http://www.w3.org/2000/svg" 
 xmlns="http://www.w3.org/2000/svg" 
 version="1.1" 
 width="1000" 
 height="1070" 
 id="svg2">
  <rect x="0" y="0" width="1000" height="1070" stroke-width="2" stroke="white" fill="white"/>
  <text x="12.5" y="30"
   font-family="Arial" font-size="25" fill="black" >
   Current time: 1 days, 10 hours, and 0.00 minutes, z = 0.00 &#956;m
  </text>
  <text x="12.5" y="57.5"
   font-family="Arial" font-size="23.75" fill="black" >
   186 agents
  </text>
 <g id="tissue" 
    transform="translate(0,1070) scale(1,-1)">
  <g id="ECM">
  </g>
  <g id="cells">
   <g id="cell0">
  <circle cx="511.091" cy="534.229" r="8.41253" stroke-width="0.5" stroke="black" fill="magenta"/>
  <circle cx="511.091" cy="534.229" r="5.05163" stroke-width="0.5" stroke="black" fill="magenta"/>
   </g>
   <g id="cell147">
  <circle cx="422.161" cy="575.533" r="8.31699" stroke-width="0.5" stroke="black" fill="green"/>
  <circle cx="422.161" cy="575.533" r="5.01243" stroke-width="0.5" stroke="black" fill="green"/>
   </g>
   <g id="cell2">
  <circle cx="503.217" cy="593.579" r="8.38682" stroke-width="0.5" stroke="black" fill="magenta"/>
  <circle cx="503.217" cy="593.579" r="5.04258" stroke-width="0.5" stroke="black" fill="magenta"/>
   </g>
   <g id="cell3">
  <circle cx="538.87" cy="545.879" r="8.3784" stroke-width="0.5" stroke="black" fill="magenta"/>
  <circle cx="538.87" cy="545.879" r="5.03921" stroke-width="0.5" stroke="black" fill="magenta"/>
   </g>
   <g id="cell4">
  <circle cx="454.676" cy="439.522" r="8.41255" stroke-width="0.5" stroke="black" fill="magenta"/>
  <circle cx="454.676" cy="439.522" r="5.05164" stroke-width="0.5" stroke="black" fill="magenta"/>
   </g>
   <g id="cell5">
  <circle cx="460.985" cy="493.729" r="8.33257" stroke-width="0.5" stroke="black" fill="magenta"/>
  <circle cx="460.985" cy="493.729" r="5.01941" stroke-width="0.5" stroke="black" fill="magenta"/>
   </g>
   <g id="cell6">
  <circle cx="596.217" cy="516.206" r="8.41212" stroke-width="0.5" stroke="black" fill="magenta"/>
  <circle cx="596.217" cy="516.206" r="5.05153" stroke-width="0.5" stroke="black" fill="magenta"/>
   </g>
   <g id="cell7">
  <circle cx="513.282" cy="464.04" r="8.41271" stroke-width="0.5" stroke="black" fill="magenta"/>
  <circle cx="513.282" cy="464.04" r="5.05167" stroke-width="0.5" stroke="black" fill="magenta"/>
   </g>
   <g id="cell8">
  <circle cx="365.016" cy="549.209" r="8.33699" stroke-width="0.5" stroke="black" fill="magenta"/>
  <circle cx="365.016" cy="549.209" r="5.02141" stroke-width="0.5" stroke="black" fill="magenta"/>
   </g>
   <g id="cell9">
  <circle cx="462.738" cy="601.833" r="8.41209" stroke-width="0.5" stroke="black" fill="magenta"/>
  <circle cx="462.738" cy="601.833" r="5.05152" stroke-width="0.5" stroke="black" fill="magenta"/>
   </g>
   <g id="cell10">
  <circle cx="588.214" cy="396.842" r="8.33813" stroke-width="0.5" stroke="black" fill="magenta"/>
  <circle cx="588.214" cy="396.842" r="5.02287" stroke-width="0.5" stroke="black" fill="magenta"/>
   </g>
   <g id="cell11">
  <circle cx="589.748" cy="590.273" r="8.41271" stroke-width="0.5" stroke="black" fill="magenta"/>
  <circle cx="589.748" cy="590.273" r="5.05167" stroke-width="0.5" stroke="black" fill="magenta"/>
   </g>
   <g id="cell12">
  <circle cx="495.554" cy="580.615" r="8.41271" stroke-width="0.5" stroke="black" fill="magenta"/>
  <circle cx="495.554" cy="580.615" r="5.05167" stroke-width="0.5" stroke="black" fill="magenta"/>
   </g>
   <g id="cell13">
  <circle cx="377.679" cy="558.356" r="8.40402" stroke-width="0.5" stroke="black" fill="magenta"/>
  <circle cx="377.679" cy="558.356" r="5.04901" stroke-width="0.5" stroke="black" fill="magenta"/>
   </g>
   <g id="cell14">
  <circle cx="529.219" cy="395.59" r="8.05374" stroke-width="0.5" stroke="black" fill="magenta"/>
  <circle cx="529.219" cy="395.59" r="4.88056" stroke-width="0.5" stroke="black" fill="magenta"/>
   </g>
   <g id="cell15">
  <circle cx="389.099" cy="488.907" r="8.17329" stroke-width="0.5" stroke="black" fill="magenta"/>
  <circle cx="389.099" cy="488.907" r="4.94447" stroke-width="0.5" stroke="black" fill="magenta"/>
   </g>
   <g id="cell16">
  <circle cx="429.734" cy="415.461" r="8.41271" stroke-width="0.5" stroke="black" fill="magenta"/>
  <circle cx="429.734" cy="415.461" r="5.05167" stroke-width="0.5" stroke="black" fill="magenta"/>
   </g>
   <g id="cell17">
  <circle cx="580.262" cy="484.313" r="8.4114" stroke-width="0.5" stroke="black" fill="magenta"/>
  <circle cx="580.262" cy="484.313" r="5.05134" stroke-width="0.5" stroke="black" fill="magenta"/>
   </g>
   <g id="cell18">
  <circle cx="514.104" cy="394.034" r="8.41255" stroke-width="0.5" stroke="black" fill="magenta"/>
  <circle cx="514.104" cy="394.034" r="5.05164" stroke-width="0.5" stroke="black" fill="magenta"/>
   </g>
   <g id="cell19">
  <circle cx="453.042" cy="541.337" r="8.41189" stroke-width="0.5" stroke="black" fill="magenta"/>
  <circle cx="453.042" cy="541.337" r="5.05147" stroke-width="0.5" stroke="black" fill="magenta"/>
   </g>
   <g id="cell20">
  <circle cx="525.587" cy="421.03" r="8.41271" stroke-width="0.5" stroke="black" fill="magenta"/>
  <circle cx="525.587" cy="421.03" r="5.05167" stroke-width="0.5" stroke="black" fill="magenta"/>
   </g>
   <g id="cell141">
  <circle cx="493.959" cy="441.841" r="7.3485" stroke-width="0.5" stroke="black" fill="magenta"/>
  <circle cx="493.959" cy="441.841" r="4.49694" stroke-width="0.5" stroke="black" fill="magenta"/>
   </g>
   <g id="cell22">
  <circle cx="560.41" cy="496.804" r="8.41158" stroke-width="0.5" stroke="black" fill="magenta"/>
  <circle cx="560.41" cy="496.804" r="5.05139" stroke-width="0.5" stroke="black" fill="magenta"/>
   </g>
   <g id="cell23">
  <circle cx="535.516" cy="485.134" r="8.41271" stroke-width="0.5" stroke="black" fill="magenta"/>
  <circle cx="535.516" cy="485.134" r="5.05167" stroke-width="0.5" stroke="black" fill="magenta"/>
   </g>
   <g id="cell24">
  <circle cx="562.956" cy="381.768" r="8.41271" stroke-width="0.5" stroke="black" fill="magenta"/>
  <circle cx="562.956" cy="381.768" r="5.05167" stroke-width="0.5" stroke="black" fill="magenta"/>
   </g>
   <g id="cell25">
  <circle cx="653.505" cy="564.48" r="8.26039" stroke-width="0.5" stroke="black" fill="green"/>
  <circle cx="653.505" cy="564.48" r="4.9858" stroke-width="0.5" stroke="black" fill="green"/>
   </g>
   <g id="cell26">
  <circle cx="548.68" cy="401.884" r="8.41271" stroke-width="0.5" stroke="black" fill="green"/>
  <circle cx="548.68" cy="401.884" r="5.05167" stroke-width="0.5" stroke="black" fill="green"/>
   </g>
   <g id="cell27">
  <circle cx="452.236" cy="389.561" r="6.18144" stroke-width="0.5" stroke="black" fill="green"/>
  <circle cx="452.236" cy="389.561" r="3.87077" stroke-width="0.5" stroke="black" fill="black"/>
   </g>
   <g id="cell28">
  <circle cx="440.905" cy="550.65" r="8.41271" stroke-width="0.5" stroke="black" fill="green"/>
  <circle cx="440.905" cy="550.65" r="5.05167" stroke-width="0.5" stroke="black" fill="green"/>
   </g>
   <g id="cell29">
  <circle cx="466.659" cy="518.341" r="8.40748" stroke-width="0.5" stroke="black" fill="green"/>
  <circle cx="466.659" cy="518.341" r="5.05016" stroke-width="0.5" stroke="black" fill="green"/>
   </g>
   <g id="cell30">
  <circle cx="480.379" cy="539.903" r="8.41271" stroke-width="0.5" stroke="black" fill="green"/>
  <circle cx="480.379" cy="539.903" r="5.05167" stroke-width="0.5" stroke="black" fill="green"/>
   </g>
   <g id="cell31">
  <circle cx="409.237" cy="531.001" r="7.24243" stroke-width="0.5" stroke="black" fill="green"/>
  <circle cx="409.237" cy="531.001" r="4.39934" stroke-width="0.5" stroke="black" fill="green"/>
   </g>
   <g id="cell32">
  <circle cx="425.309" cy="455.366" r="8.18153" stroke-width="0.5" stroke="black" fill="green"/>
  <circle cx="425.309" cy="455.366" r="4.94578" stroke-width="0.5" stroke="black" fill="green"/>
   </g>
   <g id="cell33">
  <circle cx="498.148" cy="414.364" r="8.41231" stroke-width="0.5" stroke="black" fill="green"/>
  <circle cx="498.148" cy="414.364" r="5.05158" stroke-width="0.5" stroke="black" fill="green"/>
   </g>
   <g id="cell34">
  <circle cx="391.921" cy="454.374" r="8.41221" stroke-width="0.5" stroke="black" fill="green"/>
  <circle cx="391.921" cy="454.374" r="5.05155" stroke-width="0.5" stroke="black" fill="green"/>
   </g>
   <g id="cell35">
  <circle cx="547.408" cy="558.347" r="8.41072" stroke-width="0.5" stroke="black" fill="green"/>
  <circle cx="547.408" cy="558.347" r="5.05114" stroke-width="0.5" stroke="black" fill="green"/>
   </g>
   <g id="cell36">
  <circle cx="392.645" cy="581.094" r="8.40244" stroke-width="0.5" stroke="black" fill="green"/>
  <circle cx="392.645" cy="581.094" r="5.04843" stroke-width="0.5" stroke="black" fill="green"/>
   </g>
   <g id="cell174">
  <circle cx="477.913" cy="617.587" r="7.9226" stroke-width="0.5" stroke="black" fill="green"/>
  <circle cx="477.913" cy="617.587" r="4.80591" stroke-width="0.5" stroke="black" fill="green"/>
   </g>
   <g id="cell38">
  <circle cx="526.142" cy="606.389" r="8.41194" stroke-width="0.5" stroke="black" fill="green"/>
  <circle cx="526.142" cy="606.389" r="5.05148" stroke-width="0.5" stroke="black" fill="green"/>
   </g>
   <g id="cell39">
  <circle cx="617.335" cy="498.581" r="8.01266" stroke-width="0.5" stroke="black" fill="green"/>
  <circle cx="617.335" cy="498.581" r="4.85582" stroke-width="0.5" stroke="black" fill="green"/>
   </g>
   <g id="cell40">
  <circle cx="483.817" cy="570.456" r="8.41271" stroke-width="0.5" stroke="black" fill="green"/>
  <circle cx="483.817" cy="570.456" r="5.05167" stroke-width="0.5" stroke="black" fill="green"/>
   </g>
   <g id="cell41">
  <circle cx="363.13" cy="479.299" r="8.41271" stroke-width="0.5" stroke="black" fill="green"/>
  <circle cx="363.13" cy="479.299" r="5.05167" stroke-width="0.5" stroke="black" fill="green"/>
   </g>
   <g id="cell176">
  <circle cx="467.49" cy="447.185" r="7.48567" stroke-width="0.5" stroke="black" fill="magenta"/>
  <circle cx="467.49" cy="447.185" r="4.57729" stroke-width="0.5" stroke="black" fill="magenta"/>
   </g>
   <g id="cell43">
  <circle cx="558.191" cy="445.615" r="8.41271" stroke-width="0.5" stroke="black" fill="green"/>
  <circle cx="558.191" cy="445.615" r="5.05167" stroke-width="0.5" stroke="black" fill="green"/>
   </g>
   <g id="cell44">
  <circle cx="488.135" cy="629.149" r="8.27857" stroke-width="0.5" stroke="black" fill="green"/>
  <circle cx="488.135" cy="629.149" r="4.99422" stroke-width="0.5" stroke="black" fill="green"/>
   </g>
   <g id="cell45">
  <circle cx="432.212" cy="563.31" r="7.908" stroke-width="0.5" stroke="black" fill="green"/>
  <circle cx="432.212" cy="563.31" r="4.81461" stroke-width="0.5" stroke="black" fill="green"/>
   </g>
   <g id="cell46">
  <circle cx="520.803" cy="621.133" r="8.3566" stroke-width="0.5" stroke="black" fill="green"/>
  <circle cx="520.803" cy="621.133" r="5.03052" stroke-width="0.5" stroke="black" fill="green"/>
   </g>
   <g id="cell47">
  <circle cx="494.662" cy="510.501" r="8.41271" stroke-width="0.5" stroke="black" fill="green"/>
  <circle cx="494.662" cy="510.501" r="5.05167" stroke-width="0.5" stroke="black" fill="green"/>
   </g>
   <g id="cell48">
  <circle cx="566.015" cy="605.876" r="8.41271" stroke-width="0.5" stroke="black" fill="green"/>
  <circle cx="566.015" cy="605.876" r="5.05167" stroke-width="0.5" stroke="black" fill="green"/>
   </g>
   <g id="cell49">
  <circle cx="438.612" cy="390.159" r="7.04275" stroke-width="0.5" stroke="black" fill="green"/>
  <circle cx="438.612" cy="390.159" r="4.27358" stroke-width="0.5" stroke="black" fill="green"/>
   </g>
   <g id="cell50">
  <circle cx="508.154" cy="495.376" r="6.38865" stroke-width="0.5" stroke="black" fill="cyan"/>
  <circle cx="508.154" cy="495.376" r="3.90053" stroke-width="0.5" stroke="black" fill="cyan"/>
   </g>
   <g id="cell51">
  <circle cx="385.087" cy="604.181" r="8.29574" stroke-width="0.5" stroke="black" fill="cyan"/>
  <circle cx="385.087" cy="604.181" r="5.00339" stroke-width="0.5" stroke="black" fill="cyan"/>
   </g>
   <g id="cell120">
  <circle cx="419.391" cy="610.6" r="8.40516" stroke-width="0.5" stroke="black" fill="cyan"/>
  <circle cx="419.391" cy="610.6" r="5.04937" stroke-width="0.5" stroke="black" fill="cyan"/>
   </g>
   <g id="cell53">
  <circle cx="571.109" cy="436.134" r="8.41271" stroke-width="0.5" stroke="black" fill="cyan"/>
  <circle cx="571.109" cy="436.134" r="5.05167" stroke-width="0.5" stroke="black" fill="cyan"/>
   </g>
   <g id="cell54">
  <circle cx="486.54" cy="425.003" r="8.31766" stroke-width="0.5" stroke="black" fill="cyan"/>
  <circle cx="486.54" cy="425.003" r="5.0126" stroke-width="0.5" stroke="black" fill="cyan"/>
   </g>
   <g id="cell55">
  <circle cx="521.211" cy="478.034" r="8.41271" stroke-width="0.5" stroke="black" fill="cyan"/>
  <circle cx="521.211" cy="478.034" r="5.05167" stroke-width="0.5" stroke="black" fill="cyan"/>
   </g>
   <g id="cell56">
  <circle cx="620.282" cy="520.133" r="6.28371" stroke-width="0.5" stroke="black" fill="cyan"/>
  <circle cx="620.282" cy="520.133" r="3.85469" stroke-width="0.5" stroke="black" fill="cyan"/>
   </g>
   <g id="cell57">
  <circle cx="418.485" cy="626.582" r="8.40516" stroke-width="0.5" stroke="black" fill="cyan"/>
  <circle cx="418.485" cy="626.582" r="5.04937" stroke-width="0.5" stroke="black" fill="cyan"/>
   </g>
   <g id="cell58">
  <circle cx="550.783" cy="484.027" r="8.41271" stroke-width="0.5" stroke="black" fill="cyan"/>
  <circle cx="550.783" cy="484.027" r="5.05167" stroke-width="0.5" stroke="black" fill="cyan"/>
   </g>
   <g id="cell59">
  <circle cx="385.389" cy="439.672" r="8.41271" stroke-width="0.5" stroke="black" fill="cyan"/>
  <circle cx="385.389" cy="439.672" r="5.05167" stroke-width="0.5" stroke="black" fill="cyan"/>
   </g>
   <g id="cell60">
  <circle cx="599.99" cy="471.398" r="6.92087" stroke-width="0.5" stroke="black" fill="cyan"/>
  <circle cx="599.99" cy="471.398" r="4.18958" stroke-width="0.5" stroke="black" fill="cyan"/>
   </g>
   <g id="cell155">
  <circle cx="518.111" cy="593.274" r="8.1904" stroke-width="0.5" stroke="black" fill="magenta"/>
  <circle cx="518.111" cy="593.274" r="4.9557" stroke-width="0.5" stroke="black" fill="magenta"/>
   </g>
   <g id="cell62">
  <circle cx="525.64" cy="436.436" r="8.41271" stroke-width="0.5" stroke="black" fill="cyan"/>
  <circle cx="525.64" cy="436.436" r="5.05167" stroke-width="0.5" stroke="black" fill="cyan"/>
   </g>
   <g id="cell63">
  <circle cx="581.714" cy="551.732" r="8.41194" stroke-width="0.5" stroke="black" fill="cyan"/>
  <circle cx="581.714" cy="551.732" r="5.05148" stroke-width="0.5" stroke="black" fill="cyan"/>
   </g>
   <g id="cell64">
  <circle cx="511.259" cy="633.786" r="8.40272" stroke-width="0.5" stroke="black" fill="cyan"/>
  <circle cx="511.259" cy="633.786" r="5.04853" stroke-width="0.5" stroke="black" fill="cyan"/>
   </g>
   <g id="cell65">
  <circle cx="533.266" cy="449.935" r="8.13769" stroke-width="0.5" stroke="black" fill="cyan"/>
  <circle cx="533.266" cy="449.935" r="4.92306" stroke-width="0.5" stroke="black" fill="cyan"/>
   </g>
   <g id="cell66">
  <circle cx="550.155" cy="523.689" r="8.40557" stroke-width="0.5" stroke="black" fill="cyan"/>
  <circle cx="550.155" cy="523.689" r="5.04951" stroke-width="0.5" stroke="black" fill="cyan"/>
   </g>
   <g id="cell67">
  <circle cx="354.58" cy="492.852" r="8.41271" stroke-width="0.5" stroke="black" fill="cyan"/>
  <circle cx="354.58" cy="492.852" r="5.05167" stroke-width="0.5" stroke="black" fill="cyan"/>
   </g>
   <g id="cell68">
  <circle cx="562.61" cy="554.417" r="8.41271" stroke-width="0.5" stroke="black" fill="cyan"/>
  <circle cx="562.61" cy="554.417" r="5.05167" stroke-width="0.5" stroke="black" fill="cyan"/>
   </g>
   <g id="cell69">
  <circle cx="438.593" cy="445.074" r="8.41256" stroke-width="0.5" stroke="black" fill="cyan"/>
  <circle cx="438.593" cy="445.074" r="5.05164" stroke-width="0.5" stroke="black" fill="cyan"/>
   </g>
   <g id="cell70">
  <circle cx="573.465" cy="468.764" r="8.38373" stroke-width="0.5" stroke="black" fill="cyan"/>
  <circle cx="573.465" cy="468.764" r="5.04136" stroke-width="0.5" stroke="black" fill="cyan"/>
   </g>
   <g id="cell71">
  <circle cx="381.393" cy="528.365" r="8.2486" stroke-width="0.5" stroke="black" fill="cyan"/>
  <circle cx="381.393" cy="528.365" r="4.98114" stroke-width="0.5" stroke="black" fill="cyan"/>
   </g>
   <g id="cell72">
  <circle cx="539.239" cy="512.293" r="8.41271" stroke-width="0.5" stroke="black" fill="cyan"/>
  <circle cx="539.239" cy="512.293" r="5.05167" stroke-width="0.5" stroke="black" fill="cyan"/>
   </g>
   <g id="cell129">
  <circle cx="417.412" cy="403.452" r="8.39618" stroke-width="0.5" stroke="black" fill="green"/>
  <circle cx="417.412" cy="403.452" r="5.04616" stroke-width="0.5" stroke="black" fill="green"/>
   </g>
   <g id="cell74">
  <circle cx="542.641" cy="442.852" r="2.08246" stroke-width="0.5" stroke="black" fill="cyan"/>
  <circle cx="542.641" cy="442.852" r="1.95565" stroke-width="0.5" stroke="black" fill="black"/>
   </g>
   <g id="cell75">
  <circle cx="442.501" cy="480.205" r="6.62813" stroke-width="0.5" stroke="black" fill="cyan"/>
  <circle cx="442.501" cy="480.205" r="4.08244" stroke-width="0.5" stroke="black" fill="cyan"/>
   </g>
   <g id="cell76">
  <circle cx="513.616" cy="374.859" r="7.27187" stroke-width="0.5" stroke="black" fill="magenta"/>
  <circle cx="513.616" cy="374.859" r="4.41817" stroke-width="0.5" stroke="black" fill="magenta"/>
   </g>
   <g id="cell77">
  <circle cx="501.057" cy="429.592" r="8.34654" stroke-width="0.5" stroke="black" fill="magenta"/>
  <circle cx="501.057" cy="429.592" r="5.026" stroke-width="0.5" stroke="black" fill="magenta"/>
   </g>
   <g id="cell78">
  <circle cx="370.824" cy="465.671" r="8.41254" stroke-width="0.5" stroke="black" fill="magenta"/>
  <circle cx="370.824" cy="465.671" r="5.05163" stroke-width="0.5" stroke="black" fill="magenta"/>
   </g>
   <g id="cell79">
  <circle cx="497.962" cy="525.985" r="8.41253" stroke-width="0.5" stroke="black" fill="magenta"/>
  <circle cx="497.962" cy="525.985" r="5.05163" stroke-width="0.5" stroke="black" fill="magenta"/>
   </g>
   <g id="cell80">
  <circle cx="603.689" cy="485.657" r="8.07644" stroke-width="0.5" stroke="black" fill="green"/>
  <circle cx="603.689" cy="485.657" r="4.89043" stroke-width="0.5" stroke="black" fill="green"/>
   </g>
   <g id="cell81">
  <circle cx="429.438" cy="504.962" r="8.39833" stroke-width="0.5" stroke="black" fill="green"/>
  <circle cx="429.438" cy="504.962" r="5.04707" stroke-width="0.5" stroke="black" fill="green"/>
   </g>
   <g id="cell82">
  <circle cx="544.801" cy="497.81" r="8.41248" stroke-width="0.5" stroke="black" fill="magenta"/>
  <circle cx="544.801" cy="497.81" r="5.05162" stroke-width="0.5" stroke="black" fill="magenta"/>
   </g>
   <g id="cell130">
  <circle cx="573.925" cy="392.129" r="8.39523" stroke-width="0.5" stroke="black" fill="magenta"/>
  <circle cx="573.925" cy="392.129" r="5.04581" stroke-width="0.5" stroke="black" fill="magenta"/>
   </g>
   <g id="cell84">
  <circle cx="403.807" cy="485.445" r="8.40861" stroke-width="0.5" stroke="black" fill="green"/>
  <circle cx="403.807" cy="485.445" r="5.05052" stroke-width="0.5" stroke="black" fill="green"/>
   </g>
   <g id="cell140">
  <circle cx="525.493" cy="580.095" r="8.32793" stroke-width="0.5" stroke="black" fill="magenta"/>
  <circle cx="525.493" cy="580.095" r="5.01948" stroke-width="0.5" stroke="black" fill="magenta"/>
   </g>
   <g id="cell86">
  <circle cx="391.246" cy="565.755" r="8.4089" stroke-width="0.5" stroke="black" fill="magenta"/>
  <circle cx="391.246" cy="565.755" r="5.05061" stroke-width="0.5" stroke="black" fill="magenta"/>
   </g>
   <g id="cell87">
  <circle cx="432.459" cy="520.58" r="8.28295" stroke-width="0.5" stroke="black" fill="green"/>
  <circle cx="432.459" cy="520.58" r="4.99686" stroke-width="0.5" stroke="black" fill="green"/>
   </g>
   <g id="cell88">
  <circle cx="477.845" cy="602.557" r="7.9226" stroke-width="0.5" stroke="black" fill="green"/>
  <circle cx="477.845" cy="602.557" r="4.80591" stroke-width="0.5" stroke="black" fill="green"/>
   </g>
   <g id="cell89">
  <circle cx="431.521" cy="488.982" r="8.41087" stroke-width="0.5" stroke="black" fill="green"/>
  <circle cx="431.521" cy="488.982" r="5.05121" stroke-width="0.5" stroke="black" fill="green"/>
   </g>
   <g id="cell90">
  <circle cx="580.437" cy="514.449" r="8.25346" stroke-width="0.5" stroke="black" fill="magenta"/>
  <circle cx="580.437" cy="514.449" r="4.98201" stroke-width="0.5" stroke="black" fill="magenta"/>
   </g>
   <g id="cell136">
  <circle cx="524.972" cy="540.219" r="8.3784" stroke-width="0.5" stroke="black" fill="magenta"/>
  <circle cx="524.972" cy="540.219" r="5.03921" stroke-width="0.5" stroke="black" fill="magenta"/>
   </g>
   <g id="cell92">
  <circle cx="558.268" cy="591.929" r="8.40842" stroke-width="0.5" stroke="black" fill="green"/>
  <circle cx="558.268" cy="591.929" r="5.0505" stroke-width="0.5" stroke="black" fill="green"/>
   </g>
   <g id="cell93">
  <circle cx="575.982" cy="527.241" r="6.8208" stroke-width="0.5" stroke="black" fill="cyan"/>
  <circle cx="575.982" cy="527.241" r="4.12206" stroke-width="0.5" stroke="black" fill="cyan"/>
   </g>
   <g id="cell94">
  <circle cx="542.587" cy="470.781" r="8.41189" stroke-width="0.5" stroke="black" fill="cyan"/>
  <circle cx="542.587" cy="470.781" r="5.05147" stroke-width="0.5" stroke="black" fill="cyan"/>
   </g>
   <g id="cell95">
  <circle cx="466.027" cy="533.832" r="8.41189" stroke-width="0.5" stroke="black" fill="magenta"/>
  <circle cx="466.027" cy="533.832" r="5.05147" stroke-width="0.5" stroke="black" fill="magenta"/>
   </g>
   <g id="cell96">
  <circle cx="536.396" cy="379.941" r="8.41172" stroke-width="0.5" stroke="black" fill="magenta"/>
  <circle cx="536.396" cy="379.941" r="5.05143" stroke-width="0.5" stroke="black" fill="magenta"/>
   </g>
   <g id="cell97">
  <circle cx="566.002" cy="510.874" r="8.41158" stroke-width="0.5" stroke="black" fill="magenta"/>
  <circle cx="566.002" cy="510.874" r="5.05139" stroke-width="0.5" stroke="black" fill="magenta"/>
   </g>
   <g id="cell98">
  <circle cx="406.079" cy="572.471" r="8.31699" stroke-width="0.5" stroke="black" fill="green"/>
  <circle cx="406.079" cy="572.471" r="5.01243" stroke-width="0.5" stroke="black" fill="green"/>
   </g>
   <g id="cell99">
  <circle cx="575.989" cy="499.248" r="8.4114" stroke-width="0.5" stroke="black" fill="magenta"/>
  <circle cx="575.989" cy="499.248" r="5.05134" stroke-width="0.5" stroke="black" fill="magenta"/>
   </g>
   <g id="cell100">
  <circle cx="570.152" cy="540.406" r="8.41094" stroke-width="0.5" stroke="black" fill="cyan"/>
  <circle cx="570.152" cy="540.406" r="5.05122" stroke-width="0.5" stroke="black" fill="cyan"/>
   </g>
   <g id="cell101">
  <circle cx="458.746" cy="628.644" r="6.89404" stroke-width="0.5" stroke="black" fill="magenta"/>
  <circle cx="458.746" cy="628.644" r="4.16945" stroke-width="0.5" stroke="black" fill="magenta"/>
   </g>
   <g id="cell102">
  <circle cx="445.673" cy="506.821" r="8.41087" stroke-width="0.5" stroke="black" fill="green"/>
  <circle cx="445.673" cy="506.821" r="5.05121" stroke-width="0.5" stroke="black" fill="green"/>
   </g>
   <g id="cell103">
  <circle cx="551.476" cy="617.578" r="7.93563" stroke-width="0.5" stroke="black" fill="green"/>
  <circle cx="551.476" cy="617.578" r="4.81347" stroke-width="0.5" stroke="black" fill="green"/>
   </g>
   <g id="cell104">
  <circle cx="553.772" cy="540.792" r="8.41072" stroke-width="0.5" stroke="black" fill="green"/>
  <circle cx="553.772" cy="540.792" r="5.05114" stroke-width="0.5" stroke="black" fill="green"/>
   </g>
   <g id="cell105">
  <circle cx="416.745" cy="495.093" r="8.41038" stroke-width="0.5" stroke="black" fill="green"/>
  <circle cx="416.745" cy="495.093" r="5.05105" stroke-width="0.5" stroke="black" fill="green"/>
   </g>
   <g id="cell106">
  <circle cx="646.62" cy="532.447" r="7.71924" stroke-width="0.5" stroke="black" fill="green"/>
  <circle cx="646.62" cy="532.447" r="4.68964" stroke-width="0.5" stroke="black" fill="green"/>
   </g>
   <g id="cell107">
  <circle cx="383.716" cy="512.874" r="8.40986" stroke-width="0.5" stroke="black" fill="cyan"/>
  <circle cx="383.716" cy="512.874" r="5.05089" stroke-width="0.5" stroke="black" fill="cyan"/>
   </g>
   <g id="cell108">
  <circle cx="460.964" cy="642.078" r="8.40907" stroke-width="0.5" stroke="black" fill="magenta"/>
  <circle cx="460.964" cy="642.078" r="5.05068" stroke-width="0.5" stroke="black" fill="magenta"/>
   </g>
   <g id="cell109">
  <circle cx="446.785" cy="637.356" r="8.40907" stroke-width="0.5" stroke="black" fill="magenta"/>
  <circle cx="446.785" cy="637.356" r="5.05068" stroke-width="0.5" stroke="black" fill="magenta"/>
   </g>
   <g id="cell110">
  <circle cx="542.826" cy="572.111" r="7.32847" stroke-width="0.5" stroke="black" fill="green"/>
  <circle cx="542.826" cy="572.111" r="4.45431" stroke-width="0.5" stroke="black" fill="green"/>
   </g>
   <g id="cell111">
  <circle cx="627.434" cy="554.006" r="8.40842" stroke-width="0.5" stroke="black" fill="green"/>
  <circle cx="627.434" cy="554.006" r="5.05049" stroke-width="0.5" stroke="black" fill="green"/>
   </g>
   <g id="cell112">
  <circle cx="378.607" cy="573.732" r="8.4089" stroke-width="0.5" stroke="black" fill="magenta"/>
  <circle cx="378.607" cy="573.732" r="5.05061" stroke-width="0.5" stroke="black" fill="magenta"/>
   </g>
   <g id="cell113">
  <circle cx="418.161" cy="479.575" r="8.40861" stroke-width="0.5" stroke="black" fill="green"/>
  <circle cx="418.161" cy="479.575" r="5.05052" stroke-width="0.5" stroke="black" fill="green"/>
   </g>
   <g id="cell114">
  <circle cx="502.368" cy="453.362" r="8.38856" stroke-width="0.5" stroke="black" fill="magenta"/>
  <circle cx="502.368" cy="453.362" r="5.04349" stroke-width="0.5" stroke="black" fill="magenta"/>
   </g>
   <g id="cell115">
  <circle cx="452.469" cy="525.866" r="8.40748" stroke-width="0.5" stroke="black" fill="green"/>
  <circle cx="452.469" cy="525.866" r="5.05016" stroke-width="0.5" stroke="black" fill="green"/>
   </g>
   <g id="cell116">
  <circle cx="368.73" cy="518.999" r="8.40588" stroke-width="0.5" stroke="black" fill="cyan"/>
  <circle cx="368.73" cy="518.999" r="5.04969" stroke-width="0.5" stroke="black" fill="cyan"/>
   </g>
   <g id="cell173">
  <circle cx="539.907" cy="609.834" r="6.92475" stroke-width="0.5" stroke="black" fill="green"/>
  <circle cx="539.907" cy="609.834" r="4.23955" stroke-width="0.5" stroke="black" fill="green"/>
   </g>
   <g id="cell118">
  <circle cx="524.156" cy="525.309" r="7.95966" stroke-width="0.5" stroke="black" fill="cyan"/>
  <circle cx="524.156" cy="525.309" r="4.82748" stroke-width="0.5" stroke="black" fill="cyan"/>
   </g>
   <g id="cell119">
  <circle cx="526.999" cy="635.822" r="8.33944" stroke-width="0.5" stroke="black" fill="green"/>
  <circle cx="526.999" cy="635.822" r="5.02302" stroke-width="0.5" stroke="black" fill="green"/>
   </g>
   <g id="cell121">
  <circle cx="390.817" cy="550.707" r="8.40402" stroke-width="0.5" stroke="black" fill="magenta"/>
  <circle cx="390.817" cy="550.707" r="5.04901" stroke-width="0.5" stroke="black" fill="magenta"/>
   </g>
   <g id="cell122">
  <circle cx="615.347" cy="459.154" r="8.10833" stroke-width="0.5" stroke="black" fill="cyan"/>
  <circle cx="615.347" cy="459.154" r="4.90848" stroke-width="0.5" stroke="black" fill="cyan"/>
   </g>
   <g id="cell123">
  <circle cx="499.907" cy="644.947" r="8.40272" stroke-width="0.5" stroke="black" fill="cyan"/>
  <circle cx="499.907" cy="644.947" r="5.04853" stroke-width="0.5" stroke="black" fill="cyan"/>
   </g>
   <g id="cell124">
  <circle cx="379.139" cy="589.391" r="8.40244" stroke-width="0.5" stroke="black" fill="green"/>
  <circle cx="379.139" cy="589.391" r="5.04843" stroke-width="0.5" stroke="black" fill="green"/>
   </g>
   <g id="cell125">
  <circle cx="454.405" cy="454.929" r="8.40147" stroke-width="0.5" stroke="black" fill="cyan"/>
  <circle cx="454.405" cy="454.929" r="5.0481" stroke-width="0.5" stroke="black" fill="cyan"/>
   </g>
   <g id="cell126">
  <circle cx="413.961" cy="510.372" r="8.39833" stroke-width="0.5" stroke="black" fill="green"/>
  <circle cx="413.961" cy="510.372" r="5.04707" stroke-width="0.5" stroke="black" fill="green"/>
   </g>
   <g id="cell127">
  <circle cx="413.465" cy="595.749" r="8.39834" stroke-width="0.5" stroke="black" fill="cyan"/>
  <circle cx="413.465" cy="595.749" r="5.04696" stroke-width="0.5" stroke="black" fill="cyan"/>
   </g>
   <g id="cell128">
  <circle cx="353.293" cy="535.868" r="7.5804" stroke-width="0.5" stroke="black" fill="cyan"/>
  <circle cx="353.293" cy="535.868" r="4.61009" stroke-width="0.5" stroke="black" fill="cyan"/>
   </g>
   <g id="cell131">
  <circle cx="586.244" cy="536.663" r="8.39114" stroke-width="0.5" stroke="black" fill="cyan"/>
  <circle cx="586.244" cy="536.663" r="5.04437" stroke-width="0.5" stroke="black" fill="cyan"/>
   </g>
   <g id="cell132">
  <circle cx="510.607" cy="440.924" r="8.38856" stroke-width="0.5" stroke="black" fill="magenta"/>
  <circle cx="510.607" cy="440.924" r="5.04349" stroke-width="0.5" stroke="black" fill="magenta"/>
   </g>
   <g id="cell133">
  <circle cx="535.045" cy="409.272" r="8.38891" stroke-width="0.5" stroke="black" fill="magenta"/>
  <circle cx="535.045" cy="409.272" r="5.0434" stroke-width="0.5" stroke="black" fill="magenta"/>
   </g>
   <g id="cell134">
  <circle cx="510.577" cy="580.44" r="8.3515" stroke-width="0.5" stroke="black" fill="magenta"/>
  <circle cx="510.577" cy="580.44" r="5.02887" stroke-width="0.5" stroke="black" fill="magenta"/>
   </g>
   <g id="cell135">
  <circle cx="565.673" cy="482.259" r="8.38373" stroke-width="0.5" stroke="black" fill="cyan"/>
  <circle cx="565.673" cy="482.259" r="5.04136" stroke-width="0.5" stroke="black" fill="cyan"/>
   </g>
   <g id="cell137">
  <circle cx="378.597" cy="478.539" r="8.37199" stroke-width="0.5" stroke="black" fill="magenta"/>
  <circle cx="378.597" cy="478.539" r="5.03659" stroke-width="0.5" stroke="black" fill="magenta"/>
   </g>
   <g id="cell138">
  <circle cx="532.816" cy="592.854" r="8.1904" stroke-width="0.5" stroke="black" fill="magenta"/>
  <circle cx="532.816" cy="592.854" r="4.9557" stroke-width="0.5" stroke="black" fill="magenta"/>
   </g>
   <g id="cell139">
  <circle cx="510.631" cy="607.089" r="8.3566" stroke-width="0.5" stroke="black" fill="green"/>
  <circle cx="510.631" cy="607.089" r="5.03052" stroke-width="0.5" stroke="black" fill="green"/>
   </g>
   <g id="cell142">
  <circle cx="585.143" cy="382.131" r="8.33813" stroke-width="0.5" stroke="black" fill="magenta"/>
  <circle cx="585.143" cy="382.131" r="5.02287" stroke-width="0.5" stroke="black" fill="magenta"/>
   </g>
   <g id="cell143">
  <circle cx="536.805" cy="623.608" r="8.33944" stroke-width="0.5" stroke="black" fill="green"/>
  <circle cx="536.805" cy="623.608" r="5.02302" stroke-width="0.5" stroke="black" fill="green"/>
   </g>
   <g id="cell144">
  <circle cx="378.431" cy="543.222" r="8.33699" stroke-width="0.5" stroke="black" fill="magenta"/>
  <circle cx="378.431" cy="543.222" r="5.02141" stroke-width="0.5" stroke="black" fill="magenta"/>
   </g>
   <g id="cell145">
  <circle cx="454.97" cy="481.203" r="7.09432" stroke-width="0.5" stroke="black" fill="magenta"/>
  <circle cx="454.97" cy="481.203" r="4.31699" stroke-width="0.5" stroke="black" fill="magenta"/>
   </g>
   <g id="cell146">
  <circle cx="459.3" cy="424.126" r="8.31766" stroke-width="0.5" stroke="black" fill="cyan"/>
  <circle cx="459.3" cy="424.126" r="5.0126" stroke-width="0.5" stroke="black" fill="cyan"/>
   </g>
   <g id="cell148">
  <circle cx="400.856" cy="605.413" r="8.29574" stroke-width="0.5" stroke="black" fill="cyan"/>
  <circle cx="400.856" cy="605.413" r="5.00339" stroke-width="0.5" stroke="black" fill="cyan"/>
   </g>
   <g id="cell149">
  <circle cx="439.031" cy="534.784" r="8.28295" stroke-width="0.5" stroke="black" fill="green"/>
  <circle cx="439.031" cy="534.784" r="4.99686" stroke-width="0.5" stroke="black" fill="green"/>
   </g>
   <g id="cell150">
  <circle cx="472.614" cy="632.003" r="8.27857" stroke-width="0.5" stroke="black" fill="green"/>
  <circle cx="472.614" cy="632.003" r="4.99422" stroke-width="0.5" stroke="black" fill="green"/>
   </g>
   <g id="cell151">
  <circle cx="523.45" cy="509.858" r="8.27497" stroke-width="0.5" stroke="black" fill="cyan"/>
  <circle cx="523.45" cy="509.858" r="4.99242" stroke-width="0.5" stroke="black" fill="cyan"/>
   </g>
   <g id="cell152">
  <circle cx="643.259" cy="552.575" r="8.26039" stroke-width="0.5" stroke="black" fill="green"/>
  <circle cx="643.259" cy="552.575" r="4.9858" stroke-width="0.5" stroke="black" fill="green"/>
   </g>
   <g id="cell153">
  <circle cx="396.213" cy="523.118" r="8.2486" stroke-width="0.5" stroke="black" fill="cyan"/>
  <circle cx="396.213" cy="523.118" r="4.98114" stroke-width="0.5" stroke="black" fill="cyan"/>
   </g>
   <g id="cell154">
  <circle cx="589.058" cy="504.408" r="7.34122" stroke-width="0.5" stroke="black" fill="magenta"/>
  <circle cx="589.058" cy="504.408" r="4.47851" stroke-width="0.5" stroke="black" fill="magenta"/>
   </g>
   <g id="cell156">
  <circle cx="403.614" cy="557.56" r="7.97872" stroke-width="0.5" stroke="black" fill="green"/>
  <circle cx="403.614" cy="557.56" r="4.84738" stroke-width="0.5" stroke="black" fill="green"/>
   </g>
   <g id="cell157">
  <circle cx="392.917" cy="474.571" r="8.17329" stroke-width="0.5" stroke="black" fill="magenta"/>
  <circle cx="392.917" cy="474.571" r="4.94447" stroke-width="0.5" stroke="black" fill="magenta"/>
   </g>
   <g id="cell158">
  <circle cx="431.414" cy="472.713" r="8.05416" stroke-width="0.5" stroke="black" fill="green"/>
  <circle cx="431.414" cy="472.713" r="4.88695" stroke-width="0.5" stroke="black" fill="green"/>
   </g>
   <g id="cell159">
  <circle cx="439.713" cy="460.319" r="8.05416" stroke-width="0.5" stroke="black" fill="green"/>
  <circle cx="439.713" cy="460.319" r="4.88695" stroke-width="0.5" stroke="black" fill="green"/>
   </g>
   <g id="cell160">
  <circle cx="417.651" cy="561" r="8.02265" stroke-width="0.5" stroke="black" fill="green"/>
  <circle cx="417.651" cy="561" r="4.87059" stroke-width="0.5" stroke="black" fill="green"/>
   </g>
   <g id="cell161">
  <circle cx="528.51" cy="464.39" r="8.13769" stroke-width="0.5" stroke="black" fill="cyan"/>
  <circle cx="528.51" cy="464.39" r="4.92306" stroke-width="0.5" stroke="black" fill="cyan"/>
   </g>
   <g id="cell162">
  <circle cx="613.726" cy="474.367" r="8.10833" stroke-width="0.5" stroke="black" fill="cyan"/>
  <circle cx="613.726" cy="474.367" r="4.90848" stroke-width="0.5" stroke="black" fill="cyan"/>
   </g>
   <g id="cell163">
  <circle cx="425.892" cy="548.477" r="7.908" stroke-width="0.5" stroke="black" fill="green"/>
  <circle cx="425.892" cy="548.477" r="4.81461" stroke-width="0.5" stroke="black" fill="green"/>
   </g>
   <g id="cell164">
  <circle cx="462.639" cy="468.412" r="8.10723" stroke-width="0.5" stroke="black" fill="cyan"/>
  <circle cx="462.639" cy="468.412" r="4.90809" stroke-width="0.5" stroke="black" fill="cyan"/>
   </g>
   <g id="cell165">
  <circle cx="411.453" cy="545.077" r="7.97872" stroke-width="0.5" stroke="black" fill="green"/>
  <circle cx="411.453" cy="545.077" r="4.84738" stroke-width="0.5" stroke="black" fill="green"/>
   </g>
   <g id="cell166">
  <circle cx="602.64" cy="501.697" r="8.07644" stroke-width="0.5" stroke="black" fill="green"/>
  <circle cx="602.64" cy="501.697" r="4.89043" stroke-width="0.5" stroke="black" fill="green"/>
   </g>
   <g id="cell167">
  <circle cx="466.985" cy="387.27" r="8.07654" stroke-width="0.5" stroke="black" fill="green"/>
  <circle cx="466.985" cy="387.27" r="4.89046" stroke-width="0.5" stroke="black" fill="green"/>
   </g>
   <g id="cell168">
  <circle cx="520.44" cy="407.261" r="8.05374" stroke-width="0.5" stroke="black" fill="magenta"/>
  <circle cx="520.44" cy="407.261" r="4.88056" stroke-width="0.5" stroke="black" fill="magenta"/>
   </g>
   <g id="cell169">
  <circle cx="466.94" cy="434.979" r="6.36905" stroke-width="0.5" stroke="black" fill="magenta"/>
  <circle cx="466.94" cy="434.979" r="3.92035" stroke-width="0.5" stroke="black" fill="magenta"/>
   </g>
   <g id="cell170">
  <circle cx="628.756" cy="488.634" r="8.01266" stroke-width="0.5" stroke="black" fill="green"/>
  <circle cx="628.756" cy="488.634" r="4.85582" stroke-width="0.5" stroke="black" fill="green"/>
   </g>
   <g id="cell171">
  <circle cx="537.319" cy="531.296" r="7.95966" stroke-width="0.5" stroke="black" fill="cyan"/>
  <circle cx="537.319" cy="531.296" r="4.82748" stroke-width="0.5" stroke="black" fill="cyan"/>
   </g>
   <g id="cell172">
  <circle cx="511.187" cy="519.518" r="7.86002" stroke-width="0.5" stroke="black" fill="cyan"/>
  <circle cx="511.187" cy="519.518" r="4.78041" stroke-width="0.5" stroke="black" fill="cyan"/>
   </g>
   <g id="cell175">
  <circle cx="634.281" cy="540.32" r="7.71924" stroke-width="0.5" stroke="black" fill="green"/>
  <circle cx="634.281" cy="540.32" r="4.68964" stroke-width="0.5" stroke="black" fill="green"/>
   </g>
   <g id="cell177">
  <circle cx="367.308" cy="534.177" r="7.5804" stroke-width="0.5" stroke="black" fill="cyan"/>
  <circle cx="367.308" cy="534.177" r="4.61009" stroke-width="0.5" stroke="black" fill="cyan"/>
   </g>
   <g id="cell178">
  <circle cx="481.284" cy="446.891" r="7.3485" stroke-width="0.5" stroke="black" fill="magenta"/>
  <circle cx="481.284" cy="446.891" r="4.49694" stroke-width="0.5" stroke="black" fill="magenta"/>
   </g>
   <g id="cell179">
  <circle cx="446.733" cy="492.177" r="7.30421" stroke-width="0.5" stroke="black" fill="cyan"/>
  <circle cx="446.733" cy="492.177" r="4.4649" stroke-width="0.5" stroke="black" fill="cyan"/>
   </g>
   <g id="cell180">
  <circle cx="591.445" cy="492.16" r="7.34122" stroke-width="0.5" stroke="black" fill="magenta"/>
  <circle cx="591.445" cy="492.16" r="4.47851" stroke-width="0.5" stroke="black" fill="magenta"/>
   </g>
   <g id="cell181">
  <circle cx="544.897" cy="585.379" r="7.32847" stroke-width="0.5" stroke="black" fill="green"/>
  <circle cx="544.897" cy="585.379" r="4.45431" stroke-width="0.5" stroke="black" fill="green"/>
   </g>
   <g id="cell182">
  <circle cx="449.185" cy="469.955" r="6.62813" stroke-width="0.5" stroke="black" fill="cyan"/>
  <circle cx="449.185" cy="469.955" r="4.08244" stroke-width="0.5" stroke="black" fill="cyan"/>
   </g>
   <g id="cell183">
  <circle cx="523.079" cy="383.505" r="7.27187" stroke-width="0.5" stroke="black" fill="magenta"/>
  <circle cx="523.079" cy="383.505" r="4.41817" stroke-width="0.5" stroke="black" fill="magenta"/>
   </g>
   <g id="cell184">
  <circle cx="545.52" cy="598.503" r="6.92475" stroke-width="0.5" stroke="black" fill="green"/>
  <circle cx="545.52" cy="598.503" r="4.23955" stroke-width="0.5" stroke="black" fill="green"/>
   </g>
   <g id="cell185">
  <circle cx="419.032" cy="522.989" r="6.32393" stroke-width="0.5" stroke="black" fill="green"/>
  <circle cx="419.032" cy="522.989" r="3.87972" stroke-width="0.5" stroke="black" fill="green"/>
   </g>
   <g id="cell186">
  <circle cx="607.578" cy="523.38" r="6.11877" stroke-width="0.5" stroke="black" fill="cyan"/>
  <circle cx="607.578" cy="523.38" r="3.74903" stroke-width="0.5" stroke="black" fill="cyan"/>
   </g>
   <g id="cell187">
  <circle cx="467.595" cy="481.494" r="7.09432" stroke-width="0.5" stroke="black" fill="magenta"/>
  <circle cx="467.595" cy="481.494" r="4.31699" stroke-width="0.5" stroke="black" fill="magenta"/>
   </g>
   <g id="cell188">
  <circle cx="619.457" cy="531.976" r="6.28371" stroke-width="0.5" stroke="black" fill="cyan"/>
  <circle cx="619.457" cy="531.976" r="3.85469" stroke-width="0.5" stroke="black" fill="cyan"/>
   </g>
   <g id="cell189">
  <circle cx="425.247" cy="533.052" r="6.32393" stroke-width="0.5" stroke="black" fill="green"/>
  <circle cx="425.247" cy="533.052" r="3.87972" stroke-width="0.5" stroke="black" fill="green"/>
   </g>
   <g id="cell190">
  <circle cx="431.756" cy="401.474" r="7.04275" stroke-width="0.5" stroke="black" fill="green"/>
  <circle cx="431.756" cy="401.474" r="4.27358" stroke-width="0.5" stroke="black" fill="green"/>
   </g>
   <g id="cell191">
  <circle cx="478.067" cy="435.294" r="6.36905" stroke-width="0.5" stroke="black" fill="magenta"/>
  <circle cx="478.067" cy="435.294" r="3.92035" stroke-width="0.5" stroke="black" fill="magenta"/>
   </g>
   <g id="cell192">
  <circle cx="611.228" cy="512.426" r="6.11877" stroke-width="0.5" stroke="black" fill="cyan"/>
  <circle cx="611.228" cy="512.426" r="3.74903" stroke-width="0.5" stroke="black" fill="cyan"/>
   </g>
   <g id="cell193">
  <circle cx="587.216" cy="472.174" r="6.92087" stroke-width="0.5" stroke="black" fill="cyan"/>
  <circle cx="587.216" cy="472.174" r="4.18958" stroke-width="0.5" stroke="black" fill="cyan"/>
   </g>
   <g id="cell194">
  <circle cx="447.465" cy="623.791" r="6.89404" stroke-width="0.5" stroke="black" fill="magenta"/>
  <circle cx="447.465" cy="623.791" r="4.16945" stroke-width="0.5" stroke="black" fill="magenta"/>
   </g>
   <g id="cell195">
  <circle cx="563.872" cy="524.84" r="6.8208" stroke-width="0.5" stroke="black" fill="cyan"/>
  <circle cx="563.872" cy="524.84" r="4.12206" stroke-width="0.5" stroke="black" fill="cyan"/>
   </g>
   <g id="cell196">
  <circle cx="508.255" cy="507.077" r="6.38865" stroke-width="0.5" stroke="black" fill="cyan"/>
  <circle cx="508.255" cy="507.077" r="3.90053" stroke-width="0.5" stroke="black" fill="cyan"/>
   </g>
  </g>
 </g>
  <rect x="775" y="1035" width="200" height="10" stroke-width="2" stroke="rgb(255,255,255)" fill="rgb(0,0,0)"/>
  <text x="781.25" y="1028.75"
   font-family="Arial" font-size="25" fill="black" >
   200 &#956;m
  </text>
  <text x="25" y="1045"
   font-family="Arial" font-size="18.75" fill="black" >
   0 days, 0 hours, 0 minutes, and 46.0288 seconds
  </text>
  <rect x="0" y="70" width="1000" height="1000" stroke-width="2" stroke="rgb(0,0,0)" fill="none"/>
</svg>
