<?xml version="1.0" encoding="UTF-8" standalone="no"?>
<!-- Created with PhysiCell (http://PhysiCell.MathCancer.org/) -->
<svg 
 xmlns:dc="http://purl.org/dc/elements/1.1/" 
 xmlns:cc="http://creativecommons.org/ns#" 
 xmlns:rdf="http://www.w3.org/1999/02/22-rdf-syntax-ns#" 
 xmlns:svg="http://www.w3.org/2000/svg" 
 xmlns="http://www.w3.org/2000/svg" 
 version="1.1" 
 width="1000" 
 height="1070" 
 id="svg2">
  <rect x="0" y="0" width="1000" height="1070" stroke-width="2" stroke="white" fill="white"/>
  <text x="12.5" y="30"
   font-family="Arial" font-size="25" fill="black" >
   Current time: 0 days, 8 hours, and 30.00 minutes, z = 0.00 &#956;m
  </text>
  <text x="12.5" y="57.5"
   font-family="Arial" font-size="23.75" fill="black" >
   103 agents
  </text>
 <g id="tissue" 
    transform="translate(0,1070) scale(1,-1)">
  <g id="ECM">
  </g>
  <g id="cells">
   <g id="cell0">
  <circle cx="521.202" cy="532.269" r="8.18177" stroke-width="0.5" stroke="black" fill="magenta"/>
  <circle cx="521.202" cy="532.269" r="4.94584" stroke-width="0.5" stroke="black" fill="magenta"/>
   </g>
   <g id="cell1">
  <circle cx="603.189" cy="527.859" r="8.41271" stroke-width="0.5" stroke="black" fill="magenta"/>
  <circle cx="603.189" cy="527.859" r="5.05167" stroke-width="0.5" stroke="black" fill="magenta"/>
   </g>
   <g id="cell2">
  <circle cx="510.774" cy="600.546" r="8.41271" stroke-width="0.5" stroke="black" fill="magenta"/>
  <circle cx="510.774" cy="600.546" r="5.05167" stroke-width="0.5" stroke="black" fill="magenta"/>
   </g>
   <g id="cell3">
  <circle cx="530.995" cy="543.512" r="8.41271" stroke-width="0.5" stroke="black" fill="magenta"/>
  <circle cx="530.995" cy="543.512" r="5.05167" stroke-width="0.5" stroke="black" fill="magenta"/>
   </g>
   <g id="cell4">
  <circle cx="472.791" cy="441.622" r="8.20689" stroke-width="0.5" stroke="black" fill="magenta"/>
  <circle cx="472.791" cy="441.622" r="4.95867" stroke-width="0.5" stroke="black" fill="magenta"/>
   </g>
   <g id="cell5">
  <circle cx="465.394" cy="493.526" r="8.41271" stroke-width="0.5" stroke="black" fill="magenta"/>
  <circle cx="465.394" cy="493.526" r="5.05167" stroke-width="0.5" stroke="black" fill="magenta"/>
   </g>
   <g id="cell6">
  <circle cx="596.968" cy="514.844" r="7.63698" stroke-width="0.5" stroke="black" fill="magenta"/>
  <circle cx="596.968" cy="514.844" r="4.64085" stroke-width="0.5" stroke="black" fill="magenta"/>
   </g>
   <g id="cell7">
  <circle cx="512.299" cy="464.845" r="8.41271" stroke-width="0.5" stroke="black" fill="magenta"/>
  <circle cx="512.299" cy="464.845" r="5.05167" stroke-width="0.5" stroke="black" fill="magenta"/>
   </g>
   <g id="cell8">
  <circle cx="376.306" cy="547.119" r="8.41271" stroke-width="0.5" stroke="black" fill="magenta"/>
  <circle cx="376.306" cy="547.119" r="5.05167" stroke-width="0.5" stroke="black" fill="magenta"/>
   </g>
   <g id="cell9">
  <circle cx="465.223" cy="601.227" r="7.59183" stroke-width="0.5" stroke="black" fill="magenta"/>
  <circle cx="465.223" cy="601.227" r="4.61399" stroke-width="0.5" stroke="black" fill="magenta"/>
   </g>
   <g id="cell10">
  <circle cx="583.447" cy="392.105" r="8.41271" stroke-width="0.5" stroke="black" fill="magenta"/>
  <circle cx="583.447" cy="392.105" r="5.05167" stroke-width="0.5" stroke="black" fill="magenta"/>
   </g>
   <g id="cell11">
  <circle cx="589.748" cy="590.273" r="8.41271" stroke-width="0.5" stroke="black" fill="magenta"/>
  <circle cx="589.748" cy="590.273" r="5.05167" stroke-width="0.5" stroke="black" fill="magenta"/>
   </g>
   <g id="cell12">
  <circle cx="506.641" cy="585.978" r="8.41271" stroke-width="0.5" stroke="black" fill="magenta"/>
  <circle cx="506.641" cy="585.978" r="5.05167" stroke-width="0.5" stroke="black" fill="magenta"/>
   </g>
   <g id="cell13">
  <circle cx="380.741" cy="560.948" r="7.75912" stroke-width="0.5" stroke="black" fill="magenta"/>
  <circle cx="380.741" cy="560.948" r="4.71248" stroke-width="0.5" stroke="black" fill="magenta"/>
   </g>
   <g id="cell14">
  <circle cx="525.551" cy="401.432" r="8.41271" stroke-width="0.5" stroke="black" fill="magenta"/>
  <circle cx="525.551" cy="401.432" r="5.05167" stroke-width="0.5" stroke="black" fill="magenta"/>
   </g>
   <g id="cell15">
  <circle cx="385.134" cy="478.218" r="8.1947" stroke-width="0.5" stroke="black" fill="magenta"/>
  <circle cx="385.134" cy="478.218" r="4.95246" stroke-width="0.5" stroke="black" fill="magenta"/>
   </g>
   <g id="cell16">
  <circle cx="428.96" cy="413.217" r="8.41271" stroke-width="0.5" stroke="black" fill="magenta"/>
  <circle cx="428.96" cy="413.217" r="5.05167" stroke-width="0.5" stroke="black" fill="magenta"/>
   </g>
   <g id="cell17">
  <circle cx="579.026" cy="486.901" r="6.80881" stroke-width="0.5" stroke="black" fill="magenta"/>
  <circle cx="579.026" cy="486.901" r="4.10709" stroke-width="0.5" stroke="black" fill="magenta"/>
   </g>
   <g id="cell18">
  <circle cx="512.501" cy="394.029" r="8.21839" stroke-width="0.5" stroke="black" fill="magenta"/>
  <circle cx="512.501" cy="394.029" r="4.96448" stroke-width="0.5" stroke="black" fill="magenta"/>
   </g>
   <g id="cell19">
  <circle cx="447.751" cy="533.365" r="7.33129" stroke-width="0.5" stroke="black" fill="magenta"/>
  <circle cx="447.751" cy="533.365" r="4.45516" stroke-width="0.5" stroke="black" fill="magenta"/>
   </g>
   <g id="cell20">
  <circle cx="528.803" cy="416.227" r="8.41271" stroke-width="0.5" stroke="black" fill="magenta"/>
  <circle cx="528.803" cy="416.227" r="5.05167" stroke-width="0.5" stroke="black" fill="magenta"/>
   </g>
   <g id="cell21">
  <circle cx="466.14" cy="637.68" r="6.73287" stroke-width="0.5" stroke="black" fill="magenta"/>
  <circle cx="466.14" cy="637.68" r="4.05039" stroke-width="0.5" stroke="black" fill="magenta"/>
   </g>
   <g id="cell22">
  <circle cx="557.073" cy="496.271" r="6.8826" stroke-width="0.5" stroke="black" fill="magenta"/>
  <circle cx="557.073" cy="496.271" r="4.2015" stroke-width="0.5" stroke="black" fill="magenta"/>
   </g>
   <g id="cell23">
  <circle cx="538.351" cy="480.778" r="8.41271" stroke-width="0.5" stroke="black" fill="magenta"/>
  <circle cx="538.351" cy="480.778" r="5.05167" stroke-width="0.5" stroke="black" fill="magenta"/>
   </g>
   <g id="cell24">
  <circle cx="559.288" cy="379.787" r="8.41271" stroke-width="0.5" stroke="black" fill="magenta"/>
  <circle cx="559.288" cy="379.787" r="5.05167" stroke-width="0.5" stroke="black" fill="magenta"/>
   </g>
   <g id="cell25">
  <circle cx="640.943" cy="550.03" r="8.41271" stroke-width="0.5" stroke="black" fill="green"/>
  <circle cx="640.943" cy="550.03" r="5.05167" stroke-width="0.5" stroke="black" fill="green"/>
   </g>
   <g id="cell26">
  <circle cx="550.641" cy="401.23" r="8.41271" stroke-width="0.5" stroke="black" fill="green"/>
  <circle cx="550.641" cy="401.23" r="5.05167" stroke-width="0.5" stroke="black" fill="green"/>
   </g>
   <g id="cell27">
  <circle cx="457.446" cy="388.678" r="8.41271" stroke-width="0.5" stroke="black" fill="green"/>
  <circle cx="457.446" cy="388.678" r="5.05167" stroke-width="0.5" stroke="black" fill="green"/>
   </g>
   <g id="cell28">
  <circle cx="433.173" cy="533.66" r="8.41271" stroke-width="0.5" stroke="black" fill="green"/>
  <circle cx="433.173" cy="533.66" r="5.05167" stroke-width="0.5" stroke="black" fill="green"/>
   </g>
   <g id="cell29">
  <circle cx="456.038" cy="522.147" r="7.72056" stroke-width="0.5" stroke="black" fill="green"/>
  <circle cx="456.038" cy="522.147" r="4.69003" stroke-width="0.5" stroke="black" fill="green"/>
   </g>
   <g id="cell30">
  <circle cx="481.58" cy="540.282" r="8.41271" stroke-width="0.5" stroke="black" fill="green"/>
  <circle cx="481.58" cy="540.282" r="5.05167" stroke-width="0.5" stroke="black" fill="green"/>
   </g>
   <g id="cell31">
  <circle cx="412.349" cy="539.617" r="8.41271" stroke-width="0.5" stroke="black" fill="green"/>
  <circle cx="412.349" cy="539.617" r="5.05167" stroke-width="0.5" stroke="black" fill="green"/>
   </g>
   <g id="cell32">
  <circle cx="428.244" cy="471.087" r="7.81315" stroke-width="0.5" stroke="black" fill="green"/>
  <circle cx="428.244" cy="471.087" r="4.74367" stroke-width="0.5" stroke="black" fill="green"/>
   </g>
   <g id="cell33">
  <circle cx="498.8" cy="413.269" r="7.89373" stroke-width="0.5" stroke="black" fill="green"/>
  <circle cx="498.8" cy="413.269" r="4.78957" stroke-width="0.5" stroke="black" fill="green"/>
   </g>
   <g id="cell34">
  <circle cx="392.02" cy="453.301" r="7.75912" stroke-width="0.5" stroke="black" fill="green"/>
  <circle cx="392.02" cy="453.301" r="4.71248" stroke-width="0.5" stroke="black" fill="green"/>
   </g>
   <g id="cell35">
  <circle cx="546.43" cy="544.506" r="8.41271" stroke-width="0.5" stroke="black" fill="green"/>
  <circle cx="546.43" cy="544.506" r="5.05167" stroke-width="0.5" stroke="black" fill="green"/>
   </g>
   <g id="cell36">
  <circle cx="390.953" cy="585.056" r="8.41271" stroke-width="0.5" stroke="black" fill="green"/>
  <circle cx="390.953" cy="585.056" r="5.05167" stroke-width="0.5" stroke="black" fill="green"/>
   </g>
   <g id="cell37">
  <circle cx="634.871" cy="460.618" r="8.41271" stroke-width="0.5" stroke="black" fill="green"/>
  <circle cx="634.871" cy="460.618" r="5.05167" stroke-width="0.5" stroke="black" fill="green"/>
   </g>
   <g id="cell38">
  <circle cx="532.314" cy="602.746" r="7.38797" stroke-width="0.5" stroke="black" fill="green"/>
  <circle cx="532.314" cy="602.746" r="4.49029" stroke-width="0.5" stroke="black" fill="green"/>
   </g>
   <g id="cell39">
  <circle cx="617.442" cy="494.341" r="8.16806" stroke-width="0.5" stroke="black" fill="green"/>
  <circle cx="617.442" cy="494.341" r="4.93877" stroke-width="0.5" stroke="black" fill="green"/>
   </g>
   <g id="cell40">
  <circle cx="485.348" cy="571.779" r="8.41271" stroke-width="0.5" stroke="black" fill="green"/>
  <circle cx="485.348" cy="571.779" r="5.05167" stroke-width="0.5" stroke="black" fill="green"/>
   </g>
   <g id="cell41">
  <circle cx="364.211" cy="480.301" r="8.41271" stroke-width="0.5" stroke="black" fill="green"/>
  <circle cx="364.211" cy="480.301" r="5.05167" stroke-width="0.5" stroke="black" fill="green"/>
   </g>
   <g id="cell42">
  <circle cx="451.609" cy="488.137" r="7.51702" stroke-width="0.5" stroke="black" fill="green"/>
  <circle cx="451.609" cy="488.137" r="4.58922" stroke-width="0.5" stroke="black" fill="green"/>
   </g>
   <g id="cell43">
  <circle cx="558.057" cy="445.575" r="8.41271" stroke-width="0.5" stroke="black" fill="green"/>
  <circle cx="558.057" cy="445.575" r="5.05167" stroke-width="0.5" stroke="black" fill="green"/>
   </g>
   <g id="cell44">
  <circle cx="475.935" cy="628.645" r="7.70049" stroke-width="0.5" stroke="black" fill="green"/>
  <circle cx="475.935" cy="628.645" r="4.67828" stroke-width="0.5" stroke="black" fill="green"/>
   </g>
   <g id="cell45">
  <circle cx="416.275" cy="553.457" r="6.80881" stroke-width="0.5" stroke="black" fill="green"/>
  <circle cx="416.275" cy="553.457" r="4.10709" stroke-width="0.5" stroke="black" fill="green"/>
   </g>
   <g id="cell46">
  <circle cx="520.892" cy="612.419" r="8.41271" stroke-width="0.5" stroke="black" fill="green"/>
  <circle cx="520.892" cy="612.419" r="5.05167" stroke-width="0.5" stroke="black" fill="green"/>
   </g>
   <g id="cell47">
  <circle cx="504.489" cy="510.897" r="8.41271" stroke-width="0.5" stroke="black" fill="green"/>
  <circle cx="504.489" cy="510.897" r="5.05167" stroke-width="0.5" stroke="black" fill="green"/>
   </g>
   <g id="cell48">
  <circle cx="564.576" cy="602.729" r="8.41271" stroke-width="0.5" stroke="black" fill="green"/>
  <circle cx="564.576" cy="602.729" r="5.05167" stroke-width="0.5" stroke="black" fill="green"/>
   </g>
   <g id="cell49">
  <circle cx="429.826" cy="397.641" r="8.41271" stroke-width="0.5" stroke="black" fill="green"/>
  <circle cx="429.826" cy="397.641" r="5.05167" stroke-width="0.5" stroke="black" fill="green"/>
   </g>
   <g id="cell50">
  <circle cx="519.035" cy="517.1" r="8.41271" stroke-width="0.5" stroke="black" fill="cyan"/>
  <circle cx="519.035" cy="517.1" r="5.05167" stroke-width="0.5" stroke="black" fill="cyan"/>
   </g>
   <g id="cell51">
  <circle cx="399.508" cy="598.559" r="8.41271" stroke-width="0.5" stroke="black" fill="cyan"/>
  <circle cx="399.508" cy="598.559" r="5.05167" stroke-width="0.5" stroke="black" fill="cyan"/>
   </g>
   <g id="cell52">
  <circle cx="524.562" cy="425.572" r="2.72971" stroke-width="0.5" stroke="black" fill="cyan"/>
  <circle cx="524.562" cy="425.572" r="2.33853" stroke-width="0.5" stroke="black" fill="black"/>
   </g>
   <g id="cell53">
  <circle cx="571.026" cy="436.197" r="8.41271" stroke-width="0.5" stroke="black" fill="cyan"/>
  <circle cx="571.026" cy="436.197" r="5.05167" stroke-width="0.5" stroke="black" fill="cyan"/>
   </g>
   <g id="cell54">
  <circle cx="479.22" cy="427.623" r="8.41271" stroke-width="0.5" stroke="black" fill="cyan"/>
  <circle cx="479.22" cy="427.623" r="5.05167" stroke-width="0.5" stroke="black" fill="cyan"/>
   </g>
   <g id="cell55">
  <circle cx="526.583" cy="470.825" r="8.41271" stroke-width="0.5" stroke="black" fill="cyan"/>
  <circle cx="526.583" cy="470.825" r="5.05167" stroke-width="0.5" stroke="black" fill="cyan"/>
   </g>
   <g id="cell56">
  <circle cx="617.758" cy="522.289" r="8.41271" stroke-width="0.5" stroke="black" fill="cyan"/>
  <circle cx="617.758" cy="522.289" r="5.05167" stroke-width="0.5" stroke="black" fill="cyan"/>
   </g>
   <g id="cell57">
  <circle cx="416.924" cy="617.466" r="8.41271" stroke-width="0.5" stroke="black" fill="cyan"/>
  <circle cx="416.924" cy="617.466" r="5.05167" stroke-width="0.5" stroke="black" fill="cyan"/>
   </g>
   <g id="cell58">
  <circle cx="553.855" cy="482.351" r="8.41271" stroke-width="0.5" stroke="black" fill="cyan"/>
  <circle cx="553.855" cy="482.351" r="5.05167" stroke-width="0.5" stroke="black" fill="cyan"/>
   </g>
   <g id="cell59">
  <circle cx="385.298" cy="439.469" r="8.41271" stroke-width="0.5" stroke="black" fill="cyan"/>
  <circle cx="385.298" cy="439.469" r="5.05167" stroke-width="0.5" stroke="black" fill="cyan"/>
   </g>
   <g id="cell60">
  <circle cx="593.523" cy="474.263" r="8.41271" stroke-width="0.5" stroke="black" fill="cyan"/>
  <circle cx="593.523" cy="474.263" r="5.05167" stroke-width="0.5" stroke="black" fill="cyan"/>
   </g>
   <g id="cell61">
  <circle cx="552.564" cy="613.283" r="8.41271" stroke-width="0.5" stroke="black" fill="cyan"/>
  <circle cx="552.564" cy="613.283" r="5.05167" stroke-width="0.5" stroke="black" fill="cyan"/>
   </g>
   <g id="cell62">
  <circle cx="526.214" cy="443.738" r="8.41271" stroke-width="0.5" stroke="black" fill="cyan"/>
  <circle cx="526.214" cy="443.738" r="5.05167" stroke-width="0.5" stroke="black" fill="cyan"/>
   </g>
   <g id="cell63">
  <circle cx="580.167" cy="551.994" r="7.38797" stroke-width="0.5" stroke="black" fill="cyan"/>
  <circle cx="580.167" cy="551.994" r="4.49029" stroke-width="0.5" stroke="black" fill="cyan"/>
   </g>
   <g id="cell64">
  <circle cx="509.962" cy="636.825" r="8.41271" stroke-width="0.5" stroke="black" fill="cyan"/>
  <circle cx="509.962" cy="636.825" r="5.05167" stroke-width="0.5" stroke="black" fill="cyan"/>
   </g>
   <g id="cell65">
  <circle cx="536.434" cy="459.683" r="7.33129" stroke-width="0.5" stroke="black" fill="cyan"/>
  <circle cx="536.434" cy="459.683" r="4.45516" stroke-width="0.5" stroke="black" fill="cyan"/>
   </g>
   <g id="cell66">
  <circle cx="536.296" cy="528.826" r="8.41271" stroke-width="0.5" stroke="black" fill="cyan"/>
  <circle cx="536.296" cy="528.826" r="5.05167" stroke-width="0.5" stroke="black" fill="cyan"/>
   </g>
   <g id="cell67">
  <circle cx="354.399" cy="492.978" r="8.41271" stroke-width="0.5" stroke="black" fill="cyan"/>
  <circle cx="354.399" cy="492.978" r="5.05167" stroke-width="0.5" stroke="black" fill="cyan"/>
   </g>
   <g id="cell68">
  <circle cx="559.92" cy="552.768" r="8.41271" stroke-width="0.5" stroke="black" fill="cyan"/>
  <circle cx="559.92" cy="552.768" r="5.05167" stroke-width="0.5" stroke="black" fill="cyan"/>
   </g>
   <g id="cell69">
  <circle cx="436.021" cy="458.034" r="8.2239" stroke-width="0.5" stroke="black" fill="cyan"/>
  <circle cx="436.021" cy="458.034" r="4.96725" stroke-width="0.5" stroke="black" fill="cyan"/>
   </g>
   <g id="cell70">
  <circle cx="577.57" cy="472.936" r="8.41271" stroke-width="0.5" stroke="black" fill="cyan"/>
  <circle cx="577.57" cy="472.936" r="5.05167" stroke-width="0.5" stroke="black" fill="cyan"/>
   </g>
   <g id="cell71">
  <circle cx="377.712" cy="520.989" r="8.41271" stroke-width="0.5" stroke="black" fill="cyan"/>
  <circle cx="377.712" cy="520.989" r="5.05167" stroke-width="0.5" stroke="black" fill="cyan"/>
   </g>
   <g id="cell72">
  <circle cx="534.305" cy="512.835" r="8.41271" stroke-width="0.5" stroke="black" fill="cyan"/>
  <circle cx="534.305" cy="512.835" r="5.05167" stroke-width="0.5" stroke="black" fill="cyan"/>
   </g>
   <g id="cell73">
  <circle cx="360.761" cy="545.946" r="8.41271" stroke-width="0.5" stroke="black" fill="cyan"/>
  <circle cx="360.761" cy="545.946" r="5.05167" stroke-width="0.5" stroke="black" fill="cyan"/>
   </g>
   <g id="cell74">
  <circle cx="542.082" cy="445.928" r="8.41271" stroke-width="0.5" stroke="black" fill="cyan"/>
  <circle cx="542.082" cy="445.928" r="5.05167" stroke-width="0.5" stroke="black" fill="cyan"/>
   </g>
   <g id="cell75">
  <circle cx="443.453" cy="471.879" r="8.2239" stroke-width="0.5" stroke="black" fill="cyan"/>
  <circle cx="443.453" cy="471.879" r="4.96725" stroke-width="0.5" stroke="black" fill="cyan"/>
   </g>
   <g id="cell76">
  <circle cx="524.589" cy="387.557" r="7.08033" stroke-width="0.5" stroke="black" fill="magenta"/>
  <circle cx="524.589" cy="387.557" r="4.31973" stroke-width="0.5" stroke="black" fill="magenta"/>
   </g>
   <g id="cell77">
  <circle cx="487.509" cy="440.652" r="8.20689" stroke-width="0.5" stroke="black" fill="magenta"/>
  <circle cx="487.509" cy="440.652" r="4.95867" stroke-width="0.5" stroke="black" fill="magenta"/>
   </g>
   <g id="cell78">
  <circle cx="374.067" cy="468.488" r="8.1947" stroke-width="0.5" stroke="black" fill="magenta"/>
  <circle cx="374.067" cy="468.488" r="4.95246" stroke-width="0.5" stroke="black" fill="magenta"/>
   </g>
   <g id="cell79">
  <circle cx="507.348" cy="526.863" r="8.18177" stroke-width="0.5" stroke="black" fill="magenta"/>
  <circle cx="507.348" cy="526.863" r="4.94584" stroke-width="0.5" stroke="black" fill="magenta"/>
   </g>
   <g id="cell80">
  <circle cx="606.081" cy="483.772" r="8.16806" stroke-width="0.5" stroke="black" fill="green"/>
  <circle cx="606.081" cy="483.772" r="4.93877" stroke-width="0.5" stroke="black" fill="green"/>
   </g>
   <g id="cell81">
  <circle cx="425.651" cy="499.846" r="8.13813" stroke-width="0.5" stroke="black" fill="green"/>
  <circle cx="425.651" cy="499.846" r="4.92317" stroke-width="0.5" stroke="black" fill="green"/>
   </g>
   <g id="cell82">
  <circle cx="543.93" cy="494.368" r="8.1218" stroke-width="0.5" stroke="black" fill="magenta"/>
  <circle cx="543.93" cy="494.368" r="4.91457" stroke-width="0.5" stroke="black" fill="magenta"/>
   </g>
   <g id="cell83">
  <circle cx="494.728" cy="427.657" r="7.89373" stroke-width="0.5" stroke="black" fill="green"/>
  <circle cx="494.728" cy="427.657" r="4.78957" stroke-width="0.5" stroke="black" fill="green"/>
   </g>
   <g id="cell84">
  <circle cx="418.083" cy="481.83" r="7.81315" stroke-width="0.5" stroke="black" fill="green"/>
  <circle cx="418.083" cy="481.83" r="4.74367" stroke-width="0.5" stroke="black" fill="green"/>
   </g>
   <g id="cell85">
  <circle cx="405.52" cy="447.389" r="7.75912" stroke-width="0.5" stroke="black" fill="green"/>
  <circle cx="405.52" cy="447.389" r="4.71248" stroke-width="0.5" stroke="black" fill="green"/>
   </g>
   <g id="cell86">
  <circle cx="391.234" cy="570.102" r="7.75912" stroke-width="0.5" stroke="black" fill="magenta"/>
  <circle cx="391.234" cy="570.102" r="4.71248" stroke-width="0.5" stroke="black" fill="magenta"/>
   </g>
   <g id="cell87">
  <circle cx="441.493" cy="520.835" r="7.72056" stroke-width="0.5" stroke="black" fill="green"/>
  <circle cx="441.493" cy="520.835" r="4.69003" stroke-width="0.5" stroke="black" fill="green"/>
   </g>
   <g id="cell88">
  <circle cx="479.026" cy="614.409" r="7.70049" stroke-width="0.5" stroke="black" fill="green"/>
  <circle cx="479.026" cy="614.409" r="4.67828" stroke-width="0.5" stroke="black" fill="green"/>
   </g>
   <g id="cell89">
  <circle cx="438.099" cy="490.721" r="5.98592" stroke-width="0.5" stroke="black" fill="green"/>
  <circle cx="438.099" cy="490.721" r="3.65578" stroke-width="0.5" stroke="black" fill="green"/>
   </g>
   <g id="cell90">
  <circle cx="590.136" cy="502.921" r="7.63698" stroke-width="0.5" stroke="black" fill="magenta"/>
  <circle cx="590.136" cy="502.921" r="4.64085" stroke-width="0.5" stroke="black" fill="magenta"/>
   </g>
   <g id="cell91">
  <circle cx="452.115" cy="597.363" r="7.59183" stroke-width="0.5" stroke="black" fill="magenta"/>
  <circle cx="452.115" cy="597.363" r="4.61399" stroke-width="0.5" stroke="black" fill="magenta"/>
   </g>
   <g id="cell92">
  <circle cx="545.727" cy="598.752" r="7.38797" stroke-width="0.5" stroke="black" fill="green"/>
  <circle cx="545.727" cy="598.752" r="4.49029" stroke-width="0.5" stroke="black" fill="green"/>
   </g>
   <g id="cell93">
  <circle cx="574.945" cy="534.155" r="5.96599" stroke-width="0.5" stroke="black" fill="cyan"/>
  <circle cx="574.945" cy="534.155" r="3.63642" stroke-width="0.5" stroke="black" fill="cyan"/>
   </g>
   <g id="cell94">
  <circle cx="546.759" cy="468.99" r="7.33129" stroke-width="0.5" stroke="black" fill="cyan"/>
  <circle cx="546.759" cy="468.99" r="4.45516" stroke-width="0.5" stroke="black" fill="cyan"/>
   </g>
   <g id="cell95">
  <circle cx="460.807" cy="535.234" r="7.33129" stroke-width="0.5" stroke="black" fill="magenta"/>
  <circle cx="460.807" cy="535.234" r="4.45516" stroke-width="0.5" stroke="black" fill="magenta"/>
   </g>
   <g id="cell96">
  <circle cx="533.349" cy="378.387" r="7.08033" stroke-width="0.5" stroke="black" fill="magenta"/>
  <circle cx="533.349" cy="378.387" r="4.31973" stroke-width="0.5" stroke="black" fill="magenta"/>
   </g>
   <g id="cell97">
  <circle cx="565.773" cy="505.153" r="6.8826" stroke-width="0.5" stroke="black" fill="magenta"/>
  <circle cx="565.773" cy="505.153" r="4.2015" stroke-width="0.5" stroke="black" fill="magenta"/>
   </g>
   <g id="cell98">
  <circle cx="413.339" cy="565.983" r="6.80881" stroke-width="0.5" stroke="black" fill="green"/>
  <circle cx="413.339" cy="565.983" r="4.10709" stroke-width="0.5" stroke="black" fill="green"/>
   </g>
   <g id="cell99">
  <circle cx="568.769" cy="493.256" r="6.80881" stroke-width="0.5" stroke="black" fill="magenta"/>
  <circle cx="568.769" cy="493.256" r="4.10709" stroke-width="0.5" stroke="black" fill="magenta"/>
   </g>
   <g id="cell100">
  <circle cx="570.273" cy="544.263" r="5.96599" stroke-width="0.5" stroke="black" fill="cyan"/>
  <circle cx="570.273" cy="544.263" r="3.63642" stroke-width="0.5" stroke="black" fill="cyan"/>
   </g>
   <g id="cell101">
  <circle cx="455.292" cy="632.33" r="6.73287" stroke-width="0.5" stroke="black" fill="magenta"/>
  <circle cx="455.292" cy="632.33" r="4.05039" stroke-width="0.5" stroke="black" fill="magenta"/>
   </g>
   <g id="cell102">
  <circle cx="441.405" cy="501.47" r="5.98592" stroke-width="0.5" stroke="black" fill="green"/>
  <circle cx="441.405" cy="501.47" r="3.65578" stroke-width="0.5" stroke="black" fill="green"/>
   </g>
  </g>
 </g>
  <rect x="775" y="1035" width="200" height="10" stroke-width="2" stroke="rgb(255,255,255)" fill="rgb(0,0,0)"/>
  <text x="781.25" y="1028.75"
   font-family="Arial" font-size="25" fill="black" >
   200 &#956;m
  </text>
  <text x="25" y="1045"
   font-family="Arial" font-size="18.75" fill="black" >
   0 days, 0 hours, 0 minutes, and 11.2740 seconds
  </text>
  <rect x="0" y="70" width="1000" height="1000" stroke-width="2" stroke="rgb(0,0,0)" fill="none"/>
</svg>
