<?xml version="1.0" encoding="UTF-8" standalone="no"?>
<!-- Created with PhysiCell (http://PhysiCell.MathCancer.org/) -->
<svg 
 xmlns:dc="http://purl.org/dc/elements/1.1/" 
 xmlns:cc="http://creativecommons.org/ns#" 
 xmlns:rdf="http://www.w3.org/1999/02/22-rdf-syntax-ns#" 
 xmlns:svg="http://www.w3.org/2000/svg" 
 xmlns="http://www.w3.org/2000/svg" 
 version="1.1" 
 width="1000" 
 height="1070" 
 id="svg2">
  <rect x="0" y="0" width="1000" height="1070" stroke-width="2" stroke="white" fill="white"/>
  <text x="12.5" y="30"
   font-family="Arial" font-size="25" fill="black" >
   Current time: 0 days, 19 hours, and 0.00 minutes, z = 0.00 &#956;m
  </text>
  <text x="12.5" y="57.5"
   font-family="Arial" font-size="23.75" fill="black" >
   133 agents
  </text>
 <g id="tissue" 
    transform="translate(0,1070) scale(1,-1)">
  <g id="ECM">
  </g>
  <g id="cells">
   <g id="cell0">
  <circle cx="518.211" cy="532.388" r="8.4009" stroke-width="0.5" stroke="black" fill="magenta"/>
  <circle cx="518.211" cy="532.388" r="5.04788" stroke-width="0.5" stroke="black" fill="magenta"/>
   </g>
   <g id="cell1">
  <circle cx="600.435" cy="520.589" r="2.04991" stroke-width="0.5" stroke="black" fill="magenta"/>
  <circle cx="600.435" cy="520.589" r="1.93256" stroke-width="0.5" stroke="black" fill="black"/>
   </g>
   <g id="cell2">
  <circle cx="511.689" cy="600.651" r="6.75639" stroke-width="0.5" stroke="black" fill="magenta"/>
  <circle cx="511.689" cy="600.651" r="4.06813" stroke-width="0.5" stroke="black" fill="magenta"/>
   </g>
   <g id="cell3">
  <circle cx="532.018" cy="538.877" r="8.41271" stroke-width="0.5" stroke="black" fill="magenta"/>
  <circle cx="532.018" cy="538.877" r="5.05167" stroke-width="0.5" stroke="black" fill="magenta"/>
   </g>
   <g id="cell4">
  <circle cx="472.478" cy="440.407" r="8.40215" stroke-width="0.5" stroke="black" fill="magenta"/>
  <circle cx="472.478" cy="440.407" r="5.04833" stroke-width="0.5" stroke="black" fill="magenta"/>
   </g>
   <g id="cell5">
  <circle cx="465.7" cy="494.039" r="8.41271" stroke-width="0.5" stroke="black" fill="magenta"/>
  <circle cx="465.7" cy="494.039" r="5.05167" stroke-width="0.5" stroke="black" fill="magenta"/>
   </g>
   <g id="cell6">
  <circle cx="594.318" cy="513.45" r="8.37431" stroke-width="0.5" stroke="black" fill="magenta"/>
  <circle cx="594.318" cy="513.45" r="5.03754" stroke-width="0.5" stroke="black" fill="magenta"/>
   </g>
   <g id="cell7">
  <circle cx="511.986" cy="464.725" r="8.41271" stroke-width="0.5" stroke="black" fill="magenta"/>
  <circle cx="511.986" cy="464.725" r="5.05167" stroke-width="0.5" stroke="black" fill="magenta"/>
   </g>
   <g id="cell8">
  <circle cx="374.75" cy="547.565" r="8.41271" stroke-width="0.5" stroke="black" fill="magenta"/>
  <circle cx="374.75" cy="547.565" r="5.05167" stroke-width="0.5" stroke="black" fill="magenta"/>
   </g>
   <g id="cell9">
  <circle cx="464.024" cy="602.094" r="8.37208" stroke-width="0.5" stroke="black" fill="magenta"/>
  <circle cx="464.024" cy="602.094" r="5.03661" stroke-width="0.5" stroke="black" fill="magenta"/>
   </g>
   <g id="cell10">
  <circle cx="588.3" cy="391.398" r="7.18097" stroke-width="0.5" stroke="black" fill="magenta"/>
  <circle cx="588.3" cy="391.398" r="4.36015" stroke-width="0.5" stroke="black" fill="magenta"/>
   </g>
   <g id="cell11">
  <circle cx="589.748" cy="590.273" r="8.41271" stroke-width="0.5" stroke="black" fill="magenta"/>
  <circle cx="589.748" cy="590.273" r="5.05167" stroke-width="0.5" stroke="black" fill="magenta"/>
   </g>
   <g id="cell12">
  <circle cx="504.629" cy="584.201" r="8.41271" stroke-width="0.5" stroke="black" fill="magenta"/>
  <circle cx="504.629" cy="584.201" r="5.05167" stroke-width="0.5" stroke="black" fill="magenta"/>
   </g>
   <g id="cell13">
  <circle cx="378.873" cy="561.532" r="7.79438" stroke-width="0.5" stroke="black" fill="magenta"/>
  <circle cx="378.873" cy="561.532" r="4.73668" stroke-width="0.5" stroke="black" fill="magenta"/>
   </g>
   <g id="cell14">
  <circle cx="523.2" cy="398.743" r="6.83713" stroke-width="0.5" stroke="black" fill="magenta"/>
  <circle cx="523.2" cy="398.743" r="4.12773" stroke-width="0.5" stroke="black" fill="magenta"/>
   </g>
   <g id="cell15">
  <circle cx="382.291" cy="479.497" r="8.40154" stroke-width="0.5" stroke="black" fill="magenta"/>
  <circle cx="382.291" cy="479.497" r="5.04811" stroke-width="0.5" stroke="black" fill="magenta"/>
   </g>
   <g id="cell16">
  <circle cx="429.755" cy="414.397" r="8.41271" stroke-width="0.5" stroke="black" fill="magenta"/>
  <circle cx="429.755" cy="414.397" r="5.05167" stroke-width="0.5" stroke="black" fill="magenta"/>
   </g>
   <g id="cell17">
  <circle cx="585.843" cy="488.05" r="8.32543" stroke-width="0.5" stroke="black" fill="magenta"/>
  <circle cx="585.843" cy="488.05" r="5.01617" stroke-width="0.5" stroke="black" fill="magenta"/>
   </g>
   <g id="cell18">
  <circle cx="510.513" cy="393.779" r="8.40272" stroke-width="0.5" stroke="black" fill="magenta"/>
  <circle cx="510.513" cy="393.779" r="5.04853" stroke-width="0.5" stroke="black" fill="magenta"/>
   </g>
   <g id="cell19">
  <circle cx="447.97" cy="538.871" r="8.35882" stroke-width="0.5" stroke="black" fill="magenta"/>
  <circle cx="447.97" cy="538.871" r="5.031" stroke-width="0.5" stroke="black" fill="magenta"/>
   </g>
   <g id="cell20">
  <circle cx="528.423" cy="421.861" r="8.41271" stroke-width="0.5" stroke="black" fill="magenta"/>
  <circle cx="528.423" cy="421.861" r="5.05167" stroke-width="0.5" stroke="black" fill="magenta"/>
   </g>
   <g id="cell21">
  <circle cx="465.367" cy="637.12" r="1.46654" stroke-width="0.5" stroke="black" fill="magenta"/>
  <circle cx="465.367" cy="637.12" r="1.43886" stroke-width="0.5" stroke="black" fill="black"/>
   </g>
   <g id="cell22">
  <circle cx="557.813" cy="499.094" r="8.33761" stroke-width="0.5" stroke="black" fill="magenta"/>
  <circle cx="557.813" cy="499.094" r="5.02255" stroke-width="0.5" stroke="black" fill="magenta"/>
   </g>
   <g id="cell23">
  <circle cx="538.04" cy="481.519" r="8.41271" stroke-width="0.5" stroke="black" fill="magenta"/>
  <circle cx="538.04" cy="481.519" r="5.05167" stroke-width="0.5" stroke="black" fill="magenta"/>
   </g>
   <g id="cell24">
  <circle cx="559.584" cy="380.083" r="8.41271" stroke-width="0.5" stroke="black" fill="magenta"/>
  <circle cx="559.584" cy="380.083" r="5.05167" stroke-width="0.5" stroke="black" fill="magenta"/>
   </g>
   <g id="cell25">
  <circle cx="647.777" cy="559.433" r="8.11626" stroke-width="0.5" stroke="black" fill="green"/>
  <circle cx="647.777" cy="559.433" r="4.91828" stroke-width="0.5" stroke="black" fill="green"/>
   </g>
   <g id="cell26">
  <circle cx="550.642" cy="401.229" r="8.41271" stroke-width="0.5" stroke="black" fill="green"/>
  <circle cx="550.642" cy="401.229" r="5.05167" stroke-width="0.5" stroke="black" fill="green"/>
   </g>
   <g id="cell27">
  <circle cx="457.446" cy="388.678" r="8.41271" stroke-width="0.5" stroke="black" fill="green"/>
  <circle cx="457.446" cy="388.678" r="5.05167" stroke-width="0.5" stroke="black" fill="green"/>
   </g>
   <g id="cell28">
  <circle cx="432.656" cy="542.409" r="8.41271" stroke-width="0.5" stroke="black" fill="green"/>
  <circle cx="432.656" cy="542.409" r="5.05167" stroke-width="0.5" stroke="black" fill="green"/>
   </g>
   <g id="cell29">
  <circle cx="467.407" cy="520.99" r="8.04804" stroke-width="0.5" stroke="black" fill="green"/>
  <circle cx="467.407" cy="520.99" r="4.87827" stroke-width="0.5" stroke="black" fill="green"/>
   </g>
   <g id="cell30">
  <circle cx="477.704" cy="539.162" r="8.41271" stroke-width="0.5" stroke="black" fill="green"/>
  <circle cx="477.704" cy="539.162" r="5.05167" stroke-width="0.5" stroke="black" fill="green"/>
   </g>
   <g id="cell31">
  <circle cx="412.377" cy="538.351" r="8.41271" stroke-width="0.5" stroke="black" fill="green"/>
  <circle cx="412.377" cy="538.351" r="5.05167" stroke-width="0.5" stroke="black" fill="green"/>
   </g>
   <g id="cell32">
  <circle cx="430.585" cy="465.767" r="8.38291" stroke-width="0.5" stroke="black" fill="green"/>
  <circle cx="430.585" cy="465.767" r="5.04103" stroke-width="0.5" stroke="black" fill="green"/>
   </g>
   <g id="cell33">
  <circle cx="498.872" cy="413.234" r="8.38682" stroke-width="0.5" stroke="black" fill="green"/>
  <circle cx="498.872" cy="413.234" r="5.04258" stroke-width="0.5" stroke="black" fill="green"/>
   </g>
   <g id="cell34">
  <circle cx="392.091" cy="453.605" r="8.38028" stroke-width="0.5" stroke="black" fill="green"/>
  <circle cx="392.091" cy="453.605" r="5.03997" stroke-width="0.5" stroke="black" fill="green"/>
   </g>
   <g id="cell35">
  <circle cx="542.835" cy="550.109" r="8.27885" stroke-width="0.5" stroke="black" fill="green"/>
  <circle cx="542.835" cy="550.109" r="4.99429" stroke-width="0.5" stroke="black" fill="green"/>
   </g>
   <g id="cell36">
  <circle cx="396.121" cy="579.687" r="7.67987" stroke-width="0.5" stroke="black" fill="green"/>
  <circle cx="396.121" cy="579.687" r="4.66617" stroke-width="0.5" stroke="black" fill="green"/>
   </g>
   <g id="cell37">
  <circle cx="634.871" cy="460.618" r="8.41271" stroke-width="0.5" stroke="black" fill="green"/>
  <circle cx="634.871" cy="460.618" r="5.05167" stroke-width="0.5" stroke="black" fill="green"/>
   </g>
   <g id="cell38">
  <circle cx="527.286" cy="600.479" r="8.36178" stroke-width="0.5" stroke="black" fill="green"/>
  <circle cx="527.286" cy="600.479" r="5.03227" stroke-width="0.5" stroke="black" fill="green"/>
   </g>
   <g id="cell39">
  <circle cx="618.647" cy="495.408" r="8.40022" stroke-width="0.5" stroke="black" fill="green"/>
  <circle cx="618.647" cy="495.408" r="5.04764" stroke-width="0.5" stroke="black" fill="green"/>
   </g>
   <g id="cell40">
  <circle cx="485.352" cy="571.782" r="8.41271" stroke-width="0.5" stroke="black" fill="green"/>
  <circle cx="485.352" cy="571.782" r="5.05167" stroke-width="0.5" stroke="black" fill="green"/>
   </g>
   <g id="cell41">
  <circle cx="366.791" cy="481.169" r="8.41271" stroke-width="0.5" stroke="black" fill="green"/>
  <circle cx="366.791" cy="481.169" r="5.05167" stroke-width="0.5" stroke="black" fill="green"/>
   </g>
   <g id="cell42">
  <circle cx="452.154" cy="486.491" r="8.36937" stroke-width="0.5" stroke="black" fill="green"/>
  <circle cx="452.154" cy="486.491" r="5.0361" stroke-width="0.5" stroke="black" fill="green"/>
   </g>
   <g id="cell43">
  <circle cx="558.606" cy="445.801" r="8.41271" stroke-width="0.5" stroke="black" fill="green"/>
  <circle cx="558.606" cy="445.801" r="5.05167" stroke-width="0.5" stroke="black" fill="green"/>
   </g>
   <g id="cell44">
  <circle cx="477.309" cy="627.424" r="8.37742" stroke-width="0.5" stroke="black" fill="green"/>
  <circle cx="477.309" cy="627.424" r="5.03881" stroke-width="0.5" stroke="black" fill="green"/>
   </g>
   <g id="cell45">
  <circle cx="416.853" cy="553.663" r="8.32543" stroke-width="0.5" stroke="black" fill="green"/>
  <circle cx="416.853" cy="553.663" r="5.01617" stroke-width="0.5" stroke="black" fill="green"/>
   </g>
   <g id="cell46">
  <circle cx="517.778" cy="612.659" r="7.89373" stroke-width="0.5" stroke="black" fill="green"/>
  <circle cx="517.778" cy="612.659" r="4.78957" stroke-width="0.5" stroke="black" fill="green"/>
   </g>
   <g id="cell47">
  <circle cx="502.443" cy="510.368" r="8.41271" stroke-width="0.5" stroke="black" fill="green"/>
  <circle cx="502.443" cy="510.368" r="5.05167" stroke-width="0.5" stroke="black" fill="green"/>
   </g>
   <g id="cell48">
  <circle cx="564.67" cy="603.569" r="8.41271" stroke-width="0.5" stroke="black" fill="green"/>
  <circle cx="564.67" cy="603.569" r="5.05167" stroke-width="0.5" stroke="black" fill="green"/>
   </g>
   <g id="cell49">
  <circle cx="433.698" cy="394.618" r="7.24243" stroke-width="0.5" stroke="black" fill="green"/>
  <circle cx="433.698" cy="394.618" r="4.39934" stroke-width="0.5" stroke="black" fill="green"/>
   </g>
   <g id="cell50">
  <circle cx="517.049" cy="516.686" r="8.41271" stroke-width="0.5" stroke="black" fill="cyan"/>
  <circle cx="517.049" cy="516.686" r="5.05167" stroke-width="0.5" stroke="black" fill="cyan"/>
   </g>
   <g id="cell51">
  <circle cx="394.259" cy="600.341" r="7.38797" stroke-width="0.5" stroke="black" fill="cyan"/>
  <circle cx="394.259" cy="600.341" r="4.49029" stroke-width="0.5" stroke="black" fill="cyan"/>
   </g>
   <g id="cell120">
  <circle cx="418.314" cy="610.376" r="7.87851" stroke-width="0.5" stroke="black" fill="cyan"/>
  <circle cx="418.314" cy="610.376" r="4.78096" stroke-width="0.5" stroke="black" fill="cyan"/>
   </g>
   <g id="cell53">
  <circle cx="571.286" cy="436.003" r="8.41271" stroke-width="0.5" stroke="black" fill="cyan"/>
  <circle cx="571.286" cy="436.003" r="5.05167" stroke-width="0.5" stroke="black" fill="cyan"/>
   </g>
   <g id="cell54">
  <circle cx="476.15" cy="425.262" r="8.41271" stroke-width="0.5" stroke="black" fill="cyan"/>
  <circle cx="476.15" cy="425.262" r="5.05167" stroke-width="0.5" stroke="black" fill="cyan"/>
   </g>
   <g id="cell55">
  <circle cx="525.983" cy="471.628" r="8.41271" stroke-width="0.5" stroke="black" fill="cyan"/>
  <circle cx="525.983" cy="471.628" r="5.05167" stroke-width="0.5" stroke="black" fill="cyan"/>
   </g>
   <g id="cell56">
  <circle cx="615.793" cy="522.539" r="8.41271" stroke-width="0.5" stroke="black" fill="cyan"/>
  <circle cx="615.793" cy="522.539" r="5.05167" stroke-width="0.5" stroke="black" fill="cyan"/>
   </g>
   <g id="cell57">
  <circle cx="418.53" cy="625.274" r="7.87851" stroke-width="0.5" stroke="black" fill="cyan"/>
  <circle cx="418.53" cy="625.274" r="4.78096" stroke-width="0.5" stroke="black" fill="cyan"/>
   </g>
   <g id="cell58">
  <circle cx="553.257" cy="484.243" r="8.41271" stroke-width="0.5" stroke="black" fill="cyan"/>
  <circle cx="553.257" cy="484.243" r="5.05167" stroke-width="0.5" stroke="black" fill="cyan"/>
   </g>
   <g id="cell59">
  <circle cx="385.166" cy="439.19" r="8.41271" stroke-width="0.5" stroke="black" fill="cyan"/>
  <circle cx="385.166" cy="439.19" r="5.05167" stroke-width="0.5" stroke="black" fill="cyan"/>
   </g>
   <g id="cell60">
  <circle cx="588.377" cy="472.856" r="7.75912" stroke-width="0.5" stroke="black" fill="cyan"/>
  <circle cx="588.377" cy="472.856" r="4.71248" stroke-width="0.5" stroke="black" fill="cyan"/>
   </g>
   <g id="cell61">
  <circle cx="554.623" cy="614.976" r="3.3642" stroke-width="0.5" stroke="black" fill="cyan"/>
  <circle cx="554.623" cy="614.976" r="2.62376" stroke-width="0.5" stroke="black" fill="black"/>
   </g>
   <g id="cell62">
  <circle cx="526.641" cy="445.541" r="8.41271" stroke-width="0.5" stroke="black" fill="cyan"/>
  <circle cx="526.641" cy="445.541" r="5.05167" stroke-width="0.5" stroke="black" fill="cyan"/>
   </g>
   <g id="cell63">
  <circle cx="582.502" cy="553.294" r="8.36178" stroke-width="0.5" stroke="black" fill="cyan"/>
  <circle cx="582.502" cy="553.294" r="5.03227" stroke-width="0.5" stroke="black" fill="cyan"/>
   </g>
   <g id="cell64">
  <circle cx="513.733" cy="633.804" r="7.70049" stroke-width="0.5" stroke="black" fill="cyan"/>
  <circle cx="513.733" cy="633.804" r="4.67828" stroke-width="0.5" stroke="black" fill="cyan"/>
   </g>
   <g id="cell65">
  <circle cx="535.525" cy="458.821" r="8.35882" stroke-width="0.5" stroke="black" fill="cyan"/>
  <circle cx="535.525" cy="458.821" r="5.031" stroke-width="0.5" stroke="black" fill="cyan"/>
   </g>
   <g id="cell66">
  <circle cx="544.012" cy="529.52" r="7.90853" stroke-width="0.5" stroke="black" fill="cyan"/>
  <circle cx="544.012" cy="529.52" r="4.79791" stroke-width="0.5" stroke="black" fill="cyan"/>
   </g>
   <g id="cell67">
  <circle cx="355.152" cy="492.182" r="8.41271" stroke-width="0.5" stroke="black" fill="cyan"/>
  <circle cx="355.152" cy="492.182" r="5.05167" stroke-width="0.5" stroke="black" fill="cyan"/>
   </g>
   <g id="cell68">
  <circle cx="558.08" cy="555.328" r="8.41271" stroke-width="0.5" stroke="black" fill="cyan"/>
  <circle cx="558.08" cy="555.328" r="5.05167" stroke-width="0.5" stroke="black" fill="cyan"/>
   </g>
   <g id="cell69">
  <circle cx="437.309" cy="451.302" r="8.403" stroke-width="0.5" stroke="black" fill="cyan"/>
  <circle cx="437.309" cy="451.302" r="5.04863" stroke-width="0.5" stroke="black" fill="cyan"/>
   </g>
   <g id="cell70">
  <circle cx="576.994" cy="478.084" r="6.67717" stroke-width="0.5" stroke="black" fill="cyan"/>
  <circle cx="576.994" cy="478.084" r="4.00951" stroke-width="0.5" stroke="black" fill="cyan"/>
   </g>
   <g id="cell71">
  <circle cx="382.923" cy="527.579" r="7.01808" stroke-width="0.5" stroke="black" fill="cyan"/>
  <circle cx="382.923" cy="527.579" r="4.30334" stroke-width="0.5" stroke="black" fill="cyan"/>
   </g>
   <g id="cell72">
  <circle cx="535.402" cy="509.228" r="8.41271" stroke-width="0.5" stroke="black" fill="cyan"/>
  <circle cx="535.402" cy="509.228" r="5.05167" stroke-width="0.5" stroke="black" fill="cyan"/>
   </g>
   <g id="cell129">
  <circle cx="422.175" cy="402.075" r="7.24243" stroke-width="0.5" stroke="black" fill="green"/>
  <circle cx="422.175" cy="402.075" r="4.39934" stroke-width="0.5" stroke="black" fill="green"/>
   </g>
   <g id="cell74">
  <circle cx="542.633" cy="444.519" r="8.41271" stroke-width="0.5" stroke="black" fill="cyan"/>
  <circle cx="542.633" cy="444.519" r="5.05167" stroke-width="0.5" stroke="black" fill="cyan"/>
   </g>
   <g id="cell75">
  <circle cx="442.808" cy="474.649" r="7.60877" stroke-width="0.5" stroke="black" fill="cyan"/>
  <circle cx="442.808" cy="474.649" r="4.62564" stroke-width="0.5" stroke="black" fill="cyan"/>
   </g>
   <g id="cell76">
  <circle cx="522.996" cy="385.158" r="8.34729" stroke-width="0.5" stroke="black" fill="magenta"/>
  <circle cx="522.996" cy="385.158" r="5.02661" stroke-width="0.5" stroke="black" fill="magenta"/>
   </g>
   <g id="cell77">
  <circle cx="486.781" cy="436.282" r="8.0988" stroke-width="0.5" stroke="black" fill="magenta"/>
  <circle cx="486.781" cy="436.282" r="4.90355" stroke-width="0.5" stroke="black" fill="magenta"/>
   </g>
   <g id="cell78">
  <circle cx="373.58" cy="467.135" r="8.40154" stroke-width="0.5" stroke="black" fill="magenta"/>
  <circle cx="373.58" cy="467.135" r="5.04811" stroke-width="0.5" stroke="black" fill="magenta"/>
   </g>
   <g id="cell79">
  <circle cx="504.543" cy="525.862" r="8.4009" stroke-width="0.5" stroke="black" fill="magenta"/>
  <circle cx="504.543" cy="525.862" r="5.04788" stroke-width="0.5" stroke="black" fill="magenta"/>
   </g>
   <g id="cell80">
  <circle cx="605.718" cy="485.918" r="8.40022" stroke-width="0.5" stroke="black" fill="green"/>
  <circle cx="605.718" cy="485.918" r="5.04764" stroke-width="0.5" stroke="black" fill="green"/>
   </g>
   <g id="cell81">
  <circle cx="430.034" cy="500.845" r="7.36952" stroke-width="0.5" stroke="black" fill="green"/>
  <circle cx="430.034" cy="500.845" r="4.49614" stroke-width="0.5" stroke="black" fill="green"/>
   </g>
   <g id="cell82">
  <circle cx="543.112" cy="495.775" r="8.39794" stroke-width="0.5" stroke="black" fill="magenta"/>
  <circle cx="543.112" cy="495.775" r="5.04681" stroke-width="0.5" stroke="black" fill="magenta"/>
   </g>
   <g id="cell130">
  <circle cx="575.452" cy="392.91" r="7.18097" stroke-width="0.5" stroke="black" fill="magenta"/>
  <circle cx="575.452" cy="392.91" r="4.36015" stroke-width="0.5" stroke="black" fill="magenta"/>
   </g>
   <g id="cell84">
  <circle cx="407.836" cy="481.222" r="8.13007" stroke-width="0.5" stroke="black" fill="green"/>
  <circle cx="407.836" cy="481.222" r="4.92152" stroke-width="0.5" stroke="black" fill="green"/>
   </g>
   <g id="cell85">
  <circle cx="405.579" cy="447.367" r="1.53192" stroke-width="0.5" stroke="black" fill="green"/>
  <circle cx="405.579" cy="447.367" r="1.50867" stroke-width="0.5" stroke="black" fill="black"/>
   </g>
   <g id="cell86">
  <circle cx="392.741" cy="565.421" r="8.15089" stroke-width="0.5" stroke="black" fill="magenta"/>
  <circle cx="392.741" cy="565.421" r="4.93251" stroke-width="0.5" stroke="black" fill="magenta"/>
   </g>
   <g id="cell87">
  <circle cx="437.733" cy="527.965" r="7.95741" stroke-width="0.5" stroke="black" fill="green"/>
  <circle cx="437.733" cy="527.965" r="4.82877" stroke-width="0.5" stroke="black" fill="green"/>
   </g>
   <g id="cell88">
  <circle cx="476.393" cy="611.495" r="8.37742" stroke-width="0.5" stroke="black" fill="green"/>
  <circle cx="476.393" cy="611.495" r="5.03881" stroke-width="0.5" stroke="black" fill="green"/>
   </g>
   <g id="cell89">
  <circle cx="436.318" cy="487.83" r="8.28994" stroke-width="0.5" stroke="black" fill="green"/>
  <circle cx="436.318" cy="487.83" r="5.00204" stroke-width="0.5" stroke="black" fill="green"/>
   </g>
   <g id="cell90">
  <circle cx="583.547" cy="502.833" r="8.37431" stroke-width="0.5" stroke="black" fill="magenta"/>
  <circle cx="583.547" cy="502.833" r="5.03754" stroke-width="0.5" stroke="black" fill="magenta"/>
   </g>
   <g id="cell91">
  <circle cx="455.984" cy="598.818" r="1.27044" stroke-width="0.5" stroke="black" fill="magenta"/>
  <circle cx="455.984" cy="598.818" r="1.26311" stroke-width="0.5" stroke="black" fill="black"/>
   </g>
   <g id="cell92">
  <circle cx="553.72" cy="592.302" r="8.11682" stroke-width="0.5" stroke="black" fill="green"/>
  <circle cx="553.72" cy="592.302" r="4.91987" stroke-width="0.5" stroke="black" fill="green"/>
   </g>
   <g id="cell93">
  <circle cx="573.918" cy="526.792" r="6.90516" stroke-width="0.5" stroke="black" fill="cyan"/>
  <circle cx="573.918" cy="526.792" r="4.19955" stroke-width="0.5" stroke="black" fill="cyan"/>
   </g>
   <g id="cell94">
  <circle cx="547.573" cy="469.254" r="8.35882" stroke-width="0.5" stroke="black" fill="cyan"/>
  <circle cx="547.573" cy="469.254" r="5.031" stroke-width="0.5" stroke="black" fill="cyan"/>
   </g>
   <g id="cell95">
  <circle cx="462.628" cy="535.441" r="8.35882" stroke-width="0.5" stroke="black" fill="magenta"/>
  <circle cx="462.628" cy="535.441" r="5.031" stroke-width="0.5" stroke="black" fill="magenta"/>
   </g>
   <g id="cell96">
  <circle cx="535.318" cy="376.517" r="8.34729" stroke-width="0.5" stroke="black" fill="magenta"/>
  <circle cx="535.318" cy="376.517" r="5.02661" stroke-width="0.5" stroke="black" fill="magenta"/>
   </g>
   <g id="cell97">
  <circle cx="569.599" cy="508.396" r="8.33761" stroke-width="0.5" stroke="black" fill="magenta"/>
  <circle cx="569.599" cy="508.396" r="5.02255" stroke-width="0.5" stroke="black" fill="magenta"/>
   </g>
   <g id="cell98">
  <circle cx="407.942" cy="566.881" r="8.32543" stroke-width="0.5" stroke="black" fill="green"/>
  <circle cx="407.942" cy="566.881" r="5.01617" stroke-width="0.5" stroke="black" fill="green"/>
   </g>
   <g id="cell99">
  <circle cx="571.705" cy="493.349" r="8.32543" stroke-width="0.5" stroke="black" fill="magenta"/>
  <circle cx="571.705" cy="493.349" r="5.01617" stroke-width="0.5" stroke="black" fill="magenta"/>
   </g>
   <g id="cell100">
  <circle cx="569.695" cy="544.22" r="8.29437" stroke-width="0.5" stroke="black" fill="cyan"/>
  <circle cx="569.695" cy="544.22" r="5.00392" stroke-width="0.5" stroke="black" fill="cyan"/>
   </g>
   <g id="cell101">
  <circle cx="462.087" cy="629.079" r="8.16312" stroke-width="0.5" stroke="black" fill="magenta"/>
  <circle cx="462.087" cy="629.079" r="4.94115" stroke-width="0.5" stroke="black" fill="magenta"/>
   </g>
   <g id="cell102">
  <circle cx="445.279" cy="500.658" r="8.28994" stroke-width="0.5" stroke="black" fill="green"/>
  <circle cx="445.279" cy="500.658" r="5.00204" stroke-width="0.5" stroke="black" fill="green"/>
   </g>
   <g id="cell103">
  <circle cx="543.438" cy="604.144" r="8.2637" stroke-width="0.5" stroke="black" fill="green"/>
  <circle cx="543.438" cy="604.144" r="4.98956" stroke-width="0.5" stroke="black" fill="green"/>
   </g>
   <g id="cell104">
  <circle cx="554.813" cy="539.96" r="8.27885" stroke-width="0.5" stroke="black" fill="green"/>
  <circle cx="554.813" cy="539.96" r="4.99429" stroke-width="0.5" stroke="black" fill="green"/>
   </g>
   <g id="cell105">
  <circle cx="416.95" cy="493.896" r="8.25538" stroke-width="0.5" stroke="black" fill="green"/>
  <circle cx="416.95" cy="493.896" r="4.98403" stroke-width="0.5" stroke="black" fill="green"/>
   </g>
   <g id="cell106">
  <circle cx="639.217" cy="537.227" r="8.26262" stroke-width="0.5" stroke="black" fill="green"/>
  <circle cx="639.217" cy="537.227" r="4.98642" stroke-width="0.5" stroke="black" fill="green"/>
   </g>
   <g id="cell107">
  <circle cx="383.312" cy="513.191" r="8.21839" stroke-width="0.5" stroke="black" fill="cyan"/>
  <circle cx="383.312" cy="513.191" r="4.96448" stroke-width="0.5" stroke="black" fill="cyan"/>
   </g>
   <g id="cell108">
  <circle cx="459.479" cy="643.502" r="8.16312" stroke-width="0.5" stroke="black" fill="magenta"/>
  <circle cx="459.479" cy="643.502" r="4.94115" stroke-width="0.5" stroke="black" fill="magenta"/>
   </g>
   <g id="cell109">
  <circle cx="448.253" cy="634.009" r="8.16312" stroke-width="0.5" stroke="black" fill="magenta"/>
  <circle cx="448.253" cy="634.009" r="4.94115" stroke-width="0.5" stroke="black" fill="magenta"/>
   </g>
   <g id="cell110">
  <circle cx="538.55" cy="589.43" r="8.11682" stroke-width="0.5" stroke="black" fill="green"/>
  <circle cx="538.55" cy="589.43" r="4.91987" stroke-width="0.5" stroke="black" fill="green"/>
   </g>
   <g id="cell111">
  <circle cx="634.25" cy="551.994" r="8.11626" stroke-width="0.5" stroke="black" fill="green"/>
  <circle cx="634.25" cy="551.994" r="4.91828" stroke-width="0.5" stroke="black" fill="green"/>
   </g>
   <g id="cell112">
  <circle cx="382.058" cy="575.413" r="8.15089" stroke-width="0.5" stroke="black" fill="magenta"/>
  <circle cx="382.058" cy="575.413" r="4.93251" stroke-width="0.5" stroke="black" fill="magenta"/>
   </g>
   <g id="cell113">
  <circle cx="423.158" cy="479.588" r="8.13007" stroke-width="0.5" stroke="black" fill="green"/>
  <circle cx="423.158" cy="479.588" r="4.92152" stroke-width="0.5" stroke="black" fill="green"/>
   </g>
   <g id="cell114">
  <circle cx="494.111" cy="447.327" r="6.69712" stroke-width="0.5" stroke="black" fill="magenta"/>
  <circle cx="494.111" cy="447.327" r="4.08213" stroke-width="0.5" stroke="black" fill="magenta"/>
   </g>
   <g id="cell115">
  <circle cx="452.436" cy="524.224" r="8.04804" stroke-width="0.5" stroke="black" fill="green"/>
  <circle cx="452.436" cy="524.224" r="4.87827" stroke-width="0.5" stroke="black" fill="green"/>
   </g>
   <g id="cell116">
  <circle cx="369.385" cy="519.633" r="7.92984" stroke-width="0.5" stroke="black" fill="cyan"/>
  <circle cx="369.385" cy="519.633" r="4.82059" stroke-width="0.5" stroke="black" fill="cyan"/>
   </g>
   <g id="cell117">
  <circle cx="436.839" cy="513.316" r="7.95741" stroke-width="0.5" stroke="black" fill="green"/>
  <circle cx="436.839" cy="513.316" r="4.82877" stroke-width="0.5" stroke="black" fill="green"/>
   </g>
   <g id="cell118">
  <circle cx="530.503" cy="523.838" r="7.90853" stroke-width="0.5" stroke="black" fill="cyan"/>
  <circle cx="530.503" cy="523.838" r="4.79791" stroke-width="0.5" stroke="black" fill="cyan"/>
   </g>
   <g id="cell119">
  <circle cx="525.691" cy="625.191" r="7.89373" stroke-width="0.5" stroke="black" fill="green"/>
  <circle cx="525.691" cy="625.191" r="4.78957" stroke-width="0.5" stroke="black" fill="green"/>
   </g>
   <g id="cell121">
  <circle cx="388.763" cy="551.653" r="7.79438" stroke-width="0.5" stroke="black" fill="magenta"/>
  <circle cx="388.763" cy="551.653" r="4.73668" stroke-width="0.5" stroke="black" fill="magenta"/>
   </g>
   <g id="cell122">
  <circle cx="602.316" cy="470.953" r="7.75912" stroke-width="0.5" stroke="black" fill="cyan"/>
  <circle cx="602.316" cy="470.953" r="4.71248" stroke-width="0.5" stroke="black" fill="cyan"/>
   </g>
   <g id="cell123">
  <circle cx="502.352" cy="642.883" r="7.70049" stroke-width="0.5" stroke="black" fill="cyan"/>
  <circle cx="502.352" cy="642.883" r="4.67828" stroke-width="0.5" stroke="black" fill="cyan"/>
   </g>
   <g id="cell124">
  <circle cx="385.182" cy="589.538" r="7.67987" stroke-width="0.5" stroke="black" fill="green"/>
  <circle cx="385.182" cy="589.538" r="4.66617" stroke-width="0.5" stroke="black" fill="green"/>
   </g>
   <g id="cell125">
  <circle cx="448.383" cy="461.623" r="7.60877" stroke-width="0.5" stroke="black" fill="cyan"/>
  <circle cx="448.383" cy="461.623" r="4.62564" stroke-width="0.5" stroke="black" fill="cyan"/>
   </g>
   <g id="cell126">
  <circle cx="418.62" cy="508.717" r="7.36952" stroke-width="0.5" stroke="black" fill="green"/>
  <circle cx="418.62" cy="508.717" r="4.49614" stroke-width="0.5" stroke="black" fill="green"/>
   </g>
   <g id="cell127">
  <circle cx="408.134" cy="600.231" r="7.38797" stroke-width="0.5" stroke="black" fill="cyan"/>
  <circle cx="408.134" cy="600.231" r="4.49029" stroke-width="0.5" stroke="black" fill="cyan"/>
   </g>
   <g id="cell128">
  <circle cx="371.206" cy="533.737" r="7.01808" stroke-width="0.5" stroke="black" fill="cyan"/>
  <circle cx="371.206" cy="533.737" r="4.30334" stroke-width="0.5" stroke="black" fill="cyan"/>
   </g>
   <g id="cell131">
  <circle cx="582.177" cy="537.071" r="6.90516" stroke-width="0.5" stroke="black" fill="cyan"/>
  <circle cx="582.177" cy="537.071" r="4.19955" stroke-width="0.5" stroke="black" fill="cyan"/>
   </g>
   <g id="cell132">
  <circle cx="504.934" cy="442.151" r="6.69712" stroke-width="0.5" stroke="black" fill="magenta"/>
  <circle cx="504.934" cy="442.151" r="4.08213" stroke-width="0.5" stroke="black" fill="magenta"/>
   </g>
   <g id="cell133">
  <circle cx="530.652" cy="408.389" r="6.83713" stroke-width="0.5" stroke="black" fill="magenta"/>
  <circle cx="530.652" cy="408.389" r="4.12773" stroke-width="0.5" stroke="black" fill="magenta"/>
   </g>
   <g id="cell134">
  <circle cx="517.06" cy="589.963" r="6.75639" stroke-width="0.5" stroke="black" fill="magenta"/>
  <circle cx="517.06" cy="589.963" r="4.06813" stroke-width="0.5" stroke="black" fill="magenta"/>
   </g>
   <g id="cell135">
  <circle cx="565.64" cy="479.074" r="6.67717" stroke-width="0.5" stroke="black" fill="cyan"/>
  <circle cx="565.64" cy="479.074" r="4.00951" stroke-width="0.5" stroke="black" fill="cyan"/>
   </g>
  </g>
 </g>
  <rect x="775" y="1035" width="200" height="10" stroke-width="2" stroke="rgb(255,255,255)" fill="rgb(0,0,0)"/>
  <text x="781.25" y="1028.75"
   font-family="Arial" font-size="25" fill="black" >
   200 &#956;m
  </text>
  <text x="25" y="1045"
   font-family="Arial" font-size="18.75" fill="black" >
   0 days, 0 hours, 0 minutes, and 25.4072 seconds
  </text>
  <rect x="0" y="70" width="1000" height="1000" stroke-width="2" stroke="rgb(0,0,0)" fill="none"/>
</svg>
