<?xml version="1.0" encoding="UTF-8" standalone="no"?>
<!-- Created with PhysiCell (http://PhysiCell.MathCancer.org/) -->
<svg 
 xmlns:dc="http://purl.org/dc/elements/1.1/" 
 xmlns:cc="http://creativecommons.org/ns#" 
 xmlns:rdf="http://www.w3.org/1999/02/22-rdf-syntax-ns#" 
 xmlns:svg="http://www.w3.org/2000/svg" 
 xmlns="http://www.w3.org/2000/svg" 
 version="1.1" 
 width="1000" 
 height="1070" 
 id="svg2">
  <rect x="0" y="0" width="1000" height="1070" stroke-width="2" stroke="white" fill="white"/>
  <text x="12.5" y="30"
   font-family="Arial" font-size="25" fill="black" >
   Current time: 0 days, 2 hours, and 0.00 minutes, z = 0.00 &#956;m
  </text>
  <text x="12.5" y="57.5"
   font-family="Arial" font-size="23.75" fill="black" >
   83 agents
  </text>
 <g id="tissue" 
    transform="translate(0,1070) scale(1,-1)">
  <g id="ECM">
  </g>
  <g id="cells">
   <g id="cell0">
  <circle cx="519.74" cy="529.871" r="6.99069" stroke-width="0.5" stroke="black" fill="magenta"/>
  <circle cx="519.74" cy="529.871" r="4.23498" stroke-width="0.5" stroke="black" fill="magenta"/>
   </g>
   <g id="cell1">
  <circle cx="604.222" cy="530.017" r="8.41271" stroke-width="0.5" stroke="black" fill="magenta"/>
  <circle cx="604.222" cy="530.017" r="5.05167" stroke-width="0.5" stroke="black" fill="magenta"/>
   </g>
   <g id="cell2">
  <circle cx="510.884" cy="600.601" r="8.41271" stroke-width="0.5" stroke="black" fill="magenta"/>
  <circle cx="510.884" cy="600.601" r="5.05167" stroke-width="0.5" stroke="black" fill="magenta"/>
   </g>
   <g id="cell3">
  <circle cx="532.697" cy="545.4" r="8.41271" stroke-width="0.5" stroke="black" fill="magenta"/>
  <circle cx="532.697" cy="545.4" r="5.05167" stroke-width="0.5" stroke="black" fill="magenta"/>
   </g>
   <g id="cell4">
  <circle cx="476.65" cy="440.257" r="7.11815" stroke-width="0.5" stroke="black" fill="magenta"/>
  <circle cx="476.65" cy="440.257" r="4.31954" stroke-width="0.5" stroke="black" fill="magenta"/>
   </g>
   <g id="cell5">
  <circle cx="465.032" cy="493.3" r="8.41271" stroke-width="0.5" stroke="black" fill="magenta"/>
  <circle cx="465.032" cy="493.3" r="5.05167" stroke-width="0.5" stroke="black" fill="magenta"/>
   </g>
   <g id="cell6">
  <circle cx="593.749" cy="508.869" r="8.41271" stroke-width="0.5" stroke="black" fill="magenta"/>
  <circle cx="593.749" cy="508.869" r="5.05167" stroke-width="0.5" stroke="black" fill="magenta"/>
   </g>
   <g id="cell7">
  <circle cx="512.029" cy="464.746" r="8.41271" stroke-width="0.5" stroke="black" fill="magenta"/>
  <circle cx="512.029" cy="464.746" r="5.05167" stroke-width="0.5" stroke="black" fill="magenta"/>
   </g>
   <g id="cell8">
  <circle cx="375.891" cy="544.521" r="8.41271" stroke-width="0.5" stroke="black" fill="magenta"/>
  <circle cx="375.891" cy="544.521" r="5.05167" stroke-width="0.5" stroke="black" fill="magenta"/>
   </g>
   <g id="cell9">
  <circle cx="460.472" cy="599.786" r="8.41271" stroke-width="0.5" stroke="black" fill="magenta"/>
  <circle cx="460.472" cy="599.786" r="5.05167" stroke-width="0.5" stroke="black" fill="magenta"/>
   </g>
   <g id="cell10">
  <circle cx="583.447" cy="392.105" r="8.41271" stroke-width="0.5" stroke="black" fill="magenta"/>
  <circle cx="583.447" cy="392.105" r="5.05167" stroke-width="0.5" stroke="black" fill="magenta"/>
   </g>
   <g id="cell11">
  <circle cx="589.748" cy="590.273" r="8.41271" stroke-width="0.5" stroke="black" fill="magenta"/>
  <circle cx="589.748" cy="590.273" r="5.05167" stroke-width="0.5" stroke="black" fill="magenta"/>
   </g>
   <g id="cell12">
  <circle cx="506.664" cy="586.058" r="8.41271" stroke-width="0.5" stroke="black" fill="magenta"/>
  <circle cx="506.664" cy="586.058" r="5.05167" stroke-width="0.5" stroke="black" fill="magenta"/>
   </g>
   <g id="cell13">
  <circle cx="386.168" cy="568.158" r="8.41271" stroke-width="0.5" stroke="black" fill="magenta"/>
  <circle cx="386.168" cy="568.158" r="5.05167" stroke-width="0.5" stroke="black" fill="magenta"/>
   </g>
   <g id="cell14">
  <circle cx="529.536" cy="400.037" r="8.41271" stroke-width="0.5" stroke="black" fill="magenta"/>
  <circle cx="529.536" cy="400.037" r="5.05167" stroke-width="0.5" stroke="black" fill="magenta"/>
   </g>
   <g id="cell15">
  <circle cx="384.656" cy="477.397" r="7.0545" stroke-width="0.5" stroke="black" fill="magenta"/>
  <circle cx="384.656" cy="477.397" r="4.27772" stroke-width="0.5" stroke="black" fill="magenta"/>
   </g>
   <g id="cell16">
  <circle cx="428.96" cy="413.217" r="8.41271" stroke-width="0.5" stroke="black" fill="magenta"/>
  <circle cx="428.96" cy="413.217" r="5.05167" stroke-width="0.5" stroke="black" fill="magenta"/>
   </g>
   <g id="cell17">
  <circle cx="572.811" cy="489.813" r="8.41271" stroke-width="0.5" stroke="black" fill="magenta"/>
  <circle cx="572.811" cy="489.813" r="5.05167" stroke-width="0.5" stroke="black" fill="magenta"/>
   </g>
   <g id="cell18">
  <circle cx="512.172" cy="388.785" r="7.18097" stroke-width="0.5" stroke="black" fill="magenta"/>
  <circle cx="512.172" cy="388.785" r="4.36015" stroke-width="0.5" stroke="black" fill="magenta"/>
   </g>
   <g id="cell19">
  <circle cx="451.843" cy="538.291" r="8.41271" stroke-width="0.5" stroke="black" fill="magenta"/>
  <circle cx="451.843" cy="538.291" r="5.05167" stroke-width="0.5" stroke="black" fill="magenta"/>
   </g>
   <g id="cell20">
  <circle cx="531.105" cy="415.153" r="8.41271" stroke-width="0.5" stroke="black" fill="magenta"/>
  <circle cx="531.105" cy="415.153" r="5.05167" stroke-width="0.5" stroke="black" fill="magenta"/>
   </g>
   <g id="cell21">
  <circle cx="464.368" cy="634.574" r="8.41271" stroke-width="0.5" stroke="black" fill="magenta"/>
  <circle cx="464.368" cy="634.574" r="5.05167" stroke-width="0.5" stroke="black" fill="magenta"/>
   </g>
   <g id="cell22">
  <circle cx="559.739" cy="493.98" r="6.75639" stroke-width="0.5" stroke="black" fill="magenta"/>
  <circle cx="559.739" cy="493.98" r="4.06813" stroke-width="0.5" stroke="black" fill="magenta"/>
   </g>
   <g id="cell23">
  <circle cx="537.47" cy="482.062" r="8.41271" stroke-width="0.5" stroke="black" fill="magenta"/>
  <circle cx="537.47" cy="482.062" r="5.05167" stroke-width="0.5" stroke="black" fill="magenta"/>
   </g>
   <g id="cell24">
  <circle cx="559.289" cy="379.786" r="8.41271" stroke-width="0.5" stroke="black" fill="magenta"/>
  <circle cx="559.289" cy="379.786" r="5.05167" stroke-width="0.5" stroke="black" fill="magenta"/>
   </g>
   <g id="cell25">
  <circle cx="640.943" cy="550.03" r="8.41271" stroke-width="0.5" stroke="black" fill="green"/>
  <circle cx="640.943" cy="550.03" r="5.05167" stroke-width="0.5" stroke="black" fill="green"/>
   </g>
   <g id="cell26">
  <circle cx="550.906" cy="401.244" r="8.41271" stroke-width="0.5" stroke="black" fill="green"/>
  <circle cx="550.906" cy="401.244" r="5.05167" stroke-width="0.5" stroke="black" fill="green"/>
   </g>
   <g id="cell27">
  <circle cx="457.446" cy="388.678" r="8.41271" stroke-width="0.5" stroke="black" fill="green"/>
  <circle cx="457.446" cy="388.678" r="5.05167" stroke-width="0.5" stroke="black" fill="green"/>
   </g>
   <g id="cell28">
  <circle cx="438.178" cy="530.88" r="8.41271" stroke-width="0.5" stroke="black" fill="green"/>
  <circle cx="438.178" cy="530.88" r="5.05167" stroke-width="0.5" stroke="black" fill="green"/>
   </g>
   <g id="cell29">
  <circle cx="449.388" cy="519.544" r="8.41271" stroke-width="0.5" stroke="black" fill="green"/>
  <circle cx="449.388" cy="519.544" r="5.05167" stroke-width="0.5" stroke="black" fill="green"/>
   </g>
   <g id="cell30">
  <circle cx="481.58" cy="540.282" r="8.41271" stroke-width="0.5" stroke="black" fill="green"/>
  <circle cx="481.58" cy="540.282" r="5.05167" stroke-width="0.5" stroke="black" fill="green"/>
   </g>
   <g id="cell31">
  <circle cx="412.757" cy="541.193" r="8.41271" stroke-width="0.5" stroke="black" fill="green"/>
  <circle cx="412.757" cy="541.193" r="5.05167" stroke-width="0.5" stroke="black" fill="green"/>
   </g>
   <g id="cell32">
  <circle cx="426.437" cy="473.729" r="8.41271" stroke-width="0.5" stroke="black" fill="green"/>
  <circle cx="426.437" cy="473.729" r="5.05167" stroke-width="0.5" stroke="black" fill="green"/>
   </g>
   <g id="cell33">
  <circle cx="494.68" cy="423.334" r="8.41271" stroke-width="0.5" stroke="black" fill="green"/>
  <circle cx="494.68" cy="423.334" r="5.05167" stroke-width="0.5" stroke="black" fill="green"/>
   </g>
   <g id="cell34">
  <circle cx="397.089" cy="450.831" r="8.41271" stroke-width="0.5" stroke="black" fill="green"/>
  <circle cx="397.089" cy="450.831" r="5.05167" stroke-width="0.5" stroke="black" fill="green"/>
   </g>
   <g id="cell35">
  <circle cx="548.333" cy="544.813" r="8.41271" stroke-width="0.5" stroke="black" fill="green"/>
  <circle cx="548.333" cy="544.813" r="5.05167" stroke-width="0.5" stroke="black" fill="green"/>
   </g>
   <g id="cell36">
  <circle cx="391.467" cy="582.887" r="8.41271" stroke-width="0.5" stroke="black" fill="green"/>
  <circle cx="391.467" cy="582.887" r="5.05167" stroke-width="0.5" stroke="black" fill="green"/>
   </g>
   <g id="cell37">
  <circle cx="634.871" cy="460.618" r="8.41271" stroke-width="0.5" stroke="black" fill="green"/>
  <circle cx="634.871" cy="460.618" r="5.05167" stroke-width="0.5" stroke="black" fill="green"/>
   </g>
   <g id="cell38">
  <circle cx="536.144" cy="601.889" r="8.41271" stroke-width="0.5" stroke="black" fill="green"/>
  <circle cx="536.144" cy="601.889" r="5.05167" stroke-width="0.5" stroke="black" fill="green"/>
   </g>
   <g id="cell39">
  <circle cx="616.9" cy="493.836" r="6.92764" stroke-width="0.5" stroke="black" fill="green"/>
  <circle cx="616.9" cy="493.836" r="4.1918" stroke-width="0.5" stroke="black" fill="green"/>
   </g>
   <g id="cell40">
  <circle cx="485.348" cy="571.779" r="8.41271" stroke-width="0.5" stroke="black" fill="green"/>
  <circle cx="485.348" cy="571.779" r="5.05167" stroke-width="0.5" stroke="black" fill="green"/>
   </g>
   <g id="cell41">
  <circle cx="364.161" cy="479.927" r="8.41271" stroke-width="0.5" stroke="black" fill="green"/>
  <circle cx="364.161" cy="479.927" r="5.05167" stroke-width="0.5" stroke="black" fill="green"/>
   </g>
   <g id="cell42">
  <circle cx="443.742" cy="492.143" r="6.80881" stroke-width="0.5" stroke="black" fill="green"/>
  <circle cx="443.742" cy="492.143" r="4.10709" stroke-width="0.5" stroke="black" fill="green"/>
   </g>
   <g id="cell43">
  <circle cx="558.248" cy="445.67" r="8.41271" stroke-width="0.5" stroke="black" fill="green"/>
  <circle cx="558.248" cy="445.67" r="5.05167" stroke-width="0.5" stroke="black" fill="green"/>
   </g>
   <g id="cell44">
  <circle cx="475.857" cy="624.021" r="8.41271" stroke-width="0.5" stroke="black" fill="green"/>
  <circle cx="475.857" cy="624.021" r="5.05167" stroke-width="0.5" stroke="black" fill="green"/>
   </g>
   <g id="cell45">
  <circle cx="414.953" cy="557.066" r="8.41271" stroke-width="0.5" stroke="black" fill="green"/>
  <circle cx="414.953" cy="557.066" r="5.05167" stroke-width="0.5" stroke="black" fill="green"/>
   </g>
   <g id="cell46">
  <circle cx="522.765" cy="610.712" r="8.41271" stroke-width="0.5" stroke="black" fill="green"/>
  <circle cx="522.765" cy="610.712" r="5.05167" stroke-width="0.5" stroke="black" fill="green"/>
   </g>
   <g id="cell47">
  <circle cx="503.639" cy="507.477" r="8.41271" stroke-width="0.5" stroke="black" fill="green"/>
  <circle cx="503.639" cy="507.477" r="5.05167" stroke-width="0.5" stroke="black" fill="green"/>
   </g>
   <g id="cell48">
  <circle cx="564.511" cy="602.792" r="8.41271" stroke-width="0.5" stroke="black" fill="green"/>
  <circle cx="564.511" cy="602.792" r="5.05167" stroke-width="0.5" stroke="black" fill="green"/>
   </g>
   <g id="cell49">
  <circle cx="429.826" cy="397.641" r="8.41271" stroke-width="0.5" stroke="black" fill="green"/>
  <circle cx="429.826" cy="397.641" r="5.05167" stroke-width="0.5" stroke="black" fill="green"/>
   </g>
   <g id="cell50">
  <circle cx="518.372" cy="515.598" r="8.41271" stroke-width="0.5" stroke="black" fill="cyan"/>
  <circle cx="518.372" cy="515.598" r="5.05167" stroke-width="0.5" stroke="black" fill="cyan"/>
   </g>
   <g id="cell51">
  <circle cx="398.764" cy="597.287" r="8.41271" stroke-width="0.5" stroke="black" fill="cyan"/>
  <circle cx="398.764" cy="597.287" r="5.05167" stroke-width="0.5" stroke="black" fill="cyan"/>
   </g>
   <g id="cell52">
  <circle cx="522.667" cy="428.395" r="8.41271" stroke-width="0.5" stroke="black" fill="cyan"/>
  <circle cx="522.667" cy="428.395" r="5.05167" stroke-width="0.5" stroke="black" fill="cyan"/>
   </g>
   <g id="cell53">
  <circle cx="571.183" cy="436.082" r="8.41271" stroke-width="0.5" stroke="black" fill="cyan"/>
  <circle cx="571.183" cy="436.082" r="5.05167" stroke-width="0.5" stroke="black" fill="cyan"/>
   </g>
   <g id="cell54">
  <circle cx="478.887" cy="426.024" r="8.41271" stroke-width="0.5" stroke="black" fill="cyan"/>
  <circle cx="478.887" cy="426.024" r="5.05167" stroke-width="0.5" stroke="black" fill="cyan"/>
   </g>
   <g id="cell55">
  <circle cx="526.786" cy="470.073" r="8.41271" stroke-width="0.5" stroke="black" fill="cyan"/>
  <circle cx="526.786" cy="470.073" r="5.05167" stroke-width="0.5" stroke="black" fill="cyan"/>
   </g>
   <g id="cell56">
  <circle cx="617.771" cy="522.287" r="8.41271" stroke-width="0.5" stroke="black" fill="cyan"/>
  <circle cx="617.771" cy="522.287" r="5.05167" stroke-width="0.5" stroke="black" fill="cyan"/>
   </g>
   <g id="cell57">
  <circle cx="416.924" cy="617.466" r="8.41271" stroke-width="0.5" stroke="black" fill="cyan"/>
  <circle cx="416.924" cy="617.466" r="5.05167" stroke-width="0.5" stroke="black" fill="cyan"/>
   </g>
   <g id="cell58">
  <circle cx="552.722" cy="479.354" r="8.41271" stroke-width="0.5" stroke="black" fill="cyan"/>
  <circle cx="552.722" cy="479.354" r="5.05167" stroke-width="0.5" stroke="black" fill="cyan"/>
   </g>
   <g id="cell59">
  <circle cx="385.463" cy="439.802" r="8.41271" stroke-width="0.5" stroke="black" fill="cyan"/>
  <circle cx="385.463" cy="439.802" r="5.05167" stroke-width="0.5" stroke="black" fill="cyan"/>
   </g>
   <g id="cell60">
  <circle cx="593.188" cy="473.675" r="8.41271" stroke-width="0.5" stroke="black" fill="cyan"/>
  <circle cx="593.188" cy="473.675" r="5.05167" stroke-width="0.5" stroke="black" fill="cyan"/>
   </g>
   <g id="cell61">
  <circle cx="553.005" cy="613.944" r="8.41271" stroke-width="0.5" stroke="black" fill="cyan"/>
  <circle cx="553.005" cy="613.944" r="5.05167" stroke-width="0.5" stroke="black" fill="cyan"/>
   </g>
   <g id="cell62">
  <circle cx="525.811" cy="444.301" r="8.41271" stroke-width="0.5" stroke="black" fill="cyan"/>
  <circle cx="525.811" cy="444.301" r="5.05167" stroke-width="0.5" stroke="black" fill="cyan"/>
   </g>
   <g id="cell63">
  <circle cx="577.88" cy="546.415" r="8.41271" stroke-width="0.5" stroke="black" fill="cyan"/>
  <circle cx="577.88" cy="546.415" r="5.05167" stroke-width="0.5" stroke="black" fill="cyan"/>
   </g>
   <g id="cell64">
  <circle cx="509.962" cy="636.825" r="8.41271" stroke-width="0.5" stroke="black" fill="cyan"/>
  <circle cx="509.962" cy="636.825" r="5.05167" stroke-width="0.5" stroke="black" fill="cyan"/>
   </g>
   <g id="cell65">
  <circle cx="542.376" cy="467.047" r="8.41271" stroke-width="0.5" stroke="black" fill="cyan"/>
  <circle cx="542.376" cy="467.047" r="5.05167" stroke-width="0.5" stroke="black" fill="cyan"/>
   </g>
   <g id="cell66">
  <circle cx="533.998" cy="529.918" r="8.41271" stroke-width="0.5" stroke="black" fill="cyan"/>
  <circle cx="533.998" cy="529.918" r="5.05167" stroke-width="0.5" stroke="black" fill="cyan"/>
   </g>
   <g id="cell67">
  <circle cx="354.572" cy="492.746" r="8.41271" stroke-width="0.5" stroke="black" fill="cyan"/>
  <circle cx="354.572" cy="492.746" r="5.05167" stroke-width="0.5" stroke="black" fill="cyan"/>
   </g>
   <g id="cell68">
  <circle cx="562.782" cy="551.799" r="8.41271" stroke-width="0.5" stroke="black" fill="cyan"/>
  <circle cx="562.782" cy="551.799" r="5.05167" stroke-width="0.5" stroke="black" fill="cyan"/>
   </g>
   <g id="cell69">
  <circle cx="433.859" cy="460.842" r="7.21189" stroke-width="0.5" stroke="black" fill="cyan"/>
  <circle cx="433.859" cy="460.842" r="4.37993" stroke-width="0.5" stroke="black" fill="cyan"/>
   </g>
   <g id="cell70">
  <circle cx="577.215" cy="474.856" r="8.41271" stroke-width="0.5" stroke="black" fill="cyan"/>
  <circle cx="577.215" cy="474.856" r="5.05167" stroke-width="0.5" stroke="black" fill="cyan"/>
   </g>
   <g id="cell71">
  <circle cx="377.712" cy="520.989" r="8.41271" stroke-width="0.5" stroke="black" fill="cyan"/>
  <circle cx="377.712" cy="520.989" r="5.05167" stroke-width="0.5" stroke="black" fill="cyan"/>
   </g>
   <g id="cell72">
  <circle cx="534.551" cy="513.958" r="8.41271" stroke-width="0.5" stroke="black" fill="cyan"/>
  <circle cx="534.551" cy="513.958" r="5.05167" stroke-width="0.5" stroke="black" fill="cyan"/>
   </g>
   <g id="cell73">
  <circle cx="360.355" cy="545.935" r="8.41271" stroke-width="0.5" stroke="black" fill="cyan"/>
  <circle cx="360.355" cy="545.935" r="5.05167" stroke-width="0.5" stroke="black" fill="cyan"/>
   </g>
   <g id="cell74">
  <circle cx="542.035" cy="446.464" r="8.41271" stroke-width="0.5" stroke="black" fill="cyan"/>
  <circle cx="542.035" cy="446.464" r="5.05167" stroke-width="0.5" stroke="black" fill="cyan"/>
   </g>
   <g id="cell75">
  <circle cx="441.245" cy="472.366" r="7.21189" stroke-width="0.5" stroke="black" fill="cyan"/>
  <circle cx="441.245" cy="472.366" r="4.37993" stroke-width="0.5" stroke="black" fill="cyan"/>
   </g>
   <g id="cell76">
  <circle cx="524.9" cy="386.804" r="7.18097" stroke-width="0.5" stroke="black" fill="magenta"/>
  <circle cx="524.9" cy="386.804" r="4.36015" stroke-width="0.5" stroke="black" fill="magenta"/>
   </g>
   <g id="cell77">
  <circle cx="488.86" cy="436.478" r="7.11815" stroke-width="0.5" stroke="black" fill="magenta"/>
  <circle cx="488.86" cy="436.478" r="4.31954" stroke-width="0.5" stroke="black" fill="magenta"/>
   </g>
   <g id="cell78">
  <circle cx="374.422" cy="469.914" r="7.0545" stroke-width="0.5" stroke="black" fill="magenta"/>
  <circle cx="374.422" cy="469.914" r="4.27772" stroke-width="0.5" stroke="black" fill="magenta"/>
   </g>
   <g id="cell79">
  <circle cx="507.196" cy="529.331" r="6.99069" stroke-width="0.5" stroke="black" fill="magenta"/>
  <circle cx="507.196" cy="529.331" r="4.23498" stroke-width="0.5" stroke="black" fill="magenta"/>
   </g>
   <g id="cell80">
  <circle cx="607.32" cy="484.823" r="6.92764" stroke-width="0.5" stroke="black" fill="green"/>
  <circle cx="607.32" cy="484.823" r="4.1918" stroke-width="0.5" stroke="black" fill="green"/>
   </g>
   <g id="cell81">
  <circle cx="431.887" cy="497.284" r="6.80881" stroke-width="0.5" stroke="black" fill="green"/>
  <circle cx="431.887" cy="497.284" r="4.10709" stroke-width="0.5" stroke="black" fill="green"/>
   </g>
   <g id="cell82">
  <circle cx="547.527" cy="492.219" r="6.75639" stroke-width="0.5" stroke="black" fill="magenta"/>
  <circle cx="547.527" cy="492.219" r="4.06813" stroke-width="0.5" stroke="black" fill="magenta"/>
   </g>
  </g>
 </g>
  <rect x="775" y="1035" width="200" height="10" stroke-width="2" stroke="rgb(255,255,255)" fill="rgb(0,0,0)"/>
  <text x="781.25" y="1028.75"
   font-family="Arial" font-size="25" fill="black" >
   200 &#956;m
  </text>
  <text x="25" y="1045"
   font-family="Arial" font-size="18.75" fill="black" >
   0 days, 0 hours, 0 minutes, and 2.7330 seconds
  </text>
  <rect x="0" y="70" width="1000" height="1000" stroke-width="2" stroke="rgb(0,0,0)" fill="none"/>
</svg>
