<?xml version="1.0" encoding="UTF-8" standalone="no"?>
<!-- Created with PhysiCell (http://PhysiCell.MathCancer.org/) -->
<svg 
 xmlns:dc="http://purl.org/dc/elements/1.1/" 
 xmlns:cc="http://creativecommons.org/ns#" 
 xmlns:rdf="http://www.w3.org/1999/02/22-rdf-syntax-ns#" 
 xmlns:svg="http://www.w3.org/2000/svg" 
 xmlns="http://www.w3.org/2000/svg" 
 version="1.1" 
 width="1000" 
 height="1070" 
 id="svg2">
  <rect x="0" y="0" width="1000" height="1070" stroke-width="2" stroke="white" fill="white"/>
  <text x="12.5" y="30"
   font-family="Arial" font-size="25" fill="black" >
   Current time: 1 days, 3 hours, and 30.00 minutes, z = 0.00 &#956;m
  </text>
  <text x="12.5" y="57.5"
   font-family="Arial" font-size="23.75" fill="black" >
   158 agents
  </text>
 <g id="tissue" 
    transform="translate(0,1070) scale(1,-1)">
  <g id="ECM">
  </g>
  <g id="cells">
   <g id="cell0">
  <circle cx="515.128" cy="528.045" r="8.4116" stroke-width="0.5" stroke="black" fill="magenta"/>
  <circle cx="515.128" cy="528.045" r="5.05139" stroke-width="0.5" stroke="black" fill="magenta"/>
   </g>
   <g id="cell147">
  <circle cx="420.787" cy="570.492" r="7.79099" stroke-width="0.5" stroke="black" fill="green"/>
  <circle cx="420.787" cy="570.492" r="4.73209" stroke-width="0.5" stroke="black" fill="green"/>
   </g>
   <g id="cell2">
  <circle cx="508.431" cy="594.893" r="8.24914" stroke-width="0.5" stroke="black" fill="magenta"/>
  <circle cx="508.431" cy="594.893" r="4.97981" stroke-width="0.5" stroke="black" fill="magenta"/>
   </g>
   <g id="cell3">
  <circle cx="538.353" cy="540.477" r="8.1947" stroke-width="0.5" stroke="black" fill="magenta"/>
  <circle cx="538.353" cy="540.477" r="4.95246" stroke-width="0.5" stroke="black" fill="magenta"/>
   </g>
   <g id="cell4">
  <circle cx="467.029" cy="440.412" r="8.41172" stroke-width="0.5" stroke="black" fill="magenta"/>
  <circle cx="467.029" cy="440.412" r="5.05142" stroke-width="0.5" stroke="black" fill="magenta"/>
   </g>
   <g id="cell5">
  <circle cx="464.836" cy="498.856" r="7.89373" stroke-width="0.5" stroke="black" fill="magenta"/>
  <circle cx="464.836" cy="498.856" r="4.78957" stroke-width="0.5" stroke="black" fill="magenta"/>
   </g>
   <g id="cell6">
  <circle cx="594.873" cy="513.48" r="8.40915" stroke-width="0.5" stroke="black" fill="magenta"/>
  <circle cx="594.873" cy="513.48" r="5.05067" stroke-width="0.5" stroke="black" fill="magenta"/>
   </g>
   <g id="cell7">
  <circle cx="511.462" cy="464.305" r="8.41271" stroke-width="0.5" stroke="black" fill="magenta"/>
  <circle cx="511.462" cy="464.305" r="5.05167" stroke-width="0.5" stroke="black" fill="magenta"/>
   </g>
   <g id="cell8">
  <circle cx="366.809" cy="550.229" r="7.9229" stroke-width="0.5" stroke="black" fill="magenta"/>
  <circle cx="366.809" cy="550.229" r="4.80599" stroke-width="0.5" stroke="black" fill="magenta"/>
   </g>
   <g id="cell9">
  <circle cx="463.831" cy="601.975" r="8.40895" stroke-width="0.5" stroke="black" fill="magenta"/>
  <circle cx="463.831" cy="601.975" r="5.05061" stroke-width="0.5" stroke="black" fill="magenta"/>
   </g>
   <g id="cell10">
  <circle cx="587.83" cy="396.695" r="7.92848" stroke-width="0.5" stroke="black" fill="magenta"/>
  <circle cx="587.83" cy="396.695" r="4.81717" stroke-width="0.5" stroke="black" fill="magenta"/>
   </g>
   <g id="cell11">
  <circle cx="589.748" cy="590.273" r="8.41271" stroke-width="0.5" stroke="black" fill="magenta"/>
  <circle cx="589.748" cy="590.273" r="5.05167" stroke-width="0.5" stroke="black" fill="magenta"/>
   </g>
   <g id="cell12">
  <circle cx="498.956" cy="583.503" r="8.41271" stroke-width="0.5" stroke="black" fill="magenta"/>
  <circle cx="498.956" cy="583.503" r="5.05167" stroke-width="0.5" stroke="black" fill="magenta"/>
   </g>
   <g id="cell13">
  <circle cx="379.143" cy="558.113" r="8.35879" stroke-width="0.5" stroke="black" fill="magenta"/>
  <circle cx="379.143" cy="558.113" r="5.03123" stroke-width="0.5" stroke="black" fill="magenta"/>
   </g>
   <g id="cell14">
  <circle cx="523.395" cy="399.234" r="8.26262" stroke-width="0.5" stroke="black" fill="magenta"/>
  <circle cx="523.395" cy="399.234" r="4.98642" stroke-width="0.5" stroke="black" fill="magenta"/>
   </g>
   <g id="cell15">
  <circle cx="392.301" cy="487.926" r="6.87071" stroke-width="0.5" stroke="black" fill="magenta"/>
  <circle cx="392.301" cy="487.926" r="4.19122" stroke-width="0.5" stroke="black" fill="magenta"/>
   </g>
   <g id="cell16">
  <circle cx="431.273" cy="412.155" r="8.41271" stroke-width="0.5" stroke="black" fill="magenta"/>
  <circle cx="431.273" cy="412.155" r="5.05167" stroke-width="0.5" stroke="black" fill="magenta"/>
   </g>
   <g id="cell17">
  <circle cx="587.675" cy="487.153" r="8.40472" stroke-width="0.5" stroke="black" fill="magenta"/>
  <circle cx="587.675" cy="487.153" r="5.04922" stroke-width="0.5" stroke="black" fill="magenta"/>
   </g>
   <g id="cell18">
  <circle cx="509.838" cy="392.82" r="8.41177" stroke-width="0.5" stroke="black" fill="magenta"/>
  <circle cx="509.838" cy="392.82" r="5.05144" stroke-width="0.5" stroke="black" fill="magenta"/>
   </g>
   <g id="cell19">
  <circle cx="449.54" cy="542.147" r="8.40774" stroke-width="0.5" stroke="black" fill="magenta"/>
  <circle cx="449.54" cy="542.147" r="5.05022" stroke-width="0.5" stroke="black" fill="magenta"/>
   </g>
   <g id="cell20">
  <circle cx="528.662" cy="423.368" r="8.41271" stroke-width="0.5" stroke="black" fill="magenta"/>
  <circle cx="528.662" cy="423.368" r="5.05167" stroke-width="0.5" stroke="black" fill="magenta"/>
   </g>
   <g id="cell141">
  <circle cx="481.783" cy="440.665" r="7.98562" stroke-width="0.5" stroke="black" fill="magenta"/>
  <circle cx="481.783" cy="440.665" r="4.84385" stroke-width="0.5" stroke="black" fill="magenta"/>
   </g>
   <g id="cell22">
  <circle cx="559.493" cy="496.361" r="8.4058" stroke-width="0.5" stroke="black" fill="magenta"/>
  <circle cx="559.493" cy="496.361" r="5.04964" stroke-width="0.5" stroke="black" fill="magenta"/>
   </g>
   <g id="cell23">
  <circle cx="535.74" cy="484.143" r="8.41271" stroke-width="0.5" stroke="black" fill="magenta"/>
  <circle cx="535.74" cy="484.143" r="5.05167" stroke-width="0.5" stroke="black" fill="magenta"/>
   </g>
   <g id="cell24">
  <circle cx="562.286" cy="382.246" r="8.41271" stroke-width="0.5" stroke="black" fill="magenta"/>
  <circle cx="562.286" cy="382.246" r="5.05167" stroke-width="0.5" stroke="black" fill="magenta"/>
   </g>
   <g id="cell25">
  <circle cx="653.047" cy="563.91" r="7.42559" stroke-width="0.5" stroke="black" fill="green"/>
  <circle cx="653.047" cy="563.91" r="4.51774" stroke-width="0.5" stroke="black" fill="green"/>
   </g>
   <g id="cell26">
  <circle cx="547.836" cy="402.436" r="8.41271" stroke-width="0.5" stroke="black" fill="green"/>
  <circle cx="547.836" cy="402.436" r="5.05167" stroke-width="0.5" stroke="black" fill="green"/>
   </g>
   <g id="cell27">
  <circle cx="457.446" cy="388.678" r="8.41271" stroke-width="0.5" stroke="black" fill="green"/>
  <circle cx="457.446" cy="388.678" r="5.05167" stroke-width="0.5" stroke="black" fill="green"/>
   </g>
   <g id="cell28">
  <circle cx="435.137" cy="547.543" r="8.41271" stroke-width="0.5" stroke="black" fill="green"/>
  <circle cx="435.137" cy="547.543" r="5.05167" stroke-width="0.5" stroke="black" fill="green"/>
   </g>
   <g id="cell29">
  <circle cx="466.119" cy="520.905" r="8.38045" stroke-width="0.5" stroke="black" fill="green"/>
  <circle cx="466.119" cy="520.905" r="5.04024" stroke-width="0.5" stroke="black" fill="green"/>
   </g>
   <g id="cell30">
  <circle cx="478.668" cy="539.407" r="8.41271" stroke-width="0.5" stroke="black" fill="green"/>
  <circle cx="478.668" cy="539.407" r="5.05167" stroke-width="0.5" stroke="black" fill="green"/>
   </g>
   <g id="cell31">
  <circle cx="413.421" cy="535.195" r="8.41271" stroke-width="0.5" stroke="black" fill="green"/>
  <circle cx="413.421" cy="535.195" r="5.05167" stroke-width="0.5" stroke="black" fill="green"/>
   </g>
   <g id="cell32">
  <circle cx="424.512" cy="458.093" r="6.98869" stroke-width="0.5" stroke="black" fill="green"/>
  <circle cx="424.512" cy="458.093" r="4.23439" stroke-width="0.5" stroke="black" fill="green"/>
   </g>
   <g id="cell33">
  <circle cx="498.789" cy="413.583" r="8.4103" stroke-width="0.5" stroke="black" fill="green"/>
  <circle cx="498.789" cy="413.583" r="5.05102" stroke-width="0.5" stroke="black" fill="green"/>
   </g>
   <g id="cell34">
  <circle cx="392.094" cy="453.62" r="8.4097" stroke-width="0.5" stroke="black" fill="green"/>
  <circle cx="392.094" cy="453.62" r="5.05084" stroke-width="0.5" stroke="black" fill="green"/>
   </g>
   <g id="cell35">
  <circle cx="544.922" cy="554.393" r="8.40056" stroke-width="0.5" stroke="black" fill="green"/>
  <circle cx="544.922" cy="554.393" r="5.04776" stroke-width="0.5" stroke="black" fill="green"/>
   </g>
   <g id="cell36">
  <circle cx="394.797" cy="579.978" r="8.34884" stroke-width="0.5" stroke="black" fill="green"/>
  <circle cx="394.797" cy="579.978" r="5.02667" stroke-width="0.5" stroke="black" fill="green"/>
   </g>
   <g id="cell37">
  <circle cx="634.871" cy="460.618" r="1.41604" stroke-width="0.5" stroke="black" fill="green"/>
  <circle cx="634.871" cy="460.618" r="1.40242" stroke-width="0.5" stroke="black" fill="black"/>
   </g>
   <g id="cell38">
  <circle cx="524.103" cy="604.577" r="8.40801" stroke-width="0.5" stroke="black" fill="green"/>
  <circle cx="524.103" cy="604.577" r="5.05031" stroke-width="0.5" stroke="black" fill="green"/>
   </g>
   <g id="cell39">
  <circle cx="617.679" cy="494.773" r="8.41154" stroke-width="0.5" stroke="black" fill="green"/>
  <circle cx="617.679" cy="494.773" r="5.05138" stroke-width="0.5" stroke="black" fill="green"/>
   </g>
   <g id="cell40">
  <circle cx="487.27" cy="573.369" r="8.41271" stroke-width="0.5" stroke="black" fill="green"/>
  <circle cx="487.27" cy="573.369" r="5.05167" stroke-width="0.5" stroke="black" fill="green"/>
   </g>
   <g id="cell41">
  <circle cx="363.375" cy="479.418" r="8.41271" stroke-width="0.5" stroke="black" fill="green"/>
  <circle cx="363.375" cy="479.418" r="5.05167" stroke-width="0.5" stroke="black" fill="green"/>
   </g>
   <g id="cell42">
  <circle cx="452.659" cy="487.116" r="1.69697" stroke-width="0.5" stroke="black" fill="green"/>
  <circle cx="452.659" cy="487.116" r="1.65509" stroke-width="0.5" stroke="black" fill="black"/>
   </g>
   <g id="cell43">
  <circle cx="558.094" cy="445.56" r="8.41271" stroke-width="0.5" stroke="black" fill="green"/>
  <circle cx="558.094" cy="445.56" r="5.05167" stroke-width="0.5" stroke="black" fill="green"/>
   </g>
   <g id="cell44">
  <circle cx="486.902" cy="628.604" r="7.54233" stroke-width="0.5" stroke="black" fill="green"/>
  <circle cx="486.902" cy="628.604" r="4.58494" stroke-width="0.5" stroke="black" fill="green"/>
   </g>
   <g id="cell45">
  <circle cx="427.899" cy="561.18" r="4.70339" stroke-width="0.5" stroke="black" fill="green"/>
  <circle cx="427.899" cy="561.18" r="2.87899" stroke-width="0.5" stroke="black" fill="green"/>
   </g>
   <g id="cell46">
  <circle cx="520.626" cy="620.346" r="8.05192" stroke-width="0.5" stroke="black" fill="green"/>
  <circle cx="520.626" cy="620.346" r="4.88108" stroke-width="0.5" stroke="black" fill="green"/>
   </g>
   <g id="cell47">
  <circle cx="496.242" cy="509.189" r="8.41271" stroke-width="0.5" stroke="black" fill="green"/>
  <circle cx="496.242" cy="509.189" r="5.05167" stroke-width="0.5" stroke="black" fill="green"/>
   </g>
   <g id="cell48">
  <circle cx="566.461" cy="605.317" r="8.41271" stroke-width="0.5" stroke="black" fill="green"/>
  <circle cx="566.461" cy="605.317" r="5.05167" stroke-width="0.5" stroke="black" fill="green"/>
   </g>
   <g id="cell49">
  <circle cx="434.687" cy="397.034" r="8.30918" stroke-width="0.5" stroke="black" fill="green"/>
  <circle cx="434.687" cy="397.034" r="5.00867" stroke-width="0.5" stroke="black" fill="green"/>
   </g>
   <g id="cell50">
  <circle cx="510.156" cy="514.193" r="7.51976" stroke-width="0.5" stroke="black" fill="cyan"/>
  <circle cx="510.156" cy="514.193" r="4.57072" stroke-width="0.5" stroke="black" fill="cyan"/>
   </g>
   <g id="cell51">
  <circle cx="385.852" cy="603.927" r="7.6471" stroke-width="0.5" stroke="black" fill="cyan"/>
  <circle cx="385.852" cy="603.927" r="4.65598" stroke-width="0.5" stroke="black" fill="cyan"/>
   </g>
   <g id="cell120">
  <circle cx="419.666" cy="610.651" r="8.36592" stroke-width="0.5" stroke="black" fill="cyan"/>
  <circle cx="419.666" cy="610.651" r="5.03403" stroke-width="0.5" stroke="black" fill="cyan"/>
   </g>
   <g id="cell53">
  <circle cx="571.059" cy="436.172" r="8.41271" stroke-width="0.5" stroke="black" fill="cyan"/>
  <circle cx="571.059" cy="436.172" r="5.05167" stroke-width="0.5" stroke="black" fill="cyan"/>
   </g>
   <g id="cell54">
  <circle cx="481.642" cy="426.073" r="7.79564" stroke-width="0.5" stroke="black" fill="cyan"/>
  <circle cx="481.642" cy="426.073" r="4.73359" stroke-width="0.5" stroke="black" fill="cyan"/>
   </g>
   <g id="cell55">
  <circle cx="523.62" cy="474.163" r="8.41271" stroke-width="0.5" stroke="black" fill="cyan"/>
  <circle cx="523.62" cy="474.163" r="5.05167" stroke-width="0.5" stroke="black" fill="cyan"/>
   </g>
   <g id="cell56">
  <circle cx="615.727" cy="522.512" r="8.41271" stroke-width="0.5" stroke="black" fill="cyan"/>
  <circle cx="615.727" cy="522.512" r="5.05167" stroke-width="0.5" stroke="black" fill="cyan"/>
   </g>
   <g id="cell57">
  <circle cx="418.488" cy="626.537" r="8.36592" stroke-width="0.5" stroke="black" fill="cyan"/>
  <circle cx="418.488" cy="626.537" r="5.03403" stroke-width="0.5" stroke="black" fill="cyan"/>
   </g>
   <g id="cell58">
  <circle cx="551.179" cy="483.72" r="8.41271" stroke-width="0.5" stroke="black" fill="cyan"/>
  <circle cx="551.179" cy="483.72" r="5.05167" stroke-width="0.5" stroke="black" fill="cyan"/>
   </g>
   <g id="cell59">
  <circle cx="385.16" cy="439.177" r="8.41271" stroke-width="0.5" stroke="black" fill="cyan"/>
  <circle cx="385.16" cy="439.177" r="5.05167" stroke-width="0.5" stroke="black" fill="cyan"/>
   </g>
   <g id="cell60">
  <circle cx="594.685" cy="473.136" r="8.35568" stroke-width="0.5" stroke="black" fill="cyan"/>
  <circle cx="594.685" cy="473.136" r="5.02965" stroke-width="0.5" stroke="black" fill="cyan"/>
   </g>
   <g id="cell155">
  <circle cx="521.036" cy="591.028" r="6.90602" stroke-width="0.5" stroke="black" fill="magenta"/>
  <circle cx="521.036" cy="591.028" r="4.24129" stroke-width="0.5" stroke="black" fill="magenta"/>
   </g>
   <g id="cell62">
  <circle cx="524.433" cy="438.175" r="8.41271" stroke-width="0.5" stroke="black" fill="cyan"/>
  <circle cx="524.433" cy="438.175" r="5.05167" stroke-width="0.5" stroke="black" fill="cyan"/>
   </g>
   <g id="cell63">
  <circle cx="582.069" cy="552.065" r="8.40801" stroke-width="0.5" stroke="black" fill="cyan"/>
  <circle cx="582.069" cy="552.065" r="5.05031" stroke-width="0.5" stroke="black" fill="cyan"/>
   </g>
   <g id="cell64">
  <circle cx="512.045" cy="633.669" r="8.35062" stroke-width="0.5" stroke="black" fill="cyan"/>
  <circle cx="512.045" cy="633.669" r="5.02745" stroke-width="0.5" stroke="black" fill="cyan"/>
   </g>
   <g id="cell65">
  <circle cx="530.16" cy="450.938" r="6.80501" stroke-width="0.5" stroke="black" fill="cyan"/>
  <circle cx="530.16" cy="450.938" r="4.10595" stroke-width="0.5" stroke="black" fill="cyan"/>
   </g>
   <g id="cell66">
  <circle cx="546.259" cy="527.014" r="8.36849" stroke-width="0.5" stroke="black" fill="cyan"/>
  <circle cx="546.259" cy="527.014" r="5.03512" stroke-width="0.5" stroke="black" fill="cyan"/>
   </g>
   <g id="cell67">
  <circle cx="354.593" cy="492.833" r="8.41271" stroke-width="0.5" stroke="black" fill="cyan"/>
  <circle cx="354.593" cy="492.833" r="5.05167" stroke-width="0.5" stroke="black" fill="cyan"/>
   </g>
   <g id="cell68">
  <circle cx="560.952" cy="555.296" r="8.41271" stroke-width="0.5" stroke="black" fill="cyan"/>
  <circle cx="560.952" cy="555.296" r="5.05167" stroke-width="0.5" stroke="black" fill="cyan"/>
   </g>
   <g id="cell69">
  <circle cx="436.634" cy="450.132" r="8.4118" stroke-width="0.5" stroke="black" fill="cyan"/>
  <circle cx="436.634" cy="450.132" r="5.05145" stroke-width="0.5" stroke="black" fill="cyan"/>
   </g>
   <g id="cell70">
  <circle cx="579.312" cy="474.375" r="8.22925" stroke-width="0.5" stroke="black" fill="cyan"/>
  <circle cx="579.312" cy="474.375" r="4.96993" stroke-width="0.5" stroke="black" fill="cyan"/>
   </g>
   <g id="cell71">
  <circle cx="379.932" cy="528.993" r="7.34075" stroke-width="0.5" stroke="black" fill="cyan"/>
  <circle cx="379.932" cy="528.993" r="4.47624" stroke-width="0.5" stroke="black" fill="cyan"/>
   </g>
   <g id="cell72">
  <circle cx="538.692" cy="511.872" r="8.41271" stroke-width="0.5" stroke="black" fill="cyan"/>
  <circle cx="538.692" cy="511.872" r="5.05167" stroke-width="0.5" stroke="black" fill="cyan"/>
   </g>
   <g id="cell129">
  <circle cx="419.637" cy="401.912" r="8.30918" stroke-width="0.5" stroke="black" fill="green"/>
  <circle cx="419.637" cy="401.912" r="5.00867" stroke-width="0.5" stroke="black" fill="green"/>
   </g>
   <g id="cell74">
  <circle cx="542.275" cy="443.396" r="8.41271" stroke-width="0.5" stroke="black" fill="cyan"/>
  <circle cx="542.275" cy="443.396" r="5.05167" stroke-width="0.5" stroke="black" fill="cyan"/>
   </g>
   <g id="cell75">
  <circle cx="444.142" cy="478.323" r="6.67824" stroke-width="0.5" stroke="black" fill="cyan"/>
  <circle cx="444.142" cy="478.323" r="4.02879" stroke-width="0.5" stroke="black" fill="cyan"/>
   </g>
   <g id="cell76">
  <circle cx="522.335" cy="384.277" r="8.40668" stroke-width="0.5" stroke="black" fill="magenta"/>
  <circle cx="522.335" cy="384.277" r="5.04992" stroke-width="0.5" stroke="black" fill="magenta"/>
   </g>
   <g id="cell77">
  <circle cx="494.26" cy="433.443" r="7.98562" stroke-width="0.5" stroke="black" fill="magenta"/>
  <circle cx="494.26" cy="433.443" r="4.84385" stroke-width="0.5" stroke="black" fill="magenta"/>
   </g>
   <g id="cell78">
  <circle cx="370.499" cy="465.632" r="8.41166" stroke-width="0.5" stroke="black" fill="magenta"/>
  <circle cx="370.499" cy="465.632" r="5.05141" stroke-width="0.5" stroke="black" fill="magenta"/>
   </g>
   <g id="cell79">
  <circle cx="500.094" cy="524.63" r="8.4116" stroke-width="0.5" stroke="black" fill="magenta"/>
  <circle cx="500.094" cy="524.63" r="5.05139" stroke-width="0.5" stroke="black" fill="magenta"/>
   </g>
   <g id="cell80">
  <circle cx="603.114" cy="488.3" r="8.41154" stroke-width="0.5" stroke="black" fill="green"/>
  <circle cx="603.114" cy="488.3" r="5.05138" stroke-width="0.5" stroke="black" fill="green"/>
   </g>
   <g id="cell81">
  <circle cx="430.075" cy="503.215" r="8.323" stroke-width="0.5" stroke="black" fill="green"/>
  <circle cx="430.075" cy="503.215" r="5.01602" stroke-width="0.5" stroke="black" fill="green"/>
   </g>
   <g id="cell82">
  <circle cx="544.032" cy="497.172" r="8.41133" stroke-width="0.5" stroke="black" fill="magenta"/>
  <circle cx="544.032" cy="497.172" r="5.05132" stroke-width="0.5" stroke="black" fill="magenta"/>
   </g>
   <g id="cell130">
  <circle cx="574.236" cy="391.367" r="8.3031" stroke-width="0.5" stroke="black" fill="magenta"/>
  <circle cx="574.236" cy="391.367" r="5.00583" stroke-width="0.5" stroke="black" fill="magenta"/>
   </g>
   <g id="cell84">
  <circle cx="404.98" cy="481.522" r="8.38752" stroke-width="0.5" stroke="black" fill="green"/>
  <circle cx="404.98" cy="481.522" r="5.04301" stroke-width="0.5" stroke="black" fill="green"/>
   </g>
   <g id="cell140">
  <circle cx="528.155" cy="580.095" r="7.85605" stroke-width="0.5" stroke="black" fill="magenta"/>
  <circle cx="528.155" cy="580.095" r="4.78653" stroke-width="0.5" stroke="black" fill="magenta"/>
   </g>
   <g id="cell86">
  <circle cx="392.569" cy="564.663" r="8.38932" stroke-width="0.5" stroke="black" fill="magenta"/>
  <circle cx="392.569" cy="564.663" r="5.04372" stroke-width="0.5" stroke="black" fill="magenta"/>
   </g>
   <g id="cell87">
  <circle cx="433.35" cy="519.632" r="7.5673" stroke-width="0.5" stroke="black" fill="green"/>
  <circle cx="433.35" cy="519.632" r="4.60468" stroke-width="0.5" stroke="black" fill="green"/>
   </g>
   <g id="cell88">
  <circle cx="476.693" cy="610.774" r="8.40944" stroke-width="0.5" stroke="black" fill="green"/>
  <circle cx="476.693" cy="610.774" r="5.05076" stroke-width="0.5" stroke="black" fill="green"/>
   </g>
   <g id="cell89">
  <circle cx="435.448" cy="488.876" r="8.40151" stroke-width="0.5" stroke="black" fill="green"/>
  <circle cx="435.448" cy="488.876" r="5.04825" stroke-width="0.5" stroke="black" fill="green"/>
   </g>
   <g id="cell90">
  <circle cx="580.766" cy="512.157" r="7.38566" stroke-width="0.5" stroke="black" fill="magenta"/>
  <circle cx="580.766" cy="512.157" r="4.48958" stroke-width="0.5" stroke="black" fill="magenta"/>
   </g>
   <g id="cell136">
  <circle cx="523.424" cy="540.768" r="8.1947" stroke-width="0.5" stroke="black" fill="magenta"/>
  <circle cx="523.424" cy="540.768" r="4.95246" stroke-width="0.5" stroke="black" fill="magenta"/>
   </g>
   <g id="cell92">
  <circle cx="554.533" cy="594.587" r="8.38637" stroke-width="0.5" stroke="black" fill="green"/>
  <circle cx="554.533" cy="594.587" r="5.0429" stroke-width="0.5" stroke="black" fill="green"/>
   </g>
   <g id="cell93">
  <circle cx="573.305" cy="524.687" r="8.27706" stroke-width="0.5" stroke="black" fill="cyan"/>
  <circle cx="573.305" cy="524.687" r="4.99439" stroke-width="0.5" stroke="black" fill="cyan"/>
   </g>
   <g id="cell94">
  <circle cx="544.027" cy="470.402" r="8.40774" stroke-width="0.5" stroke="black" fill="cyan"/>
  <circle cx="544.027" cy="470.402" r="5.05022" stroke-width="0.5" stroke="black" fill="cyan"/>
   </g>
   <g id="cell95">
  <circle cx="463.431" cy="536.274" r="8.40774" stroke-width="0.5" stroke="black" fill="magenta"/>
  <circle cx="463.431" cy="536.274" r="5.05022" stroke-width="0.5" stroke="black" fill="magenta"/>
   </g>
   <g id="cell96">
  <circle cx="535.325" cy="376.519" r="8.40668" stroke-width="0.5" stroke="black" fill="magenta"/>
  <circle cx="535.325" cy="376.519" r="5.04992" stroke-width="0.5" stroke="black" fill="magenta"/>
   </g>
   <g id="cell97">
  <circle cx="567.257" cy="509.094" r="8.4058" stroke-width="0.5" stroke="black" fill="magenta"/>
  <circle cx="567.257" cy="509.094" r="5.04964" stroke-width="0.5" stroke="black" fill="magenta"/>
   </g>
   <g id="cell98">
  <circle cx="407.046" cy="565.67" r="7.79099" stroke-width="0.5" stroke="black" fill="green"/>
  <circle cx="407.046" cy="565.67" r="4.73209" stroke-width="0.5" stroke="black" fill="green"/>
   </g>
   <g id="cell99">
  <circle cx="574.823" cy="495.755" r="8.40472" stroke-width="0.5" stroke="black" fill="magenta"/>
  <circle cx="574.823" cy="495.755" r="5.04922" stroke-width="0.5" stroke="black" fill="magenta"/>
   </g>
   <g id="cell100">
  <circle cx="569.713" cy="541.772" r="8.40191" stroke-width="0.5" stroke="black" fill="cyan"/>
  <circle cx="569.713" cy="541.772" r="5.04838" stroke-width="0.5" stroke="black" fill="cyan"/>
   </g>
   <g id="cell101">
  <circle cx="458.66" cy="628.479" r="8.39037" stroke-width="0.5" stroke="black" fill="magenta"/>
  <circle cx="458.66" cy="628.479" r="5.04427" stroke-width="0.5" stroke="black" fill="magenta"/>
   </g>
   <g id="cell102">
  <circle cx="446.545" cy="500.639" r="8.40151" stroke-width="0.5" stroke="black" fill="green"/>
  <circle cx="446.545" cy="500.639" r="5.04825" stroke-width="0.5" stroke="black" fill="green"/>
   </g>
   <g id="cell103">
  <circle cx="541.398" cy="603.852" r="8.39919" stroke-width="0.5" stroke="black" fill="green"/>
  <circle cx="541.398" cy="603.852" r="5.04743" stroke-width="0.5" stroke="black" fill="green"/>
   </g>
   <g id="cell104">
  <circle cx="553.739" cy="541.06" r="8.40056" stroke-width="0.5" stroke="black" fill="green"/>
  <circle cx="553.739" cy="541.06" r="5.04776" stroke-width="0.5" stroke="black" fill="green"/>
   </g>
   <g id="cell105">
  <circle cx="415.8" cy="494.825" r="8.39847" stroke-width="0.5" stroke="black" fill="green"/>
  <circle cx="415.8" cy="494.825" r="5.04708" stroke-width="0.5" stroke="black" fill="green"/>
   </g>
   <g id="cell106">
  <circle cx="639.508" cy="538.288" r="8.39913" stroke-width="0.5" stroke="black" fill="green"/>
  <circle cx="639.508" cy="538.288" r="5.04725" stroke-width="0.5" stroke="black" fill="green"/>
   </g>
   <g id="cell107">
  <circle cx="383.728" cy="514.276" r="8.39523" stroke-width="0.5" stroke="black" fill="cyan"/>
  <circle cx="383.728" cy="514.276" r="5.04581" stroke-width="0.5" stroke="black" fill="cyan"/>
   </g>
   <g id="cell108">
  <circle cx="458.874" cy="643.58" r="8.39037" stroke-width="0.5" stroke="black" fill="magenta"/>
  <circle cx="458.874" cy="643.58" r="5.04427" stroke-width="0.5" stroke="black" fill="magenta"/>
   </g>
   <g id="cell109">
  <circle cx="445.707" cy="636.159" r="8.39037" stroke-width="0.5" stroke="black" fill="magenta"/>
  <circle cx="445.707" cy="636.159" r="5.04427" stroke-width="0.5" stroke="black" fill="magenta"/>
   </g>
   <g id="cell110">
  <circle cx="543.112" cy="583.258" r="8.38637" stroke-width="0.5" stroke="black" fill="green"/>
  <circle cx="543.112" cy="583.258" r="5.0429" stroke-width="0.5" stroke="black" fill="green"/>
   </g>
   <g id="cell111">
  <circle cx="629.315" cy="550.536" r="8.38634" stroke-width="0.5" stroke="black" fill="green"/>
  <circle cx="629.315" cy="550.536" r="5.0428" stroke-width="0.5" stroke="black" fill="green"/>
   </g>
   <g id="cell112">
  <circle cx="380.481" cy="573.484" r="8.38932" stroke-width="0.5" stroke="black" fill="magenta"/>
  <circle cx="380.481" cy="573.484" r="5.04372" stroke-width="0.5" stroke="black" fill="magenta"/>
   </g>
   <g id="cell113">
  <circle cx="420.547" cy="479.885" r="8.38752" stroke-width="0.5" stroke="black" fill="green"/>
  <circle cx="420.547" cy="479.885" r="5.04301" stroke-width="0.5" stroke="black" fill="green"/>
   </g>
   <g id="cell114">
  <circle cx="494.432" cy="448.029" r="8.26058" stroke-width="0.5" stroke="black" fill="magenta"/>
  <circle cx="494.432" cy="448.029" r="4.98733" stroke-width="0.5" stroke="black" fill="magenta"/>
   </g>
   <g id="cell115">
  <circle cx="451.318" cy="526.62" r="8.38045" stroke-width="0.5" stroke="black" fill="green"/>
  <circle cx="451.318" cy="526.62" r="5.04024" stroke-width="0.5" stroke="black" fill="green"/>
   </g>
   <g id="cell116">
  <circle cx="368.626" cy="519.333" r="8.37055" stroke-width="0.5" stroke="black" fill="cyan"/>
  <circle cx="368.626" cy="519.333" r="5.03664" stroke-width="0.5" stroke="black" fill="cyan"/>
   </g>
   <g id="cell117">
  <circle cx="438.149" cy="512.561" r="1.50759" stroke-width="0.5" stroke="black" fill="green"/>
  <circle cx="438.149" cy="512.561" r="1.48631" stroke-width="0.5" stroke="black" fill="black"/>
   </g>
   <g id="cell118">
  <circle cx="530.645" cy="527.427" r="8.36849" stroke-width="0.5" stroke="black" fill="cyan"/>
  <circle cx="530.645" cy="527.427" r="5.03512" stroke-width="0.5" stroke="black" fill="cyan"/>
   </g>
   <g id="cell119">
  <circle cx="527.461" cy="634.004" r="7.93832" stroke-width="0.5" stroke="black" fill="green"/>
  <circle cx="527.461" cy="634.004" r="4.81903" stroke-width="0.5" stroke="black" fill="green"/>
   </g>
   <g id="cell121">
  <circle cx="391.591" cy="549.735" r="8.35879" stroke-width="0.5" stroke="black" fill="magenta"/>
  <circle cx="391.591" cy="549.735" r="5.03123" stroke-width="0.5" stroke="black" fill="magenta"/>
   </g>
   <g id="cell122">
  <circle cx="613.514" cy="464.066" r="6.68836" stroke-width="0.5" stroke="black" fill="cyan"/>
  <circle cx="613.514" cy="464.066" r="4.03316" stroke-width="0.5" stroke="black" fill="cyan"/>
   </g>
   <g id="cell123">
  <circle cx="500.399" cy="644.565" r="8.35062" stroke-width="0.5" stroke="black" fill="cyan"/>
  <circle cx="500.399" cy="644.565" r="5.02745" stroke-width="0.5" stroke="black" fill="cyan"/>
   </g>
   <g id="cell124">
  <circle cx="381.977" cy="589.126" r="8.34884" stroke-width="0.5" stroke="black" fill="green"/>
  <circle cx="381.977" cy="589.126" r="5.02667" stroke-width="0.5" stroke="black" fill="green"/>
   </g>
   <g id="cell125">
  <circle cx="451.007" cy="456.294" r="8.3427" stroke-width="0.5" stroke="black" fill="cyan"/>
  <circle cx="451.007" cy="456.294" r="5.02405" stroke-width="0.5" stroke="black" fill="cyan"/>
   </g>
   <g id="cell126">
  <circle cx="416.388" cy="510.647" r="8.323" stroke-width="0.5" stroke="black" fill="green"/>
  <circle cx="416.388" cy="510.647" r="5.01602" stroke-width="0.5" stroke="black" fill="green"/>
   </g>
   <g id="cell127">
  <circle cx="412.856" cy="596.291" r="8.32291" stroke-width="0.5" stroke="black" fill="cyan"/>
  <circle cx="412.856" cy="596.291" r="5.01502" stroke-width="0.5" stroke="black" fill="cyan"/>
   </g>
   <g id="cell128">
  <circle cx="366.431" cy="535.122" r="8.29615" stroke-width="0.5" stroke="black" fill="cyan"/>
  <circle cx="366.431" cy="535.122" r="5.00491" stroke-width="0.5" stroke="black" fill="cyan"/>
   </g>
   <g id="cell131">
  <circle cx="584.514" cy="536.291" r="8.27706" stroke-width="0.5" stroke="black" fill="cyan"/>
  <circle cx="584.514" cy="536.291" r="4.99439" stroke-width="0.5" stroke="black" fill="cyan"/>
   </g>
   <g id="cell132">
  <circle cx="507.272" cy="440.313" r="8.26058" stroke-width="0.5" stroke="black" fill="magenta"/>
  <circle cx="507.272" cy="440.313" r="4.98733" stroke-width="0.5" stroke="black" fill="magenta"/>
   </g>
   <g id="cell133">
  <circle cx="534.127" cy="409.493" r="8.26262" stroke-width="0.5" stroke="black" fill="magenta"/>
  <circle cx="534.127" cy="409.493" r="4.98642" stroke-width="0.5" stroke="black" fill="magenta"/>
   </g>
   <g id="cell134">
  <circle cx="513.4" cy="580.466" r="8.01712" stroke-width="0.5" stroke="black" fill="magenta"/>
  <circle cx="513.4" cy="580.466" r="4.86685" stroke-width="0.5" stroke="black" fill="magenta"/>
   </g>
   <g id="cell135">
  <circle cx="566.515" cy="482.64" r="8.22925" stroke-width="0.5" stroke="black" fill="cyan"/>
  <circle cx="566.515" cy="482.64" r="4.96993" stroke-width="0.5" stroke="black" fill="cyan"/>
   </g>
   <g id="cell137">
  <circle cx="378.849" cy="478.187" r="8.15297" stroke-width="0.5" stroke="black" fill="magenta"/>
  <circle cx="378.849" cy="478.187" r="4.93108" stroke-width="0.5" stroke="black" fill="magenta"/>
   </g>
   <g id="cell138">
  <circle cx="532.889" cy="592.785" r="6.90602" stroke-width="0.5" stroke="black" fill="magenta"/>
  <circle cx="532.889" cy="592.785" r="4.24129" stroke-width="0.5" stroke="black" fill="magenta"/>
   </g>
   <g id="cell139">
  <circle cx="509.331" cy="609.989" r="8.05192" stroke-width="0.5" stroke="black" fill="green"/>
  <circle cx="509.331" cy="609.989" r="4.88108" stroke-width="0.5" stroke="black" fill="green"/>
   </g>
   <g id="cell142">
  <circle cx="585.886" cy="382.562" r="7.92848" stroke-width="0.5" stroke="black" fill="magenta"/>
  <circle cx="585.886" cy="382.562" r="4.81717" stroke-width="0.5" stroke="black" fill="magenta"/>
   </g>
   <g id="cell143">
  <circle cx="537.638" cy="622.954" r="7.93832" stroke-width="0.5" stroke="black" fill="green"/>
  <circle cx="537.638" cy="622.954" r="4.81903" stroke-width="0.5" stroke="black" fill="green"/>
   </g>
   <g id="cell144">
  <circle cx="378.992" cy="543.14" r="7.9229" stroke-width="0.5" stroke="black" fill="magenta"/>
  <circle cx="378.992" cy="543.14" r="4.80599" stroke-width="0.5" stroke="black" fill="magenta"/>
   </g>
   <g id="cell145">
  <circle cx="461.199" cy="485.09" r="7.89373" stroke-width="0.5" stroke="black" fill="magenta"/>
  <circle cx="461.199" cy="485.09" r="4.78957" stroke-width="0.5" stroke="black" fill="magenta"/>
   </g>
   <g id="cell146">
  <circle cx="466.891" cy="425.422" r="7.79564" stroke-width="0.5" stroke="black" fill="cyan"/>
  <circle cx="466.891" cy="425.422" r="4.73359" stroke-width="0.5" stroke="black" fill="cyan"/>
   </g>
   <g id="cell148">
  <circle cx="400.326" cy="604.799" r="7.6471" stroke-width="0.5" stroke="black" fill="cyan"/>
  <circle cx="400.326" cy="604.799" r="4.65598" stroke-width="0.5" stroke="black" fill="cyan"/>
   </g>
   <g id="cell149">
  <circle cx="437.845" cy="533.043" r="7.5673" stroke-width="0.5" stroke="black" fill="green"/>
  <circle cx="437.845" cy="533.043" r="4.60468" stroke-width="0.5" stroke="black" fill="green"/>
   </g>
   <g id="cell150">
  <circle cx="473.005" cy="625.445" r="7.54233" stroke-width="0.5" stroke="black" fill="green"/>
  <circle cx="473.005" cy="625.445" r="4.58494" stroke-width="0.5" stroke="black" fill="green"/>
   </g>
   <g id="cell151">
  <circle cx="523.9" cy="514.486" r="7.51976" stroke-width="0.5" stroke="black" fill="cyan"/>
  <circle cx="523.9" cy="514.486" r="4.57072" stroke-width="0.5" stroke="black" fill="cyan"/>
   </g>
   <g id="cell152">
  <circle cx="644.109" cy="552.919" r="7.42559" stroke-width="0.5" stroke="black" fill="green"/>
  <circle cx="644.109" cy="552.919" r="4.51774" stroke-width="0.5" stroke="black" fill="green"/>
   </g>
   <g id="cell153">
  <circle cx="393.364" cy="525.676" r="7.34075" stroke-width="0.5" stroke="black" fill="cyan"/>
  <circle cx="393.364" cy="525.676" r="4.47624" stroke-width="0.5" stroke="black" fill="cyan"/>
   </g>
   <g id="cell154">
  <circle cx="587.885" cy="501.171" r="7.38566" stroke-width="0.5" stroke="black" fill="magenta"/>
  <circle cx="587.885" cy="501.171" r="4.48958" stroke-width="0.5" stroke="black" fill="magenta"/>
   </g>
   <g id="cell156">
  <circle cx="403.349" cy="553.709" r="5.61699" stroke-width="0.5" stroke="black" fill="green"/>
  <circle cx="403.349" cy="553.709" r="3.40907" stroke-width="0.5" stroke="black" fill="green"/>
   </g>
   <g id="cell157">
  <circle cx="392.085" cy="475.675" r="6.87071" stroke-width="0.5" stroke="black" fill="magenta"/>
  <circle cx="392.085" cy="475.675" r="4.19122" stroke-width="0.5" stroke="black" fill="magenta"/>
   </g>
   <g id="cell158">
  <circle cx="432.862" cy="475.376" r="5.94373" stroke-width="0.5" stroke="black" fill="green"/>
  <circle cx="432.862" cy="475.376" r="3.63689" stroke-width="0.5" stroke="black" fill="green"/>
   </g>
   <g id="cell159">
  <circle cx="434.933" cy="464.408" r="5.94373" stroke-width="0.5" stroke="black" fill="green"/>
  <circle cx="434.933" cy="464.408" r="3.63689" stroke-width="0.5" stroke="black" fill="green"/>
   </g>
   <g id="cell160">
  <circle cx="416.113" cy="557.312" r="5.77969" stroke-width="0.5" stroke="black" fill="green"/>
  <circle cx="416.113" cy="557.312" r="3.52543" stroke-width="0.5" stroke="black" fill="green"/>
   </g>
   <g id="cell161">
  <circle cx="532.35" cy="463.083" r="6.80501" stroke-width="0.5" stroke="black" fill="cyan"/>
  <circle cx="532.35" cy="463.083" r="4.10595" stroke-width="0.5" stroke="black" fill="cyan"/>
   </g>
   <g id="cell162">
  <circle cx="608.546" cy="475.417" r="6.68836" stroke-width="0.5" stroke="black" fill="cyan"/>
  <circle cx="608.546" cy="475.417" r="4.03316" stroke-width="0.5" stroke="black" fill="cyan"/>
   </g>
   <g id="cell163">
  <circle cx="424.563" cy="552.997" r="4.70339" stroke-width="0.5" stroke="black" fill="green"/>
  <circle cx="424.563" cy="552.997" r="2.87899" stroke-width="0.5" stroke="black" fill="green"/>
   </g>
   <g id="cell164">
  <circle cx="452.943" cy="470.049" r="6.67824" stroke-width="0.5" stroke="black" fill="cyan"/>
  <circle cx="452.943" cy="470.049" r="4.02879" stroke-width="0.5" stroke="black" fill="cyan"/>
   </g>
   <g id="cell165">
  <circle cx="411.756" cy="547.8" r="5.61699" stroke-width="0.5" stroke="black" fill="green"/>
  <circle cx="411.756" cy="547.8" r="3.40907" stroke-width="0.5" stroke="black" fill="green"/>
   </g>
  </g>
 </g>
  <rect x="775" y="1035" width="200" height="10" stroke-width="2" stroke="rgb(255,255,255)" fill="rgb(0,0,0)"/>
  <text x="781.25" y="1028.75"
   font-family="Arial" font-size="25" fill="black" >
   200 &#956;m
  </text>
  <text x="25" y="1045"
   font-family="Arial" font-size="18.75" fill="black" >
   0 days, 0 hours, 0 minutes, and 36.8457 seconds
  </text>
  <rect x="0" y="70" width="1000" height="1000" stroke-width="2" stroke="rgb(0,0,0)" fill="none"/>
</svg>
