<?xml version="1.0" encoding="UTF-8" standalone="no"?>
<!-- Created with PhysiCell (http://PhysiCell.MathCancer.org/) -->
<svg 
 xmlns:dc="http://purl.org/dc/elements/1.1/" 
 xmlns:cc="http://creativecommons.org/ns#" 
 xmlns:rdf="http://www.w3.org/1999/02/22-rdf-syntax-ns#" 
 xmlns:svg="http://www.w3.org/2000/svg" 
 xmlns="http://www.w3.org/2000/svg" 
 version="1.1" 
 width="1000" 
 height="1070" 
 id="svg2">
  <rect x="0" y="0" width="1000" height="1070" stroke-width="2" stroke="white" fill="white"/>
  <text x="12.5" y="30"
   font-family="Arial" font-size="25" fill="black" >
   Current time: 0 days, 7 hours, and 0.00 minutes, z = 0.00 &#956;m
  </text>
  <text x="12.5" y="57.5"
   font-family="Arial" font-size="23.75" fill="black" >
   98 agents
  </text>
 <g id="tissue" 
    transform="translate(0,1070) scale(1,-1)">
  <g id="ECM">
  </g>
  <g id="cells">
   <g id="cell0">
  <circle cx="521.516" cy="532.317" r="8.05651" stroke-width="0.5" stroke="black" fill="magenta"/>
  <circle cx="521.516" cy="532.317" r="4.87966" stroke-width="0.5" stroke="black" fill="magenta"/>
   </g>
   <g id="cell1">
  <circle cx="603.026" cy="527.471" r="8.41271" stroke-width="0.5" stroke="black" fill="magenta"/>
  <circle cx="603.026" cy="527.471" r="5.05167" stroke-width="0.5" stroke="black" fill="magenta"/>
   </g>
   <g id="cell2">
  <circle cx="510.78" cy="600.549" r="8.41271" stroke-width="0.5" stroke="black" fill="magenta"/>
  <circle cx="510.78" cy="600.549" r="5.05167" stroke-width="0.5" stroke="black" fill="magenta"/>
   </g>
   <g id="cell3">
  <circle cx="531.275" cy="543.485" r="8.41271" stroke-width="0.5" stroke="black" fill="magenta"/>
  <circle cx="531.275" cy="543.485" r="5.05167" stroke-width="0.5" stroke="black" fill="magenta"/>
   </g>
   <g id="cell4">
  <circle cx="473.122" cy="441.529" r="8.09544" stroke-width="0.5" stroke="black" fill="magenta"/>
  <circle cx="473.122" cy="441.529" r="4.90058" stroke-width="0.5" stroke="black" fill="magenta"/>
   </g>
   <g id="cell5">
  <circle cx="464.856" cy="493.33" r="8.41271" stroke-width="0.5" stroke="black" fill="magenta"/>
  <circle cx="464.856" cy="493.33" r="5.05167" stroke-width="0.5" stroke="black" fill="magenta"/>
   </g>
   <g id="cell6">
  <circle cx="596.915" cy="514.811" r="7.24243" stroke-width="0.5" stroke="black" fill="magenta"/>
  <circle cx="596.915" cy="514.811" r="4.39934" stroke-width="0.5" stroke="black" fill="magenta"/>
   </g>
   <g id="cell7">
  <circle cx="512.38" cy="464.883" r="8.41271" stroke-width="0.5" stroke="black" fill="magenta"/>
  <circle cx="512.38" cy="464.883" r="5.05167" stroke-width="0.5" stroke="black" fill="magenta"/>
   </g>
   <g id="cell8">
  <circle cx="376.361" cy="547.567" r="8.41271" stroke-width="0.5" stroke="black" fill="magenta"/>
  <circle cx="376.361" cy="547.567" r="5.05167" stroke-width="0.5" stroke="black" fill="magenta"/>
   </g>
   <g id="cell9">
  <circle cx="464.821" cy="601.046" r="7.18097" stroke-width="0.5" stroke="black" fill="magenta"/>
  <circle cx="464.821" cy="601.046" r="4.36015" stroke-width="0.5" stroke="black" fill="magenta"/>
   </g>
   <g id="cell10">
  <circle cx="583.447" cy="392.105" r="8.41271" stroke-width="0.5" stroke="black" fill="magenta"/>
  <circle cx="583.447" cy="392.105" r="5.05167" stroke-width="0.5" stroke="black" fill="magenta"/>
   </g>
   <g id="cell11">
  <circle cx="589.748" cy="590.273" r="8.41271" stroke-width="0.5" stroke="black" fill="magenta"/>
  <circle cx="589.748" cy="590.273" r="5.05167" stroke-width="0.5" stroke="black" fill="magenta"/>
   </g>
   <g id="cell12">
  <circle cx="506.643" cy="585.984" r="8.41271" stroke-width="0.5" stroke="black" fill="magenta"/>
  <circle cx="506.643" cy="585.984" r="5.05167" stroke-width="0.5" stroke="black" fill="magenta"/>
   </g>
   <g id="cell13">
  <circle cx="381.096" cy="560.956" r="7.41548" stroke-width="0.5" stroke="black" fill="magenta"/>
  <circle cx="381.096" cy="560.956" r="4.50723" stroke-width="0.5" stroke="black" fill="magenta"/>
   </g>
   <g id="cell14">
  <circle cx="525.862" cy="400.93" r="8.41271" stroke-width="0.5" stroke="black" fill="magenta"/>
  <circle cx="525.862" cy="400.93" r="5.05167" stroke-width="0.5" stroke="black" fill="magenta"/>
   </g>
   <g id="cell15">
  <circle cx="385.214" cy="478.078" r="8.07654" stroke-width="0.5" stroke="black" fill="magenta"/>
  <circle cx="385.214" cy="478.078" r="4.89046" stroke-width="0.5" stroke="black" fill="magenta"/>
   </g>
   <g id="cell16">
  <circle cx="428.96" cy="413.217" r="8.41271" stroke-width="0.5" stroke="black" fill="magenta"/>
  <circle cx="428.96" cy="413.217" r="5.05167" stroke-width="0.5" stroke="black" fill="magenta"/>
   </g>
   <g id="cell17">
  <circle cx="573.482" cy="490.082" r="8.41271" stroke-width="0.5" stroke="black" fill="magenta"/>
  <circle cx="573.482" cy="490.082" r="5.05167" stroke-width="0.5" stroke="black" fill="magenta"/>
   </g>
   <g id="cell18">
  <circle cx="512.875" cy="393.379" r="8.11327" stroke-width="0.5" stroke="black" fill="magenta"/>
  <circle cx="512.875" cy="393.379" r="4.91006" stroke-width="0.5" stroke="black" fill="magenta"/>
   </g>
   <g id="cell19">
  <circle cx="447.989" cy="535.558" r="6.86652" stroke-width="0.5" stroke="black" fill="magenta"/>
  <circle cx="447.989" cy="535.558" r="4.14883" stroke-width="0.5" stroke="black" fill="magenta"/>
   </g>
   <g id="cell20">
  <circle cx="529.23" cy="415.808" r="8.41271" stroke-width="0.5" stroke="black" fill="magenta"/>
  <circle cx="529.23" cy="415.808" r="5.05167" stroke-width="0.5" stroke="black" fill="magenta"/>
   </g>
   <g id="cell21">
  <circle cx="462.828" cy="635.539" r="8.41271" stroke-width="0.5" stroke="black" fill="magenta"/>
  <circle cx="462.828" cy="635.539" r="5.05167" stroke-width="0.5" stroke="black" fill="magenta"/>
   </g>
   <g id="cell22">
  <circle cx="558.539" cy="493.46" r="6.32075" stroke-width="0.5" stroke="black" fill="magenta"/>
  <circle cx="558.539" cy="493.46" r="3.83257" stroke-width="0.5" stroke="black" fill="magenta"/>
   </g>
   <g id="cell23">
  <circle cx="538.348" cy="481.557" r="8.41271" stroke-width="0.5" stroke="black" fill="magenta"/>
  <circle cx="538.348" cy="481.557" r="5.05167" stroke-width="0.5" stroke="black" fill="magenta"/>
   </g>
   <g id="cell24">
  <circle cx="559.288" cy="379.787" r="8.41271" stroke-width="0.5" stroke="black" fill="magenta"/>
  <circle cx="559.288" cy="379.787" r="5.05167" stroke-width="0.5" stroke="black" fill="magenta"/>
   </g>
   <g id="cell25">
  <circle cx="640.943" cy="550.03" r="8.41271" stroke-width="0.5" stroke="black" fill="green"/>
  <circle cx="640.943" cy="550.03" r="5.05167" stroke-width="0.5" stroke="black" fill="green"/>
   </g>
   <g id="cell26">
  <circle cx="550.641" cy="401.23" r="8.41271" stroke-width="0.5" stroke="black" fill="green"/>
  <circle cx="550.641" cy="401.23" r="5.05167" stroke-width="0.5" stroke="black" fill="green"/>
   </g>
   <g id="cell27">
  <circle cx="457.446" cy="388.678" r="8.41271" stroke-width="0.5" stroke="black" fill="green"/>
  <circle cx="457.446" cy="388.678" r="5.05167" stroke-width="0.5" stroke="black" fill="green"/>
   </g>
   <g id="cell28">
  <circle cx="434.096" cy="532.959" r="8.41271" stroke-width="0.5" stroke="black" fill="green"/>
  <circle cx="434.096" cy="532.959" r="5.05167" stroke-width="0.5" stroke="black" fill="green"/>
   </g>
   <g id="cell29">
  <circle cx="455.298" cy="522.263" r="7.3599" stroke-width="0.5" stroke="black" fill="green"/>
  <circle cx="455.298" cy="522.263" r="4.47294" stroke-width="0.5" stroke="black" fill="green"/>
   </g>
   <g id="cell30">
  <circle cx="481.58" cy="540.282" r="8.41271" stroke-width="0.5" stroke="black" fill="green"/>
  <circle cx="481.58" cy="540.282" r="5.05167" stroke-width="0.5" stroke="black" fill="green"/>
   </g>
   <g id="cell31">
  <circle cx="412.757" cy="541.193" r="8.41271" stroke-width="0.5" stroke="black" fill="green"/>
  <circle cx="412.757" cy="541.193" r="5.05167" stroke-width="0.5" stroke="black" fill="green"/>
   </g>
   <g id="cell32">
  <circle cx="428.371" cy="471.157" r="7.49456" stroke-width="0.5" stroke="black" fill="green"/>
  <circle cx="428.371" cy="471.157" r="4.55548" stroke-width="0.5" stroke="black" fill="green"/>
   </g>
   <g id="cell33">
  <circle cx="498.634" cy="413.834" r="7.61469" stroke-width="0.5" stroke="black" fill="green"/>
  <circle cx="498.634" cy="413.834" r="4.62762" stroke-width="0.5" stroke="black" fill="green"/>
   </g>
   <g id="cell34">
  <circle cx="392.252" cy="453.007" r="7.41548" stroke-width="0.5" stroke="black" fill="green"/>
  <circle cx="392.252" cy="453.007" r="4.50723" stroke-width="0.5" stroke="black" fill="green"/>
   </g>
   <g id="cell35">
  <circle cx="546.832" cy="545.029" r="8.41271" stroke-width="0.5" stroke="black" fill="green"/>
  <circle cx="546.832" cy="545.029" r="5.05167" stroke-width="0.5" stroke="black" fill="green"/>
   </g>
   <g id="cell36">
  <circle cx="391.061" cy="584.748" r="8.41271" stroke-width="0.5" stroke="black" fill="green"/>
  <circle cx="391.061" cy="584.748" r="5.05167" stroke-width="0.5" stroke="black" fill="green"/>
   </g>
   <g id="cell37">
  <circle cx="634.871" cy="460.618" r="8.41271" stroke-width="0.5" stroke="black" fill="green"/>
  <circle cx="634.871" cy="460.618" r="5.05167" stroke-width="0.5" stroke="black" fill="green"/>
   </g>
   <g id="cell38">
  <circle cx="532.521" cy="602.876" r="6.92764" stroke-width="0.5" stroke="black" fill="green"/>
  <circle cx="532.521" cy="602.876" r="4.1918" stroke-width="0.5" stroke="black" fill="green"/>
   </g>
   <g id="cell39">
  <circle cx="617.268" cy="494.179" r="8.03527" stroke-width="0.5" stroke="black" fill="green"/>
  <circle cx="617.268" cy="494.179" r="4.86813" stroke-width="0.5" stroke="black" fill="green"/>
   </g>
   <g id="cell40">
  <circle cx="485.348" cy="571.779" r="8.41271" stroke-width="0.5" stroke="black" fill="green"/>
  <circle cx="485.348" cy="571.779" r="5.05167" stroke-width="0.5" stroke="black" fill="green"/>
   </g>
   <g id="cell41">
  <circle cx="364.081" cy="480.22" r="8.41271" stroke-width="0.5" stroke="black" fill="green"/>
  <circle cx="364.081" cy="480.22" r="5.05167" stroke-width="0.5" stroke="black" fill="green"/>
   </g>
   <g id="cell42">
  <circle cx="451.387" cy="488.829" r="7.02441" stroke-width="0.5" stroke="black" fill="green"/>
  <circle cx="451.387" cy="488.829" r="4.29883" stroke-width="0.5" stroke="black" fill="green"/>
   </g>
   <g id="cell43">
  <circle cx="557.94" cy="445.555" r="8.41271" stroke-width="0.5" stroke="black" fill="green"/>
  <circle cx="557.94" cy="445.555" r="5.05167" stroke-width="0.5" stroke="black" fill="green"/>
   </g>
   <g id="cell44">
  <circle cx="475.544" cy="628.493" r="7.33129" stroke-width="0.5" stroke="black" fill="green"/>
  <circle cx="475.544" cy="628.493" r="4.45516" stroke-width="0.5" stroke="black" fill="green"/>
   </g>
   <g id="cell45">
  <circle cx="414.953" cy="557.066" r="8.41271" stroke-width="0.5" stroke="black" fill="green"/>
  <circle cx="414.953" cy="557.066" r="5.05167" stroke-width="0.5" stroke="black" fill="green"/>
   </g>
   <g id="cell46">
  <circle cx="521.291" cy="612.071" r="8.41271" stroke-width="0.5" stroke="black" fill="green"/>
  <circle cx="521.291" cy="612.071" r="5.05167" stroke-width="0.5" stroke="black" fill="green"/>
   </g>
   <g id="cell47">
  <circle cx="504.736" cy="509.204" r="8.41271" stroke-width="0.5" stroke="black" fill="green"/>
  <circle cx="504.736" cy="509.204" r="5.05167" stroke-width="0.5" stroke="black" fill="green"/>
   </g>
   <g id="cell48">
  <circle cx="564.519" cy="602.784" r="8.41271" stroke-width="0.5" stroke="black" fill="green"/>
  <circle cx="564.519" cy="602.784" r="5.05167" stroke-width="0.5" stroke="black" fill="green"/>
   </g>
   <g id="cell49">
  <circle cx="429.826" cy="397.641" r="8.41271" stroke-width="0.5" stroke="black" fill="green"/>
  <circle cx="429.826" cy="397.641" r="5.05167" stroke-width="0.5" stroke="black" fill="green"/>
   </g>
   <g id="cell50">
  <circle cx="518.413" cy="517.377" r="8.41271" stroke-width="0.5" stroke="black" fill="cyan"/>
  <circle cx="518.413" cy="517.377" r="5.05167" stroke-width="0.5" stroke="black" fill="cyan"/>
   </g>
   <g id="cell51">
  <circle cx="399.399" cy="598.384" r="8.41271" stroke-width="0.5" stroke="black" fill="cyan"/>
  <circle cx="399.399" cy="598.384" r="5.05167" stroke-width="0.5" stroke="black" fill="cyan"/>
   </g>
   <g id="cell52">
  <circle cx="524.211" cy="426.33" r="4.0657" stroke-width="0.5" stroke="black" fill="cyan"/>
  <circle cx="524.211" cy="426.33" r="2.92016" stroke-width="0.5" stroke="black" fill="black"/>
   </g>
   <g id="cell53">
  <circle cx="570.989" cy="436.223" r="8.41271" stroke-width="0.5" stroke="black" fill="cyan"/>
  <circle cx="570.989" cy="436.223" r="5.05167" stroke-width="0.5" stroke="black" fill="cyan"/>
   </g>
   <g id="cell54">
  <circle cx="479.224" cy="427.498" r="8.41271" stroke-width="0.5" stroke="black" fill="cyan"/>
  <circle cx="479.224" cy="427.498" r="5.05167" stroke-width="0.5" stroke="black" fill="cyan"/>
   </g>
   <g id="cell55">
  <circle cx="527.059" cy="470.485" r="8.41271" stroke-width="0.5" stroke="black" fill="cyan"/>
  <circle cx="527.059" cy="470.485" r="5.05167" stroke-width="0.5" stroke="black" fill="cyan"/>
   </g>
   <g id="cell56">
  <circle cx="617.739" cy="522.296" r="8.41271" stroke-width="0.5" stroke="black" fill="cyan"/>
  <circle cx="617.739" cy="522.296" r="5.05167" stroke-width="0.5" stroke="black" fill="cyan"/>
   </g>
   <g id="cell57">
  <circle cx="416.924" cy="617.466" r="8.41271" stroke-width="0.5" stroke="black" fill="cyan"/>
  <circle cx="416.924" cy="617.466" r="5.05167" stroke-width="0.5" stroke="black" fill="cyan"/>
   </g>
   <g id="cell58">
  <circle cx="554.273" cy="481.27" r="8.41271" stroke-width="0.5" stroke="black" fill="cyan"/>
  <circle cx="554.273" cy="481.27" r="5.05167" stroke-width="0.5" stroke="black" fill="cyan"/>
   </g>
   <g id="cell59">
  <circle cx="385.378" cy="439.629" r="8.41271" stroke-width="0.5" stroke="black" fill="cyan"/>
  <circle cx="385.378" cy="439.629" r="5.05167" stroke-width="0.5" stroke="black" fill="cyan"/>
   </g>
   <g id="cell60">
  <circle cx="593.658" cy="474.364" r="8.41271" stroke-width="0.5" stroke="black" fill="cyan"/>
  <circle cx="593.658" cy="474.364" r="5.05167" stroke-width="0.5" stroke="black" fill="cyan"/>
   </g>
   <g id="cell61">
  <circle cx="552.913" cy="613.821" r="8.41271" stroke-width="0.5" stroke="black" fill="cyan"/>
  <circle cx="552.913" cy="613.821" r="5.05167" stroke-width="0.5" stroke="black" fill="cyan"/>
   </g>
   <g id="cell62">
  <circle cx="526.188" cy="443.724" r="8.41271" stroke-width="0.5" stroke="black" fill="cyan"/>
  <circle cx="526.188" cy="443.724" r="5.05167" stroke-width="0.5" stroke="black" fill="cyan"/>
   </g>
   <g id="cell63">
  <circle cx="579.234" cy="550.812" r="6.92764" stroke-width="0.5" stroke="black" fill="cyan"/>
  <circle cx="579.234" cy="550.812" r="4.1918" stroke-width="0.5" stroke="black" fill="cyan"/>
   </g>
   <g id="cell64">
  <circle cx="509.962" cy="636.825" r="8.41271" stroke-width="0.5" stroke="black" fill="cyan"/>
  <circle cx="509.962" cy="636.825" r="5.05167" stroke-width="0.5" stroke="black" fill="cyan"/>
   </g>
   <g id="cell65">
  <circle cx="537.829" cy="460.693" r="6.86652" stroke-width="0.5" stroke="black" fill="cyan"/>
  <circle cx="537.829" cy="460.693" r="4.14883" stroke-width="0.5" stroke="black" fill="cyan"/>
   </g>
   <g id="cell66">
  <circle cx="536.388" cy="528.759" r="8.41271" stroke-width="0.5" stroke="black" fill="cyan"/>
  <circle cx="536.388" cy="528.759" r="5.05167" stroke-width="0.5" stroke="black" fill="cyan"/>
   </g>
   <g id="cell67">
  <circle cx="354.396" cy="492.982" r="8.41271" stroke-width="0.5" stroke="black" fill="cyan"/>
  <circle cx="354.396" cy="492.982" r="5.05167" stroke-width="0.5" stroke="black" fill="cyan"/>
   </g>
   <g id="cell68">
  <circle cx="562.143" cy="550.285" r="8.41271" stroke-width="0.5" stroke="black" fill="cyan"/>
  <circle cx="562.143" cy="550.285" r="5.05167" stroke-width="0.5" stroke="black" fill="cyan"/>
   </g>
   <g id="cell69">
  <circle cx="435.692" cy="458.328" r="8.1218" stroke-width="0.5" stroke="black" fill="cyan"/>
  <circle cx="435.692" cy="458.328" r="4.91457" stroke-width="0.5" stroke="black" fill="cyan"/>
   </g>
   <g id="cell70">
  <circle cx="577.644" cy="474.717" r="8.41271" stroke-width="0.5" stroke="black" fill="cyan"/>
  <circle cx="577.644" cy="474.717" r="5.05167" stroke-width="0.5" stroke="black" fill="cyan"/>
   </g>
   <g id="cell71">
  <circle cx="377.712" cy="520.989" r="8.41271" stroke-width="0.5" stroke="black" fill="cyan"/>
  <circle cx="377.712" cy="520.989" r="5.05167" stroke-width="0.5" stroke="black" fill="cyan"/>
   </g>
   <g id="cell72">
  <circle cx="533.732" cy="512.932" r="8.41271" stroke-width="0.5" stroke="black" fill="cyan"/>
  <circle cx="533.732" cy="512.932" r="5.05167" stroke-width="0.5" stroke="black" fill="cyan"/>
   </g>
   <g id="cell73">
  <circle cx="360.86" cy="545.955" r="8.41271" stroke-width="0.5" stroke="black" fill="cyan"/>
  <circle cx="360.86" cy="545.955" r="5.05167" stroke-width="0.5" stroke="black" fill="cyan"/>
   </g>
   <g id="cell74">
  <circle cx="541.934" cy="446.8" r="8.41271" stroke-width="0.5" stroke="black" fill="cyan"/>
  <circle cx="541.934" cy="446.8" r="5.05167" stroke-width="0.5" stroke="black" fill="cyan"/>
   </g>
   <g id="cell75">
  <circle cx="443.152" cy="471.927" r="8.1218" stroke-width="0.5" stroke="black" fill="cyan"/>
  <circle cx="443.152" cy="471.927" r="4.91457" stroke-width="0.5" stroke="black" fill="cyan"/>
   </g>
   <g id="cell76">
  <circle cx="524.57" cy="387.589" r="6.52457" stroke-width="0.5" stroke="black" fill="magenta"/>
  <circle cx="524.57" cy="387.589" r="3.95844" stroke-width="0.5" stroke="black" fill="magenta"/>
   </g>
   <g id="cell77">
  <circle cx="487.615" cy="440.361" r="8.09544" stroke-width="0.5" stroke="black" fill="magenta"/>
  <circle cx="487.615" cy="440.361" r="4.90058" stroke-width="0.5" stroke="black" fill="magenta"/>
   </g>
   <g id="cell78">
  <circle cx="374.12" cy="468.704" r="8.07654" stroke-width="0.5" stroke="black" fill="magenta"/>
  <circle cx="374.12" cy="468.704" r="4.89046" stroke-width="0.5" stroke="black" fill="magenta"/>
   </g>
   <g id="cell79">
  <circle cx="507.609" cy="528.082" r="8.05651" stroke-width="0.5" stroke="black" fill="magenta"/>
  <circle cx="507.609" cy="528.082" r="4.87966" stroke-width="0.5" stroke="black" fill="magenta"/>
   </g>
   <g id="cell80">
  <circle cx="606.088" cy="483.807" r="8.03527" stroke-width="0.5" stroke="black" fill="green"/>
  <circle cx="606.088" cy="483.807" r="4.86813" stroke-width="0.5" stroke="black" fill="green"/>
   </g>
   <g id="cell81">
  <circle cx="426.3" cy="499.585" r="7.98892" stroke-width="0.5" stroke="black" fill="green"/>
  <circle cx="426.3" cy="499.585" r="4.84272" stroke-width="0.5" stroke="black" fill="green"/>
   </g>
   <g id="cell82">
  <circle cx="545.779" cy="494.202" r="7.96365" stroke-width="0.5" stroke="black" fill="magenta"/>
  <circle cx="545.779" cy="494.202" r="4.82873" stroke-width="0.5" stroke="black" fill="magenta"/>
   </g>
   <g id="cell83">
  <circle cx="494.453" cy="427.602" r="7.61469" stroke-width="0.5" stroke="black" fill="green"/>
  <circle cx="494.453" cy="427.602" r="4.62762" stroke-width="0.5" stroke="black" fill="green"/>
   </g>
   <g id="cell84">
  <circle cx="418.547" cy="481.34" r="7.49456" stroke-width="0.5" stroke="black" fill="green"/>
  <circle cx="418.547" cy="481.34" r="4.55548" stroke-width="0.5" stroke="black" fill="green"/>
   </g>
   <g id="cell85">
  <circle cx="405.209" cy="447.524" r="7.41548" stroke-width="0.5" stroke="black" fill="green"/>
  <circle cx="405.209" cy="447.524" r="4.50723" stroke-width="0.5" stroke="black" fill="green"/>
   </g>
   <g id="cell86">
  <circle cx="390.726" cy="570.12" r="7.41548" stroke-width="0.5" stroke="black" fill="magenta"/>
  <circle cx="390.726" cy="570.12" r="4.50723" stroke-width="0.5" stroke="black" fill="magenta"/>
   </g>
   <g id="cell87">
  <circle cx="441.651" cy="520.087" r="7.3599" stroke-width="0.5" stroke="black" fill="green"/>
  <circle cx="441.651" cy="520.087" r="4.47294" stroke-width="0.5" stroke="black" fill="green"/>
   </g>
   <g id="cell88">
  <circle cx="478.99" cy="615.043" r="7.33129" stroke-width="0.5" stroke="black" fill="green"/>
  <circle cx="478.99" cy="615.043" r="4.45516" stroke-width="0.5" stroke="black" fill="green"/>
   </g>
   <g id="cell89">
  <circle cx="439.396" cy="494.299" r="7.02441" stroke-width="0.5" stroke="black" fill="green"/>
  <circle cx="439.396" cy="494.299" r="4.29883" stroke-width="0.5" stroke="black" fill="green"/>
   </g>
   <g id="cell90">
  <circle cx="590.513" cy="503.48" r="7.24243" stroke-width="0.5" stroke="black" fill="magenta"/>
  <circle cx="590.513" cy="503.48" r="4.39934" stroke-width="0.5" stroke="black" fill="magenta"/>
   </g>
   <g id="cell91">
  <circle cx="452.423" cy="597.453" r="7.18097" stroke-width="0.5" stroke="black" fill="magenta"/>
  <circle cx="452.423" cy="597.453" r="4.36015" stroke-width="0.5" stroke="black" fill="magenta"/>
   </g>
   <g id="cell92">
  <circle cx="544.821" cy="598.368" r="6.92764" stroke-width="0.5" stroke="black" fill="green"/>
  <circle cx="544.821" cy="598.368" r="4.1918" stroke-width="0.5" stroke="black" fill="green"/>
   </g>
   <g id="cell93">
  <circle cx="572.749" cy="539.434" r="6.92764" stroke-width="0.5" stroke="black" fill="cyan"/>
  <circle cx="572.749" cy="539.434" r="4.1918" stroke-width="0.5" stroke="black" fill="cyan"/>
   </g>
   <g id="cell94">
  <circle cx="546.416" cy="470.004" r="6.86652" stroke-width="0.5" stroke="black" fill="cyan"/>
  <circle cx="546.416" cy="470.004" r="4.14883" stroke-width="0.5" stroke="black" fill="cyan"/>
   </g>
   <g id="cell95">
  <circle cx="460.226" cy="534.372" r="6.86652" stroke-width="0.5" stroke="black" fill="magenta"/>
  <circle cx="460.226" cy="534.372" r="4.14883" stroke-width="0.5" stroke="black" fill="magenta"/>
   </g>
   <g id="cell96">
  <circle cx="532.607" cy="379.167" r="6.52457" stroke-width="0.5" stroke="black" fill="magenta"/>
  <circle cx="532.607" cy="379.167" r="3.95844" stroke-width="0.5" stroke="black" fill="magenta"/>
   </g>
   <g id="cell97">
  <circle cx="566.032" cy="501.47" r="6.32075" stroke-width="0.5" stroke="black" fill="magenta"/>
  <circle cx="566.032" cy="501.47" r="3.83257" stroke-width="0.5" stroke="black" fill="magenta"/>
   </g>
  </g>
 </g>
  <rect x="775" y="1035" width="200" height="10" stroke-width="2" stroke="rgb(255,255,255)" fill="rgb(0,0,0)"/>
  <text x="781.25" y="1028.75"
   font-family="Arial" font-size="25" fill="black" >
   200 &#956;m
  </text>
  <text x="25" y="1045"
   font-family="Arial" font-size="18.75" fill="black" >
   0 days, 0 hours, 0 minutes, and 9.1435 seconds
  </text>
  <rect x="0" y="70" width="1000" height="1000" stroke-width="2" stroke="rgb(0,0,0)" fill="none"/>
</svg>
