<?xml version="1.0" encoding="UTF-8" standalone="no"?>
<!-- Created with PhysiCell (http://PhysiCell.MathCancer.org/) -->
<svg 
 xmlns:dc="http://purl.org/dc/elements/1.1/" 
 xmlns:cc="http://creativecommons.org/ns#" 
 xmlns:rdf="http://www.w3.org/1999/02/22-rdf-syntax-ns#" 
 xmlns:svg="http://www.w3.org/2000/svg" 
 xmlns="http://www.w3.org/2000/svg" 
 version="1.1" 
 width="1000" 
 height="1070" 
 id="svg2">
  <rect x="0" y="0" width="1000" height="1070" stroke-width="2" stroke="white" fill="white"/>
  <text x="12.5" y="30"
   font-family="Arial" font-size="25" fill="black" >
   Current time: 1 days, 6 hours, and 30.00 minutes, z = 0.00 &#956;m
  </text>
  <text x="12.5" y="57.5"
   font-family="Arial" font-size="23.75" fill="black" >
   167 agents
  </text>
 <g id="tissue" 
    transform="translate(0,1070) scale(1,-1)">
  <g id="ECM">
  </g>
  <g id="cells">
   <g id="cell0">
  <circle cx="511.899" cy="532.408" r="8.41223" stroke-width="0.5" stroke="black" fill="magenta"/>
  <circle cx="511.899" cy="532.408" r="5.05156" stroke-width="0.5" stroke="black" fill="magenta"/>
   </g>
   <g id="cell147">
  <circle cx="421.765" cy="573.037" r="8.15169" stroke-width="0.5" stroke="black" fill="green"/>
  <circle cx="421.765" cy="573.037" r="4.93069" stroke-width="0.5" stroke="black" fill="green"/>
   </g>
   <g id="cell2">
  <circle cx="506.075" cy="594.062" r="8.34317" stroke-width="0.5" stroke="black" fill="magenta"/>
  <circle cx="506.075" cy="594.062" r="5.02416" stroke-width="0.5" stroke="black" fill="magenta"/>
   </g>
   <g id="cell3">
  <circle cx="538.999" cy="544.787" r="8.32032" stroke-width="0.5" stroke="black" fill="magenta"/>
  <circle cx="538.999" cy="544.787" r="5.01383" stroke-width="0.5" stroke="black" fill="magenta"/>
   </g>
   <g id="cell4">
  <circle cx="460.125" cy="440.993" r="8.41228" stroke-width="0.5" stroke="black" fill="magenta"/>
  <circle cx="460.125" cy="440.993" r="5.05157" stroke-width="0.5" stroke="black" fill="magenta"/>
   </g>
   <g id="cell5">
  <circle cx="461.848" cy="498.192" r="8.1947" stroke-width="0.5" stroke="black" fill="magenta"/>
  <circle cx="461.848" cy="498.192" r="4.95246" stroke-width="0.5" stroke="black" fill="magenta"/>
   </g>
   <g id="cell6">
  <circle cx="595.957" cy="512.775" r="8.41116" stroke-width="0.5" stroke="black" fill="magenta"/>
  <circle cx="595.957" cy="512.775" r="5.05127" stroke-width="0.5" stroke="black" fill="magenta"/>
   </g>
   <g id="cell7">
  <circle cx="513.41" cy="464.387" r="8.41271" stroke-width="0.5" stroke="black" fill="magenta"/>
  <circle cx="513.41" cy="464.387" r="5.05167" stroke-width="0.5" stroke="black" fill="magenta"/>
   </g>
   <g id="cell8">
  <circle cx="365.357" cy="550.545" r="8.20689" stroke-width="0.5" stroke="black" fill="magenta"/>
  <circle cx="365.357" cy="550.545" r="4.95867" stroke-width="0.5" stroke="black" fill="magenta"/>
   </g>
   <g id="cell9">
  <circle cx="463.178" cy="601.843" r="8.41108" stroke-width="0.5" stroke="black" fill="magenta"/>
  <circle cx="463.178" cy="601.843" r="5.05125" stroke-width="0.5" stroke="black" fill="magenta"/>
   </g>
   <g id="cell10">
  <circle cx="588.025" cy="396.899" r="8.21008" stroke-width="0.5" stroke="black" fill="magenta"/>
  <circle cx="588.025" cy="396.899" r="4.96328" stroke-width="0.5" stroke="black" fill="magenta"/>
   </g>
   <g id="cell11">
  <circle cx="589.748" cy="590.273" r="8.41271" stroke-width="0.5" stroke="black" fill="magenta"/>
  <circle cx="589.748" cy="590.273" r="5.05167" stroke-width="0.5" stroke="black" fill="magenta"/>
   </g>
   <g id="cell12">
  <circle cx="497.302" cy="582.015" r="8.41271" stroke-width="0.5" stroke="black" fill="magenta"/>
  <circle cx="497.302" cy="582.015" r="5.05167" stroke-width="0.5" stroke="black" fill="magenta"/>
   </g>
   <g id="cell13">
  <circle cx="378.413" cy="558.146" r="8.38955" stroke-width="0.5" stroke="black" fill="magenta"/>
  <circle cx="378.413" cy="558.146" r="5.04373" stroke-width="0.5" stroke="black" fill="magenta"/>
   </g>
   <g id="cell14">
  <circle cx="526.743" cy="395.918" r="7.42835" stroke-width="0.5" stroke="black" fill="magenta"/>
  <circle cx="526.743" cy="395.918" r="4.52343" stroke-width="0.5" stroke="black" fill="magenta"/>
   </g>
   <g id="cell15">
  <circle cx="390.4" cy="487.923" r="7.74979" stroke-width="0.5" stroke="black" fill="magenta"/>
  <circle cx="390.4" cy="487.923" r="4.71674" stroke-width="0.5" stroke="black" fill="magenta"/>
   </g>
   <g id="cell16">
  <circle cx="431.284" cy="412.17" r="8.41271" stroke-width="0.5" stroke="black" fill="magenta"/>
  <circle cx="431.284" cy="412.17" r="5.05167" stroke-width="0.5" stroke="black" fill="magenta"/>
   </g>
   <g id="cell17">
  <circle cx="583.965" cy="485.713" r="8.40925" stroke-width="0.5" stroke="black" fill="magenta"/>
  <circle cx="583.965" cy="485.713" r="5.0507" stroke-width="0.5" stroke="black" fill="magenta"/>
   </g>
   <g id="cell18">
  <circle cx="512.465" cy="395.394" r="8.4123" stroke-width="0.5" stroke="black" fill="magenta"/>
  <circle cx="512.465" cy="395.394" r="5.05158" stroke-width="0.5" stroke="black" fill="magenta"/>
   </g>
   <g id="cell19">
  <circle cx="451.121" cy="541.646" r="8.41055" stroke-width="0.5" stroke="black" fill="magenta"/>
  <circle cx="451.121" cy="541.646" r="5.05109" stroke-width="0.5" stroke="black" fill="magenta"/>
   </g>
   <g id="cell20">
  <circle cx="525.848" cy="420.292" r="8.41271" stroke-width="0.5" stroke="black" fill="magenta"/>
  <circle cx="525.848" cy="420.292" r="5.05167" stroke-width="0.5" stroke="black" fill="magenta"/>
   </g>
   <g id="cell141">
  <circle cx="485.95" cy="440.757" r="7.30065" stroke-width="0.5" stroke="black" fill="magenta"/>
  <circle cx="485.95" cy="440.757" r="4.4558" stroke-width="0.5" stroke="black" fill="magenta"/>
   </g>
   <g id="cell22">
  <circle cx="559.844" cy="497.227" r="8.40971" stroke-width="0.5" stroke="black" fill="magenta"/>
  <circle cx="559.844" cy="497.227" r="5.05086" stroke-width="0.5" stroke="black" fill="magenta"/>
   </g>
   <g id="cell23">
  <circle cx="536.681" cy="484.224" r="8.41271" stroke-width="0.5" stroke="black" fill="magenta"/>
  <circle cx="536.681" cy="484.224" r="5.05167" stroke-width="0.5" stroke="black" fill="magenta"/>
   </g>
   <g id="cell24">
  <circle cx="562.369" cy="382.092" r="8.41271" stroke-width="0.5" stroke="black" fill="magenta"/>
  <circle cx="562.369" cy="382.092" r="5.05167" stroke-width="0.5" stroke="black" fill="magenta"/>
   </g>
   <g id="cell25">
  <circle cx="653.451" cy="564.421" r="7.99472" stroke-width="0.5" stroke="black" fill="green"/>
  <circle cx="653.451" cy="564.421" r="4.8474" stroke-width="0.5" stroke="black" fill="green"/>
   </g>
   <g id="cell26">
  <circle cx="548.623" cy="402.139" r="8.41271" stroke-width="0.5" stroke="black" fill="green"/>
  <circle cx="548.623" cy="402.139" r="5.05167" stroke-width="0.5" stroke="black" fill="green"/>
   </g>
   <g id="cell27">
  <circle cx="451.958" cy="389.495" r="7.49456" stroke-width="0.5" stroke="black" fill="green"/>
  <circle cx="451.958" cy="389.495" r="4.55548" stroke-width="0.5" stroke="black" fill="green"/>
   </g>
   <g id="cell28">
  <circle cx="438.089" cy="549.452" r="8.41271" stroke-width="0.5" stroke="black" fill="green"/>
  <circle cx="438.089" cy="549.452" r="5.05167" stroke-width="0.5" stroke="black" fill="green"/>
   </g>
   <g id="cell29">
  <circle cx="466.65" cy="519.962" r="8.39881" stroke-width="0.5" stroke="black" fill="green"/>
  <circle cx="466.65" cy="519.962" r="5.0472" stroke-width="0.5" stroke="black" fill="green"/>
   </g>
   <g id="cell30">
  <circle cx="479.557" cy="539.624" r="8.41271" stroke-width="0.5" stroke="black" fill="green"/>
  <circle cx="479.557" cy="539.624" r="5.05167" stroke-width="0.5" stroke="black" fill="green"/>
   </g>
   <g id="cell31">
  <circle cx="413.885" cy="531.827" r="8.41271" stroke-width="0.5" stroke="black" fill="green"/>
  <circle cx="413.885" cy="531.827" r="5.05167" stroke-width="0.5" stroke="black" fill="green"/>
   </g>
   <g id="cell32">
  <circle cx="424.531" cy="457.007" r="7.77693" stroke-width="0.5" stroke="black" fill="green"/>
  <circle cx="424.531" cy="457.007" r="4.723" stroke-width="0.5" stroke="black" fill="green"/>
   </g>
   <g id="cell33">
  <circle cx="498.365" cy="416.8" r="8.41166" stroke-width="0.5" stroke="black" fill="green"/>
  <circle cx="498.365" cy="416.8" r="5.05141" stroke-width="0.5" stroke="black" fill="green"/>
   </g>
   <g id="cell34">
  <circle cx="392.063" cy="453.766" r="8.4114" stroke-width="0.5" stroke="black" fill="green"/>
  <circle cx="392.063" cy="453.766" r="5.05134" stroke-width="0.5" stroke="black" fill="green"/>
   </g>
   <g id="cell35">
  <circle cx="546.664" cy="558.145" r="8.40745" stroke-width="0.5" stroke="black" fill="green"/>
  <circle cx="546.664" cy="558.145" r="5.05013" stroke-width="0.5" stroke="black" fill="green"/>
   </g>
   <g id="cell36">
  <circle cx="394.014" cy="580.069" r="8.38532" stroke-width="0.5" stroke="black" fill="green"/>
  <circle cx="394.014" cy="580.069" r="5.04199" stroke-width="0.5" stroke="black" fill="green"/>
   </g>
   <g id="cell174">
  <circle cx="478.622" cy="617.074" r="7.11716" stroke-width="0.5" stroke="black" fill="green"/>
  <circle cx="478.622" cy="617.074" r="4.31926" stroke-width="0.5" stroke="black" fill="green"/>
   </g>
   <g id="cell38">
  <circle cx="526.223" cy="605.289" r="8.41067" stroke-width="0.5" stroke="black" fill="green"/>
  <circle cx="526.223" cy="605.289" r="5.05113" stroke-width="0.5" stroke="black" fill="green"/>
   </g>
   <g id="cell39">
  <circle cx="617.219" cy="497.92" r="7.33096" stroke-width="0.5" stroke="black" fill="green"/>
  <circle cx="617.219" cy="497.92" r="4.45507" stroke-width="0.5" stroke="black" fill="green"/>
   </g>
   <g id="cell40">
  <circle cx="485.578" cy="571.912" r="8.41271" stroke-width="0.5" stroke="black" fill="green"/>
  <circle cx="485.578" cy="571.912" r="5.05167" stroke-width="0.5" stroke="black" fill="green"/>
   </g>
   <g id="cell41">
  <circle cx="363.741" cy="479.721" r="8.41271" stroke-width="0.5" stroke="black" fill="green"/>
  <circle cx="363.741" cy="479.721" r="5.05167" stroke-width="0.5" stroke="black" fill="green"/>
   </g>
   <g id="cell42">
  <circle cx="452.103" cy="486.373" r="1.16273" stroke-width="0.5" stroke="black" fill="green"/>
  <circle cx="452.103" cy="486.373" r="1.15903" stroke-width="0.5" stroke="black" fill="black"/>
   </g>
   <g id="cell43">
  <circle cx="558.186" cy="445.63" r="8.41271" stroke-width="0.5" stroke="black" fill="green"/>
  <circle cx="558.186" cy="445.63" r="5.05167" stroke-width="0.5" stroke="black" fill="green"/>
   </g>
   <g id="cell44">
  <circle cx="487.466" cy="628.352" r="8.04527" stroke-width="0.5" stroke="black" fill="green"/>
  <circle cx="487.466" cy="628.352" r="4.87378" stroke-width="0.5" stroke="black" fill="green"/>
   </g>
   <g id="cell45">
  <circle cx="429.398" cy="560.925" r="6.94358" stroke-width="0.5" stroke="black" fill="green"/>
  <circle cx="429.398" cy="560.925" r="4.27445" stroke-width="0.5" stroke="black" fill="green"/>
   </g>
   <g id="cell46">
  <circle cx="521.242" cy="620.392" r="8.26087" stroke-width="0.5" stroke="black" fill="green"/>
  <circle cx="521.242" cy="620.392" r="4.98702" stroke-width="0.5" stroke="black" fill="green"/>
   </g>
   <g id="cell47">
  <circle cx="494.097" cy="509.62" r="8.41271" stroke-width="0.5" stroke="black" fill="green"/>
  <circle cx="494.097" cy="509.62" r="5.05167" stroke-width="0.5" stroke="black" fill="green"/>
   </g>
   <g id="cell48">
  <circle cx="565.465" cy="604.499" r="8.41271" stroke-width="0.5" stroke="black" fill="green"/>
  <circle cx="565.465" cy="604.499" r="5.05167" stroke-width="0.5" stroke="black" fill="green"/>
   </g>
   <g id="cell49">
  <circle cx="434.76" cy="397.002" r="8.36849" stroke-width="0.5" stroke="black" fill="green"/>
  <circle cx="434.76" cy="397.002" r="5.03512" stroke-width="0.5" stroke="black" fill="green"/>
   </g>
   <g id="cell50">
  <circle cx="508.193" cy="505.931" r="6.8907" stroke-width="0.5" stroke="black" fill="cyan"/>
  <circle cx="508.193" cy="505.931" r="4.21281" stroke-width="0.5" stroke="black" fill="cyan"/>
   </g>
   <g id="cell51">
  <circle cx="385.242" cy="603.885" r="8.09266" stroke-width="0.5" stroke="black" fill="cyan"/>
  <circle cx="385.242" cy="603.885" r="4.90237" stroke-width="0.5" stroke="black" fill="cyan"/>
   </g>
   <g id="cell120">
  <circle cx="419.646" cy="610.626" r="8.3926" stroke-width="0.5" stroke="black" fill="cyan"/>
  <circle cx="419.646" cy="610.626" r="5.04482" stroke-width="0.5" stroke="black" fill="cyan"/>
   </g>
   <g id="cell53">
  <circle cx="571.126" cy="436.122" r="8.41271" stroke-width="0.5" stroke="black" fill="cyan"/>
  <circle cx="571.126" cy="436.122" r="5.05167" stroke-width="0.5" stroke="black" fill="cyan"/>
   </g>
   <g id="cell54">
  <circle cx="481.695" cy="427.41" r="8.15353" stroke-width="0.5" stroke="black" fill="cyan"/>
  <circle cx="481.695" cy="427.41" r="4.93122" stroke-width="0.5" stroke="black" fill="cyan"/>
   </g>
   <g id="cell55">
  <circle cx="522.687" cy="477.002" r="8.41271" stroke-width="0.5" stroke="black" fill="cyan"/>
  <circle cx="522.687" cy="477.002" r="5.05167" stroke-width="0.5" stroke="black" fill="cyan"/>
   </g>
   <g id="cell56">
  <circle cx="615.596" cy="522.451" r="8.41271" stroke-width="0.5" stroke="black" fill="cyan"/>
  <circle cx="615.596" cy="522.451" r="5.05167" stroke-width="0.5" stroke="black" fill="cyan"/>
   </g>
   <g id="cell57">
  <circle cx="418.486" cy="626.568" r="8.3926" stroke-width="0.5" stroke="black" fill="cyan"/>
  <circle cx="418.486" cy="626.568" r="5.04482" stroke-width="0.5" stroke="black" fill="cyan"/>
   </g>
   <g id="cell58">
  <circle cx="552.313" cy="483.7" r="8.41271" stroke-width="0.5" stroke="black" fill="cyan"/>
  <circle cx="552.313" cy="483.7" r="5.05167" stroke-width="0.5" stroke="black" fill="cyan"/>
   </g>
   <g id="cell59">
  <circle cx="385.198" cy="439.256" r="8.41271" stroke-width="0.5" stroke="black" fill="cyan"/>
  <circle cx="385.198" cy="439.256" r="5.05167" stroke-width="0.5" stroke="black" fill="cyan"/>
   </g>
   <g id="cell60">
  <circle cx="593.521" cy="473.191" r="8.38823" stroke-width="0.5" stroke="black" fill="cyan"/>
  <circle cx="593.521" cy="473.191" r="5.04313" stroke-width="0.5" stroke="black" fill="cyan"/>
   </g>
   <g id="cell155">
  <circle cx="520.14" cy="591.779" r="7.7942" stroke-width="0.5" stroke="black" fill="magenta"/>
  <circle cx="520.14" cy="591.779" r="4.75017" stroke-width="0.5" stroke="black" fill="magenta"/>
   </g>
   <g id="cell62">
  <circle cx="524.887" cy="435.543" r="8.41271" stroke-width="0.5" stroke="black" fill="cyan"/>
  <circle cx="524.887" cy="435.543" r="5.05167" stroke-width="0.5" stroke="black" fill="cyan"/>
   </g>
   <g id="cell63">
  <circle cx="581.841" cy="551.429" r="8.41067" stroke-width="0.5" stroke="black" fill="cyan"/>
  <circle cx="581.841" cy="551.429" r="5.05113" stroke-width="0.5" stroke="black" fill="cyan"/>
   </g>
   <g id="cell64">
  <circle cx="511.891" cy="633.187" r="8.38608" stroke-width="0.5" stroke="black" fill="cyan"/>
  <circle cx="511.891" cy="633.187" r="5.04229" stroke-width="0.5" stroke="black" fill="cyan"/>
   </g>
   <g id="cell65">
  <circle cx="530.083" cy="449.539" r="7.6574" stroke-width="0.5" stroke="black" fill="cyan"/>
  <circle cx="530.083" cy="449.539" r="4.65332" stroke-width="0.5" stroke="black" fill="cyan"/>
   </g>
   <g id="cell66">
  <circle cx="550.119" cy="525.083" r="8.3937" stroke-width="0.5" stroke="black" fill="cyan"/>
  <circle cx="550.119" cy="525.083" r="5.04523" stroke-width="0.5" stroke="black" fill="cyan"/>
   </g>
   <g id="cell67">
  <circle cx="354.571" cy="492.865" r="8.41271" stroke-width="0.5" stroke="black" fill="cyan"/>
  <circle cx="354.571" cy="492.865" r="5.05167" stroke-width="0.5" stroke="black" fill="cyan"/>
   </g>
   <g id="cell68">
  <circle cx="562.277" cy="554.778" r="8.41271" stroke-width="0.5" stroke="black" fill="cyan"/>
  <circle cx="562.277" cy="554.778" r="5.05167" stroke-width="0.5" stroke="black" fill="cyan"/>
   </g>
   <g id="cell69">
  <circle cx="436.824" cy="447.367" r="8.41231" stroke-width="0.5" stroke="black" fill="cyan"/>
  <circle cx="436.824" cy="447.367" r="5.05158" stroke-width="0.5" stroke="black" fill="cyan"/>
   </g>
   <g id="cell70">
  <circle cx="577.836" cy="471.486" r="8.33481" stroke-width="0.5" stroke="black" fill="cyan"/>
  <circle cx="577.836" cy="471.486" r="5.02043" stroke-width="0.5" stroke="black" fill="cyan"/>
   </g>
   <g id="cell71">
  <circle cx="379.67" cy="528.654" r="7.96138" stroke-width="0.5" stroke="black" fill="cyan"/>
  <circle cx="379.67" cy="528.654" r="4.83254" stroke-width="0.5" stroke="black" fill="cyan"/>
   </g>
   <g id="cell72">
  <circle cx="539.678" cy="512.279" r="8.41271" stroke-width="0.5" stroke="black" fill="cyan"/>
  <circle cx="539.678" cy="512.279" r="5.05167" stroke-width="0.5" stroke="black" fill="cyan"/>
   </g>
   <g id="cell129">
  <circle cx="419.588" cy="401.913" r="8.36849" stroke-width="0.5" stroke="black" fill="green"/>
  <circle cx="419.588" cy="401.913" r="5.03512" stroke-width="0.5" stroke="black" fill="green"/>
   </g>
   <g id="cell74">
  <circle cx="542.753" cy="442.771" r="5.19915" stroke-width="0.5" stroke="black" fill="cyan"/>
  <circle cx="542.753" cy="442.771" r="3.42443" stroke-width="0.5" stroke="black" fill="black"/>
   </g>
   <g id="cell75">
  <circle cx="446.265" cy="480.393" r="7.57343" stroke-width="0.5" stroke="black" fill="cyan"/>
  <circle cx="446.265" cy="480.393" r="4.60715" stroke-width="0.5" stroke="black" fill="cyan"/>
   </g>
   <g id="cell76">
  <circle cx="521.088" cy="382.94" r="8.41009" stroke-width="0.5" stroke="black" fill="magenta"/>
  <circle cx="521.088" cy="382.94" r="5.05097" stroke-width="0.5" stroke="black" fill="magenta"/>
   </g>
   <g id="cell77">
  <circle cx="496.91" cy="432.335" r="8.23322" stroke-width="0.5" stroke="black" fill="magenta"/>
  <circle cx="496.91" cy="432.335" r="4.97301" stroke-width="0.5" stroke="black" fill="magenta"/>
   </g>
   <g id="cell78">
  <circle cx="371.39" cy="466.094" r="8.41225" stroke-width="0.5" stroke="black" fill="magenta"/>
  <circle cx="371.39" cy="466.094" r="5.05156" stroke-width="0.5" stroke="black" fill="magenta"/>
   </g>
   <g id="cell79">
  <circle cx="499.182" cy="524.319" r="8.41223" stroke-width="0.5" stroke="black" fill="magenta"/>
  <circle cx="499.182" cy="524.319" r="5.05156" stroke-width="0.5" stroke="black" fill="magenta"/>
   </g>
   <g id="cell80">
  <circle cx="598.589" cy="487.324" r="7.49424" stroke-width="0.5" stroke="black" fill="green"/>
  <circle cx="598.589" cy="487.324" r="4.5554" stroke-width="0.5" stroke="black" fill="green"/>
   </g>
   <g id="cell81">
  <circle cx="429.71" cy="504.35" r="8.37431" stroke-width="0.5" stroke="black" fill="green"/>
  <circle cx="429.71" cy="504.35" r="5.0379" stroke-width="0.5" stroke="black" fill="green"/>
   </g>
   <g id="cell82">
  <circle cx="544.594" cy="497.28" r="8.41211" stroke-width="0.5" stroke="black" fill="magenta"/>
  <circle cx="544.594" cy="497.28" r="5.05153" stroke-width="0.5" stroke="black" fill="magenta"/>
   </g>
   <g id="cell130">
  <circle cx="574.093" cy="391.585" r="8.36592" stroke-width="0.5" stroke="black" fill="magenta"/>
  <circle cx="574.093" cy="391.585" r="5.03403" stroke-width="0.5" stroke="black" fill="magenta"/>
   </g>
   <g id="cell84">
  <circle cx="404.626" cy="483.557" r="8.40184" stroke-width="0.5" stroke="black" fill="green"/>
  <circle cx="404.626" cy="483.557" r="5.04828" stroke-width="0.5" stroke="black" fill="green"/>
   </g>
   <g id="cell140">
  <circle cx="527.26" cy="579.252" r="8.1818" stroke-width="0.5" stroke="black" fill="magenta"/>
  <circle cx="527.26" cy="579.252" r="4.95265" stroke-width="0.5" stroke="black" fill="magenta"/>
   </g>
   <g id="cell86">
  <circle cx="391.953" cy="564.812" r="8.40261" stroke-width="0.5" stroke="black" fill="magenta"/>
  <circle cx="391.953" cy="564.812" r="5.04855" stroke-width="0.5" stroke="black" fill="magenta"/>
   </g>
   <g id="cell87">
  <circle cx="432.661" cy="519.5" r="8.05731" stroke-width="0.5" stroke="black" fill="green"/>
  <circle cx="432.661" cy="519.5" r="4.88198" stroke-width="0.5" stroke="black" fill="green"/>
   </g>
   <g id="cell88">
  <circle cx="477.411" cy="603.668" r="7.11716" stroke-width="0.5" stroke="black" fill="green"/>
  <circle cx="477.411" cy="603.668" r="4.31926" stroke-width="0.5" stroke="black" fill="green"/>
   </g>
   <g id="cell89">
  <circle cx="434.201" cy="489.453" r="8.40786" stroke-width="0.5" stroke="black" fill="green"/>
  <circle cx="434.201" cy="489.453" r="5.05032" stroke-width="0.5" stroke="black" fill="green"/>
   </g>
   <g id="cell90">
  <circle cx="581.379" cy="511.271" r="7.9756" stroke-width="0.5" stroke="black" fill="magenta"/>
  <circle cx="581.379" cy="511.271" r="4.83561" stroke-width="0.5" stroke="black" fill="magenta"/>
   </g>
   <g id="cell136">
  <circle cx="525.144" cy="539.331" r="8.32032" stroke-width="0.5" stroke="black" fill="magenta"/>
  <circle cx="525.144" cy="539.331" r="5.01383" stroke-width="0.5" stroke="black" fill="magenta"/>
   </g>
   <g id="cell92">
  <circle cx="552.563" cy="594.455" r="8.40133" stroke-width="0.5" stroke="black" fill="green"/>
  <circle cx="552.563" cy="594.455" r="5.04822" stroke-width="0.5" stroke="black" fill="green"/>
   </g>
   <g id="cell93">
  <circle cx="573.755" cy="524.575" r="8.3549" stroke-width="0.5" stroke="black" fill="cyan"/>
  <circle cx="573.755" cy="524.575" r="5.02967" stroke-width="0.5" stroke="black" fill="cyan"/>
   </g>
   <g id="cell94">
  <circle cx="543.769" cy="470.268" r="8.41055" stroke-width="0.5" stroke="black" fill="cyan"/>
  <circle cx="543.769" cy="470.268" r="5.05109" stroke-width="0.5" stroke="black" fill="cyan"/>
   </g>
   <g id="cell95">
  <circle cx="464.644" cy="535.313" r="8.41055" stroke-width="0.5" stroke="black" fill="magenta"/>
  <circle cx="464.644" cy="535.313" r="5.05109" stroke-width="0.5" stroke="black" fill="magenta"/>
   </g>
   <g id="cell96">
  <circle cx="534.997" cy="377.041" r="8.41009" stroke-width="0.5" stroke="black" fill="magenta"/>
  <circle cx="534.997" cy="377.041" r="5.05097" stroke-width="0.5" stroke="black" fill="magenta"/>
   </g>
   <g id="cell97">
  <circle cx="566.678" cy="510.709" r="8.40971" stroke-width="0.5" stroke="black" fill="magenta"/>
  <circle cx="566.678" cy="510.709" r="5.05086" stroke-width="0.5" stroke="black" fill="magenta"/>
   </g>
   <g id="cell98">
  <circle cx="406.41" cy="570.58" r="8.15169" stroke-width="0.5" stroke="black" fill="green"/>
  <circle cx="406.41" cy="570.58" r="4.93069" stroke-width="0.5" stroke="black" fill="green"/>
   </g>
   <g id="cell99">
  <circle cx="574.994" cy="498.024" r="8.40925" stroke-width="0.5" stroke="black" fill="magenta"/>
  <circle cx="574.994" cy="498.024" r="5.0507" stroke-width="0.5" stroke="black" fill="magenta"/>
   </g>
   <g id="cell100">
  <circle cx="569.927" cy="540.616" r="8.40803" stroke-width="0.5" stroke="black" fill="cyan"/>
  <circle cx="569.927" cy="540.616" r="5.05037" stroke-width="0.5" stroke="black" fill="cyan"/>
   </g>
   <g id="cell101">
  <circle cx="457.13" cy="627.793" r="8.40306" stroke-width="0.5" stroke="black" fill="magenta"/>
  <circle cx="457.13" cy="627.793" r="5.04876" stroke-width="0.5" stroke="black" fill="magenta"/>
   </g>
   <g id="cell102">
  <circle cx="446.46" cy="499.916" r="8.40786" stroke-width="0.5" stroke="black" fill="green"/>
  <circle cx="446.46" cy="499.916" r="5.05032" stroke-width="0.5" stroke="black" fill="green"/>
   </g>
   <g id="cell103">
  <circle cx="548.813" cy="614.094" r="7.14565" stroke-width="0.5" stroke="black" fill="green"/>
  <circle cx="548.813" cy="614.094" r="4.33875" stroke-width="0.5" stroke="black" fill="green"/>
   </g>
   <g id="cell104">
  <circle cx="553.963" cy="540.973" r="8.40745" stroke-width="0.5" stroke="black" fill="green"/>
  <circle cx="553.963" cy="540.973" r="5.05013" stroke-width="0.5" stroke="black" fill="green"/>
   </g>
   <g id="cell105">
  <circle cx="415.85" cy="495.83" r="8.40655" stroke-width="0.5" stroke="black" fill="green"/>
  <circle cx="415.85" cy="495.83" r="5.04986" stroke-width="0.5" stroke="black" fill="green"/>
   </g>
   <g id="cell106">
  <circle cx="645.282" cy="533.379" r="6.75184" stroke-width="0.5" stroke="black" fill="green"/>
  <circle cx="645.282" cy="533.379" r="4.06676" stroke-width="0.5" stroke="black" fill="green"/>
   </g>
   <g id="cell107">
  <circle cx="383.345" cy="513.721" r="8.40516" stroke-width="0.5" stroke="black" fill="cyan"/>
  <circle cx="383.345" cy="513.721" r="5.04937" stroke-width="0.5" stroke="black" fill="cyan"/>
   </g>
   <g id="cell108">
  <circle cx="459.231" cy="642.713" r="8.40306" stroke-width="0.5" stroke="black" fill="magenta"/>
  <circle cx="459.231" cy="642.713" r="5.04876" stroke-width="0.5" stroke="black" fill="magenta"/>
   </g>
   <g id="cell109">
  <circle cx="445.16" cy="637.008" r="8.40306" stroke-width="0.5" stroke="black" fill="magenta"/>
  <circle cx="445.16" cy="637.008" r="5.04876" stroke-width="0.5" stroke="black" fill="magenta"/>
   </g>
   <g id="cell110">
  <circle cx="543.162" cy="580.612" r="8.40133" stroke-width="0.5" stroke="black" fill="green"/>
  <circle cx="543.162" cy="580.612" r="5.04822" stroke-width="0.5" stroke="black" fill="green"/>
   </g>
   <g id="cell111">
  <circle cx="627.699" cy="552.808" r="8.40132" stroke-width="0.5" stroke="black" fill="green"/>
  <circle cx="627.699" cy="552.808" r="5.04819" stroke-width="0.5" stroke="black" fill="green"/>
   </g>
   <g id="cell112">
  <circle cx="379.734" cy="573.356" r="8.40261" stroke-width="0.5" stroke="black" fill="magenta"/>
  <circle cx="379.734" cy="573.356" r="5.04855" stroke-width="0.5" stroke="black" fill="magenta"/>
   </g>
   <g id="cell113">
  <circle cx="420.113" cy="480.638" r="8.40184" stroke-width="0.5" stroke="black" fill="green"/>
  <circle cx="420.113" cy="480.638" r="5.04828" stroke-width="0.5" stroke="black" fill="green"/>
   </g>
   <g id="cell114">
  <circle cx="498.003" cy="447.791" r="8.34795" stroke-width="0.5" stroke="black" fill="magenta"/>
  <circle cx="498.003" cy="447.791" r="5.02699" stroke-width="0.5" stroke="black" fill="magenta"/>
   </g>
   <g id="cell115">
  <circle cx="451.898" cy="526.173" r="8.39881" stroke-width="0.5" stroke="black" fill="green"/>
  <circle cx="451.898" cy="526.173" r="5.0472" stroke-width="0.5" stroke="black" fill="green"/>
   </g>
   <g id="cell116">
  <circle cx="367.89" cy="518.84" r="8.39456" stroke-width="0.5" stroke="black" fill="cyan"/>
  <circle cx="367.89" cy="518.84" r="5.0458" stroke-width="0.5" stroke="black" fill="cyan"/>
   </g>
   <g id="cell173">
  <circle cx="540.857" cy="603.478" r="7.14565" stroke-width="0.5" stroke="black" fill="green"/>
  <circle cx="540.857" cy="603.478" r="4.33875" stroke-width="0.5" stroke="black" fill="green"/>
   </g>
   <g id="cell118">
  <circle cx="524.2" cy="524.939" r="7.19896" stroke-width="0.5" stroke="black" fill="cyan"/>
  <circle cx="524.2" cy="524.939" r="4.37529" stroke-width="0.5" stroke="black" fill="cyan"/>
   </g>
   <g id="cell119">
  <circle cx="527.573" cy="634.799" r="8.21368" stroke-width="0.5" stroke="black" fill="green"/>
  <circle cx="527.573" cy="634.799" r="4.96374" stroke-width="0.5" stroke="black" fill="green"/>
   </g>
   <g id="cell121">
  <circle cx="391.047" cy="549.698" r="8.38955" stroke-width="0.5" stroke="black" fill="magenta"/>
  <circle cx="391.047" cy="549.698" r="5.04373" stroke-width="0.5" stroke="black" fill="magenta"/>
   </g>
   <g id="cell122">
  <circle cx="614.045" cy="462.81" r="7.57681" stroke-width="0.5" stroke="black" fill="cyan"/>
  <circle cx="614.045" cy="462.81" r="4.60851" stroke-width="0.5" stroke="black" fill="cyan"/>
   </g>
   <g id="cell123">
  <circle cx="500.553" cy="644.416" r="8.38608" stroke-width="0.5" stroke="black" fill="cyan"/>
  <circle cx="500.553" cy="644.416" r="5.04229" stroke-width="0.5" stroke="black" fill="cyan"/>
   </g>
   <g id="cell124">
  <circle cx="380.92" cy="588.863" r="8.38532" stroke-width="0.5" stroke="black" fill="green"/>
  <circle cx="380.92" cy="588.863" r="5.04199" stroke-width="0.5" stroke="black" fill="green"/>
   </g>
   <g id="cell125">
  <circle cx="451.428" cy="454.567" r="8.38271" stroke-width="0.5" stroke="black" fill="cyan"/>
  <circle cx="451.428" cy="454.567" r="5.04098" stroke-width="0.5" stroke="black" fill="cyan"/>
   </g>
   <g id="cell126">
  <circle cx="415.745" cy="511.811" r="8.37431" stroke-width="0.5" stroke="black" fill="green"/>
  <circle cx="415.745" cy="511.811" r="5.0379" stroke-width="0.5" stroke="black" fill="green"/>
   </g>
   <g id="cell127">
  <circle cx="413.257" cy="595.993" r="8.37431" stroke-width="0.5" stroke="black" fill="cyan"/>
  <circle cx="413.257" cy="595.993" r="5.03754" stroke-width="0.5" stroke="black" fill="cyan"/>
   </g>
   <g id="cell128">
  <circle cx="365.271" cy="534.871" r="8.36292" stroke-width="0.5" stroke="black" fill="cyan"/>
  <circle cx="365.271" cy="534.871" r="5.03365" stroke-width="0.5" stroke="black" fill="cyan"/>
   </g>
   <g id="cell131">
  <circle cx="585.034" cy="535.776" r="8.3549" stroke-width="0.5" stroke="black" fill="cyan"/>
  <circle cx="585.034" cy="535.776" r="5.02967" stroke-width="0.5" stroke="black" fill="cyan"/>
   </g>
   <g id="cell132">
  <circle cx="510.087" cy="439.308" r="8.34795" stroke-width="0.5" stroke="black" fill="magenta"/>
  <circle cx="510.087" cy="439.308" r="5.02699" stroke-width="0.5" stroke="black" fill="magenta"/>
   </g>
   <g id="cell133">
  <circle cx="534.243" cy="407.9" r="8.34884" stroke-width="0.5" stroke="black" fill="magenta"/>
  <circle cx="534.243" cy="407.9" r="5.02667" stroke-width="0.5" stroke="black" fill="magenta"/>
   </g>
   <g id="cell134">
  <circle cx="512.173" cy="580.061" r="8.24689" stroke-width="0.5" stroke="black" fill="magenta"/>
  <circle cx="512.173" cy="580.061" r="4.98193" stroke-width="0.5" stroke="black" fill="magenta"/>
   </g>
   <g id="cell135">
  <circle cx="568.366" cy="484.145" r="8.33481" stroke-width="0.5" stroke="black" fill="cyan"/>
  <circle cx="568.366" cy="484.145" r="5.02043" stroke-width="0.5" stroke="black" fill="cyan"/>
   </g>
   <g id="cell137">
  <circle cx="379.187" cy="478.912" r="8.30287" stroke-width="0.5" stroke="black" fill="magenta"/>
  <circle cx="379.187" cy="478.912" r="5.00577" stroke-width="0.5" stroke="black" fill="magenta"/>
   </g>
   <g id="cell138">
  <circle cx="533.839" cy="592.012" r="7.7942" stroke-width="0.5" stroke="black" fill="magenta"/>
  <circle cx="533.839" cy="592.012" r="4.75017" stroke-width="0.5" stroke="black" fill="magenta"/>
   </g>
   <g id="cell139">
  <circle cx="510.619" cy="608.804" r="8.26087" stroke-width="0.5" stroke="black" fill="green"/>
  <circle cx="510.619" cy="608.804" r="4.98702" stroke-width="0.5" stroke="black" fill="green"/>
   </g>
   <g id="cell142">
  <circle cx="585.75" cy="382.294" r="8.21008" stroke-width="0.5" stroke="black" fill="magenta"/>
  <circle cx="585.75" cy="382.294" r="4.96328" stroke-width="0.5" stroke="black" fill="magenta"/>
   </g>
   <g id="cell143">
  <circle cx="536.763" cy="622.23" r="8.21368" stroke-width="0.5" stroke="black" fill="green"/>
  <circle cx="536.763" cy="622.23" r="4.96374" stroke-width="0.5" stroke="black" fill="green"/>
   </g>
   <g id="cell144">
  <circle cx="377.952" cy="543.245" r="8.20689" stroke-width="0.5" stroke="black" fill="magenta"/>
  <circle cx="377.952" cy="543.245" r="4.95867" stroke-width="0.5" stroke="black" fill="magenta"/>
   </g>
   <g id="cell145">
  <circle cx="460.27" cy="483.539" r="8.1947" stroke-width="0.5" stroke="black" fill="magenta"/>
  <circle cx="460.27" cy="483.539" r="4.95246" stroke-width="0.5" stroke="black" fill="magenta"/>
   </g>
   <g id="cell146">
  <circle cx="465.218" cy="425.94" r="8.15353" stroke-width="0.5" stroke="black" fill="cyan"/>
  <circle cx="465.218" cy="425.94" r="4.93122" stroke-width="0.5" stroke="black" fill="cyan"/>
   </g>
   <g id="cell148">
  <circle cx="400.562" cy="605.14" r="8.09266" stroke-width="0.5" stroke="black" fill="cyan"/>
  <circle cx="400.562" cy="605.14" r="4.90237" stroke-width="0.5" stroke="black" fill="cyan"/>
   </g>
   <g id="cell149">
  <circle cx="438.079" cy="533.736" r="8.05731" stroke-width="0.5" stroke="black" fill="green"/>
  <circle cx="438.079" cy="533.736" r="4.88198" stroke-width="0.5" stroke="black" fill="green"/>
   </g>
   <g id="cell150">
  <circle cx="472.146" cy="630.044" r="8.04527" stroke-width="0.5" stroke="black" fill="green"/>
  <circle cx="472.146" cy="630.044" r="4.87378" stroke-width="0.5" stroke="black" fill="green"/>
   </g>
   <g id="cell151">
  <circle cx="523.906" cy="510.546" r="8.03527" stroke-width="0.5" stroke="black" fill="cyan"/>
  <circle cx="523.906" cy="510.546" r="4.86813" stroke-width="0.5" stroke="black" fill="cyan"/>
   </g>
   <g id="cell152">
  <circle cx="643.645" cy="552.476" r="7.99472" stroke-width="0.5" stroke="black" fill="green"/>
  <circle cx="643.645" cy="552.476" r="4.8474" stroke-width="0.5" stroke="black" fill="green"/>
   </g>
   <g id="cell153">
  <circle cx="394.278" cy="525.035" r="7.96138" stroke-width="0.5" stroke="black" fill="cyan"/>
  <circle cx="394.278" cy="525.035" r="4.83254" stroke-width="0.5" stroke="black" fill="cyan"/>
   </g>
   <g id="cell154">
  <circle cx="589.635" cy="499.311" r="7.9756" stroke-width="0.5" stroke="black" fill="magenta"/>
  <circle cx="589.635" cy="499.311" r="4.83561" stroke-width="0.5" stroke="black" fill="magenta"/>
   </g>
   <g id="cell156">
  <circle cx="403.237" cy="556.598" r="7.17906" stroke-width="0.5" stroke="black" fill="green"/>
  <circle cx="403.237" cy="556.598" r="4.39771" stroke-width="0.5" stroke="black" fill="green"/>
   </g>
   <g id="cell157">
  <circle cx="392.834" cy="474.163" r="7.74979" stroke-width="0.5" stroke="black" fill="magenta"/>
  <circle cx="392.834" cy="474.163" r="4.71674" stroke-width="0.5" stroke="black" fill="magenta"/>
   </g>
   <g id="cell158">
  <circle cx="433.467" cy="474.763" r="7.39625" stroke-width="0.5" stroke="black" fill="green"/>
  <circle cx="433.467" cy="474.763" r="4.525" stroke-width="0.5" stroke="black" fill="green"/>
   </g>
   <g id="cell159">
  <circle cx="438.181" cy="461.971" r="7.39625" stroke-width="0.5" stroke="black" fill="green"/>
  <circle cx="438.181" cy="461.971" r="4.525" stroke-width="0.5" stroke="black" fill="green"/>
   </g>
   <g id="cell160">
  <circle cx="416.163" cy="559.551" r="7.30503" stroke-width="0.5" stroke="black" fill="green"/>
  <circle cx="416.163" cy="559.551" r="4.47205" stroke-width="0.5" stroke="black" fill="green"/>
   </g>
   <g id="cell161">
  <circle cx="529.826" cy="463.818" r="7.6574" stroke-width="0.5" stroke="black" fill="cyan"/>
  <circle cx="529.826" cy="463.818" r="4.65332" stroke-width="0.5" stroke="black" fill="cyan"/>
   </g>
   <g id="cell162">
  <circle cx="608.349" cy="476.155" r="7.57681" stroke-width="0.5" stroke="black" fill="cyan"/>
  <circle cx="608.349" cy="476.155" r="4.60851" stroke-width="0.5" stroke="black" fill="cyan"/>
   </g>
   <g id="cell163">
  <circle cx="423.973" cy="548.778" r="6.94358" stroke-width="0.5" stroke="black" fill="green"/>
  <circle cx="423.973" cy="548.778" r="4.27445" stroke-width="0.5" stroke="black" fill="green"/>
   </g>
   <g id="cell164">
  <circle cx="455.658" cy="469.514" r="7.57343" stroke-width="0.5" stroke="black" fill="cyan"/>
  <circle cx="455.658" cy="469.514" r="4.60715" stroke-width="0.5" stroke="black" fill="cyan"/>
   </g>
   <g id="cell165">
  <circle cx="411.196" cy="546.161" r="7.17906" stroke-width="0.5" stroke="black" fill="green"/>
  <circle cx="411.196" cy="546.161" r="4.39771" stroke-width="0.5" stroke="black" fill="green"/>
   </g>
   <g id="cell166">
  <circle cx="603.695" cy="500.429" r="7.49424" stroke-width="0.5" stroke="black" fill="green"/>
  <circle cx="603.695" cy="500.429" r="4.5554" stroke-width="0.5" stroke="black" fill="green"/>
   </g>
   <g id="cell167">
  <circle cx="466.038" cy="387.414" r="7.49456" stroke-width="0.5" stroke="black" fill="green"/>
  <circle cx="466.038" cy="387.414" r="4.55548" stroke-width="0.5" stroke="black" fill="green"/>
   </g>
   <g id="cell168">
  <circle cx="519.998" cy="407.434" r="7.42835" stroke-width="0.5" stroke="black" fill="magenta"/>
  <circle cx="519.998" cy="407.434" r="4.52343" stroke-width="0.5" stroke="black" fill="magenta"/>
   </g>
   <g id="cell169">
  <circle cx="472.347" cy="436.602" r="5.89908" stroke-width="0.5" stroke="black" fill="magenta"/>
  <circle cx="472.347" cy="436.602" r="3.60974" stroke-width="0.5" stroke="black" fill="magenta"/>
   </g>
   <g id="cell170">
  <circle cx="627.939" cy="489.324" r="7.33096" stroke-width="0.5" stroke="black" fill="green"/>
  <circle cx="627.939" cy="489.324" r="4.45507" stroke-width="0.5" stroke="black" fill="green"/>
   </g>
   <g id="cell171">
  <circle cx="536.556" cy="530.687" r="7.19896" stroke-width="0.5" stroke="black" fill="cyan"/>
  <circle cx="536.556" cy="530.687" r="4.37529" stroke-width="0.5" stroke="black" fill="cyan"/>
   </g>
   <g id="cell172">
  <circle cx="512.1" cy="518.365" r="6.8907" stroke-width="0.5" stroke="black" fill="cyan"/>
  <circle cx="512.1" cy="518.365" r="4.21281" stroke-width="0.5" stroke="black" fill="cyan"/>
   </g>
   <g id="cell175">
  <circle cx="635.025" cy="540.745" r="6.75184" stroke-width="0.5" stroke="black" fill="green"/>
  <circle cx="635.025" cy="540.745" r="4.06676" stroke-width="0.5" stroke="black" fill="green"/>
   </g>
   <g id="cell176">
  <circle cx="475.721" cy="446.426" r="5.89908" stroke-width="0.5" stroke="black" fill="magenta"/>
  <circle cx="475.721" cy="446.426" r="3.60974" stroke-width="0.5" stroke="black" fill="magenta"/>
   </g>
  </g>
 </g>
  <rect x="775" y="1035" width="200" height="10" stroke-width="2" stroke="rgb(255,255,255)" fill="rgb(0,0,0)"/>
  <text x="781.25" y="1028.75"
   font-family="Arial" font-size="25" fill="black" >
   200 &#956;m
  </text>
  <text x="25" y="1045"
   font-family="Arial" font-size="18.75" fill="black" >
   0 days, 0 hours, 0 minutes, and 40.9109 seconds
  </text>
  <rect x="0" y="70" width="1000" height="1000" stroke-width="2" stroke="rgb(0,0,0)" fill="none"/>
</svg>
