<?xml version="1.0" encoding="UTF-8" standalone="no"?>
<!-- Created with PhysiCell (http://PhysiCell.MathCancer.org/) -->
<svg 
 xmlns:dc="http://purl.org/dc/elements/1.1/" 
 xmlns:cc="http://creativecommons.org/ns#" 
 xmlns:rdf="http://www.w3.org/1999/02/22-rdf-syntax-ns#" 
 xmlns:svg="http://www.w3.org/2000/svg" 
 xmlns="http://www.w3.org/2000/svg" 
 version="1.1" 
 width="1000" 
 height="1070" 
 id="svg2">
  <rect x="0" y="0" width="1000" height="1070" stroke-width="2" stroke="white" fill="white"/>
  <text x="12.5" y="30"
   font-family="Arial" font-size="25" fill="black" >
   Current time: 0 days, 22 hours, and 0.00 minutes, z = 0.00 &#956;m
  </text>
  <text x="12.5" y="57.5"
   font-family="Arial" font-size="23.75" fill="black" >
   137 agents
  </text>
 <g id="tissue" 
    transform="translate(0,1070) scale(1,-1)">
  <g id="ECM">
  </g>
  <g id="cells">
   <g id="cell0">
  <circle cx="514.918" cy="531.263" r="8.4076" stroke-width="0.5" stroke="black" fill="magenta"/>
  <circle cx="514.918" cy="531.263" r="5.05018" stroke-width="0.5" stroke="black" fill="magenta"/>
   </g>
   <g id="cell1">
  <circle cx="600.297" cy="520.429" r="1.36402" stroke-width="0.5" stroke="black" fill="magenta"/>
  <circle cx="600.297" cy="520.429" r="1.35333" stroke-width="0.5" stroke="black" fill="black"/>
   </g>
   <g id="cell2">
  <circle cx="512.516" cy="595.479" r="7.61469" stroke-width="0.5" stroke="black" fill="magenta"/>
  <circle cx="512.516" cy="595.479" r="4.62762" stroke-width="0.5" stroke="black" fill="magenta"/>
   </g>
   <g id="cell3">
  <circle cx="539.519" cy="541.14" r="7.3599" stroke-width="0.5" stroke="black" fill="magenta"/>
  <circle cx="539.519" cy="541.14" r="4.47294" stroke-width="0.5" stroke="black" fill="magenta"/>
   </g>
   <g id="cell4">
  <circle cx="470.298" cy="442.1" r="8.40814" stroke-width="0.5" stroke="black" fill="magenta"/>
  <circle cx="470.298" cy="442.1" r="5.05035" stroke-width="0.5" stroke="black" fill="magenta"/>
   </g>
   <g id="cell5">
  <circle cx="465.653" cy="494.472" r="8.41271" stroke-width="0.5" stroke="black" fill="magenta"/>
  <circle cx="465.653" cy="494.472" r="5.05167" stroke-width="0.5" stroke="black" fill="magenta"/>
   </g>
   <g id="cell6">
  <circle cx="594.602" cy="513.766" r="8.39618" stroke-width="0.5" stroke="black" fill="magenta"/>
  <circle cx="594.602" cy="513.766" r="5.04616" stroke-width="0.5" stroke="black" fill="magenta"/>
   </g>
   <g id="cell7">
  <circle cx="511.355" cy="464.418" r="8.41271" stroke-width="0.5" stroke="black" fill="magenta"/>
  <circle cx="511.355" cy="464.418" r="5.05167" stroke-width="0.5" stroke="black" fill="magenta"/>
   </g>
   <g id="cell8">
  <circle cx="374.474" cy="547.249" r="8.41271" stroke-width="0.5" stroke="black" fill="magenta"/>
  <circle cx="374.474" cy="547.249" r="5.05167" stroke-width="0.5" stroke="black" fill="magenta"/>
   </g>
   <g id="cell9">
  <circle cx="463.967" cy="602.073" r="8.39523" stroke-width="0.5" stroke="black" fill="magenta"/>
  <circle cx="463.967" cy="602.073" r="5.04581" stroke-width="0.5" stroke="black" fill="magenta"/>
   </g>
   <g id="cell10">
  <circle cx="588.084" cy="395.327" r="6.27108" stroke-width="0.5" stroke="black" fill="magenta"/>
  <circle cx="588.084" cy="395.327" r="3.80692" stroke-width="0.5" stroke="black" fill="magenta"/>
   </g>
   <g id="cell11">
  <circle cx="589.748" cy="590.273" r="8.41271" stroke-width="0.5" stroke="black" fill="magenta"/>
  <circle cx="589.748" cy="590.273" r="5.05167" stroke-width="0.5" stroke="black" fill="magenta"/>
   </g>
   <g id="cell12">
  <circle cx="501.752" cy="585.945" r="8.41271" stroke-width="0.5" stroke="black" fill="magenta"/>
  <circle cx="501.752" cy="585.945" r="5.05167" stroke-width="0.5" stroke="black" fill="magenta"/>
   </g>
   <g id="cell13">
  <circle cx="378.51" cy="561.43" r="8.15349" stroke-width="0.5" stroke="black" fill="magenta"/>
  <circle cx="378.51" cy="561.43" r="4.93259" stroke-width="0.5" stroke="black" fill="magenta"/>
   </g>
   <g id="cell14">
  <circle cx="523.099" cy="398.808" r="7.67987" stroke-width="0.5" stroke="black" fill="magenta"/>
  <circle cx="523.099" cy="398.808" r="4.66617" stroke-width="0.5" stroke="black" fill="magenta"/>
   </g>
   <g id="cell15">
  <circle cx="390.382" cy="483.307" r="7.17765" stroke-width="0.5" stroke="black" fill="magenta"/>
  <circle cx="390.382" cy="483.307" r="4.3591" stroke-width="0.5" stroke="black" fill="magenta"/>
   </g>
   <g id="cell16">
  <circle cx="430.259" cy="414.024" r="8.41271" stroke-width="0.5" stroke="black" fill="magenta"/>
  <circle cx="430.259" cy="414.024" r="5.05167" stroke-width="0.5" stroke="black" fill="magenta"/>
   </g>
   <g id="cell17">
  <circle cx="588.238" cy="488.767" r="8.37537" stroke-width="0.5" stroke="black" fill="magenta"/>
  <circle cx="588.238" cy="488.767" r="5.03798" stroke-width="0.5" stroke="black" fill="magenta"/>
   </g>
   <g id="cell18">
  <circle cx="509.908" cy="392.911" r="8.40839" stroke-width="0.5" stroke="black" fill="magenta"/>
  <circle cx="509.908" cy="392.911" r="5.05043" stroke-width="0.5" stroke="black" fill="magenta"/>
   </g>
   <g id="cell19">
  <circle cx="447.981" cy="539.437" r="8.38957" stroke-width="0.5" stroke="black" fill="magenta"/>
  <circle cx="447.981" cy="539.437" r="5.04365" stroke-width="0.5" stroke="black" fill="magenta"/>
   </g>
   <g id="cell20">
  <circle cx="528.224" cy="422.792" r="8.41271" stroke-width="0.5" stroke="black" fill="magenta"/>
  <circle cx="528.224" cy="422.792" r="5.05167" stroke-width="0.5" stroke="black" fill="magenta"/>
   </g>
   <g id="cell141">
  <circle cx="482.843" cy="438.314" r="6.60756" stroke-width="0.5" stroke="black" fill="magenta"/>
  <circle cx="482.843" cy="438.314" r="3.99018" stroke-width="0.5" stroke="black" fill="magenta"/>
   </g>
   <g id="cell22">
  <circle cx="558.546" cy="497.153" r="8.38052" stroke-width="0.5" stroke="black" fill="magenta"/>
  <circle cx="558.546" cy="497.153" r="5.04039" stroke-width="0.5" stroke="black" fill="magenta"/>
   </g>
   <g id="cell23">
  <circle cx="536.15" cy="482.431" r="8.41271" stroke-width="0.5" stroke="black" fill="magenta"/>
  <circle cx="536.15" cy="482.431" r="5.05167" stroke-width="0.5" stroke="black" fill="magenta"/>
   </g>
   <g id="cell24">
  <circle cx="562.183" cy="382.22" r="8.41271" stroke-width="0.5" stroke="black" fill="magenta"/>
  <circle cx="562.183" cy="382.22" r="5.05167" stroke-width="0.5" stroke="black" fill="magenta"/>
   </g>
   <g id="cell25">
  <circle cx="647.936" cy="559.519" r="8.28779" stroke-width="0.5" stroke="black" fill="green"/>
  <circle cx="647.936" cy="559.519" r="5.00107" stroke-width="0.5" stroke="black" fill="green"/>
   </g>
   <g id="cell26">
  <circle cx="550.37" cy="401.295" r="8.41271" stroke-width="0.5" stroke="black" fill="green"/>
  <circle cx="550.37" cy="401.295" r="5.05167" stroke-width="0.5" stroke="black" fill="green"/>
   </g>
   <g id="cell27">
  <circle cx="457.446" cy="388.678" r="8.41271" stroke-width="0.5" stroke="black" fill="green"/>
  <circle cx="457.446" cy="388.678" r="5.05167" stroke-width="0.5" stroke="black" fill="green"/>
   </g>
   <g id="cell28">
  <circle cx="433.085" cy="544.102" r="8.41271" stroke-width="0.5" stroke="black" fill="green"/>
  <circle cx="433.085" cy="544.102" r="5.05167" stroke-width="0.5" stroke="black" fill="green"/>
   </g>
   <g id="cell29">
  <circle cx="467.307" cy="520.985" r="8.25921" stroke-width="0.5" stroke="black" fill="green"/>
  <circle cx="467.307" cy="520.985" r="4.98595" stroke-width="0.5" stroke="black" fill="green"/>
   </g>
   <g id="cell30">
  <circle cx="477.816" cy="539.189" r="8.41271" stroke-width="0.5" stroke="black" fill="green"/>
  <circle cx="477.816" cy="539.189" r="5.05167" stroke-width="0.5" stroke="black" fill="green"/>
   </g>
   <g id="cell31">
  <circle cx="412.431" cy="538.535" r="8.41271" stroke-width="0.5" stroke="black" fill="green"/>
  <circle cx="412.431" cy="538.535" r="5.05167" stroke-width="0.5" stroke="black" fill="green"/>
   </g>
   <g id="cell32">
  <circle cx="430.093" cy="465.32" r="8.39987" stroke-width="0.5" stroke="black" fill="green"/>
  <circle cx="430.093" cy="465.32" r="5.04751" stroke-width="0.5" stroke="black" fill="green"/>
   </g>
   <g id="cell33">
  <circle cx="498.876" cy="413.227" r="8.40154" stroke-width="0.5" stroke="black" fill="green"/>
  <circle cx="498.876" cy="413.227" r="5.04811" stroke-width="0.5" stroke="black" fill="green"/>
   </g>
   <g id="cell34">
  <circle cx="392.092" cy="453.615" r="8.39874" stroke-width="0.5" stroke="black" fill="green"/>
  <circle cx="392.092" cy="453.615" r="5.04711" stroke-width="0.5" stroke="black" fill="green"/>
   </g>
   <g id="cell35">
  <circle cx="544.242" cy="554.714" r="8.35568" stroke-width="0.5" stroke="black" fill="green"/>
  <circle cx="544.242" cy="554.714" r="5.02965" stroke-width="0.5" stroke="black" fill="green"/>
   </g>
   <g id="cell36">
  <circle cx="396.706" cy="579.875" r="8.10448" stroke-width="0.5" stroke="black" fill="green"/>
  <circle cx="396.706" cy="579.875" r="4.90539" stroke-width="0.5" stroke="black" fill="green"/>
   </g>
   <g id="cell37">
  <circle cx="634.871" cy="460.618" r="3.66624" stroke-width="0.5" stroke="black" fill="green"/>
  <circle cx="634.871" cy="460.618" r="2.75003" stroke-width="0.5" stroke="black" fill="black"/>
   </g>
   <g id="cell38">
  <circle cx="526.746" cy="601.903" r="8.39083" stroke-width="0.5" stroke="black" fill="green"/>
  <circle cx="526.746" cy="601.903" r="5.04414" stroke-width="0.5" stroke="black" fill="green"/>
   </g>
   <g id="cell39">
  <circle cx="617.368" cy="494.602" r="8.40731" stroke-width="0.5" stroke="black" fill="green"/>
  <circle cx="617.368" cy="494.602" r="5.05008" stroke-width="0.5" stroke="black" fill="green"/>
   </g>
   <g id="cell40">
  <circle cx="485.423" cy="571.843" r="8.41271" stroke-width="0.5" stroke="black" fill="green"/>
  <circle cx="485.423" cy="571.843" r="5.05167" stroke-width="0.5" stroke="black" fill="green"/>
   </g>
   <g id="cell41">
  <circle cx="364.716" cy="479.915" r="8.41271" stroke-width="0.5" stroke="black" fill="green"/>
  <circle cx="364.716" cy="479.915" r="5.05167" stroke-width="0.5" stroke="black" fill="green"/>
   </g>
   <g id="cell42">
  <circle cx="452.455" cy="486.25" r="8.39405" stroke-width="0.5" stroke="black" fill="green"/>
  <circle cx="452.455" cy="486.25" r="5.0456" stroke-width="0.5" stroke="black" fill="black"/>
   </g>
   <g id="cell43">
  <circle cx="558.528" cy="445.772" r="8.41271" stroke-width="0.5" stroke="black" fill="green"/>
  <circle cx="558.528" cy="445.772" r="5.05167" stroke-width="0.5" stroke="black" fill="green"/>
   </g>
   <g id="cell44">
  <circle cx="477.624" cy="627.419" r="8.39752" stroke-width="0.5" stroke="black" fill="green"/>
  <circle cx="477.624" cy="627.419" r="5.04666" stroke-width="0.5" stroke="black" fill="green"/>
   </g>
   <g id="cell45">
  <circle cx="416.755" cy="553.969" r="8.37537" stroke-width="0.5" stroke="black" fill="green"/>
  <circle cx="416.755" cy="553.969" r="5.03798" stroke-width="0.5" stroke="black" fill="green"/>
   </g>
   <g id="cell46">
  <circle cx="517.826" cy="620.062" r="6.73496" stroke-width="0.5" stroke="black" fill="green"/>
  <circle cx="517.826" cy="620.062" r="4.09591" stroke-width="0.5" stroke="black" fill="green"/>
   </g>
   <g id="cell47">
  <circle cx="501.197" cy="508.379" r="8.41271" stroke-width="0.5" stroke="black" fill="green"/>
  <circle cx="501.197" cy="508.379" r="5.05167" stroke-width="0.5" stroke="black" fill="green"/>
   </g>
   <g id="cell48">
  <circle cx="565.439" cy="604.359" r="8.41271" stroke-width="0.5" stroke="black" fill="green"/>
  <circle cx="565.439" cy="604.359" r="5.05167" stroke-width="0.5" stroke="black" fill="green"/>
   </g>
   <g id="cell49">
  <circle cx="434.296" cy="395.006" r="7.90853" stroke-width="0.5" stroke="black" fill="green"/>
  <circle cx="434.296" cy="395.006" r="4.79791" stroke-width="0.5" stroke="black" fill="green"/>
   </g>
   <g id="cell50">
  <circle cx="515.316" cy="515.833" r="8.41271" stroke-width="0.5" stroke="black" fill="cyan"/>
  <circle cx="515.316" cy="515.833" r="5.05167" stroke-width="0.5" stroke="black" fill="cyan"/>
   </g>
   <g id="cell51">
  <circle cx="394.179" cy="602.487" r="7.97646" stroke-width="0.5" stroke="black" fill="cyan"/>
  <circle cx="394.179" cy="602.487" r="4.83584" stroke-width="0.5" stroke="black" fill="cyan"/>
   </g>
   <g id="cell120">
  <circle cx="419.194" cy="610.51" r="8.18833" stroke-width="0.5" stroke="black" fill="cyan"/>
  <circle cx="419.194" cy="610.51" r="4.94921" stroke-width="0.5" stroke="black" fill="cyan"/>
   </g>
   <g id="cell53">
  <circle cx="571.26" cy="436.023" r="8.41271" stroke-width="0.5" stroke="black" fill="cyan"/>
  <circle cx="571.26" cy="436.023" r="5.05167" stroke-width="0.5" stroke="black" fill="cyan"/>
   </g>
   <g id="cell54">
  <circle cx="476.806" cy="425.644" r="8.41271" stroke-width="0.5" stroke="black" fill="cyan"/>
  <circle cx="476.806" cy="425.644" r="5.05167" stroke-width="0.5" stroke="black" fill="cyan"/>
   </g>
   <g id="cell55">
  <circle cx="525.379" cy="471.203" r="8.41271" stroke-width="0.5" stroke="black" fill="cyan"/>
  <circle cx="525.379" cy="471.203" r="5.05167" stroke-width="0.5" stroke="black" fill="cyan"/>
   </g>
   <g id="cell56">
  <circle cx="615.793" cy="522.539" r="8.41271" stroke-width="0.5" stroke="black" fill="cyan"/>
  <circle cx="615.793" cy="522.539" r="5.05167" stroke-width="0.5" stroke="black" fill="cyan"/>
   </g>
   <g id="cell57">
  <circle cx="418.518" cy="626.048" r="8.18833" stroke-width="0.5" stroke="black" fill="cyan"/>
  <circle cx="418.518" cy="626.048" r="4.94921" stroke-width="0.5" stroke="black" fill="cyan"/>
   </g>
   <g id="cell58">
  <circle cx="551.206" cy="483.77" r="8.41271" stroke-width="0.5" stroke="black" fill="cyan"/>
  <circle cx="551.206" cy="483.77" r="5.05167" stroke-width="0.5" stroke="black" fill="cyan"/>
   </g>
   <g id="cell59">
  <circle cx="385.162" cy="439.182" r="8.41271" stroke-width="0.5" stroke="black" fill="cyan"/>
  <circle cx="385.162" cy="439.182" r="5.05167" stroke-width="0.5" stroke="black" fill="cyan"/>
   </g>
   <g id="cell60">
  <circle cx="592.062" cy="473.776" r="8.13813" stroke-width="0.5" stroke="black" fill="cyan"/>
  <circle cx="592.062" cy="473.776" r="4.92317" stroke-width="0.5" stroke="black" fill="cyan"/>
   </g>
   <g id="cell61">
  <circle cx="554.623" cy="614.976" r="1.9005" stroke-width="0.5" stroke="black" fill="cyan"/>
  <circle cx="554.623" cy="614.976" r="1.82114" stroke-width="0.5" stroke="black" fill="black"/>
   </g>
   <g id="cell62">
  <circle cx="526.436" cy="444.66" r="8.41271" stroke-width="0.5" stroke="black" fill="cyan"/>
  <circle cx="526.436" cy="444.66" r="5.05167" stroke-width="0.5" stroke="black" fill="cyan"/>
   </g>
   <g id="cell63">
  <circle cx="582.685" cy="552.605" r="8.39083" stroke-width="0.5" stroke="black" fill="cyan"/>
  <circle cx="582.685" cy="552.605" r="5.04414" stroke-width="0.5" stroke="black" fill="cyan"/>
   </g>
   <g id="cell64">
  <circle cx="514.154" cy="633.487" r="8.11327" stroke-width="0.5" stroke="black" fill="cyan"/>
  <circle cx="514.154" cy="633.487" r="4.91006" stroke-width="0.5" stroke="black" fill="cyan"/>
   </g>
   <g id="cell65">
  <circle cx="534.63" cy="458.192" r="8.38957" stroke-width="0.5" stroke="black" fill="cyan"/>
  <circle cx="534.63" cy="458.192" r="5.04365" stroke-width="0.5" stroke="black" fill="cyan"/>
   </g>
   <g id="cell66">
  <circle cx="544.433" cy="527.737" r="8.20088" stroke-width="0.5" stroke="black" fill="cyan"/>
  <circle cx="544.433" cy="527.737" r="4.95562" stroke-width="0.5" stroke="black" fill="cyan"/>
   </g>
   <g id="cell67">
  <circle cx="354.807" cy="492.519" r="8.41271" stroke-width="0.5" stroke="black" fill="cyan"/>
  <circle cx="354.807" cy="492.519" r="5.05167" stroke-width="0.5" stroke="black" fill="cyan"/>
   </g>
   <g id="cell68">
  <circle cx="559.963" cy="556.215" r="8.41271" stroke-width="0.5" stroke="black" fill="cyan"/>
  <circle cx="559.963" cy="556.215" r="5.05167" stroke-width="0.5" stroke="black" fill="cyan"/>
   </g>
   <g id="cell69">
  <circle cx="436.852" cy="450.799" r="8.4085" stroke-width="0.5" stroke="black" fill="cyan"/>
  <circle cx="436.852" cy="450.799" r="5.05047" stroke-width="0.5" stroke="black" fill="cyan"/>
   </g>
   <g id="cell70">
  <circle cx="578.396" cy="478.323" r="7.51976" stroke-width="0.5" stroke="black" fill="cyan"/>
  <circle cx="578.396" cy="478.323" r="4.57072" stroke-width="0.5" stroke="black" fill="cyan"/>
   </g>
   <g id="cell71">
  <circle cx="382.532" cy="527.123" r="7.83872" stroke-width="0.5" stroke="black" fill="cyan"/>
  <circle cx="382.532" cy="527.123" r="4.77277" stroke-width="0.5" stroke="black" fill="cyan"/>
   </g>
   <g id="cell72">
  <circle cx="534.366" cy="509.373" r="8.41271" stroke-width="0.5" stroke="black" fill="cyan"/>
  <circle cx="534.366" cy="509.373" r="5.05167" stroke-width="0.5" stroke="black" fill="cyan"/>
   </g>
   <g id="cell129">
  <circle cx="421.074" cy="402.06" r="7.90853" stroke-width="0.5" stroke="black" fill="green"/>
  <circle cx="421.074" cy="402.06" r="4.79791" stroke-width="0.5" stroke="black" fill="green"/>
   </g>
   <g id="cell74">
  <circle cx="542.536" cy="444.324" r="8.41271" stroke-width="0.5" stroke="black" fill="cyan"/>
  <circle cx="542.536" cy="444.324" r="5.05167" stroke-width="0.5" stroke="black" fill="cyan"/>
   </g>
   <g id="cell75">
  <circle cx="443.436" cy="473.496" r="8.07426" stroke-width="0.5" stroke="black" fill="cyan"/>
  <circle cx="443.436" cy="473.496" r="4.88978" stroke-width="0.5" stroke="black" fill="cyan"/>
   </g>
   <g id="cell76">
  <circle cx="522.417" cy="384.391" r="8.38464" stroke-width="0.5" stroke="black" fill="magenta"/>
  <circle cx="522.417" cy="384.391" r="5.04195" stroke-width="0.5" stroke="black" fill="magenta"/>
   </g>
   <g id="cell77">
  <circle cx="493.379" cy="433.923" r="6.60756" stroke-width="0.5" stroke="black" fill="magenta"/>
  <circle cx="493.379" cy="433.923" r="3.99018" stroke-width="0.5" stroke="black" fill="magenta"/>
   </g>
   <g id="cell78">
  <circle cx="371.036" cy="465.633" r="8.40788" stroke-width="0.5" stroke="black" fill="magenta"/>
  <circle cx="371.036" cy="465.633" r="5.05027" stroke-width="0.5" stroke="black" fill="magenta"/>
   </g>
   <g id="cell79">
  <circle cx="501.822" cy="523.908" r="8.4076" stroke-width="0.5" stroke="black" fill="magenta"/>
  <circle cx="501.822" cy="523.908" r="5.05018" stroke-width="0.5" stroke="black" fill="magenta"/>
   </g>
   <g id="cell80">
  <circle cx="603.577" cy="486.161" r="8.40731" stroke-width="0.5" stroke="black" fill="green"/>
  <circle cx="603.577" cy="486.161" r="5.05008" stroke-width="0.5" stroke="black" fill="green"/>
   </g>
   <g id="cell81">
  <circle cx="430.067" cy="501.424" r="7.976" stroke-width="0.5" stroke="black" fill="green"/>
  <circle cx="430.067" cy="501.424" r="4.84138" stroke-width="0.5" stroke="black" fill="green"/>
   </g>
   <g id="cell82">
  <circle cx="542.972" cy="496.421" r="8.40632" stroke-width="0.5" stroke="black" fill="magenta"/>
  <circle cx="542.972" cy="496.421" r="5.04976" stroke-width="0.5" stroke="black" fill="magenta"/>
   </g>
   <g id="cell130">
  <circle cx="574.448" cy="390.81" r="7.87851" stroke-width="0.5" stroke="black" fill="magenta"/>
  <circle cx="574.448" cy="390.81" r="4.78096" stroke-width="0.5" stroke="black" fill="magenta"/>
   </g>
   <g id="cell84">
  <circle cx="406.725" cy="481.194" r="8.29334" stroke-width="0.5" stroke="black" fill="green"/>
  <circle cx="406.725" cy="481.194" r="5.00218" stroke-width="0.5" stroke="black" fill="green"/>
   </g>
   <g id="cell140">
  <circle cx="528.503" cy="582.591" r="5.41067" stroke-width="0.5" stroke="black" fill="magenta"/>
  <circle cx="528.503" cy="582.591" r="3.3352" stroke-width="0.5" stroke="black" fill="magenta"/>
   </g>
   <g id="cell86">
  <circle cx="392.778" cy="565.25" r="8.30202" stroke-width="0.5" stroke="black" fill="magenta"/>
  <circle cx="392.778" cy="565.25" r="5.00632" stroke-width="0.5" stroke="black" fill="magenta"/>
   </g>
   <g id="cell87">
  <circle cx="436.92" cy="528.718" r="8.22153" stroke-width="0.5" stroke="black" fill="green"/>
  <circle cx="436.92" cy="528.718" r="4.96736" stroke-width="0.5" stroke="black" fill="green"/>
   </g>
   <g id="cell88">
  <circle cx="476.375" cy="611.476" r="8.39752" stroke-width="0.5" stroke="black" fill="green"/>
  <circle cx="476.375" cy="611.476" r="5.04666" stroke-width="0.5" stroke="black" fill="green"/>
   </g>
   <g id="cell89">
  <circle cx="436.517" cy="487.399" r="8.3603" stroke-width="0.5" stroke="black" fill="green"/>
  <circle cx="436.517" cy="487.399" r="5.03256" stroke-width="0.5" stroke="black" fill="green"/>
   </g>
   <g id="cell90">
  <circle cx="584.009" cy="503.088" r="8.39618" stroke-width="0.5" stroke="black" fill="magenta"/>
  <circle cx="584.009" cy="503.088" r="5.04616" stroke-width="0.5" stroke="black" fill="magenta"/>
   </g>
   <g id="cell136">
  <circle cx="526.826" cy="538.485" r="7.3599" stroke-width="0.5" stroke="black" fill="magenta"/>
  <circle cx="526.826" cy="538.485" r="4.47294" stroke-width="0.5" stroke="black" fill="magenta"/>
   </g>
   <g id="cell92">
  <circle cx="554.394" cy="593.064" r="8.28801" stroke-width="0.5" stroke="black" fill="green"/>
  <circle cx="554.394" cy="593.064" r="5.00166" stroke-width="0.5" stroke="black" fill="green"/>
   </g>
   <g id="cell93">
  <circle cx="573.542" cy="526.368" r="7.74814" stroke-width="0.5" stroke="black" fill="cyan"/>
  <circle cx="573.542" cy="526.368" r="4.71211" stroke-width="0.5" stroke="black" fill="cyan"/>
   </g>
   <g id="cell94">
  <circle cx="545.558" cy="469.394" r="8.38957" stroke-width="0.5" stroke="black" fill="cyan"/>
  <circle cx="545.558" cy="469.394" r="5.04365" stroke-width="0.5" stroke="black" fill="cyan"/>
   </g>
   <g id="cell95">
  <circle cx="462.63" cy="535.705" r="8.38957" stroke-width="0.5" stroke="black" fill="magenta"/>
  <circle cx="462.63" cy="535.705" r="5.04365" stroke-width="0.5" stroke="black" fill="magenta"/>
   </g>
   <g id="cell96">
  <circle cx="535.304" cy="376.532" r="8.38464" stroke-width="0.5" stroke="black" fill="magenta"/>
  <circle cx="535.304" cy="376.532" r="5.04195" stroke-width="0.5" stroke="black" fill="magenta"/>
   </g>
   <g id="cell97">
  <circle cx="569.635" cy="507.284" r="8.38052" stroke-width="0.5" stroke="black" fill="magenta"/>
  <circle cx="569.635" cy="507.284" r="5.04039" stroke-width="0.5" stroke="black" fill="magenta"/>
   </g>
   <g id="cell98">
  <circle cx="408.008" cy="567.524" r="8.37537" stroke-width="0.5" stroke="black" fill="green"/>
  <circle cx="408.008" cy="567.524" r="5.03798" stroke-width="0.5" stroke="black" fill="green"/>
   </g>
   <g id="cell99">
  <circle cx="573.255" cy="492.455" r="8.37537" stroke-width="0.5" stroke="black" fill="magenta"/>
  <circle cx="573.255" cy="492.455" r="5.03798" stroke-width="0.5" stroke="black" fill="magenta"/>
   </g>
   <g id="cell100">
  <circle cx="569.542" cy="543.49" r="8.36218" stroke-width="0.5" stroke="black" fill="cyan"/>
  <circle cx="569.542" cy="543.49" r="5.03328" stroke-width="0.5" stroke="black" fill="cyan"/>
   </g>
   <g id="cell101">
  <circle cx="462.219" cy="628.953" r="8.3072" stroke-width="0.5" stroke="black" fill="magenta"/>
  <circle cx="462.219" cy="628.953" r="5.0096" stroke-width="0.5" stroke="black" fill="magenta"/>
   </g>
   <g id="cell102">
  <circle cx="445.562" cy="500.593" r="8.3603" stroke-width="0.5" stroke="black" fill="green"/>
  <circle cx="445.562" cy="500.593" r="5.03256" stroke-width="0.5" stroke="black" fill="green"/>
   </g>
   <g id="cell103">
  <circle cx="542.731" cy="604.708" r="8.34926" stroke-width="0.5" stroke="black" fill="green"/>
  <circle cx="542.731" cy="604.708" r="5.02783" stroke-width="0.5" stroke="black" fill="green"/>
   </g>
   <g id="cell104">
  <circle cx="553.836" cy="541.395" r="8.35568" stroke-width="0.5" stroke="black" fill="green"/>
  <circle cx="553.836" cy="541.395" r="5.02965" stroke-width="0.5" stroke="black" fill="green"/>
   </g>
   <g id="cell105">
  <circle cx="416.381" cy="493.893" r="8.34577" stroke-width="0.5" stroke="black" fill="green"/>
  <circle cx="416.381" cy="493.893" r="5.02575" stroke-width="0.5" stroke="black" fill="green"/>
   </g>
   <g id="cell106">
  <circle cx="639.263" cy="537.091" r="8.34884" stroke-width="0.5" stroke="black" fill="green"/>
  <circle cx="639.263" cy="537.091" r="5.02667" stroke-width="0.5" stroke="black" fill="green"/>
   </g>
   <g id="cell107">
  <circle cx="384.195" cy="511.842" r="8.33026" stroke-width="0.5" stroke="black" fill="cyan"/>
  <circle cx="384.195" cy="511.842" r="5.01837" stroke-width="0.5" stroke="black" fill="cyan"/>
   </g>
   <g id="cell108">
  <circle cx="459.662" cy="643.683" r="8.3072" stroke-width="0.5" stroke="black" fill="magenta"/>
  <circle cx="459.662" cy="643.683" r="5.0096" stroke-width="0.5" stroke="black" fill="magenta"/>
   </g>
   <g id="cell109">
  <circle cx="448.184" cy="634.099" r="8.3072" stroke-width="0.5" stroke="black" fill="magenta"/>
  <circle cx="448.184" cy="634.099" r="5.0096" stroke-width="0.5" stroke="black" fill="magenta"/>
   </g>
   <g id="cell110">
  <circle cx="539.156" cy="589.477" r="8.28801" stroke-width="0.5" stroke="black" fill="green"/>
  <circle cx="539.156" cy="589.477" r="5.00166" stroke-width="0.5" stroke="black" fill="green"/>
   </g>
   <g id="cell111">
  <circle cx="634.044" cy="552.043" r="8.28779" stroke-width="0.5" stroke="black" fill="green"/>
  <circle cx="634.044" cy="552.043" r="5.00107" stroke-width="0.5" stroke="black" fill="green"/>
   </g>
   <g id="cell112">
  <circle cx="382.068" cy="575.654" r="8.30202" stroke-width="0.5" stroke="black" fill="magenta"/>
  <circle cx="382.068" cy="575.654" r="5.00632" stroke-width="0.5" stroke="black" fill="magenta"/>
   </g>
   <g id="cell113">
  <circle cx="422.69" cy="479.419" r="8.29334" stroke-width="0.5" stroke="black" fill="green"/>
  <circle cx="422.69" cy="479.419" r="5.00218" stroke-width="0.5" stroke="black" fill="green"/>
   </g>
   <g id="cell114">
  <circle cx="491.92" cy="447.59" r="7.66232" stroke-width="0.5" stroke="black" fill="magenta"/>
  <circle cx="491.92" cy="447.59" r="4.66779" stroke-width="0.5" stroke="black" fill="magenta"/>
   </g>
   <g id="cell115">
  <circle cx="452.007" cy="524.531" r="8.25921" stroke-width="0.5" stroke="black" fill="green"/>
  <circle cx="452.007" cy="524.531" r="4.98595" stroke-width="0.5" stroke="black" fill="green"/>
   </g>
   <g id="cell116">
  <circle cx="369.922" cy="518.343" r="8.21113" stroke-width="0.5" stroke="black" fill="cyan"/>
  <circle cx="369.922" cy="518.343" r="4.96481" stroke-width="0.5" stroke="black" fill="cyan"/>
   </g>
   <g id="cell117">
  <circle cx="437.686" cy="513.475" r="4.5419" stroke-width="0.5" stroke="black" fill="green"/>
  <circle cx="437.686" cy="513.475" r="3.12484" stroke-width="0.5" stroke="black" fill="black"/>
   </g>
   <g id="cell118">
  <circle cx="528.842" cy="524.211" r="8.20088" stroke-width="0.5" stroke="black" fill="cyan"/>
  <circle cx="528.842" cy="524.211" r="4.95562" stroke-width="0.5" stroke="black" fill="cyan"/>
   </g>
   <g id="cell119">
  <circle cx="529.062" cy="628.291" r="8.1947" stroke-width="0.5" stroke="black" fill="green"/>
  <circle cx="529.062" cy="628.291" r="4.95246" stroke-width="0.5" stroke="black" fill="green"/>
   </g>
   <g id="cell121">
  <circle cx="388.878" cy="551.008" r="8.15349" stroke-width="0.5" stroke="black" fill="magenta"/>
  <circle cx="388.878" cy="551.008" r="4.93259" stroke-width="0.5" stroke="black" fill="magenta"/>
   </g>
   <g id="cell122">
  <circle cx="606.908" cy="470.716" r="8.13813" stroke-width="0.5" stroke="black" fill="cyan"/>
  <circle cx="606.908" cy="470.716" r="4.92317" stroke-width="0.5" stroke="black" fill="cyan"/>
   </g>
   <g id="cell123">
  <circle cx="502.041" cy="643.131" r="8.11327" stroke-width="0.5" stroke="black" fill="cyan"/>
  <circle cx="502.041" cy="643.131" r="4.91006" stroke-width="0.5" stroke="black" fill="cyan"/>
   </g>
   <g id="cell124">
  <circle cx="385.12" cy="590.352" r="8.10448" stroke-width="0.5" stroke="black" fill="green"/>
  <circle cx="385.12" cy="590.352" r="4.90539" stroke-width="0.5" stroke="black" fill="green"/>
   </g>
   <g id="cell125">
  <circle cx="449.809" cy="459.617" r="8.07426" stroke-width="0.5" stroke="black" fill="cyan"/>
  <circle cx="449.809" cy="459.617" r="4.88978" stroke-width="0.5" stroke="black" fill="cyan"/>
   </g>
   <g id="cell126">
  <circle cx="417.292" cy="509.423" r="7.976" stroke-width="0.5" stroke="black" fill="green"/>
  <circle cx="417.292" cy="509.423" r="4.84138" stroke-width="0.5" stroke="black" fill="green"/>
   </g>
   <g id="cell127">
  <circle cx="408.91" cy="599.143" r="7.97646" stroke-width="0.5" stroke="black" fill="cyan"/>
  <circle cx="408.91" cy="599.143" r="4.83584" stroke-width="0.5" stroke="black" fill="cyan"/>
   </g>
   <g id="cell128">
  <circle cx="369.025" cy="533.419" r="7.83872" stroke-width="0.5" stroke="black" fill="cyan"/>
  <circle cx="369.025" cy="533.419" r="4.77277" stroke-width="0.5" stroke="black" fill="cyan"/>
   </g>
   <g id="cell131">
  <circle cx="583.46" cy="537.279" r="7.74814" stroke-width="0.5" stroke="black" fill="cyan"/>
  <circle cx="583.46" cy="537.279" r="4.71211" stroke-width="0.5" stroke="black" fill="cyan"/>
   </g>
   <g id="cell132">
  <circle cx="503.86" cy="440.764" r="7.66232" stroke-width="0.5" stroke="black" fill="magenta"/>
  <circle cx="503.86" cy="440.764" r="4.66779" stroke-width="0.5" stroke="black" fill="magenta"/>
   </g>
   <g id="cell133">
  <circle cx="532.457" cy="408.937" r="7.67987" stroke-width="0.5" stroke="black" fill="magenta"/>
  <circle cx="532.457" cy="408.937" r="4.66617" stroke-width="0.5" stroke="black" fill="magenta"/>
   </g>
   <g id="cell134">
  <circle cx="514.86" cy="583.051" r="6.42072" stroke-width="0.5" stroke="black" fill="magenta"/>
  <circle cx="514.86" cy="583.051" r="3.93232" stroke-width="0.5" stroke="black" fill="magenta"/>
   </g>
   <g id="cell135">
  <circle cx="565.021" cy="480.237" r="7.51976" stroke-width="0.5" stroke="black" fill="cyan"/>
  <circle cx="565.021" cy="480.237" r="4.57072" stroke-width="0.5" stroke="black" fill="cyan"/>
   </g>
   <g id="cell137">
  <circle cx="378.93" cy="477.225" r="7.17765" stroke-width="0.5" stroke="black" fill="magenta"/>
  <circle cx="378.93" cy="477.225" r="4.3591" stroke-width="0.5" stroke="black" fill="magenta"/>
   </g>
   <g id="cell138">
  <circle cx="522.666" cy="590.091" r="5.41067" stroke-width="0.5" stroke="black" fill="magenta"/>
  <circle cx="522.666" cy="590.091" r="3.3352" stroke-width="0.5" stroke="black" fill="magenta"/>
   </g>
   <g id="cell139">
  <circle cx="513.882" cy="608.324" r="6.73496" stroke-width="0.5" stroke="black" fill="green"/>
  <circle cx="513.882" cy="608.324" r="4.09591" stroke-width="0.5" stroke="black" fill="green"/>
   </g>
   <g id="cell142">
  <circle cx="585.53" cy="384.5" r="6.27108" stroke-width="0.5" stroke="black" fill="magenta"/>
  <circle cx="585.53" cy="384.5" r="3.80692" stroke-width="0.5" stroke="black" fill="magenta"/>
   </g>
  </g>
 </g>
  <rect x="775" y="1035" width="200" height="10" stroke-width="2" stroke="rgb(255,255,255)" fill="rgb(0,0,0)"/>
  <text x="781.25" y="1028.75"
   font-family="Arial" font-size="25" fill="black" >
   200 &#956;m
  </text>
  <text x="25" y="1045"
   font-family="Arial" font-size="18.75" fill="black" >
   0 days, 0 hours, 0 minutes, and 29.3309 seconds
  </text>
  <rect x="0" y="70" width="1000" height="1000" stroke-width="2" stroke="rgb(0,0,0)" fill="none"/>
</svg>
