<?xml version="1.0" encoding="UTF-8" standalone="no"?>
<!-- Created with PhysiCell (http://PhysiCell.MathCancer.org/) -->
<svg 
 xmlns:dc="http://purl.org/dc/elements/1.1/" 
 xmlns:cc="http://creativecommons.org/ns#" 
 xmlns:rdf="http://www.w3.org/1999/02/22-rdf-syntax-ns#" 
 xmlns:svg="http://www.w3.org/2000/svg" 
 xmlns="http://www.w3.org/2000/svg" 
 version="1.1" 
 width="1000" 
 height="1070" 
 id="svg2">
  <rect x="0" y="0" width="1000" height="1070" stroke-width="2" stroke="white" fill="white"/>
  <text x="12.5" y="30"
   font-family="Arial" font-size="25" fill="black" >
   Current time: 1 days, 4 hours, and 0.00 minutes, z = 0.00 &#956;m
  </text>
  <text x="12.5" y="57.5"
   font-family="Arial" font-size="23.75" fill="black" >
   162 agents
  </text>
 <g id="tissue" 
    transform="translate(0,1070) scale(1,-1)">
  <g id="ECM">
  </g>
  <g id="cells">
   <g id="cell0">
  <circle cx="515.326" cy="527.625" r="8.41175" stroke-width="0.5" stroke="black" fill="magenta"/>
  <circle cx="515.326" cy="527.625" r="5.05143" stroke-width="0.5" stroke="black" fill="magenta"/>
   </g>
   <g id="cell147">
  <circle cx="420.969" cy="570.786" r="7.87455" stroke-width="0.5" stroke="black" fill="green"/>
  <circle cx="420.969" cy="570.786" r="4.7797" stroke-width="0.5" stroke="black" fill="green"/>
   </g>
   <g id="cell2">
  <circle cx="507.99" cy="594.793" r="8.27097" stroke-width="0.5" stroke="black" fill="magenta"/>
  <circle cx="507.99" cy="594.793" r="4.99048" stroke-width="0.5" stroke="black" fill="magenta"/>
   </g>
   <g id="cell3">
  <circle cx="538.351" cy="540.484" r="8.2239" stroke-width="0.5" stroke="black" fill="magenta"/>
  <circle cx="538.351" cy="540.484" r="4.96725" stroke-width="0.5" stroke="black" fill="magenta"/>
   </g>
   <g id="cell4">
  <circle cx="463.047" cy="440.366" r="8.41185" stroke-width="0.5" stroke="black" fill="magenta"/>
  <circle cx="463.047" cy="440.366" r="5.05146" stroke-width="0.5" stroke="black" fill="magenta"/>
   </g>
   <g id="cell5">
  <circle cx="464.26" cy="498.744" r="7.96365" stroke-width="0.5" stroke="black" fill="magenta"/>
  <circle cx="464.26" cy="498.744" r="4.82873" stroke-width="0.5" stroke="black" fill="magenta"/>
   </g>
   <g id="cell6">
  <circle cx="595.04" cy="513.639" r="8.40961" stroke-width="0.5" stroke="black" fill="magenta"/>
  <circle cx="595.04" cy="513.639" r="5.05081" stroke-width="0.5" stroke="black" fill="magenta"/>
   </g>
   <g id="cell7">
  <circle cx="511.521" cy="464.321" r="8.41271" stroke-width="0.5" stroke="black" fill="magenta"/>
  <circle cx="511.521" cy="464.321" r="5.05167" stroke-width="0.5" stroke="black" fill="magenta"/>
   </g>
   <g id="cell8">
  <circle cx="366.323" cy="550.319" r="7.98892" stroke-width="0.5" stroke="black" fill="magenta"/>
  <circle cx="366.323" cy="550.319" r="4.84272" stroke-width="0.5" stroke="black" fill="magenta"/>
   </g>
   <g id="cell9">
  <circle cx="463.814" cy="601.964" r="8.40944" stroke-width="0.5" stroke="black" fill="magenta"/>
  <circle cx="463.814" cy="601.964" r="5.05076" stroke-width="0.5" stroke="black" fill="magenta"/>
   </g>
   <g id="cell10">
  <circle cx="587.87" cy="396.749" r="7.99434" stroke-width="0.5" stroke="black" fill="magenta"/>
  <circle cx="587.87" cy="396.749" r="4.85253" stroke-width="0.5" stroke="black" fill="magenta"/>
   </g>
   <g id="cell11">
  <circle cx="589.748" cy="590.273" r="8.41271" stroke-width="0.5" stroke="black" fill="magenta"/>
  <circle cx="589.748" cy="590.273" r="5.05167" stroke-width="0.5" stroke="black" fill="magenta"/>
   </g>
   <g id="cell12">
  <circle cx="498.726" cy="583.241" r="8.41271" stroke-width="0.5" stroke="black" fill="magenta"/>
  <circle cx="498.726" cy="583.241" r="5.05167" stroke-width="0.5" stroke="black" fill="magenta"/>
   </g>
   <g id="cell13">
  <circle cx="378.931" cy="558.022" r="8.3659" stroke-width="0.5" stroke="black" fill="magenta"/>
  <circle cx="378.931" cy="558.022" r="5.03422" stroke-width="0.5" stroke="black" fill="magenta"/>
   </g>
   <g id="cell14">
  <circle cx="525.177" cy="396.191" r="6.63137" stroke-width="0.5" stroke="black" fill="magenta"/>
  <circle cx="525.177" cy="396.191" r="4.00699" stroke-width="0.5" stroke="black" fill="magenta"/>
   </g>
   <g id="cell15">
  <circle cx="391.092" cy="487.399" r="7.05977" stroke-width="0.5" stroke="black" fill="magenta"/>
  <circle cx="391.092" cy="487.399" r="4.3093" stroke-width="0.5" stroke="black" fill="magenta"/>
   </g>
   <g id="cell16">
  <circle cx="431.274" cy="412.16" r="8.41271" stroke-width="0.5" stroke="black" fill="magenta"/>
  <circle cx="431.274" cy="412.16" r="5.05167" stroke-width="0.5" stroke="black" fill="magenta"/>
   </g>
   <g id="cell17">
  <circle cx="586.837" cy="486.801" r="8.40576" stroke-width="0.5" stroke="black" fill="magenta"/>
  <circle cx="586.837" cy="486.801" r="5.04957" stroke-width="0.5" stroke="black" fill="magenta"/>
   </g>
   <g id="cell18">
  <circle cx="511.661" cy="394.048" r="8.41189" stroke-width="0.5" stroke="black" fill="magenta"/>
  <circle cx="511.661" cy="394.048" r="5.05147" stroke-width="0.5" stroke="black" fill="magenta"/>
   </g>
   <g id="cell19">
  <circle cx="449.842" cy="541.889" r="8.40839" stroke-width="0.5" stroke="black" fill="magenta"/>
  <circle cx="449.842" cy="541.889" r="5.05043" stroke-width="0.5" stroke="black" fill="magenta"/>
   </g>
   <g id="cell20">
  <circle cx="528.484" cy="422.817" r="8.41271" stroke-width="0.5" stroke="black" fill="magenta"/>
  <circle cx="528.484" cy="422.817" r="5.05167" stroke-width="0.5" stroke="black" fill="magenta"/>
   </g>
   <g id="cell141">
  <circle cx="486.247" cy="440.656" r="6.40116" stroke-width="0.5" stroke="black" fill="magenta"/>
  <circle cx="486.247" cy="440.656" r="3.88109" stroke-width="0.5" stroke="black" fill="magenta"/>
   </g>
   <g id="cell22">
  <circle cx="559.485" cy="496.782" r="8.4067" stroke-width="0.5" stroke="black" fill="magenta"/>
  <circle cx="559.485" cy="496.782" r="5.04993" stroke-width="0.5" stroke="black" fill="magenta"/>
   </g>
   <g id="cell23">
  <circle cx="535.974" cy="484.083" r="8.41271" stroke-width="0.5" stroke="black" fill="magenta"/>
  <circle cx="535.974" cy="484.083" r="5.05167" stroke-width="0.5" stroke="black" fill="magenta"/>
   </g>
   <g id="cell24">
  <circle cx="562.283" cy="382.222" r="8.41271" stroke-width="0.5" stroke="black" fill="magenta"/>
  <circle cx="562.283" cy="382.222" r="5.05167" stroke-width="0.5" stroke="black" fill="magenta"/>
   </g>
   <g id="cell25">
  <circle cx="653.098" cy="563.974" r="7.55424" stroke-width="0.5" stroke="black" fill="green"/>
  <circle cx="653.098" cy="563.974" r="4.59503" stroke-width="0.5" stroke="black" fill="green"/>
   </g>
   <g id="cell26">
  <circle cx="547.778" cy="402.46" r="8.41271" stroke-width="0.5" stroke="black" fill="green"/>
  <circle cx="547.778" cy="402.46" r="5.05167" stroke-width="0.5" stroke="black" fill="green"/>
   </g>
   <g id="cell27">
  <circle cx="452.676" cy="389.379" r="6.75639" stroke-width="0.5" stroke="black" fill="green"/>
  <circle cx="452.676" cy="389.379" r="4.06813" stroke-width="0.5" stroke="black" fill="green"/>
   </g>
   <g id="cell28">
  <circle cx="435.864" cy="547.886" r="8.41271" stroke-width="0.5" stroke="black" fill="green"/>
  <circle cx="435.864" cy="547.886" r="5.05167" stroke-width="0.5" stroke="black" fill="green"/>
   </g>
   <g id="cell29">
  <circle cx="466.29" cy="520.831" r="8.38468" stroke-width="0.5" stroke="black" fill="green"/>
  <circle cx="466.29" cy="520.831" r="5.0419" stroke-width="0.5" stroke="black" fill="green"/>
   </g>
   <g id="cell30">
  <circle cx="478.827" cy="539.441" r="8.41271" stroke-width="0.5" stroke="black" fill="green"/>
  <circle cx="478.827" cy="539.441" r="5.05167" stroke-width="0.5" stroke="black" fill="green"/>
   </g>
   <g id="cell31">
  <circle cx="413.527" cy="534.339" r="8.41271" stroke-width="0.5" stroke="black" fill="green"/>
  <circle cx="413.527" cy="534.339" r="5.05167" stroke-width="0.5" stroke="black" fill="green"/>
   </g>
   <g id="cell32">
  <circle cx="424.06" cy="458.053" r="7.14803" stroke-width="0.5" stroke="black" fill="green"/>
  <circle cx="424.06" cy="458.053" r="4.33952" stroke-width="0.5" stroke="black" fill="green"/>
   </g>
   <g id="cell33">
  <circle cx="498.75" cy="413.775" r="8.41061" stroke-width="0.5" stroke="black" fill="green"/>
  <circle cx="498.75" cy="413.775" r="5.05111" stroke-width="0.5" stroke="black" fill="green"/>
   </g>
   <g id="cell34">
  <circle cx="392.094" cy="453.62" r="8.41009" stroke-width="0.5" stroke="black" fill="green"/>
  <circle cx="392.094" cy="453.62" r="5.05096" stroke-width="0.5" stroke="black" fill="green"/>
   </g>
   <g id="cell35">
  <circle cx="544.965" cy="554.418" r="8.40215" stroke-width="0.5" stroke="black" fill="green"/>
  <circle cx="544.965" cy="554.418" r="5.04833" stroke-width="0.5" stroke="black" fill="green"/>
   </g>
   <g id="cell36">
  <circle cx="394.742" cy="579.68" r="8.35727" stroke-width="0.5" stroke="black" fill="green"/>
  <circle cx="394.742" cy="579.68" r="5.03034" stroke-width="0.5" stroke="black" fill="green"/>
   </g>
   <g id="cell37">
  <circle cx="634.871" cy="460.618" r="1.33065" stroke-width="0.5" stroke="black" fill="green"/>
  <circle cx="634.871" cy="460.618" r="1.32157" stroke-width="0.5" stroke="black" fill="black"/>
   </g>
   <g id="cell38">
  <circle cx="524.602" cy="604.954" r="8.40862" stroke-width="0.5" stroke="black" fill="green"/>
  <circle cx="524.602" cy="604.954" r="5.0505" stroke-width="0.5" stroke="black" fill="green"/>
   </g>
   <g id="cell39">
  <circle cx="620.029" cy="494.685" r="8.41169" stroke-width="0.5" stroke="black" fill="green"/>
  <circle cx="620.029" cy="494.685" r="5.05142" stroke-width="0.5" stroke="black" fill="green"/>
   </g>
   <g id="cell40">
  <circle cx="487.02" cy="573.153" r="8.41271" stroke-width="0.5" stroke="black" fill="green"/>
  <circle cx="487.02" cy="573.153" r="5.05167" stroke-width="0.5" stroke="black" fill="green"/>
   </g>
   <g id="cell41">
  <circle cx="363.625" cy="479.597" r="8.41271" stroke-width="0.5" stroke="black" fill="green"/>
  <circle cx="363.625" cy="479.597" r="5.05167" stroke-width="0.5" stroke="black" fill="green"/>
   </g>
   <g id="cell42">
  <circle cx="452.528" cy="487.151" r="1.58773" stroke-width="0.5" stroke="black" fill="green"/>
  <circle cx="452.528" cy="487.151" r="1.55967" stroke-width="0.5" stroke="black" fill="black"/>
   </g>
   <g id="cell43">
  <circle cx="558.174" cy="445.595" r="8.41271" stroke-width="0.5" stroke="black" fill="green"/>
  <circle cx="558.174" cy="445.595" r="5.05167" stroke-width="0.5" stroke="black" fill="green"/>
   </g>
   <g id="cell44">
  <circle cx="487.123" cy="628.654" r="7.65699" stroke-width="0.5" stroke="black" fill="green"/>
  <circle cx="487.123" cy="628.654" r="4.65319" stroke-width="0.5" stroke="black" fill="green"/>
   </g>
   <g id="cell45">
  <circle cx="428.449" cy="561.105" r="5.18378" stroke-width="0.5" stroke="black" fill="green"/>
  <circle cx="428.449" cy="561.105" r="3.19849" stroke-width="0.5" stroke="black" fill="green"/>
   </g>
   <g id="cell46">
  <circle cx="520.845" cy="620.336" r="8.10065" stroke-width="0.5" stroke="black" fill="green"/>
  <circle cx="520.845" cy="620.336" r="4.90666" stroke-width="0.5" stroke="black" fill="green"/>
   </g>
   <g id="cell47">
  <circle cx="495.659" cy="509.495" r="8.41271" stroke-width="0.5" stroke="black" fill="green"/>
  <circle cx="495.659" cy="509.495" r="5.05167" stroke-width="0.5" stroke="black" fill="green"/>
   </g>
   <g id="cell48">
  <circle cx="566.397" cy="605.259" r="8.41271" stroke-width="0.5" stroke="black" fill="green"/>
  <circle cx="566.397" cy="605.259" r="5.05167" stroke-width="0.5" stroke="black" fill="green"/>
   </g>
   <g id="cell49">
  <circle cx="434.699" cy="397.027" r="8.32291" stroke-width="0.5" stroke="black" fill="green"/>
  <circle cx="434.699" cy="397.027" r="5.01502" stroke-width="0.5" stroke="black" fill="green"/>
   </g>
   <g id="cell50">
  <circle cx="509.931" cy="513.8" r="7.63698" stroke-width="0.5" stroke="black" fill="cyan"/>
  <circle cx="509.931" cy="513.8" r="4.64085" stroke-width="0.5" stroke="black" fill="cyan"/>
   </g>
   <g id="cell51">
  <circle cx="385.7" cy="603.849" r="7.75043" stroke-width="0.5" stroke="black" fill="cyan"/>
  <circle cx="385.7" cy="603.849" r="4.71507" stroke-width="0.5" stroke="black" fill="cyan"/>
   </g>
   <g id="cell120">
  <circle cx="419.668" cy="610.646" r="8.37208" stroke-width="0.5" stroke="black" fill="cyan"/>
  <circle cx="419.668" cy="610.646" r="5.03661" stroke-width="0.5" stroke="black" fill="cyan"/>
   </g>
   <g id="cell53">
  <circle cx="571.086" cy="436.152" r="8.41271" stroke-width="0.5" stroke="black" fill="cyan"/>
  <circle cx="571.086" cy="436.152" r="5.05167" stroke-width="0.5" stroke="black" fill="cyan"/>
   </g>
   <g id="cell54">
  <circle cx="481.795" cy="426.681" r="7.87851" stroke-width="0.5" stroke="black" fill="cyan"/>
  <circle cx="481.795" cy="426.681" r="4.78096" stroke-width="0.5" stroke="black" fill="cyan"/>
   </g>
   <g id="cell55">
  <circle cx="523.282" cy="474.752" r="8.41271" stroke-width="0.5" stroke="black" fill="cyan"/>
  <circle cx="523.282" cy="474.752" r="5.05167" stroke-width="0.5" stroke="black" fill="cyan"/>
   </g>
   <g id="cell56">
  <circle cx="615.719" cy="522.509" r="8.41271" stroke-width="0.5" stroke="black" fill="cyan"/>
  <circle cx="615.719" cy="522.509" r="5.05167" stroke-width="0.5" stroke="black" fill="cyan"/>
   </g>
   <g id="cell57">
  <circle cx="418.488" cy="626.545" r="8.37208" stroke-width="0.5" stroke="black" fill="cyan"/>
  <circle cx="418.488" cy="626.545" r="5.03661" stroke-width="0.5" stroke="black" fill="cyan"/>
   </g>
   <g id="cell58">
  <circle cx="551.416" cy="483.796" r="8.41271" stroke-width="0.5" stroke="black" fill="cyan"/>
  <circle cx="551.416" cy="483.796" r="5.05167" stroke-width="0.5" stroke="black" fill="cyan"/>
   </g>
   <g id="cell59">
  <circle cx="385.16" cy="439.176" r="8.41271" stroke-width="0.5" stroke="black" fill="cyan"/>
  <circle cx="385.16" cy="439.176" r="5.05167" stroke-width="0.5" stroke="black" fill="cyan"/>
   </g>
   <g id="cell60">
  <circle cx="594.463" cy="472.607" r="8.3632" stroke-width="0.5" stroke="black" fill="cyan"/>
  <circle cx="594.463" cy="472.607" r="5.03288" stroke-width="0.5" stroke="black" fill="cyan"/>
   </g>
   <g id="cell155">
  <circle cx="520.965" cy="591.349" r="7.11172" stroke-width="0.5" stroke="black" fill="magenta"/>
  <circle cx="520.965" cy="591.349" r="4.3629" stroke-width="0.5" stroke="black" fill="magenta"/>
   </g>
   <g id="cell62">
  <circle cx="523.296" cy="437.695" r="8.41271" stroke-width="0.5" stroke="black" fill="cyan"/>
  <circle cx="523.296" cy="437.695" r="5.05167" stroke-width="0.5" stroke="black" fill="cyan"/>
   </g>
   <g id="cell63">
  <circle cx="582.034" cy="551.897" r="8.40862" stroke-width="0.5" stroke="black" fill="cyan"/>
  <circle cx="582.034" cy="551.897" r="5.0505" stroke-width="0.5" stroke="black" fill="cyan"/>
   </g>
   <g id="cell64">
  <circle cx="511.994" cy="633.494" r="8.35882" stroke-width="0.5" stroke="black" fill="cyan"/>
  <circle cx="511.994" cy="633.494" r="5.031" stroke-width="0.5" stroke="black" fill="cyan"/>
   </g>
   <g id="cell65">
  <circle cx="529.942" cy="450.471" r="6.95585" stroke-width="0.5" stroke="black" fill="cyan"/>
  <circle cx="529.942" cy="450.471" r="4.21244" stroke-width="0.5" stroke="black" fill="cyan"/>
   </g>
   <g id="cell66">
  <circle cx="546.375" cy="526.967" r="8.37431" stroke-width="0.5" stroke="black" fill="cyan"/>
  <circle cx="546.375" cy="526.967" r="5.03754" stroke-width="0.5" stroke="black" fill="cyan"/>
   </g>
   <g id="cell67">
  <circle cx="354.595" cy="492.831" r="8.41271" stroke-width="0.5" stroke="black" fill="cyan"/>
  <circle cx="354.595" cy="492.831" r="5.05167" stroke-width="0.5" stroke="black" fill="cyan"/>
   </g>
   <g id="cell68">
  <circle cx="560.996" cy="555.264" r="8.41271" stroke-width="0.5" stroke="black" fill="cyan"/>
  <circle cx="560.996" cy="555.264" r="5.05167" stroke-width="0.5" stroke="black" fill="cyan"/>
   </g>
   <g id="cell69">
  <circle cx="436.505" cy="450.039" r="8.41192" stroke-width="0.5" stroke="black" fill="cyan"/>
  <circle cx="436.505" cy="450.039" r="5.05148" stroke-width="0.5" stroke="black" fill="cyan"/>
   </g>
   <g id="cell70">
  <circle cx="578.983" cy="473.666" r="8.25377" stroke-width="0.5" stroke="black" fill="cyan"/>
  <circle cx="578.983" cy="473.666" r="4.98209" stroke-width="0.5" stroke="black" fill="cyan"/>
   </g>
   <g id="cell71">
  <circle cx="379.886" cy="528.972" r="7.48175" stroke-width="0.5" stroke="black" fill="cyan"/>
  <circle cx="379.886" cy="528.972" r="4.56006" stroke-width="0.5" stroke="black" fill="cyan"/>
   </g>
   <g id="cell72">
  <circle cx="538.996" cy="512.311" r="8.41271" stroke-width="0.5" stroke="black" fill="cyan"/>
  <circle cx="538.996" cy="512.311" r="5.05167" stroke-width="0.5" stroke="black" fill="cyan"/>
   </g>
   <g id="cell129">
  <circle cx="419.624" cy="401.914" r="8.32291" stroke-width="0.5" stroke="black" fill="green"/>
  <circle cx="419.624" cy="401.914" r="5.01502" stroke-width="0.5" stroke="black" fill="green"/>
   </g>
   <g id="cell74">
  <circle cx="542.419" cy="443.158" r="8.41271" stroke-width="0.5" stroke="black" fill="cyan"/>
  <circle cx="542.419" cy="443.158" r="5.05167" stroke-width="0.5" stroke="black" fill="cyan"/>
   </g>
   <g id="cell75">
  <circle cx="444.847" cy="478.714" r="6.82094" stroke-width="0.5" stroke="black" fill="cyan"/>
  <circle cx="444.847" cy="478.714" r="4.13082" stroke-width="0.5" stroke="black" fill="cyan"/>
   </g>
   <g id="cell76">
  <circle cx="521.912" cy="382.963" r="8.40747" stroke-width="0.5" stroke="black" fill="magenta"/>
  <circle cx="521.912" cy="382.963" r="5.05017" stroke-width="0.5" stroke="black" fill="magenta"/>
   </g>
   <g id="cell77">
  <circle cx="495.591" cy="432.638" r="8.04331" stroke-width="0.5" stroke="black" fill="magenta"/>
  <circle cx="495.591" cy="432.638" r="4.875" stroke-width="0.5" stroke="black" fill="magenta"/>
   </g>
   <g id="cell78">
  <circle cx="370.959" cy="465.974" r="8.4118" stroke-width="0.5" stroke="black" fill="magenta"/>
  <circle cx="370.959" cy="465.974" r="5.05145" stroke-width="0.5" stroke="black" fill="magenta"/>
   </g>
   <g id="cell79">
  <circle cx="500.199" cy="524.725" r="8.41175" stroke-width="0.5" stroke="black" fill="magenta"/>
  <circle cx="500.199" cy="524.725" r="5.05143" stroke-width="0.5" stroke="black" fill="magenta"/>
   </g>
   <g id="cell80">
  <circle cx="600.741" cy="485.14" r="6.7556" stroke-width="0.5" stroke="black" fill="green"/>
  <circle cx="600.741" cy="485.14" r="4.06793" stroke-width="0.5" stroke="black" fill="green"/>
   </g>
   <g id="cell81">
  <circle cx="430.252" cy="503.894" r="8.33487" stroke-width="0.5" stroke="black" fill="green"/>
  <circle cx="430.252" cy="503.894" r="5.02127" stroke-width="0.5" stroke="black" fill="green"/>
   </g>
   <g id="cell82">
  <circle cx="544.028" cy="497.298" r="8.41151" stroke-width="0.5" stroke="black" fill="magenta"/>
  <circle cx="544.028" cy="497.298" r="5.05137" stroke-width="0.5" stroke="black" fill="magenta"/>
   </g>
   <g id="cell130">
  <circle cx="574.207" cy="391.398" r="8.31766" stroke-width="0.5" stroke="black" fill="magenta"/>
  <circle cx="574.207" cy="391.398" r="5.0126" stroke-width="0.5" stroke="black" fill="magenta"/>
   </g>
   <g id="cell84">
  <circle cx="404.691" cy="482.054" r="8.39082" stroke-width="0.5" stroke="black" fill="green"/>
  <circle cx="404.691" cy="482.054" r="5.04427" stroke-width="0.5" stroke="black" fill="green"/>
   </g>
   <g id="cell140">
  <circle cx="528.136" cy="580.113" r="7.93291" stroke-width="0.5" stroke="black" fill="magenta"/>
  <circle cx="528.136" cy="580.113" r="4.82708" stroke-width="0.5" stroke="black" fill="magenta"/>
   </g>
   <g id="cell86">
  <circle cx="392.495" cy="564.314" r="8.39238" stroke-width="0.5" stroke="black" fill="magenta"/>
  <circle cx="392.495" cy="564.314" r="5.04487" stroke-width="0.5" stroke="black" fill="magenta"/>
   </g>
   <g id="cell87">
  <circle cx="433.007" cy="519.14" r="7.67978" stroke-width="0.5" stroke="black" fill="green"/>
  <circle cx="433.007" cy="519.14" r="4.67057" stroke-width="0.5" stroke="black" fill="green"/>
   </g>
   <g id="cell88">
  <circle cx="476.738" cy="610.675" r="8.40986" stroke-width="0.5" stroke="black" fill="green"/>
  <circle cx="476.738" cy="610.675" r="5.05089" stroke-width="0.5" stroke="black" fill="green"/>
   </g>
   <g id="cell89">
  <circle cx="434.937" cy="488.963" r="8.40297" stroke-width="0.5" stroke="black" fill="green"/>
  <circle cx="434.937" cy="488.963" r="5.04874" stroke-width="0.5" stroke="black" fill="green"/>
   </g>
   <g id="cell90">
  <circle cx="580.798" cy="511.657" r="7.51782" stroke-width="0.5" stroke="black" fill="magenta"/>
  <circle cx="580.798" cy="511.657" r="4.57014" stroke-width="0.5" stroke="black" fill="magenta"/>
   </g>
   <g id="cell136">
  <circle cx="523.352" cy="540.58" r="8.2239" stroke-width="0.5" stroke="black" fill="magenta"/>
  <circle cx="523.352" cy="540.58" r="4.96725" stroke-width="0.5" stroke="black" fill="magenta"/>
   </g>
   <g id="cell92">
  <circle cx="554.35" cy="594.604" r="8.38981" stroke-width="0.5" stroke="black" fill="green"/>
  <circle cx="554.35" cy="594.604" r="5.04417" stroke-width="0.5" stroke="black" fill="green"/>
   </g>
   <g id="cell93">
  <circle cx="573.191" cy="524.335" r="8.29511" stroke-width="0.5" stroke="black" fill="cyan"/>
  <circle cx="573.191" cy="524.335" r="5.00287" stroke-width="0.5" stroke="black" fill="cyan"/>
   </g>
   <g id="cell94">
  <circle cx="544.035" cy="470.283" r="8.40839" stroke-width="0.5" stroke="black" fill="cyan"/>
  <circle cx="544.035" cy="470.283" r="5.05043" stroke-width="0.5" stroke="black" fill="cyan"/>
   </g>
   <g id="cell95">
  <circle cx="463.672" cy="536.144" r="8.40839" stroke-width="0.5" stroke="black" fill="magenta"/>
  <circle cx="463.672" cy="536.144" r="5.05043" stroke-width="0.5" stroke="black" fill="magenta"/>
   </g>
   <g id="cell96">
  <circle cx="535.52" cy="376.423" r="8.40747" stroke-width="0.5" stroke="black" fill="magenta"/>
  <circle cx="535.52" cy="376.423" r="5.05017" stroke-width="0.5" stroke="black" fill="magenta"/>
   </g>
   <g id="cell97">
  <circle cx="566.91" cy="509.796" r="8.4067" stroke-width="0.5" stroke="black" fill="magenta"/>
  <circle cx="566.91" cy="509.796" r="5.04993" stroke-width="0.5" stroke="black" fill="magenta"/>
   </g>
   <g id="cell98">
  <circle cx="406.762" cy="567.256" r="7.87455" stroke-width="0.5" stroke="black" fill="green"/>
  <circle cx="406.762" cy="567.256" r="4.7797" stroke-width="0.5" stroke="black" fill="green"/>
   </g>
   <g id="cell99">
  <circle cx="574.907" cy="496.807" r="8.40576" stroke-width="0.5" stroke="black" fill="magenta"/>
  <circle cx="574.907" cy="496.807" r="5.04957" stroke-width="0.5" stroke="black" fill="magenta"/>
   </g>
   <g id="cell100">
  <circle cx="569.652" cy="541.696" r="8.40332" stroke-width="0.5" stroke="black" fill="cyan"/>
  <circle cx="569.652" cy="541.696" r="5.04885" stroke-width="0.5" stroke="black" fill="cyan"/>
   </g>
   <g id="cell101">
  <circle cx="458.528" cy="628.461" r="8.3933" stroke-width="0.5" stroke="black" fill="magenta"/>
  <circle cx="458.528" cy="628.461" r="5.04534" stroke-width="0.5" stroke="black" fill="magenta"/>
   </g>
   <g id="cell102">
  <circle cx="446.425" cy="500.455" r="8.40297" stroke-width="0.5" stroke="black" fill="green"/>
  <circle cx="446.425" cy="500.455" r="5.04874" stroke-width="0.5" stroke="black" fill="green"/>
   </g>
   <g id="cell103">
  <circle cx="541.526" cy="604.401" r="8.40095" stroke-width="0.5" stroke="black" fill="green"/>
  <circle cx="541.526" cy="604.401" r="5.04804" stroke-width="0.5" stroke="black" fill="green"/>
   </g>
   <g id="cell104">
  <circle cx="553.731" cy="541.054" r="8.40215" stroke-width="0.5" stroke="black" fill="green"/>
  <circle cx="553.731" cy="541.054" r="5.04833" stroke-width="0.5" stroke="black" fill="green"/>
   </g>
   <g id="cell105">
  <circle cx="415.824" cy="495.069" r="8.40033" stroke-width="0.5" stroke="black" fill="green"/>
  <circle cx="415.824" cy="495.069" r="5.04774" stroke-width="0.5" stroke="black" fill="green"/>
   </g>
   <g id="cell106">
  <circle cx="639.549" cy="538.344" r="8.4009" stroke-width="0.5" stroke="black" fill="green"/>
  <circle cx="639.549" cy="538.344" r="5.04788" stroke-width="0.5" stroke="black" fill="green"/>
   </g>
   <g id="cell107">
  <circle cx="383.668" cy="514.323" r="8.39752" stroke-width="0.5" stroke="black" fill="cyan"/>
  <circle cx="383.668" cy="514.323" r="5.04666" stroke-width="0.5" stroke="black" fill="cyan"/>
   </g>
   <g id="cell108">
  <circle cx="458.847" cy="643.566" r="8.3933" stroke-width="0.5" stroke="black" fill="magenta"/>
  <circle cx="458.847" cy="643.566" r="5.04534" stroke-width="0.5" stroke="black" fill="magenta"/>
   </g>
   <g id="cell109">
  <circle cx="445.623" cy="636.241" r="8.3933" stroke-width="0.5" stroke="black" fill="magenta"/>
  <circle cx="445.623" cy="636.241" r="5.04534" stroke-width="0.5" stroke="black" fill="magenta"/>
   </g>
   <g id="cell110">
  <circle cx="543.261" cy="582.867" r="8.38981" stroke-width="0.5" stroke="black" fill="green"/>
  <circle cx="543.261" cy="582.867" r="5.04417" stroke-width="0.5" stroke="black" fill="green"/>
   </g>
   <g id="cell111">
  <circle cx="629.185" cy="550.539" r="8.38979" stroke-width="0.5" stroke="black" fill="green"/>
  <circle cx="629.185" cy="550.539" r="5.04409" stroke-width="0.5" stroke="black" fill="green"/>
   </g>
   <g id="cell112">
  <circle cx="380.448" cy="573.311" r="8.39238" stroke-width="0.5" stroke="black" fill="magenta"/>
  <circle cx="380.448" cy="573.311" r="5.04487" stroke-width="0.5" stroke="black" fill="magenta"/>
   </g>
   <g id="cell113">
  <circle cx="420.382" cy="479.995" r="8.39082" stroke-width="0.5" stroke="black" fill="green"/>
  <circle cx="420.382" cy="479.995" r="5.04427" stroke-width="0.5" stroke="black" fill="green"/>
   </g>
   <g id="cell114">
  <circle cx="495.967" cy="448.647" r="8.28086" stroke-width="0.5" stroke="black" fill="magenta"/>
  <circle cx="495.967" cy="448.647" r="4.99687" stroke-width="0.5" stroke="black" fill="magenta"/>
   </g>
   <g id="cell115">
  <circle cx="451.468" cy="526.457" r="8.38468" stroke-width="0.5" stroke="black" fill="green"/>
  <circle cx="451.468" cy="526.457" r="5.0419" stroke-width="0.5" stroke="black" fill="green"/>
   </g>
   <g id="cell116">
  <circle cx="368.455" cy="519.282" r="8.37609" stroke-width="0.5" stroke="black" fill="cyan"/>
  <circle cx="368.455" cy="519.282" r="5.03883" stroke-width="0.5" stroke="black" fill="cyan"/>
   </g>
   <g id="cell117">
  <circle cx="438.293" cy="512.352" r="1.41484" stroke-width="0.5" stroke="black" fill="green"/>
  <circle cx="438.293" cy="512.352" r="1.40062" stroke-width="0.5" stroke="black" fill="black"/>
   </g>
   <g id="cell118">
  <circle cx="530.817" cy="527.337" r="8.37431" stroke-width="0.5" stroke="black" fill="cyan"/>
  <circle cx="530.817" cy="527.337" r="5.03754" stroke-width="0.5" stroke="black" fill="cyan"/>
   </g>
   <g id="cell119">
  <circle cx="527.491" cy="634.13" r="8.00252" stroke-width="0.5" stroke="black" fill="green"/>
  <circle cx="527.491" cy="634.13" r="4.85394" stroke-width="0.5" stroke="black" fill="green"/>
   </g>
   <g id="cell121">
  <circle cx="391.503" cy="549.479" r="8.3659" stroke-width="0.5" stroke="black" fill="magenta"/>
  <circle cx="391.503" cy="549.479" r="5.03422" stroke-width="0.5" stroke="black" fill="magenta"/>
   </g>
   <g id="cell122">
  <circle cx="613.764" cy="463.475" r="6.82937" stroke-width="0.5" stroke="black" fill="cyan"/>
  <circle cx="613.764" cy="463.475" r="4.13444" stroke-width="0.5" stroke="black" fill="cyan"/>
   </g>
   <g id="cell123">
  <circle cx="500.444" cy="644.522" r="8.35882" stroke-width="0.5" stroke="black" fill="cyan"/>
  <circle cx="500.444" cy="644.522" r="5.031" stroke-width="0.5" stroke="black" fill="cyan"/>
   </g>
   <g id="cell124">
  <circle cx="381.842" cy="588.938" r="8.35727" stroke-width="0.5" stroke="black" fill="green"/>
  <circle cx="381.842" cy="588.938" r="5.03034" stroke-width="0.5" stroke="black" fill="green"/>
   </g>
   <g id="cell125">
  <circle cx="451.286" cy="455.932" r="8.35195" stroke-width="0.5" stroke="black" fill="cyan"/>
  <circle cx="451.286" cy="455.932" r="5.02811" stroke-width="0.5" stroke="black" fill="cyan"/>
   </g>
   <g id="cell126">
  <circle cx="416.139" cy="510.93" r="8.33487" stroke-width="0.5" stroke="black" fill="green"/>
  <circle cx="416.139" cy="510.93" r="5.02127" stroke-width="0.5" stroke="black" fill="green"/>
   </g>
   <g id="cell127">
  <circle cx="412.946" cy="596.225" r="8.33481" stroke-width="0.5" stroke="black" fill="cyan"/>
  <circle cx="412.946" cy="596.225" r="5.02043" stroke-width="0.5" stroke="black" fill="cyan"/>
   </g>
   <g id="cell128">
  <circle cx="366.069" cy="535.054" r="8.31162" stroke-width="0.5" stroke="black" fill="cyan"/>
  <circle cx="366.069" cy="535.054" r="5.01181" stroke-width="0.5" stroke="black" fill="cyan"/>
   </g>
   <g id="cell131">
  <circle cx="584.38" cy="536.048" r="8.29511" stroke-width="0.5" stroke="black" fill="cyan"/>
  <circle cx="584.38" cy="536.048" r="5.00287" stroke-width="0.5" stroke="black" fill="cyan"/>
   </g>
   <g id="cell132">
  <circle cx="507.986" cy="440.214" r="8.28086" stroke-width="0.5" stroke="black" fill="magenta"/>
  <circle cx="507.986" cy="440.214" r="4.99687" stroke-width="0.5" stroke="black" fill="magenta"/>
   </g>
   <g id="cell133">
  <circle cx="533.359" cy="408.41" r="8.28262" stroke-width="0.5" stroke="black" fill="magenta"/>
  <circle cx="533.359" cy="408.41" r="4.9961" stroke-width="0.5" stroke="black" fill="magenta"/>
   </g>
   <g id="cell134">
  <circle cx="513.29" cy="580.491" r="8.07093" stroke-width="0.5" stroke="black" fill="magenta"/>
  <circle cx="513.29" cy="580.491" r="4.89475" stroke-width="0.5" stroke="black" fill="magenta"/>
   </g>
   <g id="cell135">
  <circle cx="566.972" cy="483.305" r="8.25377" stroke-width="0.5" stroke="black" fill="cyan"/>
  <circle cx="566.972" cy="483.305" r="4.98209" stroke-width="0.5" stroke="black" fill="cyan"/>
   </g>
   <g id="cell137">
  <circle cx="379.232" cy="478.786" r="8.18784" stroke-width="0.5" stroke="black" fill="magenta"/>
  <circle cx="379.232" cy="478.786" r="4.94908" stroke-width="0.5" stroke="black" fill="magenta"/>
   </g>
   <g id="cell138">
  <circle cx="533.25" cy="592.904" r="7.11172" stroke-width="0.5" stroke="black" fill="magenta"/>
  <circle cx="533.25" cy="592.904" r="4.3629" stroke-width="0.5" stroke="black" fill="magenta"/>
   </g>
   <g id="cell139">
  <circle cx="509.467" cy="609.912" r="8.10065" stroke-width="0.5" stroke="black" fill="green"/>
  <circle cx="509.467" cy="609.912" r="4.90666" stroke-width="0.5" stroke="black" fill="green"/>
   </g>
   <g id="cell142">
  <circle cx="585.877" cy="382.501" r="7.99434" stroke-width="0.5" stroke="black" fill="magenta"/>
  <circle cx="585.877" cy="382.501" r="4.85253" stroke-width="0.5" stroke="black" fill="magenta"/>
   </g>
   <g id="cell143">
  <circle cx="537.488" cy="622.734" r="8.00252" stroke-width="0.5" stroke="black" fill="green"/>
  <circle cx="537.488" cy="622.734" r="4.85394" stroke-width="0.5" stroke="black" fill="green"/>
   </g>
   <g id="cell144">
  <circle cx="378.608" cy="543.17" r="7.98892" stroke-width="0.5" stroke="black" fill="magenta"/>
  <circle cx="378.608" cy="543.17" r="4.84272" stroke-width="0.5" stroke="black" fill="magenta"/>
   </g>
   <g id="cell145">
  <circle cx="460.889" cy="484.701" r="7.96365" stroke-width="0.5" stroke="black" fill="magenta"/>
  <circle cx="460.889" cy="484.701" r="4.82873" stroke-width="0.5" stroke="black" fill="magenta"/>
   </g>
   <g id="cell146">
  <circle cx="466.79" cy="425.518" r="7.87851" stroke-width="0.5" stroke="black" fill="cyan"/>
  <circle cx="466.79" cy="425.518" r="4.78096" stroke-width="0.5" stroke="black" fill="cyan"/>
   </g>
   <g id="cell148">
  <circle cx="400.368" cy="604.871" r="7.75043" stroke-width="0.5" stroke="black" fill="cyan"/>
  <circle cx="400.368" cy="604.871" r="4.71507" stroke-width="0.5" stroke="black" fill="cyan"/>
   </g>
   <g id="cell149">
  <circle cx="437.798" cy="532.914" r="7.67978" stroke-width="0.5" stroke="black" fill="green"/>
  <circle cx="437.798" cy="532.914" r="4.67057" stroke-width="0.5" stroke="black" fill="green"/>
   </g>
   <g id="cell150">
  <circle cx="473.001" cy="625.454" r="7.65699" stroke-width="0.5" stroke="black" fill="green"/>
  <circle cx="473.001" cy="625.454" r="4.65319" stroke-width="0.5" stroke="black" fill="green"/>
   </g>
   <g id="cell151">
  <circle cx="523.902" cy="514.41" r="7.63698" stroke-width="0.5" stroke="black" fill="cyan"/>
  <circle cx="523.902" cy="514.41" r="4.64085" stroke-width="0.5" stroke="black" fill="cyan"/>
   </g>
   <g id="cell152">
  <circle cx="644.147" cy="552.796" r="7.55424" stroke-width="0.5" stroke="black" fill="green"/>
  <circle cx="644.147" cy="552.796" r="4.59503" stroke-width="0.5" stroke="black" fill="green"/>
   </g>
   <g id="cell153">
  <circle cx="393.654" cy="525.669" r="7.48175" stroke-width="0.5" stroke="black" fill="cyan"/>
  <circle cx="393.654" cy="525.669" r="4.56006" stroke-width="0.5" stroke="black" fill="cyan"/>
   </g>
   <g id="cell154">
  <circle cx="588.594" cy="500.885" r="7.51782" stroke-width="0.5" stroke="black" fill="magenta"/>
  <circle cx="588.594" cy="500.885" r="4.57014" stroke-width="0.5" stroke="black" fill="magenta"/>
   </g>
   <g id="cell156">
  <circle cx="403.296" cy="554.757" r="5.89769" stroke-width="0.5" stroke="black" fill="green"/>
  <circle cx="403.296" cy="554.757" r="3.60078" stroke-width="0.5" stroke="black" fill="green"/>
   </g>
   <g id="cell157">
  <circle cx="392.306" cy="474.911" r="7.05977" stroke-width="0.5" stroke="black" fill="magenta"/>
  <circle cx="392.306" cy="474.911" r="4.3093" stroke-width="0.5" stroke="black" fill="magenta"/>
   </g>
   <g id="cell158">
  <circle cx="433.081" cy="475.26" r="6.26223" stroke-width="0.5" stroke="black" fill="green"/>
  <circle cx="433.081" cy="475.26" r="3.84155" stroke-width="0.5" stroke="black" fill="green"/>
   </g>
   <g id="cell159">
  <circle cx="435.345" cy="463.827" r="6.26223" stroke-width="0.5" stroke="black" fill="green"/>
  <circle cx="435.345" cy="463.827" r="3.84155" stroke-width="0.5" stroke="black" fill="green"/>
   </g>
   <g id="cell160">
  <circle cx="415.927" cy="558.252" r="6.09562" stroke-width="0.5" stroke="black" fill="green"/>
  <circle cx="415.927" cy="558.252" r="3.7343" stroke-width="0.5" stroke="black" fill="green"/>
   </g>
   <g id="cell161">
  <circle cx="531.785" cy="463.18" r="6.95585" stroke-width="0.5" stroke="black" fill="cyan"/>
  <circle cx="531.785" cy="463.18" r="4.21244" stroke-width="0.5" stroke="black" fill="cyan"/>
   </g>
   <g id="cell162">
  <circle cx="608.8" cy="475.3" r="6.82937" stroke-width="0.5" stroke="black" fill="cyan"/>
  <circle cx="608.8" cy="475.3" r="4.13444" stroke-width="0.5" stroke="black" fill="cyan"/>
   </g>
   <g id="cell163">
  <circle cx="424.287" cy="552.25" r="5.18378" stroke-width="0.5" stroke="black" fill="green"/>
  <circle cx="424.287" cy="552.25" r="3.19849" stroke-width="0.5" stroke="black" fill="green"/>
   </g>
   <g id="cell164">
  <circle cx="454.12" cy="470.084" r="6.82094" stroke-width="0.5" stroke="black" fill="cyan"/>
  <circle cx="454.12" cy="470.084" r="4.13082" stroke-width="0.5" stroke="black" fill="cyan"/>
   </g>
   <g id="cell165">
  <circle cx="411.942" cy="547.674" r="5.89769" stroke-width="0.5" stroke="black" fill="green"/>
  <circle cx="411.942" cy="547.674" r="3.60078" stroke-width="0.5" stroke="black" fill="green"/>
   </g>
   <g id="cell166">
  <circle cx="605.82" cy="496.612" r="6.7556" stroke-width="0.5" stroke="black" fill="green"/>
  <circle cx="605.82" cy="496.612" r="4.06793" stroke-width="0.5" stroke="black" fill="green"/>
   </g>
   <g id="cell167">
  <circle cx="465.354" cy="387.515" r="6.75639" stroke-width="0.5" stroke="black" fill="green"/>
  <circle cx="465.354" cy="387.515" r="4.06813" stroke-width="0.5" stroke="black" fill="green"/>
   </g>
   <g id="cell168">
  <circle cx="520.07" cy="406.741" r="6.63137" stroke-width="0.5" stroke="black" fill="magenta"/>
  <circle cx="520.07" cy="406.741" r="4.00699" stroke-width="0.5" stroke="black" fill="magenta"/>
   </g>
   <g id="cell169">
  <circle cx="475.638" cy="440.12" r="6.40116" stroke-width="0.5" stroke="black" fill="magenta"/>
  <circle cx="475.638" cy="440.12" r="3.88109" stroke-width="0.5" stroke="black" fill="magenta"/>
   </g>
  </g>
 </g>
  <rect x="775" y="1035" width="200" height="10" stroke-width="2" stroke="rgb(255,255,255)" fill="rgb(0,0,0)"/>
  <text x="781.25" y="1028.75"
   font-family="Arial" font-size="25" fill="black" >
   200 &#956;m
  </text>
  <text x="25" y="1045"
   font-family="Arial" font-size="18.75" fill="black" >
   0 days, 0 hours, 0 minutes, and 37.5462 seconds
  </text>
  <rect x="0" y="70" width="1000" height="1000" stroke-width="2" stroke="rgb(0,0,0)" fill="none"/>
</svg>
