<?xml version="1.0" encoding="UTF-8" standalone="no"?>
<!-- Created with PhysiCell (http://PhysiCell.MathCancer.org/) -->
<svg 
 xmlns:dc="http://purl.org/dc/elements/1.1/" 
 xmlns:cc="http://creativecommons.org/ns#" 
 xmlns:rdf="http://www.w3.org/1999/02/22-rdf-syntax-ns#" 
 xmlns:svg="http://www.w3.org/2000/svg" 
 xmlns="http://www.w3.org/2000/svg" 
 version="1.1" 
 width="1000" 
 height="1070" 
 id="svg2">
  <rect x="0" y="0" width="1000" height="1070" stroke-width="2" stroke="white" fill="white"/>
  <text x="12.5" y="30"
   font-family="Arial" font-size="25" fill="black" >
   Current time: 1 days, 5 hours, and 0.00 minutes, z = 0.00 &#956;m
  </text>
  <text x="12.5" y="57.5"
   font-family="Arial" font-size="23.75" fill="black" >
   167 agents
  </text>
 <g id="tissue" 
    transform="translate(0,1070) scale(1,-1)">
  <g id="ECM">
  </g>
  <g id="cells">
   <g id="cell0">
  <circle cx="513.42" cy="530.983" r="8.41198" stroke-width="0.5" stroke="black" fill="magenta"/>
  <circle cx="513.42" cy="530.983" r="5.05149" stroke-width="0.5" stroke="black" fill="magenta"/>
   </g>
   <g id="cell147">
  <circle cx="421.532" cy="571.605" r="8.00987" stroke-width="0.5" stroke="black" fill="green"/>
  <circle cx="421.532" cy="571.605" r="4.85496" stroke-width="0.5" stroke="black" fill="green"/>
   </g>
   <g id="cell2">
  <circle cx="506.967" cy="594.607" r="8.30618" stroke-width="0.5" stroke="black" fill="magenta"/>
  <circle cx="506.967" cy="594.607" r="5.00727" stroke-width="0.5" stroke="black" fill="magenta"/>
   </g>
   <g id="cell3">
  <circle cx="538.643" cy="543.994" r="8.27097" stroke-width="0.5" stroke="black" fill="magenta"/>
  <circle cx="538.643" cy="543.994" r="4.99048" stroke-width="0.5" stroke="black" fill="magenta"/>
   </g>
   <g id="cell4">
  <circle cx="460.562" cy="441.095" r="8.41206" stroke-width="0.5" stroke="black" fill="magenta"/>
  <circle cx="460.562" cy="441.095" r="5.05151" stroke-width="0.5" stroke="black" fill="magenta"/>
   </g>
   <g id="cell5">
  <circle cx="462.368" cy="497.988" r="8.07654" stroke-width="0.5" stroke="black" fill="magenta"/>
  <circle cx="462.368" cy="497.988" r="4.89046" stroke-width="0.5" stroke="black" fill="magenta"/>
   </g>
   <g id="cell6">
  <circle cx="595.327" cy="513.542" r="8.41036" stroke-width="0.5" stroke="black" fill="magenta"/>
  <circle cx="595.327" cy="513.542" r="5.05104" stroke-width="0.5" stroke="black" fill="magenta"/>
   </g>
   <g id="cell7">
  <circle cx="511.842" cy="464.354" r="8.41271" stroke-width="0.5" stroke="black" fill="magenta"/>
  <circle cx="511.842" cy="464.354" r="5.05167" stroke-width="0.5" stroke="black" fill="magenta"/>
   </g>
   <g id="cell8">
  <circle cx="365.864" cy="550.438" r="8.09544" stroke-width="0.5" stroke="black" fill="magenta"/>
  <circle cx="365.864" cy="550.438" r="4.90058" stroke-width="0.5" stroke="black" fill="magenta"/>
   </g>
   <g id="cell9">
  <circle cx="463.574" cy="601.905" r="8.41023" stroke-width="0.5" stroke="black" fill="magenta"/>
  <circle cx="463.574" cy="601.905" r="5.051" stroke-width="0.5" stroke="black" fill="magenta"/>
   </g>
   <g id="cell10">
  <circle cx="587.939" cy="396.83" r="8.10005" stroke-width="0.5" stroke="black" fill="magenta"/>
  <circle cx="587.939" cy="396.83" r="4.90793" stroke-width="0.5" stroke="black" fill="magenta"/>
   </g>
   <g id="cell11">
  <circle cx="589.748" cy="590.273" r="8.41271" stroke-width="0.5" stroke="black" fill="magenta"/>
  <circle cx="589.748" cy="590.273" r="5.05167" stroke-width="0.5" stroke="black" fill="magenta"/>
   </g>
   <g id="cell12">
  <circle cx="498.227" cy="582.64" r="8.41271" stroke-width="0.5" stroke="black" fill="magenta"/>
  <circle cx="498.227" cy="582.64" r="5.05167" stroke-width="0.5" stroke="black" fill="magenta"/>
   </g>
   <g id="cell13">
  <circle cx="378.845" cy="557.893" r="8.3774" stroke-width="0.5" stroke="black" fill="magenta"/>
  <circle cx="378.845" cy="557.893" r="5.03895" stroke-width="0.5" stroke="black" fill="magenta"/>
   </g>
   <g id="cell14">
  <circle cx="526.036" cy="396.363" r="6.95251" stroke-width="0.5" stroke="black" fill="magenta"/>
  <circle cx="526.036" cy="396.363" r="4.22681" stroke-width="0.5" stroke="black" fill="magenta"/>
   </g>
   <g id="cell15">
  <circle cx="390.582" cy="487.34" r="7.38892" stroke-width="0.5" stroke="black" fill="magenta"/>
  <circle cx="390.582" cy="487.34" r="4.50802" stroke-width="0.5" stroke="black" fill="magenta"/>
   </g>
   <g id="cell16">
  <circle cx="431.277" cy="412.167" r="8.41271" stroke-width="0.5" stroke="black" fill="magenta"/>
  <circle cx="431.277" cy="412.167" r="5.05167" stroke-width="0.5" stroke="black" fill="magenta"/>
   </g>
   <g id="cell17">
  <circle cx="585.643" cy="486.306" r="8.40745" stroke-width="0.5" stroke="black" fill="magenta"/>
  <circle cx="585.643" cy="486.306" r="5.05013" stroke-width="0.5" stroke="black" fill="magenta"/>
   </g>
   <g id="cell18">
  <circle cx="512.409" cy="395.294" r="8.41209" stroke-width="0.5" stroke="black" fill="magenta"/>
  <circle cx="512.409" cy="395.294" r="5.05152" stroke-width="0.5" stroke="black" fill="magenta"/>
   </g>
   <g id="cell19">
  <circle cx="450.225" cy="541.727" r="8.40944" stroke-width="0.5" stroke="black" fill="magenta"/>
  <circle cx="450.225" cy="541.727" r="5.05076" stroke-width="0.5" stroke="black" fill="magenta"/>
   </g>
   <g id="cell20">
  <circle cx="527.23" cy="421.19" r="8.41271" stroke-width="0.5" stroke="black" fill="magenta"/>
  <circle cx="527.23" cy="421.19" r="5.05167" stroke-width="0.5" stroke="black" fill="magenta"/>
   </g>
   <g id="cell141">
  <circle cx="485.653" cy="440.78" r="6.75776" stroke-width="0.5" stroke="black" fill="magenta"/>
  <circle cx="485.653" cy="440.78" r="4.11939" stroke-width="0.5" stroke="black" fill="magenta"/>
   </g>
   <g id="cell22">
  <circle cx="559.684" cy="497.124" r="8.40816" stroke-width="0.5" stroke="black" fill="magenta"/>
  <circle cx="559.684" cy="497.124" r="5.05039" stroke-width="0.5" stroke="black" fill="magenta"/>
   </g>
   <g id="cell23">
  <circle cx="536.314" cy="484.133" r="8.41271" stroke-width="0.5" stroke="black" fill="magenta"/>
  <circle cx="536.314" cy="484.133" r="5.05167" stroke-width="0.5" stroke="black" fill="magenta"/>
   </g>
   <g id="cell24">
  <circle cx="562.297" cy="382.173" r="8.41271" stroke-width="0.5" stroke="black" fill="magenta"/>
  <circle cx="562.297" cy="382.173" r="5.05167" stroke-width="0.5" stroke="black" fill="magenta"/>
   </g>
   <g id="cell25">
  <circle cx="653.334" cy="564.27" r="7.76751" stroke-width="0.5" stroke="black" fill="green"/>
  <circle cx="653.334" cy="564.27" r="4.7198" stroke-width="0.5" stroke="black" fill="green"/>
   </g>
   <g id="cell26">
  <circle cx="547.821" cy="402.447" r="8.41271" stroke-width="0.5" stroke="black" fill="green"/>
  <circle cx="547.821" cy="402.447" r="5.05167" stroke-width="0.5" stroke="black" fill="green"/>
   </g>
   <g id="cell27">
  <circle cx="452.396" cy="389.42" r="7.0545" stroke-width="0.5" stroke="black" fill="green"/>
  <circle cx="452.396" cy="389.42" r="4.27772" stroke-width="0.5" stroke="black" fill="green"/>
   </g>
   <g id="cell28">
  <circle cx="436.523" cy="548.682" r="8.41271" stroke-width="0.5" stroke="black" fill="green"/>
  <circle cx="436.523" cy="548.682" r="5.05167" stroke-width="0.5" stroke="black" fill="green"/>
   </g>
   <g id="cell29">
  <circle cx="466.558" cy="520.507" r="8.39154" stroke-width="0.5" stroke="black" fill="green"/>
  <circle cx="466.558" cy="520.507" r="5.04453" stroke-width="0.5" stroke="black" fill="green"/>
   </g>
   <g id="cell30">
  <circle cx="479.142" cy="539.513" r="8.41271" stroke-width="0.5" stroke="black" fill="green"/>
  <circle cx="479.142" cy="539.513" r="5.05167" stroke-width="0.5" stroke="black" fill="green"/>
   </g>
   <g id="cell31">
  <circle cx="413.625" cy="533.491" r="8.41271" stroke-width="0.5" stroke="black" fill="green"/>
  <circle cx="413.625" cy="533.491" r="5.05167" stroke-width="0.5" stroke="black" fill="green"/>
   </g>
   <g id="cell32">
  <circle cx="423.927" cy="457.642" r="7.44125" stroke-width="0.5" stroke="black" fill="green"/>
  <circle cx="423.927" cy="457.642" r="4.52339" stroke-width="0.5" stroke="black" fill="green"/>
   </g>
   <g id="cell33">
  <circle cx="498.623" cy="414.707" r="8.41112" stroke-width="0.5" stroke="black" fill="green"/>
  <circle cx="498.623" cy="414.707" r="5.05126" stroke-width="0.5" stroke="black" fill="green"/>
   </g>
   <g id="cell34">
  <circle cx="392.091" cy="453.641" r="8.41072" stroke-width="0.5" stroke="black" fill="green"/>
  <circle cx="392.091" cy="453.641" r="5.05114" stroke-width="0.5" stroke="black" fill="green"/>
   </g>
   <g id="cell35">
  <circle cx="546.083" cy="556.768" r="8.40472" stroke-width="0.5" stroke="black" fill="green"/>
  <circle cx="546.083" cy="556.768" r="5.04922" stroke-width="0.5" stroke="black" fill="green"/>
   </g>
   <g id="cell36">
  <circle cx="394.669" cy="579.485" r="8.37092" stroke-width="0.5" stroke="black" fill="green"/>
  <circle cx="394.669" cy="579.485" r="5.03613" stroke-width="0.5" stroke="black" fill="green"/>
   </g>
   <g id="cell37">
  <circle cx="634.871" cy="460.618" r="1.17761" stroke-width="0.5" stroke="black" fill="green"/>
  <circle cx="634.871" cy="460.618" r="1.17358" stroke-width="0.5" stroke="black" fill="black"/>
   </g>
   <g id="cell38">
  <circle cx="525.309" cy="605.255" r="8.40961" stroke-width="0.5" stroke="black" fill="green"/>
  <circle cx="525.309" cy="605.255" r="5.05081" stroke-width="0.5" stroke="black" fill="green"/>
   </g>
   <g id="cell39">
  <circle cx="616.875" cy="497.635" r="6.86594" stroke-width="0.5" stroke="black" fill="green"/>
  <circle cx="616.875" cy="497.635" r="4.14868" stroke-width="0.5" stroke="black" fill="green"/>
   </g>
   <g id="cell40">
  <circle cx="486.476" cy="572.69" r="8.41271" stroke-width="0.5" stroke="black" fill="green"/>
  <circle cx="486.476" cy="572.69" r="5.05167" stroke-width="0.5" stroke="black" fill="green"/>
   </g>
   <g id="cell41">
  <circle cx="363.862" cy="479.816" r="8.41271" stroke-width="0.5" stroke="black" fill="green"/>
  <circle cx="363.862" cy="479.816" r="5.05167" stroke-width="0.5" stroke="black" fill="green"/>
   </g>
   <g id="cell42">
  <circle cx="451.874" cy="487.343" r="1.39754" stroke-width="0.5" stroke="black" fill="green"/>
  <circle cx="451.874" cy="487.343" r="1.38502" stroke-width="0.5" stroke="black" fill="black"/>
   </g>
   <g id="cell43">
  <circle cx="558.327" cy="445.679" r="8.41271" stroke-width="0.5" stroke="black" fill="green"/>
  <circle cx="558.327" cy="445.679" r="5.05167" stroke-width="0.5" stroke="black" fill="green"/>
   </g>
   <g id="cell44">
  <circle cx="487.331" cy="628.647" r="7.84551" stroke-width="0.5" stroke="black" fill="green"/>
  <circle cx="487.331" cy="628.647" r="4.76254" stroke-width="0.5" stroke="black" fill="green"/>
   </g>
   <g id="cell45">
  <circle cx="429.065" cy="560.532" r="6.04748" stroke-width="0.5" stroke="black" fill="green"/>
  <circle cx="429.065" cy="560.532" r="3.73849" stroke-width="0.5" stroke="black" fill="green"/>
   </g>
   <g id="cell46">
  <circle cx="521.276" cy="620.498" r="8.17902" stroke-width="0.5" stroke="black" fill="green"/>
  <circle cx="521.276" cy="620.498" r="4.94681" stroke-width="0.5" stroke="black" fill="green"/>
   </g>
   <g id="cell47">
  <circle cx="494.531" cy="510.051" r="8.41271" stroke-width="0.5" stroke="black" fill="green"/>
  <circle cx="494.531" cy="510.051" r="5.05167" stroke-width="0.5" stroke="black" fill="green"/>
   </g>
   <g id="cell48">
  <circle cx="566.182" cy="605.075" r="8.41271" stroke-width="0.5" stroke="black" fill="green"/>
  <circle cx="566.182" cy="605.075" r="5.05167" stroke-width="0.5" stroke="black" fill="green"/>
   </g>
   <g id="cell49">
  <circle cx="434.718" cy="397.017" r="8.34511" stroke-width="0.5" stroke="black" fill="green"/>
  <circle cx="434.718" cy="397.017" r="5.02502" stroke-width="0.5" stroke="black" fill="green"/>
   </g>
   <g id="cell50">
  <circle cx="508.061" cy="507.338" r="6.25449" stroke-width="0.5" stroke="black" fill="cyan"/>
  <circle cx="508.061" cy="507.338" r="3.80061" stroke-width="0.5" stroke="black" fill="cyan"/>
   </g>
   <g id="cell51">
  <circle cx="385.457" cy="603.713" r="7.9177" stroke-width="0.5" stroke="black" fill="cyan"/>
  <circle cx="385.457" cy="603.713" r="4.80847" stroke-width="0.5" stroke="black" fill="cyan"/>
   </g>
   <g id="cell120">
  <circle cx="419.669" cy="610.638" r="8.38206" stroke-width="0.5" stroke="black" fill="cyan"/>
  <circle cx="419.669" cy="610.638" r="5.04069" stroke-width="0.5" stroke="black" fill="cyan"/>
   </g>
   <g id="cell53">
  <circle cx="571.149" cy="436.105" r="8.41271" stroke-width="0.5" stroke="black" fill="cyan"/>
  <circle cx="571.149" cy="436.105" r="5.05167" stroke-width="0.5" stroke="black" fill="cyan"/>
   </g>
   <g id="cell54">
  <circle cx="482.264" cy="427.545" r="8.01277" stroke-width="0.5" stroke="black" fill="cyan"/>
  <circle cx="482.264" cy="427.545" r="4.85584" stroke-width="0.5" stroke="black" fill="cyan"/>
   </g>
   <g id="cell55">
  <circle cx="522.933" cy="475.594" r="8.41271" stroke-width="0.5" stroke="black" fill="cyan"/>
  <circle cx="522.933" cy="475.594" r="5.05167" stroke-width="0.5" stroke="black" fill="cyan"/>
   </g>
   <g id="cell56">
  <circle cx="615.693" cy="522.498" r="8.41271" stroke-width="0.5" stroke="black" fill="cyan"/>
  <circle cx="615.693" cy="522.498" r="5.05167" stroke-width="0.5" stroke="black" fill="cyan"/>
   </g>
   <g id="cell57">
  <circle cx="418.487" cy="626.557" r="8.38206" stroke-width="0.5" stroke="black" fill="cyan"/>
  <circle cx="418.487" cy="626.557" r="5.04069" stroke-width="0.5" stroke="black" fill="cyan"/>
   </g>
   <g id="cell58">
  <circle cx="551.933" cy="483.837" r="8.41271" stroke-width="0.5" stroke="black" fill="cyan"/>
  <circle cx="551.933" cy="483.837" r="5.05167" stroke-width="0.5" stroke="black" fill="cyan"/>
   </g>
   <g id="cell59">
  <circle cx="385.164" cy="439.184" r="8.41271" stroke-width="0.5" stroke="black" fill="cyan"/>
  <circle cx="385.164" cy="439.184" r="5.05167" stroke-width="0.5" stroke="black" fill="cyan"/>
   </g>
   <g id="cell60">
  <circle cx="594.104" cy="472.718" r="8.37537" stroke-width="0.5" stroke="black" fill="cyan"/>
  <circle cx="594.104" cy="472.718" r="5.03798" stroke-width="0.5" stroke="black" fill="cyan"/>
   </g>
   <g id="cell155">
  <circle cx="520.383" cy="591.628" r="7.44631" stroke-width="0.5" stroke="black" fill="magenta"/>
  <circle cx="520.383" cy="591.628" r="4.55633" stroke-width="0.5" stroke="black" fill="magenta"/>
   </g>
   <g id="cell62">
  <circle cx="524.063" cy="436.427" r="8.41271" stroke-width="0.5" stroke="black" fill="cyan"/>
  <circle cx="524.063" cy="436.427" r="5.05167" stroke-width="0.5" stroke="black" fill="cyan"/>
   </g>
   <g id="cell63">
  <circle cx="582.038" cy="551.63" r="8.40961" stroke-width="0.5" stroke="black" fill="cyan"/>
  <circle cx="582.038" cy="551.63" r="5.05081" stroke-width="0.5" stroke="black" fill="cyan"/>
   </g>
   <g id="cell64">
  <circle cx="511.979" cy="633.313" r="8.37208" stroke-width="0.5" stroke="black" fill="cyan"/>
  <circle cx="511.979" cy="633.313" r="5.03661" stroke-width="0.5" stroke="black" fill="cyan"/>
   </g>
   <g id="cell65">
  <circle cx="529.666" cy="449.963" r="7.27034" stroke-width="0.5" stroke="black" fill="cyan"/>
  <circle cx="529.666" cy="449.963" r="4.41768" stroke-width="0.5" stroke="black" fill="cyan"/>
   </g>
   <g id="cell66">
  <circle cx="549.471" cy="525.61" r="8.38373" stroke-width="0.5" stroke="black" fill="cyan"/>
  <circle cx="549.471" cy="525.61" r="5.04136" stroke-width="0.5" stroke="black" fill="cyan"/>
   </g>
   <g id="cell67">
  <circle cx="354.572" cy="492.863" r="8.41271" stroke-width="0.5" stroke="black" fill="cyan"/>
  <circle cx="354.572" cy="492.863" r="5.05167" stroke-width="0.5" stroke="black" fill="cyan"/>
   </g>
   <g id="cell68">
  <circle cx="561.658" cy="555.268" r="8.41271" stroke-width="0.5" stroke="black" fill="cyan"/>
  <circle cx="561.658" cy="555.268" r="5.05167" stroke-width="0.5" stroke="black" fill="cyan"/>
   </g>
   <g id="cell69">
  <circle cx="436.658" cy="449.041" r="8.41211" stroke-width="0.5" stroke="black" fill="cyan"/>
  <circle cx="436.658" cy="449.041" r="5.05153" stroke-width="0.5" stroke="black" fill="cyan"/>
   </g>
   <g id="cell70">
  <circle cx="578.473" cy="472.66" r="8.29331" stroke-width="0.5" stroke="black" fill="cyan"/>
  <circle cx="578.473" cy="472.66" r="5.0012" stroke-width="0.5" stroke="black" fill="cyan"/>
   </g>
   <g id="cell71">
  <circle cx="379.76" cy="528.839" r="7.71454" stroke-width="0.5" stroke="black" fill="cyan"/>
  <circle cx="379.76" cy="528.839" r="4.69501" stroke-width="0.5" stroke="black" fill="cyan"/>
   </g>
   <g id="cell72">
  <circle cx="539.281" cy="512.409" r="8.41271" stroke-width="0.5" stroke="black" fill="cyan"/>
  <circle cx="539.281" cy="512.409" r="5.05167" stroke-width="0.5" stroke="black" fill="cyan"/>
   </g>
   <g id="cell129">
  <circle cx="419.602" cy="401.917" r="8.34511" stroke-width="0.5" stroke="black" fill="green"/>
  <circle cx="419.602" cy="401.917" r="5.02502" stroke-width="0.5" stroke="black" fill="green"/>
   </g>
   <g id="cell74">
  <circle cx="542.622" cy="442.813" r="8.41271" stroke-width="0.5" stroke="black" fill="cyan"/>
  <circle cx="542.622" cy="442.813" r="5.05167" stroke-width="0.5" stroke="black" fill="cyan"/>
   </g>
   <g id="cell75">
  <circle cx="446.053" cy="479.829" r="7.14958" stroke-width="0.5" stroke="black" fill="cyan"/>
  <circle cx="446.053" cy="479.829" r="4.34787" stroke-width="0.5" stroke="black" fill="cyan"/>
   </g>
   <g id="cell76">
  <circle cx="521.807" cy="383.258" r="8.40874" stroke-width="0.5" stroke="black" fill="magenta"/>
  <circle cx="521.807" cy="383.258" r="5.05056" stroke-width="0.5" stroke="black" fill="magenta"/>
   </g>
   <g id="cell77">
  <circle cx="496.335" cy="432.877" r="8.13619" stroke-width="0.5" stroke="black" fill="magenta"/>
  <circle cx="496.335" cy="432.877" r="4.92394" stroke-width="0.5" stroke="black" fill="magenta"/>
   </g>
   <g id="cell78">
  <circle cx="371.453" cy="466.194" r="8.41202" stroke-width="0.5" stroke="black" fill="magenta"/>
  <circle cx="371.453" cy="466.194" r="5.0515" stroke-width="0.5" stroke="black" fill="magenta"/>
   </g>
   <g id="cell79">
  <circle cx="499.745" cy="524.786" r="8.41198" stroke-width="0.5" stroke="black" fill="magenta"/>
  <circle cx="499.745" cy="524.786" r="5.05149" stroke-width="0.5" stroke="black" fill="magenta"/>
   </g>
   <g id="cell80">
  <circle cx="600.101" cy="485.813" r="7.05395" stroke-width="0.5" stroke="black" fill="green"/>
  <circle cx="600.101" cy="485.813" r="4.27757" stroke-width="0.5" stroke="black" fill="green"/>
   </g>
   <g id="cell81">
  <circle cx="430.174" cy="504.144" r="8.35408" stroke-width="0.5" stroke="black" fill="green"/>
  <circle cx="430.174" cy="504.144" r="5.02954" stroke-width="0.5" stroke="black" fill="green"/>
   </g>
   <g id="cell82">
  <circle cx="544.258" cy="497.341" r="8.4118" stroke-width="0.5" stroke="black" fill="magenta"/>
  <circle cx="544.258" cy="497.341" r="5.05145" stroke-width="0.5" stroke="black" fill="magenta"/>
   </g>
   <g id="cell130">
  <circle cx="574.156" cy="391.464" r="8.34117" stroke-width="0.5" stroke="black" fill="magenta"/>
  <circle cx="574.156" cy="391.464" r="5.02327" stroke-width="0.5" stroke="black" fill="magenta"/>
   </g>
   <g id="cell84">
  <circle cx="404.501" cy="482.819" r="8.39617" stroke-width="0.5" stroke="black" fill="green"/>
  <circle cx="404.501" cy="482.819" r="5.04626" stroke-width="0.5" stroke="black" fill="green"/>
   </g>
   <g id="cell140">
  <circle cx="527.465" cy="579.11" r="8.05536" stroke-width="0.5" stroke="black" fill="magenta"/>
  <circle cx="527.465" cy="579.11" r="4.89015" stroke-width="0.5" stroke="black" fill="magenta"/>
   </g>
   <g id="cell86">
  <circle cx="392.45" cy="564.191" r="8.39735" stroke-width="0.5" stroke="black" fill="magenta"/>
  <circle cx="392.45" cy="564.191" r="5.0467" stroke-width="0.5" stroke="black" fill="magenta"/>
   </g>
   <g id="cell87">
  <circle cx="432.846" cy="519.149" r="7.86358" stroke-width="0.5" stroke="black" fill="green"/>
  <circle cx="432.846" cy="519.149" r="4.77561" stroke-width="0.5" stroke="black" fill="green"/>
   </g>
   <g id="cell88">
  <circle cx="477.1" cy="604.552" r="6.69118" stroke-width="0.5" stroke="black" fill="green"/>
  <circle cx="477.1" cy="604.552" r="4.02005" stroke-width="0.5" stroke="black" fill="green"/>
   </g>
   <g id="cell89">
  <circle cx="434.799" cy="489.347" r="8.40534" stroke-width="0.5" stroke="black" fill="green"/>
  <circle cx="434.799" cy="489.347" r="5.04952" stroke-width="0.5" stroke="black" fill="green"/>
   </g>
   <g id="cell90">
  <circle cx="581.003" cy="511.081" r="7.73872" stroke-width="0.5" stroke="black" fill="magenta"/>
  <circle cx="581.003" cy="511.081" r="4.70102" stroke-width="0.5" stroke="black" fill="magenta"/>
   </g>
   <g id="cell136">
  <circle cx="524.97" cy="539.605" r="8.27097" stroke-width="0.5" stroke="black" fill="magenta"/>
  <circle cx="524.97" cy="539.605" r="4.99048" stroke-width="0.5" stroke="black" fill="magenta"/>
   </g>
   <g id="cell92">
  <circle cx="553.828" cy="594.659" r="8.39541" stroke-width="0.5" stroke="black" fill="green"/>
  <circle cx="553.828" cy="594.659" r="5.04618" stroke-width="0.5" stroke="black" fill="green"/>
   </g>
   <g id="cell93">
  <circle cx="573.592" cy="524.188" r="8.32425" stroke-width="0.5" stroke="black" fill="cyan"/>
  <circle cx="573.592" cy="524.188" r="5.01622" stroke-width="0.5" stroke="black" fill="cyan"/>
   </g>
   <g id="cell94">
  <circle cx="543.967" cy="470.344" r="8.40944" stroke-width="0.5" stroke="black" fill="cyan"/>
  <circle cx="543.967" cy="470.344" r="5.05076" stroke-width="0.5" stroke="black" fill="cyan"/>
   </g>
   <g id="cell95">
  <circle cx="464.036" cy="535.825" r="8.40944" stroke-width="0.5" stroke="black" fill="magenta"/>
  <circle cx="464.036" cy="535.825" r="5.05076" stroke-width="0.5" stroke="black" fill="magenta"/>
   </g>
   <g id="cell96">
  <circle cx="535.401" cy="376.509" r="8.40874" stroke-width="0.5" stroke="black" fill="magenta"/>
  <circle cx="535.401" cy="376.509" r="5.05056" stroke-width="0.5" stroke="black" fill="magenta"/>
   </g>
   <g id="cell97">
  <circle cx="566.621" cy="510.35" r="8.40816" stroke-width="0.5" stroke="black" fill="magenta"/>
  <circle cx="566.621" cy="510.35" r="5.05039" stroke-width="0.5" stroke="black" fill="magenta"/>
   </g>
   <g id="cell98">
  <circle cx="406.465" cy="569.543" r="8.00987" stroke-width="0.5" stroke="black" fill="green"/>
  <circle cx="406.465" cy="569.543" r="4.85496" stroke-width="0.5" stroke="black" fill="green"/>
   </g>
   <g id="cell99">
  <circle cx="575.202" cy="497.684" r="8.40745" stroke-width="0.5" stroke="black" fill="magenta"/>
  <circle cx="575.202" cy="497.684" r="5.05013" stroke-width="0.5" stroke="black" fill="magenta"/>
   </g>
   <g id="cell100">
  <circle cx="569.612" cy="541.456" r="8.4056" stroke-width="0.5" stroke="black" fill="cyan"/>
  <circle cx="569.612" cy="541.456" r="5.0496" stroke-width="0.5" stroke="black" fill="cyan"/>
   </g>
   <g id="cell101">
  <circle cx="457.825" cy="628.371" r="8.39804" stroke-width="0.5" stroke="black" fill="magenta"/>
  <circle cx="457.825" cy="628.371" r="5.04704" stroke-width="0.5" stroke="black" fill="magenta"/>
   </g>
   <g id="cell102">
  <circle cx="446.921" cy="500.04" r="8.40534" stroke-width="0.5" stroke="black" fill="green"/>
  <circle cx="446.921" cy="500.04" r="5.04952" stroke-width="0.5" stroke="black" fill="green"/>
   </g>
   <g id="cell103">
  <circle cx="546.252" cy="611.558" r="6.70459" stroke-width="0.5" stroke="black" fill="green"/>
  <circle cx="546.252" cy="611.558" r="4.03225" stroke-width="0.5" stroke="black" fill="green"/>
   </g>
   <g id="cell104">
  <circle cx="553.641" cy="541.337" r="8.40472" stroke-width="0.5" stroke="black" fill="green"/>
  <circle cx="553.641" cy="541.337" r="5.04922" stroke-width="0.5" stroke="black" fill="green"/>
   </g>
   <g id="cell105">
  <circle cx="415.862" cy="495.382" r="8.40335" stroke-width="0.5" stroke="black" fill="green"/>
  <circle cx="415.862" cy="495.382" r="5.04879" stroke-width="0.5" stroke="black" fill="green"/>
   </g>
   <g id="cell106">
  <circle cx="639.412" cy="538.194" r="8.40378" stroke-width="0.5" stroke="black" fill="green"/>
  <circle cx="639.412" cy="538.194" r="5.0489" stroke-width="0.5" stroke="black" fill="green"/>
   </g>
   <g id="cell107">
  <circle cx="383.565" cy="514.137" r="8.40123" stroke-width="0.5" stroke="black" fill="cyan"/>
  <circle cx="383.565" cy="514.137" r="5.048" stroke-width="0.5" stroke="black" fill="cyan"/>
   </g>
   <g id="cell108">
  <circle cx="458.798" cy="643.493" r="8.39804" stroke-width="0.5" stroke="black" fill="magenta"/>
  <circle cx="458.798" cy="643.493" r="5.04704" stroke-width="0.5" stroke="black" fill="magenta"/>
   </g>
   <g id="cell109">
  <circle cx="445.343" cy="636.493" r="8.39804" stroke-width="0.5" stroke="black" fill="magenta"/>
  <circle cx="445.343" cy="636.493" r="5.04704" stroke-width="0.5" stroke="black" fill="magenta"/>
   </g>
   <g id="cell110">
  <circle cx="543.638" cy="581.847" r="8.39541" stroke-width="0.5" stroke="black" fill="green"/>
  <circle cx="543.638" cy="581.847" r="5.04618" stroke-width="0.5" stroke="black" fill="green"/>
   </g>
   <g id="cell111">
  <circle cx="629.038" cy="550.431" r="8.39539" stroke-width="0.5" stroke="black" fill="green"/>
  <circle cx="629.038" cy="550.431" r="5.04612" stroke-width="0.5" stroke="black" fill="green"/>
   </g>
   <g id="cell112">
  <circle cx="380.385" cy="573.08" r="8.39735" stroke-width="0.5" stroke="black" fill="magenta"/>
  <circle cx="380.385" cy="573.08" r="5.0467" stroke-width="0.5" stroke="black" fill="magenta"/>
   </g>
   <g id="cell113">
  <circle cx="420.172" cy="480.169" r="8.39617" stroke-width="0.5" stroke="black" fill="green"/>
  <circle cx="420.172" cy="480.169" r="5.04626" stroke-width="0.5" stroke="black" fill="green"/>
   </g>
   <g id="cell114">
  <circle cx="496.829" cy="448.083" r="8.31357" stroke-width="0.5" stroke="black" fill="magenta"/>
  <circle cx="496.829" cy="448.083" r="5.01188" stroke-width="0.5" stroke="black" fill="magenta"/>
   </g>
   <g id="cell115">
  <circle cx="451.678" cy="526.26" r="8.39154" stroke-width="0.5" stroke="black" fill="green"/>
  <circle cx="451.678" cy="526.26" r="5.04453" stroke-width="0.5" stroke="black" fill="green"/>
   </g>
   <g id="cell116">
  <circle cx="368.192" cy="519.092" r="8.38506" stroke-width="0.5" stroke="black" fill="cyan"/>
  <circle cx="368.192" cy="519.092" r="5.04229" stroke-width="0.5" stroke="black" fill="cyan"/>
   </g>
   <g id="cell117">
  <circle cx="438.252" cy="512.316" r="1.2501" stroke-width="0.5" stroke="black" fill="green"/>
  <circle cx="438.252" cy="512.316" r="1.24379" stroke-width="0.5" stroke="black" fill="black"/>
   </g>
   <g id="cell118">
  <circle cx="525.903" cy="524.837" r="6.73393" stroke-width="0.5" stroke="black" fill="cyan"/>
  <circle cx="525.903" cy="524.837" r="4.06007" stroke-width="0.5" stroke="black" fill="cyan"/>
   </g>
   <g id="cell119">
  <circle cx="527.637" cy="634.527" r="8.10583" stroke-width="0.5" stroke="black" fill="green"/>
  <circle cx="527.637" cy="634.527" r="4.90879" stroke-width="0.5" stroke="black" fill="green"/>
   </g>
   <g id="cell121">
  <circle cx="391.518" cy="549.283" r="8.3774" stroke-width="0.5" stroke="black" fill="magenta"/>
  <circle cx="391.518" cy="549.283" r="5.03895" stroke-width="0.5" stroke="black" fill="magenta"/>
   </g>
   <g id="cell122">
  <circle cx="614.004" cy="462.905" r="7.15537" stroke-width="0.5" stroke="black" fill="cyan"/>
  <circle cx="614.004" cy="462.905" r="4.35032" stroke-width="0.5" stroke="black" fill="cyan"/>
   </g>
   <g id="cell123">
  <circle cx="500.52" cy="644.449" r="8.37208" stroke-width="0.5" stroke="black" fill="cyan"/>
  <circle cx="500.52" cy="644.449" r="5.03661" stroke-width="0.5" stroke="black" fill="cyan"/>
   </g>
   <g id="cell124">
  <circle cx="381.784" cy="588.632" r="8.37092" stroke-width="0.5" stroke="black" fill="green"/>
  <circle cx="381.784" cy="588.632" r="5.03613" stroke-width="0.5" stroke="black" fill="green"/>
   </g>
   <g id="cell125">
  <circle cx="451.782" cy="455.218" r="8.36692" stroke-width="0.5" stroke="black" fill="cyan"/>
  <circle cx="451.782" cy="455.218" r="5.03451" stroke-width="0.5" stroke="black" fill="cyan"/>
   </g>
   <g id="cell126">
  <circle cx="416.084" cy="511.296" r="8.35408" stroke-width="0.5" stroke="black" fill="green"/>
  <circle cx="416.084" cy="511.296" r="5.02954" stroke-width="0.5" stroke="black" fill="green"/>
   </g>
   <g id="cell127">
  <circle cx="413.091" cy="596.119" r="8.35404" stroke-width="0.5" stroke="black" fill="cyan"/>
  <circle cx="413.091" cy="596.119" r="5.02894" stroke-width="0.5" stroke="black" fill="cyan"/>
   </g>
   <g id="cell128">
  <circle cx="365.627" cy="534.976" r="8.33662" stroke-width="0.5" stroke="black" fill="cyan"/>
  <circle cx="365.627" cy="534.976" r="5.02268" stroke-width="0.5" stroke="black" fill="cyan"/>
   </g>
   <g id="cell131">
  <circle cx="584.402" cy="535.825" r="8.32425" stroke-width="0.5" stroke="black" fill="cyan"/>
  <circle cx="584.402" cy="535.825" r="5.01622" stroke-width="0.5" stroke="black" fill="cyan"/>
   </g>
   <g id="cell132">
  <circle cx="509.197" cy="440.036" r="8.31357" stroke-width="0.5" stroke="black" fill="magenta"/>
  <circle cx="509.197" cy="440.036" r="5.01188" stroke-width="0.5" stroke="black" fill="magenta"/>
   </g>
   <g id="cell133">
  <circle cx="533.437" cy="407.752" r="8.31491" stroke-width="0.5" stroke="black" fill="magenta"/>
  <circle cx="533.437" cy="407.752" r="5.01133" stroke-width="0.5" stroke="black" fill="magenta"/>
   </g>
   <g id="cell134">
  <circle cx="512.805" cy="580.358" r="8.15717" stroke-width="0.5" stroke="black" fill="magenta"/>
  <circle cx="512.805" cy="580.358" r="4.93838" stroke-width="0.5" stroke="black" fill="magenta"/>
   </g>
   <g id="cell135">
  <circle cx="567.931" cy="484.1" r="8.29331" stroke-width="0.5" stroke="black" fill="cyan"/>
  <circle cx="567.931" cy="484.1" r="5.0012" stroke-width="0.5" stroke="black" fill="cyan"/>
   </g>
   <g id="cell137">
  <circle cx="379.286" cy="478.965" r="8.24402" stroke-width="0.5" stroke="black" fill="magenta"/>
  <circle cx="379.286" cy="478.965" r="4.97737" stroke-width="0.5" stroke="black" fill="magenta"/>
   </g>
   <g id="cell138">
  <circle cx="533.073" cy="591.376" r="7.44631" stroke-width="0.5" stroke="black" fill="magenta"/>
  <circle cx="533.073" cy="591.376" r="4.55633" stroke-width="0.5" stroke="black" fill="magenta"/>
   </g>
   <g id="cell139">
  <circle cx="510.024" cy="609.656" r="8.17902" stroke-width="0.5" stroke="black" fill="green"/>
  <circle cx="510.024" cy="609.656" r="4.94681" stroke-width="0.5" stroke="black" fill="green"/>
   </g>
   <g id="cell142">
  <circle cx="585.844" cy="382.402" r="8.10005" stroke-width="0.5" stroke="black" fill="magenta"/>
  <circle cx="585.844" cy="382.402" r="4.90793" stroke-width="0.5" stroke="black" fill="magenta"/>
   </g>
   <g id="cell143">
  <circle cx="536.926" cy="622.171" r="8.10583" stroke-width="0.5" stroke="black" fill="green"/>
  <circle cx="536.926" cy="622.171" r="4.90879" stroke-width="0.5" stroke="black" fill="green"/>
   </g>
   <g id="cell144">
  <circle cx="378.3" cy="543.159" r="8.09544" stroke-width="0.5" stroke="black" fill="magenta"/>
  <circle cx="378.3" cy="543.159" r="4.90058" stroke-width="0.5" stroke="black" fill="magenta"/>
   </g>
   <g id="cell145">
  <circle cx="459.692" cy="483.63" r="8.07654" stroke-width="0.5" stroke="black" fill="magenta"/>
  <circle cx="459.692" cy="483.63" r="4.89046" stroke-width="0.5" stroke="black" fill="magenta"/>
   </g>
   <g id="cell146">
  <circle cx="466.931" cy="426.898" r="8.01277" stroke-width="0.5" stroke="black" fill="cyan"/>
  <circle cx="466.931" cy="426.898" r="4.85584" stroke-width="0.5" stroke="black" fill="cyan"/>
   </g>
   <g id="cell148">
  <circle cx="400.437" cy="604.99" r="7.9177" stroke-width="0.5" stroke="black" fill="cyan"/>
  <circle cx="400.437" cy="604.99" r="4.80847" stroke-width="0.5" stroke="black" fill="cyan"/>
   </g>
   <g id="cell149">
  <circle cx="437.822" cy="533.18" r="7.86358" stroke-width="0.5" stroke="black" fill="green"/>
  <circle cx="437.822" cy="533.18" r="4.77561" stroke-width="0.5" stroke="black" fill="green"/>
   </g>
   <g id="cell150">
  <circle cx="472.41" cy="628.423" r="7.84551" stroke-width="0.5" stroke="black" fill="green"/>
  <circle cx="472.41" cy="628.423" r="4.76254" stroke-width="0.5" stroke="black" fill="green"/>
   </g>
   <g id="cell151">
  <circle cx="523.416" cy="511.494" r="7.83019" stroke-width="0.5" stroke="black" fill="cyan"/>
  <circle cx="523.416" cy="511.494" r="4.75343" stroke-width="0.5" stroke="black" fill="cyan"/>
   </g>
   <g id="cell152">
  <circle cx="644.196" cy="552.757" r="7.76751" stroke-width="0.5" stroke="black" fill="green"/>
  <circle cx="644.196" cy="552.757" r="4.7198" stroke-width="0.5" stroke="black" fill="green"/>
   </g>
   <g id="cell153">
  <circle cx="393.973" cy="525.526" r="7.71454" stroke-width="0.5" stroke="black" fill="cyan"/>
  <circle cx="393.973" cy="525.526" r="4.69501" stroke-width="0.5" stroke="black" fill="cyan"/>
   </g>
   <g id="cell154">
  <circle cx="589.712" cy="500.189" r="7.73872" stroke-width="0.5" stroke="black" fill="magenta"/>
  <circle cx="589.712" cy="500.189" r="4.70102" stroke-width="0.5" stroke="black" fill="magenta"/>
   </g>
   <g id="cell156">
  <circle cx="403.403" cy="555.997" r="6.48846" stroke-width="0.5" stroke="black" fill="green"/>
  <circle cx="403.403" cy="555.997" r="3.98038" stroke-width="0.5" stroke="black" fill="green"/>
   </g>
   <g id="cell157">
  <circle cx="392.539" cy="474.205" r="7.38892" stroke-width="0.5" stroke="black" fill="magenta"/>
  <circle cx="392.539" cy="474.205" r="4.50802" stroke-width="0.5" stroke="black" fill="magenta"/>
   </g>
   <g id="cell158">
  <circle cx="433.531" cy="475.362" r="6.81195" stroke-width="0.5" stroke="black" fill="green"/>
  <circle cx="433.531" cy="475.362" r="4.18024" stroke-width="0.5" stroke="black" fill="green"/>
   </g>
   <g id="cell159">
  <circle cx="436.247" cy="463.146" r="6.81195" stroke-width="0.5" stroke="black" fill="green"/>
  <circle cx="436.247" cy="463.146" r="4.18024" stroke-width="0.5" stroke="black" fill="green"/>
   </g>
   <g id="cell160">
  <circle cx="415.396" cy="559.271" r="6.67301" stroke-width="0.5" stroke="black" fill="green"/>
  <circle cx="415.396" cy="559.271" r="4.09549" stroke-width="0.5" stroke="black" fill="green"/>
   </g>
   <g id="cell161">
  <circle cx="531.073" cy="463.383" r="7.27034" stroke-width="0.5" stroke="black" fill="cyan"/>
  <circle cx="531.073" cy="463.383" r="4.41768" stroke-width="0.5" stroke="black" fill="cyan"/>
   </g>
   <g id="cell162">
  <circle cx="608.704" cy="475.374" r="7.15537" stroke-width="0.5" stroke="black" fill="cyan"/>
  <circle cx="608.704" cy="475.374" r="4.35032" stroke-width="0.5" stroke="black" fill="cyan"/>
   </g>
   <g id="cell163">
  <circle cx="423.329" cy="550.613" r="6.04748" stroke-width="0.5" stroke="black" fill="green"/>
  <circle cx="423.329" cy="550.613" r="3.73849" stroke-width="0.5" stroke="black" fill="green"/>
   </g>
   <g id="cell164">
  <circle cx="455.37" cy="470.056" r="7.14958" stroke-width="0.5" stroke="black" fill="cyan"/>
  <circle cx="455.37" cy="470.056" r="4.34787" stroke-width="0.5" stroke="black" fill="cyan"/>
   </g>
   <g id="cell165">
  <circle cx="412.021" cy="547.357" r="6.48846" stroke-width="0.5" stroke="black" fill="green"/>
  <circle cx="412.021" cy="547.357" r="3.98038" stroke-width="0.5" stroke="black" fill="green"/>
   </g>
   <g id="cell166">
  <circle cx="603.473" cy="498.667" r="7.05395" stroke-width="0.5" stroke="black" fill="green"/>
  <circle cx="603.473" cy="498.667" r="4.27757" stroke-width="0.5" stroke="black" fill="green"/>
   </g>
   <g id="cell167">
  <circle cx="465.635" cy="387.474" r="7.0545" stroke-width="0.5" stroke="black" fill="green"/>
  <circle cx="465.635" cy="387.474" r="4.27772" stroke-width="0.5" stroke="black" fill="green"/>
   </g>
   <g id="cell168">
  <circle cx="519.775" cy="407.347" r="6.95251" stroke-width="0.5" stroke="black" fill="magenta"/>
  <circle cx="519.775" cy="407.347" r="4.22681" stroke-width="0.5" stroke="black" fill="magenta"/>
   </g>
   <g id="cell169">
  <circle cx="473.915" cy="438.499" r="6.75776" stroke-width="0.5" stroke="black" fill="magenta"/>
  <circle cx="473.915" cy="438.499" r="4.11939" stroke-width="0.5" stroke="black" fill="magenta"/>
   </g>
   <g id="cell170">
  <circle cx="627.338" cy="489.785" r="6.86594" stroke-width="0.5" stroke="black" fill="green"/>
  <circle cx="627.338" cy="489.785" r="4.14868" stroke-width="0.5" stroke="black" fill="green"/>
   </g>
   <g id="cell171">
  <circle cx="536.456" cy="530.852" r="6.73393" stroke-width="0.5" stroke="black" fill="cyan"/>
  <circle cx="536.456" cy="530.852" r="4.06007" stroke-width="0.5" stroke="black" fill="cyan"/>
   </g>
   <g id="cell172">
  <circle cx="511.657" cy="518.13" r="6.25449" stroke-width="0.5" stroke="black" fill="cyan"/>
  <circle cx="511.657" cy="518.13" r="3.80061" stroke-width="0.5" stroke="black" fill="cyan"/>
   </g>
   <g id="cell173">
  <circle cx="539.126" cy="601.932" r="6.70459" stroke-width="0.5" stroke="black" fill="green"/>
  <circle cx="539.126" cy="601.932" r="4.03225" stroke-width="0.5" stroke="black" fill="green"/>
   </g>
   <g id="cell174">
  <circle cx="477.963" cy="616.611" r="6.69118" stroke-width="0.5" stroke="black" fill="green"/>
  <circle cx="477.963" cy="616.611" r="4.02005" stroke-width="0.5" stroke="black" fill="green"/>
   </g>
  </g>
 </g>
  <rect x="775" y="1035" width="200" height="10" stroke-width="2" stroke="rgb(255,255,255)" fill="rgb(0,0,0)"/>
  <text x="781.25" y="1028.75"
   font-family="Arial" font-size="25" fill="black" >
   200 &#956;m
  </text>
  <text x="25" y="1045"
   font-family="Arial" font-size="18.75" fill="black" >
   0 days, 0 hours, 0 minutes, and 38.8781 seconds
  </text>
  <rect x="0" y="70" width="1000" height="1000" stroke-width="2" stroke="rgb(0,0,0)" fill="none"/>
</svg>
