<?xml version="1.0" encoding="UTF-8" standalone="no"?>
<!-- Created with PhysiCell (http://PhysiCell.MathCancer.org/) -->
<svg 
 xmlns:dc="http://purl.org/dc/elements/1.1/" 
 xmlns:cc="http://creativecommons.org/ns#" 
 xmlns:rdf="http://www.w3.org/1999/02/22-rdf-syntax-ns#" 
 xmlns:svg="http://www.w3.org/2000/svg" 
 xmlns="http://www.w3.org/2000/svg" 
 version="1.1" 
 width="1000" 
 height="1070" 
 id="svg2">
  <rect x="0" y="0" width="1000" height="1070" stroke-width="2" stroke="white" fill="white"/>
  <text x="12.5" y="30"
   font-family="Arial" font-size="25" fill="black" >
   Current time: 1 days, 16 hours, and 0.00 minutes, z = 0.00 &#956;m
  </text>
  <text x="12.5" y="57.5"
   font-family="Arial" font-size="23.75" fill="black" >
   217 agents
  </text>
 <g id="tissue" 
    transform="translate(0,1070) scale(1,-1)">
  <g id="ECM">
  </g>
  <g id="cells">
   <g id="cell0">
  <circle cx="510.178" cy="533.973" r="8.41268" stroke-width="0.5" stroke="black" fill="magenta"/>
  <circle cx="510.178" cy="533.973" r="5.05166" stroke-width="0.5" stroke="black" fill="magenta"/>
   </g>
   <g id="cell147">
  <circle cx="421.977" cy="578.233" r="8.39511" stroke-width="0.5" stroke="black" fill="green"/>
  <circle cx="421.977" cy="578.233" r="5.04578" stroke-width="0.5" stroke="black" fill="green"/>
   </g>
   <g id="cell2">
  <circle cx="505.663" cy="590.868" r="7.14636" stroke-width="0.5" stroke="black" fill="magenta"/>
  <circle cx="505.663" cy="590.868" r="4.33896" stroke-width="0.5" stroke="black" fill="magenta"/>
   </g>
   <g id="cell3">
  <circle cx="537.545" cy="546.209" r="8.40632" stroke-width="0.5" stroke="black" fill="magenta"/>
  <circle cx="537.545" cy="546.209" r="5.04976" stroke-width="0.5" stroke="black" fill="magenta"/>
   </g>
   <g id="cell4">
  <circle cx="451.554" cy="427.035" r="8.41268" stroke-width="0.5" stroke="black" fill="magenta"/>
  <circle cx="451.554" cy="427.035" r="5.05166" stroke-width="0.5" stroke="black" fill="magenta"/>
   </g>
   <g id="cell5">
  <circle cx="468.292" cy="501.063" r="8.39794" stroke-width="0.5" stroke="black" fill="magenta"/>
  <circle cx="468.292" cy="501.063" r="5.04681" stroke-width="0.5" stroke="black" fill="magenta"/>
   </g>
   <g id="cell6">
  <circle cx="591.483" cy="516.929" r="8.4126" stroke-width="0.5" stroke="black" fill="magenta"/>
  <circle cx="591.483" cy="516.929" r="5.05165" stroke-width="0.5" stroke="black" fill="magenta"/>
   </g>
   <g id="cell7">
  <circle cx="512.321" cy="458.301" r="8.41271" stroke-width="0.5" stroke="black" fill="magenta"/>
  <circle cx="512.321" cy="458.301" r="5.05167" stroke-width="0.5" stroke="black" fill="magenta"/>
   </g>
   <g id="cell8">
  <circle cx="358.287" cy="546.002" r="7.65028" stroke-width="0.5" stroke="black" fill="magenta"/>
  <circle cx="358.287" cy="546.002" r="4.6508" stroke-width="0.5" stroke="black" fill="magenta"/>
   </g>
   <g id="cell9">
  <circle cx="461.488" cy="601.539" r="8.41259" stroke-width="0.5" stroke="black" fill="magenta"/>
  <circle cx="461.488" cy="601.539" r="5.05165" stroke-width="0.5" stroke="black" fill="magenta"/>
   </g>
   <g id="cell10">
  <circle cx="588.324" cy="395.68" r="8.39892" stroke-width="0.5" stroke="black" fill="magenta"/>
  <circle cx="588.324" cy="395.68" r="5.04731" stroke-width="0.5" stroke="black" fill="magenta"/>
   </g>
   <g id="cell11">
  <circle cx="589.748" cy="590.273" r="8.41271" stroke-width="0.5" stroke="black" fill="magenta"/>
  <circle cx="589.748" cy="590.273" r="5.05167" stroke-width="0.5" stroke="black" fill="magenta"/>
   </g>
   <g id="cell12">
  <circle cx="497.096" cy="579.947" r="8.41271" stroke-width="0.5" stroke="black" fill="magenta"/>
  <circle cx="497.096" cy="579.947" r="5.05167" stroke-width="0.5" stroke="black" fill="magenta"/>
   </g>
   <g id="cell13">
  <circle cx="380.228" cy="558.25" r="8.41107" stroke-width="0.5" stroke="black" fill="magenta"/>
  <circle cx="380.228" cy="558.25" r="5.05125" stroke-width="0.5" stroke="black" fill="magenta"/>
   </g>
   <g id="cell14">
  <circle cx="529.932" cy="395.433" r="8.34837" stroke-width="0.5" stroke="black" fill="magenta"/>
  <circle cx="529.932" cy="395.433" r="5.0268" stroke-width="0.5" stroke="black" fill="magenta"/>
   </g>
   <g id="cell15">
  <circle cx="382.14" cy="492.711" r="6.61123" stroke-width="0.5" stroke="black" fill="magenta"/>
  <circle cx="382.14" cy="492.711" r="4.04517" stroke-width="0.5" stroke="black" fill="magenta"/>
   </g>
   <g id="cell16">
  <circle cx="427.111" cy="420.791" r="8.41271" stroke-width="0.5" stroke="black" fill="magenta"/>
  <circle cx="427.111" cy="420.791" r="5.05167" stroke-width="0.5" stroke="black" fill="magenta"/>
   </g>
   <g id="cell17">
  <circle cx="577.672" cy="483.095" r="8.41246" stroke-width="0.5" stroke="black" fill="magenta"/>
  <circle cx="577.672" cy="483.095" r="5.05162" stroke-width="0.5" stroke="black" fill="magenta"/>
   </g>
   <g id="cell18">
  <circle cx="515.105" cy="392.328" r="8.41268" stroke-width="0.5" stroke="black" fill="magenta"/>
  <circle cx="515.105" cy="392.328" r="5.05167" stroke-width="0.5" stroke="black" fill="magenta"/>
   </g>
   <g id="cell19">
  <circle cx="458.356" cy="541.119" r="8.41255" stroke-width="0.5" stroke="black" fill="magenta"/>
  <circle cx="458.356" cy="541.119" r="5.05164" stroke-width="0.5" stroke="black" fill="magenta"/>
   </g>
   <g id="cell20">
  <circle cx="524.027" cy="420.801" r="8.41271" stroke-width="0.5" stroke="black" fill="magenta"/>
  <circle cx="524.027" cy="420.801" r="5.05167" stroke-width="0.5" stroke="black" fill="magenta"/>
   </g>
   <g id="cell141">
  <circle cx="494.184" cy="439.494" r="8.22977" stroke-width="0.5" stroke="black" fill="magenta"/>
  <circle cx="494.184" cy="439.494" r="4.97409" stroke-width="0.5" stroke="black" fill="magenta"/>
   </g>
   <g id="cell22">
  <circle cx="558.556" cy="497.027" r="8.41249" stroke-width="0.5" stroke="black" fill="magenta"/>
  <circle cx="558.556" cy="497.027" r="5.05162" stroke-width="0.5" stroke="black" fill="magenta"/>
   </g>
   <g id="cell23">
  <circle cx="532.903" cy="492.613" r="7.11815" stroke-width="0.5" stroke="black" fill="magenta"/>
  <circle cx="532.903" cy="492.613" r="4.31954" stroke-width="0.5" stroke="black" fill="magenta"/>
   </g>
   <g id="cell24">
  <circle cx="566.794" cy="380.743" r="8.41271" stroke-width="0.5" stroke="black" fill="magenta"/>
  <circle cx="566.794" cy="380.743" r="5.05167" stroke-width="0.5" stroke="black" fill="magenta"/>
   </g>
   <g id="cell25">
  <circle cx="654.03" cy="565.051" r="8.38491" stroke-width="0.5" stroke="black" fill="green"/>
  <circle cx="654.03" cy="565.051" r="5.04189" stroke-width="0.5" stroke="black" fill="green"/>
   </g>
   <g id="cell26">
  <circle cx="545.224" cy="398.54" r="8.41271" stroke-width="0.5" stroke="black" fill="green"/>
  <circle cx="545.224" cy="398.54" r="5.05167" stroke-width="0.5" stroke="black" fill="green"/>
   </g>
   <g id="cell27">
  <circle cx="453.231" cy="387.834" r="1.49382" stroke-width="0.5" stroke="black" fill="green"/>
  <circle cx="453.231" cy="387.834" r="1.47286" stroke-width="0.5" stroke="black" fill="black"/>
   </g>
   <g id="cell28">
  <circle cx="443.478" cy="557.894" r="6.69288" stroke-width="0.5" stroke="black" fill="green"/>
  <circle cx="443.478" cy="557.894" r="4.02051" stroke-width="0.5" stroke="black" fill="green"/>
   </g>
   <g id="cell29">
  <circle cx="466.368" cy="516.567" r="8.41172" stroke-width="0.5" stroke="black" fill="green"/>
  <circle cx="466.368" cy="516.567" r="5.05143" stroke-width="0.5" stroke="black" fill="green"/>
   </g>
   <g id="cell30">
  <circle cx="483.248" cy="537.091" r="8.41271" stroke-width="0.5" stroke="black" fill="green"/>
  <circle cx="483.248" cy="537.091" r="5.05167" stroke-width="0.5" stroke="black" fill="green"/>
   </g>
   <g id="cell31">
  <circle cx="406.472" cy="532.763" r="8.20088" stroke-width="0.5" stroke="black" fill="green"/>
  <circle cx="406.472" cy="532.763" r="4.95562" stroke-width="0.5" stroke="black" fill="green"/>
   </g>
   <g id="cell32">
  <circle cx="422.976" cy="451.059" r="8.37087" stroke-width="0.5" stroke="black" fill="green"/>
  <circle cx="422.976" cy="451.059" r="5.03612" stroke-width="0.5" stroke="black" fill="green"/>
   </g>
   <g id="cell33">
  <circle cx="501.39" cy="413.576" r="8.41263" stroke-width="0.5" stroke="black" fill="green"/>
  <circle cx="501.39" cy="413.576" r="5.05166" stroke-width="0.5" stroke="black" fill="green"/>
   </g>
   <g id="cell34">
  <circle cx="389.737" cy="455.231" r="8.41262" stroke-width="0.5" stroke="black" fill="green"/>
  <circle cx="389.737" cy="455.231" r="5.05165" stroke-width="0.5" stroke="black" fill="green"/>
   </g>
   <g id="cell35">
  <circle cx="547.954" cy="557.822" r="8.41233" stroke-width="0.5" stroke="black" fill="green"/>
  <circle cx="547.954" cy="557.822" r="5.05159" stroke-width="0.5" stroke="black" fill="green"/>
   </g>
   <g id="cell36">
  <circle cx="391.969" cy="582.727" r="8.41078" stroke-width="0.5" stroke="black" fill="green"/>
  <circle cx="391.969" cy="582.727" r="5.05116" stroke-width="0.5" stroke="black" fill="green"/>
   </g>
   <g id="cell174">
  <circle cx="478.81" cy="619.171" r="8.32538" stroke-width="0.5" stroke="black" fill="green"/>
  <circle cx="478.81" cy="619.171" r="5.01616" stroke-width="0.5" stroke="black" fill="green"/>
   </g>
   <g id="cell38">
  <circle cx="525.533" cy="605.977" r="8.41256" stroke-width="0.5" stroke="black" fill="green"/>
  <circle cx="525.533" cy="605.977" r="5.05164" stroke-width="0.5" stroke="black" fill="green"/>
   </g>
   <g id="cell39">
  <circle cx="620.163" cy="500.549" r="8.34115" stroke-width="0.5" stroke="black" fill="green"/>
  <circle cx="620.163" cy="500.549" r="5.02327" stroke-width="0.5" stroke="black" fill="green"/>
   </g>
   <g id="cell40">
  <circle cx="484.36" cy="570.832" r="8.41271" stroke-width="0.5" stroke="black" fill="green"/>
  <circle cx="484.36" cy="570.832" r="5.05167" stroke-width="0.5" stroke="black" fill="green"/>
   </g>
   <g id="cell41">
  <circle cx="360.045" cy="480.751" r="8.41271" stroke-width="0.5" stroke="black" fill="green"/>
  <circle cx="360.045" cy="480.751" r="5.05167" stroke-width="0.5" stroke="black" fill="green"/>
   </g>
   <g id="cell176">
  <circle cx="469.559" cy="445.57" r="8.25297" stroke-width="0.5" stroke="black" fill="magenta"/>
  <circle cx="469.559" cy="445.57" r="4.98526" stroke-width="0.5" stroke="black" fill="magenta"/>
   </g>
   <g id="cell43">
  <circle cx="558.191" cy="445.615" r="8.41271" stroke-width="0.5" stroke="black" fill="green"/>
  <circle cx="558.191" cy="445.615" r="5.05167" stroke-width="0.5" stroke="black" fill="green"/>
   </g>
   <g id="cell44">
  <circle cx="489.094" cy="631.301" r="8.38818" stroke-width="0.5" stroke="black" fill="green"/>
  <circle cx="489.094" cy="631.301" r="5.04312" stroke-width="0.5" stroke="black" fill="green"/>
   </g>
   <g id="cell45">
  <circle cx="434.627" cy="567.432" r="8.32375" stroke-width="0.5" stroke="black" fill="green"/>
  <circle cx="434.627" cy="567.432" r="5.01779" stroke-width="0.5" stroke="black" fill="green"/>
   </g>
   <g id="cell46">
  <circle cx="518.466" cy="620.236" r="8.40231" stroke-width="0.5" stroke="black" fill="green"/>
  <circle cx="518.466" cy="620.236" r="5.04845" stroke-width="0.5" stroke="black" fill="green"/>
   </g>
   <g id="cell47">
  <circle cx="493.485" cy="512.957" r="8.41271" stroke-width="0.5" stroke="black" fill="green"/>
  <circle cx="493.485" cy="512.957" r="5.05167" stroke-width="0.5" stroke="black" fill="green"/>
   </g>
   <g id="cell48">
  <circle cx="566.762" cy="603.975" r="8.41271" stroke-width="0.5" stroke="black" fill="green"/>
  <circle cx="566.762" cy="603.975" r="5.05167" stroke-width="0.5" stroke="black" fill="green"/>
   </g>
   <g id="cell49">
  <circle cx="438.977" cy="384.643" r="2.24563" stroke-width="0.5" stroke="black" fill="green"/>
  <circle cx="438.977" cy="384.643" r="1.90269" stroke-width="0.5" stroke="black" fill="black"/>
   </g>
   <g id="cell50">
  <circle cx="507.165" cy="488.437" r="8.04298" stroke-width="0.5" stroke="black" fill="cyan"/>
  <circle cx="507.165" cy="488.437" r="4.87948" stroke-width="0.5" stroke="black" fill="cyan"/>
   </g>
   <g id="cell51">
  <circle cx="385.926" cy="603.198" r="8.39125" stroke-width="0.5" stroke="black" fill="cyan"/>
  <circle cx="385.926" cy="603.198" r="5.04444" stroke-width="0.5" stroke="black" fill="cyan"/>
   </g>
   <g id="cell120">
  <circle cx="417.169" cy="610.515" r="8.41129" stroke-width="0.5" stroke="black" fill="cyan"/>
  <circle cx="417.169" cy="610.515" r="5.05131" stroke-width="0.5" stroke="black" fill="cyan"/>
   </g>
   <g id="cell53">
  <circle cx="571.109" cy="436.134" r="8.41271" stroke-width="0.5" stroke="black" fill="cyan"/>
  <circle cx="571.109" cy="436.134" r="5.05167" stroke-width="0.5" stroke="black" fill="cyan"/>
   </g>
   <g id="cell54">
  <circle cx="490.141" cy="424.615" r="8.39523" stroke-width="0.5" stroke="black" fill="cyan"/>
  <circle cx="490.141" cy="424.615" r="5.04581" stroke-width="0.5" stroke="black" fill="cyan"/>
   </g>
   <g id="cell55">
  <circle cx="521.426" cy="485.466" r="7.44242" stroke-width="0.5" stroke="black" fill="cyan"/>
  <circle cx="521.426" cy="485.466" r="4.52373" stroke-width="0.5" stroke="black" fill="cyan"/>
   </g>
   <g id="cell56">
  <circle cx="627.524" cy="521.22" r="8.05767" stroke-width="0.5" stroke="black" fill="cyan"/>
  <circle cx="627.524" cy="521.22" r="4.88871" stroke-width="0.5" stroke="black" fill="cyan"/>
   </g>
   <g id="cell57">
  <circle cx="418.479" cy="626.498" r="8.41129" stroke-width="0.5" stroke="black" fill="cyan"/>
  <circle cx="418.479" cy="626.498" r="5.05131" stroke-width="0.5" stroke="black" fill="cyan"/>
   </g>
   <g id="cell58">
  <circle cx="546.825" cy="485.787" r="8.41271" stroke-width="0.5" stroke="black" fill="cyan"/>
  <circle cx="546.825" cy="485.787" r="5.05167" stroke-width="0.5" stroke="black" fill="cyan"/>
   </g>
   <g id="cell59">
  <circle cx="385.446" cy="439.792" r="8.41271" stroke-width="0.5" stroke="black" fill="cyan"/>
  <circle cx="385.446" cy="439.792" r="5.05167" stroke-width="0.5" stroke="black" fill="cyan"/>
   </g>
   <g id="cell60">
  <circle cx="602.445" cy="465.573" r="8.12916" stroke-width="0.5" stroke="black" fill="cyan"/>
  <circle cx="602.445" cy="465.573" r="4.91869" stroke-width="0.5" stroke="black" fill="cyan"/>
   </g>
   <g id="cell155">
  <circle cx="519.498" cy="591.769" r="8.37239" stroke-width="0.5" stroke="black" fill="magenta"/>
  <circle cx="519.498" cy="591.769" r="5.03751" stroke-width="0.5" stroke="black" fill="magenta"/>
   </g>
   <g id="cell62">
  <circle cx="521.256" cy="435.796" r="8.41271" stroke-width="0.5" stroke="black" fill="cyan"/>
  <circle cx="521.256" cy="435.796" r="5.05167" stroke-width="0.5" stroke="black" fill="cyan"/>
   </g>
   <g id="cell63">
  <circle cx="583.125" cy="559.669" r="8.41256" stroke-width="0.5" stroke="black" fill="cyan"/>
  <circle cx="583.125" cy="559.669" r="5.05164" stroke-width="0.5" stroke="black" fill="cyan"/>
   </g>
   <g id="cell64">
  <circle cx="509.873" cy="633.693" r="8.41083" stroke-width="0.5" stroke="black" fill="cyan"/>
  <circle cx="509.873" cy="633.693" r="5.05118" stroke-width="0.5" stroke="black" fill="cyan"/>
   </g>
   <g id="cell65">
  <circle cx="534.669" cy="441.923" r="7.1782" stroke-width="0.5" stroke="black" fill="cyan"/>
  <circle cx="534.669" cy="441.923" r="4.36661" stroke-width="0.5" stroke="black" fill="cyan"/>
   </g>
   <g id="cell66">
  <circle cx="550.1" cy="521.286" r="8.41136" stroke-width="0.5" stroke="black" fill="cyan"/>
  <circle cx="550.1" cy="521.286" r="5.05133" stroke-width="0.5" stroke="black" fill="cyan"/>
   </g>
   <g id="cell67">
  <circle cx="353.186" cy="495.416" r="8.41271" stroke-width="0.5" stroke="black" fill="cyan"/>
  <circle cx="353.186" cy="495.416" r="5.05167" stroke-width="0.5" stroke="black" fill="cyan"/>
   </g>
   <g id="cell68">
  <circle cx="568.214" cy="556.461" r="7.96365" stroke-width="0.5" stroke="black" fill="cyan"/>
  <circle cx="568.214" cy="556.461" r="4.82873" stroke-width="0.5" stroke="black" fill="cyan"/>
   </g>
   <g id="cell69">
  <circle cx="440.449" cy="438.542" r="8.41268" stroke-width="0.5" stroke="black" fill="cyan"/>
  <circle cx="440.449" cy="438.542" r="5.05167" stroke-width="0.5" stroke="black" fill="cyan"/>
   </g>
   <g id="cell70">
  <circle cx="573.416" cy="468.607" r="8.40731" stroke-width="0.5" stroke="black" fill="cyan"/>
  <circle cx="573.416" cy="468.607" r="5.05008" stroke-width="0.5" stroke="black" fill="cyan"/>
   </g>
   <g id="cell71">
  <circle cx="381.092" cy="528.831" r="2.21295" stroke-width="0.5" stroke="black" fill="cyan"/>
  <circle cx="381.092" cy="528.831" r="2.04306" stroke-width="0.5" stroke="black" fill="black"/>
   </g>
   <g id="cell72">
  <circle cx="535.741" cy="514.371" r="8.41271" stroke-width="0.5" stroke="black" fill="cyan"/>
  <circle cx="535.741" cy="514.371" r="5.05167" stroke-width="0.5" stroke="black" fill="cyan"/>
   </g>
   <g id="cell129">
  <circle cx="411.107" cy="406.801" r="8.40961" stroke-width="0.5" stroke="black" fill="green"/>
  <circle cx="411.107" cy="406.801" r="5.05081" stroke-width="0.5" stroke="black" fill="green"/>
   </g>
   <g id="cell221">
  <circle cx="533.59" cy="479.966" r="7.11815" stroke-width="0.5" stroke="black" fill="magenta"/>
  <circle cx="533.59" cy="479.966" r="4.31954" stroke-width="0.5" stroke="black" fill="magenta"/>
   </g>
   <g id="cell75">
  <circle cx="444.575" cy="484.715" r="8.11885" stroke-width="0.5" stroke="black" fill="cyan"/>
  <circle cx="444.575" cy="484.715" r="4.92148" stroke-width="0.5" stroke="black" fill="cyan"/>
   </g>
   <g id="cell76">
  <circle cx="510.7" cy="378.082" r="8.20679" stroke-width="0.5" stroke="black" fill="magenta"/>
  <circle cx="510.7" cy="378.082" r="4.95865" stroke-width="0.5" stroke="black" fill="magenta"/>
   </g>
   <g id="cell77">
  <circle cx="505.253" cy="428.95" r="8.40047" stroke-width="0.5" stroke="black" fill="magenta"/>
  <circle cx="505.253" cy="428.95" r="5.04778" stroke-width="0.5" stroke="black" fill="magenta"/>
   </g>
   <g id="cell78">
  <circle cx="375.384" cy="459.745" r="7.81313" stroke-width="0.5" stroke="black" fill="magenta"/>
  <circle cx="375.384" cy="459.745" r="4.74366" stroke-width="0.5" stroke="black" fill="magenta"/>
   </g>
   <g id="cell79">
  <circle cx="496.12" cy="528.392" r="8.41268" stroke-width="0.5" stroke="black" fill="magenta"/>
  <circle cx="496.12" cy="528.392" r="5.05166" stroke-width="0.5" stroke="black" fill="magenta"/>
   </g>
   <g id="cell80">
  <circle cx="615.963" cy="486.578" r="7.55485" stroke-width="0.5" stroke="black" fill="green"/>
  <circle cx="615.963" cy="486.578" r="4.59914" stroke-width="0.5" stroke="black" fill="green"/>
   </g>
   <g id="cell81">
  <circle cx="424.507" cy="507.954" r="8.41001" stroke-width="0.5" stroke="black" fill="green"/>
  <circle cx="424.507" cy="507.954" r="5.05095" stroke-width="0.5" stroke="black" fill="green"/>
   </g>
   <g id="cell82">
  <circle cx="543.941" cy="501.021" r="8.41267" stroke-width="0.5" stroke="black" fill="magenta"/>
  <circle cx="543.941" cy="501.021" r="5.05166" stroke-width="0.5" stroke="black" fill="magenta"/>
   </g>
   <g id="cell130">
  <circle cx="573.248" cy="394.438" r="8.40944" stroke-width="0.5" stroke="black" fill="magenta"/>
  <circle cx="573.248" cy="394.438" r="5.05076" stroke-width="0.5" stroke="black" fill="magenta"/>
   </g>
   <g id="cell84">
  <circle cx="403.474" cy="483.183" r="8.41194" stroke-width="0.5" stroke="black" fill="green"/>
  <circle cx="403.474" cy="483.183" r="5.05149" stroke-width="0.5" stroke="black" fill="green"/>
   </g>
   <g id="cell140">
  <circle cx="527.9" cy="579.281" r="8.39704" stroke-width="0.5" stroke="black" fill="magenta"/>
  <circle cx="527.9" cy="579.281" r="5.04679" stroke-width="0.5" stroke="black" fill="magenta"/>
   </g>
   <g id="cell86">
  <circle cx="392.562" cy="567.394" r="8.41199" stroke-width="0.5" stroke="black" fill="magenta"/>
  <circle cx="392.562" cy="567.394" r="5.0515" stroke-width="0.5" stroke="black" fill="magenta"/>
   </g>
   <g id="cell87">
  <circle cx="432.818" cy="522.179" r="8.38895" stroke-width="0.5" stroke="black" fill="green"/>
  <circle cx="432.818" cy="522.179" r="5.0435" stroke-width="0.5" stroke="black" fill="green"/>
   </g>
   <g id="cell88">
  <circle cx="476.281" cy="604.055" r="7.79676" stroke-width="0.5" stroke="black" fill="green"/>
  <circle cx="476.281" cy="604.055" r="4.7422" stroke-width="0.5" stroke="black" fill="green"/>
   </g>
   <g id="cell89">
  <circle cx="429.956" cy="492.683" r="8.41236" stroke-width="0.5" stroke="black" fill="green"/>
  <circle cx="429.956" cy="492.683" r="5.05159" stroke-width="0.5" stroke="black" fill="green"/>
   </g>
   <g id="cell90">
  <circle cx="576.296" cy="510.809" r="8.38368" stroke-width="0.5" stroke="black" fill="magenta"/>
  <circle cx="576.296" cy="510.809" r="5.04135" stroke-width="0.5" stroke="black" fill="magenta"/>
   </g>
   <g id="cell136">
  <circle cx="524.052" cy="539.716" r="8.40632" stroke-width="0.5" stroke="black" fill="magenta"/>
  <circle cx="524.052" cy="539.716" r="5.04976" stroke-width="0.5" stroke="black" fill="magenta"/>
   </g>
   <g id="cell92">
  <circle cx="561.399" cy="589.066" r="8.4119" stroke-width="0.5" stroke="black" fill="green"/>
  <circle cx="561.399" cy="589.066" r="5.05148" stroke-width="0.5" stroke="black" fill="green"/>
   </g>
   <g id="cell93">
  <circle cx="579.584" cy="522.723" r="6.46788" stroke-width="0.5" stroke="black" fill="cyan"/>
  <circle cx="579.584" cy="522.723" r="3.9191" stroke-width="0.5" stroke="black" fill="cyan"/>
   </g>
   <g id="cell94">
  <circle cx="542.214" cy="468.774" r="8.41255" stroke-width="0.5" stroke="black" fill="cyan"/>
  <circle cx="542.214" cy="468.774" r="5.05164" stroke-width="0.5" stroke="black" fill="cyan"/>
   </g>
   <g id="cell95">
  <circle cx="468.958" cy="531.54" r="8.41255" stroke-width="0.5" stroke="black" fill="magenta"/>
  <circle cx="468.958" cy="531.54" r="5.05164" stroke-width="0.5" stroke="black" fill="magenta"/>
   </g>
   <g id="cell96">
  <circle cx="539.798" cy="383.965" r="8.41252" stroke-width="0.5" stroke="black" fill="magenta"/>
  <circle cx="539.798" cy="383.965" r="5.05163" stroke-width="0.5" stroke="black" fill="magenta"/>
   </g>
   <g id="cell97">
  <circle cx="567.545" cy="505.491" r="2.91068" stroke-width="0.5" stroke="black" fill="magenta"/>
  <circle cx="567.545" cy="505.491" r="2.4256" stroke-width="0.5" stroke="black" fill="black"/>
   </g>
   <g id="cell98">
  <circle cx="406.158" cy="575.336" r="8.39511" stroke-width="0.5" stroke="black" fill="green"/>
  <circle cx="406.158" cy="575.336" r="5.04578" stroke-width="0.5" stroke="black" fill="green"/>
   </g>
   <g id="cell99">
  <circle cx="573.58" cy="496.96" r="8.41246" stroke-width="0.5" stroke="black" fill="magenta"/>
  <circle cx="573.58" cy="496.96" r="5.05162" stroke-width="0.5" stroke="black" fill="magenta"/>
   </g>
   <g id="cell100">
  <circle cx="572.775" cy="540.539" r="7.08616" stroke-width="0.5" stroke="black" fill="cyan"/>
  <circle cx="572.775" cy="540.539" r="4.2987" stroke-width="0.5" stroke="black" fill="cyan"/>
   </g>
   <g id="cell101">
  <circle cx="459.111" cy="628.689" r="8.12143" stroke-width="0.5" stroke="black" fill="magenta"/>
  <circle cx="459.111" cy="628.689" r="4.91448" stroke-width="0.5" stroke="black" fill="magenta"/>
   </g>
   <g id="cell102">
  <circle cx="445.1" cy="514.882" r="7.02232" stroke-width="0.5" stroke="black" fill="green"/>
  <circle cx="445.1" cy="514.882" r="4.25638" stroke-width="0.5" stroke="black" fill="green"/>
   </g>
   <g id="cell103">
  <circle cx="559.124" cy="617.797" r="8.32766" stroke-width="0.5" stroke="black" fill="green"/>
  <circle cx="559.124" cy="617.797" r="5.01724" stroke-width="0.5" stroke="black" fill="green"/>
   </g>
   <g id="cell104">
  <circle cx="549.813" cy="536.945" r="8.41233" stroke-width="0.5" stroke="black" fill="green"/>
  <circle cx="549.813" cy="536.945" r="5.05159" stroke-width="0.5" stroke="black" fill="green"/>
   </g>
   <g id="cell105">
  <circle cx="414.385" cy="494.964" r="8.41227" stroke-width="0.5" stroke="black" fill="green"/>
  <circle cx="414.385" cy="494.964" r="5.05157" stroke-width="0.5" stroke="black" fill="green"/>
   </g>
   <g id="cell106">
  <circle cx="651.145" cy="528.816" r="8.28963" stroke-width="0.5" stroke="black" fill="green"/>
  <circle cx="651.145" cy="528.816" r="4.99951" stroke-width="0.5" stroke="black" fill="green"/>
   </g>
   <g id="cell107">
  <circle cx="383.406" cy="510.7" r="8.41217" stroke-width="0.5" stroke="black" fill="cyan"/>
  <circle cx="383.406" cy="510.7" r="5.05154" stroke-width="0.5" stroke="black" fill="cyan"/>
   </g>
   <g id="cell108">
  <circle cx="460.907" cy="643.457" r="8.41202" stroke-width="0.5" stroke="black" fill="magenta"/>
  <circle cx="460.907" cy="643.457" r="5.05151" stroke-width="0.5" stroke="black" fill="magenta"/>
   </g>
   <g id="cell109">
  <circle cx="447.034" cy="637.376" r="8.41202" stroke-width="0.5" stroke="black" fill="magenta"/>
  <circle cx="447.034" cy="637.376" r="5.05151" stroke-width="0.5" stroke="black" fill="magenta"/>
   </g>
   <g id="cell110">
  <circle cx="531.356" cy="565.569" r="6.75219" stroke-width="0.5" stroke="black" fill="green"/>
  <circle cx="531.356" cy="565.569" r="4.10474" stroke-width="0.5" stroke="black" fill="green"/>
   </g>
   <g id="cell111">
  <circle cx="628.242" cy="560.336" r="8.4119" stroke-width="0.5" stroke="black" fill="green"/>
  <circle cx="628.242" cy="560.336" r="5.05148" stroke-width="0.5" stroke="black" fill="green"/>
   </g>
   <g id="cell112">
  <circle cx="378.89" cy="573.605" r="8.41199" stroke-width="0.5" stroke="black" fill="magenta"/>
  <circle cx="378.89" cy="573.605" r="5.0515" stroke-width="0.5" stroke="black" fill="magenta"/>
   </g>
   <g id="cell113">
  <circle cx="418.035" cy="479.027" r="8.41194" stroke-width="0.5" stroke="black" fill="green"/>
  <circle cx="418.035" cy="479.027" r="5.05149" stroke-width="0.5" stroke="black" fill="green"/>
   </g>
   <g id="cell114">
  <circle cx="497.729" cy="454.262" r="8.40819" stroke-width="0.5" stroke="black" fill="magenta"/>
  <circle cx="497.729" cy="454.262" r="5.0504" stroke-width="0.5" stroke="black" fill="magenta"/>
   </g>
   <g id="cell115">
  <circle cx="453.782" cy="526.534" r="8.41172" stroke-width="0.5" stroke="black" fill="green"/>
  <circle cx="453.782" cy="526.534" r="5.05143" stroke-width="0.5" stroke="black" fill="green"/>
   </g>
   <g id="cell116">
  <circle cx="368.501" cy="516.86" r="8.41142" stroke-width="0.5" stroke="black" fill="cyan"/>
  <circle cx="368.501" cy="516.86" r="5.05135" stroke-width="0.5" stroke="black" fill="cyan"/>
   </g>
   <g id="cell173">
  <circle cx="539.999" cy="611.483" r="8.15634" stroke-width="0.5" stroke="black" fill="green"/>
  <circle cx="539.999" cy="611.483" r="4.93749" stroke-width="0.5" stroke="black" fill="green"/>
   </g>
   <g id="cell118">
  <circle cx="522.432" cy="524.284" r="8.33188" stroke-width="0.5" stroke="black" fill="cyan"/>
  <circle cx="522.432" cy="524.284" r="5.01924" stroke-width="0.5" stroke="black" fill="cyan"/>
   </g>
   <g id="cell119">
  <circle cx="523.748" cy="641.673" r="8.39917" stroke-width="0.5" stroke="black" fill="green"/>
  <circle cx="523.748" cy="641.673" r="5.04734" stroke-width="0.5" stroke="black" fill="green"/>
   </g>
   <g id="cell121">
  <circle cx="393.743" cy="553.292" r="7.61369" stroke-width="0.5" stroke="black" fill="magenta"/>
  <circle cx="393.743" cy="553.292" r="4.62733" stroke-width="0.5" stroke="black" fill="magenta"/>
   </g>
   <g id="cell122">
  <circle cx="615.123" cy="456.349" r="8.35794" stroke-width="0.5" stroke="black" fill="cyan"/>
  <circle cx="615.123" cy="456.349" r="5.03077" stroke-width="0.5" stroke="black" fill="cyan"/>
   </g>
   <g id="cell123">
  <circle cx="498.091" cy="644.516" r="8.41083" stroke-width="0.5" stroke="black" fill="cyan"/>
  <circle cx="498.091" cy="644.516" r="5.05118" stroke-width="0.5" stroke="black" fill="cyan"/>
   </g>
   <g id="cell124">
  <circle cx="377.629" cy="589.344" r="8.41078" stroke-width="0.5" stroke="black" fill="green"/>
  <circle cx="377.629" cy="589.344" r="5.05116" stroke-width="0.5" stroke="black" fill="green"/>
   </g>
   <g id="cell125">
  <circle cx="452.588" cy="454.474" r="7.11627" stroke-width="0.5" stroke="black" fill="cyan"/>
  <circle cx="452.588" cy="454.474" r="4.35538" stroke-width="0.5" stroke="black" fill="cyan"/>
   </g>
   <g id="cell126">
  <circle cx="408.234" cy="509.634" r="8.41001" stroke-width="0.5" stroke="black" fill="green"/>
  <circle cx="408.234" cy="509.634" r="5.05095" stroke-width="0.5" stroke="black" fill="green"/>
   </g>
   <g id="cell127">
  <circle cx="413.481" cy="594.914" r="8.41002" stroke-width="0.5" stroke="black" fill="cyan"/>
  <circle cx="413.481" cy="594.914" r="5.05093" stroke-width="0.5" stroke="black" fill="cyan"/>
   </g>
   <g id="cell128">
  <circle cx="348.676" cy="534.951" r="8.26505" stroke-width="0.5" stroke="black" fill="cyan"/>
  <circle cx="348.676" cy="534.951" r="4.98799" stroke-width="0.5" stroke="black" fill="cyan"/>
   </g>
   <g id="cell131">
  <circle cx="586.816" cy="545.158" r="7.93461" stroke-width="0.5" stroke="black" fill="cyan"/>
  <circle cx="586.816" cy="545.158" r="4.81314" stroke-width="0.5" stroke="black" fill="cyan"/>
   </g>
   <g id="cell132">
  <circle cx="508.345" cy="443.758" r="8.40819" stroke-width="0.5" stroke="black" fill="magenta"/>
  <circle cx="508.345" cy="443.758" r="5.0504" stroke-width="0.5" stroke="black" fill="magenta"/>
   </g>
   <g id="cell133">
  <circle cx="534.484" cy="409.829" r="8.40826" stroke-width="0.5" stroke="black" fill="magenta"/>
  <circle cx="534.484" cy="409.829" r="5.05039" stroke-width="0.5" stroke="black" fill="magenta"/>
   </g>
   <g id="cell134">
  <circle cx="512.384" cy="578.554" r="8.40136" stroke-width="0.5" stroke="black" fill="magenta"/>
  <circle cx="512.384" cy="578.554" r="5.04819" stroke-width="0.5" stroke="black" fill="magenta"/>
   </g>
   <g id="cell135">
  <circle cx="562.41" cy="481.878" r="8.40731" stroke-width="0.5" stroke="black" fill="cyan"/>
  <circle cx="562.41" cy="481.878" r="5.05008" stroke-width="0.5" stroke="black" fill="cyan"/>
   </g>
   <g id="cell137">
  <circle cx="374.84" cy="474.331" r="8.40514" stroke-width="0.5" stroke="black" fill="magenta"/>
  <circle cx="374.84" cy="474.331" r="5.04936" stroke-width="0.5" stroke="black" fill="magenta"/>
   </g>
   <g id="cell138">
  <circle cx="534.432" cy="593.25" r="8.37239" stroke-width="0.5" stroke="black" fill="magenta"/>
  <circle cx="534.432" cy="593.25" r="5.03751" stroke-width="0.5" stroke="black" fill="magenta"/>
   </g>
   <g id="cell139">
  <circle cx="500.377" cy="613.948" r="7.67363" stroke-width="0.5" stroke="black" fill="green"/>
  <circle cx="500.377" cy="613.948" r="4.66412" stroke-width="0.5" stroke="black" fill="green"/>
   </g>
   <g id="cell142">
  <circle cx="581.871" cy="382.009" r="8.39892" stroke-width="0.5" stroke="black" fill="magenta"/>
  <circle cx="581.871" cy="382.009" r="5.04731" stroke-width="0.5" stroke="black" fill="magenta"/>
   </g>
   <g id="cell143">
  <circle cx="531.507" cy="628.402" r="7.82238" stroke-width="0.5" stroke="black" fill="green"/>
  <circle cx="531.507" cy="628.402" r="4.75082" stroke-width="0.5" stroke="black" fill="green"/>
   </g>
   <g id="cell144">
  <circle cx="372.408" cy="544.934" r="8.39874" stroke-width="0.5" stroke="black" fill="magenta"/>
  <circle cx="372.408" cy="544.934" r="5.04711" stroke-width="0.5" stroke="black" fill="magenta"/>
   </g>
   <g id="cell145">
  <circle cx="457.527" cy="479.883" r="7.4466" stroke-width="0.5" stroke="black" fill="magenta"/>
  <circle cx="457.527" cy="479.883" r="4.54707" stroke-width="0.5" stroke="black" fill="magenta"/>
   </g>
   <g id="cell146">
  <circle cx="462.99" cy="416.515" r="8.39523" stroke-width="0.5" stroke="black" fill="cyan"/>
  <circle cx="462.99" cy="416.515" r="5.04581" stroke-width="0.5" stroke="black" fill="cyan"/>
   </g>
   <g id="cell148">
  <circle cx="401.782" cy="605.915" r="8.39125" stroke-width="0.5" stroke="black" fill="cyan"/>
  <circle cx="401.782" cy="605.915" r="5.04444" stroke-width="0.5" stroke="black" fill="cyan"/>
   </g>
   <g id="cell149">
  <circle cx="440.532" cy="535.731" r="8.38895" stroke-width="0.5" stroke="black" fill="green"/>
  <circle cx="440.532" cy="535.731" r="5.0435" stroke-width="0.5" stroke="black" fill="green"/>
   </g>
   <g id="cell150">
  <circle cx="473.389" cy="634.129" r="8.38818" stroke-width="0.5" stroke="black" fill="green"/>
  <circle cx="473.389" cy="634.129" r="5.04312" stroke-width="0.5" stroke="black" fill="green"/>
   </g>
   <g id="cell151">
  <circle cx="520.846" cy="508.628" r="8.38753" stroke-width="0.5" stroke="black" fill="cyan"/>
  <circle cx="520.846" cy="508.628" r="5.04286" stroke-width="0.5" stroke="black" fill="cyan"/>
   </g>
   <g id="cell152">
  <circle cx="642.799" cy="553.707" r="8.38491" stroke-width="0.5" stroke="black" fill="green"/>
  <circle cx="642.799" cy="553.707" r="5.04189" stroke-width="0.5" stroke="black" fill="green"/>
   </g>
   <g id="cell153">
  <circle cx="395.489" cy="521.334" r="8.38278" stroke-width="0.5" stroke="black" fill="cyan"/>
  <circle cx="395.489" cy="521.334" r="5.0412" stroke-width="0.5" stroke="black" fill="cyan"/>
   </g>
   <g id="cell154">
  <circle cx="588.315" cy="502.32" r="8.22438" stroke-width="0.5" stroke="black" fill="magenta"/>
  <circle cx="588.315" cy="502.32" r="4.96961" stroke-width="0.5" stroke="black" fill="magenta"/>
   </g>
   <g id="cell156">
  <circle cx="406.029" cy="559.788" r="8.33564" stroke-width="0.5" stroke="black" fill="green"/>
  <circle cx="406.029" cy="559.788" r="5.02225" stroke-width="0.5" stroke="black" fill="green"/>
   </g>
   <g id="cell157">
  <circle cx="388.392" cy="481.007" r="8.36939" stroke-width="0.5" stroke="black" fill="magenta"/>
  <circle cx="388.392" cy="481.007" r="5.03592" stroke-width="0.5" stroke="black" fill="magenta"/>
   </g>
   <g id="cell158">
  <circle cx="428.063" cy="465.075" r="7.42822" stroke-width="0.5" stroke="black" fill="green"/>
  <circle cx="428.063" cy="465.075" r="4.52405" stroke-width="0.5" stroke="black" fill="green"/>
   </g>
   <g id="cell159">
  <circle cx="438.322" cy="454.441" r="8.34864" stroke-width="0.5" stroke="black" fill="green"/>
  <circle cx="438.322" cy="454.441" r="5.02779" stroke-width="0.5" stroke="black" fill="green"/>
   </g>
   <g id="cell160">
  <circle cx="420.619" cy="562.38" r="8.3432" stroke-width="0.5" stroke="black" fill="green"/>
  <circle cx="420.619" cy="562.38" r="5.02549" stroke-width="0.5" stroke="black" fill="green"/>
   </g>
   <g id="cell161">
  <circle cx="527.488" cy="462.009" r="8.36312" stroke-width="0.5" stroke="black" fill="cyan"/>
  <circle cx="527.488" cy="462.009" r="5.03286" stroke-width="0.5" stroke="black" fill="cyan"/>
   </g>
   <g id="cell162">
  <circle cx="616.667" cy="471.96" r="8.35794" stroke-width="0.5" stroke="black" fill="cyan"/>
  <circle cx="616.667" cy="471.96" r="5.03077" stroke-width="0.5" stroke="black" fill="cyan"/>
   </g>
   <g id="cell163">
  <circle cx="430.223" cy="550.014" r="8.32375" stroke-width="0.5" stroke="black" fill="green"/>
  <circle cx="430.223" cy="550.014" r="5.01779" stroke-width="0.5" stroke="black" fill="green"/>
   </g>
   <g id="cell164">
  <circle cx="467.982" cy="471.725" r="7.29516" stroke-width="0.5" stroke="black" fill="cyan"/>
  <circle cx="467.982" cy="471.725" r="4.44081" stroke-width="0.5" stroke="black" fill="cyan"/>
   </g>
   <g id="cell165">
  <circle cx="414.402" cy="546.524" r="8.33564" stroke-width="0.5" stroke="black" fill="green"/>
  <circle cx="414.402" cy="546.524" r="5.02225" stroke-width="0.5" stroke="black" fill="green"/>
   </g>
   <g id="cell166">
  <circle cx="604.302" cy="495.652" r="8.35234" stroke-width="0.5" stroke="black" fill="green"/>
  <circle cx="604.302" cy="495.652" r="5.0282" stroke-width="0.5" stroke="black" fill="green"/>
   </g>
   <g id="cell167">
  <circle cx="467.11" cy="387.083" r="8.35236" stroke-width="0.5" stroke="black" fill="green"/>
  <circle cx="467.11" cy="387.083" r="5.02821" stroke-width="0.5" stroke="black" fill="green"/>
   </g>
   <g id="cell168">
  <circle cx="519.739" cy="406.532" r="8.34837" stroke-width="0.5" stroke="black" fill="magenta"/>
  <circle cx="519.739" cy="406.532" r="5.0268" stroke-width="0.5" stroke="black" fill="magenta"/>
   </g>
   <g id="cell169">
  <circle cx="466.135" cy="431.281" r="8.06924" stroke-width="0.5" stroke="black" fill="magenta"/>
  <circle cx="466.135" cy="431.281" r="4.89599" stroke-width="0.5" stroke="black" fill="magenta"/>
   </g>
   <g id="cell170">
  <circle cx="630.724" cy="488.716" r="8.34115" stroke-width="0.5" stroke="black" fill="green"/>
  <circle cx="630.724" cy="488.716" r="5.02327" stroke-width="0.5" stroke="black" fill="green"/>
   </g>
   <g id="cell171">
  <circle cx="536.366" cy="530.329" r="8.33188" stroke-width="0.5" stroke="black" fill="cyan"/>
  <circle cx="536.366" cy="530.329" r="5.01924" stroke-width="0.5" stroke="black" fill="cyan"/>
   </g>
   <g id="cell172">
  <circle cx="508.131" cy="518.673" r="8.31505" stroke-width="0.5" stroke="black" fill="cyan"/>
  <circle cx="508.131" cy="518.673" r="5.01278" stroke-width="0.5" stroke="black" fill="cyan"/>
   </g>
   <g id="cell175">
  <circle cx="639.441" cy="538.646" r="7.86815" stroke-width="0.5" stroke="black" fill="green"/>
  <circle cx="639.441" cy="538.646" r="4.78435" stroke-width="0.5" stroke="black" fill="green"/>
   </g>
   <g id="cell177">
  <circle cx="364.093" cy="532.151" r="8.26505" stroke-width="0.5" stroke="black" fill="cyan"/>
  <circle cx="364.093" cy="532.151" r="4.98799" stroke-width="0.5" stroke="black" fill="cyan"/>
   </g>
   <g id="cell178">
  <circle cx="483.589" cy="449.937" r="8.22977" stroke-width="0.5" stroke="black" fill="magenta"/>
  <circle cx="483.589" cy="449.937" r="4.97409" stroke-width="0.5" stroke="black" fill="magenta"/>
   </g>
   <g id="cell179">
  <circle cx="443.674" cy="499.795" r="8.22065" stroke-width="0.5" stroke="black" fill="cyan"/>
  <circle cx="443.674" cy="499.795" r="4.96889" stroke-width="0.5" stroke="black" fill="cyan"/>
   </g>
   <g id="cell180">
  <circle cx="591.274" cy="488.186" r="8.22438" stroke-width="0.5" stroke="black" fill="magenta"/>
  <circle cx="591.274" cy="488.186" r="4.96961" stroke-width="0.5" stroke="black" fill="magenta"/>
   </g>
   <g id="cell181">
  <circle cx="546.559" cy="584.188" r="8.21797" stroke-width="0.5" stroke="black" fill="green"/>
  <circle cx="546.559" cy="584.188" r="4.96438" stroke-width="0.5" stroke="black" fill="green"/>
   </g>
   <g id="cell182">
  <circle cx="454.993" cy="467.162" r="7.19925" stroke-width="0.5" stroke="black" fill="cyan"/>
  <circle cx="454.993" cy="467.162" r="4.40488" stroke-width="0.5" stroke="black" fill="cyan"/>
   </g>
   <g id="cell183">
  <circle cx="525.123" cy="381.302" r="8.20679" stroke-width="0.5" stroke="black" fill="magenta"/>
  <circle cx="525.123" cy="381.302" r="4.95865" stroke-width="0.5" stroke="black" fill="magenta"/>
   </g>
   <g id="cell184">
  <circle cx="549" cy="599.163" r="8.15634" stroke-width="0.5" stroke="black" fill="green"/>
  <circle cx="549" cy="599.163" r="4.93749" stroke-width="0.5" stroke="black" fill="green"/>
   </g>
   <g id="cell185">
  <circle cx="417.483" cy="522.054" r="8.06416" stroke-width="0.5" stroke="black" fill="green"/>
  <circle cx="417.483" cy="522.054" r="4.89202" stroke-width="0.5" stroke="black" fill="green"/>
   </g>
   <g id="cell186">
  <circle cx="605.785" cy="523.222" r="8.02774" stroke-width="0.5" stroke="black" fill="cyan"/>
  <circle cx="605.785" cy="523.222" r="4.87319" stroke-width="0.5" stroke="black" fill="cyan"/>
   </g>
   <g id="cell187">
  <circle cx="469.656" cy="486.235" r="8.17396" stroke-width="0.5" stroke="black" fill="magenta"/>
  <circle cx="469.656" cy="486.235" r="4.94323" stroke-width="0.5" stroke="black" fill="magenta"/>
   </g>
   <g id="cell188">
  <circle cx="617.493" cy="532.807" r="8.05767" stroke-width="0.5" stroke="black" fill="cyan"/>
  <circle cx="617.493" cy="532.807" r="4.88871" stroke-width="0.5" stroke="black" fill="cyan"/>
   </g>
   <g id="cell189">
  <circle cx="424.984" cy="535.428" r="8.06416" stroke-width="0.5" stroke="black" fill="green"/>
  <circle cx="424.984" cy="535.428" r="4.89202" stroke-width="0.5" stroke="black" fill="green"/>
   </g>
   <g id="cell190">
  <circle cx="425.679" cy="406.683" r="7.07259" stroke-width="0.5" stroke="black" fill="green"/>
  <circle cx="425.679" cy="406.683" r="4.31959" stroke-width="0.5" stroke="black" fill="green"/>
   </g>
   <g id="cell191">
  <circle cx="480.029" cy="435.703" r="8.06924" stroke-width="0.5" stroke="black" fill="magenta"/>
  <circle cx="480.029" cy="435.703" r="4.89599" stroke-width="0.5" stroke="black" fill="magenta"/>
   </g>
   <g id="cell192">
  <circle cx="615.639" cy="513.8" r="6.95256" stroke-width="0.5" stroke="black" fill="cyan"/>
  <circle cx="615.639" cy="513.8" r="4.25768" stroke-width="0.5" stroke="black" fill="cyan"/>
   </g>
   <g id="cell193">
  <circle cx="589.128" cy="473.26" r="8.12916" stroke-width="0.5" stroke="black" fill="cyan"/>
  <circle cx="589.128" cy="473.26" r="4.91869" stroke-width="0.5" stroke="black" fill="cyan"/>
   </g>
   <g id="cell194">
  <circle cx="445.874" cy="622.535" r="8.12143" stroke-width="0.5" stroke="black" fill="magenta"/>
  <circle cx="445.874" cy="622.535" r="4.91448" stroke-width="0.5" stroke="black" fill="magenta"/>
   </g>
   <g id="cell195">
  <circle cx="565.947" cy="522.505" r="8.10231" stroke-width="0.5" stroke="black" fill="cyan"/>
  <circle cx="565.947" cy="522.505" r="4.90476" stroke-width="0.5" stroke="black" fill="cyan"/>
   </g>
   <g id="cell196">
  <circle cx="506.107" cy="503.53" r="8.04298" stroke-width="0.5" stroke="black" fill="cyan"/>
  <circle cx="506.107" cy="503.53" r="4.87948" stroke-width="0.5" stroke="black" fill="cyan"/>
   </g>
   <g id="cell197">
  <circle cx="455.505" cy="441.213" r="7.98774" stroke-width="0.5" stroke="black" fill="cyan"/>
  <circle cx="455.505" cy="441.213" r="4.8424" stroke-width="0.5" stroke="black" fill="cyan"/>
   </g>
   <g id="cell198">
  <circle cx="559.368" cy="568.506" r="7.96365" stroke-width="0.5" stroke="black" fill="cyan"/>
  <circle cx="559.368" cy="568.506" r="4.82873" stroke-width="0.5" stroke="black" fill="cyan"/>
   </g>
   <g id="cell199">
  <circle cx="626.062" cy="545.116" r="7.86815" stroke-width="0.5" stroke="black" fill="green"/>
  <circle cx="626.062" cy="545.116" r="4.78435" stroke-width="0.5" stroke="black" fill="green"/>
   </g>
   <g id="cell200">
  <circle cx="594.753" cy="532.192" r="7.93461" stroke-width="0.5" stroke="black" fill="cyan"/>
  <circle cx="594.753" cy="532.192" r="4.81314" stroke-width="0.5" stroke="black" fill="cyan"/>
   </g>
   <g id="cell201">
  <circle cx="394.65" cy="494.882" r="7.88407" stroke-width="0.5" stroke="black" fill="magenta"/>
  <circle cx="394.65" cy="494.882" r="4.78878" stroke-width="0.5" stroke="black" fill="magenta"/>
   </g>
   <g id="cell202">
  <circle cx="481.919" cy="592.371" r="3.0877" stroke-width="0.5" stroke="black" fill="green"/>
  <circle cx="481.919" cy="592.371" r="2.43275" stroke-width="0.5" stroke="black" fill="black"/>
   </g>
   <g id="cell203">
  <circle cx="545.939" cy="625.396" r="7.82238" stroke-width="0.5" stroke="black" fill="green"/>
  <circle cx="545.939" cy="625.396" r="4.75082" stroke-width="0.5" stroke="black" fill="green"/>
   </g>
   <g id="cell204">
  <circle cx="362.862" cy="466.097" r="7.81313" stroke-width="0.5" stroke="black" fill="magenta"/>
  <circle cx="362.862" cy="466.097" r="4.74366" stroke-width="0.5" stroke="black" fill="magenta"/>
   </g>
   <g id="cell205">
  <circle cx="510.604" cy="603.661" r="7.67363" stroke-width="0.5" stroke="black" fill="green"/>
  <circle cx="510.604" cy="603.661" r="4.66412" stroke-width="0.5" stroke="black" fill="green"/>
   </g>
   <g id="cell206">
  <circle cx="365.778" cy="557.698" r="7.65028" stroke-width="0.5" stroke="black" fill="magenta"/>
  <circle cx="365.778" cy="557.698" r="4.6508" stroke-width="0.5" stroke="black" fill="magenta"/>
   </g>
   <g id="cell207">
  <circle cx="385.653" cy="534.938" r="6.17006" stroke-width="0.5" stroke="black" fill="magenta"/>
  <circle cx="385.653" cy="534.938" r="3.76297" stroke-width="0.5" stroke="black" fill="magenta"/>
   </g>
   <g id="cell208">
  <circle cx="603.336" cy="480.284" r="7.55485" stroke-width="0.5" stroke="black" fill="green"/>
  <circle cx="603.336" cy="480.284" r="4.59914" stroke-width="0.5" stroke="black" fill="green"/>
   </g>
   <g id="cell209">
  <circle cx="456.672" cy="493.021" r="7.4466" stroke-width="0.5" stroke="black" fill="magenta"/>
  <circle cx="456.672" cy="493.021" r="4.54707" stroke-width="0.5" stroke="black" fill="magenta"/>
   </g>
   <g id="cell210">
  <circle cx="432.188" cy="478.147" r="7.42822" stroke-width="0.5" stroke="black" fill="green"/>
  <circle cx="432.188" cy="478.147" r="4.52405" stroke-width="0.5" stroke="black" fill="green"/>
   </g>
   <g id="cell211">
  <circle cx="516.603" cy="472.264" r="7.44242" stroke-width="0.5" stroke="black" fill="cyan"/>
  <circle cx="516.603" cy="472.264" r="4.52373" stroke-width="0.5" stroke="black" fill="cyan"/>
   </g>
   <g id="cell212">
  <circle cx="443.993" cy="391.373" r="6.64968" stroke-width="0.5" stroke="black" fill="green"/>
  <circle cx="443.993" cy="391.373" r="4.09408" stroke-width="0.5" stroke="black" fill="green"/>
   </g>
   <g id="cell213">
  <circle cx="441.758" cy="468.78" r="7.19925" stroke-width="0.5" stroke="black" fill="cyan"/>
  <circle cx="441.758" cy="468.78" r="4.40488" stroke-width="0.5" stroke="black" fill="cyan"/>
   </g>
   <g id="cell214">
  <circle cx="465.276" cy="458.686" r="7.11627" stroke-width="0.5" stroke="black" fill="cyan"/>
  <circle cx="465.276" cy="458.686" r="4.35538" stroke-width="0.5" stroke="black" fill="cyan"/>
   </g>
   <g id="cell215">
  <circle cx="455.685" cy="395.309" r="6.64968" stroke-width="0.5" stroke="black" fill="green"/>
  <circle cx="455.685" cy="395.309" r="4.09408" stroke-width="0.5" stroke="black" fill="green"/>
   </g>
   <g id="cell216">
  <circle cx="480.541" cy="476.535" r="7.29516" stroke-width="0.5" stroke="black" fill="cyan"/>
  <circle cx="480.541" cy="476.535" r="4.44081" stroke-width="0.5" stroke="black" fill="cyan"/>
   </g>
   <g id="cell217">
  <circle cx="431.767" cy="395.009" r="7.07259" stroke-width="0.5" stroke="black" fill="green"/>
  <circle cx="431.767" cy="395.009" r="4.31959" stroke-width="0.5" stroke="black" fill="green"/>
   </g>
   <g id="cell218">
  <circle cx="540.026" cy="454.301" r="7.1782" stroke-width="0.5" stroke="black" fill="cyan"/>
  <circle cx="540.026" cy="454.301" r="4.36661" stroke-width="0.5" stroke="black" fill="cyan"/>
   </g>
   <g id="cell219">
  <circle cx="603.215" cy="509.554" r="6.95256" stroke-width="0.5" stroke="black" fill="cyan"/>
  <circle cx="603.215" cy="509.554" r="4.25768" stroke-width="0.5" stroke="black" fill="cyan"/>
   </g>
   <g id="cell220">
  <circle cx="497.255" cy="600.529" r="7.14636" stroke-width="0.5" stroke="black" fill="magenta"/>
  <circle cx="497.255" cy="600.529" r="4.33896" stroke-width="0.5" stroke="black" fill="magenta"/>
   </g>
   <g id="cell222">
  <circle cx="560.984" cy="544.827" r="7.08616" stroke-width="0.5" stroke="black" fill="cyan"/>
  <circle cx="560.984" cy="544.827" r="4.2987" stroke-width="0.5" stroke="black" fill="cyan"/>
   </g>
   <g id="cell223">
  <circle cx="455.603" cy="506.979" r="7.02232" stroke-width="0.5" stroke="black" fill="green"/>
  <circle cx="455.603" cy="506.979" r="4.25638" stroke-width="0.5" stroke="black" fill="green"/>
   </g>
   <g id="cell224">
  <circle cx="371.978" cy="487.312" r="6.61123" stroke-width="0.5" stroke="black" fill="magenta"/>
  <circle cx="371.978" cy="487.312" r="4.04517" stroke-width="0.5" stroke="black" fill="magenta"/>
   </g>
   <g id="cell225">
  <circle cx="542.653" cy="571.046" r="6.75219" stroke-width="0.5" stroke="black" fill="green"/>
  <circle cx="542.653" cy="571.046" r="4.10474" stroke-width="0.5" stroke="black" fill="green"/>
   </g>
   <g id="cell226">
  <circle cx="384.824" cy="545.754" r="6.17006" stroke-width="0.5" stroke="black" fill="magenta"/>
  <circle cx="384.824" cy="545.754" r="3.76297" stroke-width="0.5" stroke="black" fill="magenta"/>
   </g>
   <g id="cell227">
  <circle cx="582.091" cy="533.323" r="6.46788" stroke-width="0.5" stroke="black" fill="cyan"/>
  <circle cx="582.091" cy="533.323" r="3.9191" stroke-width="0.5" stroke="black" fill="cyan"/>
   </g>
   <g id="cell228">
  <circle cx="447.197" cy="547.227" r="6.69288" stroke-width="0.5" stroke="black" fill="green"/>
  <circle cx="447.197" cy="547.227" r="4.02051" stroke-width="0.5" stroke="black" fill="green"/>
   </g>
  </g>
 </g>
  <rect x="775" y="1035" width="200" height="10" stroke-width="2" stroke="rgb(255,255,255)" fill="rgb(0,0,0)"/>
  <text x="781.25" y="1028.75"
   font-family="Arial" font-size="25" fill="black" >
   200 &#956;m
  </text>
  <text x="25" y="1045"
   font-family="Arial" font-size="18.75" fill="black" >
   0 days, 0 hours, 0 minutes, and 54.9256 seconds
  </text>
  <rect x="0" y="70" width="1000" height="1000" stroke-width="2" stroke="rgb(0,0,0)" fill="none"/>
</svg>
