<?xml version="1.0" encoding="UTF-8" standalone="no"?>
<!-- Created with PhysiCell (http://PhysiCell.MathCancer.org/) -->
<svg 
 xmlns:dc="http://purl.org/dc/elements/1.1/" 
 xmlns:cc="http://creativecommons.org/ns#" 
 xmlns:rdf="http://www.w3.org/1999/02/22-rdf-syntax-ns#" 
 xmlns:svg="http://www.w3.org/2000/svg" 
 xmlns="http://www.w3.org/2000/svg" 
 version="1.1" 
 width="1000" 
 height="1070" 
 id="svg2">
  <rect x="0" y="0" width="1000" height="1070" stroke-width="2" stroke="white" fill="white"/>
  <text x="12.5" y="30"
   font-family="Arial" font-size="25" fill="black" >
   Current time: 0 days, 4 hours, and 0.00 minutes, z = 0.00 &#956;m
  </text>
  <text x="12.5" y="57.5"
   font-family="Arial" font-size="23.75" fill="black" >
   84 agents
  </text>
 <g id="tissue" 
    transform="translate(0,1070) scale(1,-1)">
  <g id="ECM">
  </g>
  <g id="cells">
   <g id="cell0">
  <circle cx="521.122" cy="532.045" r="7.56839" stroke-width="0.5" stroke="black" fill="magenta"/>
  <circle cx="521.122" cy="532.045" r="4.59998" stroke-width="0.5" stroke="black" fill="magenta"/>
   </g>
   <g id="cell1">
  <circle cx="603.984" cy="529.561" r="8.41271" stroke-width="0.5" stroke="black" fill="magenta"/>
  <circle cx="603.984" cy="529.561" r="5.05167" stroke-width="0.5" stroke="black" fill="magenta"/>
   </g>
   <g id="cell2">
  <circle cx="510.885" cy="600.601" r="8.41271" stroke-width="0.5" stroke="black" fill="magenta"/>
  <circle cx="510.885" cy="600.601" r="5.05167" stroke-width="0.5" stroke="black" fill="magenta"/>
   </g>
   <g id="cell3">
  <circle cx="531.365" cy="543.881" r="8.41271" stroke-width="0.5" stroke="black" fill="magenta"/>
  <circle cx="531.365" cy="543.881" r="5.05167" stroke-width="0.5" stroke="black" fill="magenta"/>
   </g>
   <g id="cell4">
  <circle cx="474.819" cy="440.735" r="7.65871" stroke-width="0.5" stroke="black" fill="magenta"/>
  <circle cx="474.819" cy="440.735" r="4.6537" stroke-width="0.5" stroke="black" fill="magenta"/>
   </g>
   <g id="cell5">
  <circle cx="464.983" cy="493.296" r="8.41271" stroke-width="0.5" stroke="black" fill="magenta"/>
  <circle cx="464.983" cy="493.296" r="5.05167" stroke-width="0.5" stroke="black" fill="magenta"/>
   </g>
   <g id="cell6">
  <circle cx="593.977" cy="509.331" r="8.41271" stroke-width="0.5" stroke="black" fill="magenta"/>
  <circle cx="593.977" cy="509.331" r="5.05167" stroke-width="0.5" stroke="black" fill="magenta"/>
   </g>
   <g id="cell7">
  <circle cx="512.385" cy="464.882" r="8.41271" stroke-width="0.5" stroke="black" fill="magenta"/>
  <circle cx="512.385" cy="464.882" r="5.05167" stroke-width="0.5" stroke="black" fill="magenta"/>
   </g>
   <g id="cell8">
  <circle cx="375.891" cy="544.521" r="8.41271" stroke-width="0.5" stroke="black" fill="magenta"/>
  <circle cx="375.891" cy="544.521" r="5.05167" stroke-width="0.5" stroke="black" fill="magenta"/>
   </g>
   <g id="cell9">
  <circle cx="460.472" cy="599.786" r="8.41271" stroke-width="0.5" stroke="black" fill="magenta"/>
  <circle cx="460.472" cy="599.786" r="5.05167" stroke-width="0.5" stroke="black" fill="magenta"/>
   </g>
   <g id="cell10">
  <circle cx="583.447" cy="392.105" r="8.41271" stroke-width="0.5" stroke="black" fill="magenta"/>
  <circle cx="583.447" cy="392.105" r="5.05167" stroke-width="0.5" stroke="black" fill="magenta"/>
   </g>
   <g id="cell11">
  <circle cx="589.748" cy="590.273" r="8.41271" stroke-width="0.5" stroke="black" fill="magenta"/>
  <circle cx="589.748" cy="590.273" r="5.05167" stroke-width="0.5" stroke="black" fill="magenta"/>
   </g>
   <g id="cell12">
  <circle cx="506.664" cy="586.058" r="8.41271" stroke-width="0.5" stroke="black" fill="magenta"/>
  <circle cx="506.664" cy="586.058" r="5.05167" stroke-width="0.5" stroke="black" fill="magenta"/>
   </g>
   <g id="cell13">
  <circle cx="386.194" cy="568.228" r="8.41271" stroke-width="0.5" stroke="black" fill="magenta"/>
  <circle cx="386.194" cy="568.228" r="5.05167" stroke-width="0.5" stroke="black" fill="magenta"/>
   </g>
   <g id="cell14">
  <circle cx="528.346" cy="400.033" r="8.41271" stroke-width="0.5" stroke="black" fill="magenta"/>
  <circle cx="528.346" cy="400.033" r="5.05167" stroke-width="0.5" stroke="black" fill="magenta"/>
   </g>
   <g id="cell15">
  <circle cx="385.041" cy="477.736" r="7.61469" stroke-width="0.5" stroke="black" fill="magenta"/>
  <circle cx="385.041" cy="477.736" r="4.62762" stroke-width="0.5" stroke="black" fill="magenta"/>
   </g>
   <g id="cell16">
  <circle cx="428.96" cy="413.217" r="8.41271" stroke-width="0.5" stroke="black" fill="magenta"/>
  <circle cx="428.96" cy="413.217" r="5.05167" stroke-width="0.5" stroke="black" fill="magenta"/>
   </g>
   <g id="cell17">
  <circle cx="573.268" cy="489.761" r="8.41271" stroke-width="0.5" stroke="black" fill="magenta"/>
  <circle cx="573.268" cy="489.761" r="5.05167" stroke-width="0.5" stroke="black" fill="magenta"/>
   </g>
   <g id="cell18">
  <circle cx="512.746" cy="390.118" r="7.70049" stroke-width="0.5" stroke="black" fill="magenta"/>
  <circle cx="512.746" cy="390.118" r="4.67828" stroke-width="0.5" stroke="black" fill="magenta"/>
   </g>
   <g id="cell19">
  <circle cx="451.991" cy="536.583" r="8.41271" stroke-width="0.5" stroke="black" fill="magenta"/>
  <circle cx="451.991" cy="536.583" r="5.05167" stroke-width="0.5" stroke="black" fill="magenta"/>
   </g>
   <g id="cell20">
  <circle cx="530.927" cy="415.031" r="8.41271" stroke-width="0.5" stroke="black" fill="magenta"/>
  <circle cx="530.927" cy="415.031" r="5.05167" stroke-width="0.5" stroke="black" fill="magenta"/>
   </g>
   <g id="cell21">
  <circle cx="464.368" cy="634.574" r="8.41271" stroke-width="0.5" stroke="black" fill="magenta"/>
  <circle cx="464.368" cy="634.574" r="5.05167" stroke-width="0.5" stroke="black" fill="magenta"/>
   </g>
   <g id="cell22">
  <circle cx="559.464" cy="492.779" r="7.3599" stroke-width="0.5" stroke="black" fill="magenta"/>
  <circle cx="559.464" cy="492.779" r="4.47294" stroke-width="0.5" stroke="black" fill="magenta"/>
   </g>
   <g id="cell23">
  <circle cx="537.418" cy="481.857" r="8.41271" stroke-width="0.5" stroke="black" fill="magenta"/>
  <circle cx="537.418" cy="481.857" r="5.05167" stroke-width="0.5" stroke="black" fill="magenta"/>
   </g>
   <g id="cell24">
  <circle cx="559.288" cy="379.787" r="8.41271" stroke-width="0.5" stroke="black" fill="magenta"/>
  <circle cx="559.288" cy="379.787" r="5.05167" stroke-width="0.5" stroke="black" fill="magenta"/>
   </g>
   <g id="cell25">
  <circle cx="640.943" cy="550.03" r="8.41271" stroke-width="0.5" stroke="black" fill="green"/>
  <circle cx="640.943" cy="550.03" r="5.05167" stroke-width="0.5" stroke="black" fill="green"/>
   </g>
   <g id="cell26">
  <circle cx="550.647" cy="401.23" r="8.41271" stroke-width="0.5" stroke="black" fill="green"/>
  <circle cx="550.647" cy="401.23" r="5.05167" stroke-width="0.5" stroke="black" fill="green"/>
   </g>
   <g id="cell27">
  <circle cx="457.446" cy="388.678" r="8.41271" stroke-width="0.5" stroke="black" fill="green"/>
  <circle cx="457.446" cy="388.678" r="5.05167" stroke-width="0.5" stroke="black" fill="green"/>
   </g>
   <g id="cell28">
  <circle cx="437.415" cy="531.023" r="8.41271" stroke-width="0.5" stroke="black" fill="green"/>
  <circle cx="437.415" cy="531.023" r="5.05167" stroke-width="0.5" stroke="black" fill="green"/>
   </g>
   <g id="cell29">
  <circle cx="450.002" cy="521.109" r="8.41271" stroke-width="0.5" stroke="black" fill="green"/>
  <circle cx="450.002" cy="521.109" r="5.05167" stroke-width="0.5" stroke="black" fill="green"/>
   </g>
   <g id="cell30">
  <circle cx="481.58" cy="540.282" r="8.41271" stroke-width="0.5" stroke="black" fill="green"/>
  <circle cx="481.58" cy="540.282" r="5.05167" stroke-width="0.5" stroke="black" fill="green"/>
   </g>
   <g id="cell31">
  <circle cx="412.757" cy="541.193" r="8.41271" stroke-width="0.5" stroke="black" fill="green"/>
  <circle cx="412.757" cy="541.193" r="5.05167" stroke-width="0.5" stroke="black" fill="green"/>
   </g>
   <g id="cell32">
  <circle cx="426.274" cy="473.833" r="8.41271" stroke-width="0.5" stroke="black" fill="green"/>
  <circle cx="426.274" cy="473.833" r="5.05167" stroke-width="0.5" stroke="black" fill="green"/>
   </g>
   <g id="cell33">
  <circle cx="497.852" cy="416.057" r="6.75639" stroke-width="0.5" stroke="black" fill="green"/>
  <circle cx="497.852" cy="416.057" r="4.06813" stroke-width="0.5" stroke="black" fill="green"/>
   </g>
   <g id="cell34">
  <circle cx="397.088" cy="450.831" r="8.41271" stroke-width="0.5" stroke="black" fill="green"/>
  <circle cx="397.088" cy="450.831" r="5.05167" stroke-width="0.5" stroke="black" fill="green"/>
   </g>
   <g id="cell35">
  <circle cx="547.434" cy="544.969" r="8.41271" stroke-width="0.5" stroke="black" fill="green"/>
  <circle cx="547.434" cy="544.969" r="5.05167" stroke-width="0.5" stroke="black" fill="green"/>
   </g>
   <g id="cell36">
  <circle cx="391.486" cy="582.903" r="8.41271" stroke-width="0.5" stroke="black" fill="green"/>
  <circle cx="391.486" cy="582.903" r="5.05167" stroke-width="0.5" stroke="black" fill="green"/>
   </g>
   <g id="cell37">
  <circle cx="634.871" cy="460.618" r="8.41271" stroke-width="0.5" stroke="black" fill="green"/>
  <circle cx="634.871" cy="460.618" r="5.05167" stroke-width="0.5" stroke="black" fill="green"/>
   </g>
   <g id="cell38">
  <circle cx="536.15" cy="601.897" r="8.41271" stroke-width="0.5" stroke="black" fill="green"/>
  <circle cx="536.15" cy="601.897" r="5.05167" stroke-width="0.5" stroke="black" fill="green"/>
   </g>
   <g id="cell39">
  <circle cx="617.111" cy="494.034" r="7.51976" stroke-width="0.5" stroke="black" fill="green"/>
  <circle cx="617.111" cy="494.034" r="4.57072" stroke-width="0.5" stroke="black" fill="green"/>
   </g>
   <g id="cell40">
  <circle cx="485.348" cy="571.779" r="8.41271" stroke-width="0.5" stroke="black" fill="green"/>
  <circle cx="485.348" cy="571.779" r="5.05167" stroke-width="0.5" stroke="black" fill="green"/>
   </g>
   <g id="cell41">
  <circle cx="364.04" cy="480.065" r="8.41271" stroke-width="0.5" stroke="black" fill="green"/>
  <circle cx="364.04" cy="480.065" r="5.05167" stroke-width="0.5" stroke="black" fill="green"/>
   </g>
   <g id="cell42">
  <circle cx="444.303" cy="491.924" r="7.41548" stroke-width="0.5" stroke="black" fill="green"/>
  <circle cx="444.303" cy="491.924" r="4.50723" stroke-width="0.5" stroke="black" fill="green"/>
   </g>
   <g id="cell43">
  <circle cx="558.031" cy="445.575" r="8.41271" stroke-width="0.5" stroke="black" fill="green"/>
  <circle cx="558.031" cy="445.575" r="5.05167" stroke-width="0.5" stroke="black" fill="green"/>
   </g>
   <g id="cell44">
  <circle cx="475.857" cy="624.021" r="8.41271" stroke-width="0.5" stroke="black" fill="green"/>
  <circle cx="475.857" cy="624.021" r="5.05167" stroke-width="0.5" stroke="black" fill="green"/>
   </g>
   <g id="cell45">
  <circle cx="414.953" cy="557.066" r="8.41271" stroke-width="0.5" stroke="black" fill="green"/>
  <circle cx="414.953" cy="557.066" r="5.05167" stroke-width="0.5" stroke="black" fill="green"/>
   </g>
   <g id="cell46">
  <circle cx="522.767" cy="610.71" r="8.41271" stroke-width="0.5" stroke="black" fill="green"/>
  <circle cx="522.767" cy="610.71" r="5.05167" stroke-width="0.5" stroke="black" fill="green"/>
   </g>
   <g id="cell47">
  <circle cx="504.364" cy="508.028" r="8.41271" stroke-width="0.5" stroke="black" fill="green"/>
  <circle cx="504.364" cy="508.028" r="5.05167" stroke-width="0.5" stroke="black" fill="green"/>
   </g>
   <g id="cell48">
  <circle cx="564.51" cy="602.792" r="8.41271" stroke-width="0.5" stroke="black" fill="green"/>
  <circle cx="564.51" cy="602.792" r="5.05167" stroke-width="0.5" stroke="black" fill="green"/>
   </g>
   <g id="cell49">
  <circle cx="429.826" cy="397.641" r="8.41271" stroke-width="0.5" stroke="black" fill="green"/>
  <circle cx="429.826" cy="397.641" r="5.05167" stroke-width="0.5" stroke="black" fill="green"/>
   </g>
   <g id="cell50">
  <circle cx="517.819" cy="517.092" r="8.41271" stroke-width="0.5" stroke="black" fill="cyan"/>
  <circle cx="517.819" cy="517.092" r="5.05167" stroke-width="0.5" stroke="black" fill="cyan"/>
   </g>
   <g id="cell51">
  <circle cx="398.721" cy="597.201" r="8.41271" stroke-width="0.5" stroke="black" fill="cyan"/>
  <circle cx="398.721" cy="597.201" r="5.05167" stroke-width="0.5" stroke="black" fill="cyan"/>
   </g>
   <g id="cell52">
  <circle cx="522.85" cy="428.418" r="8.41271" stroke-width="0.5" stroke="black" fill="cyan"/>
  <circle cx="522.85" cy="428.418" r="5.05167" stroke-width="0.5" stroke="black" fill="cyan"/>
   </g>
   <g id="cell53">
  <circle cx="571.029" cy="436.195" r="8.41271" stroke-width="0.5" stroke="black" fill="cyan"/>
  <circle cx="571.029" cy="436.195" r="5.05167" stroke-width="0.5" stroke="black" fill="cyan"/>
   </g>
   <g id="cell54">
  <circle cx="478.872" cy="426.488" r="8.41271" stroke-width="0.5" stroke="black" fill="cyan"/>
  <circle cx="478.872" cy="426.488" r="5.05167" stroke-width="0.5" stroke="black" fill="cyan"/>
   </g>
   <g id="cell55">
  <circle cx="526.976" cy="470.356" r="8.41271" stroke-width="0.5" stroke="black" fill="cyan"/>
  <circle cx="526.976" cy="470.356" r="5.05167" stroke-width="0.5" stroke="black" fill="cyan"/>
   </g>
   <g id="cell56">
  <circle cx="617.78" cy="522.281" r="8.41271" stroke-width="0.5" stroke="black" fill="cyan"/>
  <circle cx="617.78" cy="522.281" r="5.05167" stroke-width="0.5" stroke="black" fill="cyan"/>
   </g>
   <g id="cell57">
  <circle cx="416.924" cy="617.466" r="8.41271" stroke-width="0.5" stroke="black" fill="cyan"/>
  <circle cx="416.924" cy="617.466" r="5.05167" stroke-width="0.5" stroke="black" fill="cyan"/>
   </g>
   <g id="cell58">
  <circle cx="552.878" cy="479.696" r="8.41271" stroke-width="0.5" stroke="black" fill="cyan"/>
  <circle cx="552.878" cy="479.696" r="5.05167" stroke-width="0.5" stroke="black" fill="cyan"/>
   </g>
   <g id="cell59">
  <circle cx="385.463" cy="439.803" r="8.41271" stroke-width="0.5" stroke="black" fill="cyan"/>
  <circle cx="385.463" cy="439.803" r="5.05167" stroke-width="0.5" stroke="black" fill="cyan"/>
   </g>
   <g id="cell60">
  <circle cx="593.509" cy="474.076" r="8.41271" stroke-width="0.5" stroke="black" fill="cyan"/>
  <circle cx="593.509" cy="474.076" r="5.05167" stroke-width="0.5" stroke="black" fill="cyan"/>
   </g>
   <g id="cell61">
  <circle cx="552.997" cy="613.938" r="8.41271" stroke-width="0.5" stroke="black" fill="cyan"/>
  <circle cx="552.997" cy="613.938" r="5.05167" stroke-width="0.5" stroke="black" fill="cyan"/>
   </g>
   <g id="cell62">
  <circle cx="526.149" cy="444.117" r="8.41271" stroke-width="0.5" stroke="black" fill="cyan"/>
  <circle cx="526.149" cy="444.117" r="5.05167" stroke-width="0.5" stroke="black" fill="cyan"/>
   </g>
   <g id="cell63">
  <circle cx="577.716" cy="546.471" r="8.41271" stroke-width="0.5" stroke="black" fill="cyan"/>
  <circle cx="577.716" cy="546.471" r="5.05167" stroke-width="0.5" stroke="black" fill="cyan"/>
   </g>
   <g id="cell64">
  <circle cx="509.962" cy="636.825" r="8.41271" stroke-width="0.5" stroke="black" fill="cyan"/>
  <circle cx="509.962" cy="636.825" r="5.05167" stroke-width="0.5" stroke="black" fill="cyan"/>
   </g>
   <g id="cell65">
  <circle cx="542.743" cy="467.233" r="8.41271" stroke-width="0.5" stroke="black" fill="cyan"/>
  <circle cx="542.743" cy="467.233" r="5.05167" stroke-width="0.5" stroke="black" fill="cyan"/>
   </g>
   <g id="cell66">
  <circle cx="535.606" cy="529.18" r="8.41271" stroke-width="0.5" stroke="black" fill="cyan"/>
  <circle cx="535.606" cy="529.18" r="5.05167" stroke-width="0.5" stroke="black" fill="cyan"/>
   </g>
   <g id="cell67">
  <circle cx="354.468" cy="492.885" r="8.41271" stroke-width="0.5" stroke="black" fill="cyan"/>
  <circle cx="354.468" cy="492.885" r="5.05167" stroke-width="0.5" stroke="black" fill="cyan"/>
   </g>
   <g id="cell68">
  <circle cx="562.417" cy="551.501" r="8.41271" stroke-width="0.5" stroke="black" fill="cyan"/>
  <circle cx="562.417" cy="551.501" r="5.05167" stroke-width="0.5" stroke="black" fill="cyan"/>
   </g>
   <g id="cell69">
  <circle cx="433.676" cy="460.376" r="7.72056" stroke-width="0.5" stroke="black" fill="cyan"/>
  <circle cx="433.676" cy="460.376" r="4.69003" stroke-width="0.5" stroke="black" fill="cyan"/>
   </g>
   <g id="cell70">
  <circle cx="577.422" cy="474.746" r="8.41271" stroke-width="0.5" stroke="black" fill="cyan"/>
  <circle cx="577.422" cy="474.746" r="5.05167" stroke-width="0.5" stroke="black" fill="cyan"/>
   </g>
   <g id="cell71">
  <circle cx="377.712" cy="520.989" r="8.41271" stroke-width="0.5" stroke="black" fill="cyan"/>
  <circle cx="377.712" cy="520.989" r="5.05167" stroke-width="0.5" stroke="black" fill="cyan"/>
   </g>
   <g id="cell72">
  <circle cx="533.423" cy="513.491" r="8.41271" stroke-width="0.5" stroke="black" fill="cyan"/>
  <circle cx="533.423" cy="513.491" r="5.05167" stroke-width="0.5" stroke="black" fill="cyan"/>
   </g>
   <g id="cell73">
  <circle cx="360.355" cy="545.935" r="8.41271" stroke-width="0.5" stroke="black" fill="cyan"/>
  <circle cx="360.355" cy="545.935" r="5.05167" stroke-width="0.5" stroke="black" fill="cyan"/>
   </g>
   <g id="cell74">
  <circle cx="542.019" cy="446.396" r="8.41271" stroke-width="0.5" stroke="black" fill="cyan"/>
  <circle cx="542.019" cy="446.396" r="5.05167" stroke-width="0.5" stroke="black" fill="cyan"/>
   </g>
   <g id="cell75">
  <circle cx="441.592" cy="472.726" r="7.72056" stroke-width="0.5" stroke="black" fill="cyan"/>
  <circle cx="441.592" cy="472.726" r="4.69003" stroke-width="0.5" stroke="black" fill="cyan"/>
   </g>
   <g id="cell76">
  <circle cx="525.82" cy="385.826" r="7.70049" stroke-width="0.5" stroke="black" fill="magenta"/>
  <circle cx="525.82" cy="385.826" r="4.67828" stroke-width="0.5" stroke="black" fill="magenta"/>
   </g>
   <g id="cell77">
  <circle cx="488.438" cy="439.88" r="7.65871" stroke-width="0.5" stroke="black" fill="magenta"/>
  <circle cx="488.438" cy="439.88" r="4.6537" stroke-width="0.5" stroke="black" fill="magenta"/>
   </g>
   <g id="cell78">
  <circle cx="374.262" cy="469.299" r="7.61469" stroke-width="0.5" stroke="black" fill="magenta"/>
  <circle cx="374.262" cy="469.299" r="4.62762" stroke-width="0.5" stroke="black" fill="magenta"/>
   </g>
   <g id="cell79">
  <circle cx="507.92" cy="527.923" r="7.56839" stroke-width="0.5" stroke="black" fill="magenta"/>
  <circle cx="507.92" cy="527.923" r="4.59998" stroke-width="0.5" stroke="black" fill="magenta"/>
   </g>
   <g id="cell80">
  <circle cx="606.61" cy="484.235" r="7.51976" stroke-width="0.5" stroke="black" fill="green"/>
  <circle cx="606.61" cy="484.235" r="4.57072" stroke-width="0.5" stroke="black" fill="green"/>
   </g>
   <g id="cell81">
  <circle cx="431.376" cy="497.506" r="7.41548" stroke-width="0.5" stroke="black" fill="green"/>
  <circle cx="431.376" cy="497.506" r="4.50723" stroke-width="0.5" stroke="black" fill="green"/>
   </g>
   <g id="cell82">
  <circle cx="546.299" cy="492.828" r="7.3599" stroke-width="0.5" stroke="black" fill="magenta"/>
  <circle cx="546.299" cy="492.828" r="4.47294" stroke-width="0.5" stroke="black" fill="magenta"/>
   </g>
   <g id="cell83">
  <circle cx="493.066" cy="427.664" r="6.75639" stroke-width="0.5" stroke="black" fill="green"/>
  <circle cx="493.066" cy="427.664" r="4.06813" stroke-width="0.5" stroke="black" fill="green"/>
   </g>
  </g>
 </g>
  <rect x="775" y="1035" width="200" height="10" stroke-width="2" stroke="rgb(255,255,255)" fill="rgb(0,0,0)"/>
  <text x="781.25" y="1028.75"
   font-family="Arial" font-size="25" fill="black" >
   200 &#956;m
  </text>
  <text x="25" y="1045"
   font-family="Arial" font-size="18.75" fill="black" >
   0 days, 0 hours, 0 minutes, and 5.2781 seconds
  </text>
  <rect x="0" y="70" width="1000" height="1000" stroke-width="2" stroke="rgb(0,0,0)" fill="none"/>
</svg>
