<?xml version="1.0" encoding="UTF-8" standalone="no"?>
<!-- Created with PhysiCell (http://PhysiCell.MathCancer.org/) -->
<svg 
 xmlns:dc="http://purl.org/dc/elements/1.1/" 
 xmlns:cc="http://creativecommons.org/ns#" 
 xmlns:rdf="http://www.w3.org/1999/02/22-rdf-syntax-ns#" 
 xmlns:svg="http://www.w3.org/2000/svg" 
 xmlns="http://www.w3.org/2000/svg" 
 version="1.1" 
 width="1000" 
 height="1070" 
 id="svg2">
  <rect x="0" y="0" width="1000" height="1070" stroke-width="2" stroke="white" fill="white"/>
  <text x="12.5" y="30"
   font-family="Arial" font-size="25" fill="black" >
   Current time: 1 days, 11 hours, and 0.00 minutes, z = 0.00 &#956;m
  </text>
  <text x="12.5" y="57.5"
   font-family="Arial" font-size="23.75" fill="black" >
   191 agents
  </text>
 <g id="tissue" 
    transform="translate(0,1070) scale(1,-1)">
  <g id="ECM">
  </g>
  <g id="cells">
   <g id="cell0">
  <circle cx="510.904" cy="534.216" r="8.41257" stroke-width="0.5" stroke="black" fill="magenta"/>
  <circle cx="510.904" cy="534.216" r="5.05164" stroke-width="0.5" stroke="black" fill="magenta"/>
   </g>
   <g id="cell147">
  <circle cx="422.063" cy="575.821" r="8.34066" stroke-width="0.5" stroke="black" fill="green"/>
  <circle cx="422.063" cy="575.821" r="5.02315" stroke-width="0.5" stroke="black" fill="green"/>
   </g>
   <g id="cell2">
  <circle cx="503.094" cy="593.403" r="8.39316" stroke-width="0.5" stroke="black" fill="magenta"/>
  <circle cx="503.094" cy="593.403" r="5.04503" stroke-width="0.5" stroke="black" fill="magenta"/>
   </g>
   <g id="cell3">
  <circle cx="538.636" cy="545.45" r="8.38682" stroke-width="0.5" stroke="black" fill="magenta"/>
  <circle cx="538.636" cy="545.45" r="5.04258" stroke-width="0.5" stroke="black" fill="magenta"/>
   </g>
   <g id="cell4">
  <circle cx="452.732" cy="434.952" r="8.41259" stroke-width="0.5" stroke="black" fill="magenta"/>
  <circle cx="452.732" cy="434.952" r="5.05164" stroke-width="0.5" stroke="black" fill="magenta"/>
   </g>
   <g id="cell5">
  <circle cx="461.546" cy="494.908" r="8.35236" stroke-width="0.5" stroke="black" fill="magenta"/>
  <circle cx="461.546" cy="494.908" r="5.02821" stroke-width="0.5" stroke="black" fill="magenta"/>
   </g>
   <g id="cell6">
  <circle cx="596.45" cy="515.744" r="8.41227" stroke-width="0.5" stroke="black" fill="magenta"/>
  <circle cx="596.45" cy="515.744" r="5.05157" stroke-width="0.5" stroke="black" fill="magenta"/>
   </g>
   <g id="cell7">
  <circle cx="512.89" cy="464.516" r="8.41271" stroke-width="0.5" stroke="black" fill="magenta"/>
  <circle cx="512.89" cy="464.516" r="5.05167" stroke-width="0.5" stroke="black" fill="magenta"/>
   </g>
   <g id="cell8">
  <circle cx="364.748" cy="549.131" r="8.35568" stroke-width="0.5" stroke="black" fill="magenta"/>
  <circle cx="364.748" cy="549.131" r="5.02965" stroke-width="0.5" stroke="black" fill="magenta"/>
   </g>
   <g id="cell9">
  <circle cx="462.684" cy="601.853" r="8.41224" stroke-width="0.5" stroke="black" fill="magenta"/>
  <circle cx="462.684" cy="601.853" r="5.05156" stroke-width="0.5" stroke="black" fill="magenta"/>
   </g>
   <g id="cell10">
  <circle cx="588.283" cy="396.729" r="8.35652" stroke-width="0.5" stroke="black" fill="magenta"/>
  <circle cx="588.283" cy="396.729" r="5.03071" stroke-width="0.5" stroke="black" fill="magenta"/>
   </g>
   <g id="cell11">
  <circle cx="589.748" cy="590.273" r="8.41271" stroke-width="0.5" stroke="black" fill="magenta"/>
  <circle cx="589.748" cy="590.273" r="5.05167" stroke-width="0.5" stroke="black" fill="magenta"/>
   </g>
   <g id="cell12">
  <circle cx="495.438" cy="580.443" r="8.41271" stroke-width="0.5" stroke="black" fill="magenta"/>
  <circle cx="495.438" cy="580.443" r="5.05167" stroke-width="0.5" stroke="black" fill="magenta"/>
   </g>
   <g id="cell13">
  <circle cx="377.504" cy="558.339" r="8.40613" stroke-width="0.5" stroke="black" fill="magenta"/>
  <circle cx="377.504" cy="558.339" r="5.04971" stroke-width="0.5" stroke="black" fill="magenta"/>
   </g>
   <g id="cell14">
  <circle cx="529.292" cy="395.201" r="8.14397" stroke-width="0.5" stroke="black" fill="magenta"/>
  <circle cx="529.292" cy="395.201" r="4.92796" stroke-width="0.5" stroke="black" fill="magenta"/>
   </g>
   <g id="cell15">
  <circle cx="384.592" cy="488.33" r="6.53469" stroke-width="0.5" stroke="black" fill="magenta"/>
  <circle cx="384.592" cy="488.33" r="3.94791" stroke-width="0.5" stroke="black" fill="magenta"/>
   </g>
   <g id="cell16">
  <circle cx="428.742" cy="415.38" r="8.41271" stroke-width="0.5" stroke="black" fill="magenta"/>
  <circle cx="428.742" cy="415.38" r="5.05167" stroke-width="0.5" stroke="black" fill="magenta"/>
   </g>
   <g id="cell17">
  <circle cx="579.922" cy="483.965" r="8.41172" stroke-width="0.5" stroke="black" fill="magenta"/>
  <circle cx="579.922" cy="483.965" r="5.05142" stroke-width="0.5" stroke="black" fill="magenta"/>
   </g>
   <g id="cell18">
  <circle cx="514.234" cy="393.496" r="8.41259" stroke-width="0.5" stroke="black" fill="magenta"/>
  <circle cx="514.234" cy="393.496" r="5.05165" stroke-width="0.5" stroke="black" fill="magenta"/>
   </g>
   <g id="cell19">
  <circle cx="453.62" cy="541.483" r="8.41209" stroke-width="0.5" stroke="black" fill="magenta"/>
  <circle cx="453.62" cy="541.483" r="5.05152" stroke-width="0.5" stroke="black" fill="magenta"/>
   </g>
   <g id="cell20">
  <circle cx="525.757" cy="420.963" r="8.41271" stroke-width="0.5" stroke="black" fill="magenta"/>
  <circle cx="525.757" cy="420.963" r="5.05167" stroke-width="0.5" stroke="black" fill="magenta"/>
   </g>
   <g id="cell141">
  <circle cx="494.499" cy="441.673" r="7.62267" stroke-width="0.5" stroke="black" fill="magenta"/>
  <circle cx="494.499" cy="441.673" r="4.65329" stroke-width="0.5" stroke="black" fill="magenta"/>
   </g>
   <g id="cell22">
  <circle cx="559.958" cy="496.748" r="8.41185" stroke-width="0.5" stroke="black" fill="magenta"/>
  <circle cx="559.958" cy="496.748" r="5.05146" stroke-width="0.5" stroke="black" fill="magenta"/>
   </g>
   <g id="cell23">
  <circle cx="535.151" cy="485.494" r="8.41271" stroke-width="0.5" stroke="black" fill="magenta"/>
  <circle cx="535.151" cy="485.494" r="5.05167" stroke-width="0.5" stroke="black" fill="magenta"/>
   </g>
   <g id="cell24">
  <circle cx="563.427" cy="381.578" r="8.41271" stroke-width="0.5" stroke="black" fill="magenta"/>
  <circle cx="563.427" cy="381.578" r="5.05167" stroke-width="0.5" stroke="black" fill="magenta"/>
   </g>
   <g id="cell25">
  <circle cx="653.508" cy="564.483" r="8.29826" stroke-width="0.5" stroke="black" fill="green"/>
  <circle cx="653.508" cy="564.483" r="5.00388" stroke-width="0.5" stroke="black" fill="green"/>
   </g>
   <g id="cell26">
  <circle cx="548.744" cy="401.601" r="8.41271" stroke-width="0.5" stroke="black" fill="green"/>
  <circle cx="548.744" cy="401.601" r="5.05167" stroke-width="0.5" stroke="black" fill="green"/>
   </g>
   <g id="cell27">
  <circle cx="452.095" cy="389.548" r="3.67308" stroke-width="0.5" stroke="black" fill="green"/>
  <circle cx="452.095" cy="389.548" r="2.7345" stroke-width="0.5" stroke="black" fill="black"/>
   </g>
   <g id="cell28">
  <circle cx="441.448" cy="550.965" r="8.41271" stroke-width="0.5" stroke="black" fill="green"/>
  <circle cx="441.448" cy="550.965" r="5.05167" stroke-width="0.5" stroke="black" fill="green"/>
   </g>
   <g id="cell29">
  <circle cx="466.61" cy="517.992" r="8.40875" stroke-width="0.5" stroke="black" fill="green"/>
  <circle cx="466.61" cy="517.992" r="5.05056" stroke-width="0.5" stroke="black" fill="green"/>
   </g>
   <g id="cell30">
  <circle cx="480.549" cy="539.889" r="8.41271" stroke-width="0.5" stroke="black" fill="green"/>
  <circle cx="480.549" cy="539.889" r="5.05167" stroke-width="0.5" stroke="black" fill="green"/>
   </g>
   <g id="cell31">
  <circle cx="408.238" cy="530.838" r="7.51976" stroke-width="0.5" stroke="black" fill="green"/>
  <circle cx="408.238" cy="530.838" r="4.57072" stroke-width="0.5" stroke="black" fill="green"/>
   </g>
   <g id="cell32">
  <circle cx="425.256" cy="455.199" r="8.2393" stroke-width="0.5" stroke="black" fill="green"/>
  <circle cx="425.256" cy="455.199" r="4.97499" stroke-width="0.5" stroke="black" fill="green"/>
   </g>
   <g id="cell33">
  <circle cx="498.237" cy="413.818" r="8.41241" stroke-width="0.5" stroke="black" fill="green"/>
  <circle cx="498.237" cy="413.818" r="5.0516" stroke-width="0.5" stroke="black" fill="green"/>
   </g>
   <g id="cell34">
  <circle cx="391.868" cy="454.597" r="8.41233" stroke-width="0.5" stroke="black" fill="green"/>
  <circle cx="391.868" cy="454.597" r="5.05159" stroke-width="0.5" stroke="black" fill="green"/>
   </g>
   <g id="cell35">
  <circle cx="545.447" cy="558.629" r="8.41121" stroke-width="0.5" stroke="black" fill="green"/>
  <circle cx="545.447" cy="558.629" r="5.05128" stroke-width="0.5" stroke="black" fill="green"/>
   </g>
   <g id="cell36">
  <circle cx="392.351" cy="581.174" r="8.40494" stroke-width="0.5" stroke="black" fill="green"/>
  <circle cx="392.351" cy="581.174" r="5.04929" stroke-width="0.5" stroke="black" fill="green"/>
   </g>
   <g id="cell174">
  <circle cx="477.932" cy="617.538" r="8.04582" stroke-width="0.5" stroke="black" fill="green"/>
  <circle cx="477.932" cy="617.538" r="4.87394" stroke-width="0.5" stroke="black" fill="green"/>
   </g>
   <g id="cell38">
  <circle cx="525.806" cy="606.441" r="8.41212" stroke-width="0.5" stroke="black" fill="green"/>
  <circle cx="525.806" cy="606.441" r="5.05153" stroke-width="0.5" stroke="black" fill="green"/>
   </g>
   <g id="cell39">
  <circle cx="617.755" cy="499.099" r="8.11319" stroke-width="0.5" stroke="black" fill="green"/>
  <circle cx="617.755" cy="499.099" r="4.91004" stroke-width="0.5" stroke="black" fill="green"/>
   </g>
   <g id="cell40">
  <circle cx="483.634" cy="570.297" r="8.41271" stroke-width="0.5" stroke="black" fill="green"/>
  <circle cx="483.634" cy="570.297" r="5.05167" stroke-width="0.5" stroke="black" fill="green"/>
   </g>
   <g id="cell41">
  <circle cx="362.829" cy="479.134" r="8.41271" stroke-width="0.5" stroke="black" fill="green"/>
  <circle cx="362.829" cy="479.134" r="5.05167" stroke-width="0.5" stroke="black" fill="green"/>
   </g>
   <g id="cell176">
  <circle cx="469.011" cy="446.067" r="7.72518" stroke-width="0.5" stroke="black" fill="magenta"/>
  <circle cx="469.011" cy="446.067" r="4.71149" stroke-width="0.5" stroke="black" fill="magenta"/>
   </g>
   <g id="cell43">
  <circle cx="558.191" cy="445.615" r="8.41271" stroke-width="0.5" stroke="black" fill="green"/>
  <circle cx="558.191" cy="445.615" r="5.05167" stroke-width="0.5" stroke="black" fill="green"/>
   </g>
   <g id="cell44">
  <circle cx="488.133" cy="629.296" r="8.31188" stroke-width="0.5" stroke="black" fill="green"/>
  <circle cx="488.133" cy="629.296" r="5.00997" stroke-width="0.5" stroke="black" fill="green"/>
   </g>
   <g id="cell45">
  <circle cx="432.792" cy="563.951" r="8.0371" stroke-width="0.5" stroke="black" fill="green"/>
  <circle cx="432.792" cy="563.951" r="4.88131" stroke-width="0.5" stroke="black" fill="green"/>
   </g>
   <g id="cell46">
  <circle cx="521.028" cy="621.458" r="8.3704" stroke-width="0.5" stroke="black" fill="green"/>
  <circle cx="521.028" cy="621.458" r="5.03625" stroke-width="0.5" stroke="black" fill="green"/>
   </g>
   <g id="cell47">
  <circle cx="495.025" cy="511.393" r="8.41271" stroke-width="0.5" stroke="black" fill="green"/>
  <circle cx="495.025" cy="511.393" r="5.05167" stroke-width="0.5" stroke="black" fill="green"/>
   </g>
   <g id="cell48">
  <circle cx="565.91" cy="606.079" r="8.41271" stroke-width="0.5" stroke="black" fill="green"/>
  <circle cx="565.91" cy="606.079" r="5.05167" stroke-width="0.5" stroke="black" fill="green"/>
   </g>
   <g id="cell49">
  <circle cx="439.33" cy="389.402" r="7.35175" stroke-width="0.5" stroke="black" fill="green"/>
  <circle cx="439.33" cy="389.402" r="4.47012" stroke-width="0.5" stroke="black" fill="green"/>
   </g>
   <g id="cell50">
  <circle cx="508.125" cy="493.163" r="6.83277" stroke-width="0.5" stroke="black" fill="cyan"/>
  <circle cx="508.125" cy="493.163" r="4.18243" stroke-width="0.5" stroke="black" fill="cyan"/>
   </g>
   <g id="cell51">
  <circle cx="385.101" cy="604.071" r="8.32472" stroke-width="0.5" stroke="black" fill="cyan"/>
  <circle cx="385.101" cy="604.071" r="5.0166" stroke-width="0.5" stroke="black" fill="cyan"/>
   </g>
   <g id="cell120">
  <circle cx="419.245" cy="610.594" r="8.407" stroke-width="0.5" stroke="black" fill="cyan"/>
  <circle cx="419.245" cy="610.594" r="5.04998" stroke-width="0.5" stroke="black" fill="cyan"/>
   </g>
   <g id="cell53">
  <circle cx="571.109" cy="436.134" r="8.41271" stroke-width="0.5" stroke="black" fill="cyan"/>
  <circle cx="571.109" cy="436.134" r="5.05167" stroke-width="0.5" stroke="black" fill="cyan"/>
   </g>
   <g id="cell54">
  <circle cx="486.328" cy="424.664" r="8.34117" stroke-width="0.5" stroke="black" fill="cyan"/>
  <circle cx="486.328" cy="424.664" r="5.02327" stroke-width="0.5" stroke="black" fill="cyan"/>
   </g>
   <g id="cell55">
  <circle cx="521.219" cy="478.019" r="8.41271" stroke-width="0.5" stroke="black" fill="cyan"/>
  <circle cx="521.219" cy="478.019" r="5.05167" stroke-width="0.5" stroke="black" fill="cyan"/>
   </g>
   <g id="cell56">
  <circle cx="620.21" cy="519.839" r="6.8284" stroke-width="0.5" stroke="black" fill="cyan"/>
  <circle cx="620.21" cy="519.839" r="4.18993" stroke-width="0.5" stroke="black" fill="cyan"/>
   </g>
   <g id="cell57">
  <circle cx="418.485" cy="626.587" r="8.407" stroke-width="0.5" stroke="black" fill="cyan"/>
  <circle cx="418.485" cy="626.587" r="5.04998" stroke-width="0.5" stroke="black" fill="cyan"/>
   </g>
   <g id="cell58">
  <circle cx="550.358" cy="484.134" r="8.41271" stroke-width="0.5" stroke="black" fill="cyan"/>
  <circle cx="550.358" cy="484.134" r="5.05167" stroke-width="0.5" stroke="black" fill="cyan"/>
   </g>
   <g id="cell59">
  <circle cx="385.461" cy="439.838" r="8.41271" stroke-width="0.5" stroke="black" fill="cyan"/>
  <circle cx="385.461" cy="439.838" r="5.05167" stroke-width="0.5" stroke="black" fill="cyan"/>
   </g>
   <g id="cell60">
  <circle cx="601.03" cy="471.537" r="7.23774" stroke-width="0.5" stroke="black" fill="cyan"/>
  <circle cx="601.03" cy="471.537" r="4.39781" stroke-width="0.5" stroke="black" fill="cyan"/>
   </g>
   <g id="cell155">
  <circle cx="518.107" cy="593.213" r="8.246" stroke-width="0.5" stroke="black" fill="magenta"/>
  <circle cx="518.107" cy="593.213" r="4.98218" stroke-width="0.5" stroke="black" fill="magenta"/>
   </g>
   <g id="cell62">
  <circle cx="524.537" cy="436.61" r="8.41271" stroke-width="0.5" stroke="black" fill="cyan"/>
  <circle cx="524.537" cy="436.61" r="5.05167" stroke-width="0.5" stroke="black" fill="cyan"/>
   </g>
   <g id="cell63">
  <circle cx="581.307" cy="552.689" r="8.41212" stroke-width="0.5" stroke="black" fill="cyan"/>
  <circle cx="581.307" cy="552.689" r="5.05153" stroke-width="0.5" stroke="black" fill="cyan"/>
   </g>
   <g id="cell64">
  <circle cx="511.022" cy="633.819" r="8.40516" stroke-width="0.5" stroke="black" fill="cyan"/>
  <circle cx="511.022" cy="633.819" r="5.04937" stroke-width="0.5" stroke="black" fill="cyan"/>
   </g>
   <g id="cell65">
  <circle cx="533.887" cy="449.444" r="8.20657" stroke-width="0.5" stroke="black" fill="cyan"/>
  <circle cx="533.887" cy="449.444" r="4.95859" stroke-width="0.5" stroke="black" fill="cyan"/>
   </g>
   <g id="cell66">
  <circle cx="550.245" cy="522.872" r="8.40731" stroke-width="0.5" stroke="black" fill="cyan"/>
  <circle cx="550.245" cy="522.872" r="5.05008" stroke-width="0.5" stroke="black" fill="cyan"/>
   </g>
   <g id="cell67">
  <circle cx="354.581" cy="492.85" r="8.41271" stroke-width="0.5" stroke="black" fill="cyan"/>
  <circle cx="354.581" cy="492.85" r="5.05167" stroke-width="0.5" stroke="black" fill="cyan"/>
   </g>
   <g id="cell68">
  <circle cx="567.167" cy="552.769" r="6.75639" stroke-width="0.5" stroke="black" fill="cyan"/>
  <circle cx="567.167" cy="552.769" r="4.06813" stroke-width="0.5" stroke="black" fill="cyan"/>
   </g>
   <g id="cell69">
  <circle cx="439.856" cy="443.879" r="8.4126" stroke-width="0.5" stroke="black" fill="cyan"/>
  <circle cx="439.856" cy="443.879" r="5.05165" stroke-width="0.5" stroke="black" fill="cyan"/>
   </g>
   <g id="cell70">
  <circle cx="573.417" cy="469.036" r="8.39083" stroke-width="0.5" stroke="black" fill="cyan"/>
  <circle cx="573.417" cy="469.036" r="5.04414" stroke-width="0.5" stroke="black" fill="cyan"/>
   </g>
   <g id="cell71">
  <circle cx="381.292" cy="528.261" r="8.28944" stroke-width="0.5" stroke="black" fill="cyan"/>
  <circle cx="381.292" cy="528.261" r="5.00051" stroke-width="0.5" stroke="black" fill="cyan"/>
   </g>
   <g id="cell72">
  <circle cx="538.41" cy="512.308" r="8.41271" stroke-width="0.5" stroke="black" fill="cyan"/>
  <circle cx="538.41" cy="512.308" r="5.05167" stroke-width="0.5" stroke="black" fill="cyan"/>
   </g>
   <g id="cell129">
  <circle cx="417.594" cy="404.398" r="8.40022" stroke-width="0.5" stroke="black" fill="green"/>
  <circle cx="417.594" cy="404.398" r="5.04764" stroke-width="0.5" stroke="black" fill="green"/>
   </g>
   <g id="cell74">
  <circle cx="542.397" cy="443.038" r="1.79449" stroke-width="0.5" stroke="black" fill="cyan"/>
  <circle cx="542.397" cy="443.038" r="1.73665" stroke-width="0.5" stroke="black" fill="black"/>
   </g>
   <g id="cell75">
  <circle cx="441.922" cy="480.997" r="7.10152" stroke-width="0.5" stroke="black" fill="cyan"/>
  <circle cx="441.922" cy="480.997" r="4.36218" stroke-width="0.5" stroke="black" fill="cyan"/>
   </g>
   <g id="cell76">
  <circle cx="512.094" cy="375.057" r="7.5439" stroke-width="0.5" stroke="black" fill="magenta"/>
  <circle cx="512.094" cy="375.057" r="4.58543" stroke-width="0.5" stroke="black" fill="magenta"/>
   </g>
   <g id="cell77">
  <circle cx="501.089" cy="428.963" r="8.36284" stroke-width="0.5" stroke="black" fill="magenta"/>
  <circle cx="501.089" cy="428.963" r="5.03298" stroke-width="0.5" stroke="black" fill="magenta"/>
   </g>
   <g id="cell78">
  <circle cx="370.427" cy="465.323" r="8.41258" stroke-width="0.5" stroke="black" fill="magenta"/>
  <circle cx="370.427" cy="465.323" r="5.05164" stroke-width="0.5" stroke="black" fill="magenta"/>
   </g>
   <g id="cell79">
  <circle cx="497.433" cy="526.93" r="8.41257" stroke-width="0.5" stroke="black" fill="magenta"/>
  <circle cx="497.433" cy="526.93" r="5.05164" stroke-width="0.5" stroke="black" fill="magenta"/>
   </g>
   <g id="cell80">
  <circle cx="605.134" cy="485.623" r="8.16083" stroke-width="0.5" stroke="black" fill="green"/>
  <circle cx="605.134" cy="485.623" r="4.93504" stroke-width="0.5" stroke="black" fill="green"/>
   </g>
   <g id="cell81">
  <circle cx="429.056" cy="505.17" r="8.40184" stroke-width="0.5" stroke="black" fill="green"/>
  <circle cx="429.056" cy="505.17" r="5.0483" stroke-width="0.5" stroke="black" fill="green"/>
   </g>
   <g id="cell82">
  <circle cx="544.48" cy="498.018" r="8.41254" stroke-width="0.5" stroke="black" fill="magenta"/>
  <circle cx="544.48" cy="498.018" r="5.05163" stroke-width="0.5" stroke="black" fill="magenta"/>
   </g>
   <g id="cell130">
  <circle cx="573.836" cy="392.477" r="8.3995" stroke-width="0.5" stroke="black" fill="magenta"/>
  <circle cx="573.836" cy="392.477" r="5.04738" stroke-width="0.5" stroke="black" fill="magenta"/>
   </g>
   <g id="cell84">
  <circle cx="404.749" cy="484.657" r="8.40961" stroke-width="0.5" stroke="black" fill="green"/>
  <circle cx="404.749" cy="484.657" r="5.05082" stroke-width="0.5" stroke="black" fill="green"/>
   </g>
   <g id="cell140">
  <circle cx="525.702" cy="580.116" r="8.34884" stroke-width="0.5" stroke="black" fill="magenta"/>
  <circle cx="525.702" cy="580.116" r="5.02824" stroke-width="0.5" stroke="black" fill="magenta"/>
   </g>
   <g id="cell86">
  <circle cx="391.112" cy="565.792" r="8.40983" stroke-width="0.5" stroke="black" fill="magenta"/>
  <circle cx="391.112" cy="565.792" r="5.05089" stroke-width="0.5" stroke="black" fill="magenta"/>
   </g>
   <g id="cell87">
  <circle cx="433.178" cy="520.599" r="8.31515" stroke-width="0.5" stroke="black" fill="green"/>
  <circle cx="433.178" cy="520.599" r="5.01188" stroke-width="0.5" stroke="black" fill="green"/>
   </g>
   <g id="cell88">
  <circle cx="477.921" cy="602.281" r="8.04582" stroke-width="0.5" stroke="black" fill="green"/>
  <circle cx="477.921" cy="602.281" r="4.87394" stroke-width="0.5" stroke="black" fill="green"/>
   </g>
   <g id="cell89">
  <circle cx="430.697" cy="489.35" r="8.41132" stroke-width="0.5" stroke="black" fill="green"/>
  <circle cx="430.697" cy="489.35" r="5.05133" stroke-width="0.5" stroke="black" fill="green"/>
   </g>
   <g id="cell90">
  <circle cx="580.221" cy="513.972" r="8.29308" stroke-width="0.5" stroke="black" fill="magenta"/>
  <circle cx="580.221" cy="513.972" r="5.00115" stroke-width="0.5" stroke="black" fill="magenta"/>
   </g>
   <g id="cell136">
  <circle cx="524.708" cy="540.312" r="8.38682" stroke-width="0.5" stroke="black" fill="magenta"/>
  <circle cx="524.708" cy="540.312" r="5.04258" stroke-width="0.5" stroke="black" fill="magenta"/>
   </g>
   <g id="cell92">
  <circle cx="559.28" cy="591.518" r="8.40946" stroke-width="0.5" stroke="black" fill="green"/>
  <circle cx="559.28" cy="591.518" r="5.05081" stroke-width="0.5" stroke="black" fill="green"/>
   </g>
   <g id="cell93">
  <circle cx="577.506" cy="527.427" r="7.13842" stroke-width="0.5" stroke="black" fill="cyan"/>
  <circle cx="577.506" cy="527.427" r="4.33608" stroke-width="0.5" stroke="black" fill="cyan"/>
   </g>
   <g id="cell94">
  <circle cx="541.996" cy="471.025" r="8.41209" stroke-width="0.5" stroke="black" fill="cyan"/>
  <circle cx="541.996" cy="471.025" r="5.05152" stroke-width="0.5" stroke="black" fill="cyan"/>
   </g>
   <g id="cell95">
  <circle cx="466.343" cy="533.515" r="8.41209" stroke-width="0.5" stroke="black" fill="magenta"/>
  <circle cx="466.343" cy="533.515" r="5.05152" stroke-width="0.5" stroke="black" fill="magenta"/>
   </g>
   <g id="cell96">
  <circle cx="537.292" cy="382.335" r="8.41196" stroke-width="0.5" stroke="black" fill="magenta"/>
  <circle cx="537.292" cy="382.335" r="5.05149" stroke-width="0.5" stroke="black" fill="magenta"/>
   </g>
   <g id="cell97">
  <circle cx="565.668" cy="510.695" r="8.41185" stroke-width="0.5" stroke="black" fill="magenta"/>
  <circle cx="565.668" cy="510.695" r="5.05146" stroke-width="0.5" stroke="black" fill="magenta"/>
   </g>
   <g id="cell98">
  <circle cx="405.873" cy="572.707" r="8.34066" stroke-width="0.5" stroke="black" fill="green"/>
  <circle cx="405.873" cy="572.707" r="5.02315" stroke-width="0.5" stroke="black" fill="green"/>
   </g>
   <g id="cell99">
  <circle cx="575.443" cy="498.893" r="8.41172" stroke-width="0.5" stroke="black" fill="magenta"/>
  <circle cx="575.443" cy="498.893" r="5.05142" stroke-width="0.5" stroke="black" fill="magenta"/>
   </g>
   <g id="cell100">
  <circle cx="569.237" cy="539.058" r="8.41137" stroke-width="0.5" stroke="black" fill="cyan"/>
  <circle cx="569.237" cy="539.058" r="5.05134" stroke-width="0.5" stroke="black" fill="cyan"/>
   </g>
   <g id="cell101">
  <circle cx="458.563" cy="628.961" r="7.21002" stroke-width="0.5" stroke="black" fill="magenta"/>
  <circle cx="458.563" cy="628.961" r="4.37938" stroke-width="0.5" stroke="black" fill="magenta"/>
   </g>
   <g id="cell102">
  <circle cx="445.012" cy="508.031" r="8.41132" stroke-width="0.5" stroke="black" fill="green"/>
  <circle cx="445.012" cy="508.031" r="5.05133" stroke-width="0.5" stroke="black" fill="green"/>
   </g>
   <g id="cell103">
  <circle cx="551.709" cy="618.285" r="8.05559" stroke-width="0.5" stroke="black" fill="green"/>
  <circle cx="551.709" cy="618.285" r="4.87942" stroke-width="0.5" stroke="black" fill="green"/>
   </g>
   <g id="cell104">
  <circle cx="553.544" cy="540.945" r="8.41121" stroke-width="0.5" stroke="black" fill="green"/>
  <circle cx="553.544" cy="540.945" r="5.05128" stroke-width="0.5" stroke="black" fill="green"/>
   </g>
   <g id="cell105">
  <circle cx="416.382" cy="495.065" r="8.41095" stroke-width="0.5" stroke="black" fill="green"/>
  <circle cx="416.382" cy="495.065" r="5.05121" stroke-width="0.5" stroke="black" fill="green"/>
   </g>
   <g id="cell106">
  <circle cx="648.116" cy="531.346" r="7.89278" stroke-width="0.5" stroke="black" fill="green"/>
  <circle cx="648.116" cy="531.346" r="4.7893" stroke-width="0.5" stroke="black" fill="green"/>
   </g>
   <g id="cell107">
  <circle cx="383.679" cy="512.632" r="8.41055" stroke-width="0.5" stroke="black" fill="cyan"/>
  <circle cx="383.679" cy="512.632" r="5.05109" stroke-width="0.5" stroke="black" fill="cyan"/>
   </g>
   <g id="cell108">
  <circle cx="461.266" cy="642.733" r="8.40995" stroke-width="0.5" stroke="black" fill="magenta"/>
  <circle cx="461.266" cy="642.733" r="5.05094" stroke-width="0.5" stroke="black" fill="magenta"/>
   </g>
   <g id="cell109">
  <circle cx="447.169" cy="637.184" r="8.40995" stroke-width="0.5" stroke="black" fill="magenta"/>
  <circle cx="447.169" cy="637.184" r="5.05094" stroke-width="0.5" stroke="black" fill="magenta"/>
   </g>
   <g id="cell110">
  <circle cx="540.37" cy="572.375" r="7.58983" stroke-width="0.5" stroke="black" fill="green"/>
  <circle cx="540.37" cy="572.375" r="4.61341" stroke-width="0.5" stroke="black" fill="green"/>
   </g>
   <g id="cell111">
  <circle cx="627.453" cy="555.557" r="8.40946" stroke-width="0.5" stroke="black" fill="green"/>
  <circle cx="627.453" cy="555.557" r="5.0508" stroke-width="0.5" stroke="black" fill="green"/>
   </g>
   <g id="cell112">
  <circle cx="378.409" cy="573.707" r="8.40983" stroke-width="0.5" stroke="black" fill="magenta"/>
  <circle cx="378.409" cy="573.707" r="5.05089" stroke-width="0.5" stroke="black" fill="magenta"/>
   </g>
   <g id="cell113">
  <circle cx="418.321" cy="479.192" r="8.40961" stroke-width="0.5" stroke="black" fill="green"/>
  <circle cx="418.321" cy="479.192" r="5.05082" stroke-width="0.5" stroke="black" fill="green"/>
   </g>
   <g id="cell114">
  <circle cx="501.631" cy="454.234" r="8.39446" stroke-width="0.5" stroke="black" fill="magenta"/>
  <circle cx="501.631" cy="454.234" r="5.04568" stroke-width="0.5" stroke="black" fill="magenta"/>
   </g>
   <g id="cell115">
  <circle cx="452.672" cy="525.891" r="8.40875" stroke-width="0.5" stroke="black" fill="green"/>
  <circle cx="452.672" cy="525.891" r="5.05056" stroke-width="0.5" stroke="black" fill="green"/>
   </g>
   <g id="cell116">
  <circle cx="368.768" cy="518.642" r="8.40754" stroke-width="0.5" stroke="black" fill="cyan"/>
  <circle cx="368.768" cy="518.642" r="5.05021" stroke-width="0.5" stroke="black" fill="cyan"/>
   </g>
   <g id="cell173">
  <circle cx="539.755" cy="610.267" r="7.29922" stroke-width="0.5" stroke="black" fill="green"/>
  <circle cx="539.755" cy="610.267" r="4.46337" stroke-width="0.5" stroke="black" fill="green"/>
   </g>
   <g id="cell118">
  <circle cx="523.54" cy="525.307" r="8.07361" stroke-width="0.5" stroke="black" fill="cyan"/>
  <circle cx="523.54" cy="525.307" r="4.88957" stroke-width="0.5" stroke="black" fill="cyan"/>
   </g>
   <g id="cell119">
  <circle cx="526.711" cy="636.359" r="8.35751" stroke-width="0.5" stroke="black" fill="green"/>
  <circle cx="526.711" cy="636.359" r="5.03082" stroke-width="0.5" stroke="black" fill="green"/>
   </g>
   <g id="cell121">
  <circle cx="390.693" cy="550.758" r="8.40613" stroke-width="0.5" stroke="black" fill="magenta"/>
  <circle cx="390.693" cy="550.758" r="5.04971" stroke-width="0.5" stroke="black" fill="magenta"/>
   </g>
   <g id="cell122">
  <circle cx="615.372" cy="458.727" r="8.18466" stroke-width="0.5" stroke="black" fill="cyan"/>
  <circle cx="615.372" cy="458.727" r="4.94808" stroke-width="0.5" stroke="black" fill="cyan"/>
   </g>
   <g id="cell123">
  <circle cx="499.693" cy="645.039" r="8.40516" stroke-width="0.5" stroke="black" fill="cyan"/>
  <circle cx="499.693" cy="645.039" r="5.04937" stroke-width="0.5" stroke="black" fill="cyan"/>
   </g>
   <g id="cell124">
  <circle cx="378.78" cy="589.387" r="8.40494" stroke-width="0.5" stroke="black" fill="green"/>
  <circle cx="378.78" cy="589.387" r="5.04929" stroke-width="0.5" stroke="black" fill="green"/>
   </g>
   <g id="cell125">
  <circle cx="454.37" cy="459.764" r="6.80232" stroke-width="0.5" stroke="black" fill="cyan"/>
  <circle cx="454.37" cy="459.764" r="4.10504" stroke-width="0.5" stroke="black" fill="cyan"/>
   </g>
   <g id="cell126">
  <circle cx="413.508" cy="510.204" r="8.40184" stroke-width="0.5" stroke="black" fill="green"/>
  <circle cx="413.508" cy="510.204" r="5.0483" stroke-width="0.5" stroke="black" fill="green"/>
   </g>
   <g id="cell127">
  <circle cx="413.478" cy="595.681" r="8.40185" stroke-width="0.5" stroke="black" fill="cyan"/>
  <circle cx="413.478" cy="595.681" r="5.04822" stroke-width="0.5" stroke="black" fill="cyan"/>
   </g>
   <g id="cell128">
  <circle cx="352.866" cy="537.113" r="7.78745" stroke-width="0.5" stroke="black" fill="cyan"/>
  <circle cx="352.866" cy="537.113" r="4.7309" stroke-width="0.5" stroke="black" fill="cyan"/>
   </g>
   <g id="cell131">
  <circle cx="583.37" cy="538.827" r="6.69878" stroke-width="0.5" stroke="black" fill="cyan"/>
  <circle cx="583.37" cy="538.827" r="4.03015" stroke-width="0.5" stroke="black" fill="cyan"/>
   </g>
   <g id="cell132">
  <circle cx="509.391" cy="441.358" r="8.39446" stroke-width="0.5" stroke="black" fill="magenta"/>
  <circle cx="509.391" cy="441.358" r="5.04568" stroke-width="0.5" stroke="black" fill="magenta"/>
   </g>
   <g id="cell133">
  <circle cx="535.114" cy="409.014" r="8.39473" stroke-width="0.5" stroke="black" fill="magenta"/>
  <circle cx="535.114" cy="409.014" r="5.04562" stroke-width="0.5" stroke="black" fill="magenta"/>
   </g>
   <g id="cell134">
  <circle cx="510.575" cy="580.321" r="8.36656" stroke-width="0.5" stroke="black" fill="magenta"/>
  <circle cx="510.575" cy="580.321" r="5.03505" stroke-width="0.5" stroke="black" fill="magenta"/>
   </g>
   <g id="cell135">
  <circle cx="565.266" cy="482.287" r="8.39083" stroke-width="0.5" stroke="black" fill="cyan"/>
  <circle cx="565.266" cy="482.287" r="5.04414" stroke-width="0.5" stroke="black" fill="cyan"/>
   </g>
   <g id="cell137">
  <circle cx="378.047" cy="477.718" r="8.38199" stroke-width="0.5" stroke="black" fill="magenta"/>
  <circle cx="378.047" cy="477.718" r="5.04067" stroke-width="0.5" stroke="black" fill="magenta"/>
   </g>
   <g id="cell138">
  <circle cx="533.094" cy="593.04" r="8.246" stroke-width="0.5" stroke="black" fill="magenta"/>
  <circle cx="533.094" cy="593.04" r="4.98218" stroke-width="0.5" stroke="black" fill="magenta"/>
   </g>
   <g id="cell139">
  <circle cx="510.279" cy="606.991" r="8.3704" stroke-width="0.5" stroke="black" fill="green"/>
  <circle cx="510.279" cy="606.991" r="5.03625" stroke-width="0.5" stroke="black" fill="green"/>
   </g>
   <g id="cell142">
  <circle cx="584.691" cy="382.086" r="8.35652" stroke-width="0.5" stroke="black" fill="magenta"/>
  <circle cx="584.691" cy="382.086" r="5.03071" stroke-width="0.5" stroke="black" fill="magenta"/>
   </g>
   <g id="cell143">
  <circle cx="536.961" cy="624.465" r="8.35751" stroke-width="0.5" stroke="black" fill="green"/>
  <circle cx="536.961" cy="624.465" r="5.03082" stroke-width="0.5" stroke="black" fill="green"/>
   </g>
   <g id="cell144">
  <circle cx="378.264" cy="543.199" r="8.35568" stroke-width="0.5" stroke="black" fill="magenta"/>
  <circle cx="378.264" cy="543.199" r="5.02965" stroke-width="0.5" stroke="black" fill="magenta"/>
   </g>
   <g id="cell145">
  <circle cx="455.591" cy="482.087" r="7.40394" stroke-width="0.5" stroke="black" fill="magenta"/>
  <circle cx="455.591" cy="482.087" r="4.50822" stroke-width="0.5" stroke="black" fill="magenta"/>
   </g>
   <g id="cell146">
  <circle cx="459.34" cy="421.286" r="8.34117" stroke-width="0.5" stroke="black" fill="cyan"/>
  <circle cx="459.34" cy="421.286" r="5.02327" stroke-width="0.5" stroke="black" fill="cyan"/>
   </g>
   <g id="cell148">
  <circle cx="400.929" cy="605.477" r="8.32472" stroke-width="0.5" stroke="black" fill="cyan"/>
  <circle cx="400.929" cy="605.477" r="5.0166" stroke-width="0.5" stroke="black" fill="cyan"/>
   </g>
   <g id="cell149">
  <circle cx="439.668" cy="535.039" r="8.31515" stroke-width="0.5" stroke="black" fill="green"/>
  <circle cx="439.668" cy="535.039" r="5.01188" stroke-width="0.5" stroke="black" fill="green"/>
   </g>
   <g id="cell150">
  <circle cx="472.564" cy="632.104" r="8.31188" stroke-width="0.5" stroke="black" fill="green"/>
  <circle cx="472.564" cy="632.104" r="5.00997" stroke-width="0.5" stroke="black" fill="green"/>
   </g>
   <g id="cell151">
  <circle cx="522.626" cy="509.794" r="8.30918" stroke-width="0.5" stroke="black" fill="cyan"/>
  <circle cx="522.626" cy="509.794" r="5.00867" stroke-width="0.5" stroke="black" fill="cyan"/>
   </g>
   <g id="cell152">
  <circle cx="643.136" cy="552.474" r="8.29826" stroke-width="0.5" stroke="black" fill="green"/>
  <circle cx="643.136" cy="552.474" r="5.00388" stroke-width="0.5" stroke="black" fill="green"/>
   </g>
   <g id="cell153">
  <circle cx="395.917" cy="522.675" r="8.28944" stroke-width="0.5" stroke="black" fill="cyan"/>
  <circle cx="395.917" cy="522.675" r="5.00051" stroke-width="0.5" stroke="black" fill="cyan"/>
   </g>
   <g id="cell154">
  <circle cx="588.905" cy="503.691" r="7.60845" stroke-width="0.5" stroke="black" fill="magenta"/>
  <circle cx="588.905" cy="503.691" r="4.6354" stroke-width="0.5" stroke="black" fill="magenta"/>
   </g>
   <g id="cell156">
  <circle cx="403.695" cy="557.614" r="8.08891" stroke-width="0.5" stroke="black" fill="green"/>
  <circle cx="403.695" cy="557.614" r="4.90449" stroke-width="0.5" stroke="black" fill="green"/>
   </g>
   <g id="cell157">
  <circle cx="392.716" cy="475.196" r="8.23319" stroke-width="0.5" stroke="black" fill="magenta"/>
  <circle cx="392.716" cy="475.196" r="4.97406" stroke-width="0.5" stroke="black" fill="magenta"/>
   </g>
   <g id="cell158">
  <circle cx="431.214" cy="471.619" r="8.14482" stroke-width="0.5" stroke="black" fill="green"/>
  <circle cx="431.214" cy="471.619" r="4.93284" stroke-width="0.5" stroke="black" fill="green"/>
   </g>
   <g id="cell159">
  <circle cx="440.172" cy="459.412" r="8.14482" stroke-width="0.5" stroke="black" fill="green"/>
  <circle cx="440.172" cy="459.412" r="4.93284" stroke-width="0.5" stroke="black" fill="green"/>
   </g>
   <g id="cell160">
  <circle cx="418.076" cy="560.934" r="8.12147" stroke-width="0.5" stroke="black" fill="green"/>
  <circle cx="418.076" cy="560.934" r="4.92112" stroke-width="0.5" stroke="black" fill="green"/>
   </g>
   <g id="cell161">
  <circle cx="528.181" cy="463.924" r="8.20657" stroke-width="0.5" stroke="black" fill="cyan"/>
  <circle cx="528.181" cy="463.924" r="4.95859" stroke-width="0.5" stroke="black" fill="cyan"/>
   </g>
   <g id="cell162">
  <circle cx="615.28" cy="474.203" r="8.18466" stroke-width="0.5" stroke="black" fill="cyan"/>
  <circle cx="615.28" cy="474.203" r="4.94808" stroke-width="0.5" stroke="black" fill="cyan"/>
   </g>
   <g id="cell163">
  <circle cx="426.366" cy="548.126" r="8.0371" stroke-width="0.5" stroke="black" fill="green"/>
  <circle cx="426.366" cy="548.126" r="4.88131" stroke-width="0.5" stroke="black" fill="green"/>
   </g>
   <g id="cell164">
  <circle cx="463.72" cy="469.853" r="8.18384" stroke-width="0.5" stroke="black" fill="cyan"/>
  <circle cx="463.72" cy="469.853" r="4.9478" stroke-width="0.5" stroke="black" fill="cyan"/>
   </g>
   <g id="cell165">
  <circle cx="411.656" cy="544.947" r="8.08891" stroke-width="0.5" stroke="black" fill="green"/>
  <circle cx="411.656" cy="544.947" r="4.90449" stroke-width="0.5" stroke="black" fill="green"/>
   </g>
   <g id="cell166">
  <circle cx="602.65" cy="500.863" r="8.16083" stroke-width="0.5" stroke="black" fill="green"/>
  <circle cx="602.65" cy="500.863" r="4.93504" stroke-width="0.5" stroke="black" fill="green"/>
   </g>
   <g id="cell167">
  <circle cx="466.864" cy="387.289" r="8.1609" stroke-width="0.5" stroke="black" fill="green"/>
  <circle cx="466.864" cy="387.289" r="4.93506" stroke-width="0.5" stroke="black" fill="green"/>
   </g>
   <g id="cell168">
  <circle cx="520.468" cy="406.998" r="8.14397" stroke-width="0.5" stroke="black" fill="magenta"/>
  <circle cx="520.468" cy="406.998" r="4.92796" stroke-width="0.5" stroke="black" fill="magenta"/>
   </g>
   <g id="cell169">
  <circle cx="466.431" cy="433.377" r="6.8884" stroke-width="0.5" stroke="black" fill="magenta"/>
  <circle cx="466.431" cy="433.377" r="4.23396" stroke-width="0.5" stroke="black" fill="magenta"/>
   </g>
   <g id="cell170">
  <circle cx="628.932" cy="488.469" r="8.11319" stroke-width="0.5" stroke="black" fill="green"/>
  <circle cx="628.932" cy="488.469" r="4.91004" stroke-width="0.5" stroke="black" fill="green"/>
   </g>
   <g id="cell171">
  <circle cx="537.201" cy="530.841" r="8.07361" stroke-width="0.5" stroke="black" fill="cyan"/>
  <circle cx="537.201" cy="530.841" r="4.88957" stroke-width="0.5" stroke="black" fill="cyan"/>
   </g>
   <g id="cell172">
  <circle cx="510.18" cy="519.211" r="8.00036" stroke-width="0.5" stroke="black" fill="cyan"/>
  <circle cx="510.18" cy="519.211" r="4.85613" stroke-width="0.5" stroke="black" fill="cyan"/>
   </g>
   <g id="cell175">
  <circle cx="637.907" cy="539.608" r="6.30355" stroke-width="0.5" stroke="black" fill="green"/>
  <circle cx="637.907" cy="539.608" r="3.82868" stroke-width="0.5" stroke="black" fill="green"/>
   </g>
   <g id="cell177">
  <circle cx="366.999" cy="533.947" r="7.78745" stroke-width="0.5" stroke="black" fill="cyan"/>
  <circle cx="366.999" cy="533.947" r="4.7309" stroke-width="0.5" stroke="black" fill="cyan"/>
   </g>
   <g id="cell178">
  <circle cx="482.642" cy="448.651" r="7.62267" stroke-width="0.5" stroke="black" fill="magenta"/>
  <circle cx="482.642" cy="448.651" r="4.65329" stroke-width="0.5" stroke="black" fill="magenta"/>
   </g>
   <g id="cell179">
  <circle cx="447.076" cy="493.262" r="7.58602" stroke-width="0.5" stroke="black" fill="cyan"/>
  <circle cx="447.076" cy="493.262" r="4.62824" stroke-width="0.5" stroke="black" fill="cyan"/>
   </g>
   <g id="cell180">
  <circle cx="591.915" cy="490.961" r="7.60845" stroke-width="0.5" stroke="black" fill="magenta"/>
  <circle cx="591.915" cy="490.961" r="4.6354" stroke-width="0.5" stroke="black" fill="magenta"/>
   </g>
   <g id="cell181">
  <circle cx="545.504" cy="585.22" r="7.58983" stroke-width="0.5" stroke="black" fill="green"/>
  <circle cx="545.504" cy="585.22" r="4.61341" stroke-width="0.5" stroke="black" fill="green"/>
   </g>
   <g id="cell182">
  <circle cx="449.016" cy="470.703" r="7.10152" stroke-width="0.5" stroke="black" fill="cyan"/>
  <circle cx="449.016" cy="470.703" r="4.36218" stroke-width="0.5" stroke="black" fill="cyan"/>
   </g>
   <g id="cell183">
  <circle cx="523.166" cy="382.544" r="7.5439" stroke-width="0.5" stroke="black" fill="magenta"/>
  <circle cx="523.166" cy="382.544" r="4.58543" stroke-width="0.5" stroke="black" fill="magenta"/>
   </g>
   <g id="cell184">
  <circle cx="546.416" cy="598.776" r="7.29922" stroke-width="0.5" stroke="black" fill="green"/>
  <circle cx="546.416" cy="598.776" r="4.46337" stroke-width="0.5" stroke="black" fill="green"/>
   </g>
   <g id="cell185">
  <circle cx="419.144" cy="523.047" r="6.85896" stroke-width="0.5" stroke="black" fill="green"/>
  <circle cx="419.144" cy="523.047" r="4.2082" stroke-width="0.5" stroke="black" fill="green"/>
   </g>
   <g id="cell186">
  <circle cx="607.883" cy="524.296" r="6.69416" stroke-width="0.5" stroke="black" fill="cyan"/>
  <circle cx="607.883" cy="524.296" r="4.1082" stroke-width="0.5" stroke="black" fill="cyan"/>
   </g>
   <g id="cell187">
  <circle cx="468.972" cy="482.966" r="7.40394" stroke-width="0.5" stroke="black" fill="magenta"/>
  <circle cx="468.972" cy="482.966" r="4.50822" stroke-width="0.5" stroke="black" fill="magenta"/>
   </g>
   <g id="cell188">
  <circle cx="618.923" cy="532.444" r="6.8284" stroke-width="0.5" stroke="black" fill="cyan"/>
  <circle cx="618.923" cy="532.444" r="4.18993" stroke-width="0.5" stroke="black" fill="cyan"/>
   </g>
   <g id="cell189">
  <circle cx="425.546" cy="534.016" r="6.85896" stroke-width="0.5" stroke="black" fill="green"/>
  <circle cx="425.546" cy="534.016" r="4.2082" stroke-width="0.5" stroke="black" fill="green"/>
   </g>
   <g id="cell190">
  <circle cx="432.166" cy="401.268" r="7.35175" stroke-width="0.5" stroke="black" fill="green"/>
  <circle cx="432.166" cy="401.268" r="4.47012" stroke-width="0.5" stroke="black" fill="green"/>
   </g>
   <g id="cell191">
  <circle cx="478.422" cy="436.452" r="6.8884" stroke-width="0.5" stroke="black" fill="magenta"/>
  <circle cx="478.422" cy="436.452" r="4.23396" stroke-width="0.5" stroke="black" fill="magenta"/>
   </g>
   <g id="cell192">
  <circle cx="610.33" cy="512.038" r="6.69416" stroke-width="0.5" stroke="black" fill="cyan"/>
  <circle cx="610.33" cy="512.038" r="4.1082" stroke-width="0.5" stroke="black" fill="cyan"/>
   </g>
   <g id="cell193">
  <circle cx="587.615" cy="471.84" r="7.23774" stroke-width="0.5" stroke="black" fill="cyan"/>
  <circle cx="587.615" cy="471.84" r="4.39781" stroke-width="0.5" stroke="black" fill="cyan"/>
   </g>
   <g id="cell194">
  <circle cx="447.025" cy="623.118" r="7.21002" stroke-width="0.5" stroke="black" fill="magenta"/>
  <circle cx="447.025" cy="623.118" r="4.37938" stroke-width="0.5" stroke="black" fill="magenta"/>
   </g>
   <g id="cell195">
  <circle cx="564.439" cy="525.041" r="7.13842" stroke-width="0.5" stroke="black" fill="cyan"/>
  <circle cx="564.439" cy="525.041" r="4.33608" stroke-width="0.5" stroke="black" fill="cyan"/>
   </g>
   <g id="cell196">
  <circle cx="508.464" cy="505.813" r="6.83277" stroke-width="0.5" stroke="black" fill="cyan"/>
  <circle cx="508.464" cy="505.813" r="4.18243" stroke-width="0.5" stroke="black" fill="cyan"/>
   </g>
   <g id="cell197">
  <circle cx="455.775" cy="447.929" r="6.80232" stroke-width="0.5" stroke="black" fill="cyan"/>
  <circle cx="455.775" cy="447.929" r="4.10504" stroke-width="0.5" stroke="black" fill="cyan"/>
   </g>
   <g id="cell198">
  <circle cx="558.913" cy="561.966" r="6.75639" stroke-width="0.5" stroke="black" fill="cyan"/>
  <circle cx="558.913" cy="561.966" r="4.06813" stroke-width="0.5" stroke="black" fill="cyan"/>
   </g>
   <g id="cell199">
  <circle cx="626.524" cy="541.919" r="6.30355" stroke-width="0.5" stroke="black" fill="green"/>
  <circle cx="626.524" cy="541.919" r="3.82868" stroke-width="0.5" stroke="black" fill="green"/>
   </g>
   <g id="cell200">
  <circle cx="594.754" cy="533.825" r="6.69878" stroke-width="0.5" stroke="black" fill="cyan"/>
  <circle cx="594.754" cy="533.825" r="4.03015" stroke-width="0.5" stroke="black" fill="cyan"/>
   </g>
   <g id="cell201">
  <circle cx="394.703" cy="492.182" r="6.53469" stroke-width="0.5" stroke="black" fill="magenta"/>
  <circle cx="394.703" cy="492.182" r="3.94791" stroke-width="0.5" stroke="black" fill="magenta"/>
   </g>
  </g>
 </g>
  <rect x="775" y="1035" width="200" height="10" stroke-width="2" stroke="rgb(255,255,255)" fill="rgb(0,0,0)"/>
  <text x="781.25" y="1028.75"
   font-family="Arial" font-size="25" fill="black" >
   200 &#956;m
  </text>
  <text x="25" y="1045"
   font-family="Arial" font-size="18.75" fill="black" >
   0 days, 0 hours, 0 minutes, and 47.3862 seconds
  </text>
  <rect x="0" y="70" width="1000" height="1000" stroke-width="2" stroke="rgb(0,0,0)" fill="none"/>
</svg>
