<?xml version="1.0" encoding="UTF-8" standalone="no"?>
<!-- Created with PhysiCell (http://PhysiCell.MathCancer.org/) -->
<svg 
 xmlns:dc="http://purl.org/dc/elements/1.1/" 
 xmlns:cc="http://creativecommons.org/ns#" 
 xmlns:rdf="http://www.w3.org/1999/02/22-rdf-syntax-ns#" 
 xmlns:svg="http://www.w3.org/2000/svg" 
 xmlns="http://www.w3.org/2000/svg" 
 version="1.1" 
 width="1000" 
 height="1070" 
 id="svg2">
  <rect x="0" y="0" width="1000" height="1070" stroke-width="2" stroke="white" fill="white"/>
  <text x="12.5" y="30"
   font-family="Arial" font-size="25" fill="black" >
   Current time: 0 days, 1 hours, and 0.00 minutes, z = 0.00 &#956;m
  </text>
  <text x="12.5" y="57.5"
   font-family="Arial" font-size="23.75" fill="black" >
   81 agents
  </text>
 <g id="tissue" 
    transform="translate(0,1070) scale(1,-1)">
  <g id="ECM">
  </g>
  <g id="cells">
   <g id="cell0">
  <circle cx="518.662" cy="529.668" r="6.71158" stroke-width="0.5" stroke="black" fill="magenta"/>
  <circle cx="518.662" cy="529.668" r="4.03435" stroke-width="0.5" stroke="black" fill="magenta"/>
   </g>
   <g id="cell1">
  <circle cx="604.281" cy="530.136" r="8.41271" stroke-width="0.5" stroke="black" fill="magenta"/>
  <circle cx="604.281" cy="530.136" r="5.05167" stroke-width="0.5" stroke="black" fill="magenta"/>
   </g>
   <g id="cell2">
  <circle cx="510.852" cy="600.599" r="8.41271" stroke-width="0.5" stroke="black" fill="magenta"/>
  <circle cx="510.852" cy="600.599" r="5.05167" stroke-width="0.5" stroke="black" fill="magenta"/>
   </g>
   <g id="cell3">
  <circle cx="532.91" cy="545.449" r="8.41271" stroke-width="0.5" stroke="black" fill="magenta"/>
  <circle cx="532.91" cy="545.449" r="5.05167" stroke-width="0.5" stroke="black" fill="magenta"/>
   </g>
   <g id="cell4">
  <circle cx="477.301" cy="439.652" r="6.80881" stroke-width="0.5" stroke="black" fill="magenta"/>
  <circle cx="477.301" cy="439.652" r="4.10709" stroke-width="0.5" stroke="black" fill="magenta"/>
   </g>
   <g id="cell5">
  <circle cx="465.032" cy="493.3" r="8.41271" stroke-width="0.5" stroke="black" fill="magenta"/>
  <circle cx="465.032" cy="493.3" r="5.05167" stroke-width="0.5" stroke="black" fill="magenta"/>
   </g>
   <g id="cell6">
  <circle cx="593.69" cy="508.751" r="8.41271" stroke-width="0.5" stroke="black" fill="magenta"/>
  <circle cx="593.69" cy="508.751" r="5.05167" stroke-width="0.5" stroke="black" fill="magenta"/>
   </g>
   <g id="cell7">
  <circle cx="512.389" cy="464.866" r="8.41271" stroke-width="0.5" stroke="black" fill="magenta"/>
  <circle cx="512.389" cy="464.866" r="5.05167" stroke-width="0.5" stroke="black" fill="magenta"/>
   </g>
   <g id="cell8">
  <circle cx="375.891" cy="544.521" r="8.41271" stroke-width="0.5" stroke="black" fill="magenta"/>
  <circle cx="375.891" cy="544.521" r="5.05167" stroke-width="0.5" stroke="black" fill="magenta"/>
   </g>
   <g id="cell9">
  <circle cx="460.472" cy="599.786" r="8.41271" stroke-width="0.5" stroke="black" fill="magenta"/>
  <circle cx="460.472" cy="599.786" r="5.05167" stroke-width="0.5" stroke="black" fill="magenta"/>
   </g>
   <g id="cell10">
  <circle cx="583.447" cy="392.105" r="8.41271" stroke-width="0.5" stroke="black" fill="magenta"/>
  <circle cx="583.447" cy="392.105" r="5.05167" stroke-width="0.5" stroke="black" fill="magenta"/>
   </g>
   <g id="cell11">
  <circle cx="589.748" cy="590.273" r="8.41271" stroke-width="0.5" stroke="black" fill="magenta"/>
  <circle cx="589.748" cy="590.273" r="5.05167" stroke-width="0.5" stroke="black" fill="magenta"/>
   </g>
   <g id="cell12">
  <circle cx="506.654" cy="586.023" r="8.41271" stroke-width="0.5" stroke="black" fill="magenta"/>
  <circle cx="506.654" cy="586.023" r="5.05167" stroke-width="0.5" stroke="black" fill="magenta"/>
   </g>
   <g id="cell13">
  <circle cx="386.016" cy="567.731" r="8.41271" stroke-width="0.5" stroke="black" fill="magenta"/>
  <circle cx="386.016" cy="567.731" r="5.05167" stroke-width="0.5" stroke="black" fill="magenta"/>
   </g>
   <g id="cell14">
  <circle cx="529.725" cy="399.438" r="8.41271" stroke-width="0.5" stroke="black" fill="magenta"/>
  <circle cx="529.725" cy="399.438" r="5.05167" stroke-width="0.5" stroke="black" fill="magenta"/>
   </g>
   <g id="cell15">
  <circle cx="384.47" cy="477.254" r="6.75639" stroke-width="0.5" stroke="black" fill="magenta"/>
  <circle cx="384.47" cy="477.254" r="4.06813" stroke-width="0.5" stroke="black" fill="magenta"/>
   </g>
   <g id="cell16">
  <circle cx="428.96" cy="413.216" r="8.41271" stroke-width="0.5" stroke="black" fill="magenta"/>
  <circle cx="428.96" cy="413.216" r="5.05167" stroke-width="0.5" stroke="black" fill="magenta"/>
   </g>
   <g id="cell17">
  <circle cx="571.754" cy="489.982" r="8.41271" stroke-width="0.5" stroke="black" fill="magenta"/>
  <circle cx="571.754" cy="489.982" r="5.05167" stroke-width="0.5" stroke="black" fill="magenta"/>
   </g>
   <g id="cell18">
  <circle cx="512.189" cy="388.5" r="6.86652" stroke-width="0.5" stroke="black" fill="magenta"/>
  <circle cx="512.189" cy="388.5" r="4.14883" stroke-width="0.5" stroke="black" fill="magenta"/>
   </g>
   <g id="cell19">
  <circle cx="451.777" cy="538.91" r="8.41271" stroke-width="0.5" stroke="black" fill="magenta"/>
  <circle cx="451.777" cy="538.91" r="5.05167" stroke-width="0.5" stroke="black" fill="magenta"/>
   </g>
   <g id="cell20">
  <circle cx="532.112" cy="415.135" r="8.41271" stroke-width="0.5" stroke="black" fill="magenta"/>
  <circle cx="532.112" cy="415.135" r="5.05167" stroke-width="0.5" stroke="black" fill="magenta"/>
   </g>
   <g id="cell21">
  <circle cx="464.369" cy="634.574" r="8.41271" stroke-width="0.5" stroke="black" fill="magenta"/>
  <circle cx="464.369" cy="634.574" r="5.05167" stroke-width="0.5" stroke="black" fill="magenta"/>
   </g>
   <g id="cell22">
  <circle cx="557.029" cy="493.551" r="8.41271" stroke-width="0.5" stroke="black" fill="magenta"/>
  <circle cx="557.029" cy="493.551" r="5.05167" stroke-width="0.5" stroke="black" fill="magenta"/>
   </g>
   <g id="cell23">
  <circle cx="536.417" cy="482.009" r="8.41271" stroke-width="0.5" stroke="black" fill="magenta"/>
  <circle cx="536.417" cy="482.009" r="5.05167" stroke-width="0.5" stroke="black" fill="magenta"/>
   </g>
   <g id="cell24">
  <circle cx="559.289" cy="379.785" r="8.41271" stroke-width="0.5" stroke="black" fill="magenta"/>
  <circle cx="559.289" cy="379.785" r="5.05167" stroke-width="0.5" stroke="black" fill="magenta"/>
   </g>
   <g id="cell25">
  <circle cx="640.943" cy="550.03" r="8.41271" stroke-width="0.5" stroke="black" fill="green"/>
  <circle cx="640.943" cy="550.03" r="5.05167" stroke-width="0.5" stroke="black" fill="green"/>
   </g>
   <g id="cell26">
  <circle cx="551.071" cy="401.256" r="8.41271" stroke-width="0.5" stroke="black" fill="green"/>
  <circle cx="551.071" cy="401.256" r="5.05167" stroke-width="0.5" stroke="black" fill="green"/>
   </g>
   <g id="cell27">
  <circle cx="457.446" cy="388.678" r="8.41271" stroke-width="0.5" stroke="black" fill="green"/>
  <circle cx="457.446" cy="388.678" r="5.05167" stroke-width="0.5" stroke="black" fill="green"/>
   </g>
   <g id="cell28">
  <circle cx="438.467" cy="530.834" r="8.41271" stroke-width="0.5" stroke="black" fill="green"/>
  <circle cx="438.467" cy="530.834" r="5.05167" stroke-width="0.5" stroke="black" fill="green"/>
   </g>
   <g id="cell29">
  <circle cx="449.165" cy="518.972" r="8.41271" stroke-width="0.5" stroke="black" fill="green"/>
  <circle cx="449.165" cy="518.972" r="5.05167" stroke-width="0.5" stroke="black" fill="green"/>
   </g>
   <g id="cell30">
  <circle cx="481.58" cy="540.282" r="8.41271" stroke-width="0.5" stroke="black" fill="green"/>
  <circle cx="481.58" cy="540.282" r="5.05167" stroke-width="0.5" stroke="black" fill="green"/>
   </g>
   <g id="cell31">
  <circle cx="412.754" cy="541.172" r="8.41271" stroke-width="0.5" stroke="black" fill="green"/>
  <circle cx="412.754" cy="541.172" r="5.05167" stroke-width="0.5" stroke="black" fill="green"/>
   </g>
   <g id="cell32">
  <circle cx="426.543" cy="473.694" r="8.41271" stroke-width="0.5" stroke="black" fill="green"/>
  <circle cx="426.543" cy="473.694" r="5.05167" stroke-width="0.5" stroke="black" fill="green"/>
   </g>
   <g id="cell33">
  <circle cx="494.185" cy="423.829" r="8.41271" stroke-width="0.5" stroke="black" fill="green"/>
  <circle cx="494.185" cy="423.829" r="5.05167" stroke-width="0.5" stroke="black" fill="green"/>
   </g>
   <g id="cell34">
  <circle cx="397.139" cy="450.879" r="8.41271" stroke-width="0.5" stroke="black" fill="green"/>
  <circle cx="397.139" cy="450.879" r="5.05167" stroke-width="0.5" stroke="black" fill="green"/>
   </g>
   <g id="cell35">
  <circle cx="548.447" cy="544.859" r="8.41271" stroke-width="0.5" stroke="black" fill="green"/>
  <circle cx="548.447" cy="544.859" r="5.05167" stroke-width="0.5" stroke="black" fill="green"/>
   </g>
   <g id="cell36">
  <circle cx="391.273" cy="582.633" r="8.41271" stroke-width="0.5" stroke="black" fill="green"/>
  <circle cx="391.273" cy="582.633" r="5.05167" stroke-width="0.5" stroke="black" fill="green"/>
   </g>
   <g id="cell37">
  <circle cx="634.871" cy="460.618" r="8.41271" stroke-width="0.5" stroke="black" fill="green"/>
  <circle cx="634.871" cy="460.618" r="5.05167" stroke-width="0.5" stroke="black" fill="green"/>
   </g>
   <g id="cell38">
  <circle cx="536.221" cy="601.832" r="8.41271" stroke-width="0.5" stroke="black" fill="green"/>
  <circle cx="536.221" cy="601.832" r="5.05167" stroke-width="0.5" stroke="black" fill="green"/>
   </g>
   <g id="cell39">
  <circle cx="616.59" cy="493.544" r="6.67717" stroke-width="0.5" stroke="black" fill="green"/>
  <circle cx="616.59" cy="493.544" r="4.00951" stroke-width="0.5" stroke="black" fill="green"/>
   </g>
   <g id="cell40">
  <circle cx="485.348" cy="571.779" r="8.41271" stroke-width="0.5" stroke="black" fill="green"/>
  <circle cx="485.348" cy="571.779" r="5.05167" stroke-width="0.5" stroke="black" fill="green"/>
   </g>
   <g id="cell41">
  <circle cx="364.19" cy="479.821" r="8.41271" stroke-width="0.5" stroke="black" fill="green"/>
  <circle cx="364.19" cy="479.821" r="5.05167" stroke-width="0.5" stroke="black" fill="green"/>
   </g>
   <g id="cell42">
  <circle cx="438.842" cy="494.268" r="8.41271" stroke-width="0.5" stroke="black" fill="green"/>
  <circle cx="438.842" cy="494.268" r="5.05167" stroke-width="0.5" stroke="black" fill="green"/>
   </g>
   <g id="cell43">
  <circle cx="558.559" cy="445.735" r="8.41271" stroke-width="0.5" stroke="black" fill="green"/>
  <circle cx="558.559" cy="445.735" r="5.05167" stroke-width="0.5" stroke="black" fill="green"/>
   </g>
   <g id="cell44">
  <circle cx="475.857" cy="624.021" r="8.41271" stroke-width="0.5" stroke="black" fill="green"/>
  <circle cx="475.857" cy="624.021" r="5.05167" stroke-width="0.5" stroke="black" fill="green"/>
   </g>
   <g id="cell45">
  <circle cx="414.956" cy="557.087" r="8.41271" stroke-width="0.5" stroke="black" fill="green"/>
  <circle cx="414.956" cy="557.087" r="5.05167" stroke-width="0.5" stroke="black" fill="green"/>
   </g>
   <g id="cell46">
  <circle cx="522.726" cy="610.802" r="8.41271" stroke-width="0.5" stroke="black" fill="green"/>
  <circle cx="522.726" cy="610.802" r="5.05167" stroke-width="0.5" stroke="black" fill="green"/>
   </g>
   <g id="cell47">
  <circle cx="503.02" cy="507.144" r="8.41271" stroke-width="0.5" stroke="black" fill="green"/>
  <circle cx="503.02" cy="507.144" r="5.05167" stroke-width="0.5" stroke="black" fill="green"/>
   </g>
   <g id="cell48">
  <circle cx="564.517" cy="602.786" r="8.41271" stroke-width="0.5" stroke="black" fill="green"/>
  <circle cx="564.517" cy="602.786" r="5.05167" stroke-width="0.5" stroke="black" fill="green"/>
   </g>
   <g id="cell49">
  <circle cx="429.826" cy="397.641" r="8.41271" stroke-width="0.5" stroke="black" fill="green"/>
  <circle cx="429.826" cy="397.641" r="5.05167" stroke-width="0.5" stroke="black" fill="green"/>
   </g>
   <g id="cell50">
  <circle cx="518.883" cy="515.538" r="8.41271" stroke-width="0.5" stroke="black" fill="cyan"/>
  <circle cx="518.883" cy="515.538" r="5.05167" stroke-width="0.5" stroke="black" fill="cyan"/>
   </g>
   <g id="cell51">
  <circle cx="399.111" cy="597.967" r="8.41271" stroke-width="0.5" stroke="black" fill="cyan"/>
  <circle cx="399.111" cy="597.967" r="5.05167" stroke-width="0.5" stroke="black" fill="cyan"/>
   </g>
   <g id="cell52">
  <circle cx="521.686" cy="428.947" r="8.41271" stroke-width="0.5" stroke="black" fill="cyan"/>
  <circle cx="521.686" cy="428.947" r="5.05167" stroke-width="0.5" stroke="black" fill="cyan"/>
   </g>
   <g id="cell53">
  <circle cx="571.299" cy="435.995" r="8.41271" stroke-width="0.5" stroke="black" fill="cyan"/>
  <circle cx="571.299" cy="435.995" r="5.05167" stroke-width="0.5" stroke="black" fill="cyan"/>
   </g>
   <g id="cell54">
  <circle cx="478.415" cy="425.66" r="8.41271" stroke-width="0.5" stroke="black" fill="cyan"/>
  <circle cx="478.415" cy="425.66" r="5.05167" stroke-width="0.5" stroke="black" fill="cyan"/>
   </g>
   <g id="cell55">
  <circle cx="527.04" cy="469.739" r="8.41271" stroke-width="0.5" stroke="black" fill="cyan"/>
  <circle cx="527.04" cy="469.739" r="5.05167" stroke-width="0.5" stroke="black" fill="cyan"/>
   </g>
   <g id="cell56">
  <circle cx="617.771" cy="522.286" r="8.41271" stroke-width="0.5" stroke="black" fill="cyan"/>
  <circle cx="617.771" cy="522.286" r="5.05167" stroke-width="0.5" stroke="black" fill="cyan"/>
   </g>
   <g id="cell57">
  <circle cx="416.924" cy="617.466" r="8.41271" stroke-width="0.5" stroke="black" fill="cyan"/>
  <circle cx="416.924" cy="617.466" r="5.05167" stroke-width="0.5" stroke="black" fill="cyan"/>
   </g>
   <g id="cell58">
  <circle cx="551.602" cy="479.072" r="8.41271" stroke-width="0.5" stroke="black" fill="cyan"/>
  <circle cx="551.602" cy="479.072" r="5.05167" stroke-width="0.5" stroke="black" fill="cyan"/>
   </g>
   <g id="cell59">
  <circle cx="385.412" cy="439.754" r="8.41271" stroke-width="0.5" stroke="black" fill="cyan"/>
  <circle cx="385.412" cy="439.754" r="5.05167" stroke-width="0.5" stroke="black" fill="cyan"/>
   </g>
   <g id="cell60">
  <circle cx="593.501" cy="473.609" r="8.41271" stroke-width="0.5" stroke="black" fill="cyan"/>
  <circle cx="593.501" cy="473.609" r="5.05167" stroke-width="0.5" stroke="black" fill="cyan"/>
   </g>
   <g id="cell61">
  <circle cx="553.003" cy="613.953" r="8.41271" stroke-width="0.5" stroke="black" fill="cyan"/>
  <circle cx="553.003" cy="613.953" r="5.05167" stroke-width="0.5" stroke="black" fill="cyan"/>
   </g>
   <g id="cell62">
  <circle cx="525.092" cy="444.875" r="8.41271" stroke-width="0.5" stroke="black" fill="cyan"/>
  <circle cx="525.092" cy="444.875" r="5.05167" stroke-width="0.5" stroke="black" fill="cyan"/>
   </g>
   <g id="cell63">
  <circle cx="577.817" cy="546.437" r="8.41271" stroke-width="0.5" stroke="black" fill="cyan"/>
  <circle cx="577.817" cy="546.437" r="5.05167" stroke-width="0.5" stroke="black" fill="cyan"/>
   </g>
   <g id="cell64">
  <circle cx="509.962" cy="636.825" r="8.41271" stroke-width="0.5" stroke="black" fill="cyan"/>
  <circle cx="509.962" cy="636.825" r="5.05167" stroke-width="0.5" stroke="black" fill="cyan"/>
   </g>
   <g id="cell65">
  <circle cx="542.397" cy="466.308" r="8.41271" stroke-width="0.5" stroke="black" fill="cyan"/>
  <circle cx="542.397" cy="466.308" r="5.05167" stroke-width="0.5" stroke="black" fill="cyan"/>
   </g>
   <g id="cell66">
  <circle cx="535.179" cy="530.037" r="8.41271" stroke-width="0.5" stroke="black" fill="cyan"/>
  <circle cx="535.179" cy="530.037" r="5.05167" stroke-width="0.5" stroke="black" fill="cyan"/>
   </g>
   <g id="cell67">
  <circle cx="354.398" cy="492.979" r="8.41271" stroke-width="0.5" stroke="black" fill="cyan"/>
  <circle cx="354.398" cy="492.979" r="5.05167" stroke-width="0.5" stroke="black" fill="cyan"/>
   </g>
   <g id="cell68">
  <circle cx="562.789" cy="551.75" r="8.41271" stroke-width="0.5" stroke="black" fill="cyan"/>
  <circle cx="562.789" cy="551.75" r="5.05167" stroke-width="0.5" stroke="black" fill="cyan"/>
   </g>
   <g id="cell69">
  <circle cx="433.993" cy="461.101" r="6.89675" stroke-width="0.5" stroke="black" fill="cyan"/>
  <circle cx="433.993" cy="461.101" r="4.17024" stroke-width="0.5" stroke="black" fill="cyan"/>
   </g>
   <g id="cell70">
  <circle cx="576.78" cy="475.169" r="8.41271" stroke-width="0.5" stroke="black" fill="cyan"/>
  <circle cx="576.78" cy="475.169" r="5.05167" stroke-width="0.5" stroke="black" fill="cyan"/>
   </g>
   <g id="cell71">
  <circle cx="377.712" cy="520.989" r="8.41271" stroke-width="0.5" stroke="black" fill="cyan"/>
  <circle cx="377.712" cy="520.989" r="5.05167" stroke-width="0.5" stroke="black" fill="cyan"/>
   </g>
   <g id="cell72">
  <circle cx="534.943" cy="514.024" r="8.41271" stroke-width="0.5" stroke="black" fill="cyan"/>
  <circle cx="534.943" cy="514.024" r="5.05167" stroke-width="0.5" stroke="black" fill="cyan"/>
   </g>
   <g id="cell73">
  <circle cx="360.355" cy="545.935" r="8.41271" stroke-width="0.5" stroke="black" fill="cyan"/>
  <circle cx="360.355" cy="545.935" r="5.05167" stroke-width="0.5" stroke="black" fill="cyan"/>
   </g>
   <g id="cell74">
  <circle cx="542.459" cy="446.541" r="8.41271" stroke-width="0.5" stroke="black" fill="cyan"/>
  <circle cx="542.459" cy="446.541" r="5.05167" stroke-width="0.5" stroke="black" fill="cyan"/>
   </g>
   <g id="cell75">
  <circle cx="441.006" cy="472.141" r="6.89675" stroke-width="0.5" stroke="black" fill="cyan"/>
  <circle cx="441.006" cy="472.141" r="4.17024" stroke-width="0.5" stroke="black" fill="cyan"/>
   </g>
   <g id="cell76">
  <circle cx="524.372" cy="386.47" r="6.86652" stroke-width="0.5" stroke="black" fill="magenta"/>
  <circle cx="524.372" cy="386.47" r="4.14883" stroke-width="0.5" stroke="black" fill="magenta"/>
   </g>
   <g id="cell77">
  <circle cx="489.176" cy="436.952" r="6.80881" stroke-width="0.5" stroke="black" fill="magenta"/>
  <circle cx="489.176" cy="436.952" r="4.10709" stroke-width="0.5" stroke="black" fill="magenta"/>
   </g>
   <g id="cell78">
  <circle cx="374.752" cy="469.931" r="6.75639" stroke-width="0.5" stroke="black" fill="magenta"/>
  <circle cx="374.752" cy="469.931" r="4.06813" stroke-width="0.5" stroke="black" fill="magenta"/>
   </g>
   <g id="cell79">
  <circle cx="506.539" cy="529.675" r="6.71158" stroke-width="0.5" stroke="black" fill="magenta"/>
  <circle cx="506.539" cy="529.675" r="4.03435" stroke-width="0.5" stroke="black" fill="magenta"/>
   </g>
   <g id="cell80">
  <circle cx="607.671" cy="485.147" r="6.67717" stroke-width="0.5" stroke="black" fill="green"/>
  <circle cx="607.671" cy="485.147" r="4.00951" stroke-width="0.5" stroke="black" fill="green"/>
   </g>
  </g>
 </g>
  <rect x="775" y="1035" width="200" height="10" stroke-width="2" stroke="rgb(255,255,255)" fill="rgb(0,0,0)"/>
  <text x="781.25" y="1028.75"
   font-family="Arial" font-size="25" fill="black" >
   200 &#956;m
  </text>
  <text x="25" y="1045"
   font-family="Arial" font-size="18.75" fill="black" >
   0 days, 0 hours, 0 minutes, and 1.3764 seconds
  </text>
  <rect x="0" y="70" width="1000" height="1000" stroke-width="2" stroke="rgb(0,0,0)" fill="none"/>
</svg>
