<?xml version="1.0" encoding="UTF-8" standalone="no"?>
<!-- Created with PhysiCell (http://PhysiCell.MathCancer.org/) -->
<svg 
 xmlns:dc="http://purl.org/dc/elements/1.1/" 
 xmlns:cc="http://creativecommons.org/ns#" 
 xmlns:rdf="http://www.w3.org/1999/02/22-rdf-syntax-ns#" 
 xmlns:svg="http://www.w3.org/2000/svg" 
 xmlns="http://www.w3.org/2000/svg" 
 version="1.1" 
 width="1000" 
 height="1070" 
 id="svg2">
  <rect x="0" y="0" width="1000" height="1070" stroke-width="2" stroke="white" fill="white"/>
  <text x="12.5" y="30"
   font-family="Arial" font-size="25" fill="black" >
   Current time: 0 days, 6 hours, and 30.00 minutes, z = 0.00 &#956;m
  </text>
  <text x="12.5" y="57.5"
   font-family="Arial" font-size="23.75" fill="black" >
   96 agents
  </text>
 <g id="tissue" 
    transform="translate(0,1070) scale(1,-1)">
  <g id="ECM">
  </g>
  <g id="cells">
   <g id="cell0">
  <circle cx="521.549" cy="532.295" r="8.00101" stroke-width="0.5" stroke="black" fill="magenta"/>
  <circle cx="521.549" cy="532.295" r="4.84939" stroke-width="0.5" stroke="black" fill="magenta"/>
   </g>
   <g id="cell1">
  <circle cx="602.966" cy="527.326" r="8.41271" stroke-width="0.5" stroke="black" fill="magenta"/>
  <circle cx="602.966" cy="527.326" r="5.05167" stroke-width="0.5" stroke="black" fill="magenta"/>
   </g>
   <g id="cell2">
  <circle cx="510.789" cy="600.551" r="8.41271" stroke-width="0.5" stroke="black" fill="magenta"/>
  <circle cx="510.789" cy="600.551" r="5.05167" stroke-width="0.5" stroke="black" fill="magenta"/>
   </g>
   <g id="cell3">
  <circle cx="531.225" cy="543.461" r="8.41271" stroke-width="0.5" stroke="black" fill="magenta"/>
  <circle cx="531.225" cy="543.461" r="5.05167" stroke-width="0.5" stroke="black" fill="magenta"/>
   </g>
   <g id="cell4">
  <circle cx="473.267" cy="441.486" r="8.04604" stroke-width="0.5" stroke="black" fill="magenta"/>
  <circle cx="473.267" cy="441.486" r="4.87399" stroke-width="0.5" stroke="black" fill="magenta"/>
   </g>
   <g id="cell5">
  <circle cx="464.576" cy="493.241" r="8.41271" stroke-width="0.5" stroke="black" fill="magenta"/>
  <circle cx="464.576" cy="493.241" r="5.05167" stroke-width="0.5" stroke="black" fill="magenta"/>
   </g>
   <g id="cell6">
  <circle cx="596.901" cy="514.805" r="7.08639" stroke-width="0.5" stroke="black" fill="magenta"/>
  <circle cx="596.901" cy="514.805" r="4.29876" stroke-width="0.5" stroke="black" fill="magenta"/>
   </g>
   <g id="cell7">
  <circle cx="512.198" cy="464.815" r="8.41271" stroke-width="0.5" stroke="black" fill="magenta"/>
  <circle cx="512.198" cy="464.815" r="5.05167" stroke-width="0.5" stroke="black" fill="magenta"/>
   </g>
   <g id="cell8">
  <circle cx="376.394" cy="547.7" r="8.41271" stroke-width="0.5" stroke="black" fill="magenta"/>
  <circle cx="376.394" cy="547.7" r="5.05167" stroke-width="0.5" stroke="black" fill="magenta"/>
   </g>
   <g id="cell9">
  <circle cx="464.684" cy="601.007" r="7.02257" stroke-width="0.5" stroke="black" fill="magenta"/>
  <circle cx="464.684" cy="601.007" r="4.25644" stroke-width="0.5" stroke="black" fill="magenta"/>
   </g>
   <g id="cell10">
  <circle cx="583.447" cy="392.105" r="8.41271" stroke-width="0.5" stroke="black" fill="magenta"/>
  <circle cx="583.447" cy="392.105" r="5.05167" stroke-width="0.5" stroke="black" fill="magenta"/>
   </g>
   <g id="cell11">
  <circle cx="589.748" cy="590.273" r="8.41271" stroke-width="0.5" stroke="black" fill="magenta"/>
  <circle cx="589.748" cy="590.273" r="5.05167" stroke-width="0.5" stroke="black" fill="magenta"/>
   </g>
   <g id="cell12">
  <circle cx="506.646" cy="585.995" r="8.41271" stroke-width="0.5" stroke="black" fill="magenta"/>
  <circle cx="506.646" cy="585.995" r="5.05167" stroke-width="0.5" stroke="black" fill="magenta"/>
   </g>
   <g id="cell13">
  <circle cx="381.203" cy="560.97" r="7.27253" stroke-width="0.5" stroke="black" fill="magenta"/>
  <circle cx="381.203" cy="560.97" r="4.41835" stroke-width="0.5" stroke="black" fill="magenta"/>
   </g>
   <g id="cell14">
  <circle cx="526.481" cy="400.155" r="8.41271" stroke-width="0.5" stroke="black" fill="magenta"/>
  <circle cx="526.481" cy="400.155" r="5.05167" stroke-width="0.5" stroke="black" fill="magenta"/>
   </g>
   <g id="cell15">
  <circle cx="385.216" cy="478.03" r="8.02418" stroke-width="0.5" stroke="black" fill="magenta"/>
  <circle cx="385.216" cy="478.03" r="4.86209" stroke-width="0.5" stroke="black" fill="magenta"/>
   </g>
   <g id="cell16">
  <circle cx="428.96" cy="413.217" r="8.41271" stroke-width="0.5" stroke="black" fill="magenta"/>
  <circle cx="428.96" cy="413.217" r="5.05167" stroke-width="0.5" stroke="black" fill="magenta"/>
   </g>
   <g id="cell17">
  <circle cx="574.104" cy="489.792" r="8.41271" stroke-width="0.5" stroke="black" fill="magenta"/>
  <circle cx="574.104" cy="489.792" r="5.05167" stroke-width="0.5" stroke="black" fill="magenta"/>
   </g>
   <g id="cell18">
  <circle cx="514.002" cy="392.036" r="8.06667" stroke-width="0.5" stroke="black" fill="magenta"/>
  <circle cx="514.002" cy="392.036" r="4.88515" stroke-width="0.5" stroke="black" fill="magenta"/>
   </g>
   <g id="cell19">
  <circle cx="447.918" cy="536.149" r="6.73287" stroke-width="0.5" stroke="black" fill="magenta"/>
  <circle cx="447.918" cy="536.149" r="4.05039" stroke-width="0.5" stroke="black" fill="magenta"/>
   </g>
   <g id="cell20">
  <circle cx="529.727" cy="415.187" r="8.41271" stroke-width="0.5" stroke="black" fill="magenta"/>
  <circle cx="529.727" cy="415.187" r="5.05167" stroke-width="0.5" stroke="black" fill="magenta"/>
   </g>
   <g id="cell21">
  <circle cx="462.949" cy="635.471" r="8.41271" stroke-width="0.5" stroke="black" fill="magenta"/>
  <circle cx="462.949" cy="635.471" r="5.05167" stroke-width="0.5" stroke="black" fill="magenta"/>
   </g>
   <g id="cell22">
  <circle cx="560.39" cy="495.262" r="7.89373" stroke-width="0.5" stroke="black" fill="magenta"/>
  <circle cx="560.39" cy="495.262" r="4.78957" stroke-width="0.5" stroke="black" fill="magenta"/>
   </g>
   <g id="cell23">
  <circle cx="537.803" cy="481.649" r="8.41271" stroke-width="0.5" stroke="black" fill="magenta"/>
  <circle cx="537.803" cy="481.649" r="5.05167" stroke-width="0.5" stroke="black" fill="magenta"/>
   </g>
   <g id="cell24">
  <circle cx="559.288" cy="379.787" r="8.41271" stroke-width="0.5" stroke="black" fill="magenta"/>
  <circle cx="559.288" cy="379.787" r="5.05167" stroke-width="0.5" stroke="black" fill="magenta"/>
   </g>
   <g id="cell25">
  <circle cx="640.943" cy="550.03" r="8.41271" stroke-width="0.5" stroke="black" fill="green"/>
  <circle cx="640.943" cy="550.03" r="5.05167" stroke-width="0.5" stroke="black" fill="green"/>
   </g>
   <g id="cell26">
  <circle cx="550.641" cy="401.23" r="8.41271" stroke-width="0.5" stroke="black" fill="green"/>
  <circle cx="550.641" cy="401.23" r="5.05167" stroke-width="0.5" stroke="black" fill="green"/>
   </g>
   <g id="cell27">
  <circle cx="457.446" cy="388.678" r="8.41271" stroke-width="0.5" stroke="black" fill="green"/>
  <circle cx="457.446" cy="388.678" r="5.05167" stroke-width="0.5" stroke="black" fill="green"/>
   </g>
   <g id="cell28">
  <circle cx="434.397" cy="532.926" r="8.41271" stroke-width="0.5" stroke="black" fill="green"/>
  <circle cx="434.397" cy="532.926" r="5.05167" stroke-width="0.5" stroke="black" fill="green"/>
   </g>
   <g id="cell29">
  <circle cx="455.344" cy="522.016" r="7.21189" stroke-width="0.5" stroke="black" fill="green"/>
  <circle cx="455.344" cy="522.016" r="4.37993" stroke-width="0.5" stroke="black" fill="green"/>
   </g>
   <g id="cell30">
  <circle cx="481.58" cy="540.282" r="8.41271" stroke-width="0.5" stroke="black" fill="green"/>
  <circle cx="481.58" cy="540.282" r="5.05167" stroke-width="0.5" stroke="black" fill="green"/>
   </g>
   <g id="cell31">
  <circle cx="412.757" cy="541.193" r="8.41271" stroke-width="0.5" stroke="black" fill="green"/>
  <circle cx="412.757" cy="541.193" r="5.05167" stroke-width="0.5" stroke="black" fill="green"/>
   </g>
   <g id="cell32">
  <circle cx="428.425" cy="471.188" r="7.3599" stroke-width="0.5" stroke="black" fill="green"/>
  <circle cx="428.425" cy="471.188" r="4.47294" stroke-width="0.5" stroke="black" fill="green"/>
   </g>
   <g id="cell33">
  <circle cx="498.559" cy="414.077" r="7.49456" stroke-width="0.5" stroke="black" fill="green"/>
  <circle cx="498.559" cy="414.077" r="4.55548" stroke-width="0.5" stroke="black" fill="green"/>
   </g>
   <g id="cell34">
  <circle cx="392.347" cy="452.886" r="7.27253" stroke-width="0.5" stroke="black" fill="green"/>
  <circle cx="392.347" cy="452.886" r="4.41835" stroke-width="0.5" stroke="black" fill="green"/>
   </g>
   <g id="cell35">
  <circle cx="546.767" cy="545.042" r="8.41271" stroke-width="0.5" stroke="black" fill="green"/>
  <circle cx="546.767" cy="545.042" r="5.05167" stroke-width="0.5" stroke="black" fill="green"/>
   </g>
   <g id="cell36">
  <circle cx="391.071" cy="584.645" r="8.41271" stroke-width="0.5" stroke="black" fill="green"/>
  <circle cx="391.071" cy="584.645" r="5.05167" stroke-width="0.5" stroke="black" fill="green"/>
   </g>
   <g id="cell37">
  <circle cx="634.871" cy="460.618" r="8.41271" stroke-width="0.5" stroke="black" fill="green"/>
  <circle cx="634.871" cy="460.618" r="5.05167" stroke-width="0.5" stroke="black" fill="green"/>
   </g>
   <g id="cell38">
  <circle cx="532.592" cy="602.925" r="6.78181" stroke-width="0.5" stroke="black" fill="green"/>
  <circle cx="532.592" cy="602.925" r="4.08714" stroke-width="0.5" stroke="black" fill="green"/>
   </g>
   <g id="cell39">
  <circle cx="617.189" cy="494.106" r="7.97646" stroke-width="0.5" stroke="black" fill="green"/>
  <circle cx="617.189" cy="494.106" r="4.83584" stroke-width="0.5" stroke="black" fill="green"/>
   </g>
   <g id="cell40">
  <circle cx="485.348" cy="571.779" r="8.41271" stroke-width="0.5" stroke="black" fill="green"/>
  <circle cx="485.348" cy="571.779" r="5.05167" stroke-width="0.5" stroke="black" fill="green"/>
   </g>
   <g id="cell41">
  <circle cx="364.056" cy="480.196" r="8.41271" stroke-width="0.5" stroke="black" fill="green"/>
  <circle cx="364.056" cy="480.196" r="5.05167" stroke-width="0.5" stroke="black" fill="green"/>
   </g>
   <g id="cell42">
  <circle cx="451.201" cy="489.127" r="6.81452" stroke-width="0.5" stroke="black" fill="green"/>
  <circle cx="451.201" cy="489.127" r="4.17078" stroke-width="0.5" stroke="black" fill="green"/>
   </g>
   <g id="cell43">
  <circle cx="557.987" cy="445.565" r="8.41271" stroke-width="0.5" stroke="black" fill="green"/>
  <circle cx="557.987" cy="445.565" r="5.05167" stroke-width="0.5" stroke="black" fill="green"/>
   </g>
   <g id="cell44">
  <circle cx="475.472" cy="628.375" r="7.18097" stroke-width="0.5" stroke="black" fill="green"/>
  <circle cx="475.472" cy="628.375" r="4.36015" stroke-width="0.5" stroke="black" fill="green"/>
   </g>
   <g id="cell45">
  <circle cx="414.953" cy="557.066" r="8.41271" stroke-width="0.5" stroke="black" fill="green"/>
  <circle cx="414.953" cy="557.066" r="5.05167" stroke-width="0.5" stroke="black" fill="green"/>
   </g>
   <g id="cell46">
  <circle cx="521.449" cy="611.918" r="8.41271" stroke-width="0.5" stroke="black" fill="green"/>
  <circle cx="521.449" cy="611.918" r="5.05167" stroke-width="0.5" stroke="black" fill="green"/>
   </g>
   <g id="cell47">
  <circle cx="504.792" cy="508.96" r="8.41271" stroke-width="0.5" stroke="black" fill="green"/>
  <circle cx="504.792" cy="508.96" r="5.05167" stroke-width="0.5" stroke="black" fill="green"/>
   </g>
   <g id="cell48">
  <circle cx="564.513" cy="602.79" r="8.41271" stroke-width="0.5" stroke="black" fill="green"/>
  <circle cx="564.513" cy="602.79" r="5.05167" stroke-width="0.5" stroke="black" fill="green"/>
   </g>
   <g id="cell49">
  <circle cx="429.826" cy="397.641" r="8.41271" stroke-width="0.5" stroke="black" fill="green"/>
  <circle cx="429.826" cy="397.641" r="5.05167" stroke-width="0.5" stroke="black" fill="green"/>
   </g>
   <g id="cell50">
  <circle cx="518.314" cy="517.43" r="8.41271" stroke-width="0.5" stroke="black" fill="cyan"/>
  <circle cx="518.314" cy="517.43" r="5.05167" stroke-width="0.5" stroke="black" fill="cyan"/>
   </g>
   <g id="cell51">
  <circle cx="399.385" cy="598.361" r="8.41271" stroke-width="0.5" stroke="black" fill="cyan"/>
  <circle cx="399.385" cy="598.361" r="5.05167" stroke-width="0.5" stroke="black" fill="cyan"/>
   </g>
   <g id="cell52">
  <circle cx="523.774" cy="427.225" r="5.19915" stroke-width="0.5" stroke="black" fill="cyan"/>
  <circle cx="523.774" cy="427.225" r="3.42443" stroke-width="0.5" stroke="black" fill="black"/>
   </g>
   <g id="cell53">
  <circle cx="571.01" cy="436.209" r="8.41271" stroke-width="0.5" stroke="black" fill="cyan"/>
  <circle cx="571.01" cy="436.209" r="5.05167" stroke-width="0.5" stroke="black" fill="cyan"/>
   </g>
   <g id="cell54">
  <circle cx="479.227" cy="427.445" r="8.41271" stroke-width="0.5" stroke="black" fill="cyan"/>
  <circle cx="479.227" cy="427.445" r="5.05167" stroke-width="0.5" stroke="black" fill="cyan"/>
   </g>
   <g id="cell55">
  <circle cx="526.88" cy="470.197" r="8.41271" stroke-width="0.5" stroke="black" fill="cyan"/>
  <circle cx="526.88" cy="470.197" r="5.05167" stroke-width="0.5" stroke="black" fill="cyan"/>
   </g>
   <g id="cell56">
  <circle cx="617.73" cy="522.299" r="8.41271" stroke-width="0.5" stroke="black" fill="cyan"/>
  <circle cx="617.73" cy="522.299" r="5.05167" stroke-width="0.5" stroke="black" fill="cyan"/>
   </g>
   <g id="cell57">
  <circle cx="416.924" cy="617.466" r="8.41271" stroke-width="0.5" stroke="black" fill="cyan"/>
  <circle cx="416.924" cy="617.466" r="5.05167" stroke-width="0.5" stroke="black" fill="cyan"/>
   </g>
   <g id="cell58">
  <circle cx="554.621" cy="481.766" r="8.41271" stroke-width="0.5" stroke="black" fill="cyan"/>
  <circle cx="554.621" cy="481.766" r="5.05167" stroke-width="0.5" stroke="black" fill="cyan"/>
   </g>
   <g id="cell59">
  <circle cx="385.412" cy="439.696" r="8.41271" stroke-width="0.5" stroke="black" fill="cyan"/>
  <circle cx="385.412" cy="439.696" r="5.05167" stroke-width="0.5" stroke="black" fill="cyan"/>
   </g>
   <g id="cell60">
  <circle cx="593.704" cy="474.424" r="8.41271" stroke-width="0.5" stroke="black" fill="cyan"/>
  <circle cx="593.704" cy="474.424" r="5.05167" stroke-width="0.5" stroke="black" fill="cyan"/>
   </g>
   <g id="cell61">
  <circle cx="552.958" cy="613.885" r="8.41271" stroke-width="0.5" stroke="black" fill="cyan"/>
  <circle cx="552.958" cy="613.885" r="5.05167" stroke-width="0.5" stroke="black" fill="cyan"/>
   </g>
   <g id="cell62">
  <circle cx="526.164" cy="443.72" r="8.41271" stroke-width="0.5" stroke="black" fill="cyan"/>
  <circle cx="526.164" cy="443.72" r="5.05167" stroke-width="0.5" stroke="black" fill="cyan"/>
   </g>
   <g id="cell63">
  <circle cx="579.247" cy="550.627" r="6.78181" stroke-width="0.5" stroke="black" fill="cyan"/>
  <circle cx="579.247" cy="550.627" r="4.08714" stroke-width="0.5" stroke="black" fill="cyan"/>
   </g>
   <g id="cell64">
  <circle cx="509.962" cy="636.825" r="8.41271" stroke-width="0.5" stroke="black" fill="cyan"/>
  <circle cx="509.962" cy="636.825" r="5.05167" stroke-width="0.5" stroke="black" fill="cyan"/>
   </g>
   <g id="cell65">
  <circle cx="538.366" cy="461.588" r="6.73287" stroke-width="0.5" stroke="black" fill="cyan"/>
  <circle cx="538.366" cy="461.588" r="4.05039" stroke-width="0.5" stroke="black" fill="cyan"/>
   </g>
   <g id="cell66">
  <circle cx="536.36" cy="528.739" r="8.41271" stroke-width="0.5" stroke="black" fill="cyan"/>
  <circle cx="536.36" cy="528.739" r="5.05167" stroke-width="0.5" stroke="black" fill="cyan"/>
   </g>
   <g id="cell67">
  <circle cx="354.4" cy="492.976" r="8.41271" stroke-width="0.5" stroke="black" fill="cyan"/>
  <circle cx="354.4" cy="492.976" r="5.05167" stroke-width="0.5" stroke="black" fill="cyan"/>
   </g>
   <g id="cell68">
  <circle cx="561.906" cy="550.631" r="8.41271" stroke-width="0.5" stroke="black" fill="cyan"/>
  <circle cx="561.906" cy="550.631" r="5.05167" stroke-width="0.5" stroke="black" fill="cyan"/>
   </g>
   <g id="cell69">
  <circle cx="435.565" cy="458.462" r="8.07654" stroke-width="0.5" stroke="black" fill="cyan"/>
  <circle cx="435.565" cy="458.462" r="4.89046" stroke-width="0.5" stroke="black" fill="cyan"/>
   </g>
   <g id="cell70">
  <circle cx="577.709" cy="474.591" r="8.41271" stroke-width="0.5" stroke="black" fill="cyan"/>
  <circle cx="577.709" cy="474.591" r="5.05167" stroke-width="0.5" stroke="black" fill="cyan"/>
   </g>
   <g id="cell71">
  <circle cx="377.712" cy="520.989" r="8.41271" stroke-width="0.5" stroke="black" fill="cyan"/>
  <circle cx="377.712" cy="520.989" r="5.05167" stroke-width="0.5" stroke="black" fill="cyan"/>
   </g>
   <g id="cell72">
  <circle cx="533.633" cy="512.927" r="8.41271" stroke-width="0.5" stroke="black" fill="cyan"/>
  <circle cx="533.633" cy="512.927" r="5.05167" stroke-width="0.5" stroke="black" fill="cyan"/>
   </g>
   <g id="cell73">
  <circle cx="360.875" cy="545.956" r="8.41271" stroke-width="0.5" stroke="black" fill="cyan"/>
  <circle cx="360.875" cy="545.956" r="5.05167" stroke-width="0.5" stroke="black" fill="cyan"/>
   </g>
   <g id="cell74">
  <circle cx="541.953" cy="446.564" r="8.41271" stroke-width="0.5" stroke="black" fill="cyan"/>
  <circle cx="541.953" cy="446.564" r="5.05167" stroke-width="0.5" stroke="black" fill="cyan"/>
   </g>
   <g id="cell75">
  <circle cx="443.028" cy="471.965" r="8.07654" stroke-width="0.5" stroke="black" fill="cyan"/>
  <circle cx="443.028" cy="471.965" r="4.89046" stroke-width="0.5" stroke="black" fill="cyan"/>
   </g>
   <g id="cell76">
  <circle cx="526.787" cy="385.235" r="8.06667" stroke-width="0.5" stroke="black" fill="magenta"/>
  <circle cx="526.787" cy="385.235" r="4.88515" stroke-width="0.5" stroke="black" fill="magenta"/>
   </g>
   <g id="cell77">
  <circle cx="487.659" cy="440.235" r="8.04604" stroke-width="0.5" stroke="black" fill="magenta"/>
  <circle cx="487.659" cy="440.235" r="4.87399" stroke-width="0.5" stroke="black" fill="magenta"/>
   </g>
   <g id="cell78">
  <circle cx="374.138" cy="468.783" r="8.02418" stroke-width="0.5" stroke="black" fill="magenta"/>
  <circle cx="374.138" cy="468.783" r="4.86209" stroke-width="0.5" stroke="black" fill="magenta"/>
   </g>
   <g id="cell79">
  <circle cx="507.699" cy="528.273" r="8.00101" stroke-width="0.5" stroke="black" fill="magenta"/>
  <circle cx="507.699" cy="528.273" r="4.84939" stroke-width="0.5" stroke="black" fill="magenta"/>
   </g>
   <g id="cell80">
  <circle cx="606.089" cy="483.821" r="7.97646" stroke-width="0.5" stroke="black" fill="green"/>
  <circle cx="606.089" cy="483.821" r="4.83584" stroke-width="0.5" stroke="black" fill="green"/>
   </g>
   <g id="cell81">
  <circle cx="426.663" cy="499.438" r="7.9229" stroke-width="0.5" stroke="black" fill="green"/>
  <circle cx="426.663" cy="499.438" r="4.80599" stroke-width="0.5" stroke="black" fill="green"/>
   </g>
   <g id="cell82">
  <circle cx="545.995" cy="493.912" r="7.89373" stroke-width="0.5" stroke="black" fill="magenta"/>
  <circle cx="545.995" cy="493.912" r="4.78957" stroke-width="0.5" stroke="black" fill="magenta"/>
   </g>
   <g id="cell83">
  <circle cx="494.336" cy="427.58" r="7.49456" stroke-width="0.5" stroke="black" fill="green"/>
  <circle cx="494.336" cy="427.58" r="4.55548" stroke-width="0.5" stroke="black" fill="green"/>
   </g>
   <g id="cell84">
  <circle cx="418.742" cy="481.138" r="7.3599" stroke-width="0.5" stroke="black" fill="green"/>
  <circle cx="418.742" cy="481.138" r="4.47294" stroke-width="0.5" stroke="black" fill="green"/>
   </g>
   <g id="cell85">
  <circle cx="405.079" cy="447.578" r="7.27253" stroke-width="0.5" stroke="black" fill="green"/>
  <circle cx="405.079" cy="447.578" r="4.41835" stroke-width="0.5" stroke="black" fill="green"/>
   </g>
   <g id="cell86">
  <circle cx="390.574" cy="570.097" r="7.27253" stroke-width="0.5" stroke="black" fill="magenta"/>
  <circle cx="390.574" cy="570.097" r="4.41835" stroke-width="0.5" stroke="black" fill="magenta"/>
   </g>
   <g id="cell87">
  <circle cx="441.85" cy="520.021" r="7.21189" stroke-width="0.5" stroke="black" fill="green"/>
  <circle cx="441.85" cy="520.021" r="4.37993" stroke-width="0.5" stroke="black" fill="green"/>
   </g>
   <g id="cell88">
  <circle cx="478.942" cy="615.229" r="7.18097" stroke-width="0.5" stroke="black" fill="green"/>
  <circle cx="478.942" cy="615.229" r="4.36015" stroke-width="0.5" stroke="black" fill="green"/>
   </g>
   <g id="cell89">
  <circle cx="439.499" cy="494.238" r="6.81452" stroke-width="0.5" stroke="black" fill="green"/>
  <circle cx="439.499" cy="494.238" r="4.17078" stroke-width="0.5" stroke="black" fill="green"/>
   </g>
   <g id="cell90">
  <circle cx="590.682" cy="503.699" r="7.08639" stroke-width="0.5" stroke="black" fill="magenta"/>
  <circle cx="590.682" cy="503.699" r="4.29876" stroke-width="0.5" stroke="black" fill="magenta"/>
   </g>
   <g id="cell91">
  <circle cx="452.56" cy="597.492" r="7.02257" stroke-width="0.5" stroke="black" fill="magenta"/>
  <circle cx="452.56" cy="597.492" r="4.25644" stroke-width="0.5" stroke="black" fill="magenta"/>
   </g>
   <g id="cell92">
  <circle cx="544.541" cy="598.388" r="6.78181" stroke-width="0.5" stroke="black" fill="green"/>
  <circle cx="544.541" cy="598.388" r="4.08714" stroke-width="0.5" stroke="black" fill="green"/>
   </g>
   <g id="cell93">
  <circle cx="573.137" cy="539.331" r="6.78181" stroke-width="0.5" stroke="black" fill="cyan"/>
  <circle cx="573.137" cy="539.331" r="4.08714" stroke-width="0.5" stroke="black" fill="cyan"/>
   </g>
   <g id="cell94">
  <circle cx="546.548" cy="470.789" r="6.73287" stroke-width="0.5" stroke="black" fill="cyan"/>
  <circle cx="546.548" cy="470.789" r="4.05039" stroke-width="0.5" stroke="black" fill="cyan"/>
   </g>
   <g id="cell95">
  <circle cx="459.75" cy="534.129" r="6.73287" stroke-width="0.5" stroke="black" fill="magenta"/>
  <circle cx="459.75" cy="534.129" r="4.05039" stroke-width="0.5" stroke="black" fill="magenta"/>
   </g>
  </g>
 </g>
  <rect x="775" y="1035" width="200" height="10" stroke-width="2" stroke="rgb(255,255,255)" fill="rgb(0,0,0)"/>
  <text x="781.25" y="1028.75"
   font-family="Arial" font-size="25" fill="black" >
   200 &#956;m
  </text>
  <text x="25" y="1045"
   font-family="Arial" font-size="18.75" fill="black" >
   0 days, 0 hours, 0 minutes, and 8.5126 seconds
  </text>
  <rect x="0" y="70" width="1000" height="1000" stroke-width="2" stroke="rgb(0,0,0)" fill="none"/>
</svg>
