<?xml version="1.0" encoding="UTF-8" standalone="no"?>
<!-- Created with PhysiCell (http://PhysiCell.MathCancer.org/) -->
<svg 
 xmlns:dc="http://purl.org/dc/elements/1.1/" 
 xmlns:cc="http://creativecommons.org/ns#" 
 xmlns:rdf="http://www.w3.org/1999/02/22-rdf-syntax-ns#" 
 xmlns:svg="http://www.w3.org/2000/svg" 
 xmlns="http://www.w3.org/2000/svg" 
 version="1.1" 
 width="1000" 
 height="1070" 
 id="svg2">
  <rect x="0" y="0" width="1000" height="1070" stroke-width="2" stroke="white" fill="white"/>
  <text x="12.5" y="30"
   font-family="Arial" font-size="25" fill="black" >
   Current time: 1 days, 15 hours, and 0.00 minutes, z = 0.00 &#956;m
  </text>
  <text x="12.5" y="57.5"
   font-family="Arial" font-size="23.75" fill="black" >
   213 agents
  </text>
 <g id="tissue" 
    transform="translate(0,1070) scale(1,-1)">
  <g id="ECM">
  </g>
  <g id="cells">
   <g id="cell0">
  <circle cx="510.464" cy="534.133" r="8.41266" stroke-width="0.5" stroke="black" fill="magenta"/>
  <circle cx="510.464" cy="534.133" r="5.05166" stroke-width="0.5" stroke="black" fill="magenta"/>
   </g>
   <g id="cell147">
  <circle cx="422.097" cy="577.825" r="8.3894" stroke-width="0.5" stroke="black" fill="green"/>
  <circle cx="422.097" cy="577.825" r="5.04361" stroke-width="0.5" stroke="black" fill="green"/>
   </g>
   <g id="cell2">
  <circle cx="505.312" cy="590.568" r="6.83229" stroke-width="0.5" stroke="black" fill="magenta"/>
  <circle cx="505.312" cy="590.568" r="4.12623" stroke-width="0.5" stroke="black" fill="magenta"/>
   </g>
   <g id="cell3">
  <circle cx="537.588" cy="546.402" r="8.40427" stroke-width="0.5" stroke="black" fill="magenta"/>
  <circle cx="537.588" cy="546.402" r="5.04906" stroke-width="0.5" stroke="black" fill="magenta"/>
   </g>
   <g id="cell4">
  <circle cx="451.668" cy="428.199" r="8.41267" stroke-width="0.5" stroke="black" fill="magenta"/>
  <circle cx="451.668" cy="428.199" r="5.05166" stroke-width="0.5" stroke="black" fill="magenta"/>
   </g>
   <g id="cell5">
  <circle cx="466.865" cy="500.325" r="8.39316" stroke-width="0.5" stroke="black" fill="magenta"/>
  <circle cx="466.865" cy="500.325" r="5.04503" stroke-width="0.5" stroke="black" fill="magenta"/>
   </g>
   <g id="cell6">
  <circle cx="591.759" cy="516.842" r="8.41256" stroke-width="0.5" stroke="black" fill="magenta"/>
  <circle cx="591.759" cy="516.842" r="5.05164" stroke-width="0.5" stroke="black" fill="magenta"/>
   </g>
   <g id="cell7">
  <circle cx="512.001" cy="458.597" r="8.41271" stroke-width="0.5" stroke="black" fill="magenta"/>
  <circle cx="512.001" cy="458.597" r="5.05167" stroke-width="0.5" stroke="black" fill="magenta"/>
   </g>
   <g id="cell8">
  <circle cx="359.206" cy="545.746" r="7.40359" stroke-width="0.5" stroke="black" fill="magenta"/>
  <circle cx="359.206" cy="545.746" r="4.50297" stroke-width="0.5" stroke="black" fill="magenta"/>
   </g>
   <g id="cell9">
  <circle cx="461.574" cy="601.554" r="8.41255" stroke-width="0.5" stroke="black" fill="magenta"/>
  <circle cx="461.574" cy="601.554" r="5.05164" stroke-width="0.5" stroke="black" fill="magenta"/>
   </g>
   <g id="cell10">
  <circle cx="588.321" cy="395.676" r="8.39447" stroke-width="0.5" stroke="black" fill="magenta"/>
  <circle cx="588.321" cy="395.676" r="5.04571" stroke-width="0.5" stroke="black" fill="magenta"/>
   </g>
   <g id="cell11">
  <circle cx="589.748" cy="590.273" r="8.41271" stroke-width="0.5" stroke="black" fill="magenta"/>
  <circle cx="589.748" cy="590.273" r="5.05167" stroke-width="0.5" stroke="black" fill="magenta"/>
   </g>
   <g id="cell12">
  <circle cx="496.565" cy="579.912" r="8.41271" stroke-width="0.5" stroke="black" fill="magenta"/>
  <circle cx="496.565" cy="579.912" r="5.05167" stroke-width="0.5" stroke="black" fill="magenta"/>
   </g>
   <g id="cell13">
  <circle cx="379.889" cy="558.532" r="8.41055" stroke-width="0.5" stroke="black" fill="magenta"/>
  <circle cx="379.889" cy="558.532" r="5.0511" stroke-width="0.5" stroke="black" fill="magenta"/>
   </g>
   <g id="cell14">
  <circle cx="530.005" cy="395.507" r="8.32726" stroke-width="0.5" stroke="black" fill="magenta"/>
  <circle cx="530.005" cy="395.507" r="5.01747" stroke-width="0.5" stroke="black" fill="magenta"/>
   </g>
   <g id="cell15">
  <circle cx="382.771" cy="490.725" r="6.1574" stroke-width="0.5" stroke="black" fill="magenta"/>
  <circle cx="382.771" cy="490.725" r="3.74964" stroke-width="0.5" stroke="black" fill="magenta"/>
   </g>
   <g id="cell16">
  <circle cx="427.222" cy="419.954" r="8.41271" stroke-width="0.5" stroke="black" fill="magenta"/>
  <circle cx="427.222" cy="419.954" r="5.05167" stroke-width="0.5" stroke="black" fill="magenta"/>
   </g>
   <g id="cell17">
  <circle cx="577.927" cy="484.167" r="8.41238" stroke-width="0.5" stroke="black" fill="magenta"/>
  <circle cx="577.927" cy="484.167" r="5.0516" stroke-width="0.5" stroke="black" fill="magenta"/>
   </g>
   <g id="cell18">
  <circle cx="515.159" cy="392.529" r="8.41267" stroke-width="0.5" stroke="black" fill="magenta"/>
  <circle cx="515.159" cy="392.529" r="5.05166" stroke-width="0.5" stroke="black" fill="magenta"/>
   </g>
   <g id="cell19">
  <circle cx="456.171" cy="542.05" r="8.41251" stroke-width="0.5" stroke="black" fill="magenta"/>
  <circle cx="456.171" cy="542.05" r="5.05163" stroke-width="0.5" stroke="black" fill="magenta"/>
   </g>
   <g id="cell20">
  <circle cx="524.424" cy="420.919" r="8.41271" stroke-width="0.5" stroke="black" fill="magenta"/>
  <circle cx="524.424" cy="420.919" r="5.05167" stroke-width="0.5" stroke="black" fill="magenta"/>
   </g>
   <g id="cell141">
  <circle cx="494.03" cy="439.47" r="8.16861" stroke-width="0.5" stroke="black" fill="magenta"/>
  <circle cx="494.03" cy="439.47" r="4.94447" stroke-width="0.5" stroke="black" fill="magenta"/>
   </g>
   <g id="cell22">
  <circle cx="558.407" cy="497.026" r="8.41243" stroke-width="0.5" stroke="black" fill="magenta"/>
  <circle cx="558.407" cy="497.026" r="5.05161" stroke-width="0.5" stroke="black" fill="magenta"/>
   </g>
   <g id="cell23">
  <circle cx="532.188" cy="492.355" r="6.80881" stroke-width="0.5" stroke="black" fill="magenta"/>
  <circle cx="532.188" cy="492.355" r="4.10709" stroke-width="0.5" stroke="black" fill="magenta"/>
   </g>
   <g id="cell24">
  <circle cx="566.797" cy="380.743" r="8.41271" stroke-width="0.5" stroke="black" fill="magenta"/>
  <circle cx="566.797" cy="380.743" r="5.05167" stroke-width="0.5" stroke="black" fill="magenta"/>
   </g>
   <g id="cell25">
  <circle cx="653.998" cy="565.019" r="8.37587" stroke-width="0.5" stroke="black" fill="green"/>
  <circle cx="653.998" cy="565.019" r="5.03827" stroke-width="0.5" stroke="black" fill="green"/>
   </g>
   <g id="cell26">
  <circle cx="545.325" cy="398.475" r="8.41271" stroke-width="0.5" stroke="black" fill="green"/>
  <circle cx="545.325" cy="398.475" r="5.05167" stroke-width="0.5" stroke="black" fill="green"/>
   </g>
   <g id="cell27">
  <circle cx="453.137" cy="387.506" r="1.70534" stroke-width="0.5" stroke="black" fill="green"/>
  <circle cx="453.137" cy="387.506" r="1.65858" stroke-width="0.5" stroke="black" fill="black"/>
   </g>
   <g id="cell28">
  <circle cx="444.891" cy="552.498" r="8.41271" stroke-width="0.5" stroke="black" fill="green"/>
  <circle cx="444.891" cy="552.498" r="5.05167" stroke-width="0.5" stroke="black" fill="green"/>
   </g>
   <g id="cell29">
  <circle cx="466.041" cy="516.394" r="8.41141" stroke-width="0.5" stroke="black" fill="green"/>
  <circle cx="466.041" cy="516.394" r="5.05134" stroke-width="0.5" stroke="black" fill="green"/>
   </g>
   <g id="cell30">
  <circle cx="483.104" cy="537.135" r="8.41271" stroke-width="0.5" stroke="black" fill="green"/>
  <circle cx="483.104" cy="537.135" r="5.05167" stroke-width="0.5" stroke="black" fill="green"/>
   </g>
   <g id="cell31">
  <circle cx="406.838" cy="532.126" r="8.13008" stroke-width="0.5" stroke="black" fill="green"/>
  <circle cx="406.838" cy="532.126" r="4.91894" stroke-width="0.5" stroke="black" fill="green"/>
   </g>
   <g id="cell32">
  <circle cx="423.884" cy="451.95" r="8.35721" stroke-width="0.5" stroke="black" fill="green"/>
  <circle cx="423.884" cy="451.95" r="5.03033" stroke-width="0.5" stroke="black" fill="green"/>
   </g>
   <g id="cell33">
  <circle cx="499.949" cy="413.298" r="8.41261" stroke-width="0.5" stroke="black" fill="green"/>
  <circle cx="499.949" cy="413.298" r="5.05165" stroke-width="0.5" stroke="black" fill="green"/>
   </g>
   <g id="cell34">
  <circle cx="390.93" cy="454.855" r="8.41259" stroke-width="0.5" stroke="black" fill="green"/>
  <circle cx="390.93" cy="454.855" r="5.05164" stroke-width="0.5" stroke="black" fill="green"/>
   </g>
   <g id="cell35">
  <circle cx="548.137" cy="557.763" r="8.41221" stroke-width="0.5" stroke="black" fill="green"/>
  <circle cx="548.137" cy="557.763" r="5.05155" stroke-width="0.5" stroke="black" fill="green"/>
   </g>
   <g id="cell36">
  <circle cx="392.201" cy="582.371" r="8.41016" stroke-width="0.5" stroke="black" fill="green"/>
  <circle cx="392.201" cy="582.371" r="5.05098" stroke-width="0.5" stroke="black" fill="green"/>
   </g>
   <g id="cell174">
  <circle cx="478.827" cy="619.123" r="8.2966" stroke-width="0.5" stroke="black" fill="green"/>
  <circle cx="478.827" cy="619.123" r="5.00278" stroke-width="0.5" stroke="black" fill="green"/>
   </g>
   <g id="cell38">
  <circle cx="525.787" cy="606.022" r="8.41252" stroke-width="0.5" stroke="black" fill="green"/>
  <circle cx="525.787" cy="606.022" r="5.05163" stroke-width="0.5" stroke="black" fill="green"/>
   </g>
   <g id="cell39">
  <circle cx="619.399" cy="500.937" r="8.31763" stroke-width="0.5" stroke="black" fill="green"/>
  <circle cx="619.399" cy="500.937" r="5.0126" stroke-width="0.5" stroke="black" fill="green"/>
   </g>
   <g id="cell40">
  <circle cx="483.938" cy="570.522" r="8.41271" stroke-width="0.5" stroke="black" fill="green"/>
  <circle cx="483.938" cy="570.522" r="5.05167" stroke-width="0.5" stroke="black" fill="green"/>
   </g>
   <g id="cell41">
  <circle cx="360.96" cy="481.684" r="8.41271" stroke-width="0.5" stroke="black" fill="green"/>
  <circle cx="360.96" cy="481.684" r="5.05167" stroke-width="0.5" stroke="black" fill="green"/>
   </g>
   <g id="cell176">
  <circle cx="469.767" cy="446.246" r="8.19973" stroke-width="0.5" stroke="black" fill="magenta"/>
  <circle cx="469.767" cy="446.246" r="4.95997" stroke-width="0.5" stroke="black" fill="magenta"/>
   </g>
   <g id="cell43">
  <circle cx="558.191" cy="445.615" r="8.41271" stroke-width="0.5" stroke="black" fill="green"/>
  <circle cx="558.191" cy="445.615" r="5.05167" stroke-width="0.5" stroke="black" fill="green"/>
   </g>
   <g id="cell44">
  <circle cx="489.023" cy="631.312" r="8.38021" stroke-width="0.5" stroke="black" fill="green"/>
  <circle cx="489.023" cy="631.312" r="5.03996" stroke-width="0.5" stroke="black" fill="green"/>
   </g>
   <g id="cell45">
  <circle cx="435.3" cy="564.983" r="8.29447" stroke-width="0.5" stroke="black" fill="green"/>
  <circle cx="435.3" cy="564.983" r="5.00505" stroke-width="0.5" stroke="black" fill="green"/>
   </g>
   <g id="cell46">
  <circle cx="518.854" cy="620.379" r="8.39895" stroke-width="0.5" stroke="black" fill="green"/>
  <circle cx="518.854" cy="620.379" r="5.04727" stroke-width="0.5" stroke="black" fill="green"/>
   </g>
   <g id="cell47">
  <circle cx="493.985" cy="513.11" r="8.41271" stroke-width="0.5" stroke="black" fill="green"/>
  <circle cx="493.985" cy="513.11" r="5.05167" stroke-width="0.5" stroke="black" fill="green"/>
   </g>
   <g id="cell48">
  <circle cx="566.633" cy="603.922" r="8.41271" stroke-width="0.5" stroke="black" fill="green"/>
  <circle cx="566.633" cy="603.922" r="5.05167" stroke-width="0.5" stroke="black" fill="green"/>
   </g>
   <g id="cell49">
  <circle cx="439.208" cy="384.971" r="2.87361" stroke-width="0.5" stroke="black" fill="green"/>
  <circle cx="439.208" cy="384.971" r="2.17752" stroke-width="0.5" stroke="black" fill="black"/>
   </g>
   <g id="cell50">
  <circle cx="507.445" cy="488.987" r="7.91737" stroke-width="0.5" stroke="black" fill="cyan"/>
  <circle cx="507.445" cy="488.987" r="4.81288" stroke-width="0.5" stroke="black" fill="cyan"/>
   </g>
   <g id="cell51">
  <circle cx="385.65" cy="603.365" r="8.38429" stroke-width="0.5" stroke="black" fill="cyan"/>
  <circle cx="385.65" cy="603.365" r="5.04178" stroke-width="0.5" stroke="black" fill="cyan"/>
   </g>
   <g id="cell120">
  <circle cx="417.654" cy="610.533" r="8.41083" stroke-width="0.5" stroke="black" fill="cyan"/>
  <circle cx="417.654" cy="610.533" r="5.05118" stroke-width="0.5" stroke="black" fill="cyan"/>
   </g>
   <g id="cell53">
  <circle cx="571.109" cy="436.134" r="8.41271" stroke-width="0.5" stroke="black" fill="cyan"/>
  <circle cx="571.109" cy="436.134" r="5.05167" stroke-width="0.5" stroke="black" fill="cyan"/>
   </g>
   <g id="cell54">
  <circle cx="489.301" cy="424.759" r="8.38957" stroke-width="0.5" stroke="black" fill="cyan"/>
  <circle cx="489.301" cy="424.759" r="5.04365" stroke-width="0.5" stroke="black" fill="cyan"/>
   </g>
   <g id="cell55">
  <circle cx="521.473" cy="485.197" r="7.1497" stroke-width="0.5" stroke="black" fill="cyan"/>
  <circle cx="521.473" cy="485.197" r="4.34001" stroke-width="0.5" stroke="black" fill="cyan"/>
   </g>
   <g id="cell56">
  <circle cx="626.355" cy="520.658" r="7.93633" stroke-width="0.5" stroke="black" fill="cyan"/>
  <circle cx="626.355" cy="520.658" r="4.82525" stroke-width="0.5" stroke="black" fill="cyan"/>
   </g>
   <g id="cell57">
  <circle cx="418.483" cy="626.556" r="8.41083" stroke-width="0.5" stroke="black" fill="cyan"/>
  <circle cx="418.483" cy="626.556" r="5.05118" stroke-width="0.5" stroke="black" fill="cyan"/>
   </g>
   <g id="cell58">
  <circle cx="547.368" cy="484.761" r="8.41271" stroke-width="0.5" stroke="black" fill="cyan"/>
  <circle cx="547.368" cy="484.761" r="5.05167" stroke-width="0.5" stroke="black" fill="cyan"/>
   </g>
   <g id="cell59">
  <circle cx="385.457" cy="439.826" r="8.41271" stroke-width="0.5" stroke="black" fill="cyan"/>
  <circle cx="385.457" cy="439.826" r="5.05167" stroke-width="0.5" stroke="black" fill="cyan"/>
   </g>
   <g id="cell60">
  <circle cx="602.74" cy="466.486" r="8.03402" stroke-width="0.5" stroke="black" fill="cyan"/>
  <circle cx="602.74" cy="466.486" r="4.86778" stroke-width="0.5" stroke="black" fill="cyan"/>
   </g>
   <g id="cell155">
  <circle cx="518.821" cy="592.118" r="8.35926" stroke-width="0.5" stroke="black" fill="magenta"/>
  <circle cx="518.821" cy="592.118" r="5.03226" stroke-width="0.5" stroke="black" fill="magenta"/>
   </g>
   <g id="cell62">
  <circle cx="521.685" cy="436.009" r="8.41271" stroke-width="0.5" stroke="black" fill="cyan"/>
  <circle cx="521.685" cy="436.009" r="5.05167" stroke-width="0.5" stroke="black" fill="cyan"/>
   </g>
   <g id="cell63">
  <circle cx="582.391" cy="557.903" r="8.41252" stroke-width="0.5" stroke="black" fill="cyan"/>
  <circle cx="582.391" cy="557.903" r="5.05163" stroke-width="0.5" stroke="black" fill="cyan"/>
   </g>
   <g id="cell64">
  <circle cx="509.907" cy="633.639" r="8.41023" stroke-width="0.5" stroke="black" fill="cyan"/>
  <circle cx="509.907" cy="633.639" r="5.051" stroke-width="0.5" stroke="black" fill="cyan"/>
   </g>
   <g id="cell65">
  <circle cx="534.564" cy="442.437" r="6.84783" stroke-width="0.5" stroke="black" fill="cyan"/>
  <circle cx="534.564" cy="442.437" r="4.15062" stroke-width="0.5" stroke="black" fill="cyan"/>
   </g>
   <g id="cell66">
  <circle cx="550.409" cy="521.692" r="8.41093" stroke-width="0.5" stroke="black" fill="cyan"/>
  <circle cx="550.409" cy="521.692" r="5.0512" stroke-width="0.5" stroke="black" fill="cyan"/>
   </g>
   <g id="cell67">
  <circle cx="353.039" cy="495.709" r="8.41271" stroke-width="0.5" stroke="black" fill="cyan"/>
  <circle cx="353.039" cy="495.709" r="5.05167" stroke-width="0.5" stroke="black" fill="cyan"/>
   </g>
   <g id="cell68">
  <circle cx="567.502" cy="555.077" r="7.81315" stroke-width="0.5" stroke="black" fill="cyan"/>
  <circle cx="567.502" cy="555.077" r="4.74367" stroke-width="0.5" stroke="black" fill="cyan"/>
   </g>
   <g id="cell69">
  <circle cx="440.735" cy="439.581" r="8.41267" stroke-width="0.5" stroke="black" fill="cyan"/>
  <circle cx="440.735" cy="439.581" r="5.05166" stroke-width="0.5" stroke="black" fill="cyan"/>
   </g>
   <g id="cell70">
  <circle cx="573.753" cy="469.474" r="8.40557" stroke-width="0.5" stroke="black" fill="cyan"/>
  <circle cx="573.753" cy="469.474" r="5.04951" stroke-width="0.5" stroke="black" fill="cyan"/>
   </g>
   <g id="cell71">
  <circle cx="380.718" cy="528.33" r="2.6603" stroke-width="0.5" stroke="black" fill="cyan"/>
  <circle cx="380.718" cy="528.33" r="2.30176" stroke-width="0.5" stroke="black" fill="black"/>
   </g>
   <g id="cell72">
  <circle cx="536.554" cy="513.811" r="8.41271" stroke-width="0.5" stroke="black" fill="cyan"/>
  <circle cx="536.554" cy="513.811" r="5.05167" stroke-width="0.5" stroke="black" fill="cyan"/>
   </g>
   <g id="cell129">
  <circle cx="411.705" cy="406.596" r="8.40862" stroke-width="0.5" stroke="black" fill="green"/>
  <circle cx="411.705" cy="406.596" r="5.0505" stroke-width="0.5" stroke="black" fill="green"/>
   </g>
   <g id="cell221">
  <circle cx="533.756" cy="480.349" r="6.80881" stroke-width="0.5" stroke="black" fill="magenta"/>
  <circle cx="533.756" cy="480.349" r="4.10709" stroke-width="0.5" stroke="black" fill="magenta"/>
   </g>
   <g id="cell75">
  <circle cx="444.689" cy="483.197" r="8.01901" stroke-width="0.5" stroke="black" fill="cyan"/>
  <circle cx="444.689" cy="483.197" r="4.87103" stroke-width="0.5" stroke="black" fill="cyan"/>
   </g>
   <g id="cell76">
  <circle cx="510.793" cy="378.321" r="8.138" stroke-width="0.5" stroke="black" fill="magenta"/>
  <circle cx="510.793" cy="378.321" r="4.92314" stroke-width="0.5" stroke="black" fill="magenta"/>
   </g>
   <g id="cell77">
  <circle cx="504.483" cy="428.659" r="8.39652" stroke-width="0.5" stroke="black" fill="magenta"/>
  <circle cx="504.483" cy="428.659" r="5.04636" stroke-width="0.5" stroke="black" fill="magenta"/>
   </g>
   <g id="cell78">
  <circle cx="373.996" cy="458.659" r="7.61466" stroke-width="0.5" stroke="black" fill="magenta"/>
  <circle cx="373.996" cy="458.659" r="4.62761" stroke-width="0.5" stroke="black" fill="magenta"/>
   </g>
   <g id="cell79">
  <circle cx="496.333" cy="528.635" r="8.41266" stroke-width="0.5" stroke="black" fill="magenta"/>
  <circle cx="496.333" cy="528.635" r="5.05166" stroke-width="0.5" stroke="black" fill="magenta"/>
   </g>
   <g id="cell80">
  <circle cx="615.309" cy="487.076" r="7.27863" stroke-width="0.5" stroke="black" fill="green"/>
  <circle cx="615.309" cy="487.076" r="4.43325" stroke-width="0.5" stroke="black" fill="green"/>
   </g>
   <g id="cell81">
  <circle cx="425.364" cy="507.949" r="8.40914" stroke-width="0.5" stroke="black" fill="green"/>
  <circle cx="425.364" cy="507.949" r="5.05069" stroke-width="0.5" stroke="black" fill="green"/>
   </g>
   <g id="cell82">
  <circle cx="543.555" cy="499.781" r="8.41265" stroke-width="0.5" stroke="black" fill="magenta"/>
  <circle cx="543.555" cy="499.781" r="5.05166" stroke-width="0.5" stroke="black" fill="magenta"/>
   </g>
   <g id="cell130">
  <circle cx="573.249" cy="394.438" r="8.40839" stroke-width="0.5" stroke="black" fill="magenta"/>
  <circle cx="573.249" cy="394.438" r="5.05043" stroke-width="0.5" stroke="black" fill="magenta"/>
   </g>
   <g id="cell84">
  <circle cx="404.107" cy="483.904" r="8.41169" stroke-width="0.5" stroke="black" fill="green"/>
  <circle cx="404.107" cy="483.904" r="5.05142" stroke-width="0.5" stroke="black" fill="green"/>
   </g>
   <g id="cell140">
  <circle cx="526.846" cy="579.624" r="8.39198" stroke-width="0.5" stroke="black" fill="magenta"/>
  <circle cx="526.846" cy="579.624" r="5.045" stroke-width="0.5" stroke="black" fill="magenta"/>
   </g>
   <g id="cell86">
  <circle cx="392.468" cy="566.936" r="8.41176" stroke-width="0.5" stroke="black" fill="magenta"/>
  <circle cx="392.468" cy="566.936" r="5.05144" stroke-width="0.5" stroke="black" fill="magenta"/>
   </g>
   <g id="cell87">
  <circle cx="432.502" cy="522.787" r="8.38124" stroke-width="0.5" stroke="black" fill="green"/>
  <circle cx="432.502" cy="522.787" r="5.04048" stroke-width="0.5" stroke="black" fill="green"/>
   </g>
   <g id="cell88">
  <circle cx="476.152" cy="604.216" r="7.58898" stroke-width="0.5" stroke="black" fill="green"/>
  <circle cx="476.152" cy="604.216" r="4.62372" stroke-width="0.5" stroke="black" fill="green"/>
   </g>
   <g id="cell89">
  <circle cx="430.091" cy="492.228" r="8.41225" stroke-width="0.5" stroke="black" fill="green"/>
  <circle cx="430.091" cy="492.228" r="5.05157" stroke-width="0.5" stroke="black" fill="green"/>
   </g>
   <g id="cell90">
  <circle cx="577.026" cy="512.4" r="8.37423" stroke-width="0.5" stroke="black" fill="magenta"/>
  <circle cx="577.026" cy="512.4" r="5.03752" stroke-width="0.5" stroke="black" fill="magenta"/>
   </g>
   <g id="cell136">
  <circle cx="524.367" cy="539.687" r="8.40427" stroke-width="0.5" stroke="black" fill="magenta"/>
  <circle cx="524.367" cy="539.687" r="5.04906" stroke-width="0.5" stroke="black" fill="magenta"/>
   </g>
   <g id="cell92">
  <circle cx="560.877" cy="588.909" r="8.41164" stroke-width="0.5" stroke="black" fill="green"/>
  <circle cx="560.877" cy="588.909" r="5.05141" stroke-width="0.5" stroke="black" fill="green"/>
   </g>
   <g id="cell93">
  <circle cx="580.594" cy="526.605" r="7.99807" stroke-width="0.5" stroke="black" fill="cyan"/>
  <circle cx="580.594" cy="526.605" r="4.8485" stroke-width="0.5" stroke="black" fill="cyan"/>
   </g>
   <g id="cell94">
  <circle cx="541.516" cy="468.675" r="8.41251" stroke-width="0.5" stroke="black" fill="cyan"/>
  <circle cx="541.516" cy="468.675" r="5.05163" stroke-width="0.5" stroke="black" fill="cyan"/>
   </g>
   <g id="cell95">
  <circle cx="468.232" cy="532.429" r="8.41251" stroke-width="0.5" stroke="black" fill="magenta"/>
  <circle cx="468.232" cy="532.429" r="5.05163" stroke-width="0.5" stroke="black" fill="magenta"/>
   </g>
   <g id="cell96">
  <circle cx="539.738" cy="383.972" r="8.41246" stroke-width="0.5" stroke="black" fill="magenta"/>
  <circle cx="539.738" cy="383.972" r="5.05162" stroke-width="0.5" stroke="black" fill="magenta"/>
   </g>
   <g id="cell97">
  <circle cx="566.97" cy="507.29" r="3.78551" stroke-width="0.5" stroke="black" fill="magenta"/>
  <circle cx="566.97" cy="507.29" r="2.80025" stroke-width="0.5" stroke="black" fill="black"/>
   </g>
   <g id="cell98">
  <circle cx="406.287" cy="574.417" r="8.3894" stroke-width="0.5" stroke="black" fill="green"/>
  <circle cx="406.287" cy="574.417" r="5.04361" stroke-width="0.5" stroke="black" fill="green"/>
   </g>
   <g id="cell99">
  <circle cx="573.39" cy="498.243" r="8.41238" stroke-width="0.5" stroke="black" fill="magenta"/>
  <circle cx="573.39" cy="498.243" r="5.0516" stroke-width="0.5" stroke="black" fill="magenta"/>
   </g>
   <g id="cell100">
  <circle cx="573.608" cy="537.892" r="6.78146" stroke-width="0.5" stroke="black" fill="cyan"/>
  <circle cx="573.608" cy="537.892" r="4.08706" stroke-width="0.5" stroke="black" fill="cyan"/>
   </g>
   <g id="cell101">
  <circle cx="459.071" cy="628.767" r="8.02368" stroke-width="0.5" stroke="black" fill="magenta"/>
  <circle cx="459.071" cy="628.767" r="4.86196" stroke-width="0.5" stroke="black" fill="magenta"/>
   </g>
   <g id="cell102">
  <circle cx="444.595" cy="517.054" r="6.73252" stroke-width="0.5" stroke="black" fill="green"/>
  <circle cx="444.595" cy="517.054" r="4.05031" stroke-width="0.5" stroke="black" fill="green"/>
   </g>
   <g id="cell103">
  <circle cx="558.85" cy="617.718" r="8.29965" stroke-width="0.5" stroke="black" fill="green"/>
  <circle cx="558.85" cy="617.718" r="5.00427" stroke-width="0.5" stroke="black" fill="green"/>
   </g>
   <g id="cell104">
  <circle cx="550.016" cy="537.577" r="8.41221" stroke-width="0.5" stroke="black" fill="green"/>
  <circle cx="550.016" cy="537.577" r="5.05155" stroke-width="0.5" stroke="black" fill="green"/>
   </g>
   <g id="cell105">
  <circle cx="415.048" cy="495.194" r="8.41213" stroke-width="0.5" stroke="black" fill="green"/>
  <circle cx="415.048" cy="495.194" r="5.05153" stroke-width="0.5" stroke="black" fill="green"/>
   </g>
   <g id="cell106">
  <circle cx="650.818" cy="529.092" r="8.24885" stroke-width="0.5" stroke="black" fill="green"/>
  <circle cx="650.818" cy="529.092" r="4.97974" stroke-width="0.5" stroke="black" fill="green"/>
   </g>
   <g id="cell107">
  <circle cx="383.274" cy="511.009" r="8.412" stroke-width="0.5" stroke="black" fill="cyan"/>
  <circle cx="383.274" cy="511.009" r="5.0515" stroke-width="0.5" stroke="black" fill="cyan"/>
   </g>
   <g id="cell108">
  <circle cx="460.907" cy="643.438" r="8.4118" stroke-width="0.5" stroke="black" fill="magenta"/>
  <circle cx="460.907" cy="643.438" r="5.05145" stroke-width="0.5" stroke="black" fill="magenta"/>
   </g>
   <g id="cell109">
  <circle cx="447.034" cy="637.357" r="8.4118" stroke-width="0.5" stroke="black" fill="magenta"/>
  <circle cx="447.034" cy="637.357" r="5.05145" stroke-width="0.5" stroke="black" fill="magenta"/>
   </g>
   <g id="cell110">
  <circle cx="538.328" cy="569.831" r="8.15296" stroke-width="0.5" stroke="black" fill="green"/>
  <circle cx="538.328" cy="569.831" r="4.93108" stroke-width="0.5" stroke="black" fill="green"/>
   </g>
   <g id="cell111">
  <circle cx="628.175" cy="559.887" r="8.41164" stroke-width="0.5" stroke="black" fill="green"/>
  <circle cx="628.175" cy="559.887" r="5.05141" stroke-width="0.5" stroke="black" fill="green"/>
   </g>
   <g id="cell112">
  <circle cx="379.008" cy="573.709" r="8.41176" stroke-width="0.5" stroke="black" fill="magenta"/>
  <circle cx="379.008" cy="573.709" r="5.05144" stroke-width="0.5" stroke="black" fill="magenta"/>
   </g>
   <g id="cell113">
  <circle cx="418.366" cy="479.122" r="8.41169" stroke-width="0.5" stroke="black" fill="green"/>
  <circle cx="418.366" cy="479.122" r="5.05142" stroke-width="0.5" stroke="black" fill="green"/>
   </g>
   <g id="cell114">
  <circle cx="497.772" cy="454.062" r="8.40674" stroke-width="0.5" stroke="black" fill="magenta"/>
  <circle cx="497.772" cy="454.062" r="5.04994" stroke-width="0.5" stroke="black" fill="magenta"/>
   </g>
   <g id="cell115">
  <circle cx="453.989" cy="527.058" r="8.41141" stroke-width="0.5" stroke="black" fill="green"/>
  <circle cx="453.989" cy="527.058" r="5.05134" stroke-width="0.5" stroke="black" fill="green"/>
   </g>
   <g id="cell116">
  <circle cx="368.353" cy="516.92" r="8.41101" stroke-width="0.5" stroke="black" fill="cyan"/>
  <circle cx="368.353" cy="516.92" r="5.05124" stroke-width="0.5" stroke="black" fill="cyan"/>
   </g>
   <g id="cell173">
  <circle cx="540.398" cy="610.91" r="8.06992" stroke-width="0.5" stroke="black" fill="green"/>
  <circle cx="540.398" cy="610.91" r="4.89357" stroke-width="0.5" stroke="black" fill="green"/>
   </g>
   <g id="cell118">
  <circle cx="522.788" cy="524.442" r="8.30527" stroke-width="0.5" stroke="black" fill="cyan"/>
  <circle cx="522.788" cy="524.442" r="5.00703" stroke-width="0.5" stroke="black" fill="cyan"/>
   </g>
   <g id="cell119">
  <circle cx="523.904" cy="641.391" r="8.3948" stroke-width="0.5" stroke="black" fill="green"/>
  <circle cx="523.904" cy="641.391" r="5.04575" stroke-width="0.5" stroke="black" fill="green"/>
   </g>
   <g id="cell121">
  <circle cx="392.519" cy="552.734" r="7.35849" stroke-width="0.5" stroke="black" fill="magenta"/>
  <circle cx="392.519" cy="552.734" r="4.47252" stroke-width="0.5" stroke="black" fill="magenta"/>
   </g>
   <g id="cell122">
  <circle cx="615.111" cy="457.083" r="8.34001" stroke-width="0.5" stroke="black" fill="cyan"/>
  <circle cx="615.111" cy="457.083" r="5.02296" stroke-width="0.5" stroke="black" fill="cyan"/>
   </g>
   <g id="cell123">
  <circle cx="498.113" cy="644.47" r="8.41023" stroke-width="0.5" stroke="black" fill="cyan"/>
  <circle cx="498.113" cy="644.47" r="5.051" stroke-width="0.5" stroke="black" fill="cyan"/>
   </g>
   <g id="cell124">
  <circle cx="377.833" cy="589.31" r="8.41016" stroke-width="0.5" stroke="black" fill="green"/>
  <circle cx="377.833" cy="589.31" r="5.05098" stroke-width="0.5" stroke="black" fill="green"/>
   </g>
   <g id="cell125">
  <circle cx="453.045" cy="454.928" r="6.69119" stroke-width="0.5" stroke="black" fill="cyan"/>
  <circle cx="453.045" cy="454.928" r="4.09646" stroke-width="0.5" stroke="black" fill="cyan"/>
   </g>
   <g id="cell126">
  <circle cx="409.04" cy="509.624" r="8.40914" stroke-width="0.5" stroke="black" fill="green"/>
  <circle cx="409.04" cy="509.624" r="5.05069" stroke-width="0.5" stroke="black" fill="green"/>
   </g>
   <g id="cell127">
  <circle cx="413.459" cy="595.131" r="8.40915" stroke-width="0.5" stroke="black" fill="cyan"/>
  <circle cx="413.459" cy="595.131" r="5.05067" stroke-width="0.5" stroke="black" fill="cyan"/>
   </g>
   <g id="cell128">
  <circle cx="349.109" cy="535.546" r="8.21598" stroke-width="0.5" stroke="black" fill="cyan"/>
  <circle cx="349.109" cy="535.546" r="4.9638" stroke-width="0.5" stroke="black" fill="cyan"/>
   </g>
   <g id="cell131">
  <circle cx="585.879" cy="543.286" r="7.77451" stroke-width="0.5" stroke="black" fill="cyan"/>
  <circle cx="585.879" cy="543.286" r="4.72224" stroke-width="0.5" stroke="black" fill="cyan"/>
   </g>
   <g id="cell132">
  <circle cx="508.362" cy="443.541" r="8.40674" stroke-width="0.5" stroke="black" fill="magenta"/>
  <circle cx="508.362" cy="443.541" r="5.04994" stroke-width="0.5" stroke="black" fill="magenta"/>
   </g>
   <g id="cell133">
  <circle cx="534.715" cy="409.833" r="8.40683" stroke-width="0.5" stroke="black" fill="magenta"/>
  <circle cx="534.715" cy="409.833" r="5.04993" stroke-width="0.5" stroke="black" fill="magenta"/>
   </g>
   <g id="cell134">
  <circle cx="511.75" cy="578.587" r="8.3977" stroke-width="0.5" stroke="black" fill="magenta"/>
  <circle cx="511.75" cy="578.587" r="5.04692" stroke-width="0.5" stroke="black" fill="magenta"/>
   </g>
   <g id="cell135">
  <circle cx="562.929" cy="482.017" r="8.40557" stroke-width="0.5" stroke="black" fill="cyan"/>
  <circle cx="562.929" cy="482.017" r="5.04951" stroke-width="0.5" stroke="black" fill="cyan"/>
   </g>
   <g id="cell137">
  <circle cx="375.498" cy="474.63" r="8.4027" stroke-width="0.5" stroke="black" fill="magenta"/>
  <circle cx="375.498" cy="474.63" r="5.04852" stroke-width="0.5" stroke="black" fill="magenta"/>
   </g>
   <g id="cell138">
  <circle cx="533.997" cy="592.932" r="8.35926" stroke-width="0.5" stroke="black" fill="magenta"/>
  <circle cx="533.997" cy="592.932" r="5.03226" stroke-width="0.5" stroke="black" fill="magenta"/>
   </g>
   <g id="cell139">
  <circle cx="500.493" cy="613.647" r="7.43363" stroke-width="0.5" stroke="black" fill="green"/>
  <circle cx="500.493" cy="613.647" r="4.52073" stroke-width="0.5" stroke="black" fill="green"/>
   </g>
   <g id="cell142">
  <circle cx="581.87" cy="382.013" r="8.39447" stroke-width="0.5" stroke="black" fill="magenta"/>
  <circle cx="581.87" cy="382.013" r="5.04571" stroke-width="0.5" stroke="black" fill="magenta"/>
   </g>
   <g id="cell143">
  <circle cx="531.733" cy="628.423" r="7.62612" stroke-width="0.5" stroke="black" fill="green"/>
  <circle cx="531.733" cy="628.423" r="4.63706" stroke-width="0.5" stroke="black" fill="green"/>
   </g>
   <g id="cell144">
  <circle cx="373.298" cy="544.986" r="8.39422" stroke-width="0.5" stroke="black" fill="magenta"/>
  <circle cx="373.298" cy="544.986" r="5.04543" stroke-width="0.5" stroke="black" fill="magenta"/>
   </g>
   <g id="cell145">
  <circle cx="457.265" cy="478.939" r="7.12345" stroke-width="0.5" stroke="black" fill="magenta"/>
  <circle cx="457.265" cy="478.939" r="4.35601" stroke-width="0.5" stroke="black" fill="magenta"/>
   </g>
   <g id="cell146">
  <circle cx="462.961" cy="417.595" r="8.38957" stroke-width="0.5" stroke="black" fill="cyan"/>
  <circle cx="462.961" cy="417.595" r="5.04365" stroke-width="0.5" stroke="black" fill="cyan"/>
   </g>
   <g id="cell148">
  <circle cx="401.626" cy="605.89" r="8.38429" stroke-width="0.5" stroke="black" fill="cyan"/>
  <circle cx="401.626" cy="605.89" r="5.04178" stroke-width="0.5" stroke="black" fill="cyan"/>
   </g>
   <g id="cell149">
  <circle cx="440.948" cy="536.862" r="8.38124" stroke-width="0.5" stroke="black" fill="green"/>
  <circle cx="440.948" cy="536.862" r="5.04048" stroke-width="0.5" stroke="black" fill="green"/>
   </g>
   <g id="cell150">
  <circle cx="473.314" cy="634.019" r="8.38021" stroke-width="0.5" stroke="black" fill="green"/>
  <circle cx="473.314" cy="634.019" r="5.03996" stroke-width="0.5" stroke="black" fill="green"/>
   </g>
   <g id="cell151">
  <circle cx="521.283" cy="508.892" r="8.37935" stroke-width="0.5" stroke="black" fill="cyan"/>
  <circle cx="521.283" cy="508.892" r="5.0396" stroke-width="0.5" stroke="black" fill="cyan"/>
   </g>
   <g id="cell152">
  <circle cx="642.887" cy="553.598" r="8.37587" stroke-width="0.5" stroke="black" fill="green"/>
  <circle cx="642.887" cy="553.598" r="5.03827" stroke-width="0.5" stroke="black" fill="green"/>
   </g>
   <g id="cell153">
  <circle cx="395.273" cy="521.549" r="8.37305" stroke-width="0.5" stroke="black" fill="cyan"/>
  <circle cx="395.273" cy="521.549" r="5.03733" stroke-width="0.5" stroke="black" fill="cyan"/>
   </g>
   <g id="cell154">
  <circle cx="588.019" cy="502.354" r="8.16147" stroke-width="0.5" stroke="black" fill="magenta"/>
  <circle cx="588.019" cy="502.354" r="4.9383" stroke-width="0.5" stroke="black" fill="magenta"/>
   </g>
   <g id="cell156">
  <circle cx="405.291" cy="558.687" r="8.31031" stroke-width="0.5" stroke="black" fill="green"/>
  <circle cx="405.291" cy="558.687" r="5.01121" stroke-width="0.5" stroke="black" fill="green"/>
   </g>
   <g id="cell157">
  <circle cx="389.587" cy="479.928" r="8.35525" stroke-width="0.5" stroke="black" fill="magenta"/>
  <circle cx="389.587" cy="479.928" r="5.03005" stroke-width="0.5" stroke="black" fill="magenta"/>
   </g>
   <g id="cell158">
  <circle cx="429.03" cy="465.443" r="7.12271" stroke-width="0.5" stroke="black" fill="green"/>
  <circle cx="429.03" cy="465.443" r="4.33678" stroke-width="0.5" stroke="black" fill="green"/>
   </g>
   <g id="cell159">
  <circle cx="439.263" cy="455.346" r="8.32764" stroke-width="0.5" stroke="black" fill="green"/>
  <circle cx="439.263" cy="455.346" r="5.01886" stroke-width="0.5" stroke="black" fill="green"/>
   </g>
   <g id="cell160">
  <circle cx="420.069" cy="562.227" r="8.32039" stroke-width="0.5" stroke="black" fill="green"/>
  <circle cx="420.069" cy="562.227" r="5.01569" stroke-width="0.5" stroke="black" fill="green"/>
   </g>
   <g id="cell161">
  <circle cx="527.078" cy="461.723" r="8.3469" stroke-width="0.5" stroke="black" fill="cyan"/>
  <circle cx="527.078" cy="461.723" r="5.02584" stroke-width="0.5" stroke="black" fill="cyan"/>
   </g>
   <g id="cell162">
  <circle cx="617.112" cy="472.68" r="8.34001" stroke-width="0.5" stroke="black" fill="cyan"/>
  <circle cx="617.112" cy="472.68" r="5.02296" stroke-width="0.5" stroke="black" fill="cyan"/>
   </g>
   <g id="cell163">
  <circle cx="429.514" cy="549.908" r="8.29447" stroke-width="0.5" stroke="black" fill="green"/>
  <circle cx="429.514" cy="549.908" r="5.00505" stroke-width="0.5" stroke="black" fill="green"/>
   </g>
   <g id="cell164">
  <circle cx="466.77" cy="470.974" r="6.97028" stroke-width="0.5" stroke="black" fill="cyan"/>
  <circle cx="466.77" cy="470.974" r="4.23517" stroke-width="0.5" stroke="black" fill="cyan"/>
   </g>
   <g id="cell165">
  <circle cx="414.101" cy="545.978" r="8.31031" stroke-width="0.5" stroke="black" fill="green"/>
  <circle cx="414.101" cy="545.978" r="5.01121" stroke-width="0.5" stroke="black" fill="green"/>
   </g>
   <g id="cell166">
  <circle cx="604.067" cy="496.252" r="8.33254" stroke-width="0.5" stroke="black" fill="green"/>
  <circle cx="604.067" cy="496.252" r="5.01941" stroke-width="0.5" stroke="black" fill="green"/>
   </g>
   <g id="cell167">
  <circle cx="466.462" cy="387.52" r="8.33257" stroke-width="0.5" stroke="black" fill="green"/>
  <circle cx="466.462" cy="387.52" r="5.01941" stroke-width="0.5" stroke="black" fill="green"/>
   </g>
   <g id="cell168">
  <circle cx="519.987" cy="406.672" r="8.32726" stroke-width="0.5" stroke="black" fill="magenta"/>
  <circle cx="519.987" cy="406.672" r="5.01747" stroke-width="0.5" stroke="black" fill="magenta"/>
   </g>
   <g id="cell169">
  <circle cx="466.098" cy="432.238" r="7.95213" stroke-width="0.5" stroke="black" fill="magenta"/>
  <circle cx="466.098" cy="432.238" r="4.83551" stroke-width="0.5" stroke="black" fill="magenta"/>
   </g>
   <g id="cell170">
  <circle cx="629.727" cy="488.417" r="8.31763" stroke-width="0.5" stroke="black" fill="green"/>
  <circle cx="629.727" cy="488.417" r="5.0126" stroke-width="0.5" stroke="black" fill="green"/>
   </g>
   <g id="cell171">
  <circle cx="536.798" cy="530.337" r="8.30527" stroke-width="0.5" stroke="black" fill="cyan"/>
  <circle cx="536.798" cy="530.337" r="5.00703" stroke-width="0.5" stroke="black" fill="cyan"/>
   </g>
   <g id="cell172">
  <circle cx="508.491" cy="518.939" r="8.28283" stroke-width="0.5" stroke="black" fill="cyan"/>
  <circle cx="508.491" cy="518.939" r="4.99812" stroke-width="0.5" stroke="black" fill="cyan"/>
   </g>
   <g id="cell175">
  <circle cx="639.332" cy="538.786" r="7.68247" stroke-width="0.5" stroke="black" fill="green"/>
  <circle cx="639.332" cy="538.786" r="4.68086" stroke-width="0.5" stroke="black" fill="green"/>
   </g>
   <g id="cell177">
  <circle cx="364.513" cy="532.286" r="8.21598" stroke-width="0.5" stroke="black" fill="cyan"/>
  <circle cx="364.513" cy="532.286" r="4.9638" stroke-width="0.5" stroke="black" fill="cyan"/>
   </g>
   <g id="cell178">
  <circle cx="483.748" cy="450.089" r="8.16861" stroke-width="0.5" stroke="black" fill="magenta"/>
  <circle cx="483.748" cy="450.089" r="4.94447" stroke-width="0.5" stroke="black" fill="magenta"/>
   </g>
   <g id="cell179">
  <circle cx="444.08" cy="497.815" r="8.1564" stroke-width="0.5" stroke="black" fill="cyan"/>
  <circle cx="444.08" cy="497.815" r="4.93726" stroke-width="0.5" stroke="black" fill="cyan"/>
   </g>
   <g id="cell180">
  <circle cx="591.614" cy="488.341" r="8.16147" stroke-width="0.5" stroke="black" fill="magenta"/>
  <circle cx="591.614" cy="488.341" r="4.9383" stroke-width="0.5" stroke="black" fill="magenta"/>
   </g>
   <g id="cell181">
  <circle cx="545.894" cy="583.21" r="8.15296" stroke-width="0.5" stroke="black" fill="green"/>
  <circle cx="545.894" cy="583.21" r="4.93108" stroke-width="0.5" stroke="black" fill="green"/>
   </g>
   <g id="cell182">
  <circle cx="454.272" cy="466.969" r="6.81119" stroke-width="0.5" stroke="black" fill="cyan"/>
  <circle cx="454.272" cy="466.969" r="4.17037" stroke-width="0.5" stroke="black" fill="cyan"/>
   </g>
   <g id="cell183">
  <circle cx="525.091" cy="381.505" r="8.138" stroke-width="0.5" stroke="black" fill="magenta"/>
  <circle cx="525.091" cy="381.505" r="4.92314" stroke-width="0.5" stroke="black" fill="magenta"/>
   </g>
   <g id="cell184">
  <circle cx="548.407" cy="598.187" r="8.06992" stroke-width="0.5" stroke="black" fill="green"/>
  <circle cx="548.407" cy="598.187" r="4.89357" stroke-width="0.5" stroke="black" fill="green"/>
   </g>
   <g id="cell185">
  <circle cx="417.765" cy="521.932" r="7.94513" stroke-width="0.5" stroke="black" fill="green"/>
  <circle cx="417.765" cy="521.932" r="4.82989" stroke-width="0.5" stroke="black" fill="green"/>
   </g>
   <g id="cell186">
  <circle cx="605.758" cy="523.564" r="7.89581" stroke-width="0.5" stroke="black" fill="cyan"/>
  <circle cx="605.758" cy="523.564" r="4.80354" stroke-width="0.5" stroke="black" fill="cyan"/>
   </g>
   <g id="cell187">
  <circle cx="469.145" cy="485.177" r="8.09396" stroke-width="0.5" stroke="black" fill="magenta"/>
  <circle cx="469.145" cy="485.177" r="4.90175" stroke-width="0.5" stroke="black" fill="magenta"/>
   </g>
   <g id="cell188">
  <circle cx="617.598" cy="532.915" r="7.93633" stroke-width="0.5" stroke="black" fill="cyan"/>
  <circle cx="617.598" cy="532.915" r="4.82525" stroke-width="0.5" stroke="black" fill="cyan"/>
   </g>
   <g id="cell189">
  <circle cx="424.91" cy="535.497" r="7.94513" stroke-width="0.5" stroke="black" fill="green"/>
  <circle cx="424.91" cy="535.497" r="4.82989" stroke-width="0.5" stroke="black" fill="green"/>
   </g>
   <g id="cell190">
  <circle cx="425.827" cy="406.255" r="6.67923" stroke-width="0.5" stroke="black" fill="green"/>
  <circle cx="425.827" cy="406.255" r="4.07212" stroke-width="0.5" stroke="black" fill="green"/>
   </g>
   <g id="cell191">
  <circle cx="479.878" cy="436.181" r="7.95213" stroke-width="0.5" stroke="black" fill="magenta"/>
  <circle cx="479.878" cy="436.181" r="4.83551" stroke-width="0.5" stroke="black" fill="magenta"/>
   </g>
   <g id="cell192">
  <circle cx="614.732" cy="513.881" r="6.51455" stroke-width="0.5" stroke="black" fill="cyan"/>
  <circle cx="614.732" cy="513.881" r="3.98554" stroke-width="0.5" stroke="black" fill="cyan"/>
   </g>
   <g id="cell193">
  <circle cx="589.081" cy="473.645" r="8.03402" stroke-width="0.5" stroke="black" fill="cyan"/>
  <circle cx="589.081" cy="473.645" r="4.86778" stroke-width="0.5" stroke="black" fill="cyan"/>
   </g>
   <g id="cell194">
  <circle cx="446.042" cy="622.592" r="8.02368" stroke-width="0.5" stroke="black" fill="magenta"/>
  <circle cx="446.042" cy="622.592" r="4.86196" stroke-width="0.5" stroke="black" fill="magenta"/>
   </g>
   <g id="cell195">
  <circle cx="565.955" cy="522.745" r="7.99807" stroke-width="0.5" stroke="black" fill="cyan"/>
  <circle cx="565.955" cy="522.745" r="4.8485" stroke-width="0.5" stroke="black" fill="cyan"/>
   </g>
   <g id="cell196">
  <circle cx="506.654" cy="503.905" r="7.91737" stroke-width="0.5" stroke="black" fill="cyan"/>
  <circle cx="506.654" cy="503.905" r="4.81288" stroke-width="0.5" stroke="black" fill="cyan"/>
   </g>
   <g id="cell197">
  <circle cx="455.779" cy="442.199" r="7.84515" stroke-width="0.5" stroke="black" fill="cyan"/>
  <circle cx="455.779" cy="442.199" r="4.76243" stroke-width="0.5" stroke="black" fill="cyan"/>
   </g>
   <g id="cell198">
  <circle cx="559.985" cy="567.56" r="7.81315" stroke-width="0.5" stroke="black" fill="cyan"/>
  <circle cx="559.985" cy="567.56" r="4.74367" stroke-width="0.5" stroke="black" fill="cyan"/>
   </g>
   <g id="cell199">
  <circle cx="626.198" cy="544.854" r="7.68247" stroke-width="0.5" stroke="black" fill="green"/>
  <circle cx="626.198" cy="544.854" r="4.68086" stroke-width="0.5" stroke="black" fill="green"/>
   </g>
   <g id="cell200">
  <circle cx="594.175" cy="531.728" r="7.77451" stroke-width="0.5" stroke="black" fill="cyan"/>
  <circle cx="594.175" cy="531.728" r="4.72224" stroke-width="0.5" stroke="black" fill="cyan"/>
   </g>
   <g id="cell201">
  <circle cx="394.243" cy="494.378" r="7.70625" stroke-width="0.5" stroke="black" fill="magenta"/>
  <circle cx="394.243" cy="494.378" r="4.68829" stroke-width="0.5" stroke="black" fill="magenta"/>
   </g>
   <g id="cell202">
  <circle cx="481.973" cy="592.26" r="4.4188" stroke-width="0.5" stroke="black" fill="green"/>
  <circle cx="481.973" cy="592.26" r="3.01149" stroke-width="0.5" stroke="black" fill="black"/>
   </g>
   <g id="cell203">
  <circle cx="545.608" cy="624.78" r="7.62612" stroke-width="0.5" stroke="black" fill="green"/>
  <circle cx="545.608" cy="624.78" r="4.63706" stroke-width="0.5" stroke="black" fill="green"/>
   </g>
   <g id="cell204">
  <circle cx="363.37" cy="467.166" r="7.61466" stroke-width="0.5" stroke="black" fill="magenta"/>
  <circle cx="363.37" cy="467.166" r="4.62761" stroke-width="0.5" stroke="black" fill="magenta"/>
   </g>
   <g id="cell205">
  <circle cx="511.033" cy="604.34" r="7.43363" stroke-width="0.5" stroke="black" fill="green"/>
  <circle cx="511.033" cy="604.34" r="4.52073" stroke-width="0.5" stroke="black" fill="green"/>
   </g>
   <g id="cell206">
  <circle cx="365.885" cy="557.184" r="7.40359" stroke-width="0.5" stroke="black" fill="magenta"/>
  <circle cx="365.885" cy="557.184" r="4.50297" stroke-width="0.5" stroke="black" fill="magenta"/>
   </g>
   <g id="cell207">
  <circle cx="386.753" cy="541.105" r="7.35849" stroke-width="0.5" stroke="black" fill="magenta"/>
  <circle cx="386.753" cy="541.105" r="4.47252" stroke-width="0.5" stroke="black" fill="magenta"/>
   </g>
   <g id="cell208">
  <circle cx="603.405" cy="480.776" r="7.27863" stroke-width="0.5" stroke="black" fill="green"/>
  <circle cx="603.405" cy="480.776" r="4.43325" stroke-width="0.5" stroke="black" fill="green"/>
   </g>
   <g id="cell209">
  <circle cx="456.52" cy="491.293" r="7.12345" stroke-width="0.5" stroke="black" fill="magenta"/>
  <circle cx="456.52" cy="491.293" r="4.35601" stroke-width="0.5" stroke="black" fill="magenta"/>
   </g>
   <g id="cell210">
  <circle cx="432.183" cy="478.051" r="7.12271" stroke-width="0.5" stroke="black" fill="green"/>
  <circle cx="432.183" cy="478.051" r="4.33678" stroke-width="0.5" stroke="black" fill="green"/>
   </g>
   <g id="cell211">
  <circle cx="517.056" cy="472.326" r="7.1497" stroke-width="0.5" stroke="black" fill="cyan"/>
  <circle cx="517.056" cy="472.326" r="4.34001" stroke-width="0.5" stroke="black" fill="cyan"/>
   </g>
   <g id="cell212">
  <circle cx="443.756" cy="392.088" r="6.02642" stroke-width="0.5" stroke="black" fill="green"/>
  <circle cx="443.756" cy="392.088" r="3.71329" stroke-width="0.5" stroke="black" fill="green"/>
   </g>
   <g id="cell213">
  <circle cx="441.773" cy="469.419" r="6.81119" stroke-width="0.5" stroke="black" fill="cyan"/>
  <circle cx="441.773" cy="469.419" r="4.17037" stroke-width="0.5" stroke="black" fill="cyan"/>
   </g>
   <g id="cell214">
  <circle cx="464.826" cy="458.692" r="6.69119" stroke-width="0.5" stroke="black" fill="cyan"/>
  <circle cx="464.826" cy="458.692" r="4.09646" stroke-width="0.5" stroke="black" fill="cyan"/>
   </g>
   <g id="cell215">
  <circle cx="454.723" cy="394.704" r="6.02642" stroke-width="0.5" stroke="black" fill="green"/>
  <circle cx="454.723" cy="394.704" r="3.71329" stroke-width="0.5" stroke="black" fill="green"/>
   </g>
   <g id="cell216">
  <circle cx="478.923" cy="474.679" r="6.97028" stroke-width="0.5" stroke="black" fill="cyan"/>
  <circle cx="478.923" cy="474.679" r="4.23517" stroke-width="0.5" stroke="black" fill="cyan"/>
   </g>
   <g id="cell217">
  <circle cx="432.614" cy="395.924" r="6.67923" stroke-width="0.5" stroke="black" fill="green"/>
  <circle cx="432.614" cy="395.924" r="4.07212" stroke-width="0.5" stroke="black" fill="green"/>
   </g>
   <g id="cell218">
  <circle cx="539.32" cy="454.4" r="6.84783" stroke-width="0.5" stroke="black" fill="cyan"/>
  <circle cx="539.32" cy="454.4" r="4.15062" stroke-width="0.5" stroke="black" fill="cyan"/>
   </g>
   <g id="cell219">
  <circle cx="603.263" cy="509.909" r="6.51455" stroke-width="0.5" stroke="black" fill="cyan"/>
  <circle cx="603.263" cy="509.909" r="3.98554" stroke-width="0.5" stroke="black" fill="cyan"/>
   </g>
   <g id="cell220">
  <circle cx="498.472" cy="600.605" r="6.83229" stroke-width="0.5" stroke="black" fill="magenta"/>
  <circle cx="498.472" cy="600.605" r="4.12623" stroke-width="0.5" stroke="black" fill="magenta"/>
   </g>
   <g id="cell222">
  <circle cx="562.491" cy="542.737" r="6.78146" stroke-width="0.5" stroke="black" fill="cyan"/>
  <circle cx="562.491" cy="542.737" r="4.08706" stroke-width="0.5" stroke="black" fill="cyan"/>
   </g>
   <g id="cell223">
  <circle cx="452.908" cy="508.033" r="6.73252" stroke-width="0.5" stroke="black" fill="green"/>
  <circle cx="452.908" cy="508.033" r="4.05031" stroke-width="0.5" stroke="black" fill="green"/>
   </g>
   <g id="cell224">
  <circle cx="372.686" cy="487.447" r="6.1574" stroke-width="0.5" stroke="black" fill="magenta"/>
  <circle cx="372.686" cy="487.447" r="3.74964" stroke-width="0.5" stroke="black" fill="magenta"/>
   </g>
  </g>
 </g>
  <rect x="775" y="1035" width="200" height="10" stroke-width="2" stroke="rgb(255,255,255)" fill="rgb(0,0,0)"/>
  <text x="781.25" y="1028.75"
   font-family="Arial" font-size="25" fill="black" >
   200 &#956;m
  </text>
  <text x="25" y="1045"
   font-family="Arial" font-size="18.75" fill="black" >
   0 days, 0 hours, 0 minutes, and 53.4724 seconds
  </text>
  <rect x="0" y="70" width="1000" height="1000" stroke-width="2" stroke="rgb(0,0,0)" fill="none"/>
</svg>
