<?xml version="1.0" encoding="UTF-8" standalone="no"?>
<!-- Created with PhysiCell (http://PhysiCell.MathCancer.org/) -->
<svg 
 xmlns:dc="http://purl.org/dc/elements/1.1/" 
 xmlns:cc="http://creativecommons.org/ns#" 
 xmlns:rdf="http://www.w3.org/1999/02/22-rdf-syntax-ns#" 
 xmlns:svg="http://www.w3.org/2000/svg" 
 xmlns="http://www.w3.org/2000/svg" 
 version="1.1" 
 width="1000" 
 height="1070" 
 id="svg2">
  <rect x="0" y="0" width="1000" height="1070" stroke-width="2" stroke="white" fill="white"/>
  <text x="12.5" y="30"
   font-family="Arial" font-size="25" fill="black" >
   Current time: 0 days, 10 hours, and 30.00 minutes, z = 0.00 &#956;m
  </text>
  <text x="12.5" y="57.5"
   font-family="Arial" font-size="23.75" fill="black" >
   107 agents
  </text>
 <g id="tissue" 
    transform="translate(0,1070) scale(1,-1)">
  <g id="ECM">
  </g>
  <g id="cells">
   <g id="cell0">
  <circle cx="521.307" cy="532.189" r="8.28262" stroke-width="0.5" stroke="black" fill="magenta"/>
  <circle cx="521.307" cy="532.189" r="4.9961" stroke-width="0.5" stroke="black" fill="magenta"/>
   </g>
   <g id="cell1">
  <circle cx="602.973" cy="527.367" r="8.41271" stroke-width="0.5" stroke="black" fill="magenta"/>
  <circle cx="602.973" cy="527.367" r="5.05167" stroke-width="0.5" stroke="black" fill="magenta"/>
   </g>
   <g id="cell2">
  <circle cx="510.886" cy="600.53" r="8.41271" stroke-width="0.5" stroke="black" fill="magenta"/>
  <circle cx="510.886" cy="600.53" r="5.05167" stroke-width="0.5" stroke="black" fill="magenta"/>
   </g>
   <g id="cell3">
  <circle cx="531.175" cy="543.531" r="8.41271" stroke-width="0.5" stroke="black" fill="magenta"/>
  <circle cx="531.175" cy="543.531" r="5.05167" stroke-width="0.5" stroke="black" fill="magenta"/>
   </g>
   <g id="cell4">
  <circle cx="473.589" cy="441.443" r="8.29667" stroke-width="0.5" stroke="black" fill="magenta"/>
  <circle cx="473.589" cy="441.443" r="5.00279" stroke-width="0.5" stroke="black" fill="magenta"/>
   </g>
   <g id="cell5">
  <circle cx="465.252" cy="493.472" r="8.41271" stroke-width="0.5" stroke="black" fill="magenta"/>
  <circle cx="465.252" cy="493.472" r="5.05167" stroke-width="0.5" stroke="black" fill="magenta"/>
   </g>
   <g id="cell6">
  <circle cx="596.406" cy="513.945" r="7.97646" stroke-width="0.5" stroke="black" fill="magenta"/>
  <circle cx="596.406" cy="513.945" r="4.83584" stroke-width="0.5" stroke="black" fill="magenta"/>
   </g>
   <g id="cell7">
  <circle cx="511.673" cy="464.577" r="8.41271" stroke-width="0.5" stroke="black" fill="magenta"/>
  <circle cx="511.673" cy="464.577" r="5.05167" stroke-width="0.5" stroke="black" fill="magenta"/>
   </g>
   <g id="cell8">
  <circle cx="374.146" cy="547.146" r="8.41271" stroke-width="0.5" stroke="black" fill="magenta"/>
  <circle cx="374.146" cy="547.146" r="5.05167" stroke-width="0.5" stroke="black" fill="magenta"/>
   </g>
   <g id="cell9">
  <circle cx="466.21" cy="602.432" r="7.95045" stroke-width="0.5" stroke="black" fill="magenta"/>
  <circle cx="466.21" cy="602.432" r="4.82139" stroke-width="0.5" stroke="black" fill="magenta"/>
   </g>
   <g id="cell10">
  <circle cx="583.447" cy="392.105" r="8.41271" stroke-width="0.5" stroke="black" fill="magenta"/>
  <circle cx="583.447" cy="392.105" r="5.05167" stroke-width="0.5" stroke="black" fill="magenta"/>
   </g>
   <g id="cell11">
  <circle cx="589.748" cy="590.273" r="8.41271" stroke-width="0.5" stroke="black" fill="magenta"/>
  <circle cx="589.748" cy="590.273" r="5.05167" stroke-width="0.5" stroke="black" fill="magenta"/>
   </g>
   <g id="cell12">
  <circle cx="506.644" cy="585.99" r="8.41271" stroke-width="0.5" stroke="black" fill="magenta"/>
  <circle cx="506.644" cy="585.99" r="5.05167" stroke-width="0.5" stroke="black" fill="magenta"/>
   </g>
   <g id="cell13">
  <circle cx="380.443" cy="560.574" r="8.04604" stroke-width="0.5" stroke="black" fill="magenta"/>
  <circle cx="380.443" cy="560.574" r="4.87399" stroke-width="0.5" stroke="black" fill="magenta"/>
   </g>
   <g id="cell14">
  <circle cx="525.299" cy="401.817" r="8.41271" stroke-width="0.5" stroke="black" fill="magenta"/>
  <circle cx="525.299" cy="401.817" r="5.05167" stroke-width="0.5" stroke="black" fill="magenta"/>
   </g>
   <g id="cell15">
  <circle cx="384.781" cy="478.446" r="8.28985" stroke-width="0.5" stroke="black" fill="magenta"/>
  <circle cx="384.781" cy="478.446" r="4.99956" stroke-width="0.5" stroke="black" fill="magenta"/>
   </g>
   <g id="cell16">
  <circle cx="428.96" cy="413.217" r="8.41271" stroke-width="0.5" stroke="black" fill="magenta"/>
  <circle cx="428.96" cy="413.217" r="5.05167" stroke-width="0.5" stroke="black" fill="magenta"/>
   </g>
   <g id="cell17">
  <circle cx="582.061" cy="487.971" r="7.41548" stroke-width="0.5" stroke="black" fill="magenta"/>
  <circle cx="582.061" cy="487.971" r="4.50723" stroke-width="0.5" stroke="black" fill="magenta"/>
   </g>
   <g id="cell18">
  <circle cx="512.089" cy="394.575" r="8.3031" stroke-width="0.5" stroke="black" fill="magenta"/>
  <circle cx="512.089" cy="394.575" r="5.00583" stroke-width="0.5" stroke="black" fill="magenta"/>
   </g>
   <g id="cell19">
  <circle cx="447.679" cy="533.649" r="7.79564" stroke-width="0.5" stroke="black" fill="magenta"/>
  <circle cx="447.679" cy="533.649" r="4.73359" stroke-width="0.5" stroke="black" fill="magenta"/>
   </g>
   <g id="cell20">
  <circle cx="528.648" cy="416.582" r="8.41271" stroke-width="0.5" stroke="black" fill="magenta"/>
  <circle cx="528.648" cy="416.582" r="5.05167" stroke-width="0.5" stroke="black" fill="magenta"/>
   </g>
   <g id="cell21">
  <circle cx="466.269" cy="638.391" r="7.33129" stroke-width="0.5" stroke="black" fill="magenta"/>
  <circle cx="466.269" cy="638.391" r="4.45516" stroke-width="0.5" stroke="black" fill="magenta"/>
   </g>
   <g id="cell22">
  <circle cx="556.768" cy="497.318" r="7.53839" stroke-width="0.5" stroke="black" fill="magenta"/>
  <circle cx="556.768" cy="497.318" r="4.59679" stroke-width="0.5" stroke="black" fill="magenta"/>
   </g>
   <g id="cell23">
  <circle cx="538.076" cy="480.501" r="8.41271" stroke-width="0.5" stroke="black" fill="magenta"/>
  <circle cx="538.076" cy="480.501" r="5.05167" stroke-width="0.5" stroke="black" fill="magenta"/>
   </g>
   <g id="cell24">
  <circle cx="559.288" cy="379.787" r="8.41271" stroke-width="0.5" stroke="black" fill="magenta"/>
  <circle cx="559.288" cy="379.787" r="5.05167" stroke-width="0.5" stroke="black" fill="magenta"/>
   </g>
   <g id="cell25">
  <circle cx="642.18" cy="554.345" r="6.83713" stroke-width="0.5" stroke="black" fill="green"/>
  <circle cx="642.18" cy="554.345" r="4.12773" stroke-width="0.5" stroke="black" fill="green"/>
   </g>
   <g id="cell26">
  <circle cx="550.641" cy="401.23" r="8.41271" stroke-width="0.5" stroke="black" fill="green"/>
  <circle cx="550.641" cy="401.23" r="5.05167" stroke-width="0.5" stroke="black" fill="green"/>
   </g>
   <g id="cell27">
  <circle cx="457.446" cy="388.678" r="8.41271" stroke-width="0.5" stroke="black" fill="green"/>
  <circle cx="457.446" cy="388.678" r="5.05167" stroke-width="0.5" stroke="black" fill="green"/>
   </g>
   <g id="cell28">
  <circle cx="432.672" cy="533.715" r="8.41271" stroke-width="0.5" stroke="black" fill="green"/>
  <circle cx="432.672" cy="533.715" r="5.05167" stroke-width="0.5" stroke="black" fill="green"/>
   </g>
   <g id="cell29">
  <circle cx="456.351" cy="521.829" r="8.02418" stroke-width="0.5" stroke="black" fill="green"/>
  <circle cx="456.351" cy="521.829" r="4.86209" stroke-width="0.5" stroke="black" fill="green"/>
   </g>
   <g id="cell30">
  <circle cx="481.437" cy="540.248" r="8.41271" stroke-width="0.5" stroke="black" fill="green"/>
  <circle cx="481.437" cy="540.248" r="5.05167" stroke-width="0.5" stroke="black" fill="green"/>
   </g>
   <g id="cell31">
  <circle cx="412.153" cy="538.963" r="8.41271" stroke-width="0.5" stroke="black" fill="green"/>
  <circle cx="412.153" cy="538.963" r="5.05167" stroke-width="0.5" stroke="black" fill="green"/>
   </g>
   <g id="cell32">
  <circle cx="428.299" cy="470.942" r="8.07654" stroke-width="0.5" stroke="black" fill="green"/>
  <circle cx="428.299" cy="470.942" r="4.89046" stroke-width="0.5" stroke="black" fill="green"/>
   </g>
   <g id="cell33">
  <circle cx="498.763" cy="413.39" r="8.1218" stroke-width="0.5" stroke="black" fill="green"/>
  <circle cx="498.763" cy="413.39" r="4.91457" stroke-width="0.5" stroke="black" fill="green"/>
   </g>
   <g id="cell34">
  <circle cx="391.823" cy="453.547" r="8.04604" stroke-width="0.5" stroke="black" fill="green"/>
  <circle cx="391.823" cy="453.547" r="4.87399" stroke-width="0.5" stroke="black" fill="green"/>
   </g>
   <g id="cell35">
  <circle cx="544.469" cy="548.621" r="6.95901" stroke-width="0.5" stroke="black" fill="green"/>
  <circle cx="544.469" cy="548.621" r="4.21341" stroke-width="0.5" stroke="black" fill="green"/>
   </g>
   <g id="cell36">
  <circle cx="390.872" cy="585.232" r="8.41271" stroke-width="0.5" stroke="black" fill="green"/>
  <circle cx="390.872" cy="585.232" r="5.05167" stroke-width="0.5" stroke="black" fill="green"/>
   </g>
   <g id="cell37">
  <circle cx="634.871" cy="460.618" r="8.41271" stroke-width="0.5" stroke="black" fill="green"/>
  <circle cx="634.871" cy="460.618" r="5.05167" stroke-width="0.5" stroke="black" fill="green"/>
   </g>
   <g id="cell38">
  <circle cx="531.442" cy="602.157" r="7.83019" stroke-width="0.5" stroke="black" fill="green"/>
  <circle cx="531.442" cy="602.157" r="4.75343" stroke-width="0.5" stroke="black" fill="green"/>
   </g>
   <g id="cell39">
  <circle cx="617.624" cy="494.511" r="8.27497" stroke-width="0.5" stroke="black" fill="green"/>
  <circle cx="617.624" cy="494.511" r="4.99242" stroke-width="0.5" stroke="black" fill="green"/>
   </g>
   <g id="cell40">
  <circle cx="485.348" cy="571.779" r="8.41271" stroke-width="0.5" stroke="black" fill="green"/>
  <circle cx="485.348" cy="571.779" r="5.05167" stroke-width="0.5" stroke="black" fill="green"/>
   </g>
   <g id="cell41">
  <circle cx="364.588" cy="480.457" r="8.41271" stroke-width="0.5" stroke="black" fill="green"/>
  <circle cx="364.588" cy="480.457" r="5.05167" stroke-width="0.5" stroke="black" fill="green"/>
   </g>
   <g id="cell42">
  <circle cx="451.224" cy="487.783" r="7.9163" stroke-width="0.5" stroke="black" fill="green"/>
  <circle cx="451.224" cy="487.783" r="4.81215" stroke-width="0.5" stroke="black" fill="green"/>
   </g>
   <g id="cell43">
  <circle cx="558.194" cy="445.626" r="8.41271" stroke-width="0.5" stroke="black" fill="green"/>
  <circle cx="558.194" cy="445.626" r="5.05167" stroke-width="0.5" stroke="black" fill="green"/>
   </g>
   <g id="cell44">
  <circle cx="476.34" cy="628.329" r="8.01277" stroke-width="0.5" stroke="black" fill="green"/>
  <circle cx="476.34" cy="628.329" r="4.85584" stroke-width="0.5" stroke="black" fill="green"/>
   </g>
   <g id="cell45">
  <circle cx="416.682" cy="553.257" r="7.41548" stroke-width="0.5" stroke="black" fill="green"/>
  <circle cx="416.682" cy="553.257" r="4.50723" stroke-width="0.5" stroke="black" fill="green"/>
   </g>
   <g id="cell46">
  <circle cx="520.413" cy="612.874" r="8.41271" stroke-width="0.5" stroke="black" fill="green"/>
  <circle cx="520.413" cy="612.874" r="5.05167" stroke-width="0.5" stroke="black" fill="green"/>
   </g>
   <g id="cell47">
  <circle cx="504.294" cy="511.467" r="8.41271" stroke-width="0.5" stroke="black" fill="green"/>
  <circle cx="504.294" cy="511.467" r="5.05167" stroke-width="0.5" stroke="black" fill="green"/>
   </g>
   <g id="cell48">
  <circle cx="564.509" cy="602.788" r="8.41271" stroke-width="0.5" stroke="black" fill="green"/>
  <circle cx="564.509" cy="602.788" r="5.05167" stroke-width="0.5" stroke="black" fill="green"/>
   </g>
   <g id="cell49">
  <circle cx="429.826" cy="397.641" r="8.41271" stroke-width="0.5" stroke="black" fill="green"/>
  <circle cx="429.826" cy="397.641" r="5.05167" stroke-width="0.5" stroke="black" fill="green"/>
   </g>
   <g id="cell50">
  <circle cx="519.413" cy="516.827" r="8.41271" stroke-width="0.5" stroke="black" fill="cyan"/>
  <circle cx="519.413" cy="516.827" r="5.05167" stroke-width="0.5" stroke="black" fill="cyan"/>
   </g>
   <g id="cell51">
  <circle cx="399.58" cy="598.671" r="8.41271" stroke-width="0.5" stroke="black" fill="cyan"/>
  <circle cx="399.58" cy="598.671" r="5.05167" stroke-width="0.5" stroke="black" fill="cyan"/>
   </g>
   <g id="cell52">
  <circle cx="524.719" cy="425.226" r="1.92875" stroke-width="0.5" stroke="black" fill="cyan"/>
  <circle cx="524.719" cy="425.226" r="1.8429" stroke-width="0.5" stroke="black" fill="black"/>
   </g>
   <g id="cell53">
  <circle cx="571.096" cy="436.146" r="8.41271" stroke-width="0.5" stroke="black" fill="cyan"/>
  <circle cx="571.096" cy="436.146" r="5.05167" stroke-width="0.5" stroke="black" fill="cyan"/>
   </g>
   <g id="cell54">
  <circle cx="479.141" cy="426.976" r="8.41271" stroke-width="0.5" stroke="black" fill="cyan"/>
  <circle cx="479.141" cy="426.976" r="5.05167" stroke-width="0.5" stroke="black" fill="cyan"/>
   </g>
   <g id="cell55">
  <circle cx="525.892" cy="470.877" r="8.41271" stroke-width="0.5" stroke="black" fill="cyan"/>
  <circle cx="525.892" cy="470.877" r="5.05167" stroke-width="0.5" stroke="black" fill="cyan"/>
   </g>
   <g id="cell56">
  <circle cx="617.739" cy="522.296" r="8.41271" stroke-width="0.5" stroke="black" fill="cyan"/>
  <circle cx="617.739" cy="522.296" r="5.05167" stroke-width="0.5" stroke="black" fill="cyan"/>
   </g>
   <g id="cell57">
  <circle cx="416.924" cy="617.466" r="8.41271" stroke-width="0.5" stroke="black" fill="cyan"/>
  <circle cx="416.924" cy="617.466" r="5.05167" stroke-width="0.5" stroke="black" fill="cyan"/>
   </g>
   <g id="cell58">
  <circle cx="553.437" cy="483.061" r="8.41271" stroke-width="0.5" stroke="black" fill="cyan"/>
  <circle cx="553.437" cy="483.061" r="5.05167" stroke-width="0.5" stroke="black" fill="cyan"/>
   </g>
   <g id="cell59">
  <circle cx="385.235" cy="439.338" r="8.41271" stroke-width="0.5" stroke="black" fill="cyan"/>
  <circle cx="385.235" cy="439.338" r="5.05167" stroke-width="0.5" stroke="black" fill="cyan"/>
   </g>
   <g id="cell60">
  <circle cx="592.854" cy="475.257" r="8.41271" stroke-width="0.5" stroke="black" fill="cyan"/>
  <circle cx="592.854" cy="475.257" r="5.05167" stroke-width="0.5" stroke="black" fill="cyan"/>
   </g>
   <g id="cell61">
  <circle cx="554.342" cy="615.197" r="8.41271" stroke-width="0.5" stroke="black" fill="cyan"/>
  <circle cx="554.342" cy="615.197" r="5.05167" stroke-width="0.5" stroke="black" fill="cyan"/>
   </g>
   <g id="cell62">
  <circle cx="526.264" cy="443.914" r="8.41271" stroke-width="0.5" stroke="black" fill="cyan"/>
  <circle cx="526.264" cy="443.914" r="5.05167" stroke-width="0.5" stroke="black" fill="cyan"/>
   </g>
   <g id="cell63">
  <circle cx="581.001" cy="552.631" r="7.83019" stroke-width="0.5" stroke="black" fill="cyan"/>
  <circle cx="581.001" cy="552.631" r="4.75343" stroke-width="0.5" stroke="black" fill="cyan"/>
   </g>
   <g id="cell64">
  <circle cx="509.962" cy="636.825" r="8.41271" stroke-width="0.5" stroke="black" fill="cyan"/>
  <circle cx="509.962" cy="636.825" r="5.05167" stroke-width="0.5" stroke="black" fill="cyan"/>
   </g>
   <g id="cell65">
  <circle cx="536.111" cy="459.403" r="7.79564" stroke-width="0.5" stroke="black" fill="cyan"/>
  <circle cx="536.111" cy="459.403" r="4.73359" stroke-width="0.5" stroke="black" fill="cyan"/>
   </g>
   <g id="cell66">
  <circle cx="536.533" cy="528.889" r="8.41271" stroke-width="0.5" stroke="black" fill="cyan"/>
  <circle cx="536.533" cy="528.889" r="5.05167" stroke-width="0.5" stroke="black" fill="cyan"/>
   </g>
   <g id="cell67">
  <circle cx="354.454" cy="492.908" r="8.41271" stroke-width="0.5" stroke="black" fill="cyan"/>
  <circle cx="354.454" cy="492.908" r="5.05167" stroke-width="0.5" stroke="black" fill="cyan"/>
   </g>
   <g id="cell68">
  <circle cx="558.327" cy="553.442" r="8.41271" stroke-width="0.5" stroke="black" fill="cyan"/>
  <circle cx="558.327" cy="553.442" r="5.05167" stroke-width="0.5" stroke="black" fill="cyan"/>
   </g>
   <g id="cell69">
  <circle cx="436.561" cy="457.843" r="8.30618" stroke-width="0.5" stroke="black" fill="cyan"/>
  <circle cx="436.561" cy="457.843" r="5.00727" stroke-width="0.5" stroke="black" fill="cyan"/>
   </g>
   <g id="cell70">
  <circle cx="577.154" cy="473.65" r="8.41271" stroke-width="0.5" stroke="black" fill="cyan"/>
  <circle cx="577.154" cy="473.65" r="5.05167" stroke-width="0.5" stroke="black" fill="cyan"/>
   </g>
   <g id="cell71">
  <circle cx="377.712" cy="520.989" r="8.41271" stroke-width="0.5" stroke="black" fill="cyan"/>
  <circle cx="377.712" cy="520.989" r="5.05167" stroke-width="0.5" stroke="black" fill="cyan"/>
   </g>
   <g id="cell72">
  <circle cx="534.961" cy="512.744" r="8.41271" stroke-width="0.5" stroke="black" fill="cyan"/>
  <circle cx="534.961" cy="512.744" r="5.05167" stroke-width="0.5" stroke="black" fill="cyan"/>
   </g>
   <g id="cell73">
  <circle cx="363.015" cy="546.118" r="3.66624" stroke-width="0.5" stroke="black" fill="cyan"/>
  <circle cx="363.015" cy="546.118" r="2.75003" stroke-width="0.5" stroke="black" fill="black"/>
   </g>
   <g id="cell74">
  <circle cx="542.206" cy="445.305" r="8.41271" stroke-width="0.5" stroke="black" fill="cyan"/>
  <circle cx="542.206" cy="445.305" r="5.05167" stroke-width="0.5" stroke="black" fill="cyan"/>
   </g>
   <g id="cell75">
  <circle cx="443.818" cy="472.055" r="8.30618" stroke-width="0.5" stroke="black" fill="cyan"/>
  <circle cx="443.818" cy="472.055" r="5.00727" stroke-width="0.5" stroke="black" fill="cyan"/>
   </g>
   <g id="cell76">
  <circle cx="524.49" cy="387.403" r="7.65579" stroke-width="0.5" stroke="black" fill="magenta"/>
  <circle cx="524.49" cy="387.403" r="4.66239" stroke-width="0.5" stroke="black" fill="magenta"/>
   </g>
   <g id="cell77">
  <circle cx="488.407" cy="439.335" r="8.29667" stroke-width="0.5" stroke="black" fill="magenta"/>
  <circle cx="488.407" cy="439.335" r="5.00279" stroke-width="0.5" stroke="black" fill="magenta"/>
   </g>
   <g id="cell78">
  <circle cx="373.988" cy="468.175" r="8.28985" stroke-width="0.5" stroke="black" fill="magenta"/>
  <circle cx="373.988" cy="468.175" r="4.99956" stroke-width="0.5" stroke="black" fill="magenta"/>
   </g>
   <g id="cell79">
  <circle cx="507.437" cy="526.634" r="8.28262" stroke-width="0.5" stroke="black" fill="magenta"/>
  <circle cx="507.437" cy="526.634" r="4.9961" stroke-width="0.5" stroke="black" fill="magenta"/>
   </g>
   <g id="cell80">
  <circle cx="606.152" cy="483.78" r="8.27497" stroke-width="0.5" stroke="black" fill="green"/>
  <circle cx="606.152" cy="483.78" r="4.99242" stroke-width="0.5" stroke="black" fill="green"/>
   </g>
   <g id="cell81">
  <circle cx="429.323" cy="503.977" r="6.72036" stroke-width="0.5" stroke="black" fill="green"/>
  <circle cx="429.323" cy="503.977" r="4.07635" stroke-width="0.5" stroke="black" fill="green"/>
   </g>
   <g id="cell82">
  <circle cx="542.901" cy="494.647" r="8.24914" stroke-width="0.5" stroke="black" fill="magenta"/>
  <circle cx="542.901" cy="494.647" r="4.97981" stroke-width="0.5" stroke="black" fill="magenta"/>
   </g>
   <g id="cell83">
  <circle cx="493.148" cy="429.68" r="3.33203" stroke-width="0.5" stroke="black" fill="green"/>
  <circle cx="493.148" cy="429.68" r="2.58323" stroke-width="0.5" stroke="black" fill="black"/>
   </g>
   <g id="cell84">
  <circle cx="416.717" cy="480.845" r="8.07654" stroke-width="0.5" stroke="black" fill="green"/>
  <circle cx="416.717" cy="480.845" r="4.89046" stroke-width="0.5" stroke="black" fill="green"/>
   </g>
   <g id="cell85">
  <circle cx="405.779" cy="447.275" r="8.04604" stroke-width="0.5" stroke="black" fill="green"/>
  <circle cx="405.779" cy="447.275" r="4.87399" stroke-width="0.5" stroke="black" fill="green"/>
   </g>
   <g id="cell86">
  <circle cx="391.446" cy="569.988" r="8.04604" stroke-width="0.5" stroke="black" fill="magenta"/>
  <circle cx="391.446" cy="569.988" r="4.87399" stroke-width="0.5" stroke="black" fill="magenta"/>
   </g>
   <g id="cell87">
  <circle cx="441.132" cy="520.532" r="8.02418" stroke-width="0.5" stroke="black" fill="green"/>
  <circle cx="441.132" cy="520.532" r="4.86209" stroke-width="0.5" stroke="black" fill="green"/>
   </g>
   <g id="cell88">
  <circle cx="477.588" cy="612.943" r="8.01277" stroke-width="0.5" stroke="black" fill="green"/>
  <circle cx="477.588" cy="612.943" r="4.85584" stroke-width="0.5" stroke="black" fill="green"/>
   </g>
   <g id="cell89">
  <circle cx="437.313" cy="490.081" r="6.94509" stroke-width="0.5" stroke="black" fill="green"/>
  <circle cx="437.313" cy="490.081" r="4.25845" stroke-width="0.5" stroke="black" fill="green"/>
   </g>
   <g id="cell90">
  <circle cx="589.015" cy="501.084" r="7.97646" stroke-width="0.5" stroke="black" fill="magenta"/>
  <circle cx="589.015" cy="501.084" r="4.83584" stroke-width="0.5" stroke="black" fill="magenta"/>
   </g>
   <g id="cell91">
  <circle cx="452.6" cy="597.527" r="7.95045" stroke-width="0.5" stroke="black" fill="magenta"/>
  <circle cx="452.6" cy="597.527" r="4.82139" stroke-width="0.5" stroke="black" fill="magenta"/>
   </g>
   <g id="cell92">
  <circle cx="546.419" cy="592.206" r="6.645" stroke-width="0.5" stroke="black" fill="green"/>
  <circle cx="546.419" cy="592.206" r="4.06729" stroke-width="0.5" stroke="black" fill="green"/>
   </g>
   <g id="cell93">
  <circle cx="575.696" cy="532.603" r="6.98647" stroke-width="0.5" stroke="black" fill="cyan"/>
  <circle cx="575.696" cy="532.603" r="4.28097" stroke-width="0.5" stroke="black" fill="cyan"/>
   </g>
   <g id="cell94">
  <circle cx="547.506" cy="468.846" r="7.79564" stroke-width="0.5" stroke="black" fill="cyan"/>
  <circle cx="547.506" cy="468.846" r="4.73359" stroke-width="0.5" stroke="black" fill="cyan"/>
   </g>
   <g id="cell95">
  <circle cx="461.57" cy="535.545" r="7.79564" stroke-width="0.5" stroke="black" fill="magenta"/>
  <circle cx="461.57" cy="535.545" r="4.73359" stroke-width="0.5" stroke="black" fill="magenta"/>
   </g>
   <g id="cell96">
  <circle cx="534.11" cy="377.6" r="7.65579" stroke-width="0.5" stroke="black" fill="magenta"/>
  <circle cx="534.11" cy="377.6" r="4.66239" stroke-width="0.5" stroke="black" fill="magenta"/>
   </g>
   <g id="cell97">
  <circle cx="567.021" cy="506.031" r="7.53839" stroke-width="0.5" stroke="black" fill="magenta"/>
  <circle cx="567.021" cy="506.031" r="4.59679" stroke-width="0.5" stroke="black" fill="magenta"/>
   </g>
   <g id="cell98">
  <circle cx="413.128" cy="566.837" r="7.41548" stroke-width="0.5" stroke="black" fill="green"/>
  <circle cx="413.128" cy="566.837" r="4.50723" stroke-width="0.5" stroke="black" fill="green"/>
   </g>
   <g id="cell99">
  <circle cx="569.428" cy="492.722" r="7.41548" stroke-width="0.5" stroke="black" fill="magenta"/>
  <circle cx="569.428" cy="492.722" r="4.50723" stroke-width="0.5" stroke="black" fill="magenta"/>
   </g>
   <g id="cell100">
  <circle cx="569.687" cy="544.339" r="6.98647" stroke-width="0.5" stroke="black" fill="cyan"/>
  <circle cx="569.687" cy="544.339" r="4.28097" stroke-width="0.5" stroke="black" fill="cyan"/>
   </g>
   <g id="cell101">
  <circle cx="454.727" cy="632.033" r="7.33129" stroke-width="0.5" stroke="black" fill="magenta"/>
  <circle cx="454.727" cy="632.033" r="4.45516" stroke-width="0.5" stroke="black" fill="magenta"/>
   </g>
   <g id="cell102">
  <circle cx="442.128" cy="502.337" r="6.94509" stroke-width="0.5" stroke="black" fill="green"/>
  <circle cx="442.128" cy="502.337" r="4.25845" stroke-width="0.5" stroke="black" fill="green"/>
   </g>
   <g id="cell103">
  <circle cx="544.874" cy="604.646" r="6.645" stroke-width="0.5" stroke="black" fill="green"/>
  <circle cx="544.874" cy="604.646" r="4.06729" stroke-width="0.5" stroke="black" fill="green"/>
   </g>
   <g id="cell104">
  <circle cx="549.485" cy="536.412" r="6.95901" stroke-width="0.5" stroke="black" fill="green"/>
  <circle cx="549.485" cy="536.412" r="4.21341" stroke-width="0.5" stroke="black" fill="green"/>
   </g>
   <g id="cell105">
  <circle cx="421.972" cy="493.723" r="6.72036" stroke-width="0.5" stroke="black" fill="green"/>
  <circle cx="421.972" cy="493.723" r="4.07635" stroke-width="0.5" stroke="black" fill="green"/>
   </g>
   <g id="cell106">
  <circle cx="638.604" cy="541.872" r="6.83713" stroke-width="0.5" stroke="black" fill="green"/>
  <circle cx="638.604" cy="541.872" r="4.12773" stroke-width="0.5" stroke="black" fill="green"/>
   </g>
  </g>
 </g>
  <rect x="775" y="1035" width="200" height="10" stroke-width="2" stroke="rgb(255,255,255)" fill="rgb(0,0,0)"/>
  <text x="781.25" y="1028.75"
   font-family="Arial" font-size="25" fill="black" >
   200 &#956;m
  </text>
  <text x="25" y="1045"
   font-family="Arial" font-size="18.75" fill="black" >
   0 days, 0 hours, 0 minutes, and 14.0654 seconds
  </text>
  <rect x="0" y="70" width="1000" height="1000" stroke-width="2" stroke="rgb(0,0,0)" fill="none"/>
</svg>
