<?xml version="1.0" encoding="UTF-8" standalone="no"?>
<!-- Created with PhysiCell (http://PhysiCell.MathCancer.org/) -->
<svg 
 xmlns:dc="http://purl.org/dc/elements/1.1/" 
 xmlns:cc="http://creativecommons.org/ns#" 
 xmlns:rdf="http://www.w3.org/1999/02/22-rdf-syntax-ns#" 
 xmlns:svg="http://www.w3.org/2000/svg" 
 xmlns="http://www.w3.org/2000/svg" 
 version="1.1" 
 width="1000" 
 height="1070" 
 id="svg2">
  <rect x="0" y="0" width="1000" height="1070" stroke-width="2" stroke="white" fill="white"/>
  <text x="12.5" y="30"
   font-family="Arial" font-size="25" fill="black" >
   Current time: 0 days, 1 hours, and 30.00 minutes, z = 0.00 &#956;m
  </text>
  <text x="12.5" y="57.5"
   font-family="Arial" font-size="23.75" fill="black" >
   82 agents
  </text>
 <g id="tissue" 
    transform="translate(0,1070) scale(1,-1)">
  <g id="ECM">
  </g>
  <g id="cells">
   <g id="cell0">
  <circle cx="519.317" cy="529.725" r="6.83713" stroke-width="0.5" stroke="black" fill="magenta"/>
  <circle cx="519.317" cy="529.725" r="4.12773" stroke-width="0.5" stroke="black" fill="magenta"/>
   </g>
   <g id="cell1">
  <circle cx="604.256" cy="530.081" r="8.41271" stroke-width="0.5" stroke="black" fill="magenta"/>
  <circle cx="604.256" cy="530.081" r="5.05167" stroke-width="0.5" stroke="black" fill="magenta"/>
   </g>
   <g id="cell2">
  <circle cx="510.881" cy="600.601" r="8.41271" stroke-width="0.5" stroke="black" fill="magenta"/>
  <circle cx="510.881" cy="600.601" r="5.05167" stroke-width="0.5" stroke="black" fill="magenta"/>
   </g>
   <g id="cell3">
  <circle cx="532.792" cy="545.449" r="8.41271" stroke-width="0.5" stroke="black" fill="magenta"/>
  <circle cx="532.792" cy="545.449" r="5.05167" stroke-width="0.5" stroke="black" fill="magenta"/>
   </g>
   <g id="cell4">
  <circle cx="476.888" cy="440.071" r="6.95901" stroke-width="0.5" stroke="black" fill="magenta"/>
  <circle cx="476.888" cy="440.071" r="4.21341" stroke-width="0.5" stroke="black" fill="magenta"/>
   </g>
   <g id="cell5">
  <circle cx="465.032" cy="493.3" r="8.41271" stroke-width="0.5" stroke="black" fill="magenta"/>
  <circle cx="465.032" cy="493.3" r="5.05167" stroke-width="0.5" stroke="black" fill="magenta"/>
   </g>
   <g id="cell6">
  <circle cx="593.717" cy="508.805" r="8.41271" stroke-width="0.5" stroke="black" fill="magenta"/>
  <circle cx="593.717" cy="508.805" r="5.05167" stroke-width="0.5" stroke="black" fill="magenta"/>
   </g>
   <g id="cell7">
  <circle cx="512.058" cy="464.755" r="8.41271" stroke-width="0.5" stroke="black" fill="magenta"/>
  <circle cx="512.058" cy="464.755" r="5.05167" stroke-width="0.5" stroke="black" fill="magenta"/>
   </g>
   <g id="cell8">
  <circle cx="375.891" cy="544.521" r="8.41271" stroke-width="0.5" stroke="black" fill="magenta"/>
  <circle cx="375.891" cy="544.521" r="5.05167" stroke-width="0.5" stroke="black" fill="magenta"/>
   </g>
   <g id="cell9">
  <circle cx="460.472" cy="599.786" r="8.41271" stroke-width="0.5" stroke="black" fill="magenta"/>
  <circle cx="460.472" cy="599.786" r="5.05167" stroke-width="0.5" stroke="black" fill="magenta"/>
   </g>
   <g id="cell10">
  <circle cx="583.447" cy="392.105" r="8.41271" stroke-width="0.5" stroke="black" fill="magenta"/>
  <circle cx="583.447" cy="392.105" r="5.05167" stroke-width="0.5" stroke="black" fill="magenta"/>
   </g>
   <g id="cell11">
  <circle cx="589.748" cy="590.273" r="8.41271" stroke-width="0.5" stroke="black" fill="magenta"/>
  <circle cx="589.748" cy="590.273" r="5.05167" stroke-width="0.5" stroke="black" fill="magenta"/>
   </g>
   <g id="cell12">
  <circle cx="506.663" cy="586.054" r="8.41271" stroke-width="0.5" stroke="black" fill="magenta"/>
  <circle cx="506.663" cy="586.054" r="5.05167" stroke-width="0.5" stroke="black" fill="magenta"/>
   </g>
   <g id="cell13">
  <circle cx="386.105" cy="567.982" r="8.41271" stroke-width="0.5" stroke="black" fill="magenta"/>
  <circle cx="386.105" cy="567.982" r="5.05167" stroke-width="0.5" stroke="black" fill="magenta"/>
   </g>
   <g id="cell14">
  <circle cx="529.618" cy="399.859" r="8.41271" stroke-width="0.5" stroke="black" fill="magenta"/>
  <circle cx="529.618" cy="399.859" r="5.05167" stroke-width="0.5" stroke="black" fill="magenta"/>
   </g>
   <g id="cell15">
  <circle cx="384.544" cy="477.311" r="6.89675" stroke-width="0.5" stroke="black" fill="magenta"/>
  <circle cx="384.544" cy="477.311" r="4.17024" stroke-width="0.5" stroke="black" fill="magenta"/>
   </g>
   <g id="cell16">
  <circle cx="428.96" cy="413.217" r="8.41271" stroke-width="0.5" stroke="black" fill="magenta"/>
  <circle cx="428.96" cy="413.217" r="5.05167" stroke-width="0.5" stroke="black" fill="magenta"/>
   </g>
   <g id="cell17">
  <circle cx="571.746" cy="489.902" r="8.41271" stroke-width="0.5" stroke="black" fill="magenta"/>
  <circle cx="571.746" cy="489.902" r="5.05167" stroke-width="0.5" stroke="black" fill="magenta"/>
   </g>
   <g id="cell18">
  <circle cx="512.197" cy="388.628" r="7.02257" stroke-width="0.5" stroke="black" fill="magenta"/>
  <circle cx="512.197" cy="388.628" r="4.25644" stroke-width="0.5" stroke="black" fill="magenta"/>
   </g>
   <g id="cell19">
  <circle cx="451.806" cy="538.654" r="8.41271" stroke-width="0.5" stroke="black" fill="magenta"/>
  <circle cx="451.806" cy="538.654" r="5.05167" stroke-width="0.5" stroke="black" fill="magenta"/>
   </g>
   <g id="cell20">
  <circle cx="531.387" cy="415.098" r="8.41271" stroke-width="0.5" stroke="black" fill="magenta"/>
  <circle cx="531.387" cy="415.098" r="5.05167" stroke-width="0.5" stroke="black" fill="magenta"/>
   </g>
   <g id="cell21">
  <circle cx="464.368" cy="634.574" r="8.41271" stroke-width="0.5" stroke="black" fill="magenta"/>
  <circle cx="464.368" cy="634.574" r="5.05167" stroke-width="0.5" stroke="black" fill="magenta"/>
   </g>
   <g id="cell22">
  <circle cx="557.094" cy="493.768" r="8.41271" stroke-width="0.5" stroke="black" fill="magenta"/>
  <circle cx="557.094" cy="493.768" r="5.05167" stroke-width="0.5" stroke="black" fill="magenta"/>
   </g>
   <g id="cell23">
  <circle cx="536.721" cy="481.527" r="8.41271" stroke-width="0.5" stroke="black" fill="magenta"/>
  <circle cx="536.721" cy="481.527" r="5.05167" stroke-width="0.5" stroke="black" fill="magenta"/>
   </g>
   <g id="cell24">
  <circle cx="559.289" cy="379.786" r="8.41271" stroke-width="0.5" stroke="black" fill="magenta"/>
  <circle cx="559.289" cy="379.786" r="5.05167" stroke-width="0.5" stroke="black" fill="magenta"/>
   </g>
   <g id="cell25">
  <circle cx="640.943" cy="550.03" r="8.41271" stroke-width="0.5" stroke="black" fill="green"/>
  <circle cx="640.943" cy="550.03" r="5.05167" stroke-width="0.5" stroke="black" fill="green"/>
   </g>
   <g id="cell26">
  <circle cx="550.989" cy="401.25" r="8.41271" stroke-width="0.5" stroke="black" fill="green"/>
  <circle cx="550.989" cy="401.25" r="5.05167" stroke-width="0.5" stroke="black" fill="green"/>
   </g>
   <g id="cell27">
  <circle cx="457.446" cy="388.678" r="8.41271" stroke-width="0.5" stroke="black" fill="green"/>
  <circle cx="457.446" cy="388.678" r="5.05167" stroke-width="0.5" stroke="black" fill="green"/>
   </g>
   <g id="cell28">
  <circle cx="438.343" cy="530.854" r="8.41271" stroke-width="0.5" stroke="black" fill="green"/>
  <circle cx="438.343" cy="530.854" r="5.05167" stroke-width="0.5" stroke="black" fill="green"/>
   </g>
   <g id="cell29">
  <circle cx="449.259" cy="519.208" r="8.41271" stroke-width="0.5" stroke="black" fill="green"/>
  <circle cx="449.259" cy="519.208" r="5.05167" stroke-width="0.5" stroke="black" fill="green"/>
   </g>
   <g id="cell30">
  <circle cx="481.58" cy="540.282" r="8.41271" stroke-width="0.5" stroke="black" fill="green"/>
  <circle cx="481.58" cy="540.282" r="5.05167" stroke-width="0.5" stroke="black" fill="green"/>
   </g>
   <g id="cell31">
  <circle cx="412.756" cy="541.192" r="8.41271" stroke-width="0.5" stroke="black" fill="green"/>
  <circle cx="412.756" cy="541.192" r="5.05167" stroke-width="0.5" stroke="black" fill="green"/>
   </g>
   <g id="cell32">
  <circle cx="426.49" cy="473.698" r="8.41271" stroke-width="0.5" stroke="black" fill="green"/>
  <circle cx="426.49" cy="473.698" r="5.05167" stroke-width="0.5" stroke="black" fill="green"/>
   </g>
   <g id="cell33">
  <circle cx="494.538" cy="423.512" r="8.41271" stroke-width="0.5" stroke="black" fill="green"/>
  <circle cx="494.538" cy="423.512" r="5.05167" stroke-width="0.5" stroke="black" fill="green"/>
   </g>
   <g id="cell34">
  <circle cx="397.092" cy="450.834" r="8.41271" stroke-width="0.5" stroke="black" fill="green"/>
  <circle cx="397.092" cy="450.834" r="5.05167" stroke-width="0.5" stroke="black" fill="green"/>
   </g>
   <g id="cell35">
  <circle cx="548.393" cy="544.808" r="8.41271" stroke-width="0.5" stroke="black" fill="green"/>
  <circle cx="548.393" cy="544.808" r="5.05167" stroke-width="0.5" stroke="black" fill="green"/>
   </g>
   <g id="cell36">
  <circle cx="391.389" cy="582.784" r="8.41271" stroke-width="0.5" stroke="black" fill="green"/>
  <circle cx="391.389" cy="582.784" r="5.05167" stroke-width="0.5" stroke="black" fill="green"/>
   </g>
   <g id="cell37">
  <circle cx="634.871" cy="460.618" r="8.41271" stroke-width="0.5" stroke="black" fill="green"/>
  <circle cx="634.871" cy="460.618" r="5.05167" stroke-width="0.5" stroke="black" fill="green"/>
   </g>
   <g id="cell38">
  <circle cx="536.148" cy="601.883" r="8.41271" stroke-width="0.5" stroke="black" fill="green"/>
  <circle cx="536.148" cy="601.883" r="5.05167" stroke-width="0.5" stroke="black" fill="green"/>
   </g>
   <g id="cell39">
  <circle cx="616.811" cy="493.752" r="6.78181" stroke-width="0.5" stroke="black" fill="green"/>
  <circle cx="616.811" cy="493.752" r="4.08714" stroke-width="0.5" stroke="black" fill="green"/>
   </g>
   <g id="cell40">
  <circle cx="485.348" cy="571.779" r="8.41271" stroke-width="0.5" stroke="black" fill="green"/>
  <circle cx="485.348" cy="571.779" r="5.05167" stroke-width="0.5" stroke="black" fill="green"/>
   </g>
   <g id="cell41">
  <circle cx="364.207" cy="479.871" r="8.41271" stroke-width="0.5" stroke="black" fill="green"/>
  <circle cx="364.207" cy="479.871" r="5.05167" stroke-width="0.5" stroke="black" fill="green"/>
   </g>
   <g id="cell42">
  <circle cx="443.533" cy="492.233" r="6.69288" stroke-width="0.5" stroke="black" fill="green"/>
  <circle cx="443.533" cy="492.233" r="4.02051" stroke-width="0.5" stroke="black" fill="green"/>
   </g>
   <g id="cell43">
  <circle cx="558.422" cy="445.713" r="8.41271" stroke-width="0.5" stroke="black" fill="green"/>
  <circle cx="558.422" cy="445.713" r="5.05167" stroke-width="0.5" stroke="black" fill="green"/>
   </g>
   <g id="cell44">
  <circle cx="475.857" cy="624.021" r="8.41271" stroke-width="0.5" stroke="black" fill="green"/>
  <circle cx="475.857" cy="624.021" r="5.05167" stroke-width="0.5" stroke="black" fill="green"/>
   </g>
   <g id="cell45">
  <circle cx="414.953" cy="557.067" r="8.41271" stroke-width="0.5" stroke="black" fill="green"/>
  <circle cx="414.953" cy="557.067" r="5.05167" stroke-width="0.5" stroke="black" fill="green"/>
   </g>
   <g id="cell46">
  <circle cx="522.763" cy="610.72" r="8.41271" stroke-width="0.5" stroke="black" fill="green"/>
  <circle cx="522.763" cy="610.72" r="5.05167" stroke-width="0.5" stroke="black" fill="green"/>
   </g>
   <g id="cell47">
  <circle cx="503.282" cy="507.283" r="8.41271" stroke-width="0.5" stroke="black" fill="green"/>
  <circle cx="503.282" cy="507.283" r="5.05167" stroke-width="0.5" stroke="black" fill="green"/>
   </g>
   <g id="cell48">
  <circle cx="564.512" cy="602.791" r="8.41271" stroke-width="0.5" stroke="black" fill="green"/>
  <circle cx="564.512" cy="602.791" r="5.05167" stroke-width="0.5" stroke="black" fill="green"/>
   </g>
   <g id="cell49">
  <circle cx="429.826" cy="397.641" r="8.41271" stroke-width="0.5" stroke="black" fill="green"/>
  <circle cx="429.826" cy="397.641" r="5.05167" stroke-width="0.5" stroke="black" fill="green"/>
   </g>
   <g id="cell50">
  <circle cx="518.68" cy="515.551" r="8.41271" stroke-width="0.5" stroke="black" fill="cyan"/>
  <circle cx="518.68" cy="515.551" r="5.05167" stroke-width="0.5" stroke="black" fill="cyan"/>
   </g>
   <g id="cell51">
  <circle cx="398.906" cy="597.566" r="8.41271" stroke-width="0.5" stroke="black" fill="cyan"/>
  <circle cx="398.906" cy="597.566" r="5.05167" stroke-width="0.5" stroke="black" fill="cyan"/>
   </g>
   <g id="cell52">
  <circle cx="522.359" cy="428.449" r="8.41271" stroke-width="0.5" stroke="black" fill="cyan"/>
  <circle cx="522.359" cy="428.449" r="5.05167" stroke-width="0.5" stroke="black" fill="cyan"/>
   </g>
   <g id="cell53">
  <circle cx="571.258" cy="436.027" r="8.41271" stroke-width="0.5" stroke="black" fill="cyan"/>
  <circle cx="571.258" cy="436.027" r="5.05167" stroke-width="0.5" stroke="black" fill="cyan"/>
   </g>
   <g id="cell54">
  <circle cx="478.822" cy="426.011" r="8.41271" stroke-width="0.5" stroke="black" fill="cyan"/>
  <circle cx="478.822" cy="426.011" r="5.05167" stroke-width="0.5" stroke="black" fill="cyan"/>
   </g>
   <g id="cell55">
  <circle cx="526.729" cy="469.68" r="8.41271" stroke-width="0.5" stroke="black" fill="cyan"/>
  <circle cx="526.729" cy="469.68" r="5.05167" stroke-width="0.5" stroke="black" fill="cyan"/>
   </g>
   <g id="cell56">
  <circle cx="617.769" cy="522.288" r="8.41271" stroke-width="0.5" stroke="black" fill="cyan"/>
  <circle cx="617.769" cy="522.288" r="5.05167" stroke-width="0.5" stroke="black" fill="cyan"/>
   </g>
   <g id="cell57">
  <circle cx="416.924" cy="617.466" r="8.41271" stroke-width="0.5" stroke="black" fill="cyan"/>
  <circle cx="416.924" cy="617.466" r="5.05167" stroke-width="0.5" stroke="black" fill="cyan"/>
   </g>
   <g id="cell58">
  <circle cx="552.049" cy="479.11" r="8.41271" stroke-width="0.5" stroke="black" fill="cyan"/>
  <circle cx="552.049" cy="479.11" r="5.05167" stroke-width="0.5" stroke="black" fill="cyan"/>
   </g>
   <g id="cell59">
  <circle cx="385.46" cy="439.799" r="8.41271" stroke-width="0.5" stroke="black" fill="cyan"/>
  <circle cx="385.46" cy="439.799" r="5.05167" stroke-width="0.5" stroke="black" fill="cyan"/>
   </g>
   <g id="cell60">
  <circle cx="593.164" cy="473.654" r="8.41271" stroke-width="0.5" stroke="black" fill="cyan"/>
  <circle cx="593.164" cy="473.654" r="5.05167" stroke-width="0.5" stroke="black" fill="cyan"/>
   </g>
   <g id="cell61">
  <circle cx="553.006" cy="613.946" r="8.41271" stroke-width="0.5" stroke="black" fill="cyan"/>
  <circle cx="553.006" cy="613.946" r="5.05167" stroke-width="0.5" stroke="black" fill="cyan"/>
   </g>
   <g id="cell62">
  <circle cx="525.418" cy="444.566" r="8.41271" stroke-width="0.5" stroke="black" fill="cyan"/>
  <circle cx="525.418" cy="444.566" r="5.05167" stroke-width="0.5" stroke="black" fill="cyan"/>
   </g>
   <g id="cell63">
  <circle cx="577.875" cy="546.417" r="8.41271" stroke-width="0.5" stroke="black" fill="cyan"/>
  <circle cx="577.875" cy="546.417" r="5.05167" stroke-width="0.5" stroke="black" fill="cyan"/>
   </g>
   <g id="cell64">
  <circle cx="509.962" cy="636.825" r="8.41271" stroke-width="0.5" stroke="black" fill="cyan"/>
  <circle cx="509.962" cy="636.825" r="5.05167" stroke-width="0.5" stroke="black" fill="cyan"/>
   </g>
   <g id="cell65">
  <circle cx="542.259" cy="466.672" r="8.41271" stroke-width="0.5" stroke="black" fill="cyan"/>
  <circle cx="542.259" cy="466.672" r="5.05167" stroke-width="0.5" stroke="black" fill="cyan"/>
   </g>
   <g id="cell66">
  <circle cx="534.384" cy="529.986" r="8.41271" stroke-width="0.5" stroke="black" fill="cyan"/>
  <circle cx="534.384" cy="529.986" r="5.05167" stroke-width="0.5" stroke="black" fill="cyan"/>
   </g>
   <g id="cell67">
  <circle cx="354.556" cy="492.767" r="8.41271" stroke-width="0.5" stroke="black" fill="cyan"/>
  <circle cx="354.556" cy="492.767" r="5.05167" stroke-width="0.5" stroke="black" fill="cyan"/>
   </g>
   <g id="cell68">
  <circle cx="562.799" cy="551.804" r="8.41271" stroke-width="0.5" stroke="black" fill="cyan"/>
  <circle cx="562.799" cy="551.804" r="5.05167" stroke-width="0.5" stroke="black" fill="cyan"/>
   </g>
   <g id="cell69">
  <circle cx="433.916" cy="460.982" r="7.0545" stroke-width="0.5" stroke="black" fill="cyan"/>
  <circle cx="433.916" cy="460.982" r="4.27772" stroke-width="0.5" stroke="black" fill="cyan"/>
   </g>
   <g id="cell70">
  <circle cx="577.101" cy="475.22" r="8.41271" stroke-width="0.5" stroke="black" fill="cyan"/>
  <circle cx="577.101" cy="475.22" r="5.05167" stroke-width="0.5" stroke="black" fill="cyan"/>
   </g>
   <g id="cell71">
  <circle cx="377.712" cy="520.989" r="8.41271" stroke-width="0.5" stroke="black" fill="cyan"/>
  <circle cx="377.712" cy="520.989" r="5.05167" stroke-width="0.5" stroke="black" fill="cyan"/>
   </g>
   <g id="cell72">
  <circle cx="534.78" cy="514.004" r="8.41271" stroke-width="0.5" stroke="black" fill="cyan"/>
  <circle cx="534.78" cy="514.004" r="5.05167" stroke-width="0.5" stroke="black" fill="cyan"/>
   </g>
   <g id="cell73">
  <circle cx="360.355" cy="545.935" r="8.41271" stroke-width="0.5" stroke="black" fill="cyan"/>
  <circle cx="360.355" cy="545.935" r="5.05167" stroke-width="0.5" stroke="black" fill="cyan"/>
   </g>
   <g id="cell74">
  <circle cx="542.24" cy="446.52" r="8.41271" stroke-width="0.5" stroke="black" fill="cyan"/>
  <circle cx="542.24" cy="446.52" r="5.05167" stroke-width="0.5" stroke="black" fill="cyan"/>
   </g>
   <g id="cell75">
  <circle cx="441.136" cy="472.256" r="7.0545" stroke-width="0.5" stroke="black" fill="cyan"/>
  <circle cx="441.136" cy="472.256" r="4.27772" stroke-width="0.5" stroke="black" fill="cyan"/>
   </g>
   <g id="cell76">
  <circle cx="524.675" cy="386.814" r="7.02257" stroke-width="0.5" stroke="black" fill="magenta"/>
  <circle cx="524.675" cy="386.814" r="4.25644" stroke-width="0.5" stroke="black" fill="magenta"/>
   </g>
   <g id="cell77">
  <circle cx="488.83" cy="436.499" r="6.95901" stroke-width="0.5" stroke="black" fill="magenta"/>
  <circle cx="488.83" cy="436.499" r="4.21341" stroke-width="0.5" stroke="black" fill="magenta"/>
   </g>
   <g id="cell78">
  <circle cx="374.503" cy="470.036" r="6.89675" stroke-width="0.5" stroke="black" fill="magenta"/>
  <circle cx="374.503" cy="470.036" r="4.17024" stroke-width="0.5" stroke="black" fill="magenta"/>
   </g>
   <g id="cell79">
  <circle cx="506.886" cy="529.555" r="6.83713" stroke-width="0.5" stroke="black" fill="magenta"/>
  <circle cx="506.886" cy="529.555" r="4.12773" stroke-width="0.5" stroke="black" fill="magenta"/>
   </g>
   <g id="cell80">
  <circle cx="607.435" cy="484.927" r="6.78181" stroke-width="0.5" stroke="black" fill="green"/>
  <circle cx="607.435" cy="484.927" r="4.08714" stroke-width="0.5" stroke="black" fill="green"/>
   </g>
   <g id="cell81">
  <circle cx="432.096" cy="497.194" r="6.69288" stroke-width="0.5" stroke="black" fill="green"/>
  <circle cx="432.096" cy="497.194" r="4.02051" stroke-width="0.5" stroke="black" fill="green"/>
   </g>
  </g>
 </g>
  <rect x="775" y="1035" width="200" height="10" stroke-width="2" stroke="rgb(255,255,255)" fill="rgb(0,0,0)"/>
  <text x="781.25" y="1028.75"
   font-family="Arial" font-size="25" fill="black" >
   200 &#956;m
  </text>
  <text x="25" y="1045"
   font-family="Arial" font-size="18.75" fill="black" >
   0 days, 0 hours, 0 minutes, and 2.0959 seconds
  </text>
  <rect x="0" y="70" width="1000" height="1000" stroke-width="2" stroke="rgb(0,0,0)" fill="none"/>
</svg>
