<?xml version="1.0" encoding="UTF-8" standalone="no"?>
<!-- Created with PhysiCell (http://PhysiCell.MathCancer.org/) -->
<svg 
 xmlns:dc="http://purl.org/dc/elements/1.1/" 
 xmlns:cc="http://creativecommons.org/ns#" 
 xmlns:rdf="http://www.w3.org/1999/02/22-rdf-syntax-ns#" 
 xmlns:svg="http://www.w3.org/2000/svg" 
 xmlns="http://www.w3.org/2000/svg" 
 version="1.1" 
 width="1000" 
 height="1070" 
 id="svg2">
  <rect x="0" y="0" width="1000" height="1070" stroke-width="2" stroke="white" fill="white"/>
  <text x="12.5" y="30"
   font-family="Arial" font-size="25" fill="black" >
   Current time: 1 days, 14 hours, and 0.00 minutes, z = 0.00 &#956;m
  </text>
  <text x="12.5" y="57.5"
   font-family="Arial" font-size="23.75" fill="black" >
   207 agents
  </text>
 <g id="tissue" 
    transform="translate(0,1070) scale(1,-1)">
  <g id="ECM">
  </g>
  <g id="cells">
   <g id="cell0">
  <circle cx="510.717" cy="534.204" r="8.41265" stroke-width="0.5" stroke="black" fill="magenta"/>
  <circle cx="510.717" cy="534.204" r="5.05166" stroke-width="0.5" stroke="black" fill="magenta"/>
   </g>
   <g id="cell147">
  <circle cx="422.271" cy="577.37" r="8.38184" stroke-width="0.5" stroke="black" fill="green"/>
  <circle cx="422.271" cy="577.37" r="5.04064" stroke-width="0.5" stroke="black" fill="green"/>
   </g>
   <g id="cell2">
  <circle cx="503.708" cy="592.677" r="8.40427" stroke-width="0.5" stroke="black" fill="magenta"/>
  <circle cx="503.708" cy="592.677" r="5.04906" stroke-width="0.5" stroke="black" fill="magenta"/>
   </g>
   <g id="cell3">
  <circle cx="538.711" cy="545.557" r="8.40154" stroke-width="0.5" stroke="black" fill="magenta"/>
  <circle cx="538.711" cy="545.557" r="5.04811" stroke-width="0.5" stroke="black" fill="magenta"/>
   </g>
   <g id="cell4">
  <circle cx="451.921" cy="429.84" r="8.41266" stroke-width="0.5" stroke="black" fill="magenta"/>
  <circle cx="451.921" cy="429.84" r="5.05166" stroke-width="0.5" stroke="black" fill="magenta"/>
   </g>
   <g id="cell5">
  <circle cx="464.888" cy="498.69" r="8.38682" stroke-width="0.5" stroke="black" fill="magenta"/>
  <circle cx="464.888" cy="498.69" r="5.04258" stroke-width="0.5" stroke="black" fill="magenta"/>
   </g>
   <g id="cell6">
  <circle cx="594.335" cy="515.407" r="8.41252" stroke-width="0.5" stroke="black" fill="magenta"/>
  <circle cx="594.335" cy="515.407" r="5.05163" stroke-width="0.5" stroke="black" fill="magenta"/>
   </g>
   <g id="cell7">
  <circle cx="511.745" cy="460.242" r="8.41271" stroke-width="0.5" stroke="black" fill="magenta"/>
  <circle cx="511.745" cy="460.242" r="5.05167" stroke-width="0.5" stroke="black" fill="magenta"/>
   </g>
   <g id="cell8">
  <circle cx="359.905" cy="545.561" r="7.10107" stroke-width="0.5" stroke="black" fill="magenta"/>
  <circle cx="359.905" cy="545.561" r="4.31327" stroke-width="0.5" stroke="black" fill="magenta"/>
   </g>
   <g id="cell9">
  <circle cx="461.697" cy="601.58" r="8.41251" stroke-width="0.5" stroke="black" fill="magenta"/>
  <circle cx="461.697" cy="601.58" r="5.05163" stroke-width="0.5" stroke="black" fill="magenta"/>
   </g>
   <g id="cell10">
  <circle cx="588.317" cy="395.671" r="8.38857" stroke-width="0.5" stroke="black" fill="magenta"/>
  <circle cx="588.317" cy="395.671" r="5.04352" stroke-width="0.5" stroke="black" fill="magenta"/>
   </g>
   <g id="cell11">
  <circle cx="589.748" cy="590.273" r="8.41271" stroke-width="0.5" stroke="black" fill="magenta"/>
  <circle cx="589.748" cy="590.273" r="5.05167" stroke-width="0.5" stroke="black" fill="magenta"/>
   </g>
   <g id="cell12">
  <circle cx="495.849" cy="579.852" r="8.41271" stroke-width="0.5" stroke="black" fill="magenta"/>
  <circle cx="495.849" cy="579.852" r="5.05167" stroke-width="0.5" stroke="black" fill="magenta"/>
   </g>
   <g id="cell13">
  <circle cx="379.996" cy="558.365" r="8.40986" stroke-width="0.5" stroke="black" fill="magenta"/>
  <circle cx="379.996" cy="558.365" r="5.05089" stroke-width="0.5" stroke="black" fill="magenta"/>
   </g>
   <g id="cell14">
  <circle cx="529.912" cy="395.564" r="8.29912" stroke-width="0.5" stroke="black" fill="magenta"/>
  <circle cx="529.912" cy="395.564" r="5.0046" stroke-width="0.5" stroke="black" fill="magenta"/>
   </g>
   <g id="cell15">
  <circle cx="381.622" cy="489.426" r="7.47216" stroke-width="0.5" stroke="black" fill="magenta"/>
  <circle cx="381.622" cy="489.426" r="4.55154" stroke-width="0.5" stroke="black" fill="magenta"/>
   </g>
   <g id="cell16">
  <circle cx="427.471" cy="417.472" r="8.41271" stroke-width="0.5" stroke="black" fill="magenta"/>
  <circle cx="427.471" cy="417.472" r="5.05167" stroke-width="0.5" stroke="black" fill="magenta"/>
   </g>
   <g id="cell17">
  <circle cx="578.527" cy="484.734" r="8.41228" stroke-width="0.5" stroke="black" fill="magenta"/>
  <circle cx="578.527" cy="484.734" r="5.05157" stroke-width="0.5" stroke="black" fill="magenta"/>
   </g>
   <g id="cell18">
  <circle cx="515.043" cy="392.63" r="8.41266" stroke-width="0.5" stroke="black" fill="magenta"/>
  <circle cx="515.043" cy="392.63" r="5.05166" stroke-width="0.5" stroke="black" fill="magenta"/>
   </g>
   <g id="cell19">
  <circle cx="455.356" cy="541.638" r="8.41244" stroke-width="0.5" stroke="black" fill="magenta"/>
  <circle cx="455.356" cy="541.638" r="5.05161" stroke-width="0.5" stroke="black" fill="magenta"/>
   </g>
   <g id="cell20">
  <circle cx="524.795" cy="420.985" r="8.41271" stroke-width="0.5" stroke="black" fill="magenta"/>
  <circle cx="524.795" cy="420.985" r="5.05167" stroke-width="0.5" stroke="black" fill="magenta"/>
   </g>
   <g id="cell141">
  <circle cx="493.901" cy="439.402" r="8.08637" stroke-width="0.5" stroke="black" fill="magenta"/>
  <circle cx="493.901" cy="439.402" r="4.90325" stroke-width="0.5" stroke="black" fill="magenta"/>
   </g>
   <g id="cell22">
  <circle cx="558.452" cy="496.912" r="8.41234" stroke-width="0.5" stroke="black" fill="magenta"/>
  <circle cx="558.452" cy="496.912" r="5.05159" stroke-width="0.5" stroke="black" fill="magenta"/>
   </g>
   <g id="cell23">
  <circle cx="534.066" cy="486.377" r="8.41271" stroke-width="0.5" stroke="black" fill="magenta"/>
  <circle cx="534.066" cy="486.377" r="5.05167" stroke-width="0.5" stroke="black" fill="magenta"/>
   </g>
   <g id="cell24">
  <circle cx="566.801" cy="380.743" r="8.41271" stroke-width="0.5" stroke="black" fill="magenta"/>
  <circle cx="566.801" cy="380.743" r="5.05167" stroke-width="0.5" stroke="black" fill="magenta"/>
   </g>
   <g id="cell25">
  <circle cx="653.932" cy="564.95" r="8.36386" stroke-width="0.5" stroke="black" fill="green"/>
  <circle cx="653.932" cy="564.95" r="5.03329" stroke-width="0.5" stroke="black" fill="green"/>
   </g>
   <g id="cell26">
  <circle cx="545.772" cy="398.726" r="8.41271" stroke-width="0.5" stroke="black" fill="green"/>
  <circle cx="545.772" cy="398.726" r="5.05167" stroke-width="0.5" stroke="black" fill="green"/>
   </g>
   <g id="cell27">
  <circle cx="453.091" cy="387.869" r="1.97071" stroke-width="0.5" stroke="black" fill="green"/>
  <circle cx="453.091" cy="387.869" r="1.86773" stroke-width="0.5" stroke="black" fill="black"/>
   </g>
   <g id="cell28">
  <circle cx="444.222" cy="552.202" r="8.41271" stroke-width="0.5" stroke="black" fill="green"/>
  <circle cx="444.222" cy="552.202" r="5.05167" stroke-width="0.5" stroke="black" fill="green"/>
   </g>
   <g id="cell29">
  <circle cx="466.283" cy="516.933" r="8.41099" stroke-width="0.5" stroke="black" fill="green"/>
  <circle cx="466.283" cy="516.933" r="5.05123" stroke-width="0.5" stroke="black" fill="green"/>
   </g>
   <g id="cell30">
  <circle cx="482.237" cy="538.203" r="8.41271" stroke-width="0.5" stroke="black" fill="green"/>
  <circle cx="482.237" cy="538.203" r="5.05167" stroke-width="0.5" stroke="black" fill="green"/>
   </g>
   <g id="cell31">
  <circle cx="407.127" cy="531.607" r="8.03527" stroke-width="0.5" stroke="black" fill="green"/>
  <circle cx="407.127" cy="531.607" r="4.86813" stroke-width="0.5" stroke="black" fill="green"/>
   </g>
   <g id="cell32">
  <circle cx="424.727" cy="453.619" r="8.33903" stroke-width="0.5" stroke="black" fill="green"/>
  <circle cx="424.727" cy="453.619" r="5.02234" stroke-width="0.5" stroke="black" fill="green"/>
   </g>
   <g id="cell33">
  <circle cx="498.499" cy="413.07" r="8.41258" stroke-width="0.5" stroke="black" fill="green"/>
  <circle cx="498.499" cy="413.07" r="5.05164" stroke-width="0.5" stroke="black" fill="green"/>
   </g>
   <g id="cell34">
  <circle cx="391.635" cy="454.668" r="8.41255" stroke-width="0.5" stroke="black" fill="green"/>
  <circle cx="391.635" cy="454.668" r="5.05164" stroke-width="0.5" stroke="black" fill="green"/>
   </g>
   <g id="cell35">
  <circle cx="547.486" cy="558.155" r="8.41206" stroke-width="0.5" stroke="black" fill="green"/>
  <circle cx="547.486" cy="558.155" r="5.05151" stroke-width="0.5" stroke="black" fill="green"/>
   </g>
   <g id="cell36">
  <circle cx="392.232" cy="582.35" r="8.40934" stroke-width="0.5" stroke="black" fill="green"/>
  <circle cx="392.232" cy="582.35" r="5.05073" stroke-width="0.5" stroke="black" fill="green"/>
   </g>
   <g id="cell174">
  <circle cx="478.724" cy="619.101" r="8.25816" stroke-width="0.5" stroke="black" fill="green"/>
  <circle cx="478.724" cy="619.101" r="4.98427" stroke-width="0.5" stroke="black" fill="green"/>
   </g>
   <g id="cell38">
  <circle cx="525.827" cy="606.154" r="8.41245" stroke-width="0.5" stroke="black" fill="green"/>
  <circle cx="525.827" cy="606.154" r="5.05161" stroke-width="0.5" stroke="black" fill="green"/>
   </g>
   <g id="cell39">
  <circle cx="619.095" cy="500.396" r="8.28626" stroke-width="0.5" stroke="black" fill="green"/>
  <circle cx="619.095" cy="500.396" r="4.99785" stroke-width="0.5" stroke="black" fill="green"/>
   </g>
   <g id="cell40">
  <circle cx="483.57" cy="570.243" r="8.41271" stroke-width="0.5" stroke="black" fill="green"/>
  <circle cx="483.57" cy="570.243" r="5.05167" stroke-width="0.5" stroke="black" fill="green"/>
   </g>
   <g id="cell41">
  <circle cx="361.088" cy="481.843" r="8.41271" stroke-width="0.5" stroke="black" fill="green"/>
  <circle cx="361.088" cy="481.843" r="5.05167" stroke-width="0.5" stroke="black" fill="green"/>
   </g>
   <g id="cell176">
  <circle cx="470.436" cy="446.606" r="8.12822" stroke-width="0.5" stroke="black" fill="magenta"/>
  <circle cx="470.436" cy="446.606" r="4.9248" stroke-width="0.5" stroke="black" fill="magenta"/>
   </g>
   <g id="cell43">
  <circle cx="558.191" cy="445.615" r="8.41271" stroke-width="0.5" stroke="black" fill="green"/>
  <circle cx="558.191" cy="445.615" r="5.05167" stroke-width="0.5" stroke="black" fill="green"/>
   </g>
   <g id="cell44">
  <circle cx="488.995" cy="631.242" r="8.36963" stroke-width="0.5" stroke="black" fill="green"/>
  <circle cx="488.995" cy="631.242" r="5.03561" stroke-width="0.5" stroke="black" fill="green"/>
   </g>
   <g id="cell45">
  <circle cx="434.826" cy="564.776" r="8.25532" stroke-width="0.5" stroke="black" fill="green"/>
  <circle cx="434.826" cy="564.776" r="4.98742" stroke-width="0.5" stroke="black" fill="green"/>
   </g>
   <g id="cell46">
  <circle cx="519.284" cy="620.706" r="8.3945" stroke-width="0.5" stroke="black" fill="green"/>
  <circle cx="519.284" cy="620.706" r="5.04566" stroke-width="0.5" stroke="black" fill="green"/>
   </g>
   <g id="cell47">
  <circle cx="494.463" cy="512.809" r="8.41271" stroke-width="0.5" stroke="black" fill="green"/>
  <circle cx="494.463" cy="512.809" r="5.05167" stroke-width="0.5" stroke="black" fill="green"/>
   </g>
   <g id="cell48">
  <circle cx="566.629" cy="604.34" r="8.41271" stroke-width="0.5" stroke="black" fill="green"/>
  <circle cx="566.629" cy="604.34" r="5.05167" stroke-width="0.5" stroke="black" fill="green"/>
   </g>
   <g id="cell49">
  <circle cx="439.082" cy="384.683" r="4.5516" stroke-width="0.5" stroke="black" fill="green"/>
  <circle cx="439.082" cy="384.683" r="2.92365" stroke-width="0.5" stroke="black" fill="black"/>
   </g>
   <g id="cell50">
  <circle cx="507.678" cy="489.649" r="7.74814" stroke-width="0.5" stroke="black" fill="cyan"/>
  <circle cx="507.678" cy="489.649" r="4.7202" stroke-width="0.5" stroke="black" fill="cyan"/>
   </g>
   <g id="cell51">
  <circle cx="385.365" cy="603.518" r="8.37505" stroke-width="0.5" stroke="black" fill="cyan"/>
  <circle cx="385.365" cy="603.518" r="5.03812" stroke-width="0.5" stroke="black" fill="cyan"/>
   </g>
   <g id="cell120">
  <circle cx="418.344" cy="610.567" r="8.41023" stroke-width="0.5" stroke="black" fill="cyan"/>
  <circle cx="418.344" cy="610.567" r="5.051" stroke-width="0.5" stroke="black" fill="cyan"/>
   </g>
   <g id="cell53">
  <circle cx="571.109" cy="436.134" r="8.41271" stroke-width="0.5" stroke="black" fill="cyan"/>
  <circle cx="571.109" cy="436.134" r="5.05167" stroke-width="0.5" stroke="black" fill="cyan"/>
   </g>
   <g id="cell54">
  <circle cx="488.3" cy="424.874" r="8.38206" stroke-width="0.5" stroke="black" fill="cyan"/>
  <circle cx="488.3" cy="424.874" r="5.04069" stroke-width="0.5" stroke="black" fill="cyan"/>
   </g>
   <g id="cell55">
  <circle cx="520.386" cy="484.995" r="6.83713" stroke-width="0.5" stroke="black" fill="cyan"/>
  <circle cx="520.386" cy="484.995" r="4.12773" stroke-width="0.5" stroke="black" fill="cyan"/>
   </g>
   <g id="cell56">
  <circle cx="622.509" cy="519.288" r="7.77169" stroke-width="0.5" stroke="black" fill="cyan"/>
  <circle cx="622.509" cy="519.288" r="4.73628" stroke-width="0.5" stroke="black" fill="cyan"/>
   </g>
   <g id="cell57">
  <circle cx="418.484" cy="626.59" r="8.41023" stroke-width="0.5" stroke="black" fill="cyan"/>
  <circle cx="418.484" cy="626.59" r="5.051" stroke-width="0.5" stroke="black" fill="cyan"/>
   </g>
   <g id="cell58">
  <circle cx="548.952" cy="484.223" r="8.41271" stroke-width="0.5" stroke="black" fill="cyan"/>
  <circle cx="548.952" cy="484.223" r="5.05167" stroke-width="0.5" stroke="black" fill="cyan"/>
   </g>
   <g id="cell59">
  <circle cx="385.483" cy="439.887" r="8.41271" stroke-width="0.5" stroke="black" fill="cyan"/>
  <circle cx="385.483" cy="439.887" r="5.05167" stroke-width="0.5" stroke="black" fill="cyan"/>
   </g>
   <g id="cell60">
  <circle cx="603.075" cy="467.456" r="7.90682" stroke-width="0.5" stroke="black" fill="cyan"/>
  <circle cx="603.075" cy="467.456" r="4.79741" stroke-width="0.5" stroke="black" fill="cyan"/>
   </g>
   <g id="cell155">
  <circle cx="518.801" cy="592.48" r="8.34179" stroke-width="0.5" stroke="black" fill="magenta"/>
  <circle cx="518.801" cy="592.48" r="5.02502" stroke-width="0.5" stroke="black" fill="magenta"/>
   </g>
   <g id="cell62">
  <circle cx="522.768" cy="436.361" r="8.41271" stroke-width="0.5" stroke="black" fill="cyan"/>
  <circle cx="522.768" cy="436.361" r="5.05167" stroke-width="0.5" stroke="black" fill="cyan"/>
   </g>
   <g id="cell63">
  <circle cx="582.135" cy="556.501" r="8.41245" stroke-width="0.5" stroke="black" fill="cyan"/>
  <circle cx="582.135" cy="556.501" r="5.05161" stroke-width="0.5" stroke="black" fill="cyan"/>
   </g>
   <g id="cell64">
  <circle cx="509.925" cy="633.645" r="8.40944" stroke-width="0.5" stroke="black" fill="cyan"/>
  <circle cx="509.925" cy="633.645" r="5.05076" stroke-width="0.5" stroke="black" fill="cyan"/>
   </g>
   <g id="cell65">
  <circle cx="534.311" cy="447.208" r="8.32529" stroke-width="0.5" stroke="black" fill="cyan"/>
  <circle cx="534.311" cy="447.208" r="5.01614" stroke-width="0.5" stroke="black" fill="cyan"/>
   </g>
   <g id="cell66">
  <circle cx="550.794" cy="521.16" r="8.41036" stroke-width="0.5" stroke="black" fill="cyan"/>
  <circle cx="550.794" cy="521.16" r="5.05104" stroke-width="0.5" stroke="black" fill="cyan"/>
   </g>
   <g id="cell67">
  <circle cx="353.088" cy="495.623" r="8.41271" stroke-width="0.5" stroke="black" fill="cyan"/>
  <circle cx="353.088" cy="495.623" r="5.05167" stroke-width="0.5" stroke="black" fill="cyan"/>
   </g>
   <g id="cell68">
  <circle cx="567.117" cy="554.196" r="7.61469" stroke-width="0.5" stroke="black" fill="cyan"/>
  <circle cx="567.117" cy="554.196" r="4.62762" stroke-width="0.5" stroke="black" fill="cyan"/>
   </g>
   <g id="cell69">
  <circle cx="440.601" cy="440.208" r="8.41266" stroke-width="0.5" stroke="black" fill="cyan"/>
  <circle cx="440.601" cy="440.208" r="5.05166" stroke-width="0.5" stroke="black" fill="cyan"/>
   </g>
   <g id="cell70">
  <circle cx="574.162" cy="469.596" r="8.40327" stroke-width="0.5" stroke="black" fill="cyan"/>
  <circle cx="574.162" cy="469.596" r="5.04872" stroke-width="0.5" stroke="black" fill="cyan"/>
   </g>
   <g id="cell71">
  <circle cx="380.718" cy="528.329" r="3.34374" stroke-width="0.5" stroke="black" fill="cyan"/>
  <circle cx="380.718" cy="528.329" r="2.61348" stroke-width="0.5" stroke="black" fill="black"/>
   </g>
   <g id="cell72">
  <circle cx="537.141" cy="513.078" r="8.41271" stroke-width="0.5" stroke="black" fill="cyan"/>
  <circle cx="537.141" cy="513.078" r="5.05167" stroke-width="0.5" stroke="black" fill="cyan"/>
   </g>
   <g id="cell129">
  <circle cx="414.309" cy="405.999" r="8.40731" stroke-width="0.5" stroke="black" fill="green"/>
  <circle cx="414.309" cy="405.999" r="5.05008" stroke-width="0.5" stroke="black" fill="green"/>
   </g>
   <g id="cell74">
  <circle cx="542.357" cy="443.176" r="1.22129" stroke-width="0.5" stroke="black" fill="cyan"/>
  <circle cx="542.357" cy="443.176" r="1.21615" stroke-width="0.5" stroke="black" fill="black"/>
   </g>
   <g id="cell75">
  <circle cx="443.776" cy="483.653" r="7.8837" stroke-width="0.5" stroke="black" fill="cyan"/>
  <circle cx="443.776" cy="483.653" r="4.80034" stroke-width="0.5" stroke="black" fill="cyan"/>
   </g>
   <g id="cell76">
  <circle cx="510.758" cy="378.462" r="8.04586" stroke-width="0.5" stroke="black" fill="magenta"/>
  <circle cx="510.758" cy="378.462" r="4.87395" stroke-width="0.5" stroke="black" fill="magenta"/>
   </g>
   <g id="cell77">
  <circle cx="503.463" cy="428.094" r="8.39128" stroke-width="0.5" stroke="black" fill="magenta"/>
  <circle cx="503.463" cy="428.094" r="5.0444" stroke-width="0.5" stroke="black" fill="magenta"/>
   </g>
   <g id="cell78">
  <circle cx="372.586" cy="457.125" r="7.35987" stroke-width="0.5" stroke="black" fill="magenta"/>
  <circle cx="372.586" cy="457.125" r="4.47293" stroke-width="0.5" stroke="black" fill="magenta"/>
   </g>
   <g id="cell79">
  <circle cx="496.477" cy="528.474" r="8.41265" stroke-width="0.5" stroke="black" fill="magenta"/>
  <circle cx="496.477" cy="528.474" r="5.05166" stroke-width="0.5" stroke="black" fill="magenta"/>
   </g>
   <g id="cell80">
  <circle cx="614.582" cy="487.106" r="6.94624" stroke-width="0.5" stroke="black" fill="green"/>
  <circle cx="614.582" cy="487.106" r="4.22386" stroke-width="0.5" stroke="black" fill="green"/>
   </g>
   <g id="cell81">
  <circle cx="426.349" cy="507.531" r="8.408" stroke-width="0.5" stroke="black" fill="green"/>
  <circle cx="426.349" cy="507.531" r="5.05034" stroke-width="0.5" stroke="black" fill="green"/>
   </g>
   <g id="cell82">
  <circle cx="543.26" cy="498.585" r="8.41263" stroke-width="0.5" stroke="black" fill="magenta"/>
  <circle cx="543.26" cy="498.585" r="5.05166" stroke-width="0.5" stroke="black" fill="magenta"/>
   </g>
   <g id="cell130">
  <circle cx="573.251" cy="394.438" r="8.407" stroke-width="0.5" stroke="black" fill="magenta"/>
  <circle cx="573.251" cy="394.438" r="5.04998" stroke-width="0.5" stroke="black" fill="magenta"/>
   </g>
   <g id="cell84">
  <circle cx="404.039" cy="484.207" r="8.41136" stroke-width="0.5" stroke="black" fill="green"/>
  <circle cx="404.039" cy="484.207" r="5.05133" stroke-width="0.5" stroke="black" fill="green"/>
   </g>
   <g id="cell140">
  <circle cx="526.34" cy="579.74" r="8.38527" stroke-width="0.5" stroke="black" fill="magenta"/>
  <circle cx="526.34" cy="579.74" r="5.04256" stroke-width="0.5" stroke="black" fill="magenta"/>
   </g>
   <g id="cell86">
  <circle cx="392.48" cy="566.957" r="8.41146" stroke-width="0.5" stroke="black" fill="magenta"/>
  <circle cx="392.48" cy="566.957" r="5.05136" stroke-width="0.5" stroke="black" fill="magenta"/>
   </g>
   <g id="cell87">
  <circle cx="433.522" cy="522.272" r="8.371" stroke-width="0.5" stroke="black" fill="green"/>
  <circle cx="433.522" cy="522.272" r="5.03633" stroke-width="0.5" stroke="black" fill="green"/>
   </g>
   <g id="cell88">
  <circle cx="475.893" cy="604.648" r="7.31653" stroke-width="0.5" stroke="black" fill="green"/>
  <circle cx="475.893" cy="604.648" r="4.4631" stroke-width="0.5" stroke="black" fill="green"/>
   </g>
   <g id="cell89">
  <circle cx="430.476" cy="491.961" r="8.4121" stroke-width="0.5" stroke="black" fill="green"/>
  <circle cx="430.476" cy="491.961" r="5.05153" stroke-width="0.5" stroke="black" fill="green"/>
   </g>
   <g id="cell90">
  <circle cx="578.206" cy="513.28" r="8.36168" stroke-width="0.5" stroke="black" fill="magenta"/>
  <circle cx="578.206" cy="513.28" r="5.03225" stroke-width="0.5" stroke="black" fill="magenta"/>
   </g>
   <g id="cell136">
  <circle cx="524.874" cy="539.809" r="8.40154" stroke-width="0.5" stroke="black" fill="magenta"/>
  <circle cx="524.874" cy="539.809" r="5.04811" stroke-width="0.5" stroke="black" fill="magenta"/>
   </g>
   <g id="cell92">
  <circle cx="560.937" cy="589.308" r="8.4113" stroke-width="0.5" stroke="black" fill="green"/>
  <circle cx="560.937" cy="589.308" r="5.05132" stroke-width="0.5" stroke="black" fill="green"/>
   </g>
   <g id="cell93">
  <circle cx="579.649" cy="527.95" r="7.85882" stroke-width="0.5" stroke="black" fill="cyan"/>
  <circle cx="579.649" cy="527.95" r="4.77081" stroke-width="0.5" stroke="black" fill="cyan"/>
   </g>
   <g id="cell94">
  <circle cx="539.406" cy="471.48" r="8.41244" stroke-width="0.5" stroke="black" fill="cyan"/>
  <circle cx="539.406" cy="471.48" r="5.05161" stroke-width="0.5" stroke="black" fill="cyan"/>
   </g>
   <g id="cell95">
  <circle cx="467.535" cy="532.619" r="8.41244" stroke-width="0.5" stroke="black" fill="magenta"/>
  <circle cx="467.535" cy="532.619" r="5.05161" stroke-width="0.5" stroke="black" fill="magenta"/>
   </g>
   <g id="cell96">
  <circle cx="539.642" cy="384.297" r="8.41238" stroke-width="0.5" stroke="black" fill="magenta"/>
  <circle cx="539.642" cy="384.297" r="5.0516" stroke-width="0.5" stroke="black" fill="magenta"/>
   </g>
   <g id="cell97">
  <circle cx="564.713" cy="509.761" r="6.44015" stroke-width="0.5" stroke="black" fill="magenta"/>
  <circle cx="564.713" cy="509.761" r="3.99677" stroke-width="0.5" stroke="black" fill="black"/>
   </g>
   <g id="cell98">
  <circle cx="406.351" cy="574.229" r="8.38184" stroke-width="0.5" stroke="black" fill="green"/>
  <circle cx="406.351" cy="574.229" r="5.04064" stroke-width="0.5" stroke="black" fill="green"/>
   </g>
   <g id="cell99">
  <circle cx="573.245" cy="499.049" r="8.41228" stroke-width="0.5" stroke="black" fill="magenta"/>
  <circle cx="573.245" cy="499.049" r="5.05157" stroke-width="0.5" stroke="black" fill="magenta"/>
   </g>
   <g id="cell100">
  <circle cx="569.272" cy="539.255" r="8.41213" stroke-width="0.5" stroke="black" fill="cyan"/>
  <circle cx="569.272" cy="539.255" r="5.05154" stroke-width="0.5" stroke="black" fill="cyan"/>
   </g>
   <g id="cell101">
  <circle cx="459.001" cy="628.827" r="7.89305" stroke-width="0.5" stroke="black" fill="magenta"/>
  <circle cx="459.001" cy="628.827" r="4.78939" stroke-width="0.5" stroke="black" fill="magenta"/>
   </g>
   <g id="cell102">
  <circle cx="445.858" cy="512.893" r="8.4121" stroke-width="0.5" stroke="black" fill="green"/>
  <circle cx="445.858" cy="512.893" r="5.05153" stroke-width="0.5" stroke="black" fill="green"/>
   </g>
   <g id="cell103">
  <circle cx="558.404" cy="617.794" r="8.26224" stroke-width="0.5" stroke="black" fill="green"/>
  <circle cx="558.404" cy="617.794" r="4.98633" stroke-width="0.5" stroke="black" fill="green"/>
   </g>
   <g id="cell104">
  <circle cx="553.217" cy="539.921" r="8.41206" stroke-width="0.5" stroke="black" fill="green"/>
  <circle cx="553.217" cy="539.921" r="5.05151" stroke-width="0.5" stroke="black" fill="green"/>
   </g>
   <g id="cell105">
  <circle cx="415.247" cy="495.171" r="8.41194" stroke-width="0.5" stroke="black" fill="green"/>
  <circle cx="415.247" cy="495.171" r="5.05149" stroke-width="0.5" stroke="black" fill="green"/>
   </g>
   <g id="cell106">
  <circle cx="650.31" cy="529.52" r="8.19431" stroke-width="0.5" stroke="black" fill="green"/>
  <circle cx="650.31" cy="529.52" r="4.95237" stroke-width="0.5" stroke="black" fill="green"/>
   </g>
   <g id="cell107">
  <circle cx="383.277" cy="511.309" r="8.41177" stroke-width="0.5" stroke="black" fill="cyan"/>
  <circle cx="383.277" cy="511.309" r="5.05144" stroke-width="0.5" stroke="black" fill="cyan"/>
   </g>
   <g id="cell108">
  <circle cx="460.928" cy="643.365" r="8.41151" stroke-width="0.5" stroke="black" fill="magenta"/>
  <circle cx="460.928" cy="643.365" r="5.05138" stroke-width="0.5" stroke="black" fill="magenta"/>
   </g>
   <g id="cell109">
  <circle cx="447.04" cy="637.329" r="8.41151" stroke-width="0.5" stroke="black" fill="magenta"/>
  <circle cx="447.04" cy="637.329" r="5.05138" stroke-width="0.5" stroke="black" fill="magenta"/>
   </g>
   <g id="cell110">
  <circle cx="538.232" cy="570.524" r="8.0659" stroke-width="0.5" stroke="black" fill="green"/>
  <circle cx="538.232" cy="570.524" r="4.88495" stroke-width="0.5" stroke="black" fill="green"/>
   </g>
   <g id="cell111">
  <circle cx="627.987" cy="558.932" r="8.4113" stroke-width="0.5" stroke="black" fill="green"/>
  <circle cx="627.987" cy="558.932" r="5.05132" stroke-width="0.5" stroke="black" fill="green"/>
   </g>
   <g id="cell112">
  <circle cx="379.009" cy="573.628" r="8.41146" stroke-width="0.5" stroke="black" fill="magenta"/>
  <circle cx="379.009" cy="573.628" r="5.05136" stroke-width="0.5" stroke="black" fill="magenta"/>
   </g>
   <g id="cell113">
  <circle cx="418.308" cy="479.323" r="8.41136" stroke-width="0.5" stroke="black" fill="green"/>
  <circle cx="418.308" cy="479.323" r="5.05133" stroke-width="0.5" stroke="black" fill="green"/>
   </g>
   <g id="cell114">
  <circle cx="498.427" cy="453.605" r="8.40482" stroke-width="0.5" stroke="black" fill="magenta"/>
  <circle cx="498.427" cy="453.605" r="5.04931" stroke-width="0.5" stroke="black" fill="magenta"/>
   </g>
   <g id="cell115">
  <circle cx="453.255" cy="526.473" r="8.41099" stroke-width="0.5" stroke="black" fill="green"/>
  <circle cx="453.255" cy="526.473" r="5.05123" stroke-width="0.5" stroke="black" fill="green"/>
   </g>
   <g id="cell116">
  <circle cx="368.343" cy="516.999" r="8.41046" stroke-width="0.5" stroke="black" fill="cyan"/>
  <circle cx="368.343" cy="516.999" r="5.05109" stroke-width="0.5" stroke="black" fill="cyan"/>
   </g>
   <g id="cell173">
  <circle cx="540.316" cy="610.5" r="7.95344" stroke-width="0.5" stroke="black" fill="green"/>
  <circle cx="540.316" cy="610.5" r="4.83236" stroke-width="0.5" stroke="black" fill="green"/>
   </g>
   <g id="cell118">
  <circle cx="523.138" cy="524.718" r="8.26976" stroke-width="0.5" stroke="black" fill="cyan"/>
  <circle cx="523.138" cy="524.718" r="4.99015" stroke-width="0.5" stroke="black" fill="cyan"/>
   </g>
   <g id="cell119">
  <circle cx="524.131" cy="640.965" r="8.389" stroke-width="0.5" stroke="black" fill="green"/>
  <circle cx="524.131" cy="640.965" r="5.04357" stroke-width="0.5" stroke="black" fill="green"/>
   </g>
   <g id="cell121">
  <circle cx="392.543" cy="553.105" r="7.05247" stroke-width="0.5" stroke="black" fill="magenta"/>
  <circle cx="392.543" cy="553.105" r="4.27711" stroke-width="0.5" stroke="black" fill="magenta"/>
   </g>
   <g id="cell122">
  <circle cx="614.821" cy="457.689" r="8.31612" stroke-width="0.5" stroke="black" fill="cyan"/>
  <circle cx="614.821" cy="457.689" r="5.01217" stroke-width="0.5" stroke="black" fill="cyan"/>
   </g>
   <g id="cell123">
  <circle cx="498.229" cy="644.533" r="8.40944" stroke-width="0.5" stroke="black" fill="cyan"/>
  <circle cx="498.229" cy="644.533" r="5.05076" stroke-width="0.5" stroke="black" fill="cyan"/>
   </g>
   <g id="cell124">
  <circle cx="377.88" cy="589.271" r="8.40934" stroke-width="0.5" stroke="black" fill="green"/>
  <circle cx="377.88" cy="589.271" r="5.05073" stroke-width="0.5" stroke="black" fill="green"/>
   </g>
   <g id="cell125">
  <circle cx="453.576" cy="456.25" r="6.20265" stroke-width="0.5" stroke="black" fill="cyan"/>
  <circle cx="453.576" cy="456.25" r="3.78242" stroke-width="0.5" stroke="black" fill="cyan"/>
   </g>
   <g id="cell126">
  <circle cx="410.112" cy="509.869" r="8.408" stroke-width="0.5" stroke="black" fill="green"/>
  <circle cx="410.112" cy="509.869" r="5.05034" stroke-width="0.5" stroke="black" fill="green"/>
   </g>
   <g id="cell127">
  <circle cx="413.455" cy="595.361" r="8.40801" stroke-width="0.5" stroke="black" fill="cyan"/>
  <circle cx="413.455" cy="595.361" r="5.05031" stroke-width="0.5" stroke="black" fill="cyan"/>
   </g>
   <g id="cell128">
  <circle cx="349.499" cy="536.206" r="8.15029" stroke-width="0.5" stroke="black" fill="cyan"/>
  <circle cx="349.499" cy="536.206" r="4.93027" stroke-width="0.5" stroke="black" fill="cyan"/>
   </g>
   <g id="cell131">
  <circle cx="584.292" cy="541.683" r="7.56403" stroke-width="0.5" stroke="black" fill="cyan"/>
  <circle cx="584.292" cy="541.683" r="4.59858" stroke-width="0.5" stroke="black" fill="cyan"/>
   </g>
   <g id="cell132">
  <circle cx="508.512" cy="442.586" r="8.40482" stroke-width="0.5" stroke="black" fill="magenta"/>
  <circle cx="508.512" cy="442.586" r="5.04931" stroke-width="0.5" stroke="black" fill="magenta"/>
   </g>
   <g id="cell133">
  <circle cx="534.801" cy="409.685" r="8.40494" stroke-width="0.5" stroke="black" fill="magenta"/>
  <circle cx="534.801" cy="409.685" r="5.04929" stroke-width="0.5" stroke="black" fill="magenta"/>
   </g>
   <g id="cell134">
  <circle cx="511.109" cy="579.513" r="8.39285" stroke-width="0.5" stroke="black" fill="magenta"/>
  <circle cx="511.109" cy="579.513" r="5.04519" stroke-width="0.5" stroke="black" fill="magenta"/>
   </g>
   <g id="cell135">
  <circle cx="563.902" cy="481.866" r="8.40327" stroke-width="0.5" stroke="black" fill="cyan"/>
  <circle cx="563.902" cy="481.866" r="5.04872" stroke-width="0.5" stroke="black" fill="cyan"/>
   </g>
   <g id="cell137">
  <circle cx="375.634" cy="476.479" r="8.39947" stroke-width="0.5" stroke="black" fill="magenta"/>
  <circle cx="375.634" cy="476.479" r="5.04738" stroke-width="0.5" stroke="black" fill="magenta"/>
   </g>
   <g id="cell138">
  <circle cx="533.984" cy="592.89" r="8.34179" stroke-width="0.5" stroke="black" fill="magenta"/>
  <circle cx="533.984" cy="592.89" r="5.02502" stroke-width="0.5" stroke="black" fill="magenta"/>
   </g>
   <g id="cell139">
  <circle cx="501.086" cy="613.021" r="7.1371" stroke-width="0.5" stroke="black" fill="green"/>
  <circle cx="501.086" cy="613.021" r="4.33559" stroke-width="0.5" stroke="black" fill="green"/>
   </g>
   <g id="cell142">
  <circle cx="581.868" cy="382.018" r="8.38857" stroke-width="0.5" stroke="black" fill="magenta"/>
  <circle cx="581.868" cy="382.018" r="5.04352" stroke-width="0.5" stroke="black" fill="magenta"/>
   </g>
   <g id="cell143">
  <circle cx="532.04" cy="628.391" r="7.37261" stroke-width="0.5" stroke="black" fill="green"/>
  <circle cx="532.04" cy="628.391" r="4.48474" stroke-width="0.5" stroke="black" fill="green"/>
   </g>
   <g id="cell144">
  <circle cx="373.689" cy="544.634" r="8.38823" stroke-width="0.5" stroke="black" fill="magenta"/>
  <circle cx="373.689" cy="544.634" r="5.04313" stroke-width="0.5" stroke="black" fill="magenta"/>
   </g>
   <g id="cell145">
  <circle cx="457.938" cy="478.37" r="6.7192" stroke-width="0.5" stroke="black" fill="magenta"/>
  <circle cx="457.938" cy="478.37" r="4.10749" stroke-width="0.5" stroke="black" fill="magenta"/>
   </g>
   <g id="cell146">
  <circle cx="462.731" cy="418.861" r="8.38206" stroke-width="0.5" stroke="black" fill="cyan"/>
  <circle cx="462.731" cy="418.861" r="5.04069" stroke-width="0.5" stroke="black" fill="cyan"/>
   </g>
   <g id="cell148">
  <circle cx="401.297" cy="605.736" r="8.37505" stroke-width="0.5" stroke="black" fill="cyan"/>
  <circle cx="401.297" cy="605.736" r="5.03812" stroke-width="0.5" stroke="black" fill="cyan"/>
   </g>
   <g id="cell149">
  <circle cx="440.537" cy="536.569" r="8.371" stroke-width="0.5" stroke="black" fill="green"/>
  <circle cx="440.537" cy="536.569" r="5.03633" stroke-width="0.5" stroke="black" fill="green"/>
   </g>
   <g id="cell150">
  <circle cx="473.218" cy="633.839" r="8.36963" stroke-width="0.5" stroke="black" fill="green"/>
  <circle cx="473.218" cy="633.839" r="5.03561" stroke-width="0.5" stroke="black" fill="green"/>
   </g>
   <g id="cell151">
  <circle cx="521.64" cy="509.176" r="8.36849" stroke-width="0.5" stroke="black" fill="cyan"/>
  <circle cx="521.64" cy="509.176" r="5.03512" stroke-width="0.5" stroke="black" fill="cyan"/>
   </g>
   <g id="cell152">
  <circle cx="643.013" cy="553.413" r="8.36386" stroke-width="0.5" stroke="black" fill="green"/>
  <circle cx="643.013" cy="553.413" r="5.03329" stroke-width="0.5" stroke="black" fill="green"/>
   </g>
   <g id="cell153">
  <circle cx="395.164" cy="521.819" r="8.36012" stroke-width="0.5" stroke="black" fill="cyan"/>
  <circle cx="395.164" cy="521.819" r="5.032" stroke-width="0.5" stroke="black" fill="cyan"/>
   </g>
   <g id="cell154">
  <circle cx="587.707" cy="502.07" r="8.07706" stroke-width="0.5" stroke="black" fill="magenta"/>
  <circle cx="587.707" cy="502.07" r="4.89484" stroke-width="0.5" stroke="black" fill="magenta"/>
   </g>
   <g id="cell156">
  <circle cx="405.158" cy="558.458" r="8.2765" stroke-width="0.5" stroke="black" fill="green"/>
  <circle cx="405.158" cy="558.458" r="4.99594" stroke-width="0.5" stroke="black" fill="green"/>
   </g>
   <g id="cell157">
  <circle cx="390.35" cy="478.371" r="8.33644" stroke-width="0.5" stroke="black" fill="magenta"/>
  <circle cx="390.35" cy="478.371" r="5.02197" stroke-width="0.5" stroke="black" fill="magenta"/>
   </g>
   <g id="cell158">
  <circle cx="431.266" cy="465.772" r="6.78175" stroke-width="0.5" stroke="black" fill="green"/>
  <circle cx="431.266" cy="465.772" r="4.1144" stroke-width="0.5" stroke="black" fill="green"/>
   </g>
   <g id="cell159">
  <circle cx="440.483" cy="455.644" r="8.29964" stroke-width="0.5" stroke="black" fill="green"/>
  <circle cx="440.483" cy="455.644" r="5.00652" stroke-width="0.5" stroke="black" fill="green"/>
   </g>
   <g id="cell160">
  <circle cx="419.75" cy="561.981" r="8.28996" stroke-width="0.5" stroke="black" fill="green"/>
  <circle cx="419.75" cy="561.981" r="5.00214" stroke-width="0.5" stroke="black" fill="green"/>
   </g>
   <g id="cell161">
  <circle cx="527.283" cy="461.077" r="8.32529" stroke-width="0.5" stroke="black" fill="cyan"/>
  <circle cx="527.283" cy="461.077" r="5.01614" stroke-width="0.5" stroke="black" fill="cyan"/>
   </g>
   <g id="cell162">
  <circle cx="617.756" cy="473.155" r="8.31612" stroke-width="0.5" stroke="black" fill="cyan"/>
  <circle cx="617.756" cy="473.155" r="5.01217" stroke-width="0.5" stroke="black" fill="cyan"/>
   </g>
   <g id="cell163">
  <circle cx="428.941" cy="549.614" r="8.25532" stroke-width="0.5" stroke="black" fill="green"/>
  <circle cx="428.941" cy="549.614" r="4.98742" stroke-width="0.5" stroke="black" fill="green"/>
   </g>
   <g id="cell164">
  <circle cx="465.484" cy="469.142" r="6.65722" stroke-width="0.5" stroke="black" fill="cyan"/>
  <circle cx="465.484" cy="469.142" r="4.01944" stroke-width="0.5" stroke="black" fill="cyan"/>
   </g>
   <g id="cell165">
  <circle cx="413.838" cy="545.471" r="8.2765" stroke-width="0.5" stroke="black" fill="green"/>
  <circle cx="413.838" cy="545.471" r="4.99594" stroke-width="0.5" stroke="black" fill="green"/>
   </g>
   <g id="cell166">
  <circle cx="602.638" cy="499.207" r="8.30615" stroke-width="0.5" stroke="black" fill="green"/>
  <circle cx="602.638" cy="499.207" r="5.00726" stroke-width="0.5" stroke="black" fill="green"/>
   </g>
   <g id="cell167">
  <circle cx="466.864" cy="387.289" r="8.30618" stroke-width="0.5" stroke="black" fill="green"/>
  <circle cx="466.864" cy="387.289" r="5.00727" stroke-width="0.5" stroke="black" fill="green"/>
   </g>
   <g id="cell168">
  <circle cx="520.032" cy="406.766" r="8.29912" stroke-width="0.5" stroke="black" fill="magenta"/>
  <circle cx="520.032" cy="406.766" r="5.0046" stroke-width="0.5" stroke="black" fill="magenta"/>
   </g>
   <g id="cell169">
  <circle cx="466.087" cy="433.327" r="7.79343" stroke-width="0.5" stroke="black" fill="magenta"/>
  <circle cx="466.087" cy="433.327" r="4.75084" stroke-width="0.5" stroke="black" fill="magenta"/>
   </g>
   <g id="cell170">
  <circle cx="628.804" cy="487.747" r="8.28626" stroke-width="0.5" stroke="black" fill="green"/>
  <circle cx="628.804" cy="487.747" r="4.99785" stroke-width="0.5" stroke="black" fill="green"/>
   </g>
   <g id="cell171">
  <circle cx="537.621" cy="530.263" r="8.26976" stroke-width="0.5" stroke="black" fill="cyan"/>
  <circle cx="537.621" cy="530.263" r="4.99015" stroke-width="0.5" stroke="black" fill="cyan"/>
   </g>
   <g id="cell172">
  <circle cx="508.833" cy="519.017" r="8.23975" stroke-width="0.5" stroke="black" fill="cyan"/>
  <circle cx="508.833" cy="519.017" r="4.97782" stroke-width="0.5" stroke="black" fill="cyan"/>
   </g>
   <g id="cell175">
  <circle cx="639.08" cy="538.979" r="7.43458" stroke-width="0.5" stroke="black" fill="green"/>
  <circle cx="639.08" cy="538.979" r="4.53823" stroke-width="0.5" stroke="black" fill="green"/>
   </g>
   <g id="cell177">
  <circle cx="364.605" cy="532.258" r="8.15029" stroke-width="0.5" stroke="black" fill="cyan"/>
  <circle cx="364.605" cy="532.258" r="4.93027" stroke-width="0.5" stroke="black" fill="cyan"/>
   </g>
   <g id="cell178">
  <circle cx="484.259" cy="450.363" r="8.08637" stroke-width="0.5" stroke="black" fill="magenta"/>
  <circle cx="484.259" cy="450.363" r="4.90325" stroke-width="0.5" stroke="black" fill="magenta"/>
   </g>
   <g id="cell179">
  <circle cx="444.776" cy="498.054" r="8.07006" stroke-width="0.5" stroke="black" fill="cyan"/>
  <circle cx="444.776" cy="498.054" r="4.89328" stroke-width="0.5" stroke="black" fill="cyan"/>
   </g>
   <g id="cell180">
  <circle cx="592.252" cy="488.543" r="8.07706" stroke-width="0.5" stroke="black" fill="magenta"/>
  <circle cx="592.252" cy="488.543" r="4.89484" stroke-width="0.5" stroke="black" fill="magenta"/>
   </g>
   <g id="cell181">
  <circle cx="546.112" cy="583.46" r="8.0659" stroke-width="0.5" stroke="black" fill="green"/>
  <circle cx="546.112" cy="583.46" r="4.88495" stroke-width="0.5" stroke="black" fill="green"/>
   </g>
   <g id="cell182">
  <circle cx="453.466" cy="467.632" r="6.37605" stroke-width="0.5" stroke="black" fill="cyan"/>
  <circle cx="453.466" cy="467.632" r="3.89398" stroke-width="0.5" stroke="black" fill="cyan"/>
   </g>
   <g id="cell183">
  <circle cx="524.957" cy="381.665" r="8.04586" stroke-width="0.5" stroke="black" fill="magenta"/>
  <circle cx="524.957" cy="381.665" r="4.87395" stroke-width="0.5" stroke="black" fill="magenta"/>
   </g>
   <g id="cell184">
  <circle cx="548.335" cy="598.176" r="7.95344" stroke-width="0.5" stroke="black" fill="green"/>
  <circle cx="548.335" cy="598.176" r="4.83236" stroke-width="0.5" stroke="black" fill="green"/>
   </g>
   <g id="cell185">
  <circle cx="418.595" cy="522.123" r="7.78366" stroke-width="0.5" stroke="black" fill="green"/>
  <circle cx="418.595" cy="522.123" r="4.74281" stroke-width="0.5" stroke="black" fill="green"/>
   </g>
   <g id="cell186">
  <circle cx="605.941" cy="525.286" r="7.71667" stroke-width="0.5" stroke="black" fill="cyan"/>
  <circle cx="605.941" cy="525.286" r="4.70584" stroke-width="0.5" stroke="black" fill="cyan"/>
   </g>
   <g id="cell187">
  <circle cx="469.49" cy="484.371" r="7.98672" stroke-width="0.5" stroke="black" fill="magenta"/>
  <circle cx="469.49" cy="484.371" r="4.84425" stroke-width="0.5" stroke="black" fill="magenta"/>
   </g>
   <g id="cell188">
  <circle cx="617.747" cy="533.153" r="7.77169" stroke-width="0.5" stroke="black" fill="cyan"/>
  <circle cx="617.747" cy="533.153" r="4.73628" stroke-width="0.5" stroke="black" fill="cyan"/>
   </g>
   <g id="cell189">
  <circle cx="425.154" cy="535.116" r="7.78366" stroke-width="0.5" stroke="black" fill="green"/>
  <circle cx="425.154" cy="535.116" r="4.74281" stroke-width="0.5" stroke="black" fill="green"/>
   </g>
   <g id="cell190">
  <circle cx="426.555" cy="405.118" r="6.31836" stroke-width="0.5" stroke="black" fill="green"/>
  <circle cx="426.555" cy="405.118" r="3.83183" stroke-width="0.5" stroke="black" fill="green"/>
   </g>
   <g id="cell191">
  <circle cx="479.915" cy="436.662" r="7.79343" stroke-width="0.5" stroke="black" fill="magenta"/>
  <circle cx="479.915" cy="436.662" r="4.75084" stroke-width="0.5" stroke="black" fill="magenta"/>
   </g>
   <g id="cell192">
  <circle cx="609.737" cy="511.964" r="7.71667" stroke-width="0.5" stroke="black" fill="cyan"/>
  <circle cx="609.737" cy="511.964" r="4.70584" stroke-width="0.5" stroke="black" fill="cyan"/>
   </g>
   <g id="cell193">
  <circle cx="589.245" cy="473.943" r="7.90682" stroke-width="0.5" stroke="black" fill="cyan"/>
  <circle cx="589.245" cy="473.943" r="4.79741" stroke-width="0.5" stroke="black" fill="cyan"/>
   </g>
   <g id="cell194">
  <circle cx="446.216" cy="622.675" r="7.89305" stroke-width="0.5" stroke="black" fill="magenta"/>
  <circle cx="446.216" cy="622.675" r="4.78939" stroke-width="0.5" stroke="black" fill="magenta"/>
   </g>
   <g id="cell195">
  <circle cx="565.759" cy="523.881" r="7.85882" stroke-width="0.5" stroke="black" fill="cyan"/>
  <circle cx="565.759" cy="523.881" r="4.77081" stroke-width="0.5" stroke="black" fill="cyan"/>
   </g>
   <g id="cell196">
  <circle cx="507.242" cy="504.148" r="7.74814" stroke-width="0.5" stroke="black" fill="cyan"/>
  <circle cx="507.242" cy="504.148" r="4.7202" stroke-width="0.5" stroke="black" fill="cyan"/>
   </g>
   <g id="cell197">
  <circle cx="456.201" cy="443.822" r="7.65648" stroke-width="0.5" stroke="black" fill="cyan"/>
  <circle cx="456.201" cy="443.822" r="4.65302" stroke-width="0.5" stroke="black" fill="cyan"/>
   </g>
   <g id="cell198">
  <circle cx="559.962" cy="566.628" r="7.61469" stroke-width="0.5" stroke="black" fill="cyan"/>
  <circle cx="559.962" cy="566.628" r="4.62762" stroke-width="0.5" stroke="black" fill="cyan"/>
   </g>
   <g id="cell199">
  <circle cx="626.224" cy="544.273" r="7.43458" stroke-width="0.5" stroke="black" fill="green"/>
  <circle cx="626.224" cy="544.273" r="4.53823" stroke-width="0.5" stroke="black" fill="green"/>
   </g>
   <g id="cell200">
  <circle cx="593.389" cy="530.797" r="7.56403" stroke-width="0.5" stroke="black" fill="cyan"/>
  <circle cx="593.389" cy="530.797" r="4.59858" stroke-width="0.5" stroke="black" fill="cyan"/>
   </g>
   <g id="cell201">
  <circle cx="393.931" cy="494.275" r="7.47216" stroke-width="0.5" stroke="black" fill="magenta"/>
  <circle cx="393.931" cy="494.275" r="4.55154" stroke-width="0.5" stroke="black" fill="magenta"/>
   </g>
   <g id="cell202">
  <circle cx="481.912" cy="592.125" r="7.31653" stroke-width="0.5" stroke="black" fill="green"/>
  <circle cx="481.912" cy="592.125" r="4.4631" stroke-width="0.5" stroke="black" fill="green"/>
   </g>
   <g id="cell203">
  <circle cx="545.131" cy="624.046" r="7.37261" stroke-width="0.5" stroke="black" fill="green"/>
  <circle cx="545.131" cy="624.046" r="4.48474" stroke-width="0.5" stroke="black" fill="green"/>
   </g>
   <g id="cell204">
  <circle cx="364.707" cy="467.689" r="7.35987" stroke-width="0.5" stroke="black" fill="magenta"/>
  <circle cx="364.707" cy="467.689" r="4.47293" stroke-width="0.5" stroke="black" fill="magenta"/>
   </g>
   <g id="cell205">
  <circle cx="511.441" cy="604.637" r="7.1371" stroke-width="0.5" stroke="black" fill="green"/>
  <circle cx="511.441" cy="604.637" r="4.33559" stroke-width="0.5" stroke="black" fill="green"/>
   </g>
   <g id="cell206">
  <circle cx="366.324" cy="556.499" r="7.10107" stroke-width="0.5" stroke="black" fill="magenta"/>
  <circle cx="366.324" cy="556.499" r="4.31327" stroke-width="0.5" stroke="black" fill="magenta"/>
   </g>
   <g id="cell207">
  <circle cx="387.106" cy="541.987" r="7.05247" stroke-width="0.5" stroke="black" fill="magenta"/>
  <circle cx="387.106" cy="541.987" r="4.27711" stroke-width="0.5" stroke="black" fill="magenta"/>
   </g>
   <g id="cell208">
  <circle cx="603.385" cy="481.093" r="6.94624" stroke-width="0.5" stroke="black" fill="green"/>
  <circle cx="603.385" cy="481.093" r="4.22386" stroke-width="0.5" stroke="black" fill="green"/>
   </g>
   <g id="cell209">
  <circle cx="455.459" cy="489.602" r="6.7192" stroke-width="0.5" stroke="black" fill="magenta"/>
  <circle cx="455.459" cy="489.602" r="4.10749" stroke-width="0.5" stroke="black" fill="magenta"/>
   </g>
   <g id="cell210">
  <circle cx="431.893" cy="477.936" r="6.78175" stroke-width="0.5" stroke="black" fill="green"/>
  <circle cx="431.893" cy="477.936" r="4.1144" stroke-width="0.5" stroke="black" fill="green"/>
   </g>
   <g id="cell211">
  <circle cx="518.886" cy="472.385" r="6.83713" stroke-width="0.5" stroke="black" fill="cyan"/>
  <circle cx="518.886" cy="472.385" r="4.12773" stroke-width="0.5" stroke="black" fill="cyan"/>
   </g>
   <g id="cell212">
  <circle cx="442.305" cy="394.596" r="5.28716" stroke-width="0.5" stroke="black" fill="green"/>
  <circle cx="442.305" cy="394.596" r="3.23405" stroke-width="0.5" stroke="black" fill="green"/>
   </g>
   <g id="cell213">
  <circle cx="442.277" cy="470.722" r="6.37605" stroke-width="0.5" stroke="black" fill="cyan"/>
  <circle cx="442.277" cy="470.722" r="3.89398" stroke-width="0.5" stroke="black" fill="cyan"/>
   </g>
   <g id="cell214">
  <circle cx="464.708" cy="457.636" r="6.20265" stroke-width="0.5" stroke="black" fill="cyan"/>
  <circle cx="464.708" cy="457.636" r="3.78242" stroke-width="0.5" stroke="black" fill="cyan"/>
   </g>
   <g id="cell215">
  <circle cx="451.186" cy="394.223" r="5.28716" stroke-width="0.5" stroke="black" fill="green"/>
  <circle cx="451.186" cy="394.223" r="3.23405" stroke-width="0.5" stroke="black" fill="green"/>
   </g>
   <g id="cell216">
  <circle cx="477.113" cy="472.456" r="6.65722" stroke-width="0.5" stroke="black" fill="cyan"/>
  <circle cx="477.113" cy="472.456" r="4.01944" stroke-width="0.5" stroke="black" fill="cyan"/>
   </g>
   <g id="cell217">
  <circle cx="433.791" cy="398.27" r="6.31836" stroke-width="0.5" stroke="black" fill="green"/>
  <circle cx="433.791" cy="398.27" r="3.83183" stroke-width="0.5" stroke="black" fill="green"/>
   </g>
  </g>
 </g>
  <rect x="775" y="1035" width="200" height="10" stroke-width="2" stroke="rgb(255,255,255)" fill="rgb(0,0,0)"/>
  <text x="781.25" y="1028.75"
   font-family="Arial" font-size="25" fill="black" >
   200 &#956;m
  </text>
  <text x="25" y="1045"
   font-family="Arial" font-size="18.75" fill="black" >
   0 days, 0 hours, 0 minutes, and 52.0754 seconds
  </text>
  <rect x="0" y="70" width="1000" height="1000" stroke-width="2" stroke="rgb(0,0,0)" fill="none"/>
</svg>
