<?xml version="1.0" encoding="UTF-8" standalone="no"?>
<!-- Created with PhysiCell (http://PhysiCell.MathCancer.org/) -->
<svg 
 xmlns:dc="http://purl.org/dc/elements/1.1/" 
 xmlns:cc="http://creativecommons.org/ns#" 
 xmlns:rdf="http://www.w3.org/1999/02/22-rdf-syntax-ns#" 
 xmlns:svg="http://www.w3.org/2000/svg" 
 xmlns="http://www.w3.org/2000/svg" 
 version="1.1" 
 width="1000" 
 height="1070" 
 id="svg2">
  <rect x="0" y="0" width="1000" height="1070" stroke-width="2" stroke="white" fill="white"/>
  <text x="12.5" y="30"
   font-family="Arial" font-size="25" fill="black" >
   Current time: 0 days, 23 hours, and 30.00 minutes, z = 0.00 &#956;m
  </text>
  <text x="12.5" y="57.5"
   font-family="Arial" font-size="23.75" fill="black" >
   141 agents
  </text>
 <g id="tissue" 
    transform="translate(0,1070) scale(1,-1)">
  <g id="ECM">
  </g>
  <g id="cells">
   <g id="cell0">
  <circle cx="514.415" cy="530.989" r="8.40934" stroke-width="0.5" stroke="black" fill="magenta"/>
  <circle cx="514.415" cy="530.989" r="5.05073" stroke-width="0.5" stroke="black" fill="magenta"/>
   </g>
   <g id="cell147">
  <circle cx="416.691" cy="570.707" r="6.71377" stroke-width="0.5" stroke="black" fill="green"/>
  <circle cx="416.691" cy="570.707" r="4.0437" stroke-width="0.5" stroke="black" fill="green"/>
   </g>
   <g id="cell2">
  <circle cx="512.834" cy="595.228" r="7.89373" stroke-width="0.5" stroke="black" fill="magenta"/>
  <circle cx="512.834" cy="595.228" r="4.78957" stroke-width="0.5" stroke="black" fill="magenta"/>
   </g>
   <g id="cell3">
  <circle cx="539.445" cy="541.197" r="7.72056" stroke-width="0.5" stroke="black" fill="magenta"/>
  <circle cx="539.445" cy="541.197" r="4.69003" stroke-width="0.5" stroke="black" fill="magenta"/>
   </g>
   <g id="cell4">
  <circle cx="468.721" cy="440.302" r="8.4097" stroke-width="0.5" stroke="black" fill="magenta"/>
  <circle cx="468.721" cy="440.302" r="5.05084" stroke-width="0.5" stroke="black" fill="magenta"/>
   </g>
   <g id="cell5">
  <circle cx="465.829" cy="498.002" r="6.89675" stroke-width="0.5" stroke="black" fill="magenta"/>
  <circle cx="465.829" cy="498.002" r="4.17024" stroke-width="0.5" stroke="black" fill="magenta"/>
   </g>
   <g id="cell6">
  <circle cx="594.923" cy="514.051" r="8.40185" stroke-width="0.5" stroke="black" fill="magenta"/>
  <circle cx="594.923" cy="514.051" r="5.04822" stroke-width="0.5" stroke="black" fill="magenta"/>
   </g>
   <g id="cell7">
  <circle cx="511.367" cy="464.42" r="8.41271" stroke-width="0.5" stroke="black" fill="magenta"/>
  <circle cx="511.367" cy="464.42" r="5.05167" stroke-width="0.5" stroke="black" fill="magenta"/>
   </g>
   <g id="cell8">
  <circle cx="370.595" cy="548.792" r="6.95901" stroke-width="0.5" stroke="black" fill="magenta"/>
  <circle cx="370.595" cy="548.792" r="4.21341" stroke-width="0.5" stroke="black" fill="magenta"/>
   </g>
   <g id="cell9">
  <circle cx="463.958" cy="602.066" r="8.40123" stroke-width="0.5" stroke="black" fill="magenta"/>
  <circle cx="463.958" cy="602.066" r="5.048" stroke-width="0.5" stroke="black" fill="magenta"/>
   </g>
   <g id="cell10">
  <circle cx="587.244" cy="395.778" r="6.87829" stroke-width="0.5" stroke="black" fill="magenta"/>
  <circle cx="587.244" cy="395.778" r="4.20286" stroke-width="0.5" stroke="black" fill="magenta"/>
   </g>
   <g id="cell11">
  <circle cx="589.748" cy="590.273" r="8.41271" stroke-width="0.5" stroke="black" fill="magenta"/>
  <circle cx="589.748" cy="590.273" r="5.05167" stroke-width="0.5" stroke="black" fill="magenta"/>
   </g>
   <g id="cell12">
  <circle cx="502.147" cy="585.193" r="8.41271" stroke-width="0.5" stroke="black" fill="magenta"/>
  <circle cx="502.147" cy="585.193" r="5.05167" stroke-width="0.5" stroke="black" fill="magenta"/>
   </g>
   <g id="cell13">
  <circle cx="378.357" cy="560.026" r="8.24437" stroke-width="0.5" stroke="black" fill="magenta"/>
  <circle cx="378.357" cy="560.026" r="4.9783" stroke-width="0.5" stroke="black" fill="magenta"/>
   </g>
   <g id="cell14">
  <circle cx="523.199" cy="398.966" r="7.93688" stroke-width="0.5" stroke="black" fill="magenta"/>
  <circle cx="523.199" cy="398.966" r="4.81381" stroke-width="0.5" stroke="black" fill="magenta"/>
   </g>
   <g id="cell15">
  <circle cx="391.725" cy="482.965" r="7.58987" stroke-width="0.5" stroke="black" fill="magenta"/>
  <circle cx="391.725" cy="482.965" r="4.6134" stroke-width="0.5" stroke="black" fill="magenta"/>
   </g>
   <g id="cell16">
  <circle cx="430.883" cy="412.84" r="8.41271" stroke-width="0.5" stroke="black" fill="magenta"/>
  <circle cx="430.883" cy="412.84" r="5.05167" stroke-width="0.5" stroke="black" fill="magenta"/>
   </g>
   <g id="cell17">
  <circle cx="588.602" cy="489.239" r="8.38823" stroke-width="0.5" stroke="black" fill="magenta"/>
  <circle cx="588.602" cy="489.239" r="5.04313" stroke-width="0.5" stroke="black" fill="magenta"/>
   </g>
   <g id="cell18">
  <circle cx="509.83" cy="392.788" r="8.40986" stroke-width="0.5" stroke="black" fill="magenta"/>
  <circle cx="509.83" cy="392.788" r="5.05089" stroke-width="0.5" stroke="black" fill="magenta"/>
   </g>
   <g id="cell19">
  <circle cx="447.926" cy="539.446" r="8.39752" stroke-width="0.5" stroke="black" fill="magenta"/>
  <circle cx="447.926" cy="539.446" r="5.04666" stroke-width="0.5" stroke="black" fill="magenta"/>
   </g>
   <g id="cell20">
  <circle cx="528.33" cy="422.674" r="8.41271" stroke-width="0.5" stroke="black" fill="magenta"/>
  <circle cx="528.33" cy="422.674" r="5.05167" stroke-width="0.5" stroke="black" fill="magenta"/>
   </g>
   <g id="cell141">
  <circle cx="482.449" cy="438.984" r="7.09003" stroke-width="0.5" stroke="black" fill="magenta"/>
  <circle cx="482.449" cy="438.984" r="4.31517" stroke-width="0.5" stroke="black" fill="magenta"/>
   </g>
   <g id="cell22">
  <circle cx="558.846" cy="496.34" r="8.39158" stroke-width="0.5" stroke="black" fill="magenta"/>
  <circle cx="558.846" cy="496.34" r="5.04463" stroke-width="0.5" stroke="black" fill="magenta"/>
   </g>
   <g id="cell23">
  <circle cx="535.383" cy="483.249" r="8.41271" stroke-width="0.5" stroke="black" fill="magenta"/>
  <circle cx="535.383" cy="483.249" r="5.05167" stroke-width="0.5" stroke="black" fill="magenta"/>
   </g>
   <g id="cell24">
  <circle cx="562.578" cy="382.511" r="8.41271" stroke-width="0.5" stroke="black" fill="magenta"/>
  <circle cx="562.578" cy="382.511" r="5.05167" stroke-width="0.5" stroke="black" fill="magenta"/>
   </g>
   <g id="cell25">
  <circle cx="647.977" cy="559.541" r="8.33121" stroke-width="0.5" stroke="black" fill="green"/>
  <circle cx="647.977" cy="559.541" r="5.02033" stroke-width="0.5" stroke="black" fill="green"/>
   </g>
   <g id="cell26">
  <circle cx="549.145" cy="401.828" r="8.41271" stroke-width="0.5" stroke="black" fill="green"/>
  <circle cx="549.145" cy="401.828" r="5.05167" stroke-width="0.5" stroke="black" fill="green"/>
   </g>
   <g id="cell27">
  <circle cx="457.446" cy="388.678" r="8.41271" stroke-width="0.5" stroke="black" fill="green"/>
  <circle cx="457.446" cy="388.678" r="5.05167" stroke-width="0.5" stroke="black" fill="green"/>
   </g>
   <g id="cell28">
  <circle cx="433.049" cy="544.194" r="8.41271" stroke-width="0.5" stroke="black" fill="green"/>
  <circle cx="433.049" cy="544.194" r="5.05167" stroke-width="0.5" stroke="black" fill="green"/>
   </g>
   <g id="cell29">
  <circle cx="467.402" cy="521.012" r="8.31269" stroke-width="0.5" stroke="black" fill="green"/>
  <circle cx="467.402" cy="521.012" r="5.01104" stroke-width="0.5" stroke="black" fill="green"/>
   </g>
   <g id="cell30">
  <circle cx="477.802" cy="539.186" r="8.41271" stroke-width="0.5" stroke="black" fill="green"/>
  <circle cx="477.802" cy="539.186" r="5.05167" stroke-width="0.5" stroke="black" fill="green"/>
   </g>
   <g id="cell31">
  <circle cx="412.487" cy="538.741" r="8.41271" stroke-width="0.5" stroke="black" fill="green"/>
  <circle cx="412.487" cy="538.741" r="5.05167" stroke-width="0.5" stroke="black" fill="green"/>
   </g>
   <g id="cell32">
  <circle cx="430.079" cy="465.409" r="8.40427" stroke-width="0.5" stroke="black" fill="green"/>
  <circle cx="430.079" cy="465.409" r="5.04906" stroke-width="0.5" stroke="black" fill="green"/>
   </g>
   <g id="cell33">
  <circle cx="498.876" cy="413.227" r="8.40537" stroke-width="0.5" stroke="black" fill="green"/>
  <circle cx="498.876" cy="413.227" r="5.04944" stroke-width="0.5" stroke="black" fill="green"/>
   </g>
   <g id="cell34">
  <circle cx="392.093" cy="453.617" r="8.40353" stroke-width="0.5" stroke="black" fill="green"/>
  <circle cx="392.093" cy="453.617" r="5.04881" stroke-width="0.5" stroke="black" fill="green"/>
   </g>
   <g id="cell35">
  <circle cx="544.786" cy="554.974" r="8.37537" stroke-width="0.5" stroke="black" fill="green"/>
  <circle cx="544.786" cy="554.974" r="5.03798" stroke-width="0.5" stroke="black" fill="green"/>
   </g>
   <g id="cell36">
  <circle cx="396.316" cy="579.856" r="8.21273" stroke-width="0.5" stroke="black" fill="green"/>
  <circle cx="396.316" cy="579.856" r="4.96162" stroke-width="0.5" stroke="black" fill="green"/>
   </g>
   <g id="cell37">
  <circle cx="634.871" cy="460.618" r="2.5701" stroke-width="0.5" stroke="black" fill="green"/>
  <circle cx="634.871" cy="460.618" r="2.25579" stroke-width="0.5" stroke="black" fill="black"/>
   </g>
   <g id="cell38">
  <circle cx="526.355" cy="603.737" r="8.39834" stroke-width="0.5" stroke="black" fill="green"/>
  <circle cx="526.355" cy="603.737" r="5.04696" stroke-width="0.5" stroke="black" fill="green"/>
   </g>
   <g id="cell39">
  <circle cx="617.205" cy="494.502" r="8.40915" stroke-width="0.5" stroke="black" fill="green"/>
  <circle cx="617.205" cy="494.502" r="5.05067" stroke-width="0.5" stroke="black" fill="green"/>
   </g>
   <g id="cell40">
  <circle cx="485.625" cy="572.009" r="8.41271" stroke-width="0.5" stroke="black" fill="green"/>
  <circle cx="485.625" cy="572.009" r="5.05167" stroke-width="0.5" stroke="black" fill="green"/>
   </g>
   <g id="cell41">
  <circle cx="364.688" cy="479.909" r="8.41271" stroke-width="0.5" stroke="black" fill="green"/>
  <circle cx="364.688" cy="479.909" r="5.05167" stroke-width="0.5" stroke="black" fill="green"/>
   </g>
   <g id="cell42">
  <circle cx="452.506" cy="487.122" r="3.55263" stroke-width="0.5" stroke="black" fill="green"/>
  <circle cx="452.506" cy="487.122" r="2.70272" stroke-width="0.5" stroke="black" fill="black"/>
   </g>
   <g id="cell43">
  <circle cx="558.422" cy="445.726" r="8.41271" stroke-width="0.5" stroke="black" fill="green"/>
  <circle cx="558.422" cy="445.726" r="5.05167" stroke-width="0.5" stroke="black" fill="green"/>
   </g>
   <g id="cell44">
  <circle cx="477.676" cy="627.431" r="8.40272" stroke-width="0.5" stroke="black" fill="green"/>
  <circle cx="477.676" cy="627.431" r="5.04853" stroke-width="0.5" stroke="black" fill="green"/>
   </g>
   <g id="cell45">
  <circle cx="416.57" cy="554.308" r="8.38823" stroke-width="0.5" stroke="black" fill="green"/>
  <circle cx="416.57" cy="554.308" r="5.04313" stroke-width="0.5" stroke="black" fill="green"/>
   </g>
   <g id="cell46">
  <circle cx="518.693" cy="620.875" r="7.26771" stroke-width="0.5" stroke="black" fill="green"/>
  <circle cx="518.693" cy="620.875" r="4.43217" stroke-width="0.5" stroke="black" fill="green"/>
   </g>
   <g id="cell47">
  <circle cx="501.179" cy="507.832" r="8.41271" stroke-width="0.5" stroke="black" fill="green"/>
  <circle cx="501.179" cy="507.832" r="5.05167" stroke-width="0.5" stroke="black" fill="green"/>
   </g>
   <g id="cell48">
  <circle cx="565.274" cy="604.206" r="8.41271" stroke-width="0.5" stroke="black" fill="green"/>
  <circle cx="565.274" cy="604.206" r="5.05167" stroke-width="0.5" stroke="black" fill="green"/>
   </g>
   <g id="cell49">
  <circle cx="434.46" cy="396.302" r="8.08613" stroke-width="0.5" stroke="black" fill="green"/>
  <circle cx="434.46" cy="396.302" r="4.8956" stroke-width="0.5" stroke="black" fill="green"/>
   </g>
   <g id="cell50">
  <circle cx="515.253" cy="515.573" r="8.41271" stroke-width="0.5" stroke="black" fill="cyan"/>
  <circle cx="515.253" cy="515.573" r="5.05167" stroke-width="0.5" stroke="black" fill="cyan"/>
   </g>
   <g id="cell51">
  <circle cx="394.091" cy="602.841" r="8.13008" stroke-width="0.5" stroke="black" fill="cyan"/>
  <circle cx="394.091" cy="602.841" r="4.91894" stroke-width="0.5" stroke="black" fill="cyan"/>
   </g>
   <g id="cell120">
  <circle cx="419.377" cy="610.528" r="8.26685" stroke-width="0.5" stroke="black" fill="cyan"/>
  <circle cx="419.377" cy="610.528" r="4.98849" stroke-width="0.5" stroke="black" fill="cyan"/>
   </g>
   <g id="cell53">
  <circle cx="571.217" cy="436.055" r="8.41271" stroke-width="0.5" stroke="black" fill="cyan"/>
  <circle cx="571.217" cy="436.055" r="5.05167" stroke-width="0.5" stroke="black" fill="cyan"/>
   </g>
   <g id="cell54">
  <circle cx="480.163" cy="426.545" r="6.73287" stroke-width="0.5" stroke="black" fill="cyan"/>
  <circle cx="480.163" cy="426.545" r="4.05039" stroke-width="0.5" stroke="black" fill="cyan"/>
   </g>
   <g id="cell55">
  <circle cx="525.44" cy="471.223" r="8.41271" stroke-width="0.5" stroke="black" fill="cyan"/>
  <circle cx="525.44" cy="471.223" r="5.05167" stroke-width="0.5" stroke="black" fill="cyan"/>
   </g>
   <g id="cell56">
  <circle cx="615.78" cy="522.534" r="8.41271" stroke-width="0.5" stroke="black" fill="cyan"/>
  <circle cx="615.78" cy="522.534" r="5.05167" stroke-width="0.5" stroke="black" fill="cyan"/>
   </g>
   <g id="cell57">
  <circle cx="418.509" cy="626.225" r="8.26685" stroke-width="0.5" stroke="black" fill="cyan"/>
  <circle cx="418.509" cy="626.225" r="4.98849" stroke-width="0.5" stroke="black" fill="cyan"/>
   </g>
   <g id="cell58">
  <circle cx="550.516" cy="483.511" r="8.41271" stroke-width="0.5" stroke="black" fill="cyan"/>
  <circle cx="550.516" cy="483.511" r="5.05167" stroke-width="0.5" stroke="black" fill="cyan"/>
   </g>
   <g id="cell59">
  <circle cx="385.161" cy="439.179" r="8.41271" stroke-width="0.5" stroke="black" fill="cyan"/>
  <circle cx="385.161" cy="439.179" r="5.05167" stroke-width="0.5" stroke="black" fill="cyan"/>
   </g>
   <g id="cell60">
  <circle cx="593.218" cy="474.318" r="8.23444" stroke-width="0.5" stroke="black" fill="cyan"/>
  <circle cx="593.218" cy="474.318" r="4.97252" stroke-width="0.5" stroke="black" fill="cyan"/>
   </g>
   <g id="cell61">
  <circle cx="554.623" cy="614.976" r="1.54796" stroke-width="0.5" stroke="black" fill="cyan"/>
  <circle cx="554.623" cy="614.976" r="1.52398" stroke-width="0.5" stroke="black" fill="black"/>
   </g>
   <g id="cell62">
  <circle cx="526.315" cy="443.655" r="8.41271" stroke-width="0.5" stroke="black" fill="cyan"/>
  <circle cx="526.315" cy="443.655" r="5.05167" stroke-width="0.5" stroke="black" fill="cyan"/>
   </g>
   <g id="cell63">
  <circle cx="582.649" cy="552.589" r="8.39834" stroke-width="0.5" stroke="black" fill="cyan"/>
  <circle cx="582.649" cy="552.589" r="5.04696" stroke-width="0.5" stroke="black" fill="cyan"/>
   </g>
   <g id="cell64">
  <circle cx="512.376" cy="634.004" r="8.21839" stroke-width="0.5" stroke="black" fill="cyan"/>
  <circle cx="512.376" cy="634.004" r="4.96448" stroke-width="0.5" stroke="black" fill="cyan"/>
   </g>
   <g id="cell65">
  <circle cx="533.802" cy="457.609" r="8.39752" stroke-width="0.5" stroke="black" fill="cyan"/>
  <circle cx="533.802" cy="457.609" r="5.04666" stroke-width="0.5" stroke="black" fill="cyan"/>
   </g>
   <g id="cell66">
  <circle cx="544.504" cy="527.405" r="8.27497" stroke-width="0.5" stroke="black" fill="cyan"/>
  <circle cx="544.504" cy="527.405" r="4.99242" stroke-width="0.5" stroke="black" fill="cyan"/>
   </g>
   <g id="cell67">
  <circle cx="354.811" cy="492.515" r="8.41271" stroke-width="0.5" stroke="black" fill="cyan"/>
  <circle cx="354.811" cy="492.515" r="5.05167" stroke-width="0.5" stroke="black" fill="cyan"/>
   </g>
   <g id="cell68">
  <circle cx="560.604" cy="556.165" r="8.41271" stroke-width="0.5" stroke="black" fill="cyan"/>
  <circle cx="560.604" cy="556.165" r="5.05167" stroke-width="0.5" stroke="black" fill="cyan"/>
   </g>
   <g id="cell69">
  <circle cx="436.731" cy="450.824" r="8.40994" stroke-width="0.5" stroke="black" fill="cyan"/>
  <circle cx="436.731" cy="450.824" r="5.05091" stroke-width="0.5" stroke="black" fill="cyan"/>
   </g>
   <g id="cell70">
  <circle cx="578.841" cy="478.157" r="7.83019" stroke-width="0.5" stroke="black" fill="cyan"/>
  <circle cx="578.841" cy="478.157" r="4.75343" stroke-width="0.5" stroke="black" fill="cyan"/>
   </g>
   <g id="cell71">
  <circle cx="382.605" cy="527.89" r="8.04329" stroke-width="0.5" stroke="black" fill="cyan"/>
  <circle cx="382.605" cy="527.89" r="4.88123" stroke-width="0.5" stroke="black" fill="cyan"/>
   </g>
   <g id="cell72">
  <circle cx="534.217" cy="509.606" r="8.41271" stroke-width="0.5" stroke="black" fill="cyan"/>
  <circle cx="534.217" cy="509.606" r="5.05167" stroke-width="0.5" stroke="black" fill="cyan"/>
   </g>
   <g id="cell129">
  <circle cx="420.285" cy="401.948" r="8.08613" stroke-width="0.5" stroke="black" fill="green"/>
  <circle cx="420.285" cy="401.948" r="4.8956" stroke-width="0.5" stroke="black" fill="green"/>
   </g>
   <g id="cell74">
  <circle cx="542.432" cy="444.182" r="8.41271" stroke-width="0.5" stroke="black" fill="cyan"/>
  <circle cx="542.432" cy="444.182" r="5.05167" stroke-width="0.5" stroke="black" fill="cyan"/>
   </g>
   <g id="cell75">
  <circle cx="443.689" cy="473.438" r="8.19324" stroke-width="0.5" stroke="black" fill="cyan"/>
  <circle cx="443.689" cy="473.438" r="4.95205" stroke-width="0.5" stroke="black" fill="cyan"/>
   </g>
   <g id="cell76">
  <circle cx="522.333" cy="384.284" r="8.39428" stroke-width="0.5" stroke="black" fill="magenta"/>
  <circle cx="522.333" cy="384.284" r="5.0456" stroke-width="0.5" stroke="black" fill="magenta"/>
   </g>
   <g id="cell77">
  <circle cx="494.027" cy="433.872" r="7.09003" stroke-width="0.5" stroke="black" fill="magenta"/>
  <circle cx="494.027" cy="433.872" r="4.31517" stroke-width="0.5" stroke="black" fill="magenta"/>
   </g>
   <g id="cell78">
  <circle cx="371.016" cy="465.633" r="8.40953" stroke-width="0.5" stroke="black" fill="magenta"/>
  <circle cx="371.016" cy="465.633" r="5.05079" stroke-width="0.5" stroke="black" fill="magenta"/>
   </g>
   <g id="cell79">
  <circle cx="501.526" cy="523.332" r="8.40934" stroke-width="0.5" stroke="black" fill="magenta"/>
  <circle cx="501.526" cy="523.332" r="5.05073" stroke-width="0.5" stroke="black" fill="magenta"/>
   </g>
   <g id="cell80">
  <circle cx="603.799" cy="485.879" r="8.40915" stroke-width="0.5" stroke="black" fill="green"/>
  <circle cx="603.799" cy="485.879" r="5.05067" stroke-width="0.5" stroke="black" fill="green"/>
   </g>
   <g id="cell81">
  <circle cx="430.102" cy="501.6" r="8.13027" stroke-width="0.5" stroke="black" fill="green"/>
  <circle cx="430.102" cy="501.6" r="4.92257" stroke-width="0.5" stroke="black" fill="green"/>
   </g>
   <g id="cell82">
  <circle cx="543.176" cy="496.763" r="8.4085" stroke-width="0.5" stroke="black" fill="magenta"/>
  <circle cx="543.176" cy="496.763" r="5.05047" stroke-width="0.5" stroke="black" fill="magenta"/>
   </g>
   <g id="cell130">
  <circle cx="574.656" cy="391.082" r="8.06667" stroke-width="0.5" stroke="black" fill="magenta"/>
  <circle cx="574.656" cy="391.082" r="4.88515" stroke-width="0.5" stroke="black" fill="magenta"/>
   </g>
   <g id="cell84">
  <circle cx="406.441" cy="481.545" r="8.33481" stroke-width="0.5" stroke="black" fill="green"/>
  <circle cx="406.441" cy="481.545" r="5.02102" stroke-width="0.5" stroke="black" fill="green"/>
   </g>
   <g id="cell140">
  <circle cx="527.93" cy="579.378" r="6.51535" stroke-width="0.5" stroke="black" fill="magenta"/>
  <circle cx="527.93" cy="579.378" r="4.01849" stroke-width="0.5" stroke="black" fill="magenta"/>
   </g>
   <g id="cell86">
  <circle cx="391.904" cy="565.406" r="8.34045" stroke-width="0.5" stroke="black" fill="magenta"/>
  <circle cx="391.904" cy="565.406" r="5.02356" stroke-width="0.5" stroke="black" fill="magenta"/>
   </g>
   <g id="cell87">
  <circle cx="436.769" cy="528.732" r="8.28831" stroke-width="0.5" stroke="black" fill="green"/>
  <circle cx="436.769" cy="528.732" r="4.99962" stroke-width="0.5" stroke="black" fill="green"/>
   </g>
   <g id="cell88">
  <circle cx="476.368" cy="611.484" r="8.40272" stroke-width="0.5" stroke="black" fill="green"/>
  <circle cx="476.368" cy="611.484" r="5.04853" stroke-width="0.5" stroke="black" fill="green"/>
   </g>
   <g id="cell89">
  <circle cx="436.214" cy="487.226" r="8.37837" stroke-width="0.5" stroke="black" fill="green"/>
  <circle cx="436.214" cy="487.226" r="5.03976" stroke-width="0.5" stroke="black" fill="green"/>
   </g>
   <g id="cell90">
  <circle cx="584.056" cy="503.604" r="8.40185" stroke-width="0.5" stroke="black" fill="magenta"/>
  <circle cx="584.056" cy="503.604" r="5.04822" stroke-width="0.5" stroke="black" fill="magenta"/>
   </g>
   <g id="cell136">
  <circle cx="525.961" cy="539.33" r="7.72056" stroke-width="0.5" stroke="black" fill="magenta"/>
  <circle cx="525.961" cy="539.33" r="4.69003" stroke-width="0.5" stroke="black" fill="magenta"/>
   </g>
   <g id="cell92">
  <circle cx="553.54" cy="593.259" r="8.33133" stroke-width="0.5" stroke="black" fill="green"/>
  <circle cx="553.54" cy="593.259" r="5.02068" stroke-width="0.5" stroke="black" fill="green"/>
   </g>
   <g id="cell93">
  <circle cx="573.217" cy="526.314" r="7.98274" stroke-width="0.5" stroke="black" fill="cyan"/>
  <circle cx="573.217" cy="526.314" r="4.84291" stroke-width="0.5" stroke="black" fill="cyan"/>
   </g>
   <g id="cell94">
  <circle cx="543.824" cy="469.614" r="8.39752" stroke-width="0.5" stroke="black" fill="cyan"/>
  <circle cx="543.824" cy="469.614" r="5.04666" stroke-width="0.5" stroke="black" fill="cyan"/>
   </g>
   <g id="cell95">
  <circle cx="462.596" cy="535.749" r="8.39752" stroke-width="0.5" stroke="black" fill="magenta"/>
  <circle cx="462.596" cy="535.749" r="5.04666" stroke-width="0.5" stroke="black" fill="magenta"/>
   </g>
   <g id="cell96">
  <circle cx="535.303" cy="376.533" r="8.39428" stroke-width="0.5" stroke="black" fill="magenta"/>
  <circle cx="535.303" cy="376.533" r="5.0456" stroke-width="0.5" stroke="black" fill="magenta"/>
   </g>
   <g id="cell97">
  <circle cx="569.406" cy="507.215" r="8.39158" stroke-width="0.5" stroke="black" fill="magenta"/>
  <circle cx="569.406" cy="507.215" r="5.04463" stroke-width="0.5" stroke="black" fill="magenta"/>
   </g>
   <g id="cell98">
  <circle cx="405.247" cy="566.137" r="6.71377" stroke-width="0.5" stroke="black" fill="green"/>
  <circle cx="405.247" cy="566.137" r="4.0437" stroke-width="0.5" stroke="black" fill="green"/>
   </g>
   <g id="cell99">
  <circle cx="573.733" cy="492.653" r="8.38823" stroke-width="0.5" stroke="black" fill="magenta"/>
  <circle cx="573.733" cy="492.653" r="5.04313" stroke-width="0.5" stroke="black" fill="magenta"/>
   </g>
   <g id="cell100">
  <circle cx="569.82" cy="543.058" r="8.37959" stroke-width="0.5" stroke="black" fill="cyan"/>
  <circle cx="569.82" cy="543.058" r="5.04021" stroke-width="0.5" stroke="black" fill="cyan"/>
   </g>
   <g id="cell101">
  <circle cx="462.224" cy="628.91" r="8.3438" stroke-width="0.5" stroke="black" fill="magenta"/>
  <circle cx="462.224" cy="628.91" r="5.02558" stroke-width="0.5" stroke="black" fill="magenta"/>
   </g>
   <g id="cell102">
  <circle cx="445.752" cy="500.077" r="8.37837" stroke-width="0.5" stroke="black" fill="green"/>
  <circle cx="445.752" cy="500.077" r="5.03976" stroke-width="0.5" stroke="black" fill="green"/>
   </g>
   <g id="cell103">
  <circle cx="542.449" cy="604.623" r="8.37116" stroke-width="0.5" stroke="black" fill="green"/>
  <circle cx="542.449" cy="604.623" r="5.03684" stroke-width="0.5" stroke="black" fill="green"/>
   </g>
   <g id="cell104">
  <circle cx="554.093" cy="541.54" r="8.37537" stroke-width="0.5" stroke="black" fill="green"/>
  <circle cx="554.093" cy="541.54" r="5.03798" stroke-width="0.5" stroke="black" fill="green"/>
   </g>
   <g id="cell105">
  <circle cx="416.296" cy="494.028" r="8.36891" stroke-width="0.5" stroke="black" fill="green"/>
  <circle cx="416.296" cy="494.028" r="5.03556" stroke-width="0.5" stroke="black" fill="green"/>
   </g>
   <g id="cell106">
  <circle cx="639.275" cy="537.057" r="8.37092" stroke-width="0.5" stroke="black" fill="green"/>
  <circle cx="639.275" cy="537.057" r="5.03613" stroke-width="0.5" stroke="black" fill="green"/>
   </g>
   <g id="cell107">
  <circle cx="384.222" cy="512.268" r="8.35882" stroke-width="0.5" stroke="black" fill="cyan"/>
  <circle cx="384.222" cy="512.268" r="5.031" stroke-width="0.5" stroke="black" fill="cyan"/>
   </g>
   <g id="cell108">
  <circle cx="459.673" cy="643.711" r="8.3438" stroke-width="0.5" stroke="black" fill="magenta"/>
  <circle cx="459.673" cy="643.711" r="5.02558" stroke-width="0.5" stroke="black" fill="magenta"/>
   </g>
   <g id="cell109">
  <circle cx="448.132" cy="634.101" r="8.3438" stroke-width="0.5" stroke="black" fill="magenta"/>
  <circle cx="448.132" cy="634.101" r="5.02558" stroke-width="0.5" stroke="black" fill="magenta"/>
   </g>
   <g id="cell110">
  <circle cx="538.032" cy="589.291" r="8.33133" stroke-width="0.5" stroke="black" fill="green"/>
  <circle cx="538.032" cy="589.291" r="5.02068" stroke-width="0.5" stroke="black" fill="green"/>
   </g>
   <g id="cell111">
  <circle cx="633.992" cy="552.055" r="8.33121" stroke-width="0.5" stroke="black" fill="green"/>
  <circle cx="633.992" cy="552.055" r="5.02033" stroke-width="0.5" stroke="black" fill="green"/>
   </g>
   <g id="cell112">
  <circle cx="381.134" cy="575.313" r="8.34045" stroke-width="0.5" stroke="black" fill="magenta"/>
  <circle cx="381.134" cy="575.313" r="5.02356" stroke-width="0.5" stroke="black" fill="magenta"/>
   </g>
   <g id="cell113">
  <circle cx="422.285" cy="479.344" r="8.33481" stroke-width="0.5" stroke="black" fill="green"/>
  <circle cx="422.285" cy="479.344" r="5.02102" stroke-width="0.5" stroke="black" fill="green"/>
   </g>
   <g id="cell114">
  <circle cx="492.803" cy="447.448" r="7.92863" stroke-width="0.5" stroke="black" fill="magenta"/>
  <circle cx="492.803" cy="447.448" r="4.81629" stroke-width="0.5" stroke="black" fill="magenta"/>
   </g>
   <g id="cell115">
  <circle cx="451.973" cy="524.486" r="8.31269" stroke-width="0.5" stroke="black" fill="green"/>
  <circle cx="451.973" cy="524.486" r="5.01104" stroke-width="0.5" stroke="black" fill="green"/>
   </g>
   <g id="cell116">
  <circle cx="369.892" cy="519.099" r="8.28164" stroke-width="0.5" stroke="black" fill="cyan"/>
  <circle cx="369.892" cy="519.099" r="4.99808" stroke-width="0.5" stroke="black" fill="cyan"/>
   </g>
   <g id="cell117">
  <circle cx="437.667" cy="513.437" r="2.86208" stroke-width="0.5" stroke="black" fill="green"/>
  <circle cx="437.667" cy="513.437" r="2.39375" stroke-width="0.5" stroke="black" fill="black"/>
   </g>
   <g id="cell118">
  <circle cx="528.662" cy="524.641" r="8.27497" stroke-width="0.5" stroke="black" fill="cyan"/>
  <circle cx="528.662" cy="524.641" r="4.99242" stroke-width="0.5" stroke="black" fill="cyan"/>
   </g>
   <g id="cell119">
  <circle cx="526.581" cy="631.607" r="6.95398" stroke-width="0.5" stroke="black" fill="green"/>
  <circle cx="526.581" cy="631.607" r="4.23339" stroke-width="0.5" stroke="black" fill="green"/>
   </g>
   <g id="cell121">
  <circle cx="390.386" cy="550.898" r="8.24437" stroke-width="0.5" stroke="black" fill="magenta"/>
  <circle cx="390.386" cy="550.898" r="4.9783" stroke-width="0.5" stroke="black" fill="magenta"/>
   </g>
   <g id="cell122">
  <circle cx="608.258" cy="470.575" r="8.23444" stroke-width="0.5" stroke="black" fill="cyan"/>
  <circle cx="608.258" cy="470.575" r="4.97252" stroke-width="0.5" stroke="black" fill="cyan"/>
   </g>
   <g id="cell123">
  <circle cx="500.747" cy="644.262" r="8.21839" stroke-width="0.5" stroke="black" fill="cyan"/>
  <circle cx="500.747" cy="644.262" r="4.96448" stroke-width="0.5" stroke="black" fill="cyan"/>
   </g>
   <g id="cell124">
  <circle cx="384.861" cy="590.291" r="8.21273" stroke-width="0.5" stroke="black" fill="green"/>
  <circle cx="384.861" cy="590.291" r="4.96162" stroke-width="0.5" stroke="black" fill="green"/>
   </g>
   <g id="cell125">
  <circle cx="450.076" cy="459.276" r="8.19324" stroke-width="0.5" stroke="black" fill="cyan"/>
  <circle cx="450.076" cy="459.276" r="4.95205" stroke-width="0.5" stroke="black" fill="cyan"/>
   </g>
   <g id="cell126">
  <circle cx="416.976" cy="509.698" r="8.13027" stroke-width="0.5" stroke="black" fill="green"/>
  <circle cx="416.976" cy="509.698" r="4.92257" stroke-width="0.5" stroke="black" fill="green"/>
   </g>
   <g id="cell127">
  <circle cx="409.031" cy="598.876" r="8.13008" stroke-width="0.5" stroke="black" fill="cyan"/>
  <circle cx="409.031" cy="598.876" r="4.91894" stroke-width="0.5" stroke="black" fill="cyan"/>
   </g>
   <g id="cell128">
  <circle cx="368.814" cy="534.788" r="8.04329" stroke-width="0.5" stroke="black" fill="cyan"/>
  <circle cx="368.814" cy="534.788" r="4.88123" stroke-width="0.5" stroke="black" fill="cyan"/>
   </g>
   <g id="cell131">
  <circle cx="584.042" cy="537.027" r="7.98274" stroke-width="0.5" stroke="black" fill="cyan"/>
  <circle cx="584.042" cy="537.027" r="4.84291" stroke-width="0.5" stroke="black" fill="cyan"/>
   </g>
   <g id="cell132">
  <circle cx="505.493" cy="441.061" r="7.92863" stroke-width="0.5" stroke="black" fill="magenta"/>
  <circle cx="505.493" cy="441.061" r="4.81629" stroke-width="0.5" stroke="black" fill="magenta"/>
   </g>
   <g id="cell133">
  <circle cx="533.627" cy="408.82" r="7.93688" stroke-width="0.5" stroke="black" fill="magenta"/>
  <circle cx="533.627" cy="408.82" r="4.81381" stroke-width="0.5" stroke="black" fill="magenta"/>
   </g>
   <g id="cell134">
  <circle cx="515.767" cy="581.963" r="7.11686" stroke-width="0.5" stroke="black" fill="magenta"/>
  <circle cx="515.767" cy="581.963" r="4.35849" stroke-width="0.5" stroke="black" fill="magenta"/>
   </g>
   <g id="cell135">
  <circle cx="564.844" cy="480.838" r="7.83019" stroke-width="0.5" stroke="black" fill="cyan"/>
  <circle cx="564.844" cy="480.838" r="4.75343" stroke-width="0.5" stroke="black" fill="cyan"/>
   </g>
   <g id="cell137">
  <circle cx="379.288" cy="477.391" r="7.58987" stroke-width="0.5" stroke="black" fill="magenta"/>
  <circle cx="379.288" cy="477.391" r="4.6134" stroke-width="0.5" stroke="black" fill="magenta"/>
   </g>
   <g id="cell138">
  <circle cx="524.544" cy="590.361" r="6.51535" stroke-width="0.5" stroke="black" fill="magenta"/>
  <circle cx="524.544" cy="590.361" r="4.01849" stroke-width="0.5" stroke="black" fill="magenta"/>
   </g>
   <g id="cell139">
  <circle cx="512.467" cy="608.955" r="7.26771" stroke-width="0.5" stroke="black" fill="green"/>
  <circle cx="512.467" cy="608.955" r="4.43217" stroke-width="0.5" stroke="black" fill="green"/>
   </g>
   <g id="cell142">
  <circle cx="585.76" cy="383.499" r="6.87829" stroke-width="0.5" stroke="black" fill="magenta"/>
  <circle cx="585.76" cy="383.499" r="4.20286" stroke-width="0.5" stroke="black" fill="magenta"/>
   </g>
   <g id="cell143">
  <circle cx="537.239" cy="623.895" r="6.95398" stroke-width="0.5" stroke="black" fill="green"/>
  <circle cx="537.239" cy="623.895" r="4.23339" stroke-width="0.5" stroke="black" fill="green"/>
   </g>
   <g id="cell144">
  <circle cx="380.724" cy="541.656" r="6.95901" stroke-width="0.5" stroke="black" fill="magenta"/>
  <circle cx="380.724" cy="541.656" r="4.21341" stroke-width="0.5" stroke="black" fill="magenta"/>
   </g>
   <g id="cell145">
  <circle cx="462.116" cy="486.168" r="6.89675" stroke-width="0.5" stroke="black" fill="magenta"/>
  <circle cx="462.116" cy="486.168" r="4.17024" stroke-width="0.5" stroke="black" fill="magenta"/>
   </g>
   <g id="cell146">
  <circle cx="467.391" cy="426.377" r="6.73287" stroke-width="0.5" stroke="black" fill="cyan"/>
  <circle cx="467.391" cy="426.377" r="4.05039" stroke-width="0.5" stroke="black" fill="cyan"/>
   </g>
  </g>
 </g>
  <rect x="775" y="1035" width="200" height="10" stroke-width="2" stroke="rgb(255,255,255)" fill="rgb(0,0,0)"/>
  <text x="781.25" y="1028.75"
   font-family="Arial" font-size="25" fill="black" >
   200 &#956;m
  </text>
  <text x="25" y="1045"
   font-family="Arial" font-size="18.75" fill="black" >
   0 days, 0 hours, 0 minutes, and 31.2744 seconds
  </text>
  <rect x="0" y="70" width="1000" height="1000" stroke-width="2" stroke="rgb(0,0,0)" fill="none"/>
</svg>
